<?xml version="1.0" encoding="UTF-8"?>
<svg id="Capa_1" data-name="Capa 1" xmlns="http://www.w3.org/2000/svg" viewBox="0 0 523.5 528">
  <defs>
    <style>
      .cls-1, .cls-2 {
        fill: #48917d;
      }

      .cls-3 {
        fill: #ffc862;
      }

      .cls-4 {
        fill: #c5f0c9;
        stroke: #4100f4;
        stroke-width: 5px;
      }

      .cls-4, .cls-2 {
        stroke-miterlimit: 10;
      }

      .cls-2 {
        stroke: #000;
      }

      .cls-5 {
        fill: #fefefe;
      }
    </style>
  </defs>
  <circle class="cls-4" cx="259.25" cy="262" r="251"/>
  <g>
    <path class="cls-2" d="M425.95,343.79c.6,2.84-1.76,2.66-3.53,3.04-13.77,3-27.54,6-41.32,8.96-55.43,11.9-110.86,23.78-166.29,35.67-6.5,1.4-13.06,2.61-19.48,4.3-3.31,.87-4.95,.17-6.65-2.88-8-14.37-16.33-28.56-24.45-42.87-1.6-2.82-3.63-5.08-6.19-7.05-23.59-18.18-47.09-36.48-70.72-54.6-2.96-2.27-3.64-3.65-1.06-6.94,47.1-60.23,94.09-120.54,140.97-180.94,2.62-3.38,4.13-3.72,7.62-.98,27.04,21.22,54.31,42.15,81.4,63.31,2.78,2.17,5,2.91,7.83,.52,.83-.7,1.99-1.01,2.85-1.7,2.95-2.37,4.63-1.47,6.4,1.67,9.81,17.35,19.87,34.56,29.69,51.9,1.5,2.66,2.91,3.39,5.96,2.64,8.29-2.06,16.7-3.67,25.05-5.5,1.98-.44,3.55-.86,4.17,2.02,9.13,42.63,18.35,85.23,27.55,127.85,.1,.46,.12,.94,.2,1.59Zm-149.55,4.78c-11.94,6.7-23.89,13.39-36.1,20.24,1.59,1.16,2.68,.69,3.69,.47,44.98-9.73,89.95-19.51,134.93-29.2,2.44-.52,3.47-1.4,3.42-4.03-.25-12.57,5.21-21.51,17.24-26.01,1.72-.64,2.58-1.24,2.08-3.38-1.79-7.52-3.49-15.06-4.92-22.65-.64-3.41-2-3.27-4.43-1.8-3.79,2.29-7.67,4.43-11.51,6.64-12.59,7.27-25.18,14.54-37.77,21.82-11.69,6.57-23.34,13.19-35.09,19.65-2.25,1.24-1.97,2.77-1.7,4.73,.25,1.74,2.34,4.27-1,5-2.54,.55-5.92,3-7.47-1.69-.63-1.91-1.87-1.13-2.99-.48-6.13,3.56-12.26,7.13-18.38,10.69Zm-44.22-29.5c-8.69,9.85-16.25,20.59-24.44,30.83-1.43,1.79-.74,2.69,1.01,3.61,2.98,1.56,5.9,3.47,7.56,6.35,2.05,3.56,4.07,2.76,6.85,1.15,15.5-8.94,31.07-17.75,46.6-26.62,27.63-15.79,55.24-31.6,82.89-47.35,2.14-1.22,3.48-2.14,2.35-5.08-4.54-11.75-1.57-21.65,8.04-29.64,1.31-1.09,2.37-1.95,1.23-3.88-8.59-14.57-17.11-29.18-25.66-43.78-.59-1.01-1.37-2-2.63-1.46-4.64,2-9.49,2.32-14.44,2.09-1.27-.06-1.93,.96-2.61,1.83-8.8,11.38-17.59,22.76-26.39,34.15-7.51,9.52-15.01,19.03-22.71,28.79,14.71,3.65,17.71,17.96,12.01,26.54-2.37,3.57-1.98,6.26-.18,9.35,2.74,4.7-2.08,4.56-3.96,6.18-2.75,2.38-3.58-.4-4.31-2.07-1.44-3.29-3.44-4.64-7.26-4.17-5.11,.63-9.7-1.15-13.34-4.94-.85-.88-1.85-1.75-1.12-3.28,1.28-2.68,7.69-4.53,10.27-2.9,3.48,2.2,7.88,1.18,10.4-2.41,2.14-3.05,1.57-7.37-1.3-9.87-2.89-2.51-8.67-2.69-10.81,.08-9.37,12.15-19.3,23.88-28.06,36.5Zm-101.59-36.02c-.37,4.03-1.15,8.25-3.48,11.93-1.43,2.27-.87,3.54,1.11,5.06,12.93,9.94,25.83,19.93,38.64,30.04,2.09,1.65,3.24,1.4,5.12-.34,8.77-8.13,19.21-9.64,29.74-4.08,3.16,1.67,4.58,.94,6.56-1.61,30.63-39.53,61.33-79.01,92.1-118.43,1.51-1.93,1.39-2.89-.26-4.64-8.61-9.13-10.11-19.61-4.22-30.44,1.33-2.44,.84-3.36-1.13-4.86-12.98-9.87-25.91-19.83-38.75-29.89-2.14-1.68-3.25-1.83-5.42,.19-8.67,8.06-19.25,9.44-29.82,4.04-2.43-1.24-3.67-1.21-5.44,1.07-30.76,39.63-61.6,79.2-92.49,118.73-1.62,2.08-1.53,3.21,.32,5.04,4.94,4.9,7.18,11.05,7.44,18.22Zm260.55-19.18c.87-8.29-.25-9.89-4.95-8.26,1.46,2.43,2.89,4.81,4.95,8.26Z"/>
    <path class="cls-3" d="M130.59,283.05c-.26-7.17-2.5-13.32-7.44-18.22-1.85-1.83-1.94-2.96-.32-5.04,30.9-39.52,61.74-79.09,92.49-118.73,1.76-2.27,3.01-2.31,5.44-1.07,10.57,5.4,21.15,4.03,29.82-4.04,2.17-2.02,3.28-1.87,5.42-.19,12.84,10.06,25.76,20.02,38.75,29.89,1.97,1.5,2.46,2.42,1.13,4.86-5.89,10.84-4.39,21.31,4.22,30.44,1.65,1.75,1.77,2.71,.26,4.64-30.76,39.43-61.47,78.9-92.1,118.43-1.98,2.55-3.4,3.28-6.56,1.61-10.53-5.56-20.97-4.05-29.74,4.08-1.88,1.74-3.03,1.99-5.12,.34-12.81-10.1-25.7-20.1-38.64-30.04-1.98-1.52-2.54-2.8-1.11-5.06,2.33-3.68,3.11-7.9,3.48-11.93Zm31.54-50.41c-.64,27.06,21.61,49.35,48.78,49.32,27.87-.03,49.24-22.2,49.4-48.35,.17-28.32-22.06-50.01-48.65-50.08-27.33-.07-50.19,21.78-49.53,49.11Z"/>
    <path class="cls-3" d="M292.54,241.26c8.79-11.38,17.58-22.77,26.39-34.15,.67-.87,1.34-1.89,2.61-1.83,4.95,.22,9.8-.09,14.44-2.09,1.26-.54,2.04,.45,2.63,1.46,8.55,14.6,17.07,29.21,25.66,43.78,1.14,1.93,.07,2.8-1.23,3.88-9.62,8-12.58,17.9-8.04,29.64,1.14,2.94-.2,3.86-2.35,5.08-27.65,15.75-55.26,31.57-82.89,47.35-15.53,8.88-31.1,17.69-46.6,26.62-2.79,1.61-4.8,2.41-6.85-1.15-1.66-2.88-4.59-4.79-7.56-6.35-1.75-.92-2.44-1.82-1.01-3.61,8.19-10.24,15.75-20.98,24.45-30.83,2.64,.17,4.78,1.67,6.92,2.92,9.09,5.33,19.23,6.12,28.98,4.47,39.36-6.69,53.33-49.89,31.89-78.33-2.07-2.74-3.77-5.85-7.44-6.86Z"/>
    <path class="cls-3" d="M343.03,310.67c12.59-7.27,25.18-14.55,37.77-21.82,3.84-2.21,7.72-4.35,11.51-6.64,2.43-1.47,3.79-1.61,4.43,1.8,1.44,7.59,3.14,15.13,4.92,22.65,.51,2.13-.35,2.73-2.08,3.38-12.03,4.5-17.49,13.44-17.24,26.01,.05,2.64-.98,3.51-3.42,4.03-44.99,9.69-89.96,19.46-134.93,29.2-1.01,.22-2.1,.69-3.69-.47,12.21-6.84,24.15-13.54,36.1-20.24,26.49,13.55,64.35-7.99,66.63-37.9Z"/>
    <path class="cls-5" d="M292.54,241.26c3.67,1.01,5.37,4.12,7.44,6.86,21.43,28.44,7.47,71.65-31.89,78.33-9.75,1.66-19.89,.86-28.98-4.47-2.14-1.25-4.28-2.75-6.92-2.92,8.76-12.62,18.68-24.35,28.06-36.5,2.14-2.77,7.92-2.6,10.81-.08,2.88,2.5,3.45,6.82,1.3,9.87-2.52,3.59-6.93,4.61-10.4,2.41-2.58-1.63-8.99,.22-10.27,2.9-.73,1.53,.27,2.4,1.12,3.28,3.64,3.79,8.23,5.56,13.34,4.94,3.83-.47,5.82,.88,7.26,4.17,.73,1.67,1.56,4.46,4.31,2.07,1.87-1.63,6.7-1.49,3.96-6.18-1.8-3.09-2.19-5.77,.18-9.35,5.7-8.59,2.7-22.9-12.01-26.54,7.7-9.76,15.21-19.28,22.71-28.79Z"/>
    <path class="cls-5" d="M343.03,310.67c-2.28,29.92-40.14,51.46-66.63,37.9,6.13-3.56,12.26-7.13,18.38-10.69,1.12-.65,2.36-1.43,2.99,.48,1.55,4.7,4.93,2.25,7.47,1.69,3.33-.73,1.24-3.26,1-5-.28-1.96-.55-3.49,1.7-4.73,11.75-6.46,23.4-13.08,35.09-19.65Z"/>
    <path class="cls-3" d="M391.13,263.86c-2.07-3.45-3.5-5.83-4.95-8.26,4.71-1.63,5.82-.02,4.95,8.26Z"/>
    <path class="cls-5" d="M162.12,232.64c-.66-27.33,22.2-49.18,49.53-49.11,26.59,.07,48.82,21.75,48.65,50.08-.16,26.15-21.53,48.32-49.4,48.35-27.18,.03-49.42-22.26-48.78-49.32Zm22.71-10.44c-.54,7.11,1.63,12.44,7.45,15.83,5.86,3.42,11.74,3.22,17.51-.47,2.4-1.53,4.82-3.08,7.38-4.3,3.32-1.58,6.53-1.16,9.14,1.59,2.17,2.28,2.84,4.96,1.19,7.81-1.92,3.31-4.67,5.1-8.69,4.21-1.15-.25-2.39-1.28-3.42,.22-1.68,2.45-5.48,4.78-4.83,7.14,.81,2.95,5.02,3.25,8.23,3.47,3.2,.22,6.54,.26,9.21-1.62,3.07-2.16,5.45-1.78,7.78,.83,3.04,3.41,4.52,.86,6.55-1.36,2.68-2.92,.93-4.2-1.37-5.78-2-1.37-4.21-2.39-3.3-5.9,1.98-7.63-.37-14.27-6.82-18.79-6.37-4.46-13.17-3.76-19.79-.03-2.76,1.55-5.5,3.15-8.36,4.48-2.66,1.23-4.97,.26-6.77-1.89-1.3-1.56-1.89-3.34-.84-5.26,1.31-2.39,3.17-3.87,6.13-3.6,2.76,.25,8.91-4.08,8.55-6.69-.49-3.59-4.33-3.29-7.02-3.91-2.33-.53-5-.56-6.95,.79-3.68,2.54-6.46,1.77-9.48-1.11-3.18-3.03-4.46,.41-6.28,2.18-2.23,2.16-1.07,3.41,.87,4.73,2.81,1.9,5.78,3.79,3.92,7.44Z"/>
    <path class="cls-1" d="M184.84,222.19c1.86-3.64-1.11-5.53-3.92-7.44-1.95-1.32-3.1-2.57-.87-4.73,1.82-1.76,3.1-5.21,6.28-2.18,3.02,2.87,5.8,3.65,9.48,1.11,1.96-1.35,4.63-1.32,6.95-.79,2.7,.62,6.54,.31,7.02,3.91,.35,2.61-5.79,6.94-8.55,6.69-2.96-.27-4.82,1.21-6.13,3.6-1.05,1.93-.46,3.71,.84,5.26,1.8,2.15,4.11,3.12,6.77,1.89,2.86-1.33,5.61-2.93,8.36-4.48,6.62-3.73,13.42-4.43,19.79,.03,6.46,4.52,8.81,11.16,6.82,18.79-.92,3.52,1.3,4.53,3.3,5.9,2.3,1.58,4.05,2.86,1.37,5.78-2.04,2.22-3.52,4.77-6.55,1.36-2.33-2.61-4.71-2.99-7.78-.83-2.67,1.88-6.01,1.84-9.21,1.62-3.21-.22-7.42-.52-8.23-3.47-.65-2.37,3.15-4.69,4.83-7.14,1.02-1.49,2.27-.47,3.42-.22,4.02,.89,6.78-.9,8.69-4.21,1.65-2.85,.98-5.53-1.19-7.81-2.61-2.75-5.83-3.17-9.14-1.59-2.56,1.22-4.98,2.77-7.38,4.3-5.76,3.68-11.64,3.89-17.51,.47-5.82-3.39-7.99-8.73-7.45-15.83Z"/>
  </g>
</svg>