<?xml version="1.0" encoding="UTF-8"?>
<svg id="Capa_1" data-name="Capa 1" xmlns="http://www.w3.org/2000/svg" xmlns:xlink="http://www.w3.org/1999/xlink" viewBox="0 0 480.5 455">
  <defs>
    <style>
      .cls-1 {
        fill: #1a161a;
      }

      .cls-1, .cls-2, .cls-3, .cls-4, .cls-5, .cls-6, .cls-7, .cls-8, .cls-9 {
        fill-rule: evenodd;
      }

      .cls-2 {
        fill: #0c0914;
      }

      .cls-3 {
        fill: #ff4b35;
      }

      .cls-4 {
        fill: #ffc71c;
      }

      .cls-10 {
        fill: #fdfdfd;
      }

      .cls-11 {
        fill: #48917d;
      }

      .cls-12 {
        clip-path: url(#clippath);
      }

      .cls-13 {
        fill: none;
      }

      .cls-5 {
        fill: #fe4b35;
      }

      .cls-6 {
        fill: #fffefe;
      }

      .cls-7 {
        fill: #dcae92;
      }

      .cls-8 {
        fill: #b28b67;
      }

      .cls-9 {
        fill: #ff743a;
      }
    </style>
    <clipPath id="clippath">
      <circle class="cls-13" cx="231.94" cy="206.59" r="248.7"/>
    </clipPath>
  </defs>
  <g>
    <g class="cls-12">
      <g id="Master_Character_Standing" data-name="Master/Character/Standing">
        <g id="Lower_Body" data-name="Lower Body">
          <g id="Lower_Body_Jeans_2" data-name="Lower Body/Jeans 2">
            <g id="pant">
              <path id="path_10" data-name="path 10" class="cls-2" d="M25.45,416.44L-11.27,879.5c36.21,2.96,74.7,2.53,114.62,0,0,0,6.33-387.04,9.8-387.43,6.5-.73,38.46,387.43,38.46,387.43,36.11,5.85,71.54,4.07,106.75,0,0,0-26.8-342.91-72.67-464.79-72.5,3.22-160.24,1.73-160.24,1.73"/>
              <path id="path_21" data-name="path 21" class="cls-6" d="M65.51,431.53c-.86-.45-1.92-.11-2.37,.75-11.64,22.45-36.77,20.33-37.87,20.22-.97-.09-1.83,.61-1.92,1.58-.09,.97,.61,1.82,1.58,1.92,.05,0,.92,.08,2.39,.08,7.13,0,28.36-1.79,38.94-22.19,.45-.86,.11-1.92-.75-2.37"/>
              <path id="path_22" data-name="path 22" class="cls-6" d="M194.45,449.2c-1.03,.1-25.42,2.24-36.72-20.22-.43-.86-1.46-1.2-2.3-.75-.84,.45-1.16,1.51-.73,2.37,10.25,20.39,30.84,22.19,37.75,22.19,1.43,0,2.27-.08,2.32-.08,.94-.09,1.62-.95,1.53-1.92-.09-.96-.93-1.67-1.86-1.58"/>
            </g>
          </g>
        </g>
        <g id="Upper_Body" data-name="Upper Body">
          <g id="Upper_Body_Arms_Crossed" data-name="Upper Body/Arms Crossed">
            <g id="T_Shirt" data-name="T Shirt">
              <path id="Fill_1" data-name="Fill 1" class="cls-9" d="M24.79,417.06c-.98-7.94-8.16-60.22-9.84-89.79-11.92,2.51-13.56-51.7,1.85-86.43,24.55-55.32,108.83-38.02,108.83-38.02,0,0,25.18-1.18,50.04,19.16,11.11,9.09,23.35,29.4,29.43,51.69-1.9,6.17-22.04,33.81-29.39,38.51,11.35,55.13,20.33,104.87,20.33,104.87,0,0-146.33,2.29-171.25,0Z"/>
              <path id="Fill_3" data-name="Fill 3" class="cls-1" d="M194.38,416.41c-1.6-9.14-9.93-54.8-20.05-103.94-.12-.57,.13-1.15,.62-1.47,7.1-4.54,26.26-30.97,28.68-37.37-5.77-20.86-17.34-41.14-28.85-50.56-24.11-19.73-48.84-18.86-49.08-18.85-.12,0-.23,0-.35-.03-.21-.04-21.19-4.26-44.84-1.71-13.82,1.49-25.83,4.96-35.7,10.32-12.26,6.66-21.25,16.28-26.72,28.6-5.99,13.5-9.95,31.52-10.86,49.45-.81,15.99,1.01,29.22,4.63,33.7,1.19,1.47,2.17,1.47,2.81,1.33,.4-.08,.82,.01,1.14,.26,.33,.25,.53,.63,.55,1.04,1.45,25.54,7.39,66.52,9.63,83.8,.25,1.9,.45,3.45,.59,4.56,25.92,1.91,152.01,1.37,167.8,.85Zm-169.18,1.86c-.66-.06-1.19-.57-1.27-1.23-.13-1.07-.38-3.02-.73-5.68-2.2-17-7.99-56.75-9.57-82.63-1.21-.13-2.62-.74-3.96-2.4-4.1-5.07-6.11-18.71-5.26-35.61,.93-18.26,4.97-36.65,11.1-50.45,10.25-23.1,32.64-37.14,64.75-40.58,22.93-2.46,43.39,1.32,45.47,1.72,2.49-.09,26.64-.3,50.81,19.49,12.01,9.83,24.02,30.89,29.9,52.41,.07,.26,.07,.53-.01,.78-1.82,5.88-20.87,32.46-29.17,38.72,11.14,54.19,20.07,104.19,20.16,104.71,.07,.4-.04,.81-.29,1.13-.26,.31-.64,.5-1.04,.52-4.8,.16-96.76-.28-145.25-.28-11.69,0-20.84-.18-25.65-.62Z"/>
            </g>
            <g id="Neck">
              <path id="SKIN" class="cls-7" d="M90.92,181.22s-.95,24.19-10.95,27.65c-2.72,13.6,15.71,22.88,29.72,22.23,27.12-1.27,18.68-23.44,16.81-23.5,.05-2.78,1.55-23.56,1.55-23.56l-37.13-2.81Z"/>
              <path id="Fill_8" data-name="Fill 8" class="cls-1" d="M81.31,209.94c-.49,3.56,.62,6.93,3.28,10.03,5.18,6.02,15.7,10.08,25.03,9.64,9.32-.44,15.31-3.54,17.33-8.97,1.89-5.1-.19-10.63-1.03-11.66-.54-.23-.92-.78-.9-1.4,.05-2.38,1.1-17.31,1.45-22.15l-34.14-2.59c-.4,5.41-2.35,23.08-11.02,27.11m26.96,22.68c-9.79,0-20.49-4.37-25.94-10.71-3.44-4-4.76-8.62-3.82-13.34,.1-.52,.48-.95,.98-1.12,7.4-2.56,9.69-19.85,9.95-26.3,.02-.41,.2-.79,.5-1.06,.3-.27,.71-.4,1.11-.37l37.13,2.81c.82,.06,1.44,.78,1.38,1.6-.01,.19-1.31,18.22-1.52,22.75,1.63,1.75,2.66,6.05,2.68,9.09,.03,4.26-1.43,7.98-4.23,10.76-3.55,3.53-9.18,5.49-16.72,5.85-.5,.02-.99,.03-1.5,.03"/>
            </g>
            <g id="Hand">
              <path id="SKIN_2" data-name="SKIN 2" class="cls-7" d="M205.05,273.46l-38.54,5.4,4.26,24.87s-55.47-5.37-74.52-11.68c-9.59-3.17-21.98,.36-26.84,10.34-2.57,5.28-.91,19.01-.91,19.01,0,0,17.87-.24,22.97-.24,.52,0,1.2,.18,2,.49l-25.65,.27-1.29-37.02-60.38,.76s-11.47,79.73,34.42,92.15c41.81,11.31,92.33-26.97,96.28-30.03,19.62,10.21,42.94,18.22,64.91,12.62,27.78-7.09,4.42-83.8,3.28-86.94"/>
              <path id="Fill_13" data-name="Fill 13" class="cls-1" d="M210.13,351.78c-2.08,3.92-4.93,6.3-8.71,7.27-33.95,8.67-70.87-15.55-92.92-30.01-7.29-4.78-11.76-7.66-14.7-8.76,0,0-.02-.02-.02-.03h-.05c-.88-.32-1.62-.49-2.26-.49-4.26,0-17.52,.17-21.71,.23-.43-4.42-.85-13.35,.92-16.98,3.7-7.59,14.11-13.27,25.13-9.62,18.93,6.27,72.24,11.49,74.8,11.74l9.18,1.22c.06,0,.13,.01,.19,.01,.69,0,1.3-.51,1.39-1.22,.1-.77-.44-1.48-1.21-1.58l-8.18-1.09-3.84-22.43,35.94-5.04c1.21,3.86,4.86,16.57,7.37,31.12,3.67,21.31,3.22,37.09-1.32,45.64m-153.29,26.7c-5.37,0-10.71-.62-15.9-2.02-18.42-4.98-29.65-21.64-33.39-49.5-2.43-18.1-.71-35.3-.16-39.9l57.78-.73,1.24,35.65c.03,.76,.66,1.35,1.42,1.36l25.4-.27c2.89,1.22,7.99,4.56,13.72,8.32,7.58,4.97,16.9,11.08,27.26,16.64-8.68,6.37-43.75,30.46-77.37,30.46m149.53-105.5c-.23-.62-.86-1-1.52-.91l-37.23,5.22-4.68-23.17c-.15-.76-.9-1.25-1.66-1.1-.76,.15-1.25,.89-1.1,1.66l4.94,24.45,3.94,23.03c-9.75-1-55.64-5.89-72.38-11.43-5.06-1.67-10.93-1.58-16.1,.25-5.33,1.89-9.59,5.47-12.08,10.13l-.56-16.01c0-.06,.02-.12,.01-.18l-.49-28.59c-.01-.78-.62-1.41-1.43-1.38-.78,.01-1.39,.65-1.38,1.43l.47,27.16-58.99,.75c-.69,0-1.27,.52-1.37,1.21-.03,.2-2.86,20.37,0,41.8,3.84,28.72,16.09,46.66,35.45,51.9,5.44,1.47,11.03,2.11,16.61,2.11,17.91,0,35.8-6.54,48.97-12.9,15.69-7.58,27.71-16.3,31.18-18.91,15.12,7.82,32.28,14.21,49.48,14.21,5.24,0,10.48-.59,15.67-1.92,4.53-1.16,8.06-4.08,10.5-8.67,12.06-22.76-6.05-79.56-6.24-80.11"/>
            </g>
          </g>
        </g>
        <g id="Head">
          <g id="Head_Curly_Hair_Long" data-name="Head/Curly Hair Long">
            <g id="Curly_Hair_Long" data-name="Curly Hair Long">
              <path id="SKIN-2" data-name="SKIN" class="cls-7" d="M141.79,147.95c-4.21-34.94-28.81-37.14-45.4-34.12-13.22,2.4-30.14,13.34-28.64,35.33-6.62-2.15-11.46,1.88-12.31,7.11-.98,5.94,2.14,15.98,11.94,14.25,.94,16.15,15.64,39.61,47.7,37.26,24.28-1.78,30.54-28.02,26.71-59.83"/>
              <path id="Combined_Shape" data-name="Combined Shape" class="cls-1" d="M68.32,169.73c1.63,7.79,3.83,18.37,13.72,26.74,11.81,10.76,38.52,15.77,50.52,1.2,8.68-9.32,11.15-34.24,6.81-55.66-1.07-2.51-2.7-4.44-4.21-6.23-1.69-2-3.23-3.83-3.7-6.12-9.91,3.27-23.33,2.68-28.66-8.13,0,2.86-7.96,12.65-19.67,11.61,0,0,2.05,5.79-2.05,12.54-5.24,6.77-9.17,5.83-12.98,4.92-2.51-.6-4.97-1.19-7.73,.43-5.25,3.3-4.56,11.8-.49,16.17,1.84,1.82,4.28,2.47,7.26,1.94,.39-.07,.8,.03,1.12,.28,.02,.1,.04,.21,.06,.31Zm73.31-46.66c9.99,3.91,9.43,24.32,7.11,24.32,6.74,1.7,5.54,14,1.28,14.39,6.59,5.43,5.56,24.1-.43,25.92,17.87,36.12-29.79,46.55-26.8,19.99-11.86,3.59-26.64,1.3-36.63-4.76,.27,4.25-1.52,9.02-2.59,11.86-.04,.11-.08,.22-.12,.33-6.21,16.6-44.15,16.6-52.58,1.14-8.43-15.46-4.91-27.49,4.44-33.39-13.03-9.34-10.58-30.25,2.06-32.68-5.5-14.86-.76-30.74,15.7-29.41-.08-17.76,14.79-25.59,27.74-23.11,1.52-8.47,22.37-10.64,26.93-1.96,22.03-8.32,37.78,12.48,33.88,27.37Zm-77.38,37.07c-.53,.75-1.08,1.53-1.74,1.41-2.51-.45-.8-5.26,.92-6.54,3.3-2.18,5.08,1.47,1.73,4.05-.31,.24-.6,.66-.9,1.08Z"/>
            </g>
          </g>
        </g>
        <g id="Face">
          <g id="Face_Normal_Face_2" data-name="Face/Normal Face 2">
            <path id="Normal_face_2" data-name="Normal face 2" class="cls-1" d="M131.11,149.03c-.8-.99-1.84-1.88-3.06-2.5-1.21-.64-2.57-.97-3.89-1.12-1.32-.15-2.62-.14-3.87-.01-1.25,.12-2.46,.32-3.66,.53-.12,.02-.26,.06-.38,.1-1.14,.42-1.73,1.69-1.3,2.83,.42,1.14,1.69,1.73,2.83,1.3,1.03-.38,2.07-.7,3.1-.94,1.03-.23,2.05-.4,3.03-.38,1.97,.04,3.66,.8,5.32,2.08h.02c.48,.38,1.16,.39,1.66,0,.58-.46,.67-1.31,.2-1.88Zm-36.62-1.8c.9-.03,1.77-.05,2.61-.13,1.16-.11,2.19,.75,2.29,1.91,.11,1.16-.75,2.19-1.91,2.29-.05,0-.1,0-.14,0h-.03c-1.36,.03-2.67-.06-3.92-.14h0c-1.03-.07-2.02-.13-2.96-.13-1.04,0-2.03,.1-2.99,.36-.95,.26-1.87,.64-2.86,1.06l-.05,.02c-.61,.26-1.31-.02-1.56-.63-.19-.44-.09-.94,.22-1.27,.86-.94,1.99-1.68,3.21-2.17,1.22-.5,2.52-.79,3.77-.95,1.07-.13,2.11-.17,3.11-.2h0c.17,0,.34-.01,.5-.02,.24,0,.47-.01,.7-.02h0Zm27.78,13.8c-.29-1.98,.93-3.8,2.73-4.06,1.79-.26,3.48,1.14,3.76,3.12,.29,1.98-.93,3.8-2.72,4.06-1.79,.26-3.48-1.14-3.76-3.12Zm-12.24,18.63c-.32-.07-.55-.14-.95-.31-.5-.21-.73-.79-.52-1.29,.13-.29,.38-.49,.66-.57l.38-.09c.16-.04,.49-.03,.75-.01h.07c.25,.02,.42,.03,.68,.03,.51,0,1.02-.03,1.5-.12,.96-.17,1.78-.56,2.17-1.09,.2-.26,.32-.57,.37-.95,.05-.37,.02-.84-.07-1.17-.17-.65-.71-1.2-1.52-1.75-.4-.27-.85-.52-1.33-.74l-.18-.09-.11-.05c-.11-.05-.25-.14-.31-.2-.07-.06-.14-.12-.19-.19l-.12-.15c-.21-.31-.27-.49-.32-.66-.01-.04-.02-.07-.04-.11-.12-.38-.17-.7-.23-1.02-.19-1.25-.25-2.41-.31-3.58-.11-2.34-.12-4.65-.06-6.97,.01-.55,.47-.98,1.01-.97,.52,.01,.93,.42,.97,.93h0c.14,2.29,.3,4.58,.51,6.84,.12,1.12,.25,2.26,.46,3.28,.04,.18,.08,.35,.13,.5,.54,.22,1.07,.47,1.61,.79,.57,.35,1.15,.77,1.65,1.35,.51,.57,.9,1.33,1.08,2.11,.17,.79,.17,1.49,.05,2.26-.12,.76-.45,1.55-.98,2.18-.52,.64-1.2,1.08-1.87,1.37-.68,.29-1.36,.43-2.02,.51-.66,.07-1.31,.08-1.95,.03-.3-.02-.68-.06-.97-.13Zm8.74,8.86h-.01c-2.71,1.35-5.86,1.65-8.82,1.27-1.47-.17-2.89-.55-4.18-1.18-.65-.31-1.26-.67-1.83-1.09-.28-.21-.55-.43-.81-.66-.03-.03-.07-.07-.1-.1-.09-.08-.18-.17-.26-.25-.11-.1-.24-.26-.27-.3-.03-.05-.07-.09-.11-.13-.65-.72-1.76-.78-2.48-.13-.72,.65-.78,1.76-.13,2.48l.02,.02c.24,.26,.39,.4,.58,.57,.15,.13,.29,.26,.44,.38,.03,.03,.07,.06,.1,.09,.37,.29,.75,.56,1.13,.81,.77,.5,1.59,.91,2.43,1.25,1.68,.69,3.47,1.04,5.23,1.13,1.76,.09,3.49-.12,5.19-.51,1.69-.41,3.33-1.07,4.8-2.01,.4-.26,.55-.78,.34-1.21-.23-.47-.8-.66-1.26-.43Zm-31.16-27.22c.29-1.98,1.97-3.38,3.76-3.12,1.79,.26,3.01,2.08,2.73,4.06-.29,1.98-1.97,3.38-3.76,3.12-1.79-.26-3.01-2.08-2.73-4.06Z"/>
          </g>
        </g>
        <g id="Accessories">
          <g id="Accessories_Glasses" data-name="Accessories/Glasses">
            <path id="Glass" class="cls-3" d="M124.46,169.38c-6.54,0-11.48-5.1-11.48-11.85s5.26-12.22,11.73-12.22,11.97,5.16,11.97,11.74-5.6,12.34-12.22,12.34m-36.52,4.7c-6.56,0-12.1-6.35-12.1-13.86,0-6.92,5.81-12.54,12.94-12.54s12.32,6.05,12.32,13.48c0,7-6.03,12.92-13.16,12.92m36.76-31.58c-6.16,0-11.42,3.99-13.54,9.59-2.61-.19-7.27,.41-9.31,.9-2.62-4.85-7.5-8.12-13.08-8.12-8.69,0-15.75,6.89-15.75,15.35,0,9.19,6.69,16.67,14.91,16.67,8.66,0,15.97-7.21,15.97-15.73,0-1.96-.32-3.84-.91-5.58,1.74-.35,5.5-.74,7.42-.74-.15,.87-.25,1.77-.25,2.69,0,8.22,6.28,14.66,14.29,14.66s15.03-6.94,15.03-15.15-6.49-14.55-14.78-14.55"/>
          </g>
        </g>
      </g>
      <g id="Master_Character_Standing-2" data-name="Master/Character/Standing">
        <g id="Lower_Body-2" data-name="Lower Body">
          <g id="Lower_Body_Jeans_2-2" data-name="Lower Body/Jeans 2">
            <g id="pant-2" data-name="pant">
              <path id="path_10-2" data-name="path 10" class="cls-2" d="M468.08,418.02s-88.14,1.5-160.97-1.74c-46.08,122.44-73,466.92-73,466.92,35.38,4.09,70.96,5.88,107.24,0,0,0,32.1-389.94,38.63-389.21,3.49,.39,9.85,389.21,9.85,389.21,40.1,2.54,78.77,2.98,115.15,0l-36.89-465.18"/>
              <path id="path_21-2" data-name="path 21" class="cls-6" d="M427.84,433.18c-.87,.45-1.2,1.51-.75,2.38,10.62,20.48,31.95,22.29,39.11,22.29,1.48,0,2.36-.08,2.41-.08,.97-.1,1.68-.96,1.58-1.93-.1-.97-.95-1.68-1.93-1.58-1.1,.11-26.35,2.24-38.04-20.32-.45-.87-1.51-1.2-2.38-.75"/>
              <path id="path_22-2" data-name="path 22" class="cls-6" d="M298.31,450.93c-.94-.09-1.78,.62-1.87,1.59-.09,.97,.6,1.83,1.53,1.93,.05,0,.9,.08,2.33,.08,6.94,0,27.62-1.8,37.92-22.29,.43-.87,.11-1.93-.73-2.38-.84-.45-1.87-.11-2.31,.75-11.35,22.57-35.84,20.42-36.88,20.32"/>
            </g>
          </g>
        </g>
        <g id="Upper_Body-2" data-name="Upper Body">
          <g id="Upper_Body_Pointing" data-name="Upper Body/Pointing">
            <g id="hand_2" data-name="hand 2">
              <path id="SKIN-3" data-name="SKIN" class="cls-8" d="M166.38,265.18c-7.34-.53-9.21,.56-9.44,3.54-.37,4.78,9.85,7.04,9.85,7.04-4.44,.54-6.95,5.9,5.29,10.3,13.49,4.85,45.96,23.29,76.68,31.97,.27,.08,.61,.11,1,.1,27.03,7.39,51.32,6.2,75.8-8.51-3.76-33.32-14.27-44.18-18.41-49.53-2.1,1.07-6.18,13.02-34.82,12.45-14.55-.29-33.83-9.2-38.31-11.36-21.87-12.15-38.27-22.71-41.84-23.64-4.77-1.24-3.68,8.74,2.94,15.08-7.53-3.54-25.66-12.23-30.17-8.02-4.56,4.25,5.35,10.88,5.35,10.88-5.98-1.17-13.27-3.11-13.82,1.47-.59,4.94,9.91,8.23,9.91,8.23"/>
              <path id="Fill_3-2" data-name="Fill 3" class="cls-1" d="M167.12,274.3c-2.92-.65-8.88-2.84-8.68-5.46,.1-1.32,.21-2.69,7.68-2.17l13.8,3.98c1.42,.43,2.12-1.78,.7-2.24-4.87-2.3-21.99-5.26-22.66-11.29,.94-3.34,8.12-.68,11.97-.19,0,0,13.54,4.1,13.54,4.1,.58,.17,1.2-.13,1.41-.71,.21-.6-.1-1.25-.69-1.47l-13.2-4.72c-2.38-1.89-7.51-5.6-5.02-8.44,3.66-3.41,21.95,5.2,27.96,8.03,1.07,.96,2.13,2.62,2.39,4.01-.2,5.76,2.15,12.84,7.94,15.12,.9,.34,1.5-1.05,.61-1.46-.33-.16-5.78-3.12-5.97-11.18-.04-1.54,.72-3.28-.02-4.65-.65-1.55-1.59-2.81-2.73-4.02-4.55-4.19-7.09-12.48-4.36-12.54,10.55,5.82,24.83,14.37,40.78,23.19,0,0,.02,0,.03-.01,6.01,2.91,12.11,5.4,18.42,7.5,3.19,1.06,6.43,1.99,9.73,2.74,3.3,.74,6.66,1.3,10.09,1.49,3.43,.13,6.76,.08,10.15-.19,3.38-.27,6.76-.77,10.08-1.65,3.31-.89,6.58-2.14,9.54-4.04,1.48-.95,2.88-2.04,4.13-3.28,.63-.62,1.22-1.27,1.77-1.92l.51-.6c1.07,1.34,2.1,2.65,3.07,4.02,1.25,1.79,2.42,3.63,3.47,5.55,2.12,3.82,3.81,7.89,5.19,12.07,.38,1.03,.66,2.1,.98,3.15,.31,1.06,.64,2.11,.89,3.19l.8,3.21,.68,3.25,.34,1.62,.28,1.64,.55,3.28c.29,1.89,.52,3.8,.77,5.69-8.69,5.14-18.17,8.93-28.06,10.8-10.19,1.95-20.72,1.91-31,.3-10.3-1.58-20.39-4.54-30.22-8.16-9.83-3.64-19.42-7.96-28.88-12.55h0s-.03-.01-.04-.02c-14.59-7.38-29.72-14.07-33.25-14.6-7.36-2.74-10.4-6.15-5.78-7.37l10.08,1.51c1.32,.22,1.71-1.82,.4-2.11-.01,0-10.16-2.38-10.18-2.39m-7.32-10.46c-2.62,.54-4.13,1.92-4.36,4.77-.3,3.86,3.99,6.24,7.33,7.51-2.62,3.74-1.25,7.46,8.79,11.37,11.81,4.25,22.86,9.01,33.07,14.24,.01,0,.02,.02,.04,.02,9.51,4.62,19.17,8.98,29.12,12.67,9.95,3.67,20.2,6.7,30.76,8.32,10.53,1.65,21.41,1.71,31.95-.3,10.55-1.98,20.64-6.08,29.78-11.6h.02c.48-.3,.72-.84,.65-1.37h0c-.3-2.24-.56-4.48-.9-6.71l-.56-3.34-.29-1.67-.35-1.66-.69-3.32-.82-3.3c-.26-1.1-.59-2.19-.91-3.27-.33-1.09-.62-2.18-1.01-3.25-1.42-4.31-3.18-8.54-5.4-12.54-1.1-2.01-2.33-3.94-3.64-5.82-1.32-1.86-2.78-3.65-4.13-5.36l-.04-.05c-.42-.53-1.15-.66-1.71-.34-.41,.23-.65,.46-.84,.64-.19,.19-.34,.37-.5,.54l-.81,.96c-.52,.62-1.05,1.19-1.6,1.74-1.11,1.1-2.34,2.06-3.66,2.91-2.64,1.7-5.65,2.86-8.75,3.69-3.11,.83-6.33,1.31-9.58,1.57-3.23,.25-6.56,.31-9.77,.18-3.21-.19-6.42-.74-9.6-1.47-3.18-.74-6.33-1.66-9.45-2.71-6.15-2.08-12.23-4.6-18.04-7.45-16.11-8.96-30.6-17.65-41.36-23.36-6.68-.76-5.43,7.12-2.38,12.6-11.69-5.25-22.29-8.88-26.25-5.18-3.08,2.77-1.38,6.82,1.14,9.44-9.99-2.57-14.1,5.68-5.26,10.9"/>
            </g>
            <g id="T_Shirt-2" data-name="T Shirt">
              <path id="Fill_5" data-name="Fill 5" class="cls-9" d="M313.85,300.97c-1.01,9.22-2.03,19.37-3.23,30.65-4.45,41.93-9.46,91.13-9.46,91.13h166.66s44.03-149-10-194.75c-31.9-27.01-97.47-28.99-121.96-.8-.09,.11-.18,.22-.28,.33,0,0-16.42,18.42-38.32,32.41,4.55,15.26,11.08,29.95,16.59,41.03Z"/>
              <path id="Fill_7" data-name="Fill 7" class="cls-1" d="M312.99,295.96c-4.85-10.14-10.16-22.57-14.07-35.41,10.98-7.13,20.59-15.35,27.36-21.69-7.28,14.06-10.4,31.93-13.29,57.1Zm-10.3,125.38c.69-7.95,5.4-52.59,9.33-89.57,.48-4.51,.93-8.84,1.36-13,4.84-46.54,7.5-72.18,23.54-90.64,11.1-12.77,32.45-20.17,57.12-19.81,24.44,.36,47.94,8.13,62.87,20.77,12.06,10.21,20.06,26.28,23.76,47.77,2.99,17.33,3.21,38.18,.66,61.96-3.96,36.82-12.74,76.51-14.56,82.53h-164.08Zm-6.19-162.59c-.53,.34-.77,.99-.59,1.59,4.51,15.11,10.98,29.72,16.5,40.85-.6,5.43-1.19,11.17-1.83,17.28-.43,4.16-.88,8.49-1.36,13-4.4,41.46-9.43,90.74-9.46,91.16-.03,.39,.1,.78,.37,1.07,.27,.29,.64,.46,1.04,.46h166.66c.62,0,1.16-.4,1.35-.99,.11-.36,10.57-43.15,14.97-84.02,2.59-24.05,2.36-45.17-.67-62.77-3.82-22.17-12.14-38.81-24.72-49.46-15.41-13.05-39.58-21.06-64.65-21.44-25.88-.38-47.48,7.19-59.29,20.78-.55,.63-1.09,1.28-1.61,1.93-4.54,4.8-18.97,19.23-36.69,30.55Z"/>
            </g>
            <g id="Neck-2" data-name="Neck">
              <path id="SKIN_2-2" data-name="SKIN 2" class="cls-8" d="M409.64,188.59s-.7,11.71-.41,21.69c2.63,4.67,1.8,9-2.39,13.54-8.39,9.09-37.17,12.42-37.49-1.26-.25-10.71,2.13-31.8,2.13-31.8"/>
              <path id="Fill_12" data-name="Fill 12" class="cls-1" d="M384.01,233.16c-3.28,0-6.37-.45-8.93-1.41-4.57-1.73-7.04-4.89-7.13-9.15-.25-10.68,2.04-31.13,2.14-31.99,.09-.77,.78-1.33,1.56-1.24,.77,.09,1.33,.79,1.24,1.56-.02,.21-2.37,21.12-2.12,31.61,.07,3.06,1.86,5.27,5.31,6.58,8.3,3.14,24.14-.19,29.73-6.24,3.82-4.14,4.49-7.8,2.19-11.89-.11-.2-.17-.42-.18-.65-.29-9.93,.4-21.7,.41-21.82,.05-.78,.71-1.38,1.49-1.33,.78,.05,1.37,.71,1.33,1.49,0,.12-.68,11.5-.41,21.23,2.71,5.07,1.81,9.94-2.75,14.88-4.71,5.1-14.97,8.38-23.87,8.38"/>
            </g>
            <g id="hand">
              <path id="SKIN_3" data-name="SKIN 3" class="cls-8" d="M260.77,355.27c-1.48,4.21,5.4,5.39,15.25,4.7-.53,4.63-.35,8.84,.15,11.42,.83,4.28,4.54,6.54,7.99,5.45,1.54,5.36,4.27,5.53,7.3,3.65,2.52,6.39,7.19,2.78,7.87-4.28,5.6,2.14,8.17,5.79,17.4,4.49,7.39-1.04,24.94,1.86,44.83,5.25l.07-.41c41.34,4.67,85.79-.04,101.04-17.09,17.02-19.01,20.26-38.01,21.5-48.78-12.36-.11-32.24-.39-60.27-4.36-.4,4.74-1.48,11.55-4.39,15.96-3.52,5.33-29.87,9.25-53.58,9.57-37.67-1.08-82.38-1.76-86.41,6.45-.08,.17-.15,.34-.23,.51-7.59,1.88-17.17,3.66-18.51,7.46"/>
              <path id="Fill_16" data-name="Fill 16" class="cls-1" d="M262.26,356.87c-1.05-3.69,8.86-5.38,14.52-6.9-1.02,2.82-1.69,5.76-2.09,8.58-7.75,.43-11.51-.52-12.43-1.68m15.39,14.24c-1.16-6.53-.06-16.62,3.22-23.14,.47-.95,2.13-2.27,7.15-3.44,17.32-3.45,43.14-3.08,66.21-2.45,.1,.03,.21,.05,.32,.05,23.06,.96,61.2-2.57,66.15-10.06,2.99-4.52,4.14-11.24,4.58-16.1,13.04,2.52,34.85,4.31,48.45,4.31,3.75,0,6.87-.14,9.02-.43-1.25,10.62-4.56,29.18-21.11,47.67-7.59,8.48-23.16,14.33-45.03,16.92-18.14,2.15-39.03,1.82-59.5-.87-16.75-2.74-31.8-4.89-40.56-4.35-6.55,.92-11.1-1.49-15.65-3.78,.45-1.46,1.29-3.01,2.45-3.85,.51-.39,.62-1.12,.23-1.64-1.83-1.68-3.91,2.16-4.61,3.41-1.66,2.67-.86,6.71-2.96,8.95-2.27,.99-2.98-1.75-3.42-3.55,.11-4.65,.54-9.47,2.16-13.84,.19-.5-.07-1.07-.59-1.25-1.88-.43-2.83,4.35-3.26,5.75-1.13,3.74-.98,7.98-1.71,10.18-.63,.85-1.6,.33-2.37-.33-1.29-1.16-1.54-2.94-1.81-4.62-.6-5.08-.07-10.28,.99-15.31,.13-.94-1.31-1.25-1.57-.34-1.67,5.56-2.68,11.46-1.97,17.31-2.47,.3-4.14-2.47-4.79-5.2m-18.28-16.33c-1.85,7.48,9.35,6.91,14.99,6.81-.62,7.63,.1,18.38,8.82,17.63,1.03,2.64,4.35,5.02,7.22,3.37,1.06,2.84,4.78,4.09,7.35,2.27,2.05-1.63,2.23-4.09,2.49-6.37,4.49,2.28,9.6,4.71,16.69,3.71,7.1-.52,19.09,1.08,32.4,3.1,.15,.02,.3,.04,.45,.06,.05,.01,.09,.03,.14,.04,13.37,2.11,27.67,3.26,41.55,3.26,31.09,0,60.15-5.74,72.24-19.25,17.74-19.82,20.76-39.65,21.94-50.36,.02-.21,0-.42-.06-.6,.06-.23,.06-.48-.01-.72-.22-.75-1-1.18-1.75-.96-6.24,1.83-41.77-.12-59.68-3.9-.76-.16-1.51,.33-1.67,1.09-.05,.25-.03,.5,.05,.73-.35,4.6-1.35,11.51-4.2,15.83-3.1,4.7-29.56,8.84-54.21,8.96-30.13-.58-63.37-1.02-78.12,2.25-5.04,1.12-7.07,2.9-7.77,4.8-.29,.08-.23,.05-.34,.08-7.32,1.75-17.27,3.79-18.53,8.17"/>
              <path id="Fill_18" data-name="Fill 18" class="cls-1" d="M417.1,312.77c-.13,.71,.3,1.39,.98,1.58h.02c.49,.14,.93,.25,1.38,.36l1.34,.31,2.67,.58c.76,.17,1.51-.32,1.68-1.08,.17-.76-.32-1.51-1.08-1.68h-.02s-2.63-.58-2.63-.58l-1.3-.3s-.03,0-.05-.01c.92-5.93,1.83-11.88,2.43-17.89,.32-3.22,.56-6.46,.61-9.72,.05-3.25-.07-6.53-.61-9.8-.09-.52-.58-.87-1.09-.78-.51,.08-.86,.56-.79,1.07h0c.44,3.11,.48,6.28,.36,9.45-.13,3.17-.44,6.34-.83,9.51-.79,6.34-1.93,12.64-3.06,18.97"/>
            </g>
            <path id="Fill_20" data-name="Fill 20" class="cls-4" d="M389.61,298.78l-13.72,.53,.86,29.69-21.39-44.1,14.63-.23-5.59-22.13h22.73s2.48,36.23,2.48,36.23Z"/>
          </g>
        </g>
        <g id="Head-2" data-name="Head">
          <g id="Head_Short_Hair_5" data-name="Head/Short Hair 5">
            <g id="Short_Hair" data-name="Short Hair">
              <path id="SKIN-4" data-name="SKIN" class="cls-8" d="M355.24,147.48c-7.16,31.38,2.85,62.01,31.84,62.25,26.61,.22,40.02-23.56,40.97-39.78,9.85,1.74,13.68-11.99,12.23-18.04-1.24-5.18-7.91-7.93-12.6-3.42,1.5-22.09-11.4-33.52-24.68-35.93-16.67-3.03-39.68-.47-47.75,34.92"/>
              <path id="ink" class="cls-1" d="M435.07,166.22c4.3-5.18,6.94-15.75-.38-18.36-2.3-.73-4.55,.22-6.4,1.9-2.79,3.72-11.79,7.82-9.19-5.38,1.7-8.58,1.3-16.17-12.52-13.59-6.76,1.26-11.39-.78-14.93-2.33-2.49-1.09-4.44-1.95-6.2-1.25-7.77,3.08-15.75,4.17-22.24,3.01-5.87,10.05-8.89,24.86-8.79,37.03-.98,56.54,67.19,52.1,72.22,2.62,.31-1.3,1.43-1.31,2.85-1.33,1.71-.02,3.86-.04,5.58-2.31Zm-63.03-68.91c4.15,3.16,5.32,2.51,9.45-2.86,5.11-6.65,16.45-5.17,25.94,8.05,3.26,4.54,6.87,4.96,10.96,5.44,5.59,.65,12.07,1.42,19.8,12.88,4.3-11.43,3.18-.47,2.7,4.29-.11,1.1-.19,1.87-.16,1.95,.41,.12,1.02,.29,1.72,.48,2.52,.68,6.28,1.69,6.59,2.3,.79,1.56-1.38,1.31-3.63,1.04-1.67-.2-3.39-.4-3.97,.14,9.42,33.63-8.04,52.84-16.54,55.67-8.79,22.5-45.43,35.41-63.71,12.31-7.84-9.91-11.03-25.2-9.03-42.12-3.46-6.54-1.23-24.33,2.35-30.33-7.26-6.11-8.46-17.54,.32-19.51,.67-10.39,6.51-17.87,17.19-9.73Zm59.71,62.55c-.76-.12-1.42-1.91-1.12-3.73,.3-1.82,1.32-2.3,2.08-2.18,.76,.12,1.24,1.02,.95,2.84-.3,1.82-1.15,3.19-1.91,3.07Z"/>
            </g>
          </g>
        </g>
        <g id="Face-2" data-name="Face">
          <g id="Face_Surprise" data-name="Face/Surprise">
            <g id="Surprise">
              <path id="Face-3" data-name="Face" class="cls-1" d="M363.47,151.1c1.21-.56,2.45-.96,3.68-1.25,1.23-.28,2.45-.48,3.66-.66,.12-.02,.26-.03,.39-.02,1.22,.04,2.18,1.06,2.14,2.28-.04,1.22-1.06,2.18-2.28,2.14-1.1-.03-2.2-.01-3.25,.09-1.05,.11-2.08,.27-3.01,.6-1.87,.66-3.23,1.92-4.41,3.67v.02c-.35,.5-1,.73-1.6,.51-.7-.26-1.05-1.03-.79-1.73,.45-1.2,1.16-2.38,2.12-3.36,.95-1,2.15-1.74,3.35-2.3Zm43.62,4.46c.88,.53,1.72,1.19,2.48,1.95,.49,.49,.96,1.01,1.44,1.53h0c.27,.3,.54,.6,.82,.9l.02,.03c.45,.48,1.21,.51,1.69,.06,.36-.34,.47-.84,.31-1.28-.43-1.21-1.1-2.32-1.91-3.34-.81-1.02-1.73-1.98-2.8-2.81-1.06-.83-2.28-1.52-3.6-2-1.32-.49-2.75-.73-4.18-.74h-.02c-1.17,0-2.12,.94-2.13,2.11,0,1.17,.94,2.12,2.11,2.13,.05,0,.11,0,.16,0,1.89-.13,3.83,.39,5.59,1.47Zm-38.89,13.87c-1.8-.26-3.03-2.09-2.74-4.08,.29-1.99,1.98-3.4,3.78-3.13,1.8,.26,3.03,2.09,2.74,4.08-.29,1.99-1.98,3.4-3.78,3.13Zm11.1,11.88c-.6-.62-1.04-1.55-.97-2.54,.06-.99,.58-1.85,1.18-2.41,.3-.29,.62-.53,.94-.73,.11-.07,.23-.13,.35-.19h0s.02-.01,.02-.01c.04-.1,.07-.23,.1-.34,.06-.26,.11-.54,.16-.82,.18-1.16,.29-2.38,.41-3.6h0c.04-.42,.37-.76,.79-.79,.48-.04,.9,.31,.95,.79,.11,1.26,.18,2.51,.13,3.82-.02,.33-.04,.66-.08,1.01-.01,.07-.02,.14-.03,.2-.04,.29-.09,.6-.3,1.06-.01,.02-.02,.04-.03,.06h0s0,0,0,0c-.08,.14-.17,.31-.43,.53-.08,.07-.18,.13-.28,.18l-.06,.03-.08,.04c-.11,.05-.22,.11-.32,.17-.21,.11-.39,.24-.54,.37-.32,.27-.46,.55-.5,.8-.03,.25,.06,.55,.3,.83,.24,.28,.61,.52,1.04,.67,.21,.08,.45,.13,.68,.16,.09,.02,.17,.02,.25,.02,.16,0,.32,0,.5,.12l.19,.12c.1,.07,.19,.16,.27,.27,.31,.45,.19,1.07-.26,1.37-.29,.2-.61,.19-.93,.18h0c-.06,0-.11,0-.17,0-.38-.02-.76-.06-1.14-.17-.76-.2-1.5-.58-2.11-1.21Zm18.85-13.8c.29,1.99,1.98,3.4,3.78,3.13,1.8-.26,3.03-2.09,2.74-4.08-.29-1.99-1.98-3.4-3.78-3.13-1.8,.26-3.03,2.09-2.74,4.08Zm-16.24,28.72c-3.06-.44-5.3-2.42-5.01-4.41,.29-1.99,3-3.25,6.06-2.81,3.06,.44,5.3,2.42,5.01,4.41-.29,1.99-3,3.25-6.06,2.81Z"/>
              <path id="dots" class="cls-5" d="M365.98,175.01c1.06,0,1.07-1.63,.01-1.64-1.06,0-1.07,1.63-.01,1.64Zm31.82,2.79c-1.42-.66-2.45,1.55-1.03,2.21,1.43,.66,2.45-1.55,1.03-2.21Zm5.18,1.79c-1.04-.49-1.8,1.13-.76,1.62,1.05,.49,1.8-1.13,.76-1.62Zm-4.22,7.71c1.73,.81,2.97-1.87,1.25-2.68-1.73-.81-2.97,1.87-1.25,2.68Zm7.92-.13c2.75-.47-.28-4.01-1.23-1.75-.59,.9,.1,2.16,1.23,1.75Zm-39.38-6.77c-1.74-.01-1.77,2.69-.02,2.71,1.74,.01,1.77-2.69,.02-2.71Zm-5.56-1.23c.77,.79,1.85,.01,1.71-.96,.11-2.25-3.8-.51-1.71,.96Zm9.45-1.45c1.44,.01,1.46-2.22,.02-2.24-1.44-.01-1.46,2.22-.02,2.24Z"/>
            </g>
          </g>
        </g>
        <g id="Facial_Hair" data-name="Facial Hair">
          <g id="Facial_Hair_Moustache" data-name="Facial Hair/Moustache">
            <path id="Moustache" class="cls-1" d="M406.72,190.72c.99-2.33-3.01-7.81-8.45-10.7-9.49-5.04-15.16-.37-16.54-.4-1.55-.03-3.52-2.85-8.35-2.1-7.57,1.18-11.96,7.47-11.96,7.47,0,0-3.78,5.17,4.19,4.68,8.77-.54,16.34-2.41,16.34-2.41,0,0,23.78,5.81,24.78,3.45Z"/>
          </g>
        </g>
      </g>
    </g>
    <g>
      <path class="cls-11" d="M276.88,3.94c9.98-.07,15.77,3.84,15.76,14.46-.03,25.37-.04,50.74,0,76.11,.02,10.25-4.59,14.91-15.21,14.65-18.74-.45-37.5,.12-56.25-.18-22.55-.36-45.54-3.35-59.63,21.19-3.65,6.35-11.23,6.78-13.1-2.17-2.31-11.06-5.14-19.67-18.61-20.94-4.74-.45-4.73-6.81-4.73-11.25-.05-25.37,.12-50.74-.09-76.11-.09-11.25,5.21-15.89,16.19-15.77,22.61,.23,45.22,.07,67.83,.07,22.61,0,45.22,.11,67.83-.05Zm-125.75,19.28c-3.66,.02-8.78-.87-9.39,4.22-.66,5.49,4.45,5.38,8.14,5.39,36.86,.09,73.73,.06,110.59,.03,3.39,0,7.48-.4,7.81-4.34,.47-5.61-4.53-5.26-8.2-5.28-18.71-.12-37.41-.06-56.12-.06-17.61-.02-35.21-.08-52.82,.04Zm68.58,36.99c3.22-.04,7.19-.13,7.28-4.6,.09-4.37-3.68-5.01-7.03-5.02-23.62-.09-47.24-.09-70.86-.03-3.36,0-7.22,.62-7.36,4.77-.15,4.34,3.82,4.84,7.11,4.87,12.08,.13,24.17,.05,36.26,.05,11.54,0,23.07,.08,34.61-.04Z"/>
      <path class="cls-10" d="M203.95,23.18c-17.61,0-35.21-.07-52.82,.05-3.66,.02-8.78-.87-9.39,4.22-.66,5.49,4.45,5.38,8.14,5.39,36.86,.09,73.73,.06,110.59,.03,3.39,0,7.48-.4,7.81-4.34,.47-5.61-4.53-5.26-8.2-5.28-18.71-.12-37.41-.06-56.12-.07Z"/>
      <path class="cls-10" d="M185.1,60.26c11.54,0,23.07,.08,34.61-.05,3.22-.04,7.19-.13,7.28-4.6,.09-4.37-3.68-5.01-7.03-5.02-23.62-.09-47.24-.09-70.86-.03-3.36,0-7.22,.62-7.36,4.77-.15,4.34,3.82,4.84,7.11,4.87,12.08,.13,24.17,.05,36.26,.05Z"/>
    </g>
  </g>
  <g>
    <path class="cls-11" d="M199.77,347.14c-10.03,.07-15.85-3.85-15.84-14.53,.03-25.5,.04-50.99,0-76.49-.02-10.3,4.61-14.98,15.29-14.72,18.83,.45,37.69-.12,56.53,.18,22.67,.37,45.77,3.36,59.93-21.29,3.66-6.38,11.29-6.81,13.17,2.18,2.32,11.12,5.16,19.77,18.7,21.04,4.76,.45,4.75,6.84,4.76,11.31,.05,25.5-.12,51,.09,76.49,.09,11.31-5.24,15.97-16.27,15.85-22.72-.23-45.45-.07-68.17-.07-22.72,0-45.45-.11-68.17,.05Zm126.38-19.38c3.68-.03,8.83,.87,9.44-4.24,.66-5.52-4.48-5.41-8.18-5.42-37.05-.09-74.1-.06-111.15-.03-3.41,0-7.52,.4-7.85,4.36-.47,5.64,4.55,5.28,8.24,5.31,18.8,.12,37.6,.06,56.4,.06,17.7,.02,35.39,.08,53.09-.04Zm-68.92-37.17c-3.23,.04-7.23,.13-7.31,4.62-.09,4.39,3.69,5.03,7.06,5.05,23.74,.09,47.48,.09,71.22,.03,3.38,0,7.26-.62,7.4-4.79,.15-4.36-3.84-4.86-7.15-4.9-12.14-.13-24.29-.05-36.44-.05-11.59,0-23.19-.09-34.78,.04Z"/>
    <path class="cls-11" d="M272.94,327.81c17.73,0,35.46,.07,53.19-.05,3.68-.03,8.84,.87,9.46-4.24,.66-5.52-4.48-5.41-8.2-5.42-37.12-.09-74.24-.06-111.37-.03-3.41,0-7.53,.4-7.86,4.36-.47,5.64,4.56,5.28,8.26,5.31,18.84,.12,37.68,.06,56.52,.07Z"/>
    <path class="cls-10" d="M272.44,290.55c-16.8,0-33.6-.08-50.4,.05-4.69,.04-10.47,.13-10.6,4.62-.13,4.39,5.35,5.03,10.24,5.05,34.4,.09,68.8,.09,103.2,.03,4.9,0,10.51-.62,10.72-4.79,.22-4.36-5.56-4.86-10.36-4.9-17.6-.13-35.2-.05-52.8-.05Z"/>
    <path class="cls-10" d="M294.46,318.09c-11.05,0-22.1-.08-33.14,.05-3.08,.04-6.89,.13-6.97,4.62-.08,4.39,3.52,5.03,6.73,5.05,22.62,.09,45.25,.09,67.87,.03,3.22,0,6.91-.62,7.05-4.79,.14-4.36-3.66-4.86-6.81-4.9-11.57-.13-23.15-.05-34.72-.05Z"/>
  </g>
</svg>