<?xml version="1.0" encoding="UTF-8"?>
<svg id="Capa_1" data-name="Capa 1" xmlns="http://www.w3.org/2000/svg" viewBox="0 0 510.5 516.5">
  <defs>
    <style>
      .cls-1 {
        fill: #fff;
      }

      .cls-2 {
        fill: #c5f0c9;
      }

      .cls-2, .cls-3, .cls-4, .cls-5, .cls-6, .cls-7 {
        stroke-miterlimit: 10;
      }

      .cls-2, .cls-3, .cls-7 {
        stroke-width: 3px;
      }

      .cls-2, .cls-4, .cls-5 {
        stroke: #000;
      }

      .cls-2, .cls-6, .cls-7 {
        stroke-linecap: round;
      }

      .cls-3 {
        fill: #ffd2d7;
        stroke: #4100f4;
      }

      .cls-4, .cls-5, .cls-6 {
        stroke-width: 2px;
      }

      .cls-4, .cls-8 {
        fill: #ffa42b;
      }

      .cls-5, .cls-9 {
        fill: #4100f4;
      }

      .cls-10 {
        fill: #ef77a1;
      }

      .cls-6, .cls-7 {
        fill: none;
        stroke: #ffd2d7;
      }
    </style>
  </defs>
  <circle class="cls-3" cx="252.25" cy="258.5" r="247.25"/>
  <g>
    <g>
      <path class="cls-1" d="M207.44,390.88c-5.84-.04-11.36-.1-16.81-2.73-10.24-4.92-15.26-12.9-15.79-25.11-.09-2.11-.12-4.27-.14-6.35,0-.64-.02-1.28-.03-1.93,1.06-.01,2.12-.03,3.18-.04,3.11-.03,6.22-.07,9.33-.14,6.86-.16,10.06-3.42,10.07-10.25,.05-24.52,.05-49.53,0-76.45-.01-6.73-3.61-10.41-10.4-10.64-3.02-.1-6.08-.11-9.05-.11-1.01,0-2.02,0-3.03,0l-.04-90.01c0-1.65,0-3.31,.02-4.96,.02-3.71,.04-7.54-.03-11.32-.12-6.01-2.19-11-6.35-15.26-1.75-1.79-3.79-3.15-5.76-4.46-1.59-1.05-3.1-2.06-4.46-3.27,.83-.52,1.85-.64,3.13-.64,25.47,.05,50.9,.07,76.33,.1h13.69c.72,7.85,2.57,14.03,5.81,19.41,7.46,12.39,19.5,19.22,33.91,19.22,4.65,0,9.52-.71,14.49-2.1-.91,26.45-1.12,46.82-.68,65.89,.07,2.94,.15,5.89,.23,8.83,.23,8.25,.47,16.79,.38,25.18-.05,4.66-.31,9.66-.78,15.27-.19,2.25,.18,3.79,1.16,4.86,1.02,1.11,2.6,1.61,5.12,1.61h.12c11.75-.07,23.5-.11,34.91-.11s22.09,.03,32.85,.1c4.74,.03,10.31,.31,15.73,2.22,9.65,3.4,16.67,13.19,16.67,23.29,0,11.08,.02,22.54-.03,34.11,0,.3,.03,.63,.07,.97,.14,1.22,.04,1.31-.24,1.4-.06,.02-.12,.03-.18,.03-.43,0-1.04-.51-1.57-.97-.18-.15-.35-.3-.52-.43-4.78-3.79-7.18-5.69-9.69-5.69-2.7,0-4.94,2.21-9.4,6.62-1.78,1.76-2.95,2.92-3.64,2.92-.7,0-1.92-1.19-3.78-2.99l-.09-.09c-1.31-1.28-2.39-2.39-3.31-3.33-2.72-2.79-4.08-4.19-5.85-4.19-1.87,0-3.43,1.57-6.84,5.02-.77,.78-1.63,1.65-2.62,2.63-.27,.27-.53,.55-.79,.84-.88,.97-1.65,1.81-2.84,1.89-.18-.07-.37-.12-.56-.18-.42-.13-.82-.26-1.04-.44-1.29-1.07-2.5-2.31-3.67-3.5-1.62-1.65-3.3-3.36-5.29-4.78-1.11-.79-2.06-1.16-2.98-1.16-1.09,0-2.1,.5-3.15,1.58-2.46,2.52-5.13,5.21-7.96,7.81-1.03,.95-1.84,1.4-2.48,1.4s-1.35-.55-2.04-1.63c-.89-1.39-2-2.62-3.06-3.81-.92-1.03-1.8-2-2.54-3.07-1.18-1.68-2.5-2.5-4.03-2.5-1.06,0-2.18,.38-3.63,1.23-2.26,1.32-4.03,3.12-5.75,4.86-1.25,1.27-2.44,2.47-3.79,3.5-.94,.72-1.64,1.05-2.2,1.05-.37,0-.97-.13-1.91-1.24-1.08-1.27-2.3-2.44-3.47-3.56-1.04-1-2.12-2.03-3.08-3.12-1.49-1.7-2.85-2.49-4.26-2.49s-2.72,.78-4.09,2.4c-1.9,2.25-4.19,4.32-6.21,6.14l-.27,.25c-.44,.41-.99,.93-1.4,.93-.11,0-.23-.04-.36-.12-.22-.14-.23-.46-.15-1.31,.03-.3,.06-.6,.06-.88,0-2.78-.02-5.57-.04-8.35-.04-8.59-.09-17.47,.1-26.19,.1-4.81-.95-9.06-3.33-13.39-4.97-9.06-13.13-14.05-23-14.05-2.64,0-5.42,.36-8.24,1.06-11.56,2.88-19.04,12.87-19.06,25.45,0,5.31,.01,10.63,.03,15.94,.04,11,.08,22.38-.13,33.55-.27,14.25-5.43,22.85-16.23,27.08l-.19,.08c-1.07,.41-2.6,1.01-3.03,2.64Zm-2.18-154.33c-.81,0-1.85,.1-2.62,.87-.63,.63-.94,1.57-.93,2.87,0,3.73,2.71,3.73,3.59,3.73,.29,0,.59-.01,.88-.03,.26-.01,.52-.03,.78-.03,13.08,.01,26.16,.02,39.23,.02s25.62,0,38.43-.02c.25,0,.51,.01,.76,.02,.29,.01,.57,.02,.85,.02,.9,0,3.63,0,3.63-3.75s-2.66-3.72-3.54-3.72c-.3,0-.6,.02-.91,.03-.27,.01-.54,.03-.79,.03-6.63-.02-13.24-.02-19.85-.02h-37.95c-6.62,0-13.25,0-19.87,.02-.27,0-.53-.01-.8-.03-.3-.01-.6-.03-.89-.03Zm-.15-22.6c-.79,0-1.8,.1-2.53,.86-.58,.61-.85,1.48-.8,2.66,.06,1.49,.66,3.28,3.22,3.28,.36,0,.73-.03,1.09-.06,.29-.02,.58-.05,.85-.05,6.85,.03,13.68,.04,20.51,.04h18.33s18.25,0,18.25,0c6.86,0,13.72,0,20.58-.04,.28,0,.57,.03,.87,.05,.36,.03,.74,.06,1.09,.06,2.56,0,3.17-1.77,3.23-3.26,.05-1.19-.21-2.06-.8-2.67-.74-.77-1.75-.86-2.56-.86-.29,0-.58,.01-.87,.03-.25,.01-.49,.02-.73,.02-13.03-.01-26.05-.02-39.07-.02s-26.04,0-39.06,.02c-.24,0-.49-.01-.74-.03-.29-.02-.59-.03-.88-.03Zm-.07-23.36c-.69,0-1.7,.09-2.44,.86-.6,.63-.87,1.55-.82,2.81,.09,2.11,1.17,3.22,3.12,3.22,.39,0,.8-.04,1.2-.08,.31-.03,.61-.07,.89-.07,13.15,.03,26.3,.04,39.45,.04s25.36-.01,38.04-.04c.29,0,.6,.03,.92,.06,.39,.03,.8,.07,1.19,.07,.68,0,1.67-.09,2.39-.85,.6-.63,.87-1.55,.81-2.81-.06-1.47-.67-3.22-3.17-3.22-.38,0-.77,.04-1.15,.07-.3,.03-.6,.06-.87,.06-6.9-.04-13.78-.04-20.65-.04h-18.11s-18.59,0-18.59,0c-6.72,0-13.44,0-20.16,.04h0c-.3,0-.6-.03-.91-.05-.38-.03-.76-.06-1.14-.06Z"/>
      <path d="M161.29,126.21l.04,2c25.53,.05,51.06,.07,76.59,.1h12.48c.79,7.57,2.67,13.62,5.86,18.92,7.65,12.71,19.99,19.7,34.76,19.7,4.33,0,8.84-.6,13.44-1.79-.87,25.81-1.07,45.82-.63,64.59,.07,2.95,.15,5.9,.23,8.84,.23,8.24,.47,16.76,.38,25.13-.05,4.64-.3,9.61-.78,15.19-.21,2.51,.25,4.35,1.42,5.62,1.59,1.73,4.1,1.93,5.85,1.93h.12c11.75-.07,23.49-.11,34.92-.11s22.08,.03,32.84,.1c4.65,.03,10.12,.31,15.4,2.16,9.27,3.26,16,12.66,16.01,22.35,0,11.1,.02,22.58-.03,34.11,0,.33,.03,.66,.06,.96-.12-.1-.23-.2-.33-.28-.18-.16-.37-.31-.55-.46-4.96-3.93-7.45-5.9-10.31-5.91-3.11,0-5.45,2.31-10.1,6.91-1.2,1.19-2.45,2.42-2.94,2.62-.51-.2-1.81-1.47-3.08-2.7l-.09-.09c-1.3-1.26-2.36-2.35-3.29-3.31-2.82-2.9-4.38-4.49-6.57-4.49-2.29,0-3.94,1.67-7.55,5.32-.77,.77-1.63,1.65-2.61,2.62-.28,.28-.55,.58-.83,.88-.88,.97-1.36,1.44-1.99,1.54-.13-.04-.26-.08-.38-.12-.24-.08-.6-.19-.7-.25-1.25-1.04-2.39-2.2-3.59-3.43-1.65-1.69-3.36-3.43-5.42-4.89-1.29-.92-2.42-1.34-3.56-1.34-1.36,0-2.63,.62-3.87,1.89-2.45,2.51-5.11,5.19-7.92,7.78-1.12,1.03-1.63,1.14-1.8,1.14-.21,0-.65-.31-1.2-1.17-.93-1.46-2.07-2.72-3.16-3.94-.9-1.01-1.76-1.96-2.47-2.98-1.36-1.94-2.99-2.92-4.85-2.92-1.25,0-2.52,.42-4.14,1.36-2.37,1.38-4.2,3.23-5.96,5.02-1.23,1.24-2.38,2.42-3.69,3.41-.97,.74-1.42,.85-1.6,.85-.26,0-.68-.32-1.15-.88-1.12-1.31-2.35-2.5-3.54-3.64-1.08-1.03-2.09-2-3.01-3.05-1.07-1.22-2.75-2.83-5.01-2.83-1.7,0-3.28,.9-4.85,2.75-1.86,2.2-4.12,4.24-6.12,6.05-.09,.08-.19,.17-.29,.26-.06,.06-.14,.13-.21,.2,.03-.26,.05-.55,.05-.85,0-2.79-.02-5.59-.04-8.39-.04-8.57-.09-17.43,.1-26.13,.11-4.99-.99-9.4-3.45-13.89-5.15-9.39-13.63-14.57-23.88-14.57-2.73,0-5.58,.37-8.49,1.09-12.02,3-19.8,13.37-19.82,26.42,0,5.32,.01,10.73,.03,15.95,.04,10.99,.08,22.36-.13,33.52-.26,13.79-5.22,22.11-15.59,26.16l-.19,.07c-.92,.36-2.57,1-3.35,2.57-5.47-.04-10.65-.2-15.7-2.62-9.87-4.74-14.71-12.45-15.22-24.26-.09-2.09-.12-4.23-.14-6.31,0-.31,0-.62-.01-.94,.72,0,1.44-.02,2.17-.02,3.06-.03,6.23-.07,9.35-.14,7.32-.17,11.04-3.96,11.05-11.24,.05-24.56,.05-49.57,0-76.45-.01-7.26-4.05-11.39-11.37-11.64-3.04-.1-6.11-.11-9.08-.11-.68,0-1.35,0-2.03,0l-.04-89.01c0-1.65,0-3.3,.02-4.95,.02-3.72,.04-7.56-.03-11.35-.12-6.28-2.29-11.49-6.63-15.94-1.82-1.87-3.91-3.25-5.92-4.59-1.02-.68-2.01-1.33-2.94-2.03,.31-.03,.66-.04,1.05-.04v-2m123.31,65.49v-2c-7.52-.04-14.98-.05-20.64-.05h-8.89s-8.89,0-8.89,0h-.34c-3.11,0-6.21,0-9.32,0-3.11,0-6.22,0-9.32,0-5.49,0-12.73,0-20.12,.04-.23,0-.51-.02-.81-.05-.37-.03-.79-.06-1.22-.06-.51,0-2.04,0-3.16,1.17-.79,.83-1.16,2.02-1.09,3.54,.11,2.65,1.61,4.18,4.12,4.18,.46,0,.91-.05,1.31-.09,.3-.03,.58-.06,.78-.06,12.97,.03,26.27,.04,39.53,.04,12.47,0,25.24-.01,37.97-.04,.22,0,.52,.03,.82,.05,.39,.03,.83,.07,1.27,.07,.5,0,2.01,0,3.12-1.16,.79-.82,1.16-2.02,1.09-3.54-.12-2.66-1.64-4.18-4.17-4.18-.44,0-.87,.04-1.25,.08-.29,.03-.57,.05-.77,.05v2m-79.6,30.04c.41,0,.82-.03,1.18-.06,.28-.02,.55-.05,.77-.05,7.49,.03,14.89,.04,20.49,.04h9.2s9.14,0,9.14,0h9.17s9.17,0,9.17,0c5.61,0,13,0,20.5-.04,.21,0,.48,.02,.76,.05,.36,.03,.76,.06,1.18,.06,2.58,0,4.12-1.54,4.23-4.22,.06-1.45-.3-2.59-1.07-3.4-1.01-1.05-2.35-1.17-3.28-1.17-.3,0-.61,.01-.92,.03-.23,.01-.46,.02-.68,.02-12.97-.01-25.93-.02-38.9-.02s-26.15,0-39.23,.02c-.22,0-.45-.01-.68-.03-.31-.02-.62-.03-.93-.03-.91,0-2.25,.12-3.25,1.16-.77,.8-1.14,1.94-1.08,3.39,.1,2.69,1.64,4.24,4.22,4.24m79.63,15.86v-2c-6.63-.02-13.25-.02-19.86-.02h-9.58s-9.4,0-9.4,0h-9.46s-9.46,0-9.46,0c-6.64,0-13.27,0-19.92,.02-.24,0-.48-.01-.73-.03-.32-.02-.63-.03-.94-.03-.93,0-2.28,.12-3.32,1.16-.83,.83-1.23,2-1.23,3.57,0,1.77,.61,4.73,4.59,4.73,.3,0,.62-.01,.93-.03,.25-.01,.49-.02,.73-.02,13.03,.01,26.06,.02,39.08,.02s25.71,0,38.57-.02c.23,0,.47,.01,.71,.02,.3,.01,.6,.03,.9,.03,4.03,0,4.63-2.97,4.63-4.75,0-1.76-.59-4.72-4.54-4.72-.32,0-.64,.02-.96,.03-.25,.01-.5,.03-.74,.03v2m-123.34-111.39c-1.77,0-3.37,.22-4.62,1.61,3.29,3.3,7.7,5.07,10.99,8.45,4.04,4.14,5.95,8.96,6.06,14.58,.11,5.42,.02,10.84,.01,16.26,.01,30.33,.03,60.67,.04,91,4.35,.03,8.7-.02,13.04,.12,6.27,.21,9.42,3.4,9.43,9.64,.04,25.48,.05,50.96,0,76.45-.01,6.29-2.87,9.1-9.1,9.25-4.5,.11-9,.13-13.5,.19,.06,3.1,.05,6.21,.19,9.3,.51,11.75,5.24,20.63,16.35,25.97,5.94,2.86,11.95,2.79,18.13,2.83-.03-1.83,1.45-2.3,2.71-2.79,12.81-5.01,16.63-15.61,16.86-27.99,.31-16.5,.07-33.01,.1-49.51,.02-12.2,7.13-21.7,18.3-24.48,2.78-.69,5.45-1.03,8-1.03,9.51,0,17.3,4.72,22.12,13.53,2.23,4.07,3.3,8.18,3.2,12.88-.25,11.52-.09,23.04-.06,34.56,0,1.04-.48,2.4,.57,3.04,.31,.19,.6,.27,.88,.27,.92,0,1.69-.85,2.34-1.44,2.19-1.98,4.4-3.99,6.3-6.24,1.18-1.4,2.26-2.04,3.33-2.04,1.15,0,2.29,.76,3.51,2.15,2.05,2.33,4.53,4.3,6.54,6.67,.94,1.11,1.8,1.59,2.68,1.59s1.77-.47,2.81-1.25c3.35-2.54,5.74-6.13,9.44-8.3,1.15-.67,2.18-1.09,3.13-1.09,1.14,0,2.18,.6,3.22,2.07,1.69,2.41,4,4.39,5.58,6.85,.96,1.5,1.92,2.09,2.89,2.09,1.04,0,2.09-.69,3.15-1.67,2.75-2.53,5.39-5.18,8-7.85,.84-.86,1.61-1.28,2.44-1.28,.73,0,1.5,.33,2.4,.97,3.34,2.38,5.79,5.64,8.89,8.23,.55,.46,1.38,.58,2.07,.86h0c2.17,0,3.21-1.74,4.5-3.02,5.04-4.98,6.95-7.36,8.76-7.36,1.85,0,3.59,2.49,8.47,7.24,2.31,2.25,3.45,3.37,4.57,3.37s2.18-1.07,4.34-3.21c4.31-4.26,6.4-6.33,8.69-6.33,2.17,0,4.51,1.86,9.07,5.48,.83,.65,1.71,1.62,2.71,1.62,.17,0,.34-.03,.51-.09,1.48-.51,.83-2.16,.84-3.32,.05-11.37,.04-22.74,.03-34.12,0-10.59-7.32-20.71-17.34-24.23-5.22-1.84-10.65-2.24-16.05-2.28-10.95-.07-21.9-.1-32.85-.1-11.64,0-23.29,.04-34.93,.11-.04,0-.07,0-.11,0-3.95,0-5.63-1.28-5.28-5.38,.43-5.1,.73-10.22,.79-15.34,.12-11.35-.35-22.69-.62-34.04-.52-22.4-.06-44.81,.73-67.21-5.4,1.65-10.61,2.45-15.54,2.45-13.97,0-25.68-6.49-33.05-18.73-3.69-6.13-5.19-12.86-5.74-19.88-30.3-.03-60.6-.05-90.89-.11-.01,0-.03,0-.04,0h0Zm123.31,65.49c.62,0,1.35-.13,2.02-.13,1.12,0,2.09,.36,2.17,2.27,.1,2.21-.96,2.61-2.21,2.61-.7,0-1.46-.13-2.1-.13h0c-12.65,.03-25.3,.04-37.96,.04s-26.35-.01-39.52-.04h0c-.63,0-1.39,.15-2.09,.15-1.09,0-2.04-.37-2.12-2.26-.09-2.23,.99-2.62,2.26-2.62,.68,0,1.41,.11,2.03,.11,0,0,.02,0,.03,0,6.7-.03,13.4-.04,20.1-.04,6.21,0,12.43,0,18.64,0h.34c5.93,0,11.85,0,17.78,0,6.87,0,13.75,0,20.62,.05,0,0,.01,0,.02,0h0Zm-79.6,28.04c-1.15,0-2.15-.35-2.22-2.31-.08-2.16,1.05-2.48,2.34-2.48,.54,0,1.1,.06,1.62,.06h0c13.07-.01,26.15-.02,39.22-.02s25.93,0,38.9,.02h0c.51,0,1.06-.05,1.59-.05,1.29,0,2.44,.32,2.35,2.49-.08,1.95-1.08,2.3-2.23,2.3-.65,0-1.34-.11-1.94-.11,0,0-.01,0-.02,0-6.83,.03-13.65,.04-20.48,.04-6.11,0-12.23,0-18.35,0s-12.23,0-18.34,0c-6.83,0-13.66,0-20.48-.04,0,0-.01,0-.02,0-.6,0-1.29,.11-1.94,.11h0Zm79.63,17.86c.55,0,1.14-.06,1.7-.06,1.36,0,2.54,.35,2.54,2.72,0,2.42-1.23,2.75-2.63,2.75-.53,0-1.09-.05-1.61-.05h0c-12.86,.01-25.71,.02-38.57,.02s-26.06,0-39.08-.02h0c-.54,0-1.11,.05-1.66,.05-1.38,0-2.59-.34-2.59-2.74,0-2.39,1.18-2.73,2.55-2.73,.55,0,1.13,.06,1.67,.06h.02c6.63-.02,13.26-.02,19.9-.02s12.62,0,18.93,0c6.33,0,12.65,0,18.98,0s13.23,0,19.84,.02h.02Z"/>
    </g>
    <path class="cls-5" d="M208.33,391.88c-.03-1.83,1.45-2.3,2.71-2.79,12.81-5.01,16.63-15.61,16.86-27.99,.31-16.5,.07-33.01,.1-49.51,.02-12.2,7.13-21.7,18.3-24.48,13.12-3.27,24,1.33,30.13,12.5,2.23,4.07,3.3,8.18,3.2,12.88-.25,11.52-.09,23.04-.06,34.56,0,1.04-.48,2.4,.57,3.04,1.32,.81,2.37-.4,3.22-1.17,2.19-1.98,4.4-3.99,6.3-6.24,2.47-2.91,4.48-2.57,6.83,.11,2.05,2.33,4.53,4.3,6.54,6.67,1.87,2.2,3.4,1.92,5.48,.33,3.35-2.54,5.73-6.13,9.44-8.3,2.54-1.48,4.45-1.72,6.35,.98,1.69,2.41,4,4.39,5.58,6.85,2.01,3.12,3.99,2.31,6.04,.42,2.75-2.53,5.39-5.18,8-7.85,1.58-1.62,2.91-1.68,4.84-.31,3.34,2.38,5.79,5.64,8.89,8.23,.55,.46,1.38,.58,2.07,.86,.04,4.51,.13,9.03,.12,13.54-.04,15.9-10.82,27.16-26.77,27.6-10.27,.29-20.56,.08-30.83,.08-31.3,0-62.61-.03-93.91-.04Z"/>
    <path class="cls-5" d="M156.67,127.82c3.29,3.3,7.7,5.07,10.99,8.45,4.04,4.14,5.95,8.96,6.06,14.58,.11,5.42,.02,10.84,.01,16.26-16,.05-32.01,.03-48.01,.2-2.93,.03-3.79-1.01-3.67-3.77,.16-3.88,0-7.77,.02-11.65,.09-13.21,8.57-22.77,21.72-24.85,4.4-.7,8.64-.43,12.87,.78Z"/>
    <path class="cls-10" d="M245.78,237.58c12.94,0,25.88-.02,38.82,.02,1.89,0,4.26-.7,4.26,2.66,0,3.33-2.33,2.7-4.25,2.7-25.88,.02-51.77,.02-77.65,0-1.9,0-4.25,.66-4.26-2.68,0-3.36,2.35-2.67,4.24-2.68,12.94-.03,25.88-.02,38.82-.02Z"/>
    <path class="cls-10" d="M245.84,191.67c12.91,0,25.83-.03,38.74,.04,1.64,0,4.08-.94,4.22,2.13,.15,3.47-2.54,2.48-4.31,2.49-25.83,.05-51.65,.05-77.48,0-1.62,0-4.08,1-4.22-2.11-.15-3.44,2.52-2.5,4.31-2.51,12.91-.06,25.83-.03,38.74-.03Z"/>
    <path class="cls-9" d="M245.78,219.66c-12.94,0-25.88,.03-38.82-.03-1.66,0-4.07,.88-4.18-2.2-.11-3.07,2.23-2.42,3.96-2.43,26.04-.03,52.08-.03,78.12,0,1.74,0,4.08-.63,3.95,2.44-.13,3.07-2.54,2.18-4.2,2.19-12.94,.06-25.88,.03-38.82,.03Z"/>
    <rect class="cls-4" x="91.36" y="257.54" width="106.03" height="97.59" rx="12" ry="12"/>
    <g>
      <rect class="cls-6" x="112" y="281.47" width="12.2" height="12.2"/>
      <rect class="cls-6" x="112" y="300.24" width="12.2" height="12.2"/>
      <rect class="cls-6" x="112" y="319" width="12.2" height="12.2"/>
      <line class="cls-7" x1="130.77" y1="287.1" x2="154.22" y2="287.1"/>
      <line class="cls-7" x1="131.7" y1="305.87" x2="175.81" y2="305.87"/>
      <line class="cls-7" x1="132.64" y1="324.63" x2="176.74" y2="324.63"/>
    </g>
    <circle class="cls-2" cx="291.69" cy="125.94" r="38.47"/>
    <path class="cls-8" d="M281.25,130.98c.14-.22,.25-.41,.37-.6,5.11-8.18,11.31-15.54,18.98-21.79,2.56-2.09,5.27-4.01,8.14-5.72,2.44-1.46,5.58-.23,6.17,2.39,.33,1.45-.33,2.99-1.68,3.82-12.37,7.65-21.15,18.13-27.62,30.4-1.37,2.6-5,3.04-6.9,.75-3.7-4.47-7.38-8.95-11.05-13.44-1.38-1.68-1.03-4.01,.76-5.27,1.77-1.24,4.25-.94,5.63,.72,2.3,2.77,4.58,5.56,6.86,8.34,.1,.12,.2,.24,.34,.4Z"/>
  </g>
</svg>