<?xml version="1.0" encoding="UTF-8"?>
<svg id="Capa_1" data-name="Capa 1" xmlns="http://www.w3.org/2000/svg" viewBox="0 0 251 263">
  <defs>
    <style>
      .cls-1 {
        fill: #fff;
        stroke: #ef77a1;
        stroke-width: 2px;
      }

      .cls-1, .cls-2 {
        stroke-miterlimit: 10;
      }

      .cls-2 {
        fill: #4100f4;
        stroke: #000;
      }

      .cls-3 {
        fill: #ffd2d7;
      }

      .cls-4 {
        fill: #ef77a1;
      }
    </style>
  </defs>
  <path class="cls-2" d="M211.88,69.2c11.29,7.98,22.57,15.98,33.89,23.92,.42,.29,.71,.61,.91,.95,.61,1.03,.47,2.15,.45,2.31-.15,1.62-1.17,69.31-2.55,163.37-135.7-.14-232.85-.17-236.27,.09-.34,.03-2.22,.24-3.34-.88-.65-.66-.88-1.74-.87-3.39,.09-52.57,.06-105.13,.1-157.7,0-1.56-.84-3.64,1.65-4.33,.18,.18,.35,.36,.53,.53-.08,1.62,1.35,2.02,2.3,2.71,9.9,7.26,19.83,14.47,29.76,21.69-.18,3.23,2.64,4.11,4.56,5.48,26.03,18.61,52.18,37.07,78.15,55.77,3.19,2.29,5.2,2.05,8.18-.15,15.84-11.72,31.92-23.11,47.75-34.84,11.64-8.63,23.75-16.63,34.91-25.9,10.86-7.76,21.73-15.52,32.59-23.28-.18-.34-.36-.68-.54-1.02h-32.05c-.03-8.44-.07-16.88-.1-25.33Z"/>
  <path class="cls-1" d="M211.98,118.83c-11.16,9.27-23.27,17.27-34.91,25.9-15.83,11.73-31.91,23.13-47.75,34.84-2.98,2.2-4.99,2.45-8.18,.15-25.97-18.7-52.11-37.16-78.15-55.77-1.92-1.37-4.74-2.26-4.56-5.48,.02-8.07,.03-16.14,.05-24.22-.03-8.25-.07-16.51-.1-24.76,.02-7.42,.24-14.84,0-22.25-.13-4.06,1.08-5.62,5.34-5.49,9.31,.27,18.63,.08,27.95,.09,1.9,0,3.8,.11,5.49-1,.62,1.25,1.8,1.09,2.87,1.09,31.44-.04,62.89-.08,94.33-.13,4.89,1.77,9.97,.75,14.96,.89,5.97,.17,11.97,.27,17.93-.05,3.89-.21,4.8,1.26,4.69,4.86-.24,7.23-.06,14.47-.06,21.7,.03,8.44,.07,16.88,.1,25.33,0,8.1,0,16.2,0,24.3Zm-42.01-58.9c-5.16,.05-9.86,1.62-14.28,4.21-11.27,6.61-15.95,21.12-10.85,33.8,4.66,11.59,18.43,18.91,30.41,16.18,13.33-3.04,19.73-10.7,22.31-26.72,1.67-14.28-13.72-29.28-27.58-27.47Zm-78.95,9.13c-10.27,0-20.54,.17-30.8-.09-3.92-.1-4.94,1.33-4.73,4.95,.18,3.16-.2,5.84,4.51,5.8,20.37-.19,40.75-.19,61.12,0,4.74,.04,4.29-2.68,4.48-5.81,.22-3.63-.83-5.04-4.74-4.94-9.94,.26-19.9,.09-29.85,.09Zm-.45,30.61c9.93,0,19.87-.2,29.79,.09,4.34,.13,5.34-1.55,5.29-5.53-.05-3.75-1-5.3-5.08-5.26-20.02,.18-40.04,.18-60.06,0-4.12-.04-4.99,1.57-5.05,5.28-.07,4.01,1.02,5.62,5.32,5.5,9.92-.28,19.86-.09,29.79-.09Zm-18.27,25.56c4.57,0,9.14-.1,13.7,.03,3.56,.1,3.76-2.17,3.53-4.69-.21-2.39,1.25-5.88-3.22-5.91-9.14-.05-18.27,0-27.41-.03-4.08-.01-3.27,2.99-3.31,5.38-.05,2.48-.54,5.31,3.48,5.23,4.41-.09,8.82-.02,13.23-.02Z"/>
  <path class="cls-2" d="M174.37,41.8c-31.44,.05-62.89,.09-94.33,.13-1.07,0-2.25,.16-2.87-1.09,14.67-10.67,29.42-21.25,43.97-32.09,3.09-2.3,5.08-2.27,8.19,.05,14.9,11.16,30.01,22.03,45.05,33Z"/>
  <path class="cls-2" d="M38.39,69.49c.03,8.25,.07,16.51,.1,24.76-10.71-.06-21.41-.13-32.12-.19-.18-.18-.35-.35-.53-.53,10.85-8.01,21.7-16.03,32.55-24.04Z"/>
  <path class="cls-3" d="M6.38,94.06c10.7,.06,21.41,.12,32.12,.19-.02,8.07-.03,16.15-.05,24.22-9.92-7.23-19.86-14.44-29.76-21.69-.95-.7-2.39-1.09-2.3-2.71Z"/>
  <path class="cls-3" d="M211.98,118.83c0-8.1,0-16.2,0-24.3,10.69,0,21.37,0,32.05,0,.18,.34,.36,.68,.54,1.02-10.86,7.76-21.73,15.52-32.59,23.28Z"/>
  <path class="cls-4" d="M197.55,87.39c-2.58,16.02-8.98,23.68-22.31,26.72-11.98,2.73-25.75-4.59-30.41-16.18-5.1-12.68-.42-27.19,10.85-33.8,4.42-2.59,9.12-4.15,14.28-4.21,.04,7.72,.24,15.45,.05,23.17-.08,3.38,1.1,4.31,4.35,4.24,7.72-.17,15.45,.02,23.17,.06Z"/>
  <path class="cls-4" d="M91.03,69.05c9.95,0,19.91,.17,29.85-.09,3.91-.1,4.96,1.3,4.74,4.94-.19,3.13,.26,5.85-4.48,5.81-20.37-.19-40.75-.19-61.12,0-4.71,.04-4.33-2.64-4.51-5.8-.21-3.62,.81-5.05,4.73-4.95,10.26,.26,20.53,.09,30.8,.09Z"/>
  <path class="cls-4" d="M90.58,99.66c-9.93,0-19.87-.19-29.79,.09-4.3,.12-5.39-1.49-5.32-5.5,.06-3.72,.93-5.32,5.05-5.28,20.02,.18,40.04,.18,60.06,0,4.08-.04,5.03,1.51,5.08,5.26,.05,3.97-.95,5.65-5.29,5.53-9.92-.29-19.86-.09-29.79-.09Z"/>
  <path class="cls-3" d="M197.55,87.39c-7.73-.04-15.45-.23-23.17-.06-3.25,.07-4.43-.86-4.35-4.24,.18-7.72,0-15.45-.05-23.17,13.86-1.81,29.24,13.19,27.58,27.47Z"/>
  <path class="cls-4" d="M72.3,125.22c-4.41,0-8.82-.07-13.23,.02-4.02,.08-3.53-2.75-3.48-5.23,.05-2.39-.77-5.39,3.31-5.38,9.14,.02,18.27-.03,27.41,.03,4.47,.03,3.01,3.52,3.22,5.91,.22,2.52,.02,4.79-3.53,4.69-4.56-.13-9.14-.03-13.7-.03Z"/>
</svg>