<?xml version="1.0" encoding="utf-8"?>
<!-- Generator: Adobe Illustrator 25.4.1, SVG Export Plug-In . SVG Version: 6.00 Build 0)  -->
<svg version="1.1" id="Capa_1" xmlns="http://www.w3.org/2000/svg" xmlns:xlink="http://www.w3.org/1999/xlink" x="0px" y="0px"
	 viewBox="0 0 132 170.63" style="enable-background:new 0 0 132 170.63;" xml:space="preserve">
<style type="text/css">
	.st0{fill:#62C778;}
	.st1{fill:none;stroke:#231F20;stroke-width:1.2725;stroke-linecap:round;stroke-miterlimit:10;}
</style>
<g>
	<g>
		<path class="st0" d="M33.34,76.79c3.24-1.61,7.2-1.74,8.32-7.47c0.28-1.45,0.26-2.97-0.05-4.4c-1.03-4.75-4.13-8.02-6.71-11.66
			c-7.01-9.89-12.02-23.65-8.78-36.1C28.53,7.9,38.89-1.41,58,0.18c8.73,0.73,17.31,7.83,18.74,17.78c0.5,3.44,0.14,7.09,1.66,10.25
			c0.68,1.41,1.78,2.56,3.13,2.96c2.46,0.73,4.07-1.25,5.72-2.82c0.05-0.05,0.09-0.09,0.14-0.13c8.24-7.74,20.25,1.35,17.3,13.07
			c-1.23,4.9-3.51,9.47-6.7,13.04c-2.23,2.49-4.92,4.65-5.68,8.34c-0.41,2,0.1,4.19,1.57,5.28c2.38,1.76,5-0.55,7.61-0.92
			c4.68-0.66,8.14,5.01,8.94,10.34c1.23,8.12-1.29,16.96-6.48,22.79c-14.78,19.53-42.3,19.6-48.29,18.82
			c-9.79-1.27-20.17-4.26-26.34-13C23.18,97.25,24.2,81.34,33.34,76.79z"/>
	</g>
	<g>
		<line class="st1" x1="66.23" y1="42.88" x2="65.05" y2="165.86"/>
		<line class="st1" x1="88.62" y1="67.67" x2="65.91" y2="72.32"/>
		<line class="st1" x1="66" y1="86.63" x2="46.84" y2="73.59"/>
	</g>
</g>
</svg>
