<?xml version="1.0" encoding="utf-8"?>
<!-- Generator: Adobe Illustrator 25.4.1, SVG Export Plug-In . SVG Version: 6.00 Build 0)  -->
<svg version="1.1" id="Capa_1" xmlns="http://www.w3.org/2000/svg" xmlns:xlink="http://www.w3.org/1999/xlink" x="0px" y="0px"
	 viewBox="0 0 132 170.6" style="enable-background:new 0 0 132 170.6;" xml:space="preserve">
<style type="text/css">
	.st0{fill:#AFAFAF;}
	.st1{fill:none;stroke:#231F20;stroke-width:1.2725;stroke-linecap:round;stroke-miterlimit:10;}
</style>
<g>
	<g>
		<path class="st0" d="M33.3,79.8c3.2-1.6,7.2-1.7,8.3-7.5c0.3-1.4,0.3-3,0-4.4c-1-4.8-4.1-8-6.7-11.7c-7-9.9-12-23.6-8.8-36.1
			c2.4-9.3,12.8-18.6,31.9-17C66.7,3.9,75.3,11,76.7,21c0.5,3.4,0.1,7.1,1.7,10.2c0.7,1.4,1.8,2.6,3.1,3c2.5,0.7,4.1-1.2,5.7-2.8
			c0.1,0,0.1-0.1,0.1-0.1c8.2-7.7,20.2,1.4,17.3,13.1c-1.2,4.9-3.5,9.5-6.7,13c-2.2,2.5-4.9,4.7-5.7,8.3c-0.4,2,0.1,4.2,1.6,5.3
			c2.4,1.8,5-0.6,7.6-0.9c4.7-0.7,8.1,5,8.9,10.3c1.2,8.1-1.3,17-6.5,22.8c-14.8,19.5-42.3,19.6-48.3,18.8
			c-9.8-1.3-20.2-4.3-26.3-13C23.2,100.2,24.2,84.3,33.3,79.8z"/>
	</g>
	<g>
		<line class="st1" x1="66.2" y1="45.9" x2="65.1" y2="168.9"/>
		<line class="st1" x1="88.6" y1="70.7" x2="65.9" y2="75.3"/>
		<line class="st1" x1="66" y1="89.6" x2="46.8" y2="76.6"/>
	</g>
</g>
</svg>
