<?xml version="1.0" encoding="utf-8"?>
<!-- Generator: Adobe Illustrator 25.4.1, SVG Export Plug-In . SVG Version: 6.00 Build 0)  -->
<svg version="1.1" id="Capa_1" xmlns="http://www.w3.org/2000/svg" xmlns:xlink="http://www.w3.org/1999/xlink" x="0px" y="0px"
	 viewBox="0 0 109.57 28.92" style="enable-background:new 0 0 109.57 28.92;" xml:space="preserve">
<style type="text/css">
	.st0{fill:#A1EA95;}
	.st1{fill:#554A53;}
</style>
<g>
	<path class="st0" d="M1.02,28.66h108.55c0,0-2.97-11.61-14.14-8.78C93.51,3.86,77.2,4.21,72.09,12.06
		C64.19-4.17,47.37-3.16,40.95,9.97c-10.27-4.36-18.12-1.21-19.52,8.86C9.4,11.54,1.02,28.66,1.02,28.66z"/>
	<g>
		
			<rect x="56.88" y="5.26" transform="matrix(0.9952 -0.0975 0.0975 0.9952 -1.3693 5.642)" class="st1" width="0.32" height="23.15"/>
	</g>
	<g>
		
			<rect x="36.49" y="12.54" transform="matrix(0.8556 -0.5176 0.5176 0.8556 -5.6831 22.031)" class="st1" width="0.32" height="17.33"/>
	</g>
	<g>
		
			<rect x="68.5" y="19.54" transform="matrix(0.5729 -0.8196 0.8196 0.5729 17.7962 73.5578)" class="st1" width="21.97" height="0.32"/>
	</g>
	<g>
		
			<rect x="79.7" y="17.27" transform="matrix(0.9523 -0.3053 0.3053 0.9523 -1.2657 26.771)" class="st1" width="10.53" height="0.32"/>
	</g>
	<g>
		
			<rect x="89.71" y="25.2" transform="matrix(0.8287 -0.5597 0.5597 0.8287 2.1903 57.8768)" class="st1" width="11.88" height="0.32"/>
	</g>
	<g>
		
			<rect x="53.27" y="16.33" transform="matrix(0.4872 -0.8733 0.8733 0.4872 17.4403 62.6877)" class="st1" width="17.66" height="0.32"/>
	</g>
	<g>
		
			<rect x="52.96" y="7.35" transform="matrix(0.5933 -0.805 0.805 0.5933 11.9858 47.6177)" class="st1" width="0.32" height="9.19"/>
	</g>
	<g>
		
			<rect x="31.4" y="15.09" transform="matrix(0.2466 -0.9691 0.9691 0.2466 3.0127 46.7247)" class="st1" width="0.32" height="12.66"/>
	</g>
</g>
</svg>
