<?xml version="1.0" encoding="utf-8"?>
<!-- Generator: Adobe Illustrator 25.4.1, SVG Export Plug-In . SVG Version: 6.00 Build 0)  -->
<svg version="1.1" id="Capa_1" xmlns="http://www.w3.org/2000/svg" xmlns:xlink="http://www.w3.org/1999/xlink" x="0px" y="0px"
	 viewBox="0 0 109.6 28.9" style="enable-background:new 0 0 109.6 28.9;" xml:space="preserve">
<style type="text/css">
	.st0{fill:#AFAFAF;}
	.st1{fill:#554A53;}
</style>
<g>
	<path class="st0" d="M1,28.7h108.6c0,0-3-11.6-14.1-8.8c-1.9-16-18.2-15.7-23.3-7.8C64.2-4.2,47.4-3.2,41,10
		c-10.3-4.4-18.1-1.2-19.5,8.9C9.4,11.5,1,28.7,1,28.7z"/>
	<g>
		
			<rect x="56.9" y="5.3" transform="matrix(0.9952 -9.750345e-02 9.750345e-02 0.9952 -1.3697 5.6416)" class="st1" width="0.3" height="23.1"/>
	</g>
	<g>
		
			<rect x="36.5" y="12.5" transform="matrix(0.8556 -0.5176 0.5176 0.8556 -5.6837 22.0321)" class="st1" width="0.3" height="17.3"/>
	</g>
	<g>
		<rect x="68.5" y="19.5" transform="matrix(0.5729 -0.8196 0.8196 0.5729 17.7998 73.5554)" class="st1" width="22" height="0.3"/>
	</g>
	<g>
		
			<rect x="79.7" y="17.3" transform="matrix(0.9523 -0.3053 0.3053 0.9523 -1.2647 26.7717)" class="st1" width="10.5" height="0.3"/>
	</g>
	<g>
		
			<rect x="89.7" y="25.2" transform="matrix(0.8287 -0.5597 0.5597 0.8287 2.1926 57.8786)" class="st1" width="11.9" height="0.3"/>
	</g>
	<g>
		
			<rect x="53.3" y="16.3" transform="matrix(0.4872 -0.8733 0.8733 0.4872 17.4428 62.6841)" class="st1" width="17.7" height="0.3"/>
	</g>
	<g>
		<rect x="53" y="7.3" transform="matrix(0.5933 -0.805 0.805 0.5933 11.9894 47.6164)" class="st1" width="0.3" height="9.2"/>
	</g>
	<g>
		
			<rect x="31.4" y="15.1" transform="matrix(0.2466 -0.9691 0.9691 0.2466 3.0118 46.7183)" class="st1" width="0.3" height="12.7"/>
	</g>
</g>
</svg>
