<?xml version="1.0" encoding="utf-8"?>
<!-- Generator: Adobe Illustrator 22.1.0, SVG Export Plug-In . SVG Version: 6.00 Build 0)  -->
<svg version="1.1" id="Modo_de_aislamiento" xmlns="http://www.w3.org/2000/svg" xmlns:xlink="http://www.w3.org/1999/xlink"
	 x="0px" y="0px" viewBox="0 0 189 197.9" style="enable-background:new 0 0 189 197.9;" xml:space="preserve">
<style type="text/css">
	.st0{fill:#DA1635;}
	.st1{fill:#EDCF37;}
	.st2{fill:#98D5F4;}
</style>
<path class="st0" d="M175.9,30.3c-4.9-3.8-11.9-2.9-15.7,2l-63.8,82.7L70.7,82.8c-3.9-4.8-10.9-5.6-15.7-1.8
	c-4.8,3.9-5.6,10.9-1.8,15.7l34.7,43.4c2.1,2.7,5.3,4.2,8.8,4.2h0.1c3.4,0,6.7-1.6,8.8-4.4L178,46C181.7,41.1,180.8,34.1,175.9,30.3
	L175.9,30.3z"/>
<path class="st1" d="M12.2,169.1c0,6.2,5,11.2,11.2,11.2h124.4c6.2,0,11.2-5,11.2-11.2v-48c0-6.2-5-11.2-11.2-11.2
	c-6.2,0-11.2,5-11.2,11.2v36.8l-102,0v-11.4c0-6.2-5-11.2-11.2-11.2c-6.2,0-11.2,5-11.2,11.2L12.2,169.1z"/>
<path class="st2" d="M23.4,128.3c6.2,0,11.2-5,11.2-11.2V55.9h86.1c6.2,0,11.2-5,11.2-11.2c0-6.2-5-11.2-11.2-11.2H23.4
	c-6.2,0-11.2,5-11.2,11.2v72.4C12.2,123.3,17.2,128.3,23.4,128.3z"/>
</svg>
