<?xml version="1.0" encoding="utf-8"?>
<!-- Generator: Adobe Illustrator 22.1.0, SVG Export Plug-In . SVG Version: 6.00 Build 0)  -->
<svg version="1.1" id="pollution" xmlns="http://www.w3.org/2000/svg" xmlns:xlink="http://www.w3.org/1999/xlink" x="0px" y="0px"
	 viewBox="0 0 226.8 226.8" style="enable-background:new 0 0 226.8 226.8;" xml:space="preserve">
<style type="text/css">
	.st0{fill-rule:evenodd;clip-rule:evenodd;fill:#FFFFFF;}
</style>
<g>
	<path class="st0" d="M52,92.2l-25.1,19.2c-9.4,0.5-19.3,6.7-19.3,6.7l0.7,0.7c7.6-5.3,15.8-6.5,19-6.8L48,124.7l0-0.5l-19.2-12.3
		l0,0l-0.8-0.5L52,92.7l2,0.3l0.5-1.5L52,92.2z"/>
	<path class="st0" d="M219.2,102.7c0,0-0.8,5.1-3.1,10.7c0,0,0,0.1-0.1,0.2c-1.7,4.2-4.2,8.7-7.7,11.7c-13.5,11.5-3,11.5-3,11.5
		c0,0,0,0,0,0c-0.8,0.3-22,7.8-59.7-0.8c-35.3-8.1-95.5-10.7-95.5-10.7s0.2-1.7,0.3-2.4c9.3-9.3,9-23.7,3.1-30.1L54,90
		c0,0,45.1-7.2,80.6,0c8.4,1.7,16.2,3.4,23.3,4.9c0,0,0,0,0,0C184,100.6,202.1,104.5,219.2,102.7z"/>
	<polygon class="st0" points="50.2,123.7 47.9,124.1 48,124.7 50.1,124.7 	"/>
</g>
</svg>
