<?xml version="1.0" encoding="utf-8"?>
<!-- Generator: Adobe Illustrator 22.1.0, SVG Export Plug-In . SVG Version: 6.00 Build 0)  -->
<svg version="1.1" id="Capa_1" xmlns="http://www.w3.org/2000/svg" xmlns:xlink="http://www.w3.org/1999/xlink" x="0px" y="0px"
	 viewBox="0 0 350 128" style="enable-background:new 0 0 350 128;" xml:space="preserve">
<style type="text/css">
	.st0{fill:#E74B3C;}
</style>
<g>
	<g>
		<path class="st0" d="M40.2,17.6c3.5-0.5,6.5-0.4,8.8,0.3c2.3,0.7,4.1,1.9,5.3,3.7c1.2,1.7,1.8,4,1.8,6.8c0,1.7-0.2,3.2-0.7,4.6
			c-0.5,1.4-1.2,2.7-2.2,3.9c-1,1.2-2.1,2.3-3.5,3.3c4.2,6.9,6.3,10.4,10.5,17.5c-4.8,0.3-7.2,0.5-12,1c-3.1-5.9-4.6-8.8-7.7-14.6
			c-0.8,0.1-1.3,0.2-2.1,0.3c0,6.2,0,9.3,0,15.6c-4.3,0.6-6.4,1-10.7,1.8c0-14,0-28,0-42C32.7,18.7,35.2,18.3,40.2,17.6z M40.1,26.1
			c-0.7,0.1-1,0.1-1.7,0.2c0,3.9,0,5.9,0,9.9c0.6-0.1,1-0.1,1.6-0.2c1.6-0.2,2.9-0.8,3.8-1.8c0.9-1,1.4-2.4,1.4-4.3
			c0-1.5-0.4-2.5-1.2-3.2C43.1,26,41.8,25.8,40.1,26.1z"/>
		<path class="st0" d="M73.8,24c2.9,0,5.3,0.5,7.4,1.7c2.1,1.1,3.7,2.8,4.8,5.1c1.1,2.2,1.7,5,1.7,8.2c0,2,0,3,0,5
			c-7.1-0.2-10.7-0.2-17.8,0c0.1,1.9,0.6,3.4,1.7,4.4c1,1,2.6,1.5,4.7,1.5c1.8,0,3.4-0.2,4.9-0.6c1.5-0.4,3.1-1,4.7-1.9
			c0,3.2,0,4.8,0,7.9c-1.5,0.8-3.1,1.4-4.8,1.7c-1.7,0.4-3.8,0.5-6.1,0.6c-3.2,0-6-0.5-8.2-1.6c-2.3-1.1-4-2.9-5.2-5.3
			c-1.2-2.4-1.8-5.5-1.8-9.2c0-3.8,0.6-7,1.7-9.5c1.1-2.6,2.8-4.6,4.9-5.9C68.3,24.8,70.8,24.1,73.8,24z M74.2,31.5
			c-1.2,0-2.1,0.5-2.9,1.3c-0.8,0.9-1.2,2.3-1.3,4.2c3.3-0.1,4.9-0.1,8.2-0.1c0-1.2-0.2-2.2-0.5-3c-0.3-0.8-0.8-1.4-1.4-1.8
			C75.7,31.7,75,31.5,74.2,31.5z"/>
		<path class="st0" d="M98.2,57.6c-3.6-11-7.2-22-10.8-33c4.3,0.1,6.5,0.2,10.8,0.4c1.8,7.1,2.7,10.7,4.4,17.8
			c0.1,0.7,0.3,1.4,0.4,2.3c0.2,0.9,0.3,1.8,0.3,2.7c0.1,0,0.1,0,0.2,0c0-0.8,0.1-1.7,0.2-2.5c0.1-0.8,0.3-1.6,0.5-2.4
			c1.9-6.9,2.8-10.4,4.6-17.3c4.3,0.3,6.5,0.5,10.8,0.8c-3.6,10.6-7.2,21.2-10.8,31.8C104.7,58,102.5,57.8,98.2,57.6z"/>
		<path class="st0" d="M126.1,13.9c1.7,0.1,3,0.6,4,1.5c1,0.8,1.5,2.2,1.5,4c0,1.8-0.5,3-1.5,3.7c-1,0.7-2.4,0.9-4,0.8
			c-1.6-0.1-3-0.6-4-1.5c-1-0.8-1.5-2.2-1.5-3.9c0-1.8,0.5-3.1,1.5-3.8C123.1,14,124.4,13.8,126.1,13.9z M131.3,27.5
			c0,10.9,0,21.7,0,32.6c-4.2-0.4-6.2-0.6-10.4-0.9c0-10.9,0-21.7,0-32.6C125.1,26.9,127.1,27.1,131.3,27.5z"/>
		<path class="st0" d="M157.5,52.6c0,2.2-0.5,4.1-1.4,5.5c-0.9,1.5-2.3,2.6-4.1,3.2c-1.8,0.7-4.2,0.9-7,0.6c-2-0.2-3.8-0.5-5.5-0.9
			c-1.7-0.4-3.4-1.1-5.1-1.9c0-3.6,0-5.4,0-9c1.6,1,3.3,1.8,5.1,2.4c1.8,0.6,3.3,1,4.7,1.2c1.1,0.1,1.9,0,2.4-0.2
			c0.5-0.2,0.8-0.7,0.8-1.3c0-0.4-0.1-0.8-0.4-1.2c-0.3-0.4-0.9-0.8-1.7-1.4c-0.8-0.5-2.1-1.3-3.8-2.2c-1.6-0.9-2.9-1.8-3.9-2.8
			c-1-1-1.8-2.2-2.4-3.5c-0.5-1.3-0.8-2.8-0.8-4.4c0-3.1,1.1-5.4,3.2-6.8c2.1-1.4,5.1-2,8.8-1.6c1.9,0.2,3.7,0.6,5.4,1.2
			c1.7,0.6,3.4,1.5,5.2,2.6c-1.1,2.8-1.6,4.2-2.7,7c-1.3-0.8-2.6-1.5-4-2.1c-1.4-0.6-2.6-0.9-3.6-1c-0.8-0.1-1.4,0-1.8,0.2
			c-0.4,0.2-0.6,0.5-0.6,1c0,0.4,0.1,0.7,0.4,1c0.3,0.3,0.8,0.7,1.6,1.2c0.8,0.5,2,1.2,3.6,2.1c1.6,0.9,3,1.9,4.1,2.9
			c1.1,1,2,2.2,2.6,3.5C157.2,49.2,157.5,50.8,157.5,52.6z"/>
		<path class="st0" d="M174.7,31c3.7,0.3,6.6,1.5,8.7,3.7c2.1,2.1,3.1,5.1,3.1,9c0,8.5,0,12.8,0,21.4c-2.9-0.2-4.4-0.3-7.3-0.5
			c-0.7-1.8-1.1-2.7-1.9-4.5c-0.1,0-0.1,0-0.2,0c-0.8,1-1.6,1.9-2.5,2.6c-0.9,0.7-1.9,1.1-3,1.4c-1.1,0.2-2.5,0.3-4,0.2
			c-1.9-0.2-3.5-0.8-4.8-1.8s-2.3-2.3-3-4c-0.7-1.6-1-3.5-1-5.6c0-3.5,1.1-6,3.2-7.5c2.1-1.5,5.2-2.2,9.3-2c1.9,0.1,2.9,0.1,4.8,0.2
			c0-0.3,0-0.4,0-0.7c0-1.4-0.3-2.4-0.9-3.1s-1.5-1.1-2.6-1.2c-1.1-0.1-2.3,0-3.7,0.3c-1.4,0.3-2.8,0.8-4.3,1.4
			c-1.1-3-1.7-4.5-2.8-7.5c1.7-0.8,3.7-1.3,5.8-1.6C169.7,30.8,172.1,30.8,174.7,31z M176.2,49.7c-0.9,0-1.3,0-2.2-0.1
			c-1.7-0.1-2.9,0.2-3.6,0.8c-0.7,0.6-1.1,1.5-1.1,2.8c0,1.1,0.2,2,0.7,2.6c0.5,0.6,1.2,0.9,2.1,1c1.1,0.1,2.1-0.2,2.9-1
			s1.2-1.9,1.2-3.3C176.2,51.3,176.2,50.8,176.2,49.7z"/>
		<path class="st0" d="M211.8,66.2c-4.2-0.1-6.2-0.1-10.4-0.3c0-14.9,0-29.8,0-44.7c4.2,0.2,6.2,0.2,10.4,0.3
			C211.8,36.3,211.8,51.3,211.8,66.2z"/>
		<path class="st0" d="M230.7,32.8c3.7-0.1,6.6,0.7,8.7,2.5c2.1,1.8,3.1,4.7,3.1,8.6c0,8.5,0,12.8,0,21.4c-2.9,0.2-4.4,0.3-7.3,0.5
			c-0.7-1.7-1.1-2.5-1.9-4.2c-0.1,0-0.1,0-0.2,0c-0.8,1.2-1.6,2.1-2.5,2.9c-0.9,0.8-1.9,1.3-3,1.7c-1.1,0.4-2.5,0.6-4,0.6
			c-1.9,0-3.5-0.4-4.8-1.3s-2.3-2.1-3-3.7c-0.7-1.6-1-3.4-1-5.5c0-3.5,1.1-6.1,3.2-7.8s5.2-2.7,9.3-3c1.9-0.1,2.9-0.2,4.8-0.4
			c0-0.3,0-0.4,0-0.7c0-1.4-0.3-2.4-0.9-3c-0.6-0.6-1.5-0.9-2.6-0.9c-1.1,0-2.3,0.3-3.7,0.7c-1.4,0.5-2.8,1.1-4.3,1.8
			c-1.1-2.9-1.7-4.3-2.8-7.2c1.7-1,3.7-1.7,5.8-2.2C225.7,33.2,228,32.9,230.7,32.8z M232.1,51.3c-0.9,0.1-1.3,0.1-2.2,0.2
			c-1.7,0.1-2.9,0.5-3.6,1.2c-0.7,0.7-1.1,1.6-1.1,2.9c0,1.1,0.2,1.9,0.7,2.5c0.5,0.5,1.2,0.8,2.1,0.8c1.1,0,2.1-0.5,2.9-1.4
			s1.2-2,1.2-3.4C232.1,53,232.1,52.4,232.1,51.3z"/>
		<path class="st0" d="M268.5,51.7c0,2.2-0.5,4.2-1.4,5.9c-0.9,1.8-2.3,3.2-4.1,4.4c-1.8,1.2-4.2,2-7,2.3c-2,0.3-3.8,0.4-5.5,0.3
			c-1.7-0.1-3.4-0.4-5.1-0.9c0-3.6,0-5.4,0-9c1.6,0.7,3.3,1.1,5.1,1.4c1.8,0.3,3.3,0.3,4.7,0.1c1.1-0.1,1.9-0.4,2.4-0.8
			c0.5-0.4,0.8-0.8,0.8-1.5c0-0.4-0.1-0.8-0.4-1.1c-0.3-0.3-0.9-0.6-1.7-1c-0.8-0.3-2.1-0.8-3.8-1.3c-1.6-0.5-2.9-1.2-3.9-2
			c-1-0.8-1.8-1.8-2.4-3s-0.8-2.6-0.8-4.3c0-3.1,1.1-5.6,3.2-7.5c2.1-1.9,5.1-3,8.8-3.6c1.9-0.3,3.7-0.3,5.4-0.1
			c1.7,0.2,3.4,0.6,5.2,1.1c-1.1,3.1-1.6,4.7-2.7,7.8c-1.3-0.5-2.6-0.8-4-1s-2.6-0.3-3.6-0.1c-0.8,0.1-1.4,0.3-1.8,0.6
			c-0.4,0.3-0.6,0.7-0.6,1.2c0,0.4,0.1,0.7,0.4,0.9c0.3,0.3,0.8,0.5,1.6,0.9c0.8,0.3,2,0.7,3.6,1.2c1.6,0.5,3,1.1,4.1,1.8
			c1.1,0.7,2,1.6,2.6,2.7C268.2,48.4,268.5,49.9,268.5,51.7z"/>
	</g>
</g>
<g>
	<g>
		<path class="st0" d="M32.7,83.4c2.2-0.2,4,0.6,5.2,2.5c1.3,1.9,1.9,4.6,1.9,8.2c0,2.4-0.3,4.5-0.9,6.2s-1.4,3.1-2.5,4.1
			c-1.1,1-2.3,1.5-3.7,1.7c-0.8,0.1-1.6,0-2.2-0.1c-0.6-0.2-1.2-0.4-1.7-0.8c-0.5-0.4-0.9-0.8-1.3-1.4c-0.1,0-0.1,0-0.2,0
			c0.1,0.7,0.1,1.4,0.2,2c0,0.6,0.1,1.3,0.1,1.8c0,3.2,0,4.8,0,8c-2.8,0.3-4.2,0.5-7,0.8c0-10.4,0-20.9,0-31.3
			c2.3-0.3,3.4-0.4,5.6-0.7c0.4,1.1,0.6,1.6,1,2.7c0.1,0,0.2,0,0.3,0c0.4-0.8,0.9-1.4,1.4-2c0.5-0.5,1-0.9,1.7-1.2
			C31.1,83.6,31.9,83.5,32.7,83.4z M30.2,89.2c-0.7,0.1-1.2,0.3-1.6,0.7c-0.4,0.4-0.7,1-0.9,1.8c-0.2,0.8-0.3,1.8-0.3,2.9
			c0,0.4,0,0.6,0,0.9c0,1.2,0.1,2.1,0.3,2.9c0.2,0.7,0.5,1.3,0.9,1.6c0.4,0.3,0.9,0.5,1.6,0.4c0.6-0.1,1-0.3,1.4-0.7
			s0.7-1.1,0.8-1.9c0.2-0.8,0.3-1.9,0.3-3.2c0-2-0.2-3.4-0.6-4.3C31.6,89.5,31,89.2,30.2,89.2z"/>
		<path class="st0" d="M53.9,81.7c0.3,0,0.7,0,1,0c0.4,0,0.7,0.1,1,0.1c-0.2,2.8-0.4,4.2-0.6,7c-0.2-0.1-0.5-0.1-0.9-0.1
			s-0.8,0-1.4,0c-0.6,0-1.1,0.1-1.6,0.3c-0.5,0.2-0.9,0.4-1.3,0.8c-0.4,0.4-0.7,0.8-0.9,1.4s-0.3,1.3-0.3,2.2c0,4.3,0,6.5,0,10.8
			c-2.8,0.2-4.2,0.3-7,0.5c0-8.7,0-13.1,0-21.8c2.1-0.2,3.1-0.2,5.2-0.4c0.4,1.4,0.6,2,1.1,3.4c0.1,0,0.2,0,0.3,0
			c0.3-0.7,0.8-1.3,1.3-2c0.5-0.6,1.1-1.1,1.8-1.6C52.4,82,53.1,81.8,53.9,81.7z"/>
		<path class="st0" d="M76,92.2c0,1.6-0.2,3.1-0.6,4.5c-0.4,1.4-1,2.6-1.8,3.6c-0.8,1-1.9,1.9-3.1,2.5c-1.2,0.6-2.7,0.9-4.4,1
			c-1.6,0.1-3-0.2-4.2-0.7c-1.2-0.5-2.2-1.3-3.1-2.2c-0.8-1-1.5-2.2-1.9-3.5c-0.4-1.4-0.7-2.9-0.7-4.5c0-2.3,0.4-4.3,1.1-6
			c0.7-1.7,1.9-3.1,3.3-4.1c1.5-1,3.3-1.5,5.5-1.6c1.9-0.1,3.6,0.3,5.1,1.2c1.5,0.8,2.6,2.1,3.5,3.7C75.6,87.7,76,89.8,76,92.2z
			 M63.3,92.6c0,1.3,0.1,2.3,0.3,3.2c0.2,0.9,0.5,1.5,0.9,1.9c0.4,0.4,1,0.6,1.6,0.6c0.7,0,1.2-0.3,1.6-0.7c0.4-0.5,0.7-1.1,0.9-2
			c0.2-0.9,0.3-2,0.3-3.3c0-1.3-0.1-2.4-0.3-3.2c-0.2-0.8-0.5-1.5-0.9-1.9c-0.4-0.4-1-0.6-1.7-0.6c-1,0-1.7,0.5-2.2,1.5
			C63.5,89.1,63.3,90.6,63.3,92.6z"/>
		<path class="st0" d="M90.4,80.9c2.2,0,4,1,5.2,3c1.3,2,1.9,4.8,1.9,8.4c0,2.4-0.3,4.4-0.9,6.1s-1.4,2.9-2.5,3.8
			c-1.1,0.9-2.3,1.3-3.7,1.3c-0.8,0-1.6-0.1-2.2-0.4c-0.6-0.2-1.2-0.6-1.7-1c-0.5-0.4-0.9-0.9-1.3-1.5c-0.1,0-0.1,0-0.2,0
			c0.1,0.7,0.1,1.4,0.2,2.1c0,0.6,0.1,1.3,0.1,1.8c0,3.2,0,4.8,0,8c-2.8,0-4.2,0-7,0.1c0-10.4,0-20.9,0-31.3c2.3,0,3.4,0,5.6,0
			c0.4,1.1,0.6,1.7,1,2.8c0.1,0,0.2,0,0.3,0c0.4-0.7,0.9-1.3,1.4-1.8c0.5-0.5,1-0.8,1.7-1C88.8,81,89.6,80.9,90.4,80.9z M87.9,86.5
			c-0.7,0-1.2,0.2-1.6,0.5c-0.4,0.4-0.7,0.9-0.9,1.7c-0.2,0.8-0.3,1.7-0.3,2.9c0,0.4,0,0.6,0,0.9c0,1.2,0.1,2.1,0.3,2.9
			c0.2,0.8,0.5,1.3,0.9,1.7c0.4,0.4,0.9,0.6,1.6,0.6c0.6,0,1-0.2,1.4-0.6s0.7-1,0.8-1.8c0.2-0.8,0.3-1.9,0.3-3.1
			c0-2-0.2-3.4-0.6-4.3C89.4,86.9,88.7,86.5,87.9,86.5z"/>
		<path class="st0" d="M118.8,81.9c0,8.7,0,13.1,0,21.8c-2.1-0.1-3.2-0.1-5.3-0.2c-0.3-1.1-0.5-1.6-0.8-2.7c-0.2,0-0.2,0-0.4,0
			c-0.4,0.7-0.9,1.3-1.5,1.7c-0.6,0.4-1.2,0.8-1.9,1c-0.7,0.2-1.5,0.3-2.4,0.3c-1.3,0-2.5-0.4-3.6-1c-1-0.6-1.8-1.5-2.4-2.7
			c-0.6-1.2-0.9-2.7-0.9-4.5c0-5.7,0-8.5,0-14.2c2.8,0,4.2,0.1,7,0.1c0,4.8,0,7.2,0,12c0,1.4,0.2,2.5,0.5,3.3
			c0.3,0.7,0.9,1.1,1.7,1.2c0.9,0,1.5-0.2,1.9-0.7c0.4-0.5,0.7-1.2,0.9-2.1c0.2-0.9,0.2-2,0.2-3.3c0-4.1,0-6.1,0-10.2
			C114.6,81.7,116,81.8,118.8,81.9z"/>
		<path class="st0" d="M130.6,82c1.9,0.1,3.6,0.6,5,1.4c1.4,0.8,2.5,2,3.2,3.5c0.7,1.5,1.1,3.4,1.1,5.6c0,1.3,0,2,0,3.4
			c-4.8-0.3-7.2-0.4-11.9-0.6c0,1.3,0.4,2.3,1.1,3c0.7,0.7,1.8,1.1,3.2,1.2c1.2,0.1,2.3,0,3.3-0.2c1-0.2,2-0.6,3.1-1.1
			c0,2.1,0,3.2,0,5.3c-1,0.5-2.1,0.8-3.2,1c-1.2,0.2-2.5,0.2-4.1,0.2c-2.2-0.1-4-0.6-5.5-1.5c-1.5-0.9-2.7-2.2-3.5-3.9
			c-0.8-1.7-1.2-3.8-1.2-6.3c0-2.5,0.4-4.6,1.2-6.3c0.8-1.7,1.9-2.9,3.3-3.7C126.8,82.3,128.6,81.9,130.6,82z M130.8,87.1
			c-0.8,0-1.4,0.2-2,0.8c-0.5,0.5-0.8,1.5-0.9,2.8c2.2,0.1,3.3,0.2,5.5,0.3c0-0.8-0.1-1.5-0.3-2c-0.2-0.6-0.5-1-0.9-1.3
			C131.8,87.2,131.3,87.1,130.8,87.1z"/>
		<path class="st0" d="M156.4,98.9c0,1.5-0.3,2.7-0.9,3.8c-0.6,1-1.5,1.8-2.8,2.3c-1.2,0.5-2.8,0.7-4.7,0.6
			c-1.3-0.1-2.5-0.2-3.7-0.5c-1.1-0.2-2.3-0.6-3.4-1.1c0-2.4,0-3.6,0-6c1.1,0.6,2.2,1.1,3.4,1.5c1.2,0.4,2.2,0.6,3.1,0.7
			c0.7,0,1.2,0,1.6-0.2c0.3-0.2,0.5-0.5,0.5-0.9c0-0.3-0.1-0.5-0.3-0.8c-0.2-0.2-0.6-0.5-1.1-0.9c-0.6-0.3-1.4-0.8-2.5-1.4
			c-1.1-0.5-1.9-1.1-2.6-1.8c-0.7-0.7-1.2-1.4-1.6-2.3c-0.4-0.8-0.5-1.8-0.5-2.9c0-2.1,0.7-3.6,2.2-4.7c1.4-1,3.4-1.5,5.9-1.3
			c1.3,0.1,2.5,0.3,3.6,0.7c1.1,0.4,2.3,0.9,3.5,1.6c-0.7,1.9-1.1,2.8-1.8,4.7c-0.9-0.5-1.8-1-2.7-1.3c-0.9-0.4-1.7-0.6-2.4-0.6
			c-0.5,0-0.9,0-1.2,0.2s-0.4,0.4-0.4,0.7c0,0.2,0.1,0.5,0.3,0.7c0.2,0.2,0.5,0.5,1.1,0.8c0.5,0.3,1.3,0.8,2.4,1.3
			c1.1,0.6,2,1.2,2.7,1.8c0.8,0.7,1.3,1.4,1.7,2.3C156.2,96.7,156.4,97.7,156.4,98.9z"/>
		<path class="st0" d="M167.9,101c0.5,0,1.1,0,1.6-0.1c0.5-0.1,1.1-0.2,1.6-0.4c0,2.1,0,3.2,0,5.3c-0.8,0.3-1.6,0.6-2.4,0.7
			c-0.8,0.2-1.8,0.2-3,0.1c-1.4-0.1-2.6-0.4-3.6-1c-1-0.6-1.7-1.4-2.2-2.5c-0.5-1.1-0.8-2.6-0.8-4.5c0-3.7,0-5.5,0-9.2
			c-1-0.1-1.5-0.1-2.4-0.2c0-1.3,0-1.9,0-3.2c1.2-0.7,1.8-1.1,3.1-1.8c0.7-1.8,1-2.7,1.7-4.5c1.9,0.1,2.8,0.2,4.6,0.3
			c0,1.7,0,2.6,0,4.4c1.9,0.1,2.8,0.2,4.7,0.3c0,2.2,0,3.3,0,5.5c-1.9-0.1-2.8-0.2-4.7-0.3c0,3.6,0,5.3,0,8.9c0,0.7,0.2,1.2,0.5,1.6
			C166.9,100.8,167.3,101,167.9,101z"/>
		<path class="st0" d="M182.4,85.1c2.5,0.2,4.4,1,5.8,2.4s2.1,3.4,2.1,6c0,5.7,0,8.6,0,14.3c-2-0.1-2.9-0.2-4.9-0.3
			c-0.5-1.2-0.8-1.8-1.3-3c-0.1,0-0.1,0-0.1,0c-0.5,0.7-1.1,1.3-1.7,1.7s-1.3,0.8-2,0.9c-0.8,0.2-1.7,0.2-2.7,0.2
			c-1.3-0.1-2.3-0.4-3.2-1.1c-0.9-0.7-1.5-1.5-2-2.6c-0.5-1.1-0.7-2.3-0.7-3.7c0-2.3,0.7-4,2.1-5.1c1.4-1,3.5-1.5,6.3-1.5
			c1.3,0,1.9,0.1,3.2,0.1c0-0.2,0-0.3,0-0.4c0-0.9-0.2-1.6-0.6-2.1s-1-0.7-1.8-0.8c-0.7,0-1.6,0-2.5,0.3c-0.9,0.2-1.9,0.6-2.9,1
			c-0.8-2-1.1-3-1.9-5c1.2-0.6,2.5-1,3.9-1.2C179.1,85.1,180.7,85,182.4,85.1z M183.4,97.6c-0.6,0-0.9,0-1.5,0
			c-1.1,0-1.9,0.2-2.4,0.6c-0.5,0.4-0.8,1-0.8,1.9c0,0.7,0.2,1.3,0.5,1.7s0.8,0.6,1.4,0.6c0.8,0.1,1.4-0.2,2-0.7
			c0.5-0.5,0.8-1.3,0.8-2.2C183.4,98.7,183.4,98.4,183.4,97.6z"/>
		<path class="st0" d="M207.8,102.2c0,1.5-0.3,2.7-0.9,3.8c-0.6,1-1.5,1.8-2.8,2.3c-1.2,0.5-2.8,0.7-4.7,0.6
			c-1.3-0.1-2.5-0.2-3.7-0.5c-1.1-0.2-2.3-0.6-3.4-1.2c0-2.4,0-3.6,0-6c1.1,0.6,2.2,1.1,3.4,1.5c1.2,0.4,2.2,0.6,3.1,0.7
			c0.7,0,1.2,0,1.6-0.2c0.3-0.2,0.5-0.5,0.5-0.9c0-0.3-0.1-0.5-0.3-0.8s-0.6-0.5-1.1-0.9c-0.6-0.3-1.4-0.8-2.5-1.4
			c-1.1-0.5-1.9-1.1-2.6-1.8c-0.7-0.7-1.2-1.4-1.6-2.3c-0.4-0.9-0.5-1.8-0.5-2.9c0-2.1,0.7-3.6,2.2-4.6c1.4-1,3.4-1.4,5.9-1.3
			c1.3,0.1,2.5,0.3,3.6,0.7c1.1,0.4,2.3,0.9,3.5,1.6c-0.7,1.9-1.1,2.9-1.8,4.8c-0.9-0.5-1.8-1-2.7-1.3c-0.9-0.4-1.7-0.6-2.4-0.6
			c-0.5,0-0.9,0-1.2,0.2c-0.3,0.1-0.4,0.4-0.4,0.7c0,0.2,0.1,0.5,0.3,0.7c0.2,0.2,0.5,0.5,1.1,0.8c0.5,0.3,1.3,0.8,2.4,1.3
			c1.1,0.6,2,1.2,2.7,1.8c0.8,0.7,1.3,1.4,1.7,2.3C207.6,100,207.8,101,207.8,102.2z"/>
		<path class="st0" d="M226.4,87.7c2.5,0.1,4.4,0.9,5.8,2.2c1.4,1.4,2.1,3.4,2.1,6c0,5.7,0,8.6,0,14.3c-2-0.1-2.9-0.1-4.9-0.2
			c-0.5-1.2-0.8-1.8-1.3-2.9c-0.1,0-0.1,0-0.1,0c-0.5,0.7-1.1,1.3-1.7,1.8c-0.6,0.5-1.3,0.8-2,1c-0.8,0.2-1.7,0.3-2.7,0.2
			c-1.3-0.1-2.3-0.4-3.2-1.1c-0.9-0.6-1.5-1.5-2-2.6c-0.5-1.1-0.7-2.3-0.7-3.7c0-2.3,0.7-4,2.1-5.1c1.4-1.1,3.5-1.6,6.3-1.6
			c1.3,0,1.9,0,3.2,0c0-0.2,0-0.3,0-0.4c0-0.9-0.2-1.6-0.6-2.1c-0.4-0.4-1-0.7-1.8-0.7c-0.7,0-1.6,0.1-2.5,0.3s-1.9,0.6-2.9,1
			c-0.8-2-1.1-3-1.9-5c1.2-0.6,2.5-1,3.9-1.3C223,87.7,224.6,87.6,226.4,87.7z M227.3,100.2c-0.6,0-0.9,0-1.5,0
			c-1.1,0-1.9,0.2-2.4,0.6c-0.5,0.4-0.8,1-0.8,1.9c0,0.7,0.2,1.3,0.5,1.7c0.3,0.4,0.8,0.6,1.4,0.6c0.8,0,1.4-0.2,2-0.8
			s0.8-1.3,0.8-2.2C227.3,101.3,227.3,100.9,227.3,100.2z"/>
		<path class="st0" d="M246.2,111c-2.1-0.1-3.9-0.5-5.3-1.3s-2.6-2.1-3.4-3.8c-0.8-1.7-1.2-3.8-1.2-6.4c0-2.4,0.4-4.4,1.2-6.1
			c0.8-1.7,2-2.9,3.5-3.8c1.5-0.9,3.3-1.3,5.5-1.2c1.3,0,2.5,0.2,3.5,0.5c1.1,0.3,2.1,0.7,3.1,1.3c-0.8,2.1-1.2,3.2-2,5.3
			c-0.8-0.4-1.5-0.8-2.2-1c-0.7-0.2-1.4-0.4-2.2-0.4c-0.7,0-1.3,0.2-1.8,0.6c-0.5,0.4-0.9,1-1.2,1.9c-0.3,0.8-0.4,1.9-0.4,3.1
			c0,1.3,0.1,2.3,0.4,3.1c0.3,0.8,0.7,1.4,1.2,1.8c0.5,0.4,1.1,0.6,1.8,0.6c1,0,1.9-0.1,2.9-0.4c1-0.3,1.9-0.8,2.8-1.4
			c0,2.3,0,3.4,0,5.7c-0.8,0.6-1.8,1.1-2.8,1.4C248.7,110.9,247.5,111,246.2,111z"/>
		<path class="st0" d="M264.4,105.6c0.5,0,1.1-0.1,1.6-0.2c0.5-0.1,1.1-0.3,1.6-0.5c0,2.1,0,3.2,0,5.3c-0.8,0.4-1.6,0.7-2.4,0.9
			s-1.8,0.3-3,0.3c-1.4,0-2.6-0.3-3.6-0.8c-1-0.5-1.7-1.3-2.2-2.4c-0.5-1.1-0.8-2.6-0.8-4.4c0-3.7,0-5.5,0-9.2c-1,0-1.5,0-2.4,0
			c0-1.3,0-1.9,0-3.2c1.2-0.8,1.8-1.2,3.1-1.9c0.7-1.8,1-2.7,1.7-4.6c1.9,0,2.8,0,4.6,0.1c0,1.7,0,2.6,0,4.4c1.9,0,2.8,0,4.7,0
			c0,2.2,0,3.3,0,5.5c-1.9,0-2.8,0-4.7,0c0,3.6,0,5.3,0,8.9c0,0.7,0.2,1.2,0.5,1.6C263.4,105.4,263.8,105.6,264.4,105.6z"/>
		<path class="st0" d="M272.9,80.3c1.1,0,2,0.2,2.7,0.7c0.7,0.5,1,1.4,1,2.6c0,1.2-0.3,2.1-1,2.6c-0.7,0.5-1.6,0.8-2.7,0.8
			s-2-0.2-2.7-0.7c-0.7-0.5-1-1.4-1-2.6c0-1.2,0.3-2.1,1-2.6S271.7,80.3,272.9,80.3z M276.3,89.1c0,8.7,0,13.1,0,21.8
			c-2.8,0-4.2,0-7,0c0-8.7,0-13.1,0-21.8C272.2,89.1,273.5,89.1,276.3,89.1z"/>
		<path class="st0" d="M284.4,110.7c-2.9-8.7-4.4-13-7.3-21.7c2.9,0,4.3-0.1,7.2-0.1c1.2,4.7,1.8,7,3,11.7c0.1,0.4,0.2,0.9,0.3,1.5
			c0.1,0.6,0.2,1.2,0.2,1.8c0.1,0,0.1,0,0.2,0c0-0.6,0.1-1.1,0.2-1.7c0.1-0.6,0.2-1.1,0.3-1.6c1.2-4.8,1.9-7.1,3.1-11.9
			c2.9-0.1,4.3-0.2,7.2-0.3c-2.9,8.9-4.3,13.3-7.2,22.2C288.7,110.6,287.3,110.7,284.4,110.7z"/>
		<path class="st0" d="M309.2,87.3c2.5-0.2,4.4,0.3,5.8,1.5c1.4,1.2,2.1,3.1,2.1,5.7c0,5.7,0,8.6,0,14.3c-2,0.2-2.9,0.3-4.9,0.4
			c-0.5-1.1-0.8-1.7-1.3-2.8c-0.1,0-0.1,0-0.1,0c-0.5,0.8-1.1,1.4-1.7,2c-0.6,0.5-1.3,0.9-2,1.2c-0.8,0.3-1.7,0.5-2.7,0.5
			c-1.3,0.1-2.3-0.2-3.2-0.7c-0.9-0.5-1.5-1.3-2-2.4c-0.5-1-0.7-2.2-0.7-3.6c0-2.3,0.7-4.1,2.1-5.3c1.4-1.2,3.5-2,6.3-2.3
			c1.3-0.1,1.9-0.2,3.2-0.3c0-0.2,0-0.3,0-0.4c0-0.9-0.2-1.6-0.6-2c-0.4-0.4-1-0.6-1.8-0.5c-0.7,0.1-1.6,0.2-2.5,0.6
			c-0.9,0.3-1.9,0.8-2.9,1.4c-0.8-1.9-1.1-2.8-1.9-4.7c1.2-0.7,2.5-1.3,3.9-1.7C305.8,87.7,307.4,87.5,309.2,87.3z M310.2,99.7
			c-0.6,0.1-0.9,0.1-1.5,0.2c-1.1,0.1-1.9,0.4-2.4,0.9c-0.5,0.5-0.8,1.1-0.8,2c0,0.7,0.2,1.3,0.5,1.6c0.3,0.3,0.8,0.5,1.4,0.5
			c0.8-0.1,1.4-0.4,2-1c0.5-0.6,0.8-1.4,0.8-2.3C310.2,100.8,310.2,100.4,310.2,99.7z"/>
		<path class="st0" d="M334.5,100.3c0,1.5-0.3,2.8-0.9,3.9c-0.6,1.1-1.5,2.1-2.8,2.8c-1.2,0.7-2.8,1.2-4.7,1.4
			c-1.3,0.1-2.5,0.2-3.7,0.1c-1.1-0.1-2.3-0.3-3.4-0.6c0-2.4,0-3.6,0-6c1.1,0.5,2.2,0.8,3.4,1c1.2,0.2,2.2,0.2,3.1,0.1
			c0.7-0.1,1.2-0.2,1.6-0.5c0.3-0.2,0.5-0.6,0.5-1c0-0.3-0.1-0.5-0.3-0.7c-0.2-0.2-0.6-0.4-1.1-0.7c-0.6-0.2-1.4-0.6-2.5-0.9
			c-1.1-0.4-1.9-0.8-2.6-1.4c-0.7-0.6-1.2-1.2-1.6-2s-0.5-1.7-0.5-2.9c0-2.1,0.7-3.7,2.2-5c1.4-1.2,3.4-2,5.9-2.3
			c1.3-0.1,2.5-0.1,3.6,0c1.1,0.2,2.3,0.5,3.5,0.9c-0.7,2-1.1,3.1-1.8,5.1c-0.9-0.4-1.8-0.6-2.7-0.8c-0.9-0.2-1.7-0.3-2.4-0.2
			c-0.5,0.1-0.9,0.2-1.2,0.4c-0.3,0.2-0.4,0.4-0.4,0.8c0,0.2,0.1,0.5,0.3,0.6c0.2,0.2,0.5,0.4,1.1,0.6c0.5,0.2,1.3,0.5,2.4,0.9
			c1.1,0.4,2,0.8,2.7,1.3c0.8,0.5,1.3,1.2,1.7,1.9C334.3,98.1,334.5,99.1,334.5,100.3z"/>
	</g>
</g>
</svg>
