<?xml version="1.0" encoding="utf-8"?>
<!-- Generator: Adobe Illustrator 22.1.0, SVG Export Plug-In . SVG Version: 6.00 Build 0)  -->
<svg version="1.1" id="Travel" xmlns="http://www.w3.org/2000/svg" xmlns:xlink="http://www.w3.org/1999/xlink" x="0px" y="0px"
	 viewBox="0 0 226.8 226.8" style="enable-background:new 0 0 226.8 226.8;" xml:space="preserve">
<style type="text/css">
	.st0{fill:#F2EBCC;}
</style>
<g>
	<path class="st0" d="M150.6,95.5c-1.8,0-3.5,0.3-5.1,0.7c-5.7-9.1-15.8-15.2-27.3-15.2c-10.9,0-20.5,5.4-26.4,13.7
		c-3.4-2.1-7.3-3.3-11.5-3.3c-12.1,0-21.9,9.8-21.9,21.9c0,12.1,9.8,21.9,21.9,21.9c4.2,0,8.2-1.2,11.5-3.3
		c5.8,8.3,15.5,13.7,26.4,13.7c11.5,0,21.6-6.1,27.3-15.2c1.6,0.5,3.3,0.7,5.1,0.7c9.9,0,17.8-8,17.8-17.8
		C168.4,103.5,160.4,95.5,150.6,95.5z"/>
	
		<ellipse transform="matrix(8.248155e-02 -0.9966 0.9966 8.248155e-02 -37.9218 180.7121)" class="st0" cx="79.2" cy="111" rx="9.3" ry="9.3"/>
	<path class="st0" d="M98.9,107.6c-3.3,0-5.9-2.7-5.9-5.9s2.7-5.9,5.9-5.9c3.3,0,5.9,2.7,5.9,5.9S102.2,107.6,98.9,107.6z"/>
</g>
</svg>
