<?xml version="1.0" encoding="utf-8"?>
<!-- Generator: Adobe Illustrator 25.4.1, SVG Export Plug-In . SVG Version: 6.00 Build 0)  -->
<svg version="1.1" id="Capa_1" xmlns="http://www.w3.org/2000/svg" xmlns:xlink="http://www.w3.org/1999/xlink" x="0px" y="0px"
	 viewBox="0 0 370.16 504" style="enable-background:new 0 0 370.16 504;" xml:space="preserve">
<style type="text/css">
	.st0{fill:#00AFD7;}
</style>
<path class="st0" d="M0,473.2C0,490.56,14,504,30.8,504h260.96c2.24,0,3.92-1.12,5.6-2.8l71.12-87.92c1.12-1.12,1.68-2.8,1.68-4.48
	l0-241.92h-14v235.2h-68.32c-8.96,0-16.24,7.28-16.24,16.24v52.08l14,0v-52.08c0-1.12,1.12-2.24,2.24-2.24h60.48L288.4,490H30.8
	c-9.52,0-16.8-7.84-16.8-16.8V30.8C14,21.28,21.84,14,30.8,14h306.88c10.08,0,17.92,7.84,17.92,17.92V140h14V31.92
	C369.6,14,355.6,0,337.68,0H30.8C13.44,0,0,14,0,30.8L0,473.2z"/>
<path class="st0" d="M70.56,314.72H299.6v14H70.56V314.72z"/>
<path class="st0" d="M70.56,364H299.6v14H70.56V364z"/>
<path class="st0" d="M290.64,136.64c-7.28-25.76-24.08-47.6-46.48-62.16c-24.64-15.68-54.32-21.28-82.88-14.56
	c-28.56,6.16-53.2,23.52-68.88,48.16c-15.68,24.64-21.28,54.32-14.56,82.88c6.16,28.56,23.52,53.2,48.16,68.88
	c18.48,11.76,38.64,17.36,59.36,17.36c36.4,0,71.68-17.92,92.96-50.4c8.96-14.56,15.12-30.8,16.8-48.16
	C296.8,155.68,290.64,137.2,290.64,136.64L290.64,136.64z M280.56,176.4c-1.68,15.68-6.72,29.68-14.56,42
	c-28.56,44.8-87.92,57.68-132.72,29.12c-21.84-14-36.4-35.28-42-60.48c-5.6-25.2-1.12-50.96,12.88-72.24
	c14-21.84,35.28-36.4,60.48-42c6.72-1.68,14-2.24,20.72-2.24c17.92,0,35.84,5.04,51.52,15.12c19.6,12.32,34.16,31.92,40.32,54.32
	C277.2,141.12,282.24,157.36,280.56,176.4L280.56,176.4z"/>
<path class="st0" d="M193.2,160.16v-32.48c6.16,2.24,12.88,6.72,12.88,12.88h14c0-14.56-13.44-24.64-26.88-27.44v-12.88h-14v12.32
	c-9.52,1.12-17.92,4.48-24.08,10.64c-8.4,8.4-11.2,21.28-6.16,31.36c5.04,9.52,16.24,16.8,29.12,17.92h1.12v31.92
	c-6.72-1.68-15.68-6.72-15.68-14h-14c0,14.56,14,25.2,27.44,28c0.56,0,1.12,0,2.24,0.56v11.2h14l0-11.76
	c7.84-1.12,15.12-4.48,20.72-10.08c8.96-8.4,11.2-21.28,6.72-31.36C217.28,170.8,209.44,162.4,193.2,160.16L193.2,160.16z
	 M161.28,147.84c-2.24-4.48-0.56-10.64,3.36-14.56c3.36-3.36,8.4-5.6,14-6.72v31.92C171.36,157.36,164.08,153.44,161.28,147.84
	L161.28,147.84z M204.4,198.8c-2.8,2.8-6.72,5.04-11.2,5.6v-30.24c6.16,1.12,12.32,3.92,15.12,9.52
	C210,188.16,208.88,194.32,204.4,198.8L204.4,198.8z"/>
</svg>
