<?xml version="1.0" encoding="utf-8"?>
<!-- Generator: Adobe Illustrator 22.1.0, SVG Export Plug-In . SVG Version: 6.00 Build 0)  -->
<svg version="1.1" id="Capa_1" xmlns="http://www.w3.org/2000/svg" xmlns:xlink="http://www.w3.org/1999/xlink" x="0px" y="0px"
	 viewBox="0 0 220.2 170.1" style="enable-background:new 0 0 220.2 170.1;" xml:space="preserve">
<style type="text/css">
	.st0{clip-path:url(#SVGID_2_);fill:#8FDFF4;}
	.st1{clip-path:url(#SVGID_2_);fill:#61B6D8;}
	.st2{clip-path:url(#SVGID_2_);fill:#FFFFFF;}
	.st3{clip-path:url(#SVGID_2_);fill:#BBB9B7;}
	.st4{clip-path:url(#SVGID_2_);fill:#4388B0;}
	.st5{clip-path:url(#SVGID_2_);fill:#224F66;}
	.st6{clip-path:url(#SVGID_2_);fill:#509EC3;}
	.st7{fill:#FFFFFF;}
</style>
<g>
	<defs>
		<rect id="SVGID_1_" width="220.2" height="170.1"/>
	</defs>
	<clipPath id="SVGID_2_">
		<use xlink:href="#SVGID_1_"  style="overflow:visible;"/>
	</clipPath>
	<path class="st0" d="M190.7,13.4H28.3c0-5.1,4.2-9.3,9.3-9.3h143.9C186.6,4.1,190.7,8.3,190.7,13.4z"/>
	<rect x="9.6" y="45.5" class="st1" width="201.8" height="110.5"/>
	<path class="st1" d="M220.2,44.1L0,43.9l11.1-25.2c1.7-3.8,5.5-6.3,9.7-6.3h178.5c4.2,0,8,2.5,9.7,6.3L220.2,44.1z"/>
	<rect x="150.3" y="67.5" class="st2" width="20.4" height="78.5"/>
	<rect x="170.7" y="67.5" class="st2" width="20.4" height="78.5"/>
	<rect x="23.5" y="67.8" class="st2" width="99.9" height="73.7"/>
	<rect y="43.9" class="st0" width="220.2" height="12.1"/>
	<path class="st3" d="M0,43.9h220.2H0z"/>
	<rect x="170.2" y="67.5" class="st4" width="1.1" height="78.6"/>
	<path class="st2" d="M141.2,33.3H76.4c-8.7,0-15.8-7.1-15.8-15.8v-1.7C60.6,7.1,67.6,0,76.4,0h64.8c8.7,0,15.8,7.1,15.8,15.8v1.7
		C157,26.3,149.9,33.3,141.2,33.3"/>
	<path class="st4" d="M75.5,30.1c-6.7,0-12.1-6-12.1-13.4c0-7.4,5.4-13.4,12.1-13.4H142c6.7,0,12.1,6,12.1,13.4
		c0,7.4-5.4,13.4-12.1,13.4H75.5z"/>
	<path class="st0" d="M125.1,143.1H21.8V66.1h103.3V143.1z M25.2,139.7h96.5V69.5H25.2V139.7z"/>
	<path class="st5" d="M164.9,104.2c-0.5,0-0.9,0.4-0.9,0.9v4.7c0,0.5,0.4,0.9,0.9,0.9c0.5,0,0.9-0.4,0.9-0.9v-4.7
		C165.8,104.6,165.4,104.2,164.9,104.2"/>
	<polygon class="st0" points="150.3,67.5 170.7,67.5 191.1,67.5 191.1,146 195,146 195,63.1 146,63.1 146,146 150.3,146 	"/>
	<polygon class="st6" points="194.2,146 190.3,146 170.2,146 150.1,146 145.9,146 138.7,146 138.7,155.1 138.7,155.1 203.2,155.1 
		203.2,155.1 203.2,146 	"/>
	<path class="st6" d="M5.3,170.1h209.5c2.7,0,4.9-2.2,4.9-4.9c0-2.7-2.2-4.9-4.9-4.9H5.3c-2.7,0-4.9,2.2-4.9,4.9
		C0.4,167.9,2.6,170.1,5.3,170.1"/>
	<path class="st4" d="M8.5,160.4h203.1c1.5,0,2.6-1.2,2.6-2.6c0-1.5-1.2-2.6-2.6-2.6H8.5c-1.5,0-2.6,1.2-2.6,2.6
		C5.9,159.2,7.1,160.4,8.5,160.4"/>
</g>
<path class="st7" d="M105.1,4.9c-0.2,0-0.4,0.2-0.5,0.4c-0.1,0.2,0,0.4,0.1,0.6c0.3,0.3,0.4,0.6,0.4,1.1c0,0.3-0.2,0.7-0.6,1.1
	c-0.4,0.5-0.8,1-0.8,1.8c0,1.4,1.1,2.2,1.1,2.2c0.2,0.2,0.6,0.2,0.8,0c0.2-0.2,0.1-0.7-0.1-0.8c0,0-0.6-0.5-0.6-1.3
	c0-0.3,0.2-0.7,0.6-1.2s0.8-1,0.8-1.8c0-0.7-0.2-1.3-0.7-1.9C105.5,4.9,105.3,4.8,105.1,4.9L105.1,4.9z M108.2,4.9
	c-0.2,0-0.4,0.2-0.5,0.4c-0.1,0.2,0,0.4,0.1,0.6c0.3,0.3,0.4,0.6,0.4,1.1c0,0.3-0.2,0.7-0.6,1.1c-0.4,0.5-0.8,1-0.8,1.8
	c0,1.4,1.1,2.2,1.1,2.2c0.2,0.2,0.6,0.2,0.8,0c0.2-0.2,0.1-0.7-0.1-0.8c0,0-0.6-0.5-0.6-1.3c0-0.3,0.2-0.7,0.6-1.2
	c0.4-0.5,0.8-1,0.8-1.8c0-0.7-0.2-1.3-0.7-1.9C108.6,4.9,108.4,4.8,108.2,4.9L108.2,4.9z M111.3,4.9c-0.2,0-0.4,0.2-0.5,0.4
	c-0.1,0.2,0,0.4,0.1,0.6c0.3,0.3,0.4,0.6,0.4,1.1c0,0.3-0.2,0.7-0.6,1.1c-0.4,0.5-0.8,1-0.8,1.8c0,1.4,1.1,2.2,1.1,2.2
	c0.2,0.2,0.6,0.2,0.8,0c0.2-0.2,0.1-0.7-0.1-0.8c0,0-0.6-0.5-0.6-1.3c0-0.3,0.2-0.7,0.6-1.2c0.4-0.5,0.8-1,0.8-1.8
	c0-0.7-0.2-1.3-0.7-1.9C111.7,4.9,111.5,4.8,111.3,4.9L111.3,4.9z M101.1,13.3c-0.6,0-1.2,0.2-1.6,0.5c-0.4,0.3-0.8,0.7-0.8,1.3V16
	c0,2,0.9,4,2,5.7c0.5,0.7,1,1.3,1.5,1.8h-6.1c-0.3,0-0.6,0.4-0.5,0.8c0.6,1.6,2.2,2.6,4,2.6h16.2c1.8,0,3.4-1.1,4-2.6
	c0.1-0.3-0.2-0.8-0.5-0.8h-6.1c0.2-0.2,0.4-0.4,0.6-0.6c0.1,0,0.2-0.1,0.3-0.1c0.2,0,0.5-0.1,0.8-0.2c0.6-0.2,1.4-0.4,2.2-0.8
	c0.8-0.4,1.6-0.9,2.2-1.5c0.6-0.6,1.1-1.5,1.1-2.5v-0.3c0-0.5-0.1-1-0.5-1.5c-0.4-0.5-1-0.8-1.8-0.8h0c-0.6,0-0.9,0.1-1.4,0.2v-0.4
	c0-0.6-0.4-1-0.8-1.3c-0.4-0.3-1-0.5-1.6-0.5L101.1,13.3z M101.1,14.5h13.3c0.4,0,0.8,0.1,1,0.3c0.2,0.2,0.3,0.3,0.3,0.4V16
	c0,1.6-0.8,3.6-1.8,5.1c-1,1.5-2.4,2.5-3.1,2.5h-6.1c-0.7,0-2.1-1-3.1-2.5s-1.8-3.4-1.8-5.1v-0.9c0-0.1,0.1-0.2,0.3-0.4
	C100.3,14.6,100.7,14.5,101.1,14.5L101.1,14.5z M101.4,15.9c-0.3,0-0.5,0.4-0.5,0.6c0.2,1.3,0.8,2.7,1.8,4c0.2,0.2,0.6,0.3,0.8,0.1
	c0.2-0.2,0.3-0.6,0.1-0.8c-0.9-1.1-1.4-2.3-1.6-3.4C102,16.1,101.7,15.8,101.4,15.9L101.4,15.9z M118.2,16.4L118.2,16.4
	c0.5,0,0.7,0.2,0.9,0.4c0.2,0.2,0.2,0.5,0.2,0.8v0.3c0,0.6-0.3,1.2-0.8,1.7c-0.5,0.5-1.2,0.9-1.9,1.3c-0.6,0.3-1.2,0.5-1.7,0.7
	c0.9-1.4,1.7-3.1,1.8-4.8C117.4,16.5,117.5,16.5,118.2,16.4L118.2,16.4z M97.1,24.6h21.2c-0.6,0.7-1.5,1.1-2.5,1.1H99.6
	C98.6,25.8,97.7,25.3,97.1,24.6L97.1,24.6z"/>
</svg>
