<?xml version="1.0" encoding="utf-8"?>
<!-- Generator: Adobe Illustrator 22.1.0, SVG Export Plug-In . SVG Version: 6.00 Build 0)  -->
<svg version="1.1" id="Capa_1" xmlns="http://www.w3.org/2000/svg" xmlns:xlink="http://www.w3.org/1999/xlink" x="0px" y="0px"
	 viewBox="0 0 453.5 226.8" style="enable-background:new 0 0 453.5 226.8;" xml:space="preserve">
<style type="text/css">
	.st0{fill:#509EC3;}
	.st1{fill:#DDE8FD;}
	.st2{fill:#8FDFF4;}
	.st3{fill:#FFFFFF;}
	.st4{fill:#61B6D8;}
	.st5{opacity:0.5;}
	.st6{fill:none;}
</style>
<g>
	<rect x="125.8" y="3.9" class="st0" width="311.8" height="221.3"/>
	<rect x="275.9" y="14.7" class="st1" width="161.8" height="24.1"/>
	<rect x="125.7" y="143.9" class="st2" width="312" height="54"/>
	<rect x="125.7" y="64.4" class="st2" width="312" height="54"/>
	<rect x="125.7" y="0.8" class="st3" width="315.3" height="6.2"/>
	<rect x="20.2" y="74.8" class="st4" width="122.5" height="67.9"/>
	<rect x="20.2" y="156.8" class="st4" width="122.5" height="67.9"/>
	<rect x="37.2" y="142.7" class="st2" width="105.5" height="14.1"/>
	<rect x="275.8" y="16" class="st2" width="160.1" height="21.3"/>
	<rect x="12.6" y="74.3" class="st3" width="130.1" height="6.7"/>
	<rect x="316.8" y="16" class="st1" width="2.3" height="21.3"/>
	<rect x="362.3" y="16" class="st1" width="2.3" height="21.3"/>
	<rect x="406.8" y="16" class="st1" width="2.3" height="21.3"/>
	<rect x="125.4" y="14.7" class="st1" width="161.8" height="24.1"/>
	<rect x="125.3" y="16" class="st2" width="160.1" height="21.3"/>
	<rect x="166.3" y="16" class="st1" width="2.3" height="21.3"/>
	<rect x="211.8" y="16" class="st1" width="2.3" height="21.3"/>
	<rect x="256.3" y="16" class="st1" width="2.3" height="21.3"/>
	<g class="st5">
		<path class="st3" d="M48.7,121.2H33.7V98.4h14.9V121.2z M35.1,119.9h12.2v-20H35.1V119.9z"/>
		<rect x="35" y="106.3" class="st3" width="12.5" height="1"/>
		<rect x="35" y="113.4" class="st3" width="12.5" height="1"/>
		<rect x="40.7" y="99" class="st3" width="1" height="21.5"/>
		<path class="st3" d="M87.9,121.2H72.9V98.4h14.9V121.2z M74.3,119.9h12.2v-20H74.3V119.9z"/>
		<rect x="74.1" y="106.3" class="st3" width="12.5" height="1"/>
		<rect x="74.1" y="113.4" class="st3" width="12.5" height="1"/>
		<rect x="79.9" y="99" class="st3" width="1" height="21.5"/>
		<path class="st3" d="M127.1,121.2h-14.9V98.4h14.9V121.2z M113.5,119.9h12.2v-20h-12.2V119.9z"/>
		<rect x="113.3" y="106.3" class="st3" width="12.5" height="1"/>
		<rect x="113.3" y="113.4" class="st3" width="12.5" height="1"/>
		<rect x="119.1" y="99" class="st3" width="1" height="21.5"/>
		<rect x="33.7" y="98.4" class="st6" width="93.3" height="22.8"/>
	</g>
	<g class="st5">
		<path class="st3" d="M48.7,194.7H33.7v-22.8h14.9V194.7z M35.1,193.3h12.2v-20H35.1V193.3z"/>
		<rect x="35" y="179.7" class="st3" width="12.5" height="1"/>
		<rect x="35" y="186.9" class="st3" width="12.5" height="1"/>
		<rect x="40.7" y="172.5" class="st3" width="1" height="21.5"/>
		<path class="st3" d="M87.9,194.7H72.9v-22.8h14.9V194.7z M74.3,193.3h12.2v-20H74.3V193.3z"/>
		<rect x="74.1" y="179.7" class="st3" width="12.5" height="1"/>
		<rect x="74.1" y="186.9" class="st3" width="12.5" height="1"/>
		<rect x="79.9" y="172.5" class="st3" width="1" height="21.5"/>
		<path class="st3" d="M127.1,194.7h-14.9v-22.8h14.9V194.7z M113.5,193.3h12.2v-20h-12.2V193.3z"/>
		<rect x="113.3" y="179.7" class="st3" width="12.5" height="1"/>
		<rect x="113.3" y="186.9" class="st3" width="12.5" height="1"/>
		<rect x="119.1" y="172.5" class="st3" width="1" height="21.5"/>
		<rect x="33.7" y="171.9" class="st6" width="93.3" height="22.8"/>
	</g>
	<rect x="12.6" y="0.8" class="st6" width="428.4" height="225.2"/>
	<rect x="12.6" y="0.8" class="st6" width="428.4" height="225.2"/>
</g>
</svg>
