<?xml version="1.0" encoding="utf-8"?>
<!-- Generator: Adobe Illustrator 22.1.0, SVG Export Plug-In . SVG Version: 6.00 Build 0)  -->
<svg version="1.1" id="Capa_1" xmlns="http://www.w3.org/2000/svg" xmlns:xlink="http://www.w3.org/1999/xlink" x="0px" y="0px"
	 viewBox="0 0 340.2 226.8" style="enable-background:new 0 0 340.2 226.8;" xml:space="preserve">
<style type="text/css">
	.st0{clip-path:url(#SVGID_2_);}
	.st1{opacity:0.4;clip-path:url(#SVGID_4_);}
	.st2{clip-path:url(#SVGID_6_);fill:#CBD9EF;}
	.st3{clip-path:url(#SVGID_4_);fill:#80B4D5;}
	.st4{clip-path:url(#SVGID_8_);fill:#C4D2E8;}
	.st5{clip-path:url(#SVGID_4_);fill:#6D9CBF;}
	.st6{clip-path:url(#SVGID_4_);fill:#FFFFFF;}
	.st7{clip-path:url(#SVGID_4_);fill:#85B5D5;}
	.st8{clip-path:url(#SVGID_4_);fill:#A8DDF2;}
</style>
<g>
	<defs>
		<rect id="SVGID_1_" x="9" y="10.5" width="322.1" height="205.7"/>
	</defs>
	<clipPath id="SVGID_2_">
		<use xlink:href="#SVGID_1_"  style="overflow:visible;"/>
	</clipPath>
	<g class="st0">
		<defs>
			<rect id="SVGID_3_" x="9" y="10.5" width="322.1" height="205.7"/>
		</defs>
		<clipPath id="SVGID_4_">
			<use xlink:href="#SVGID_3_"  style="overflow:visible;"/>
		</clipPath>
		<g class="st1">
			<g>
				<defs>
					<rect id="SVGID_5_" x="127" y="54.2" width="187.9" height="142"/>
				</defs>
				<clipPath id="SVGID_6_">
					<use xlink:href="#SVGID_5_"  style="overflow:visible;"/>
				</clipPath>
				<rect x="127" y="54.2" class="st2" width="187.9" height="142"/>
			</g>
		</g>
		<path class="st3" d="M163.1,41.9l0,4.8l-1,143.7c0,0.3-0.1,0.6-0.3,0.6h-0.1c-0.3,0-0.5-0.5-0.5-1.2l-1.4-138.7l-0.1-9.2H163.1z"
			/>
		<path class="st3" d="M163.1,41.9l0,4.8c-0.9,0.7-2.2,1.9-3.3,4.4l-0.1-9.2H163.1z"/>
		<g class="st1">
			<g>
				<defs>
					<rect id="SVGID_7_" x="127" y="54.2" width="187.9" height="142"/>
				</defs>
				<clipPath id="SVGID_8_">
					<use xlink:href="#SVGID_7_"  style="overflow:visible;"/>
				</clipPath>
				<path class="st4" d="M315,125.1v71H127v-142h55.2C199.2,70.5,258.6,123.5,315,125.1"/>
			</g>
		</g>
		<path class="st5" d="M298,173.4l-0.1,4.7l-0.7,33c0,0.2-0.2,0.4-0.4,0.4c-0.4,0-0.6-0.3-0.7-0.6l-1.2-31.3l-0.2-6.2H298z"/>
		<path class="st3" d="M298,173.4l-0.1,4.7c-0.9,0.3-2.1,0.8-3,1.5l-0.2-6.2H298z"/>
		<path class="st5" d="M147.6,173.4l-0.1,4.7l-0.7,33c0,0.2-0.2,0.4-0.4,0.4c-0.4,0-0.6-0.3-0.7-0.6l-1.2-31.3l-0.2-6.2H147.6z"/>
		<path class="st3" d="M147.6,173.4l-0.1,4.7c-0.9,0.3-2.1,0.8-3,1.5l-0.2-6.2H147.6z"/>
		<path class="st5" d="M307.7,175H134.6c-0.1,0-0.3-0.1-0.3-0.3v-13.2c0-0.1,0.1-0.3,0.3-0.3h173.1c0.1,0,0.3,0.1,0.3,0.3v13.2
			C307.9,174.9,307.8,175,307.7,175"/>
		<polygon class="st3" points="29.8,211.9 23.8,211.9 26.2,76.4 26.6,56.1 29.4,56.1 29.5,74.3 		"/>
		<path class="st3" d="M29.5,74.3c-1,0.5-2.1,1.1-3.3,2l0.4-20.3h2.8L29.5,74.3z"/>
		<path class="st3" d="M44,59.2H9.7c-0.4,0-0.7-0.3-0.7-0.7V11.2c0-0.4,0.3-0.7,0.7-0.7H44c0.4,0,0.7,0.3,0.7,0.7v47.3
			C44.6,58.9,44.3,59.2,44,59.2"/>
		<path class="st3" d="M42,56.9H11.7c-0.3,0-0.6-0.3-0.6-0.6V13.3c0-0.3,0.3-0.6,0.6-0.6H42c0.3,0,0.6,0.3,0.6,0.6v43.1
			C42.6,56.7,42.3,56.9,42,56.9"/>
		<path class="st6" d="M19.3,36.5c-1.5-0.3-2.8,1.1-2.6,2.6c0.2,0.9,0.9,1.7,1.8,1.8c1.5,0.3,2.8-1.1,2.6-2.6
			C21,37.4,20.3,36.6,19.3,36.5 M19,39.7c-0.6,0-1-0.4-1-1c0-0.6,0.4-1,1-1s1,0.4,1,1C20,39.2,19.5,39.7,19,39.7"/>
		<path class="st6" d="M34.4,36.5c-1.5-0.3-2.8,1.1-2.6,2.6c0.2,0.9,0.9,1.7,1.8,1.8c1.5,0.3,2.8-1.1,2.6-2.6
			C36.1,37.4,35.3,36.6,34.4,36.5 M34.2,39.7c-0.7,0.1-1.3-0.5-1.1-1.1c0.1-0.4,0.4-0.8,0.8-0.8c0.7-0.1,1.2,0.5,1.1,1.1
			C34.9,39.3,34.6,39.6,34.2,39.7"/>
		<path class="st6" d="M37.1,28.8H17.7c-0.5,0-0.9,0.2-1.2,0.6l-2.1,3.1c-0.2,0.3-0.3,0.6-0.3,0.9v4c0,0.6,0.5,1.2,1.2,1.2
			c0.4,0,0.8-0.3,0.9-0.7c0.3-1.2,1.4-2.1,2.7-2.1c1.3,0,2.4,0.9,2.7,2c0.1,0.5,0.6,0.8,1.1,0.8h7.6c0.4,0,0.8-0.3,0.9-0.7
			c0.3-1.2,1.4-2.1,2.7-2.1c1.3,0,2.4,0.9,2.7,2.1c0.1,0.5,0.6,0.8,1.1,0.8h0.8c0.6,0,1-0.5,1-1v-4.4c0-0.2,0-0.4-0.1-0.6l-1.1-2.9
			C38.3,29.2,37.7,28.8,37.1,28.8 M19.6,32.4c0,0.3-0.3,0.6-0.6,0.6h-2.5c-0.4,0-0.6-0.4-0.4-0.8l1.1-2c0.2-0.4,0.6-0.6,1.1-0.6h0.7
			c0.3,0,0.6,0.3,0.6,0.6V32.4z M25.3,32.4c0,0.3-0.3,0.6-0.6,0.6h-3.5c-0.3,0-0.6-0.3-0.6-0.6v-2.2c0-0.3,0.3-0.6,0.6-0.6h3.5
			c0.3,0,0.6,0.3,0.6,0.6V32.4z M31.1,32.4c0,0.3-0.3,0.6-0.6,0.6H27c-0.3,0-0.6-0.3-0.6-0.6v-2.2c0-0.3,0.3-0.6,0.6-0.6h3.5
			c0.3,0,0.6,0.3,0.6,0.6V32.4z M36.9,32.4c0,0.3-0.3,0.6-0.6,0.6h-3.5c-0.3,0-0.6-0.3-0.6-0.6v-2.2c0-0.3,0.3-0.6,0.6-0.6h3.5
			c0.3,0,0.6,0.3,0.6,0.6V32.4z"/>
		<path class="st3" d="M32.7,211.5H20.9l0.8-16.4c0-0.9,0.8-1.6,1.7-1.6h6.6c1,0,1.8,0.8,1.8,1.7L32.7,211.5z"/>
		<path class="st3" d="M26.4,211.5h-5.5l0.9-16.5c0-0.8,0.7-1.5,1.6-1.5H25c1.4,0,2.5,1.2,2.4,2.6L26.4,211.5z"/>
		<path class="st7" d="M76,41.9l-0.1,5.4l-2.6,163.5c0,0.4-0.3,0.7-0.7,0.7h-0.2c-0.8,0-1.4-0.6-1.4-1.4L67.4,52.3l-0.2-10.4H76z"/>
		<path class="st5" d="M76,41.9l-0.1,5.4c-2.4,0.7-5.8,2.2-8.5,5l-0.2-10.4H76z"/>
		<path class="st7" d="M319.4,41.9l-0.1,5.4l-2.6,163.5c0,0.4-0.3,0.7-0.7,0.7h-0.2c-0.8,0-1.4-0.6-1.4-1.4l-3.6-157.8l-0.2-10.4
			H319.4z"/>
		<path class="st5" d="M319.4,41.9l-0.1,5.4c-2.4,0.7-5.8,2.2-8.5,5l-0.2-10.4H319.4z"/>
		<path class="st3" d="M331.1,21.5v19.3c0,0.4-0.1,0.7-0.3,1c-0.4,0.7-1.1,1.1-2,1.1H59.4c-1.3,0-2.3-0.9-2.3-2.1V21.5
			c0-1.2,1-2.1,2.3-2.1h269.5C330.1,19.4,331.1,20.3,331.1,21.5"/>
		<path class="st8" d="M331.1,21.5v19.3c0,0.4-0.1,0.7-0.3,1c-0.8,0.4-1.6,0.7-2.5,1.1H214.6c-27.9-6.8-55.7-16-76-23.5h190.3
			C330.1,19.4,331.1,20.3,331.1,21.5"/>
	</g>
</g>
</svg>
