<?xml version="1.0" encoding="utf-8"?>
<!-- Generator: Adobe Illustrator 22.1.0, SVG Export Plug-In . SVG Version: 6.00 Build 0)  -->
<svg version="1.1" id="_x2014_ÎÓÈ_x5F_1" xmlns="http://www.w3.org/2000/svg" xmlns:xlink="http://www.w3.org/1999/xlink"
	 x="0px" y="0px" viewBox="0 0 340.2 90.1" style="enable-background:new 0 0 340.2 122.1;" xml:space="preserve">
<style type="text/css">
	.st0{fill:#8FDFF4;}
	.st1{fill:#509EC3;}
	.st2{fill:#61B6D8;}
	.st3{fill:#2D6EA5;}
	.st4{fill:#4FABC5;}
	.st5{fill:#5A9EC9;}
	.st6{fill:#7ECBE0;}
	.st7{fill:#478AA7;}
</style>
<g>
	<rect x="229.8" y="44.1" class="st0" width="20.7" height="48"/>
	<rect x="243.8" y="34" class="st0" width="19.4" height="66.1"/>
	<rect x="255.9" y="18.9" class="st0" width="21.6" height="103"/>
	<rect x="233.9" y="49.8" class="st1" width="23.5" height="69.5"/>
	<rect x="256.2" y="38.4" class="st2" width="23.5" height="82"/>
	<rect x="152.5" y="34.8" class="st0" width="21.6" height="41.9"/>
	<rect x="117.5" y="24" class="st0" width="21.6" height="41.9"/>
	<g>
		<g>
			<rect x="42.4" y="29.4" class="st0" width="7.8" height="6.3"/>
			<polygon class="st0" points="46.3,25.8 42.4,29.4 50.2,29.4 			"/>
			<rect x="46.1" y="22" class="st0" width="0.4" height="5.3"/>
			<g>
				<polygon class="st0" points="35.8,34.3 28.4,46 28.4,122.1 51.7,122.1 51.7,34.3 				"/>
			</g>
		</g>
	</g>
	<g>
		<g>
			<g>
				<path class="st0" d="M168.3,17.1V105h17.1V12.7C181.5,15.4,175.3,17.1,168.3,17.1z"/>
			</g>
			<g>
				<path class="st0" d="M189.8,28.8v93.3H166V24.1C171.3,26.9,180,28.8,189.8,28.8z"/>
			</g>
			<rect x="183.4" y="2.9" class="st0" width="0.7" height="16.5"/>
			<rect x="180.8" y="7.6" class="st0" width="0.7" height="16.5"/>
		</g>
	</g>
	<rect x="176.3" y="30.4" class="st2" width="24.4" height="91.6"/>
	<rect x="308.6" y="40.3" class="st0" width="24.4" height="79"/>
	<rect x="316.7" y="30.6" class="st2" width="23.5" height="88.7"/>
	<g>
		<g>
			<g>
				<rect x="90.4" y="28.3" class="st0" width="23.3" height="93.8"/>
			</g>
			<rect x="93" y="21.3" class="st0" width="18.1" height="8.4"/>
			<rect x="97.2" y="15.3" class="st0" width="9.6" height="7.8"/>
			<polygon class="st0" points="102,10.9 97.2,15.3 106.9,15.3 			"/>
			<rect x="101.7" y="6.1" class="st0" width="0.6" height="6.6"/>
		</g>
	</g>
	<rect x="72.4" y="37" class="st0" width="24.2" height="43.6"/>
	<polygon class="st0" points="312,119.3 294.3,119.3 294.3,16.7 312,24.1 	"/>
	<polygon class="st0" points="23.9,79 6.2,79 6.2,18.5 23.9,25.9 	"/>
	<rect y="52" class="st2" width="22.3" height="68.5"/>
	<g>
		<rect x="273.1" y="26.1" class="st2" width="5.7" height="67.9"/>
		<path class="st3" d="M277.5,26.3h-0.1v3.7H276v-3.7h-0.1v3.7h-1.4v-3.7h-0.1v3.7h-1.2v0.3h1.2v4h-1.2v0.3h1.2v4h-1.2v0.3h1.2v4
			h-1.2v0.3h1.2v4h-1.2v0.3h1.2v4h-1.2v0.3h1.2v4h-1.2v0.3h1.2v4.3h-1.2V60h1.2v4h-1.2v0.3h1.2v4h-1.2v0.3h1.2v4h-1.2v0.3h1.2v4
			h-1.2v0.3h1.2v4h-1.2v0.3h1.2V85h0.1v-3.9h1.4V85h0.1v-3.9h1.4V85h0.1v-3.9h1.3v-0.3h-1.3v-4h1.3v-0.3h-1.3v-4h1.3v-0.3h-1.3v-4
			h1.3v-0.3h-1.3v-4h1.3V64h-1.3v-4h1.3v-0.3h-1.3v-4.3h1.3v-0.3h-1.3v-4h1.3V51h-1.3v-4h1.3v-0.3h-1.3v-4h1.3v-0.3h-1.3v-4h1.3
			v-0.3h-1.3v-4h1.3v-0.3h-1.3v-4h1.3v-0.3h-1.3V26.3z M275.8,80.9h-1.4v-4h1.4V80.9z M275.8,76.6h-1.4v-4h1.4V76.6z M275.8,72.4
			h-1.4v-4h1.4V72.4z M275.8,68.2h-1.4v-4h1.4V68.2z M275.8,64h-1.4v-4h1.4V64z M275.8,56.6v3.2h-1.4v-4.3h1.4V56.6z M275.8,55.2
			h-1.4v-4h1.4V55.2z M275.8,51h-1.4v-4h1.4V51z M275.8,46.8h-1.4v-4h1.4V46.8z M275.8,42.6h-1.4v-4h1.4V42.6z M275.8,38.4h-1.4v-4
			h1.4V38.4z M275.8,34.2h-1.4v-4h1.4V34.2z M277.3,80.9H276v-4h1.4V80.9z M277.3,76.6H276v-4h1.4V76.6z M277.3,72.4H276v-4h1.4
			V72.4z M277.3,68.2H276v-4h1.4V68.2z M277.3,64H276v-4h1.4V64z M277.3,56.6v3.2H276v-4.3h1.4V56.6z M277.3,55.2H276v-4h1.4V55.2z
			 M277.3,51H276v-4h1.4V51z M277.3,46.8H276v-4h1.4V46.8z M277.3,42.6H276v-4h1.4V42.6z M277.3,38.4H276v-4h1.4V38.4z M277.3,34.2
			H276v-4h1.4V34.2z"/>
		<rect x="278.8" y="34.7" class="st2" width="16.3" height="59.3"/>
		<rect x="285.1" y="38.5" class="st4" width="3.4" height="4.3"/>
		<rect x="281.7" y="34.9" class="st4" width="3.4" height="3.7"/>
		<polygon class="st2" points="289.4,26.1 273.1,26.1 278.8,34.7 295.1,34.7 		"/>
		<path class="st3" d="M292.1,94v-3.9h3v-0.3h-3v-4h3v-0.3h-3v-4h3v-0.3h-3v-4h3v-0.3h-3v-4h3v-0.3h-3v-4h3v-0.3h-3v-4.3h3V64h-3v-4
			h3v-0.3h-3v-4h3v-0.3h-3v-4h3v-0.3h-3v-4h3V47h-3v-4h3v-0.3h-3v-4h3v-0.3h-3v-3.7h-0.3v3.7h-3.2v-3.7h-0.3v3.7h-3.2v-3.7h-0.3v3.7
			h-3.2v-3.7h-0.3v3.7h-2.7v0.3h2.7v4h-2.7V43h2.7v4h-2.7v0.3h2.7v4h-2.7v0.3h2.7v4h-2.7v0.3h2.7v4h-2.7V60h2.7v4h-2.7v0.3h2.7v4.3
			h-2.7v0.3h2.7v4h-2.7v0.3h2.7v4h-2.7v0.3h2.7v4h-2.7v0.3h2.7v4h-2.7v0.3h2.7v4h-2.7v0.3h2.7V94h0.3v-3.9h3.2V94h0.3v-3.9h3.2V94
			h0.3v-3.9h3.2V94H292.1z M284.9,89.8h-3.2v-4h3.2V89.8z M284.9,85.6h-3.2v-4h3.2V85.6z M284.9,81.3h-3.2v-4h3.2V81.3z M284.9,77.1
			h-3.2v-4h3.2V77.1z M284.9,72.8h-3.2v-4h3.2V72.8z M284.9,65.3v3.2h-3.2v-4.3h3.2V65.3z M284.9,64h-3.2v-4h3.2V64z M284.9,59.7
			h-3.2v-4h3.2V59.7z M284.9,55.5h-3.2v-4h3.2V55.5z M284.9,51.2h-3.2v-4h3.2V51.2z M284.9,47h-3.2v-4h3.2V47z M284.9,42.7h-3.2v-4
			h3.2V42.7z M288.4,89.8h-3.2v-4h3.2V89.8z M288.4,85.6h-3.2v-4h3.2V85.6z M288.4,81.3h-3.2v-4h3.2V81.3z M288.4,77.1h-3.2v-4h3.2
			V77.1z M288.4,72.8h-3.2v-4h3.2V72.8z M288.4,65.3v3.2h-3.2v-4.3h3.2V65.3z M288.4,64h-3.2v-4h3.2V64z M288.4,59.7h-3.2v-4h3.2
			V59.7z M288.4,55.5h-3.2v-4h3.2V55.5z M288.4,51.2h-3.2v-4h3.2V51.2z M288.4,47h-3.2v-4h3.2V47z M288.4,42.7h-3.2v-4h3.2V42.7z
			 M288.7,38.7h3.2v4h-3.2V38.7z M288.7,43h3.2v4h-3.2V43z M288.7,47.2h3.2v4h-3.2V47.2z M288.7,51.5h3.2v4h-3.2V51.5z M288.7,55.7
			h3.2v4h-3.2V55.7z M288.7,60h3.2v4h-3.2V60z M288.7,66.5v-2.2h3.2v4.3h-3.2V66.5z M288.7,68.8h3.2v4h-3.2V68.8z M288.7,73.1h3.2v4
			h-3.2V73.1z M288.7,77.3h3.2v4h-3.2V77.3z M288.7,81.6h3.2v4h-3.2V81.6z M288.7,89.8v-4h3.2v4H288.7z"/>
		<g>
			<polygon class="st3" points="281.5,34.7 281.8,34.7 276.6,26.1 276.3,26.1 			"/>
			<polygon class="st3" points="280.1,26.1 279.7,26.1 284.9,34.7 285.3,34.7 			"/>
			<polygon class="st3" points="283.5,26.1 283.1,26.1 288.3,34.7 288.7,34.7 			"/>
			<polygon class="st3" points="286.9,26.1 286.5,26.1 291.8,34.7 292.1,34.7 			"/>
		</g>
		<rect x="278.8" y="34.7" class="st3" width="16.3" height="0.3"/>
		<g>
			<polygon class="st3" points="274.9,28.8 291.2,28.8 291,28.6 274.7,28.6 			"/>
			<polygon class="st3" points="293,31.6 276.7,31.6 276.9,31.8 293.2,31.8 			"/>
		</g>
	</g>
	<rect x="95.2" y="51.2" class="st2" width="36.8" height="63.7"/>
	<rect x="99.4" y="45.2" class="st2" width="27.5" height="76.8"/>
	<rect x="83.6" y="39.3" class="st2" width="13.1" height="63.7"/>
	<g>
		<rect x="224.5" y="27" class="st5" width="13.2" height="16.7"/>
		<rect x="228.3" y="22.2" class="st5" width="5.6" height="7.9"/>
		<rect x="230.8" y="13.9" class="st5" width="0.6" height="12.1"/>
		<path class="st2" d="M238.8,47.5v73.3h-24.3V17.6C227.9,17.6,238.8,31,238.8,47.5z"/>
		<path class="st5" d="M230.1,20.4c0,0.4,0.5,0.7,1.1,0.7c0.6,0,1.1-0.3,1.1-0.7c0-0.4-0.5-0.7-1.1-0.7
			C230.5,19.8,230.1,20.1,230.1,20.4z"/>
		<g>
			<rect x="214.5" y="55.2" class="st6" width="24.3" height="0.5"/>
			<rect x="214.5" y="64.1" class="st6" width="24.3" height="0.5"/>
			<rect x="214.5" y="59.7" class="st6" width="24.3" height="0.5"/>
			<rect x="214.5" y="73" class="st6" width="24.3" height="0.5"/>
			<rect x="214.5" y="68.6" class="st6" width="24.3" height="0.5"/>
			<rect x="214.5" y="77.5" class="st6" width="24.3" height="0.5"/>
			<rect x="214.5" y="82" class="st6" width="24.3" height="0.5"/>
			<rect x="214.5" y="86.4" class="st6" width="24.3" height="0.5"/>
			<path class="st6" d="M214.5,20.1v-0.5h8.7c0.4,0.2,0.7,0.3,1.1,0.5H214.5z"/>
			<path class="st6" d="M235.8,33c0.1,0.2,0.2,0.4,0.2,0.5h-21.5V33H235.8z"/>
			<rect x="214.5" y="50.8" class="st6" width="24.3" height="0.5"/>
			<path class="st6" d="M229.6,24.1c0.2,0.2,0.4,0.4,0.5,0.5h-15.6v-0.5H229.6z"/>
			<path class="st6" d="M233.3,28.5c0.1,0.2,0.2,0.4,0.3,0.5h-19.1v-0.5H233.3z"/>
			<path class="st6" d="M238.8,46.3c0,0.2,0,0.4,0,0.5h-24.3v-0.5H238.8z"/>
			<path class="st6" d="M238.4,41.9c0,0.2,0.1,0.4,0.1,0.5h-24v-0.5H238.4z"/>
			<path class="st6" d="M237.4,37.4c0.1,0.2,0.1,0.4,0.1,0.5h-23v-0.5H237.4z"/>
		</g>
		<rect x="207.9" y="17.6" class="st0" width="6.6" height="90.1"/>
		<rect x="209.7" y="19.6" class="st1" width="3" height="57"/>
	</g>
	<g>
		<polygon class="st2" points="128.8,15.1 128.8,122.1 153.1,122.1 153.1,2.9 		"/>
		<rect x="153.1" y="2.9" class="st0" width="7.5" height="83.9"/>
		<rect x="156.3" y="7.2" class="st1" width="1.1" height="79.7"/>
		<g>
			<rect x="128.8" y="49" class="st6" width="24.3" height="0.5"/>
			<rect x="128.8" y="37.4" class="st6" width="24.3" height="0.5"/>
			<rect x="128.8" y="45.1" class="st6" width="24.3" height="0.5"/>
			<rect x="128.8" y="41.3" class="st6" width="24.3" height="0.5"/>
			<rect x="128.8" y="52.8" class="st6" width="24.3" height="0.5"/>
			<rect x="128.8" y="60.5" class="st6" width="24.3" height="0.5"/>
			<rect x="128.8" y="64.4" class="st6" width="24.3" height="0.5"/>
			<rect x="128.8" y="56.7" class="st6" width="24.3" height="0.5"/>
			<rect x="128.8" y="14.4" class="st6" width="24.3" height="0.5"/>
			<polygon class="st6" points="131.6,10.5 130.2,11 153.1,11 153.1,10.5 			"/>
			<rect x="128.8" y="33.6" class="st6" width="24.3" height="0.5"/>
			<polygon class="st6" points="142.4,6.7 141.1,7.1 153.1,7.1 153.1,6.7 			"/>
			<rect x="128.8" y="18.2" class="st6" width="24.3" height="0.5"/>
			<rect x="128.8" y="29.7" class="st6" width="24.3" height="0.5"/>
			<rect x="128.8" y="22.1" class="st6" width="24.3" height="0.5"/>
			<rect x="128.8" y="25.9" class="st6" width="24.3" height="0.5"/>
		</g>
	</g>
	<rect x="34.9" y="45.4" class="st2" width="22.3" height="34.5"/>
	<g>
		<path class="st2" d="M56.2,8.1c0,0,8.8,0.8,15.4,4.2c6.7,3.4,9.9,8.2,9.9,8.2v100.3H56.2V8.1z"/>
		<g>
			<path class="st7" d="M81.5,35.1v-0.6c-1.7-1.7-4.7-4.5-9.4-6.6c-5.8-2.7-13.3-3.8-15.9-4.1v0.4c2.6,0.3,10,1.3,15.7,4
				C76.8,30.5,80,33.4,81.5,35.1z"/>
			<path class="st7" d="M81.5,27.1v-0.6c-1.7-1.7-4.7-4.5-9.4-6.6c-5.8-2.7-13.3-3.8-15.9-4.1v0.4c2.6,0.3,10,1.3,15.7,4
				C76.8,22.5,80,25.5,81.5,27.1z"/>
			<path class="st7" d="M81.5,43.1v-0.6c-1.7-1.7-4.7-4.5-9.4-6.6c-5.8-2.7-13.3-3.8-15.9-4.1v0.4c2.6,0.3,10,1.3,15.7,4
				C76.8,38.5,80,41.4,81.5,43.1z"/>
			<path class="st7" d="M81.5,39.1v-0.6c-1.7-1.7-4.7-4.5-9.4-6.6c-5.8-2.7-13.3-3.8-15.9-4.1v0.4c2.6,0.3,10,1.3,15.7,4
				C76.8,34.5,80,37.4,81.5,39.1z"/>
			<path class="st7" d="M81.5,47.1v-0.6c-1.7-1.7-4.7-4.5-9.4-6.6c-5.8-2.7-13.3-3.8-15.9-4.1v0.4c2.6,0.3,10,1.3,15.7,4
				C76.8,42.5,80,45.4,81.5,47.1z"/>
			<path class="st7" d="M72.1,83.9c-5.8-2.7-13.3-3.8-15.9-4.1v0.4c2.6,0.3,10,1.3,15.7,4c4.7,2.2,7.9,5.1,9.4,6.7h0.1v-0.5
				C79.8,88.7,76.7,86,72.1,83.9z"/>
			<path class="st7" d="M81.5,51.1v-0.6c-1.7-1.7-4.7-4.5-9.4-6.6c-5.8-2.7-13.3-3.8-15.9-4.1v0.4c2.6,0.3,10,1.3,15.7,4
				C76.8,46.5,80,49.4,81.5,51.1z"/>
			<path class="st7" d="M72.1,15.9c-5.8-2.7-13.3-3.8-15.9-4.1v0.4c2.6,0.3,10,1.3,15.7,4c4.9,2.3,8,5.2,9.5,6.9v-0.6
				C79.8,20.8,76.7,18.1,72.1,15.9z"/>
			<path class="st7" d="M81.5,31.1v-0.6c-1.7-1.7-4.7-4.5-9.4-6.6c-5.8-2.7-13.3-3.8-15.9-4.1v0.4c2.6,0.3,10,1.3,15.7,4
				C76.8,26.5,80,29.4,81.5,31.1z"/>
			<path class="st7" d="M81.5,75.1v-0.6c-1.7-1.7-4.7-4.5-9.4-6.6c-5.8-2.7-13.3-3.8-15.9-4.1v0.4c2.6,0.3,10,1.3,15.7,4
				C76.8,70.5,80,73.4,81.5,75.1z"/>
			<path class="st7" d="M72.1,79.9c-5.8-2.7-13.3-3.8-15.9-4.1v0.4c2.6,0.3,10,1.3,15.7,4c4.9,2.3,8,5.2,9.5,6.8v-0.6
				C79.8,84.8,76.7,82,72.1,79.9z"/>
			<path class="st7" d="M72.1,71.9c-5.8-2.7-13.3-3.8-15.9-4.1v0.4c2.6,0.3,10,1.3,15.7,4c4.9,2.3,8,5.2,9.5,6.9v-0.6
				C79.8,76.8,76.7,74,72.1,71.9z"/>
			<path class="st7" d="M72.1,63.9c-5.8-2.7-13.3-3.8-15.9-4.1v0.4c2.6,0.3,10,1.3,15.7,4c4.9,2.3,8,5.2,9.5,6.9v-0.6
				C79.8,68.8,76.7,66,72.1,63.9z"/>
			<path class="st7" d="M72.1,55.9c-5.8-2.7-13.3-3.8-15.9-4.1v0.4c2.6,0.3,10,1.3,15.7,4c4.9,2.3,8,5.2,9.5,6.9v-0.6
				C79.8,60.8,76.7,58,72.1,55.9z"/>
			<path class="st7" d="M81.5,55.1v-0.6c-1.7-1.7-4.7-4.5-9.4-6.6c-5.8-2.7-13.3-3.8-15.9-4.1v0.4c2.6,0.3,10,1.3,15.7,4
				C76.8,50.5,80,53.4,81.5,55.1z"/>
			<path class="st7" d="M81.5,59.1v-0.6c-1.7-1.7-4.7-4.5-9.4-6.6c-5.8-2.7-13.3-3.8-15.9-4.1v0.4c2.6,0.3,10,1.3,15.7,4
				C76.8,54.5,80,57.4,81.5,59.1z"/>
			<path class="st7" d="M81.5,67.1v-0.6c-1.7-1.7-4.7-4.5-9.4-6.6c-5.8-2.7-13.3-3.8-15.9-4.1v0.4c2.6,0.3,10,1.3,15.7,4
				C76.8,62.5,80,65.4,81.5,67.1z"/>
			<path class="st7" d="M81.5,83.1v-0.6c-1.7-1.7-4.7-4.5-9.4-6.6c-5.8-2.7-13.3-3.8-15.9-4.1v0.4c2.6,0.3,10,1.3,15.7,4
				C76.8,78.5,80,81.4,81.5,83.1z"/>
		</g>
		<g>
			<path class="st7" d="M59.7,8.6c-0.1,0-0.2,0-0.4-0.1v82.3h0.4V8.6z"/>
			<path class="st7" d="M78.6,90.9h0.4V17.5c-0.1-0.1-0.2-0.2-0.4-0.4V90.9z"/>
			<path class="st7" d="M63.4,9.3c-0.1,0-0.2-0.1-0.4-0.1v81.7h0.4V9.3z"/>
		</g>
	</g>
</g>
</svg>
