<?xml version="1.0" encoding="utf-8"?>
<!-- Generator: Adobe Illustrator 22.1.0, SVG Export Plug-In . SVG Version: 6.00 Build 0)  -->
<svg version="1.1" id="Capa_1" xmlns="http://www.w3.org/2000/svg" xmlns:xlink="http://www.w3.org/1999/xlink" x="0px" y="0px"
	 viewBox="0 0 226.8 226.8" style="enable-background:new 0 0 226.8 226.8;" xml:space="preserve">
<style type="text/css">
	.st0{fill:#8FDFF4;}
	.st1{fill:#6DB7D8;}
	.st2{fill:#FFFFFF;}
	.st3{fill:none;}
</style>
<g>
	<rect x="26.8" y="0.6" class="st0" width="184.7" height="102.4"/>
	<rect x="26.8" y="124.3" class="st0" width="184.7" height="102.4"/>
	<rect x="52.4" y="103" class="st1" width="159.1" height="21.3"/>
	<rect x="15.3" class="st2" width="196.2" height="10.1"/>
	<path class="st2" d="M69.8,70.7H47.2V36.3h22.5V70.7z M49.3,68.6h18.4V38.4H49.3V68.6z"/>
	<rect x="49" y="48.2" class="st2" width="18.9" height="1.6"/>
	<rect x="49" y="58.9" class="st2" width="18.9" height="1.6"/>
	<rect x="57.7" y="37.2" class="st2" width="1.6" height="32.4"/>
	<path class="st2" d="M128.8,70.7h-22.5V36.3h22.5V70.7z M108.4,68.6h18.4V38.4h-18.4V68.6z"/>
	<rect x="108.1" y="48.2" class="st2" width="18.9" height="1.6"/>
	<rect x="108.1" y="58.9" class="st2" width="18.9" height="1.6"/>
	<rect x="116.8" y="37.2" class="st2" width="1.6" height="32.4"/>
	<path class="st2" d="M187.9,70.7h-22.5V36.3h22.5V70.7z M167.4,68.6h18.4V38.4h-18.4V68.6z"/>
	<rect x="167.2" y="48.2" class="st2" width="18.9" height="1.6"/>
	<rect x="167.2" y="58.9" class="st2" width="18.9" height="1.6"/>
	<rect x="175.9" y="37.2" class="st2" width="1.6" height="32.4"/>
	<rect x="47.2" y="36.3" class="st3" width="140.7" height="34.4"/>
	<path class="st2" d="M69.8,187.8H47.2v-34.4h22.5V187.8z M49.3,185.7h18.4v-30.2H49.3V185.7z"/>
	<rect x="49" y="165.3" class="st2" width="18.9" height="1.6"/>
	<rect x="49" y="176" class="st2" width="18.9" height="1.6"/>
	<rect x="57.7" y="154.3" class="st2" width="1.6" height="32.4"/>
	<path class="st2" d="M128.8,187.8h-22.5v-34.4h22.5V187.8z M108.4,185.7h18.4v-30.2h-18.4V185.7z"/>
	<rect x="108.1" y="165.3" class="st2" width="18.9" height="1.6"/>
	<rect x="108.1" y="176" class="st2" width="18.9" height="1.6"/>
	<rect x="116.8" y="154.3" class="st2" width="1.6" height="32.4"/>
	<path class="st2" d="M187.9,187.8h-22.5v-34.4h22.5V187.8z M167.4,185.7h18.4v-30.2h-18.4V185.7z"/>
	<rect x="167.2" y="165.3" class="st2" width="18.9" height="1.6"/>
	<rect x="167.2" y="176" class="st2" width="18.9" height="1.6"/>
	<rect x="175.9" y="154.3" class="st2" width="1.6" height="32.4"/>
	<rect x="47.2" y="153.4" class="st3" width="140.7" height="34.4"/>
</g>
</svg>
