<?xml version="1.0" encoding="utf-8"?>
<!-- Generator: Adobe Illustrator 25.4.1, SVG Export Plug-In . SVG Version: 6.00 Build 0)  -->
<svg version="1.1" id="Capa_1" xmlns="http://www.w3.org/2000/svg" xmlns:xlink="http://www.w3.org/1999/xlink" x="0px" y="0px"
	 viewBox="0 0 108.55 28.82" style="enable-background:new 0 0 108.55 28.82;" xml:space="preserve">
<style type="text/css">
	.st0{fill:#D60D51;}
	.st1{fill:#554A53;}
</style>
<g>
	<path class="st0" d="M0,28.66h108.55c0,0-2.97-11.61-14.14-8.78C92.49,3.86,76.18,4.21,71.07,12.06
		C63.17-4.17,46.35-3.16,39.93,9.97c-10.27-4.36-18.12-1.21-19.52,8.86C8.38,11.54,0,28.66,0,28.66z"/>
	<g>
		
			<rect x="55.86" y="5.26" transform="matrix(0.9952 -0.0975 0.0975 0.9952 -1.3742 5.5424)" class="st1" width="0.32" height="23.15"/>
	</g>
	<g>
		
			<rect x="35.47" y="12.54" transform="matrix(0.8556 -0.5176 0.5176 0.8556 -5.8307 21.5022)" class="st1" width="0.32" height="17.33"/>
	</g>
	<g>
		
			<rect x="67.47" y="19.54" transform="matrix(0.5729 -0.8196 0.8196 0.5729 17.3598 72.7203)" class="st1" width="21.97" height="0.32"/>
	</g>
	<g>
		
			<rect x="78.68" y="17.27" transform="matrix(0.9523 -0.3053 0.3053 0.9523 -1.3144 26.459)" class="st1" width="10.53" height="0.32"/>
	</g>
	<g>
		
			<rect x="88.68" y="25.2" transform="matrix(0.8287 -0.5597 0.5597 0.8287 2.0153 57.3049)" class="st1" width="11.88" height="0.32"/>
	</g>
	<g>
		
			<rect x="52.25" y="16.33" transform="matrix(0.4872 -0.8733 0.8733 0.4872 16.9163 61.7954)" class="st1" width="17.66" height="0.32"/>
	</g>
	<g>
		
			<rect x="51.94" y="7.35" transform="matrix(0.5933 -0.805 0.805 0.5933 11.5702 46.7952)" class="st1" width="0.32" height="9.19"/>
	</g>
	<g>
		
			<rect x="30.38" y="15.09" transform="matrix(0.2466 -0.9691 0.9691 0.2466 2.2429 45.7345)" class="st1" width="0.32" height="12.66"/>
	</g>
</g>
</svg>
