<?xml version="1.0" encoding="utf-8"?>
<!-- Generator: Adobe Illustrator 22.1.0, SVG Export Plug-In . SVG Version: 6.00 Build 0)  -->
<svg version="1.1" id="Capa_1" xmlns="http://www.w3.org/2000/svg" xmlns:xlink="http://www.w3.org/1999/xlink" x="0px" y="0px"
	 viewBox="0 0 193.1 101.8" style="enable-background:new 0 0 193.1 101.8;" xml:space="preserve">
<style type="text/css">
	.st0{fill:#C83357;}
	.st1{fill:#E6E6E6;stroke:#1A1B1D;stroke-width:2.752;stroke-linecap:round;stroke-miterlimit:10;}
	.st2{fill:#1A1B1D;}
	.st3{fill:#FFFFFF;}
	.st4{fill:none;stroke:#1A1B1D;stroke-width:0.344;stroke-linecap:round;stroke-miterlimit:10;}
	.st5{fill:#F27599;}
</style>
<g>
	<g>
		<g>
			<path class="st0" d="M12.9,74.6L12.9,74.6c0,0,0-1.6,0.2-4.5l0,0c0,0.8-0.1,1.6-0.1,2.3c0-0.8,0.1-1.5,0.1-2.3
				c0.6-13.9,2.7-31.8,2.7-31.8C17.6,24.4,27.5,15,40.3,15h5.8v-1.7c0-2.2,1.8-4,4-4h55.4c2.2,0,4,1.8,4,4V15h78.2
				c2.9,0,5.3,2.4,5.3,5.3v8.5v45.7v6.2c0,0.9-0.6,1.8-1.6,2l-19,4.8h-5.2v-0.1c0.7-2.9,0.8-6.2-0.6-9.6
				c-2.5-6.1-8.3-10.4-14.8-10.5c-9-0.1-16.4,7.2-16.4,16.2c0,1.4,0.2,2.7,0.5,3.9v0.1H84.3v-0.1c0.7-2.9,0.8-6.2-0.6-9.6
				c-2.5-6.1-8.2-10.4-14.8-10.5c-9.1-0.1-16.4,7.2-16.4,16.2c0,1.4,0.2,2.7,0.5,3.9v0.1h-36c2.6,0-3.3-0.1-3.8-5.2
				C12.9,80.5,12.8,77.7,12.9,74.6z"/>
		</g>
	</g>
	<path class="st1" d="M54.5,83.9c0,7.8,6.3,14.1,14.1,14.1c7.8,0,14.1-6.3,14.1-14.1c0-7.8-6.3-14.1-14.1-14.1S54.5,76.1,54.5,83.9z
		"/>
	<path class="st2" d="M68.6,79.3c2.5,0,4.6,2.1,4.6,4.6c0,2.6-2.1,4.6-4.6,4.6S64,86.5,64,83.9C64,81.4,66,79.3,68.6,79.3z"/>
	<g>
		<path class="st3" d="M190.3,56H25.8c-3.5,0-5.7-0.4-6.5-2.6c-0.9-2.6-0.6-5.5-0.1-10.1c1.1-9.2,3.5-14.4,3.6-14.5
			c2.5-5.4,9.1-9.1,16.3-9.1h151c0.2,0,0.3,0.1,0.3,0.3s-0.2,0.3-0.3,0.3H39c-7,0-13.3,3.5-15.7,8.7c0,0.1-2.5,5.2-3.5,14.3
			c-0.5,4.5-0.8,7.4,0.1,9.8c0.6,1.8,2.5,2.2,5.9,2.2h164.6c0.2,0,0.3,0.1,0.3,0.3S190.5,56,190.3,56z"/>
		<path class="st3" d="M21.1,82.7H15c-0.2,0-0.3-0.1-0.3-0.3S14.8,82,15,82h6.1c0.4,0,0.8-0.1,1.1-0.4l4.3-3.8
			c0.4-0.3,0.5-0.8,0.5-1.2c0-0.9-0.7-1.6-1.6-1.6H14.9c-0.2,0-0.3-0.1-0.3-0.3s0.1-0.3,0.3-0.3h10.5c1.3,0,2.3,1,2.3,2.3
			c0,0.7-0.3,1.3-0.8,1.8l-4.3,3.8C22.2,82.5,21.7,82.7,21.1,82.7z"/>
		<path class="st3" d="M11.5,49.3H9c-0.7,0-1.3-0.9-1.3-2.1V35.1c0-1.2,0.5-2.1,1.3-2.1h12.4c0.2,0,0.3,0.1,0.3,0.3
			s-0.1,0.3-0.3,0.3H9c-0.2,0-0.6,0.6-0.6,1.4v12.1c0,0.8,0.4,1.4,0.6,1.4h2.6c0.2,0,0.6-0.6,0.6-1.4V35.7h8.6
			c0.2,0,0.3,0.1,0.3,0.3s-0.1,0.3-0.3,0.3h-7.9v10.9C12.8,48.4,12.3,49.3,11.5,49.3z"/>
	</g>
	<circle class="st4" cx="68.6" cy="83.9" r="6.7"/>
	<path class="st1" d="M137.5,83.9c0,7.8,6.3,14.1,14.1,14.1c7.8,0,14.1-6.3,14.1-14.1c0-7.8-6.3-14.1-14.1-14.1
		S137.5,76.1,137.5,83.9z"/>
	<path class="st2" d="M151.6,79.3c2.5,0,4.6,2.1,4.6,4.6c0,2.6-2.1,4.6-4.6,4.6s-4.6-2.1-4.6-4.6C146.9,81.4,149,79.3,151.6,79.3z"
		/>
	<circle class="st4" cx="151.6" cy="83.9" r="6.7"/>
	<g>
		<polygon class="st5" points="175.8,31 175.8,43.2 175.8,53.6 191.1,53.6 191.1,42 191.1,30.9 175.8,30.9 		"/>
		<polygon class="st5" points="133.1,53.5 172.4,53.5 174.4,53.5 174.4,50.4 174.4,42.2 174.4,38 168.5,38 150.3,38 144,38 
			133.1,38 		"/>
		<polygon class="st5" points="133.1,36 141.3,36 147.5,36 165.7,36 174.4,36 174.4,30.9 151.3,30.9 140.5,30.9 135.4,30.9 
			134.2,30.9 133.1,30.9 		"/>
		<polygon class="st5" points="119.5,31 119.5,43.2 119.5,53.6 131.2,53.6 131.2,42 131.2,30.9 119.5,30.9 		"/>
		<polygon class="st5" points="101.6,53.5 116.9,53.5 116.9,41.7 116.9,30.9 101.8,30.9 101.6,30.9 		"/>
		<polygon class="st5" points="83.3,31 83.3,43.2 83.3,53.6 98.6,53.6 98.6,42 98.6,30.9 83.3,30.9 		"/>
		<polygon class="st5" points="65.4,53.5 80.7,53.5 80.7,41.7 80.7,30.9 65.6,30.9 65.4,30.9 		"/>
		<polygon class="st5" points="28.1,53.5 60.1,53.5 62.1,53.5 62.1,50.4 62.1,42.2 62.1,38 56.2,38 45.2,38 38.9,38 28.1,38 		"/>
		<polygon class="st5" points="28.1,36 36.2,36 42.4,36 53.4,36 62.1,36 62.1,30.9 46.3,30.9 35.5,30.9 30.3,30.9 29.2,30.9 
			28.1,30.9 		"/>
	</g>
</g>
</svg>
