<?xml version="1.0" encoding="utf-8"?>
<!-- Generator: Adobe Illustrator 22.1.0, SVG Export Plug-In . SVG Version: 6.00 Build 0)  -->
<svg version="1.1" id="Capa_1" xmlns="http://www.w3.org/2000/svg" xmlns:xlink="http://www.w3.org/1999/xlink" x="0px" y="0px"
	 viewBox="0 0 294.9 115.3" style="enable-background:new 0 0 294.9 115.3;" xml:space="preserve">
<style type="text/css">
	.st0{clip-path:url(#SVGID_2_);}
	.st1{fill:#219E56;}
	.st2{fill:#F2CDAC;}
	.st3{fill:#81D886;}
	.st4{fill:#1A1B1D;}
	.st5{fill:#FFFFFF;}
	.st6{clip-path:url(#SVGID_4_);}
	.st7{clip-path:url(#SVGID_6_);}
	.st8{fill:#E1BA9E;}
	.st9{clip-path:url(#SVGID_8_);}
	.st10{clip-path:url(#SVGID_10_);}
	.st11{fill:#4CC9F0;}
	.st12{clip-path:url(#SVGID_12_);}
	.st13{clip-path:url(#SVGID_14_);}
	.st14{fill:#3089E0;}
	.st15{clip-path:url(#SVGID_16_);}
	.st16{clip-path:url(#SVGID_18_);}
	.st17{clip-path:url(#SVGID_20_);}
	.st18{clip-path:url(#SVGID_22_);}
	.st19{clip-path:url(#SVGID_24_);}
	.st20{clip-path:url(#SVGID_26_);}
	.st21{clip-path:url(#SVGID_28_);}
	.st22{clip-path:url(#SVGID_30_);}
	.st23{clip-path:url(#SVGID_32_);}
	.st24{clip-path:url(#SVGID_34_);}
	.st25{fill:#AF2E59;}
	.st26{fill:#E6E6E6;}
	.st27{fill:#A0204B;}
</style>
<g>
	<g>
		<defs>
			<rect id="SVGID_1_" x="67.7" y="38.2" width="227.2" height="76.8"/>
		</defs>
		<clipPath id="SVGID_2_">
			<use xlink:href="#SVGID_1_"  style="overflow:visible;"/>
		</clipPath>
		<g class="st0">
			<g>
				<g id="XMLID_944_">
					<polygon id="XMLID_949_" class="st1" points="291.6,186.4 288.4,317.9 288.1,314.8 304.5,428.1 270.2,434.9 246.4,321.8 
						246.3,321.2 246.2,318.7 237.7,187.5 					"/>
				</g>
				<g id="XMLID_922_">
					<path id="XMLID_943_" class="st1" d="M274.8,225l-70.3-3c-7.6-0.3-13.6-6.8-13.3-14.4l2.6-60.6l91.8,3.9l3.6,60.9
						C289,219.4,282.5,225.3,274.8,225z"/>
				</g>
				<g id="XMLID_839_">
					<polygon id="XMLID_921_" class="st1" points="238,189.5 210.4,321.7 210.6,316.2 217.8,436.1 182.9,437.7 168.6,320.4 
						168.3,318.6 168.8,314.9 184.7,180.8 					"/>
				</g>
			</g>
			<g>
				<g id="XMLID_835_">
					<g id="XMLID_836_">
						<g id="XMLID_837_">
							<path id="XMLID_838_" class="st2" d="M172.4,156.8l-21.2,19.8l-23.8,18.8c-3.7,2.9-9.1,2.2-12-1.5c-2.8-3.6-2.2-8.6,1-11.6
								l41.7-37.6l7.6,13.6C165.8,158.2,176.1,153.9,172.4,156.8z"/>
						</g>
					</g>
				</g>
				<g id="XMLID_831_">
					<g id="XMLID_832_">
						<g id="XMLID_833_">
							<path id="XMLID_834_" class="st2" d="M122.3,180.8c-0.8-0.1-0.8-0.1-1.2-0.1c-0.2,0-0.5,0-0.7,0c-0.5,0-0.8,0.1-1.3,0.1
								c-0.8,0.1-1.5,0.3-2.1,0.5c-1.3,0.4-2.5,0.9-3.7,1.5c-2.3,1.1-4.4,2.4-6.3,3.7c-1.4,1-1.8,2.9-0.8,4.4
								c0.8,1.2,2.4,1.7,3.7,1.2l0.1,0c2-0.7,4.1-1.4,6-1.8c1-0.2,1.9-0.3,2.8-0.4c0.4,0,0.8,0,1.2,0c0.2,0,0.3,0.1,0.4,0.1
								c0.1,0,0.1,0,0.1,0.1c-0.1,0,0.2,0.1-0.4,0c2.6,0.6,5.2-1,5.8-3.5C126.4,184,124.8,181.4,122.3,180.8z"/>
						</g>
					</g>
				</g>
				<g id="XMLID_827_">
					<g id="XMLID_828_">
						<g id="XMLID_829_">
							<path id="XMLID_830_" class="st2" d="M116.4,182.4c-1.4,1.2-2.6,2.3-3.9,3.5c-1.2,1.2-2.4,2.4-3.5,3.7
								c-2.3,2.6-4.4,5.4-6.1,8.7c-0.8,1.6-0.1,3.5,1.5,4.3c1.4,0.7,3.2,0.2,4.1-1.1l0.1-0.1c1.5-2.2,3.7-4.4,6-6.3
								c1.2-1,2.4-1.9,3.6-2.8c1.2-0.9,2.5-1.8,3.7-2.5c2.2-1.3,2.8-4.1,1.5-6.3c-1.3-2.1-4.1-2.8-6.3-1.5
								C116.7,182.1,116.5,182.3,116.4,182.4z"/>
						</g>
					</g>
				</g>
				<g id="XMLID_823_">
					<g id="XMLID_824_">
						<g id="XMLID_825_">
							<path id="XMLID_826_" class="st2" d="M119.5,184.9c-1.3,1.3-2.5,2.5-3.7,3.9c-1.2,1.3-2.3,2.6-3.5,4.1
								c-1.1,1.4-2.2,2.9-3.2,4.6c-0.5,0.8-1,1.7-1.4,2.7c-0.2,0.5-0.4,1.1-0.6,1.6c-0.2,0.6-0.2,1.4-0.3,2
								c-0.2,1.7,1.1,3.2,2.8,3.4c1.4,0.1,2.7-0.7,3.2-1.9l0.4-1.1c0.1-0.4,0.9-1.7,1.8-2.7c0.9-1.1,2-2.2,3.1-3.3
								c1.2-1.1,2.4-2.1,3.6-3.1c1.2-1,2.6-2,3.8-2.9c2.1-1.5,2.7-4.5,1.1-6.7c-1.5-2.1-4.5-2.7-6.7-1.1
								C119.9,184.6,119.7,184.8,119.5,184.9z"/>
						</g>
					</g>
				</g>
				<g id="XMLID_819_">
					<g id="XMLID_820_">
						<g id="XMLID_821_">
							<path id="XMLID_822_" class="st2" d="M127.5,183.3c-1.8,1.8-3.3,3.6-4.8,5.4c-1.5,1.9-2.9,3.8-4.2,5.7
								c-2.7,3.9-5,8.1-6.7,12.7c-0.6,1.7,0.2,3.5,1.9,4.1c1.5,0.6,3.2-0.1,4-1.5l0-0.1c1.9-3.7,4.4-7.1,7.1-10.4
								c1.4-1.6,2.9-3.2,4.4-4.7c1.5-1.5,3.1-3,4.6-4.2l0,0c2.1-1.7,2.3-4.6,0.7-6.7c-1.7-2.1-4.6-2.3-6.7-0.7
								C127.8,183,127.6,183.1,127.5,183.3z"/>
						</g>
					</g>
				</g>
			</g>
			<g id="XMLID_817_">
				<path id="XMLID_818_" class="st3" d="M179.9,186c0,0,8.9-48.8,12-78c2.5-23,26.7-34.4,53.2-32.9c26.6,1.5,39,15.3,40.2,36.4
					c1.2,21.1,10,78.6,10,78.6s-20.2,0.7-56.9-0.1C202,189.2,179.9,186,179.9,186z"/>
			</g>
			<g id="XMLID_815_">
				<path id="XMLID_816_" class="st3" d="M220.9,87.7c-6.8-5-17.1-2.6-22.3,4l-44.5,56.4c0,0-0.1,0.1-0.1,0.1L119.6,178l9.1,17.1
					l41.8-27.9c0.5-0.3,1-0.8,1.4-1.2l0.6-0.7l49.8-52.7c0.3-0.3,1.2-1.9,1.4-2.2C229.1,103.5,227.8,92.9,220.9,87.7z"/>
			</g>
			<g id="XMLID_812_">
				<g id="XMLID_813_">
					<path id="XMLID_814_" class="st2" d="M238.9,86.3c-4.4,0-8-3.6-8-8V64c0-4.4,3.6-8,8-8s8,3.6,8,8v14.3
						C246.9,82.7,243.3,86.3,238.9,86.3z"/>
				</g>
			</g>
			<g id="XMLID_809_">
				<g id="XMLID_810_">
					<path id="XMLID_811_" class="st4" d="M230.9,78.3V64c0-4.4,3.6-8,8-8s8,3.6,8,8l0,0l-5.3,9.1L230.9,78.3z"/>
				</g>
			</g>
			<g id="XMLID_806_">
				<g id="XMLID_807_">
					<path id="XMLID_808_" class="st2" d="M234.3,75.1c-4.4-0.2-9.2-2.7-11.8-6.2c-2.4-3.3-1.9-7.4-1.1-11.1c0.8-3.7,1.8-7.9,4.3-11
						c2.5-3.1,6.4-4.8,10.4-4.6c6.9,0.4,12.2,6.3,11.8,13.2l-0.4,8C247.1,70.2,241.2,75.5,234.3,75.1z"/>
				</g>
			</g>
			<g id="XMLID_803_">
				<g id="XMLID_804_">
					<path id="XMLID_805_" class="st2" d="M245,62.3c0.7,0.3,1.4,0.2,2.1,0.3c0.3,0,0.5,0.1,0.7,0.2c0,0,1.6,1,0.8-0.3
						c0,0-1.4,0.1-1.6,0.1c-0.4,0-0.8,0-1.2-0.1c-0.2,0-0.3,0-0.4-0.1c-0.5-0.2-0.6-0.2-0.2,0.3c-0.2-1.1-1.5-1.7-2.5-1.4
						c-1.2,0.3-1.6,1.4-1.4,2.5c0.3,2.4,3.1,2.7,5.1,2.8c1.7,0.1,3.9,0,5.2-1.3c1.5-1.5,1.1-3.8-0.4-5.1c-0.6-0.6-1.5-1.1-2.3-1.4
						c-0.9-0.3-1.8-0.2-2.7-0.5C243.7,57.5,242.6,61.5,245,62.3L245,62.3z"/>
				</g>
			</g>
			<g id="XMLID_801_">
				<path id="XMLID_802_" class="st4" d="M224.7,51.1c5.5,0.4,11-0.2,16.5-0.2c-0.2,2-0.9,4.5,0.4,6c1.3,1.5,4.5,1.8,6.5,1.9
					c0,0,4.6-18.5-9.8-19.2c-17.7-1-18.3,11-18.3,11L224.7,51.1z"/>
			</g>
			<g id="XMLID_771_">
				<g id="XMLID_798_">
					<g id="XMLID_799_">
						<path id="XMLID_800_" class="st4" d="M229.6,63c-0.1-0.1-0.1-0.1-0.2-0.2c0,0-0.1,0-0.1,0l-0.1,0c-0.1,0-0.1,0-0.2,0
							c0,0-0.1,0-0.1,0c-0.1,0-0.2,0-0.4,0l-0.2,0c-0.1,0-0.1,0-0.2,0c0,0-0.1,0-0.1,0c-0.1,0-0.2-0.1-0.3-0.1
							c-0.1,0-0.1-0.1-0.2-0.1c0,0-0.1,0-0.1-0.1c0,0-0.1,0-0.1-0.1l0,0c0-0.1,0-0.2-0.1-0.2c0-0.1,0-0.2-0.1-0.3c0-0.1,0-0.2,0-0.3
							v0c0,0,0,0,0,0l0,0c0,0,0-0.1,0-0.1l0.1-0.2v-0.1l0-0.1l0-0.2c0,0,0-0.1,0-0.2c0,0,0,0,0-0.1c0,0,0,0,0-0.1
							c0-0.1,0.1-0.2,0.1-0.4c0-0.1,0-0.2,0.1-0.3l0-0.2c0,0,0-0.1,0-0.1l0-0.1c0-0.1,0.1-0.2,0.1-0.3c0-0.1,0-0.2,0.1-0.3
							c0-0.1,0.1-0.2,0.1-0.4c0,0,0,0,0-0.1c0,0,0-0.1,0-0.1l0.1-0.2c0-0.2,0-0.3,0.1-0.4c0-0.1,0.1-0.2,0.1-0.2c0,0,0,0,0-0.1
							c0,0-0.1-0.1-0.1-0.1c-0.1,0-0.1-0.1-0.2-0.1s-0.2,0-0.2,0c-0.1,0-0.1,0.1-0.1,0.1c0,0,0,0,0,0.1c0,0,0,0.1,0,0.2
							c0,0.1,0,0.1,0,0.2c-0.1,0.2-0.1,0.3-0.1,0.4c0,0-0.1,0.1-0.1,0.2c0,0.1,0,0.1,0,0.2v0v0c-0.1,0-0.1,0.2-0.1,0.2
							c0,0.1,0,0.2-0.1,0.2c0,0.2-0.1,0.3-0.1,0.5c0,0,0,0.1,0,0.1c0,0.1-0.1,0.2-0.1,0.3c0,0,0,0.1,0,0.1s0,0.1,0,0.1
							c0,0,0,0.1-0.1,0.2c-0.1,0.3-0.1,0.5-0.1,0.7c0,0,0,0.1,0,0.1c0,0,0,0.1,0,0.1c0,0,0,0.1,0,0.1c0,0,0,0.1,0,0.2l0,0.2
							c0,0,0,0,0,0c0,0,0,0.1,0,0.2c0,0.1,0,0.2,0,0.3c0,0.2,0.1,0.4,0.2,0.6c0,0,0.1,0.1,0.1,0.1c0.1,0.1,0.1,0.2,0.2,0.3
							c0.1,0,0.1,0.1,0.1,0.1c0.1,0,0.1,0,0.1,0c0.1,0,0.1,0.1,0.2,0.1c0.3,0.1,0.6,0.1,0.9,0.1c0.1,0,0.1,0,0.1,0s0.1,0,0.1,0
							c0.1,0,0.1,0,0.1,0s0.1,0,0.2,0l0.2,0c0.1,0,0.1,0,0.1,0c0,0,0.1,0,0.1,0c0,0,0,0,0.1-0.1C229.6,63.2,229.6,63.1,229.6,63
							C229.6,63,229.6,63,229.6,63z"/>
					</g>
				</g>
				<g id="XMLID_795_">
					<g id="XMLID_796_">
						<path id="XMLID_797_" class="st4" d="M249.9,62.2c0.1-0.1,0.1-0.1,0.1-0.2c0,0,0,0,0,0l-0.1,0c0,0,0-0.1-0.1-0.1
							c0,0-0.1,0-0.1,0c-0.1,0-0.1-0.1-0.2-0.2l-0.1,0c0,0-0.1,0-0.1,0c0,0,0,0-0.1,0c-0.1,0-0.1-0.1-0.2,0c-0.1,0-0.1,0-0.2,0
							l-0.1,0c0,0-0.1,0-0.1,0h-0.1c-0.1,0-0.1,0-0.2,0c-0.1,0-0.1,0-0.2,0s-0.2,0-0.2,0h0h0l0,0c0,0-0.1,0-0.1,0l-0.1,0
							c0,0,0,0-0.1,0c0,0-0.1,0-0.1,0l-0.1,0c0,0-0.1,0-0.1,0c0,0,0,0-0.1,0c0,0,0,0-0.1,0c-0.1,0-0.2,0-0.2,0.1
							c-0.1,0-0.1,0.1-0.1,0.1l-0.1,0c0,0,0,0-0.1,0l0,0c-0.1,0-0.1,0-0.2,0.1c-0.1,0-0.1,0.1-0.1,0.2c-0.1,0-0.1,0.1-0.1,0.2
							c0,0,0,0,0,0c0,0,0,0,0,0l-0.1,0.1c-0.1,0.1,0,0.2-0.1,0.3c0,0-0.1,0.1-0.1,0.1c0,0,0,0,0,0c0,0,0.1,0,0.1,0.1
							c0.1,0,0.1,0.1,0.2,0.1s0.2,0,0.2,0s0.1,0,0.1,0l0,0c0,0,0,0,0,0c0,0,0,0,0,0c0.1,0,0.1-0.1,0.1-0.2c0,0,0.1,0,0.1,0
							c0,0,0,0,0-0.1l0,0l0,0c0.1,0,0.1,0,0.1,0c0,0,0.1,0,0.1-0.1c0.1,0,0.1-0.1,0.2-0.2l0,0c0,0,0.1,0,0.1,0c0,0,0,0,0.1,0
							c0,0,0,0,0,0c0,0,0.1,0,0.1,0c0.1,0,0.2-0.1,0.3-0.1c0,0,0,0,0.1,0l0,0c0,0,0,0,0.1,0c0,0,0.1,0,0.1,0h0.1h0c0,0,0,0,0.1,0
							c0,0,0.1,0,0.1,0c0.1,0,0.1,0,0.2,0c0,0,0,0,0.1,0c0,0,0.1,0,0.1,0c0,0,0,0,0.1,0c0,0,0,0,0.1,0c0,0,0.1,0,0.1,0
							c0.1,0,0.2,0.1,0.3,0.2c0,0,0,0,0.1,0c0,0,0,0,0.1,0c0,0,0,0,0,0c0,0,0,0,0.1,0l0.1,0c0,0,0,0,0.1,0c0,0,0,0,0.1,0
							c0,0,0.1,0,0.1,0c0.1,0,0.1,0,0.2-0.1C249.9,62.3,249.9,62.3,249.9,62.2z"/>
					</g>
				</g>
				<g id="XMLID_792_">
					<g id="XMLID_793_">
						<path id="XMLID_794_" class="st4" d="M249.3,63.9c0.1,0,0.1,0,0.2-0.1c0,0,0,0,0,0l0-0.1c0,0,0-0.1,0-0.1c0,0,0,0,0,0
							c0,0,0-0.1-0.1-0.2l0-0.1c0,0-0.1,0-0.1-0.1c0,0,0,0,0,0c-0.1,0-0.1-0.1-0.1-0.2c-0.1,0-0.1-0.1-0.1-0.1l-0.1,0c0,0,0,0-0.1,0
							l0,0c0,0-0.1-0.1-0.1-0.1c-0.1,0-0.1-0.1-0.2-0.1s-0.1-0.1-0.2-0.1h0l0,0l0,0c0,0,0,0-0.1,0l-0.1,0c0,0,0,0-0.1,0
							c0,0-0.1,0-0.1,0l-0.1,0c0,0-0.1,0-0.1,0s0,0,0,0l0,0c-0.1,0-0.1,0-0.2,0c-0.1,0-0.1,0-0.2,0h-0.1c0,0-0.1,0-0.1,0h-0.1
							c-0.1,0-0.1,0-0.2,0c-0.1,0-0.1,0-0.2,0c-0.1,0-0.1,0-0.2,0.1c0,0,0,0-0.1,0c0,0,0,0-0.1,0l-0.1,0c-0.1,0-0.1,0.1-0.2,0.1
							c-0.1,0-0.1,0-0.1,0.1c0,0,0,0,0,0c0,0,0,0,0,0.1c0,0,0.1,0.1,0.1,0.2c0.1,0,0.1,0.1,0.2,0.1c0.1,0,0.1,0,0.1,0l0,0
							c0,0,0,0,0.1,0c0,0,0,0,0,0c0.1,0,0.1,0,0.1-0.1c0,0,0.1,0,0.1,0c0,0,0,0,0.1,0l0,0l0,0c0,0,0.1,0,0.1,0s0.1,0,0.1,0
							c0.1,0,0.1,0,0.2,0h0c0,0,0.1,0,0.1,0s0,0,0.1,0c0,0,0,0,0,0c0,0,0.1,0,0.1,0c0.1,0,0.2,0,0.2,0c0,0,0,0,0,0h0c0,0,0,0,0,0
							c0,0,0,0,0,0l0.1,0h0l0,0c0,0,0.1,0,0.1,0c0.1,0,0.1,0.1,0.1,0.1l0,0c0,0,0,0,0.1,0.1l0,0c0,0,0,0,0.1,0c0,0,0,0,0,0
							c0.1,0.1,0.1,0.1,0.1,0.2c0,0,0,0,0,0l0,0c0,0,0,0,0,0c0,0,0,0,0,0v0c0,0,0,0,0,0s0,0,0,0s0.1,0,0.1,0c0.1,0,0.1,0,0.2,0
							C249.2,64,249.3,64,249.3,63.9z"/>
					</g>
				</g>
				<g id="XMLID_789_">
					<g id="XMLID_790_">
						<path id="XMLID_791_" class="st4" d="M231.4,64.5c-0.1,0-0.2,0-0.2,0s0,0,0,0l0,0.1c0,0-0.1,0-0.1,0c0,0,0,0,0,0.1
							c0,0-0.1,0.1-0.1,0.1l-0.1,0c0,0,0,0.1,0,0.1c0,0-0.1,0-0.1,0c0,0.1-0.1,0.1-0.1,0.1c0,0-0.1,0.1-0.1,0.1l-0.1,0
							c0,0,0,0,0,0.1l0,0c0,0-0.1,0-0.1,0.1c-0.1,0-0.1,0-0.1,0.1c-0.1,0-0.1,0.1-0.1,0.1l0,0h0l0,0c0,0,0,0-0.1,0l-0.1,0l0,0
							c0,0,0,0-0.1,0l-0.1,0c0,0,0,0-0.1,0c0,0,0,0,0,0h0c-0.1,0-0.1,0-0.2,0.1c-0.1,0-0.1,0-0.1,0h-0.1c0,0,0,0-0.1,0h0
							c-0.1,0-0.1,0-0.1,0s-0.1,0-0.2,0c-0.1,0-0.1,0-0.2,0c0,0,0,0,0,0c0,0,0,0-0.1,0l-0.1,0c-0.1,0-0.1,0-0.2,0
							c0,0-0.1-0.1-0.1-0.1s0,0-0.1,0c0,0-0.1,0-0.1,0.1c-0.1,0-0.1,0.1-0.1,0.2s-0.1,0.1-0.1,0.2c0,0,0,0.1,0,0.1c0,0,0,0,0.1,0
							c0,0,0.1,0,0.1,0.1c0,0,0.1,0,0.1,0c0.1,0.1,0.2,0.1,0.2,0.1c0,0,0.1,0,0.1,0s0.1,0,0.1,0l0,0l0,0c0,0.1,0.1,0,0.1,0.1
							c0.1,0,0.1,0,0.1,0c0.1,0,0.2,0,0.3,0c0,0,0,0,0.1,0c0.1,0,0.1,0,0.2,0c0,0,0.1,0,0.1,0s0,0,0.1,0c0,0,0.1,0,0.1,0
							c0.1,0,0.3-0.1,0.4-0.1c0,0,0.1,0,0.1,0c0,0,0,0,0.1,0c0,0,0.1,0,0.1,0s0.1,0,0.1,0l0.1,0c0,0,0,0,0,0c0,0,0.1,0,0.1,0
							c0.1,0,0.1-0.1,0.1-0.1c0.1,0,0.2-0.1,0.2-0.2c0,0,0,0,0.1,0c0.1,0,0.1-0.1,0.1-0.1c0,0,0.1,0,0.1,0c0,0,0-0.1,0-0.1
							c0,0,0.1,0,0.1-0.1c0.1-0.1,0.2-0.2,0.3-0.3c0,0,0,0,0-0.1c0,0,0,0,0,0c0,0,0,0,0.1-0.1c0,0,0,0,0.1-0.1l0-0.1
							c0,0,0-0.1,0-0.1s0,0,0,0c0,0,0-0.1-0.1-0.1c-0.1,0-0.1-0.1-0.2-0.1C231.5,64.5,231.5,64.5,231.4,64.5z"/>
					</g>
				</g>
				<g id="XMLID_787_">
					<path id="XMLID_788_" class="st4" d="M232.6,59.7C232.6,59.7,232.6,59.7,232.6,59.7c-0.4,0-0.7-0.3-0.7-0.7l0-0.3
						c0-0.4,0.3-0.7,0.7-0.7c0.4,0,0.7,0.3,0.6,0.7l0,0.3C233.3,59.4,233,59.7,232.6,59.7z"/>
				</g>
				<g id="XMLID_785_">
					<path id="XMLID_786_" class="st4" d="M225.1,59.3C225.1,59.3,225.1,59.3,225.1,59.3c-0.4,0-0.7-0.3-0.7-0.7l0-0.3
						c0-0.4,0.3-0.7,0.7-0.7c0.4,0,0.7,0.3,0.7,0.7l0,0.3C225.8,59,225.5,59.3,225.1,59.3z"/>
				</g>
				<g id="XMLID_779_">
					<g id="XMLID_780_">
						<path id="XMLID_782_" class="st4" d="M234.5,56.7c0.1-0.1,0.1-0.1,0.1-0.2c0,0,0,0,0,0l-0.1,0c0,0,0,0-0.1-0.1c0,0,0,0-0.1,0
							c-0.1,0-0.1-0.1-0.1-0.1l-0.1,0c0,0-0.1,0-0.1,0c0,0,0,0-0.1,0c-0.1,0-0.1-0.1-0.2,0c-0.1,0-0.1,0-0.1,0l-0.1,0c0,0,0,0-0.1,0
							l0,0c0,0-0.1,0-0.1-0.1c-0.1,0-0.1,0-0.2,0s-0.1,0-0.2,0l0,0h0l0,0c0,0,0,0-0.1,0l-0.1,0h0c0,0,0,0-0.1,0l-0.1,0
							c0,0-0.1,0-0.1,0s0,0,0,0s0,0,0,0c-0.1,0-0.1,0-0.2,0c-0.1,0-0.1,0-0.1,0h-0.1c0,0,0,0-0.1,0h0c-0.1,0-0.1,0-0.1,0
							s-0.1,0-0.2,0s-0.1,0-0.2,0c0,0,0,0-0.1,0c0,0,0,0-0.1,0l-0.1,0c-0.1,0-0.1,0.1-0.2,0.1c-0.1,0-0.1,0-0.1,0c0,0,0,0,0,0
							c0,0,0,0,0,0.1c0,0,0,0.1,0.1,0.2c0,0.1,0.1,0.1,0.1,0.2c0,0,0.1,0.1,0.1,0.1h0c0,0,0,0,0.1,0c0,0,0,0,0.1,0
							c0.1,0,0.1,0,0.2,0c0,0,0.1,0,0.1,0c0,0,0.1,0,0.1,0l0,0l0,0c0,0,0.1,0,0.1,0c0,0,0.1,0,0.1,0c0.1,0,0.1,0,0.2,0h0
							c0,0,0.1,0,0.1,0c0,0,0,0,0.1,0c0,0,0,0,0.1,0c0,0,0.1,0,0.1,0c0.1,0,0.2,0,0.3,0c0,0,0,0,0.1,0h0c0,0,0,0,0.1,0
							c0,0,0,0,0.1,0h0.1h0c0,0,0,0,0.1,0c0,0,0.1,0,0.1,0c0.1,0,0.1,0,0.2,0c0,0,0,0,0,0c0,0,0.1,0,0.1,0c0,0,0,0,0.1,0
							c0,0,0,0,0.1,0c0,0,0,0,0.1,0c0.1,0,0.2,0.1,0.2,0.1l0,0h0l0,0c0,0,0,0,0,0l0.1,0c0,0,0,0,0.1,0c0,0,0,0,0.1,0
							c0,0,0.1,0,0.1,0c0.1,0,0.1-0.1,0.1-0.1C234.4,56.7,234.4,56.7,234.5,56.7z"/>
					</g>
				</g>
				<g id="XMLID_772_">
					<g id="XMLID_776_">
						<path id="XMLID_778_" class="st4" d="M223.8,56.3c0.1,0.1,0.1,0.1,0.2,0.1c0,0,0,0,0.1,0l0.1,0c0,0,0.1,0,0.1,0l0,0
							c0,0,0.1,0,0.1,0l0.1,0c0,0,0,0,0.1,0c0,0,0,0,0.1,0c0,0,0.1,0,0.1,0c0,0,0.1,0,0.1,0l0.1,0c0,0,0,0,0,0h0c0,0,0.1,0,0.1,0
							c0.1,0,0.1,0,0.1,0c0.1,0,0.1,0,0.1,0l0,0h0l0,0c0,0,0,0,0.1,0h0.1h0c0,0,0,0,0.1,0h0.1c0,0,0,0,0.1,0h0c0,0,0,0,0,0
							c0.1,0,0.1,0,0.1,0c0,0,0.1,0,0.1,0h0.1c0,0,0,0,0.1,0h0c0,0,0.1,0,0.1,0s0.1,0,0.1,0c0.1,0,0.1,0,0.1,0l0,0c0,0,0,0,0,0
							l0.1,0c0.1,0,0.1,0,0.2,0c0,0,0.1,0,0.1,0h0c0,0,0.1,0,0.1,0c0.1,0,0.1-0.1,0.1-0.2c0.1-0.1,0.1-0.1,0.1-0.2c0,0,0-0.1,0-0.1
							c0,0,0,0,0,0c0,0-0.1,0-0.1,0c0,0-0.1,0-0.1,0c-0.1,0-0.1,0-0.2-0.1c0,0,0,0-0.1,0c0,0-0.1,0-0.1,0l0,0l0,0c0,0-0.1,0-0.1,0
							c0,0-0.1,0-0.1,0c-0.1,0-0.2,0-0.2,0c0,0,0,0-0.1,0c0,0-0.1,0-0.1,0c0,0,0,0-0.1,0c0,0,0,0-0.1,0c0,0-0.1,0-0.1,0
							c-0.1,0-0.2,0-0.3,0c0,0,0,0-0.1,0s0,0-0.1,0s0,0-0.1,0s-0.1,0-0.1,0h-0.1h0c0,0-0.1,0-0.1,0c0,0-0.1,0-0.1,0
							c-0.1,0-0.2,0-0.2,0c0,0,0,0-0.1,0c0,0-0.1,0-0.1,0c0,0-0.1,0-0.1,0c0,0,0,0-0.1,0s-0.1,0-0.1,0c-0.1,0-0.2,0.1-0.3,0.1
							c0,0,0,0-0.1,0l0,0c0,0,0,0-0.1,0s-0.1,0-0.1,0l-0.1,0c0,0,0,0,0,0c0,0,0,0,0,0c0,0,0,0,0,0.1c0,0,0.1,0.1,0.1,0.2
							C223.8,56.2,223.8,56.2,223.8,56.3z"/>
					</g>
				</g>
			</g>
			<g>
				<g id="XMLID_747_">
					<g id="XMLID_748_">
						<path id="XMLID_749_" class="st5" d="M273.9,149.5c-0.2,0.1-0.2,0.2-0.2,0.5c0,0.1,0,0.2,0,0.3l0.1,0.5c0,0.2,0,0.4,0,0.6
							c0,0.1,0,0.3,0,0.4c0,0.4,0,0.8,0,1.2l0,0.5c0,0.2,0,0.4,0,0.5c0,0.1,0,0.3,0,0.4c0,0.4-0.1,0.8-0.1,1.1
							c0,0.3-0.1,0.6-0.2,0.9l-0.1,0.5l-0.1,0.4l-0.1,0.2c-0.1,0.3-0.2,0.6-0.3,0.9c-0.1,0.3-0.2,0.6-0.3,1c-0.1,0.3-0.3,0.7-0.4,1
							l-0.1,0.1l-0.1,0.1l0,0c-0.1,0.1-0.1,0.2-0.2,0.3l-0.3,0.6l-0.1,0.2l-0.2,0.3l-0.3,0.4c0,0.1-0.1,0.3-0.2,0.4l-0.2,0.2
							c-0.1,0.1-0.1,0.1-0.1,0.2c-0.2,0.3-0.5,0.6-0.6,0.9c-0.2,0.2-0.4,0.5-0.6,0.7l-0.3,0.4c-0.1,0.1-0.2,0.2-0.2,0.3l-0.2,0.2
							c-0.2,0.2-0.5,0.4-0.7,0.6c-0.2,0.2-0.5,0.4-0.8,0.7c-0.3,0.2-0.6,0.5-0.9,0.7c-0.1,0.1-0.2,0.1-0.2,0.1
							c-0.1,0.1-0.2,0.1-0.3,0.2c-0.2,0.1-0.4,0.3-0.6,0.4c-0.4,0.2-0.8,0.5-1.2,0.7c-0.3,0.1-0.5,0.2-0.7,0.3
							c-0.1,0.1-0.2,0.1-0.2,0.1c-0.1,0.1-0.1,0.2-0.2,0.2c-0.1,0.2-0.1,0.3-0.1,0.4c0.1,0.1,0.2,0.2,0.4,0.2c0.1,0.1,0.3,0,0.5-0.1
							c0.1,0,0.2-0.1,0.3-0.1c0.2-0.1,0.3-0.1,0.5-0.2c0.2-0.1,0.3-0.2,0.4-0.2c0.4-0.2,0.9-0.5,1.3-0.7c0.2-0.1,0.3-0.2,0.5-0.3
							c0.2-0.1,0.3-0.2,0.5-0.4c0,0,0,0,0.1,0c0,0,0,0,0,0c0.2-0.1,0.4-0.3,0.6-0.4l0.6-0.5c0.4-0.4,0.8-0.8,1.2-1.2
							c0.1-0.1,0.2-0.2,0.2-0.2c0.2-0.2,0.4-0.4,0.6-0.6c0.1-0.1,0.2-0.2,0.3-0.3c0.1-0.1,0.1-0.2,0.2-0.3l0.4-0.5
							c0.5-0.6,0.9-1.3,1.3-2c0.1-0.1,0.2-0.2,0.2-0.4c0.1-0.1,0.1-0.2,0.1-0.3c0.1-0.1,0.1-0.2,0.2-0.3c0.1-0.2,0.2-0.3,0.2-0.4
							c0.1-0.2,0.2-0.3,0.2-0.4c0-0.1,0-0.1,0-0.2c0.1-0.2,0.1-0.3,0.2-0.4l0.3-0.7c0.2-0.5,0.3-1,0.5-1.6l0.1-0.3
							c0.1-0.3,0.1-0.5,0.2-0.8c0-0.1,0.1-0.3,0.1-0.4c0-0.1,0-0.2,0-0.4l0.1-0.6c0.1-0.8,0.1-1.6,0.2-2.4c0-0.1,0-0.3,0-0.4
							c0-0.1,0-0.2-0.1-0.3c0-0.1,0-0.3,0-0.4c0-0.2,0-0.3,0-0.5l-0.1-0.5c0-0.2-0.1-0.3-0.1-0.4c0-0.1,0-0.3-0.1-0.4
							c0-0.1-0.1-0.1-0.2-0.2c-0.1-0.1-0.2-0.1-0.4-0.1C274,149.4,273.9,149.4,273.9,149.5z"/>
					</g>
				</g>
				<g id="XMLID_744_">
					<g id="XMLID_745_">
						<path id="XMLID_746_" class="st5" d="M290.5,204.8c-0.1-0.2-0.2-0.2-0.5-0.2c-0.1,0-0.2,0-0.3,0l-0.4,0.1c-0.2,0-0.4,0-0.5,0
							c-0.1,0-0.2,0-0.4,0c-0.4,0-0.8,0-1.2,0l-0.5,0c-0.2,0-0.4,0-0.5,0c-0.1,0-0.2-0.1-0.4-0.1c-0.4,0-0.7-0.1-1.1-0.1
							c-0.3,0-0.6-0.1-0.9-0.2l-0.4-0.1c-0.1,0-0.2-0.1-0.4-0.1l-0.2-0.1c-0.3-0.1-0.5-0.2-0.8-0.3c-0.3-0.1-0.6-0.3-0.9-0.4
							c-0.3-0.2-0.6-0.3-1-0.5l-0.1-0.1l-0.1-0.1l0,0c-0.1-0.1-0.2-0.1-0.3-0.2l-0.6-0.4l-0.2-0.1l-0.3-0.2
							c-0.1-0.1-0.3-0.2-0.4-0.3c-0.1-0.1-0.2-0.2-0.4-0.3l-0.2-0.2c0-0.1-0.1-0.1-0.2-0.2c-0.3-0.2-0.5-0.5-0.8-0.7
							c-0.2-0.2-0.4-0.4-0.6-0.6l-0.3-0.4c-0.1-0.1-0.2-0.2-0.2-0.3l-0.1-0.2c-0.2-0.2-0.3-0.5-0.5-0.8c-0.2-0.3-0.4-0.6-0.5-0.9
							c-0.2-0.3-0.3-0.6-0.5-1c0-0.1,0-0.2-0.1-0.2c-0.1-0.1-0.1-0.2-0.1-0.3c-0.1-0.2-0.2-0.4-0.2-0.6c-0.2-0.4-0.4-0.8-0.4-1.2
							c0-0.3-0.1-0.5-0.2-0.7c0-0.1,0-0.2-0.1-0.3c-0.1-0.1-0.1-0.2-0.2-0.2c-0.1-0.1-0.3-0.2-0.4-0.2c-0.2,0.1-0.2,0.2-0.3,0.3
							c-0.1,0.1-0.1,0.3-0.1,0.5c0,0.1,0,0.2,0.1,0.3c0,0.2,0.1,0.3,0.1,0.5c0,0.2,0.1,0.3,0.2,0.5c0.1,0.5,0.3,0.9,0.5,1.4
							c0.1,0.2,0.1,0.3,0.2,0.5c0.1,0.2,0.2,0.4,0.3,0.5l0,0.1c0,0,0,0.1,0,0.1c0,0.2,0.2,0.4,0.3,0.6c0.1,0.2,0.2,0.5,0.4,0.7
							c0.3,0.5,0.6,0.9,0.9,1.4c0,0.1,0.1,0.2,0.2,0.3c0.2,0.2,0.3,0.4,0.5,0.6c0.1,0.1,0.2,0.2,0.3,0.3c0.1,0.1,0.2,0.1,0.3,0.2
							l0.4,0.4c0.6,0.5,1.2,1,1.8,1.5c0.1,0.1,0.2,0.2,0.3,0.2c0.1,0.1,0.2,0.1,0.3,0.2c0.1,0.1,0.2,0.2,0.3,0.2
							c0.2,0.1,0.3,0.2,0.4,0.2l0.4,0.2c0.1,0,0.1,0.1,0.2,0.1c0.1,0.1,0.3,0.1,0.4,0.2l0.7,0.3c0.5,0.2,1,0.4,1.5,0.5
							c0.1,0,0.2,0.1,0.3,0.1c0.3,0.1,0.5,0.2,0.8,0.2c0.1,0,0.3,0.1,0.4,0.1c0.1,0,0.2,0,0.4,0c0.2,0.1,0.4,0.1,0.6,0.1
							c0.8,0.1,1.6,0.2,2.4,0.2c0.1,0,0.3,0,0.4,0c0.1,0,0.2,0,0.3,0c0.1,0,0.3,0,0.4,0c0.2,0,0.3,0,0.5,0l0.5-0.1
							c0.2,0,0.3-0.1,0.4-0.1c0.1,0,0.3,0,0.4-0.1c0.1,0,0.1-0.1,0.2-0.2c0.1-0.1,0.1-0.2,0.1-0.4
							C290.6,204.9,290.5,204.8,290.5,204.8z"/>
					</g>
				</g>
				<g id="XMLID_739_">
					<g id="XMLID_741_">
						<path id="XMLID_743_" class="st5" d="M240.7,212.8c-0.1-0.2-0.2-0.3-0.4-0.3c-0.1,0-0.2,0-0.3,0l-0.5,0
							c-0.2,0-0.4-0.1-0.6-0.1c-0.1,0-0.3,0-0.4,0c-0.4-0.1-0.8-0.2-1.2-0.3c-0.2-0.1-0.3-0.1-0.5-0.2c-0.2-0.1-0.3-0.1-0.5-0.2
							c-0.1-0.1-0.2-0.2-0.3-0.2c-0.3-0.2-0.6-0.5-0.8-0.7c-0.2-0.2-0.4-0.5-0.5-0.7c-0.1-0.1-0.1-0.3-0.2-0.4
							c0-0.1-0.1-0.2-0.1-0.4l-0.1-0.2c-0.1-0.3-0.1-0.6-0.1-0.9c0-0.4,0-0.7,0-1.1c0-0.4,0-0.8,0.1-1.2c0,0,0-0.1,0-0.1l0-0.1v-0.1
							c0-0.1,0-0.3,0-0.4l0.1-0.8v-0.3l0-0.4l0.1-0.6c0-0.2,0-0.3,0-0.5l0-0.3c0-0.1,0-0.2,0-0.2c0-0.4,0.1-0.9,0.1-1.2
							c0-0.4,0-0.7,0-1l0-0.5c0-0.1,0-0.3,0-0.4l0-0.3c0-0.3,0.1-0.7,0.1-1c0-0.4,0-0.8,0.1-1.1c0-0.4,0.1-0.8,0.1-1.2
							c0-0.1,0-0.2,0-0.3c0-0.1,0-0.3,0-0.4l0.1-0.8c0-0.5,0-1,0.1-1.5c0.1-0.3,0.1-0.5,0.1-0.8c0-0.1,0-0.2,0-0.3
							c0-0.1-0.1-0.2-0.1-0.3c-0.1-0.2-0.2-0.3-0.4-0.3c-0.2,0-0.3,0.1-0.4,0.2c-0.1,0.1-0.2,0.3-0.2,0.5c0,0.1,0,0.2,0,0.3
							c0,0.2,0,0.4-0.1,0.5c0,0.2,0,0.3,0,0.5c-0.1,0.5-0.1,1-0.1,1.5c0,0.2-0.1,0.4-0.1,0.5c0,0.2,0,0.4,0,0.6v0.1c0,0,0,0.1,0,0.1
							c-0.1,0.2-0.1,0.5-0.1,0.7l-0.1,0.8c0,0.6-0.1,1.1-0.1,1.7c0,0.1,0,0.2,0,0.3c0,0.3-0.1,0.6-0.1,0.9c0,0.1,0,0.3,0,0.4
							s0,0.2,0,0.4l-0.1,0.6c-0.1,0.9-0.1,1.7-0.2,2.5c0,0.1,0,0.3,0,0.4c0,0.1,0,0.2,0,0.3c0,0.1,0,0.3-0.1,0.4
							c0,0.2,0,0.3-0.1,0.5l0,0.5c0,0.1,0,0.1,0,0.2c0,0.2,0,0.3,0,0.5c0,0.3,0,0.6,0,0.9c0,0.6,0.1,1.2,0.2,1.8
							c0,0.1,0.1,0.2,0.1,0.4c0.1,0.3,0.2,0.6,0.4,0.9c0.1,0.1,0.2,0.3,0.3,0.4c0.1,0.1,0.2,0.2,0.3,0.3c0.2,0.2,0.3,0.4,0.5,0.5
							c0.8,0.6,1.6,0.9,2.5,1.2c0.2,0,0.3,0.1,0.4,0.1c0.1,0,0.3,0,0.4,0c0.2,0,0.3,0.1,0.4,0.1c0.2,0,0.3,0.1,0.5,0.1l0.5,0
							c0.2,0,0.3,0,0.4,0c0.1,0,0.3,0,0.4,0c0.1,0,0.2-0.1,0.2-0.1c0.1-0.1,0.2-0.2,0.2-0.3C240.8,213,240.7,212.9,240.7,212.8z"/>
					</g>
				</g>
				<g id="XMLID_731_">
					<g id="XMLID_734_">
						<path id="XMLID_737_" class="st5" d="M261.3,120.2c-0.2,0-0.3,0-0.5,0.2c-0.1,0.1-0.2,0.2-0.2,0.3c-0.1,0.1-0.2,0.3-0.3,0.4
							c-0.1,0.2-0.3,0.3-0.4,0.5c-0.1,0.1-0.2,0.2-0.2,0.4c-0.3,0.4-0.5,0.7-0.8,1.1c-0.1,0.2-0.2,0.3-0.3,0.5
							c-0.1,0.2-0.2,0.3-0.3,0.5c-0.1,0.1-0.2,0.2-0.3,0.3c-0.2,0.4-0.5,0.7-0.7,1c-0.2,0.3-0.4,0.6-0.6,0.8
							c-0.1,0.2-0.2,0.3-0.3,0.4c-0.1,0.1-0.1,0.2-0.2,0.4c0,0.1-0.1,0.2-0.2,0.2c-0.2,0.3-0.4,0.5-0.6,0.8c-0.2,0.3-0.4,0.7-0.6,1
							c-0.2,0.3-0.5,0.7-0.7,1c0,0-0.1,0.1-0.1,0.1c0,0-0.1,0.1-0.1,0.1l0,0c-0.1,0.1-0.2,0.2-0.2,0.3c-0.2,0.2-0.3,0.4-0.5,0.6
							c-0.1,0.1-0.1,0.2-0.2,0.2c-0.1,0.1-0.2,0.2-0.2,0.3c-0.1,0.2-0.2,0.3-0.3,0.5c-0.1,0.1-0.2,0.3-0.3,0.4
							c-0.1,0.1-0.1,0.1-0.2,0.2c-0.1,0.1-0.1,0.1-0.2,0.2c-0.2,0.4-0.5,0.7-0.7,1c-0.2,0.3-0.4,0.6-0.6,0.9
							c-0.1,0.2-0.2,0.3-0.3,0.4c-0.1,0.1-0.1,0.2-0.2,0.4c-0.1,0.1-0.1,0.2-0.2,0.2c-0.2,0.3-0.4,0.5-0.6,0.8
							c-0.2,0.3-0.4,0.7-0.6,1c-0.2,0.3-0.5,0.7-0.7,1c-0.1,0.1-0.1,0.2-0.2,0.2c-0.1,0.1-0.2,0.2-0.2,0.3c-0.2,0.2-0.3,0.4-0.5,0.6
							c-0.3,0.4-0.5,0.9-0.8,1.3c-0.2,0.2-0.3,0.4-0.5,0.7c-0.1,0.1-0.1,0.2-0.2,0.3c0,0.1-0.1,0.2-0.1,0.3c0,0.2,0.1,0.3,0.2,0.4
							c0.1,0.1,0.3,0,0.4,0s0.3-0.2,0.4-0.3c0.1-0.1,0.1-0.2,0.2-0.3c0.1-0.2,0.2-0.3,0.3-0.4c0.1-0.1,0.2-0.3,0.3-0.4
							c0.3-0.4,0.6-0.9,0.9-1.3c0.1-0.2,0.2-0.3,0.3-0.4c0.1-0.2,0.2-0.4,0.3-0.5c0,0,0-0.1,0-0.1c0,0,0,0,0.1-0.1
							c0.2-0.1,0.3-0.4,0.4-0.6c0.2-0.2,0.3-0.4,0.5-0.7c0.3-0.5,0.7-1,1-1.4c0.1-0.1,0.1-0.2,0.2-0.3c0.2-0.2,0.3-0.5,0.5-0.7
							c0.1-0.1,0.2-0.2,0.3-0.4c0.1-0.1,0.1-0.2,0.2-0.3c0.1-0.2,0.3-0.3,0.4-0.5c0.5-0.7,0.9-1.4,1.4-2.1c0.1-0.1,0.2-0.2,0.2-0.4
							c0.1-0.1,0.1-0.2,0.2-0.3c0.1-0.1,0.2-0.2,0.3-0.3c0.1-0.1,0.2-0.3,0.3-0.4c0.1-0.1,0.2-0.3,0.3-0.4c0.1-0.1,0.1-0.1,0.1-0.2
							c0.1-0.1,0.2-0.3,0.3-0.4c0.2-0.2,0.3-0.4,0.5-0.7c0.3-0.5,0.7-1,1-1.4c0-0.1,0.1-0.2,0.2-0.3c0.2-0.2,0.3-0.5,0.5-0.7
							c0.1-0.1,0.2-0.2,0.3-0.4c0.1-0.1,0.1-0.2,0.2-0.3c0.1-0.2,0.3-0.3,0.4-0.5c0.5-0.7,0.9-1.4,1.4-2.1c0.1-0.1,0.2-0.2,0.2-0.3
							c0-0.1,0.1-0.2,0.2-0.3c0.1-0.1,0.2-0.2,0.3-0.3c0.1-0.1,0.2-0.3,0.3-0.4c0.1-0.1,0.2-0.3,0.3-0.4c0.1-0.1,0.1-0.2,0.2-0.4
							c0-0.1,0.2-0.2,0.2-0.3c0-0.1,0-0.2,0-0.2c0-0.2-0.1-0.3-0.2-0.3C261.5,120.2,261.4,120.2,261.3,120.2z"/>
					</g>
				</g>
				<g id="XMLID_693_">
					<g id="XMLID_702_">
						<path id="XMLID_729_" class="st5" d="M190.4,124.8c-0.2,0.1-0.3,0.2-0.4,0.5c-0.1,0.1-0.1,0.3-0.1,0.4c0,0.2-0.1,0.4-0.1,0.6
							c-0.1,0.2-0.2,0.5-0.2,0.7c0,0.2-0.1,0.3-0.1,0.5c-0.1,0.5-0.2,1-0.3,1.5c-0.1,0.2-0.1,0.4-0.1,0.7c-0.1,0.2-0.1,0.4-0.1,0.7
							c0,0.2-0.1,0.3-0.1,0.5c-0.1,0.5-0.2,1-0.2,1.4c-0.1,0.4-0.1,0.8-0.2,1.2c-0.1,0.2-0.1,0.4-0.1,0.6c0,0.2,0,0.3-0.1,0.5
							c0,0.1-0.1,0.2-0.1,0.3c-0.1,0.4-0.2,0.8-0.3,1.1c-0.1,0.4-0.2,0.9-0.2,1.3c-0.1,0.5-0.2,1-0.3,1.4c0,0.1,0,0.1,0,0.1
							c0,0.1,0,0.1-0.1,0.2c0,0,0,0,0,0.1c0,0.1-0.1,0.3-0.1,0.4c-0.1,0.3-0.1,0.6-0.2,0.9c0,0.1,0,0.2-0.1,0.3
							c0,0.2-0.1,0.3-0.1,0.5c-0.1,0.2-0.1,0.4-0.1,0.7c0,0.2-0.1,0.4-0.1,0.6c0,0.1-0.1,0.2-0.1,0.3c0,0.1-0.1,0.2-0.1,0.3
							c-0.1,0.5-0.2,1-0.2,1.4c-0.1,0.4-0.1,0.8-0.2,1.2c-0.1,0.2-0.1,0.4-0.1,0.6c0,0.2,0,0.3-0.1,0.5c0,0.1-0.1,0.2-0.1,0.3
							c-0.1,0.4-0.2,0.8-0.3,1.1c-0.1,0.4-0.2,0.9-0.2,1.3c-0.1,0.5-0.2,1-0.3,1.4c0,0.1-0.1,0.2-0.1,0.3c0,0.1-0.1,0.3-0.1,0.4
							c-0.1,0.3-0.1,0.6-0.2,0.9c-0.1,0.6-0.1,1.2-0.3,1.7c-0.1,0.3-0.2,0.6-0.2,1c0,0.1-0.1,0.2-0.1,0.4c0,0.1,0.1,0.3,0.1,0.4
							c0.1,0.2,0.2,0.3,0.3,0.3c0.2,0,0.3-0.1,0.4-0.2c0.1-0.1,0.2-0.3,0.3-0.5c0-0.1,0.1-0.2,0.1-0.4c0.1-0.2,0.1-0.4,0.1-0.6
							c0.1-0.2,0.1-0.4,0.1-0.6c0.2-0.6,0.2-1.2,0.3-1.8c0.1-0.2,0.1-0.4,0.2-0.7c0.1-0.3,0.1-0.5,0.1-0.8c0,0,0-0.1,0-0.1
							s0-0.1,0-0.1c0.1-0.2,0.2-0.6,0.2-0.8c0.1-0.3,0.1-0.6,0.2-1c0.1-0.7,0.3-1.4,0.4-2c0-0.1,0.1-0.3,0.1-0.4
							c0.1-0.3,0.2-0.7,0.2-1c0-0.2,0.1-0.3,0.1-0.5c0-0.2,0-0.3,0.1-0.4c0.1-0.3,0.1-0.5,0.2-0.7c0.2-1,0.3-1.9,0.6-2.9
							c0-0.2,0.1-0.3,0.1-0.5c0-0.1,0-0.3,0.1-0.4c0-0.2,0.1-0.3,0.1-0.5c0.1-0.2,0.1-0.4,0.1-0.6c0.1-0.2,0.1-0.4,0.1-0.6
							c0-0.1,0-0.2,0-0.2c0.1-0.2,0.1-0.4,0.1-0.5c0.1-0.3,0.1-0.6,0.2-1c0.1-0.7,0.3-1.3,0.4-2c0-0.1,0.1-0.3,0.1-0.4
							c0.1-0.3,0.2-0.7,0.2-1c0-0.2,0.1-0.3,0.1-0.5c0-0.2,0-0.3,0.1-0.4c0.1-0.3,0.1-0.5,0.2-0.7c0.2-1,0.3-1.9,0.6-2.9
							c0-0.2,0.1-0.3,0.1-0.5c0-0.1,0-0.3,0.1-0.4s0.1-0.3,0.1-0.5c0.1-0.2,0.1-0.4,0.1-0.6s0.1-0.4,0.1-0.6c0-0.2,0-0.3,0.1-0.5
							c0-0.2,0.1-0.3,0.1-0.5c0-0.1-0.1-0.2-0.1-0.3c-0.1-0.2-0.2-0.2-0.3-0.3C190.6,124.7,190.5,124.8,190.4,124.8z"/>
					</g>
				</g>
				<g id="XMLID_686_">
					<g id="XMLID_687_">
						<path id="XMLID_692_" class="st5" d="M250.1,75.9c-0.1,0.2-0.2,0.3-0.2,0.7c0,0.2,0,0.3,0.1,0.5c0.1,0.3,0.1,0.5,0.1,0.8
							c0,0.3,0,0.6,0,0.9c0,0.2,0,0.4,0,0.6c-0.1,0.7-0.2,1.3-0.4,1.9l-0.3,0.8c-0.1,0.3-0.2,0.5-0.3,0.8c-0.1,0.2-0.2,0.3-0.3,0.5
							c-0.3,0.5-0.7,1-1,1.5c-0.3,0.4-0.6,0.8-1,1.1l-0.6,0.5c-0.2,0.1-0.3,0.3-0.5,0.4c-0.1,0.1-0.2,0.2-0.3,0.2
							c-0.4,0.3-0.8,0.5-1.2,0.8c-0.5,0.3-1,0.5-1.5,0.7c-0.6,0.2-1.1,0.4-1.7,0.5c-0.1,0-0.1,0-0.2,0l-0.2,0h-0.1
							c-0.2,0-0.4,0.1-0.5,0.1c-0.4,0-0.8,0.1-1.2,0.1l-0.4,0l-0.6,0c-0.3,0-0.6-0.1-0.8-0.1c-0.2,0-0.5-0.1-0.7-0.1l-0.4-0.1
							c-0.1-0.1-0.2-0.1-0.3-0.1c-0.6-0.1-1.2-0.4-1.7-0.6c-0.5-0.2-0.9-0.4-1.3-0.7c-0.2-0.2-0.4-0.3-0.6-0.5
							c-0.2-0.1-0.3-0.3-0.5-0.4c-0.1-0.1-0.2-0.2-0.3-0.3c-0.3-0.3-0.6-0.8-0.9-1.1c-0.3-0.4-0.6-0.9-0.9-1.4
							c-0.3-0.5-0.5-1.1-0.7-1.7c-0.1-0.2-0.1-0.3-0.1-0.4c-0.1-0.2-0.1-0.4-0.1-0.5c-0.1-0.4-0.2-0.8-0.2-1.1
							c-0.1-0.7-0.2-1.4-0.1-2.2c0.1-0.4,0.2-0.8,0.2-1.2c0-0.2,0.1-0.3,0.1-0.4c0-0.2,0-0.3,0-0.5c0-0.3-0.1-0.4-0.2-0.5
							c-0.2,0-0.3,0.1-0.5,0.3c-0.2,0.1-0.3,0.4-0.4,0.7c0,0.2-0.1,0.3-0.1,0.5c-0.1,0.3-0.1,0.6-0.2,0.8s0,0.5-0.1,0.8
							c-0.1,0.8,0.1,1.6,0.2,2.5c0.1,0.3,0.1,0.6,0.2,0.9c0.1,0.3,0.2,0.7,0.3,1l0.1,0.1c0,0,0,0.1,0,0.1c0.1,0.3,0.3,0.8,0.4,1.1
							c0.2,0.4,0.4,0.8,0.6,1.1c0.5,0.8,1.1,1.5,1.8,2.1l0.4,0.4c0.3,0.3,0.8,0.6,1.1,0.8c0.2,0.1,0.4,0.3,0.6,0.4
							c0.2,0.1,0.4,0.1,0.6,0.2c0.3,0.2,0.6,0.3,0.9,0.4c1.3,0.5,2.6,0.7,4,0.7c0.2,0,0.4,0,0.7,0c0.2,0,0.4,0,0.5,0
							c0.2,0,0.4,0,0.7-0.1c0.3,0,0.5-0.1,0.8-0.1c0.3-0.1,0.5-0.1,0.8-0.2c0.1,0,0.2-0.1,0.3-0.1c0.2-0.1,0.5-0.2,0.7-0.2
							c0.4-0.1,0.8-0.3,1.2-0.5c0.8-0.4,1.6-0.9,2.3-1.5l0.4-0.4c0.4-0.3,0.7-0.6,1-1c0.2-0.2,0.3-0.3,0.5-0.5s0.2-0.3,0.4-0.5
							c0.2-0.3,0.4-0.5,0.6-0.8c0.8-1.1,1.3-2.4,1.6-3.7c0.1-0.2,0.1-0.4,0.1-0.7c0-0.2,0-0.4,0.1-0.5c0-0.2,0.1-0.4,0.1-0.7
							c0-0.3,0-0.5,0-0.8l-0.1-0.8c0-0.3-0.1-0.4-0.1-0.7c0-0.2-0.1-0.4-0.1-0.6c-0.1-0.1-0.1-0.2-0.2-0.3c-0.1-0.2-0.3-0.2-0.4-0.2
							C250.2,75.8,250.2,75.9,250.1,75.9z"/>
					</g>
				</g>
				<g id="XMLID_675_">
					<g id="XMLID_683_">
						<path id="XMLID_684_" class="st5" d="M214.2,203.6c0.1-0.1,0.1-0.2,0-0.4c0-0.1-0.1-0.1-0.1-0.2l-0.2-0.3
							c-0.1-0.1-0.2-0.3-0.3-0.4c-0.1-0.1-0.1-0.1-0.2-0.2c-0.2-0.2-0.4-0.5-0.6-0.7l-0.3-0.3c-0.1-0.1-0.2-0.2-0.3-0.3
							c-0.1-0.1-0.1-0.2-0.2-0.2c-0.2-0.2-0.4-0.5-0.6-0.6c-0.2-0.2-0.3-0.3-0.5-0.5l-0.2-0.3c-0.1-0.1-0.1-0.1-0.2-0.2l-0.1-0.1
							c-0.2-0.2-0.3-0.4-0.4-0.5c-0.2-0.2-0.4-0.4-0.5-0.6c-0.2-0.2-0.4-0.4-0.6-0.6l-0.1-0.1l-0.1-0.1l0,0
							c-0.1-0.1-0.1-0.1-0.2-0.2l-0.4-0.4l-0.1-0.1l-0.2-0.2l-0.3-0.3c-0.1-0.1-0.2-0.2-0.3-0.2l-0.1-0.1c0-0.1-0.1-0.1-0.1-0.1
							c-0.2-0.2-0.4-0.4-0.6-0.6c-0.2-0.2-0.3-0.3-0.5-0.5l-0.2-0.3c-0.1-0.1-0.1-0.1-0.2-0.2l-0.1-0.1c-0.2-0.2-0.3-0.4-0.4-0.5
							c-0.2-0.2-0.3-0.4-0.5-0.6c-0.2-0.2-0.4-0.4-0.6-0.6c-0.1-0.1-0.1-0.1-0.1-0.2c-0.1-0.1-0.1-0.1-0.2-0.2l-0.3-0.4
							c-0.2-0.3-0.5-0.5-0.7-0.8c-0.1-0.2-0.2-0.3-0.3-0.5c-0.1-0.1-0.1-0.1-0.2-0.2c-0.1-0.1-0.2-0.1-0.2-0.1
							c-0.1-0.1-0.3,0-0.4,0.1c-0.1,0.1-0.1,0.2-0.1,0.3c0,0.1,0,0.3,0.1,0.4c0.1,0.1,0.1,0.1,0.1,0.2c0.1,0.1,0.2,0.2,0.2,0.3
							c0.1,0.1,0.2,0.2,0.2,0.3c0.2,0.3,0.5,0.5,0.7,0.8c0.1,0.1,0.2,0.2,0.2,0.3c0.1,0.1,0.2,0.2,0.3,0.3c0,0,0,0,0,0s0,0,0,0.1
							c0.1,0.2,0.2,0.3,0.3,0.4l0.4,0.4c0.3,0.3,0.5,0.6,0.8,0.9c0.1,0.1,0.1,0.1,0.2,0.2c0.1,0.2,0.3,0.3,0.4,0.5
							c0.1,0.1,0.1,0.2,0.2,0.2c0.1,0.1,0.1,0.1,0.2,0.2c0.1,0.1,0.2,0.2,0.3,0.3c0.4,0.4,0.8,0.8,1.2,1.3c0.1,0.1,0.1,0.2,0.2,0.2
							c0.1,0.1,0.1,0.1,0.2,0.2c0.1,0.1,0.1,0.2,0.2,0.2c0.1,0.1,0.2,0.2,0.2,0.3l0.2,0.3c0,0,0.1,0.1,0.1,0.1
							c0.1,0.1,0.2,0.2,0.2,0.2l0.4,0.4c0.3,0.3,0.5,0.6,0.8,0.9c0.1,0.1,0.1,0.1,0.2,0.2c0.1,0.2,0.3,0.3,0.4,0.5
							c0.1,0.1,0.1,0.2,0.2,0.2c0.1,0.1,0.1,0.1,0.2,0.2c0.1,0.1,0.2,0.2,0.3,0.3c0.4,0.4,0.8,0.9,1.1,1.3c0.1,0.1,0.1,0.2,0.2,0.2
							s0.1,0.1,0.2,0.2c0.1,0.1,0.1,0.2,0.2,0.2c0.1,0.1,0.1,0.2,0.2,0.3l0.2,0.3c0.1,0.1,0.1,0.1,0.2,0.2c0.1,0.1,0.1,0.2,0.2,0.2
							c0.1,0,0.1,0,0.2,0c0.1,0,0.2,0,0.3-0.1C214.1,203.7,214.1,203.7,214.2,203.6z"/>
					</g>
				</g>
				<g id="XMLID_626_">
					<g id="XMLID_628_">
						<path id="XMLID_643_" class="st5" d="M140.1,187.9c0.1-0.2,0.1-0.3,0.1-0.5c0-0.1-0.1-0.2-0.1-0.3c-0.1-0.1-0.1-0.2-0.2-0.4
							c-0.1-0.2-0.1-0.3-0.2-0.5c-0.1-0.1-0.1-0.2-0.2-0.3c-0.2-0.3-0.3-0.6-0.5-1c-0.1-0.1-0.2-0.3-0.2-0.4
							c-0.1-0.1-0.2-0.3-0.3-0.4c-0.1-0.1-0.1-0.2-0.2-0.3c-0.2-0.3-0.3-0.6-0.5-0.9c-0.2-0.2-0.3-0.5-0.4-0.7
							c-0.1-0.1-0.1-0.3-0.2-0.4c0-0.1-0.1-0.2-0.2-0.3c0-0.1-0.1-0.1-0.1-0.2c-0.1-0.2-0.2-0.5-0.4-0.8c-0.2-0.3-0.3-0.5-0.5-0.8
							c-0.2-0.3-0.3-0.6-0.5-0.9c0,0,0-0.1-0.1-0.1c0,0,0-0.1-0.1-0.1c0,0,0,0,0,0c-0.1-0.1-0.1-0.2-0.2-0.3
							c-0.1-0.2-0.2-0.4-0.3-0.6c0-0.1-0.1-0.1-0.1-0.2c-0.1-0.1-0.1-0.2-0.2-0.3c-0.1-0.1-0.2-0.3-0.2-0.4
							c-0.1-0.1-0.2-0.2-0.2-0.3c0-0.1,0-0.1-0.1-0.2c0-0.1-0.1-0.1-0.1-0.2c-0.2-0.3-0.3-0.6-0.5-0.9c-0.2-0.2-0.3-0.5-0.4-0.7
							c-0.1-0.1-0.1-0.3-0.2-0.4c-0.1-0.1-0.1-0.2-0.2-0.3c0-0.1-0.1-0.1-0.1-0.2c-0.1-0.2-0.2-0.5-0.4-0.8
							c-0.2-0.3-0.3-0.5-0.5-0.8c-0.2-0.3-0.3-0.6-0.5-0.9c-0.1-0.1-0.1-0.2-0.1-0.2c-0.1-0.1-0.1-0.2-0.2-0.3
							c-0.1-0.2-0.2-0.4-0.3-0.6c-0.2-0.4-0.5-0.7-0.7-1.1c-0.1-0.2-0.2-0.4-0.3-0.6c-0.1-0.1-0.1-0.2-0.2-0.2s-0.2-0.1-0.2-0.2
							c-0.2-0.1-0.3-0.1-0.4,0c-0.1,0.1-0.2,0.2-0.2,0.4c-0.1,0.1,0,0.3,0.1,0.4c0,0.1,0.1,0.2,0.1,0.2c0.1,0.1,0.1,0.3,0.2,0.4
							s0.2,0.2,0.2,0.4c0.2,0.4,0.4,0.7,0.6,1.1c0.1,0.1,0.1,0.3,0.2,0.4c0.1,0.2,0.2,0.3,0.3,0.4c0,0,0,0,0,0.1c0,0,0,0,0,0.1
							c0,0.2,0.2,0.4,0.3,0.5c0.1,0.2,0.2,0.4,0.3,0.6c0.2,0.4,0.5,0.8,0.7,1.2c0,0.1,0.1,0.2,0.1,0.3c0.1,0.2,0.2,0.4,0.3,0.6
							c0,0.1,0.1,0.2,0.2,0.3s0.1,0.2,0.2,0.3c0.1,0.2,0.2,0.3,0.2,0.5c0.3,0.6,0.7,1.2,1,1.8c0.1,0.1,0.1,0.2,0.2,0.3
							c0.1,0.1,0.1,0.2,0.2,0.2c0,0.1,0.1,0.2,0.2,0.3c0.1,0.1,0.1,0.2,0.2,0.4c0.1,0.1,0.1,0.3,0.2,0.4c0,0.1,0.1,0.1,0.1,0.1
							c0.1,0.1,0.1,0.2,0.2,0.3c0.1,0.2,0.2,0.4,0.3,0.6c0.2,0.4,0.5,0.8,0.7,1.2c0.1,0.1,0.1,0.2,0.1,0.3c0.1,0.2,0.2,0.4,0.3,0.6
							c0.1,0.1,0.1,0.2,0.2,0.3s0.1,0.2,0.2,0.3c0.1,0.2,0.2,0.3,0.2,0.5c0.3,0.6,0.7,1.2,1,1.8c0.1,0.1,0.1,0.2,0.2,0.3
							c0,0.1,0.1,0.2,0.2,0.2c0.1,0.1,0.1,0.2,0.2,0.3c0.1,0.1,0.1,0.2,0.2,0.4c0.1,0.1,0.1,0.3,0.2,0.4c0.1,0.1,0.1,0.2,0.2,0.3
							c0,0.1,0.1,0.2,0.2,0.3c0.1,0.1,0.1,0.1,0.2,0.1c0.1,0,0.3,0,0.4,0C140,188,140.1,187.9,140.1,187.9z"/>
					</g>
				</g>
				<g id="XMLID_623_">
					<g id="XMLID_624_">
						<path id="XMLID_625_" class="st5" d="M304.2,421.8c-0.1-0.2-0.3-0.2-0.6-0.2c-0.1,0-0.3,0-0.4,0c-0.2,0-0.4,0.1-0.6,0.1
							c-0.3,0-0.5,0-0.8,0.1c-0.2,0-0.3,0.1-0.5,0.1c-0.5,0.1-1.1,0.2-1.6,0.2c-0.2,0-0.5,0.1-0.7,0.1c-0.2,0-0.5,0.1-0.7,0.2
							c-0.2,0-0.3,0-0.5,0c-0.5,0.1-1,0.2-1.5,0.3c-0.4,0.1-0.8,0.2-1.2,0.2c-0.2,0-0.4,0.1-0.6,0.1c-0.2,0-0.3,0.1-0.5,0.1
							c-0.1,0-0.2,0-0.3,0c-0.4,0-0.8,0.1-1.2,0.2c-0.5,0.1-0.9,0.2-1.4,0.3c-0.5,0.1-1,0.2-1.5,0.3c0,0-0.1,0-0.1,0
							c0,0-0.1,0-0.2,0c0,0,0,0,0,0c-0.2,0-0.3,0-0.5,0.1c-0.3,0-0.6,0.1-1,0.2c-0.1,0-0.2,0-0.3,0c-0.2,0-0.3,0-0.5,0.1
							c-0.2,0-0.5,0.1-0.7,0.1c-0.2,0-0.4,0.1-0.6,0.1c-0.1,0-0.2,0-0.3,0c-0.1,0-0.2,0-0.3,0c-0.5,0.1-1,0.2-1.5,0.3
							c-0.4,0.1-0.8,0.2-1.2,0.2c-0.2,0-0.4,0.1-0.6,0.1c-0.2,0-0.3,0.1-0.5,0.1c-0.1,0-0.2,0-0.3,0c-0.4,0-0.8,0.1-1.2,0.2
							c-0.5,0.1-0.9,0.2-1.4,0.3c-0.5,0.1-1,0.2-1.5,0.3c-0.1,0-0.2,0-0.4,0c-0.2,0-0.3,0-0.5,0.1c-0.3,0-0.6,0.1-1,0.2
							c-0.6,0.1-1.2,0.3-1.8,0.4c-0.3,0-0.7,0.1-1,0.2c-0.1,0-0.3,0-0.4,0.1c-0.1,0-0.2,0.1-0.3,0.2c-0.2,0.1-0.3,0.3-0.2,0.4
							s0.2,0.2,0.4,0.3c0.2,0.1,0.4,0.1,0.6,0c0.1,0,0.2,0,0.4,0c0.2,0,0.4-0.1,0.6-0.1c0.2,0,0.4-0.1,0.6-0.1
							c0.6-0.1,1.2-0.2,1.9-0.3c0.2,0,0.5,0,0.7-0.1c0.3,0,0.5-0.1,0.8-0.2c0,0,0.1,0,0.1,0s0,0,0.1,0c0.3,0,0.6-0.1,0.9-0.1
							c0.3,0,0.7-0.1,1-0.2c0.7-0.1,1.4-0.2,2.1-0.4c0.1,0,0.3,0,0.4-0.1c0.4,0,0.7-0.1,1.1-0.2c0.2,0,0.4,0,0.5-0.1
							c0.2,0,0.3-0.1,0.4-0.1c0.3,0,0.5-0.1,0.8-0.1c1-0.2,2-0.4,3.1-0.5c0.2,0,0.3,0,0.5-0.1c0.1,0,0.3-0.1,0.4-0.1
							c0.2,0,0.3,0,0.5,0c0.2,0,0.4,0,0.6-0.1c0.2,0,0.4-0.1,0.6-0.1c0.1,0,0.2,0,0.2,0c0.2,0,0.4-0.1,0.5-0.1c0.3,0,0.7-0.1,1-0.2
							c0.7-0.1,1.4-0.2,2.1-0.4c0.1,0,0.3,0,0.4-0.1c0.4,0,0.7-0.1,1.1-0.2c0.2,0,0.4,0,0.5-0.1c0.2,0,0.3-0.1,0.4-0.1
							c0.3,0,0.5-0.1,0.8-0.1c1-0.2,2-0.4,3.1-0.5c0.2,0,0.3,0,0.5-0.1c0.1,0,0.3-0.1,0.4-0.1c0.2,0,0.3,0,0.5,0
							c0.2,0,0.4,0,0.6-0.1c0.2,0,0.4-0.1,0.6-0.1c0.2,0,0.3-0.1,0.5-0.1c0.2,0,0.3,0,0.5-0.1c0.1,0,0.2-0.1,0.2-0.2
							c0.1-0.1,0.2-0.3,0.2-0.4C304.3,421.9,304.3,421.8,304.2,421.8z"/>
					</g>
				</g>
				<g id="XMLID_620_">
					<g id="XMLID_621_">
						<path id="XMLID_622_" class="st5" d="M216.4,429.7c-0.1-0.2-0.2-0.3-0.6-0.3c-0.1,0-0.3,0-0.4,0c-0.2,0-0.4,0-0.6,0
							c-0.3,0-0.5,0-0.8,0c-0.2,0-0.3,0-0.5,0c-0.5,0-1.1,0-1.6,0c-0.2,0-0.5,0-0.7,0s-0.5,0-0.7,0c-0.2,0-0.3,0-0.5,0
							c-0.5,0-1,0-1.5,0c-0.4,0-0.8,0-1.3,0c-0.2,0-0.4,0-0.6,0c-0.2,0-0.3,0-0.5,0c-0.1,0-0.2,0-0.3,0c-0.4,0-0.8,0-1.2,0
							c-0.5,0-0.9,0-1.4,0c-0.5,0-1,0-1.5,0c-0.1,0-0.1,0-0.1,0c-0.1,0-0.1,0-0.2,0c0,0,0,0-0.1,0c-0.2,0-0.3,0-0.5,0
							c-0.3,0-0.6,0-1,0c-0.1,0-0.2,0-0.3,0c-0.2,0-0.3,0-0.5,0c-0.2,0-0.5,0-0.7,0c-0.2,0-0.4,0-0.6,0c-0.1,0-0.2,0-0.3,0
							c-0.1,0-0.2,0-0.3,0c-0.5,0-1,0-1.5,0c-0.4,0-0.8,0-1.3,0c-0.2,0-0.4,0-0.6,0c-0.2,0-0.3,0-0.5,0c-0.1,0-0.2,0-0.3,0
							c-0.4,0-0.8,0-1.2,0c-0.5,0-0.9,0-1.4,0c-0.5,0-1,0-1.5,0c-0.1,0-0.2,0-0.4,0c-0.2,0-0.3,0-0.5,0c-0.3,0-0.6,0-1,0
							c-0.6,0-1.2,0.1-1.8,0c-0.3,0-0.7,0-1,0c-0.1,0-0.3,0-0.4,0c-0.1,0-0.3,0.1-0.4,0.1c-0.2,0.1-0.3,0.2-0.3,0.4
							c0,0.2,0.2,0.2,0.3,0.4c0.2,0.1,0.4,0.2,0.6,0.2c0.1,0,0.3,0,0.4,0c0.2,0,0.4,0,0.7,0c0.2,0,0.4,0,0.6,0c0.6,0,1.2,0,1.9,0
							c0.2,0,0.5,0,0.7,0c0.3,0,0.5,0,0.8,0c0,0,0.1,0,0.1,0s0.1,0,0.1,0c0.3,0,0.6,0,0.9,0c0.3,0,0.7,0,1,0c0.7,0,1.4,0,2.1,0
							c0.1,0,0.3,0,0.4,0c0.4,0,0.7,0,1.1,0c0.2,0,0.4,0,0.5,0c0.2,0,0.3,0,0.5,0c0.3,0,0.5,0,0.8,0c1,0,2.1,0,3.1,0
							c0.2,0,0.3,0,0.5,0c0.1,0,0.3,0,0.4,0c0.2,0,0.3,0,0.5,0c0.2,0,0.4,0,0.6,0c0.2,0,0.4,0,0.6,0c0.1,0,0.2,0,0.2,0
							c0.2,0,0.4,0,0.6,0c0.3,0,0.7,0,1,0c0.7,0,1.4,0,2.1,0c0.1,0,0.3,0,0.4,0c0.4,0,0.7,0,1.1,0c0.2,0,0.4,0,0.5,0
							c0.2,0,0.3,0,0.5,0c0.3,0,0.5,0,0.8,0c1,0,2.1,0,3.1,0c0.2,0,0.3,0,0.5,0c0.1,0,0.3,0,0.4,0c0.2,0,0.3,0,0.5,0
							c0.2,0,0.4,0,0.6,0c0.2,0,0.4,0,0.6,0c0.2,0,0.3,0,0.5,0c0.2,0,0.3,0,0.5,0c0.1,0,0.2-0.1,0.2-0.1c0.2-0.1,0.2-0.2,0.2-0.3
							C216.5,429.8,216.4,429.8,216.4,429.7z"/>
					</g>
				</g>
				<g id="XMLID_615_">
					<g id="XMLID_616_">
						<g id="XMLID_617_">
							<g id="XMLID_618_">
								<path id="XMLID_619_" class="st5" d="M163.7,455.3c0.2-0.2,0.4-0.3,0.9-0.3c0.2,0,0.5,0,0.7,0c0.3,0,0.7,0,1,0
									c0.4,0,0.8,0,1.2,0c0.3,0,0.5,0,0.8,0c0.9,0,1.7,0,2.6,0c0.4,0,0.8,0,1.1,0s0.8,0,1.1,0c0.3,0,0.5,0,0.8,0
									c0.8,0,1.7,0,2.4,0c0.7,0,1.4,0,2,0c0.3,0,0.7,0,1,0c0.3,0,0.5,0,0.8,0c0.2,0,0.4,0,0.5,0c0.6,0,1.3,0,2,0
									c0.8,0,1.5,0,2.3,0c0.8,0,1.6,0,2.4,0c0.1,0,0.1,0,0.2,0c0.1,0,0.2,0,0.3,0c0,0,0.1,0,0.1,0c0.2,0,0.5,0,0.8,0
									c0.5,0,1,0,1.6,0c0.2,0,0.3,0,0.5,0c0.3,0,0.5,0,0.8,0c0.4,0,0.8,0,1.1,0c0.3,0,0.6,0,1,0c0.2,0,0.3,0,0.5,0
									c0.2,0,0.3,0,0.5,0c0.8,0,1.7,0,2.4,0c0.7,0,1.4,0,2,0c0.3,0,0.7,0,1,0c0.3,0,0.5,0,0.8,0c0.2,0,0.4,0,0.5,0
									c0.6,0,1.3,0,2,0c0.8,0,1.5,0,2.3,0c0.8,0,1.6,0,2.4,0c0.2,0,0.4,0,0.6,0c0.2,0,0.5,0,0.8,0c0.5,0,1,0,1.6,0c1,0,2,0.1,3,0
									c0.6,0,1.1,0,1.7,0c0.2,0,0.4,0,0.6,0c0.2,0,0.4,0.1,0.6,0.2c0.4,0.1,0.5,0.3,0.5,0.4c-0.1,0.2-0.3,0.3-0.5,0.4
									c-0.2,0.1-0.6,0.2-1,0.2c-0.2,0-0.4,0-0.6,0c-0.4,0-0.7,0-1.1,0c-0.3,0-0.7,0-1,0c-1,0-2,0-3,0c-0.4,0-0.7,0-1.1,0
									c-0.4,0-0.8,0-1.3,0c-0.1,0-0.1,0-0.1,0c-0.1,0-0.1,0-0.1,0c-0.4,0.1-1,0-1.4,0c-0.5,0-1.1,0-1.6,0c-1.1,0-2.3,0-3.4,0
									c-0.2,0-0.5,0-0.7,0c-0.6,0-1.2,0-1.7,0c-0.3,0-0.6,0-0.8,0c-0.3,0-0.5,0-0.8,0c-0.4,0-0.8,0-1.3,0c-1.7,0-3.3,0-5,0
									c-0.3,0-0.5,0-0.8,0c-0.2,0-0.4,0-0.7,0c-0.3,0-0.5,0-0.8,0c-0.3,0-0.6,0-1,0c-0.3,0-0.7,0-1,0c-0.1,0-0.3,0-0.4,0
									c-0.3,0-0.6,0-0.9,0c-0.5,0-1.1,0-1.6,0c-1.1,0-2.3,0-3.4,0c-0.2,0-0.5,0-0.7,0c-0.6,0-1.2,0-1.7,0c-0.3,0-0.6,0-0.8,0
									c-0.3,0-0.5,0-0.8,0c-0.4,0-0.8,0-1.3,0c-1.7,0-3.3,0-5,0c-0.3,0-0.5,0-0.8,0c-0.2,0-0.4,0-0.7,0c-0.3,0-0.5,0-0.8,0
									c-0.3,0-0.6,0-1,0c-0.3,0-0.7,0-1,0c-0.3,0-0.5,0-0.8,0c-0.2,0-0.5,0-0.8,0c-0.2,0-0.3-0.1-0.4-0.1
									c-0.2-0.1-0.3-0.2-0.4-0.4C163.5,455.5,163.6,455.4,163.7,455.3z"/>
							</g>
						</g>
					</g>
				</g>
				<g id="XMLID_610_">
					<g id="XMLID_611_">
						<g id="XMLID_612_">
							<g id="XMLID_613_">
								<path id="XMLID_614_" class="st5" d="M204.7,455.6c-0.2,0-0.3-0.1-0.4-0.3c0-0.1-0.1-0.2-0.1-0.3v-0.4c0-0.2-0.1-0.3,0-0.4
									c0-0.1,0-0.2,0-0.3c0-0.3,0-0.6,0.1-0.9l0.1-0.4c0.1-0.1,0.1-0.3,0.2-0.4c0-0.1,0-0.2,0.1-0.3c0.1-0.3,0.2-0.6,0.3-0.8
									c0.1-0.2,0.2-0.4,0.3-0.6l0.2-0.3c0.1-0.1,0.1-0.2,0.2-0.2l0.1-0.2c0.1-0.2,0.2-0.4,0.4-0.6c0.2-0.2,0.3-0.4,0.5-0.6
									c0.2-0.2,0.4-0.4,0.6-0.6c0,0,0,0,0.1,0c0,0,0.1,0,0.1-0.1l0,0c0.1-0.1,0.1-0.1,0.2-0.2l0.4-0.4c0.1,0,0.1-0.1,0.2-0.1
									l0.2-0.2c0.1-0.1,0.2-0.2,0.3-0.2c0.1,0,0.2-0.1,0.3-0.2c0.1,0,0.1-0.1,0.2-0.1c0.1,0,0.1-0.1,0.2-0.1
									c0.3-0.1,0.5-0.3,0.8-0.3c0.3-0.1,0.5-0.1,0.7-0.2l0.4-0.1c0.1,0,0.2,0,0.3,0l0.2,0c0.2,0,0.5-0.1,0.7-0.2
									c0.3,0,0.5,0,0.8,0c0.3,0,0.6,0,0.9,0c0.1,0,0.1,0,0.2,0c0.1,0,0.2,0,0.3,0c0.2,0,0.4,0,0.6,0c0.4,0,0.7,0.2,1,0.3
									c0.2,0,0.4,0.1,0.6,0.2c0.1,0,0.1,0,0.2,0.1c0.1,0,0.1,0.2,0.2,0.2c0.1,0.1,0.1,0.3,0,0.4s-0.2,0.2-0.3,0.3
									c-0.1,0.1-0.2,0.1-0.4,0c-0.1,0-0.1,0-0.2,0c-0.1,0-0.2,0-0.3-0.1c-0.1,0-0.2-0.1-0.3-0.1c-0.3,0-0.6-0.1-0.9-0.2
									c-0.1,0-0.2,0-0.3,0c-0.1,0-0.3,0-0.4,0h-0.1l-0.1,0c-0.1,0-0.3,0-0.5,0l-0.5,0c-0.4,0-0.7,0.1-1.1,0.2c-0.1,0-0.1,0-0.2,0
									c-0.2,0-0.4,0.1-0.5,0.2c-0.1,0-0.2,0.1-0.3,0.1s-0.2,0-0.2,0c-0.1,0-0.2,0.1-0.4,0.2c-0.5,0.2-1,0.4-1.4,0.8
									c-0.1,0-0.1,0.1-0.2,0.2c-0.1,0-0.1,0.1-0.2,0.1c-0.1,0-0.1,0.1-0.2,0.2c-0.1,0.1-0.1,0.2-0.2,0.2c-0.1,0.1-0.2,0.1-0.2,0.2
									c0,0-0.1,0-0.1,0.1c-0.1,0.1-0.1,0.2-0.2,0.2l-0.3,0.4c-0.2,0.3-0.4,0.6-0.6,0.9c-0.1,0-0.1,0.1-0.1,0.2
									c-0.1,0.2-0.2,0.3-0.2,0.5c0,0.1-0.1,0.2-0.1,0.2c-0.1,0.1-0.1,0.1-0.1,0.2c-0.1,0.1-0.1,0.3-0.1,0.4
									c-0.2,0.5-0.3,1-0.4,1.5c0,0.1,0,0.2,0,0.3c0,0.1-0.1,0.2-0.1,0.2c0,0.1,0,0.2,0,0.3c0,0.1,0,0.2,0,0.3v0.3
									c0,0.1,0,0.2-0.1,0.3c0,0.1,0,0.2,0,0.3c0,0-0.1,0.1-0.1,0.1c-0.1,0.1-0.2,0.1-0.3,0.2C204.8,455.6,204.7,455.6,204.7,455.6
									z"/>
							</g>
						</g>
					</g>
				</g>
				<g id="XMLID_604_">
					<g id="XMLID_606_">
						<g id="XMLID_607_">
							<g id="XMLID_608_">
								<path id="XMLID_609_" class="st5" d="M176.6,445.1c-0.2,0.1-0.3,0.2-0.7,0.1c-0.1,0-0.3-0.1-0.4-0.2
									c-0.2-0.1-0.4-0.2-0.6-0.3c-0.2-0.1-0.5-0.2-0.7-0.4c-0.2-0.1-0.3-0.2-0.4-0.3c-0.5-0.3-0.9-0.6-1.3-1
									c-0.2-0.2-0.4-0.3-0.5-0.5c-0.2-0.2-0.3-0.4-0.5-0.6c-0.1-0.1-0.3-0.2-0.4-0.4c-0.3-0.4-0.7-0.9-0.9-1.3
									c-0.2-0.4-0.4-0.8-0.6-1.2l-0.3-0.6L169,438l-0.1-0.3c-0.2-0.4-0.3-0.8-0.4-1.3c-0.1-0.5-0.1-1,0-1.5
									c0.1-0.6,0.2-1.1,0.5-1.6l0.1-0.1l0.1-0.2l0,0c0.1-0.2,0.2-0.3,0.3-0.4c0.3-0.3,0.5-0.5,0.9-0.8c0.1-0.1,0.2-0.1,0.4-0.2
									c0.2-0.1,0.4-0.2,0.6-0.2c0.3-0.1,0.6-0.1,0.9-0.1c0.2,0,0.5,0,0.7,0.1c0.1,0,0.3,0,0.4,0.1c0.1,0,0.2,0,0.3,0.1
									c0.5,0.2,1.1,0.4,1.5,0.8c0.4,0.3,0.7,0.6,1,0.9c0.2,0.2,0.3,0.3,0.5,0.5c0.1,0.2,0.2,0.3,0.3,0.4l0.2,0.3
									c0.3,0.3,0.5,0.7,0.7,1.1c0.2,0.4,0.4,0.9,0.5,1.4c0.2,0.5,0.3,1,0.3,1.6c0,0.1,0.1,0.2,0.1,0.4c0,0.2,0,0.3,0.1,0.5
									c0,0.3,0,0.7,0,1c0,0.6-0.2,1.3-0.4,1.9c-0.1,0.4-0.2,0.7-0.3,1.1c-0.1,0.1-0.1,0.3-0.2,0.4c-0.1,0.1-0.2,0.2-0.3,0.3
									c-0.2,0.2-0.4,0.2-0.5,0.1c-0.1-0.1-0.2-0.3-0.2-0.5c0-0.2,0-0.4,0.1-0.6c0-0.1,0.1-0.2,0.1-0.3c0.1-0.2,0.1-0.4,0.2-0.6
									c0.1-0.2,0.1-0.4,0.2-0.6c0.1-0.6,0.2-1.2,0.2-1.8c0-0.2-0.1-0.4-0.1-0.6c0-0.2,0-0.5-0.1-0.7l0-0.1c0,0,0,0,0-0.1
									c-0.1-0.2-0.2-0.6-0.2-0.8c-0.1-0.3-0.2-0.6-0.3-0.9c-0.3-0.6-0.6-1.2-1-1.7c-0.1-0.1-0.2-0.2-0.3-0.3
									c-0.2-0.3-0.4-0.5-0.7-0.7c-0.1-0.1-0.2-0.2-0.4-0.3c-0.1-0.1-0.2-0.2-0.3-0.3c-0.2-0.1-0.4-0.2-0.6-0.3
									c-0.8-0.4-1.7-0.6-2.5-0.3c-0.1,0-0.2,0.1-0.4,0.2c-0.1,0-0.2,0.1-0.3,0.2c-0.1,0.1-0.2,0.2-0.3,0.3
									c-0.1,0.2-0.2,0.3-0.3,0.4c-0.1,0.2-0.2,0.3-0.2,0.5l-0.1,0.2c0,0.2-0.1,0.3-0.1,0.5c-0.1,0.3-0.1,0.6-0.1,0.9
									c0,0.6,0.2,1.3,0.4,1.9c0.1,0.1,0.1,0.3,0.2,0.4c0.2,0.3,0.3,0.6,0.5,0.9c0.1,0.1,0.2,0.3,0.3,0.4c0.1,0.1,0.1,0.3,0.2,0.4
									l0.4,0.6c0.6,0.8,1.2,1.5,2,2.1c0.1,0.1,0.2,0.2,0.4,0.3c0.1,0.1,0.2,0.2,0.3,0.3c0.1,0.1,0.3,0.2,0.4,0.3
									c0.2,0.1,0.3,0.2,0.5,0.3l0.5,0.3c0.1,0.1,0.3,0.2,0.4,0.3c0.1,0.1,0.3,0.1,0.4,0.2c0.1,0,0.1,0.2,0.2,0.2
									c0.1,0.2,0.1,0.3,0.1,0.4C176.7,445,176.6,445,176.6,445.1z"/>
							</g>
						</g>
					</g>
				</g>
				<g id="XMLID_599_">
					<g id="XMLID_600_">
						<g id="XMLID_601_">
							<g id="XMLID_602_">
								<path id="XMLID_603_" class="st5" d="M176.1,444.8c-0.1,0.2-0.2,0.3-0.5,0.5c-0.1,0-0.3,0.1-0.4,0.1c-0.2,0-0.4,0-0.6,0.1
									c-0.3,0-0.5,0.1-0.8,0.1c-0.2,0-0.4,0-0.5,0c-0.6,0-1.1,0-1.7,0c-0.2,0-0.5,0-0.7-0.1c-0.2,0-0.5-0.1-0.7-0.2
									c-0.2,0-0.4,0-0.5-0.1c-0.5-0.2-1.1-0.3-1.5-0.5c-0.4-0.2-0.8-0.4-1.2-0.6l-0.6-0.3l-0.4-0.3l-0.3-0.2
									c-0.4-0.2-0.7-0.5-1-0.8c-0.4-0.4-0.7-0.8-0.9-1.2c-0.3-0.5-0.5-1.1-0.5-1.6c0,0,0-0.1,0-0.2l0-0.2v0c0-0.2,0-0.4,0-0.5
									c0-0.4,0.1-0.8,0.3-1.1c0.1-0.1,0.1-0.2,0.2-0.3c0.1-0.2,0.2-0.4,0.4-0.5c0.2-0.2,0.4-0.4,0.6-0.6c0.2-0.1,0.4-0.2,0.6-0.3
									c0.1,0,0.2-0.1,0.3-0.2c0.1-0.1,0.2-0.1,0.3-0.1c0.6-0.1,1.1-0.3,1.7-0.2c0.5,0,0.9,0,1.3,0.1c0.2,0,0.4,0.1,0.7,0.1
									c0.2,0,0.3,0.1,0.5,0.2l0.3,0.1c0.4,0.1,0.8,0.3,1.2,0.5c0.4,0.2,0.8,0.5,1.3,0.8c0.4,0.3,0.9,0.7,1.2,1.1
									c0.1,0.1,0.2,0.2,0.3,0.3c0.1,0.1,0.2,0.3,0.3,0.4c0.2,0.3,0.4,0.5,0.6,0.8c0.4,0.5,0.6,1.2,0.8,1.8c0.2,0.3,0.3,0.7,0.3,1
									c0,0.1,0.1,0.3,0.1,0.4c0,0.2-0.1,0.3-0.1,0.4c-0.1,0.2-0.2,0.4-0.4,0.3c-0.2,0-0.3-0.1-0.4-0.3c-0.1-0.1-0.2-0.3-0.3-0.5
									c0-0.1-0.1-0.2-0.1-0.3c-0.1-0.2-0.1-0.4-0.2-0.6c-0.1-0.2-0.1-0.4-0.2-0.5c-0.3-0.5-0.5-1-0.9-1.5
									c-0.2-0.2-0.3-0.3-0.4-0.5c-0.2-0.2-0.3-0.3-0.5-0.6l-0.1,0c0,0-0.1,0-0.1,0c-0.2-0.1-0.4-0.4-0.7-0.5
									c-0.2-0.2-0.5-0.4-0.8-0.5c-0.6-0.3-1.2-0.6-1.8-0.9c-0.1,0-0.3-0.1-0.4-0.1c-0.3-0.1-0.6-0.1-1-0.2c-0.2,0-0.3,0-0.5,0
									c-0.2,0-0.3,0-0.4,0c-0.2,0-0.5,0-0.7,0.1c-0.9,0.1-1.8,0.5-2.2,1.3c-0.1,0.1-0.1,0.2-0.2,0.4c-0.1,0.1-0.1,0.2-0.1,0.3
									c0,0.1,0,0.3,0,0.4c0,0.2,0,0.3,0,0.5c0,0.2,0.1,0.4,0.1,0.5c0,0.1,0,0.1,0.1,0.2c0.1,0.2,0.1,0.3,0.2,0.4
									c0.1,0.3,0.3,0.5,0.5,0.7c0.4,0.5,0.9,0.9,1.4,1.3c0.1,0.1,0.2,0.2,0.3,0.2c0.3,0.2,0.6,0.3,0.9,0.5
									c0.2,0.1,0.3,0.1,0.5,0.2c0.1,0.1,0.2,0.2,0.4,0.2l0.7,0.2c0.9,0.3,1.9,0.5,2.9,0.6c0.2,0,0.3,0,0.5,0c0.1,0,0.3,0,0.4,0
									c0.2,0,0.3,0,0.5,0c0.2,0,0.4,0,0.6,0l0.6-0.1c0.2,0,0.3,0,0.5,0c0.2,0,0.3-0.1,0.5-0.1c0.1,0,0.2,0,0.3,0.1
									c0.2,0.1,0.3,0.2,0.3,0.3C176.2,444.6,176.2,444.7,176.1,444.8z"/>
							</g>
						</g>
					</g>
				</g>
				<g id="XMLID_593_">
					<g id="XMLID_594_">
						<g id="XMLID_595_">
							<g id="XMLID_596_">
								<path id="XMLID_597_" class="st5" d="M183.5,444.9c-0.1,0.2-0.1,0.3-0.2,0.3c0,0-0.1,0-0.1,0c-0.1,0-0.1,0-0.1,0
									c-0.1,0-0.1,0-0.2,0c0,0-0.1,0-0.1,0c-0.1,0-0.2,0-0.3,0c-0.1,0-0.1,0-0.2,0c-0.1,0-0.1,0-0.1,0s-0.1,0-0.1,0
									c-0.1,0-0.2,0-0.3-0.1c-0.1,0-0.2,0-0.3,0c-0.1,0-0.1,0-0.1,0c0,0-0.1,0-0.1,0c0,0-0.1,0-0.1,0c-0.1,0-0.2,0-0.3,0
									c-0.1,0-0.2,0-0.3,0c-0.1,0-0.2,0-0.3,0h0h0l0,0c0,0-0.1,0-0.1,0c-0.1,0-0.1,0-0.2,0c0,0-0.1,0-0.1,0c0,0-0.1,0-0.1,0
									c-0.1,0-0.1,0-0.2,0c-0.1,0-0.1,0-0.1,0c0,0-0.1,0-0.1,0s-0.1,0-0.1,0c-0.1,0-0.2,0-0.3-0.1c-0.1,0-0.2,0-0.3,0
									c-0.1,0-0.1,0-0.1,0c0,0-0.1,0-0.1,0c0,0-0.1,0-0.1,0c-0.1,0-0.2,0-0.3,0c-0.1,0-0.2,0-0.3,0c-0.1,0-0.2,0-0.3,0
									c0,0-0.1,0-0.1,0c0,0-0.1,0-0.1,0c-0.1,0-0.1,0-0.2,0c-0.1,0-0.2-0.1-0.4-0.1c-0.1,0-0.1,0-0.2,0c0,0-0.1,0-0.1,0
									s-0.1-0.1-0.1-0.2c0-0.1-0.1-0.3,0-0.4c0-0.2,0.1-0.3,0.1-0.4c0.1-0.1,0.1-0.2,0.1-0.2s0.1,0,0.1,0c0.1,0,0.1,0,0.1,0
									s0.1,0,0.1,0c0.1,0,0.3,0,0.4,0c0.1,0,0.1,0,0.1,0c0.1,0,0.1,0,0.2,0c0,0,0,0,0,0c0,0,0,0,0,0c0.1,0,0.1,0,0.2,0
									c0.1,0,0.1,0,0.2,0c0.1,0,0.3,0,0.4,0c0,0,0.1,0,0.1,0c0.1,0,0.2,0,0.2,0c0,0,0.1,0,0.1,0c0,0,0.1,0,0.1,0
									c0.1,0,0.1,0,0.2,0c0.2,0,0.4,0.1,0.6,0c0,0,0.1,0,0.1,0c0,0,0.1,0,0.1,0s0.1,0,0.1,0c0.1,0,0.1,0,0.1,0s0.1,0,0.1,0
									c0,0,0,0,0.1,0c0.1,0,0.1,0,0.1,0c0.1,0,0.1,0,0.2,0c0.1,0,0.3,0,0.4,0c0,0,0.1,0,0.1,0c0.1,0,0.2,0,0.2,0c0,0,0.1,0,0.1,0
									c0,0,0.1,0,0.1,0c0.1,0,0.1,0,0.2,0c0.2,0,0.4,0.1,0.6,0.1c0,0,0.1,0,0.1,0c0,0,0.1,0,0.1,0s0.1,0,0.1,0c0.1,0,0.1,0,0.1,0
									c0.1,0,0.1,0,0.1,0s0.1,0,0.1,0c0,0,0.1,0,0.1,0c0,0,0,0.1,0,0.1c0,0.1,0,0.2,0,0.4C183.5,444.7,183.5,444.8,183.5,444.9z"
									/>
							</g>
						</g>
					</g>
				</g>
				<g id="XMLID_585_">
					<g id="XMLID_586_">
						<g id="XMLID_587_">
							<g id="XMLID_588_">
								<path id="XMLID_589_" class="st5" d="M178.9,449.2c-0.1,0.2-0.1,0.3-0.2,0.3c0,0-0.1,0-0.1,0c-0.1,0-0.1,0-0.2,0
									c-0.1,0-0.1,0-0.2,0c-0.1,0-0.1,0-0.1,0c-0.1,0-0.3,0-0.4,0c-0.1,0-0.1,0-0.2,0s-0.1,0-0.2,0s-0.1,0-0.1,0
									c-0.1,0-0.3,0-0.4,0c-0.1,0-0.2,0-0.3,0c-0.1,0-0.1,0-0.2,0c-0.1,0-0.1,0-0.1,0c0,0-0.1,0-0.1,0c-0.1,0-0.2,0-0.3,0
									c-0.1,0-0.2,0-0.4,0c-0.1,0-0.3,0-0.4,0h0c0,0,0,0-0.1,0c0,0,0,0,0,0c-0.1,0-0.1,0-0.1,0c-0.1,0-0.2,0-0.3,0
									c0,0-0.1,0-0.1,0c-0.1,0-0.1,0-0.1,0c-0.1,0-0.1,0-0.2,0s-0.1,0-0.2,0c0,0-0.1,0-0.1,0s-0.1,0-0.1,0c-0.1,0-0.3,0-0.4,0
									c-0.1,0-0.2,0-0.3,0c-0.1,0-0.1,0-0.2,0c-0.1,0-0.1,0-0.1,0c0,0-0.1,0-0.1,0c-0.1,0-0.2,0-0.3,0c-0.1,0-0.2,0-0.4,0
									c-0.1,0-0.3,0-0.4,0c0,0-0.1,0-0.1,0c-0.1,0-0.1,0-0.1,0c-0.1,0-0.2,0-0.3,0c-0.2,0-0.3-0.1-0.5-0.1c-0.1,0-0.2,0-0.3,0
									c0,0-0.1,0-0.1,0c0,0-0.1-0.1-0.1-0.2c-0.1-0.1-0.1-0.3-0.1-0.4c0-0.2,0.1-0.3,0.1-0.4c0.1-0.1,0.1-0.2,0.2-0.2
									c0,0,0.1,0,0.1,0s0.1,0,0.2,0c0.1,0,0.1,0,0.2,0c0.2,0,0.3,0,0.5,0c0.1,0,0.1,0,0.2,0c0.1,0,0.1,0,0.2,0h0c0,0,0,0,0,0
									c0.1,0,0.2,0,0.2,0c0.1,0,0.2,0,0.3,0c0.2,0,0.4,0,0.5,0c0,0,0.1,0,0.1,0c0.1,0,0.2,0,0.3,0c0.1,0,0.1,0,0.1,0
									c0.1,0,0.1,0,0.1,0c0.1,0,0.1,0,0.2,0c0.3,0,0.5,0,0.8,0c0.1,0,0.1,0,0.1,0c0,0,0.1,0,0.1,0c0.1,0,0.1,0,0.1,0s0.1,0,0.2,0
									c0.1,0,0.1,0,0.2,0c0,0,0.1,0,0.1,0c0.1,0,0.1,0,0.2,0c0.1,0,0.2,0,0.3,0c0.2,0,0.4,0,0.5,0c0,0,0.1,0,0.1,0
									c0.1,0,0.2,0,0.3,0c0.1,0,0.1,0,0.1,0c0.1,0,0.1,0,0.1,0c0.1,0,0.1,0,0.2,0c0.3,0,0.5,0,0.8,0c0.1,0,0.1,0,0.1,0
									c0,0,0.1,0,0.1,0c0.1,0,0.1,0,0.1,0c0.1,0,0.1,0,0.2,0c0.1,0,0.1,0,0.2,0c0.1,0,0.1,0,0.1,0c0,0,0.1,0,0.1,0
									c0,0,0.1,0.1,0.1,0.1c0,0.1,0.1,0.2,0.1,0.4C178.9,449,178.9,449.1,178.9,449.2z"/>
							</g>
						</g>
					</g>
				</g>
				<g id="XMLID_580_">
					<g id="XMLID_581_">
						<g id="XMLID_582_">
							<g id="XMLID_583_">
								<path id="XMLID_584_" class="st5" d="M253.8,455.1c0.2-0.2,0.3-0.3,0.8-0.5c0.2,0,0.4-0.1,0.7-0.1c0.3,0,0.7-0.1,1-0.2
									c0.4,0,0.8-0.2,1.2-0.2c0.3,0,0.5,0,0.8-0.1c0.9-0.1,1.7-0.3,2.6-0.4c0.4,0,0.8-0.1,1.1-0.2c0.4,0,0.8-0.1,1.1-0.1
									c0.3,0,0.5-0.1,0.8-0.2c0.8-0.1,1.7-0.3,2.4-0.3c0.7-0.1,1.4-0.2,2-0.3c0.3,0,0.7-0.1,1-0.2c0.3,0,0.5,0,0.8-0.1
									c0.2,0,0.4,0,0.5-0.1c0.6-0.1,1.3-0.3,1.9-0.3c0.8-0.1,1.5-0.2,2.2-0.3c0.8-0.1,1.6-0.3,2.4-0.3c0.1,0,0.1,0,0.2,0
									c0.1,0,0.2,0,0.3,0c0,0,0,0,0.1,0c0.2,0,0.5-0.1,0.8-0.1c0.5-0.1,1-0.2,1.6-0.2c0.2,0,0.3,0,0.5-0.1c0.3,0,0.5-0.1,0.8-0.1
									c0.4,0,0.8-0.1,1.1-0.2c0.3,0,0.6-0.1,1-0.1c0.2,0,0.3,0,0.5-0.1c0.2,0,0.3-0.1,0.5-0.1c0.8-0.1,1.7-0.3,2.4-0.3
									c0.7-0.1,1.4-0.2,2-0.3c0.3,0,0.7-0.1,1-0.2c0.3,0,0.5,0,0.8-0.1c0.2,0,0.4,0,0.5-0.1c0.6-0.1,1.3-0.3,1.9-0.3
									c0.8-0.1,1.5-0.2,2.2-0.3c0.8-0.1,1.6-0.3,2.4-0.3c0.2,0,0.4-0.1,0.6-0.1c0.2,0,0.5-0.1,0.8-0.1c0.5-0.1,1-0.2,1.6-0.2
									c1-0.2,2-0.2,2.9-0.4c0.5-0.1,1.1-0.2,1.6-0.3c0.2,0,0.4,0,0.6,0c0.2,0,0.4,0,0.6,0c0.4,0,0.5,0.2,0.5,0.3
									c0,0.2-0.2,0.3-0.5,0.5c-0.2,0.2-0.6,0.3-1,0.3c-0.2,0-0.4,0-0.6,0.1c-0.4,0-0.7,0.1-1.1,0.2c-0.3,0-0.7,0.1-1,0.1
									c-1,0.2-2,0.3-3,0.4c-0.4,0-0.7,0.1-1.1,0.2c-0.4,0-0.8,0.1-1.2,0.2c-0.1,0-0.1,0-0.1,0c-0.1,0-0.1,0-0.1,0
									c-0.4,0.1-1,0.2-1.4,0.3c-0.5,0.1-1.1,0.2-1.6,0.2c-1.1,0.2-2.2,0.3-3.4,0.5c-0.2,0-0.4,0.1-0.7,0.1
									c-0.6,0.1-1.1,0.2-1.7,0.3c-0.3,0-0.6,0.1-0.9,0.1c-0.3,0-0.5,0-0.8,0.1c-0.4,0.1-0.8,0.2-1.2,0.2c-1.7,0.2-3.3,0.4-4.9,0.7
									c-0.3,0-0.5,0.1-0.8,0.1c-0.2,0-0.4,0-0.7,0.1c-0.3,0-0.5,0.1-0.8,0.2c-0.3,0-0.6,0.1-0.9,0.2c-0.3,0-0.7,0.1-1,0.2
									c-0.1,0-0.3,0-0.4,0c-0.3,0-0.6,0.1-0.9,0.1c-0.5,0.1-1.1,0.2-1.6,0.2c-1.1,0.2-2.2,0.3-3.4,0.5c-0.2,0-0.4,0.1-0.7,0.1
									c-0.6,0.1-1.1,0.2-1.7,0.3c-0.3,0-0.6,0.1-0.9,0.1c-0.3,0-0.5,0-0.8,0.1c-0.4,0.1-0.8,0.2-1.2,0.2c-1.7,0.2-3.3,0.4-4.9,0.7
									c-0.3,0-0.5,0.1-0.8,0.1c-0.2,0-0.4,0-0.7,0.1c-0.3,0-0.5,0.1-0.8,0.2c-0.3,0-0.6,0.1-0.9,0.2c-0.3,0-0.7,0.1-1,0.2
									c-0.3,0-0.5,0-0.8,0.1c-0.2,0-0.5,0.1-0.8,0.1c-0.2,0-0.3,0-0.4-0.1c-0.2-0.1-0.4-0.2-0.4-0.3
									C253.6,455.2,253.7,455.2,253.8,455.1z"/>
							</g>
						</g>
					</g>
				</g>
				<g id="XMLID_575_">
					<g id="XMLID_576_">
						<g id="XMLID_577_">
							<g id="XMLID_578_">
								<path id="XMLID_579_" class="st5" d="M294.4,449.3c-0.2,0-0.3-0.1-0.4-0.2c0-0.1,0-0.2-0.1-0.2l-0.1-0.4
									c0-0.2-0.1-0.3-0.1-0.4c0-0.1,0-0.2,0-0.3c0-0.3-0.1-0.6,0-0.9l0-0.4c0-0.1,0-0.3,0.1-0.4c0-0.1,0-0.2,0-0.3
									c0.1-0.3,0.1-0.6,0.2-0.9c0.1-0.2,0.2-0.5,0.2-0.7l0.1-0.3c0-0.1,0.1-0.2,0.1-0.3l0.1-0.2c0.1-0.2,0.2-0.5,0.3-0.6
									c0.1-0.2,0.3-0.5,0.4-0.7c0.2-0.2,0.3-0.5,0.5-0.7c0,0,0,0,0,0c0,0,0.1,0,0.1-0.1l0,0c0-0.1,0.1-0.2,0.2-0.2l0.4-0.4
									c0.1,0,0.1-0.1,0.1-0.1l0.2-0.2c0.1-0.1,0.2-0.2,0.3-0.3c0.1-0.1,0.2-0.1,0.3-0.2c0,0,0.1-0.1,0.2-0.1s0.1-0.1,0.1-0.1
									c0.3-0.1,0.5-0.4,0.8-0.4c0.2-0.1,0.4-0.2,0.6-0.3l0.3-0.2c0.1,0,0.2,0,0.3-0.1l0.2-0.1c0.2-0.1,0.4-0.2,0.6-0.3
									c0.3-0.1,0.5-0.1,0.8-0.2s0.6-0.1,0.9-0.1c0.1,0,0.1,0,0.2,0c0.1,0,0.2,0,0.3,0c0.2,0,0.4,0,0.6,0c0.4,0,0.7,0.1,1.1,0.1
									c0.2,0,0.4,0,0.6,0.1c0.1,0,0.2,0,0.2,0.1c0.1,0,0.1,0.1,0.2,0.2c0.1,0.1,0.1,0.3,0,0.4c0,0.2-0.2,0.2-0.3,0.3
									c-0.1,0.1-0.2,0.1-0.3,0.1c-0.1,0-0.1,0-0.2,0c-0.1,0-0.2,0-0.3,0c-0.1,0-0.2,0-0.3,0c-0.3,0-0.6,0-1,0c-0.1,0-0.2,0-0.3,0
									c-0.1,0-0.3,0-0.4,0h-0.1l0,0c-0.1,0.1-0.3,0.1-0.4,0.1l-0.5,0.1c-0.4,0.1-0.7,0.2-1,0.3c-0.1,0-0.1,0-0.2,0.1
									c-0.2,0.1-0.3,0.2-0.5,0.2c-0.1,0-0.2,0.1-0.2,0.1c-0.1,0-0.2,0-0.2,0.1c-0.1,0.1-0.2,0.2-0.3,0.2c-0.4,0.3-0.9,0.6-1.2,1
									c-0.1,0-0.1,0.1-0.2,0.2c0,0-0.1,0.1-0.2,0.1c0,0-0.1,0.1-0.2,0.2c0,0.1-0.1,0.2-0.2,0.2c-0.1,0.1-0.1,0.2-0.2,0.3
									c0,0-0.1,0-0.1,0.1c0,0.1-0.1,0.2-0.2,0.2l-0.3,0.4c-0.2,0.3-0.3,0.6-0.5,1c0,0,0,0.1-0.1,0.2c-0.1,0.2-0.1,0.4-0.2,0.5
									c0,0.1-0.1,0.2-0.1,0.3c0,0.1-0.1,0.1-0.1,0.2c0,0.1,0,0.3-0.1,0.4c-0.1,0.5-0.2,1-0.2,1.5c0,0.1,0,0.2,0,0.3s0,0.2,0,0.2
									c0,0.1,0,0.2,0,0.3c0,0.1,0,0.2,0,0.3l0.1,0.3c0,0.1,0,0.2,0,0.3c0,0.1,0,0.2,0,0.3c0,0-0.1,0.1-0.1,0.2
									c-0.1,0.1-0.2,0.2-0.3,0.2C294.5,449.3,294.5,449.3,294.4,449.3z"/>
							</g>
						</g>
					</g>
				</g>
				<g id="XMLID_570_">
					<g id="XMLID_571_">
						<g id="XMLID_572_">
							<g id="XMLID_573_">
								<path id="XMLID_574_" class="st5" d="M265,443c-0.2,0.2-0.3,0.2-0.6,0.2c-0.2,0-0.3,0-0.4-0.1c-0.2,0-0.4-0.2-0.6-0.2
									c-0.3-0.1-0.5-0.2-0.8-0.3c-0.2-0.1-0.3-0.2-0.5-0.2c-0.5-0.2-1-0.5-1.5-0.8c-0.2-0.1-0.4-0.3-0.6-0.4
									c-0.2-0.2-0.4-0.3-0.6-0.5c-0.2-0.1-0.3-0.2-0.4-0.3c-0.4-0.4-0.8-0.7-1.1-1.2c-0.3-0.3-0.5-0.7-0.8-1.1l-0.4-0.6l-0.3-0.5
									l-0.2-0.3c-0.2-0.4-0.4-0.8-0.5-1.2c-0.2-0.5-0.3-1-0.3-1.5c0-0.6,0.1-1.2,0.3-1.7l0.1-0.1l0.1-0.2l0,0
									c0.1-0.2,0.2-0.3,0.3-0.5c0.2-0.3,0.5-0.6,0.8-0.9c0.1-0.1,0.2-0.2,0.3-0.2c0.2-0.1,0.4-0.2,0.5-0.3
									c0.3-0.1,0.5-0.2,0.8-0.2c0.2,0,0.5,0,0.7,0c0.1,0,0.3,0,0.4,0c0.1,0,0.2,0,0.3,0c0.6,0.2,1.1,0.3,1.6,0.6
									c0.4,0.2,0.8,0.5,1.1,0.8c0.2,0.1,0.4,0.3,0.5,0.4c0.1,0.1,0.3,0.3,0.4,0.4l0.3,0.3c0.3,0.3,0.6,0.6,0.9,1
									c0.3,0.4,0.5,0.9,0.8,1.3c0.2,0.5,0.4,1,0.6,1.5c0,0.1,0.1,0.2,0.1,0.4c0,0.2,0.1,0.3,0.1,0.5c0.1,0.3,0.1,0.7,0.2,1
									c0.1,0.6-0.1,1.3-0.1,2c0,0.4,0,0.7-0.2,1.1c0,0.1,0,0.3-0.1,0.4c-0.1,0.1-0.2,0.2-0.3,0.3c-0.2,0.2-0.3,0.2-0.5,0.1
									c-0.1-0.1-0.2-0.3-0.3-0.4c-0.1-0.2,0-0.4,0-0.6c0-0.1,0.1-0.2,0.1-0.3c0-0.2,0-0.4,0.1-0.6s0.1-0.4,0.1-0.6
									c0-0.6,0-1.2-0.1-1.8c0-0.2-0.1-0.4-0.2-0.6c0-0.2-0.1-0.4-0.2-0.7l0-0.1c0,0,0,0,0-0.1c-0.1-0.2-0.2-0.5-0.4-0.8
									c-0.1-0.3-0.3-0.6-0.4-0.8c-0.3-0.6-0.7-1.1-1.2-1.6c-0.1-0.1-0.2-0.2-0.3-0.3c-0.3-0.2-0.5-0.4-0.8-0.6
									c-0.1-0.1-0.3-0.2-0.4-0.3c-0.1-0.1-0.2-0.2-0.4-0.2c-0.2-0.1-0.4-0.2-0.7-0.2c-0.9-0.3-1.8-0.3-2.5,0.1
									c-0.1,0.1-0.2,0.2-0.3,0.2c-0.1,0.1-0.2,0.1-0.3,0.2c-0.1,0.1-0.2,0.2-0.2,0.4c-0.1,0.2-0.1,0.3-0.2,0.4
									c0,0.2-0.1,0.3-0.2,0.5l0,0.2c0,0.2,0,0.3,0,0.5c0,0.3,0,0.6,0.1,0.9c0.1,0.6,0.4,1.2,0.7,1.8c0,0.1,0.1,0.2,0.2,0.3
									c0.2,0.3,0.4,0.6,0.6,0.8c0.1,0.1,0.2,0.3,0.3,0.4c0.1,0.1,0.1,0.2,0.3,0.4l0.5,0.5c0.7,0.7,1.5,1.4,2.3,1.8
									c0.2,0.1,0.3,0.2,0.4,0.3c0.1,0.1,0.2,0.2,0.3,0.2c0.1,0.1,0.3,0.1,0.4,0.2c0.2,0.1,0.4,0.2,0.5,0.2l0.6,0.2
									c0.2,0.1,0.3,0.1,0.5,0.2c0.1,0,0.3,0.1,0.4,0.2c0.1,0,0.1,0.1,0.2,0.2c0.1,0.1,0.2,0.3,0.1,0.4
									C265.2,442.9,265.1,443,265,443z"/>
							</g>
						</g>
					</g>
				</g>
				<g id="XMLID_565_">
					<g id="XMLID_566_">
						<g id="XMLID_567_">
							<g id="XMLID_568_">
								<path id="XMLID_569_" class="st5" d="M264.6,442.8c0,0.2-0.1,0.3-0.4,0.5c-0.1,0.1-0.3,0.1-0.4,0.2
									c-0.2,0.1-0.4,0.1-0.6,0.2c-0.3,0.1-0.5,0.2-0.8,0.2c-0.2,0-0.4,0-0.5,0.1c-0.5,0.1-1.1,0.2-1.7,0.2c-0.2,0-0.5,0-0.8,0
									c-0.3,0-0.5,0-0.8-0.1c-0.2,0-0.4,0-0.5,0c-0.5-0.1-1.1-0.1-1.6-0.3c-0.4-0.1-0.8-0.3-1.2-0.4l-0.6-0.2l-0.5-0.2l-0.3-0.2
									c-0.4-0.2-0.8-0.4-1.1-0.6c-0.4-0.3-0.8-0.7-1.1-1.1c-0.4-0.5-0.6-1-0.8-1.5c0,0,0-0.1-0.1-0.1l-0.1-0.2l0,0
									c-0.1-0.2-0.1-0.4-0.1-0.5c0-0.4,0-0.8,0.1-1.1c0-0.1,0.1-0.3,0.1-0.4c0.1-0.2,0.2-0.4,0.3-0.5c0.2-0.2,0.3-0.5,0.5-0.6
									c0.2-0.2,0.4-0.3,0.6-0.4c0.1-0.1,0.2-0.2,0.3-0.2s0.2-0.1,0.3-0.2c0.5-0.2,1.1-0.4,1.6-0.5c0.4,0,0.9-0.1,1.4-0.1
									c0.2,0,0.5,0,0.7,0c0.2,0,0.4,0,0.5,0.1l0.3,0c0.4,0.1,0.9,0.2,1.3,0.3c0.5,0.2,0.9,0.4,1.4,0.6c0.5,0.3,0.9,0.5,1.4,0.9
									c0.1,0.1,0.2,0.2,0.3,0.2c0.1,0.1,0.3,0.2,0.4,0.3c0.3,0.2,0.5,0.5,0.7,0.7c0.4,0.5,0.7,1.1,1.1,1.6c0.2,0.3,0.4,0.6,0.5,1
									c0,0.1,0.1,0.3,0.1,0.4c0,0.2,0,0.3,0,0.4c0,0.3-0.1,0.4-0.3,0.4c-0.2,0-0.3-0.1-0.5-0.2c-0.2-0.1-0.3-0.3-0.3-0.5
									c-0.1-0.1-0.1-0.2-0.2-0.3c-0.1-0.2-0.2-0.4-0.3-0.5c-0.1-0.2-0.2-0.3-0.3-0.5c-0.3-0.5-0.7-1-1.1-1.4
									c-0.2-0.1-0.3-0.3-0.5-0.4c-0.2-0.2-0.3-0.3-0.5-0.5l-0.1,0c0,0,0,0-0.1,0c-0.2-0.1-0.5-0.3-0.7-0.4
									c-0.3-0.2-0.6-0.3-0.9-0.4c-0.6-0.3-1.2-0.5-1.9-0.6c-0.1,0-0.3,0-0.4,0c-0.3,0-0.7,0-1,0c-0.2,0-0.3,0-0.5,0
									c-0.2,0-0.3,0-0.4,0c-0.2,0-0.5,0.1-0.7,0.2c-0.9,0.3-1.7,0.8-2,1.5c-0.1,0.1-0.1,0.3-0.1,0.4c0,0.1-0.1,0.2-0.1,0.3
									s0,0.3,0,0.4c0,0.2,0.1,0.3,0.1,0.5c0.1,0.2,0.1,0.3,0.2,0.5c0,0.1,0.1,0.1,0.1,0.2c0.1,0.1,0.2,0.3,0.3,0.4
									c0.2,0.2,0.4,0.4,0.6,0.6c0.5,0.4,1,0.8,1.6,1.1c0.1,0,0.2,0.1,0.4,0.2c0.3,0.1,0.6,0.2,1,0.3c0.2,0,0.3,0.1,0.5,0.2
									c0.2,0,0.3,0.1,0.4,0.2l0.7,0.1c1,0.2,1.9,0.2,2.9,0.1c0.2,0,0.3,0,0.5,0c0.1,0,0.3,0,0.4,0c0.2,0,0.3-0.1,0.5-0.1
									c0.2,0,0.4-0.1,0.5-0.1l0.6-0.2c0.2,0,0.3-0.1,0.5-0.1c0.1,0,0.3-0.1,0.4-0.1c0.1,0,0.2,0,0.3,0c0.2,0,0.3,0.1,0.3,0.2
									C264.6,442.6,264.6,442.7,264.6,442.8z"/>
							</g>
						</g>
					</g>
				</g>
				<g id="XMLID_560_">
					<g id="XMLID_561_">
						<g id="XMLID_562_">
							<g id="XMLID_563_">
								<path id="XMLID_564_" class="st5" d="M271.9,441.8c0,0.2,0,0.3-0.1,0.3c0,0-0.1,0-0.1,0c0,0-0.1,0-0.1,0c0,0-0.1,0-0.2,0
									c0,0-0.1,0-0.1,0c-0.1,0-0.2,0-0.3,0c0,0-0.1,0-0.2,0s-0.1,0-0.2,0c0,0-0.1,0-0.1,0c-0.1,0-0.2,0-0.3,0c-0.1,0-0.2,0-0.3,0
									c-0.1,0-0.1,0-0.1,0c0,0-0.1,0-0.1,0c0,0-0.1,0-0.1,0c-0.1,0-0.2,0-0.2,0c-0.1,0-0.2,0-0.3,0s-0.2,0-0.3,0h0c0,0,0,0,0,0
									l0,0c0,0-0.1,0-0.1,0c-0.1,0-0.1,0-0.2,0c0,0,0,0-0.1,0s-0.1,0-0.1,0c-0.1,0-0.1,0-0.2,0s-0.1,0-0.1,0c0,0-0.1,0-0.1,0
									c0,0,0,0,0,0c-0.1,0-0.2,0-0.3,0c-0.1,0-0.2,0-0.3,0c0,0-0.1,0-0.1,0c0,0-0.1,0-0.1,0c0,0,0,0-0.1,0c-0.1,0-0.2,0-0.2,0
									c-0.1,0-0.2,0-0.3,0s-0.2,0-0.3,0c0,0,0,0-0.1,0s-0.1,0-0.1,0c-0.1,0-0.1,0-0.2,0c-0.1,0-0.3-0.1-0.4,0c-0.1,0-0.1,0-0.2,0
									c0,0,0,0-0.1,0s-0.1-0.1-0.1-0.1c0-0.1-0.1-0.2-0.1-0.4s0-0.3,0-0.4c0-0.1,0.1-0.2,0.1-0.2c0,0,0.1,0,0.1,0c0,0,0.1,0,0.1,0
									c0,0,0.1,0,0.1,0c0.1,0,0.3,0,0.4,0c0.1,0,0.1,0,0.1,0c0.1,0,0.1,0,0.2,0c0,0,0,0,0,0c0,0,0,0,0,0c0.1-0.1,0.1,0,0.2,0
									c0.1,0,0.1,0,0.2,0c0.2,0,0.3,0,0.4,0c0,0,0,0,0.1,0c0.1,0,0.2,0,0.2,0c0,0,0.1,0,0.1,0c0,0,0,0,0.1,0c0,0,0.1,0,0.2,0
									c0.2,0,0.4,0,0.6,0c0,0,0.1,0,0.1,0c0,0,0,0,0.1,0s0.1,0,0.1,0c0.1,0,0.1,0,0.1,0c0.1,0,0.1,0,0.1,0c0,0,0,0,0.1,0
									c0,0,0.1,0,0.1,0c0.1,0,0.1,0,0.2,0c0.2,0,0.3,0,0.4,0c0,0,0.1,0,0.1,0c0.1,0,0.2,0,0.2,0c0,0,0.1,0,0.1,0c0,0,0.1,0,0.1,0
									c0.1,0,0.1,0,0.2,0c0.2,0,0.4,0,0.6,0c0,0,0.1,0,0.1,0c0,0,0.1,0,0.1,0s0.1,0,0.1,0c0,0,0.1,0,0.1,0c0,0,0.1,0,0.1,0
									c0,0,0.1,0,0.1,0c0,0,0.1,0,0.1,0c0,0,0,0.1,0,0.1c0,0.1,0.1,0.2,0.1,0.4C271.9,441.7,271.9,441.7,271.9,441.8z"/>
							</g>
						</g>
					</g>
				</g>
				<g id="XMLID_555_">
					<g id="XMLID_556_">
						<g id="XMLID_557_">
							<g id="XMLID_558_">
								<path id="XMLID_559_" class="st5" d="M268,446.7c0,0.2,0,0.3-0.1,0.3c0,0-0.1,0-0.1,0c0,0-0.1,0-0.2,0c-0.1,0-0.1,0.1-0.2,0
									c-0.1,0-0.1,0-0.1,0c-0.1,0-0.3,0.1-0.4,0.1c-0.1,0-0.1,0-0.2,0s-0.1,0-0.2,0s-0.1,0-0.1,0c-0.1,0-0.3,0.1-0.4,0
									c-0.1,0-0.2,0-0.3,0c0,0-0.1,0-0.2,0s-0.1,0-0.1,0c0,0,0,0-0.1,0c-0.1,0-0.2,0.1-0.3,0.1c-0.1,0-0.2,0-0.4,0s-0.3,0-0.4,0h0
									c0,0,0,0-0.1,0c0,0,0,0,0,0c0,0-0.1,0-0.1,0c-0.1,0-0.2,0-0.3,0c0,0-0.1,0-0.1,0c0,0-0.1,0-0.1,0c0,0-0.1,0-0.2,0
									s-0.1,0-0.2,0c0,0,0,0-0.1,0c0,0-0.1,0-0.1,0c-0.1,0-0.3,0.1-0.4,0c-0.1,0-0.2,0-0.3,0c-0.1,0-0.1,0-0.2,0s-0.1,0-0.1,0
									c0,0-0.1,0-0.1,0c-0.1,0-0.2,0.1-0.3,0.1c-0.1,0-0.2,0-0.4,0s-0.3,0-0.4,0c0,0,0,0-0.1,0c0,0-0.1,0-0.1,0
									c-0.1,0-0.2,0-0.3,0c-0.2,0-0.3-0.1-0.5,0c-0.1,0-0.2,0-0.3,0c0,0-0.1,0-0.1,0c0,0-0.1-0.1-0.1-0.1
									c-0.1-0.1-0.1-0.2-0.1-0.4s0-0.3,0.1-0.4c0-0.1,0.1-0.2,0.2-0.2c0,0,0,0,0.1,0c0,0,0.1,0,0.2,0c0,0,0.1,0,0.2,0
									c0.2,0,0.3,0,0.5,0c0.1,0,0.1,0,0.2,0c0.1,0,0.1,0,0.2,0h0c0,0,0,0,0,0c0-0.1,0.2,0,0.2-0.1c0.1,0,0.2,0,0.3,0
									c0.2,0,0.4,0,0.5,0c0,0,0.1,0,0.1,0c0.1,0,0.2,0,0.3,0c0.1,0,0.1,0,0.1,0c0.1,0,0.1,0,0.1,0c0.1,0,0.1,0,0.2,0
									c0.3,0,0.5,0,0.8-0.1c0.1,0,0.1,0,0.1,0c0,0,0.1,0,0.1,0c0.1,0,0.1,0,0.1,0c0.1,0,0.1,0,0.2,0s0.1,0,0.2,0c0,0,0.1,0,0.1,0
									c0,0,0.1,0,0.2,0c0.1,0,0.2,0,0.3,0c0.2,0,0.4,0,0.5,0c0,0,0.1,0,0.1,0c0.1,0,0.2,0,0.3,0c0,0,0.1,0,0.1,0c0,0,0.1,0,0.1,0
									c0.1,0,0.1,0,0.2,0c0.3,0,0.5,0,0.8-0.1c0,0,0.1,0,0.1,0c0,0,0.1,0,0.1,0c0,0,0.1,0,0.1,0c0,0,0.1,0,0.2,0s0.1,0,0.2,0
									c0,0,0.1,0,0.1,0c0,0,0.1,0,0.1,0c0,0,0,0.1,0.1,0.1c0.1,0.1,0.1,0.2,0.1,0.3C268,446.6,268,446.6,268,446.7z"/>
							</g>
						</g>
					</g>
				</g>
			</g>
			<g>
				<g id="XMLID_551_">
					<g id="XMLID_552_">
						<g id="XMLID_553_">
							<path id="XMLID_554_" class="st2" d="M228.4,173.1l-25.1,14.5L178.5,205c-3.9,2.8-4.7,8.1-2,11.9c2.6,3.6,7.6,4.6,11.4,2.4
								l58.9-35.5C246.7,183.8,232.2,170.4,228.4,173.1z"/>
						</g>
					</g>
				</g>
				<g id="XMLID_547_">
					<g id="XMLID_548_">
						<g id="XMLID_549_">
							<path id="XMLID_550_" class="st2" d="M185.2,203.4c-0.6-0.5-0.7-0.5-0.9-0.8c-0.2-0.1-0.4-0.3-0.6-0.4
								c-0.4-0.2-0.8-0.4-1.1-0.5c-0.7-0.3-1.4-0.5-2.1-0.7c-1.3-0.4-2.6-0.6-3.9-0.8c-2.5-0.3-4.9-0.4-7.3-0.3
								c-1.7,0-3.1,1.5-3.1,3.2c0,1.5,1.1,2.7,2.4,3l0.1,0c2.1,0.5,4.2,1,6,1.8c0.9,0.4,1.8,0.8,2.5,1.2c0.4,0.2,0.7,0.5,1,0.7
								c0.1,0.1,0.3,0.2,0.3,0.3c0.1,0.1,0.1,0.1,0.1,0.1c-0.1,0,0.1,0.1-0.3-0.2c1.8,1.9,4.9,2,6.8,0.2
								C186.9,208.4,187,205.3,185.2,203.4z"/>
						</g>
					</g>
				</g>
				<g id="XMLID_543_">
					<g id="XMLID_544_">
						<g id="XMLID_545_">
							<path id="XMLID_546_" class="st2" d="M187.6,219.3c-1.6,1-2.9,1.8-4.5,2.6c-1.5,0.8-3,1.6-4.6,2.3c-3.1,1.4-6.4,2.7-10.1,3.3
								c-1.7,0.3-3.4-0.9-3.7-2.6c-0.3-1.6,0.7-3.1,2.2-3.6l0.2-0.1c2.6-0.8,5.2-2.2,7.8-3.9c1.3-0.8,2.5-1.7,3.7-2.6
								c1.2-0.9,2.5-1.9,3.5-2.8c1.9-1.7,4.8-1.5,6.5,0.4c1.7,1.9,1.5,4.8-0.4,6.5C188,219.1,187.8,219.2,187.6,219.3z"/>
						</g>
					</g>
				</g>
				<g id="XMLID_531_">
					<g id="XMLID_532_">
						<g id="XMLID_533_">
							<path id="XMLID_542_" class="st2" d="M186.1,215.6c-1.6,0.9-3.2,1.7-4.8,2.4s-3.2,1.4-4.9,2.1c-1.7,0.6-3.4,1.2-5.3,1.7
								c-1,0.2-1.9,0.4-3,0.5c-0.5,0.1-1.2,0.1-1.7,0.1c-0.6,0-1.4-0.2-2-0.3c-1.7-0.3-2.8-1.9-2.5-3.6c0.3-1.4,1.4-2.4,2.8-2.5
								l1.1-0.1c0.4,0,1.8-0.3,3.1-0.9c1.3-0.6,2.7-1.3,4-2.1c1.3-0.8,2.7-1.7,4-2.5c1.3-0.9,2.7-1.9,3.9-2.8
								c2.1-1.6,5.1-1.2,6.7,0.9c1.6,2.1,1.2,5.1-0.9,6.7C186.5,215.3,186.3,215.4,186.1,215.6z"/>
						</g>
					</g>
				</g>
				<g id="XMLID_527_">
					<g id="XMLID_528_">
						<g id="XMLID_529_">
							<path id="XMLID_530_" class="st2" d="M190,208.4c-2.3,1.2-4.4,2.1-6.6,3c-2.2,0.9-4.4,1.7-6.7,2.4c-4.5,1.4-9.2,2.4-14.1,2.8
								c-1.8,0.1-3.3-1.2-3.4-3c-0.1-1.6,1-3.1,2.6-3.4l0.1,0c4.1-0.8,8.1-2.1,12-3.8c1.9-0.9,3.9-1.8,5.8-2.8
								c1.8-1,3.8-2.1,5.4-3.2l0.1,0c2.2-1.5,5.2-0.9,6.6,1.3c1.5,2.2,0.9,5.2-1.3,6.6C190.3,208.2,190.2,208.3,190,208.4z"/>
						</g>
					</g>
				</g>
			</g>
			<g id="XMLID_525_">
				<path id="XMLID_526_" class="st3" d="M197.3,191.9l13.4,13.7l38.6-21.9c1.6-1.2,3-2.8,3.8-4.8l0.3-0.9l28.6-69.7
					c-3,10.5,0.2-0.7,0.3-0.9c0,0-1.8-17.4-9.9-20.1c-8.1-2.7-17.8,2.7-20.5,10.8L230.1,166L197.3,191.9z"/>
			</g>
		</g>
	</g>
</g>
<g>
	<g>
		<defs>
			<polygon id="SVGID_3_" points="-11.9,2.8 216.4,2.8 216.4,161 -11.9,115.3 			"/>
		</defs>
		<clipPath id="SVGID_4_">
			<use xlink:href="#SVGID_3_"  style="overflow:visible;"/>
		</clipPath>
		<g id="XMLID_590_" class="st6">
			<g id="XMLID_591_">
				<path id="XMLID_592_" class="st4" d="M158.8,46.2c-3.7-6-11.6-8.3-18.6-7.3c-7,1-13.3,4.6-19.4,8.1c-6.1,3.5-12.6,6.9-19.6,7.6
					c-10.6,1-21.9-4.4-31.6,0c-5.6,2.6-9.4,7.9-13.4,12.6c-4,4.7-9.2,9.3-15.3,9.3c-5.1,0-9.6-3-14.6-4.4
					c-5.7-1.5-12.2-0.4-16.9,3.2c-4.7,3.7-7.2,10-6,15.8c1.2,5.8,6.4,11.8,12.4,12.3c6.8,0.5,12.8-1.9,19.5-2.4
					c7.1-0.4,13.5,3.8,19.7,7.2s14.3,5.7,20.2,1.7c5.1-3.4,6.7-10.4,11.4-14.2c5.4-4.3,13.3-3.5,20.1-1.8c6.8,1.6,14.2,0.1,20.5-2.7
					c6.3-2.8,9.9-9.6,15.1-14.1c3-2.6,6.6-4.6,9.4-7.4c3.6-3.8,5.3-8.9,7-13.8C160.1,52,161.3,49.4,158.8,46.2"/>
			</g>
		</g>
	</g>
	<g>
		<defs>
			<polygon id="SVGID_5_" points="-11.9,2.8 216.4,2.8 216.4,161 -11.9,115.3 			"/>
		</defs>
		<clipPath id="SVGID_6_">
			<use xlink:href="#SVGID_5_"  style="overflow:visible;"/>
		</clipPath>
		<g id="XMLID_538_" class="st7">
			<g id="XMLID_539_">
				<g id="XMLID_540_">
					<path id="XMLID_541_" class="st8" d="M138.7,225.3l55.8,4.3l27.9,2.1l13.9,1.1l6.9,0.5l1.8,0.1c0.2,0,0.8,0.1,0.2,0
						c-0.3,0-0.6-0.2-0.9-0.2c-1.1-0.3-2.2-0.9-3.1-1.5c-1.9-1.3-3.3-3.2-4-5.3c-0.2-0.5-0.3-1.1-0.4-1.6c0-0.3-0.1-0.6-0.1-0.8
						l0-0.4v-0.2c0,0,0-0.2,0,0l0.4,3.5l1.5,13.9l3.1,27.8l6.2,55.6l32.1-2l-0.6-55.9l-0.3-28l-0.2-14l0-3.5l-0.1-1.1l-0.1-1.3
						c-0.1-0.9-0.2-1.7-0.4-2.5c-0.3-1.7-0.8-3.3-1.4-5c-2.4-6.5-7-12.1-12.8-15.9c-2.9-1.9-6.2-3.3-9.5-4.2
						c-0.9-0.2-1.7-0.4-2.6-0.5l-1.5-0.2l-1.7-0.3l-6.9-1.2l-13.8-2.4l-27.5-4.9l-55-9.8L138.7,225.3z"/>
				</g>
			</g>
		</g>
	</g>
	<g>
		<defs>
			<rect id="SVGID_7_" x="-11.9" y="2.8" width="228.3" height="112.5"/>
		</defs>
		<clipPath id="SVGID_8_">
			<use xlink:href="#SVGID_7_"  style="overflow:visible;"/>
		</clipPath>
		<g id="XMLID_304_" class="st9">
			<g id="XMLID_305_">
				<g id="XMLID_306_">
					<path id="XMLID_307_" class="st8" d="M150.1,112.1l57.4,34.5l0.9,0.5c1.2,0.7,2.6,1.2,3.9,1.4l72.2,9.4
						c5.4,0.7,10.2-3.1,10.9-8.5c0.6-5.1-2.8-9.8-7.7-10.8l-71.2-15l4.8,1.9l-54.2-39.3c-6.9-5-16.7-3.5-21.8,3.5
						c-5,6.9-3.5,16.7,3.5,21.8C149.3,111.6,149.7,111.9,150.1,112.1z"/>
				</g>
			</g>
		</g>
	</g>
	<g>
		<defs>
			<rect id="SVGID_9_" x="-11.9" y="2.8" width="228.3" height="112.5"/>
		</defs>
		<clipPath id="SVGID_10_">
			<use xlink:href="#SVGID_9_"  style="overflow:visible;"/>
		</clipPath>
		<g id="XMLID_298_" class="st10">
			<path id="XMLID_299_" class="st11" d="M145.5,89.6c5-6.9,13.3-11.5,20.2-6.4l45.5,34.9l-11.1,24.1l-50-30
				c-0.4-0.2-0.8-0.5-1.1-0.7C142,106.3,140.5,96.6,145.5,89.6z"/>
		</g>
	</g>
	<g>
		<defs>
			<rect id="SVGID_11_" x="-11.9" y="2.8" width="228.3" height="112.5"/>
		</defs>
		<clipPath id="SVGID_12_">
			<use xlink:href="#SVGID_11_"  style="overflow:visible;"/>
		</clipPath>
		<g id="XMLID_294_" class="st12">
			<g id="XMLID_295_">
				<g id="XMLID_296_">
					<path id="XMLID_297_" class="st8" d="M96.3,192.7c5.9,18.5,12.3,36.8,18.7,55.1l19.8,54.7c6.6,18.2,13.2,36.5,20.1,54.6
						c6.8,18.2,13.7,36.3,20.8,54.4l29.1-9c-4.3-18.9-8.8-37.8-13.5-56.6c-4.6-18.8-9.4-37.6-14.2-56.3c-2.4-9.4-5-18.7-7.1-28.2
						c-2.2-9.4-4.5-18.9-6.8-28.2c-4.7-18.8-9.4-37.6-14.7-56.2L96.3,192.7z"/>
				</g>
			</g>
		</g>
	</g>
	<g>
		<defs>
			<rect id="SVGID_13_" x="-11.9" y="2.8" width="228.3" height="112.5"/>
		</defs>
		<clipPath id="SVGID_14_">
			<use xlink:href="#SVGID_13_"  style="overflow:visible;"/>
		</clipPath>
		<g id="XMLID_291_" class="st13">
			<g id="XMLID_292_">
				<path id="XMLID_293_" class="st14" d="M119.4,172c17.1-0.7,24.6,0.6,43.7,2.7c1.8,0.2,31.7,5.3,33.4,5.6
					c0,0,58.1,10.4,58.1,10.4c-6.6-1.2-24.2,18.6-27.9,22.6c-12.6,13.7-17,30.5-23.9,47.4c-8.4,20.5-26.9,36.1-45.1,47.9
					c-9.5,6.1-19.6,11.4-30.2,15.4c-2.1,0.8-28.1,6.8-27.9,6c0,0,9.3-49.1,5.8-78.3s-28.5-45.4-6.9-78.1L119.4,172z"/>
			</g>
		</g>
	</g>
	<g>
		<defs>
			<polygon id="SVGID_15_" points="-11.9,2.8 216.4,2.8 216.4,115 -11.9,115.3 			"/>
		</defs>
		<clipPath id="SVGID_16_">
			<use xlink:href="#SVGID_15_"  style="overflow:visible;"/>
		</clipPath>
		<g id="XMLID_286_" class="st15">
			<g id="XMLID_287_">
				<g id="XMLID_288_">
					<path id="XMLID_289_" class="st11" d="M179.2,177.4c0,0,1.8-37.9-1.4-67.4c-2.5-23.2-17.6-36.5-36.6-35.2
						c-26.9,1.9-29.4,15.9-33.9,36.8c-5.1,23.7-11.8,66.7-11.8,66.7s21.2,22.9,52.3,12.7C183.1,179.5,179.2,177.4,179.2,177.4z"/>
				</g>
			</g>
		</g>
	</g>
	<g>
		<defs>
			<rect id="SVGID_17_" x="-11.9" y="2.8" width="228.3" height="112.5"/>
		</defs>
		<clipPath id="SVGID_18_">
			<use xlink:href="#SVGID_17_"  style="overflow:visible;"/>
		</clipPath>
		<g id="XMLID_282_" class="st16">
			<g id="XMLID_283_">
				<g id="XMLID_284_">
					<path id="XMLID_285_" class="st8" d="M129.8,118.8l77.4,51l0.7,0.5c1.4,0.9,2.9,1.4,4.4,1.6l72.2,9.4
						c5.4,0.7,10.2-3.1,10.9-8.4c0.6-5.1-2.8-9.8-7.7-10.8l-71.2-15l5.2,2.1l-74.1-55.7c-6.9-5.2-16.6-3.8-21.8,3.1
						c-5.2,6.9-3.8,16.6,3.1,21.8C129.3,118.5,129.6,118.7,129.8,118.8z"/>
				</g>
			</g>
		</g>
	</g>
	<g>
		<defs>
			<rect id="SVGID_19_" x="-11.9" y="2.8" width="228.3" height="112.5"/>
		</defs>
		<clipPath id="SVGID_20_">
			<use xlink:href="#SVGID_19_"  style="overflow:visible;"/>
		</clipPath>
		<g id="XMLID_189_" class="st17">
			<g id="XMLID_245_">
				<g id="XMLID_246_">
					<g id="XMLID_247_">
						<g id="XMLID_248_">
							<path id="XMLID_249_" class="st8" d="M145.3,84.3c4.3,0,7.8-3.5,7.8-7.8V62.7c0-4.3-3.5-7.8-7.8-7.8c-4.3,0-7.8,3.5-7.8,7.8
								v13.9C137.6,80.9,141.1,84.3,145.3,84.3z"/>
						</g>
					</g>
				</g>
			</g>
			<g id="XMLID_240_">
				<g id="XMLID_241_">
					<g id="XMLID_242_">
						<g id="XMLID_243_">
							<path id="XMLID_244_" class="st4" d="M153.1,76.6V62.7c0-4.3-3.5-7.8-7.8-7.8c-4.3,0-7.8,3.5-7.8,7.8l0,0l5.2,8.9L153.1,76.6
								z"/>
						</g>
					</g>
				</g>
			</g>
			<g id="XMLID_190_">
				<g id="XMLID_235_">
					<g id="XMLID_236_">
						<g id="XMLID_237_">
							<g id="XMLID_238_">
								<path id="XMLID_239_" class="st8" d="M149.6,73.1c4.2-0.2,9-2.6,11.5-6.1c2.4-3.2,1.9-7.1,1.1-10.8
									c-0.8-3.7-1.8-7.7-4.2-10.7c-2.4-3-6.3-4.7-10.1-4.5c-6.7,0.4-11.9,6.1-11.5,12.8l0.4,7.8C137.2,68.3,142.9,73.5,149.6,73.1
									z"/>
							</g>
						</g>
					</g>
				</g>
				<g id="XMLID_230_">
					<g id="XMLID_231_">
						<g id="XMLID_232_">
							<g id="XMLID_233_">
								<path id="XMLID_234_" class="st8" d="M139.3,61c-0.6,0.2-1.3,0.2-2,0.3c-0.2,0-0.4,0.1-0.7,0.2c0,0-1.5,1-0.8-0.3
									c0,0,1.4,0.1,1.6,0.1c0.4,0,0.8,0,1.2-0.1c0.2,0,0.3,0,0.4-0.1c0.5-0.2,0.6-0.2,0.2,0.2c0.2-1.1,1.5-1.6,2.4-1.4
									c1.1,0.3,1.5,1.4,1.4,2.4c-0.3,2.3-3.1,2.6-4.9,2.8c-1.7,0.1-3.8,0-5.1-1.2c-1.4-1.4-1.1-3.7,0.4-5c0.6-0.6,1.5-1.1,2.3-1.4
									c0.9-0.3,1.8-0.2,2.6-0.5C140.7,56.3,141.7,60.1,139.3,61L139.3,61z"/>
							</g>
						</g>
					</g>
				</g>
				<g id="XMLID_191_">
					<g id="XMLID_225_">
						<g id="XMLID_226_">
							<g id="XMLID_227_">
								<g id="XMLID_228_">
									<path id="XMLID_229_" class="st4" d="M154.4,61.6c0-0.1,0.1-0.1,0.2-0.2c0,0,0.1,0,0.1,0l0.1,0c0,0,0.1,0,0.2,0
										c0,0,0.1,0,0.1,0c0.1,0,0.2,0,0.4,0h0.2c0,0,0.1,0,0.2,0c0,0,0,0,0.1,0c0.1,0,0.2-0.1,0.3-0.1c0.1,0,0.1-0.1,0.2-0.1
										c0,0,0,0,0.1-0.1c0,0,0,0,0.1-0.1l0,0c0-0.1,0-0.2,0-0.2c0-0.1,0-0.2,0-0.3c0-0.1,0-0.2,0-0.3v0v0l0,0c0,0,0-0.1,0-0.1
										l0-0.2v-0.1l0-0.1l0-0.2c0,0,0-0.1,0-0.2c0,0,0,0,0-0.1c0,0,0,0,0-0.1c0-0.1-0.1-0.2,0-0.4c0-0.1,0-0.2,0-0.3l0-0.2
										c0,0,0-0.1,0-0.1v-0.1c0-0.1-0.1-0.2-0.1-0.3c0-0.1,0-0.2,0-0.3c0-0.1,0-0.2,0-0.4c0,0,0,0,0-0.1c0,0,0-0.1,0-0.1l0-0.2
										c0-0.1,0-0.3,0-0.5c0-0.1,0-0.2,0-0.2c0,0,0,0,0-0.1c0,0,0-0.1,0-0.1c0,0,0.1-0.1,0.2-0.1c0.1,0,0.2,0,0.2,0
										c0.1,0,0.1,0.1,0.1,0.1s0,0,0,0.1c0,0.1,0,0.1,0,0.2c0,0,0,0.1,0,0.2c0,0.1,0,0.3,0.1,0.5c0,0,0,0.1,0,0.2
										c0,0.1,0,0.1,0,0.2l0,0l0,0c0,0,0,0.1,0.1,0.2c0,0.1,0,0.2,0,0.2c0,0.2,0,0.3,0.1,0.5c0,0,0,0.1,0,0.1c0,0.1,0,0.2,0,0.2
										c0,0,0,0.1,0,0.1s0,0.1,0,0.1c0,0.1,0,0.1,0,0.2c0,0.2,0.1,0.5,0.1,0.7c0,0,0,0.1,0,0.1c0,0,0,0.1,0,0.1s0,0.1,0,0.1
										s0,0.1,0,0.2v0.2c0,0,0,0,0,0c0,0,0,0.1,0,0.2c0,0.1,0,0.2,0,0.3c0,0.2-0.1,0.4-0.2,0.6c0,0,0,0.1-0.1,0.1
										c0,0.1-0.1,0.2-0.2,0.2c0,0-0.1,0.1-0.1,0.1s-0.1,0-0.1,0c-0.1,0-0.1,0.1-0.2,0.1c-0.3,0.1-0.6,0.1-0.8,0.1
										c0,0-0.1,0-0.1,0s-0.1,0-0.1,0c0,0-0.1,0-0.1,0s-0.1,0-0.2,0l-0.2,0c0,0-0.1,0-0.1,0s-0.1,0-0.1,0c0,0,0,0,0-0.1
										c0-0.1,0-0.1,0-0.2C154.4,61.6,154.4,61.6,154.4,61.6z"/>
								</g>
							</g>
						</g>
					</g>
					<g id="XMLID_220_">
						<g id="XMLID_221_">
							<g id="XMLID_222_">
								<g id="XMLID_223_">
									<path id="XMLID_224_" class="st4" d="M134.6,60.9c-0.1-0.1-0.1-0.1-0.1-0.2c0,0,0,0,0,0l0.1,0c0,0,0-0.1,0.1-0.1s0,0,0,0
										c0,0,0.1-0.1,0.2-0.2l0.1,0c0,0,0.1,0,0.1,0c0,0,0,0,0,0c0.1,0,0.1-0.1,0.2,0c0.1,0,0.1,0,0.2,0l0.1,0c0,0,0,0,0.1,0h0
										c0,0,0.1,0,0.2,0c0.1,0,0.1,0,0.2,0s0.1,0,0.2,0l0,0h0l0,0c0,0,0,0,0.1,0l0.1,0h0c0,0,0,0,0.1,0l0.1,0c0,0,0,0,0.1,0h0h0
										c0,0,0.1,0,0.2,0.1c0,0,0.1,0.1,0.1,0.1l0.1,0l0,0l0,0c0,0,0.1,0,0.1,0.1c0,0,0.1,0.1,0.1,0.2c0,0,0.1,0.1,0.1,0.2l0,0l0,0
										l0.1,0.1c0,0.1,0,0.2,0.1,0.2c0,0,0,0.1,0,0.1v0c0,0,0,0-0.1,0.1c0,0-0.1,0.1-0.2,0.1s-0.1,0-0.2,0s-0.1,0-0.1,0v0
										c0,0,0,0,0,0v0c0,0,0-0.1-0.1-0.2l0,0c0,0,0,0,0-0.1l0,0l0,0c0,0,0,0-0.1,0c0,0,0,0-0.1-0.1c0,0-0.1-0.1-0.1-0.2
										c0,0,0,0,0,0c0,0-0.1,0-0.1,0s0,0,0,0c0,0,0,0,0,0s0,0-0.1,0c-0.1,0-0.2-0.1-0.3-0.1h0c0,0,0,0,0,0h0h0h0h0h0
										c0,0-0.1,0-0.1,0c-0.1,0-0.1,0-0.2,0h0c0,0-0.1,0-0.1,0h0h0c0,0,0,0-0.1,0c-0.1,0-0.2,0.1-0.3,0.1l0,0h0c0,0,0,0,0,0l0,0
										l0,0h0c0,0,0,0,0,0c0,0,0,0-0.1,0C134.8,61,134.7,60.9,134.6,60.9C134.6,60.9,134.6,60.9,134.6,60.9z"/>
								</g>
							</g>
						</g>
					</g>
					<g id="XMLID_215_">
						<g id="XMLID_216_">
							<g id="XMLID_217_">
								<g id="XMLID_218_">
									<path id="XMLID_219_" class="st4" d="M135.2,62.6c-0.1,0-0.1,0-0.2-0.1v0v-0.1c0,0,0-0.1,0-0.1s0,0,0,0c0-0.1,0-0.1,0-0.2
										l0-0.1c0,0,0,0,0-0.1c0,0,0,0,0-0.1c0,0,0-0.1,0.1-0.1c0,0,0.1-0.1,0.1-0.1l0,0c0,0,0,0,0,0l0,0c0,0,0-0.1,0.1-0.1
										c0,0,0.1-0.1,0.1-0.1c0,0,0.1-0.1,0.2-0.1l0,0l0,0l0,0c0,0,0,0,0,0l0.1,0h0c0,0,0,0,0,0l0.1,0c0,0,0,0,0.1,0h0h0
										c0.1,0,0.1,0,0.2,0c0.1,0,0.1,0,0.2,0h0.1c0,0,0,0,0,0h0c0,0,0.1,0,0.2,0c0,0,0.1,0,0.2,0c0,0,0.1,0,0.2,0.1h0c0,0,0,0,0,0
										l0.1,0c0.1,0,0.1,0.1,0.2,0.1c0,0,0.1,0,0.1,0.1c0,0,0,0,0,0s0,0,0,0.1c0,0-0.1,0.1-0.1,0.2c-0.1,0-0.1,0.1-0.2,0.1
										c0,0-0.1,0-0.1,0h0c0,0,0,0,0,0c0,0,0,0,0,0s-0.1,0-0.1-0.1h0l0,0l0,0l0,0c0,0,0,0-0.1,0c0,0,0,0-0.1,0s-0.1,0-0.2,0h0
										c0,0,0,0-0.1,0h0c0,0,0,0,0,0c0,0,0,0,0,0c-0.1,0-0.2,0-0.2,0h0h0c0,0,0,0,0,0l0,0l0,0l0,0c0,0,0,0,0,0c0,0,0,0-0.1,0
										c0,0-0.1,0.1-0.1,0.1c0,0,0,0,0,0s0,0,0,0.1c0,0,0,0,0,0h0c0,0,0,0,0,0c0,0.1-0.1,0.1-0.1,0.2v0c0,0,0,0,0,0v0v0v0
										c0,0,0,0,0,0v0c0,0,0,0-0.1,0S135.4,62.6,135.2,62.6C135.2,62.6,135.2,62.6,135.2,62.6z"/>
								</g>
							</g>
						</g>
					</g>
					<g id="XMLID_210_">
						<g id="XMLID_211_">
							<g id="XMLID_212_">
								<g id="XMLID_213_">
									<path id="XMLID_214_" class="st4" d="M152.6,63.1c0.1,0,0.1,0,0.2,0c0,0,0,0,0,0l0,0c0,0,0,0,0,0v0c0,0,0.1,0.1,0.1,0.1
										l0,0c0,0,0,0,0,0.1c0,0,0,0,0,0s0.1,0.1,0.1,0.1c0,0,0,0.1,0.1,0.1l0,0c0,0,0,0,0,0h0c0,0,0.1,0,0.1,0c0,0,0.1,0,0.1,0.1
										s0.1,0,0.1,0.1l0,0l0,0l0,0h0l0.1,0h0h0h0.1l0,0h0h0c0,0,0.1,0,0.1,0c0,0,0.1,0,0.1,0h0.1h0h0c0,0,0.1,0,0.1,0s0.1,0,0.1,0
										s0.1,0,0.2,0h0h0l0.1,0c0,0,0.1,0,0.2,0c0,0,0,0,0.1,0h0c0,0,0,0,0.1,0c0,0,0.1,0.1,0.1,0.2c0,0.1,0,0.1,0,0.2s0,0.1,0,0.1
										c0,0,0,0,0,0c0,0,0,0-0.1,0c0,0,0,0-0.1,0c-0.1,0-0.2,0-0.2,0.1c0,0,0,0-0.1,0c0,0-0.1,0-0.1,0l0,0l0,0c0,0-0.1,0-0.1,0
										s-0.1,0-0.1,0c-0.1,0-0.2,0-0.3,0h0c0,0-0.1,0-0.1,0s0,0-0.1,0l0,0c0,0-0.1,0-0.1,0c-0.1,0-0.2-0.1-0.4-0.1c0,0,0,0-0.1,0
										l0,0c0,0,0,0-0.1,0s0,0-0.1,0l-0.1,0c0,0,0,0,0,0s0,0-0.1,0s-0.1,0-0.1-0.1c-0.1,0-0.2-0.1-0.2-0.2l0,0c0,0-0.1,0-0.1-0.1
										l0,0c0,0,0,0,0,0c0,0,0,0-0.1-0.1c-0.1-0.1-0.2-0.2-0.2-0.3l0,0v0l0,0c0,0,0,0,0-0.1l0-0.1c0,0,0,0,0-0.1s0,0,0-0.1l0,0
										c0,0,0.1-0.1,0.2-0.1C152.6,63.1,152.6,63.1,152.6,63.1z"/>
								</g>
							</g>
						</g>
					</g>
					<g id="XMLID_206_">
						<g id="XMLID_207_">
							<g id="XMLID_208_">
								<path id="XMLID_209_" class="st4" d="M151.5,58.4L151.5,58.4c0.4,0,0.7-0.3,0.7-0.7v-0.3c0-0.4-0.2-0.7-0.7-0.7
									c-0.4,0-0.6,0.3-0.6,0.7v0.3C150.8,58.1,151.1,58.4,151.5,58.4z"/>
							</g>
						</g>
					</g>
					<g id="XMLID_202_">
						<g id="XMLID_203_">
							<g id="XMLID_204_">
								<path id="XMLID_205_" class="st4" d="M158.8,58C158.8,58,158.8,58,158.8,58c0.4,0,0.7-0.3,0.7-0.7V57c0-0.4-0.2-0.7-0.7-0.7
									c-0.4,0-0.6,0.3-0.6,0.7v0.3C158.1,57.7,158.4,58,158.8,58z"/>
							</g>
						</g>
					</g>
					<g id="XMLID_197_">
						<g id="XMLID_198_">
							<g id="XMLID_199_">
								<g id="XMLID_200_">
									<path id="XMLID_201_" class="st4" d="M149.7,55.5c0-0.1-0.1-0.1-0.1-0.2c0,0,0,0,0,0l0,0c0,0,0,0,0-0.1c0,0,0,0,0,0
										c0,0,0.1-0.1,0.1-0.1l0,0c0,0,0,0,0.1,0c0,0,0,0,0,0s0.1-0.1,0.2,0c0,0,0.1,0,0.1,0l0,0h0h0c0,0,0.1,0,0.1-0.1
										c0,0,0.1,0,0.1,0s0.1,0,0.2,0l0,0l0,0l0,0h0l0.1,0h0h0h0.1c0,0,0,0,0.1,0h0c0,0,0,0,0,0s0.1,0,0.2,0c0,0,0.1,0,0.1,0h0.1h0
										h0c0,0,0.1,0,0.1,0c0,0,0.1,0,0.2,0c0,0,0.1,0,0.2,0h0h0h0.1c0.1,0,0.1,0.1,0.2,0.1c0,0,0.1,0,0.1,0c0,0,0,0,0,0s0,0,0,0.1
										c0,0,0,0.1,0,0.2c0,0.1-0.1,0.1-0.1,0.2c0,0-0.1,0.1-0.1,0.1s0,0,0,0h0l0,0c0,0-0.1,0-0.2,0h0c0,0,0,0,0,0l0,0l0,0
										c0,0,0,0-0.1,0s0,0-0.1,0c0,0-0.1,0-0.2,0h0c0,0,0,0-0.1,0h0l0,0c0,0,0,0-0.1,0c-0.1,0-0.2,0-0.2,0h0h0c0,0,0,0,0,0h0h0
										l0,0h0c0,0,0,0-0.1,0c0,0-0.1,0-0.2,0h0c0,0,0,0-0.1,0h0h0l0,0c-0.1,0-0.2,0.1-0.2,0.1c0,0,0,0,0,0h0c0,0,0,0,0,0l0,0l0,0
										h0c0,0,0,0,0,0c0,0,0,0-0.1,0c0,0-0.1-0.1-0.1-0.1C149.7,55.5,149.7,55.5,149.7,55.5z"/>
								</g>
							</g>
						</g>
					</g>
					<g id="XMLID_192_">
						<g id="XMLID_193_">
							<g id="XMLID_194_">
								<g id="XMLID_195_">
									<path id="XMLID_196_" class="st4" d="M160.1,55c-0.1,0.1-0.1,0.1-0.1,0.1h0l0,0c0,0,0,0-0.1,0c0,0,0,0,0,0c0,0-0.1,0-0.1,0
										h0l0,0h0c0,0-0.1,0-0.1-0.1c0,0-0.1,0-0.1,0h0l0,0h0c0,0-0.1,0-0.1,0s-0.1,0-0.1,0c0,0-0.1,0-0.1,0l0,0l0,0l0,0h0h-0.1
										c0,0,0,0,0,0h0h0h0h0c0,0,0,0,0,0c0,0-0.1,0-0.1,0c0,0-0.1,0-0.1,0h0h0h0c0,0-0.1,0-0.1,0c0,0-0.1,0-0.1,0c0,0-0.1,0-0.1,0
										c0,0,0,0,0,0h0l-0.1,0c0,0-0.1,0-0.2,0c0,0,0,0-0.1,0c0,0,0,0,0,0c0,0,0,0-0.1,0c0,0-0.1-0.1-0.1-0.2c0-0.1,0-0.1-0.1-0.2
										c0,0,0-0.1,0-0.1c0,0,0,0,0,0l0,0c0,0,0,0,0.1,0c0,0,0.1,0,0.2-0.1l0,0c0,0,0,0,0.1,0l0,0l0,0c0,0,0,0,0.1,0
										c0,0,0.1,0,0.1,0c0.1,0,0.2,0,0.2,0h0c0,0,0.1,0,0.1,0h0h0c0,0,0,0,0.1,0c0.1,0,0.2,0,0.3,0h0h0h0c0,0,0,0,0.1,0h0.1h0h0
										c0,0,0.1,0,0.1,0c0.1,0,0.2,0,0.2,0h0c0,0,0.1,0,0.1,0h0l0,0c0,0,0,0,0.1,0c0.1,0,0.2,0.1,0.3,0.1c0,0,0,0,0,0c0,0,0,0,0,0
										h0c0,0,0,0,0,0l0,0l0,0c0,0,0,0,0,0c0,0,0,0,0,0.1c0,0,0,0.1-0.1,0.2C160.1,55,160.1,55,160.1,55z"/>
								</g>
							</g>
						</g>
					</g>
				</g>
			</g>
		</g>
	</g>
	<g>
		<defs>
			<rect id="SVGID_21_" x="-11.9" y="2.8" width="228.3" height="112.5"/>
		</defs>
		<clipPath id="SVGID_22_">
			<use xlink:href="#SVGID_21_"  style="overflow:visible;"/>
		</clipPath>
		<g id="XMLID_177_" class="st18">
			<g id="XMLID_178_">
				<g id="XMLID_179_">
					<path id="XMLID_180_" class="st4" d="M160,48.6c0,0-12.9-4.2-14.6,2.8c-2,7.7-8.6,6-8.6,6s-7.3-12.6,1.3-15.1S156,39,160,48.6z
						"/>
				</g>
			</g>
		</g>
	</g>
	<g>
		<defs>
			<rect id="SVGID_23_" x="-11.9" y="2.8" width="228.3" height="112.5"/>
		</defs>
		<clipPath id="SVGID_24_">
			<use xlink:href="#SVGID_23_"  style="overflow:visible;"/>
		</clipPath>
		<g id="XMLID_143_" class="st19">
			<path id="XMLID_144_" class="st11" d="M125.2,96.5c5.2-6.9,15.7-9,22.5-3.8l57.6,44.1l-12.1,23.9l-63.4-41
				c-0.2-0.2-0.5-0.4-0.8-0.6C122.2,113.9,120,103.3,125.2,96.5z"/>
		</g>
	</g>
	<g>
		<defs>
			<rect id="SVGID_25_" x="-11.9" y="2.8" width="228.3" height="112.1"/>
		</defs>
		<clipPath id="SVGID_26_">
			<use xlink:href="#SVGID_25_"  style="overflow:visible;"/>
		</clipPath>
		<g id="XMLID_57_" class="st20">
			<g id="XMLID_58_">
				<path id="XMLID_59_" class="st5" d="M126.4,94.5c-0.2,0.3-0.4,0.6-1,1.4c-0.2,0.3-0.5,0.7-0.8,1.1c-0.4,0.5-0.6,1.1-0.9,1.7
					c-0.3,0.7-0.5,1.5-0.7,2.2c-0.2,0.5-0.2,1-0.3,1.5c-0.2,1.6-0.2,3.3,0.2,4.9c0.1,0.7,0.3,1.4,0.6,2.1c0.2,0.7,0.4,1.3,0.8,2
					c0.2,0.5,0.5,0.9,0.8,1.4c0.7,1.4,1.8,2.6,2.7,3.8c0.8,1,1.8,1.9,2.7,2.8c0.5,0.4,1,0.8,1.5,1.3c0.4,0.3,0.8,0.7,1.3,1l0.8,0.6
					c1,0.7,2.1,1.4,3.2,2.1l3.7,2.3c1.4,0.8,2.7,1.6,4.1,2.4c0.1,0.1,0.2,0.1,0.4,0.2l0.5,0.3l0.2,0.1c0.4,0.2,0.9,0.5,1.3,0.7
					l2.6,1.5l0.9,0.5l1.4,0.8c0.6,0.4,1.3,0.8,1.9,1.1c0.5,0.3,1.1,0.6,1.6,1l0.9,0.5c0.3,0.2,0.5,0.3,0.8,0.5
					c1.3,0.8,2.8,1.7,4,2.5l3.3,2.1l1.7,1.1c0.4,0.3,0.9,0.6,1.3,0.9l0.9,0.6c1.1,0.7,2.1,1.4,3.2,2l3.7,2.4
					c1.3,0.9,2.6,1.8,3.9,2.6c0.3,0.2,0.6,0.4,0.9,0.6c0.4,0.3,0.8,0.5,1.2,0.8l2.5,1.7c1.6,1.1,3.1,2.2,4.7,3.3
					c0.9,0.6,1.7,1.2,2.6,1.8c0.3,0.2,0.6,0.4,0.9,0.7c0.3,0.2,0.6,0.5,0.9,0.7c0.5,0.4,0.7,0.7,0.6,0.7c-0.1,0-0.5-0.2-1-0.4
					c-0.4-0.2-1-0.6-1.6-1c-0.3-0.2-0.6-0.4-1-0.7l-1.7-1.2c-0.5-0.4-1.1-0.7-1.6-1.1c-1.6-1.1-3.2-2.2-4.8-3.3
					c-0.6-0.4-1.2-0.8-1.8-1.2c-0.7-0.5-1.3-0.9-2-1.4l-0.2-0.1l-0.2-0.1c-0.7-0.4-1.6-1.1-2.3-1.5l-2.6-1.7
					c-1.9-1.2-3.7-2.4-5.6-3.6l-1.1-0.7l-2.9-1.8c-0.4-0.3-1-0.6-1.4-0.9c-0.4-0.3-0.8-0.5-1.2-0.8c-0.7-0.4-1.4-0.8-2.1-1.3
					c-2.8-1.7-5.4-3.4-8.2-5l-1.4-0.8l-1.1-0.7l-1.4-0.8l-1.6-0.9l-1.7-1c-0.2-0.1-0.4-0.2-0.6-0.4c-0.5-0.3-1.1-0.6-1.5-0.9
					l-2.7-1.6c-1.9-1.1-3.8-2.3-5.6-3.7l-1.1-0.8c-0.9-0.7-1.8-1.4-2.6-2.2c-0.4-0.4-0.9-0.8-1.2-1.2c-0.3-0.4-0.6-0.7-0.9-1.1
					c-0.5-0.6-1.1-1.3-1.5-1.9c-1.9-2.7-3.2-5.8-3.5-9.1c0-0.5-0.1-1.1-0.1-1.6c0-0.4,0-0.9,0.1-1.3c0.1-0.5,0.1-1.1,0.2-1.6
					c0.1-0.6,0.3-1.2,0.5-1.8c0.2-0.7,0.5-1.3,0.8-1.9c0.3-0.6,0.5-0.9,0.9-1.4c0.3-0.4,0.6-0.9,1-1.2c0.2-0.2,0.4-0.4,0.6-0.5
					c0.4-0.2,0.6-0.3,0.7-0.3C126.6,94.2,126.5,94.4,126.4,94.5z"/>
			</g>
		</g>
	</g>
	<g>
		<defs>
			<rect id="SVGID_27_" x="-11.9" y="2.8" width="228.3" height="112.5"/>
		</defs>
		<clipPath id="SVGID_28_">
			<use xlink:href="#SVGID_27_"  style="overflow:visible;"/>
		</clipPath>
		<g id="XMLID_54_" class="st21">
			<g id="XMLID_55_">
				<path id="XMLID_56_" class="st5" d="M187.8,156.3c-0.1-0.1-0.1-0.2,0-0.5c0-0.1,0.1-0.2,0.2-0.3l0.2-0.4
					c0.1-0.2,0.2-0.4,0.2-0.5c0.1-0.1,0.1-0.2,0.2-0.3c0.2-0.4,0.4-0.8,0.6-1.1l0.2-0.5c0.1-0.1,0.2-0.3,0.3-0.5
					c0.1-0.1,0.1-0.2,0.2-0.4c0.2-0.3,0.4-0.7,0.6-1c0.2-0.3,0.3-0.6,0.5-0.9l0.2-0.4c0.1-0.1,0.1-0.2,0.2-0.3l0.1-0.2
					c0.1-0.3,0.3-0.6,0.4-0.9c0.2-0.3,0.4-0.6,0.6-0.9c0.2-0.3,0.4-0.7,0.6-1l0-0.1l0.1-0.1v0c0.1-0.1,0.1-0.2,0.2-0.3l0.4-0.6
					l0.1-0.2l0.2-0.3l0.3-0.5c0.1-0.1,0.2-0.3,0.2-0.4l0.1-0.2c0-0.1,0.1-0.1,0.1-0.2c0.2-0.3,0.4-0.7,0.6-1
					c0.2-0.3,0.4-0.6,0.5-0.8l0.2-0.4c0.1-0.1,0.2-0.2,0.2-0.3l0.1-0.2c0.2-0.2,0.3-0.6,0.5-0.8c0.2-0.3,0.4-0.6,0.6-0.9
					c0.2-0.3,0.4-0.7,0.6-1c0-0.1,0.1-0.2,0.1-0.2c0.1-0.1,0.1-0.2,0.2-0.3l0.4-0.6c0.2-0.4,0.6-0.8,0.8-1.2
					c0.1-0.2,0.2-0.4,0.4-0.7c0-0.1,0.1-0.2,0.2-0.2c0.1-0.1,0.2-0.1,0.2-0.2c0.2-0.1,0.3-0.1,0.3,0c0.1,0.1,0.1,0.2,0.1,0.4
					c0,0.1-0.1,0.3-0.2,0.4c0,0.1-0.1,0.2-0.2,0.2c-0.1,0.2-0.2,0.3-0.3,0.4c-0.1,0.1-0.2,0.2-0.3,0.4c-0.2,0.4-0.5,0.8-0.8,1.2
					c-0.1,0.2-0.2,0.3-0.2,0.4c-0.1,0.2-0.2,0.3-0.3,0.5l0,0c0,0,0,0,0,0c-0.1,0.2-0.2,0.4-0.3,0.6l-0.4,0.6
					c-0.3,0.5-0.6,0.9-0.9,1.4c0,0.1-0.1,0.2-0.2,0.3c-0.2,0.2-0.3,0.5-0.4,0.7c-0.1,0.1-0.1,0.2-0.2,0.4c-0.1,0.1-0.1,0.2-0.2,0.3
					l-0.3,0.5c-0.4,0.7-0.8,1.3-1.2,2.1c-0.1,0.1-0.1,0.2-0.2,0.3c0,0.1-0.1,0.2-0.2,0.3c0,0.1-0.1,0.2-0.2,0.4
					c-0.1,0.2-0.2,0.3-0.2,0.4l-0.2,0.4c0,0-0.1,0.1-0.1,0.2c-0.1,0.1-0.2,0.3-0.2,0.4l-0.4,0.7c-0.3,0.5-0.5,0.9-0.8,1.4
					c0,0.1-0.1,0.2-0.2,0.3c-0.1,0.2-0.3,0.5-0.4,0.7c-0.1,0.1-0.1,0.2-0.2,0.4c-0.1,0.1-0.1,0.2-0.2,0.3l-0.3,0.5
					c-0.4,0.7-0.8,1.4-1.2,2.1c-0.1,0.1-0.1,0.2-0.2,0.4c0,0.1-0.1,0.2-0.2,0.3c0,0.1-0.1,0.2-0.2,0.4c-0.1,0.2-0.2,0.3-0.2,0.4
					l-0.2,0.4c-0.1,0.1-0.1,0.2-0.2,0.3c-0.1,0.1-0.1,0.2-0.2,0.3c0,0-0.1,0.1-0.2,0.1c-0.1,0.1-0.2,0.1-0.3,0
					C187.8,156.4,187.8,156.4,187.8,156.3z"/>
			</g>
		</g>
	</g>
	<g>
		<defs>
			<rect id="SVGID_29_" x="-11.9" y="2.8" width="228.3" height="112.5"/>
		</defs>
		<clipPath id="SVGID_30_">
			<use xlink:href="#SVGID_29_"  style="overflow:visible;"/>
		</clipPath>
		<g id="XMLID_51_" class="st22">
			<g id="XMLID_52_">
				<path id="XMLID_53_" class="st5" d="M166.4,106.1c0.2,0,0.4,0.1,0.8,0.3c0.2,0.1,0.3,0.2,0.5,0.4c0.2,0.2,0.5,0.4,0.7,0.6
					c0.3,0.2,0.6,0.4,0.9,0.7c0.2,0.2,0.4,0.3,0.6,0.5c0.6,0.5,1.3,1,1.9,1.5c0.3,0.2,0.6,0.4,0.8,0.7c0.3,0.2,0.5,0.4,0.8,0.7
					c0.2,0.2,0.4,0.3,0.6,0.4c0.6,0.5,1.2,0.9,1.8,1.4c0.5,0.4,1,0.8,1.5,1.1c0.2,0.2,0.5,0.4,0.7,0.6c0.2,0.2,0.4,0.3,0.6,0.5
					c0.1,0.1,0.2,0.2,0.4,0.3c0.5,0.4,1,0.7,1.4,1.1c0.5,0.4,1.1,0.8,1.6,1.3c0.6,0.4,1.2,0.9,1.8,1.4c0,0,0.1,0.1,0.2,0.1
					s0.1,0.1,0.2,0.2c0,0,0,0,0.1,0c0.2,0.1,0.4,0.3,0.5,0.4c0.4,0.3,0.8,0.6,1.1,0.9c0.1,0.1,0.2,0.2,0.4,0.3
					c0.2,0.2,0.4,0.3,0.6,0.4c0.3,0.2,0.6,0.4,0.8,0.7c0.2,0.2,0.4,0.4,0.7,0.6c0.1,0.1,0.2,0.2,0.4,0.3c0.1,0.1,0.2,0.2,0.4,0.2
					c0.6,0.5,1.2,0.9,1.8,1.4c0.5,0.4,1,0.8,1.5,1.1c0.2,0.2,0.5,0.4,0.7,0.6c0.2,0.2,0.4,0.3,0.6,0.5c0.1,0.1,0.2,0.2,0.4,0.3
					c0.5,0.4,1,0.7,1.4,1.1c0.5,0.4,1.1,0.9,1.6,1.3c0.6,0.4,1.2,0.9,1.8,1.4c0.2,0.1,0.3,0.2,0.4,0.3c0.2,0.1,0.4,0.3,0.5,0.4
					c0.4,0.3,0.8,0.6,1.1,0.9c0.7,0.6,1.4,1.2,2.1,1.7c0.4,0.3,0.8,0.6,1.2,0.9c0.2,0.1,0.3,0.2,0.4,0.4c0.1,0.1,0.2,0.3,0.4,0.4
					c0.2,0.2,0.3,0.4,0.2,0.4c-0.1,0-0.3,0-0.5-0.1c-0.2-0.1-0.5-0.2-0.8-0.5c-0.2-0.1-0.3-0.2-0.4-0.3c-0.2-0.2-0.5-0.4-0.8-0.6
					s-0.5-0.4-0.7-0.6c-0.7-0.5-1.5-1.1-2.2-1.7c-0.3-0.2-0.5-0.4-0.8-0.6c-0.3-0.2-0.6-0.5-0.9-0.7c0,0-0.1,0-0.1-0.1
					c0,0-0.1,0-0.1-0.1c-0.3-0.2-0.7-0.5-1.1-0.8c-0.4-0.3-0.8-0.6-1.2-0.9c-0.8-0.7-1.7-1.3-2.5-2c-0.2-0.1-0.3-0.2-0.5-0.4
					c-0.4-0.3-0.9-0.7-1.3-1c-0.2-0.2-0.4-0.3-0.6-0.5c-0.2-0.2-0.3-0.3-0.5-0.4c-0.3-0.2-0.6-0.4-0.9-0.7c-1.2-0.9-2.4-1.9-3.6-2.8
					c-0.2-0.2-0.4-0.3-0.6-0.5c-0.2-0.1-0.3-0.3-0.5-0.4c-0.2-0.2-0.4-0.3-0.6-0.4c-0.2-0.2-0.4-0.4-0.7-0.5
					c-0.2-0.2-0.5-0.4-0.7-0.6c-0.1-0.1-0.2-0.2-0.2-0.2c-0.2-0.2-0.4-0.4-0.6-0.5c-0.4-0.3-0.8-0.6-1.2-0.9
					c-0.8-0.7-1.7-1.3-2.5-1.9c-0.2-0.1-0.3-0.2-0.5-0.4c-0.4-0.3-0.9-0.7-1.3-1c-0.2-0.2-0.4-0.3-0.6-0.5c-0.2-0.2-0.3-0.3-0.5-0.4
					c-0.3-0.2-0.6-0.4-0.9-0.7c-1.2-0.9-2.4-1.9-3.6-2.8c-0.2-0.2-0.4-0.3-0.6-0.5c-0.2-0.1-0.3-0.3-0.5-0.4
					c-0.2-0.2-0.4-0.3-0.6-0.4c-0.2-0.2-0.4-0.4-0.7-0.5c-0.2-0.2-0.5-0.4-0.7-0.6c-0.2-0.2-0.4-0.3-0.6-0.5
					c-0.2-0.2-0.4-0.3-0.6-0.4c-0.1-0.1-0.2-0.2-0.2-0.3c-0.1-0.2-0.2-0.3-0.1-0.4C166.2,106.1,166.3,106.1,166.4,106.1z"/>
			</g>
		</g>
	</g>
	<g>
		<defs>
			<rect id="SVGID_31_" x="-11.9" y="2.8" width="228.3" height="112.1"/>
		</defs>
		<clipPath id="SVGID_32_">
			<use xlink:href="#SVGID_31_"  style="overflow:visible;"/>
		</clipPath>
		<g id="XMLID_48_" class="st23">
			<g id="XMLID_49_">
				<path id="XMLID_50_" class="st5" d="M198.3,130.7c-0.1-0.1-0.1-0.2,0-0.4c0-0.1,0-0.1,0.1-0.2c0-0.1,0.1-0.2,0.2-0.3
					c0.1-0.1,0.1-0.2,0.2-0.4c0-0.1,0.1-0.2,0.1-0.2c0.1-0.2,0.2-0.5,0.4-0.8c0.1-0.1,0.1-0.2,0.2-0.3c0.1-0.1,0.2-0.2,0.2-0.3
					c0-0.1,0.1-0.2,0.1-0.2c0.2-0.2,0.2-0.5,0.4-0.7c0.1-0.2,0.2-0.4,0.3-0.6c0-0.1,0.1-0.2,0.2-0.3c0-0.1,0.1-0.2,0.2-0.2
					c0,0,0-0.1,0.1-0.2c0.1-0.2,0.2-0.4,0.3-0.6c0.1-0.2,0.2-0.4,0.4-0.7c0.1-0.2,0.2-0.5,0.4-0.7l0,0c0,0,0,0,0-0.1c0,0,0,0,0,0
					c0-0.1,0.1-0.2,0.1-0.2c0.1-0.2,0.2-0.3,0.2-0.4c0,0,0-0.1,0.1-0.2c0-0.1,0.1-0.2,0.1-0.2c0.1-0.1,0.1-0.2,0.2-0.3
					c0-0.1,0.1-0.2,0.2-0.3c0,0,0-0.1,0.1-0.2c0,0,0-0.1,0.1-0.2c0.2-0.2,0.2-0.5,0.4-0.7c0.1-0.2,0.2-0.4,0.3-0.6
					c0-0.1,0.1-0.2,0.2-0.3c0-0.1,0.1-0.2,0.2-0.2c0,0,0-0.1,0.1-0.2c0.1-0.2,0.2-0.4,0.3-0.6c0.1-0.2,0.2-0.4,0.4-0.7
					c0.1-0.2,0.2-0.5,0.4-0.7c0,0,0-0.1,0.1-0.2c0-0.1,0.1-0.2,0.1-0.2c0.1-0.2,0.2-0.3,0.2-0.4c0.2-0.3,0.4-0.5,0.5-0.8
					c0.1-0.2,0.2-0.3,0.2-0.5c0,0,0.1-0.1,0.1-0.2s0.1-0.1,0.2-0.1c0.1-0.1,0.2-0.1,0.3,0s0.1,0.2,0.1,0.3c0,0.1,0,0.2-0.1,0.3
					c0,0-0.1,0.1-0.1,0.2c0,0.1-0.1,0.2-0.2,0.3c0,0.1-0.1,0.2-0.2,0.3c-0.1,0.3-0.3,0.6-0.5,0.8c0,0.1-0.1,0.2-0.2,0.3
					c-0.1,0.1-0.1,0.2-0.2,0.4c0,0,0,0,0,0v0c0,0.1-0.1,0.3-0.2,0.4c-0.1,0.2-0.2,0.3-0.2,0.5c-0.2,0.3-0.4,0.7-0.6,1
					c0,0.1-0.1,0.1-0.1,0.2c-0.1,0.2-0.2,0.3-0.3,0.5c0,0.1-0.1,0.2-0.1,0.2s-0.1,0.1-0.1,0.2c-0.1,0.1-0.1,0.2-0.2,0.4
					c-0.3,0.5-0.6,0.9-0.8,1.4c0,0.1-0.1,0.2-0.1,0.2s-0.1,0.1-0.1,0.2s-0.1,0.2-0.1,0.2s-0.1,0.2-0.2,0.3c0,0.1-0.1,0.2-0.2,0.3
					c0,0,0,0.1-0.1,0.1c0,0.1-0.1,0.2-0.2,0.2c-0.1,0.2-0.2,0.3-0.2,0.5c-0.2,0.3-0.4,0.7-0.6,1c0,0.1-0.1,0.1-0.1,0.2
					c-0.1,0.2-0.2,0.3-0.3,0.5c0,0.1-0.1,0.2-0.1,0.2c0,0.1-0.1,0.1-0.2,0.2c-0.1,0.1-0.1,0.2-0.2,0.4c-0.3,0.5-0.6,0.9-0.8,1.4
					c0,0.1-0.1,0.2-0.1,0.2c0,0.1-0.1,0.1-0.1,0.2c0,0.1-0.1,0.2-0.1,0.2s-0.1,0.2-0.2,0.3c0,0.1-0.1,0.2-0.2,0.3
					c0,0.1-0.1,0.2-0.2,0.2c0,0.1-0.1,0.2-0.1,0.2c0,0-0.1,0-0.1,0.1c-0.1,0-0.2,0-0.2,0C198.3,130.8,198.3,130.8,198.3,130.7z"/>
			</g>
		</g>
	</g>
	<g>
		<defs>
			<rect id="SVGID_33_" x="-11.9" y="2.8" width="228.3" height="112.1"/>
		</defs>
		<clipPath id="SVGID_34_">
			<use xlink:href="#SVGID_33_"  style="overflow:visible;"/>
		</clipPath>
		<g id="XMLID_45_" class="st24">
			<g id="XMLID_46_">
				<path id="XMLID_47_" class="st5" d="M135.2,75.4c0.1,0.1,0.2,0.2,0.2,0.6c0,0.1,0,0.3,0.1,0.4l0.1,0.7c0,0.2,0.1,0.5,0.2,0.8
					c0,0.2,0,0.3,0.1,0.5c0.1,0.5,0.3,1.1,0.4,1.6c0.1,0.2,0.2,0.5,0.2,0.7s0.2,0.4,0.2,0.7c0.1,0.2,0.2,0.3,0.2,0.5
					c0.2,0.5,0.5,0.9,0.7,1.3c0.2,0.4,0.4,0.7,0.7,1.1c0.1,0.2,0.3,0.3,0.4,0.5l0.3,0.4l0.2,0.2c0.3,0.3,0.6,0.5,0.9,0.8
					c0.4,0.3,0.8,0.5,1.2,0.8c0.4,0.2,0.9,0.5,1.4,0.6c0,0,0.1,0,0.1,0l0.2,0h0c0.2,0,0.3,0.1,0.4,0.1c0.3,0.1,0.6,0.1,0.9,0.2
					l0.3,0l0.5,0h0.7c0.2,0,0.4,0,0.6,0l0.3,0c0.1,0,0.2,0,0.3,0c0.5,0,1-0.2,1.5-0.4c0.4-0.2,0.8-0.3,1.1-0.5
					c0.2-0.1,0.4-0.2,0.5-0.4c0.2-0.1,0.3-0.2,0.4-0.3l0.2-0.2c0.3-0.3,0.5-0.6,0.8-0.9c0.3-0.4,0.5-0.8,0.8-1.2
					c0.2-0.4,0.4-0.9,0.6-1.4c0-0.1,0.1-0.2,0.1-0.4c0-0.2,0.1-0.3,0.1-0.4c0.1-0.3,0.2-0.7,0.2-1c0.1-0.6,0.2-1.2,0.2-1.8
					c0-0.4,0-0.7,0-1.1c0-0.1,0-0.2,0-0.4c0-0.1,0-0.2,0-0.4c0-0.2,0.1-0.3,0.2-0.3c0.1,0,0.2,0.2,0.3,0.3c0.1,0.2,0.2,0.4,0.2,0.7
					c0,0.1,0,0.2,0,0.4c0,0.2,0,0.5,0,0.7c0,0.2,0,0.4,0,0.7c0,0.7-0.2,1.3-0.3,2c0,0.2-0.1,0.5-0.2,0.7c-0.1,0.3-0.2,0.5-0.3,0.8
					l0,0.1c0,0,0,0,0,0.1c0,0.3-0.2,0.6-0.4,0.9c-0.2,0.3-0.3,0.7-0.5,0.9c-0.4,0.7-0.9,1.3-1.5,1.8l-0.4,0.3
					c-0.3,0.2-0.6,0.5-1,0.7c-0.2,0.1-0.4,0.2-0.5,0.3s-0.3,0.1-0.5,0.2c-0.3,0.1-0.5,0.2-0.8,0.3c-1.1,0.3-2.2,0.3-3.3,0.2
					c-0.2,0-0.4,0-0.6-0.1c-0.2,0-0.3-0.1-0.4-0.1c-0.2,0-0.4-0.1-0.5-0.1c-0.2,0-0.4-0.1-0.6-0.2c-0.2-0.1-0.4-0.2-0.6-0.2
					c-0.1,0-0.2-0.1-0.2-0.1c-0.2-0.1-0.4-0.2-0.6-0.2c-0.3-0.2-0.6-0.4-0.9-0.5c-0.6-0.4-1.3-0.9-1.8-1.5l-0.3-0.3
					c-0.3-0.3-0.5-0.6-0.7-0.9c-0.1-0.2-0.2-0.3-0.3-0.5c-0.1-0.2-0.2-0.3-0.2-0.5c-0.2-0.2-0.3-0.4-0.4-0.7c-0.5-1-0.9-2-1.3-3.1
					c0-0.2-0.1-0.3-0.2-0.5c0-0.2,0-0.3-0.1-0.4c0-0.2-0.1-0.3-0.1-0.5c0-0.2-0.1-0.4-0.1-0.6l-0.1-0.7c0-0.2,0-0.4,0-0.6
					c0-0.2,0-0.4,0-0.5c0-0.1,0-0.2,0.1-0.2c0-0.2,0.1-0.2,0.2-0.2C135.2,75.3,135.2,75.3,135.2,75.4z"/>
			</g>
		</g>
	</g>
</g>
<path class="st25" d="M238.2,2.8h-26.4c-2.4,0-4.4,2-4.4,4.4v15c0,2.4,2,4.4,4.4,4.4h8.3c0.4,0,0.9,0.1,1.2,0.3l8.2,4.5l0.8-2.9
	c0.3-1.1,1.3-1.9,2.5-1.9h5.4c2.4,0,4.4-2,4.4-4.4v-15C242.6,4.8,240.6,2.8,238.2,2.8z"/>
<rect x="212.7" y="8.4" class="st26" width="24.5" height="1.6"/>
<rect x="212.7" y="12.6" class="st26" width="24.5" height="1.6"/>
<rect x="212.7" y="16.7" class="st26" width="24.5" height="1.6"/>
<g>
	<path class="st27" d="M153.9,4.1h-26.4c-2.4,0-4.4,2-4.4,4.4v15c0,2.4,2,4.4,4.4,4.4h8.3c0.4,0,0.8,0.1,1.2,0.3l8.2,4.5l0.8-2.9
		c0.3-1.1,1.3-1.9,2.5-1.9h5.4c2.4,0,4.4-2,4.4-4.4v-15C158.3,6,156.3,4.1,153.9,4.1z"/>
	<g>
		<path class="st26" d="M147,15.9c0,1.1,0.9,2.1,2,2.1c1.1,0,2.1-0.9,2.1-2.1s-0.9-2.1-2.1-2.1C147.9,13.9,147,14.8,147,15.9z"/>
		<path class="st26" d="M138.2,15.9c0,1.1,0.9,2.1,2.1,2.1c1.1,0,2-0.9,2-2.1s-0.9-2.1-2-2.1C139.1,13.9,138.2,14.8,138.2,15.9z"/>
		<path class="st26" d="M129.4,15.9c0,1.1,0.9,2.1,2.1,2.1c1.1,0,2-0.9,2-2.1s-0.9-2.1-2-2.1C130.3,13.9,129.4,14.8,129.4,15.9z"/>
	</g>
</g>
</svg>
