<?xml version="1.0" encoding="utf-8"?>
<!-- Generator: Adobe Illustrator 25.4.1, SVG Export Plug-In . SVG Version: 6.00 Build 0)  -->
<svg version="1.1" id="Modo_de_aislamiento" xmlns="http://www.w3.org/2000/svg" xmlns:xlink="http://www.w3.org/1999/xlink"
	 x="0px" y="0px" viewBox="0 0 146 90.94" style="enable-background:new 0 0 146 90.94;" xml:space="preserve">
<style type="text/css">
	.st0{clip-path:url(#SVGID_00000172421534618677840170000011144624301813765527_);}
	.st1{fill:#EB4A6D;}
	.st2{fill:none;stroke:#FFFFFF;stroke-width:0.3613;stroke-linecap:round;stroke-linejoin:round;stroke-miterlimit:10;}
	.st3{fill:none;stroke:#FFFFFF;stroke-width:0.3625;stroke-linecap:round;stroke-linejoin:round;stroke-miterlimit:10;}
	.st4{fill:#1D1D1B;}
	.st5{fill:#F2CDAC;}
	.st6{fill:#2C2F78;}
	.st7{fill:#1A1B1D;}
	.st8{fill:#FFFFFF;}
</style>
<g>
	<defs>
		<rect id="SVGID_1_" width="146" height="90.94"/>
	</defs>
	<clipPath id="SVGID_00000157276374785847002260000013985403598027561663_">
		<use xlink:href="#SVGID_1_"  style="overflow:visible;"/>
	</clipPath>
	<g style="clip-path:url(#SVGID_00000157276374785847002260000013985403598027561663_);">
		<polygon class="st1" points="55.18,80.87 41.09,86.97 12.45,214.84 126.09,214.84 103.42,87.79 86.18,80.87 		"/>
		<g>
			<path class="st2" d="M48.16,213.99"/>
			<path class="st2" d="M64.31,86.97"/>
		</g>
		<line class="st3" x1="55.79" y1="87.14" x2="87.09" y2="87.14"/>
		<g id="XMLID_83_">
			<path id="XMLID_84_" class="st4" d="M63.27,12.28c1.95-4.64,7.58-6.92,12.27-5.14c4.7,1.78,7.61,7.18,6.82,12.15
				c-0.37,2.36-1.54,4.65-3.49,6.04c-3.49,2.49-8.69,1.28-11.63-1.81C64.31,20.4,63.24,16.57,63.27,12.28"/>
		</g>
		<g id="XMLID_81_">
			<path id="XMLID_82_" class="st4" d="M76.08,9.17c-1.14-2.94,0.06-6.62,2.71-8.33c0.81-0.52,1.74-0.87,2.7-0.81
				c1.48,0.09,2.76,1.19,3.4,2.52c0.63,1.3,0.73,2.84,0.27,4.21c-0.5,1.52-1.65,2.78-3.02,3.61c-1.37,0.84-2.94,1.27-4.54,1.48"/>
		</g>
		<g id="XMLID_79_">
			<path id="XMLID_80_" class="st5" d="M91.18,33.19l38.39,26.32l0.4,0.32c1.17,0.91,1.94,2.15,2.29,3.48l11.59,43.99
				c0.78,2.97-0.99,6.01-3.95,6.79c-2.81,0.75-5.69-0.84-6.65-3.52l-15.19-42.88l2.7,3.8L80.7,47.43c-4.01-2.78-5.02-8.3-2.23-12.31
				c2.78-4.01,8.3-5.02,12.31-2.23C90.9,32.98,91.05,33.1,91.18,33.19z"/>
		</g>
		<g id="XMLID_77_">
			<path id="XMLID_78_" class="st5" d="M62.13,48.89L46.85,76.19l-0.26,0.55c-0.21,0.41-0.47,0.82-0.78,1.16L15.2,112.45
				c-2.03,2.3-5.55,2.52-7.84,0.47c-2.18-1.92-2.47-5.2-0.76-7.49L34.29,68.5l-1.04,1.69l12.7-28.04c1.78-4.54,6.92-7.15,11.47-5.37
				c4.54,1.78,6.77,6.92,4.99,11.47C62.33,48.45,62.22,48.68,62.13,48.89z"/>
		</g>
		<g id="XMLID_75_">
			<path id="XMLID_76_" class="st6" d="M36.91,87.91c0,0,6.04-24.21,7.84-41c1.42-13.19,15.31-19.76,30.59-18.89
				c15.28,0.87,22.43,8.81,23.12,20.94c0.69,12.12,7.2,39.2,7.2,39.2s-13.05,6.42-34.11,5.93C50.48,93.62,36.91,87.91,36.91,87.91z"
				/>
		</g>
		<g id="XMLID_73_">
			<path id="XMLID_74_" class="st5" d="M64.28,28.77c0,0,1.31,21.12,6.89,22.02c5.58,0.9,7.21-22.48,7.21-22.48
				S72.09,27.14,64.28,28.77z"/>
		</g>
		<g id="XMLID_70_">
			<g id="XMLID_71_">
				<path id="XMLID_72_" class="st5" d="M71.13,34.47c-2.53,0-4.59-2.06-4.59-4.59v-8.2c0-2.53,2.06-4.59,4.59-4.59
					c2.53,0,4.59,2.06,4.59,4.59v8.2C75.7,32.41,73.66,34.47,71.13,34.47z"/>
			</g>
		</g>
		<g id="XMLID_67_">
			<g id="XMLID_68_">
				<path id="XMLID_69_" class="st7" d="M66.54,29.88v-8.2c0-2.53,2.06-4.59,4.59-4.59c2.53,0,4.59,2.06,4.59,4.59l0,0l-3.05,5.25
					L66.54,29.88z"/>
			</g>
		</g>
		<g id="XMLID_64_">
			<g id="XMLID_65_">
				<path id="XMLID_66_" class="st5" d="M68.49,28.07c-2.49-0.14-5.32-1.56-6.79-3.58c-1.39-1.91-1.11-4.22-0.66-6.39
					c0.46-2.17,1.05-4.54,2.49-6.31c1.43-1.77,3.69-2.78,5.96-2.65c3.96,0.21,7,3.6,6.79,7.56l-0.24,4.59
					C75.84,25.24,72.45,28.28,68.49,28.07z"/>
			</g>
		</g>
		<g id="XMLID_61_">
			<g id="XMLID_62_">
				<path id="XMLID_63_" class="st5" d="M74.65,20.72c0.4,0.14,0.78,0.12,1.19,0.2c0.15,0.03,0.27,0.05,0.43,0.12
					c0.02,0.02,0.9,0.58,0.47-0.17c-0.02-0.02-0.82,0.08-0.93,0.08c-0.23,0-0.47-0.02-0.7-0.05c-0.09-0.02-0.17-0.03-0.26-0.05
					c-0.32-0.14-0.37-0.09-0.14,0.15c-0.09-0.63-0.87-0.95-1.42-0.81c-0.67,0.18-0.9,0.81-0.81,1.42c0.2,1.36,1.8,1.54,2.91,1.62
					c1.01,0.06,2.24,0.03,2.99-0.73c0.85-0.85,0.63-2.17-0.21-2.93c-0.38-0.34-0.85-0.66-1.34-0.81c-0.5-0.17-1.05-0.09-1.56-0.27
					C73.87,17.97,73.26,20.2,74.65,20.72L74.65,20.72z"/>
			</g>
		</g>
		<g id="XMLID_38_">
			<g id="XMLID_58_">
				<g id="XMLID_59_">
					<path id="XMLID_60_" class="st7" d="M66.26,21.07c-0.03-0.06-0.05-0.08-0.09-0.09c-0.02,0-0.05,0-0.06,0l-0.08,0.02
						c-0.03,0-0.06-0.02-0.11,0c-0.02,0-0.05,0.02-0.06,0.02c-0.08,0-0.14,0-0.2,0l-0.09-0.02c-0.03,0-0.06,0-0.09,0
						c-0.02,0-0.03-0.03-0.06-0.03c-0.06,0-0.11-0.05-0.15-0.05c-0.05-0.02-0.08-0.05-0.11-0.08c-0.02-0.02-0.03-0.03-0.05-0.05
						c-0.02-0.02-0.03-0.02-0.03-0.03l-0.02-0.03c-0.02-0.05-0.02-0.09-0.03-0.12c-0.02-0.05-0.02-0.11-0.03-0.15
						c0-0.06,0-0.11,0-0.18v-0.02c0-0.02,0-0.02,0-0.02l0,0c0-0.02,0-0.05,0.02-0.06l0.03-0.12v-0.05l0.02-0.08l0.02-0.09
						c0-0.03,0-0.06,0-0.09c0-0.02,0.02-0.03,0.02-0.05s0.02-0.03,0.02-0.05c0-0.08,0.05-0.14,0.03-0.21
						c0.02-0.06,0.02-0.12,0.03-0.17l0.02-0.09c0-0.03,0-0.05,0-0.08l0.02-0.05c0.02-0.06,0.03-0.11,0.05-0.17
						c0.02-0.06,0.02-0.12,0.03-0.2c0.02-0.08,0.03-0.14,0.03-0.21c0-0.02,0.02-0.03,0.02-0.05s0.02-0.05,0.02-0.06l0.03-0.14
						c0.02-0.08,0-0.17,0.03-0.26c0.02-0.05,0.03-0.09,0.03-0.14c0-0.02,0-0.03,0-0.05c0-0.02-0.03-0.05-0.03-0.06
						c-0.03-0.03-0.06-0.06-0.12-0.06c-0.05,0-0.09,0-0.12,0.02c-0.05,0.02-0.06,0.05-0.06,0.08c0,0.02-0.02,0.03-0.02,0.05
						c-0.02,0.03-0.02,0.06-0.02,0.09s0,0.06-0.02,0.09c-0.03,0.08-0.03,0.17-0.05,0.26C65,18.29,65,18.32,64.98,18.35
						c0,0.03-0.02,0.08-0.02,0.11v0.02v0.02c-0.03,0.03-0.03,0.08-0.03,0.12c-0.02,0.05-0.02,0.09-0.03,0.14
						c-0.02,0.09-0.03,0.18-0.05,0.29c0,0.02,0,0.05-0.02,0.06c-0.02,0.05-0.03,0.09-0.03,0.15c0,0.03-0.02,0.05-0.02,0.08
						s0,0.05,0,0.06c-0.02,0.03-0.02,0.08-0.03,0.11c-0.03,0.14-0.05,0.29-0.08,0.43c0,0.03-0.02,0.05-0.02,0.08
						c0,0.02,0,0.05,0,0.06c0,0.03-0.02,0.05-0.02,0.08c-0.02,0.03-0.02,0.06-0.02,0.09l-0.02,0.09c0,0.02,0,0.03,0,0.03
						c0,0.03,0,0.06,0,0.09c0,0.06,0,0.11,0.02,0.17c0.02,0.12,0.05,0.24,0.12,0.35c0.02,0.03,0.03,0.05,0.05,0.06
						c0.03,0.06,0.08,0.11,0.12,0.15c0.03,0.02,0.05,0.05,0.08,0.06c0.03,0.02,0.05,0.02,0.08,0.03c0.05,0.03,0.08,0.05,0.12,0.06
						c0.17,0.06,0.34,0.06,0.49,0.08c0.03,0,0.05,0,0.08,0c0.02,0,0.05-0.02,0.06-0.02c0.03,0,0.05,0,0.08,0c0.03,0,0.06,0,0.09,0
						l0.09-0.02c0.03,0,0.05-0.02,0.08-0.03c0.02-0.02,0.05,0,0.06-0.02c0.02-0.02,0.02-0.03,0.03-0.05
						c0.02-0.03,0.02-0.08,0.02-0.12C66.29,21.11,66.28,21.1,66.26,21.07z"/>
				</g>
			</g>
			<g id="XMLID_55_">
				<g id="XMLID_56_">
					<path id="XMLID_57_" class="st7" d="M77.45,20.65c0.05-0.05,0.05-0.06,0.05-0.11c0-0.02-0.02-0.03-0.02-0.03l-0.03-0.03
						c-0.02-0.02-0.02-0.05-0.05-0.05c-0.02,0-0.03-0.02-0.03-0.03c-0.03-0.03-0.06-0.06-0.11-0.09l-0.05-0.03
						c-0.02-0.02-0.05,0-0.06-0.02c-0.02,0-0.02-0.03-0.03-0.03c-0.05,0-0.08-0.05-0.12-0.03c-0.05-0.02-0.08-0.02-0.09-0.02
						l-0.05-0.02c-0.02,0-0.03,0-0.05,0H76.8c-0.03,0-0.06-0.03-0.09-0.03c-0.05,0-0.08,0-0.12,0c-0.05,0-0.08,0-0.12,0.02h-0.02
						h-0.02l0,0c-0.02,0-0.03,0-0.05,0l-0.08,0.02c-0.02,0-0.02,0-0.03,0.02c-0.02,0-0.03,0-0.05,0.02l-0.06,0.02
						c-0.02,0-0.03,0.02-0.05,0.03c-0.02,0-0.02,0-0.03,0.02c-0.02,0-0.02,0-0.03,0c-0.03,0.03-0.08,0.03-0.11,0.08
						c-0.03,0.03-0.06,0.05-0.08,0.06l-0.05,0.03c-0.02,0.02-0.02,0.03-0.03,0.03l-0.02,0.02c-0.03,0.02-0.06,0.03-0.08,0.06
						c-0.03,0.03-0.05,0.06-0.08,0.09c-0.03,0.03-0.06,0.06-0.06,0.11c0,0.02-0.02,0.02-0.02,0.02c-0.02,0.02-0.02,0.02-0.02,0.03
						l-0.05,0.06c-0.03,0.05-0.02,0.11-0.05,0.14c-0.02,0.03-0.03,0.05-0.03,0.08c0,0.02,0,0.02,0,0.03
						c0.02,0.02,0.03,0.03,0.05,0.05c0.03,0.03,0.08,0.05,0.12,0.05c0.05,0,0.08,0,0.12,0c0.03,0,0.06-0.02,0.06-0.03l0.02-0.02
						c0-0.02,0.02-0.03,0.02-0.03c0-0.02,0-0.03,0.02-0.03c0.03-0.03,0.03-0.06,0.05-0.11c0.02-0.02,0.03-0.02,0.03-0.03
						c0-0.02,0.02-0.03,0.02-0.05l0,0l0,0c0.03,0,0.03-0.02,0.05-0.03c0.02-0.02,0.03-0.03,0.05-0.05c0.03-0.03,0.06-0.06,0.08-0.09
						l0.02-0.02c0.02-0.02,0.03-0.02,0.05-0.03c0.02,0,0.02-0.02,0.03-0.02c0-0.02,0-0.02,0.02-0.03c0.02,0,0.03,0,0.05-0.02
						c0.05-0.03,0.11-0.06,0.17-0.06c0.02,0,0.02,0,0.03-0.02l0.02-0.02c0.02,0,0.02,0,0.03,0c0.02,0,0.02,0,0.03,0h0.03h0.02
						c0.02,0,0.02,0,0.03,0s0.05,0,0.06,0c0.05,0,0.06,0,0.12,0c0.02,0,0.02,0,0.03,0c0.02,0.02,0.05,0.02,0.06,0.02
						c0.02,0,0.02,0.02,0.03,0.02c0.02,0,0.02-0.02,0.03,0c0.02,0.02,0.03,0.02,0.05,0.03c0.06,0.02,0.11,0.05,0.15,0.08
						c0,0,0.02,0.02,0.03,0.02c0.02,0,0.02,0,0.03,0c0.02,0,0.02,0.02,0.02,0.03c0,0.02,0.02,0.02,0.03,0.03l0.03,0.03
						c0.02,0.02,0.02,0,0.03,0.02c0.02,0,0.02,0.02,0.03,0.02c0.02,0,0.03-0.02,0.05-0.02c0.03-0.02,0.06-0.03,0.09-0.06
						C77.42,20.69,77.44,20.67,77.45,20.65z"/>
				</g>
			</g>
			<g id="XMLID_52_">
				<g id="XMLID_53_">
					<path id="XMLID_54_" class="st7" d="M77.1,21.65c0.06-0.02,0.08-0.03,0.11-0.05c0.02-0.02,0-0.02,0-0.03l-0.02-0.05
						c0-0.02,0.02-0.05,0-0.06c0-0.02-0.02-0.02-0.02-0.03c-0.02-0.03-0.02-0.08-0.03-0.11l-0.02-0.05
						c-0.02-0.02-0.03-0.03-0.03-0.05s0-0.03-0.02-0.03c-0.03-0.03-0.03-0.08-0.06-0.08c-0.03-0.03-0.05-0.05-0.06-0.06l-0.03-0.03
						c-0.02-0.02-0.02-0.02-0.03-0.02l-0.02-0.02c-0.02-0.02-0.03-0.05-0.06-0.06c-0.03-0.02-0.05-0.05-0.08-0.06
						c-0.03-0.02-0.06-0.05-0.09-0.05h-0.02l-0.02-0.02l0,0c-0.02-0.02-0.02-0.02-0.03-0.02l-0.06-0.03h-0.02
						c-0.02,0-0.03-0.02-0.03-0.02l-0.05-0.02c-0.02,0-0.03,0-0.05,0c-0.02,0-0.02,0-0.02-0.02l-0.02-0.02c-0.03,0-0.08-0.02-0.11,0
						c-0.05,0-0.06,0-0.09,0h-0.05c-0.02,0-0.02,0.02-0.03,0.02h-0.03c-0.03,0-0.06-0.02-0.09,0c-0.03,0.02-0.06,0.02-0.09,0.03
						c-0.03,0.02-0.08,0.02-0.09,0.05c0,0-0.02,0-0.03,0s-0.02,0.02-0.03,0.02l-0.06,0.03c-0.05,0.02-0.06,0.08-0.11,0.08
						c-0.03,0-0.05,0.02-0.06,0.05c0,0.02-0.02,0.02-0.02,0.03c0,0.02,0,0.03,0.02,0.05c0.02,0.03,0.05,0.08,0.08,0.11
						c0.03,0.03,0.06,0.05,0.09,0.08c0.03,0.02,0.05,0.03,0.06,0.02l0.02-0.02c0.02,0,0.02-0.02,0.03-0.02
						c0.02,0,0.02-0.02,0.02-0.02c0.03,0,0.05-0.03,0.08-0.05c0.02,0,0.03,0,0.03,0c0.02,0,0.02-0.02,0.03-0.03l0,0l0,0
						c0.02,0.02,0.03,0,0.05,0c0.02,0,0.03,0,0.05-0.02c0.03-0.02,0.06-0.02,0.09-0.03h0.02c0.02,0,0.03,0,0.05,0
						c0.02,0,0.02,0,0.03,0l0.02-0.02c0.02,0,0.03,0.02,0.03,0.02c0.05,0,0.09,0,0.14,0.03c0,0,0.02,0,0.02,0.02h0.02l0.02,0.02
						c0,0.02,0.02,0.02,0.02,0.02l0.03,0.02h0.02l0.02,0.02c0.02,0.02,0.03,0.02,0.03,0.03c0.03,0.02,0.05,0.05,0.08,0.06l0.02,0.02
						c0.02,0.02,0.02,0.03,0.03,0.05c0,0,0,0.02,0.02,0.02c0.02,0,0.02,0,0.02,0.02c0,0.02,0.02,0.03,0.02,0.03
						c0.03,0.05,0.06,0.08,0.06,0.12c0,0.02,0,0.02,0.02,0.02l0.02,0.02c0,0,0,0.02,0,0.03c0,0.02,0,0.02,0,0.03v0.03
						c0,0.02,0.02,0.02,0.02,0.02s0,0.02,0.02,0.02c0.02,0,0.03,0,0.05,0c0.03,0,0.08,0,0.11,0C77.06,21.66,77.07,21.65,77.1,21.65z
						"/>
				</g>
			</g>
			<g id="XMLID_49_">
				<g id="XMLID_50_">
					<path id="XMLID_51_" class="st7" d="M66.81,21.95c-0.06-0.02-0.08-0.02-0.11-0.02c-0.02,0-0.02,0.02-0.02,0.02l-0.02,0.03
						c0,0.02-0.03,0.02-0.03,0.03c0,0.02,0,0.02-0.02,0.03c-0.02,0.02-0.05,0.05-0.06,0.08l-0.03,0.03c-0.02,0.02,0,0.03-0.02,0.05
						c0,0.02-0.03,0-0.03,0.02c-0.02,0.03-0.05,0.03-0.05,0.08c-0.02,0.02-0.03,0.05-0.05,0.06l-0.03,0.03
						c-0.02,0-0.02,0.02-0.02,0.03l-0.02,0.02c-0.02,0.02-0.05,0.02-0.06,0.03c-0.02,0.02-0.05,0.03-0.06,0.05
						c-0.03,0.02-0.05,0.03-0.08,0.05l0,0h-0.02l0,0c-0.02,0-0.02,0-0.03,0.02l-0.05,0.02l-0.02,0.02c-0.02,0-0.02,0-0.03,0
						l-0.05,0.02c-0.02,0-0.02,0.02-0.03,0.02c-0.02,0-0.02,0-0.02,0h-0.02c-0.03,0.02-0.06,0-0.08,0.03
						c-0.03,0.02-0.05,0.02-0.08,0.02h-0.03c-0.02,0-0.02,0.02-0.03,0.02h-0.02c-0.03,0-0.05-0.02-0.08-0.02c-0.03,0-0.05,0-0.08,0
						c-0.03,0-0.06-0.02-0.09-0.02c-0.02,0-0.02,0-0.02-0.02c-0.02,0-0.02,0-0.03-0.02l-0.05-0.02c-0.03-0.02-0.08,0-0.11-0.02
						c-0.02-0.02-0.03-0.03-0.05-0.03c0,0-0.02,0-0.03,0c-0.02,0-0.03,0.02-0.05,0.03c-0.03,0.02-0.05,0.06-0.08,0.11
						C65.01,22.74,65,22.77,65,22.82c0,0.03,0,0.06,0.02,0.06c0,0,0.02,0,0.03,0.02c0.02,0.02,0.03,0.02,0.05,0.03
						c0.02,0.02,0.03,0,0.05,0.02c0.05,0.03,0.09,0.03,0.14,0.03c0.02,0,0.03,0.02,0.05,0.02c0.02,0,0.05,0,0.06,0l0,0l0,0
						c0.02,0.03,0.05,0.02,0.06,0.03c0.03,0,0.05,0.02,0.08,0.02c0.06,0,0.11,0,0.17,0c0.02,0,0.02,0,0.03,0c0.03,0,0.06,0,0.08,0
						c0.02,0,0.03,0,0.05,0c0.02,0,0.02-0.02,0.03-0.02c0.02,0,0.05,0,0.06,0c0.08-0.02,0.15-0.05,0.23-0.06
						c0.02,0,0.03,0,0.03-0.02c0.02,0,0.02-0.02,0.03-0.02c0.02,0,0.03,0,0.05,0c0.02,0,0.03-0.02,0.05-0.02l0.05-0.02
						c0,0,0.02,0,0.02-0.02c0.02,0,0.03-0.02,0.05-0.02c0.03-0.02,0.05-0.03,0.06-0.05c0.05-0.03,0.09-0.06,0.12-0.11
						c0-0.02,0.02-0.02,0.03-0.02c0.03-0.02,0.05-0.03,0.06-0.05c0.02-0.02,0.03-0.02,0.03-0.03c0-0.02,0-0.03,0.02-0.03
						c0.02-0.02,0.03-0.02,0.05-0.03c0.05-0.06,0.09-0.12,0.14-0.18c0.02-0.02,0.02-0.02,0.02-0.03c0-0.02,0-0.02,0.02-0.03
						c0-0.02,0.02-0.02,0.03-0.03c0.02-0.02,0.02-0.03,0.03-0.03l0.02-0.05c0-0.02,0-0.03,0-0.05c0-0.02,0.02-0.02,0-0.03
						c0-0.02-0.02-0.03-0.03-0.03c-0.03-0.02-0.06-0.05-0.09-0.06C66.86,21.97,66.84,21.95,66.81,21.95z"/>
				</g>
			</g>
			<g id="XMLID_47_">
				<path id="XMLID_48_" class="st7" d="M67.53,19.21h-0.02c-0.21-0.02-0.4-0.2-0.38-0.43l0.02-0.18c0.02-0.21,0.17-0.41,0.43-0.38
					c0.21,0.02,0.4,0.2,0.38,0.43l-0.02,0.18C67.91,19.04,67.73,19.21,67.53,19.21z"/>
			</g>
			<g id="XMLID_45_">
				<path id="XMLID_46_" class="st7" d="M63.21,18.98H63.2c-0.21-0.02-0.4-0.2-0.38-0.43l0.02-0.18c0.02-0.21,0.15-0.4,0.43-0.38
					c0.21,0.02,0.4,0.2,0.38,0.43l-0.02,0.18C63.59,18.81,63.41,18.98,63.21,18.98z"/>
			</g>
			<g id="XMLID_42_">
				<g id="XMLID_43_">
					<path id="XMLID_44_" class="st7" d="M68.56,17.47c0.03-0.05,0.05-0.08,0.05-0.11c0-0.02-0.02-0.02-0.02-0.03l-0.03-0.03
						c-0.02-0.02-0.02-0.03-0.03-0.05c-0.02,0-0.02-0.02-0.03-0.02c-0.03-0.02-0.05-0.05-0.08-0.06l-0.03-0.03
						c-0.02,0-0.03,0-0.05-0.02c-0.02,0-0.02-0.03-0.03-0.03c-0.03,0-0.05-0.05-0.09-0.03c-0.03-0.02-0.05-0.02-0.08-0.03
						l-0.03-0.02c-0.02,0-0.02,0-0.03,0l-0.02-0.02c-0.02-0.02-0.05-0.03-0.06-0.05c-0.03-0.02-0.06-0.02-0.08-0.02
						c-0.03,0-0.06-0.02-0.09-0.02l0,0h-0.02l0,0c-0.02,0-0.02,0-0.03,0l-0.06-0.02h-0.02c-0.02,0-0.02,0-0.03,0l-0.05-0.02
						c-0.02,0-0.03,0-0.03,0c-0.02,0-0.02,0-0.02,0s-0.02-0.02-0.02,0c-0.03,0.02-0.06-0.02-0.09,0c-0.03,0-0.05,0-0.08,0h-0.05
						c-0.02,0-0.02,0.02-0.03,0.02h-0.02c-0.03,0-0.05-0.02-0.08-0.02c-0.03,0-0.06,0-0.09,0.02c-0.03,0-0.06,0-0.09,0.02h-0.02
						c-0.02,0-0.02,0-0.03,0l-0.06,0.02c-0.03,0-0.06,0.05-0.11,0.05c-0.03,0-0.05,0-0.06,0.02c0,0-0.02,0-0.02,0.02s0,0.03,0,0.05
						c0,0.03,0.02,0.08,0.03,0.12c0.02,0.05,0.05,0.08,0.06,0.11c0.02,0.03,0.03,0.05,0.05,0.05h0.02c0.02,0,0.02,0,0.03,0
						c0.02,0,0.02-0.02,0.03-0.02c0.03,0,0.06-0.02,0.09-0.03c0.02,0,0.03,0,0.03,0c0.02,0,0.03-0.02,0.03-0.02l0,0l0,0
						c0.02,0.02,0.03,0.02,0.05,0c0.02,0,0.03,0,0.05,0c0.03-0.02,0.06,0,0.11-0.02h0.02c0.02,0,0.03,0,0.05,0c0.02,0,0.02,0,0.03,0
						c0.02,0,0.02-0.02,0.02-0.02c0.02,0,0.03,0.02,0.03,0.02c0.05,0,0.11,0,0.15,0.02c0.02,0,0.02,0,0.03,0h0.02
						c0.02,0,0.02,0.02,0.02,0.02c0.02,0,0.02,0.02,0.03,0.02h0.03h0.02c0.02,0,0.02,0,0.03,0.02c0.02,0,0.03,0.02,0.05,0.02
						c0.03,0.02,0.06,0.03,0.11,0.03c0,0,0.02,0,0.02,0.02c0.02,0.02,0.03,0.02,0.05,0.03c0.02,0,0.02,0.02,0.03,0.02
						c0.02,0,0.02,0,0.03,0c0.02,0.02,0.02,0.02,0.03,0.03c0.05,0.02,0.09,0.05,0.14,0.08l0.02,0.02h0.02l0.02,0.02
						c0,0.02,0.02,0.02,0.02,0.02l0.03,0.02c0,0,0.02,0,0.03,0c0.02,0,0.02,0.02,0.03,0.02c0.02,0,0.03-0.02,0.03-0.03
						c0.03-0.02,0.06-0.05,0.08-0.08C68.53,17.5,68.55,17.48,68.56,17.47z"/>
				</g>
			</g>
			<g id="XMLID_39_">
				<g id="XMLID_40_">
					<path id="XMLID_41_" class="st7" d="M62.45,17.22c0.05,0.05,0.06,0.06,0.08,0.08c0.02,0,0.02,0,0.02,0l0.03-0.02
						c0.02,0,0.03,0,0.05-0.02l0.02-0.02c0.02,0,0.06-0.02,0.08-0.03l0.03-0.02c0.02,0,0.02-0.02,0.03-0.03c0.02,0,0.02,0,0.03,0
						c0.02-0.02,0.05,0,0.06-0.03c0.02-0.02,0.03-0.02,0.06-0.03l0.03-0.02c0.02,0,0.02-0.02,0.02-0.02h0.02
						c0.02,0,0.05,0.02,0.06,0c0.03,0,0.03-0.02,0.06-0.02c0.03,0,0.05,0,0.08-0.02l0,0h0.02l0,0c0.02,0,0.02,0,0.03,0h0.05h0.02
						c0.02,0,0.02,0,0.03,0h0.03c0.02,0,0.02-0.02,0.03-0.02h0.02c0,0,0.02,0.02,0.02,0c0.03-0.02,0.05,0.02,0.08-0.02
						c0.02,0,0.05,0,0.06,0h0.03c0.02,0,0.02,0,0.03,0h0.02c0.02,0,0.03,0.03,0.06,0.03c0.03,0,0.03,0,0.06,0.02
						c0.03,0,0.05,0.02,0.08,0.02l0.02,0.02c0,0,0.02,0,0.02,0.02l0.05,0.02c0.03,0.02,0.06,0,0.09,0.02
						c0.02,0.02,0.02,0.03,0.05,0.03h0.02c0.02,0,0.03-0.02,0.03-0.03c0.03-0.02,0.05-0.06,0.08-0.11c0.02-0.05,0.03-0.08,0.05-0.12
						c0.02-0.03,0-0.06-0.02-0.06c0,0-0.02,0-0.02-0.02c-0.02-0.02-0.02-0.02-0.03-0.02c-0.02,0-0.03,0-0.03-0.02
						c-0.03-0.03-0.08-0.03-0.11-0.05c-0.02,0-0.02-0.02-0.03-0.02s-0.03,0-0.05,0l0,0l0,0c-0.02-0.03-0.03-0.02-0.05-0.03
						c-0.02,0-0.05-0.02-0.06-0.02c-0.05,0-0.09-0.02-0.12-0.02c-0.02,0-0.02,0-0.03,0s-0.05-0.02-0.06-0.02c-0.02,0-0.02,0-0.03,0
						c-0.02,0-0.02,0.02-0.03,0.02s-0.03-0.02-0.05-0.02c-0.06,0-0.12,0-0.18,0c-0.02,0-0.02,0-0.03,0s-0.02,0.02-0.03,0.02
						s-0.02,0-0.03,0c-0.02,0-0.03,0-0.03,0h-0.03h-0.02c-0.02,0-0.03,0-0.03,0c-0.02,0-0.05,0-0.06,0.02
						c-0.05,0.02-0.09,0.02-0.12,0.03c-0.02,0-0.02,0-0.03,0s-0.05,0-0.06,0.02c-0.02,0-0.02,0-0.03,0.02
						c-0.02,0-0.02,0.02-0.02,0.02c-0.02,0-0.03,0-0.05,0.02c-0.06,0.02-0.11,0.06-0.17,0.08c-0.02,0-0.02,0-0.03,0.02l-0.02,0.02
						c-0.02,0-0.02,0-0.03,0s-0.03,0.02-0.03,0.02l-0.03,0.02c-0.02,0-0.02,0.02-0.02,0.03c0,0.02-0.02,0.02-0.02,0.02
						c0,0.02,0,0.03,0.02,0.05c0.02,0.03,0.03,0.06,0.05,0.09C62.42,17.19,62.43,17.21,62.45,17.22z"/>
				</g>
			</g>
		</g>
		<g>
			<g>
				<g>
					<g>
						<path class="st4" d="M64.66,18.25c0.84-0.4,1.59-0.02,1.6,0l0.18-0.35c-0.03-0.02-0.93-0.49-1.95,0L64.66,18.25z"/>
					</g>
				</g>
			</g>
			<g>
				<g>
					<g>
						<path class="st4" d="M70.87,17.76h4.97c0.11,0,0.2-0.09,0.2-0.2s-0.09-0.2-0.2-0.2h-4.97c-0.11,0-0.2,0.09-0.2,0.2
							S70.76,17.76,70.87,17.76z"/>
					</g>
				</g>
			</g>
			<g>
				<g>
					<g>
						<path class="st4" d="M66.11,17.99c0-1.37,1.11-2.47,2.47-2.47s2.47,1.11,2.47,2.47c0,1.37-1.11,2.47-2.47,2.47
							S66.11,19.36,66.11,17.99z M66.51,17.99c0,1.14,0.93,2.09,2.09,2.09s2.09-0.93,2.09-2.09c0-1.16-0.93-2.09-2.09-2.09
							S66.51,16.84,66.51,17.99z"/>
					</g>
				</g>
			</g>
			<g>
				<g>
					<g>
						<path class="st4" d="M59.83,17.99c0-1.37,1.11-2.47,2.47-2.47s2.47,1.11,2.47,2.47c0,1.37-1.11,2.47-2.47,2.47
							S59.83,19.36,59.83,17.99z M60.22,17.99c0,1.14,0.93,2.09,2.09,2.09c1.16,0,2.09-0.93,2.09-2.09c0-1.16-0.93-2.09-2.09-2.09
							C61.15,15.9,60.22,16.84,60.22,17.99z"/>
					</g>
				</g>
			</g>
		</g>
		<g id="XMLID_36_">
			<path id="XMLID_37_" class="st4" d="M63.43,11.95c2.96,3.89,7.88,6.3,12.76,6.71c0,0,3.67-8.68-3.61-9.84
				C65.27,7.65,63.43,11.95,63.43,11.95z"/>
		</g>
		<g>
			<g>
				<path class="st8" d="M24.97,212.29c0.12,0,0.24-0.09,0.27-0.21l24.55-117.9c0.03-0.15-0.06-0.29-0.21-0.32
					c-0.15-0.03-0.29,0.06-0.32,0.21l-24.55,117.9c-0.03,0.15,0.06,0.29,0.21,0.32C24.94,212.29,24.95,212.29,24.97,212.29z"/>
			</g>
			<g id="XMLID_33_">
				<g id="XMLID_34_">
					<path id="XMLID_35_" class="st8" d="M80.43,28.57c-0.12,0.18-0.18,0.38-0.27,0.93c-0.03,0.23-0.06,0.49-0.09,0.73l-0.11,1.07
						c-0.05,0.44-0.11,0.85-0.15,1.31l-0.08,0.87l-0.34,2.74c-0.05,0.4-0.11,0.79-0.15,1.19c-0.05,0.4-0.09,0.79-0.14,1.2
						c-0.05,0.29-0.09,0.58-0.15,0.88c-0.11,0.87-0.3,1.74-0.41,2.55c-0.12,0.7-0.26,1.4-0.4,2.09L77.9,45.2
						c-0.06,0.29-0.12,0.55-0.18,0.85l-0.14,0.55c-0.17,0.67-0.38,1.34-0.59,1.97c-0.24,0.75-0.55,1.46-0.93,2.15
						c-0.41,0.73-0.95,1.37-1.57,1.91c-0.06,0.05-0.11,0.09-0.17,0.12l-0.23,0.17l-0.08,0.05c-0.21,0.12-0.43,0.27-0.66,0.38
						c-0.47,0.23-0.96,0.38-1.48,0.44c-0.17,0.02-0.34,0.03-0.5,0.03c-0.27,0-0.53-0.06-0.79-0.11c-0.35-0.09-0.72-0.21-1.04-0.4
						c-0.29-0.15-0.56-0.32-0.82-0.53c-0.14-0.11-0.26-0.24-0.38-0.35c-0.11-0.12-0.21-0.23-0.34-0.35
						c-0.58-0.61-1.02-1.37-1.43-2.06c-0.35-0.61-0.64-1.25-0.91-1.91c-0.15-0.34-0.29-0.67-0.43-1.01
						c-0.11-0.27-0.23-0.52-0.34-0.81l-0.2-0.52c-0.24-0.64-0.44-1.33-0.66-1.97c-0.24-0.76-0.46-1.52-0.67-2.29
						c-0.21-0.84-0.41-1.66-0.59-2.5c-0.03-0.21-0.08-0.4-0.11-0.59c-0.05-0.26-0.09-0.52-0.14-0.78c-0.09-0.53-0.17-1.08-0.24-1.62
						c-0.14-1.04-0.3-2.07-0.34-3.11c-0.03-0.59-0.05-1.13-0.08-1.74c-0.02-0.21-0.02-0.41-0.03-0.63
						c-0.02-0.23-0.06-0.43-0.08-0.63c-0.06-0.37-0.14-0.53-0.21-0.49c-0.09,0.05-0.14,0.27-0.21,0.55
						c-0.06,0.24-0.09,0.66-0.08,1.07c0,0.21,0.02,0.43,0.02,0.64c0,0.38,0.03,0.76,0.05,1.14c0.02,0.37,0.06,0.7,0.09,1.07
						c0.06,1.07,0.23,2.13,0.4,3.2c0.06,0.4,0.12,0.78,0.18,1.16c0.09,0.46,0.18,0.85,0.29,1.31l0.03,0.14l0.02,0.14
						c0.06,0.43,0.21,1.04,0.34,1.49c0.14,0.56,0.29,1.11,0.46,1.68c0.37,1.17,0.73,2.33,1.17,3.46l0.26,0.67
						c0.21,0.58,0.46,1.14,0.72,1.71c0.12,0.27,0.26,0.58,0.4,0.84c0.14,0.24,0.24,0.44,0.38,0.7c0.23,0.4,0.44,0.79,0.7,1.17
						c0.52,0.75,1.13,1.43,1.89,1.98c0.76,0.53,1.66,0.88,2.62,0.93c0.32,0,0.64,0,0.95-0.08c0.26-0.05,0.5-0.12,0.73-0.2
						c0.29-0.09,0.58-0.21,0.84-0.35c0.32-0.15,0.61-0.37,0.9-0.58c0.3-0.23,0.58-0.49,0.84-0.76c0.11-0.12,0.18-0.21,0.26-0.32
						c0.23-0.26,0.43-0.56,0.58-0.81c0.32-0.5,0.59-1.04,0.81-1.57c0.47-1.16,0.79-2.33,1.07-3.51l0.17-0.7
						c0.15-0.59,0.29-1.19,0.41-1.8c0.06-0.29,0.12-0.61,0.18-0.9c0.05-0.27,0.08-0.49,0.12-0.78c0.08-0.44,0.17-0.87,0.24-1.31
						c0.29-1.75,0.5-3.48,0.73-5.25l0.09-0.87l0.06-0.72l0.11-0.85l0.11-1.01l0.11-1.08c0.03-0.34,0.03-0.56,0.06-0.88
						c0.02-0.26,0.06-0.58,0.06-0.82c0-0.17-0.02-0.3-0.03-0.41c-0.03-0.24-0.09-0.37-0.15-0.4C80.52,28.42,80.47,28.49,80.43,28.57
						z"/>
				</g>
			</g>
			<path class="st8" d="M51.49,212.29c0.14,0,0.26-0.11,0.27-0.26l8.58-115.47c0.02-0.15-0.11-0.29-0.26-0.29
				c-0.14,0-0.29,0.11-0.29,0.26L51.21,212c-0.02,0.15,0.11,0.29,0.26,0.29C51.47,212.29,51.47,212.29,51.49,212.29z"/>
			<path class="st8" d="M73.17,213.09C73.18,213.09,73.18,213.09,73.17,213.09c0.15,0,0.27-0.12,0.27-0.27L71.98,97.34
				c0-0.15-0.12-0.27-0.27-0.27l0,0c-0.15,0-0.27,0.12-0.27,0.27l1.46,115.47C72.91,212.96,73.03,213.09,73.17,213.09z"/>
			<path class="st8" d="M95.34,212.29h0.02c0.15-0.02,0.26-0.15,0.26-0.3l-9.5-115.47c-0.02-0.15-0.14-0.26-0.29-0.24
				c-0.15,0.02-0.26,0.15-0.26,0.3l9.5,115.47C95.08,212.19,95.2,212.29,95.34,212.29z"/>
			<path class="st8" d="M114.34,211.07c0.02,0,0.03,0,0.05,0c0.15-0.03,0.26-0.17,0.23-0.32L97.08,95.28
				c-0.02-0.15-0.17-0.26-0.32-0.23c-0.15,0.03-0.26,0.17-0.23,0.32l17.54,115.47C114.08,210.98,114.2,211.07,114.34,211.07z"/>
		</g>
		<g id="XMLID_29_">
			<g id="XMLID_30_">
				<g id="XMLID_31_">
					<path id="XMLID_32_" class="st5" d="M143.34,106.5c0.29,1.02,0.49,1.94,0.67,2.91c0.18,0.96,0.35,1.94,0.47,2.91
						c0.23,1.97,0.35,3.98,0.05,6.11c-0.15,1.01-1.08,1.71-2.09,1.56c-0.91-0.14-1.59-0.93-1.59-1.83v-0.09
						c0-1.56-0.32-3.26-0.76-4.93c-0.23-0.84-0.49-1.68-0.78-2.5c-0.29-0.81-0.61-1.68-0.93-2.39c-0.59-1.33,0.02-2.88,1.34-3.48
						c1.33-0.59,2.88,0.02,3.48,1.34C143.26,106.24,143.31,106.38,143.34,106.5z"/>
				</g>
			</g>
		</g>
		<g id="XMLID_25_">
			<g id="XMLID_26_">
				<g id="XMLID_27_">
					<path id="XMLID_28_" class="st5" d="M141.02,106.67c0.21,1.05,0.37,2.01,0.5,3.03c0.14,1.01,0.24,2.01,0.32,3.05
						c0.06,1.04,0.09,2.09,0.03,3.19c-0.05,0.56-0.11,1.13-0.23,1.74c-0.05,0.29-0.17,0.64-0.26,0.96c-0.11,0.32-0.32,0.73-0.5,1.07
						c-0.47,0.87-1.56,1.19-2.42,0.72c-0.72-0.38-1.07-1.2-0.9-1.95l0.14-0.64c0.05-0.23,0.14-1.07,0.03-1.86
						c-0.09-0.82-0.24-1.69-0.43-2.58c-0.2-0.88-0.44-1.77-0.7-2.64c-0.26-0.87-0.55-1.78-0.85-2.59c-0.52-1.42,0.2-2.99,1.63-3.52
						c1.42-0.52,3,0.2,3.52,1.63C140.96,106.4,141.01,106.55,141.02,106.67z"/>
				</g>
			</g>
		</g>
		<g id="XMLID_21_">
			<g id="XMLID_22_">
				<g id="XMLID_23_">
					<path id="XMLID_24_" class="st5" d="M137.78,103.28c0.24,1.46,0.38,2.74,0.49,4.12c0.11,1.36,0.15,2.71,0.14,4.07
						c-0.02,2.71-0.27,5.46-0.93,8.17c-0.24,0.99-1.24,1.59-2.23,1.34c-0.91-0.23-1.51-1.1-1.39-2.01v-0.05
						c0.29-2.36,0.24-4.8-0.02-7.24c-0.14-1.22-0.32-2.44-0.55-3.64c-0.23-1.19-0.52-2.44-0.82-3.51l-0.02-0.03
						c-0.43-1.45,0.4-2.97,1.86-3.4c1.45-0.43,2.97,0.4,3.4,1.86C137.73,103.07,137.76,103.19,137.78,103.28z"/>
				</g>
			</g>
		</g>
		<g id="XMLID_17_">
			<g id="XMLID_18_">
				<g id="XMLID_19_">
					<path id="XMLID_20_" class="st5" d="M141.07,103.82c0.41,0.18,0.43,0.23,0.61,0.34c0.11,0.08,0.24,0.17,0.34,0.24
						c0.21,0.17,0.38,0.32,0.55,0.47c0.32,0.32,0.59,0.63,0.84,0.95c0.49,0.63,0.91,1.25,1.28,1.89c0.73,1.27,1.3,2.53,1.78,3.81
						c0.37,0.93-0.11,1.98-1.04,2.35c-0.79,0.3-1.66,0.02-2.13-0.64l-0.02-0.03c-0.72-1.01-1.46-1.97-2.27-2.78
						c-0.4-0.41-0.81-0.78-1.2-1.08c-0.2-0.15-0.4-0.27-0.58-0.37c-0.09-0.05-0.17-0.08-0.23-0.09c-0.05-0.02-0.05,0-0.08-0.02
						c0.03,0.03-0.09-0.02,0.18,0.11c-1.42-0.55-2.13-2.13-1.59-3.55C138.05,103.99,139.65,103.28,141.07,103.82z"/>
				</g>
			</g>
		</g>
		<g>
			<g id="XMLID_13_">
				<g id="XMLID_14_">
					<g id="XMLID_15_">
						<path id="XMLID_16_" class="st5" d="M11.92,106.82c0.38,0.24,0.4,0.29,0.55,0.41c0.11,0.09,0.21,0.2,0.29,0.29
							c0.18,0.2,0.32,0.37,0.47,0.55c0.26,0.35,0.5,0.72,0.7,1.05c0.4,0.7,0.72,1.37,0.99,2.06c0.55,1.36,0.91,2.7,1.2,4.03
							c0.23,0.98-0.38,1.94-1.36,2.17c-0.82,0.18-1.65-0.21-2.01-0.95l-0.02-0.03c-0.56-1.1-1.16-2.17-1.85-3.08
							c-0.34-0.47-0.69-0.88-1.04-1.24c-0.17-0.18-0.35-0.32-0.52-0.46c-0.08-0.05-0.15-0.11-0.21-0.14
							c-0.03-0.02-0.05-0.02-0.08-0.02c0.03,0.03-0.09-0.03,0.15,0.14c-1.33-0.75-1.8-2.42-1.05-3.75
							C8.9,106.55,10.59,106.07,11.92,106.82z"/>
					</g>
				</g>
			</g>
			<g id="XMLID_9_">
				<g id="XMLID_10_">
					<g id="XMLID_11_">
						<path id="XMLID_12_" class="st5" d="M6.46,105.8c-0.76,0.75-1.37,1.45-2.03,2.2c-0.64,0.75-1.25,1.51-1.85,2.3
							c-1.17,1.6-2.27,3.28-3.05,5.29c-0.37,0.95,0.09,2.01,1.05,2.38c0.87,0.34,1.83-0.02,2.27-0.81l0.05-0.08
							c0.76-1.36,1.88-2.67,3.1-3.9c0.61-0.61,1.25-1.2,1.91-1.78c0.64-0.56,1.36-1.16,2-1.63c1.17-0.87,1.42-2.52,0.55-3.69
							c-0.87-1.17-2.52-1.42-3.69-0.55C6.64,105.62,6.53,105.71,6.46,105.8z"/>
					</g>
				</g>
			</g>
			<g id="XMLID_5_">
				<g id="XMLID_6_">
					<g id="XMLID_7_">
						<path id="XMLID_8_" class="st5" d="M7.95,108.42c-0.7,0.81-1.31,1.57-1.94,2.39c-0.61,0.81-1.2,1.63-1.78,2.5
							c-0.56,0.87-1.11,1.77-1.6,2.76c-0.24,0.5-0.47,1.04-0.66,1.62c-0.11,0.27-0.17,0.64-0.24,0.96
							c-0.08,0.34-0.08,0.79-0.09,1.17c-0.02,0.99,0.76,1.8,1.75,1.81c0.82,0.02,1.51-0.52,1.74-1.27l0.2-0.63
							c0.06-0.21,0.41-0.99,0.88-1.65c0.49-0.67,1.05-1.36,1.65-2.03c0.61-0.67,1.25-1.31,1.91-1.95c0.66-0.63,1.36-1.28,2.01-1.83
							c1.16-0.98,1.3-2.71,0.32-3.86c-0.98-1.16-2.71-1.3-3.86-0.32C8.15,108.22,8.04,108.33,7.95,108.42z"/>
					</g>
				</g>
			</g>
			<g id="XMLID_1_">
				<g id="XMLID_2_">
					<g id="XMLID_3_">
						<path id="XMLID_4_" class="st5" d="M12.47,107.1c-0.93,1.14-1.69,2.2-2.45,3.34c-0.76,1.13-1.46,2.29-2.13,3.46
							c-1.33,2.36-2.47,4.88-3.22,7.58c-0.27,0.98,0.29,2,1.28,2.27c0.91,0.26,1.86-0.21,2.21-1.07l0.02-0.05
							c0.9-2.2,2.15-4.3,3.58-6.28c0.72-0.99,1.48-1.95,2.27-2.9c0.79-0.91,1.66-1.88,2.45-2.64l0.02-0.02
							c1.08-1.05,1.11-2.79,0.06-3.87c-1.05-1.08-2.79-1.11-3.87-0.06C12.6,106.93,12.53,107.01,12.47,107.1z"/>
					</g>
				</g>
			</g>
		</g>
		<circle class="st4" cx="62.3" cy="18.03" r="2.52"/>
		<circle class="st4" cx="68.58" cy="18.03" r="2.52"/>
	</g>
</g>
</svg>
