<?xml version="1.0" encoding="utf-8"?>
<!-- Generator: Adobe Illustrator 22.1.0, SVG Export Plug-In . SVG Version: 6.00 Build 0)  -->
<svg version="1.1" id="Capa_1" xmlns="http://www.w3.org/2000/svg" xmlns:xlink="http://www.w3.org/1999/xlink" x="0px" y="0px"
	 viewBox="0 0 58.5 62" style="enable-background:new 0 0 58.5 62;" xml:space="preserve">
<style type="text/css">
	.st0{clip-path:url(#SVGID_2_);}
	.st1{fill:#3E7F00;}
	.st2{fill:#F2CDAC;}
	.st3{fill:#1A1B1D;}
	.st4{fill:#FFFFFF;}
</style>
<g>
	<defs>
		<rect id="SVGID_1_" width="58.1" height="61.6"/>
	</defs>
	<clipPath id="SVGID_2_">
		<use xlink:href="#SVGID_1_"  style="overflow:visible;"/>
	</clipPath>
	<g class="st0">
		<g id="XMLID_2173_">
			<path id="XMLID_2174_" class="st1" d="M63.2,92.9c0,0-5.2-28.4-7-45.5c-1.4-13.4-15.5-20-31-19.2C9.6,29.1,2.4,37.2,1.7,49.5
				C1,61.8-4.2,95.3-4.2,95.3S7.6,95.7,29,95.2C50.3,94.8,63.2,92.9,63.2,92.9z"/>
		</g>
		<g id="XMLID_2171_">
			<path id="XMLID_2172_" class="st1" d="M39.3,35.6c4-2.9,10-1.5,13,2.3l25.9,32.9c0,0,0,0,0.1,0.1l20,17.3L93,98.2L68.7,81.9
				c-0.3-0.2-0.6-0.4-0.8-0.7l-0.4-0.4l-29-30.7c-0.2-0.2-0.7-1.1-0.8-1.3C34.5,44.8,35.3,38.6,39.3,35.6z"/>
		</g>
		<g id="XMLID_2168_">
			<g id="XMLID_2169_">
				<path id="XMLID_2170_" class="st2" d="M28.8,34.8c2.6,0,4.7-2.1,4.7-4.7v-8.3c0-2.6-2.1-4.7-4.7-4.7s-4.7,2.1-4.7,4.7v8.3
					C24.2,32.7,26.2,34.8,28.8,34.8z"/>
			</g>
		</g>
		<g id="XMLID_2165_">
			<g id="XMLID_2166_">
				<path id="XMLID_2167_" class="st3" d="M33.5,30.1v-8.3c0-2.6-2.1-4.7-4.7-4.7s-4.7,2.1-4.7,4.7l0,0l3.1,5.3L33.5,30.1z"/>
			</g>
		</g>
		<g id="XMLID_2162_">
			<g id="XMLID_2163_">
				<path id="XMLID_2164_" class="st2" d="M31.5,28.3c2.5-0.1,5.4-1.6,6.9-3.6c1.4-1.9,1.1-4.3,0.7-6.5s-1.1-4.6-2.5-6.4
					C35.1,10,32.8,9,30.5,9.1c-4,0.2-7.1,3.7-6.9,7.7l0.3,4.7C24,25.4,27.5,28.5,31.5,28.3z"/>
			</g>
		</g>
		<g id="XMLID_2159_">
			<g id="XMLID_2160_">
				<path id="XMLID_2161_" class="st2" d="M25.2,20.8C24.8,21,24.5,21,24,21c-0.2,0-0.3,0-0.4,0.1c0,0-0.9,0.6-0.5-0.2
					c0,0,0.8,0.1,1,0.1c0.2,0,0.5,0,0.7,0c0.1,0,0.2,0,0.3,0c0.3-0.1,0.4-0.1,0.1,0.2c0.1-0.6,0.9-1,1.4-0.8
					c0.7,0.2,0.9,0.8,0.8,1.4c-0.2,1.4-1.8,1.6-2.9,1.6c-1,0.1-2.3,0-3-0.7c-0.9-0.9-0.6-2.2,0.2-3c0.4-0.3,0.9-0.7,1.4-0.8
					c0.5-0.2,1.1-0.1,1.6-0.3C26,18,26.6,20.3,25.2,20.8L25.2,20.8z"/>
			</g>
		</g>
		<g id="XMLID_2157_">
			<path id="XMLID_2158_" class="st4" d="M37.1,14.3c-3.2,0.3-6.4-0.1-9.6-0.1c0.1,1.1,0.5,2.6-0.2,3.5c-0.8,0.9-2.6,1.1-3.8,1.1
				c0,0-2.7-10.8,5.7-11.2c10.3-0.6,10.7,6.4,10.7,6.4L37.1,14.3z"/>
		</g>
		<g id="XMLID_2134_">
			<g id="XMLID_2154_">
				<g id="XMLID_2155_">
					<path id="XMLID_2156_" class="st3" d="M34.2,21.2C34.3,21.1,34.3,21.1,34.2,21.2c0.1-0.1,0.1-0.1,0.2-0.1l0.1,0
						c0,0,0.1,0,0.1,0c0,0,0,0,0.1,0c0.1,0,0.1,0,0.2,0l0.1,0c0,0,0.1,0,0.1,0c0,0,0,0,0.1,0c0.1,0,0.1,0,0.2,0c0,0,0.1,0,0.1-0.1
						c0,0,0,0,0,0c0,0,0,0,0,0l0,0c0,0,0-0.1,0-0.1c0,0,0-0.1,0-0.2c0-0.1,0-0.1,0-0.2v0c0,0,0,0,0,0l0,0c0,0,0,0,0-0.1l0-0.1v0
						l0-0.1l0-0.1c0,0,0-0.1,0-0.1c0,0,0,0,0,0c0,0,0,0,0,0c0-0.1,0-0.1,0-0.2c0-0.1,0-0.1,0-0.2l0-0.1c0,0,0,0,0-0.1l0,0
						c0-0.1,0-0.1,0-0.2c0-0.1,0-0.1,0-0.2c0-0.1,0-0.1,0-0.2c0,0,0,0,0,0s0,0,0-0.1l0-0.1c0-0.1,0-0.2,0-0.3c0,0,0-0.1,0-0.1
						c0,0,0,0,0-0.1c0,0,0,0,0-0.1c0,0,0.1-0.1,0.1-0.1s0.1,0,0.1,0c0,0,0.1,0,0.1,0.1c0,0,0,0,0,0c0,0,0,0.1,0,0.1s0,0.1,0,0.1
						c0,0.1,0,0.2,0,0.3c0,0,0,0.1,0,0.1c0,0,0,0.1,0,0.1v0v0c0,0,0,0.1,0,0.1c0,0,0,0.1,0,0.1c0,0.1,0,0.2,0,0.3c0,0,0,0,0,0.1
						c0,0,0,0.1,0,0.2c0,0,0,0,0,0.1c0,0,0,0,0,0.1c0,0,0,0.1,0,0.1c0,0.2,0,0.3,0.1,0.4c0,0,0,0,0,0.1c0,0,0,0,0,0.1c0,0,0,0,0,0.1
						c0,0,0,0.1,0,0.1l0,0.1c0,0,0,0,0,0c0,0,0,0.1,0,0.1c0,0.1,0,0.1,0,0.2c0,0.1-0.1,0.2-0.1,0.3c0,0,0,0,0,0.1
						c0,0.1-0.1,0.1-0.1,0.2c0,0,0,0-0.1,0.1c0,0,0,0-0.1,0c0,0-0.1,0-0.1,0.1c-0.2,0.1-0.3,0.1-0.5,0.1c0,0-0.1,0-0.1,0s0,0-0.1,0
						c0,0,0,0-0.1,0c0,0-0.1,0-0.1,0l-0.1,0c0,0,0,0-0.1,0c0,0,0,0-0.1,0c0,0,0,0,0,0C34.2,21.3,34.2,21.3,34.2,21.2
						C34.2,21.2,34.2,21.2,34.2,21.2z"/>
				</g>
			</g>
			<g id="XMLID_2151_">
				<g id="XMLID_2152_">
					<path id="XMLID_2153_" class="st3" d="M22.4,20.8c0,0,0-0.1,0-0.1c0,0,0,0,0,0l0,0c0,0,0,0,0-0.1c0,0,0,0,0,0
						c0,0,0.1-0.1,0.1-0.1l0,0c0,0,0,0,0.1,0c0,0,0,0,0,0c0,0,0.1,0,0.1,0c0,0,0.1,0,0.1,0l0,0c0,0,0,0,0,0h0c0,0,0.1,0,0.1,0
						c0,0,0.1,0,0.1,0s0.1,0,0.1,0h0h0l0,0c0,0,0,0,0,0l0.1,0c0,0,0,0,0,0c0,0,0,0,0,0l0.1,0c0,0,0,0,0,0c0,0,0,0,0,0c0,0,0,0,0,0
						c0,0,0.1,0,0.1,0.1c0,0,0.1,0,0.1,0.1l0,0c0,0,0,0,0,0l0,0c0,0,0.1,0,0.1,0.1c0,0,0,0.1,0.1,0.1c0,0,0.1,0.1,0.1,0.1
						c0,0,0,0,0,0c0,0,0,0,0,0l0,0.1c0,0,0,0.1,0,0.2c0,0,0,0,0,0.1c0,0,0,0,0,0c0,0,0,0,0,0c0,0-0.1,0-0.1,0s-0.1,0-0.1,0
						c0,0-0.1,0-0.1,0l0,0c0,0,0,0,0,0c0,0,0,0,0,0c0,0,0-0.1,0-0.1c0,0,0,0,0,0c0,0,0,0,0,0l0,0l0,0c0,0,0,0,0,0c0,0,0,0,0,0
						c0,0-0.1-0.1-0.1-0.1l0,0c0,0,0,0-0.1,0c0,0,0,0,0,0c0,0,0,0,0,0c0,0,0,0,0,0c0,0-0.1-0.1-0.2-0.1c0,0,0,0,0,0l0,0c0,0,0,0,0,0
						s0,0,0,0h0h0c0,0,0,0,0,0c0,0,0,0-0.1,0c0,0-0.1,0-0.1,0c0,0,0,0,0,0c0,0,0,0-0.1,0c0,0,0,0,0,0c0,0,0,0,0,0s0,0,0,0
						c-0.1,0-0.1,0-0.2,0.1c0,0,0,0,0,0s0,0,0,0c0,0,0,0,0,0c0,0,0,0,0,0l0,0c0,0,0,0,0,0c0,0,0,0,0,0s0,0,0,0
						C22.4,20.9,22.4,20.9,22.4,20.8C22.4,20.8,22.4,20.8,22.4,20.8z"/>
				</g>
			</g>
			<g id="XMLID_2148_">
				<g id="XMLID_2149_">
					<path id="XMLID_2150_" class="st3" d="M22.7,21.8c-0.1,0-0.1,0-0.1,0c0,0,0,0,0,0l0,0c0,0,0,0,0-0.1c0,0,0,0,0,0
						c0,0,0-0.1,0-0.1l0,0c0,0,0,0,0,0s0,0,0,0c0,0,0-0.1,0.1-0.1c0,0,0,0,0.1-0.1l0,0c0,0,0,0,0,0l0,0c0,0,0-0.1,0.1-0.1
						c0,0,0.1,0,0.1-0.1s0.1,0,0.1,0h0l0,0l0,0c0,0,0,0,0,0l0.1,0c0,0,0,0,0,0s0,0,0,0l0,0c0,0,0,0,0,0c0,0,0,0,0,0l0,0
						c0,0,0.1,0,0.1,0c0,0,0.1,0,0.1,0h0c0,0,0,0,0,0h0c0,0,0.1,0,0.1,0c0,0,0.1,0,0.1,0c0,0,0.1,0,0.1,0c0,0,0,0,0,0s0,0,0,0l0.1,0
						c0,0,0.1,0.1,0.1,0.1c0,0,0,0,0.1,0c0,0,0,0,0,0c0,0,0,0,0,0c0,0,0,0.1-0.1,0.1c0,0-0.1,0.1-0.1,0.1c0,0,0,0-0.1,0l0,0
						c0,0,0,0,0,0c0,0,0,0,0,0c0,0,0,0-0.1,0c0,0,0,0,0,0c0,0,0,0,0,0l0,0l0,0c0,0,0,0,0,0s0,0,0,0c0,0-0.1,0-0.1,0h0c0,0,0,0,0,0
						c0,0,0,0,0,0s0,0,0,0c0,0,0,0,0,0c0,0-0.1,0-0.1,0c0,0,0,0,0,0h0c0,0,0,0,0,0c0,0,0,0,0,0l0,0h0l0,0c0,0,0,0,0,0
						c0,0,0,0-0.1,0.1l0,0c0,0,0,0,0,0l0,0c0,0,0,0,0,0c0,0,0,0,0,0c0,0-0.1,0.1-0.1,0.1c0,0,0,0,0,0l0,0c0,0,0,0,0,0c0,0,0,0,0,0v0
						c0,0,0,0,0,0s0,0,0,0s0,0,0,0c0,0-0.1,0-0.1,0C22.8,21.8,22.8,21.8,22.7,21.8z"/>
				</g>
			</g>
			<g id="XMLID_2145_">
				<g id="XMLID_2146_">
					<path id="XMLID_2147_" class="st3" d="M33.2,22.1c0.1,0,0.1,0,0.1,0s0,0,0,0l0,0c0,0,0,0,0,0c0,0,0,0,0,0c0,0,0,0.1,0.1,0.1
						l0,0c0,0,0,0,0,0c0,0,0,0,0,0c0,0,0,0,0,0.1c0,0,0,0,0,0.1l0,0c0,0,0,0,0,0l0,0c0,0,0,0,0.1,0c0,0,0,0,0.1,0c0,0,0.1,0,0.1,0
						l0,0h0l0,0c0,0,0,0,0,0l0.1,0l0,0c0,0,0,0,0,0l0,0c0,0,0,0,0,0c0,0,0,0,0,0h0c0,0,0.1,0,0.1,0c0,0,0,0,0.1,0h0c0,0,0,0,0,0h0
						c0,0,0,0,0.1,0c0,0,0,0,0.1,0c0,0,0.1,0,0.1,0c0,0,0,0,0,0c0,0,0,0,0,0l0.1,0c0,0,0.1,0,0.1,0c0,0,0,0,0,0c0,0,0,0,0,0s0,0,0,0
						c0,0,0.1,0.1,0.1,0.1c0,0,0,0.1,0,0.1c0,0,0,0.1,0,0.1c0,0,0,0,0,0c0,0,0,0,0,0c0,0,0,0,0,0c0,0-0.1,0-0.1,0c0,0,0,0,0,0
						c0,0,0,0-0.1,0l0,0l0,0c0,0,0,0-0.1,0c0,0,0,0-0.1,0c-0.1,0-0.1,0-0.2,0c0,0,0,0,0,0c0,0-0.1,0-0.1,0c0,0,0,0,0,0s0,0,0,0
						c0,0,0,0-0.1,0c-0.1,0-0.2,0-0.2-0.1c0,0,0,0,0,0c0,0,0,0,0,0c0,0,0,0,0,0c0,0,0,0,0,0l0,0c0,0,0,0,0,0c0,0,0,0,0,0
						c0,0,0,0-0.1,0c0,0-0.1-0.1-0.1-0.1c0,0,0,0,0,0c0,0,0,0-0.1,0c0,0,0,0,0,0c0,0,0,0,0,0c0,0,0,0,0,0c-0.1-0.1-0.1-0.1-0.2-0.2
						c0,0,0,0,0,0c0,0,0,0,0,0c0,0,0,0,0,0c0,0,0,0,0,0l0,0c0,0,0,0,0,0s0,0,0,0c0,0,0,0,0,0C33.1,22.2,33.1,22.2,33.2,22.1
						C33.1,22.1,33.1,22.1,33.2,22.1z"/>
				</g>
			</g>
			<g id="XMLID_2143_">
				<path id="XMLID_2144_" class="st3" d="M32.5,19.3C32.5,19.3,32.5,19.3,32.5,19.3c0.3,0,0.4-0.2,0.4-0.4l0-0.2
					c0-0.2-0.2-0.4-0.4-0.4c-0.2,0-0.4,0.2-0.4,0.4l0,0.2C32.1,19.1,32.2,19.3,32.5,19.3z"/>
			</g>
			<g id="XMLID_2141_">
				<path id="XMLID_2142_" class="st3" d="M36.8,19.1C36.9,19.1,36.9,19.1,36.8,19.1c0.3,0,0.4-0.2,0.4-0.4l0-0.2
					c0-0.2-0.2-0.4-0.4-0.4c-0.2,0-0.4,0.2-0.4,0.4l0,0.2C36.5,18.9,36.6,19.1,36.8,19.1z"/>
			</g>
			<g id="XMLID_2138_">
				<g id="XMLID_2139_">
					<path id="XMLID_2140_" class="st4" d="M31.4,17.5c0,0,0-0.1,0-0.1c0,0,0,0,0,0l0,0c0,0,0,0,0,0c0,0,0,0,0,0c0,0,0,0,0.1-0.1
						l0,0c0,0,0,0,0,0c0,0,0,0,0,0c0,0,0,0,0.1,0c0,0,0.1,0,0.1,0l0,0c0,0,0,0,0,0l0,0c0,0,0,0,0.1,0c0,0,0.1,0,0.1,0s0.1,0,0.1,0
						l0,0h0l0,0c0,0,0,0,0,0l0.1,0h0c0,0,0,0,0,0l0,0c0,0,0,0,0,0c0,0,0,0,0,0s0,0,0,0c0,0,0.1,0,0.1,0c0,0,0,0,0.1,0h0c0,0,0,0,0,0
						h0c0,0,0,0,0.1,0c0,0,0.1,0,0.1,0c0,0,0.1,0,0.1,0c0,0,0,0,0,0s0,0,0,0l0.1,0c0,0,0.1,0,0.1,0c0,0,0,0,0.1,0c0,0,0,0,0,0
						c0,0,0,0,0,0c0,0,0,0.1,0,0.1c0,0,0,0.1-0.1,0.1c0,0,0,0,0,0h0c0,0,0,0,0,0c0,0,0,0,0,0c0,0-0.1,0-0.1,0c0,0,0,0,0,0
						c0,0,0,0,0,0l0,0l0,0c0,0,0,0,0,0c0,0,0,0,0,0c0,0-0.1,0-0.1,0h0c0,0,0,0-0.1,0c0,0,0,0,0,0c0,0,0,0,0,0c0,0,0,0,0,0
						c0,0-0.1,0-0.2,0c0,0,0,0,0,0h0c0,0,0,0,0,0c0,0,0,0,0,0h0h0c0,0,0,0,0,0c0,0,0,0,0,0c0,0-0.1,0-0.1,0c0,0,0,0,0,0c0,0,0,0,0,0
						c0,0,0,0,0,0c0,0,0,0,0,0c0,0,0,0,0,0c0,0-0.1,0-0.1,0.1l0,0h0l0,0c0,0,0,0,0,0l0,0c0,0,0,0,0,0c0,0,0,0,0,0s0,0,0,0
						C31.5,17.6,31.5,17.6,31.4,17.5C31.4,17.6,31.4,17.6,31.4,17.5z"/>
				</g>
			</g>
			<g id="XMLID_2135_">
				<g id="XMLID_2136_">
					<path id="XMLID_2137_" class="st4" d="M37.6,17.3C37.6,17.3,37.6,17.3,37.6,17.3c-0.1,0.1-0.1,0.1-0.1,0.1l0,0c0,0,0,0,0,0l0,0
						c0,0-0.1,0-0.1,0l0,0c0,0,0,0,0,0c0,0,0,0,0,0c0,0,0,0-0.1,0c0,0,0,0-0.1,0l0,0c0,0,0,0,0,0h0c0,0,0,0-0.1,0c0,0,0,0-0.1,0
						c0,0,0,0-0.1,0l0,0h0l0,0c0,0,0,0,0,0h0h0c0,0,0,0,0,0h0c0,0,0,0,0,0h0c0,0,0,0,0,0c0,0,0,0-0.1,0c0,0,0,0-0.1,0h0c0,0,0,0,0,0
						h0c0,0,0,0-0.1,0c0,0,0,0-0.1,0c0,0,0,0-0.1,0l0,0c0,0,0,0,0,0l0,0c0,0-0.1,0-0.1,0c0,0,0,0,0,0h0c0,0,0,0,0,0
						c0,0,0-0.1-0.1-0.1c0,0,0-0.1,0-0.1c0,0,0-0.1,0-0.1c0,0,0,0,0,0c0,0,0,0,0,0c0,0,0,0,0,0c0,0,0.1,0,0.1,0c0,0,0,0,0,0
						c0,0,0,0,0,0l0,0l0,0c0,0,0,0,0,0c0,0,0,0,0.1,0c0,0,0.1,0,0.1,0c0,0,0,0,0,0c0,0,0,0,0.1,0c0,0,0,0,0,0c0,0,0,0,0,0
						c0,0,0,0,0,0c0.1,0,0.1,0,0.2,0c0,0,0,0,0,0c0,0,0,0,0,0c0,0,0,0,0,0c0,0,0,0,0,0h0h0c0,0,0,0,0,0c0,0,0,0,0.1,0
						c0,0,0.1,0,0.1,0c0,0,0,0,0,0c0,0,0,0,0.1,0c0,0,0,0,0,0c0,0,0,0,0,0c0,0,0,0,0,0c0.1,0,0.1,0.1,0.2,0.1c0,0,0,0,0,0l0,0
						c0,0,0,0,0,0c0,0,0,0,0,0l0,0c0,0,0,0,0,0c0,0,0,0,0,0c0,0,0,0,0,0c0,0,0,0.1-0.1,0.1C37.6,17.3,37.6,17.3,37.6,17.3z"/>
				</g>
			</g>
		</g>
		<g>
			<g id="XMLID_2123_">
				<g id="XMLID_2124_">
					<path id="XMLID_2125_" class="st4" d="M8.4,71.6c0.1,0.1,0.1,0.1,0.1,0.3c0,0.1,0,0.1,0,0.2l0,0.3c0,0.1,0,0.2,0,0.3
						c0,0.1,0,0.2,0,0.2c0,0.2,0,0.5,0,0.7l0,0.3c0,0.1,0,0.2,0,0.3c0,0.1,0,0.2,0,0.2c0,0.2,0.1,0.4,0.1,0.6c0,0.2,0.1,0.3,0.1,0.5
						l0.1,0.3l0,0.2l0,0.1c0.1,0.2,0.1,0.3,0.2,0.5c0,0.2,0.1,0.4,0.2,0.6c0.1,0.2,0.2,0.4,0.2,0.6l0,0l0,0.1l0,0
						c0,0.1,0.1,0.1,0.1,0.2l0.2,0.4l0.1,0.1l0.1,0.2l0.2,0.3c0,0.1,0.1,0.2,0.1,0.2l0.1,0.1c0,0,0.1,0.1,0.1,0.1
						c0.1,0.2,0.3,0.3,0.4,0.5c0.1,0.1,0.2,0.3,0.3,0.4l0.2,0.2c0,0.1,0.1,0.1,0.1,0.2l0.1,0.1c0.1,0.1,0.3,0.2,0.4,0.3
						c0.1,0.1,0.3,0.3,0.5,0.4c0.2,0.1,0.3,0.3,0.5,0.4c0,0,0.1,0,0.1,0.1c0.1,0,0.1,0.1,0.2,0.1c0.1,0.1,0.2,0.2,0.3,0.2
						c0.2,0.1,0.4,0.3,0.7,0.4c0.2,0,0.3,0.1,0.4,0.2c0,0,0.1,0,0.1,0.1c0,0,0.1,0.1,0.1,0.1c0.1,0.1,0.1,0.2,0,0.3
						c0,0.1-0.1,0.1-0.2,0.1c-0.1,0-0.2,0-0.3,0c0,0-0.1,0-0.2-0.1c-0.1,0-0.2-0.1-0.3-0.1c-0.1,0-0.2-0.1-0.3-0.1
						c-0.3-0.1-0.5-0.3-0.7-0.4c-0.1-0.1-0.2-0.1-0.3-0.2c-0.1-0.1-0.2-0.1-0.3-0.2c0,0,0,0,0,0s0,0,0,0c-0.1,0-0.2-0.2-0.3-0.2
						L11.7,82c-0.2-0.2-0.5-0.4-0.7-0.7c0,0-0.1-0.1-0.1-0.1c-0.1-0.1-0.2-0.2-0.3-0.4c0-0.1-0.1-0.1-0.2-0.2c0-0.1-0.1-0.1-0.1-0.2
						L10,80.2c-0.3-0.4-0.5-0.8-0.8-1.2c0-0.1-0.1-0.1-0.1-0.2c0-0.1,0-0.1-0.1-0.2c0-0.1-0.1-0.1-0.1-0.2c0-0.1-0.1-0.2-0.1-0.2
						c0-0.1-0.1-0.2-0.1-0.3c0,0,0-0.1,0-0.1c0-0.1-0.1-0.2-0.1-0.2l-0.2-0.4c-0.1-0.3-0.2-0.6-0.3-0.9l0-0.2c0-0.2-0.1-0.3-0.1-0.5
						c0-0.1,0-0.2,0-0.2c0-0.1,0-0.1,0-0.2l-0.1-0.3c-0.1-0.5,0-0.9-0.1-1.4c0-0.1,0-0.2,0-0.2c0-0.1,0-0.1,0-0.2c0-0.1,0-0.2,0-0.2
						c0-0.1,0-0.2,0-0.3l0-0.3c0-0.1,0-0.2,0.1-0.2c0-0.1,0-0.2,0-0.2c0,0,0.1-0.1,0.1-0.1c0.1-0.1,0.1-0.1,0.2-0.1
						C8.4,71.6,8.4,71.6,8.4,71.6z"/>
				</g>
			</g>
			<g id="XMLID_2114_">
				<g id="XMLID_2115_">
					<path id="XMLID_2116_" class="st4" d="M15.8,54.5c0.1,0,0.2,0,0.3,0.1c0,0,0.1,0.1,0.1,0.2c0.1,0.1,0.1,0.2,0.2,0.2
						c0.1,0.1,0.2,0.2,0.2,0.3c0,0.1,0.1,0.1,0.1,0.2c0.2,0.2,0.3,0.4,0.5,0.6c0.1,0.1,0.1,0.2,0.2,0.3c0.1,0.1,0.1,0.2,0.2,0.3
						c0,0.1,0.1,0.1,0.2,0.2c0.1,0.2,0.3,0.4,0.4,0.6c0.1,0.2,0.2,0.3,0.3,0.5c0.1,0.1,0.1,0.2,0.2,0.3c0,0.1,0.1,0.1,0.1,0.2
						c0,0,0.1,0.1,0.1,0.1c0.1,0.2,0.2,0.3,0.3,0.5c0.1,0.2,0.3,0.4,0.4,0.6c0.1,0.2,0.3,0.4,0.4,0.6c0,0,0,0,0,0c0,0,0,0,0.1,0.1
						l0,0c0,0.1,0.1,0.1,0.1,0.2c0.1,0.1,0.2,0.3,0.3,0.4c0,0,0.1,0.1,0.1,0.1c0,0.1,0.1,0.1,0.1,0.2c0.1,0.1,0.1,0.2,0.2,0.3
						c0.1,0.1,0.1,0.2,0.2,0.3c0,0,0.1,0.1,0.1,0.1c0,0,0.1,0.1,0.1,0.1c0.1,0.2,0.3,0.4,0.4,0.6c0.1,0.2,0.2,0.3,0.3,0.5
						c0.1,0.1,0.1,0.2,0.2,0.3c0,0.1,0.1,0.1,0.1,0.2c0,0,0.1,0.1,0.1,0.1c0.1,0.2,0.2,0.3,0.3,0.5c0.1,0.2,0.3,0.4,0.4,0.6
						c0.1,0.2,0.3,0.4,0.4,0.6c0,0.1,0.1,0.1,0.1,0.1c0,0.1,0.1,0.1,0.1,0.2c0.1,0.1,0.2,0.3,0.3,0.4c0.2,0.2,0.3,0.5,0.5,0.7
						c0.1,0.1,0.2,0.3,0.3,0.4c0,0.1,0.1,0.1,0.1,0.2c0,0.1,0,0.1,0,0.2c0,0.1,0,0.2-0.1,0.2c-0.1,0-0.2,0-0.3,0s-0.2-0.1-0.2-0.2
						c0,0-0.1-0.1-0.1-0.2c-0.1-0.1-0.1-0.2-0.2-0.3c-0.1-0.1-0.1-0.2-0.2-0.3c-0.2-0.2-0.3-0.5-0.5-0.7c-0.1-0.1-0.1-0.2-0.2-0.3
						c-0.1-0.1-0.1-0.2-0.2-0.3c0,0,0,0,0,0c0,0,0,0,0,0c-0.1-0.1-0.2-0.2-0.3-0.3c-0.1-0.1-0.2-0.3-0.3-0.4
						c-0.2-0.3-0.4-0.6-0.6-0.8c0-0.1-0.1-0.1-0.1-0.2c-0.1-0.1-0.2-0.3-0.3-0.4c0-0.1-0.1-0.1-0.2-0.2c0-0.1-0.1-0.1-0.1-0.2
						c-0.1-0.1-0.2-0.2-0.2-0.3c-0.3-0.4-0.5-0.8-0.8-1.2c0-0.1-0.1-0.1-0.1-0.2c0-0.1-0.1-0.1-0.1-0.2c0-0.1-0.1-0.1-0.2-0.2
						c-0.1-0.1-0.1-0.2-0.2-0.2c-0.1-0.1-0.1-0.2-0.2-0.3c0,0,0-0.1-0.1-0.1c-0.1-0.1-0.1-0.2-0.2-0.2c-0.1-0.1-0.2-0.3-0.3-0.4
						c-0.2-0.3-0.4-0.6-0.6-0.8c0-0.1-0.1-0.1-0.1-0.2c-0.1-0.1-0.2-0.3-0.3-0.4c0-0.1-0.1-0.1-0.2-0.2c0-0.1-0.1-0.1-0.1-0.2
						c-0.1-0.1-0.2-0.2-0.2-0.3c-0.3-0.4-0.5-0.8-0.8-1.2c0-0.1-0.1-0.1-0.1-0.2c0-0.1-0.1-0.1-0.1-0.2c0-0.1-0.1-0.1-0.2-0.2
						c-0.1-0.1-0.1-0.2-0.2-0.2c-0.1-0.1-0.1-0.2-0.2-0.3c-0.1-0.1-0.1-0.1-0.1-0.2c0-0.1-0.1-0.1-0.1-0.2c0,0,0-0.1,0-0.1
						c0-0.1,0-0.2,0.1-0.2C15.7,54.5,15.7,54.5,15.8,54.5z"/>
				</g>
			</g>
			<g id="XMLID_2111_">
				<g id="XMLID_2112_">
					<path id="XMLID_2113_" class="st4" d="M57.1,57.2c0.1,0,0.2,0.1,0.2,0.3c0,0.1,0,0.2,0.1,0.2c0,0.1,0,0.2,0.1,0.3
						c0,0.1,0.1,0.3,0.1,0.4c0,0.1,0,0.2,0,0.3c0.1,0.3,0.1,0.6,0.2,0.9c0,0.1,0.1,0.3,0.1,0.4c0,0.1,0,0.3,0.1,0.4
						c0,0.1,0.1,0.2,0.1,0.3c0,0.3,0.1,0.6,0.1,0.8c0,0.2,0.1,0.5,0.1,0.7c0,0.1,0,0.2,0.1,0.3c0,0.1,0,0.2,0,0.3c0,0.1,0,0.1,0,0.2
						c0,0.2,0.1,0.5,0.2,0.7c0,0.3,0.1,0.5,0.1,0.8c0.1,0.3,0.1,0.6,0.2,0.8c0,0,0,0,0,0.1c0,0,0,0.1,0,0.1c0,0,0,0,0,0
						c0,0.1,0,0.2,0,0.3c0,0.2,0.1,0.3,0.1,0.5c0,0.1,0,0.1,0,0.2c0,0.1,0,0.2,0.1,0.3c0,0.1,0.1,0.3,0.1,0.4c0,0.1,0,0.2,0,0.3
						c0,0.1,0,0.1,0,0.2c0,0.1,0,0.1,0,0.2c0,0.3,0.1,0.6,0.1,0.8c0,0.2,0.1,0.5,0.1,0.7c0,0.1,0,0.2,0.1,0.3c0,0.1,0,0.2,0,0.3
						c0,0.1,0,0.1,0,0.2c0,0.2,0.1,0.5,0.2,0.7c0,0.3,0.1,0.5,0.1,0.8c0.1,0.3,0.1,0.6,0.2,0.8c0,0.1,0,0.1,0,0.2c0,0.1,0,0.2,0,0.3
						c0,0.2,0.1,0.3,0.1,0.5c0.1,0.3,0.1,0.7,0.2,1c0.1,0.2,0.1,0.4,0.1,0.6c0,0.1,0,0.1,0,0.2c0,0.1,0,0.2,0,0.2
						c0,0.1-0.1,0.2-0.2,0.2c-0.1,0-0.2-0.1-0.2-0.1c-0.1-0.1-0.1-0.2-0.2-0.3c0-0.1,0-0.1,0-0.2c0-0.1,0-0.2-0.1-0.4
						c0-0.1,0-0.2-0.1-0.3c-0.1-0.3-0.1-0.7-0.2-1c0-0.1-0.1-0.2-0.1-0.4c0-0.2,0-0.3-0.1-0.4c0,0,0,0,0,0c0,0,0,0,0,0
						c-0.1-0.1-0.1-0.3-0.1-0.5c0-0.2-0.1-0.4-0.1-0.6c-0.1-0.4-0.2-0.8-0.2-1.2c0-0.1,0-0.2,0-0.2c0-0.2-0.1-0.4-0.1-0.6
						c0-0.1,0-0.2-0.1-0.3c0-0.1,0-0.2,0-0.3c0-0.2-0.1-0.3-0.1-0.4c-0.1-0.6-0.2-1.1-0.3-1.7c0-0.1,0-0.2-0.1-0.3
						c0-0.1,0-0.2,0-0.2c0-0.1,0-0.2-0.1-0.3c0-0.1,0-0.2-0.1-0.3c0-0.1,0-0.2-0.1-0.3c0,0,0-0.1,0-0.1c0-0.1,0-0.2-0.1-0.3
						c0-0.2-0.1-0.4-0.1-0.6c-0.1-0.4-0.2-0.8-0.2-1.2c0-0.1,0-0.2,0-0.2c0-0.2-0.1-0.4-0.1-0.6c0-0.1,0-0.2-0.1-0.3
						c0-0.1,0-0.2,0-0.3c0-0.2-0.1-0.3-0.1-0.4c-0.1-0.6-0.2-1.1-0.3-1.7c0-0.1,0-0.2-0.1-0.3c0-0.1,0-0.2,0-0.2
						c0-0.1,0-0.2-0.1-0.3c0-0.1,0-0.2-0.1-0.3c0-0.1,0-0.2-0.1-0.3c0-0.1,0-0.2,0-0.3c0-0.1,0-0.2,0-0.3c0-0.1,0-0.1,0-0.2
						c0-0.1,0.1-0.1,0.2-0.2C57,57.2,57,57.2,57.1,57.2z"/>
				</g>
			</g>
			<g id="XMLID_2108_">
				<g id="XMLID_2109_">
					<path id="XMLID_2110_" class="st4" d="M22.3,28.7c0.1,0.1,0.1,0.2,0.1,0.4c0,0.1,0,0.2,0,0.3c0,0.2,0,0.3,0,0.4
						c0,0.2,0,0.3,0,0.5c0,0.1,0,0.2,0,0.3c0,0.4,0.1,0.7,0.2,1.1l0.2,0.5c0.1,0.2,0.1,0.3,0.2,0.5c0.1,0.1,0.1,0.2,0.2,0.3
						c0.2,0.3,0.4,0.6,0.6,0.9c0.2,0.2,0.4,0.5,0.6,0.7l0.3,0.3c0.1,0.1,0.2,0.2,0.3,0.2c0.1,0,0.1,0.1,0.2,0.1
						c0.2,0.2,0.5,0.3,0.7,0.5c0.3,0.2,0.6,0.3,0.9,0.4c0.3,0.1,0.7,0.2,1,0.3c0,0,0.1,0,0.1,0l0.1,0h0c0.1,0,0.2,0,0.3,0
						c0.2,0,0.5,0,0.7,0l0.2,0l0.3,0c0.2,0,0.3,0,0.5,0c0.1,0,0.3,0,0.4,0l0.2,0c0.1,0,0.1,0,0.2-0.1c0.3-0.1,0.7-0.2,1-0.3
						c0.3-0.1,0.5-0.3,0.8-0.4c0.1-0.1,0.2-0.2,0.4-0.3c0.1-0.1,0.2-0.2,0.3-0.2c0.1,0,0.1-0.1,0.2-0.2c0.2-0.2,0.4-0.4,0.5-0.6
						c0.2-0.3,0.4-0.5,0.5-0.8c0.2-0.3,0.3-0.6,0.4-1c0-0.1,0-0.2,0.1-0.2c0-0.1,0.1-0.2,0.1-0.3c0-0.2,0.1-0.4,0.1-0.7
						c0.1-0.4,0.1-0.8,0-1.3c0-0.3-0.1-0.5-0.1-0.7c0-0.1,0-0.2,0-0.3c0-0.1,0-0.2,0-0.3c0-0.2,0.1-0.3,0.1-0.3
						c0.1,0,0.2,0.1,0.3,0.2c0.1,0.1,0.2,0.2,0.2,0.4c0,0.1,0,0.2,0.1,0.3c0,0.2,0.1,0.3,0.1,0.5c0,0.2,0,0.3,0,0.5
						c0,0.5,0,1-0.1,1.4c0,0.2,0,0.3-0.1,0.5c-0.1,0.2-0.1,0.4-0.2,0.6l0,0.1c0,0,0,0,0,0.1c0,0.2-0.2,0.4-0.3,0.6
						c-0.1,0.2-0.2,0.5-0.4,0.7c-0.3,0.5-0.6,0.9-1.1,1.2l-0.2,0.2c-0.2,0.2-0.4,0.3-0.7,0.5c-0.1,0.1-0.2,0.2-0.4,0.2
						c-0.1,0-0.2,0.1-0.3,0.1c-0.2,0.1-0.4,0.2-0.5,0.2c-0.8,0.3-1.5,0.4-2.3,0.4c-0.1,0-0.3,0-0.4,0c-0.1,0-0.2,0-0.3,0
						c-0.1,0-0.3,0-0.4,0c-0.2,0-0.3,0-0.5-0.1c-0.2,0-0.3-0.1-0.5-0.1c-0.1,0-0.1,0-0.2,0c-0.1,0-0.3-0.1-0.4-0.1
						c-0.2-0.1-0.5-0.2-0.7-0.3c-0.5-0.2-1-0.5-1.4-0.9l-0.2-0.2c-0.2-0.2-0.4-0.4-0.6-0.6c-0.1-0.1-0.2-0.2-0.3-0.3
						c-0.1-0.1-0.1-0.2-0.2-0.3c-0.1-0.2-0.2-0.3-0.4-0.5c-0.4-0.7-0.7-1.4-0.9-2.2c0-0.1-0.1-0.3-0.1-0.4c0-0.1,0-0.2,0-0.3
						c0-0.1,0-0.3,0-0.4c0-0.2,0-0.3,0-0.5l0-0.5c0-0.2,0-0.2,0.1-0.4c0-0.1,0-0.3,0.1-0.4c0-0.1,0.1-0.1,0.1-0.2
						c0.1-0.1,0.2-0.1,0.2-0.1C22.2,28.7,22.2,28.7,22.3,28.7z"/>
				</g>
			</g>
			<g id="XMLID_2102_">
				<g id="XMLID_2103_">
					<path id="XMLID_2104_" class="st4" d="M86.4,94c-0.1-0.1-0.1-0.2,0-0.3c0-0.1,0-0.1,0.1-0.2c0-0.1,0.1-0.1,0.1-0.2
						c0-0.1,0.1-0.2,0.1-0.3c0-0.1,0.1-0.1,0.1-0.2c0.1-0.2,0.2-0.4,0.3-0.6c0-0.1,0.1-0.2,0.1-0.2c0-0.1,0.1-0.2,0.2-0.2
						c0-0.1,0-0.1,0.1-0.2c0.1-0.2,0.2-0.4,0.3-0.5c0.1-0.1,0.2-0.3,0.3-0.4c0-0.1,0.1-0.2,0.1-0.2c0-0.1,0.1-0.1,0.1-0.2
						c0,0,0-0.1,0.1-0.1c0.1-0.1,0.1-0.3,0.2-0.4c0.1-0.2,0.2-0.3,0.3-0.5c0.1-0.2,0.2-0.3,0.3-0.5c0,0,0,0,0,0c0,0,0,0,0-0.1
						c0,0,0,0,0,0c0-0.1,0.1-0.1,0.1-0.2c0.1-0.1,0.1-0.2,0.2-0.3c0,0,0-0.1,0.1-0.1c0-0.1,0.1-0.1,0.1-0.2c0-0.1,0.1-0.2,0.1-0.2
						c0-0.1,0.1-0.1,0.1-0.2c0,0,0-0.1,0.1-0.1c0,0,0-0.1,0-0.1c0.1-0.2,0.2-0.4,0.3-0.5c0.1-0.1,0.2-0.3,0.3-0.4
						c0-0.1,0.1-0.2,0.1-0.2c0-0.1,0.1-0.1,0.1-0.2c0,0,0-0.1,0.1-0.1c0.1-0.1,0.1-0.3,0.2-0.4c0.1-0.2,0.2-0.3,0.3-0.5
						c0.1-0.2,0.2-0.3,0.3-0.5c0,0,0-0.1,0.1-0.1c0-0.1,0.1-0.1,0.1-0.2c0.1-0.1,0.1-0.2,0.2-0.3c0.1-0.2,0.3-0.4,0.4-0.6
						c0-0.1,0.1-0.2,0.2-0.4c0,0,0-0.1,0.1-0.1c0,0,0.1-0.1,0.1-0.1c0.1,0,0.2,0,0.2,0c0.1,0,0.1,0.1,0.1,0.2c0,0.1,0,0.2,0,0.3
						c0,0,0,0.1-0.1,0.1c0,0.1-0.1,0.2-0.1,0.2c0,0.1-0.1,0.1-0.1,0.2c-0.1,0.2-0.2,0.4-0.4,0.6c0,0.1-0.1,0.2-0.1,0.2
						c-0.1,0.1-0.1,0.2-0.2,0.3c0,0,0,0,0,0c0,0,0,0,0,0c0,0.1-0.1,0.2-0.2,0.3c-0.1,0.1-0.1,0.2-0.2,0.3c-0.1,0.2-0.3,0.5-0.4,0.7
						c0,0-0.1,0.1-0.1,0.2c-0.1,0.1-0.1,0.3-0.2,0.4c0,0.1-0.1,0.1-0.1,0.2c0,0-0.1,0.1-0.1,0.2c0,0.1-0.1,0.2-0.1,0.3
						c-0.2,0.3-0.4,0.7-0.6,1.1c0,0.1-0.1,0.1-0.1,0.2c0,0-0.1,0.1-0.1,0.1c0,0.1-0.1,0.1-0.1,0.2c0,0.1-0.1,0.1-0.1,0.2
						c0,0.1-0.1,0.2-0.1,0.2c0,0,0,0.1,0,0.1c0,0.1-0.1,0.1-0.1,0.2c-0.1,0.1-0.1,0.2-0.2,0.3c-0.1,0.2-0.3,0.5-0.4,0.7
						c0,0-0.1,0.1-0.1,0.2c-0.1,0.1-0.1,0.3-0.2,0.4c0,0.1-0.1,0.1-0.1,0.2c0,0-0.1,0.1-0.1,0.2c0,0.1-0.1,0.2-0.1,0.3
						c-0.2,0.3-0.4,0.7-0.6,1.1c0,0.1-0.1,0.1-0.1,0.2c0,0-0.1,0.1-0.1,0.1c0,0.1-0.1,0.1-0.1,0.2c0,0.1-0.1,0.1-0.1,0.2
						c0,0.1-0.1,0.2-0.1,0.2c0,0.1-0.1,0.1-0.1,0.2c0,0-0.1,0.1-0.1,0.2c0,0-0.1,0-0.1,0c-0.1,0-0.2,0-0.2,0
						C86.4,94.1,86.4,94,86.4,94z"/>
				</g>
			</g>
		</g>
		<circle cx="31.5" cy="18.5" r="2.3"/>
		<circle cx="37.7" cy="18.5" r="2.3"/>
		<g>
			<g>
				<g>
					<g>
						<path class="st3" d="M35.3,18.7c-0.8-0.4-1.6,0-1.6,0l-0.2-0.3c0,0,0.9-0.5,1.9,0L35.3,18.7z"/>
					</g>
				</g>
			</g>
			<g>
				<g>
					<g>
						<path class="st3" d="M29.2,18.3h-4.9c-0.1,0-0.2-0.1-0.2-0.2s0.1-0.2,0.2-0.2h4.9c0.1,0,0.2,0.1,0.2,0.2S29.3,18.3,29.2,18.3z
							"/>
					</g>
				</g>
			</g>
			<g>
				<g>
					<g>
						<path class="st3" d="M31.4,20.9c-1.3,0-2.4-1.1-2.4-2.4c0-1.3,1.1-2.4,2.4-2.4s2.4,1.1,2.4,2.4C33.9,19.8,32.8,20.9,31.4,20.9
							z M31.4,16.4c-1.1,0-2.1,0.9-2.1,2.1c0,1.1,0.9,2.1,2.1,2.1s2.1-0.9,2.1-2.1C33.5,17.4,32.6,16.4,31.4,16.4z"/>
					</g>
				</g>
			</g>
			<g>
				<g>
					<g>
						<path class="st3" d="M37.6,20.9c-1.3,0-2.4-1.1-2.4-2.4c0-1.3,1.1-2.4,2.4-2.4c1.3,0,2.4,1.1,2.4,2.4
							C40.1,19.8,39,20.9,37.6,20.9z M37.6,16.4c-1.1,0-2.1,0.9-2.1,2.1c0,1.1,0.9,2.1,2.1,2.1s2.1-0.9,2.1-2.1
							C39.7,17.4,38.8,16.4,37.6,16.4z"/>
					</g>
				</g>
			</g>
		</g>
		<g id="XMLID_1076_">
			<path id="XMLID_1077_" d="M22,12l18.1,1.7c0,0,1.4-8.8-6.5-9.8C23.3,2.7,22,12,22,12z"/>
		</g>
		<g id="XMLID_1073_">
			<g id="XMLID_1074_">
				<path id="XMLID_1075_" d="M47.5,15.2C47.5,15.2,47.5,15.2,47.5,15.2L22.8,12c-0.3,0-0.4-0.3-0.4-0.7c0-0.3,0.3-0.6,0.5-0.5
					L47.6,14c0.3,0,0.4,0.3,0.4,0.7C47.9,15,47.7,15.2,47.5,15.2z"/>
			</g>
		</g>
	</g>
</g>
</svg>
