<?xml version="1.0" encoding="utf-8"?>
<!-- Generator: Adobe Illustrator 25.4.1, SVG Export Plug-In . SVG Version: 6.00 Build 0)  -->
<svg version="1.1" id="Capa_1" xmlns="http://www.w3.org/2000/svg" xmlns:xlink="http://www.w3.org/1999/xlink" x="0px" y="0px"
	 viewBox="0 0 86.81 60.5" style="enable-background:new 0 0 86.81 60.5;" xml:space="preserve">
<style type="text/css">
	.st0{clip-path:url(#SVGID_00000108987258092897939780000009109752655758283693_);}
	.st1{fill:#F2CDAC;}
	.st2{fill:#941914;}
	.st3{fill:#FFFFFF;}
	.st4{fill:#1A1B1D;}
</style>
<g>
	<defs>
		<rect id="SVGID_1_" width="86.81" height="60.5"/>
	</defs>
	<clipPath id="SVGID_00000093866793588196967360000004172257460971237248_">
		<use xlink:href="#SVGID_1_"  style="overflow:visible;"/>
	</clipPath>
	<g style="clip-path:url(#SVGID_00000093866793588196967360000004172257460971237248_);">
		<g id="XMLID_1728_">
			<g id="XMLID_1729_">
				<g id="XMLID_1730_">
					<path id="XMLID_1731_" class="st1" d="M50.36,36.49l23.88,26.09l0.27,0.3c0.87,0.96,2.03,1.48,3.22,1.56l30.17,2.15
						c2.3,0.17,4.28-1.56,4.45-3.86c0.15-2.18-1.41-4.08-3.53-4.42l-29.91-4.6l3.49,1.86l-22-27.71c-2.28-2.87-6.45-3.34-9.32-1.07
						c-2.87,2.28-3.34,6.45-1.07,9.32C50.16,36.25,50.26,36.39,50.36,36.49z"/>
				</g>
			</g>
		</g>
		<g id="XMLID_1712_">
			<g id="XMLID_1713_">
				<g id="XMLID_1714_">
					<path id="XMLID_1715_" class="st2" d="M51.14,26.82c2.87-2.28,7.04-1.8,9.32,1.07l10.36,13.05l-9.12,7.93L50.36,36.47
						c-0.1-0.1-0.2-0.24-0.3-0.35C47.8,33.26,48.27,29.1,51.14,26.82z"/>
				</g>
			</g>
		</g>
		<g id="XMLID_1700_">
			<g id="XMLID_1701_">
				<g id="XMLID_1702_">
					<path id="XMLID_1703_" class="st2" d="M66.72,67.89c0,0-1.93-20.2-3.27-32.78c-1.06-9.89-11.47-14.81-22.94-14.17
						c-11.45,0.65-16.81,6.6-17.33,15.7c-0.52,9.08-2.69,32.31-2.69,32.31s7.09,1.88,22.87,1.53C59.15,70.1,66.72,67.89,66.72,67.89
						z"/>
				</g>
			</g>
		</g>
		<g id="XMLID_1696_">
			<g id="XMLID_1697_">
				<g id="XMLID_1698_">
					<path id="XMLID_1699_" class="st1" d="M31.16,23.17L-1.74,39.78l-0.34,0.17c-2.12,1.07-3.19,3.38-2.84,5.59l6.15,36.79
						c0.39,2.27,2.52,3.79,4.79,3.43c2.17-0.35,3.64-2.33,3.46-4.48L6.14,44.13l-3.16,5.76l33.78-14.71
						c3.36-1.46,4.89-5.37,3.43-8.71c-1.46-3.36-5.37-4.89-8.71-3.43C31.39,23.05,31.26,23.12,31.16,23.17z"/>
				</g>
			</g>
		</g>
		<g id="XMLID_1692_">
			<g id="XMLID_1693_">
				<g id="XMLID_1694_">
					<path id="XMLID_1695_" class="st2" d="M13.71,31.99l17.45-8.82c0.1-0.05,0.24-0.12,0.34-0.17c3.36-1.46,7.54,0.08,9,3.43
						c1.46,3.36-0.35,7.54-3.71,9l-18.59,7.82L13.71,31.99z"/>
				</g>
			</g>
		</g>
		<g>
			<g id="XMLID_1282_">
				<g id="XMLID_1284_">
					<g id="XMLID_1285_">
						<g id="XMLID_1291_">
							<path id="XMLID_1292_" class="st3" d="M65.02,52.88c0.07-0.05,0.08-0.12,0.1-0.27c0-0.07,0-0.13,0-0.2
								c0-0.1-0.02-0.2-0.02-0.29c-0.02-0.12,0-0.24-0.02-0.37c-0.02-0.08-0.02-0.15-0.02-0.24c-0.02-0.25-0.03-0.5-0.05-0.76
								c-0.02-0.12-0.02-0.22-0.02-0.34c-0.02-0.12-0.03-0.22-0.05-0.34c0-0.08,0-0.17,0-0.25c-0.03-0.24-0.02-0.49-0.07-0.71
								c-0.02-0.2-0.03-0.39-0.05-0.59c0-0.1-0.02-0.2-0.02-0.3c0-0.08-0.02-0.15-0.03-0.24c0-0.05,0-0.1-0.02-0.15
								c-0.02-0.18-0.02-0.39-0.03-0.57c-0.02-0.22-0.03-0.44-0.07-0.65c-0.02-0.24-0.03-0.47-0.07-0.71c0-0.02,0-0.03,0-0.07
								c0-0.03,0-0.05,0-0.08c0-0.02,0-0.02,0-0.03c0-0.07-0.02-0.15-0.02-0.22c-0.02-0.15-0.02-0.3-0.03-0.45
								c0-0.05-0.02-0.1-0.02-0.15c0-0.08-0.02-0.17-0.02-0.24c-0.02-0.12-0.02-0.22-0.02-0.34c0-0.1-0.03-0.18-0.03-0.29
								c0-0.05,0-0.1,0-0.15s0-0.1,0-0.13c-0.03-0.24-0.02-0.49-0.07-0.71c-0.02-0.2-0.03-0.39-0.05-0.59
								c-0.02-0.1-0.02-0.2-0.02-0.3c0-0.08-0.02-0.15-0.03-0.24c0-0.05,0-0.1-0.02-0.15c-0.02-0.18-0.02-0.39-0.03-0.57
								c-0.02-0.22-0.03-0.44-0.07-0.65c-0.02-0.24-0.03-0.47-0.07-0.71c0-0.07,0-0.12,0-0.17c0-0.07-0.02-0.15-0.02-0.22
								c-0.02-0.15-0.02-0.3-0.03-0.45c-0.02-0.29-0.08-0.57-0.08-0.86c0-0.17-0.02-0.32-0.03-0.49c0-0.07-0.02-0.12-0.03-0.17
								c-0.02-0.07-0.05-0.12-0.07-0.17c-0.05-0.1-0.1-0.13-0.17-0.12c-0.07,0.02-0.1,0.08-0.13,0.17c-0.03,0.07-0.05,0.18-0.03,0.3
								c0,0.05,0,0.12,0.02,0.17c0,0.1,0.02,0.2,0.02,0.32c0,0.1,0.03,0.18,0.03,0.3c0.02,0.3,0.05,0.59,0.08,0.87
								c0,0.1,0,0.22,0.02,0.32c0.02,0.13,0.02,0.24,0.05,0.37c0,0.02,0,0.02,0,0.03c0,0.02,0,0.03,0,0.03
								c-0.02,0.12,0.02,0.29,0.02,0.42c0.02,0.15,0.02,0.32,0.03,0.47c0.03,0.34,0.05,0.67,0.08,0.99c0,0.07,0.02,0.13,0.02,0.2
								c0,0.17,0.02,0.34,0.03,0.5c0,0.08,0.02,0.17,0.02,0.25c0.02,0.07,0.03,0.13,0.03,0.22c0,0.12,0.02,0.25,0.02,0.37
								c0.03,0.49,0.08,0.96,0.12,1.44c0,0.08,0.02,0.17,0.02,0.24c0.02,0.07,0.02,0.13,0.03,0.2c0,0.08,0,0.15,0,0.24
								c0,0.1,0.02,0.18,0.02,0.29c0,0.1,0.02,0.2,0.02,0.3c0,0.03,0,0.07,0.02,0.1c0,0.08,0.02,0.18,0.02,0.27
								c0.02,0.15,0.02,0.32,0.03,0.47c0.03,0.34,0.05,0.67,0.08,0.99c0,0.07,0.02,0.13,0.02,0.2c0,0.17,0.02,0.34,0.03,0.5
								c0,0.08,0.02,0.17,0.02,0.25c0.02,0.07,0.03,0.13,0.03,0.22c0,0.12,0.02,0.25,0.02,0.37c0.03,0.49,0.08,0.96,0.12,1.44
								c0,0.08,0.02,0.17,0.02,0.24c0.02,0.07,0.02,0.13,0.03,0.2c0,0.08,0,0.15,0,0.24c0,0.1,0.02,0.18,0.02,0.29
								c0,0.1,0.02,0.2,0.02,0.3c0,0.1,0.02,0.15,0.03,0.24c0.02,0.07,0,0.17,0.03,0.24c0.02,0.05,0.03,0.08,0.07,0.1
								c0.05,0.07,0.1,0.08,0.15,0.1C64.97,52.93,64.99,52.89,65.02,52.88z"/>
						</g>
					</g>
				</g>
			</g>
			<g id="XMLID_1270_">
				<g id="XMLID_1271_">
					<g id="XMLID_1276_">
						<g id="XMLID_1280_">
							<path id="XMLID_1281_" class="st3" d="M18.24,43.3c0.07,0.05,0.12,0.07,0.24,0.03c0.05-0.02,0.1-0.03,0.15-0.05l0.22-0.08
								c0.08-0.03,0.18-0.05,0.27-0.1c0.07-0.03,0.12-0.05,0.17-0.08c0.18-0.07,0.37-0.15,0.55-0.22l0.24-0.1
								c0.07-0.03,0.17-0.08,0.24-0.12c0.07-0.03,0.12-0.03,0.18-0.07c0.17-0.1,0.35-0.15,0.5-0.24c0.15-0.07,0.29-0.13,0.42-0.2
								l0.22-0.1l0.17-0.08l0.12-0.05c0.13-0.07,0.29-0.1,0.42-0.17c0.15-0.07,0.32-0.15,0.47-0.22c0.17-0.08,0.34-0.15,0.5-0.24
								c0.02,0,0.03-0.02,0.05-0.02l0.07-0.02h0.02c0.05-0.03,0.1-0.05,0.15-0.07l0.32-0.15l0.1-0.05l0.17-0.07l0.24-0.1
								c0.07-0.03,0.13-0.07,0.2-0.1l0.12-0.05c0.03-0.02,0.07-0.02,0.1-0.03c0.17-0.1,0.35-0.15,0.5-0.25
								c0.13-0.07,0.29-0.13,0.42-0.2l0.22-0.1l0.17-0.08l0.12-0.05c0.13-0.05,0.29-0.1,0.42-0.17c0.15-0.07,0.32-0.15,0.47-0.22
								c0.17-0.08,0.34-0.15,0.5-0.24c0.05-0.02,0.08-0.03,0.12-0.05c0.05-0.02,0.1-0.05,0.15-0.07l0.34-0.13
								c0.2-0.08,0.4-0.22,0.62-0.29c0.12-0.03,0.24-0.08,0.35-0.13c0.05-0.02,0.08-0.03,0.12-0.07c0.03-0.03,0.07-0.07,0.1-0.1
								c0.07-0.07,0.07-0.13,0.03-0.18c-0.03-0.05-0.1-0.07-0.17-0.08c-0.07-0.02-0.15,0-0.24,0.03c-0.03,0.02-0.08,0.03-0.13,0.05
								c-0.08,0.03-0.15,0.07-0.24,0.08c-0.07,0.03-0.13,0.07-0.22,0.1c-0.22,0.08-0.42,0.18-0.64,0.29
								c-0.08,0.03-0.15,0.05-0.24,0.08c-0.08,0.03-0.17,0.08-0.25,0.13l-0.03,0.02c0,0-0.02,0-0.03,0c-0.1,0.02-0.22,0.08-0.3,0.12
								l-0.34,0.15c-0.24,0.12-0.47,0.22-0.71,0.34l-0.15,0.07c-0.12,0.05-0.25,0.1-0.37,0.15c-0.05,0.03-0.12,0.05-0.18,0.08
								c-0.05,0.03-0.08,0.07-0.15,0.08l-0.27,0.12c-0.35,0.17-0.69,0.34-1.04,0.49c-0.05,0.02-0.12,0.05-0.17,0.08
								c-0.05,0.02-0.1,0.05-0.13,0.08c-0.05,0.03-0.12,0.05-0.17,0.07c-0.07,0.03-0.13,0.05-0.2,0.08l-0.22,0.1
								c-0.03,0.02-0.05,0.03-0.07,0.03c-0.07,0.03-0.13,0.07-0.18,0.08l-0.34,0.15c-0.24,0.12-0.47,0.22-0.71,0.34l-0.13,0.07
								c-0.12,0.05-0.25,0.1-0.37,0.15c-0.05,0.03-0.12,0.05-0.18,0.08c-0.05,0.03-0.08,0.07-0.15,0.08l-0.27,0.12
								c-0.35,0.15-0.69,0.32-1.04,0.47c-0.07,0.03-0.12,0.05-0.17,0.08c-0.05,0.02-0.1,0.05-0.13,0.07
								c-0.05,0.03-0.12,0.05-0.17,0.07c-0.07,0.03-0.13,0.05-0.2,0.08l-0.22,0.08c-0.07,0.03-0.1,0.05-0.17,0.08
								c-0.05,0.03-0.12,0.05-0.17,0.08c-0.03,0.02-0.05,0.05-0.07,0.08c-0.03,0.05-0.03,0.12-0.02,0.15
								C18.19,43.27,18.23,43.29,18.24,43.3z"/>
						</g>
					</g>
				</g>
			</g>
			<g id="XMLID_1263_">
				<g id="XMLID_1264_">
					<g id="XMLID_1266_">
						<g id="XMLID_1267_">
							<path id="XMLID_1268_" class="st3" d="M19.84,42.5c0.05-0.07,0.07-0.12,0.05-0.24c0-0.05-0.03-0.1-0.05-0.15
								c-0.03-0.07-0.05-0.13-0.08-0.2c-0.03-0.08-0.05-0.18-0.08-0.27c-0.03-0.05-0.05-0.12-0.07-0.17
								c-0.07-0.18-0.12-0.37-0.2-0.54c-0.03-0.08-0.05-0.15-0.08-0.24c-0.03-0.08-0.07-0.15-0.1-0.24
								c-0.02-0.05-0.03-0.12-0.05-0.18c-0.08-0.17-0.12-0.35-0.2-0.5c-0.07-0.13-0.12-0.27-0.17-0.42
								c-0.03-0.07-0.05-0.15-0.08-0.22c-0.02-0.05-0.05-0.1-0.07-0.17c-0.02-0.03-0.03-0.07-0.03-0.12
								c-0.05-0.13-0.08-0.29-0.13-0.42c-0.07-0.15-0.12-0.32-0.18-0.47c-0.07-0.17-0.12-0.34-0.2-0.5c0-0.02-0.02-0.03-0.02-0.05
								s-0.02-0.03-0.02-0.07v-0.02c-0.02-0.05-0.03-0.1-0.05-0.15c-0.03-0.1-0.08-0.22-0.12-0.32c-0.02-0.03-0.03-0.07-0.05-0.1
								c-0.02-0.05-0.03-0.12-0.07-0.17c-0.03-0.08-0.05-0.15-0.08-0.24c-0.03-0.07-0.07-0.13-0.08-0.2
								c-0.02-0.03-0.02-0.07-0.03-0.12c-0.02-0.03-0.02-0.07-0.03-0.1c-0.08-0.17-0.12-0.35-0.2-0.5
								c-0.07-0.13-0.12-0.27-0.17-0.42c-0.03-0.07-0.05-0.15-0.08-0.22c-0.02-0.05-0.05-0.1-0.07-0.17
								c-0.02-0.03-0.03-0.07-0.03-0.12c-0.05-0.13-0.08-0.29-0.13-0.42c-0.07-0.15-0.12-0.32-0.18-0.47
								c-0.07-0.17-0.12-0.34-0.2-0.5c-0.02-0.05-0.03-0.08-0.03-0.12c-0.02-0.05-0.03-0.1-0.05-0.15c-0.03-0.1-0.08-0.22-0.12-0.32
								c-0.07-0.2-0.18-0.4-0.25-0.6c-0.03-0.12-0.07-0.24-0.12-0.35c-0.02-0.05-0.03-0.08-0.05-0.12c-0.03-0.03-0.07-0.07-0.1-0.1
								c-0.07-0.07-0.13-0.07-0.18-0.03c-0.05,0.03-0.07,0.08-0.1,0.17c-0.02,0.07-0.02,0.15,0.02,0.24
								c0.02,0.03,0.03,0.08,0.05,0.13c0.02,0.07,0.05,0.15,0.08,0.22c0.03,0.07,0.07,0.13,0.08,0.2c0.07,0.22,0.17,0.42,0.25,0.62
								c0.03,0.08,0.05,0.15,0.08,0.24c0.03,0.08,0.07,0.17,0.12,0.25c0,0.02,0.02,0.02,0.02,0.03c0,0.02,0,0.02,0,0.03
								c0.02,0.1,0.07,0.22,0.1,0.3c0.03,0.12,0.08,0.22,0.13,0.34c0.1,0.24,0.18,0.47,0.29,0.71c0.02,0.05,0.03,0.1,0.05,0.13
								c0.03,0.12,0.08,0.24,0.13,0.37c0.02,0.05,0.05,0.12,0.07,0.18c0.03,0.05,0.05,0.08,0.07,0.15c0.03,0.08,0.05,0.17,0.08,0.27
								c0.13,0.35,0.27,0.69,0.4,1.02c0.02,0.05,0.03,0.12,0.07,0.17c0.02,0.05,0.05,0.08,0.07,0.13s0.03,0.12,0.05,0.17
								c0.02,0.07,0.05,0.13,0.07,0.2c0.03,0.07,0.05,0.13,0.08,0.22c0.02,0.03,0.02,0.05,0.03,0.07c0.02,0.07,0.05,0.13,0.07,0.18
								c0.03,0.12,0.08,0.22,0.13,0.34c0.1,0.24,0.18,0.47,0.29,0.71c0.02,0.05,0.03,0.1,0.05,0.13c0.03,0.12,0.08,0.24,0.13,0.37
								c0.02,0.05,0.05,0.12,0.07,0.18c0.03,0.05,0.05,0.08,0.07,0.15c0.03,0.08,0.05,0.17,0.08,0.27c0.13,0.35,0.27,0.69,0.4,1.02
								c0.02,0.05,0.03,0.12,0.07,0.17c0.02,0.05,0.05,0.08,0.07,0.13c0.02,0.05,0.03,0.12,0.05,0.17c0.02,0.07,0.05,0.13,0.07,0.2
								c0.03,0.07,0.05,0.13,0.08,0.22c0.03,0.07,0.05,0.1,0.08,0.17c0.02,0.05,0.03,0.12,0.07,0.15c0.02,0.03,0.05,0.05,0.08,0.07
								c0.05,0.03,0.1,0.03,0.15,0.03C19.8,42.55,19.82,42.52,19.84,42.5z"/>
						</g>
					</g>
				</g>
			</g>
			<g id="XMLID_1229_">
				<g id="XMLID_1231_">
					<g id="XMLID_1233_">
						<g id="XMLID_1238_">
							<path id="XMLID_1240_" class="st3" d="M64.1,44.68c0.07,0.03,0.1,0.03,0.18,0c0.03-0.02,0.05-0.03,0.08-0.07
								c0.03-0.03,0.07-0.07,0.1-0.1c0.03-0.03,0.1-0.07,0.13-0.12c0.02-0.03,0.05-0.05,0.08-0.08c0.08-0.08,0.18-0.15,0.27-0.25
								c0.03-0.03,0.08-0.07,0.12-0.12c0.03-0.03,0.07-0.08,0.1-0.12c0.03-0.03,0.07-0.03,0.1-0.07c0.07-0.1,0.18-0.15,0.24-0.25
								c0.07-0.07,0.13-0.13,0.2-0.2c0.03-0.03,0.07-0.07,0.1-0.1s0.05-0.07,0.07-0.08c0.02-0.02,0.03-0.03,0.05-0.05
								c0.07-0.07,0.15-0.12,0.2-0.18c0.07-0.08,0.15-0.15,0.22-0.22c0.08-0.08,0.17-0.15,0.24-0.24l0.02-0.02
								c0.02,0,0.02-0.02,0.03-0.02c0,0,0,0,0.02,0c0.03-0.02,0.05-0.05,0.08-0.07c0.05-0.05,0.1-0.1,0.15-0.15
								c0.02-0.02,0.03-0.03,0.05-0.05c0.03-0.03,0.05-0.05,0.08-0.08c0.03-0.03,0.08-0.07,0.12-0.12c0.03-0.03,0.05-0.07,0.08-0.1
								c0.02-0.02,0.03-0.03,0.05-0.05c0.02-0.02,0.03-0.02,0.05-0.05c0.07-0.1,0.18-0.15,0.24-0.25c0.07-0.07,0.13-0.13,0.2-0.2
								c0.03-0.03,0.07-0.07,0.1-0.1c0.03-0.03,0.05-0.07,0.07-0.08c0.02-0.02,0.03-0.03,0.05-0.05c0.07-0.07,0.15-0.12,0.2-0.18
								c0.07-0.08,0.15-0.15,0.22-0.22c0.08-0.08,0.17-0.15,0.24-0.24c0.02-0.02,0.03-0.03,0.07-0.05c0.03-0.02,0.05-0.05,0.08-0.07
								c0.05-0.05,0.1-0.1,0.15-0.15c0.1-0.1,0.17-0.22,0.29-0.3c0.07-0.05,0.12-0.1,0.17-0.15c0.02-0.02,0.03-0.03,0.05-0.07
								c0.02-0.03,0.02-0.07,0.02-0.1c0.02-0.07-0.02-0.12-0.07-0.15c-0.05-0.03-0.1-0.05-0.15-0.05c-0.05-0.02-0.1,0.02-0.15,0.05
								c-0.02,0.02-0.03,0.03-0.07,0.05c-0.03,0.03-0.07,0.07-0.12,0.1c-0.03,0.03-0.05,0.07-0.1,0.1c-0.12,0.08-0.2,0.2-0.3,0.3
								c-0.03,0.03-0.08,0.07-0.12,0.1c-0.05,0.05-0.08,0.08-0.12,0.13c0,0,0,0.02-0.02,0.02h-0.02c-0.05,0.02-0.12,0.08-0.15,0.13
								c-0.05,0.05-0.12,0.1-0.17,0.15c-0.12,0.12-0.24,0.22-0.34,0.34c-0.02,0.02-0.05,0.05-0.07,0.07
								c-0.07,0.05-0.12,0.1-0.18,0.17c-0.03,0.03-0.07,0.05-0.08,0.08c-0.02,0.03-0.03,0.05-0.07,0.08
								c-0.05,0.03-0.08,0.07-0.13,0.12c-0.17,0.17-0.32,0.34-0.49,0.49c-0.03,0.03-0.05,0.05-0.08,0.08
								c-0.02,0.02-0.03,0.05-0.07,0.07c-0.03,0.03-0.07,0.05-0.08,0.07c-0.03,0.03-0.07,0.05-0.1,0.08
								c-0.03,0.03-0.07,0.07-0.1,0.1c-0.02,0.02-0.02,0.03-0.03,0.03c-0.03,0.03-0.07,0.07-0.08,0.08
								c-0.05,0.05-0.12,0.1-0.17,0.15c-0.12,0.12-0.24,0.22-0.34,0.34c-0.02,0.02-0.05,0.05-0.07,0.07
								c-0.07,0.05-0.12,0.1-0.18,0.17c-0.03,0.03-0.07,0.05-0.08,0.08c-0.02,0.03-0.03,0.05-0.07,0.08
								c-0.05,0.03-0.08,0.07-0.13,0.12c-0.17,0.17-0.32,0.34-0.49,0.49c-0.03,0.03-0.05,0.05-0.08,0.08
								c-0.02,0.02-0.03,0.05-0.07,0.07c-0.03,0.03-0.07,0.05-0.08,0.07c-0.03,0.03-0.07,0.07-0.1,0.08
								c-0.03,0.03-0.07,0.07-0.1,0.1c-0.03,0.03-0.05,0.07-0.07,0.1c-0.02,0.03-0.07,0.05-0.07,0.08c0,0.02,0,0.05,0,0.07
								c0,0.05,0.03,0.1,0.05,0.13C64.05,44.66,64.08,44.66,64.1,44.68z"/>
						</g>
					</g>
				</g>
			</g>
			<g id="XMLID_1211_">
				<g id="XMLID_1213_">
					<g id="XMLID_1214_">
						<g id="XMLID_1226_">
							<path id="XMLID_1228_" class="st3" d="M39.06,20.92c-0.08,0.03-0.13,0.08-0.22,0.24c-0.03,0.07-0.05,0.15-0.07,0.22
								c-0.03,0.12-0.05,0.22-0.07,0.34c-0.03,0.13-0.07,0.27-0.07,0.42c0,0.1-0.02,0.18-0.02,0.27c-0.02,0.3-0.02,0.59,0.03,0.89
								c0.02,0.13,0.03,0.25,0.07,0.39c0.02,0.13,0.08,0.25,0.12,0.37c0.03,0.08,0.03,0.18,0.08,0.27c0.12,0.25,0.2,0.54,0.37,0.74
								c0.12,0.2,0.25,0.39,0.39,0.55c0.08,0.08,0.13,0.18,0.24,0.27c0.07,0.07,0.13,0.13,0.2,0.2l0.13,0.12
								c0.17,0.15,0.34,0.3,0.52,0.42c0.22,0.13,0.45,0.25,0.69,0.35c0.25,0.1,0.52,0.2,0.79,0.24c0.02,0,0.05,0.02,0.07,0.02
								l0.08,0.02h0.03c0.08,0.02,0.17,0.03,0.25,0.03c0.17,0.03,0.35,0.03,0.52,0.05c0.05,0,0.12,0,0.17,0c0.08,0,0.18,0,0.29,0
								l0.39-0.03c0.1-0.02,0.22-0.05,0.32-0.07l0.17-0.03c0.05-0.02,0.1-0.02,0.15-0.03c0.27-0.1,0.54-0.17,0.77-0.32
								c0.2-0.12,0.4-0.24,0.59-0.37c0.1-0.07,0.18-0.15,0.29-0.22c0.08-0.05,0.13-0.13,0.2-0.2l0.13-0.12
								c0.15-0.17,0.32-0.32,0.44-0.5c0.15-0.2,0.29-0.44,0.39-0.65c0.12-0.25,0.24-0.5,0.3-0.77c0.02-0.07,0.03-0.12,0.07-0.18
								c0.02-0.08,0.05-0.17,0.07-0.25c0.03-0.17,0.07-0.35,0.08-0.52C48.06,22.7,48,22.37,48,22.03c-0.02-0.18-0.03-0.37-0.08-0.55
								c-0.02-0.07-0.03-0.13-0.07-0.2c-0.03-0.07-0.08-0.12-0.12-0.17c-0.07-0.1-0.13-0.13-0.18-0.1c-0.05,0.03-0.07,0.12-0.08,0.2
								c-0.02,0.08,0,0.2,0.03,0.32c0.02,0.05,0.03,0.12,0.03,0.18c0.02,0.12,0.03,0.22,0.05,0.32s0.03,0.2,0.03,0.3
								c0,0.3,0,0.62-0.05,0.92c-0.02,0.12-0.05,0.22-0.08,0.34c-0.03,0.13-0.05,0.25-0.1,0.37l-0.02,0.03
								c0,0.02-0.02,0.02-0.02,0.03c-0.07,0.12-0.13,0.29-0.18,0.4c-0.08,0.15-0.15,0.3-0.24,0.44c-0.18,0.3-0.4,0.57-0.64,0.82
								c-0.05,0.05-0.1,0.1-0.15,0.13c-0.13,0.1-0.27,0.22-0.42,0.32c-0.07,0.05-0.15,0.1-0.22,0.13c-0.07,0.05-0.12,0.08-0.18,0.12
								c-0.12,0.05-0.24,0.1-0.35,0.15c-0.47,0.18-0.97,0.29-1.49,0.29c-0.08,0-0.17,0-0.25,0c-0.07,0-0.15,0-0.22,0
								c-0.08,0-0.17-0.03-0.25-0.03c-0.1-0.02-0.18-0.03-0.29-0.05c-0.1-0.02-0.2-0.05-0.3-0.07c-0.03-0.02-0.07-0.02-0.12-0.03
								c-0.08-0.03-0.18-0.07-0.27-0.1c-0.15-0.05-0.3-0.13-0.45-0.2c-0.3-0.17-0.59-0.37-0.86-0.6l-0.15-0.15
								c-0.12-0.13-0.22-0.27-0.34-0.4c-0.05-0.07-0.1-0.15-0.15-0.22c-0.05-0.07-0.08-0.12-0.13-0.18
								c-0.07-0.12-0.12-0.24-0.17-0.35c-0.22-0.47-0.37-0.96-0.4-1.48c0-0.08-0.02-0.17-0.02-0.25c-0.02-0.07-0.02-0.13-0.02-0.2
								c0-0.08,0-0.17,0.02-0.25c0.02-0.1,0.02-0.2,0.03-0.29l0.05-0.3c0.02-0.08,0.03-0.15,0.05-0.25
								c0.02-0.07,0.05-0.17,0.07-0.24c0-0.05,0-0.1,0-0.13c-0.02-0.08-0.05-0.13-0.08-0.15C39.13,20.91,39.1,20.92,39.06,20.92z"/>
						</g>
					</g>
				</g>
			</g>
			<g id="XMLID_593_">
				<g id="XMLID_2061_">
					<g id="XMLID_2062_">
						<g id="XMLID_2063_">
							<path id="XMLID_2064_" class="st3" d="M35.2,22.52c-0.16,0.06-0.26,0.16-0.42,0.45c-0.06,0.13-0.1,0.29-0.13,0.42
								c-0.06,0.22-0.1,0.42-0.13,0.64c-0.06,0.26-0.13,0.51-0.13,0.8c0,0.19-0.03,0.35-0.03,0.51c-0.03,0.58-0.03,1.12,0.06,1.7
								c0.03,0.26,0.06,0.48,0.13,0.74c0.03,0.26,0.16,0.48,0.22,0.7c0.06,0.16,0.06,0.35,0.16,0.51c0.22,0.48,0.38,1.02,0.7,1.41
								c0.22,0.38,0.48,0.74,0.74,1.06c0.16,0.16,0.26,0.35,0.45,0.51c0.13,0.13,0.26,0.26,0.38,0.38l0.26,0.22
								c0.32,0.29,0.64,0.58,0.99,0.8c0.42,0.26,0.86,0.48,1.31,0.67c0.48,0.19,0.99,0.38,1.5,0.45c0.03,0,0.1,0.03,0.13,0.03
								l0.16,0.03h0.06c0.16,0.03,0.32,0.06,0.48,0.06c0.32,0.06,0.67,0.06,0.99,0.1c0.1,0,0.22,0,0.32,0c0.16,0,0.35,0,0.54,0
								l0.74-0.06c0.19-0.03,0.42-0.1,0.61-0.13l0.32-0.06c0.1-0.03,0.19-0.03,0.29-0.06c0.51-0.19,1.02-0.32,1.47-0.61
								c0.38-0.22,0.77-0.45,1.12-0.7c0.19-0.13,0.35-0.29,0.54-0.42c0.16-0.1,0.26-0.26,0.38-0.38l0.26-0.22
								c0.29-0.32,0.61-0.61,0.83-0.96c0.29-0.38,0.54-0.83,0.74-1.25c0.22-0.48,0.45-0.96,0.58-1.47c0.03-0.13,0.06-0.22,0.13-0.35
								c0.03-0.16,0.1-0.32,0.13-0.48c0.06-0.32,0.13-0.67,0.16-0.99c0.1-0.64-0.03-1.28-0.03-1.92c-0.03-0.35-0.06-0.7-0.16-1.06
								c-0.03-0.13-0.06-0.26-0.13-0.38c-0.06-0.13-0.16-0.22-0.22-0.32c-0.13-0.19-0.26-0.26-0.35-0.19
								c-0.1,0.06-0.13,0.22-0.16,0.38c-0.03,0.16,0,0.38,0.06,0.61c0.03,0.1,0.06,0.22,0.06,0.35c0.03,0.22,0.06,0.42,0.1,0.61
								c0.03,0.19,0.06,0.38,0.06,0.58c0,0.58,0,1.18-0.1,1.76c-0.03,0.22-0.1,0.42-0.16,0.64c-0.06,0.26-0.1,0.48-0.19,0.7
								l-0.03,0.06c0,0.03-0.03,0.03-0.03,0.06c-0.13,0.22-0.26,0.54-0.35,0.77c-0.16,0.29-0.29,0.58-0.45,0.83
								c-0.35,0.58-0.77,1.09-1.22,1.57c-0.1,0.1-0.19,0.19-0.29,0.26c-0.26,0.19-0.51,0.42-0.8,0.61c-0.13,0.1-0.29,0.19-0.42,0.26
								c-0.13,0.1-0.22,0.16-0.35,0.22c-0.22,0.1-0.45,0.19-0.67,0.29c-0.9,0.35-1.86,0.54-2.85,0.54c-0.16,0-0.32,0-0.48,0
								c-0.13,0-0.29,0-0.42,0c-0.16,0-0.32-0.06-0.48-0.06c-0.19-0.03-0.35-0.06-0.54-0.1s-0.38-0.1-0.58-0.13
								c-0.06-0.03-0.13-0.03-0.22-0.06c-0.16-0.06-0.35-0.13-0.51-0.19c-0.29-0.1-0.58-0.26-0.86-0.38
								c-0.58-0.32-1.12-0.7-1.63-1.15l-0.29-0.29c-0.22-0.26-0.42-0.51-0.64-0.77c-0.1-0.13-0.19-0.29-0.29-0.42
								c-0.1-0.13-0.16-0.22-0.26-0.35c-0.13-0.22-0.22-0.45-0.32-0.67c-0.42-0.9-0.7-1.82-0.77-2.82c0-0.16-0.03-0.32-0.03-0.48
								c-0.03-0.13-0.03-0.26-0.03-0.38c0-0.16,0-0.32,0.03-0.48c0.03-0.19,0.03-0.38,0.06-0.54l0.1-0.58
								c0.03-0.16,0.06-0.29,0.1-0.48c0.03-0.13,0.1-0.32,0.13-0.45c0-0.1,0-0.19,0-0.26c-0.03-0.16-0.1-0.26-0.16-0.29
								C35.33,22.48,35.27,22.52,35.2,22.52z"/>
						</g>
					</g>
				</g>
			</g>
		</g>
		<g id="XMLID_745_">
			<g id="XMLID_746_">
				<path id="XMLID_747_" class="st1" d="M43.55,24.13c2.25,0,4.06-1.81,4.06-4.06v-7.25c0-2.25-1.81-4.06-4.06-4.06
					s-4.06,1.81-4.06,4.06v7.25C39.5,22.32,41.31,24.13,43.55,24.13z"/>
			</g>
		</g>
		<g id="XMLID_741_">
			<g id="XMLID_743_">
				<path id="XMLID_744_" class="st4" d="M47.61,20.07v-7.25c0-2.25-1.81-4.06-4.06-4.06s-4.06,1.81-4.06,4.06l0,0l2.7,4.63
					L47.61,20.07z"/>
			</g>
		</g>
		<g id="XMLID_729_">
			<g id="XMLID_731_">
				<path id="XMLID_734_" class="st1" d="M45.88,18.45c2.22-0.12,4.7-1.38,6.01-3.17c1.23-1.7,0.99-3.74,0.57-5.66
					c-0.4-1.91-0.94-4.03-2.2-5.59c-1.28-1.58-3.26-2.45-5.29-2.35c-3.51,0.18-6.2,3.19-6.01,6.7l0.22,4.06
					C39.38,15.95,42.39,18.64,45.88,18.45z"/>
			</g>
		</g>
		<g id="XMLID_692_">
			<g id="XMLID_693_">
				<path id="XMLID_702_" class="st1" d="M40.44,11.94c-0.35,0.13-0.69,0.1-1.04,0.17c-0.13,0.02-0.24,0.05-0.37,0.1
					c-0.02,0-0.81,0.5-0.42-0.15c0.02-0.02,0.72,0.07,0.82,0.07c0.2,0,0.42-0.02,0.62-0.03c0.07-0.02,0.15-0.02,0.22-0.03
					c0.29-0.12,0.32-0.07,0.12,0.13c0.08-0.55,0.77-0.84,1.26-0.72c0.59,0.15,0.79,0.72,0.72,1.26c-0.17,1.19-1.6,1.36-2.57,1.43
					c-0.89,0.07-1.98,0.02-2.65-0.64c-0.76-0.76-0.55-1.91,0.18-2.6c0.34-0.3,0.76-0.59,1.19-0.72c0.45-0.13,0.94-0.07,1.38-0.24
					C41.13,9.5,41.67,11.49,40.44,11.94L40.44,11.94z"/>
			</g>
		</g>
		<g id="XMLID_686_">
			<path id="XMLID_687_" class="st4" d="M50.77,6.25c-2.77,0.24-5.59-0.1-8.38-0.12c0.12,1.01,0.47,2.27-0.18,3.04
				c-0.65,0.77-2.28,0.94-3.29,0.99c0,0-2.33-9.76,4.99-9.79c6.6-0.03,7.57,5.79,7.57,5.79L50.77,6.25z"/>
		</g>
		<g id="XMLID_609_">
			<g id="XMLID_675_">
				<g id="XMLID_683_">
					<path id="XMLID_684_" class="st4" d="M48.3,12.26c0.02-0.05,0.05-0.07,0.08-0.08c0.02,0,0.03,0,0.05,0l0.07,0.02
						c0.03,0,0.07-0.02,0.08,0c0.02,0,0.03,0,0.05,0.02c0.07,0,0.12,0,0.18,0h0.08c0.02,0,0.05,0,0.07,0c0.02,0,0.03-0.02,0.05-0.02
						c0.05,0,0.08-0.03,0.13-0.05c0.03-0.02,0.07-0.03,0.1-0.07c0.02-0.02,0.03-0.03,0.03-0.05c0.02-0.02,0.03-0.02,0.03-0.03
						l0.02-0.03c0.02-0.03,0.02-0.07,0.03-0.12c0.02-0.05,0.02-0.08,0.02-0.13s0-0.1,0-0.17v-0.02V11.5l0,0c0-0.02,0-0.03-0.02-0.05
						l-0.02-0.12V11.3l-0.02-0.07l-0.02-0.08c0-0.02,0-0.05,0-0.08c0-0.02,0-0.03-0.02-0.03c0-0.02-0.02-0.02-0.02-0.03
						c0-0.07-0.03-0.12-0.02-0.18c0-0.05-0.02-0.1-0.02-0.15l-0.02-0.08c0-0.02,0-0.03,0-0.07l-0.02-0.03
						c-0.02-0.05-0.03-0.1-0.03-0.15c-0.02-0.05-0.02-0.12-0.03-0.17c-0.02-0.07-0.03-0.12-0.03-0.18c0-0.02-0.02-0.03-0.02-0.05
						s0-0.03-0.02-0.05l-0.03-0.12c-0.02-0.07,0-0.15-0.03-0.22C49,9.5,48.99,9.45,48.99,9.42c0-0.02,0-0.03,0-0.05
						c0-0.02,0.02-0.03,0.03-0.05c0.02-0.03,0.07-0.05,0.1-0.05c0.05,0,0.07,0,0.12,0.02c0.03,0.02,0.05,0.03,0.07,0.07
						c0,0.02,0,0.03,0.02,0.05c0,0.03,0.02,0.05,0.02,0.08s0,0.05,0.02,0.08c0.02,0.07,0.03,0.15,0.03,0.24
						c0,0.03,0.02,0.05,0.02,0.08c0,0.03,0,0.07,0,0.1v0.02v0.02c0.02,0.03,0.02,0.07,0.03,0.1c0.02,0.05,0.02,0.08,0.02,0.12
						c0.02,0.08,0.03,0.17,0.05,0.25c0,0.02,0,0.03,0.02,0.05c0.02,0.05,0.02,0.08,0.03,0.13c0,0.02,0.02,0.05,0.02,0.07
						c0,0.02,0,0.03,0,0.05c0.02,0.03,0.02,0.07,0.02,0.1c0.02,0.12,0.03,0.25,0.07,0.37c0,0.02,0.02,0.05,0.02,0.07
						c0,0.02,0,0.03,0,0.05c0,0.02,0.02,0.05,0.02,0.07c0,0.02,0.02,0.05,0.02,0.08l0.02,0.08c0,0.02,0,0.02,0,0.03
						c0,0.03,0,0.05,0,0.08c0,0.05,0,0.1-0.02,0.15c-0.02,0.1-0.05,0.22-0.12,0.3c-0.02,0.02-0.02,0.03-0.03,0.05
						c-0.03,0.05-0.07,0.08-0.12,0.13c-0.02,0.02-0.05,0.03-0.07,0.05c-0.02,0.02-0.05,0.02-0.07,0.03
						c-0.03,0.02-0.07,0.03-0.1,0.05c-0.15,0.05-0.29,0.05-0.44,0.07c-0.02,0-0.05,0-0.07,0c-0.02,0-0.05-0.02-0.05-0.02
						c-0.02,0-0.05,0-0.07,0c-0.03,0-0.05,0-0.08,0l-0.08-0.02c-0.03,0-0.03-0.02-0.07-0.02c-0.02,0-0.05,0-0.07-0.02
						c-0.02-0.02-0.02-0.03-0.02-0.05c-0.02-0.03-0.02-0.07,0-0.1C48.28,12.29,48.3,12.27,48.3,12.26z"/>
				</g>
			</g>
			<g id="XMLID_626_">
				<g id="XMLID_628_">
					<path id="XMLID_643_" class="st4" d="M37.96,11.89c-0.03-0.03-0.05-0.07-0.05-0.08c0-0.02,0-0.02,0.02-0.03l0.03-0.03
						c0.02-0.02,0.02-0.03,0.03-0.05c0.02,0,0.02-0.02,0.03-0.02c0.03-0.02,0.05-0.05,0.08-0.08l0.05-0.03c0.02,0,0.03,0,0.05-0.02
						c0.02,0,0.02-0.02,0.03-0.02c0.03,0,0.07-0.03,0.1-0.03c0.03-0.02,0.07-0.02,0.08-0.02l0.05-0.02c0.02,0,0.02,0,0.03,0h0.02
						c0.03,0,0.05-0.02,0.08-0.02c0.03,0,0.07,0,0.1,0s0.07,0,0.12,0.02h0.02h0.02l0,0c0.02,0,0.02,0,0.03,0l0.07,0.02h0.02
						c0.02,0,0.03,0,0.03,0l0.05,0.02c0.02,0,0.03,0.02,0.03,0.02c0.02,0,0.02,0,0.02,0h0.02c0.03,0.03,0.07,0.03,0.1,0.07
						c0.03,0.02,0.05,0.03,0.07,0.05l0.03,0.03c0.02,0,0.02,0.02,0.02,0.03l0.02,0.02c0.02,0.02,0.05,0.03,0.07,0.05
						c0.02,0.02,0.05,0.05,0.07,0.08c0.02,0.03,0.05,0.05,0.07,0.08c0,0.02,0.02,0.02,0.02,0.02c0.02,0,0.02,0.02,0.02,0.03
						l0.03,0.07c0.02,0.03,0.02,0.08,0.03,0.13c0.02,0.02,0.03,0.05,0.03,0.07c0,0.02,0,0.02,0,0.03c0,0.02-0.02,0.02-0.03,0.03
						c-0.02,0.02-0.07,0.03-0.1,0.03c-0.05,0-0.07,0-0.12,0c-0.03,0-0.05-0.02-0.05-0.02v-0.02c0-0.02-0.02-0.02-0.02-0.03
						c0-0.02,0-0.02,0-0.03c-0.02-0.03-0.02-0.07-0.03-0.08c-0.02-0.02-0.02-0.02-0.02-0.03c0-0.02-0.02-0.02-0.02-0.03l0,0l0,0
						c-0.02,0-0.03-0.02-0.03-0.03c-0.02-0.02-0.02-0.02-0.03-0.03c-0.02-0.03-0.05-0.05-0.07-0.08l-0.02-0.02
						c-0.02,0-0.03-0.02-0.05-0.03c0,0-0.02,0-0.02-0.02c0,0,0-0.02-0.02-0.02c-0.02,0-0.03,0-0.03-0.02
						c-0.05-0.02-0.08-0.05-0.15-0.07c-0.02,0-0.02,0-0.02,0l-0.02-0.02c0,0-0.02,0-0.03,0c-0.02,0-0.02,0-0.03,0h-0.03h-0.02
						c-0.02,0-0.02,0-0.03,0c-0.02,0-0.03,0-0.05,0c-0.03,0-0.07,0-0.1,0h-0.02c-0.02,0-0.03,0.02-0.05,0.02s-0.02,0.02-0.03,0
						c-0.02,0-0.02,0-0.03,0c-0.02,0-0.02,0.02-0.03,0.02c-0.05,0.02-0.1,0.03-0.13,0.07l-0.02,0.02h-0.02l-0.02,0.02
						c0,0.02-0.02,0.02-0.02,0.02l-0.02,0.02c0,0-0.02,0-0.03,0.02l-0.02,0.02c-0.02,0-0.02-0.02-0.03-0.02
						c-0.03-0.02-0.05-0.03-0.08-0.05C37.97,11.92,37.96,11.9,37.96,11.89z"/>
				</g>
			</g>
			<g id="XMLID_623_">
				<g id="XMLID_624_">
					<path id="XMLID_625_" class="st4" d="M38.26,12.76c-0.05-0.02-0.07-0.02-0.08-0.05c0-0.02,0-0.02,0-0.03v-0.03
						c0-0.02-0.02-0.03,0-0.05c0-0.02,0.02-0.02,0.02-0.03c0.02-0.03,0.02-0.07,0.02-0.1l0.02-0.03c0-0.02,0.02-0.02,0.03-0.03
						c0-0.02,0-0.03,0-0.03c0.03-0.02,0.02-0.07,0.07-0.07c0.03-0.03,0.03-0.03,0.05-0.05l0.03-0.03c0,0,0.02-0.02,0.03-0.02
						l0.02-0.02c0.02-0.02,0.03-0.05,0.05-0.07c0.02-0.02,0.05-0.03,0.07-0.05c0.03-0.02,0.05-0.03,0.08-0.05l0,0l0,0l0,0
						c0,0,0.02-0.02,0.03-0.02l0.05-0.03h0.02c0.02,0,0.02-0.02,0.03-0.02l0.05-0.02c0.02,0,0.03,0,0.03,0c0.02,0,0.02,0,0.02,0
						s0.02-0.02,0.02,0c0.03,0,0.07-0.02,0.1,0c0.03,0,0.05,0,0.08,0h0.03c0.02,0,0.02,0.02,0.03,0.02h0.02c0.02,0,0.05,0,0.08,0
						c0.03,0,0.05,0.02,0.08,0.02c0.03,0.02,0.07,0.02,0.08,0.03h0.02c0.02,0,0.02,0,0.03,0.02l0.05,0.02
						c0.03,0.02,0.05,0.07,0.08,0.07c0.02,0,0.03,0.02,0.05,0.03l0.02,0.02c0,0.02,0,0.03-0.02,0.05c-0.02,0.03-0.03,0.07-0.07,0.08
						c-0.03,0.03-0.05,0.05-0.08,0.07c-0.03,0.02-0.05,0.02-0.05,0.02h-0.02c-0.02,0-0.02-0.02-0.02-0.02l-0.02-0.02
						c-0.03,0-0.05-0.03-0.07-0.05c-0.02,0-0.02,0-0.03,0c-0.02,0-0.02-0.02-0.03-0.02l0,0l0,0c-0.02,0.02-0.03,0-0.03,0
						c-0.02,0-0.03,0-0.03-0.02c-0.03-0.02-0.05-0.02-0.08-0.02h-0.02c-0.02,0-0.03,0-0.05,0h-0.02l-0.02-0.02
						c-0.02,0-0.02,0.02-0.03,0.02c-0.03,0-0.08,0-0.12,0.03h-0.02h-0.02l-0.02,0.02l-0.02,0.02l-0.02,0.02h-0.02l-0.02,0.02
						c-0.02,0.02-0.02,0.02-0.03,0.02c-0.02,0.02-0.05,0.03-0.07,0.05c0,0,0,0.02-0.02,0.02c0,0.02-0.02,0.02-0.03,0.03
						c0,0,0,0.02-0.02,0.02c0,0-0.02,0-0.02,0.02c0,0.02,0,0.02-0.02,0.03c-0.02,0.03-0.05,0.07-0.07,0.12v0.02
						c0,0-0.02,0-0.02,0.02v0.02c0,0.02,0,0.02,0,0.02v0.02l-0.02,0.02c0,0,0,0.02-0.02,0.02h-0.03c-0.03,0-0.07,0-0.1,0
						C38.29,12.78,38.27,12.78,38.26,12.76z"/>
				</g>
			</g>
			<g id="XMLID_620_">
				<g id="XMLID_621_">
					<path id="XMLID_622_" class="st4" d="M47.42,13.95c0.05-0.02,0.07-0.02,0.1,0c0.02,0,0.02,0.02,0.02,0.02L47.55,14
						c0,0.02,0.03,0.02,0.03,0.03c0,0.02,0,0.02,0.02,0.02c0.02,0.02,0.03,0.05,0.05,0.07l0.02,0.03c0,0.02,0,0.03,0.02,0.03
						c0,0,0.02,0,0.02,0.02c0,0.03,0.05,0.03,0.05,0.07c0.02,0.02,0.03,0.03,0.05,0.05l0.03,0.02c0,0,0,0.02,0.02,0.02l0.02,0.02
						c0.02,0.02,0.05,0.02,0.07,0.03c0.02,0.02,0.03,0.02,0.07,0.05c0.02,0.02,0.05,0.02,0.07,0.03l0,0h0.02l0,0
						c0,0,0.02,0,0.02,0.02l0.05,0.02h0.02c0.02,0,0.02,0,0.03,0l0.03,0.02c0.02,0,0.02,0.02,0.03,0.02h0.02h0.02
						c0.02,0.02,0.05,0,0.07,0.02c0.02,0,0.05,0.02,0.07,0.02h0.03c0.02,0,0.02,0.02,0.03,0h0.02c0.02,0,0.05-0.02,0.07-0.02
						c0.02,0,0.05,0,0.07,0c0.03,0,0.05-0.02,0.08-0.02c0,0,0.02,0,0.02-0.02h0.02l0.05-0.02c0.03-0.02,0.07,0,0.1-0.02
						c0.02-0.02,0.03-0.02,0.05-0.03H49c0.02,0,0.02,0.02,0.03,0.03c0.02,0.02,0.05,0.05,0.07,0.08c0.02,0.03,0.02,0.07,0.03,0.1
						c0,0.03,0,0.05-0.02,0.07c0,0-0.02,0-0.02,0.02c-0.02,0.02-0.03,0.02-0.03,0.02c-0.02,0-0.03,0-0.03,0.02
						c-0.03,0.02-0.08,0.02-0.12,0.03c-0.02,0-0.03,0.02-0.05,0.02c-0.02,0-0.03,0-0.05,0l0,0l0,0c-0.02,0.02-0.03,0.02-0.05,0.02
						c-0.02,0-0.05,0-0.07,0c-0.05,0-0.1,0-0.15,0c-0.02,0-0.02,0-0.03,0c-0.02,0-0.05,0-0.07,0c-0.02,0-0.02,0-0.03,0
						c-0.02,0-0.02-0.02-0.03-0.02c-0.02,0-0.03,0-0.05,0c-0.07-0.02-0.13-0.03-0.2-0.05c-0.02,0-0.02,0-0.03-0.02l-0.02-0.02
						c-0.02,0-0.02,0-0.03,0c-0.02,0-0.03,0-0.03-0.02l-0.03-0.02c0,0-0.02,0-0.02-0.02c-0.02,0-0.02-0.02-0.03-0.02
						c-0.02-0.02-0.03-0.02-0.07-0.03c-0.03-0.03-0.08-0.05-0.12-0.08l-0.02-0.02c-0.02-0.02-0.03-0.03-0.05-0.05
						c-0.02,0-0.02-0.02-0.03-0.03c0-0.02,0-0.02-0.02-0.03c-0.02-0.02-0.03-0.02-0.03-0.03c-0.05-0.05-0.08-0.12-0.13-0.17
						c0-0.02-0.02-0.02-0.02-0.03c0-0.02,0-0.02,0-0.03c0-0.02-0.02-0.02-0.02-0.03c-0.02-0.02-0.02-0.02-0.02-0.03l-0.02-0.03
						c0-0.02,0-0.02,0-0.03c0-0.02-0.02-0.02,0-0.03c0-0.02,0.02-0.02,0.03-0.03c0.02-0.02,0.05-0.03,0.08-0.05
						C47.37,13.97,47.38,13.97,47.42,13.95z"/>
				</g>
			</g>
			<g id="XMLID_2065_">
				<g id="XMLID_2066_">
					<path id="XMLID_2067_" class="st4" d="M49.81,13.93c-0.07,0.05-0.09,0.06-0.15,0.05c-0.02,0.01-0.03-0.02-0.03-0.02l-0.04-0.04
						c-0.01-0.02-0.06-0.01-0.07-0.03c-0.01-0.02-0.01-0.02-0.03-0.02c-0.03-0.02-0.08-0.06-0.11-0.07l-0.04-0.04
						c-0.01-0.02-0.02-0.05-0.04-0.04c0,0-0.02,0.01-0.03-0.02c-0.02-0.05-0.09-0.02-0.11-0.07c-0.03-0.02-0.07-0.03-0.1-0.05
						l-0.06-0.01c0,0-0.01-0.02-0.03-0.02l-0.03-0.02c-0.03-0.02-0.08,0-0.12-0.02c-0.03-0.02-0.06-0.01-0.13-0.04
						c-0.03-0.02-0.08,0-0.12-0.02l0,0l-0.02,0.01l0,0c0,0-0.02,0.01-0.03-0.02l-0.08,0l-0.02,0.01c-0.02,0.01-0.02,0.01-0.05,0.02
						l-0.06-0.01c-0.02,0.01-0.03-0.02-0.06-0.01l-0.02,0.01l-0.02,0.01c-0.03-0.02-0.07,0.03-0.11,0.01
						c-0.02,0.01-0.08,0-0.11,0.01l-0.05,0.02c-0.02,0.01-0.03-0.02-0.05,0.02l-0.02,0.01c-0.02,0.01-0.07,0.05-0.09,0.06
						c-0.02,0.01-0.07,0.03-0.1,0.03c-0.05,0.02-0.07,0.05-0.12,0.07c0,0-0.02,0.01-0.02,0.03l-0.02,0.01l-0.07,0.05
						c-0.04,0.04-0.1,0.03-0.14,0.08c-0.02,0.03-0.04,0.04-0.06,0.08l-0.02,0.01c-0.02,0.01-0.03-0.02-0.07-0.03
						c-0.03-0.02-0.1-0.05-0.14-0.09c-0.04-0.04-0.06-0.09-0.1-0.13c-0.02-0.05-0.03-0.07-0.01-0.11c0,0,0.02-0.01,0.02-0.03
						c0.02-0.03,0.04-0.04,0.04-0.04c0.02-0.01,0.05-0.02,0.04-0.04c0.04-0.04,0.12-0.07,0.16-0.11c0.02-0.01,0.04-0.04,0.07-0.05
						c0.02-0.01,0.05-0.02,0.07-0.03l0,0l0,0c0.02-0.03,0.04-0.04,0.07-0.05c0.02-0.01,0.07-0.03,0.1-0.03
						c0.07-0.03,0.15-0.05,0.22-0.08c0.02-0.01,0.02-0.01,0.05-0.02c0.02-0.01,0.07-0.03,0.1-0.03c0.02-0.01,0.02-0.01,0.05-0.02
						c0.02-0.01,0.03,0.02,0.06,0.01c0.02-0.01,0.05-0.02,0.07-0.03c0.11-0.01,0.22-0.02,0.32-0.03c0.02-0.01,0.02-0.01,0.06,0.01
						l0.03,0.02c0.02-0.01,0.02-0.01,0.05-0.02c0.02-0.01,0.05-0.02,0.06,0.01l0.06,0.01c0,0,0.02-0.01,0.03,0.02
						c0.02-0.01,0.03,0.02,0.06,0.01c0.03,0.02,0.06,0.01,0.12,0.02c0.07,0.03,0.15,0.03,0.22,0.07l0.03,0.02
						c0.03,0.02,0.07,0.03,0.1,0.05c0.02-0.01,0.03,0.02,0.07,0.03c0.01,0.02,0.01,0.02,0.04,0.04c0.03,0.02,0.06,0.01,0.07,0.03
						c0.1,0.05,0.18,0.13,0.28,0.18c0.01,0.02,0.03,0.02,0.04,0.04c0.01,0.02,0.01,0.02,0.02,0.05c0.01,0.02,0.03,0.02,0.04,0.04
						c0.03,0.02,0.03,0.02,0.04,0.04l0.04,0.04c0.01,0.02,0.01,0.02,0.02,0.05c0.01,0.02,0.03,0.02,0.02,0.05
						c0.01,0.02-0.02,0.03-0.03,0.07c-0.02,0.03-0.06,0.08-0.1,0.12C49.87,13.88,49.85,13.89,49.81,13.93z"/>
				</g>
			</g>
			<g id="XMLID_618_">
				<path id="XMLID_619_" class="st4" d="M46.74,10.61h0.02c0.2-0.02,0.35-0.18,0.34-0.37l-0.02-0.17c-0.02-0.2-0.18-0.35-0.37-0.34
					c-0.2,0.02-0.35,0.18-0.34,0.37l0.02,0.17C46.4,10.46,46.55,10.61,46.74,10.61z"/>
			</g>
			<g id="XMLID_616_">
				<path id="XMLID_617_" class="st4" d="M50.57,10.39h0.02c0.2-0.02,0.35-0.18,0.34-0.37L50.9,9.86c-0.02-0.2-0.18-0.35-0.37-0.34
					c-0.2,0.02-0.35,0.18-0.34,0.37l0.02,0.17C50.23,10.26,50.38,10.39,50.57,10.39z"/>
			</g>
			<g id="XMLID_613_">
				<g id="XMLID_614_">
					<path id="XMLID_615_" class="st4" d="M45.83,9.07C45.8,9.02,45.8,9,45.8,8.98c0-0.02,0-0.02,0.02-0.02l0.03-0.02
						c0.02-0.02,0.02-0.03,0.03-0.03c0.02,0,0.02,0,0.02-0.02c0.02-0.02,0.03-0.05,0.07-0.05L46,8.83c0.02,0,0.03,0,0.03-0.02
						l0.02-0.02c0.03,0,0.05-0.03,0.08-0.03c0.03-0.02,0.05-0.02,0.07-0.02l0.03-0.02c0.02,0,0.02,0,0.03,0h0.02
						c0.02-0.02,0.03-0.03,0.05-0.03c0.02,0,0.05-0.02,0.07-0.02c0.03,0,0.05-0.02,0.08-0.02l0,0l0,0l0,0h0.02l0.05-0.02h0.02
						c0.02,0,0.02,0,0.03,0h0.03c0.02,0,0.02,0,0.03,0h0.02h0.02c0.03,0.02,0.05-0.02,0.08,0c0.02,0,0.05,0,0.07,0h0.03
						c0.02,0,0.02,0,0.03,0h0.02c0.02,0,0.05-0.02,0.07-0.02s0.05,0,0.07,0.02c0.03,0,0.05,0,0.08,0.02h0.02c0.02,0,0.02,0,0.02,0
						l0.05,0.02c0.03,0,0.05,0.05,0.08,0.03c0.02,0,0.03,0,0.05,0.02c0,0,0.02,0,0.02,0.02s0,0.03,0,0.05c0,0.03-0.02,0.07-0.03,0.1
						c-0.02,0.03-0.03,0.07-0.05,0.1c-0.02,0.03-0.03,0.03-0.05,0.03c0,0,0,0-0.02,0c-0.02,0-0.02,0-0.03,0
						c-0.02,0-0.02-0.02-0.02-0.02C47.16,9.02,47.14,9,47.11,9c-0.02,0-0.02,0-0.03,0c-0.02,0-0.02,0-0.03-0.02l0,0l0,0
						c-0.02,0.02-0.03,0-0.03,0c-0.02,0-0.03,0-0.05,0c-0.03,0-0.07,0-0.08-0.02h-0.02c-0.02,0-0.03,0-0.05,0h-0.02l-0.02-0.02
						c-0.02,0-0.02,0.02-0.03,0.02c-0.05,0-0.08,0-0.13,0.02h-0.02h-0.02c0,0-0.02,0-0.02,0.02c0,0-0.02,0-0.02,0.02H46.5
						c0,0,0,0-0.02,0h-0.02c-0.02,0-0.03,0.02-0.03,0.02c-0.03,0-0.05,0.02-0.08,0.02c0,0-0.02,0-0.02,0.02
						c-0.02,0.02-0.03,0.02-0.03,0.02s-0.02,0.02-0.02,0h-0.02c-0.02,0-0.02,0.02-0.03,0.02c-0.03,0.02-0.08,0.03-0.12,0.07
						L46.1,9.18h-0.02L46.07,9.2l-0.02,0.02l-0.02,0.02h-0.02c0,0-0.02,0.02-0.02,0c0,0-0.02-0.02-0.03-0.02
						c-0.02-0.02-0.05-0.03-0.07-0.07C45.85,9.1,45.83,9.08,45.83,9.07z"/>
				</g>
			</g>
			<g id="XMLID_610_">
				<g id="XMLID_611_">
					<path id="XMLID_612_" class="st4" d="M51.24,8.85c-0.03,0.03-0.05,0.05-0.07,0.07c-0.02,0-0.02,0-0.02,0L51.14,8.9
						c-0.02,0-0.03,0-0.03,0l-0.02-0.02c-0.02,0-0.05-0.02-0.07-0.02l-0.03-0.02c-0.02,0-0.02-0.02-0.02-0.02h-0.02
						c-0.02-0.02-0.05,0-0.05-0.03c-0.02-0.02-0.03-0.02-0.05-0.02h-0.03L50.8,8.76h-0.02c-0.02,0-0.03,0-0.05,0
						c-0.02,0-0.03,0-0.07-0.02c-0.02,0-0.05,0-0.07-0.02l0,0l0,0l0,0h-0.02h-0.03c0,0,0,0-0.02,0c-0.02,0-0.02,0-0.02,0h-0.03
						c-0.02,0-0.02,0-0.03-0.02h-0.02c0,0,0,0-0.02,0c-0.02-0.02-0.05,0.02-0.07,0c-0.02,0-0.03,0-0.05,0h-0.03h-0.02h-0.02
						c-0.02,0-0.03,0.02-0.05,0.02c-0.02,0-0.03,0-0.07,0.02c-0.02,0-0.03,0.02-0.07,0.02c0,0,0,0-0.02,0.02h-0.02L49.98,8.8
						c-0.02,0.02-0.07,0-0.08,0.02c-0.02,0.02-0.02,0.02-0.03,0.03h-0.02c-0.02,0-0.02-0.02-0.03-0.03
						c-0.02-0.02-0.05-0.05-0.07-0.08c-0.02-0.03-0.03-0.07-0.03-0.1c0-0.03,0-0.05,0-0.05s0,0,0.02-0.02s0.02-0.02,0.03-0.02
						c0.02,0,0.02,0,0.03-0.02c0.03-0.02,0.07-0.02,0.1-0.03c0.02,0,0.02-0.02,0.03-0.02c0.02,0,0.03,0,0.05,0l0,0l0,0
						c0-0.02,0.03-0.02,0.05-0.02c0.02,0,0.03-0.02,0.05-0.02c0.03,0,0.07-0.02,0.12-0.02h0.02c0.02,0,0.03-0.02,0.05-0.02
						c0.02,0,0.02,0,0.03,0c0.02,0,0.02,0.02,0.03,0c0.02,0,0.03-0.02,0.03-0.02c0.05,0,0.12,0,0.17,0c0.02,0,0.02,0,0.03,0
						l0.02,0.02c0.02,0,0.02,0,0.03,0c0.02,0,0.02,0,0.03,0h0.03h0.02c0.02,0,0.02,0,0.03,0c0.02,0,0.03,0,0.05,0
						c0.03,0.02,0.07,0.02,0.12,0.03h0.02c0.02,0,0.03,0,0.05,0.02c0.02,0,0.02,0,0.03,0.02l0.02,0.02c0.02,0,0.03,0,0.03,0
						c0.05,0.02,0.1,0.05,0.15,0.07c0.02,0,0.02,0,0.02,0.02l0.02,0.02c0,0,0.02,0,0.03,0c0.02,0,0.02,0,0.03,0.02l0.03,0.02
						c0.02,0,0.02,0.02,0.02,0.03c0,0,0.02,0,0.02,0.02c0,0.02,0,0.03-0.02,0.03c-0.02,0.03-0.03,0.05-0.05,0.08
						C51.25,8.82,51.25,8.83,51.24,8.85z"/>
				</g>
			</g>
		</g>
	</g>
</g>
</svg>
