<?xml version="1.0" encoding="utf-8"?>
<!-- Generator: Adobe Illustrator 22.1.0, SVG Export Plug-In . SVG Version: 6.00 Build 0)  -->
<svg version="1.1" id="Object" xmlns="http://www.w3.org/2000/svg" xmlns:xlink="http://www.w3.org/1999/xlink" x="0px" y="0px"
	 viewBox="0 0 519.3 286" style="enable-background:new 0 0 519.3 286;" xml:space="preserve">
<style type="text/css">
	.st0{fill:#FFFFFF;}
	.st1{fill:#CCD4DD;}
	.st2{fill:#74D2FB;}
	.st3{clip-path:url(#SVGID_2_);}
	.st4{fill:#342939;}
	.st5{fill:#725D7E;}
	.st6{opacity:0.25;fill:#AFE5E7;}
</style>
<g>
	<g>
		<polygon class="st0" points="369.4,264.2 221.7,264.2 190.4,232.9 190.4,21.8 190.4,21.8 369.4,21.8 369.4,21.8 369.4,264.2 		"/>
		<polygon class="st1" points="221.7,264.2 190.4,232.9 221.7,232.9 		"/>
		<rect x="216.7" y="56.8" class="st1" width="75.6" height="4.7"/>
		<rect x="248.3" y="43.4" class="st1" width="44" height="4.7"/>
		<rect x="216.7" y="70.3" class="st1" width="75.6" height="4.7"/>
		<rect x="267.3" y="97.3" class="st1" width="25" height="4.7"/>
		<rect x="216.7" y="124.3" class="st1" width="126.4" height="4.7"/>
		<polygon class="st1" points="343.1,142.5 232.5,142.3 232.5,137.6 343.1,137.8 		"/>
		<rect x="216.7" y="164.7" class="st1" width="126.4" height="4.7"/>
		<rect x="248.3" y="178.2" class="st1" width="94.8" height="4.7"/>
		<rect x="216.7" y="218.7" class="st1" width="126.4" height="4.7"/>
		<rect x="304.4" y="43.4" class="st2" width="38.7" height="58.7"/>
	</g>
	<g>
		<polygon class="st0" points="470.6,198 416.3,225.2 399.1,219.5 360.2,142 360.2,142 425.9,109 425.9,109 470.6,198 		"/>
		<polygon class="st1" points="416.3,225.2 399.1,219.5 410.6,213.7 		"/>
		
			<rect x="375.1" y="142.9" transform="matrix(0.8936 -0.4488 0.4488 0.8936 -23.0335 190.6026)" class="st1" width="31.1" height="1.9"/>
		
			<rect x="384.9" y="135.1" transform="matrix(0.8936 -0.4488 0.4488 0.8936 -19.1515 191.2541)" class="st1" width="18.1" height="1.9"/>
		
			<rect x="377.5" y="147.9" transform="matrix(0.8936 -0.4488 0.4488 0.8936 -24.9907 192.2449)" class="st1" width="31.1" height="1.9"/>
		
			<rect x="402.2" y="153.1" transform="matrix(0.8936 -0.4488 0.4488 0.8936 -25.8214 199.2044)" class="st1" width="10.3" height="1.9"/>
		
			<rect x="386.4" y="163" transform="matrix(0.8936 -0.4488 0.4488 0.8936 -29.7251 202.5018)" class="st1" width="51.9" height="1.9"/>
		<polygon class="st1" points="438.5,158.1 397.8,178.5 397,176.7 437.6,156.4 		"/>
		
			<rect x="393.8" y="177.8" transform="matrix(0.8936 -0.4488 0.4488 0.8936 -35.5967 207.4287)" class="st1" width="51.9" height="1.9"/>
		
			<rect x="408.6" y="179.9" transform="matrix(0.8936 -0.4488 0.4488 0.8936 -35.6292 211.3649)" class="st1" width="39" height="1.9"/>
		
			<rect x="403.8" y="197.6" transform="matrix(0.8936 -0.4488 0.4488 0.8936 -43.4256 213.998)" class="st1" width="51.9" height="1.9"/>
		
			<rect x="410.6" y="124" transform="matrix(0.8936 -0.4488 0.4488 0.8936 -16.5521 202.3015)" class="st2" width="15.9" height="24.1"/>
	</g>
	<g>
		<polygon class="st0" points="124.5,181.5 56.8,151.6 48.8,130.9 91.4,34.2 91.4,34.2 173.5,70.3 173.5,70.3 124.5,181.5 		"/>
		<polygon class="st1" points="56.8,151.6 48.8,130.9 63.1,137.3 		"/>
		<rect x="94.3" y="63.1" transform="matrix(0.915 0.4034 -0.4034 0.915 35.547 -40.2279)" class="st1" width="37.9" height="2.4"/>
		
			<rect x="112.2" y="60.1" transform="matrix(0.915 0.4034 -0.4034 0.915 35.189 -44.5049)" class="st1" width="22.1" height="2.4"/>
		
			<rect x="91.6" y="69.3" transform="matrix(0.915 0.4034 -0.4034 0.915 37.8096 -38.6028)" class="st1" width="37.9" height="2.4"/>
		
			<rect x="110.4" y="86.7" transform="matrix(0.915 0.4034 -0.4034 0.915 45.3863 -39.6009)" class="st1" width="12.5" height="2.4"/>
		
			<rect x="79.6" y="99.1" transform="matrix(0.915 0.4034 -0.4034 0.915 49.9221 -36.3654)" class="st1" width="63.4" height="2.4"/>
		<polygon class="st1" points="137.1,120.4 86.4,97.9 87.3,95.8 138,118.2 		"/>
		<rect x="71.4" y="117.7" transform="matrix(0.915 0.4034 -0.4034 0.915 56.71 -31.4899)" class="st1" width="63.4" height="2.4"/>
		<rect x="83.9" y="127" transform="matrix(0.915 0.4034 -0.4034 0.915 60.8773 -32.5166)" class="st1" width="47.5" height="2.4"/>
		
			<rect x="60.5" y="142.4" transform="matrix(0.915 0.4034 -0.4034 0.915 65.7605 -24.9893)" class="st1" width="63.4" height="2.4"/>
		
			<rect x="132.6" y="69.7" transform="matrix(0.915 0.4034 -0.4034 0.915 46.16 -50.2287)" class="st2" width="19.4" height="29.4"/>
	</g>
	<g>
		<g>
			<defs>
				<circle id="SVGID_1_" cx="287.2" cy="137.9" r="61.5"/>
			</defs>
			<clipPath id="SVGID_2_">
				<use xlink:href="#SVGID_1_"  style="overflow:visible;"/>
			</clipPath>
			<g class="st3">
				<polygon class="st0" points="396,388.5 165.5,388.5 116.7,339.7 116.7,10.3 116.7,10.3 396,10.3 396,10.3 396,388.5 				"/>
				<polygon class="st1" points="165.5,388.5 116.7,339.7 165.5,339.7 				"/>
				<rect x="157.7" y="64.9" class="st1" width="118" height="7.4"/>
				<rect x="207" y="43.9" class="st1" width="68.7" height="7.4"/>
				<rect x="157.7" y="86" class="st1" width="118" height="7.4"/>
				<rect x="236.7" y="128.1" class="st1" width="39" height="7.4"/>
				<rect x="157.7" y="170.2" class="st1" width="197.3" height="7.4"/>
				<polygon class="st1" points="355,198.6 182.4,198.4 182.4,191 355,191.2 				"/>
				<rect x="157.7" y="233.3" class="st1" width="197.3" height="7.4"/>
				<rect x="207" y="254.4" class="st1" width="148" height="7.4"/>
				<rect x="157.7" y="317.5" class="st1" width="197.3" height="7.4"/>
				<rect x="294.7" y="43.9" class="st2" width="60.4" height="91.6"/>
			</g>
		</g>
		<g>
			<path class="st4" d="M231.2,85c-29.2,30.8-28,79.5,2.9,108.8s79.5,28,108.8-2.9c29.2-30.8,28-79.5-2.9-108.8
				C309.2,52.9,260.5,54.2,231.2,85z M329.3,93.4c24.6,23.4,25.7,62.3,2.3,86.9c-23.4,24.6-62.3,25.7-86.9,2.3s-25.7-62.3-2.3-86.9
				S304.7,70,329.3,93.4z"/>
			
				<rect x="362.1" y="169.3" transform="matrix(0.6883 -0.7255 0.7255 0.6883 -40.9568 333.4974)" class="st4" width="11" height="90.1"/>
			
				<rect x="375.5" y="190.7" transform="matrix(0.6883 -0.7255 0.7255 0.6883 -47.2632 350.6001)" class="st5" width="17.6" height="79.1"/>
		</g>
		
			<ellipse transform="matrix(0.9692 -0.2465 0.2465 0.9692 -15.9862 70.7259)" class="st6" cx="274.5" cy="99.2" rx="20.8" ry="13.7"/>
	</g>
</g>
</svg>
