<?xml version="1.0" encoding="utf-8"?>
<!-- Generator: Adobe Illustrator 25.4.1, SVG Export Plug-In . SVG Version: 6.00 Build 0)  -->
<svg version="1.1" id="Capa_1" xmlns="http://www.w3.org/2000/svg" xmlns:xlink="http://www.w3.org/1999/xlink" x="0px" y="0px"
	 viewBox="0 0 425.2 239.2" style="enable-background:new 0 0 425.2 239.2;" xml:space="preserve">
<style type="text/css">
	.st0{clip-path:url(#SVGID_00000017486504479669045220000009394586102261068180_);}
	.st1{fill:#FFFFFF;}
	.st2{fill:#219E56;}
	.st3{fill:#F2CDAC;}
	.st4{fill:#D34016;}
	.st5{fill:#1A1B1D;}
	.st6{fill:#81D886;}
	.st7{fill:#253B90;}
	.st8{fill:none;stroke:#FFFFFF;stroke-width:0.3384;stroke-linecap:round;stroke-miterlimit:10;}
</style>
<g>
	<defs>
		<rect id="SVGID_1_" width="425.2" height="239.7"/>
	</defs>
	<clipPath id="SVGID_00000059273020689446301660000002864846083923616899_">
		<use xlink:href="#SVGID_1_"  style="overflow:visible;"/>
	</clipPath>
	<g style="clip-path:url(#SVGID_00000059273020689446301660000002864846083923616899_);">
		<g>
			<path class="st1" d="M133.9,101.3v4.9c3.3,0.3,6.1,1,8.4,2c2.3,1,4.4,2.5,6.1,4.6c1.4,1.6,2.4,3.2,3.2,4.8
				c0.7,1.6,1.1,3.2,1.1,4.5c0,1.5-0.6,2.8-1.7,4c-1.1,1.1-2.5,1.7-4.1,1.7c-3,0-4.9-1.6-5.8-4.9c-1-3.8-3.4-6.3-7.3-7.6v19.1
				c3.8,1,6.8,2,9,2.8c2.2,0.9,4.3,2.1,6,3.7c1.9,1.7,3.4,3.7,4.4,6c1,2.3,1.5,4.9,1.5,7.7c0,3.5-0.8,6.7-2.4,9.8
				c-1.6,3-4,5.5-7.2,7.4s-6.9,3.1-11.3,3.4v11.4c0,1.8-0.2,3.1-0.5,3.9c-0.4,0.8-1.1,1.2-2.3,1.2c-1.1,0-1.9-0.3-2.3-1
				c-0.4-0.7-0.7-1.7-0.7-3.1v-12.4c-3.6-0.4-6.7-1.2-9.4-2.5c-2.7-1.3-4.9-2.9-6.7-4.8c-1.8-1.9-3.1-3.9-4-6
				c-0.9-2.1-1.3-4.1-1.3-6.1c0-1.5,0.6-2.8,1.7-4c1.1-1.2,2.6-1.8,4.3-1.8c1.4,0,2.5,0.3,3.5,1c0.9,0.6,1.6,1.5,2,2.7
				c0.8,2.5,1.5,4.4,2.2,5.7c0.6,1.3,1.5,2.5,2.8,3.6c1.2,1.1,2.9,1.9,4.9,2.5v-21.3c-4.1-1.1-7.5-2.4-10.3-3.8
				c-2.7-1.4-5-3.4-6.7-5.9c-1.7-2.6-2.6-5.9-2.6-9.9c0-5.2,1.7-9.6,5-12.9c3.3-3.4,8.2-5.3,14.5-5.9v-4.9c0-2.6,1-3.8,2.9-3.8
				C132.9,97.6,133.9,98.8,133.9,101.3z M128.1,132.7v-17.5c-2.6,0.8-4.6,1.8-6,3c-1.4,1.3-2.2,3.1-2.2,5.7c0,2.4,0.7,4.2,2,5.5
				C123.3,130.6,125.3,131.7,128.1,132.7z M133.9,146.3v20.1c3.1-0.6,5.5-1.8,7.1-3.7c1.7-1.9,2.5-4,2.5-6.5c0-2.7-0.8-4.7-2.4-6.2
				C139.5,148.6,137.1,147.3,133.9,146.3z"/>
		</g>
		<g>
			<path class="st1" d="M168.9,123.3v1.3c0.9,0.1,1.6,0.3,2.3,0.5c0.6,0.3,1.2,0.7,1.7,1.2c0.4,0.4,0.7,0.9,0.9,1.3
				c0.2,0.4,0.3,0.9,0.3,1.2c0,0.4-0.2,0.8-0.5,1.1c-0.3,0.3-0.7,0.5-1.1,0.5c-0.8,0-1.3-0.4-1.6-1.3c-0.3-1-0.9-1.7-2-2.1v5.2
				c1,0.3,1.8,0.5,2.5,0.8c0.6,0.2,1.2,0.6,1.6,1c0.5,0.5,0.9,1,1.2,1.6c0.3,0.6,0.4,1.3,0.4,2.1c0,0.9-0.2,1.8-0.7,2.7
				c-0.4,0.8-1.1,1.5-2,2c-0.9,0.5-1.9,0.8-3.1,0.9v3.1c0,0.5,0,0.8-0.1,1.1c-0.1,0.2-0.3,0.3-0.6,0.3c-0.3,0-0.5-0.1-0.6-0.3
				c-0.1-0.2-0.2-0.5-0.2-0.8v-3.4c-1-0.1-1.8-0.3-2.5-0.7c-0.7-0.3-1.3-0.8-1.8-1.3c-0.5-0.5-0.8-1.1-1.1-1.6
				c-0.2-0.6-0.4-1.1-0.4-1.6c0-0.4,0.2-0.8,0.5-1.1c0.3-0.3,0.7-0.5,1.2-0.5c0.4,0,0.7,0.1,0.9,0.3c0.3,0.2,0.4,0.4,0.5,0.7
				c0.2,0.7,0.4,1.2,0.6,1.6c0.2,0.4,0.4,0.7,0.8,1c0.3,0.3,0.8,0.5,1.3,0.7V135c-1.1-0.3-2-0.6-2.8-1c-0.7-0.4-1.4-0.9-1.8-1.6
				c-0.5-0.7-0.7-1.6-0.7-2.7c0-1.4,0.5-2.6,1.4-3.5c0.9-0.9,2.2-1.4,3.9-1.6v-1.3c0-0.7,0.3-1,0.8-1
				C168.7,122.3,168.9,122.6,168.9,123.3z M167.4,131.8V127c-0.7,0.2-1.2,0.5-1.6,0.8c-0.4,0.3-0.6,0.9-0.6,1.5
				c0,0.7,0.2,1.1,0.5,1.5C166.1,131.2,166.6,131.5,167.4,131.8z M168.9,135.5v5.5c0.8-0.2,1.5-0.5,1.9-1c0.5-0.5,0.7-1.1,0.7-1.8
				c0-0.7-0.2-1.3-0.7-1.7C170.5,136.1,169.8,135.8,168.9,135.5z"/>
		</g>
		<g id="XMLID_2570_">
			<g>
				<g id="XMLID_2756_">
					<polygon id="XMLID_2757_" class="st2" points="325.9,220.1 321.9,384.3 321.5,380.5 342,522 299.2,530.4 269.5,389.2 
						269.3,388.5 269.1,385.4 258.5,221.5 					"/>
				</g>
				<g id="XMLID_2754_">
					<path id="XMLID_2755_" class="st2" d="M304.9,268.4l-87.8-3.8c-9.5-0.4-16.9-8.5-16.6-18l3.2-75.7l114.7,4.9l4.5,76
						C322.6,261.4,314.5,268.8,304.9,268.4z"/>
				</g>
				<g id="XMLID_2752_">
					<polygon id="XMLID_2753_" class="st2" points="258.9,224 224.5,389.1 224.7,382.2 233.7,532 190.1,534 172.3,387.5 
						171.9,385.2 172.5,380.6 192.4,213.2 					"/>
				</g>
			</g>
			<g>
				<g id="XMLID_2748_">
					<g id="XMLID_2749_">
						<g id="XMLID_2750_">
							<path id="XMLID_2751_" class="st3" d="M169.3,179l-27.6,23.4l-30.8,22.1c-4.8,3.4-11.5,2.2-14.9-2.6
								c-3.2-4.6-2.3-10.9,2-14.4l54.3-44.5l8.6,17.4C160.9,180.4,174,175.7,169.3,179z"/>
						</g>
					</g>
				</g>
				<g id="XMLID_2744_">
					<g id="XMLID_2745_">
						<g id="XMLID_2746_">
							<path id="XMLID_2747_" class="st3" d="M105.3,206c-1-0.2-1.1-0.2-1.5-0.2c-0.3,0-0.6,0-0.9,0c-0.6,0-1.1,0.1-1.6,0.1
								c-1,0.1-1.9,0.3-2.7,0.5c-1.7,0.5-3.2,1-4.7,1.6c-2.9,1.2-5.6,2.7-8.1,4.2c-1.9,1.1-2.4,3.6-1.3,5.4c1,1.6,2.9,2.2,4.5,1.7
								l0.1,0c2.6-0.8,5.1-1.5,7.6-1.8c1.2-0.2,2.4-0.3,3.5-0.3c0.6,0,1,0,1.5,0.1c0.2,0,0.4,0.1,0.5,0.1c0.1,0,0.1,0,0.2,0.1
								c-0.1,0,0.2,0.1-0.5,0c3.2,0.9,6.5-0.9,7.4-4.1C110.3,210.2,108.4,206.9,105.3,206z"/>
						</g>
					</g>
				</g>
				<g id="XMLID_2740_">
					<g id="XMLID_2741_">
						<g id="XMLID_2742_">
							<path id="XMLID_2743_" class="st3" d="M97.8,207.6c-1.9,1.4-3.4,2.7-5,4.1c-1.6,1.4-3.1,2.9-4.6,4.4c-3,3.1-5.8,6.4-8.1,10.5
								c-1.1,1.9-0.4,4.4,1.6,5.4c1.8,1,4,0.5,5.1-1.1l0.1-0.1c2-2.7,4.8-5.2,7.8-7.5c1.5-1.2,3.1-2.3,4.6-3.3
								c1.5-1,3.3-2.1,4.7-2.9c2.8-1.5,3.8-5,2.2-7.8c-1.5-2.8-5-3.8-7.8-2.2C98.3,207.3,98,207.5,97.8,207.6z"/>
						</g>
					</g>
				</g>
				<g id="XMLID_2736_">
					<g id="XMLID_2737_">
						<g id="XMLID_2738_">
							<path id="XMLID_2739_" class="st3" d="M101.6,211c-1.7,1.6-3.3,3-4.8,4.6c-1.6,1.5-3.1,3.2-4.6,4.9c-1.5,1.7-2.9,3.5-4.2,5.5
								c-0.7,1-1.3,2.1-1.9,3.3c-0.3,0.6-0.5,1.4-0.8,2c-0.3,0.7-0.4,1.7-0.5,2.5c-0.3,2.1,1.1,4.1,3.2,4.4c1.8,0.3,3.4-0.7,4.1-2.2
								l0.6-1.3c0.2-0.5,1.2-2,2.4-3.3c1.2-1.3,2.6-2.6,4.1-3.9c1.5-1.3,3.1-2.5,4.7-3.7c1.6-1.2,3.3-2.4,4.9-3.4
								c2.8-1.8,3.6-5.4,1.8-8.2c-1.8-2.8-5.4-3.6-8.2-1.8C102.1,210.6,101.8,210.8,101.6,211z"/>
						</g>
					</g>
				</g>
				<g id="XMLID_2732_">
					<g id="XMLID_2733_">
						<g id="XMLID_2734_">
							<path id="XMLID_2735_" class="st3" d="M111.7,209.4c-2.3,2.2-4.3,4.2-6.2,6.5c-1.9,2.2-3.8,4.5-5.6,6.9
								c-3.6,4.7-6.7,9.8-9.1,15.4c-0.9,2,0.1,4.4,2.1,5.2c1.9,0.8,4,0.1,5.1-1.7l0-0.1c2.6-4.5,5.9-8.7,9.5-12.5
								c1.8-1.9,3.8-3.8,5.7-5.6c2-1.8,4.1-3.5,6-5l0,0c2.7-2,3.2-5.7,1.2-8.3c-2-2.7-5.7-3.2-8.3-1.2
								C112,209,111.9,209.2,111.7,209.4z"/>
						</g>
					</g>
				</g>
			</g>
			<g id="XMLID_2730_">
				<path id="XMLID_2731_" class="st4" d="M186.5,219.6c0,0,11.1-60.9,15-97.4c3.1-28.7,33.3-43,66.5-41.1
					c33.2,1.9,48.7,19.1,50.2,45.5c1.5,26.4,12.6,98.2,12.6,98.2s-25.3,0.9-71-0.1C214,223.7,186.5,219.6,186.5,219.6z"/>
			</g>
			<g id="XMLID_2728_">
				<path id="XMLID_2729_" class="st4" d="M237.5,96.9c-8.5-6.3-21.3-3.2-27.8,5l-55.5,70.5c0,0-0.1,0.1-0.1,0.1l-42.9,37.1
					l11.3,21.3l52.2-34.8c0.6-0.4,1.2-0.9,1.7-1.5l0.8-0.9l62.2-65.8c0.3-0.4,1.5-2.4,1.8-2.8C247.9,116.6,246.3,103.4,237.5,96.9z"
					/>
			</g>
			<g id="XMLID_2725_">
				<g id="XMLID_2726_">
					<path id="XMLID_2727_" class="st3" d="M260.1,95.2c-5.5,0-10-4.5-10-10V67.4c0-5.5,4.5-10,10-10s10,4.5,10,10v17.8
						C270,90.7,265.6,95.2,260.1,95.2z"/>
				</g>
			</g>
			<g id="XMLID_2722_">
				<g id="XMLID_2723_">
					<path id="XMLID_2724_" class="st5" d="M250.1,85.2V67.4c0-5.5,4.5-10,10-10s10,4.5,10,10l0,0l-6.6,11.4L250.1,85.2z"/>
				</g>
			</g>
			<g id="XMLID_2719_">
				<g id="XMLID_2720_">
					<path id="XMLID_2721_" class="st3" d="M254.4,81.3c-5.4-0.3-11.5-3.4-14.7-7.8c-3-4.1-2.4-9.2-1.4-13.9s2.3-9.9,5.4-13.7
						c3.1-3.8,8-6,13-5.8c8.6,0.5,15.2,7.8,14.7,16.4l-0.5,10C270.3,75.1,263,81.7,254.4,81.3z"/>
				</g>
			</g>
			<g id="XMLID_2716_">
				<g id="XMLID_2717_">
					<path id="XMLID_2718_" class="st3" d="M267.7,65.3c0.8,0.3,1.7,0.3,2.6,0.4c0.3,0.1,0.6,0.1,0.9,0.3c0,0,2,1.3,1-0.4
						c0,0-1.8,0.2-2,0.2c-0.5,0-1,0-1.5-0.1c-0.2,0-0.4-0.1-0.5-0.1c-0.7-0.3-0.8-0.2-0.3,0.3c-0.2-1.4-1.9-2.1-3.1-1.7
						c-1.5,0.4-1.9,1.7-1.7,3.1c0.4,2.9,3.9,3.4,6.3,3.5c2.2,0.1,4.9,0.1,6.5-1.6c1.8-1.8,1.4-4.7-0.5-6.4c-0.8-0.7-1.8-1.4-2.9-1.8
						c-1.1-0.4-2.3-0.2-3.4-0.6C266.1,59.3,264.7,64.2,267.7,65.3L267.7,65.3z"/>
				</g>
			</g>
			<g id="XMLID_2714_">
				<path id="XMLID_2715_" class="st5" d="M242.4,51.3c6.8,0.5,13.7-0.2,20.5-0.3c-0.3,2.5-1.1,5.6,0.5,7.4c1.6,1.9,5.6,2.3,8.1,2.4
					c0,0,5.7-23.1-12.3-24c-22.1-1.2-22.9,13.7-22.9,13.7L242.4,51.3z"/>
			</g>
			<g id="XMLID_2691_">
				<g id="XMLID_2711_">
					<g id="XMLID_2712_">
						<path id="XMLID_2713_" class="st5" d="M248.4,66c-0.1-0.1-0.1-0.2-0.2-0.2c0,0-0.1,0-0.1,0l-0.2,0c-0.1,0-0.2,0-0.2,0
							c0,0-0.1,0-0.1,0c-0.2,0-0.3,0-0.5,0l-0.2,0c-0.1,0-0.1,0-0.2,0c0,0-0.1-0.1-0.1-0.1c-0.1,0-0.2-0.1-0.4-0.1
							c-0.1,0-0.2-0.1-0.2-0.2c0,0-0.1-0.1-0.1-0.1s-0.1,0-0.1-0.1l0-0.1c0-0.1,0-0.2-0.1-0.3c0-0.1,0-0.2-0.1-0.4
							c0-0.1,0-0.2,0-0.4v0c0,0,0,0,0,0l0,0c0,0,0-0.1,0-0.1l0.1-0.3v-0.1l0-0.2l0-0.2c0-0.1,0-0.1,0-0.2c0,0,0-0.1,0-0.1
							c0,0,0-0.1,0-0.1c0-0.2,0.1-0.3,0.1-0.5c0-0.1,0-0.3,0.1-0.4l0-0.2c0-0.1,0-0.1,0-0.2l0-0.1c0-0.1,0.1-0.2,0.1-0.4
							c0-0.1,0-0.3,0.1-0.4c0-0.2,0.1-0.3,0.1-0.5c0,0,0-0.1,0-0.1c0,0,0-0.1,0-0.1l0.1-0.3c0-0.2,0-0.4,0.1-0.5
							c0-0.1,0.1-0.2,0.1-0.3c0,0,0-0.1,0-0.1c0,0-0.1-0.1-0.1-0.1c-0.1-0.1-0.2-0.1-0.3-0.1c-0.1,0-0.2,0-0.3,0
							c-0.1,0-0.1,0.1-0.2,0.2c0,0,0,0.1,0,0.1c0,0.1,0,0.1,0,0.2s0,0.1,0,0.2c-0.1,0.2-0.1,0.4-0.1,0.5c0,0.1-0.1,0.1-0.1,0.2
							s0,0.2,0,0.2v0v0c-0.1,0.1-0.1,0.2-0.1,0.3c0,0.1,0,0.2-0.1,0.3c0,0.2-0.1,0.4-0.1,0.6c0,0,0,0.1,0,0.1c0,0.1-0.1,0.2-0.1,0.3
							c0,0.1,0,0.1,0,0.2s0,0.1,0,0.1c0,0.1,0,0.2-0.1,0.2c-0.1,0.3-0.1,0.6-0.2,0.9c0,0.1,0,0.1,0,0.2c0,0,0,0.1,0,0.1
							c0,0.1,0,0.1,0,0.2c0,0.1,0,0.1,0,0.2l0,0.2c0,0,0,0.1,0,0.1c0,0.1,0,0.1,0,0.2c0,0.1,0,0.2,0,0.4c0,0.3,0.1,0.5,0.3,0.7
							c0,0.1,0.1,0.1,0.1,0.1c0.1,0.1,0.2,0.2,0.3,0.3c0.1,0,0.1,0.1,0.2,0.1c0.1,0,0.1,0,0.2,0.1c0.1,0.1,0.2,0.1,0.3,0.1
							c0.4,0.1,0.7,0.1,1.1,0.2c0.1,0,0.1,0,0.2,0c0,0,0.1,0,0.1,0c0.1,0,0.1,0,0.2,0c0.1,0,0.1,0,0.2,0l0.2,0c0.1,0,0.1,0,0.2-0.1
							c0,0,0.1,0,0.2,0c0,0,0-0.1,0.1-0.1C248.4,66.3,248.4,66.2,248.4,66C248.5,66.1,248.5,66.1,248.4,66z"/>
					</g>
				</g>
				<g id="XMLID_2708_">
					<g id="XMLID_2709_">
						<path id="XMLID_2710_" class="st5" d="M273.9,65.1C274,65,274,65,274,64.9c0,0,0-0.1,0-0.1l-0.1-0.1c0,0,0-0.1-0.1-0.1
							c0,0-0.1,0-0.1-0.1c-0.1-0.1-0.1-0.1-0.2-0.2l-0.1-0.1c0,0-0.1,0-0.1,0c0,0,0-0.1-0.1-0.1c-0.1,0-0.2-0.1-0.3-0.1
							c-0.1,0-0.2,0-0.2-0.1l-0.1,0c0,0-0.1,0-0.1,0h-0.1c-0.1,0-0.1-0.1-0.2-0.1c-0.1,0-0.2,0-0.3,0s-0.2,0-0.3,0h0h0l0,0
							c0,0-0.1,0-0.1,0l-0.2,0c0,0,0,0-0.1,0c0,0-0.1,0-0.1,0l-0.1,0c0,0-0.1,0-0.1,0.1c0,0,0,0-0.1,0c0,0,0,0-0.1,0
							c-0.1,0.1-0.2,0.1-0.2,0.2c-0.1,0.1-0.1,0.1-0.2,0.1l-0.1,0.1c0,0,0,0.1-0.1,0.1l0,0c-0.1,0-0.1,0.1-0.2,0.1
							c-0.1,0.1-0.1,0.1-0.2,0.2c-0.1,0.1-0.1,0.1-0.2,0.2c0,0,0,0,0,0c0,0,0,0,0,0.1l-0.1,0.2c-0.1,0.1,0,0.2-0.1,0.3
							c0,0.1-0.1,0.1-0.1,0.2c0,0,0,0,0,0.1c0,0,0.1,0.1,0.1,0.1c0.1,0.1,0.2,0.1,0.3,0.1c0.1,0,0.2,0,0.3,0c0.1,0,0.1,0,0.1-0.1
							l0,0c0,0,0-0.1,0-0.1c0,0,0-0.1,0-0.1c0.1-0.1,0.1-0.2,0.1-0.2c0,0,0.1,0,0.1-0.1c0,0,0-0.1,0-0.1l0,0l0,0
							c0.1,0,0.1,0,0.1-0.1c0,0,0.1-0.1,0.1-0.1c0.1-0.1,0.1-0.1,0.2-0.2l0,0c0,0,0.1,0,0.1-0.1c0,0,0,0,0.1,0c0,0,0,0,0-0.1
							c0,0,0.1,0,0.1,0c0.1-0.1,0.2-0.1,0.4-0.1c0,0,0,0,0.1,0l0,0c0,0,0,0,0.1,0s0.1,0,0.1,0h0.1h0c0,0,0,0,0.1,0s0.1,0,0.1,0
							c0.1,0,0.1,0,0.3,0c0,0,0,0,0.1,0c0,0,0.1,0,0.1,0c0,0,0,0,0.1,0c0,0,0,0,0.1,0s0.1,0,0.1,0.1c0.1,0.1,0.3,0.1,0.4,0.2
							c0,0,0,0,0.1,0s0,0,0.1,0s0,0,0,0.1c0,0,0,0,0.1,0.1l0.1,0.1c0,0,0,0,0.1,0c0,0,0,0,0.1,0s0.1,0,0.1,0c0.1,0,0.1-0.1,0.2-0.1
							C273.8,65.2,273.8,65.2,273.9,65.1z"/>
					</g>
				</g>
				<g id="XMLID_2705_">
					<g id="XMLID_2706_">
						<path id="XMLID_2707_" class="st5" d="M273.1,67.3c0.1,0,0.2-0.1,0.2-0.1c0,0,0,0,0-0.1l0-0.1c0,0,0-0.1,0-0.1c0,0,0,0,0-0.1
							c0-0.1,0-0.2-0.1-0.3l0-0.1c0,0-0.1-0.1-0.1-0.1s0-0.1,0-0.1c-0.1-0.1-0.1-0.2-0.2-0.2c-0.1-0.1-0.1-0.1-0.1-0.1l-0.1-0.1
							c0,0,0,0-0.1,0l0,0c0,0-0.1-0.1-0.1-0.2c-0.1,0-0.1-0.1-0.2-0.1c-0.1,0-0.1-0.1-0.2-0.1h0l0,0l0,0c0,0,0,0-0.1,0l-0.1-0.1
							c0,0,0,0-0.1,0s-0.1,0-0.1,0l-0.1,0c0,0-0.1,0-0.1,0s0,0,0,0l0,0c-0.1,0-0.2,0-0.2,0c-0.1,0-0.1,0-0.2,0h-0.1c0,0-0.1,0-0.1,0
							h-0.1c-0.1,0-0.1,0-0.2,0s-0.1,0-0.2,0.1c-0.1,0-0.2,0-0.2,0.1c0,0,0,0-0.1,0s0,0-0.1,0l-0.1,0.1c-0.1,0-0.1,0.2-0.2,0.2
							c-0.1,0-0.1,0-0.1,0.1c0,0,0,0,0,0.1c0,0,0,0.1,0,0.1c0,0.1,0.1,0.2,0.2,0.2c0.1,0.1,0.1,0.1,0.2,0.2c0.1,0,0.1,0.1,0.1,0l0,0
							c0,0,0,0,0.1,0s0,0,0,0c0.1,0,0.1-0.1,0.2-0.1c0,0,0.1,0,0.1,0c0,0,0,0,0.1-0.1l0,0l0,0c0,0,0.1,0,0.1,0c0,0,0.1,0,0.1,0
							c0.1,0,0.1,0,0.2-0.1h0c0,0,0.1,0,0.1,0s0,0,0.1,0s0,0,0,0c0,0,0.1,0,0.1,0c0.1,0,0.2,0,0.3,0.1c0,0,0,0,0,0h0c0,0,0,0,0,0
							c0,0,0,0,0,0l0.1,0h0l0,0c0,0,0.1,0,0.1,0.1c0.1,0,0.1,0.1,0.2,0.1l0,0c0,0,0,0.1,0.1,0.1l0,0c0,0,0,0,0.1,0c0,0,0,0.1,0,0.1
							c0.1,0.1,0.1,0.2,0.2,0.3c0,0,0,0,0,0l0,0c0,0,0,0,0,0.1c0,0,0,0,0,0.1v0.1c0,0,0,0,0,0s0,0,0,0s0.1,0,0.1,0
							c0.1,0,0.2,0,0.3,0C273,67.3,273,67.3,273.1,67.3z"/>
					</g>
				</g>
				<g id="XMLID_2702_">
					<g id="XMLID_2703_">
						<path id="XMLID_2704_" class="st5" d="M250.7,68c-0.1,0-0.2,0-0.2,0s0,0,0,0l0,0.1c0,0-0.1,0-0.1,0.1c0,0,0,0,0,0.1
							c0,0-0.1,0.1-0.1,0.2l-0.1,0.1c0,0,0,0.1,0,0.1c0,0-0.1,0-0.1,0c0,0.1-0.1,0.1-0.1,0.2c0,0-0.1,0.1-0.1,0.1l-0.1,0.1
							c0,0,0,0,0,0.1l0,0c0,0-0.1,0-0.1,0.1c-0.1,0-0.1,0.1-0.1,0.1c-0.1,0-0.1,0.1-0.2,0.1l0,0h0l0,0c0,0,0,0-0.1,0l-0.1,0l0,0
							c0,0,0,0-0.1,0l-0.1,0c0,0,0,0-0.1,0s0,0,0,0h0c-0.1,0-0.1,0-0.2,0.1c-0.1,0-0.1,0-0.2,0h-0.1c0,0,0,0-0.1,0h0
							c-0.1,0-0.1,0-0.2,0c-0.1,0-0.1,0-0.2,0c-0.1,0-0.1,0-0.2,0c0,0,0,0,0,0c0,0,0,0-0.1,0l-0.1,0c-0.1,0-0.2,0-0.2,0
							c0,0-0.1-0.1-0.1-0.1c0,0,0,0-0.1,0s-0.1,0-0.1,0.1c-0.1,0-0.1,0.1-0.2,0.2s-0.1,0.2-0.1,0.3c0,0.1,0,0.1,0,0.2c0,0,0,0,0.1,0
							c0,0,0.1,0,0.1,0.1c0,0,0.1,0,0.1,0c0.1,0.1,0.2,0.1,0.3,0.1c0,0,0.1,0,0.1,0c0,0,0.1,0,0.1,0l0,0l0,0c0,0.1,0.1,0,0.1,0.1
							c0.1,0,0.1,0,0.2,0c0.1,0,0.2,0,0.4,0c0,0,0,0,0.1,0c0.1,0,0.1,0,0.2,0c0,0,0.1,0,0.1,0s0,0,0.1,0s0.1,0,0.1,0
							c0.2,0,0.3-0.1,0.5-0.1c0,0,0.1,0,0.1,0c0,0,0,0,0.1,0s0.1,0,0.1,0c0,0,0.1,0,0.1,0l0.1,0c0,0,0,0,0,0c0,0,0.1,0,0.1,0
							c0.1,0,0.1-0.1,0.1-0.1c0.1-0.1,0.2-0.1,0.3-0.2c0,0,0,0,0.1,0c0.1,0,0.1-0.1,0.1-0.1c0,0,0.1,0,0.1-0.1c0,0,0-0.1,0-0.1
							c0,0,0.1-0.1,0.1-0.1c0.1-0.1,0.2-0.3,0.3-0.4c0,0,0,0,0-0.1c0,0,0-0.1,0-0.1c0,0,0,0,0.1-0.1c0,0,0-0.1,0.1-0.1l0-0.1
							c0,0,0-0.1,0-0.1s0-0.1,0-0.1c0,0,0-0.1-0.1-0.1c-0.1,0-0.1-0.1-0.2-0.1C250.8,68,250.8,68,250.7,68z"/>
					</g>
				</g>
				<g id="XMLID_2700_">
					<path id="XMLID_2701_" class="st5" d="M252.2,62C252.2,62,252.2,62,252.2,62c-0.6,0-0.9-0.4-0.9-0.9l0-0.4
						c0-0.5,0.4-0.9,0.9-0.8c0.5,0,0.8,0.4,0.8,0.9l0,0.4C253.1,61.6,252.7,62,252.2,62z"/>
				</g>
				<g id="XMLID_2698_">
					<path id="XMLID_2699_" class="st5" d="M242.9,61.5C242.8,61.5,242.8,61.5,242.9,61.5c-0.6,0-0.9-0.4-0.9-0.9l0-0.4
						c0-0.5,0.4-0.9,0.9-0.8c0.5,0,0.8,0.4,0.8,0.9l0,0.4C243.7,61.1,243.4,61.5,242.9,61.5z"/>
				</g>
				<g id="XMLID_2695_">
					<g id="XMLID_2696_">
						<path id="XMLID_2697_" class="st5" d="M254.5,58.2c0.1-0.1,0.1-0.2,0.1-0.2c0,0,0,0,0-0.1l-0.1-0.1c0,0,0-0.1-0.1-0.1
							c0,0,0,0-0.1,0c-0.1,0-0.1-0.1-0.2-0.1l-0.1-0.1c0,0-0.1,0-0.1,0c0,0,0-0.1-0.1-0.1c-0.1,0-0.1-0.1-0.2-0.1
							c-0.1,0-0.1,0-0.2-0.1l-0.1,0c0,0,0,0-0.1,0l0,0c0,0-0.1-0.1-0.1-0.1c-0.1,0-0.1,0-0.2,0s-0.1,0-0.2,0l0,0h0l0,0
							c0,0,0,0-0.1,0l-0.1,0h0c0,0,0,0-0.1,0l-0.1,0c0,0-0.1,0-0.1,0s0,0,0,0s0,0,0,0c-0.1,0-0.1,0-0.2,0c-0.1,0-0.1,0-0.2,0h-0.1
							c0,0,0,0-0.1,0h0c-0.1,0-0.1,0-0.2,0c-0.1,0-0.1,0-0.2,0c-0.1,0-0.1,0-0.2,0c0,0,0,0-0.1,0s0,0-0.1,0l-0.1,0
							c-0.1,0-0.1,0.1-0.2,0.1c-0.1,0-0.1,0-0.1,0c0,0,0,0,0,0c0,0,0,0.1,0,0.1c0,0.1,0,0.2,0.1,0.3c0,0.1,0.1,0.2,0.1,0.2
							c0,0.1,0.1,0.1,0.1,0.1h0c0,0,0,0,0.1,0c0,0,0,0,0.1,0c0.1,0,0.1,0,0.2-0.1c0,0,0.1,0,0.1,0c0,0,0.1,0,0.1,0l0,0l0,0
							c0,0,0.1,0,0.1,0c0,0,0.1,0,0.1,0c0.1,0,0.2,0,0.2,0h0c0,0,0.1,0,0.1,0c0,0,0,0,0.1,0s0,0,0.1,0s0.1,0,0.1,0
							c0.1,0,0.2,0,0.3,0c0,0,0,0,0.1,0h0c0,0,0,0,0.1,0s0,0,0.1,0h0.1h0c0,0,0,0,0.1,0c0,0,0.1,0,0.1,0c0.1,0,0.1,0.1,0.2,0.1
							c0,0,0,0,0,0c0,0,0.1,0,0.1,0.1c0,0,0,0,0.1,0s0,0,0.1,0c0,0,0,0,0.1,0.1c0.1,0,0.2,0.1,0.3,0.2l0,0h0l0,0c0,0,0,0,0,0l0.1,0
							c0,0,0,0,0.1,0s0,0,0.1,0s0.1,0,0.1-0.1C254.3,58.4,254.4,58.4,254.5,58.2C254.5,58.3,254.5,58.3,254.5,58.2z"/>
					</g>
				</g>
				<g id="XMLID_2692_">
					<g id="XMLID_2693_">
						<path id="XMLID_2694_" class="st5" d="M241.2,57.7c0.1,0.1,0.1,0.1,0.2,0.2c0,0,0,0,0.1,0l0.1,0c0,0,0.1,0,0.1,0l0,0
							c0,0,0.1,0,0.2-0.1l0.1,0c0,0,0,0,0.1-0.1c0,0,0,0,0.1,0c0,0,0.1,0,0.1-0.1c0,0,0.1,0,0.1-0.1l0.1,0c0,0,0,0,0,0h0
							c0,0,0.1,0,0.1,0c0.1,0,0.1,0,0.1,0c0.1,0,0.1,0,0.2,0l0,0h0l0,0c0,0,0,0,0.1,0h0.1h0c0,0,0,0,0.1,0h0.1c0,0,0,0,0.1,0h0
							c0,0,0,0,0,0c0.1,0,0.1,0,0.2,0c0,0,0.1,0,0.1,0h0.1c0,0,0,0,0.1,0h0c0,0,0.1,0.1,0.1,0.1c0.1,0,0.1,0,0.2,0
							c0.1,0,0.1,0,0.2,0l0,0c0,0,0,0,0,0l0.1,0c0.1,0,0.1,0,0.2,0c0,0,0.1,0.1,0.1,0.1h0c0,0,0.1,0,0.1-0.1c0.1,0,0.1-0.1,0.2-0.2
							c0.1-0.1,0.1-0.2,0.1-0.3c0-0.1,0-0.1,0-0.1c0,0,0,0,0,0c0,0-0.1,0-0.1-0.1c0,0-0.1,0-0.1,0c-0.1-0.1-0.2-0.1-0.2-0.1
							c0,0,0,0-0.1-0.1c0,0-0.1,0-0.1,0l0,0l0,0c0-0.1-0.1,0-0.1-0.1c0,0-0.1,0-0.1,0c-0.1,0-0.2,0-0.3,0c0,0,0,0-0.1,0
							c0,0-0.1,0-0.1,0c0,0,0,0-0.1,0s0,0-0.1,0c0,0-0.1,0-0.1,0c-0.1,0-0.3,0-0.4,0c0,0,0,0-0.1,0s0,0-0.1,0s0,0-0.1,0
							c0,0-0.1,0-0.1,0h-0.1h0c0,0-0.1,0-0.1,0c0,0-0.1,0-0.1,0c-0.1,0-0.2,0-0.3,0.1c0,0,0,0-0.1,0s-0.1,0-0.1,0c0,0-0.1,0-0.1,0
							c0,0,0,0-0.1,0s-0.1,0-0.1,0c-0.1,0-0.2,0.1-0.4,0.2c0,0,0,0-0.1,0l0,0c0,0,0,0-0.1,0s-0.1,0-0.1,0l-0.1,0c0,0,0,0,0,0.1
							c0,0,0,0,0,0.1c0,0,0,0.1,0,0.1c0,0.1,0.1,0.1,0.1,0.2C241.2,57.6,241.2,57.6,241.2,57.7z"/>
					</g>
				</g>
			</g>
			<g id="XMLID_2687_">
				<g id="XMLID_2688_">
					<g id="XMLID_2689_">
						<polygon id="XMLID_2690_" class="st6" points="233.7,532 233.8,561.3 160.5,561.2 190.1,534 						"/>
					</g>
				</g>
			</g>
			<g id="XMLID_2683_">
				<g id="XMLID_2684_">
					<g id="XMLID_2685_">
						<polygon id="XMLID_2686_" class="st6" points="342,522 346.4,551 273.9,561.6 299.2,530.4 						"/>
					</g>
				</g>
			</g>
			<g>
				<g id="XMLID_2680_">
					<g id="XMLID_2681_">
						<path id="XMLID_2682_" class="st1" d="M303.7,174.1c-0.2,0.2-0.3,0.3-0.3,0.6c0,0.1,0,0.3,0,0.4l0.1,0.6c0,0.2,0,0.5,0,0.7
							c0,0.2,0,0.3,0,0.5c0,0.5,0,1,0,1.5l0,0.6c0,0.2,0,0.5,0,0.6c0,0.2-0.1,0.3-0.1,0.5c0,0.5-0.2,0.9-0.1,1.4
							c0,0.4-0.1,0.7-0.2,1.1l-0.1,0.6l-0.1,0.5l-0.1,0.3c-0.1,0.4-0.3,0.7-0.4,1.1c-0.1,0.4-0.3,0.8-0.4,1.2
							c-0.2,0.4-0.3,0.8-0.5,1.3l-0.1,0.1l-0.1,0.1l0,0c-0.1,0.1-0.1,0.3-0.2,0.4l-0.4,0.8l-0.1,0.3l-0.3,0.4l-0.4,0.5
							c-0.1,0.2-0.2,0.3-0.3,0.5l-0.2,0.2c-0.1,0.1-0.1,0.1-0.2,0.2c-0.2,0.4-0.6,0.7-0.8,1.2c-0.3,0.3-0.5,0.6-0.7,0.9l-0.4,0.5
							c-0.1,0.1-0.2,0.3-0.3,0.4l-0.2,0.2c-0.3,0.3-0.6,0.5-0.8,0.7c-0.3,0.3-0.6,0.5-1,0.8c-0.4,0.3-0.7,0.6-1.1,0.8
							c-0.1,0.1-0.2,0.1-0.3,0.2c-0.1,0.1-0.2,0.2-0.4,0.2c-0.3,0.2-0.5,0.3-0.7,0.5c-0.5,0.3-0.9,0.6-1.5,0.8
							c-0.3,0.1-0.6,0.2-0.9,0.3c-0.1,0.1-0.2,0.1-0.3,0.2c-0.1,0.1-0.2,0.2-0.3,0.3c-0.1,0.2-0.2,0.4-0.1,0.5
							c0.1,0.2,0.3,0.2,0.5,0.3c0.2,0.1,0.4,0,0.6-0.1c0.1,0,0.2-0.1,0.4-0.1c0.2-0.1,0.4-0.2,0.6-0.2c0.2-0.1,0.4-0.2,0.5-0.3
							c0.5-0.3,1.1-0.6,1.6-0.9c0.2-0.1,0.4-0.2,0.6-0.3c0.2-0.2,0.4-0.3,0.6-0.5c0,0,0,0,0.1,0s0.1,0,0.1,0
							c0.3-0.1,0.5-0.3,0.7-0.5l0.8-0.6c0.5-0.5,1-0.9,1.5-1.5c0.1-0.1,0.2-0.2,0.3-0.3c0.3-0.3,0.5-0.5,0.7-0.8
							c0.1-0.1,0.3-0.3,0.4-0.4c0.1-0.1,0.2-0.3,0.3-0.4l0.5-0.6c0.6-0.8,1.1-1.7,1.6-2.5c0.1-0.1,0.2-0.3,0.3-0.5
							c0.1-0.1,0.1-0.3,0.2-0.4c0.1-0.2,0.2-0.3,0.3-0.4c0.1-0.2,0.2-0.4,0.3-0.5c0.1-0.2,0.2-0.4,0.3-0.5c0-0.1,0-0.1,0.1-0.2
							c0.1-0.2,0.2-0.4,0.2-0.5l0.4-0.9c0.2-0.7,0.4-1.3,0.6-2l0.1-0.4c0.1-0.4,0.2-0.7,0.3-1c0-0.2,0.1-0.4,0.1-0.5
							c0-0.2,0-0.3,0-0.5l0.1-0.7c0.2-1,0.1-2,0.2-3c0-0.2,0-0.3,0-0.5c0-0.1,0-0.3-0.1-0.4c0-0.2,0-0.3,0-0.5c0-0.2,0-0.4,0-0.6
							l-0.1-0.6c0-0.2-0.1-0.3-0.1-0.5c0-0.1,0-0.3-0.1-0.5c0-0.1-0.1-0.2-0.2-0.2c-0.1-0.1-0.3-0.2-0.5-0.1
							C303.8,174,303.8,174,303.7,174.1z"/>
					</g>
				</g>
				<g id="XMLID_2677_">
					<g id="XMLID_2678_">
						<path id="XMLID_2679_" class="st1" d="M324.4,243.1c-0.1-0.2-0.3-0.3-0.6-0.3c-0.1,0-0.3,0-0.4,0l-0.5,0.1c-0.2,0-0.5,0-0.7,0
							c-0.2,0-0.3,0-0.5,0c-0.5,0-1,0-1.5,0l-0.6,0c-0.2,0-0.5,0-0.6,0c-0.2,0-0.3-0.1-0.5-0.1c-0.5,0-0.9-0.2-1.4-0.2
							c-0.4,0-0.7-0.1-1.1-0.2l-0.5-0.2c-0.1,0-0.3-0.1-0.5-0.1l-0.3-0.1c-0.3-0.1-0.7-0.3-1-0.4c-0.4-0.1-0.8-0.3-1.2-0.5
							c-0.4-0.2-0.8-0.4-1.2-0.6l-0.1-0.1l-0.1-0.1l0,0c-0.1-0.1-0.2-0.2-0.4-0.2l-0.7-0.5l-0.2-0.2l-0.4-0.3
							c-0.2-0.1-0.3-0.3-0.5-0.4c-0.1-0.1-0.3-0.2-0.5-0.3l-0.2-0.2c-0.1-0.1-0.1-0.1-0.2-0.2c-0.4-0.3-0.6-0.7-1-0.9
							c-0.3-0.3-0.5-0.5-0.8-0.8l-0.4-0.5c-0.1-0.1-0.2-0.2-0.3-0.4l-0.2-0.3c-0.2-0.3-0.4-0.6-0.6-0.9c-0.2-0.4-0.5-0.7-0.6-1.1
							c-0.2-0.4-0.4-0.8-0.6-1.2c-0.1-0.1-0.1-0.2-0.1-0.3c-0.1-0.1-0.1-0.3-0.2-0.4c-0.1-0.3-0.2-0.5-0.3-0.8
							c-0.2-0.5-0.5-1-0.5-1.6c0-0.3-0.1-0.6-0.2-0.9c0-0.1,0-0.2-0.1-0.3s-0.2-0.2-0.2-0.3c-0.2-0.2-0.3-0.2-0.5-0.2
							c-0.2,0.1-0.3,0.2-0.4,0.4c-0.1,0.2-0.1,0.4-0.1,0.6c0,0.1,0,0.2,0.1,0.4c0,0.2,0.1,0.4,0.1,0.6c0,0.2,0.1,0.4,0.2,0.6
							c0.1,0.6,0.4,1.1,0.6,1.7c0.1,0.2,0.1,0.4,0.2,0.6c0.1,0.2,0.2,0.5,0.4,0.6l0,0.1c0,0,0,0.1,0,0.1c0,0.3,0.2,0.5,0.4,0.8
							c0.1,0.3,0.3,0.6,0.5,0.8c0.4,0.6,0.7,1.2,1.2,1.7c0.1,0.1,0.2,0.2,0.2,0.3c0.2,0.3,0.4,0.5,0.6,0.8c0.1,0.1,0.2,0.3,0.4,0.4
							c0.1,0.1,0.2,0.2,0.3,0.3l0.5,0.5c0.7,0.7,1.5,1.3,2.3,1.9c0.1,0.1,0.3,0.2,0.4,0.3c0.1,0.1,0.3,0.1,0.4,0.2
							c0.1,0.1,0.3,0.2,0.4,0.3c0.2,0.1,0.3,0.2,0.5,0.3l0.5,0.3c0.1,0,0.1,0.1,0.2,0.1c0.2,0.1,0.3,0.2,0.5,0.3l0.9,0.4
							c0.6,0.3,1.3,0.5,1.9,0.7c0.1,0,0.3,0.1,0.4,0.1c0.3,0.1,0.6,0.2,1,0.3c0.2,0,0.4,0.1,0.5,0.1s0.3,0,0.5,0
							c0.3,0.1,0.5,0.1,0.7,0.2c1,0.2,2,0.2,2.9,0.2c0.2,0,0.3,0,0.5,0c0.1,0,0.3,0,0.4,0c0.2,0,0.3,0,0.5,0c0.2,0,0.4,0,0.6,0
							l0.6-0.1c0.2,0,0.3-0.1,0.5-0.1c0.1,0,0.3,0,0.5-0.1c0.1,0,0.1-0.1,0.2-0.2c0.1-0.1,0.2-0.3,0.1-0.5
							C324.6,243.3,324.5,243.2,324.4,243.1z"/>
					</g>
				</g>
				<g id="XMLID_2674_">
					<g id="XMLID_2675_">
						<path id="XMLID_2676_" class="st1" d="M262.3,253.2c-0.1-0.2-0.2-0.3-0.5-0.4c-0.1,0-0.3,0-0.4,0l-0.6,0
							c-0.3,0-0.5-0.1-0.7-0.1c-0.2,0-0.3,0-0.5,0c-0.5-0.1-1-0.2-1.5-0.4c-0.2-0.1-0.4-0.1-0.6-0.2s-0.4-0.1-0.6-0.2
							c-0.1-0.1-0.3-0.2-0.4-0.3c-0.4-0.2-0.7-0.6-1-0.8c-0.3-0.3-0.5-0.6-0.6-0.9c-0.1-0.2-0.2-0.4-0.2-0.5c0-0.2-0.1-0.3-0.2-0.5
							l-0.1-0.3c-0.1-0.4-0.1-0.8-0.1-1.2c0-0.5,0-0.9,0-1.4c0-0.5,0-1,0.1-1.5c0,0,0-0.1,0-0.1l0-0.2V244c0-0.2,0-0.3,0-0.5l0.1-1
							v-0.3l0-0.5l0.1-0.7c0-0.2,0-0.4,0-0.6l0-0.3c0-0.1,0-0.2,0-0.3c0-0.5,0.1-1.1,0.1-1.6c0-0.5,0-0.8,0-1.3l0-0.6
							c0-0.2,0-0.4,0-0.5l0-0.3c0-0.4,0.1-0.8,0.1-1.2c0-0.5,0-0.9,0.1-1.4c0-0.5,0.1-1,0.1-1.6c0-0.1,0-0.2,0-0.4
							c0-0.2,0-0.3,0-0.5l0.1-1c0-0.6,0-1.3,0.1-1.9c0.1-0.4,0.1-0.7,0.1-1c0-0.1,0-0.3,0-0.4s-0.1-0.3-0.2-0.4
							c-0.1-0.2-0.3-0.3-0.5-0.3c-0.2,0-0.3,0.2-0.5,0.3c-0.1,0.1-0.2,0.4-0.2,0.6c0,0.1,0,0.3,0,0.4c0,0.2,0,0.5-0.1,0.7
							c0,0.2,0,0.4,0,0.6c-0.1,0.6-0.1,1.3-0.1,1.9c0,0.2-0.1,0.5-0.1,0.7c0,0.3,0,0.5,0,0.8v0.1c0,0,0,0.1,0,0.1
							c-0.1,0.3-0.1,0.6-0.1,0.9l-0.1,1c0,0.7-0.1,1.4-0.1,2.2c0,0.2,0,0.3,0,0.4c0,0.4-0.1,0.7-0.1,1.1c0,0.2,0,0.4,0,0.5
							c0,0.2,0,0.3,0,0.5l-0.1,0.8c-0.1,1.1-0.1,2.1-0.2,3.1c0,0.2,0,0.4,0,0.5c0,0.1,0,0.3,0,0.4c0,0.2,0,0.4-0.1,0.5
							c0,0.2,0,0.4-0.1,0.6l0,0.6c0,0.1,0,0.2,0,0.2c0,0.2,0,0.4,0,0.6c0,0.4,0,0.7,0,1.1c0,0.7,0.1,1.5,0.3,2.3
							c0,0.2,0.1,0.3,0.1,0.5c0.1,0.4,0.3,0.8,0.5,1.1c0.1,0.2,0.2,0.4,0.3,0.5c0.1,0.2,0.3,0.2,0.4,0.4c0.2,0.2,0.4,0.5,0.6,0.6
							c0.9,0.8,2,1.2,3.1,1.5c0.2,0,0.4,0.1,0.5,0.1c0.2,0,0.3,0,0.5,0c0.2,0,0.4,0.1,0.5,0.1c0.2,0,0.4,0.1,0.6,0.1l0.7,0
							c0.2,0,0.4,0,0.5,0c0.2,0,0.4,0,0.5,0c0.1,0,0.2-0.1,0.3-0.2c0.2-0.1,0.2-0.3,0.2-0.4C262.4,253.3,262.4,253.3,262.3,253.2z"
							/>
					</g>
				</g>
				<g id="XMLID_2671_">
					<g id="XMLID_2672_">
						<path id="XMLID_2673_" class="st1" d="M288.1,137.5c-0.3,0-0.4,0-0.6,0.3c-0.1,0.1-0.2,0.2-0.3,0.4c-0.1,0.2-0.2,0.4-0.4,0.5
							c-0.2,0.2-0.4,0.4-0.5,0.6c-0.1,0.2-0.2,0.3-0.3,0.5c-0.3,0.5-0.7,0.9-1,1.4c-0.1,0.2-0.3,0.4-0.4,0.6s-0.2,0.4-0.4,0.6
							c-0.1,0.2-0.3,0.3-0.3,0.4c-0.3,0.5-0.6,0.8-0.8,1.3c-0.2,0.4-0.5,0.7-0.7,1.1c-0.1,0.2-0.3,0.4-0.4,0.5
							c-0.1,0.2-0.2,0.3-0.3,0.5c-0.1,0.1-0.1,0.2-0.2,0.3c-0.3,0.3-0.5,0.6-0.7,1c-0.3,0.4-0.5,0.8-0.8,1.2
							c-0.3,0.4-0.6,0.8-0.9,1.3c0,0-0.1,0.1-0.1,0.1c0,0-0.1,0.1-0.1,0.1l0,0c-0.1,0.1-0.2,0.3-0.3,0.4c-0.2,0.3-0.4,0.5-0.6,0.8
							c-0.1,0.1-0.1,0.2-0.2,0.3c-0.1,0.1-0.2,0.3-0.3,0.4c-0.1,0.2-0.3,0.4-0.4,0.6c-0.1,0.2-0.2,0.4-0.3,0.5
							c-0.1,0.1-0.1,0.2-0.2,0.3c-0.1,0.1-0.1,0.2-0.2,0.2c-0.3,0.5-0.6,0.8-0.8,1.3c-0.2,0.4-0.5,0.7-0.7,1.1
							c-0.1,0.2-0.3,0.4-0.4,0.5c-0.1,0.2-0.2,0.3-0.3,0.5c-0.1,0.1-0.1,0.2-0.2,0.3c-0.3,0.3-0.5,0.6-0.7,1
							c-0.3,0.4-0.5,0.8-0.8,1.2c-0.3,0.4-0.6,0.8-0.9,1.3c-0.1,0.1-0.2,0.2-0.2,0.3c-0.1,0.1-0.2,0.3-0.3,0.4
							c-0.2,0.3-0.4,0.5-0.6,0.8c-0.4,0.5-0.6,1.1-1,1.6c-0.2,0.3-0.4,0.5-0.6,0.8c-0.1,0.1-0.2,0.2-0.2,0.3c0,0.1-0.1,0.3-0.1,0.4
							c0,0.3,0.1,0.4,0.2,0.5c0.2,0.1,0.4,0,0.5,0s0.4-0.2,0.5-0.4c0.1-0.1,0.2-0.2,0.2-0.3c0.1-0.2,0.3-0.4,0.4-0.5
							c0.1-0.2,0.2-0.4,0.4-0.5c0.4-0.5,0.7-1.1,1.1-1.6c0.1-0.2,0.3-0.4,0.4-0.5c0.2-0.2,0.3-0.5,0.4-0.7c0,0,0-0.1,0-0.1
							c0,0,0,0,0.1-0.1c0.2-0.2,0.4-0.5,0.5-0.7c0.2-0.3,0.4-0.5,0.6-0.8c0.4-0.6,0.8-1.2,1.2-1.8c0.1-0.1,0.2-0.2,0.3-0.4
							c0.2-0.3,0.4-0.6,0.6-0.9c0.1-0.1,0.2-0.3,0.3-0.5c0.1-0.2,0.1-0.3,0.2-0.4c0.2-0.2,0.3-0.4,0.5-0.6c0.6-0.9,1.2-1.7,1.8-2.6
							c0.1-0.1,0.2-0.3,0.3-0.5c0.1-0.1,0.1-0.3,0.2-0.4c0.1-0.2,0.2-0.3,0.3-0.4c0.1-0.2,0.3-0.3,0.4-0.5c0.1-0.2,0.3-0.4,0.4-0.5
							c0.1-0.1,0.1-0.1,0.1-0.2c0.1-0.2,0.2-0.3,0.3-0.5c0.2-0.3,0.4-0.5,0.6-0.8c0.4-0.6,0.8-1.2,1.2-1.8c0.1-0.1,0.2-0.2,0.3-0.4
							c0.2-0.3,0.4-0.6,0.6-0.9c0.1-0.1,0.2-0.3,0.3-0.5c0.1-0.2,0.1-0.3,0.2-0.4c0.2-0.2,0.3-0.4,0.5-0.6c0.6-0.9,1.2-1.7,1.8-2.6
							c0.1-0.1,0.2-0.3,0.3-0.4c0.1-0.1,0.1-0.3,0.2-0.4c0.1-0.2,0.2-0.3,0.3-0.4c0.1-0.2,0.3-0.3,0.4-0.5c0.1-0.2,0.3-0.4,0.4-0.5
							c0.1-0.2,0.2-0.3,0.3-0.5c0.1-0.1,0.2-0.3,0.3-0.4c0-0.1,0-0.2,0-0.3c0-0.2-0.1-0.3-0.2-0.4
							C288.3,137.5,288.2,137.5,288.1,137.5z"/>
					</g>
				</g>
				<g id="XMLID_2668_">
					<g id="XMLID_2669_">
						<path id="XMLID_2670_" class="st1" d="M199.6,143.3c-0.2,0.1-0.4,0.2-0.5,0.6c-0.1,0.2-0.1,0.3-0.1,0.5c0,0.3-0.1,0.5-0.1,0.7
							c-0.1,0.3-0.2,0.6-0.2,0.9c0,0.2-0.1,0.4-0.1,0.6c-0.1,0.6-0.3,1.3-0.4,1.9c-0.1,0.3-0.1,0.5-0.2,0.8
							c-0.1,0.3-0.1,0.5-0.1,0.8c0,0.2-0.1,0.4-0.2,0.6c-0.1,0.6-0.3,1.2-0.3,1.8c-0.1,0.5-0.2,1-0.3,1.5c-0.1,0.3-0.1,0.5-0.2,0.7
							c0,0.2,0,0.4-0.1,0.6c0,0.1-0.1,0.3-0.1,0.4c-0.1,0.5-0.3,1-0.3,1.4c-0.1,0.5-0.2,1.1-0.3,1.6c-0.1,0.6-0.3,1.2-0.3,1.8
							c0,0.1,0,0.1,0,0.2c0,0.1,0,0.1-0.1,0.2c0,0,0,0,0,0.1c0,0.2-0.1,0.4-0.1,0.5c-0.1,0.4-0.2,0.7-0.2,1.1c0,0.1,0,0.3-0.1,0.4
							c0,0.2-0.1,0.4-0.1,0.6c-0.1,0.3-0.1,0.5-0.2,0.8c0,0.2-0.1,0.5-0.1,0.7c0,0.1-0.1,0.3-0.1,0.4c0,0.1-0.1,0.2-0.1,0.4
							c-0.1,0.6-0.3,1.2-0.3,1.8c-0.1,0.5-0.2,1-0.3,1.5c-0.1,0.3-0.1,0.5-0.2,0.7c0,0.2,0,0.4-0.1,0.6c0,0.1-0.1,0.3-0.1,0.4
							c-0.1,0.5-0.3,1-0.3,1.4c-0.1,0.5-0.2,1.1-0.3,1.6c-0.1,0.6-0.3,1.2-0.3,1.8c0,0.2-0.1,0.3-0.1,0.4c0,0.2-0.1,0.4-0.1,0.5
							c-0.1,0.4-0.2,0.7-0.2,1.1c-0.2,0.7-0.2,1.5-0.4,2.2c-0.1,0.4-0.2,0.8-0.3,1.2c0,0.2-0.1,0.3-0.1,0.5c0,0.2,0.1,0.3,0.1,0.5
							c0.1,0.3,0.2,0.4,0.4,0.4c0.2,0,0.3-0.1,0.5-0.3c0.2-0.1,0.3-0.4,0.3-0.7c0-0.1,0.1-0.3,0.1-0.5c0.1-0.3,0.1-0.5,0.2-0.8
							c0.1-0.3,0.1-0.5,0.1-0.7c0.2-0.7,0.3-1.5,0.4-2.2c0.1-0.3,0.1-0.5,0.2-0.8c0.1-0.3,0.1-0.6,0.1-0.9c0,0,0-0.1,0-0.1
							c0,0,0-0.1,0-0.1c0.1-0.3,0.2-0.7,0.3-1c0.1-0.4,0.2-0.8,0.2-1.2c0.2-0.8,0.3-1.7,0.5-2.5c0-0.2,0.1-0.3,0.1-0.5
							c0.1-0.4,0.2-0.8,0.3-1.3c0-0.2,0.1-0.4,0.1-0.6c0-0.2,0-0.4,0.1-0.5c0.1-0.3,0.2-0.6,0.2-0.9c0.2-1.2,0.4-2.4,0.7-3.7
							c0-0.2,0.1-0.4,0.1-0.6c0-0.2,0-0.3,0.1-0.5c0-0.2,0.1-0.4,0.2-0.6c0.1-0.2,0.1-0.5,0.2-0.7c0.1-0.3,0.1-0.5,0.2-0.7
							c0-0.1,0-0.2,0-0.3c0.1-0.2,0.1-0.5,0.1-0.6c0.1-0.4,0.2-0.8,0.2-1.2c0.2-0.8,0.3-1.7,0.5-2.5c0-0.2,0.1-0.3,0.1-0.5
							c0.1-0.4,0.2-0.8,0.3-1.3c0-0.2,0.1-0.4,0.1-0.6c0-0.2,0-0.4,0.1-0.5c0.1-0.3,0.2-0.6,0.2-0.9c0.2-1.2,0.4-2.4,0.7-3.7
							c0-0.2,0.1-0.4,0.1-0.6c0-0.2,0-0.3,0.1-0.5s0.1-0.4,0.2-0.6c0.1-0.2,0.1-0.5,0.2-0.7c0.1-0.3,0.1-0.5,0.2-0.7
							c0-0.2,0-0.4,0.1-0.6c0-0.2,0.1-0.4,0.1-0.6c0-0.1-0.1-0.2-0.1-0.3c-0.1-0.2-0.2-0.3-0.4-0.4
							C199.7,143.2,199.7,143.2,199.6,143.3z"/>
					</g>
				</g>
				<g id="XMLID_2665_">
					<g id="XMLID_2666_">
						<path id="XMLID_2667_" class="st1" d="M274.1,82.2c-0.2,0.2-0.2,0.4-0.2,0.9c0,0.2,0,0.4,0.1,0.6c0.1,0.3,0.1,0.6,0.1,0.9
							c0,0.4,0,0.7,0,1.2c0,0.3,0,0.5,0,0.7c-0.1,0.8-0.3,1.6-0.5,2.4l-0.3,1c-0.1,0.3-0.2,0.7-0.4,1c-0.1,0.2-0.3,0.4-0.4,0.7
							c-0.4,0.7-0.8,1.3-1.2,1.9c-0.4,0.5-0.8,1-1.2,1.4l-0.7,0.7c-0.2,0.2-0.4,0.4-0.6,0.5c-0.1,0.1-0.3,0.2-0.4,0.3
							c-0.5,0.4-1,0.6-1.6,1c-0.6,0.4-1.3,0.6-1.9,0.9c-0.7,0.3-1.4,0.5-2.2,0.6c-0.1,0-0.1,0-0.2,0l-0.3,0h-0.1
							c-0.2,0-0.5,0.1-0.7,0.1c-0.5,0.1-1,0.1-1.5,0.1l-0.5,0l-0.7,0c-0.4,0-0.7-0.1-1-0.1c-0.3,0-0.6-0.1-0.9-0.1l-0.5-0.1
							c-0.1-0.1-0.3-0.1-0.4-0.1c-0.7-0.2-1.5-0.5-2.1-0.7c-0.6-0.2-1.1-0.5-1.6-0.9c-0.3-0.2-0.5-0.4-0.8-0.6
							c-0.2-0.2-0.4-0.3-0.6-0.5c-0.1-0.1-0.2-0.2-0.4-0.4c-0.4-0.4-0.8-0.9-1.2-1.4c-0.4-0.5-0.8-1.2-1.1-1.7
							c-0.4-0.7-0.6-1.4-0.9-2.1c-0.1-0.2-0.1-0.4-0.1-0.5c-0.1-0.2-0.1-0.5-0.2-0.7c-0.1-0.5-0.2-0.9-0.2-1.4
							c-0.1-0.9-0.2-1.8-0.1-2.7c0.1-0.5,0.2-1,0.3-1.5c0-0.2,0.1-0.4,0.1-0.5c0-0.2,0-0.4,0-0.6c0-0.4-0.1-0.5-0.3-0.6
							c-0.2,0-0.4,0.1-0.6,0.3c-0.2,0.2-0.4,0.5-0.5,0.9c0,0.2-0.1,0.4-0.2,0.6c-0.1,0.4-0.1,0.7-0.2,1.1c-0.1,0.4,0,0.7-0.1,1
							c-0.1,1,0.1,2,0.3,3.1c0.1,0.4,0.1,0.7,0.2,1.1c0.1,0.4,0.2,0.8,0.4,1.2l0.1,0.1c0,0,0,0.1,0,0.1c0.1,0.4,0.4,0.9,0.5,1.4
							c0.2,0.5,0.5,1,0.8,1.4c0.6,1,1.4,1.9,2.3,2.7l0.5,0.5c0.4,0.4,0.9,0.7,1.4,1.1c0.3,0.1,0.5,0.3,0.8,0.5
							c0.2,0.1,0.5,0.2,0.7,0.3c0.4,0.2,0.8,0.4,1.2,0.5c1.6,0.6,3.3,0.8,5,0.9c0.3,0,0.5,0,0.8,0c0.2,0,0.5,0,0.7-0.1
							c0.3,0,0.5,0,0.8-0.1c0.3,0,0.6-0.1,1-0.2c0.4-0.1,0.7-0.2,1-0.2c0.1,0,0.2-0.1,0.4-0.1c0.3-0.1,0.6-0.2,0.9-0.3
							c0.5-0.2,1-0.4,1.5-0.6c1-0.5,2-1.1,2.9-1.9l0.5-0.5c0.5-0.4,0.9-0.8,1.3-1.2c0.2-0.2,0.4-0.4,0.6-0.6
							c0.2-0.2,0.3-0.4,0.5-0.6c0.3-0.3,0.5-0.7,0.8-1c0.9-1.4,1.6-3,2-4.7c0.1-0.3,0.1-0.5,0.2-0.8c0-0.2,0-0.5,0.1-0.7
							c0-0.3,0.1-0.5,0.1-0.8c0-0.3,0-0.6,0-1l-0.1-1c0-0.3-0.1-0.5-0.2-0.8c0-0.3-0.1-0.5-0.2-0.8c-0.1-0.1-0.2-0.3-0.2-0.4
							c-0.2-0.2-0.3-0.3-0.5-0.3C274.2,82,274.1,82.2,274.1,82.2z"/>
					</g>
				</g>
				<g id="XMLID_2662_">
					<g id="XMLID_2663_">
						<path id="XMLID_2664_" class="st1" d="M229.2,241.7c0.1-0.2,0.1-0.3,0-0.5c0-0.1-0.1-0.2-0.2-0.3l-0.3-0.3
							c-0.1-0.1-0.2-0.3-0.3-0.5c-0.1-0.1-0.2-0.2-0.2-0.3c-0.2-0.3-0.5-0.6-0.7-0.9l-0.3-0.4c-0.1-0.1-0.3-0.3-0.4-0.4
							c-0.1-0.1-0.1-0.2-0.2-0.3c-0.3-0.3-0.5-0.6-0.7-0.8c-0.2-0.2-0.4-0.4-0.6-0.6l-0.3-0.4c-0.1-0.1-0.2-0.2-0.3-0.3l-0.2-0.2
							c-0.2-0.2-0.4-0.5-0.5-0.7c-0.2-0.3-0.5-0.5-0.7-0.7c-0.2-0.3-0.5-0.5-0.7-0.8l-0.1-0.1l-0.1-0.1l0,0
							c-0.1-0.1-0.2-0.2-0.2-0.3l-0.5-0.5l-0.2-0.2l-0.2-0.3l-0.3-0.4c-0.1-0.1-0.2-0.2-0.3-0.3l-0.1-0.2c0-0.1-0.1-0.1-0.1-0.2
							c-0.3-0.2-0.5-0.5-0.7-0.8c-0.2-0.2-0.4-0.4-0.6-0.6l-0.3-0.3c-0.1-0.1-0.2-0.2-0.3-0.3l-0.2-0.2c-0.2-0.2-0.3-0.5-0.5-0.7
							c-0.2-0.3-0.4-0.5-0.6-0.7c-0.2-0.3-0.5-0.5-0.7-0.8c-0.1-0.1-0.1-0.1-0.1-0.2c-0.1-0.1-0.1-0.2-0.2-0.3l-0.4-0.5
							c-0.3-0.3-0.6-0.6-0.9-1c-0.1-0.2-0.3-0.4-0.4-0.6c-0.1-0.1-0.1-0.1-0.2-0.2c-0.1-0.1-0.2-0.1-0.3-0.1c-0.2-0.1-0.4,0-0.5,0.1
							c-0.1,0.1-0.1,0.3-0.2,0.4c0,0.2,0,0.3,0.1,0.5c0.1,0.1,0.1,0.1,0.2,0.2c0.1,0.1,0.2,0.3,0.3,0.4c0.1,0.1,0.2,0.2,0.3,0.3
							c0.3,0.4,0.6,0.7,0.9,1c0.1,0.1,0.2,0.3,0.3,0.4c0.1,0.1,0.3,0.3,0.4,0.4c0,0,0,0,0,0s0,0,0,0.1c0.1,0.2,0.3,0.4,0.4,0.5
							l0.5,0.5c0.3,0.4,0.6,0.7,1,1.1c0.1,0.1,0.1,0.2,0.2,0.2c0.2,0.2,0.3,0.4,0.5,0.6c0.1,0.1,0.2,0.2,0.3,0.3
							c0.1,0.1,0.2,0.1,0.3,0.2c0.1,0.1,0.2,0.3,0.4,0.4c0.5,0.5,1,1,1.5,1.6c0.1,0.1,0.2,0.2,0.3,0.3c0.1,0.1,0.2,0.1,0.2,0.2
							c0.1,0.1,0.1,0.2,0.2,0.3c0.1,0.1,0.2,0.2,0.3,0.3l0.3,0.3c0,0,0.1,0.1,0.1,0.1c0.1,0.1,0.2,0.2,0.3,0.3l0.5,0.5
							c0.4,0.4,0.6,0.7,1,1.1c0.1,0.1,0.1,0.2,0.2,0.2c0.2,0.2,0.3,0.4,0.5,0.6c0.1,0.1,0.2,0.2,0.3,0.3c0.1,0.1,0.2,0.1,0.3,0.2
							c0.1,0.2,0.2,0.3,0.4,0.4c0.5,0.5,1,1.1,1.4,1.6c0.1,0.1,0.2,0.2,0.2,0.3c0.1,0.1,0.2,0.2,0.2,0.2c0.1,0.1,0.1,0.2,0.2,0.3
							c0.1,0.1,0.2,0.2,0.3,0.3l0.3,0.4c0.1,0.1,0.2,0.2,0.3,0.3c0.1,0.1,0.1,0.2,0.2,0.3c0.1,0,0.2,0,0.2,0c0.2,0,0.3,0,0.4-0.1
							C229.1,241.8,229.2,241.7,229.2,241.7z"/>
					</g>
				</g>
				<g id="XMLID_2659_">
					<g id="XMLID_2660_">
						<path id="XMLID_2661_" class="st1" d="M136.7,222c0.1-0.2,0.2-0.3,0.1-0.6c0-0.1-0.1-0.2-0.2-0.3c-0.1-0.2-0.2-0.3-0.3-0.5
							c-0.1-0.2-0.2-0.4-0.3-0.6c-0.1-0.1-0.2-0.2-0.2-0.4c-0.2-0.4-0.4-0.8-0.6-1.2c-0.1-0.2-0.2-0.4-0.3-0.5
							c-0.1-0.2-0.2-0.3-0.3-0.5c-0.1-0.1-0.1-0.3-0.2-0.4c-0.3-0.4-0.4-0.8-0.6-1.1c-0.2-0.3-0.4-0.6-0.5-0.9
							c-0.1-0.2-0.2-0.3-0.3-0.5c-0.1-0.1-0.2-0.2-0.2-0.4c0-0.1-0.1-0.2-0.1-0.3c-0.2-0.3-0.3-0.6-0.5-0.9c-0.2-0.4-0.4-0.7-0.6-1
							c-0.2-0.4-0.4-0.7-0.6-1.1c0,0,0-0.1-0.1-0.1c0,0,0-0.1-0.1-0.1c0,0,0,0,0,0c-0.1-0.1-0.1-0.2-0.2-0.4
							c-0.1-0.2-0.3-0.5-0.4-0.7c0-0.1-0.1-0.2-0.1-0.2c-0.1-0.1-0.1-0.3-0.2-0.4c-0.1-0.2-0.2-0.4-0.3-0.5
							c-0.1-0.2-0.2-0.3-0.3-0.4c0-0.1-0.1-0.2-0.1-0.3c0-0.1-0.1-0.2-0.1-0.2c-0.3-0.4-0.4-0.8-0.6-1.1c-0.2-0.3-0.4-0.6-0.5-0.9
							c-0.1-0.2-0.2-0.3-0.3-0.5c-0.1-0.1-0.2-0.2-0.2-0.4c0-0.1-0.1-0.2-0.1-0.3c-0.2-0.3-0.3-0.6-0.5-0.9c-0.2-0.4-0.4-0.7-0.6-1
							c-0.2-0.4-0.4-0.7-0.6-1.1c-0.1-0.1-0.1-0.2-0.1-0.3c-0.1-0.1-0.1-0.2-0.2-0.4c-0.1-0.2-0.3-0.5-0.4-0.7
							c-0.3-0.5-0.6-0.8-0.8-1.3c-0.1-0.3-0.2-0.5-0.4-0.8c-0.1-0.1-0.1-0.2-0.2-0.3c-0.1-0.1-0.2-0.1-0.3-0.2
							c-0.2-0.1-0.4-0.1-0.5,0c-0.2,0.1-0.2,0.3-0.3,0.5c-0.1,0.2,0,0.4,0.1,0.5c0,0.1,0.1,0.2,0.1,0.3c0.1,0.2,0.2,0.3,0.3,0.5
							c0.1,0.2,0.2,0.3,0.3,0.5c0.2,0.5,0.5,0.9,0.8,1.4c0.1,0.2,0.2,0.4,0.3,0.5c0.1,0.2,0.2,0.4,0.4,0.5c0,0,0,0,0,0.1
							c0,0,0,0,0,0.1c0,0.2,0.2,0.5,0.3,0.7c0.1,0.3,0.3,0.5,0.4,0.7c0.3,0.5,0.6,1,0.9,1.6c0.1,0.1,0.1,0.2,0.2,0.3
							c0.1,0.3,0.3,0.5,0.4,0.8c0.1,0.1,0.1,0.3,0.2,0.4s0.2,0.2,0.2,0.3c0.1,0.2,0.2,0.4,0.3,0.6c0.4,0.7,0.9,1.5,1.3,2.3
							c0.1,0.1,0.1,0.3,0.2,0.4c0.1,0.1,0.1,0.2,0.2,0.3c0.1,0.1,0.1,0.3,0.2,0.4c0.1,0.2,0.2,0.3,0.2,0.5c0.1,0.2,0.2,0.3,0.3,0.5
							c0,0.1,0.1,0.1,0.1,0.2c0.1,0.1,0.2,0.3,0.2,0.4c0.1,0.3,0.3,0.5,0.4,0.7c0.3,0.5,0.6,1,0.9,1.6c0.1,0.1,0.1,0.2,0.2,0.3
							c0.1,0.3,0.3,0.5,0.4,0.8c0.1,0.1,0.1,0.3,0.2,0.4c0.1,0.1,0.2,0.2,0.2,0.3c0.1,0.2,0.2,0.4,0.3,0.6c0.4,0.7,0.9,1.5,1.3,2.3
							c0.1,0.1,0.1,0.3,0.2,0.4c0.1,0.1,0.1,0.2,0.2,0.3c0.1,0.1,0.1,0.3,0.2,0.4c0.1,0.2,0.2,0.3,0.2,0.5c0.1,0.2,0.2,0.3,0.3,0.5
							c0.1,0.2,0.2,0.2,0.3,0.4c0.1,0.1,0.1,0.3,0.2,0.4c0.1,0.1,0.2,0.1,0.2,0.1c0.2,0,0.3,0,0.5,0
							C136.6,222.1,136.7,222.1,136.7,222z"/>
					</g>
				</g>
				<g id="XMLID_2656_">
					<g id="XMLID_2657_">
						<path id="XMLID_2658_" class="st1" d="M341.6,514.1c-0.2-0.2-0.4-0.3-0.7-0.3c-0.2,0-0.4,0-0.5,0.1c-0.3,0-0.5,0.1-0.8,0.1
							c-0.3,0.1-0.6,0-1,0.1c-0.2,0.1-0.4,0.1-0.6,0.1c-0.7,0.1-1.3,0.2-2,0.3c-0.3,0.1-0.6,0.1-0.9,0.1c-0.3,0.1-0.6,0.2-0.9,0.2
							c-0.2,0-0.4,0-0.6,0.1c-0.6,0.2-1.3,0.2-1.9,0.4c-0.5,0.1-1,0.2-1.6,0.3c-0.3,0-0.5,0.1-0.8,0.1c-0.2,0-0.4,0.1-0.6,0.1
							c-0.1,0-0.3,0-0.4,0.1c-0.5,0.1-1,0.1-1.5,0.2c-0.6,0.1-1.2,0.2-1.7,0.3c-0.6,0.1-1.3,0.2-1.9,0.4c-0.1,0-0.1,0-0.2,0
							c-0.1,0-0.1,0-0.2,0c0,0,0,0-0.1,0c-0.2,0-0.4,0.1-0.6,0.1c-0.4,0.1-0.8,0.1-1.2,0.2c-0.1,0-0.3,0.1-0.4,0.1
							c-0.2,0-0.4,0.1-0.6,0.1c-0.3,0.1-0.6,0.1-0.9,0.1c-0.3,0-0.5,0.1-0.7,0.2c-0.1,0-0.3,0-0.4,0.1c-0.1,0-0.3,0-0.4,0
							c-0.6,0.2-1.3,0.2-1.9,0.4c-0.5,0.1-1,0.2-1.6,0.3c-0.3,0-0.5,0.1-0.8,0.1c-0.2,0-0.4,0.1-0.6,0.1c-0.1,0-0.3,0-0.4,0.1
							c-0.5,0.1-1,0.1-1.5,0.2c-0.6,0.1-1.2,0.2-1.7,0.3c-0.6,0.1-1.3,0.2-1.9,0.4c-0.2,0-0.3,0-0.5,0.1c-0.2,0-0.4,0.1-0.6,0.1
							c-0.4,0.1-0.8,0.1-1.2,0.2c-0.7,0.1-1.5,0.4-2.3,0.5c-0.4,0-0.8,0.1-1.3,0.2c-0.2,0-0.3,0.1-0.5,0.1c-0.2,0.1-0.3,0.2-0.4,0.3
							c-0.3,0.2-0.3,0.4-0.3,0.5c0.1,0.2,0.3,0.3,0.5,0.4c0.2,0.1,0.5,0.1,0.8,0.1c0.2,0,0.3-0.1,0.5-0.1c0.3,0,0.5-0.1,0.8-0.1
							c0.3,0,0.5-0.1,0.8-0.2c0.8-0.1,1.5-0.3,2.3-0.4c0.3,0,0.6-0.1,0.8-0.1c0.3-0.1,0.6-0.1,1-0.2c0,0,0.1,0,0.1,0s0.1,0,0.1,0
							c0.3,0,0.8-0.1,1.1-0.1c0.4-0.1,0.8-0.1,1.2-0.2c0.9-0.2,1.7-0.3,2.6-0.5c0.2,0,0.4-0.1,0.5-0.1c0.5-0.1,0.9-0.1,1.3-0.2
							c0.2,0,0.5-0.1,0.6-0.1c0.2-0.1,0.4-0.1,0.5-0.1c0.3,0,0.6-0.1,1-0.1c1.3-0.2,2.5-0.5,3.8-0.7c0.2,0,0.4-0.1,0.6-0.1
							c0.2,0,0.4-0.1,0.5-0.1c0.2,0,0.4-0.1,0.6-0.1c0.3,0,0.5-0.1,0.7-0.1c0.3,0,0.5-0.1,0.8-0.1c0.1,0,0.2,0,0.3-0.1
							c0.2,0,0.5-0.1,0.7-0.1c0.4-0.1,0.8-0.1,1.2-0.2c0.9-0.2,1.7-0.3,2.6-0.5c0.2,0,0.4-0.1,0.5-0.1c0.5-0.1,0.9-0.1,1.3-0.2
							c0.2,0,0.5-0.1,0.6-0.1c0.2-0.1,0.4-0.1,0.5-0.1c0.3,0,0.6-0.1,1-0.1c1.3-0.2,2.5-0.5,3.8-0.7c0.2,0,0.4-0.1,0.6-0.1
							c0.2,0,0.3-0.1,0.5-0.1c0.2,0,0.4-0.1,0.6-0.1c0.3,0,0.5-0.1,0.7-0.1c0.3,0,0.5-0.1,0.8-0.1c0.3,0,0.4-0.1,0.6-0.2
							c0.2-0.1,0.4-0.1,0.6-0.1c0.1-0.1,0.2-0.1,0.3-0.2c0.2-0.2,0.2-0.3,0.2-0.5C341.8,514.2,341.7,514.1,341.6,514.1z"/>
					</g>
				</g>
				<g id="XMLID_2653_">
					<g id="XMLID_2654_">
						<path id="XMLID_2655_" class="st1" d="M231.9,523.9c-0.1-0.2-0.3-0.3-0.7-0.4c-0.2,0-0.4,0-0.5,0c-0.3,0-0.5,0-0.8,0
							c-0.3,0-0.6-0.1-1-0.1c-0.2,0-0.4,0-0.6,0c-0.7,0-1.4-0.1-2,0c-0.3,0-0.6,0-0.9,0s-0.6,0-0.9,0c-0.2,0-0.4-0.1-0.6,0
							c-0.6,0.1-1.3,0-1.9,0c-0.5,0-1,0-1.6,0c-0.3,0-0.5,0-0.8,0c-0.2,0-0.4,0-0.6,0c-0.1,0-0.3,0-0.4,0c-0.5,0-1-0.1-1.5-0.1
							c-0.6,0-1.2,0-1.8,0c-0.6,0-1.3,0-1.9,0c-0.1,0-0.1,0-0.2,0c-0.1,0-0.1,0-0.2,0c0,0,0,0-0.1,0c-0.2,0-0.4,0-0.6,0
							c-0.4,0-0.8,0-1.2,0c-0.1,0-0.3,0-0.4,0c-0.2,0-0.4,0-0.6,0c-0.3,0-0.6,0-0.9,0c-0.3,0-0.5,0-0.8,0c-0.1,0-0.3,0-0.4,0
							c-0.1,0-0.3,0-0.4,0c-0.6,0.1-1.3,0-1.9,0c-0.5,0-1,0-1.6,0c-0.3,0-0.5,0-0.8,0c-0.2,0-0.4,0-0.6,0c-0.1,0-0.3,0-0.4,0
							c-0.5,0-1-0.1-1.5-0.1c-0.6,0-1.2,0-1.8,0c-0.6,0-1.3,0-1.9,0c-0.2,0-0.3,0-0.5,0c-0.2,0-0.4,0-0.6,0c-0.4,0-0.8,0-1.2,0
							c-0.8,0-1.6,0.1-2.3,0.1c-0.4,0-0.8-0.1-1.3,0c-0.2,0-0.3,0-0.5,0c-0.2,0-0.3,0.1-0.5,0.2c-0.3,0.1-0.4,0.3-0.4,0.5
							c0,0.2,0.2,0.3,0.4,0.5c0.2,0.1,0.5,0.2,0.8,0.2c0.2,0,0.3,0,0.5,0c0.3,0,0.5,0,0.8,0c0.3,0,0.5,0,0.8,0c0.8,0,1.6,0,2.4,0
							c0.3,0,0.6,0,0.8,0c0.3,0,0.6,0,1,0c0,0,0.1,0,0.1,0c0,0,0.1,0,0.1,0c0.3,0.1,0.8,0,1.1,0.1c0.4,0,0.8,0,1.3,0
							c0.9,0,1.8,0,2.7,0c0.2,0,0.4,0,0.5,0c0.5,0,0.9,0,1.4,0c0.2,0,0.5,0,0.7,0c0.2,0,0.4-0.1,0.6,0c0.3,0,0.6,0,1,0
							c1.3,0,2.6,0,3.9,0c0.2,0,0.4,0,0.6,0c0.2,0,0.4,0,0.5,0c0.2,0,0.4,0,0.6,0c0.3,0,0.5,0,0.7,0c0.3,0,0.5,0,0.8,0
							c0.1,0,0.2,0,0.3,0c0.2,0,0.5,0,0.7,0c0.4,0,0.8,0,1.3,0c0.9,0,1.8,0,2.7,0c0.2,0,0.4,0,0.5,0c0.5,0,0.9,0,1.4,0
							c0.2,0,0.5,0,0.7,0c0.2,0,0.4-0.1,0.6,0c0.3,0,0.6,0,1,0c1.3,0,2.6,0,3.9,0c0.2,0,0.4,0,0.6,0c0.2,0,0.4,0,0.5,0
							c0.2,0,0.4,0,0.6,0c0.3,0,0.5,0,0.7,0c0.3,0,0.5,0,0.8,0s0.4,0,0.6-0.1c0.2,0,0.4,0,0.6,0c0.1,0,0.2-0.1,0.3-0.2
							c0.2-0.1,0.3-0.3,0.3-0.4C232.1,524.1,232,524,231.9,523.9z"/>
					</g>
				</g>
				<g id="XMLID_2648_">
					<g id="XMLID_2649_">
						<g id="XMLID_2650_">
							<g id="XMLID_2651_">
								<path id="XMLID_2652_" class="st1" d="M166.1,556c0.2-0.2,0.5-0.3,1.1-0.4c0.3,0,0.6,0,0.9,0c0.4,0,0.8,0,1.3,0
									c0.5,0,1-0.1,1.6-0.1c0.3,0,0.7,0,1,0c1.1,0,2.2-0.1,3.3,0c0.5,0,0.9,0,1.4,0s0.9,0.1,1.4,0.1c0.4,0,0.7-0.1,1.1,0
									c1,0.1,2.1,0,3,0.1c0.8,0,1.7,0,2.5,0c0.4,0,0.9,0,1.3,0c0.4,0,0.7,0,1,0c0.2,0,0.5,0,0.7,0c0.8,0,1.6-0.1,2.5-0.1
									c0.9,0,1.9,0,2.8,0c1,0,2,0,3,0c0.1,0,0.2,0,0.3,0c0.1,0,0.2,0,0.4,0c0,0,0.1,0,0.1,0c0.3,0,0.6,0,0.9,0c0.6,0,1.3,0,1.9,0
									c0.2,0,0.4,0,0.6,0c0.4,0,0.7,0,1,0c0.5,0,0.9,0,1.4,0c0.4,0,0.8,0,1.2,0c0.2,0,0.4,0,0.6,0c0.2,0,0.4,0,0.6,0
									c1,0.1,2.1,0,3,0.1c0.8,0,1.7,0,2.5,0c0.4,0,0.9,0,1.3,0c0.4,0,0.7,0,1,0c0.2,0,0.5,0,0.7,0c0.8,0,1.6-0.1,2.5-0.1
									c0.9,0,1.9,0,2.8,0c1,0,2,0,3,0c0.3,0,0.5,0,0.7,0c0.3,0,0.6,0,0.9,0c0.6,0,1.3,0,1.9,0c1.2,0,2.5,0.1,3.7,0.1
									c0.7,0,1.4-0.1,2.1,0c0.3,0,0.5,0,0.7,0c0.3,0,0.5,0.1,0.7,0.2c0.5,0.1,0.6,0.3,0.6,0.5c-0.1,0.2-0.3,0.3-0.6,0.5
									c-0.3,0.1-0.8,0.2-1.3,0.2c-0.3,0-0.5,0-0.7,0c-0.5,0-0.9,0-1.3,0c-0.4,0-0.8,0-1.3,0c-1.3,0-2.5,0-3.8,0
									c-0.5,0-0.9,0-1.4,0c-0.5,0-1,0-1.6,0c-0.1,0-0.1,0-0.2,0c-0.1,0-0.1,0-0.2,0c-0.5,0.1-1.2,0-1.8,0.1c-0.7,0-1.4,0-2,0
									c-1.4,0-2.8,0-4.3,0c-0.3,0-0.6,0-0.8,0c-0.7,0-1.5,0-2.2,0c-0.4,0-0.7,0-1.1,0c-0.3,0-0.6-0.1-0.9-0.1c-0.5,0-1,0-1.6,0
									c-2.1,0-4.1,0-6.2,0c-0.4,0-0.7,0-1,0c-0.3,0-0.5,0-0.8,0c-0.4,0-0.7,0-1,0c-0.4,0-0.8,0-1.2,0c-0.4,0-0.8,0-1.3,0
									c-0.2,0-0.3,0-0.5,0c-0.4,0-0.8,0-1.1,0c-0.7,0-1.4,0-2,0c-1.4,0-2.8,0-4.3,0c-0.3,0-0.6,0-0.8,0c-0.7,0-1.5,0-2.2,0
									c-0.4,0-0.7,0-1.1,0c-0.3,0-0.6-0.1-0.9-0.1c-0.5,0-1,0-1.6,0c-2.1,0-4.1,0-6.2,0c-0.4,0-0.7,0-1,0c-0.3,0-0.5,0-0.8,0
									c-0.4,0-0.7,0-1,0c-0.4,0-0.8,0-1.2,0c-0.4,0-0.8,0-1.3,0c-0.4,0-0.7,0-1-0.1c-0.3,0-0.7,0-1,0c-0.2,0-0.4-0.1-0.5-0.2
									c-0.3-0.1-0.4-0.3-0.5-0.5C166,556.1,166,556,166.1,556z"/>
							</g>
						</g>
					</g>
				</g>
				<g id="XMLID_2643_">
					<g id="XMLID_2644_">
						<g id="XMLID_2645_">
							<g id="XMLID_2646_">
								<path id="XMLID_2647_" class="st1" d="M217.3,556.2c-0.2-0.1-0.4-0.1-0.5-0.4c0-0.1-0.1-0.2-0.1-0.3v-0.5
									c0-0.2-0.1-0.4,0-0.5c0-0.1,0-0.3,0-0.4c0-0.4,0-0.8,0.1-1.2l0.1-0.5c0.1-0.1,0.1-0.4,0.2-0.5c0-0.1,0-0.3,0.1-0.4
									c0.2-0.3,0.2-0.7,0.4-1c0.2-0.3,0.3-0.5,0.4-0.8l0.2-0.4c0.1-0.1,0.2-0.2,0.2-0.3l0.1-0.2c0.2-0.3,0.3-0.5,0.5-0.7
									c0.2-0.3,0.4-0.5,0.6-0.8c0.3-0.3,0.5-0.5,0.8-0.8c0,0,0,0,0.1-0.1c0,0,0.1-0.1,0.1-0.1l0,0c0.1-0.1,0.2-0.2,0.3-0.2
									l0.5-0.5c0.1-0.1,0.1-0.1,0.2-0.1l0.3-0.2c0.1-0.1,0.3-0.2,0.4-0.3c0.1-0.1,0.3-0.1,0.4-0.2c0.1,0,0.1-0.1,0.2-0.1
									c0.1,0,0.1-0.1,0.2-0.1c0.4-0.1,0.7-0.4,1-0.4c0.3-0.1,0.6-0.2,0.9-0.3l0.5-0.1c0.1,0,0.2,0,0.4-0.1l0.2-0.1
									c0.3-0.1,0.6-0.2,0.8-0.2c0.3,0,0.7-0.1,1-0.1c0.4,0,0.7,0,1.1,0c0.1,0,0.2,0,0.3,0c0.1,0,0.2,0,0.3,0c0.2,0,0.5,0,0.7,0.1
									c0.5,0.1,0.8,0.3,1.3,0.3c0.3,0,0.5,0.1,0.7,0.2c0.1,0,0.2,0.1,0.2,0.1c0.1,0.1,0.1,0.2,0.2,0.3c0.1,0.2,0.1,0.4,0,0.5
									c-0.1,0.2-0.2,0.3-0.4,0.4c-0.1,0.1-0.3,0.1-0.5,0.1c-0.1,0-0.2,0-0.2-0.1c-0.2,0-0.3-0.1-0.4-0.1c-0.1,0-0.3-0.1-0.4-0.1
									c-0.4-0.1-0.8-0.2-1.2-0.2c-0.2,0-0.3,0-0.4,0c-0.2,0-0.3,0-0.5-0.1h-0.1l-0.1,0c-0.2,0.1-0.4,0.1-0.6,0.1l-0.6,0
									c-0.5,0-0.9,0.1-1.3,0.2c-0.1,0-0.2,0-0.3,0.1c-0.2,0.1-0.5,0.1-0.6,0.2c-0.1,0-0.2,0.1-0.3,0.1c-0.1,0-0.2,0-0.3,0.1
									c-0.2,0.1-0.3,0.2-0.5,0.2c-0.6,0.3-1.2,0.5-1.7,0.9c-0.1,0.1-0.2,0.1-0.3,0.2c-0.1,0-0.2,0.1-0.2,0.1
									c-0.1,0.1-0.2,0.2-0.2,0.2c-0.1,0.1-0.2,0.2-0.3,0.3c-0.1,0.1-0.2,0.2-0.3,0.3c0,0-0.1,0.1-0.1,0.1
									c-0.1,0.1-0.2,0.2-0.3,0.3l-0.4,0.5c-0.3,0.4-0.5,0.7-0.8,1.1c-0.1,0.1-0.1,0.2-0.1,0.2c-0.1,0.2-0.2,0.4-0.3,0.6
									c0,0.1-0.1,0.2-0.2,0.3c-0.1,0.1-0.1,0.2-0.2,0.3c-0.1,0.2-0.1,0.3-0.2,0.5c-0.2,0.6-0.4,1.2-0.5,1.9c0,0.1,0,0.2,0,0.3
									c0,0.1-0.1,0.2-0.1,0.3c0,0.1,0,0.2,0,0.3c0,0.1,0,0.3,0,0.4v0.4c0,0.1,0,0.2-0.1,0.3c0,0.1,0,0.2,0,0.3
									c0,0.1-0.1,0.1-0.2,0.2c-0.1,0.1-0.3,0.2-0.4,0.2C217.5,556.3,217.4,556.2,217.3,556.2z"/>
							</g>
						</g>
					</g>
				</g>
				<g id="XMLID_2638_">
					<g id="XMLID_2639_">
						<g id="XMLID_2640_">
							<g id="XMLID_2641_">
								<path id="XMLID_2642_" class="st1" d="M182.2,543.1c-0.2,0.2-0.4,0.2-0.8,0.1c-0.2,0-0.4-0.1-0.5-0.2
									c-0.3-0.1-0.5-0.3-0.7-0.4c-0.3-0.2-0.6-0.3-0.9-0.5c-0.2-0.1-0.4-0.3-0.5-0.4c-0.6-0.4-1.2-0.8-1.7-1.3
									c-0.2-0.2-0.5-0.4-0.7-0.6c-0.2-0.2-0.4-0.5-0.6-0.7c-0.2-0.2-0.4-0.3-0.5-0.5c-0.4-0.5-0.9-1.1-1.1-1.6
									c-0.3-0.5-0.5-0.9-0.8-1.5l-0.4-0.8l-0.2-0.6l-0.2-0.4c-0.2-0.5-0.4-1-0.5-1.6c-0.1-0.6-0.1-1.3,0-1.9
									c0.1-0.7,0.3-1.4,0.6-2l0.1-0.2l0.1-0.2l0-0.1c0.1-0.2,0.3-0.4,0.4-0.5c0.3-0.4,0.7-0.7,1.1-0.9c0.1-0.1,0.3-0.2,0.5-0.2
									c0.2-0.1,0.5-0.2,0.7-0.3c0.4-0.1,0.7-0.1,1.1-0.1c0.3,0,0.6,0.1,0.9,0.1c0.2,0,0.3,0,0.5,0.1c0.1,0,0.3,0,0.4,0.1
									c0.6,0.3,1.4,0.5,1.8,1c0.5,0.3,0.9,0.7,1.3,1.1c0.2,0.2,0.4,0.4,0.6,0.6c0.2,0.2,0.3,0.4,0.4,0.5l0.3,0.4
									c0.3,0.4,0.6,0.9,0.9,1.4c0.3,0.5,0.5,1.1,0.7,1.7c0.2,0.6,0.4,1.3,0.4,2c0,0.2,0.1,0.3,0.1,0.5c0,0.2,0,0.4,0.1,0.6
									c0,0.4,0,0.9,0,1.3c0,0.8-0.3,1.6-0.5,2.4c-0.1,0.5-0.2,0.9-0.4,1.3c-0.1,0.2-0.1,0.3-0.2,0.5c-0.1,0.1-0.3,0.3-0.4,0.4
									c-0.2,0.2-0.5,0.2-0.6,0.1c-0.2-0.1-0.2-0.4-0.3-0.6c-0.1-0.2,0-0.5,0.1-0.7c0-0.1,0.1-0.3,0.2-0.4c0.1-0.2,0.1-0.5,0.2-0.7
									c0.1-0.2,0.2-0.5,0.2-0.7c0.1-0.7,0.2-1.5,0.2-2.2c0-0.3-0.1-0.5-0.1-0.8c0-0.3,0-0.6-0.1-0.9l0-0.1c0,0,0-0.1,0-0.1
									c-0.1-0.3-0.2-0.7-0.3-1c-0.1-0.4-0.3-0.7-0.4-1.1c-0.3-0.8-0.7-1.5-1.2-2.2c-0.1-0.1-0.2-0.3-0.3-0.4
									c-0.3-0.3-0.5-0.6-0.9-0.9c-0.1-0.1-0.3-0.3-0.5-0.4c-0.1-0.1-0.2-0.3-0.4-0.4c-0.3-0.2-0.5-0.3-0.8-0.4
									c-1-0.5-2.2-0.7-3.1-0.3c-0.2,0.1-0.3,0.2-0.5,0.2c-0.1,0.1-0.3,0.1-0.4,0.2c-0.1,0.1-0.2,0.3-0.3,0.4
									c-0.1,0.2-0.2,0.4-0.3,0.5c-0.1,0.2-0.2,0.4-0.3,0.6l-0.1,0.2c0,0.2-0.1,0.4-0.1,0.6c-0.1,0.4-0.1,0.7-0.1,1.1
									c0,0.8,0.3,1.6,0.5,2.4c0.1,0.2,0.1,0.3,0.2,0.5c0.2,0.4,0.4,0.8,0.6,1.1c0.1,0.2,0.2,0.4,0.3,0.5c0.1,0.2,0.1,0.3,0.3,0.5
									l0.5,0.7c0.7,1,1.5,1.9,2.5,2.7c0.2,0.1,0.3,0.3,0.5,0.4c0.1,0.1,0.3,0.2,0.4,0.3c0.2,0.1,0.4,0.2,0.5,0.3
									c0.2,0.1,0.4,0.2,0.6,0.4l0.6,0.4c0.2,0.1,0.3,0.2,0.5,0.3c0.2,0.1,0.4,0.2,0.5,0.3c0.1,0.1,0.2,0.2,0.2,0.3
									c0.1,0.2,0.1,0.4,0.1,0.5C182.4,543,182.3,543.1,182.2,543.1z"/>
							</g>
						</g>
					</g>
				</g>
				<g id="XMLID_2633_">
					<g id="XMLID_2634_">
						<g id="XMLID_2635_">
							<g id="XMLID_2636_">
								<path id="XMLID_2637_" class="st1" d="M181.7,542.8c-0.1,0.3-0.2,0.4-0.6,0.6c-0.2,0.1-0.4,0.1-0.5,0.1
									c-0.3,0.1-0.5,0.1-0.8,0.1c-0.3,0-0.6,0.1-1,0.2c-0.2,0-0.5,0-0.7,0c-0.7,0-1.4,0-2.1,0c-0.3,0-0.6-0.1-0.9-0.1
									c-0.3,0-0.6-0.2-0.9-0.2c-0.2,0-0.5,0-0.7-0.1c-0.6-0.2-1.3-0.4-1.9-0.6c-0.5-0.2-1-0.5-1.5-0.7l-0.7-0.4l-0.5-0.4l-0.4-0.2
									c-0.5-0.3-0.9-0.6-1.3-1c-0.5-0.5-0.9-1-1.2-1.6c-0.4-0.6-0.6-1.3-0.7-2c0-0.1,0-0.1,0-0.2l0-0.3v-0.1c0-0.2,0-0.5,0-0.7
									c0-0.5,0.2-0.9,0.4-1.4c0.1-0.2,0.2-0.3,0.2-0.4c0.1-0.2,0.3-0.5,0.5-0.6c0.2-0.3,0.5-0.5,0.8-0.7c0.3-0.2,0.5-0.3,0.8-0.4
									c0.1-0.1,0.3-0.1,0.4-0.2c0.1-0.1,0.3-0.1,0.4-0.2c0.7-0.2,1.4-0.4,2.1-0.3c0.6,0,1.1,0.1,1.7,0.2c0.3,0,0.5,0.1,0.8,0.2
									c0.2,0.1,0.4,0.1,0.6,0.2l0.4,0.1c0.5,0.2,1,0.4,1.5,0.6c0.5,0.3,1.1,0.6,1.6,1c0.5,0.4,1.1,0.8,1.5,1.4
									c0.1,0.1,0.2,0.2,0.4,0.3c0.2,0.1,0.3,0.3,0.4,0.5c0.3,0.3,0.5,0.7,0.8,1c0.5,0.7,0.7,1.5,1.1,2.2c0.2,0.4,0.4,0.8,0.4,1.3
									c0,0.2,0.1,0.3,0.1,0.5c0,0.2-0.1,0.4-0.1,0.5c-0.1,0.3-0.3,0.5-0.5,0.4c-0.2,0-0.4-0.2-0.5-0.3c-0.2-0.2-0.3-0.4-0.3-0.7
									c0-0.1-0.1-0.3-0.1-0.4c-0.1-0.3-0.2-0.5-0.3-0.7c-0.1-0.2-0.1-0.5-0.3-0.7c-0.3-0.6-0.7-1.3-1.1-1.9
									c-0.2-0.2-0.4-0.4-0.5-0.6c-0.2-0.2-0.4-0.4-0.6-0.7l-0.1-0.1c0,0-0.1,0-0.1-0.1c-0.3-0.1-0.5-0.5-0.8-0.6
									c-0.3-0.3-0.6-0.5-1-0.7c-0.7-0.4-1.5-0.8-2.2-1.1c-0.2-0.1-0.3-0.1-0.5-0.1c-0.4-0.1-0.8-0.2-1.2-0.2c-0.2,0-0.4,0-0.6-0.1
									c-0.2,0-0.3-0.1-0.5-0.1c-0.3,0-0.6,0.1-0.9,0.1c-1.1,0.2-2.2,0.7-2.7,1.6c-0.1,0.2-0.1,0.3-0.2,0.5
									c-0.1,0.1-0.1,0.3-0.2,0.4c0,0.2,0,0.4,0,0.5c0,0.2,0,0.4,0,0.6c0,0.2,0.1,0.5,0.1,0.6c0,0.1,0,0.2,0.1,0.2
									c0.1,0.2,0.2,0.4,0.2,0.5c0.2,0.3,0.4,0.6,0.6,0.9c0.5,0.6,1.1,1.1,1.8,1.6c0.1,0.1,0.3,0.2,0.4,0.3
									c0.4,0.2,0.7,0.4,1.1,0.6c0.2,0.1,0.4,0.2,0.6,0.3c0.2,0.1,0.3,0.2,0.5,0.3l0.9,0.3c1.2,0.4,2.4,0.6,3.6,0.7
									c0.2,0,0.4,0,0.6,0c0.2,0,0.4,0,0.5,0c0.2,0,0.4,0,0.6-0.1c0.3,0,0.5,0,0.7-0.1l0.7-0.1c0.2,0,0.4,0,0.6,0
									c0.2,0,0.4-0.1,0.6-0.1c0.1,0,0.2,0.1,0.3,0.1c0.2,0.1,0.3,0.2,0.4,0.4C181.8,542.6,181.7,542.6,181.7,542.8z"/>
							</g>
						</g>
					</g>
				</g>
				<g id="XMLID_2628_">
					<g id="XMLID_2629_">
						<g id="XMLID_2630_">
							<g id="XMLID_2631_">
								<path id="XMLID_2632_" class="st1" d="M190.9,542.9c-0.1,0.2-0.1,0.3-0.2,0.4c0,0-0.1,0-0.1,0c-0.1,0-0.1,0-0.2,0
									c-0.1,0-0.1,0.1-0.2,0c0,0-0.1,0-0.1,0c-0.1,0-0.3,0-0.4,0c-0.1,0-0.1,0-0.2,0c-0.1,0-0.1-0.1-0.2-0.1s-0.1,0.1-0.1,0
									c-0.1-0.1-0.3,0-0.4-0.1c-0.1,0-0.2-0.1-0.3-0.1c-0.1,0-0.1,0-0.2,0c0,0-0.1,0-0.1,0c0,0-0.1,0-0.1,0c-0.1,0-0.2,0-0.3,0
									c-0.1,0-0.2,0-0.4-0.1c-0.1,0-0.3,0-0.4-0.1h0h0l0,0c0,0-0.1,0-0.1,0c-0.1,0-0.2,0-0.3,0c0,0-0.1,0-0.1,0c0,0-0.1,0-0.1,0
									c-0.1,0-0.1,0-0.2,0s-0.1,0-0.2-0.1c0,0-0.1,0-0.1,0s-0.1,0-0.1,0c-0.1-0.1-0.3,0-0.4-0.1c-0.1,0-0.2-0.1-0.3-0.1
									c-0.1,0-0.1,0-0.2,0c0,0-0.1,0-0.1,0c0,0-0.1,0-0.1,0c-0.1,0-0.2,0-0.3,0c-0.1,0-0.2,0-0.4-0.1c-0.1,0-0.3,0-0.4-0.1
									c0,0-0.1,0-0.1,0c0,0-0.1,0-0.1,0c-0.1,0-0.2,0-0.3,0c-0.2,0-0.3-0.2-0.5-0.1c-0.1,0-0.2,0-0.3,0c0,0-0.1,0-0.1,0
									c0,0-0.1-0.1-0.1-0.2c0-0.1-0.1-0.3,0-0.5c0-0.2,0.1-0.3,0.1-0.5c0.1-0.1,0.1-0.2,0.2-0.2s0.1,0,0.1,0c0.1,0,0.1,0,0.2,0
									c0.1,0,0.1,0,0.2,0c0.2,0,0.3,0,0.5,0.1c0.1,0,0.1,0,0.2,0c0.1,0,0.1,0,0.2,0.1c0,0,0,0,0,0c0,0,0,0,0,0
									c0.1-0.1,0.2,0,0.2,0c0.1,0,0.2,0,0.3,0c0.2,0,0.4,0,0.5,0.1c0,0,0.1,0,0.1,0c0.1,0,0.2,0,0.3,0c0,0,0.1,0,0.1,0
									c0,0,0.1,0.1,0.1,0.1c0.1,0,0.1,0,0.2,0c0.3,0,0.5,0.1,0.8,0.1c0,0,0.1,0,0.1,0c0,0,0.1,0,0.1,0s0.1,0,0.1,0
									c0.1,0,0.1,0,0.2,0c0.1,0,0.1,0,0.2,0c0,0,0,0,0.1,0c0.1,0,0.1,0,0.1,0c0.1,0,0.2,0,0.3,0c0.2,0,0.4,0,0.5,0.1
									c0,0,0.1,0,0.1,0c0.1,0,0.2,0,0.3,0c0,0,0.1,0,0.1,0c0,0,0.1,0.1,0.1,0.1c0.1,0,0.1,0,0.2,0c0.3,0,0.5,0.1,0.8,0.1
									c0,0,0.1,0,0.1,0c0,0,0.1,0,0.1,0s0.1,0,0.1,0c0.1,0,0.1,0,0.2,0c0.1,0,0.1,0,0.2,0c0.1,0,0.1,0,0.1,0.1c0,0,0.1,0,0.1,0
									c0,0,0,0.1,0,0.2c0,0.1,0,0.3,0,0.5C190.9,542.7,190.9,542.8,190.9,542.9z"/>
							</g>
						</g>
					</g>
				</g>
				<g id="XMLID_2623_">
					<g id="XMLID_2624_">
						<g id="XMLID_2625_">
							<g id="XMLID_2626_">
								<path id="XMLID_2627_" class="st1" d="M185.2,548.2c-0.1,0.2-0.1,0.3-0.2,0.4c0,0-0.1,0-0.1,0c-0.1,0-0.1,0-0.2,0
									c-0.1,0-0.2,0.1-0.3,0c-0.1,0-0.1,0-0.2,0c-0.2,0-0.4,0-0.5,0c-0.1,0-0.2,0-0.2,0c-0.1,0-0.2-0.1-0.2-0.1
									c-0.1,0-0.1,0.1-0.2,0c-0.2-0.1-0.3,0-0.5-0.1c-0.1,0-0.3,0-0.4-0.1c-0.1,0-0.1,0-0.2,0c-0.1,0-0.1,0-0.2,0c0,0-0.1,0-0.1,0
									c-0.1,0-0.3,0.1-0.4,0c-0.2,0-0.3,0-0.5,0c-0.2,0-0.3,0-0.5,0h0c0,0,0,0-0.1,0c0,0,0,0,0,0c-0.1,0-0.1,0-0.2,0
									c-0.1,0-0.2,0-0.3,0c0,0-0.1,0-0.1,0c-0.1,0-0.1,0-0.2,0c-0.1,0-0.2,0-0.2,0s-0.1,0-0.2-0.1c0,0-0.1,0-0.1,0s-0.1,0-0.1,0
									c-0.2-0.1-0.3,0-0.5-0.1c-0.1,0-0.3,0-0.4-0.1c-0.1,0-0.1,0-0.2,0c-0.1,0-0.1,0-0.2,0c0,0-0.1,0-0.1,0c-0.1,0-0.3,0.1-0.4,0
									c-0.2,0-0.3,0-0.5,0s-0.3,0-0.5,0c0,0-0.1,0-0.1,0c-0.1,0-0.1,0-0.2,0c-0.1,0-0.2,0-0.3,0c-0.2,0-0.4-0.1-0.6-0.1
									c-0.1,0-0.2,0-0.3,0c0,0-0.1,0-0.1,0c0,0-0.1-0.1-0.1-0.2c-0.1-0.1-0.1-0.3-0.1-0.5s0.1-0.3,0.1-0.5
									c0.1-0.1,0.1-0.2,0.2-0.2c0,0,0.1,0,0.1,0c0.1,0,0.1,0,0.2,0c0.1,0,0.1,0,0.2,0c0.2,0,0.4,0,0.6,0c0.1,0,0.2,0,0.2,0
									c0.1,0,0.2,0,0.3,0.1h0c0,0,0,0,0,0c0.1-0.1,0.2,0,0.3,0c0.1,0,0.2,0,0.3,0c0.2,0,0.5,0,0.7,0.1c0,0,0.1,0,0.1,0
									c0.1,0,0.2,0,0.4,0c0.1,0,0.1,0,0.2,0c0.1,0,0.1,0.1,0.2,0.1c0.1,0,0.2,0,0.3,0c0.3,0,0.7,0.1,1,0.1c0.1,0,0.1,0,0.2,0
									c0,0,0.1,0,0.1,0c0.1,0,0.1,0,0.2,0c0.1,0,0.1,0,0.2,0c0.1,0,0.1,0,0.2,0c0,0,0.1,0,0.1,0c0.1,0,0.1,0,0.2,0
									c0.1,0,0.2,0,0.3,0c0.2,0,0.5,0,0.7,0.1c0,0,0.1,0,0.1,0c0.1,0,0.2,0,0.4,0c0.1,0,0.1,0,0.2,0c0.1,0,0.1,0.1,0.2,0.1
									c0.1,0,0.2,0,0.3,0c0.3,0,0.7,0.1,1,0.1c0.1,0,0.1,0,0.2,0c0,0,0.1,0,0.1,0c0.1,0,0.1,0,0.2,0c0.1,0,0.1,0,0.2,0
									c0.1,0,0.1,0,0.2,0c0.1,0,0.1,0,0.2,0.1c0,0,0.1,0,0.2,0c0,0,0.1,0.1,0.1,0.2c0,0.1,0.1,0.3,0.1,0.5
									C185.2,548,185.2,548.1,185.2,548.2z"/>
							</g>
						</g>
					</g>
				</g>
				<g id="XMLID_2618_">
					<g id="XMLID_2619_">
						<g id="XMLID_2620_">
							<g id="XMLID_2621_">
								<path id="XMLID_2622_" class="st1" d="M278.7,555.6c0.2-0.3,0.4-0.4,1-0.6c0.3-0.1,0.5-0.1,0.8-0.2c0.4-0.1,0.8-0.1,1.2-0.2
									c0.5-0.1,1-0.2,1.5-0.3c0.3,0,0.7-0.1,1-0.1c1.1-0.2,2.1-0.4,3.2-0.5c0.5-0.1,0.9-0.2,1.4-0.2c0.5-0.1,0.9-0.1,1.4-0.2
									c0.4-0.1,0.7-0.2,1-0.2c1-0.1,2.1-0.4,3-0.4c0.8-0.1,1.7-0.2,2.5-0.3c0.4-0.1,0.8-0.1,1.3-0.2c0.4-0.1,0.7-0.1,1-0.1
									c0.2,0,0.5-0.1,0.6-0.1c0.8-0.1,1.6-0.3,2.4-0.4c0.9-0.1,1.9-0.3,2.8-0.4c1-0.2,2-0.3,3-0.4c0.1,0,0.2,0,0.3,0
									c0.1,0,0.2,0,0.4-0.1c0,0,0.1,0,0.1,0c0.3-0.1,0.6-0.1,0.9-0.1c0.6-0.1,1.3-0.2,1.9-0.3c0.2,0,0.4-0.1,0.6-0.1
									c0.3-0.1,0.7-0.1,1-0.2c0.5-0.1,0.9-0.2,1.4-0.2c0.4-0.1,0.8-0.1,1.2-0.1c0.2,0,0.4-0.1,0.6-0.1c0.2,0,0.4-0.1,0.6-0.1
									c1-0.1,2.1-0.4,3-0.4c0.8-0.1,1.7-0.2,2.5-0.3c0.4-0.1,0.8-0.1,1.3-0.2c0.4-0.1,0.7-0.1,1-0.1c0.2,0,0.5-0.1,0.6-0.1
									c0.8-0.1,1.6-0.3,2.4-0.4c0.9-0.1,1.9-0.3,2.8-0.4c1-0.2,2-0.3,3-0.4c0.3,0,0.5-0.1,0.7-0.1c0.3-0.1,0.6-0.1,0.9-0.1
									c0.6-0.1,1.3-0.2,1.9-0.3c1.2-0.2,2.5-0.2,3.7-0.5c0.7-0.1,1.3-0.3,2-0.3c0.3,0,0.5-0.1,0.7-0.1c0.3,0,0.5,0,0.7,0.1
									c0.5,0.1,0.7,0.2,0.6,0.4c0,0.2-0.3,0.4-0.6,0.6c-0.3,0.2-0.7,0.3-1.2,0.4c-0.2,0-0.5,0.1-0.7,0.1c-0.5,0.1-0.9,0.1-1.3,0.2
									c-0.4,0.1-0.8,0.1-1.3,0.2c-1.2,0.2-2.5,0.4-3.8,0.5c-0.5,0.1-0.9,0.2-1.4,0.2c-0.5,0.1-1,0.1-1.6,0.2c-0.1,0-0.1,0-0.2,0
									c-0.1,0-0.1,0-0.2,0c-0.5,0.2-1.2,0.2-1.8,0.3c-0.7,0.1-1.3,0.2-2,0.3c-1.4,0.2-2.8,0.4-4.2,0.6c-0.3,0-0.5,0.1-0.8,0.1
									c-0.7,0.1-1.4,0.2-2.1,0.3c-0.3,0.1-0.7,0.1-1.1,0.2c-0.3,0-0.6,0-0.9,0.1c-0.5,0.1-1,0.2-1.6,0.3c-2.1,0.3-4.1,0.5-6.1,0.9
									c-0.4,0.1-0.7,0.1-1,0.2c-0.3,0-0.5,0-0.8,0.1c-0.3,0-0.7,0.1-1,0.2c-0.4,0.1-0.8,0.1-1.2,0.2c-0.4,0.1-0.8,0.1-1.3,0.2
									c-0.2,0-0.3,0-0.5,0.1c-0.4,0.1-0.8,0.1-1.1,0.2c-0.7,0.1-1.3,0.2-2,0.3c-1.4,0.2-2.8,0.4-4.2,0.6c-0.3,0-0.5,0.1-0.8,0.1
									c-0.7,0.1-1.4,0.2-2.1,0.3c-0.4,0.1-0.7,0.1-1.1,0.2c-0.3,0-0.6,0-0.9,0.1c-0.5,0.1-1,0.2-1.6,0.3c-2.1,0.3-4.1,0.5-6.1,0.9
									c-0.4,0.1-0.7,0.1-1,0.2c-0.3,0-0.5,0-0.8,0.1c-0.3,0-0.7,0.1-1,0.2c-0.4,0.1-0.8,0.1-1.2,0.2c-0.4,0.1-0.8,0.1-1.3,0.2
									c-0.4,0.1-0.6,0.1-1,0.1c-0.3,0-0.7,0.1-1,0.1c-0.2,0-0.4-0.1-0.5-0.1c-0.3-0.1-0.5-0.2-0.5-0.4
									C278.5,555.8,278.6,555.7,278.7,555.6z"/>
							</g>
						</g>
					</g>
				</g>
				<g id="XMLID_2613_">
					<g id="XMLID_2614_">
						<g id="XMLID_2615_">
							<g id="XMLID_2616_">
								<path id="XMLID_2617_" class="st1" d="M329.3,548.4c-0.2,0-0.4-0.1-0.5-0.3c-0.1-0.1-0.1-0.2-0.1-0.3l-0.1-0.5
									c0-0.2-0.1-0.4-0.1-0.5c0-0.1,0-0.3,0-0.4c0-0.4-0.1-0.8,0-1.2l0-0.5c0-0.1,0.1-0.4,0.1-0.5c0-0.1,0-0.3,0-0.4
									c0.1-0.4,0.1-0.7,0.3-1.1c0.1-0.3,0.2-0.6,0.3-0.8l0.2-0.4c0-0.1,0.1-0.2,0.2-0.3l0.1-0.2c0.1-0.3,0.2-0.6,0.3-0.8
									c0.2-0.3,0.3-0.6,0.5-0.9c0.2-0.3,0.4-0.6,0.6-0.9c0,0,0,0,0.1-0.1c0,0,0.1-0.1,0.1-0.1l0,0c0.1-0.1,0.1-0.2,0.2-0.3
									l0.5-0.5c0.1-0.1,0.1-0.1,0.2-0.2l0.3-0.3c0.1-0.1,0.3-0.2,0.4-0.3c0.1-0.1,0.3-0.2,0.4-0.3c0.1-0.1,0.1-0.1,0.2-0.2
									s0.1-0.1,0.2-0.1c0.3-0.2,0.6-0.5,1-0.5c0.3-0.1,0.5-0.3,0.8-0.4l0.4-0.2c0.1-0.1,0.2-0.1,0.4-0.1l0.2-0.1
									c0.3-0.1,0.5-0.3,0.8-0.3c0.3-0.1,0.6-0.2,1-0.2c0.4-0.1,0.7-0.1,1.1-0.1c0.1,0,0.2,0,0.3-0.1c0.1,0,0.2,0,0.3,0
									c0.2,0,0.5,0,0.7,0c0.5,0,0.9,0.2,1.3,0.1c0.3,0,0.5,0,0.7,0.1c0.1,0,0.2,0,0.3,0.1c0.1,0.1,0.2,0.2,0.2,0.2
									c0.1,0.2,0.1,0.4,0.1,0.5c-0.1,0.2-0.2,0.3-0.3,0.4s-0.3,0.1-0.4,0.1c-0.1,0-0.2,0-0.2,0c-0.2,0-0.3,0-0.4,0
									c-0.1,0-0.3-0.1-0.4-0.1c-0.4,0-0.8-0.1-1.2-0.1c-0.2,0-0.3,0.1-0.4,0.1c-0.2,0-0.3,0-0.5,0h-0.1l-0.1,0
									c-0.2,0.1-0.4,0.1-0.5,0.1l-0.6,0.1c-0.5,0.1-0.9,0.2-1.3,0.4c-0.1,0-0.2,0.1-0.3,0.1c-0.2,0.1-0.4,0.2-0.6,0.3
									c-0.1,0.1-0.2,0.1-0.3,0.2c-0.1,0-0.2,0-0.3,0.1c-0.1,0.1-0.3,0.2-0.4,0.3c-0.5,0.4-1.1,0.7-1.6,1.2
									c-0.1,0.1-0.1,0.1-0.2,0.2c-0.1,0.1-0.2,0.1-0.2,0.2c-0.1,0.1-0.1,0.2-0.2,0.3c-0.1,0.1-0.1,0.2-0.2,0.3
									c-0.1,0.1-0.2,0.2-0.3,0.3c0,0-0.1,0.1-0.1,0.1c-0.1,0.1-0.1,0.2-0.2,0.3l-0.3,0.5c-0.2,0.4-0.4,0.8-0.6,1.2
									c0,0.1-0.1,0.2-0.1,0.3c-0.1,0.2-0.1,0.5-0.2,0.6c0,0.1-0.1,0.2-0.1,0.3c-0.1,0.1-0.1,0.2-0.1,0.3c0,0.2-0.1,0.3-0.1,0.5
									c-0.1,0.6-0.3,1.3-0.2,1.9c0,0.1,0,0.2,0,0.3c0,0.1,0,0.2,0,0.3c0,0.1,0,0.2,0.1,0.3c0,0.1,0,0.3,0,0.4l0.1,0.4
									c0,0.1,0,0.2,0,0.3c0,0.1,0.1,0.2,0,0.3c0,0.1-0.1,0.1-0.1,0.2c-0.1,0.1-0.3,0.2-0.4,0.3
									C329.5,548.4,329.4,548.4,329.3,548.4z"/>
							</g>
						</g>
					</g>
				</g>
				<g id="XMLID_2608_">
					<g id="XMLID_2609_">
						<g id="XMLID_2610_">
							<g id="XMLID_2611_">
								<path id="XMLID_2612_" class="st1" d="M292.7,540.6c-0.2,0.2-0.4,0.3-0.8,0.2c-0.2,0-0.4-0.1-0.5-0.1
									c-0.3-0.1-0.5-0.2-0.8-0.3c-0.3-0.1-0.6-0.2-1-0.3c-0.2-0.1-0.4-0.2-0.6-0.3c-0.6-0.3-1.3-0.6-1.8-1
									c-0.3-0.2-0.5-0.3-0.8-0.5c-0.3-0.2-0.5-0.4-0.7-0.6c-0.2-0.1-0.4-0.3-0.5-0.4c-0.5-0.5-1-0.9-1.4-1.5
									c-0.3-0.4-0.7-0.9-1-1.3l-0.5-0.7l-0.3-0.6l-0.2-0.4c-0.3-0.5-0.5-1-0.7-1.5c-0.2-0.6-0.3-1.3-0.3-1.9
									c0-0.7,0.1-1.5,0.4-2.1l0.1-0.2l0.1-0.2l0-0.1c0.1-0.2,0.2-0.4,0.3-0.6c0.3-0.4,0.6-0.8,1-1.1c0.1-0.1,0.3-0.2,0.4-0.3
									c0.2-0.1,0.5-0.3,0.7-0.4c0.3-0.1,0.7-0.2,1-0.3c0.3,0,0.6,0,0.9,0c0.2,0,0.3,0,0.5,0c0.1,0,0.3,0,0.4,0
									c0.7,0.2,1.4,0.3,2,0.7c0.5,0.3,1,0.6,1.4,0.9c0.2,0.2,0.5,0.4,0.7,0.5c0.2,0.2,0.3,0.3,0.5,0.5l0.3,0.3
									c0.4,0.4,0.8,0.8,1.1,1.2c0.4,0.5,0.7,1.1,0.9,1.6c0.3,0.6,0.5,1.2,0.7,1.9c0,0.2,0.1,0.3,0.2,0.5c0.1,0.2,0.1,0.4,0.1,0.6
									c0.1,0.4,0.2,0.8,0.2,1.3c0.1,0.8-0.1,1.6-0.1,2.5c0,0.5-0.1,0.9-0.2,1.4c-0.1,0.2-0.1,0.3-0.2,0.5
									c-0.1,0.2-0.2,0.3-0.3,0.4c-0.2,0.2-0.4,0.3-0.6,0.2c-0.2-0.1-0.2-0.3-0.3-0.5c-0.1-0.2,0-0.5,0-0.7c0-0.1,0.1-0.3,0.1-0.4
									c0.1-0.3,0.1-0.5,0.1-0.8s0.1-0.5,0.1-0.7c0-0.7,0-1.5-0.1-2.2c-0.1-0.3-0.1-0.5-0.2-0.8c-0.1-0.3-0.1-0.5-0.2-0.9l0-0.1
									c0,0,0-0.1-0.1-0.1c-0.2-0.3-0.3-0.7-0.5-0.9c-0.2-0.4-0.4-0.7-0.5-1c-0.4-0.7-0.9-1.4-1.5-2c-0.1-0.1-0.2-0.2-0.4-0.3
									c-0.3-0.3-0.6-0.5-1-0.7c-0.2-0.1-0.3-0.2-0.5-0.3c-0.2-0.1-0.3-0.2-0.5-0.3c-0.3-0.1-0.5-0.2-0.8-0.3
									c-1.1-0.4-2.3-0.4-3.1,0.1c-0.1,0.1-0.3,0.2-0.4,0.3c-0.1,0.1-0.2,0.2-0.3,0.3c-0.1,0.1-0.2,0.3-0.3,0.5
									c-0.1,0.2-0.2,0.4-0.3,0.5c-0.1,0.2-0.1,0.4-0.2,0.6l-0.1,0.2c0,0.2,0,0.4,0,0.6c0,0.4,0,0.7,0.1,1.1
									c0.2,0.8,0.5,1.5,0.8,2.3c0.1,0.2,0.2,0.3,0.3,0.4c0.3,0.4,0.5,0.7,0.7,1c0.1,0.2,0.3,0.3,0.4,0.5c0.1,0.2,0.2,0.3,0.3,0.5
									l0.6,0.6c0.9,0.9,1.8,1.7,2.9,2.3c0.2,0.1,0.4,0.2,0.5,0.3c0.1,0.1,0.3,0.2,0.4,0.3c0.2,0.1,0.4,0.2,0.5,0.2
									c0.2,0.1,0.5,0.2,0.6,0.3l0.7,0.3c0.2,0.1,0.4,0.2,0.6,0.3c0.2,0.1,0.4,0.1,0.5,0.2c0.1,0.1,0.2,0.2,0.2,0.2
									c0.1,0.2,0.2,0.3,0.2,0.5C292.8,540.5,292.8,540.5,292.7,540.6z"/>
							</g>
						</g>
					</g>
				</g>
				<g id="XMLID_2603_">
					<g id="XMLID_2604_">
						<g id="XMLID_2605_">
							<g id="XMLID_2606_">
								<path id="XMLID_2607_" class="st1" d="M292.1,540.3c0,0.3-0.2,0.4-0.5,0.6c-0.2,0.1-0.4,0.2-0.5,0.2
									c-0.3,0.1-0.5,0.2-0.8,0.2c-0.3,0.1-0.6,0.2-1,0.3c-0.2,0-0.5,0.1-0.6,0.1c-0.7,0.1-1.4,0.3-2.1,0.3c-0.3,0-0.6,0-0.9,0
									c-0.3,0-0.6-0.1-0.9-0.1c-0.2,0-0.5,0-0.7,0c-0.6-0.1-1.4-0.2-1.9-0.4c-0.5-0.2-1-0.3-1.6-0.5l-0.8-0.3l-0.6-0.3l-0.4-0.2
									c-0.5-0.2-1-0.5-1.4-0.8c-0.5-0.4-1-0.8-1.4-1.4c-0.5-0.6-0.8-1.2-1-1.9c0-0.1,0-0.1-0.1-0.2l-0.1-0.2l0-0.1
									c-0.1-0.2-0.1-0.5-0.1-0.7c0-0.5,0-1,0.1-1.4c0-0.2,0.1-0.3,0.2-0.5c0.1-0.2,0.2-0.5,0.4-0.7c0.2-0.3,0.4-0.6,0.7-0.8
									c0.2-0.2,0.5-0.4,0.7-0.5c0.1-0.1,0.3-0.2,0.4-0.3c0.1-0.1,0.2-0.2,0.4-0.2c0.7-0.3,1.4-0.5,2-0.6c0.5-0.1,1.1-0.1,1.7-0.1
									c0.3,0,0.6,0,0.9,0c0.2,0,0.5,0.1,0.7,0.1l0.4,0.1c0.5,0.1,1.1,0.2,1.6,0.4c0.6,0.2,1.2,0.5,1.7,0.8
									c0.6,0.3,1.2,0.7,1.7,1.1c0.1,0.1,0.3,0.2,0.4,0.3c0.2,0.1,0.3,0.3,0.5,0.4c0.3,0.3,0.6,0.6,0.9,0.9c0.5,0.6,0.9,1.4,1.4,2
									c0.3,0.4,0.5,0.8,0.6,1.2c0.1,0.2,0.1,0.3,0.2,0.5c0,0.2,0,0.4,0,0.5c0,0.3-0.2,0.5-0.4,0.5s-0.4-0.1-0.6-0.3
									c-0.2-0.1-0.3-0.4-0.4-0.6c-0.1-0.1-0.1-0.3-0.2-0.4c-0.1-0.2-0.3-0.5-0.4-0.7c-0.1-0.2-0.2-0.4-0.4-0.6
									c-0.4-0.6-0.8-1.2-1.4-1.7c-0.2-0.2-0.4-0.3-0.6-0.5c-0.2-0.2-0.4-0.4-0.7-0.6l-0.1-0.1c0,0-0.1,0-0.1,0
									c-0.3-0.1-0.6-0.4-0.9-0.5c-0.3-0.2-0.7-0.4-1.1-0.5c-0.8-0.3-1.6-0.6-2.4-0.7c-0.2,0-0.3-0.1-0.5-0.1c-0.4,0-0.8,0-1.2,0
									c-0.2,0-0.4,0-0.6,0c-0.2,0-0.3,0-0.5,0c-0.3,0.1-0.6,0.2-0.8,0.2c-1.1,0.3-2.1,1-2.5,1.9c-0.1,0.2-0.1,0.3-0.2,0.5
									c0,0.1-0.1,0.3-0.1,0.4c0,0.2,0,0.4,0,0.5c0,0.2,0.1,0.4,0.1,0.6c0.1,0.2,0.1,0.4,0.2,0.6c0,0.1,0.1,0.2,0.1,0.2
									c0.1,0.2,0.2,0.4,0.3,0.5c0.2,0.3,0.5,0.5,0.7,0.8c0.6,0.5,1.3,1,2,1.4c0.2,0.1,0.3,0.1,0.5,0.2c0.4,0.1,0.8,0.3,1.2,0.4
									c0.2,0.1,0.4,0.1,0.6,0.2c0.2,0.1,0.3,0.1,0.5,0.2l0.9,0.2c1.2,0.2,2.4,0.3,3.7,0.2c0.2,0,0.4,0,0.6-0.1c0.2,0,0.4,0,0.5,0
									c0.2,0,0.4-0.1,0.6-0.1c0.3-0.1,0.5-0.1,0.7-0.2l0.7-0.2c0.2,0,0.4-0.1,0.6-0.1c0.2,0,0.4-0.2,0.5-0.2c0.1,0,0.2,0,0.3,0.1
									c0.2,0.1,0.4,0.2,0.4,0.3C292.2,540.1,292.1,540.2,292.1,540.3z"/>
							</g>
						</g>
					</g>
				</g>
				<g id="XMLID_2598_">
					<g id="XMLID_2599_">
						<g id="XMLID_2600_">
							<g id="XMLID_2601_">
								<path id="XMLID_2602_" class="st1" d="M301.2,539.1c0,0.2,0,0.3-0.1,0.4c0,0-0.1,0-0.1,0c-0.1,0-0.1,0-0.2,0
									c-0.1,0-0.1,0.1-0.2,0.1c0,0-0.1,0-0.1,0c-0.1,0-0.3,0.1-0.4,0.1c-0.1,0-0.1,0-0.2,0c-0.1,0-0.1,0-0.2,0c0,0-0.1,0.1-0.1,0
									c-0.1,0-0.3,0.1-0.4,0c-0.1,0-0.2,0-0.3,0c-0.1,0-0.1,0-0.2,0c0,0-0.1,0-0.1,0c0,0-0.1,0-0.1,0c-0.1,0-0.2,0.1-0.3,0.1
									c-0.1,0-0.2,0-0.4,0s-0.3,0-0.4,0h0c0,0,0,0,0,0l0,0c0,0-0.1,0-0.1,0c-0.1,0-0.2,0-0.3,0c0,0-0.1,0-0.1,0s-0.1,0-0.1,0
									c-0.1,0-0.1,0-0.2,0s-0.1,0-0.2,0c0,0-0.1,0-0.1,0c0,0-0.1,0-0.1,0c-0.1,0-0.3,0.1-0.4,0c-0.1,0-0.2,0-0.3,0
									c-0.1,0-0.1,0-0.2,0c0,0-0.1,0-0.1,0c0,0-0.1,0-0.1,0c-0.1,0-0.2,0.1-0.3,0.1c-0.1,0-0.2,0-0.4,0s-0.3,0-0.4,0
									c0,0-0.1,0-0.1,0s-0.1,0-0.1,0c-0.1,0-0.2,0-0.3,0c-0.2,0-0.3-0.1-0.5,0c-0.1,0-0.2,0.1-0.3,0c0,0-0.1,0-0.1,0
									c0,0-0.1-0.1-0.1-0.2c-0.1-0.1-0.1-0.3-0.1-0.5c0-0.2,0-0.3,0.1-0.5c0-0.1,0.1-0.2,0.2-0.2c0,0,0.1,0,0.1,0
									c0.1,0,0.1,0,0.2,0c0.1,0,0.1,0,0.2,0c0.2-0.1,0.3,0,0.5,0c0.1,0,0.1-0.1,0.2-0.1c0.1,0,0.1,0,0.2,0c0,0,0,0,0,0
									c0,0,0,0,0,0c0.1-0.1,0.2-0.1,0.2-0.1c0.1,0,0.2,0,0.3,0c0.2,0,0.4,0,0.5,0c0,0,0.1,0,0.1,0c0.1,0,0.2,0,0.3,0
									c0,0,0.1,0,0.1,0c0,0,0.1,0.1,0.1,0c0.1,0,0.1,0,0.2,0c0.3,0,0.5,0,0.8,0c0,0,0.1,0,0.1,0c0,0,0.1,0,0.1,0s0.1,0,0.1,0
									c0.1,0,0.1,0,0.2,0c0.1,0,0.1,0,0.2,0c0,0,0,0,0.1,0s0.1,0,0.1,0c0.1,0,0.2,0,0.3,0c0.2,0,0.4,0,0.5,0c0,0,0.1,0,0.1,0
									c0.1,0,0.2,0,0.3,0c0,0,0.1,0,0.1,0c0,0,0.1,0.1,0.1,0c0.1,0,0.1,0,0.2,0c0.3,0,0.5,0,0.8,0c0,0,0.1,0,0.1,0
									c0,0,0.1,0,0.1,0s0.1,0,0.1,0c0.1,0,0.1,0,0.2,0c0.1,0,0.1,0,0.2,0c0.1,0,0.1,0,0.1,0.1c0,0,0.1,0,0.1,0
									c0,0,0.1,0.1,0.1,0.2c0,0.1,0.1,0.3,0.1,0.5C301.2,538.9,301.2,539,301.2,539.1z"/>
							</g>
						</g>
					</g>
				</g>
				<g id="XMLID_2593_">
					<g id="XMLID_2594_">
						<g id="XMLID_2595_">
							<g id="XMLID_2596_">
								<path id="XMLID_2597_" class="st1" d="M296.3,545.2c0,0.2,0,0.3-0.1,0.4c0,0-0.1,0-0.1,0c-0.1,0-0.1,0-0.2,0
									c-0.1,0-0.2,0.1-0.3,0.1c-0.1,0-0.1,0-0.2,0c-0.2,0-0.4,0.1-0.5,0.1c-0.1,0-0.2,0-0.2,0s-0.2,0-0.2,0s-0.1,0.1-0.2,0.1
									c-0.2,0-0.3,0.1-0.5,0c-0.1,0-0.3,0-0.4,0c-0.1,0-0.1,0-0.2,0s-0.1,0-0.2,0c0,0-0.1,0-0.1,0c-0.1,0-0.3,0.1-0.4,0.1
									c-0.2,0-0.3,0-0.5,0c-0.2,0-0.3,0.1-0.5,0h0c0,0,0,0-0.1,0c0,0,0,0,0,0c0,0-0.1,0-0.2,0c-0.1,0-0.2,0-0.3,0c0,0-0.1,0-0.1,0
									c-0.1,0-0.1,0-0.2,0c-0.1,0-0.2,0-0.2,0s-0.1,0-0.2,0c0,0-0.1,0-0.1,0c0,0-0.1,0-0.1,0c-0.2,0-0.3,0.1-0.5,0
									c-0.1,0-0.3,0-0.4,0c-0.1,0-0.1,0-0.2,0s-0.1,0-0.2,0c0,0-0.1,0-0.1,0c-0.1,0-0.3,0.1-0.4,0.1c-0.2,0-0.3,0-0.5,0
									c-0.2,0-0.3,0.1-0.5,0c0,0-0.1,0-0.1,0c0,0-0.1,0-0.2,0c-0.1,0-0.2,0-0.3,0c-0.2,0-0.4-0.1-0.6,0c-0.1,0.1-0.2,0.1-0.3,0.1
									c0,0-0.1,0-0.1,0c0,0-0.1-0.1-0.1-0.2c-0.1-0.1-0.1-0.3-0.1-0.5s0-0.3,0.1-0.5s0.1-0.2,0.2-0.2c0,0,0.1,0,0.1,0
									c0.1,0,0.1,0,0.2,0c0.1,0,0.1,0,0.2,0c0.2-0.1,0.4,0,0.6,0c0.1,0,0.1-0.1,0.2-0.1c0.1,0,0.2,0,0.3,0h0c0,0,0,0,0,0
									c0.1-0.1,0.2-0.1,0.3-0.1c0.1,0,0.2,0,0.3,0c0.2,0,0.5,0,0.7,0c0,0,0.1,0,0.1,0c0.1,0,0.2,0,0.4-0.1c0.1,0,0.1,0,0.2,0
									c0.1,0,0.1,0,0.2,0c0.1,0,0.2,0,0.3-0.1c0.3,0,0.7,0,1-0.1c0.1,0,0.1,0,0.2,0c0,0,0.1,0,0.1,0c0.1,0,0.1,0,0.2-0.1
									c0.1,0,0.1,0,0.2,0s0.1,0,0.2,0c0,0,0.1,0,0.1,0c0.1,0,0.1,0,0.2,0c0.1,0,0.2,0,0.3,0c0.2,0,0.5,0,0.7,0c0,0,0.1,0,0.1,0
									c0.1,0,0.2,0,0.4-0.1c0.1,0,0.1,0,0.2,0c0.1,0,0.1,0,0.2,0c0.1,0,0.2,0,0.3-0.1c0.3,0,0.7,0,1-0.1c0.1,0,0.1,0,0.2,0
									c0,0,0.1,0,0.1,0c0.1,0,0.1,0,0.2-0.1c0.1,0,0.1,0,0.2,0s0.1,0,0.2,0c0.1,0,0.1,0,0.2,0c0.1,0,0.1,0,0.2,0
									c0,0,0.1,0.1,0.1,0.2c0.1,0.1,0.1,0.3,0.1,0.4C296.4,545,296.3,545.1,296.3,545.2z"/>
							</g>
						</g>
					</g>
				</g>
			</g>
			<g>
				<g>
					<path class="st7" d="M249.9,172.7l-1.8,17.2l-2.3,22l-3,28.5l-1.9,18.2c-0.2,1.6-1.6,2.9-3.2,2.8l-134.3-5.4
						c-1.6-0.1-3-1.4-3-3l-0.2-8.8l-0.5-21.3L98.7,195l-0.5-21.3l-0.2-7.1L249.9,172.7z"/>
					<path class="st7" d="M254.3,174.6l-160.8-6.5l0.2-4c0.1-2.6,2.3-4.7,4.9-4.5l151.4,6.1c2.6,0.1,4.7,2.3,4.5,4.9L254.3,174.6z"
						/>
				</g>
			</g>
			<g>
				<g id="XMLID_2589_">
					<g id="XMLID_2590_">
						<g id="XMLID_2591_">
							<path id="XMLID_2592_" class="st3" d="M247,203.6l-31.3,18.1l-31.1,21.6c-4.8,3.4-5.9,10.1-2.5,14.9c3.2,4.6,9.5,5.8,14.2,3
								l73.6-44.3C269.8,216.9,251.7,200.2,247,203.6z"/>
						</g>
					</g>
				</g>
				<g id="XMLID_2585_">
					<g id="XMLID_2586_">
						<g id="XMLID_2587_">
							<path id="XMLID_2588_" class="st3" d="M193,241.4c-0.7-0.7-0.8-0.7-1.2-0.9c-0.3-0.2-0.5-0.4-0.8-0.5c-0.5-0.3-1-0.5-1.4-0.7
								c-0.9-0.4-1.7-0.7-2.6-0.9c-1.7-0.5-3.3-0.8-4.9-1c-3.1-0.4-6.2-0.5-9.2-0.4c-2.2,0-3.9,1.8-3.8,4c0,1.8,1.3,3.4,3,3.8l0.1,0
								c2.6,0.6,5.2,1.3,7.5,2.2c1.2,0.5,2.2,1,3.2,1.5c0.5,0.3,0.9,0.6,1.2,0.8c0.2,0.1,0.3,0.3,0.4,0.4c0.1,0.1,0.1,0.1,0.1,0.1
								c-0.1,0,0.1,0.2-0.4-0.3c2.3,2.4,6.1,2.5,8.5,0.2C195.1,247.6,195.2,243.8,193,241.4z"/>
						</g>
					</g>
				</g>
				<g id="XMLID_2581_">
					<g id="XMLID_2582_">
						<g id="XMLID_2583_">
							<path id="XMLID_2584_" class="st3" d="M196,261.3c-1.9,1.3-3.7,2.3-5.6,3.3c-1.9,1-3.8,2-5.7,2.9c-3.9,1.8-8,3.3-12.6,4.1
								c-2.2,0.4-4.2-1.1-4.6-3.3c-0.3-2,0.9-3.9,2.7-4.5l0.2-0.1c3.2-1,6.5-2.8,9.7-4.8c1.6-1,3.1-2.1,4.7-3.2
								c1.5-1.1,3.1-2.4,4.4-3.5c2.4-2.1,6-1.8,8.1,0.5c2.1,2.4,1.8,6-0.5,8.1C196.5,261,196.2,261.1,196,261.3z"/>
						</g>
					</g>
				</g>
				<g id="XMLID_2577_">
					<g id="XMLID_2578_">
						<g id="XMLID_2579_">
							<path id="XMLID_2580_" class="st3" d="M194.1,256.6c-2,1.1-3.9,2.1-6,3c-2,0.9-4,1.8-6.1,2.7c-2.1,0.8-4.3,1.6-6.6,2.1
								c-1.2,0.3-2.4,0.5-3.8,0.7c-0.6,0.1-1.5,0.1-2.2,0.1c-0.7,0-1.7-0.2-2.5-0.4c-2.1-0.4-3.5-2.4-3.1-4.5c0.3-1.7,1.8-3,3.5-3.1
								l1.4-0.1c0.5,0,2.3-0.4,3.9-1.2c1.6-0.7,3.4-1.6,5-2.6c1.7-1,3.4-2.1,5-3.2c1.6-1.1,3.3-2.3,4.8-3.5c2.6-2,6.3-1.5,8.3,1.1
								c2,2.6,1.6,6.3-1.1,8.3C194.6,256.3,194.4,256.4,194.1,256.6z"/>
						</g>
					</g>
				</g>
				<g id="XMLID_2573_">
					<g id="XMLID_2574_">
						<g id="XMLID_2575_">
							<path id="XMLID_2576_" class="st3" d="M199,247.6c-2.8,1.5-5.4,2.6-8.2,3.7c-2.7,1.1-5.5,2.1-8.3,3c-5.6,1.7-11.5,3-17.6,3.4
								c-2.2,0.1-4.1-1.5-4.3-3.8c-0.1-2,1.3-3.8,3.3-4.2l0.1,0c5.1-0.9,10.1-2.6,15-4.8c2.4-1.1,4.8-2.3,7.2-3.5
								c2.3-1.3,4.7-2.7,6.7-4l0.1,0c2.7-1.8,6.4-1.1,8.2,1.6c1.8,2.7,1.1,6.4-1.6,8.2C199.4,247.4,199.2,247.5,199,247.6z"/>
						</g>
					</g>
				</g>
			</g>
			<g id="XMLID_2571_">
				<path id="XMLID_2572_" class="st4" d="M208.1,227l16.7,17.1l48.2-27.3c2-1.5,3.7-3.5,4.7-6l0.4-1.1l35.7-87
					c-3.8,13.1,0.3-0.8,0.4-1.2c0,0-2.3-21.7-12.4-25.1c-10.1-3.4-22.2,3.4-25.6,13.4l-27.2,84.8L208.1,227z"/>
			</g>
			<line class="st8" x1="100.6" y1="168.4" x2="240.4" y2="174"/>
			<path class="st8" d="M102.9,229.6l0.9,21.5c0,1,0.9,1.8,1.9,1.9l36.3,1.4"/>
		</g>
		<g>
			<path class="st1" d="M199.8,128v2.1c1.4,0.1,2.6,0.4,3.6,0.9c1,0.4,1.9,1.1,2.6,2c0.6,0.7,1.1,1.4,1.4,2.1c0.3,0.7,0.5,1.4,0.5,2
				c0,0.7-0.2,1.2-0.7,1.7c-0.5,0.5-1.1,0.7-1.8,0.7c-1.3,0-2.1-0.7-2.5-2.1c-0.4-1.7-1.5-2.8-3.2-3.3v8.3c1.6,0.4,2.9,0.9,3.9,1.2
				c1,0.4,1.8,0.9,2.6,1.6c0.8,0.7,1.4,1.6,1.9,2.6c0.4,1,0.7,2.1,0.7,3.3c0,1.5-0.4,2.9-1.1,4.2c-0.7,1.3-1.7,2.4-3.1,3.2
				c-1.4,0.8-3,1.3-4.9,1.5v4.9c0,0.8-0.1,1.3-0.2,1.7c-0.2,0.4-0.5,0.5-1,0.5c-0.5,0-0.8-0.1-1-0.4c-0.2-0.3-0.3-0.7-0.3-1.3V160
				c-1.5-0.2-2.9-0.5-4.1-1.1c-1.2-0.6-2.1-1.2-2.9-2.1c-0.8-0.8-1.3-1.7-1.7-2.6c-0.4-0.9-0.6-1.8-0.6-2.6c0-0.6,0.2-1.2,0.7-1.7
				c0.5-0.5,1.1-0.8,1.9-0.8c0.6,0,1.1,0.1,1.5,0.4c0.4,0.3,0.7,0.7,0.9,1.2c0.4,1.1,0.7,1.9,0.9,2.5c0.3,0.6,0.7,1.1,1.2,1.6
				c0.5,0.5,1.2,0.8,2.1,1.1v-9.2c-1.8-0.5-3.3-1-4.4-1.6c-1.2-0.6-2.2-1.5-2.9-2.6c-0.7-1.1-1.1-2.5-1.1-4.3c0-2.3,0.7-4.1,2.2-5.6
				c1.4-1.5,3.5-2.3,6.3-2.5V128c0-1.1,0.4-1.7,1.3-1.7C199.3,126.3,199.8,126.9,199.8,128z M197.2,141.6V134
				c-1.1,0.3-2,0.8-2.6,1.3c-0.6,0.5-0.9,1.4-0.9,2.5c0,1,0.3,1.8,0.9,2.4C195.2,140.6,196,141.1,197.2,141.6z M199.8,147.5v8.7
				c1.3-0.3,2.4-0.8,3.1-1.6c0.7-0.8,1.1-1.7,1.1-2.8c0-1.2-0.4-2-1.1-2.7C202.2,148.4,201.1,147.9,199.8,147.5z"/>
		</g>
	</g>
</g>
</svg>
