<?xml version="1.0" encoding="utf-8"?>
<!-- Generator: Adobe Illustrator 22.1.0, SVG Export Plug-In . SVG Version: 6.00 Build 0)  -->
<svg version="1.1" id="Layer_1" xmlns="http://www.w3.org/2000/svg" xmlns:xlink="http://www.w3.org/1999/xlink" x="0px" y="0px"
	 viewBox="0 0 546.1 328.1" style="enable-background:new 0 0 546.1 328.1;" xml:space="preserve">
<style type="text/css">
	.st0{fill:#FFFFFF;}
	.st1{fill:#CFE0FA;}
	.st2{fill:#2B173F;}
	.st3{fill:#425FEC;}
	.st4{fill:#FC721A;}
	.st5{fill:#101C3A;}
	.st6{fill:#390D9F;}
	.st7{fill:#666666;}
	.st8{clip-path:url(#SVGID_2_);}
	.st9{fill:#E1BA9E;}
	.st10{fill:#2DB509;}
	.st11{fill:#131313;}
	.st12{fill:#4CC9F0;stroke:#4CC9F0;stroke-miterlimit:10;}
	.st13{fill:#072AC8;}
	.st14{fill:#3E36C7;}
	.st15{fill:#3089E0;stroke:#3089E0;stroke-miterlimit:10;}
	.st16{fill:#1A1B1D;}
	.st17{clip-path:url(#SVGID_4_);}
	.st18{fill:#F2CDAC;}
	.st19{fill:#EF8A52;}
	.st20{fill:#3E4350;}
	.st21{fill:#E6ECFF;}
	.st22{fill:#4CC9F0;}
	.st23{fill:#3089E0;}
	.st24{fill:#236AD8;}
	.st25{fill:#154AD0;}
	.st26{fill:#3EA9E8;}
</style>
<g>
	<g>
		<g>
			<path class="st0" d="M533.6,201.4h-157c-3.9,0-7-3.1-7-7v-133c0-2.7,2.2-4.8,4.8-4.8h161.4c2.7,0,4.8,2.2,4.8,4.8v133
				C540.6,198.3,537.5,201.4,533.6,201.4z"/>
			<path class="st1" d="M533.6,202.3h-157c-4.4,0-7.9-3.6-7.9-7.9v-133c0-3.2,2.6-5.7,5.7-5.7h161.4c3.2,0,5.7,2.6,5.7,5.7v133
				C541.5,198.7,538,202.3,533.6,202.3z M374.4,57.5c-2.2,0-3.9,1.8-3.9,3.9v133c0,3.4,2.8,6.1,6.1,6.1h157c3.4,0,6.1-2.8,6.1-6.1
				v-133c0-2.2-1.8-3.9-3.9-3.9H374.4z"/>
		</g>
	</g>
	<g>
		<g>
			<path class="st2" d="M523.1,61c-0.6,0-1.2,0.5-1.2,1.2c0,0.6,0.5,1.2,1.2,1.2c0.6,0,1.2-0.5,1.2-1.2
				C524.3,61.5,523.8,61,523.1,61z"/>
			<path class="st3" d="M528.1,61c-0.6,0-1.2,0.5-1.2,1.2c0,0.6,0.5,1.2,1.2,1.2c0.6,0,1.2-0.5,1.2-1.2
				C529.2,61.5,528.7,61,528.1,61z"/>
			<path class="st4" d="M533,61c-0.6,0-1.2,0.5-1.2,1.2c0,0.6,0.5,1.2,1.2,1.2c0.6,0,1.2-0.5,1.2-1.2C534.2,61.5,533.7,61,533,61z"
				/>
		</g>
	</g>
	<g>
		<path class="st0" d="M491.8,69.8H370.6H491.8z"/>
		<rect x="370.6" y="68.9" class="st1" width="121.2" height="1.8"/>
	</g>
	<g>
		<g>
			<rect x="381.7" y="187.8" class="st5" width="135.5" height="2.5"/>
		</g>
		<g>
			<rect x="381.7" y="159.6" class="st5" width="135.5" height="2.5"/>
		</g>
		<g>
			<rect x="381.7" y="178.8" class="st5" width="43.2" height="2.5"/>
		</g>
		<g>
			<rect x="443.6" y="178.8" class="st5" width="30.2" height="2.5"/>
		</g>
		<g>
			<rect x="381.7" y="169.9" class="st5" width="90.5" height="2.5"/>
		</g>
		<g>
			<rect x="484.3" y="169.9" class="st5" width="44.7" height="2.5"/>
		</g>
	</g>
	<g>
		<g>
			<path class="st6" d="M517.4,79.8H391.2c-6.9,0-11,4.5-11,10.2c0,5.7,4.1,10.4,11,10.4h126.2c6.9,0,11.5-4.9,11.5-10.6
				C528.9,84.2,524.3,79.8,517.4,79.8z M517.4,99.2H391.2c-6.1,0-9.7-4.1-9.7-9.1c0-5,3.6-9.1,9.7-9.1h126.2c6.1,0,10,3.8,10,8.9
				C527.4,94.9,523.5,99.2,517.4,99.2z"/>
		</g>
		<g>
			<path class="st6" d="M399.2,90.1c0,4.5-3.7,8.2-8.2,8.2c-4.5,0-8.2-3.7-8.2-8.2c0-4.5,3.7-8.2,8.2-8.2
				C395.5,81.9,399.2,85.6,399.2,90.1z"/>
			<g>
				<g>
					<path class="st0" d="M394.9,86.3c-0.6-0.6-1.4-1-2.3-1c-0.9,0-1.7,0.3-2.3,0.9c-1.2,1.1-1.4,2.9-0.5,4.2l-0.1,0.1
						c-0.1,0.1-0.1,0.2,0,0.2l0.1,0.1l-0.2,0.2l0,0c-0.1-0.1-0.2-0.1-0.3,0l-2.9,2.7c-0.1,0.1-0.2,0.3-0.2,0.4l-0.1,0.1
						c-0.2,0.2-0.2,0.4,0,0.6c0.1,0.1,0.2,0.1,0.3,0.1h0c0.1,0,0.2,0,0.3-0.1l0.1-0.1c0.2,0,0.3,0,0.4-0.2l2.9-2.7
						c0.1-0.1,0.1-0.2,0-0.3l0,0l0.2-0.2l0.1,0.1c0,0,0.1,0,0.1,0h0c0,0,0.1,0,0.1,0l0.1-0.1c0.5,0.4,1.2,0.6,1.9,0.7
						c0.1,0,0.2,0,0.2,0c0.8,0,1.5-0.3,2.1-0.9C396.1,89.8,396.2,87.7,394.9,86.3z M394.4,90.6c-0.5,0.5-1.1,0.7-1.8,0.8h-0.2
						c-0.7,0-1.4-0.3-1.9-0.9c-1-1.1-1-2.9,0.1-4c0.5-0.5,1.2-0.8,1.9-0.8h0.1c0.7,0,1.4,0.3,1.9,0.9
						C395.6,87.8,395.6,89.6,394.4,90.6z"/>
				</g>
			</g>
		</g>
	</g>
	<g>
		<g>
			<rect x="379.6" y="108.5" class="st7" width="39.1" height="39.1"/>
		</g>
		<g>
			<g>
				<g>
					<g>
						<polygon class="st7" points="415.4,144.9 403.9,122.2 397.1,136.5 392.3,128.9 383,144.8 						"/>
					</g>
				</g>
			</g>
		</g>
		<g>
			<g>
				<g>
					<g>
						<g>
							<g>
								<path class="st7" d="M394.1,119.5c0,1.4,1.2,2.5,2.6,2.5c1.4,0,2.5-1.2,2.5-2.6c0-1.4-1.2-2.5-2.6-2.5
									C395.2,117,394.1,118.1,394.1,119.5z"/>
							</g>
						</g>
					</g>
				</g>
			</g>
		</g>
		<g>
			
				<rect x="398.9" y="104.1" transform="matrix(0.7072 -0.707 0.707 0.7072 26.3781 319.683)" class="st7" width="0.5" height="47.7"/>
		</g>
		<g>
			
				<rect x="375.3" y="127.7" transform="matrix(0.7071 -0.7071 0.7071 0.7071 26.4089 319.7429)" class="st7" width="47.7" height="0.5"/>
		</g>
		<g>
			<g>
				<g>
					<g>
						<g>
							<path class="st7" d="M383,145.4c0.8,0,0.9-0.2,0.9-0.4c0-0.2-0.1-0.4-0.9-0.4c-0.8,0-0.9,0.2-0.9,0.4
								C382,145.2,382.1,145.4,383,145.4z"/>
						</g>
					</g>
				</g>
				<g>
					<g>
						<g>
							<path class="st7" d="M385.7,145.4c0.8,0,0.9-0.2,0.9-0.4c0-0.2-0.1-0.4-0.9-0.4c-0.8,0-0.9,0.2-0.9,0.4
								C384.8,145.2,384.9,145.4,385.7,145.4z"/>
						</g>
					</g>
				</g>
				<g>
					<g>
						<g>
							<path class="st7" d="M388.5,145.4c0.8,0,0.9-0.2,0.9-0.4c0-0.2-0.1-0.4-0.9-0.4c-0.8,0-0.9,0.2-0.9,0.4
								C387.6,145.2,387.7,145.4,388.5,145.4z"/>
						</g>
					</g>
				</g>
				<g>
					<g>
						<g>
							<path class="st7" d="M391.3,145.4c0.8,0,0.9-0.2,0.9-0.4c0-0.2-0.1-0.4-0.9-0.4c-0.8,0-0.9,0.2-0.9,0.4
								C390.3,145.2,390.4,145.4,391.3,145.4z"/>
						</g>
					</g>
				</g>
				<g>
					<g>
						<g>
							<path class="st7" d="M394,145.4c0.8,0,0.9-0.2,0.9-0.4c0-0.2-0.1-0.4-0.9-0.4c-0.8,0-0.9,0.2-0.9,0.4
								C393.1,145.2,393.2,145.4,394,145.4z"/>
						</g>
					</g>
				</g>
				<g>
					<g>
						<g>
							<path class="st7" d="M396.8,145.4c0.8,0,0.9-0.2,0.9-0.4c0-0.2-0.1-0.4-0.9-0.4c-0.8,0-0.9,0.2-0.9,0.4
								C395.8,145.2,396,145.4,396.8,145.4z"/>
						</g>
					</g>
				</g>
				<g>
					<g>
						<g>
							<path class="st7" d="M399.6,145.4c0.8,0,0.9-0.2,0.9-0.4c0-0.2-0.1-0.4-0.9-0.4c-0.8,0-0.9,0.2-0.9,0.4
								C398.6,145.2,398.7,145.4,399.6,145.4z"/>
						</g>
					</g>
				</g>
				<g>
					<g>
						<g>
							<path class="st7" d="M402.3,145.4c0.8,0,0.9-0.2,0.9-0.4c0-0.2-0.1-0.4-0.9-0.4c-0.8,0-0.9,0.2-0.9,0.4
								C401.4,145.2,401.5,145.4,402.3,145.4z"/>
						</g>
					</g>
				</g>
				<g>
					<g>
						<g>
							<path class="st7" d="M405.1,145.4c0.8,0,0.9-0.2,0.9-0.4c0-0.2-0.1-0.4-0.9-0.4c-0.8,0-0.9,0.2-0.9,0.4
								C404.1,145.2,404.3,145.4,405.1,145.4z"/>
						</g>
					</g>
				</g>
				<g>
					<g>
						<g>
							<path class="st7" d="M407.8,145.4c0.8,0,0.9-0.2,0.9-0.4c0-0.2-0.1-0.4-0.9-0.4c-0.8,0-0.9,0.2-0.9,0.4
								C406.9,145.2,407,145.4,407.8,145.4z"/>
						</g>
					</g>
				</g>
				<g>
					<g>
						<g>
							<path class="st7" d="M410.6,145.4c0.8,0,0.9-0.2,0.9-0.4c0-0.2-0.1-0.4-0.9-0.4c-0.8,0-0.9,0.2-0.9,0.4
								C409.7,145.2,409.8,145.4,410.6,145.4z"/>
						</g>
					</g>
				</g>
				<g>
					<g>
						<g>
							<path class="st7" d="M413.4,145.4c0.8,0,0.9-0.2,0.9-0.4c0-0.2-0.1-0.4-0.9-0.4c-0.8,0-0.9,0.2-0.9,0.4
								C412.4,145.2,412.5,145.4,413.4,145.4z"/>
						</g>
					</g>
				</g>
				<g>
					<g>
						<g>
							<path class="st7" d="M415.7,145.5l0.2-0.1c0.1,0,0.1,0,0.2,0l0.4,0l0-0.5c0,0,0,0,0,0l0.3-0.3l-0.3,0c0-0.6-0.2-0.7-0.4-0.7
								c-0.2,0-0.3,0.1-0.4,0.7c-0.3,0-0.5,0.1-0.5,0.3c0,0.2,0.2,0.3,0.5,0.3V145.5z"/>
						</g>
					</g>
				</g>
				<g>
					<g>
						<g>
							<path class="st7" d="M416,143.1c0.2,0,0.4-0.1,0.4-0.9c0-0.8-0.2-0.9-0.4-0.9c-0.2,0-0.4,0.1-0.4,0.9
								C415.7,143,415.8,143.1,416,143.1z"/>
						</g>
					</g>
				</g>
				<g>
					<g>
						<g>
							<path class="st7" d="M416,140.3c0.2,0,0.4-0.1,0.4-0.9c0-0.8-0.2-0.9-0.4-0.9c-0.2,0-0.4,0.1-0.4,0.9
								C415.7,140.2,415.8,140.3,416,140.3z"/>
						</g>
					</g>
				</g>
				<g>
					<g>
						<g>
							<path class="st7" d="M416,137.5c0.2,0,0.4-0.1,0.4-0.9c0-0.8-0.2-0.9-0.4-0.9c-0.2,0-0.4,0.1-0.4,0.9
								C415.7,137.4,415.8,137.5,416,137.5z"/>
						</g>
					</g>
				</g>
				<g>
					<g>
						<g>
							<path class="st7" d="M416,134.8c0.2,0,0.4-0.1,0.4-0.9c0-0.8-0.2-0.9-0.4-0.9c-0.2,0-0.4,0.1-0.4,0.9
								C415.7,134.7,415.8,134.8,416,134.8z"/>
						</g>
					</g>
				</g>
				<g>
					<g>
						<g>
							<path class="st7" d="M416,132c0.2,0,0.4-0.1,0.4-0.9c0-0.8-0.2-0.9-0.4-0.9c-0.2,0-0.4,0.1-0.4,0.9
								C415.7,131.9,415.8,132,416,132z"/>
						</g>
					</g>
				</g>
				<g>
					<g>
						<g>
							<path class="st7" d="M416,129.2c0.2,0,0.4-0.1,0.4-0.9c0-0.8-0.2-0.9-0.4-0.9c-0.2,0-0.4,0.1-0.4,0.9
								C415.7,129.1,415.8,129.2,416,129.2z"/>
						</g>
					</g>
				</g>
				<g>
					<g>
						<g>
							<path class="st7" d="M416,126.5c0.2,0,0.4-0.1,0.4-0.9c0-0.8-0.2-0.9-0.4-0.9c-0.2,0-0.4,0.1-0.4,0.9
								C415.7,126.4,415.8,126.5,416,126.5z"/>
						</g>
					</g>
				</g>
				<g>
					<g>
						<g>
							<path class="st7" d="M416,123.7c0.2,0,0.4-0.1,0.4-0.9c0-0.8-0.2-0.9-0.4-0.9c-0.2,0-0.4,0.1-0.4,0.9
								C415.7,123.6,415.8,123.7,416,123.7z"/>
						</g>
					</g>
				</g>
				<g>
					<g>
						<g>
							<path class="st7" d="M416,121c0.2,0,0.4-0.1,0.4-0.9c0-0.8-0.2-0.9-0.4-0.9c-0.2,0-0.4,0.1-0.4,0.9
								C415.7,120.8,415.8,121,416,121z"/>
						</g>
					</g>
				</g>
				<g>
					<g>
						<g>
							<path class="st7" d="M416,118.2c0.2,0,0.4-0.1,0.4-0.9c0-0.8-0.2-0.9-0.4-0.9c-0.2,0-0.4,0.1-0.4,0.9
								C415.7,118.1,415.8,118.2,416,118.2z"/>
						</g>
					</g>
				</g>
				<g>
					<g>
						<g>
							<path class="st7" d="M416,115.4c0.2,0,0.4-0.1,0.4-0.9c0-0.8-0.2-0.9-0.4-0.9c-0.2,0-0.4,0.1-0.4,0.9
								C415.7,115.3,415.8,115.4,416,115.4z"/>
						</g>
					</g>
				</g>
				<g>
					<g>
						<g>
							<path class="st7" d="M413.8,111.6c0.8,0,0.9-0.2,0.9-0.4c0-0.2-0.1-0.4-0.9-0.4s-0.9,0.2-0.9,0.4
								C412.8,111.4,412.9,111.6,413.8,111.6z"/>
						</g>
					</g>
				</g>
				<g>
					<g>
						<g>
							<path class="st7" d="M411,111.6c0.8,0,0.9-0.2,0.9-0.4c0-0.2-0.1-0.4-0.9-0.4c-0.8,0-0.9,0.2-0.9,0.4
								C410,111.4,410.2,111.6,411,111.6z"/>
						</g>
					</g>
				</g>
				<g>
					<g>
						<g>
							<path class="st7" d="M408.2,111.6c0.8,0,0.9-0.2,0.9-0.4c0-0.2-0.1-0.4-0.9-0.4c-0.8,0-0.9,0.2-0.9,0.4
								C407.3,111.4,407.4,111.6,408.2,111.6z"/>
						</g>
					</g>
				</g>
				<g>
					<g>
						<g>
							<path class="st7" d="M405.5,111.6c0.8,0,0.9-0.2,0.9-0.4c0-0.2-0.1-0.4-0.9-0.4c-0.8,0-0.9,0.2-0.9,0.4
								C404.5,111.4,404.6,111.6,405.5,111.6z"/>
						</g>
					</g>
				</g>
				<g>
					<g>
						<g>
							<path class="st7" d="M402.7,111.6c0.8,0,0.9-0.2,0.9-0.4c0-0.2-0.1-0.4-0.9-0.4c-0.8,0-0.9,0.2-0.9,0.4
								C401.8,111.4,401.9,111.6,402.7,111.6z"/>
						</g>
					</g>
				</g>
				<g>
					<g>
						<g>
							<path class="st7" d="M399.9,111.6c0.8,0,0.9-0.2,0.9-0.4c0-0.2-0.1-0.4-0.9-0.4c-0.8,0-0.9,0.2-0.9,0.4
								C399,111.4,399.1,111.6,399.9,111.6z"/>
						</g>
					</g>
				</g>
				<g>
					<g>
						<g>
							<path class="st7" d="M397.2,111.6c0.8,0,0.9-0.2,0.9-0.4c0-0.2-0.1-0.4-0.9-0.4c-0.8,0-0.9,0.2-0.9,0.4
								C396.2,111.4,396.3,111.6,397.2,111.6z"/>
						</g>
					</g>
				</g>
				<g>
					<g>
						<g>
							<path class="st7" d="M394.4,111.6c0.8,0,0.9-0.2,0.9-0.4c0-0.2-0.1-0.4-0.9-0.4c-0.8,0-0.9,0.2-0.9,0.4
								C393.5,111.4,393.6,111.6,394.4,111.6z"/>
						</g>
					</g>
				</g>
				<g>
					<g>
						<g>
							<path class="st7" d="M391.6,111.6c0.8,0,0.9-0.2,0.9-0.4c0-0.2-0.1-0.4-0.9-0.4c-0.8,0-0.9,0.2-0.9,0.4
								C390.7,111.4,390.8,111.6,391.6,111.6z"/>
						</g>
					</g>
				</g>
				<g>
					<g>
						<g>
							<path class="st7" d="M388.9,111.6c0.8,0,0.9-0.2,0.9-0.4c0-0.2-0.1-0.4-0.9-0.4c-0.8,0-0.9,0.2-0.9,0.4
								C387.9,111.4,388,111.6,388.9,111.6z"/>
						</g>
					</g>
				</g>
				<g>
					<g>
						<g>
							<path class="st7" d="M386.1,111.6c0.8,0,0.9-0.2,0.9-0.4c0-0.2-0.1-0.4-0.9-0.4c-0.8,0-0.9,0.2-0.9,0.4
								C385.2,111.4,385.3,111.6,386.1,111.6z"/>
						</g>
					</g>
				</g>
				<g>
					<g>
						<g>
							<path class="st7" d="M383.4,111.6c0.8,0,0.9-0.2,0.9-0.4c0-0.2-0.1-0.4-0.9-0.4c-0.8,0-0.9,0.2-0.9,0.4
								C382.4,111.4,382.5,111.6,383.4,111.6z"/>
						</g>
					</g>
				</g>
				<g>
					<g>
						<g>
							<path class="st7" d="M382.3,113.9c0.2,0,0.4-0.1,0.4-0.9c0-0.8-0.2-0.9-0.4-0.9c-0.2,0-0.4,0.1-0.4,0.9
								C381.9,113.8,382.1,113.9,382.3,113.9z"/>
						</g>
					</g>
				</g>
				<g>
					<g>
						<g>
							<path class="st7" d="M382.3,116.6c0.2,0,0.4-0.1,0.4-0.9c0-0.8-0.2-0.9-0.4-0.9c-0.2,0-0.4,0.1-0.4,0.9
								C381.9,116.5,382.1,116.6,382.3,116.6z"/>
						</g>
					</g>
				</g>
				<g>
					<g>
						<g>
							<path class="st7" d="M382.3,119.4c0.2,0,0.4-0.1,0.4-0.9c0-0.8-0.2-0.9-0.4-0.9c-0.2,0-0.4,0.1-0.4,0.9
								C381.9,119.3,382.1,119.4,382.3,119.4z"/>
						</g>
					</g>
				</g>
				<g>
					<g>
						<g>
							<path class="st7" d="M382.3,122.2c0.2,0,0.4-0.1,0.4-0.9s-0.2-0.9-0.4-0.9c-0.2,0-0.4,0.1-0.4,0.9
								C381.9,122.1,382.1,122.2,382.3,122.2z"/>
						</g>
					</g>
				</g>
				<g>
					<g>
						<g>
							<path class="st7" d="M382.3,124.9c0.2,0,0.4-0.1,0.4-0.9s-0.2-0.9-0.4-0.9c-0.2,0-0.4,0.1-0.4,0.9
								C381.9,124.8,382.1,124.9,382.3,124.9z"/>
						</g>
					</g>
				</g>
				<g>
					<g>
						<g>
							<path class="st7" d="M382.3,127.7c0.2,0,0.4-0.1,0.4-0.9c0-0.8-0.2-0.9-0.4-0.9c-0.2,0-0.4,0.1-0.4,0.9
								C381.9,127.6,382.1,127.7,382.3,127.7z"/>
						</g>
					</g>
				</g>
				<g>
					<g>
						<g>
							<path class="st7" d="M382.3,130.5c0.2,0,0.4-0.1,0.4-0.9c0-0.8-0.2-0.9-0.4-0.9c-0.2,0-0.4,0.1-0.4,0.9
								C381.9,130.3,382.1,130.5,382.3,130.5z"/>
						</g>
					</g>
				</g>
				<g>
					<g>
						<g>
							<path class="st7" d="M382.3,133.2c0.2,0,0.4-0.1,0.4-0.9s-0.2-0.9-0.4-0.9c-0.2,0-0.4,0.1-0.4,0.9
								C381.9,133.1,382.1,133.2,382.3,133.2z"/>
						</g>
					</g>
				</g>
				<g>
					<g>
						<g>
							<path class="st7" d="M382.3,136c0.2,0,0.4-0.1,0.4-0.9c0-0.8-0.2-0.9-0.4-0.9c-0.2,0-0.4,0.1-0.4,0.9
								C381.9,135.9,382.1,136,382.3,136z"/>
						</g>
					</g>
				</g>
				<g>
					<g>
						<g>
							<path class="st7" d="M382.3,138.7c0.2,0,0.4-0.1,0.4-0.9c0-0.8-0.2-0.9-0.4-0.9c-0.2,0-0.4,0.1-0.4,0.9
								C381.9,138.6,382.1,138.7,382.3,138.7z"/>
						</g>
					</g>
				</g>
				<g>
					<g>
						<g>
							<path class="st7" d="M382.3,141.5c0.2,0,0.4-0.1,0.4-0.9c0-0.8-0.2-0.9-0.4-0.9c-0.2,0-0.4,0.1-0.4,0.9
								C381.9,141.4,382.1,141.5,382.3,141.5z"/>
						</g>
					</g>
				</g>
				<g>
					<g>
						<g>
							<path class="st7" d="M382.3,144.3c0.2,0,0.4-0.1,0.4-0.9c0-0.8-0.2-0.9-0.4-0.9c-0.2,0-0.4,0.1-0.4,0.9
								C381.9,144.2,382.1,144.3,382.3,144.3z"/>
						</g>
					</g>
				</g>
			</g>
			<g>
				<g>
					<rect x="381" y="143.4" class="st7" width="2.5" height="2.5"/>
					<path class="st7" d="M380.8,143.2v3h3v-3H380.8z M383.3,145.6h-2v-2h2V145.6z"/>
				</g>
			</g>
			<g>
				<g>
					<rect x="414.8" y="143.7" class="st7" width="2.5" height="2.5"/>
					<path class="st7" d="M414.5,143.5v3h3v-3H414.5z M417,146h-2v-2h2V146z"/>
				</g>
			</g>
			<g>
				<g>
					<rect x="381" y="109.7" class="st7" width="2.5" height="2.5"/>
					<path class="st7" d="M380.8,109.5v3h3v-3H380.8z M383.3,112h-2v-2h2V112z"/>
				</g>
			</g>
			<g>
				<g>
					<rect x="414.8" y="110" class="st7" width="2.5" height="2.5"/>
					<path class="st7" d="M414.5,109.7v3h3v-3H414.5z M417,112.2h-2v-2h2V112.2z"/>
				</g>
			</g>
		</g>
	</g>
	<g>
		<g>
			<rect x="433.4" y="108.5" class="st7" width="39.1" height="39.1"/>
		</g>
		<g>
			<g>
				<g>
					<g>
						<polygon class="st7" points="469.1,144.9 457.7,122.2 450.9,136.5 446.1,128.9 436.7,144.8 						"/>
					</g>
				</g>
			</g>
		</g>
		<g>
			<g>
				<g>
					<g>
						<g>
							<g>
								<path class="st7" d="M447.8,119.5c0,1.4,1.2,2.5,2.6,2.5c1.4,0,2.5-1.2,2.5-2.6c0-1.4-1.2-2.5-2.6-2.5
									C448.9,117,447.8,118.1,447.8,119.5z"/>
							</g>
						</g>
					</g>
				</g>
			</g>
		</g>
		<g>
			
				<rect x="452.6" y="104.1" transform="matrix(0.7072 -0.707 0.707 0.7072 42.1135 357.6792)" class="st7" width="0.5" height="47.7"/>
		</g>
		<g>
			
				<rect x="429" y="127.7" transform="matrix(0.7071 -0.7071 0.7071 0.7071 42.1504 357.7452)" class="st7" width="47.7" height="0.5"/>
		</g>
		<g>
			<g>
				<g>
					<g>
						<g>
							<path class="st7" d="M436.7,145.4c0.8,0,0.9-0.2,0.9-0.4c0-0.2-0.1-0.4-0.9-0.4c-0.8,0-0.9,0.2-0.9,0.4
								C435.8,145.2,435.9,145.4,436.7,145.4z"/>
						</g>
					</g>
				</g>
				<g>
					<g>
						<g>
							<path class="st7" d="M439.5,145.4c0.8,0,0.9-0.2,0.9-0.4c0-0.2-0.1-0.4-0.9-0.4c-0.8,0-0.9,0.2-0.9,0.4
								C438.5,145.2,438.7,145.4,439.5,145.4z"/>
						</g>
					</g>
				</g>
				<g>
					<g>
						<g>
							<path class="st7" d="M442.2,145.4c0.8,0,0.9-0.2,0.9-0.4c0-0.2-0.1-0.4-0.9-0.4c-0.8,0-0.9,0.2-0.9,0.4
								C441.3,145.2,441.4,145.4,442.2,145.4z"/>
						</g>
					</g>
				</g>
				<g>
					<g>
						<g>
							<path class="st7" d="M445,145.4c0.8,0,0.9-0.2,0.9-0.4c0-0.2-0.1-0.4-0.9-0.4c-0.8,0-0.9,0.2-0.9,0.4
								C444.1,145.2,444.2,145.4,445,145.4z"/>
						</g>
					</g>
				</g>
				<g>
					<g>
						<g>
							<path class="st7" d="M447.8,145.4c0.8,0,0.9-0.2,0.9-0.4c0-0.2-0.1-0.4-0.9-0.4c-0.8,0-0.9,0.2-0.9,0.4
								C446.8,145.2,446.9,145.4,447.8,145.4z"/>
						</g>
					</g>
				</g>
				<g>
					<g>
						<g>
							<path class="st7" d="M450.5,145.4c0.8,0,0.9-0.2,0.9-0.4c0-0.2-0.1-0.4-0.9-0.4c-0.8,0-0.9,0.2-0.9,0.4
								C449.6,145.2,449.7,145.4,450.5,145.4z"/>
						</g>
					</g>
				</g>
				<g>
					<g>
						<g>
							<path class="st7" d="M453.3,145.4c0.8,0,0.9-0.2,0.9-0.4c0-0.2-0.1-0.4-0.9-0.4c-0.8,0-0.9,0.2-0.9,0.4
								C452.4,145.2,452.5,145.4,453.3,145.4z"/>
						</g>
					</g>
				</g>
				<g>
					<g>
						<g>
							<path class="st7" d="M456.1,145.4c0.8,0,0.9-0.2,0.9-0.4c0-0.2-0.1-0.4-0.9-0.4c-0.8,0-0.9,0.2-0.9,0.4
								C455.1,145.2,455.2,145.4,456.1,145.4z"/>
						</g>
					</g>
				</g>
				<g>
					<g>
						<g>
							<path class="st7" d="M458.8,145.4c0.8,0,0.9-0.2,0.9-0.4c0-0.2-0.1-0.4-0.9-0.4c-0.8,0-0.9,0.2-0.9,0.4
								C457.9,145.2,458,145.4,458.8,145.4z"/>
						</g>
					</g>
				</g>
				<g>
					<g>
						<g>
							<path class="st7" d="M461.6,145.4c0.8,0,0.9-0.2,0.9-0.4c0-0.2-0.1-0.4-0.9-0.4c-0.8,0-0.9,0.2-0.9,0.4
								C460.6,145.2,460.8,145.4,461.6,145.4z"/>
						</g>
					</g>
				</g>
				<g>
					<g>
						<g>
							<path class="st7" d="M464.4,145.4c0.8,0,0.9-0.2,0.9-0.4c0-0.2-0.1-0.4-0.9-0.4c-0.8,0-0.9,0.2-0.9,0.4
								C463.4,145.2,463.5,145.4,464.4,145.4z"/>
						</g>
					</g>
				</g>
				<g>
					<g>
						<g>
							<path class="st7" d="M467.1,145.4c0.8,0,0.9-0.2,0.9-0.4c0-0.2-0.1-0.4-0.9-0.4c-0.8,0-0.9,0.2-0.9,0.4
								C466.2,145.2,466.3,145.4,467.1,145.4z"/>
						</g>
					</g>
				</g>
				<g>
					<g>
						<g>
							<path class="st7" d="M469.4,145.5l0.2-0.1c0.1,0,0.1,0,0.2,0l0.4,0l0-0.5c0,0,0,0,0,0l0.3-0.3l-0.3,0c0-0.6-0.2-0.7-0.4-0.7
								c-0.2,0-0.3,0.1-0.4,0.7c-0.3,0-0.5,0.1-0.5,0.3c0,0.2,0.2,0.3,0.5,0.3V145.5z"/>
						</g>
					</g>
				</g>
				<g>
					<g>
						<g>
							<path class="st7" d="M469.8,143.1c0.2,0,0.4-0.1,0.4-0.9c0-0.8-0.2-0.9-0.4-0.9c-0.2,0-0.4,0.1-0.4,0.9
								C469.4,143,469.6,143.1,469.8,143.1z"/>
						</g>
					</g>
				</g>
				<g>
					<g>
						<g>
							<path class="st7" d="M469.8,140.3c0.2,0,0.4-0.1,0.4-0.9c0-0.8-0.2-0.9-0.4-0.9c-0.2,0-0.4,0.1-0.4,0.9
								C469.4,140.2,469.6,140.3,469.8,140.3z"/>
						</g>
					</g>
				</g>
				<g>
					<g>
						<g>
							<path class="st7" d="M469.8,137.5c0.2,0,0.4-0.1,0.4-0.9c0-0.8-0.2-0.9-0.4-0.9c-0.2,0-0.4,0.1-0.4,0.9
								C469.4,137.4,469.6,137.5,469.8,137.5z"/>
						</g>
					</g>
				</g>
				<g>
					<g>
						<g>
							<path class="st7" d="M469.8,134.8c0.2,0,0.4-0.1,0.4-0.9c0-0.8-0.2-0.9-0.4-0.9c-0.2,0-0.4,0.1-0.4,0.9
								C469.4,134.7,469.6,134.8,469.8,134.8z"/>
						</g>
					</g>
				</g>
				<g>
					<g>
						<g>
							<path class="st7" d="M469.8,132c0.2,0,0.4-0.1,0.4-0.9c0-0.8-0.2-0.9-0.4-0.9c-0.2,0-0.4,0.1-0.4,0.9
								C469.4,131.9,469.6,132,469.8,132z"/>
						</g>
					</g>
				</g>
				<g>
					<g>
						<g>
							<path class="st7" d="M469.8,129.2c0.2,0,0.4-0.1,0.4-0.9c0-0.8-0.2-0.9-0.4-0.9c-0.2,0-0.4,0.1-0.4,0.9
								C469.4,129.1,469.6,129.2,469.8,129.2z"/>
						</g>
					</g>
				</g>
				<g>
					<g>
						<g>
							<path class="st7" d="M469.8,126.5c0.2,0,0.4-0.1,0.4-0.9c0-0.8-0.2-0.9-0.4-0.9c-0.2,0-0.4,0.1-0.4,0.9
								C469.4,126.4,469.6,126.5,469.8,126.5z"/>
						</g>
					</g>
				</g>
				<g>
					<g>
						<g>
							<path class="st7" d="M469.8,123.7c0.2,0,0.4-0.1,0.4-0.9c0-0.8-0.2-0.9-0.4-0.9c-0.2,0-0.4,0.1-0.4,0.9
								C469.4,123.6,469.6,123.7,469.8,123.7z"/>
						</g>
					</g>
				</g>
				<g>
					<g>
						<g>
							<path class="st7" d="M469.8,121c0.2,0,0.4-0.1,0.4-0.9c0-0.8-0.2-0.9-0.4-0.9c-0.2,0-0.4,0.1-0.4,0.9
								C469.4,120.8,469.6,121,469.8,121z"/>
						</g>
					</g>
				</g>
				<g>
					<g>
						<g>
							<path class="st7" d="M469.8,118.2c0.2,0,0.4-0.1,0.4-0.9c0-0.8-0.2-0.9-0.4-0.9c-0.2,0-0.4,0.1-0.4,0.9
								C469.4,118.1,469.6,118.2,469.8,118.2z"/>
						</g>
					</g>
				</g>
				<g>
					<g>
						<g>
							<path class="st7" d="M469.8,115.4c0.2,0,0.4-0.1,0.4-0.9c0-0.8-0.2-0.9-0.4-0.9c-0.2,0-0.4,0.1-0.4,0.9
								C469.4,115.3,469.6,115.4,469.8,115.4z"/>
						</g>
					</g>
				</g>
				<g>
					<g>
						<g>
							<path class="st7" d="M467.5,111.6c0.8,0,0.9-0.2,0.9-0.4c0-0.2-0.1-0.4-0.9-0.4c-0.8,0-0.9,0.2-0.9,0.4
								C466.6,111.4,466.7,111.6,467.5,111.6z"/>
						</g>
					</g>
				</g>
				<g>
					<g>
						<g>
							<path class="st7" d="M464.7,111.6c0.8,0,0.9-0.2,0.9-0.4c0-0.2-0.1-0.4-0.9-0.4c-0.8,0-0.9,0.2-0.9,0.4
								C463.8,111.4,463.9,111.6,464.7,111.6z"/>
						</g>
					</g>
				</g>
				<g>
					<g>
						<g>
							<path class="st7" d="M462,111.6c0.8,0,0.9-0.2,0.9-0.4c0-0.2-0.1-0.4-0.9-0.4c-0.8,0-0.9,0.2-0.9,0.4
								C461,111.4,461.1,111.6,462,111.6z"/>
						</g>
					</g>
				</g>
				<g>
					<g>
						<g>
							<path class="st7" d="M459.2,111.6c0.8,0,0.9-0.2,0.9-0.4c0-0.2-0.1-0.4-0.9-0.4c-0.8,0-0.9,0.2-0.9,0.4
								C458.3,111.4,458.4,111.6,459.2,111.6z"/>
						</g>
					</g>
				</g>
				<g>
					<g>
						<g>
							<path class="st7" d="M456.4,111.6c0.8,0,0.9-0.2,0.9-0.4c0-0.2-0.1-0.4-0.9-0.4c-0.8,0-0.9,0.2-0.9,0.4
								C455.5,111.4,455.6,111.6,456.4,111.6z"/>
						</g>
					</g>
				</g>
				<g>
					<g>
						<g>
							<path class="st7" d="M453.7,111.6c0.8,0,0.9-0.2,0.9-0.4c0-0.2-0.1-0.4-0.9-0.4s-0.9,0.2-0.9,0.4
								C452.7,111.4,452.8,111.6,453.7,111.6z"/>
						</g>
					</g>
				</g>
				<g>
					<g>
						<g>
							<path class="st7" d="M450.9,111.6c0.8,0,0.9-0.2,0.9-0.4c0-0.2-0.1-0.4-0.9-0.4s-0.9,0.2-0.9,0.4
								C450,111.4,450.1,111.6,450.9,111.6z"/>
						</g>
					</g>
				</g>
				<g>
					<g>
						<g>
							<path class="st7" d="M448.2,111.6c0.8,0,0.9-0.2,0.9-0.4c0-0.2-0.1-0.4-0.9-0.4s-0.9,0.2-0.9,0.4
								C447.2,111.4,447.3,111.6,448.2,111.6z"/>
						</g>
					</g>
				</g>
				<g>
					<g>
						<g>
							<path class="st7" d="M445.4,111.6c0.8,0,0.9-0.2,0.9-0.4c0-0.2-0.1-0.4-0.9-0.4c-0.8,0-0.9,0.2-0.9,0.4
								C444.4,111.4,444.6,111.6,445.4,111.6z"/>
						</g>
					</g>
				</g>
				<g>
					<g>
						<g>
							<path class="st7" d="M442.6,111.6c0.8,0,0.9-0.2,0.9-0.4c0-0.2-0.1-0.4-0.9-0.4c-0.8,0-0.9,0.2-0.9,0.4
								C441.7,111.4,441.8,111.6,442.6,111.6z"/>
						</g>
					</g>
				</g>
				<g>
					<g>
						<g>
							<path class="st7" d="M439.9,111.6c0.8,0,0.9-0.2,0.9-0.4c0-0.2-0.1-0.4-0.9-0.4s-0.9,0.2-0.9,0.4
								C438.9,111.4,439,111.6,439.9,111.6z"/>
						</g>
					</g>
				</g>
				<g>
					<g>
						<g>
							<path class="st7" d="M437.1,111.6c0.8,0,0.9-0.2,0.9-0.4c0-0.2-0.1-0.4-0.9-0.4s-0.9,0.2-0.9,0.4
								C436.2,111.4,436.3,111.6,437.1,111.6z"/>
						</g>
					</g>
				</g>
				<g>
					<g>
						<g>
							<path class="st7" d="M436,113.9c0.2,0,0.4-0.1,0.4-0.9c0-0.8-0.2-0.9-0.4-0.9c-0.2,0-0.4,0.1-0.4,0.9
								C435.7,113.8,435.8,113.9,436,113.9z"/>
						</g>
					</g>
				</g>
				<g>
					<g>
						<g>
							<path class="st7" d="M436,116.6c0.2,0,0.4-0.1,0.4-0.9c0-0.8-0.2-0.9-0.4-0.9c-0.2,0-0.4,0.1-0.4,0.9
								C435.7,116.5,435.8,116.6,436,116.6z"/>
						</g>
					</g>
				</g>
				<g>
					<g>
						<g>
							<path class="st7" d="M436,119.4c0.2,0,0.4-0.1,0.4-0.9c0-0.8-0.2-0.9-0.4-0.9c-0.2,0-0.4,0.1-0.4,0.9
								C435.7,119.3,435.8,119.4,436,119.4z"/>
						</g>
					</g>
				</g>
				<g>
					<g>
						<g>
							<path class="st7" d="M436,122.2c0.2,0,0.4-0.1,0.4-0.9s-0.2-0.9-0.4-0.9c-0.2,0-0.4,0.1-0.4,0.9
								C435.7,122.1,435.8,122.2,436,122.2z"/>
						</g>
					</g>
				</g>
				<g>
					<g>
						<g>
							<path class="st7" d="M436,124.9c0.2,0,0.4-0.1,0.4-0.9s-0.2-0.9-0.4-0.9c-0.2,0-0.4,0.1-0.4,0.9
								C435.7,124.8,435.8,124.9,436,124.9z"/>
						</g>
					</g>
				</g>
				<g>
					<g>
						<g>
							<path class="st7" d="M436,127.7c0.2,0,0.4-0.1,0.4-0.9c0-0.8-0.2-0.9-0.4-0.9c-0.2,0-0.4,0.1-0.4,0.9
								C435.7,127.6,435.8,127.7,436,127.7z"/>
						</g>
					</g>
				</g>
				<g>
					<g>
						<g>
							<path class="st7" d="M436,130.5c0.2,0,0.4-0.1,0.4-0.9c0-0.8-0.2-0.9-0.4-0.9c-0.2,0-0.4,0.1-0.4,0.9
								C435.7,130.3,435.8,130.5,436,130.5z"/>
						</g>
					</g>
				</g>
				<g>
					<g>
						<g>
							<path class="st7" d="M436,133.2c0.2,0,0.4-0.1,0.4-0.9s-0.2-0.9-0.4-0.9c-0.2,0-0.4,0.1-0.4,0.9
								C435.7,133.1,435.8,133.2,436,133.2z"/>
						</g>
					</g>
				</g>
				<g>
					<g>
						<g>
							<path class="st7" d="M436,136c0.2,0,0.4-0.1,0.4-0.9c0-0.8-0.2-0.9-0.4-0.9c-0.2,0-0.4,0.1-0.4,0.9
								C435.7,135.9,435.8,136,436,136z"/>
						</g>
					</g>
				</g>
				<g>
					<g>
						<g>
							<path class="st7" d="M436,138.7c0.2,0,0.4-0.1,0.4-0.9c0-0.8-0.2-0.9-0.4-0.9c-0.2,0-0.4,0.1-0.4,0.9
								C435.7,138.6,435.8,138.7,436,138.7z"/>
						</g>
					</g>
				</g>
				<g>
					<g>
						<g>
							<path class="st7" d="M436,141.5c0.2,0,0.4-0.1,0.4-0.9c0-0.8-0.2-0.9-0.4-0.9c-0.2,0-0.4,0.1-0.4,0.9
								C435.7,141.4,435.8,141.5,436,141.5z"/>
						</g>
					</g>
				</g>
				<g>
					<g>
						<g>
							<path class="st7" d="M436,144.3c0.2,0,0.4-0.1,0.4-0.9c0-0.8-0.2-0.9-0.4-0.9c-0.2,0-0.4,0.1-0.4,0.9
								C435.7,144.2,435.8,144.3,436,144.3z"/>
						</g>
					</g>
				</g>
			</g>
			<g>
				<g>
					<rect x="434.8" y="143.4" class="st7" width="2.5" height="2.5"/>
					<path class="st7" d="M434.5,143.2v3h3v-3H434.5z M437,145.6h-2v-2h2V145.6z"/>
				</g>
			</g>
			<g>
				<g>
					<rect x="468.5" y="143.7" class="st7" width="2.5" height="2.5"/>
					<path class="st7" d="M468.3,143.5v3h3v-3H468.3z M470.8,146h-2v-2h2V146z"/>
				</g>
			</g>
			<g>
				<g>
					<rect x="434.8" y="109.7" class="st7" width="2.5" height="2.5"/>
					<path class="st7" d="M434.5,109.5v3h3v-3H434.5z M437,112h-2v-2h2V112z"/>
				</g>
			</g>
			<g>
				<g>
					<rect x="468.5" y="110" class="st7" width="2.5" height="2.5"/>
					<path class="st7" d="M468.3,109.7v3h3v-3H468.3z M470.8,112.2h-2v-2h2V112.2z"/>
				</g>
			</g>
		</g>
	</g>
	<g>
		<g>
			<rect x="487.1" y="108.5" class="st7" width="39.1" height="39.1"/>
		</g>
		<g>
			<g>
				<g>
					<g>
						<polygon class="st7" points="522.9,144.9 511.4,122.2 504.6,136.5 499.8,128.9 490.5,144.8 						"/>
					</g>
				</g>
			</g>
		</g>
		<g>
			<g>
				<g>
					<g>
						<g>
							<g>
								<path class="st7" d="M501.6,119.5c0,1.4,1.2,2.5,2.6,2.5c1.4,0,2.5-1.2,2.5-2.6c0-1.4-1.2-2.5-2.6-2.5
									C502.7,117,501.6,118.1,501.6,119.5z"/>
							</g>
						</g>
					</g>
				</g>
			</g>
		</g>
		<g>
			
				<rect x="506.4" y="104.1" transform="matrix(0.7071 -0.7071 0.7071 0.7071 57.8865 395.7385)" class="st7" width="0.5" height="47.7"/>
		</g>
		<g>
			
				<rect x="482.8" y="127.7" transform="matrix(0.7071 -0.7071 0.7071 0.7071 57.8881 395.7411)" class="st7" width="47.7" height="0.5"/>
		</g>
		<g>
			<g>
				<g>
					<g>
						<g>
							<path class="st7" d="M490.5,145.4c0.8,0,0.9-0.2,0.9-0.4c0-0.2-0.1-0.4-0.9-0.4c-0.8,0-0.9,0.2-0.9,0.4
								C489.5,145.2,489.6,145.4,490.5,145.4z"/>
						</g>
					</g>
				</g>
				<g>
					<g>
						<g>
							<path class="st7" d="M493.2,145.4c0.8,0,0.9-0.2,0.9-0.4c0-0.2-0.1-0.4-0.9-0.4c-0.8,0-0.9,0.2-0.9,0.4
								C492.3,145.2,492.4,145.4,493.2,145.4z"/>
						</g>
					</g>
				</g>
				<g>
					<g>
						<g>
							<path class="st7" d="M496,145.4c0.8,0,0.9-0.2,0.9-0.4c0-0.2-0.1-0.4-0.9-0.4c-0.8,0-0.9,0.2-0.9,0.4
								C495,145.2,495.2,145.4,496,145.4z"/>
						</g>
					</g>
				</g>
				<g>
					<g>
						<g>
							<path class="st7" d="M498.7,145.4c0.8,0,0.9-0.2,0.9-0.4c0-0.2-0.1-0.4-0.9-0.4c-0.8,0-0.9,0.2-0.9,0.4
								C497.8,145.2,497.9,145.4,498.7,145.4z"/>
						</g>
					</g>
				</g>
				<g>
					<g>
						<g>
							<path class="st7" d="M501.5,145.4c0.8,0,0.9-0.2,0.9-0.4c0-0.2-0.1-0.4-0.9-0.4c-0.8,0-0.9,0.2-0.9,0.4
								C500.6,145.2,500.7,145.4,501.5,145.4z"/>
						</g>
					</g>
				</g>
				<g>
					<g>
						<g>
							<path class="st7" d="M504.3,145.4c0.8,0,0.9-0.2,0.9-0.4c0-0.2-0.1-0.4-0.9-0.4c-0.8,0-0.9,0.2-0.9,0.4
								C503.3,145.2,503.4,145.4,504.3,145.4z"/>
						</g>
					</g>
				</g>
				<g>
					<g>
						<g>
							<path class="st7" d="M507,145.4c0.8,0,0.9-0.2,0.9-0.4c0-0.2-0.1-0.4-0.9-0.4c-0.8,0-0.9,0.2-0.9,0.4
								C506.1,145.2,506.2,145.4,507,145.4z"/>
						</g>
					</g>
				</g>
				<g>
					<g>
						<g>
							<path class="st7" d="M509.8,145.4c0.8,0,0.9-0.2,0.9-0.4c0-0.2-0.1-0.4-0.9-0.4c-0.8,0-0.9,0.2-0.9,0.4
								C508.9,145.2,509,145.4,509.8,145.4z"/>
						</g>
					</g>
				</g>
				<g>
					<g>
						<g>
							<path class="st7" d="M512.6,145.4c0.8,0,0.9-0.2,0.9-0.4c0-0.2-0.1-0.4-0.9-0.4c-0.8,0-0.9,0.2-0.9,0.4
								C511.6,145.2,511.7,145.4,512.6,145.4z"/>
						</g>
					</g>
				</g>
				<g>
					<g>
						<g>
							<path class="st7" d="M515.3,145.4c0.8,0,0.9-0.2,0.9-0.4c0-0.2-0.1-0.4-0.9-0.4c-0.8,0-0.9,0.2-0.9,0.4
								C514.4,145.2,514.5,145.4,515.3,145.4z"/>
						</g>
					</g>
				</g>
				<g>
					<g>
						<g>
							<path class="st7" d="M518.1,145.4c0.8,0,0.9-0.2,0.9-0.4c0-0.2-0.1-0.4-0.9-0.4c-0.8,0-0.9,0.2-0.9,0.4
								C517.1,145.2,517.3,145.4,518.1,145.4z"/>
						</g>
					</g>
				</g>
				<g>
					<g>
						<g>
							<path class="st7" d="M520.9,145.4c0.8,0,0.9-0.2,0.9-0.4c0-0.2-0.1-0.4-0.9-0.4c-0.8,0-0.9,0.2-0.9,0.4
								C519.9,145.2,520,145.4,520.9,145.4z"/>
						</g>
					</g>
				</g>
				<g>
					<g>
						<g>
							<path class="st7" d="M523.1,145.5l0.2-0.1c0.1,0,0.1,0,0.2,0l0.4,0l0-0.5c0,0,0,0,0,0l0.3-0.3l-0.3,0c0-0.6-0.2-0.7-0.4-0.7
								c-0.2,0-0.3,0.1-0.4,0.7c-0.3,0-0.5,0.1-0.5,0.3c0,0.2,0.2,0.3,0.5,0.3V145.5z"/>
						</g>
					</g>
				</g>
				<g>
					<g>
						<g>
							<path class="st7" d="M523.5,143.1c0.2,0,0.4-0.1,0.4-0.9c0-0.8-0.2-0.9-0.4-0.9c-0.2,0-0.4,0.1-0.4,0.9
								C523.1,143,523.3,143.1,523.5,143.1z"/>
						</g>
					</g>
				</g>
				<g>
					<g>
						<g>
							<path class="st7" d="M523.5,140.3c0.2,0,0.4-0.1,0.4-0.9c0-0.8-0.2-0.9-0.4-0.9c-0.2,0-0.4,0.1-0.4,0.9
								C523.1,140.2,523.3,140.3,523.5,140.3z"/>
						</g>
					</g>
				</g>
				<g>
					<g>
						<g>
							<path class="st7" d="M523.5,137.5c0.2,0,0.4-0.1,0.4-0.9c0-0.8-0.2-0.9-0.4-0.9c-0.2,0-0.4,0.1-0.4,0.9
								C523.1,137.4,523.3,137.5,523.5,137.5z"/>
						</g>
					</g>
				</g>
				<g>
					<g>
						<g>
							<path class="st7" d="M523.5,134.8c0.2,0,0.4-0.1,0.4-0.9c0-0.8-0.2-0.9-0.4-0.9c-0.2,0-0.4,0.1-0.4,0.9
								C523.1,134.7,523.3,134.8,523.5,134.8z"/>
						</g>
					</g>
				</g>
				<g>
					<g>
						<g>
							<path class="st7" d="M523.5,132c0.2,0,0.4-0.1,0.4-0.9c0-0.8-0.2-0.9-0.4-0.9c-0.2,0-0.4,0.1-0.4,0.9
								C523.1,131.9,523.3,132,523.5,132z"/>
						</g>
					</g>
				</g>
				<g>
					<g>
						<g>
							<path class="st7" d="M523.5,129.2c0.2,0,0.4-0.1,0.4-0.9c0-0.8-0.2-0.9-0.4-0.9c-0.2,0-0.4,0.1-0.4,0.9
								C523.1,129.1,523.3,129.2,523.5,129.2z"/>
						</g>
					</g>
				</g>
				<g>
					<g>
						<g>
							<path class="st7" d="M523.5,126.5c0.2,0,0.4-0.1,0.4-0.9c0-0.8-0.2-0.9-0.4-0.9c-0.2,0-0.4,0.1-0.4,0.9
								C523.1,126.4,523.3,126.5,523.5,126.5z"/>
						</g>
					</g>
				</g>
				<g>
					<g>
						<g>
							<path class="st7" d="M523.5,123.7c0.2,0,0.4-0.1,0.4-0.9c0-0.8-0.2-0.9-0.4-0.9c-0.2,0-0.4,0.1-0.4,0.9
								C523.1,123.6,523.3,123.7,523.5,123.7z"/>
						</g>
					</g>
				</g>
				<g>
					<g>
						<g>
							<path class="st7" d="M523.5,121c0.2,0,0.4-0.1,0.4-0.9c0-0.8-0.2-0.9-0.4-0.9c-0.2,0-0.4,0.1-0.4,0.9
								C523.1,120.8,523.3,121,523.5,121z"/>
						</g>
					</g>
				</g>
				<g>
					<g>
						<g>
							<path class="st7" d="M523.5,118.2c0.2,0,0.4-0.1,0.4-0.9c0-0.8-0.2-0.9-0.4-0.9c-0.2,0-0.4,0.1-0.4,0.9
								C523.1,118.1,523.3,118.2,523.5,118.2z"/>
						</g>
					</g>
				</g>
				<g>
					<g>
						<g>
							<path class="st7" d="M523.5,115.4c0.2,0,0.4-0.1,0.4-0.9c0-0.8-0.2-0.9-0.4-0.9c-0.2,0-0.4,0.1-0.4,0.9
								C523.1,115.3,523.3,115.4,523.5,115.4z"/>
						</g>
					</g>
				</g>
				<g>
					<g>
						<g>
							<path class="st7" d="M521.2,111.6c0.8,0,0.9-0.2,0.9-0.4c0-0.2-0.1-0.4-0.9-0.4c-0.8,0-0.9,0.2-0.9,0.4
								C520.3,111.4,520.4,111.6,521.2,111.6z"/>
						</g>
					</g>
				</g>
				<g>
					<g>
						<g>
							<path class="st7" d="M518.5,111.6c0.8,0,0.9-0.2,0.9-0.4c0-0.2-0.1-0.4-0.9-0.4s-0.9,0.2-0.9,0.4
								C517.5,111.4,517.6,111.6,518.5,111.6z"/>
						</g>
					</g>
				</g>
				<g>
					<g>
						<g>
							<path class="st7" d="M515.7,111.6c0.8,0,0.9-0.2,0.9-0.4c0-0.2-0.1-0.4-0.9-0.4s-0.9,0.2-0.9,0.4
								C514.8,111.4,514.9,111.6,515.7,111.6z"/>
						</g>
					</g>
				</g>
				<g>
					<g>
						<g>
							<path class="st7" d="M512.9,111.6c0.8,0,0.9-0.2,0.9-0.4c0-0.2-0.1-0.4-0.9-0.4s-0.9,0.2-0.9,0.4
								C512,111.4,512.1,111.6,512.9,111.6z"/>
						</g>
					</g>
				</g>
				<g>
					<g>
						<g>
							<path class="st7" d="M510.2,111.6c0.8,0,0.9-0.2,0.9-0.4c0-0.2-0.1-0.4-0.9-0.4c-0.8,0-0.9,0.2-0.9,0.4
								C509.2,111.4,509.4,111.6,510.2,111.6z"/>
						</g>
					</g>
				</g>
				<g>
					<g>
						<g>
							<path class="st7" d="M507.4,111.6c0.8,0,0.9-0.2,0.9-0.4c0-0.2-0.1-0.4-0.9-0.4c-0.8,0-0.9,0.2-0.9,0.4
								C506.5,111.4,506.6,111.6,507.4,111.6z"/>
						</g>
					</g>
				</g>
				<g>
					<g>
						<g>
							<path class="st7" d="M504.7,111.6c0.8,0,0.9-0.2,0.9-0.4c0-0.2-0.1-0.4-0.9-0.4c-0.8,0-0.9,0.2-0.9,0.4
								C503.7,111.4,503.8,111.6,504.7,111.6z"/>
						</g>
					</g>
				</g>
				<g>
					<g>
						<g>
							<path class="st7" d="M501.9,111.6c0.8,0,0.9-0.2,0.9-0.4c0-0.2-0.1-0.4-0.9-0.4c-0.8,0-0.9,0.2-0.9,0.4
								C500.9,111.4,501.1,111.6,501.9,111.6z"/>
						</g>
					</g>
				</g>
				<g>
					<g>
						<g>
							<path class="st7" d="M499.1,111.6c0.8,0,0.9-0.2,0.9-0.4c0-0.2-0.1-0.4-0.9-0.4c-0.8,0-0.9,0.2-0.9,0.4
								C498.2,111.4,498.3,111.6,499.1,111.6z"/>
						</g>
					</g>
				</g>
				<g>
					<g>
						<g>
							<path class="st7" d="M496.4,111.6c0.8,0,0.9-0.2,0.9-0.4c0-0.2-0.1-0.4-0.9-0.4c-0.8,0-0.9,0.2-0.9,0.4
								C495.4,111.4,495.5,111.6,496.4,111.6z"/>
						</g>
					</g>
				</g>
				<g>
					<g>
						<g>
							<path class="st7" d="M493.6,111.6c0.8,0,0.9-0.2,0.9-0.4c0-0.2-0.1-0.4-0.9-0.4c-0.8,0-0.9,0.2-0.9,0.4
								C492.7,111.4,492.8,111.6,493.6,111.6z"/>
						</g>
					</g>
				</g>
				<g>
					<g>
						<g>
							<path class="st7" d="M490.8,111.6c0.8,0,0.9-0.2,0.9-0.4c0-0.2-0.1-0.4-0.9-0.4c-0.8,0-0.9,0.2-0.9,0.4
								C489.9,111.4,490,111.6,490.8,111.6z"/>
						</g>
					</g>
				</g>
				<g>
					<g>
						<g>
							<path class="st7" d="M489.8,113.9c0.2,0,0.4-0.1,0.4-0.9c0-0.8-0.2-0.9-0.4-0.9c-0.2,0-0.4,0.1-0.4,0.9
								C489.4,113.8,489.6,113.9,489.8,113.9z"/>
						</g>
					</g>
				</g>
				<g>
					<g>
						<g>
							<path class="st7" d="M489.8,116.6c0.2,0,0.4-0.1,0.4-0.9c0-0.8-0.2-0.9-0.4-0.9c-0.2,0-0.4,0.1-0.4,0.9
								C489.4,116.5,489.6,116.6,489.8,116.6z"/>
						</g>
					</g>
				</g>
				<g>
					<g>
						<g>
							<path class="st7" d="M489.8,119.4c0.2,0,0.4-0.1,0.4-0.9c0-0.8-0.2-0.9-0.4-0.9c-0.2,0-0.4,0.1-0.4,0.9
								C489.4,119.3,489.6,119.4,489.8,119.4z"/>
						</g>
					</g>
				</g>
				<g>
					<g>
						<g>
							<path class="st7" d="M489.8,122.2c0.2,0,0.4-0.1,0.4-0.9s-0.2-0.9-0.4-0.9c-0.2,0-0.4,0.1-0.4,0.9
								C489.4,122.1,489.6,122.2,489.8,122.2z"/>
						</g>
					</g>
				</g>
				<g>
					<g>
						<g>
							<path class="st7" d="M489.8,124.9c0.2,0,0.4-0.1,0.4-0.9s-0.2-0.9-0.4-0.9c-0.2,0-0.4,0.1-0.4,0.9
								C489.4,124.8,489.6,124.9,489.8,124.9z"/>
						</g>
					</g>
				</g>
				<g>
					<g>
						<g>
							<path class="st7" d="M489.8,127.7c0.2,0,0.4-0.1,0.4-0.9c0-0.8-0.2-0.9-0.4-0.9c-0.2,0-0.4,0.1-0.4,0.9
								C489.4,127.6,489.6,127.7,489.8,127.7z"/>
						</g>
					</g>
				</g>
				<g>
					<g>
						<g>
							<path class="st7" d="M489.8,130.5c0.2,0,0.4-0.1,0.4-0.9c0-0.8-0.2-0.9-0.4-0.9c-0.2,0-0.4,0.1-0.4,0.9
								C489.4,130.3,489.6,130.5,489.8,130.5z"/>
						</g>
					</g>
				</g>
				<g>
					<g>
						<g>
							<path class="st7" d="M489.8,133.2c0.2,0,0.4-0.1,0.4-0.9s-0.2-0.9-0.4-0.9c-0.2,0-0.4,0.1-0.4,0.9
								C489.4,133.1,489.6,133.2,489.8,133.2z"/>
						</g>
					</g>
				</g>
				<g>
					<g>
						<g>
							<path class="st7" d="M489.8,136c0.2,0,0.4-0.1,0.4-0.9c0-0.8-0.2-0.9-0.4-0.9c-0.2,0-0.4,0.1-0.4,0.9
								C489.4,135.9,489.6,136,489.8,136z"/>
						</g>
					</g>
				</g>
				<g>
					<g>
						<g>
							<path class="st7" d="M489.8,138.7c0.2,0,0.4-0.1,0.4-0.9c0-0.8-0.2-0.9-0.4-0.9c-0.2,0-0.4,0.1-0.4,0.9
								C489.4,138.6,489.6,138.7,489.8,138.7z"/>
						</g>
					</g>
				</g>
				<g>
					<g>
						<g>
							<path class="st7" d="M489.8,141.5c0.2,0,0.4-0.1,0.4-0.9c0-0.8-0.2-0.9-0.4-0.9c-0.2,0-0.4,0.1-0.4,0.9
								C489.4,141.4,489.6,141.5,489.8,141.5z"/>
						</g>
					</g>
				</g>
				<g>
					<g>
						<g>
							<path class="st7" d="M489.8,144.3c0.2,0,0.4-0.1,0.4-0.9c0-0.8-0.2-0.9-0.4-0.9c-0.2,0-0.4,0.1-0.4,0.9
								C489.4,144.2,489.6,144.3,489.8,144.3z"/>
						</g>
					</g>
				</g>
			</g>
			<g>
				<g>
					<rect x="488.5" y="143.4" class="st7" width="2.5" height="2.5"/>
					<path class="st7" d="M488.3,143.2v3h3v-3H488.3z M490.8,145.6h-2v-2h2V145.6z"/>
				</g>
			</g>
			<g>
				<g>
					<rect x="522.3" y="143.7" class="st7" width="2.5" height="2.5"/>
					<path class="st7" d="M522,143.5v3h3v-3H522z M524.5,146h-2v-2h2V146z"/>
				</g>
			</g>
			<g>
				<g>
					<rect x="488.5" y="109.7" class="st7" width="2.5" height="2.5"/>
					<path class="st7" d="M488.3,109.5v3h3v-3H488.3z M490.8,112h-2v-2h2V112z"/>
				</g>
			</g>
			<g>
				<g>
					<rect x="522.3" y="110" class="st7" width="2.5" height="2.5"/>
					<path class="st7" d="M522,109.7v3h3v-3H522z M524.5,112.2h-2v-2h2V112.2z"/>
				</g>
			</g>
		</g>
	</g>
</g>
<g>
	<defs>
		<rect id="SVGID_1_" x="310.5" y="58" width="206.6" height="267.8"/>
	</defs>
	<clipPath id="SVGID_2_">
		<use xlink:href="#SVGID_1_"  style="overflow:visible;"/>
	</clipPath>
	<g class="st8">
		<g>
			<g>
				<path class="st9" d="M321.9,89.2c2-2,2.6-5.1,5.6-6c2.5-0.7,3.8-1.9,5.2-2.9c-2.4-2.8-5.7-7.8-7-11.7c-1.1-3.3,1-3.6,2.1-2.2
					c2.5,3,9.2,9.2,11.6,13.3c0,0,0,0.1,0,0.1c2.1,2.6,5.5,13.9,5.5,16.2c0,3.4-1.8,4-1.5,12.7c-1,14.8,13.4,54.9,13.1,60.5
					c-0.9,18-29.8,18.8-33.6,1.8c-3-13.5,3.9-48.1,8.2-61.2l0,0c2.3-6.8-5.9-7.6-8.1-11.1C321,95.2,319.9,91.1,321.9,89.2z"/>
			</g>
			<path class="st5" d="M430,96.4c2.6-7.5,11.7-15.1,26-3.7c15.2,12,21.5,75.6,22,118c0,0-4.2,3.4-11.1,1.6c0,0-2-20.9-2.4-24.1
				c0,0,0,18.7-0.7,22.3c0,0-5.4,2.7-9.5-1.2c0,0,4.5-70-8.2-88.8C434,102.8,427.3,104.3,430,96.4z"/>
			<g>
				<path class="st5" d="M410.9,278.5c0,0-27.8,31.4-33.4,80.2c-5.6,48.7-14.6,86.8-14.7,117.3c-0.1,30.5-1.8,74.3-8.9,86.5
					c0,0,39.1,16.6,85.7,10.4c0,0,0.5-118.7-0.4-167.1c-0.9-48.4-2.7-124.3-2.7-124.3L410.9,278.5z"/>
			</g>
			<g>
				<path class="st5" d="M428.5,345.5c0,0-6.4,3.3-16.7-8.2c0,0,16.6,49.3,29.3,77.3C441.1,414.6,428.1,353.7,428.5,345.5z"/>
			</g>
			<g>
				<path class="st5" d="M467.2,276.7c0,0,30.5,39.7,43.7,92.1c13.3,52.4,1.2,55.8,19.9,94.5c18.6,38.7,13.8,31.7,28.3,70.7
					c0,0-37.9,34.1-80.5,36.2c0,0-36.2-142.5-45.5-188.9c-9.3-46.4-10-75.3-12.9-92.6L467.2,276.7z"/>
			</g>
			<g>
				<g>
					<path class="st0" d="M553.5,535.8l1.2-0.3c-0.2-0.5-15.5-52.8-30.1-76.2c-9.8-15.6-10.9-25.7-12.8-43.9
						c-0.9-8.9-2.1-20.1-4.7-34.7c-7.6-43.6-34.8-89.6-35.1-90.1l-1.1,0.6c0.3,0.5,27.3,46.3,34.9,89.7c2.6,14.6,3.7,25.7,4.7,34.6
						c1.9,18.4,3,28.6,13,44.4C538.1,483.1,553.3,535.2,553.5,535.8z"/>
				</g>
			</g>
			<g>
				<g>
					<path class="st5" d="M467.5,528.2l1.2-0.3C458.3,486.3,440,412,433.8,381.1c-2.9-14.7-5.3-29-7.2-43.8l-1.2,0.2
						c1.9,14.8,4.3,29.2,7.2,43.9C438.8,412.3,457.1,486.6,467.5,528.2z"/>
				</g>
			</g>
			<g>
				<path class="st10" d="M426.1,168.4c-12.6-6-46.1-9.9-69.7-13.2c-2.9,8.5-27.6,12.6-27.4,27.2c11.1,9.3,34.7,19,51.3,20.1
					C401.4,204,460.8,184.8,426.1,168.4z"/>
			</g>
			<g>
				<g>
					<path class="st10" d="M425.2,164.3c7.5,0.2,22.9-0.2,28.5,1.4c25.8,7.4,24.2,25.8,23,45.9c-2.6,41.7,10.2,94.2,10.2,94.2
						s-49.4,24.6-92.9-9.8c0,0,19.7-40,0.2-69c-14.7-22,5.8-41.7,8.2-54.5C404,164,421.2,164.2,425.2,164.3z"/>
				</g>
				<g>
					<g>
						<path class="st0" d="M479.1,308.4l-0.3-1.2c3.6-0.8,6.2-1.5,7.3-1.8c-1.2-4.4-12.4-55.8-10-93.8l0.1-1
							c1.1-18.2,2.1-33.8-16.2-42l0.5-1.2c19.1,8.5,18,25.4,16.9,43.2l-0.1,1c-2.6,41.1,10.1,93.7,10.1,94l0.2,0.6l-0.6,0.2
							C487,306.5,484,307.3,479.1,308.4z"/>
					</g>
				</g>
				<g>
					<g>
						<path class="st0" d="M401.9,273.5l-1.2-0.3c3-11.5,4.3-28.9-7.1-45.7c-8.3-12.4-5.3-23.9-2.3-31.5l1.2,0.5
							c-2.9,7.3-5.8,18.4,2.2,30.3C406.3,244,405,261.7,401.9,273.5z"/>
					</g>
				</g>
				<g>
					<g>
						<path class="st0" d="M410.9,232.9c-0.1,0-0.2,0-0.3,0c-7.1-0.1-12.9-1.9-16.8-5.2l0.8-1c3.6,3.1,9.3,4.8,16,4.9
							c0.2,0,0.3,0,0.4,0L410.9,232.9z"/>
					</g>
				</g>
				<g>
					<path class="st9" d="M458.6,169.2c-2.6-1.4-1.2-2.9-4.9-3.5c-20-3.2-35-1.2-36.5-1.2c-6.5,0.2-8.1,6.1-7.2,12.6
						C412.1,192.8,442.2,190.3,458.6,169.2z"/>
				</g>
				<g>
					<g>
						<path class="st0" d="M429.1,231.7c-9.1-10-5.5-23.5-5.5-23.6l1.2,0.3c0,0.1-3.4,12.9,5.2,22.4L429.1,231.7z"/>
					</g>
				</g>
			</g>
			<g>
				<g>
					<path class="st10" d="M450.6,281.5c9.2-9.1,26.4-48.4,27.6-83.4c1.1-33.3-30.4-21-36.6-4c-4.2,11.5-17.6,63.6-16.5,73.9
						C426.7,282.9,445.6,286.5,450.6,281.5z"/>
				</g>
				<g>
					<g>
						<path class="st0" d="M451.2,279.8c16.9-20,23.1-50.8,23.2-51.1l1.2,0.2c-0.1,0.3-6.3,31.4-23.4,51.7L451.2,279.8z"/>
					</g>
				</g>
			</g>
			<g>
				<g>
					<path class="st0" d="M428.1,243.6c2-10.9,10-28.5,10.1-28.6l1.2,0.5c-0.1,0.2-8,17.6-10,28.3L428.1,243.6z"/>
				</g>
			</g>
			<g>
				<path class="st9" d="M335.8,318.2c-0.7-1.6,4.5-5.1,5-13.8c0.5-8.8,4-5.5,10.3-10c6.3-4.5,7-6.5,14.6-3.1
					c7.6,3.4,9.8,3,13.2,0.6c3.4-2.4,37.7-26.8,49.9-33.2c12.2-6.5,31.3,8.6,19.3,24.9l-79.4,28.1c0,0-7,1.5-10.6-3.6
					c-3.5-5.1-9.1,0.1-9.4,3.2c-0.3,3.2,2.2,6.3-0.7,7.2c-2.9,0.9-4.4-3.5-4.4-3.5S337,320.9,335.8,318.2z"/>
			</g>
			<g>
				<g>
					<path class="st5" d="M451.9,139.2c-3.2,5.5-8.9,9.2-8.2-2.5c0.8-14.4-41.1-21-25-32.7C442.8,86.5,464.6,117.3,451.9,139.2z"/>
					<path class="st9" d="M420.4,147.2v22.5c1.2,1.8,7.9,9.8,24.9-1.4v-30.5C445.3,137.8,435.9,142.3,420.4,147.2z"/>
					<path class="st5" d="M420.4,154v10c13.2,0.3,13.5-12.9,13.5-12.9C427.5,155.2,422.3,154.2,420.4,154z"/>
					<path class="st9" d="M421.7,157.1c7.2-0.1,20.2-9.8,23.1-16.3c1-2.3,0.6-8.5-0.3-11.5c-3-9.4-5.3-17.9-12.6-20.5
						c-3.1-1.1-14.2,2.7-17,3.3c-5.4,1.2-7.7,6.6-7.8,16.1C407,138.8,409.1,157.2,421.7,157.1z"/>
					<path class="st5" d="M443.2,124.1c0,0-4.2,4.9-7.6-2.7c-4.2-9.3-19-7.9-25.2-6.7c0,0-0.9,0.7-3.2,8.8c0,0-3.7-16.1,14.5-20.1
						C439.5,99.4,444.3,116.6,443.2,124.1z"/>
					<path class="st9" d="M438.2,128.6c-1.1,3.5,0.8,7.3,4.3,8.4c3.5,1.1,7.3-0.8,8.4-4.3c1.1-3.5-0.8-7.3-4.3-8.4
						C443.1,123.2,439.3,125.1,438.2,128.6z"/>
				</g>
			</g>
			<path class="st10" d="M429.6,94.7c0,0-2.3,2.4-0.6,4.7c0,0,11.4,0,16.5,6c0,0,2.7-2.3,2.5-5.5C447.9,99.9,438,92,429.6,94.7z"/>
		</g>
	</g>
</g>
<g>
	
		<rect x="287.8" y="317.7" transform="matrix(-1 -1.224647e-16 1.224647e-16 -1 720.0982 642.9209)" class="st0" width="144.5" height="7.6"/>
	<g>
		<path class="st0" d="M287.4,317.3h145.3v8.4H287.4V317.3z M431.9,318.1H288.2v6.8h143.7V318.1z"/>
	</g>
</g>
<g id="XMLID_17_">
	<g id="XMLID_18_">
		<path class="st5" d="M212,197.9h154.5c2.6,0,5.9,2.3,6.1,5.1l6.8,97.2c0.2,2.8-1.5,5.7-4.3,5.7H219.6c-2.9,0-4.8-2.9-5-5.7
			l-6.9-97.2C207.6,200.1,209.5,197.9,212,197.9z"/>
		<path class="st0" d="M210.5,197.9h154.1c2.5,0,4.7,2.2,4.9,4.9l6.7,96.5c0.2,2.7-1.7,4.9-4.2,4.9H217.9c-2.5,0-4.7-2.2-4.9-4.9
			l-6.7-96.5C206.1,200.1,208,197.9,210.5,197.9z"/>
		<g>
			<g>
				<path class="st5" d="M227.4,293.8l-4.5-64.1c-0.1-1.1,0.3-2.1,1-2.8c0.6-0.7,1.5-1,2.4-1h102.3c2,0,3.7,1.7,3.8,3.8l4.5,64.1
					c0.1,1.1-0.3,2.1-1,2.8c-0.6,0.7-1.5,1-2.4,1H231.2C229.2,297.6,227.5,295.9,227.4,293.8z M226.3,226.9c-0.6,0-1.2,0.2-1.6,0.7
					c-0.5,0.5-0.7,1.2-0.7,2l4.5,64.1c0.1,1.5,1.3,2.8,2.7,2.8h102.3c0.6,0,1.2-0.2,1.6-0.7c0.5-0.5,0.7-1.2,0.7-2l-4.5-64.1
					c-0.1-1.5-1.3-2.8-2.7-2.8H226.3z"/>
			</g>
		</g>
		<g>
			<path class="st5" d="M267.2,304.8H372c1.3,0,2.5-0.5,3.4-1.5c1-1,1.5-2.5,1.4-4l-6.7-96.5c-0.2-3-2.7-5.4-5.5-5.4h-21.8v1.1h21.8
				c2.3,0,4.2,2,4.4,4.4l6.7,96.5c0.1,1.2-0.3,2.4-1.1,3.2c-0.7,0.7-1.6,1.1-2.6,1.1H267.2V304.8z"/>
		</g>
		<g>
			<path class="st5" d="M217.9,304.8v-1.1c-2.3,0-4.2-2-4.4-4.4l-6.7-96.5c-0.1-1.2,0.3-2.4,1.1-3.2c0.7-0.7,1.6-1.1,2.6-1.1h59.9
				v-1.1h-59.9c-1.3,0-2.5,0.5-3.4,1.5c-1,1-1.5,2.5-1.4,4l6.7,96.5C212.7,302.4,215.1,304.8,217.9,304.8z"/>
		</g>
		<g id="XMLID_24_">
			<path id="XMLID_25_" class="st0" d="M303.1,311.9c-0.2-1.3-2.4-13.8-3.5-20.7c-0.4-2.6-2.7-4.4-5.3-4.4h-5.7l-14,38.6
				c1.6,0,34.9,0,49.1,0c0.4,0,0.2-0.8-0.2-0.8C304.1,325.1,303.5,314.9,303.1,311.9z"/>
		</g>
		<path id="XMLID_20_" class="st0" d="M301.6,314.2c-0.1-0.6-2.8-16-4.1-23.5c-0.4-2.3-2.4-4-4.8-4l-29.2,0.1
			c-3.1,0-5.3,2.8-4.8,5.8c1.3,6.9,3.4,17.8,3.6,19.5c0.2,2.6-0.1,6.7-4.9,8.4c-5.7,2.1-20,3.8-20.1,4c-0.5,0.4,0,0.9,0.3,0.9
			l36.9-0.2c0.1,0,0.2,0,0.2,0c1.6-0.1,19.9-1.8,19.9-1.8C299.4,322.8,302.3,319.5,301.6,314.2z"/>
		<g id="XMLID_19_">
			<path class="st5" d="M237.6,326l36.4-0.2l0-1.1l-35.6,0.2c0.4-0.1,0.8-0.1,1.3-0.2c4.4-0.7,13.6-2,18.1-3.7
				c3.9-1.4,5.7-4.5,5.3-9c-0.2-1.7-2.1-11.6-3.6-19.6c-0.2-1.3,0.1-2.6,0.9-3.6c0.8-1,2-1.6,3.3-1.6l29.2-0.1l0-1.1l-29.2,0.1
				c-1.6,0-3.1,0.7-4.2,2c-1,1.2-1.4,2.9-1.1,4.5c2.2,11.2,3.5,18.2,3.6,19.5c0.4,4-1.2,6.6-4.6,7.9c-4.3,1.6-13.8,3-17.9,3.6
				c-2.3,0.3-2.3,0.3-2.5,0.5c-0.4,0.3-0.5,0.7-0.4,1.1C236.7,325.7,237.2,326,237.6,326z"/>
		</g>
		<g>
			<rect x="242.3" y="236.3" class="st5" width="67.2" height="1.1"/>
		</g>
		<g>
			<rect x="242" y="241.1" class="st5" width="67.2" height="1.1"/>
		</g>
	</g>
</g>
<g>
	<rect x="213.4" y="325.8" class="st11" width="309.9" height="2.4"/>
</g>
<g>
	<g>
		<path class="st12" d="M200.7,80.2L200.7,80.2l20.4,0v0c0.3-16.9,13.3-30.8,29.7-32.6l0.4-20.4C223.4,29,201.2,52,200.7,80.2z"/>
	</g>
	<g>
		<path class="st13" d="M204.8,85.9c-0.5,29.4,22.9,53.2,52.3,53.2c28.1,0,51.6-21.9,53.9-49.5h-20.4c-2.1,16.4-16.2,29.2-33.1,29.2
			c-18.1,0-32.6-14.7-32.3-32.8H204.8z"/>
	</g>
	<g>
		<g>
			<path class="st14" d="M345.5,79.1h-43.8l-0.2-10.4c-0.3-13.2-10.8-23.9-24-24.4L267,43.8L267.8,0l10.9,0.3
				c37.2,0.9,66.5,30.7,66.8,67.9L345.5,79.1z M302.8,77.9h41.5l-0.1-9.7c-0.2-36.6-29-65.9-65.6-66.8l-9.7-0.2l-0.7,41.5l9.2,0.3
				c13.8,0.5,24.9,11.8,25.2,25.6L302.8,77.9z"/>
		</g>
		<g>
			<path class="st15" d="M340.1,73.7l0-5.5c-0.2-34.3-27.2-61.9-61.6-62.6L273,5.4l-0.6,33.3l5.2,0.2c16,0.6,28.8,13.6,29.1,29.6
				l0.1,5.2H340.1z"/>
		</g>
	</g>
</g>
<g id="XMLID_2201_">
	<g id="XMLID_2235_">
		<g id="XMLID_2236_">
			<g id="XMLID_2237_">
				<g id="XMLID_2238_">
					<path id="XMLID_2239_" class="st16" d="M424.2,142c0.1,0.2,0.1,0.3,0,0.5c0,0.1-0.1,0.2-0.1,0.2c-0.1,0.1-0.2,0.1-0.3,0.1
						c-0.1,0-0.2,0.1-0.3,0.1l-0.4,0.1c-0.2,0-0.3,0-0.4,0s-0.2,0-0.3,0c-0.1,0.1-0.2,0.1-0.3,0.1c-0.1,0-0.2,0-0.3,0
						c-0.6,0-1.2-0.1-1.9-0.3c-0.2-0.1-0.3-0.2-0.5-0.3c-0.1,0-0.2-0.1-0.3-0.1s-0.2-0.1-0.3-0.2c-0.2-0.2-0.4-0.4-0.5-0.6
						c-0.1-0.1-0.1-0.2-0.2-0.3c-0.3-0.4-0.4-0.8-0.5-1.3c0-0.2,0-0.5,0-0.7c0-0.1,0-0.3,0-0.4c0,0,0,0,0-0.1v-0.4
						c0-0.2,0.1-0.3,0.1-0.4s0.1-0.2,0.1-0.3s0-0.2,0-0.3c0.1-0.1,0.1-0.2,0.1-0.3c0.1-0.6,0.2-1.1,0.3-1.7c0-0.1,0.1-0.2,0.1-0.4
						c0-0.1,0-0.2,0-0.3s0.1-0.2,0.1-0.3c0-0.2,0-0.4,0.1-0.6c0.1,0,0.1-0.1,0.1-0.2c0.1-0.4,0.1-0.7,0.2-1.1c0-0.2,0.1-0.4,0.1-0.6
						c0.1-0.2,0.1-0.4,0.2-0.5l0,0l0,0c0-0.2,0-0.3,0-0.5c0-0.2,0.1-0.3,0.1-0.4c0.1-0.4,0.1-0.7,0.2-1c0-0.2,0-0.3,0-0.4
						s0.1-0.2,0.1-0.4c0.1-0.1,0.1-0.1,0.1-0.2s0.1-0.2,0.3-0.3c0.1-0.1,0.3-0.1,0.5-0.1c0.2,0.1,0.4,0.2,0.5,0.3
						c0,0,0.1,0.1,0.1,0.2c0,0.1,0,0.1,0,0.2c0,0.2,0,0.4-0.1,0.6c-0.1,0.4,0,0.7-0.1,1l-0.1,0.5c-0.1,0.1-0.1,0.2-0.1,0.3
						c-0.1,0.1-0.1,0.1-0.1,0.2c0,0.3,0,0.6-0.1,0.8c0,0.3-0.1,0.5-0.1,0.7c0,0.2-0.1,0.5-0.2,0.7v0.2c0,0.1,0,0.2,0,0.3l-0.1,0.4
						c0,0.2-0.1,0.4-0.1,0.7c0.1,0.3-0.1,0.6-0.1,0.8c0,0.1-0.1,0.1-0.1,0.2c0,0.1,0,0.1,0,0.2c0,0.2,0,0.3,0,0.4l-0.1,0.4l-0.1,0.3
						v0.2l-0.1,0.5c0,0.1,0,0.2,0,0.3l0,0v0.1v0.1c0,0.4,0,0.5,0,0.7c0,0.3,0,0.5,0.1,0.7c0,0.1,0,0.3,0.1,0.5l0.1,0.1
						c0.1,0.1,0.2,0.1,0.2,0.2c0.1,0.1,0.1,0.1,0.2,0.2c0.1,0.1,0.2,0.2,0.4,0.3c0.3,0,0.4,0.2,0.7,0.2c0.1,0,0.1,0.1,0.2,0.1
						c0.2,0,0.3,0,0.4,0h0.4c0.3,0,0.6,0,0.8,0c0.1,0,0.2,0,0.3,0c0.1,0,0.3,0,0.4,0l0.3-0.1c0,0,0.1,0,0.2,0
						c0.2,0.1,0.3,0.2,0.4,0.4C424.6,142.2,424.6,142.2,424.2,142z"/>
				</g>
			</g>
		</g>
	</g>
	<g id="XMLID_2230_">
		<g id="XMLID_2231_">
			<g id="XMLID_2232_">
				<g id="XMLID_2233_">
					<path id="XMLID_2234_" class="st16" d="M449,130.8c-0.1,0.1-0.3,0.2-0.4,0.3c-0.1,0.1-0.2,0.1-0.2,0.1c-0.1,0-0.1-0.1-0.1-0.1
						h-0.1l-0.1-0.1l-0.1-0.1c-0.1,0-0.1-0.1-0.1-0.1h-0.1l-0.1-0.1c-0.2-0.1-0.5-0.2-0.7-0.3c-0.1,0-0.1-0.1-0.2-0.1h-0.1h-0.1
						c0,0-0.1-0.1-0.2-0.1h-0.1c-0.2,0-0.3,0-0.5,0c0,0-0.1,0-0.2,0h-0.1h-0.1h-0.1h-0.1h-0.1c0,0.1-0.1,0.1-0.1,0.1h-0.1
						c-0.3,0-0.5,0.2-0.7,0.3c-0.1,0.1-0.1,0.1-0.2,0.1s-0.1,0.1-0.1,0.1c0,0.1-0.1,0.1-0.1,0.1s-0.1,0.1-0.2,0.1
						c0,0.1-0.1,0.1-0.1,0.1c-0.1,0.2-0.2,0.3-0.3,0.4c-0.1,0.1-0.1,0.1-0.2,0.2c-0.1,0-0.1,0.1-0.2,0.1l0,0l0,0
						c0,0.1-0.1,0.1-0.1,0.2L443,132c-0.1,0.1-0.1,0.3-0.2,0.4v0.1c-0.1,0-0.1,0.1-0.1,0.1v0.1c0,0.1,0,0.1-0.2,0.1
						c-0.2,0-0.3,0-0.5,0c-0.2,0-0.4-0.1-0.5-0.2c-0.1-0.1-0.2-0.1-0.2-0.2v-0.1c0-0.1,0-0.2,0.1-0.3c0.1-0.2,0.1-0.4,0.2-0.6
						l0.2-0.3l0.1-0.1l0.1-0.1c0.1-0.1,0.2-0.3,0.3-0.4c0.1-0.2,0.2-0.3,0.3-0.4c0-0.1,0.2-0.1,0.3-0.2l0.1-0.1l0.1-0.1l0.2-0.1
						c0.1-0.1,0.2-0.2,0.3-0.3c0.1-0.2,0.3-0.2,0.4-0.3h0.1h0.1c0.1,0,0.1-0.1,0.2-0.1l0.2-0.1c0.1,0,0.1,0,0.2,0h0.1l0.3-0.1
						c0.1,0,0.1,0,0.2,0l0,0h0.1l0,0c0.2-0.1,0.3-0.1,0.5-0.1c0.2,0,0.3,0,0.5,0c0.1,0,0.3,0.1,0.4,0.1h0.1c0.1,0,0.1,0,0.2,0
						l0.2,0.1c0.1,0,0.2,0.1,0.4,0.1c0.2-0.1,0.3,0.1,0.5,0.1c0,0,0,0.1,0.1,0.1c0,0.1,0.1,0.1,0.2,0.1l0.2,0.1
						c0.1,0.1,0.3,0.3,0.4,0.4c0,0,0,0.1,0.1,0.1c0.1,0,0.1,0.1,0.2,0.2l0.2,0.1c0.1,0,0.1,0,0.1,0.1s0,0.2-0.2,0.4
						C449.1,130.8,449.1,130.9,449,130.8z"/>
				</g>
			</g>
		</g>
	</g>
	<g id="XMLID_2225_">
		<g id="XMLID_2226_">
			<g id="XMLID_2227_">
				<g id="XMLID_2228_">
					<path id="XMLID_2229_" class="st16" d="M447.6,134.9c-0.2,0-0.4,0-0.5,0s-0.2,0-0.2,0v-0.1c-0.1,0-0.1-0.1-0.1-0.1v-0.1v-0.1
						v-0.1c0-0.1-0.1-0.1-0.1-0.1v-0.1c-0.1-0.2-0.2-0.3-0.3-0.5c-0.1,0-0.1,0-0.1-0.1h-0.1c-0.1,0-0.1-0.1-0.1-0.1
						c0-0.1-0.1-0.1-0.1-0.2s0-0.1,0-0.1c-0.1-0.1-0.2-0.2-0.3-0.3c-0.1,0-0.2-0.1-0.2-0.1c0-0.1-0.1-0.1-0.1-0.1l0,0l-0.1-0.1
						l-0.1-0.1c0-0.1-0.1-0.1-0.1-0.1h-0.1h-0.1c-0.2-0.1-0.4-0.1-0.6-0.1c0,0,0,0-0.1,0c0-0.1-0.1,0-0.1,0h-0.1c-0.1,0-0.1,0-0.2,0
						h-0.1c-0.1,0-0.3,0.1-0.4,0.1c-0.1,0-0.1,0-0.2,0s-0.1,0.1-0.2,0l0,0l0,0l-0.1,0.1H443c-0.1,0.1-0.2,0.2-0.3,0.2
						c-0.1,0-0.1,0.1-0.1,0.1c0,0.1-0.1,0.1-0.1,0.1h-0.1c0,0-0.1,0-0.2-0.1c-0.1-0.1-0.2-0.2-0.4-0.3c-0.1-0.1-0.3-0.3-0.3-0.4
						c-0.1-0.1-0.1-0.1-0.1-0.2s0.1-0.1,0.1-0.1c0.1-0.1,0.2-0.2,0.3-0.2c0.2,0,0.2-0.2,0.4-0.3l0.3-0.1c0-0.1,0.1-0.1,0.1-0.1h0.1
						c0.1-0.1,0.3-0.2,0.4-0.2c0.1,0,0.3-0.1,0.4-0.1c0.2,0,0.3,0,0.4,0h0.1c0,0,0,0,0.1,0h0.2c0.1,0,0.2,0,0.4,0
						c0.2-0.1,0.3,0,0.5,0h0.1h0.1c0.1,0,0.1,0,0.2,0l0.2,0.1c0,0.1,0,0.1,0.1,0.1h0.1l0.3,0.1c0,0.1,0.1,0.1,0.1,0.1l0,0l0,0l0,0
						c0.2,0,0.3,0.1,0.4,0.2c0.1,0,0.2,0.1,0.3,0.2c0.1,0.1,0.1,0.2,0.2,0.3l0.1,0.1c0,0.1,0.1,0.1,0.1,0.1l0.1,0.1
						c0,0.1,0.1,0.2,0.2,0.3c0.2,0,0.2,0.2,0.3,0.3c0,0.1,0,0.2,0,0.2c0,0.1,0.1,0.1,0.1,0.2l0.1,0.2c0.1,0.2,0.1,0.3,0.1,0.5
						c0.1,0,0.1,0.1,0.1,0.1s0,0.1,0,0.2v0.2v0.1c-0.1,0.1-0.2,0.1-0.4,0.2C447.7,134.7,447.7,134.7,447.6,134.9z"/>
				</g>
			</g>
		</g>
	</g>
	<g id="XMLID_2220_">
		<g id="XMLID_2221_">
			<g id="XMLID_2222_">
				<g id="XMLID_2223_">
					<path id="XMLID_2224_" class="st16" d="M429.1,145.2c0.1,0,0.3,0.1,0.4,0.2l0.1,0.1c0.1,0.1,0,0.1,0,0.2c0,0.1,0,0.1,0,0.2
						l-0.1,0.2c0,0.1-0.1,0.2-0.1,0.2l-0.1,0.1v0.1l-0.1,0.1c-0.2,0.3-0.4,0.6-0.6,0.7c-0.1,0.1-0.1,0.1-0.2,0.2
						c-0.1,0-0.1,0.1-0.1,0.1l-0.1,0.1c-0.1,0.1-0.2,0.1-0.3,0.2l-0.1,0.1c-0.1,0.1-0.3,0.3-0.5,0.4c-0.1,0.1-0.2,0.2-0.3,0.2
						s-0.1,0.1-0.2,0.1s-0.1,0-0.1,0l-0.2,0.1c-0.1,0.1-0.1,0.1-0.2,0.1s-0.2,0-0.2,0l-0.1,0.1c-0.1,0.1-0.1,0.1-0.2,0.1
						c-0.3,0.1-0.6,0.2-0.8,0.3c0,0-0.1,0-0.2,0l-0.1,0.1c-0.1,0-0.1,0-0.2,0c-0.1,0-0.2,0-0.3,0h-0.1c-0.3,0-0.5,0-0.7,0
						c-0.1,0-0.2,0-0.3,0c-0.1,0-0.2,0-0.3-0.1l0,0l0,0c-0.1,0-0.2,0-0.3,0s-0.1-0.1-0.2-0.1c-0.2-0.1-0.4-0.1-0.6-0.2
						c-0.1,0-0.1,0-0.2,0s-0.1-0.1-0.2-0.1c0-0.1-0.1-0.1-0.1-0.1c-0.1-0.1-0.1-0.1-0.1-0.3c0-0.2,0-0.3,0.1-0.5
						c0.1-0.1,0.2-0.3,0.3-0.4c0.1,0,0.2-0.1,0.2-0.1h0.1c0.1,0,0.1,0,0.2,0.1c0.1,0.1,0.3,0,0.4,0.1l0.2,0.1h0.1h0.1
						c0.2-0.1,0.3,0,0.4,0s0.2,0,0.3,0c0.1,0,0.2,0.1,0.3,0.1h0.1h0.1h0.2c0.1,0,0.2-0.1,0.3-0.1c0-0.1,0.2,0,0.3-0.1h0.1h0.1
						l0.1-0.1h0.2h0.1h0.1l0.2-0.1h0.1l0,0l0,0l0,0c0.1-0.1,0.2-0.1,0.3-0.2c0.1-0.1,0.2-0.1,0.3-0.2c0.1,0,0.2,0,0.3-0.1h0.1
						c0.1,0,0.1-0.1,0.1-0.1l0.1-0.1c0.1,0,0.1-0.1,0.2-0.2c0-0.1,0.2-0.2,0.2-0.3s0.1-0.1,0.1-0.1c0.1-0.1,0.1-0.2,0.1-0.2l0.1-0.1
						c0.1-0.1,0.2-0.2,0.3-0.3v-0.1c0,0,0.1,0,0.1-0.1l0.1-0.1c0-0.1,0.1-0.1,0.1-0.1c0.2-0.1,0.3-0.1,0.5,0
						C428.8,145.5,428.9,145.5,429.1,145.2z"/>
				</g>
			</g>
		</g>
	</g>
	<g id="XMLID_2216_">
		<g id="XMLID_2217_">
			<g id="XMLID_2218_">
				<path id="XMLID_2219_" class="st16" d="M433,133.3v-0.7c0-0.9-0.7-1.7-1.5-1.7c-1.1,0-1.7,0.7-1.7,1.5v0.7
					c0,0.9,0.7,1.6,1.6,1.7l0,0C432.2,134.8,432.9,134.1,433,133.3z"/>
			</g>
		</g>
	</g>
	<g id="XMLID_2212_">
		<g id="XMLID_2213_">
			<g id="XMLID_2214_">
				<path id="XMLID_2215_" class="st16" d="M416.1,132.3v-0.7c0-0.9-0.7-1.7-1.5-1.7c-1.1-0.1-1.7,0.7-1.7,1.5v0.7
					c0,0.9,0.7,1.6,1.6,1.7c-0.1,0,0,0,0,0C415.4,133.8,416.1,133.2,416.1,132.3z"/>
			</g>
		</g>
	</g>
	<g id="XMLID_2207_">
		<g id="XMLID_2208_">
			<g id="XMLID_2209_">
				<g id="XMLID_2210_">
					<path id="XMLID_2211_" class="st16" d="M435.2,128c-0.1,0.1-0.2,0.2-0.3,0.3c-0.1,0-0.2,0.1-0.2,0.1c-0.1,0.1-0.1,0-0.1,0h-0.1
						l-0.1-0.1l-0.1-0.1c-0.1,0-0.1-0.1-0.1-0.1h-0.1c0-0.1-0.1-0.1-0.1-0.1c-0.1-0.1-0.3-0.2-0.5-0.3l-0.1-0.1h-0.1h-0.1
						c-0.1,0-0.1-0.1-0.2-0.1h-0.1c-0.1,0-0.3-0.1-0.4-0.1c-0.1-0.1-0.1-0.1-0.2-0.1h-0.1l0,0h-0.1h-0.1c0-0.1-0.1-0.1-0.1-0.1H432
						H432c-0.2-0.1-0.4-0.1-0.6-0.1c-0.1,0-0.1,0-0.2,0l-0.1,0.1H431c-0.1,0-0.1,0-0.2,0h-0.1c-0.1,0.1-0.3,0.1-0.4,0.1
						s-0.1,0-0.2,0s-0.1,0.1-0.2,0l0,0l0,0c0,0.1,0,0.1-0.1,0.1h-0.1c-0.2,0-0.3,0.1-0.4,0.1l-0.1,0.1h-0.1c-0.1,0-0.1,0-0.1,0
						s-0.1-0.1-0.2-0.2s-0.2-0.2-0.3-0.4c0-0.2-0.1-0.4-0.1-0.5c0-0.1,0-0.1,0-0.2s0.1-0.1,0.1-0.1c0.1-0.1,0.2-0.1,0.3-0.1
						c0.1,0,0.2-0.2,0.4-0.2h0.2h0.1h0.1c0.1-0.1,0.3-0.1,0.4-0.1c0.2-0.1,0.3-0.1,0.4-0.1c0.1-0.1,0.2,0,0.3,0h0.1h0.1h0.2
						c0.1,0,0.2,0,0.3,0c0.1-0.1,0.3,0,0.4,0s0.1,0,0.1,0h0.1c0.1,0,0.1,0,0.2,0h0.2h0.1h0.1l0.2,0.1h0.1l0,0l0,0l0,0
						c0.2,0,0.3,0.1,0.4,0.1c0.1,0,0.2,0.1,0.3,0.1c0.1,0.1,0.2,0.2,0.3,0.2h0.1h0.1l0.1,0.1c0.1,0,0.2,0.1,0.3,0.1
						c0.2-0.1,0.3,0.1,0.4,0.1s0.1,0.1,0.1,0.1c0.1,0,0.1,0,0.2,0l0.1,0.1c0.1,0.1,0.2,0.2,0.3,0.3c0,0.1,0.1,0.1,0.1,0.1
						c0,0.1,0,0.2,0.1,0.2l0.1,0.1c0.1,0,0.1,0,0.1,0.1s-0.1,0.2-0.2,0.4C435.4,128,435.4,128.1,435.2,128z"/>
				</g>
			</g>
		</g>
	</g>
	<g id="XMLID_2202_">
		<g id="XMLID_2203_">
			<g id="XMLID_2204_">
				<g id="XMLID_2205_">
					<path id="XMLID_2206_" class="st16" d="M411.8,126.6c-0.1-0.1-0.2-0.3-0.2-0.4c-0.1-0.1-0.1-0.2-0.1-0.2c0-0.1,0.1-0.1,0.1-0.1
						l0.1-0.1l0.1-0.1c0-0.1,0-0.1,0.1-0.1h0.1c0.1,0,0.1-0.1,0.1-0.1c0-0.1,0.1-0.1,0.1-0.1c0.2-0.1,0.5-0.2,0.7-0.3
						c0.1,0,0.1,0,0.2,0l0.1-0.1h0.1c0.1-0.1,0.2-0.1,0.3-0.1h0.1c0.1,0,0.3,0,0.5-0.1c0.1,0,0.2,0,0.3,0h0.1h0.1h0.2
						c0.1,0,0.1,0,0.2,0h0.1h0.1h0.1c0.3,0,0.5,0,0.7,0c0.1,0,0.1,0,0.2,0h0.1h0.1c0.1,0.1,0.2,0.1,0.3,0.1h0.1
						c0.1,0,0.3,0.1,0.5,0.1c0,0,0.1,0.1,0.2,0.1s0.2,0,0.2,0.1l0,0l0,0c0.1,0,0.1,0,0.2,0l0.1,0.1c0.1,0.1,0.3,0.1,0.4,0.2
						c0.1,0,0.2,0,0.2,0l0.1,0.1c0.1,0.1,0.1,0.1,0.1,0.1c0,0.1,0,0.2,0,0.3c-0.1,0.2-0.1,0.3-0.2,0.5c-0.1,0.1-0.2,0.3-0.3,0.4
						c-0.1,0-0.2,0.1-0.2,0.1c-0.1,0-0.1,0-0.1,0c-0.1,0-0.2,0-0.2-0.1c-0.1-0.1-0.3,0-0.4-0.1l-0.2-0.1H417
						c-0.1-0.1-0.1-0.1-0.1-0.1c-0.1,0-0.2-0.1-0.3-0.1c-0.1-0.1-0.2-0.1-0.3-0.1c0,0-0.1-0.1-0.2-0.1h-0.1H416h-0.1
						c-0.1,0-0.2,0-0.3,0c-0.1,0.1-0.2-0.1-0.3,0c-0.1,0-0.1,0-0.1,0h-0.1H415h-0.1h-0.1c-0.1,0-0.1,0-0.1,0h-0.2h-0.1l0,0l0,0l0,0
						c-0.1,0.1-0.2,0.1-0.3,0.1c-0.1,0.1-0.2,0.1-0.3,0.1s-0.2,0-0.3,0h-0.1l-0.1,0.1h-0.1c0,0-0.1,0-0.2,0.1
						c-0.1,0.2-0.2,0.1-0.3,0.2h-0.1l-0.1,0.1h-0.1c-0.1,0-0.2,0.1-0.3,0.1c0,0.1-0.1,0.1-0.1,0.1c-0.1,0-0.2,0-0.2,0l-0.1,0.1h-0.1
						c-0.1,0-0.1-0.1-0.3-0.3C411.6,126.9,411.5,126.9,411.8,126.6z"/>
				</g>
			</g>
		</g>
	</g>
</g>
<g>
	<defs>
		<rect id="SVGID_3_" width="546.1" height="328.1"/>
	</defs>
	<clipPath id="SVGID_4_">
		<use xlink:href="#SVGID_3_"  style="overflow:visible;"/>
	</clipPath>
	<g class="st17">
		<g>
			<g>
				<path class="st18" d="M276.9,365.6c1.4-3.1-1.9-8.6-4.2-9.9c-2.2-1.3-17.8-11.3-17.8-11.3l-22.8-8.6
					c-21.8-13.3-37.7-26.6-51.7-39.7c-6-5.6-11.7-11.2-17.3-16.7c-2.8-2.7-5.6-5.4-8.4-8.2c-9.3-9-42.1-11.3-44.8,3.7
					c-1.8,10.2,9.6,22.5,25.9,34.3c11.3,8.3,25,16.3,38.2,23.3c21.5,11.4,41.7,19.9,47.9,21.6c0,0,13.9,10.2,17.1,12
					c3.2,1.8,16,5.6,18.5,6.2C260.3,373,275.4,368.6,276.9,365.6z"/>
				<path class="st19" d="M173.9,332.6c-13.2-6.9-26.9-15-38.2-23.3c10-13.5,21.3-28.8,21.8-29.1c0.2-0.2,2.4-0.4,5.5-0.8
					c5.6,5.6,11.3,11.1,17.3,16.7C172.6,306.3,170.6,319.9,173.9,332.6z"/>
				<g>
					<path class="st20" d="M239.9,359.2l11.7-25.8c0.7-1.4,2.4-2.1,3.8-1.4l53.8,24.4c1.4,0.7,2.1,2.4,1.4,3.8L298.9,386
						c-0.7,1.4-2.4,2.1-3.8,1.4L241.4,363C239.9,362.3,239.3,360.6,239.9,359.2z"/>
					<path class="st21" d="M246.4,358.9l9.9-21.8c0.4-0.9,1.4-1.3,2.3-0.9l48.3,22c0.9,0.4,1.3,1.4,0.9,2.3l-9.9,21.8
						c-0.4,0.9-1.4,1.3-2.3,0.9l-48.3-22C246.4,360.8,246,359.8,246.4,358.9z"/>
				</g>
				<path class="st18" d="M257.7,345.7c3.8,0.1,6.8-3.4,3.9-4.7c-2.5-1.1-7.1-4.1-9.6-5.4c-1.6-0.9-12.4,0.8-20,0.2
					c0,0,6.5,13.1,10.1,11.6C250.3,344,254.3,345.6,257.7,345.7z"/>
			</g>
			<path class="st22" d="M169,244.2c-10.9,13-20.2-36-20.2-36c-8.2-22.4-59.4-83-36.3-83C194.6,125.3,198,209.8,169,244.2z"/>
			<g>
				<path class="st23" d="M152.7,202.4l4.1,27.2c2.1,5.8,4.2,11.6,5.4,15.4c0,0.1,0,0.1,0.1,0.2c2.1,1.8,4.4,1.8,6.7-0.9
					c6.4-7.6,11.2-17.6,14-28.6C173.4,207,162.3,202.1,152.7,202.4z"/>
			</g>
			<path class="st24" d="M185.3,396.4c0,80.1-103.1,330.5-124.3,407c-1.6,5.9-17.2,14.3-18.9,8.4c-24.6-83.7-9-172.7,22.9-221.1
				c4.4-62,22.1-178.7,22.1-178.7S185.3,372.5,185.3,396.4z"/>
			<g>
				<path class="st25" d="M175.6,457.5c-17-11.5-39.9-21.4-64.3-23c0,0-16.9,12.6-32,32.2c-4,28.9-8.6,64.7-11.7,95.2
					c14.8,25.5,39.9,47.6,46,89.4C137.2,584.8,162.2,512.1,175.6,457.5z"/>
			</g>
			<path class="st26" d="M114.4,385.5c77.7,120.9,97.7,286,158,402.6c1.7,3.3-7.4,11.8-5.6,15.1c-51.1-14.3-122.9-116.6-131.8-180.1
				C91.9,530.5,37.7,512.2,34.5,385.8C33.8,361.7,96.7,402.6,114.4,385.5z"/>
			<g>
				<path class="st25" d="M184.1,413.3c0.8-6.2,1.2-11.9,1.2-16.9c0-14.2-34.3-6.1-62.4,2.8c-2.8-4.6-5.6-9.2-8.5-13.8
					c-8.6,8.4-28.1,2.9-45.6-2.1l-34.2,5.5c0.1,3.4,0.3,6.8,0.5,10.1C62,416.5,159.6,430.1,184.1,413.3z"/>
			</g>
			<path class="st13" d="M112.5,125.3c-63.9,0-81.1,210.2-84.5,264.6c-0.3,5,4.5,8.6,9.3,7.2c39.4-11.5,151,24.8,151-7.6
				C188.3,327.9,166.9,125.3,112.5,125.3z"/>
			<g>
				<path class="st23" d="M66.5,192.4l-8.9,5.6C47.5,231.2,40.6,270.8,36,306.4C45,303.1,89.1,262.4,66.5,192.4z"/>
			</g>
			<path class="st18" d="M-9.1,258.3c21.8-48.4,43.1-85.2,68.4-109.2l33.2,31.6c-22,20.9-45,60.7-62.3,92.1
				c-13.9,43-35.2,67.3-41.7,118.6c-0.4,3-0.2,6.1,0.6,9c2.8,9.7,8.6,13.9,9.6,16.4c0.8,2,1.1,7.2,3.2,13c0.3,0.8,0,1.8-0.8,2.2
				c-2,0.9-4.1,0.4-5.1-0.4c-1-0.8-4.9-5.3-4.9-5.3c-1.8,5-1.2,20.3-1.1,23.5c0.1,3.2-6.3,3.5-9.2,1.9c-4-2.2-10.4-7.4-11.6-9.3
				c-1.2-1.9-6-10.5-6.6-13.2c-0.7-2.6-2.2-13.3-2.1-16.8c0.1-3.1,1.4-15.9,1.6-18.9C-34.8,345.1-23.8,291-9.1,258.3z"/>
			<path class="st22" d="M0.2,212.8c-3.9,6.2,44.7,48.1,51.8,34.8c8.5-16.1,36.9-47.4,36.9-47.4c16.8-17,79.9-55.6,59.5-66.4
				C80.3,97.6,13.4,191.9,0.2,212.8z"/>
			<g>
				<path class="st0" d="M122.8,142.4c10.1-0.6,15.5-7.6,12-12.7c-1.4-2.1-7.4-3.4-20.3-3.4c-9.1,0-12.9,0.7-13.6,2.3
					C98.3,135.1,110.6,143,122.8,142.4z"/>
			</g>
			<g>
				<path class="st20" d="M106.3,72.3c0.2-7.5,7.9-11.3,15.3-11.3c7.3,0,15.9,3.9,21.4,3.9c5.2,0,6.8-2.4,6.8-2.4
					c7,7,1.4,17-4.8,18.4c-0.3,7.2-4.9,10.1-4.9,10.1L106.3,72.3z"/>
				<path class="st18" d="M106.5,131.9v-26l24.2,3.1v24.7c0,1.2-1.3,5.4-6.8,6C115,140.8,106.5,136.7,106.5,131.9z"/>
				<g>
					<path class="st16" d="M130.7,132.9v-11.8l-15.5-6.2C115.2,120.3,117.3,130.9,130.7,132.9z"/>
				</g>
				<path class="st18" d="M133,78.5h-21.2v-1.8c-4,0-2.4,6.6-2.4,10.6V107c0,9.5,12.8,21.1,22.3,21.1c9.5,0,16.1-12.3,12.1-27.4
					C144.3,96.8,146.1,78.5,133,78.5z"/>
				<path class="st20" d="M115.6,78.4c0-5.4-4.3-9.7-9.7-9.7c-15.3,0-5.4,35.2,0,35.2c5.4,0,9.7-4.3,9.7-9.7
					C115.6,90.9,115.6,81.6,115.6,78.4z"/>
				<path class="st18" d="M109.6,107.3l-2.5,0.5c-2.6,0.6-4.6-0.7-4.9-3.3c-0.2-1.6-0.8-4.2-0.9-6.9c-0.1-2.3,1.9-4.1,4.1-4.1
					c2.3,0,4.1,1.9,4.1,4.1V107.3z"/>
				<circle class="st20" cx="116.2" cy="79.2" r="8"/>
			</g>
			<path class="st23" d="M106,201.9c5.6,0,10.2,3.4,10.2,7.6c0,4.2-4.6,7.6-10.2,7.6c-5.6,0-10.2-3.4-10.2-7.6
				C95.8,205.3,100.4,201.9,106,201.9z"/>
			<g>
				<path class="st13" d="M256.3,802.6l7.4,18.2c0.8,1.9,2.9,2.8,4.8,2l49.5-20.2c2.3-1,3.4-3,2.9-5.2c-0.3-1-1-2.4-2-3.1
					c-8.4-6-40-13.9-49.4-10.1c-8.7,3.6-3.6,7.4-11.3,12C256.2,797.5,255.3,800.3,256.3,802.6z"/>
				<path class="st0" d="M272,821.5c-3.4-12,1.2-23.6,1.2-23.6s5.1-0.7,9.4,0.5c-1.7,6.5-1.8,13.1-0.5,19.3L272,821.5z"/>
				<path class="st0" d="M321.5,804.8l-53.1,21.7c-1.2,0.5-2.5-0.1-2.9-1.2l-1.8-4.4l57.2-23.4l1.8,4.4
					C323.2,803,322.7,804.3,321.5,804.8z"/>
			</g>
			<g>
				<path class="st13" d="M38.6,812.7c-0.7,4.1-2.1,11.1-2.1,20.7c0,2.1,1.6,3.9,3.7,3.9l63,0c2.4,0,4.3-1.9,4.3-3.9
					c0-9.4-39.2-31.4-45.5-31.4c-5.9,0-8.8,5.4-18.8,6.5C40.9,808.7,39,810.4,38.6,812.7z"/>
				<path class="st0" d="M53.8,837.5c1.4-12.4,10.1-21.3,10.1-21.3s5,1.2,8.5,4c-4,5.4-6.7,11.4-7.7,17.6L53.8,837.5z"/>
				<path class="st0" d="M105.2,840.5H38.7c-1.2,0-2.3-1-2.3-2.3v-4.8h71v4.8C107.5,839.5,106.5,840.5,105.2,840.5z"/>
			</g>
		</g>
		<g id="XMLID_1605_">
			<g id="XMLID_1625_">
				<g id="XMLID_1626_">
					<path id="XMLID_1627_" class="st16" d="M126.4,107.9c0.1-0.2,0.2-0.3,0.4-0.4c0.1,0,0.2,0,0.3,0l0.3,0.1c0.1,0,0.3,0,0.4,0
						c0.1,0,0.2,0.1,0.3,0.1c0.3,0,0.6,0,0.8,0.1l0.4,0c0.1,0,0.3,0,0.4,0c0.1,0,0.1-0.1,0.3-0.1c0.3,0,0.5-0.2,0.7-0.2
						c0.2-0.1,0.3-0.2,0.5-0.3c0.1-0.1,0.1-0.1,0.2-0.2c0.1-0.1,0.1-0.1,0.1-0.1l0.1-0.1c0.1-0.2,0.1-0.4,0.2-0.5
						c0.1-0.2,0.1-0.4,0.2-0.6c0-0.3,0-0.4,0-0.8l0-0.1c0-0.1,0-0.1,0-0.1l0,0c0-0.1,0-0.2,0-0.3l-0.1-0.5l0-0.2l0-0.3l0-0.4
						c0-0.1,0-0.3,0-0.4c0-0.1-0.1-0.1-0.1-0.2c0-0.1-0.1-0.1-0.1-0.2c0-0.3-0.2-0.6-0.1-0.9c0-0.3,0-0.5-0.1-0.7l0-0.4
						c0-0.1,0-0.2,0-0.3l-0.1-0.2c0-0.3-0.1-0.5-0.1-0.7c0-0.3,0-0.5-0.1-0.8c0-0.3-0.1-0.6-0.1-0.9c0-0.1-0.1-0.1-0.1-0.2
						c0-0.1-0.1-0.2,0-0.3l-0.1-0.6c0-0.3,0-0.7-0.1-1.1c-0.1-0.2-0.1-0.4-0.1-0.6c0-0.1,0-0.1,0-0.2c0-0.1,0.1-0.2,0.1-0.2
						c0.1-0.1,0.3-0.2,0.5-0.2c0.2,0,0.4,0,0.5,0.1c0.2,0.1,0.2,0.2,0.2,0.3c0,0.1,0.1,0.1,0.1,0.2c0.1,0.1,0,0.3,0,0.4
						c0,0.1,0,0.3,0,0.4c0.1,0.3,0.1,0.7,0.1,1.1c0.1,0.1,0,0.3,0.1,0.4c0,0.1,0,0.3,0,0.5l0,0.1l0,0.1c0.1,0.1,0.1,0.3,0.1,0.5
						c0.1,0.2,0,0.4,0.1,0.6c0,0.4,0.1,0.8,0.1,1.2c0,0.1,0,0.2,0,0.3c0.1,0.2,0.1,0.4,0.1,0.6c0,0.1,0.1,0.2,0,0.3
						c0,0.1,0,0.2,0,0.3c0.1,0.1,0,0.3,0.1,0.5c0.1,0.6,0.1,1.2,0.2,1.8c0,0.1,0.1,0.2,0,0.3c0,0.1,0,0.2,0,0.3c0,0.1,0.1,0.2,0,0.3
						c0.1,0.1,0,0.3,0,0.4l0,0.4c0,0.1,0,0.1,0,0.1c0,0.1,0,0.3,0,0.4c0,0.3,0,0.4-0.1,0.7c-0.1,0.5-0.3,1-0.6,1.4
						c-0.1,0.1-0.1,0.2-0.2,0.2c-0.1,0.2-0.3,0.4-0.6,0.6c-0.1,0.1-0.2,0.2-0.3,0.2c-0.1,0.1-0.2,0.1-0.3,0.1
						c-0.2,0.1-0.3,0.2-0.5,0.2c-0.7,0.2-1.4,0.2-2.1,0.2c-0.1,0-0.2,0-0.3,0c-0.1,0-0.2-0.1-0.3-0.1c-0.1,0-0.2,0-0.3,0
						c-0.1,0-0.3,0-0.4,0l-0.4-0.1c-0.1,0-0.2-0.1-0.3-0.1c-0.1-0.1-0.2,0-0.3-0.1c-0.1-0.1-0.1-0.1-0.1-0.2c-0.1-0.1,0-0.3,0-0.5
						C126.2,108.1,126.3,108,126.4,107.9z"/>
				</g>
			</g>
			<g>
				<g id="XMLID_1622_">
					<g id="XMLID_1623_">
						<path id="XMLID_1624_" class="st16" d="M104.6,102.8c-0.1-0.1-0.1-0.1-0.2-0.2c0,0,0-0.1,0-0.1l0-0.1c0,0,0-0.1,0.1-0.1
							c0,0,0.1-0.1,0-0.1c0-0.1,0.1-0.2,0.2-0.3l0.1-0.1c0,0,0.1,0,0.1-0.1c0,0,0-0.1,0-0.1c0.1,0,0.1-0.2,0.2-0.2
							c0.1-0.1,0.2-0.1,0.2-0.1l0.1-0.1c0,0,0.1,0,0.1,0l0.1,0c0.1,0,0.1-0.1,0.2-0.1c0.1,0,0.2-0.1,0.3-0.1c0.1,0,0.2-0.1,0.3-0.1
							l0,0l0,0l0,0c0,0,0.1,0,0.1,0l0.2,0c0,0,0,0,0.1,0c0,0,0.1,0,0.1,0l0.1,0c0,0,0.1,0,0.1,0c0,0,0,0,0.1,0c0,0,0,0,0.1,0
							c0.1,0,0.2,0,0.3,0.1c0.1,0,0.2,0.1,0.2,0.1l0.1,0c0,0,0.1,0.1,0.1,0l0,0c0.1,0,0.2,0,0.2,0.1c0.1,0,0.1,0.1,0.2,0.1
							c0.1,0,0.2,0.1,0.2,0.2c0,0,0,0,0,0c0,0,0,0,0.1,0.1l0.1,0.1c0.1,0.1,0.1,0.2,0.2,0.3c0.1,0.1,0.1,0.1,0.1,0.1c0,0,0,0,0,0.1
							c0,0,0,0.1-0.1,0.1c0,0.1-0.1,0.2-0.2,0.2c-0.1,0-0.2,0.1-0.3,0.1c-0.1,0-0.1,0-0.2,0l0,0c0,0-0.1-0.1-0.1-0.1
							c0,0,0-0.1-0.1-0.1c-0.1,0-0.1-0.1-0.2-0.2c0,0-0.1,0-0.1,0c0,0-0.1-0.1-0.1-0.1l0,0l0,0c-0.1,0-0.1,0-0.1,0
							c0,0-0.1,0-0.1-0.1c-0.1,0-0.2-0.1-0.2-0.1l0,0c0,0-0.1,0-0.1,0c0,0,0,0-0.1,0c0,0,0,0-0.1-0.1c0,0-0.1,0-0.1,0
							c-0.1,0-0.3-0.1-0.4,0c0,0,0,0-0.1,0l0,0c0,0,0,0-0.1,0c0,0,0,0-0.1,0l-0.1,0l0,0c0,0,0,0-0.1,0c0,0-0.1,0-0.1,0
							c-0.1,0-0.1,0-0.3,0.1c0,0,0,0-0.1,0c0,0-0.1,0.1-0.1,0.1c0,0,0,0-0.1,0.1s0,0-0.1,0c0,0-0.1,0.1-0.1,0.1
							c-0.1,0.1-0.2,0.2-0.3,0.3c0,0,0,0-0.1,0.1c0,0,0,0-0.1,0s0,0,0,0.1c0,0,0,0,0,0.1l0,0.1c0,0,0,0-0.1,0.1c0,0,0,0-0.1,0.1
							c0,0-0.1,0-0.1,0c-0.1,0-0.2,0-0.2-0.1C104.6,102.9,104.6,102.9,104.6,102.8z"/>
					</g>
				</g>
				<g id="XMLID_1619_">
					<g id="XMLID_1620_">
						<path id="XMLID_1621_" class="st16" d="M106.1,104.7c-0.1,0-0.2,0-0.3,0c0,0,0,0,0-0.1l0-0.1c0,0-0.1-0.1,0-0.1c0,0,0,0,0-0.1
							c0-0.1,0-0.2,0-0.3l0-0.1c0,0,0-0.1,0-0.1c0,0,0-0.1,0-0.1c0-0.1,0-0.2,0.1-0.2c0-0.1,0.1-0.1,0.1-0.2l0-0.1c0,0,0,0,0.1-0.1
							l0,0c0,0,0-0.1,0.1-0.2c0.1-0.1,0.1-0.1,0.1-0.2c0.1-0.1,0.1-0.1,0.2-0.2l0,0l0,0l0,0c0,0,0,0,0.1-0.1l0.1-0.1l0,0
							c0,0,0.1-0.1,0.1-0.1l0.1-0.1c0,0,0.1,0,0.1,0s0,0,0,0l0,0c0.1,0,0.2-0.1,0.2-0.1c0.1,0,0.1,0,0.2-0.1l0.1,0c0,0,0,0,0.1,0
							l0.1,0c0.1,0,0.1-0.1,0.2-0.1c0.1,0,0.1,0,0.2,0c0.1,0,0.2,0,0.2,0c0,0,0,0,0.1,0s0,0,0.1,0l0.2,0c0.1,0,0.2,0.1,0.3,0.1
							c0.1,0,0.1,0,0.2,0.1c0,0,0,0,0.1,0.1c0,0,0,0.1,0,0.1c0,0.1,0,0.2-0.1,0.3c0,0.1-0.1,0.1-0.1,0.2c-0.1,0.1-0.1,0.1-0.1,0.1
							l0,0c0,0,0,0-0.1,0s0,0,0,0c-0.1,0-0.1,0-0.2,0c0,0-0.1,0-0.1,0c0,0,0,0-0.1,0l0,0l0,0c0,0-0.1,0-0.1,0s-0.1,0-0.1,0
							c-0.1,0-0.1,0-0.2,0l0,0c0,0-0.1,0-0.1,0s0,0-0.1,0l0,0c0,0-0.1,0.1-0.1,0.1c-0.1,0-0.2,0.1-0.3,0.2c0,0,0,0,0,0l0,0l0,0
							c0,0,0,0,0,0l-0.1,0.1l0,0l0,0c0,0-0.1,0.1,0,0.1c-0.1,0.1-0.1,0.1-0.1,0.2l0,0c0,0,0,0.1,0,0.1c0,0,0,0,0,0c0,0,0,0,0,0
							c0,0,0,0.1,0,0.1c0,0.1-0.1,0.2,0,0.3c0,0,0,0,0,0l0,0c0,0,0,0,0,0.1c0,0,0,0,0,0.1l0,0.1c0,0,0,0,0,0s0,0,0,0
							c0,0-0.1,0-0.1,0c-0.1,0-0.2,0.1-0.2,0.1C106.2,104.7,106.1,104.7,106.1,104.7z"/>
					</g>
				</g>
			</g>
			<g id="XMLID_1616_">
				<g id="XMLID_1617_">
					<path id="XMLID_1618_" class="st16" d="M123.8,111.4c0.3,0,0.3,0,0.5,0c0.1,0,0.1,0.1,0.1,0.1l0.1,0.1c0,0.1,0.1,0.1,0.1,0.1
						c0,0.1,0,0.1,0.1,0.1c0.1,0.1,0.2,0.2,0.2,0.3l0.1,0.1c0.1,0.1,0,0.1,0.1,0.2c0,0.1,0.1,0,0.1,0.1c0.1,0.1,0.2,0.1,0.2,0.3
						c0.1,0.1,0.1,0.2,0.2,0.3l0.1,0.1c0.1,0,0.1,0.1,0.1,0.1l0.1,0.1c0.1,0.1,0.2,0.1,0.2,0.1c0.1,0.1,0.2,0.1,0.2,0.2
						c0.1,0.1,0.2,0.1,0.3,0.2l0,0l0.1,0l0,0c0.1,0,0.1,0,0.1,0.1l0.2,0.1l0.1,0.1c0.1,0,0.1,0,0.1,0l0.2,0.1c0.1,0,0.1,0.1,0.1,0.1
						c0.1,0,0.1,0,0.1,0l0.1,0c0.1,0.1,0.3,0,0.3,0.1c0.1,0.1,0.2,0.1,0.3,0.1l0.1,0c0.1,0,0.1,0.1,0.1,0.1l0.1,0
						c0.1,0,0.2-0.1,0.3,0c0.1,0,0.2,0,0.3,0c0.1,0,0.3,0,0.4,0c0.1,0,0.1,0,0.1-0.1c0.1,0,0.1,0,0.1-0.1l0.2-0.1
						c0.1-0.1,0.3,0,0.5,0c0.1-0.1,0.1-0.1,0.2-0.1c0,0,0.1,0,0.1,0c0.1,0,0.1,0.1,0.2,0.1c0.1,0.1,0.2,0.3,0.3,0.5
						c0.1,0.2,0.1,0.3,0.1,0.5c0,0.1,0,0.3-0.1,0.3c0,0-0.1,0-0.1,0.1c-0.1,0.1-0.1,0.1-0.2,0.1c-0.1,0.1-0.1,0-0.2,0.1
						c-0.2,0.1-0.4,0.1-0.6,0.1c-0.1,0-0.1,0.1-0.2,0.1s-0.2,0-0.3,0l0,0l0,0c-0.1,0.1-0.2,0.1-0.3,0.1c-0.1,0-0.2,0.1-0.3,0
						c-0.3,0-0.4,0-0.7,0c-0.1,0-0.1,0-0.1,0c-0.1,0-0.3,0-0.3,0c-0.1,0-0.1,0-0.2,0c-0.1,0-0.1-0.1-0.1-0.1c-0.1,0-0.2,0-0.3,0
						c-0.3-0.1-0.6-0.2-0.9-0.3c-0.1,0-0.1,0-0.1-0.1c-0.1,0-0.1-0.1-0.1-0.1c-0.1,0-0.1,0-0.2,0c-0.1,0-0.1-0.1-0.2-0.1l-0.2-0.1
						c0,0-0.1,0-0.1-0.1c-0.1,0-0.1-0.1-0.2-0.1c-0.1-0.1-0.2-0.1-0.2-0.2c-0.2-0.1-0.4-0.3-0.5-0.5c0-0.1-0.1-0.1-0.1-0.1
						c-0.1-0.1-0.2-0.1-0.2-0.2c-0.1-0.1-0.1-0.1-0.1-0.1c0-0.1,0-0.1-0.1-0.1c-0.1-0.1-0.1-0.1-0.2-0.1c-0.2-0.3-0.4-0.5-0.5-0.8
						c-0.1-0.1-0.1-0.1-0.1-0.1c0-0.1,0-0.1-0.1-0.1c0-0.1-0.1-0.1-0.1-0.1c-0.1-0.1-0.1-0.1-0.1-0.1l-0.1-0.2c0-0.1,0-0.1,0-0.2
						c0-0.1-0.1-0.1,0-0.1c0-0.1,0.1-0.1,0.1-0.1c0.1-0.1,0.3-0.2,0.4-0.2C123.6,111.5,123.7,111.4,123.8,111.4z"/>
				</g>
			</g>
			<g id="XMLID_1614_">
				<path id="XMLID_1615_" class="st16" d="M121.5,99.8L121.5,99.8c1,0,1.8-0.7,1.8-1.7l0-0.8c0-0.9-0.6-1.8-1.7-1.7
					c-0.9,0-1.7,0.7-1.7,1.7l0,0.8C120,99,120.7,99.7,121.5,99.8z"/>
			</g>
			<g id="XMLID_1612_">
				<path id="XMLID_1613_" class="st16" d="M139.7,99.9L139.7,99.9c1,0,1.8-0.7,1.8-1.7l0-0.8c0-0.9-0.5-1.7-1.7-1.7
					c-0.9,0-1.7,0.7-1.7,1.7l0,0.8C138.1,99.1,138.8,99.9,139.7,99.9z"/>
			</g>
			<g id="XMLID_1609_">
				<g id="XMLID_1610_">
					<path id="XMLID_1611_" class="st16" d="M117.7,92.2c-0.1-0.2-0.2-0.3-0.2-0.5c0-0.1,0.1-0.1,0.1-0.1l0.1-0.1
						c0.1-0.1,0.1-0.1,0.1-0.2c0.1,0,0.1-0.1,0.1-0.1c0.1-0.1,0.2-0.2,0.3-0.2l0.1-0.1c0.1,0,0.1,0,0.2-0.1c0.1,0,0.1-0.1,0.1-0.1
						c0.1,0,0.2-0.2,0.4-0.1c0.1-0.1,0.2-0.1,0.3-0.1l0.1-0.1c0.1,0,0.1,0,0.1,0l0.1-0.1c0.1-0.1,0.2-0.1,0.3-0.2
						c0.1-0.1,0.3,0,0.3,0c0.1,0,0.3,0,0.4,0l0,0l0.1,0l0,0c0.1,0,0.1,0,0.1,0l0.3,0l0.1,0c0.1,0,0.1,0,0.1,0l0.2-0.1
						c0.1,0,0.1,0,0.1,0c0.1,0,0.1,0,0.1,0s0.1-0.1,0.1,0c0.1,0.1,0.3,0,0.4,0c0.1,0,0.2,0,0.3,0l0.2,0c0.1,0,0.1,0.1,0.1,0.1l0.1,0
						c0.1,0,0.2-0.1,0.3,0c0.1,0,0.3,0,0.4,0.1c0.1,0,0.3,0,0.4,0.1l0.1,0c0.1,0,0.1,0,0.1,0l0.3,0.1c0.1,0,0.2,0.2,0.4,0.2
						c0.1,0,0.2,0,0.3,0.1c0,0,0.1,0,0.1,0.1c0,0.1,0,0.1,0,0.2c0,0.1-0.1,0.3-0.2,0.5c-0.1,0.2-0.2,0.3-0.3,0.4
						c-0.1,0.1-0.1,0.2-0.2,0.2l-0.1,0c-0.1,0-0.1,0-0.1,0s-0.1-0.1-0.1-0.1c-0.1,0-0.3-0.1-0.4-0.2c-0.1,0-0.1,0-0.1,0
						c-0.1,0-0.1-0.1-0.1-0.1l0,0l0,0c-0.1,0.1-0.1,0.1-0.2,0c-0.1,0-0.1,0-0.2,0c-0.1-0.1-0.3,0-0.4-0.1l-0.1,0c-0.1,0-0.1,0-0.2,0
						c-0.1,0-0.1,0-0.1,0c-0.1,0-0.1-0.1-0.1-0.1c-0.1,0-0.1,0.1-0.1,0.1c-0.2,0-0.4,0-0.6,0c-0.1,0-0.1,0-0.1,0l-0.1,0
						c-0.1,0-0.1,0.1-0.1,0.1c-0.1,0-0.1,0.1-0.1,0.1l-0.1,0l-0.1,0c-0.1,0-0.1,0-0.1,0.1c-0.1,0-0.1,0.1-0.2,0.1
						c-0.1,0.1-0.3,0.1-0.5,0.1c0,0-0.1,0-0.1,0.1c-0.1,0.1-0.1,0.1-0.2,0.1c-0.1,0-0.1,0.1-0.1,0.1s-0.1,0-0.1,0
						c-0.1,0.1-0.1,0.1-0.1,0.1c-0.2,0.1-0.4,0.2-0.6,0.3l-0.1,0.1l-0.1,0l-0.1,0.1c0,0.1-0.1,0.1-0.1,0.1l-0.1,0.1c0,0-0.1,0-0.1,0
						s-0.1,0.1-0.1,0.1c-0.1,0-0.1-0.1-0.1-0.1c-0.1-0.1-0.2-0.2-0.3-0.3C117.8,92.3,117.7,92.3,117.7,92.2z"/>
				</g>
			</g>
			<g id="XMLID_1606_">
				<g id="XMLID_1607_">
					<path id="XMLID_1608_" class="st16" d="M143.3,92.8c-0.2,0.2-0.3,0.2-0.3,0.3c-0.1,0-0.1,0-0.1,0l-0.1-0.1
						c-0.1,0-0.1,0-0.2-0.1l-0.1-0.1c-0.1,0-0.3-0.1-0.3-0.1l-0.1-0.1c-0.1,0-0.1-0.1-0.1-0.1c-0.1,0-0.1,0-0.1,0
						c-0.1-0.1-0.2,0-0.2-0.1c-0.1-0.1-0.1-0.1-0.2-0.1l-0.1-0.1c-0.1,0-0.1-0.1-0.1-0.1l-0.1,0c-0.1,0-0.2,0.1-0.3,0
						c-0.1,0-0.1-0.1-0.3-0.1c-0.1,0-0.2,0-0.3-0.1l0,0l-0.1,0l0,0c-0.1,0-0.1,0-0.1,0l-0.2,0l-0.1,0c-0.1,0-0.1,0-0.1,0l-0.1,0
						c-0.1,0-0.1-0.1-0.1-0.1l-0.1,0c0,0-0.1,0.1-0.1,0c-0.1-0.1-0.2,0.1-0.3-0.1c-0.1,0-0.2,0-0.3,0l-0.1,0c-0.1,0-0.1,0-0.1,0
						l-0.1,0c-0.1,0-0.1,0.1-0.3,0.1c-0.1,0-0.1,0-0.3,0c-0.1,0-0.2,0.1-0.3,0l-0.1,0.1c0,0-0.1,0-0.1,0.1l-0.2,0.1
						c-0.1,0.1-0.3,0-0.4,0c-0.1,0.1-0.1,0.1-0.2,0.1l-0.1,0c-0.1,0-0.1-0.1-0.1-0.1c-0.1-0.1-0.2-0.3-0.3-0.5
						c-0.1-0.2-0.1-0.3-0.2-0.5c-0.1-0.1,0-0.3,0.1-0.3c0,0,0.1,0,0.1-0.1c0.1-0.1,0.1-0.1,0.1-0.1c0.1,0,0.1,0,0.1-0.1
						c0.1-0.1,0.3-0.1,0.5-0.2c0.1,0,0.1-0.1,0.1-0.1c0.1,0,0.1,0,0.2,0l0,0l0,0c0.1-0.1,0.1-0.1,0.2-0.1c0.1,0,0.2-0.1,0.3,0
						c0.2,0,0.4,0,0.5,0c0.1,0,0.1,0,0.1,0s0.2-0.1,0.3,0c0.1,0,0.1,0,0.1,0s0.1,0.1,0.1,0.1c0.1,0,0.1-0.1,0.2-0.1
						c0.3,0,0.5,0,0.8,0c0.1,0,0.1,0,0.1,0s0.1,0.1,0.1,0.1c0.1,0,0.1,0,0.1,0s0.1,0,0.1,0l0.1,0l0.1,0c0.1,0,0.1,0,0.1,0
						c0.1,0,0.2,0,0.3,0.1c0.2,0.1,0.4,0.1,0.5,0.2c0.1,0,0.1,0,0.1,0c0.1,0,0.2,0,0.3,0.1c0.1,0,0.1,0,0.1,0.1
						c0.1,0,0.1,0.1,0.1,0.1c0.1,0,0.1,0,0.2,0.1c0.3,0.1,0.4,0.3,0.7,0.4c0.1,0,0.1,0,0.1,0.1l0.1,0.1c0.1,0,0.1,0,0.1,0
						c0.1,0,0.1,0.1,0.1,0.1l0.1,0.1c0.1,0,0.1,0.1,0.1,0.1c0,0.1,0.1,0.1,0.1,0.1c0,0.1,0,0.1-0.1,0.2c-0.1,0.1-0.1,0.2-0.2,0.4
						C143.4,92.7,143.4,92.7,143.3,92.8z"/>
				</g>
			</g>
		</g>
	</g>
</g>
</svg>
