<svg id="Capa_2" data-name="Capa 2" xmlns="http://www.w3.org/2000/svg" viewBox="0 0 341.17 120.43"><defs><style>.cls-1{fill:#fff;stroke:#b0afb5;stroke-miterlimit:10;stroke-width:4.25px;}.cls-2{fill:#0063a8;}.cls-3{fill:#9c9ba0;}.cls-4{fill:none;stroke:#9c9ba0;stroke-linecap:round;stroke-linejoin:round;stroke-width:2px;}.cls-5{fill:#e24049;}</style></defs><rect class="cls-1" x="2.13" y="2.13" width="336.92" height="116.18"/><path class="cls-2" d="M107.35,42.2V62.5h-4.64V54.44H96.32V62.5H91.68V42.2h4.64V50h6.39V42.2Z" transform="translate(-2.03 -2.47)"/><path class="cls-2" d="M110.24,44.11a2.61,2.61,0,1,1,2.61,2.61A2.64,2.64,0,0,1,110.24,44.11Zm.44,3.89H115V62.5h-4.35Z" transform="translate(-2.03 -2.47)"/><path class="cls-2" d="M129.33,58.15c0,3.34-2.9,4.76-6,4.76-2.9,0-5.1-1.1-6.23-3.45l3.77-2.15A2.38,2.38,0,0,0,123.29,59c1,0,1.57-.32,1.57-.9,0-1.59-7.14-.75-7.14-5.77,0-3.16,2.67-4.76,5.69-4.76a6.36,6.36,0,0,1,5.66,3.11l-3.72,2a2.1,2.1,0,0,0-1.94-1.28c-.75,0-1.22.29-1.22.82C122.19,53.89,129.33,52.79,129.33,58.15Z" transform="translate(-2.03 -2.47)"/><path class="cls-2" d="M136.58,52.18v5.13c0,1.25,1.07,1.36,3,1.25V62.5c-5.68.58-7.33-1.13-7.33-5.19V52.18H129.9V48h2.33V45.25l4.35-1.31V48h3v4.18Z" transform="translate(-2.03 -2.47)"/><path class="cls-2" d="M141,55.25a7.69,7.69,0,1,1,7.69,7.66A7.6,7.6,0,0,1,141,55.25Zm11,0a3.34,3.34,0,1,0-3.33,3.42A3.25,3.25,0,0,0,152,55.25ZM150.26,46l3.37-4.06h-5.22L146.09,46Z" transform="translate(-2.03 -2.47)"/><path class="cls-2" d="M167.55,47.71v4.93c-1.8-.29-4.35.44-4.35,3.31V62.5h-4.35V48h4.35v2.58A4.36,4.36,0,0,1,167.55,47.71Z" transform="translate(-2.03 -2.47)"/><path class="cls-2" d="M169.14,44.11a2.61,2.61,0,1,1,2.61,2.61A2.64,2.64,0,0,1,169.14,44.11Zm.44,3.89h4.35V62.5h-4.35Z" transform="translate(-2.03 -2.47)"/><path class="cls-2" d="M176.39,55.25a7.67,7.67,0,0,1,14.24-3.94l-3.8,2.2A3,3,0,0,0,184,51.89a3.37,3.37,0,0,0,0,6.73A3,3,0,0,0,186.83,57l3.8,2.18a7.39,7.39,0,0,1-6.55,3.74A7.52,7.52,0,0,1,176.39,55.25Z" transform="translate(-2.03 -2.47)"/><path class="cls-2" d="M191.36,55.25A7.69,7.69,0,1,1,199,62.91,7.6,7.6,0,0,1,191.36,55.25Zm11,0A3.34,3.34,0,1,0,199,58.67,3.25,3.25,0,0,0,202.38,55.25Z" transform="translate(-2.03 -2.47)"/><path class="cls-2" d="M103.64,80.13v4.29H92.22V64.92h4.46V80.13Z" transform="translate(-2.03 -2.47)"/><path class="cls-2" d="M111.27,81.07a3.63,3.63,0,0,0,2.67-1l3.35,1.92a7.09,7.09,0,0,1-6.08,2.87c-4.76,0-7.71-3.21-7.71-7.36a7.14,7.14,0,0,1,7.41-7.35A7,7,0,0,1,118,77.45a7.6,7.6,0,0,1-.17,1.68h-9.88C108.46,80.57,109.74,81.07,111.27,81.07ZM113.83,76a3.13,3.13,0,0,0-6,0Z" transform="translate(-2.03 -2.47)"/><path class="cls-2" d="M131.91,70.49,127.14,84c-1.56,4.43-4,6.18-7.93,6v-3.9c2,0,2.87-.62,3.48-2.31l-5.54-13.29h4.59L124.83,79l2.62-8.52Z" transform="translate(-2.03 -2.47)"/><path class="cls-2" d="M152.46,64.92v19.5h-4.18V83.11a5.22,5.22,0,0,1-4.15,1.7c-3.65,0-6.65-3.21-6.65-7.36s3-7.35,6.65-7.35a5.22,5.22,0,0,1,4.15,1.7V64.92Zm-4.18,12.53a3.32,3.32,0,1,0-3.31,3.4A3.18,3.18,0,0,0,148.28,77.45Z" transform="translate(-2.03 -2.47)"/><path class="cls-2" d="M161.48,81.07a3.67,3.67,0,0,0,2.68-1l3.34,1.92a7.09,7.09,0,0,1-6.07,2.87c-4.77,0-7.72-3.21-7.72-7.36a7.14,7.14,0,0,1,7.41-7.35,7,7,0,0,1,7.07,7.35,8.26,8.26,0,0,1-.16,1.68h-9.89C158.67,80.57,160,81.07,161.48,81.07ZM164,76a3.13,3.13,0,0,0-6,0Z" transform="translate(-2.03 -2.47)"/><path class="cls-2" d="M186.85,80.13v4.29H175.44V64.92h4.45V80.13Z" transform="translate(-2.03 -2.47)"/><path class="cls-2" d="M186.71,77.45a7.38,7.38,0,1,1,7.38,7.36A7.3,7.3,0,0,1,186.71,77.45Zm10.59,0a3.21,3.21,0,1,0-3.21,3.29A3.13,3.13,0,0,0,197.3,77.45Z" transform="translate(-2.03 -2.47)"/><path class="cls-2" d="M217.71,77.45c0,4.15-3,7.36-6.66,7.36a5.24,5.24,0,0,1-4.15-1.7v1.31h-4.17V64.92h4.17V71.8a5.24,5.24,0,0,1,4.15-1.7C214.7,70.1,217.71,73.3,217.71,77.45Zm-4.18,0a3.32,3.32,0,1,0-3.31,3.4A3.18,3.18,0,0,0,213.53,77.45Z" transform="translate(-2.03 -2.47)"/><path class="cls-2" d="M234,77.45c0,4.15-3,7.36-6.66,7.36a5.22,5.22,0,0,1-4.15-1.7v1.31H219V64.92h4.18V71.8a5.22,5.22,0,0,1,4.15-1.7C230.94,70.1,234,73.3,234,77.45Zm-4.18,0a3.32,3.32,0,1,0-3.32,3.4A3.18,3.18,0,0,0,229.77,77.45Z" transform="translate(-2.03 -2.47)"/><path class="cls-2" d="M247.87,70.49,243.11,84c-1.56,4.43-4,6.18-7.94,6v-3.9c2,0,2.87-.62,3.48-2.31l-5.54-13.29h4.6L240.8,79l2.61-8.52Z" transform="translate(-2.03 -2.47)"/><path class="cls-3" d="M51.23,55.26a2,2,0,0,1-2,2h0a2,2,0,0,1-2-2V49a2,2,0,0,1,2-2h0a2,2,0,0,1,2,2Z" transform="translate(-2.03 -2.47)"/><path class="cls-3" d="M72,55.26a2,2,0,0,1-2,2h0a2,2,0,0,1-2-2V49a2,2,0,0,1,2-2h0a2,2,0,0,1,2,2Z" transform="translate(-2.03 -2.47)"/><path class="cls-3" d="M78.71,53.51H73.22v1.75a3.25,3.25,0,0,1-6.5,0V53.51H52.48v1.75a3.25,3.25,0,1,1-6.49,0V53.51h-5.5a3,3,0,0,0-3,3v30a3,3,0,0,0,3,3H78.71a3,3,0,0,0,3-3v-30A3,3,0,0,0,78.71,53.51Zm-.07,32.18H40.56V62.31H78.64Z" transform="translate(-2.03 -2.47)"/><rect class="cls-3" x="41.47" y="69.14" width="4.79" height="4.79" rx="0.6"/><rect class="cls-3" x="41.47" y="76.43" width="4.79" height="4.79" rx="0.6"/><rect class="cls-3" x="48.32" y="69.14" width="4.79" height="4.79" rx="0.6"/><rect class="cls-3" x="48.32" y="76.43" width="4.79" height="4.79" rx="0.6"/><rect class="cls-3" x="55.17" y="61.84" width="4.79" height="4.79" rx="0.6"/><rect class="cls-3" x="55.17" y="69.14" width="4.79" height="4.79" rx="0.6"/><rect class="cls-3" x="55.17" y="76.43" width="4.79" height="4.79" rx="0.6"/><rect class="cls-3" x="62.02" y="61.84" width="4.79" height="4.79" rx="0.6"/><rect class="cls-3" x="62.02" y="69.14" width="4.79" height="4.79" rx="0.6"/><rect class="cls-3" x="62.02" y="76.43" width="4.79" height="4.79" rx="0.6"/><rect class="cls-3" x="68.87" y="61.84" width="4.79" height="4.79" rx="0.6"/><rect class="cls-3" x="68.87" y="69.14" width="4.79" height="4.79" rx="0.6"/><rect class="cls-3" x="68.87" y="76.43" width="4.79" height="4.79" rx="0.6"/><path class="cls-4" d="M38.72,50V45.43a2.84,2.84,0,0,0-2.85-2.84h0A2.85,2.85,0,0,0,33,45.43V49" transform="translate(-2.03 -2.47)"/><path class="cls-4" d="M33,49V44.38a2.86,2.86,0,0,0-2.85-2.85h0a2.86,2.86,0,0,0-2.85,2.85V49" transform="translate(-2.03 -2.47)"/><path class="cls-4" d="M34.09,70.19c-9.69,2.07-13.78-5.94-17.15-13.35-1-2.17-6.5-14.07-.44-13.59,3.37.27,4.14,5.7,5,8.18" transform="translate(-2.03 -2.47)"/><path class="cls-4" d="M38.72,50c-.08-2.23,0-5.69,3.2-5.26,3,.4,2.85,4,2.69,6.27" transform="translate(-2.03 -2.47)"/><path class="cls-4" d="M21.6,51.47V32.8a2.86,2.86,0,0,1,5.71,0V49" transform="translate(-2.03 -2.47)"/><rect class="cls-5" x="188.09" y="4.25" width="148.95" height="6.48"/><rect class="cls-2" x="90.9" y="4.25" width="97.19" height="6.48"/></svg>