<?xml version="1.0" encoding="utf-8"?>
<!-- Generator: Adobe Illustrator 22.1.0, SVG Export Plug-In . SVG Version: 6.00 Build 0)  -->
<svg version="1.1" id="Capa_1" xmlns="http://www.w3.org/2000/svg" xmlns:xlink="http://www.w3.org/1999/xlink" x="0px" y="0px"
	 viewBox="0 0 466.7 448" style="enable-background:new 0 0 466.7 448;" xml:space="preserve">
<style type="text/css">
	.st0{fill:#7AA7DE;}
</style>
<g>
	<path class="st0" d="M29.9,54.1c0,29.9,24.3,54.1,54.1,54.1s54.1-24.3,54.1-54.1S113.9,0,84,0S29.9,24.3,29.9,54.1z"/>
	<path class="st0" d="M233.3,108.3c29.9,0,54.1-24.3,54.1-54.1S263.2,0,233.3,0s-54.1,24.3-54.1,54.1S203.5,108.3,233.3,108.3z"/>
	<path class="st0" d="M158.7,177.3v28H308v-28c0-24.3-11.2-48.5-35.5-63.5c-11.2,7.5-26.1,13.1-39.2,13.1c-14.9,0-28-3.7-39.2-11.2
		C171.7,128.8,158.7,151.2,158.7,177.3L158.7,177.3z"/>
	<path class="st0" d="M140,177.3c0-13.1,3.7-26.1,7.5-37.3c-5.6-11.2-13.1-18.7-24.3-26.1c-11.2,9.3-24.3,13.1-39.2,13.1
		c-14.9,0-28-3.7-39.2-11.2c-22.4,13.1-35.5,35.5-35.5,61.6v28H140L140,177.3z"/>
	<path class="st0" d="M457.3,205.3v-28c0-24.3-11.2-48.5-35.5-63.5c-24.3,16.8-56,16.8-80.3,0c-9.3,5.6-18.7,14.9-24.3,26.1
		c5.6,11.2,7.5,24.3,7.5,37.3l0,28H457.3z"/>
	<path class="st0" d="M328.5,54.1c0,29.9,24.3,54.1,54.1,54.1s54.1-24.3,54.1-54.1S412.5,0,382.7,0S328.5,24.3,328.5,54.1z"/>
	<path class="st0" d="M405.1,448c14.9,0,28-13.1,28-28V298.7H33.6V420c0,14.9,13.1,28,28,28H405.1z"/>
	<path class="st0" d="M438.7,224H28c-14.9,0-28,13.1-28,28s13.1,28,28,28h410.7c14.9,0,28-13.1,28-28
		C466.7,237.1,453.6,224,438.7,224L438.7,224z"/>
</g>
</svg>
