<?xml version="1.0" encoding="utf-8"?>
<!-- Generator: Adobe Illustrator 22.1.0, SVG Export Plug-In . SVG Version: 6.00 Build 0)  -->
<svg version="1.1" id="Capa_1" xmlns="http://www.w3.org/2000/svg" xmlns:xlink="http://www.w3.org/1999/xlink" x="0px" y="0px"
	 viewBox="0 0 348 171.2" style="enable-background:new 0 0 348 171.2;" xml:space="preserve">
<style type="text/css">
	.st0{fill:#7AA7DE;}
</style>
<path class="st0" d="M218.2,44.2c0,24.4-19.8,44.2-44.2,44.2s-44.2-19.8-44.2-44.2C129.8,19.8,149.6,0,174,0S218.2,19.8,218.2,44.2"
	/>
<path class="st0" d="M315.2,72.2c0,16.2-13.1,29.2-29.2,29.2s-29.2-13.1-29.2-29.2s13.1-29.2,29.2-29.2S315.2,56,315.2,72.2"/>
<path class="st0" d="M90.6,72.2c0,16.2-13.1,29.2-29.2,29.2c-16.2,0-29.2-13.1-29.2-29.2s13.1-29.2,29.2-29.2
	C77.5,42.9,90.6,56,90.6,72.2"/>
<path class="st0" d="M61.4,110.8c-29.2,0-53.5,19.9-59.7,46.7h75.9c5-13.1,11.8-24.9,21.2-34.2C88.1,115.7,75.1,110.8,61.4,110.8z"
	/>
<path class="st0" d="M174.6,100.8c-42.9,0-79,29.2-89,69.7h178C253.6,131.3,217.6,100.8,174.6,100.8L174.6,100.8z"/>
<path class="st0" d="M286.6,110.8c-13.7,0-26.1,4.4-36.1,11.8c9.3,10,16.8,21.8,21.8,35.5h74C339.5,130.7,315.2,110.8,286.6,110.8
	L286.6,110.8z"/>
</svg>
