<?xml version="1.0" encoding="utf-8"?>
<!-- Generator: Adobe Illustrator 24.3.0, SVG Export Plug-In . SVG Version: 6.00 Build 0)  -->
<svg version="1.1" id="Capa_2_1_" xmlns="http://www.w3.org/2000/svg" xmlns:xlink="http://www.w3.org/1999/xlink" x="0px" y="0px"
	 viewBox="0 0 341.2 120.4" style="enable-background:new 0 0 341.2 120.4;" xml:space="preserve">
<style type="text/css">
	.st0{fill:#FFFFFF;stroke:#B0AFB5;stroke-width:4.25;stroke-miterlimit:10;}
	.st1{enable-background:new    ;}
	.st2{fill:#0063A8;}
	.st3{fill:#9C9BA0;}
	.st4{fill:none;stroke:#9C9BA0;stroke-width:2;stroke-linecap:round;stroke-linejoin:round;}
	.st5{fill:#E24049;}
</style>
<rect x="2.1" y="2.1" class="st0" width="336.9" height="116.2"/>
<g class="st1">
	<path class="st2" d="M105.1,46.7c0,3.9-3.1,7-7.1,7h-3V60h-4.6V39.7H98C102,39.7,105.1,42.8,105.1,46.7z M100.4,46.7
		c0-1.5-1-2.6-2.5-2.6h-3v5.2h3C99.4,49.3,100.4,48.2,100.4,46.7z"/>
	<path class="st2" d="M107.2,38.9h4.4V60h-4.4V38.9z"/>
	<path class="st2" d="M129.7,45.5V60h-4.4v-1.4c-1,1.1-2.4,1.8-4.3,1.8c-3.8,0-6.9-3.3-6.9-7.7s3.1-7.7,6.9-7.7
		c1.9,0,3.4,0.7,4.3,1.8v-1.4H129.7z M125.3,52.8c0-2.2-1.5-3.5-3.5-3.5s-3.5,1.4-3.5,3.5s1.5,3.5,3.5,3.5S125.3,55,125.3,52.8z"/>
	<path class="st2" d="M138.4,49.7v5.1c0,1.2,1.1,1.4,3,1.2V60c-5.7,0.6-7.3-1.1-7.3-5.2v-5.1h-2.3v-4.2h2.3v-2.8l4.4-1.3v4.1h3v4.2
		H138.4z"/>
	<path class="st2" d="M158.4,45.5V60h-4.4v-1.4c-1,1.1-2.4,1.8-4.3,1.8c-3.8,0-6.9-3.3-6.9-7.7s3.1-7.7,6.9-7.7
		c1.9,0,3.4,0.7,4.3,1.8v-1.4H158.4z M154.1,52.8c0-2.2-1.5-3.5-3.5-3.5s-3.5,1.4-3.5,3.5s1.5,3.5,3.5,3.5S154.1,55,154.1,52.8z"/>
	<path class="st2" d="M166.9,45.5h2.7v4.2h-2.7V60h-4.4V49.7h-1.9v-4.2h1.9c0-4.1,2.2-6.5,7-6.2v4.2
		C167.9,43.4,166.9,43.9,166.9,45.5z"/>
	<path class="st2" d="M170,52.8c0-4.3,3.4-7.7,7.7-7.7c4.3,0,7.7,3.3,7.7,7.7s-3.4,7.7-7.7,7.7C173.4,60.4,170,57.1,170,52.8z
		 M181,52.8c0-2.1-1.5-3.4-3.3-3.4c-1.9,0-3.3,1.4-3.3,3.4s1.5,3.4,3.3,3.4C179.6,56.2,181,54.8,181,52.8z"/>
	<path class="st2" d="M196.5,45.2v4.9c-1.8-0.3-4.4,0.4-4.4,3.3V60h-4.4V45.5h4.4v2.6C192.8,46.2,194.7,45.2,196.5,45.2z"/>
	<path class="st2" d="M220.3,51.1V60H216v-8.5c0-1.5-0.7-2.4-2.1-2.4c-1.5,0-2.3,1-2.3,2.7V60h-4.4v-8.5c0-1.5-0.7-2.4-2.1-2.4
		c-1.5,0-2.3,1-2.3,2.7V60h-4.4V45.5h4.4v1.3c0.7-1,1.9-1.7,3.9-1.7c1.7,0,3,0.7,3.8,1.9c0.8-1.2,2.1-1.9,4.2-1.9
		C218.1,45.1,220.3,47.5,220.3,51.1z"/>
	<path class="st2" d="M238.2,45.5V60h-4.4v-1.4c-1,1.1-2.4,1.8-4.3,1.8c-3.8,0-6.9-3.3-6.9-7.7s3.1-7.7,6.9-7.7
		c1.9,0,3.4,0.7,4.3,1.8v-1.4H238.2z M233.8,52.8c0-2.2-1.5-3.5-3.5-3.5s-3.5,1.4-3.5,3.5s1.5,3.5,3.5,3.5S233.8,55,233.8,52.8z"/>
</g>
<g class="st1">
	<path class="st2" d="M101.6,77.7v4.3H90.2V62.5h4.5v15.2H101.6z"/>
</g>
<g class="st1">
	<path class="st2" d="M109.2,78.6c1.1,0,2.1-0.4,2.7-1.1l3.3,1.9c-1.4,1.9-3.4,2.9-6.1,2.9c-4.8,0-7.7-3.2-7.7-7.4s3-7.4,7.4-7.4
		c4.1,0,7.1,3.1,7.1,7.4c0,0.6-0.1,1.1-0.2,1.7h-9.9C106.4,78.1,107.7,78.6,109.2,78.6z M111.8,73.5c-0.4-1.6-1.7-2.2-3-2.2
		c-1.6,0-2.6,0.8-3,2.2H111.8z"/>
</g>
<g class="st1">
	<path class="st2" d="M129.9,68l-4.8,13.5c-1.6,4.4-4,6.2-7.9,6v-3.9c1.9,0,2.9-0.6,3.5-2.3L115.1,68h4.6l3.1,8.5l2.6-8.5H129.9z"/>
	<path class="st2" d="M152.7,62.5v19.5h-4.2v-1.3c-0.9,1.1-2.3,1.7-4.1,1.7c-3.6,0-6.7-3.2-6.7-7.4s3-7.4,6.7-7.4
		c1.9,0,3.2,0.6,4.1,1.7v-6.9H152.7z M148.5,75c0-2.1-1.4-3.4-3.3-3.4s-3.3,1.3-3.3,3.4s1.4,3.4,3.3,3.4S148.5,77.1,148.5,75z"/>
	<path class="st2" d="M162.8,78.6c1.1,0,2.1-0.4,2.7-1.1l3.3,1.9c-1.4,1.9-3.4,2.9-6.1,2.9c-4.8,0-7.7-3.2-7.7-7.4s3-7.4,7.4-7.4
		c4.1,0,7.1,3.1,7.1,7.4c0,0.6-0.1,1.1-0.2,1.7h-9.9C160,78.1,161.3,78.6,162.8,78.6z M165.4,73.5c-0.4-1.6-1.7-2.2-3-2.2
		c-1.6,0-2.6,0.8-3,2.2H165.4z"/>
</g>
<g class="st1">
	<path class="st2" d="M184.8,77.7v4.3h-11.4V62.5h4.5v15.2H184.8z"/>
</g>
<g class="st1">
	<path class="st2" d="M184.7,75c0-4.1,3.3-7.4,7.4-7.4c4.1,0,7.4,3.2,7.4,7.4s-3.3,7.4-7.4,7.4C188,82.3,184.7,79.1,184.7,75z
		 M195.3,75c0-2-1.4-3.3-3.2-3.3c-1.8,0-3.2,1.3-3.2,3.3s1.4,3.3,3.2,3.3C193.9,78.3,195.3,77,195.3,75z"/>
	<path class="st2" d="M216.8,75c0,4.1-3,7.4-6.7,7.4c-1.9,0-3.2-0.6-4.1-1.7v1.3h-4.2V62.5h4.2v6.9c0.9-1.1,2.3-1.7,4.1-1.7
		C213.8,67.6,216.8,70.8,216.8,75z M212.6,75c0-2.1-1.4-3.4-3.3-3.4c-1.9,0-3.3,1.3-3.3,3.4s1.4,3.4,3.3,3.4
		C211.2,78.4,212.6,77.1,212.6,75z"/>
</g>
<g class="st1">
	<path class="st2" d="M231.9,75c0,4.1-3,7.4-6.7,7.4c-1.9,0-3.2-0.6-4.1-1.7v1.3h-4.2V62.5h4.2v6.9c0.9-1.1,2.3-1.7,4.1-1.7
		C228.9,67.6,231.9,70.8,231.9,75z M227.7,75c0-2.1-1.4-3.4-3.3-3.4c-1.9,0-3.3,1.3-3.3,3.4s1.4,3.4,3.3,3.4
		C226.3,78.4,227.7,77.1,227.7,75z"/>
</g>
<g class="st1">
	<path class="st2" d="M245.8,68l-4.8,13.5c-1.6,4.4-4,6.2-7.9,6v-3.9c1.9,0,2.9-0.6,3.5-2.3L231.1,68h4.6l3.1,8.5l2.6-8.5H245.8z"/>
</g>
<path class="st3" d="M49.2,52.8c0,1.1-0.9,2-2,2l0,0c-1.1,0-2-0.9-2-2v-6.3c0-1.1,0.9-2,2-2l0,0c1.1,0,2,0.9,2,2V52.8z"/>
<path class="st3" d="M70,52.8c0,1.1-0.9,2-2,2l0,0c-1.1,0-2-0.9-2-2v-6.3c0-1.1,0.9-2,2-2l0,0c1.1,0,2,0.9,2,2V52.8z"/>
<path class="st3" d="M76.7,51h-5.5v1.8c0,1.8-1.5,3.2-3.2,3.2s-3.2-1.5-3.2-3.2V51H50.5v1.8c0.1,1.8-1.3,3.3-3.1,3.4
	s-3.3-1.3-3.4-3.1c0-0.1,0-0.2,0-0.4V51h-5.5c-1.7,0-3,1.3-3,3l0,0v30c0,1.7,1.3,3,3,3h38.2c1.7,0,3-1.3,3-3V54
	C79.7,52.4,78.3,51,76.7,51z M76.6,83.2H38.5V59.8h38.1V83.2z"/>
<path class="st3" d="M42.1,69.1h3.6c0.3,0,0.6,0.3,0.6,0.6v3.6c0,0.3-0.3,0.6-0.6,0.6h-3.6c-0.3,0-0.6-0.3-0.6-0.6v-3.6
	C41.5,69.4,41.7,69.1,42.1,69.1z"/>
<path class="st3" d="M42.1,76.4h3.6c0.3,0,0.6,0.3,0.6,0.6v3.6c0,0.3-0.3,0.6-0.6,0.6h-3.6c-0.3,0-0.6-0.3-0.6-0.6V77
	C41.5,76.7,41.7,76.4,42.1,76.4z"/>
<path class="st3" d="M48.9,69.1h3.6c0.3,0,0.6,0.3,0.6,0.6v3.6c0,0.3-0.3,0.6-0.6,0.6h-3.6c-0.3,0-0.6-0.3-0.6-0.6v-3.6
	C48.3,69.4,48.6,69.1,48.9,69.1z"/>
<path class="st3" d="M48.9,76.4h3.6c0.3,0,0.6,0.3,0.6,0.6v3.6c0,0.3-0.3,0.6-0.6,0.6h-3.6c-0.3,0-0.6-0.3-0.6-0.6V77
	C48.3,76.7,48.6,76.4,48.9,76.4z"/>
<path class="st3" d="M55.8,61.8h3.6c0.3,0,0.6,0.3,0.6,0.6V66c0,0.3-0.3,0.6-0.6,0.6h-3.6c-0.3,0-0.6-0.3-0.6-0.6v-3.6
	C55.2,62.1,55.4,61.8,55.8,61.8z"/>
<path class="st3" d="M55.8,69.1h3.6c0.3,0,0.6,0.3,0.6,0.6v3.6c0,0.3-0.3,0.6-0.6,0.6h-3.6c-0.3,0-0.6-0.3-0.6-0.6v-3.6
	C55.2,69.4,55.4,69.1,55.8,69.1z"/>
<path class="st3" d="M55.8,76.4h3.6c0.3,0,0.6,0.3,0.6,0.6v3.6c0,0.3-0.3,0.6-0.6,0.6h-3.6c-0.3,0-0.6-0.3-0.6-0.6V77
	C55.2,76.7,55.4,76.4,55.8,76.4z"/>
<path class="st3" d="M62.6,61.8h3.6c0.3,0,0.6,0.3,0.6,0.6V66c0,0.3-0.3,0.6-0.6,0.6h-3.6c-0.3,0-0.6-0.3-0.6-0.6v-3.6
	C62,62.1,62.3,61.8,62.6,61.8z"/>
<path class="st3" d="M62.6,69.1h3.6c0.3,0,0.6,0.3,0.6,0.6v3.6c0,0.3-0.3,0.6-0.6,0.6h-3.6c-0.3,0-0.6-0.3-0.6-0.6v-3.6
	C62,69.4,62.3,69.1,62.6,69.1z"/>
<path class="st3" d="M62.6,76.4h3.6c0.3,0,0.6,0.3,0.6,0.6v3.6c0,0.3-0.3,0.6-0.6,0.6h-3.6c-0.3,0-0.6-0.3-0.6-0.6V77
	C62,76.7,62.3,76.4,62.6,76.4z"/>
<path class="st3" d="M69.5,61.8h3.6c0.3,0,0.6,0.3,0.6,0.6V66c0,0.3-0.3,0.6-0.6,0.6h-3.6c-0.3,0-0.6-0.3-0.6-0.6v-3.6
	C68.9,62.1,69.1,61.8,69.5,61.8z"/>
<path class="st3" d="M69.5,69.1h3.6c0.3,0,0.6,0.3,0.6,0.6v3.6c0,0.3-0.3,0.6-0.6,0.6h-3.6c-0.3,0-0.6-0.3-0.6-0.6v-3.6
	C68.9,69.4,69.1,69.1,69.5,69.1z"/>
<path class="st3" d="M69.5,76.4h3.6c0.3,0,0.6,0.3,0.6,0.6v3.6c0,0.3-0.3,0.6-0.6,0.6h-3.6c-0.3,0-0.6-0.3-0.6-0.6V77
	C68.9,76.7,69.1,76.4,69.5,76.4z"/>
<path class="st4" d="M36.7,47.5V43c0-1.6-1.3-2.8-2.8-2.8l0,0l0,0c-1.6,0-2.9,1.3-2.9,2.8l0,0v3.6"/>
<path class="st4" d="M31,46.5v-4.6c0-1.6-1.3-2.8-2.9-2.8l0,0c-1.6,0-2.8,1.3-2.9,2.8v4.6"/>
<path class="st4" d="M32.1,67.7c-9.7,2.1-13.8-5.9-17.2-13.4c-1-2.2-6.5-14.1-0.4-13.6c3.4,0.3,4.1,5.7,5,8.2"/>
<path class="st4" d="M36.7,47.5c-0.1-2.2,0-5.7,3.2-5.3c3,0.4,2.8,4,2.7,6.3"/>
<path class="st4" d="M19.6,49V30.3c0.1-1.6,1.4-2.8,3-2.7c1.4,0.1,2.6,1.2,2.7,2.7v16.2"/>
<rect x="188.1" y="4.2" class="st5" width="148.9" height="6.5"/>
<rect x="90.9" y="4.2" class="st2" width="97.2" height="6.5"/>
</svg>
