<?xml version="1.0" encoding="utf-8"?>
<!-- Generator: Adobe Illustrator 19.0.0, SVG Export Plug-In . SVG Version: 6.00 Build 0)  -->
<svg version="1.1" id="Capa_2" xmlns="http://www.w3.org/2000/svg" xmlns:xlink="http://www.w3.org/1999/xlink" x="0px" y="0px"
	 viewBox="0 0 345.2 125.2" style="enable-background:new 0 0 345.2 125.2;" xml:space="preserve">
<style type="text/css">
	.st0{fill:#FFFFFF;stroke:#C64933;stroke-width:4.252;stroke-miterlimit:10;}
	.st1{fill:#474748;}
	.st2{fill:#C85437;}
	.st3{fill:#9A999E;stroke:#9A999E;stroke-width:1.7008;stroke-miterlimit:10;}
	.st4{fill:none;}
	.st5{fill:#9A999E;}
	.st6{font-family:'gobCL-Heavy';}
	.st7{font-size:33.6825px;}
</style>
<rect id="XMLID_10_" x="4.2" y="4.6" class="st0" width="336.9" height="116.2"/>
<g id="XMLID_98_">
	<g id="XMLID_478_">
		<path id="XMLID_524_" class="st1" d="M74.5,54.6l3.2-1.8c0.6,1.3,1.6,2.2,3.4,2.2c1.7,0,2.2-0.7,2.2-1.3c0-1-0.9-1.4-3.3-2
			c-2.4-0.7-4.7-1.8-4.7-4.9c0-3.1,2.6-4.9,5.4-4.9c2.6,0,4.7,1.3,5.9,3.6l-3.1,1.8c-0.6-1.1-1.3-1.9-2.8-1.9
			c-1.1,0-1.7,0.6-1.7,1.2c0,0.7,0.4,1.2,2.9,2c2.4,0.7,5.2,1.6,5.2,5c0,3.1-2.5,4.9-6,4.9C77.6,58.6,75.4,57,74.5,54.6z"/>
		<path id="XMLID_521_" class="st1" d="M87.5,52.6c0-3.4,2.7-6.1,6.1-6.1c3.4,0,6.1,2.6,6.1,6.1c0,3.4-2.7,6.1-6.1,6.1
			C90.2,58.6,87.5,56,87.5,52.6z M96.3,52.6c0-1.6-1.1-2.7-2.6-2.7S91,50.9,91,52.6s1.1,2.7,2.6,2.7S96.3,54.2,96.3,52.6z"/>
		<path id="XMLID_519_" class="st1" d="M100.7,41.5h3.4v16.8h-3.4V41.5z"/>
		<path id="XMLID_516_" class="st1" d="M105.5,43.7c0-1.1,0.9-2.1,2.1-2.1c1.1,0,2.1,0.9,2.1,2.1s-0.9,2.1-2.1,2.1
			C106.4,45.8,105.5,44.9,105.5,43.7z M105.8,46.8h3.4v11.5h-3.4V46.8z"/>
		<path id="XMLID_514_" class="st1" d="M110.3,52.6c0-3.4,2.6-6.1,6.1-6.1c2.2,0,4.2,1.2,5.2,2.9l-3,1.7c-0.4-0.8-1.2-1.3-2.2-1.3
			c-1.5,0-2.6,1.1-2.6,2.7c0,1.6,1.1,2.7,2.6,2.7c1,0,1.9-0.5,2.2-1.3l3,1.7c-1,1.8-2.9,3-5.2,3C112.9,58.6,110.3,56,110.3,52.6z"/>
		<path id="XMLID_511_" class="st1" d="M121.7,43.7c0-1.1,0.9-2.1,2.1-2.1c1.1,0,2.1,0.9,2.1,2.1s-0.9,2.1-2.1,2.1
			C122.6,45.8,121.7,44.9,121.7,43.7z M122,46.8h3.4v11.5H122V46.8z"/>
		<path id="XMLID_509_" class="st1" d="M131.5,50.1v4.1c0,1,0.9,1.1,2.4,1v3.1c-4.5,0.5-5.8-0.9-5.8-4.1v-4.1h-1.8v-3.3h1.8v-2.2
			l3.4-1v3.2h2.4v3.3H131.5z"/>
		<path id="XMLID_506_" class="st1" d="M146.4,46.8v11.5H143v-1.1c-0.8,0.9-1.9,1.4-3.4,1.4c-3,0-5.5-2.6-5.5-6.1
			c0-3.4,2.5-6.1,5.5-6.1c1.5,0,2.7,0.5,3.4,1.4v-1.1H146.4z M143,52.6c0-1.7-1.1-2.8-2.7-2.8c-1.6,0-2.7,1.1-2.7,2.8
			s1.1,2.8,2.7,2.8C141.8,55.4,143,54.3,143,52.6z"/>
		<path id="XMLID_504_" class="st1" d="M156.7,42.2v16.1H153V42.2H156.7z"/>
		<path id="XMLID_502_" class="st1" d="M169.4,51.2v7.1H166v-6.6c0-1.4-0.9-2.1-2-2.1c-1.3,0-2.1,0.7-2.1,2.4v6.3h-3.4V46.8h3.4v1.1
			c0.6-0.9,1.8-1.4,3.3-1.4C167.5,46.5,169.4,48.1,169.4,51.2z"/>
		<path id="XMLID_500_" class="st1" d="M175.1,46.8h2.1v3.3h-2.1v8.2h-3.4v-8.2h-1.5v-3.3h1.5c0-3.2,1.8-5.2,5.6-4.9v3.3
			C175.9,45.1,175.1,45.5,175.1,46.8z"/>
		<path id="XMLID_497_" class="st1" d="M176.6,52.6c0-3.4,2.7-6.1,6.1-6.1c3.4,0,6.1,2.6,6.1,6.1c0,3.4-2.7,6.1-6.1,6.1
			C179.3,58.6,176.6,56,176.6,52.6z M185.4,52.6c0-1.6-1.1-2.7-2.6-2.7s-2.6,1.1-2.6,2.7s1.1,2.7,2.6,2.7S185.4,54.2,185.4,52.6z"/>
		<path id="XMLID_495_" class="st1" d="M196.8,46.6v3.9c-1.4-0.2-3.4,0.3-3.4,2.6v5.2h-3.4V46.8h3.4v2
			C193.8,47.3,195.3,46.6,196.8,46.6z"/>
		<path id="XMLID_493_" class="st1" d="M214.7,51.2v7.1h-3.4v-6.8c0-1.1-0.6-1.9-1.7-1.9c-1.1,0-1.8,0.8-1.8,2.2v6.5h-3.4v-6.8
			c0-1.1-0.6-1.9-1.7-1.9c-1.1,0-1.8,0.8-1.8,2.2v6.5h-3.4V46.8h3.4v1.1c0.5-0.8,1.5-1.4,3.1-1.4c1.4,0,2.4,0.6,3,1.5
			c0.6-0.9,1.7-1.5,3.3-1.5C213,46.5,214.7,48.4,214.7,51.2z"/>
		<path id="XMLID_490_" class="st1" d="M227.9,46.8v11.5h-3.4v-1.1c-0.8,0.9-1.9,1.4-3.4,1.4c-3,0-5.5-2.6-5.5-6.1
			c0-3.4,2.5-6.1,5.5-6.1c1.5,0,2.7,0.5,3.4,1.4v-1.1H227.9z M224.5,52.6c0-1.7-1.1-2.8-2.7-2.8c-1.6,0-2.7,1.1-2.7,2.8
			s1.1,2.8,2.7,2.8C223.3,55.4,224.5,54.3,224.5,52.6z"/>
		<path id="XMLID_488_" class="st1" d="M229,52.6c0-3.4,2.6-6.1,6.1-6.1c2.2,0,4.2,1.2,5.2,2.9l-3,1.7c-0.4-0.8-1.2-1.3-2.2-1.3
			c-1.5,0-2.6,1.1-2.6,2.7c0,1.6,1.1,2.7,2.6,2.7c1,0,1.9-0.5,2.2-1.3l3,1.7c-1,1.8-2.9,3-5.2,3C231.6,58.6,229,56,229,52.6z"/>
		<path id="XMLID_485_" class="st1" d="M240.4,43.7c0-1.1,0.9-2.1,2.1-2.1c1.1,0,2.1,0.9,2.1,2.1s-0.9,2.1-2.1,2.1
			C241.3,45.8,240.4,44.9,240.4,43.7z M240.7,46.8h3.4v11.5h-3.4V46.8z"/>
		<path id="XMLID_481_" class="st1" d="M245.2,52.6c0-3.4,2.7-6.1,6.1-6.1s6.1,2.6,6.1,6.1c0,3.4-2.7,6.1-6.1,6.1
			S245.2,56,245.2,52.6z M254,52.6c0-1.6-1.1-2.7-2.6-2.7c-1.5,0-2.6,1.1-2.6,2.7s1.2,2.7,2.6,2.7C252.8,55.3,254,54.2,254,52.6z
			 M252.6,45.2l2.7-3.2h-4.1l-1.8,3.2H252.6z"/>
		<path id="XMLID_479_" class="st1" d="M269.5,51.2v7.1H266v-6.6c0-1.4-0.9-2.1-2-2.1c-1.3,0-2.1,0.7-2.1,2.4v6.3h-3.4V46.8h3.4v1.1
			c0.6-0.9,1.8-1.4,3.3-1.4C267.5,46.5,269.5,48.1,269.5,51.2z"/>
	</g>
</g>
<g id="XMLID_1_">
	<path id="XMLID_12_" class="st2" d="M87.6,80.1v4.3H76.2V64.9h4.5v15.2H87.6z"/>
	<path id="XMLID_34_" class="st2" d="M95.3,81.1c1.1,0,2.1-0.4,2.7-1.1l3.3,1.9c-1.4,1.9-3.4,2.9-6.1,2.9c-4.8,0-7.7-3.2-7.7-7.4
		s3-7.4,7.4-7.4c4.1,0,7.1,3.1,7.1,7.4c0,0.6-0.1,1.1-0.2,1.7h-9.9C92.5,80.6,93.7,81.1,95.3,81.1z M97.8,76c-0.4-1.6-1.7-2.2-3-2.2
		c-1.6,0-2.6,0.8-3,2.2H97.8z"/>
	<path id="XMLID_37_" class="st2" d="M115.9,70.5L111.1,84c-1.6,4.4-4,6.2-7.9,6v-3.9c1.9,0,2.9-0.6,3.5-2.3l-5.5-13.3h4.6l3.1,8.5
		l2.6-8.5H115.9z"/>
	<path id="XMLID_39_" class="st2" d="M136.5,64.9v19.5h-4.2v-1.3c-0.9,1.1-2.3,1.7-4.1,1.7c-3.6,0-6.7-3.2-6.7-7.4s3-7.4,6.7-7.4
		c1.9,0,3.2,0.6,4.1,1.7v-6.9H136.5z M132.3,77.5c0-2.1-1.4-3.4-3.3-3.4s-3.3,1.3-3.3,3.4s1.4,3.4,3.3,3.4S132.3,79.5,132.3,77.5z"
		/>
	<path id="XMLID_42_" class="st2" d="M145.5,81.1c1.1,0,2.1-0.4,2.7-1.1l3.3,1.9c-1.4,1.9-3.4,2.9-6.1,2.9c-4.8,0-7.7-3.2-7.7-7.4
		s3-7.4,7.4-7.4c4.1,0,7.1,3.1,7.1,7.4c0,0.6-0.1,1.1-0.2,1.7h-9.9C142.7,80.6,143.9,81.1,145.5,81.1z M148,76
		c-0.4-1.6-1.7-2.2-3-2.2c-1.6,0-2.6,0.8-3,2.2H148z"/>
	<path id="XMLID_45_" class="st2" d="M172.5,69.2h-5v15.2h-4.5V69.2h-5v-4.3h14.5V69.2z"/>
	<path id="XMLID_47_" class="st2" d="M179.9,70.2v4.7c-1.7-0.3-4.2,0.4-4.2,3.2v6.3h-4.2V70.5h4.2V73
		C176.3,71.1,178.1,70.2,179.9,70.2z"/>
	<path id="XMLID_59_" class="st2" d="M194.6,70.5v13.9h-4.2v-1.3c-0.9,1.1-2.3,1.7-4.1,1.7c-3.6,0-6.7-3.2-6.7-7.4s3-7.4,6.7-7.4
		c1.9,0,3.2,0.6,4.1,1.7v-1.3H194.6z M190.4,77.5c0-2.1-1.4-3.4-3.3-3.4c-1.9,0-3.3,1.3-3.3,3.4s1.4,3.4,3.3,3.4
		C189,80.9,190.4,79.5,190.4,77.5z"/>
	<path id="XMLID_64_" class="st2" d="M209.9,75.9v8.5h-4.2v-7.9c0-1.7-1.1-2.5-2.4-2.5c-1.5,0-2.6,0.9-2.6,2.9v7.6h-4.2V70.5h4.2
		v1.3c0.8-1,2.1-1.7,4-1.7C207.5,70.1,209.9,72.1,209.9,75.9z"/>
	<path id="XMLID_66_" class="st2" d="M222.5,80.2c0,3.2-2.8,4.6-5.8,4.6c-2.8,0-4.9-1.1-6-3.3l3.6-2.1c0.4,1.1,1.1,1.6,2.4,1.6
		c1,0,1.5-0.3,1.5-0.9c0-1.5-6.9-0.7-6.9-5.5c0-3,2.6-4.6,5.5-4.6c2.3,0,4.3,1,5.4,3l-3.6,1.9c-0.4-0.7-0.9-1.2-1.9-1.2
		c-0.7,0-1.2,0.3-1.2,0.8C215.6,76.1,222.5,75.1,222.5,80.2z"/>
	<path id="XMLID_77_" class="st2" d="M238.6,77.5c0,4.1-3,7.4-6.7,7.4c-1.9,0-3.2-0.6-4.1-1.7V90h-4.2V70.5h4.2v1.3
		c0.9-1.1,2.3-1.7,4.1-1.7C235.6,70.1,238.6,73.3,238.6,77.5z M234.4,77.5c0-2.1-1.4-3.4-3.3-3.4s-3.3,1.3-3.3,3.4s1.4,3.4,3.3,3.4
		S234.4,79.5,234.4,77.5z"/>
	<path id="XMLID_80_" class="st2" d="M254.1,70.5v13.9h-4.2v-1.3c-0.9,1.1-2.3,1.7-4.1,1.7c-3.6,0-6.7-3.2-6.7-7.4s3-7.4,6.7-7.4
		c1.9,0,3.2,0.6,4.1,1.7v-1.3H254.1z M249.9,77.5c0-2.1-1.4-3.4-3.3-3.4c-1.9,0-3.3,1.3-3.3,3.4s1.4,3.4,3.3,3.4
		C248.5,80.9,249.9,79.5,249.9,77.5z"/>
	<path id="XMLID_83_" class="st2" d="M264.4,70.2v4.7c-1.7-0.3-4.2,0.4-4.2,3.2v6.3h-4.2V70.5h4.2V73
		C260.8,71.1,262.7,70.2,264.4,70.2z"/>
	<path id="XMLID_85_" class="st2" d="M271.9,81.1c1.1,0,2.1-0.4,2.7-1.1l3.3,1.9c-1.4,1.9-3.4,2.9-6.1,2.9c-4.8,0-7.7-3.2-7.7-7.4
		s3-7.4,7.4-7.4c4.1,0,7.1,3.1,7.1,7.4c0,0.6-0.1,1.1-0.2,1.7h-9.9C269.1,80.6,270.4,81.1,271.9,81.1z M274.5,76
		c-0.4-1.6-1.7-2.2-3-2.2c-1.6,0-2.6,0.8-3,2.2H274.5z"/>
	<path id="XMLID_88_" class="st2" d="M293.2,75.9v8.5h-4.2v-7.9c0-1.7-1.1-2.5-2.4-2.5c-1.5,0-2.6,0.9-2.6,2.9v7.6h-4.2V70.5h4.2
		v1.3c0.8-1,2.1-1.7,4-1.7C290.9,70.1,293.2,72.1,293.2,75.9z"/>
	<path id="XMLID_90_" class="st2" d="M294.3,77.5c0-4.1,3.1-7.4,7.4-7.4c2.7,0,5.1,1.4,6.3,3.6l-3.6,2.1c-0.5-1-1.5-1.6-2.7-1.6
		c-1.8,0-3.1,1.3-3.1,3.2c0,1.9,1.3,3.2,3.1,3.2c1.2,0,2.3-0.6,2.7-1.6l3.6,2.1c-1.2,2.2-3.6,3.6-6.3,3.6
		C297.5,84.8,294.3,81.6,294.3,77.5z"/>
	<path id="XMLID_92_" class="st2" d="M308.1,66.8c0-1.4,1.1-2.5,2.5-2.5s2.5,1.1,2.5,2.5s-1.1,2.5-2.5,2.5S308.1,68.1,308.1,66.8z
		 M308.5,70.5h4.2v13.9h-4.2V70.5z"/>
	<path id="XMLID_95_" class="st2" d="M328.9,70.5v13.9h-4.2v-1.3c-0.9,1.1-2.3,1.7-4.1,1.7c-3.6,0-6.7-3.2-6.7-7.4s3-7.4,6.7-7.4
		c1.9,0,3.2,0.6,4.1,1.7v-1.3H328.9z M324.8,77.5c0-2.1-1.4-3.4-3.3-3.4c-1.9,0-3.3,1.3-3.3,3.4s1.4,3.4,3.3,3.4
		C323.4,80.9,324.8,79.5,324.8,77.5z"/>
</g>
<g id="XMLID_22_">
	<g id="XMLID_16_">
		<path id="_x30_4" class="st3" d="M63.8,47.9L52,36.1c-1-1-2.3-1.6-3.8-1.6H23.8c-2.9,0-5.3,2.4-5.3,5.3v48c0,2.9,2.4,5.3,5.3,5.3
			H60c2.9,0,5.3-2.4,5.3-5.3V51.6C65.3,50.2,64.8,48.9,63.8,47.9z M59.3,48.4h-7.8v-7.8L59.3,48.4z M60,89.7H23.8
			c-1,0-1.8-0.8-1.8-1.8v-48c0-1,0.8-1.8,1.8-1.8H48v12c0,1,0.8,1.8,1.8,1.8h12v36C61.8,88.9,61,89.7,60,89.7z"/>
	</g>
	<rect id="XMLID_3_" x="36.5" y="48.7" class="st4" width="12.4" height="38.1"/>
	<text id="XMLID_2_" transform="matrix(1 0 0 1 36.4958 71.9223)" class="st5 st6 st7">ยก</text>
</g>
</svg>
