<?xml version="1.0" encoding="utf-8"?>
<!-- Generator: Adobe Illustrator 19.0.0, SVG Export Plug-In . SVG Version: 6.00 Build 0)  -->
<svg version="1.1" xmlns="http://www.w3.org/2000/svg" xmlns:xlink="http://www.w3.org/1999/xlink" x="0px" y="0px"
	 viewBox="0 0 345.2 125.2" style="enable-background:new 0 0 345.2 125.2;" xml:space="preserve">
<style type="text/css">
	.st0{fill:#FFFFFF;stroke:#C64933;stroke-width:4.252;stroke-miterlimit:10;}
	.st1{fill:#9A999E;stroke:#9A999E;stroke-width:1.7008;stroke-miterlimit:10;}
	.st2{fill:#9A999E;}
	.st3{fill:#474748;}
	.st4{fill:#C85437;}
</style>
<g id="Capa_2">
	<rect id="XMLID_10_" x="4.2" y="4.6" class="st0" width="336.9" height="116.2"/>
	<g id="XMLID_16_">
		<path id="_x30_4" class="st1" d="M63.8,48.4L52,36.6c-1-1-2.3-1.6-3.8-1.6H23.8c-2.9,0-5.3,2.4-5.3,5.3v48c0,2.9,2.4,5.3,5.3,5.3
			H60c2.9,0,5.3-2.4,5.3-5.3V52.2C65.3,50.7,64.8,49.4,63.8,48.4z M59.3,48.9h-7.8v-7.8L59.3,48.9z M60,90.2H23.8
			c-1,0-1.8-0.8-1.8-1.8v-48c0-1,0.8-1.8,1.8-1.8H48v12c0,1,0.8,1.8,1.8,1.8h12v36C61.8,89.4,61,90.2,60,90.2z"/>
		<path id="XMLID_2_" class="st2" d="M36.2,67h18c0.6,0,1.1-0.5,1.1-1.1V63c0-0.6-0.5-1.1-1.1-1.1h-18c-0.6,0-1.1,0.5-1.1,1.1v2.8
			C35.1,66.5,35.6,67,36.2,67z"/>
		<path id="XMLID_6_" class="st2" d="M29,67h3.2c0.6,0,1-0.4,1-1v-3.1c0-0.6-0.4-1-1-1H29c-0.6,0-1,0.4-1,1V66
			C28,66.5,28.5,67,29,67z"/>
		<path id="XMLID_7_" class="st2" d="M36.2,74.1h18c0.6,0,1.1-0.5,1.1-1.1v-2.8c0-0.6-0.5-1.1-1.1-1.1h-18c-0.6,0-1.1,0.5-1.1,1.1
			v2.8C35.1,73.6,35.6,74.1,36.2,74.1z"/>
		<path id="XMLID_8_" class="st2" d="M29,74.1h3.2c0.6,0,1-0.4,1-1V70c0-0.6-0.4-1-1-1H29c-0.6,0-1,0.4-1,1v3.1
			C28,73.6,28.5,74.1,29,74.1z"/>
		<path id="XMLID_9_" class="st2" d="M36.2,81.2h18c0.6,0,1.1-0.5,1.1-1.1v-2.8c0-0.6-0.5-1.1-1.1-1.1h-18c-0.6,0-1.1,0.5-1.1,1.1
			V80C35.1,80.6,35.6,81.2,36.2,81.2z"/>
		<path id="XMLID_11_" class="st2" d="M29,81.2h3.2c0.6,0,1-0.4,1-1V77c0-0.6-0.4-1-1-1H29c-0.6,0-1,0.4-1,1v3.1
			C28,80.7,28.5,81.2,29,81.2z"/>
	</g>
	<g id="XMLID_101_">
		<g id="XMLID_481_">
			<path id="XMLID_527_" class="st3" d="M86.1,45.7H82v12.6h-3.7V45.7h-4.1v-3.5h12V45.7z"/>
			<path id="XMLID_525_" class="st3" d="M92.2,46.6v3.9c-1.4-0.2-3.4,0.3-3.4,2.6v5.2h-3.4V46.8h3.4v2
				C89.2,47.3,90.8,46.6,92.2,46.6z"/>
			<path id="XMLID_522_" class="st3" d="M104.4,46.8v11.5h-3.4v-1.1c-0.8,0.9-1.9,1.4-3.4,1.4c-3,0-5.5-2.6-5.5-6.1
				c0-3.4,2.5-6.1,5.5-6.1c1.5,0,2.7,0.5,3.4,1.4v-1.1H104.4z M100.9,52.6c0-1.7-1.1-2.8-2.7-2.8s-2.7,1.1-2.7,2.8s1.1,2.8,2.7,2.8
				S100.9,54.3,100.9,52.6z"/>
			<path id="XMLID_520_" class="st3" d="M117,51.2v7.1h-3.4v-6.6c0-1.4-0.9-2.1-2-2.1c-1.3,0-2.1,0.7-2.1,2.4v6.3H106V46.8h3.4v1.1
				c0.6-0.9,1.8-1.4,3.3-1.4C115,46.5,117,48.1,117,51.2z"/>
			<path id="XMLID_518_" class="st3" d="M127.4,54.9c0,2.6-2.3,3.8-4.8,3.8c-2.3,0-4-0.9-4.9-2.7l3-1.7c0.3,0.9,0.9,1.4,2,1.4
				c0.8,0,1.2-0.3,1.2-0.7c0-1.3-5.7-0.6-5.7-4.6c0-2.5,2.1-3.8,4.5-3.8c1.9,0,3.5,0.8,4.5,2.5l-2.9,1.6c-0.3-0.6-0.8-1-1.5-1
				c-0.6,0-1,0.2-1,0.6C121.7,51.5,127.4,50.6,127.4,54.9z"/>
			<path id="XMLID_515_" class="st3" d="M140.7,52.6c0,3.4-2.5,6.1-5.5,6.1c-1.5,0-2.7-0.5-3.4-1.4v5.7h-3.4V46.8h3.4v1.1
				c0.8-0.9,1.9-1.4,3.4-1.4C138.2,46.5,140.7,49.1,140.7,52.6z M137.2,52.6c0-1.7-1.1-2.8-2.7-2.8c-1.6,0-2.7,1.1-2.7,2.8
				s1.1,2.8,2.7,2.8C136.1,55.4,137.2,54.3,137.2,52.6z"/>
			<path id="XMLID_512_" class="st3" d="M153.5,46.8v11.5h-3.4v-1.1c-0.8,0.9-1.9,1.4-3.4,1.4c-3,0-5.5-2.6-5.5-6.1
				c0-3.4,2.5-6.1,5.5-6.1c1.5,0,2.7,0.5,3.4,1.4v-1.1H153.5z M150.1,52.6c0-1.7-1.1-2.8-2.7-2.8s-2.7,1.1-2.7,2.8s1.1,2.8,2.7,2.8
				S150.1,54.3,150.1,52.6z"/>
			<path id="XMLID_510_" class="st3" d="M162,46.6v3.9c-1.4-0.2-3.4,0.3-3.4,2.6v5.2h-3.4V46.8h3.4v2C159,47.3,160.6,46.6,162,46.6z
				"/>
			<path id="XMLID_507_" class="st3" d="M168.2,55.5c0.9,0,1.7-0.4,2.2-0.9l2.8,1.6c-1.1,1.6-2.8,2.4-5,2.4c-3.9,0-6.4-2.6-6.4-6.1
				c0-3.4,2.5-6.1,6.1-6.1c3.4,0,5.8,2.6,5.8,6.1c0,0.5,0,0.9-0.1,1.4h-8.2C165.9,55.1,167,55.5,168.2,55.5z M170.3,51.4
				c-0.4-1.3-1.4-1.8-2.4-1.8c-1.3,0-2.2,0.6-2.5,1.8H170.3z"/>
			<path id="XMLID_505_" class="st3" d="M185.8,51.2v7.1h-3.4v-6.6c0-1.4-0.9-2.1-2-2.1c-1.3,0-2.1,0.7-2.1,2.4v6.3h-3.4V46.8h3.4
				v1.1c0.6-0.9,1.8-1.4,3.3-1.4C183.9,46.5,185.8,48.1,185.8,51.2z"/>
			<path id="XMLID_503_" class="st3" d="M186.7,52.6c0-3.4,2.6-6.1,6.1-6.1c2.2,0,4.2,1.2,5.2,2.9l-3,1.7c-0.4-0.8-1.2-1.3-2.2-1.3
				c-1.5,0-2.6,1.1-2.6,2.7c0,1.6,1.1,2.7,2.6,2.7c1,0,1.9-0.5,2.2-1.3l3,1.7c-1,1.8-2.9,3-5.2,3C189.3,58.6,186.7,56,186.7,52.6z"
				/>
			<path id="XMLID_500_" class="st3" d="M198.1,43.7c0-1.1,0.9-2.1,2.1-2.1c1.1,0,2.1,0.9,2.1,2.1s-0.9,2.1-2.1,2.1
				C199.1,45.8,198.1,44.9,198.1,43.7z M198.5,46.8h3.4v11.5h-3.4V46.8z"/>
			<path id="XMLID_497_" class="st3" d="M215.3,46.8v11.5h-3.4v-1.1c-0.8,0.9-1.9,1.4-3.4,1.4c-3,0-5.5-2.6-5.5-6.1
				c0-3.4,2.5-6.1,5.5-6.1c1.5,0,2.7,0.5,3.4,1.4v-1.1H215.3z M211.9,52.6c0-1.7-1.1-2.8-2.7-2.8c-1.6,0-2.7,1.1-2.7,2.8
				s1.1,2.8,2.7,2.8C210.7,55.4,211.9,54.3,211.9,52.6z"/>
			<path id="XMLID_494_" class="st3" d="M231.3,55.8h-6l-0.8,2.5h-4l5.5-16.1h4.7l5.5,16.1h-4L231.3,55.8z M230.2,52.3l-1.9-5.9
				l-1.9,5.9H230.2z"/>
			<path id="XMLID_492_" class="st3" d="M235.6,52.6c0-3.4,2.6-6.1,6.1-6.1c2.2,0,4.2,1.2,5.2,2.9l-3,1.7c-0.4-0.8-1.2-1.3-2.2-1.3
				c-1.5,0-2.6,1.1-2.6,2.7c0,1.6,1.1,2.7,2.6,2.7c1,0,1.9-0.5,2.2-1.3l3,1.7c-1,1.8-2.9,3-5.2,3C238.2,58.6,235.6,56,235.6,52.6z"
				/>
			<path id="XMLID_490_" class="st3" d="M251.7,50.1v4.1c0,1,0.9,1.1,2.4,1v3.1c-4.5,0.5-5.8-0.9-5.8-4.1v-4.1h-1.8v-3.3h1.8v-2.2
				l3.4-1v3.2h2.4v3.3H251.7z"/>
			<path id="XMLID_487_" class="st3" d="M254.7,43.7c0-1.1,0.9-2.1,2.1-2.1s2.1,0.9,2.1,2.1s-0.9,2.1-2.1,2.1S254.7,44.9,254.7,43.7
				z M255.1,46.8h3.4v11.5h-3.4V46.8z"/>
			<path id="XMLID_485_" class="st3" d="M271.3,46.8L267,58.3h-3.9l-4.3-11.5h3.8l2.4,7.3l2.4-7.3H271.3z"/>
			<path id="XMLID_482_" class="st3" d="M283,46.8v11.5h-3.4v-1.1c-0.8,0.9-1.9,1.4-3.4,1.4c-3,0-5.5-2.6-5.5-6.1
				c0-3.4,2.5-6.1,5.5-6.1c1.5,0,2.7,0.5,3.4,1.4v-1.1H283z M279.5,52.6c0-1.7-1.2-2.8-2.7-2.8c-1.6,0-2.7,1.1-2.7,2.8
				s1.2,2.8,2.7,2.8C278.4,55.4,279.5,54.3,279.5,52.6z"/>
		</g>
	</g>
	<g id="XMLID_15_">
		<path id="XMLID_17_" class="st4" d="M87.6,80.1v4.3H76.2V64.9h4.5v15.2H87.6z"/>
		<path id="XMLID_35_" class="st4" d="M95.3,81.1c1.1,0,2.1-0.4,2.7-1.1l3.3,1.9c-1.4,1.9-3.4,2.9-6.1,2.9c-4.8,0-7.7-3.2-7.7-7.4
			s3-7.4,7.4-7.4c4.1,0,7.1,3.1,7.1,7.4c0,0.6-0.1,1.1-0.2,1.7h-9.9C92.5,80.6,93.7,81.1,95.3,81.1z M97.8,76
			c-0.4-1.6-1.7-2.2-3-2.2c-1.6,0-2.6,0.8-3,2.2H97.8z"/>
		<path id="XMLID_40_" class="st4" d="M115.9,70.5L111.1,84c-1.6,4.4-4,6.2-7.9,6v-3.9c1.9,0,2.9-0.6,3.5-2.3l-5.5-13.3h4.6l3.1,8.5
			l2.6-8.5H115.9z"/>
		<path id="XMLID_42_" class="st4" d="M136.5,64.9v19.5h-4.2v-1.3c-0.9,1.1-2.3,1.7-4.1,1.7c-3.6,0-6.7-3.2-6.7-7.4s3-7.4,6.7-7.4
			c1.9,0,3.2,0.6,4.1,1.7v-6.9H136.5z M132.3,77.5c0-2.1-1.4-3.4-3.3-3.4s-3.3,1.3-3.3,3.4s1.4,3.4,3.3,3.4S132.3,79.5,132.3,77.5z"
			/>
		<path id="XMLID_45_" class="st4" d="M145.5,81.1c1.1,0,2.1-0.4,2.7-1.1l3.3,1.9c-1.4,1.9-3.4,2.9-6.1,2.9c-4.8,0-7.7-3.2-7.7-7.4
			s3-7.4,7.4-7.4c4.1,0,7.1,3.1,7.1,7.4c0,0.6-0.1,1.1-0.2,1.7h-9.9C142.7,80.6,143.9,81.1,145.5,81.1z M148,76
			c-0.4-1.6-1.7-2.2-3-2.2c-1.6,0-2.6,0.8-3,2.2H148z"/>
		<path id="XMLID_48_" class="st4" d="M172.5,69.2h-5v15.2h-4.5V69.2h-5v-4.3h14.5V69.2z"/>
		<path id="XMLID_50_" class="st4" d="M179.9,70.2v4.7c-1.7-0.3-4.2,0.4-4.2,3.2v6.3h-4.2V70.5h4.2V73
			C176.3,71.1,178.1,70.2,179.9,70.2z"/>
		<path id="XMLID_62_" class="st4" d="M194.6,70.5v13.9h-4.2v-1.3c-0.9,1.1-2.3,1.7-4.1,1.7c-3.6,0-6.7-3.2-6.7-7.4s3-7.4,6.7-7.4
			c1.9,0,3.2,0.6,4.1,1.7v-1.3H194.6z M190.4,77.5c0-2.1-1.4-3.4-3.3-3.4c-1.9,0-3.3,1.3-3.3,3.4s1.4,3.4,3.3,3.4
			C189,80.9,190.4,79.5,190.4,77.5z"/>
		<path id="XMLID_67_" class="st4" d="M209.9,75.9v8.5h-4.2v-7.9c0-1.7-1.1-2.5-2.4-2.5c-1.5,0-2.6,0.9-2.6,2.9v7.6h-4.2V70.5h4.2
			v1.3c0.8-1,2.1-1.7,4-1.7C207.5,70.1,209.9,72.1,209.9,75.9z"/>
		<path id="XMLID_69_" class="st4" d="M222.5,80.2c0,3.2-2.8,4.6-5.8,4.6c-2.8,0-4.9-1.1-6-3.3l3.6-2.1c0.4,1.1,1.1,1.6,2.4,1.6
			c1,0,1.5-0.3,1.5-0.9c0-1.5-6.9-0.7-6.9-5.5c0-3,2.6-4.6,5.5-4.6c2.3,0,4.3,1,5.4,3l-3.6,1.9c-0.4-0.7-0.9-1.2-1.9-1.2
			c-0.7,0-1.2,0.3-1.2,0.8C215.6,76.1,222.5,75.1,222.5,80.2z"/>
		<path id="XMLID_80_" class="st4" d="M238.6,77.5c0,4.1-3,7.4-6.7,7.4c-1.9,0-3.2-0.6-4.1-1.7V90h-4.2V70.5h4.2v1.3
			c0.9-1.1,2.3-1.7,4.1-1.7C235.6,70.1,238.6,73.3,238.6,77.5z M234.4,77.5c0-2.1-1.4-3.4-3.3-3.4s-3.3,1.3-3.3,3.4s1.4,3.4,3.3,3.4
			S234.4,79.5,234.4,77.5z"/>
		<path id="XMLID_83_" class="st4" d="M254.1,70.5v13.9h-4.2v-1.3c-0.9,1.1-2.3,1.7-4.1,1.7c-3.6,0-6.7-3.2-6.7-7.4s3-7.4,6.7-7.4
			c1.9,0,3.2,0.6,4.1,1.7v-1.3H254.1z M249.9,77.5c0-2.1-1.4-3.4-3.3-3.4c-1.9,0-3.3,1.3-3.3,3.4s1.4,3.4,3.3,3.4
			C248.5,80.9,249.9,79.5,249.9,77.5z"/>
		<path id="XMLID_86_" class="st4" d="M264.4,70.2v4.7c-1.7-0.3-4.2,0.4-4.2,3.2v6.3h-4.2V70.5h4.2V73
			C260.8,71.1,262.7,70.2,264.4,70.2z"/>
		<path id="XMLID_88_" class="st4" d="M271.9,81.1c1.1,0,2.1-0.4,2.7-1.1l3.3,1.9c-1.4,1.9-3.4,2.9-6.1,2.9c-4.8,0-7.7-3.2-7.7-7.4
			s3-7.4,7.4-7.4c4.1,0,7.1,3.1,7.1,7.4c0,0.6-0.1,1.1-0.2,1.7h-9.9C269.1,80.6,270.4,81.1,271.9,81.1z M274.5,76
			c-0.4-1.6-1.7-2.2-3-2.2c-1.6,0-2.6,0.8-3,2.2H274.5z"/>
		<path id="XMLID_91_" class="st4" d="M293.2,75.9v8.5h-4.2v-7.9c0-1.7-1.1-2.5-2.4-2.5c-1.5,0-2.6,0.9-2.6,2.9v7.6h-4.2V70.5h4.2
			v1.3c0.8-1,2.1-1.7,4-1.7C290.9,70.1,293.2,72.1,293.2,75.9z"/>
		<path id="XMLID_93_" class="st4" d="M294.3,77.5c0-4.1,3.1-7.4,7.4-7.4c2.7,0,5.1,1.4,6.3,3.6l-3.6,2.1c-0.5-1-1.5-1.6-2.7-1.6
			c-1.8,0-3.1,1.3-3.1,3.2c0,1.9,1.3,3.2,3.1,3.2c1.2,0,2.3-0.6,2.7-1.6l3.6,2.1c-1.2,2.2-3.6,3.6-6.3,3.6
			C297.5,84.8,294.3,81.6,294.3,77.5z"/>
		<path id="XMLID_95_" class="st4" d="M308.1,66.8c0-1.4,1.1-2.5,2.5-2.5s2.5,1.1,2.5,2.5s-1.1,2.5-2.5,2.5S308.1,68.1,308.1,66.8z
			 M308.5,70.5h4.2v13.9h-4.2V70.5z"/>
		<path id="XMLID_98_" class="st4" d="M328.9,70.5v13.9h-4.2v-1.3c-0.9,1.1-2.3,1.7-4.1,1.7c-3.6,0-6.7-3.2-6.7-7.4s3-7.4,6.7-7.4
			c1.9,0,3.2,0.6,4.1,1.7v-1.3H328.9z M324.8,77.5c0-2.1-1.4-3.4-3.3-3.4c-1.9,0-3.3,1.3-3.3,3.4s1.4,3.4,3.3,3.4
			C323.4,80.9,324.8,79.5,324.8,77.5z"/>
	</g>
</g>
<g id="Capa_3">
</g>
</svg>
