<?xml version="1.0" encoding="utf-8"?>
<!-- Generator: Adobe Illustrator 22.1.0, SVG Export Plug-In . SVG Version: 6.00 Build 0)  -->
<svg version="1.1" id="Modo_de_aislamiento" xmlns="http://www.w3.org/2000/svg" xmlns:xlink="http://www.w3.org/1999/xlink"
	 x="0px" y="0px" viewBox="0 0 425.2 350" style="enable-background:new 0 0 425.2 425.2;" xml:space="preserve">
<style type="text/css">
	.st0{fill:#F2CDAC;}
	.st1{fill:#EF8A52;}
	.st2{fill:#3E4350;}
	.st3{fill:#E6ECFF;}
	.st4{fill:#4CC9F0;}
	.st5{fill:#3089E0;}
	.st6{fill:#236AD8;}
	.st7{fill:#154AD0;}
	.st8{fill:#3EA9E8;}
	.st9{fill:#072AC8;}
	.st10{fill:#FFFFFF;}
	.st11{fill:#1A1B1D;}
</style>
<g>
	<g>
		<g>
			<path class="st0" d="M280.5,169.9c0.7-1.5-1-4.3-2.1-5c-1.1-0.7-8.9-5.7-8.9-5.7l-11.5-4.3c-10.9-6.7-18.9-13.3-26-19.9
				c-3-2.8-5.9-5.6-8.7-8.4c-1.4-1.4-2.8-2.7-4.2-4.1c-4.7-4.5-21.1-5.7-22.5,1.9c-0.9,5.1,4.8,11.3,13,17.2
				c5.7,4.2,12.6,8.2,19.2,11.7c10.8,5.7,20.9,10,24,10.9c0,0,7,5.1,8.6,6c1.6,0.9,8,2.8,9.3,3.1
				C272.1,173.6,279.7,171.4,280.5,169.9z"/>
			<path class="st1" d="M228.8,153.3c-6.6-3.5-13.5-7.5-19.2-11.7c5-6.8,10.7-14.4,10.9-14.6c0.1-0.1,1.2-0.2,2.8-0.4
				c2.8,2.8,5.7,5.6,8.7,8.4C228.1,140.1,227.1,146.9,228.8,153.3z"/>
			<g>
				<path class="st2" d="M261.9,166.7l5.9-13c0.3-0.7,1.2-1,1.9-0.7l27,12.3c0.7,0.3,1,1.2,0.7,1.9l-5.9,13c-0.3,0.7-1.2,1-1.9,0.7
					l-27-12.3C261.9,168.2,261.6,167.4,261.9,166.7z"/>
				<path class="st3" d="M265.2,166.5l5-11c0.2-0.4,0.7-0.6,1.1-0.4l24.2,11c0.4,0.2,0.6,0.7,0.4,1.1l-5,11
					c-0.2,0.4-0.7,0.6-1.1,0.4l-24.2-11C265.2,167.5,265,167,265.2,166.5z"/>
			</g>
			<path class="st0" d="M270.8,159.9c1.9,0,3.4-1.7,1.9-2.4c-1.3-0.5-3.6-2-4.8-2.7c-0.8-0.4-6.2,0.4-10,0.1c0,0,3.3,6.6,5.1,5.8
				C267.1,159.1,269.1,159.8,270.8,159.9z"/>
		</g>
		<path class="st4" d="M226.3,109c-5.5,6.5-10.1-18.1-10.1-18.1c-4.1-11.2-29.8-41.6-18.2-41.6C239.2,49.3,240.9,91.7,226.3,109z"/>
		<g>
			<path class="st5" d="M218.2,88l2.1,13.6c1.1,2.9,2.1,5.8,2.7,7.8c0,0,0,0.1,0,0.1c1.1,0.9,2.2,0.9,3.4-0.5
				c3.2-3.8,5.6-8.8,7-14.3C228.5,90.3,223,87.9,218.2,88z"/>
		</g>
		<path class="st6" d="M234.5,185.4c0,40.2-51.7,165.9-62.4,204.3c-0.8,3-8.6,7.2-9.5,4.2c-12.3-42-4.5-86.7,11.5-111
			c2.2-31.1,11.1-89.7,11.1-89.7S234.5,173.3,234.5,185.4z"/>
		<g>
			<path class="st7" d="M229.6,216c-8.5-5.8-20-10.7-32.3-11.6c0,0-8.5,6.3-16,16.1c-2,14.5-4.3,32.4-5.9,47.8
				c7.4,12.8,20,23.9,23.1,44.8C210.4,279.9,222.9,243.4,229.6,216z"/>
		</g>
		<path class="st8" d="M198.9,179.8c39,60.7,49,143.5,79.3,202.1c0.9,1.7-3.7,5.9-2.8,7.6c-25.7-7.2-61.7-58.5-66.1-90.4
			c-21.7-46.5-48.8-55.7-50.5-119.1C158.5,167.9,190.1,188.4,198.9,179.8z"/>
		<g>
			<path class="st7" d="M233.9,193.8c0.4-3.1,0.6-6,0.6-8.5c0-7.1-17.2-3.1-31.3,1.4c-1.4-2.3-2.8-4.6-4.3-6.9
				c-4.3,4.2-14.1,1.4-22.9-1.1l-17.2,2.8c0.1,1.7,0.1,3.4,0.2,5.1C172.7,195.4,221.6,202.3,233.9,193.8z"/>
		</g>
		<path class="st9" d="M198,49.3c-32.1,0-40.7,105.5-42.4,132.8c-0.2,2.5,2.2,4.3,4.7,3.6c19.8-5.8,75.8,12.4,75.8-3.8
			C236,150.9,225.3,49.3,198,49.3z"/>
		<g>
			<path class="st5" d="M174.9,83l-4.5,2.8c-5.1,16.6-8.5,36.5-10.8,54.4C164.1,138.5,186.2,118.1,174.9,83z"/>
		</g>
		<path class="st0" d="M137,116.1c11-24.3,21.6-42.8,34.3-54.8L188,77.1c-11,10.5-22.6,30.4-31.3,46.2c-7,21.6-17.7,33.8-20.9,59.5
			c-0.2,1.5-0.1,3,0.3,4.5c1.4,4.9,4.3,7,4.8,8.2c0.4,1,0.5,3.6,1.6,6.5c0.2,0.4,0,0.9-0.4,1.1c-1,0.5-2,0.2-2.5-0.2
			c-0.5-0.4-2.5-2.7-2.5-2.7c-0.9,2.5-0.6,10.2-0.6,11.8c0,1.6-3.2,1.8-4.6,1c-2-1.1-5.2-3.7-5.8-4.7c-0.6-1-3-5.3-3.3-6.6
			c-0.3-1.3-1.1-6.7-1.1-8.4c0.1-1.6,0.7-8,0.8-9.5C124.1,159.6,129.6,132.5,137,116.1z"/>
		<path class="st4" d="M141.6,93.2c-2,3.1,22.5,24.2,26,17.4c4.3-8.1,18.5-23.8,18.5-23.8c8.4-8.5,40.1-27.9,29.9-33.3
			C181.8,35.4,148.2,82.7,141.6,93.2z"/>
		<g>
			<path class="st10" d="M203.1,57.8c5.1-0.3,7.8-3.8,6-6.4c-0.7-1.1-3.7-1.7-10.2-1.7c-4.5,0-6.5,0.4-6.8,1.2
				C190.9,54.2,197,58.2,203.1,57.8z"/>
		</g>
		<g>
			<path class="st2" d="M194.9,22.7c0.1-3.8,4-5.7,7.7-5.7c3.7,0,8,2,10.7,2c2.6,0,3.4-1.2,3.4-1.2c3.5,3.5,0.7,8.5-2.4,9.2
				c-0.1,3.6-2.5,5-2.5,5L194.9,22.7z"/>
			<path class="st0" d="M195,52.6V39.6l12.1,1.6v12.4c0,0.6-0.7,2.7-3.4,3C199.2,57.1,195,55,195,52.6z"/>
			<g>
				<path class="st11" d="M207.1,53.1v-5.9l-7.8-3.1C199.4,46.8,200.4,52.1,207.1,53.1z"/>
			</g>
			<path class="st0" d="M208.3,25.8h-10.7v-0.9c-2,0-1.2,3.3-1.2,5.3v9.9c0,4.8,6.4,10.6,11.2,10.6c4.8,0,8.1-6.2,6.1-13.7
				C214,35,214.8,25.8,208.3,25.8z"/>
			<path class="st2" d="M199.6,25.7c0-2.7-2.2-4.9-4.9-4.9c-7.7,0-2.7,17.7,0,17.7c2.7,0,4.9-2.2,4.9-4.9
				C199.6,32,199.6,27.4,199.6,25.7z"/>
			<path class="st0" d="M196.5,40.3l-1.2,0.3c-1.3,0.3-2.3-0.4-2.5-1.7c-0.1-0.8-0.4-2.1-0.5-3.5c-0.1-1.1,0.9-2.1,2.1-2.1
				c1.1,0,2.1,0.9,2.1,2.1V40.3z"/>
			<circle class="st2" cx="199.9" cy="26.2" r="4"/>
		</g>
		<path class="st5" d="M194.7,87.7c2.8,0,5.1,1.7,5.1,3.8c0,2.1-2.3,3.8-5.1,3.8c-2.8,0-5.1-1.7-5.1-3.8
			C189.6,89.4,191.9,87.7,194.7,87.7z"/>
		<g>
			<path class="st9" d="M270.1,389.2l3.7,9.1c0.4,1,1.5,1.4,2.4,1l24.9-10.2c1.2-0.5,1.7-1.5,1.4-2.6c-0.1-0.5-0.5-1.2-1-1.6
				c-4.2-3-20.1-7-24.8-5.1c-4.4,1.8-1.8,3.7-5.7,6C270.1,386.6,269.6,388,270.1,389.2z"/>
			<path class="st10" d="M278,398.7c-1.7-6,0.6-11.8,0.6-11.8s2.5-0.4,4.7,0.3c-0.8,3.3-0.9,6.6-0.2,9.7L278,398.7z"/>
			<path class="st10" d="M302.9,390.3l-26.6,10.9c-0.6,0.2-1.2,0-1.5-0.6l-0.9-2.2l28.7-11.7l0.9,2.2
				C303.7,389.4,303.4,390,302.9,390.3z"/>
		</g>
		<g>
			<path class="st9" d="M160.9,394.3c-0.4,2.1-1.1,5.6-1.1,10.4c0,1.1,0.8,2,1.9,2l31.6,0c1.2,0,2.2-0.9,2.2-2
				c0-4.7-19.7-15.8-22.8-15.8c-3,0-4.4,2.7-9.4,3.3C162.1,392.3,161.1,393.1,160.9,394.3z"/>
			<path class="st10" d="M168.5,406.7c0.7-6.2,5-10.7,5-10.7s2.5,0.6,4.3,2c-2,2.7-3.3,5.7-3.9,8.9L168.5,406.7z"/>
			<path class="st10" d="M194.3,408.2h-33.4c-0.6,0-1.1-0.5-1.1-1.1v-2.4h35.7v2.4C195.5,407.7,195,408.2,194.3,408.2z"/>
		</g>
	</g>
	<g id="XMLID_1605_">
		<g id="XMLID_1625_">
			<g id="XMLID_1626_">
				<path id="XMLID_1627_" class="st11" d="M204.9,40.5c0.1-0.1,0.1-0.2,0.2-0.2c0,0,0.1,0,0.1,0l0.2,0c0.1,0,0.1,0,0.2,0
					c0,0,0.1,0,0.1,0c0.2,0,0.3,0,0.4,0l0.2,0c0.1,0,0.1,0,0.2,0c0,0,0.1-0.1,0.1-0.1c0.1,0,0.2-0.1,0.3-0.1c0.1,0,0.2-0.1,0.2-0.1
					c0,0,0.1-0.1,0.1-0.1c0,0,0.1,0,0.1-0.1l0-0.1c0-0.1,0-0.2,0.1-0.3c0-0.1,0-0.2,0.1-0.3c0-0.1,0-0.2,0-0.4l0,0c0,0,0,0,0,0l0,0
					c0,0,0-0.1,0-0.1l0-0.3l0-0.1l0-0.2l0-0.2c0-0.1,0-0.1,0-0.2c0,0,0-0.1,0-0.1c0,0,0-0.1,0-0.1c0-0.2-0.1-0.3,0-0.5
					c0-0.1,0-0.3,0-0.4l0-0.2c0-0.1,0-0.1,0-0.2l0-0.1c0-0.1-0.1-0.2-0.1-0.4c0-0.1,0-0.3,0-0.4c0-0.2,0-0.3,0-0.5c0,0,0-0.1,0-0.1
					c0,0,0-0.1,0-0.1l0-0.3c0-0.2,0-0.4,0-0.5c0-0.1-0.1-0.2,0-0.3c0,0,0-0.1,0-0.1c0,0,0.1-0.1,0.1-0.1c0.1-0.1,0.1-0.1,0.3-0.1
					c0.1,0,0.2,0,0.3,0c0.1,0,0.1,0.1,0.1,0.2c0,0,0,0.1,0,0.1c0,0.1,0,0.1,0,0.2c0,0.1,0,0.1,0,0.2c0.1,0.2,0,0.4,0.1,0.6
					c0,0.1,0,0.1,0.1,0.2c0,0.1,0,0.2,0,0.2l0,0l0,0c0.1,0.1,0.1,0.2,0,0.3c0,0.1,0,0.2,0,0.3c0,0.2,0,0.4,0.1,0.6c0,0,0,0.1,0,0.1
					c0,0.1,0.1,0.2,0,0.3c0,0.1,0,0.1,0,0.2c0,0.1,0,0.1,0,0.1c0,0.1,0,0.2,0.1,0.2c0,0.3,0.1,0.6,0.1,0.9c0,0.1,0,0.1,0,0.2
					c0,0,0,0.1,0,0.1c0,0.1,0,0.1,0,0.2c0,0.1,0,0.1,0,0.2l0,0.2c0,0,0,0.1,0,0.1c0,0.1,0,0.1,0,0.2c0,0.1,0,0.2-0.1,0.4
					c0,0.3-0.1,0.5-0.3,0.7c0,0.1-0.1,0.1-0.1,0.1c-0.1,0.1-0.2,0.2-0.3,0.3c-0.1,0-0.1,0.1-0.2,0.1c-0.1,0-0.1,0-0.2,0.1
					c-0.1,0.1-0.2,0.1-0.3,0.1c-0.4,0.1-0.7,0.1-1,0.1c-0.1,0-0.1,0-0.2,0c0,0-0.1,0-0.1,0c-0.1,0-0.1,0-0.2,0c-0.1,0-0.1,0-0.2,0
					l-0.2,0c-0.1,0-0.1,0-0.2-0.1c0,0-0.1,0-0.1,0c0,0,0-0.1-0.1-0.1c0-0.1,0-0.2,0-0.3C204.9,40.6,204.9,40.6,204.9,40.5z"/>
			</g>
		</g>
		<g>
			<g id="XMLID_1622_">
				<g id="XMLID_1623_">
					<path id="XMLID_1624_" class="st11" d="M194,38C193.9,38,193.9,38,194,38c-0.1-0.1-0.1-0.1-0.1-0.1l0,0c0,0,0-0.1,0-0.1
						c0,0,0,0,0,0c0,0,0-0.1,0.1-0.1l0-0.1c0,0,0,0,0.1,0c0,0,0,0,0,0c0,0,0.1-0.1,0.1-0.1c0,0,0.1,0,0.1-0.1l0,0c0,0,0,0,0,0l0,0
						c0,0,0.1-0.1,0.1-0.1c0,0,0.1,0,0.1,0c0,0,0.1,0,0.1,0l0,0l0,0l0,0c0,0,0,0,0,0l0.1,0c0,0,0,0,0,0c0,0,0,0,0.1,0l0.1,0
						c0,0,0,0,0.1,0c0,0,0,0,0,0c0,0,0,0,0,0c0,0,0.1,0,0.1,0c0,0,0.1,0,0.1,0l0.1,0c0,0,0,0,0,0l0,0c0,0,0.1,0,0.1,0
						c0,0,0.1,0,0.1,0.1c0,0,0.1,0,0.1,0.1c0,0,0,0,0,0c0,0,0,0,0,0l0.1,0c0.1,0,0.1,0.1,0.1,0.1c0,0,0.1,0,0.1,0.1c0,0,0,0,0,0
						c0,0,0,0,0,0.1c0,0-0.1,0.1-0.1,0.1c0,0-0.1,0-0.1,0c0,0-0.1,0-0.1,0l0,0c0,0,0,0,0,0c0,0,0,0,0,0c0,0-0.1-0.1-0.1-0.1
						c0,0,0,0,0,0c0,0,0,0,0,0l0,0l0,0c0,0,0,0-0.1,0c0,0,0,0-0.1,0c0,0-0.1,0-0.1-0.1l0,0c0,0,0,0-0.1,0c0,0,0,0,0,0c0,0,0,0,0,0
						c0,0,0,0-0.1,0c-0.1,0-0.1,0-0.2,0c0,0,0,0,0,0l0,0c0,0,0,0,0,0c0,0,0,0,0,0l0,0l0,0c0,0,0,0,0,0c0,0,0,0-0.1,0
						c0,0-0.1,0-0.1,0c0,0,0,0,0,0c0,0,0,0-0.1,0c0,0,0,0,0,0c0,0,0,0,0,0c0,0,0,0,0,0.1c-0.1,0-0.1,0.1-0.1,0.1c0,0,0,0,0,0
						c0,0,0,0,0,0c0,0,0,0,0,0c0,0,0,0,0,0l0,0c0,0,0,0,0,0c0,0,0,0,0,0c0,0,0,0-0.1,0C194.1,38.1,194.1,38.1,194,38
						C194,38,194,38,194,38z"/>
				</g>
			</g>
			<g id="XMLID_1619_">
				<g id="XMLID_1620_">
					<path id="XMLID_1621_" class="st11" d="M194.7,39c-0.1,0-0.1,0-0.1,0c0,0,0,0,0,0l0-0.1c0,0,0,0,0-0.1c0,0,0,0,0,0
						c0,0,0-0.1,0-0.1l0-0.1c0,0,0,0,0-0.1c0,0,0,0,0,0c0,0,0-0.1,0-0.1c0,0,0-0.1,0-0.1l0,0c0,0,0,0,0,0l0,0c0,0,0-0.1,0-0.1
						c0,0,0-0.1,0.1-0.1c0,0,0-0.1,0.1-0.1l0,0l0,0l0,0c0,0,0,0,0,0l0.1-0.1l0,0c0,0,0,0,0,0l0,0c0,0,0,0,0,0c0,0,0,0,0,0l0,0
						c0,0,0.1,0,0.1,0c0,0,0.1,0,0.1,0l0,0c0,0,0,0,0,0l0,0c0,0,0.1,0,0.1,0c0,0,0.1,0,0.1,0c0,0,0.1,0,0.1,0c0,0,0,0,0,0
						c0,0,0,0,0,0l0.1,0c0.1,0,0.1,0.1,0.1,0c0,0,0.1,0,0.1,0c0,0,0,0,0,0c0,0,0,0,0,0.1c0,0,0,0.1,0,0.1c0,0,0,0.1-0.1,0.1
						c0,0,0,0.1-0.1,0l0,0c0,0,0,0,0,0c0,0,0,0,0,0c0,0-0.1,0-0.1,0c0,0,0,0,0,0c0,0,0,0,0,0l0,0l0,0c0,0,0,0,0,0c0,0,0,0-0.1,0
						c0,0-0.1,0-0.1,0l0,0c0,0,0,0,0,0c0,0,0,0,0,0l0,0c0,0,0,0,0,0c0,0-0.1,0-0.1,0.1c0,0,0,0,0,0l0,0l0,0c0,0,0,0,0,0l0,0l0,0l0,0
						c0,0,0,0,0,0c0,0,0,0.1-0.1,0.1l0,0c0,0,0,0,0,0.1c0,0,0,0,0,0c0,0,0,0,0,0c0,0,0,0,0,0c0,0.1,0,0.1,0,0.2c0,0,0,0,0,0l0,0
						c0,0,0,0,0,0c0,0,0,0,0,0l0,0c0,0,0,0,0,0s0,0,0,0c0,0,0,0,0,0c0,0-0.1,0-0.1,0C194.8,39,194.8,38.9,194.7,39z"/>
				</g>
			</g>
		</g>
		<g id="XMLID_1616_">
			<g id="XMLID_1617_">
				<path id="XMLID_1618_" class="st11" d="M203.7,42.3c0.1,0,0.2,0,0.2,0c0,0,0,0,0,0l0,0.1c0,0,0.1,0,0.1,0.1c0,0,0,0,0,0.1
					c0,0,0.1,0.1,0.1,0.2l0.1,0.1c0,0,0,0.1,0,0.1c0,0,0.1,0,0.1,0c0,0.1,0.1,0.1,0.1,0.2c0,0,0.1,0.1,0.1,0.1l0.1,0.1
					c0,0,0,0,0,0.1l0,0c0,0,0.1,0,0.1,0.1c0,0,0.1,0.1,0.1,0.1c0.1,0,0.1,0.1,0.2,0.1l0,0l0,0l0,0c0,0,0,0,0.1,0l0.1,0l0,0
					c0,0,0,0,0.1,0l0.1,0c0,0,0,0,0.1,0c0,0,0,0,0,0l0,0c0.1,0,0.1,0,0.2,0.1c0.1,0,0.1,0,0.2,0l0.1,0c0,0,0,0,0.1,0l0,0
					c0.1,0,0.1,0,0.2,0c0.1,0,0.1,0,0.2,0c0.1,0,0.1,0,0.2,0c0,0,0,0,0,0c0,0,0,0,0.1,0l0.1,0c0.1,0,0.2,0,0.2,0
					c0,0,0.1-0.1,0.1-0.1c0,0,0,0,0.1,0c0,0,0.1,0,0.1,0.1c0.1,0,0.1,0.1,0.1,0.2c0,0.1,0.1,0.2,0,0.3c0,0.1,0,0.1,0,0.1
					c0,0,0,0-0.1,0s-0.1,0-0.1,0.1c0,0-0.1,0-0.1,0c-0.1,0.1-0.2,0.1-0.3,0c0,0-0.1,0-0.1,0c0,0-0.1,0-0.1,0l0,0l0,0
					c0,0.1-0.1,0-0.1,0.1c-0.1,0-0.1,0-0.2,0c-0.1,0-0.2,0-0.4,0c0,0,0,0-0.1,0c-0.1,0-0.1,0-0.2,0c0,0-0.1,0-0.1,0c0,0,0,0-0.1,0
					s-0.1,0-0.1,0c-0.2,0-0.3-0.1-0.5-0.2c0,0-0.1,0-0.1,0c0,0,0,0-0.1,0c0,0-0.1,0-0.1,0c0,0-0.1,0-0.1,0l-0.1,0c0,0,0,0,0,0
					c0,0-0.1,0-0.1,0c-0.1,0-0.1-0.1-0.1-0.1c-0.1-0.1-0.2-0.1-0.2-0.2c0,0,0,0-0.1,0c-0.1,0-0.1-0.1-0.1-0.1c0,0-0.1,0-0.1-0.1
					c0,0,0-0.1,0-0.1c0,0-0.1,0-0.1-0.1c-0.1-0.1-0.2-0.3-0.3-0.4c0,0,0,0,0-0.1c0,0,0,0,0-0.1c0,0,0,0-0.1-0.1c0,0,0-0.1-0.1-0.1
					l0-0.1c0,0,0-0.1,0-0.1c0,0,0,0,0-0.1c0,0,0-0.1,0.1-0.1c0.1,0,0.1-0.1,0.2-0.1C203.6,42.4,203.6,42.3,203.7,42.3z"/>
			</g>
		</g>
		<g id="XMLID_1614_">
			<path id="XMLID_1615_" class="st11" d="M202.5,36.5L202.5,36.5c0.5,0,0.9-0.4,0.9-0.8l0-0.4c0-0.5-0.3-0.9-0.8-0.9
				c-0.5,0-0.9,0.4-0.9,0.8l0,0.4C201.7,36.1,202.1,36.4,202.5,36.5z"/>
		</g>
		<g id="XMLID_1612_">
			<path id="XMLID_1613_" class="st11" d="M211.6,36.6L211.6,36.6c0.5,0,0.9-0.4,0.9-0.8l0-0.4c0-0.5-0.3-0.9-0.8-0.9
				c-0.5,0-0.9,0.4-0.9,0.8l0,0.4C210.8,36.2,211.2,36.5,211.6,36.6z"/>
		</g>
		<g id="XMLID_1609_">
			<g id="XMLID_1610_">
				<path id="XMLID_1611_" class="st11" d="M200.6,32.7c-0.1-0.1-0.1-0.2-0.1-0.2c0,0,0,0,0-0.1l0.1-0.1c0,0,0-0.1,0.1-0.1
					c0,0,0,0,0.1,0c0.1,0,0.1-0.1,0.2-0.1L201,32c0,0,0.1,0,0.1,0c0,0,0-0.1,0.1-0.1c0.1,0,0.1-0.1,0.2-0.1c0.1,0,0.1,0,0.2-0.1
					l0.1,0c0,0,0,0,0.1,0l0,0c0,0,0.1-0.1,0.1-0.1c0.1,0,0.1,0,0.2,0c0.1,0,0.1,0,0.2,0l0,0l0,0l0,0c0,0,0,0,0.1,0l0.1,0l0,0
					c0,0,0,0,0.1,0l0.1,0c0,0,0.1,0,0.1,0c0,0,0,0,0,0s0,0,0,0c0.1,0,0.1,0,0.2,0c0.1,0,0.1,0,0.2,0l0.1,0c0,0,0,0,0.1,0l0,0
					c0.1,0,0.1,0,0.2,0c0.1,0,0.1,0,0.2,0c0.1,0,0.1,0,0.2,0l0,0c0,0,0,0,0.1,0l0.1,0c0.1,0,0.1,0.1,0.2,0.1c0.1,0,0.1,0,0.1,0
					c0,0,0,0,0,0c0,0,0,0.1,0,0.1c0,0.1,0,0.2-0.1,0.3c0,0.1-0.1,0.2-0.1,0.2c0,0.1-0.1,0.1-0.1,0.1l0,0c0,0,0,0-0.1,0
					c0,0,0,0-0.1,0c-0.1,0-0.1,0-0.2-0.1c0,0-0.1,0-0.1,0c0,0-0.1,0-0.1,0l0,0l0,0c0,0-0.1,0-0.1,0c0,0-0.1,0-0.1,0
					c-0.1,0-0.1,0-0.2,0l0,0c0,0-0.1,0-0.1,0s0,0-0.1,0c0,0,0,0,0,0c0,0-0.1,0-0.1,0c-0.1,0-0.2,0-0.3,0c0,0,0,0-0.1,0l0,0
					c0,0,0,0,0,0c0,0,0,0-0.1,0l-0.1,0l0,0c0,0,0,0-0.1,0c0,0-0.1,0-0.1,0c-0.1,0-0.1,0.1-0.2,0.1c0,0,0,0,0,0c0,0-0.1,0-0.1,0.1
					c0,0,0,0-0.1,0s0,0-0.1,0c0,0,0,0-0.1,0.1c-0.1,0-0.2,0.1-0.3,0.1l0,0l0,0l0,0c0,0,0,0,0,0l-0.1,0c0,0,0,0-0.1,0c0,0,0,0-0.1,0
					c0,0-0.1,0-0.1-0.1c-0.1,0-0.1-0.1-0.2-0.2C200.6,32.8,200.6,32.7,200.6,32.7z"/>
			</g>
		</g>
		<g id="XMLID_1606_">
			<g id="XMLID_1607_">
				<path id="XMLID_1608_" class="st11" d="M213.4,33c-0.1,0.1-0.1,0.1-0.2,0.2c0,0,0,0,0,0l-0.1,0c0,0-0.1,0-0.1,0l0,0
					c0,0-0.1,0-0.2-0.1l-0.1,0c0,0,0,0-0.1-0.1c0,0,0,0-0.1,0c0,0-0.1,0-0.1-0.1c0,0-0.1,0-0.1-0.1l-0.1,0c0,0,0,0,0,0l0,0
					c0,0-0.1,0-0.1,0c-0.1,0-0.1,0-0.1,0c-0.1,0-0.1,0-0.2,0l0,0l0,0l0,0c0,0,0,0-0.1,0l-0.1,0l0,0c0,0,0,0-0.1,0l-0.1,0
					c0,0,0,0-0.1,0l0,0c0,0,0,0,0,0c-0.1,0-0.1,0-0.2,0c0,0-0.1,0-0.1,0l-0.1,0c0,0,0,0-0.1,0l0,0c0,0-0.1,0.1-0.1,0.1
					c-0.1,0-0.1,0-0.1,0c-0.1,0-0.1,0-0.2,0l0,0c0,0,0,0,0,0l-0.1,0c-0.1,0-0.1,0-0.2,0c0,0,0,0.1-0.1,0.1l0,0c0,0-0.1,0-0.1-0.1
					c-0.1,0-0.1-0.1-0.1-0.2c0-0.1-0.1-0.2-0.1-0.3c0-0.1,0-0.1,0-0.1c0,0,0,0,0,0c0,0,0,0,0.1,0c0,0,0.1,0,0.1,0
					c0.1-0.1,0.2-0.1,0.2-0.1c0,0,0,0,0.1,0s0.1,0,0.1,0l0,0l0,0c0-0.1,0.1,0,0.1-0.1c0,0,0.1,0,0.1,0c0.1,0,0.2,0,0.3,0
					c0,0,0,0,0.1,0c0,0,0.1,0,0.1,0c0,0,0,0,0.1,0c0,0,0,0,0.1,0s0.1,0,0.1,0c0.1,0,0.3,0,0.4,0c0,0,0,0,0.1,0c0,0,0,0,0.1,0
					c0,0,0,0,0.1,0c0,0,0.1,0,0.1,0l0.1,0l0,0c0,0,0.1,0,0.1,0c0,0,0.1,0,0.1,0c0.1,0,0.2,0,0.3,0.1c0,0,0,0,0.1,0s0.1,0,0.1,0
					c0,0,0,0,0.1,0c0,0,0,0,0,0c0,0,0.1,0,0.1,0c0.1,0,0.2,0.1,0.3,0.2c0,0,0,0,0.1,0l0,0c0,0,0,0,0.1,0c0,0,0.1,0,0.1,0l0.1,0
					c0,0,0,0,0,0.1c0,0,0,0,0,0c0,0,0,0.1,0,0.1c0,0.1-0.1,0.1-0.1,0.2C213.5,32.9,213.5,32.9,213.4,33z"/>
			</g>
		</g>
	</g>
</g>
</svg>
