<?xml version="1.0" encoding="utf-8"?>
<!-- Generator: Adobe Illustrator 25.4.1, SVG Export Plug-In . SVG Version: 6.00 Build 0)  -->
<svg version="1.1" id="Capa_1" xmlns="http://www.w3.org/2000/svg" xmlns:xlink="http://www.w3.org/1999/xlink" x="0px" y="0px"
	 viewBox="0 0 68.2 144.97" style="enable-background:new 0 0 68.2 144.97;" xml:space="preserve">
<style type="text/css">
	.st0{fill:#3089E0;}
	.st1{fill:#FFFFFF;}
</style>
<g>
	<g>
		<path class="st0" d="M9.9,106.36c-1.77-1.63-3.37-3.43-4.77-5.38c-4.43-6.15-8.27-15.29-1.3-21.17
			c4.05-3.42,10.68-3.18,13.81-7.46c3.05-4.17,0.96-10-1.17-14.71c-4.51-9.97-8.91-20.42-8.66-31.36
			c0.25-10.94,6.44-22.5,16.94-25.55C35.19-2.3,46.86,4.4,51.48,14.23c4.63,9.83,3.1,21.74-1.84,31.42c-1.17,2.3-2.57,4.79-1.98,7.3
			c0.81,3.43,4.72,4.9,7.81,6.6c7.92,4.34,12.73,13.44,12.73,22.47s-4.47,17.78-11.21,23.8c-8.83,7.88-21.38,12.13-32.95,8.65
			C18.81,112.89,13.93,110.07,9.9,106.36z"/>
	</g>
	<g>
		<g>
			<g>
				<path class="st1" d="M32.72,46.39c-0.71,32.65-1.06,65.23-0.8,97.89c0.01,0.91,1.43,0.92,1.42,0
					c-0.25-32.66,0.1-65.24,0.8-97.89C34.16,45.48,32.74,45.48,32.72,46.39L32.72,46.39z"/>
			</g>
		</g>
		<g>
			<g>
				<path class="st1" d="M33.28,77.42c5.31-3.82,10.62-7.64,15.94-11.46c0.74-0.53,0.03-1.76-0.72-1.23
					c-5.31,3.82-10.62,7.64-15.94,11.46C31.82,76.73,32.53,77.96,33.28,77.42L33.28,77.42z"/>
			</g>
		</g>
		<g>
			<g>
				<path class="st1" d="M33.39,53.41c-4.2-2.74-8.32-5.6-12.35-8.59c-0.74-0.54-1.45,0.69-0.72,1.23
					c4.03,2.98,8.15,5.85,12.35,8.59C33.44,55.14,34.15,53.91,33.39,53.41L33.39,53.41z"/>
			</g>
		</g>
		<g>
			<g>
				<path class="st1" d="M32.22,98.16c-6.34-1.55-12.43-3.7-18.33-6.49c-0.82-0.39-1.55,0.84-0.72,1.23
					c6,2.84,12.22,5.06,18.67,6.64C32.73,99.75,33.11,98.38,32.22,98.16L32.22,98.16z"/>
			</g>
		</g>
	</g>
</g>
</svg>
