<?xml version="1.0" encoding="utf-8"?>
<!-- Generator: Adobe Illustrator 25.4.1, SVG Export Plug-In . SVG Version: 6.00 Build 0)  -->
<svg version="1.1" id="Capa_1" xmlns="http://www.w3.org/2000/svg" xmlns:xlink="http://www.w3.org/1999/xlink" x="0px" y="0px"
	 viewBox="0 0 90.33 23.99" style="enable-background:new 0 0 90.33 23.99;" xml:space="preserve">
<style type="text/css">
	.st0{fill:#B5EAF7;}
	.st1{fill:#FFFFFF;}
</style>
<g>
	<path class="st0" d="M0,23.85h90.33c0,0-2.47-9.66-11.76-7.31C76.97,3.21,63.4,3.5,59.15,10.03C52.57-3.48,38.58-2.63,33.23,8.29
		c-8.54-3.63-15.08-1.01-16.24,7.37C6.97,9.6,0,23.85,0,23.85z"/>
	<g>
		
			<rect x="46.47" y="4.4" transform="matrix(0.9952 -0.0975 0.0975 0.9952 -1.1464 4.6106)" class="st1" width="0.26" height="19.27"/>
	</g>
	<g>
		
			<rect x="29.5" y="10.43" transform="matrix(0.8556 -0.5176 0.5176 0.8556 -4.853 17.8829)" class="st1" width="0.26" height="14.42"/>
	</g>
	<g>
		
			<rect x="56.16" y="16.29" transform="matrix(0.5729 -0.8196 0.8196 0.5729 14.4299 60.5362)" class="st1" width="18.28" height="0.26"/>
	</g>
	<g>
		
			<rect x="65.49" y="14.38" transform="matrix(0.9523 -0.3053 0.3053 0.9523 -1.0952 22.0242)" class="st1" width="8.76" height="0.26"/>
	</g>
	<g>
		
			<rect x="73.81" y="20.98" transform="matrix(0.8287 -0.5597 0.5597 0.8287 1.6736 47.6979)" class="st1" width="9.89" height="0.26"/>
	</g>
	<g>
		
			<rect x="43.47" y="13.6" transform="matrix(0.4872 -0.8733 0.8733 0.4872 14.0734 51.4177)" class="st1" width="14.7" height="0.26"/>
	</g>
	<g>
		
			<rect x="43.23" y="6.12" transform="matrix(0.5933 -0.805 0.805 0.5933 9.6295 38.9451)" class="st1" width="0.26" height="7.64"/>
	</g>
	<g>
		
			<rect x="25.27" y="12.58" transform="matrix(0.2466 -0.9691 0.9691 0.2466 1.8421 38.0534)" class="st1" width="0.26" height="10.53"/>
	</g>
</g>
</svg>
