<?xml version="1.0" encoding="utf-8"?>
<!-- Generator: Adobe Illustrator 25.4.1, SVG Export Plug-In . SVG Version: 6.00 Build 0)  -->
<svg version="1.1" id="Capa_1" xmlns="http://www.w3.org/2000/svg" xmlns:xlink="http://www.w3.org/1999/xlink" x="0px" y="0px"
	 viewBox="0 0 396.5 539.56" style="enable-background:new 0 0 396.5 539.56;" xml:space="preserve">
<style type="text/css">
	.st0{fill:#FD6B00;}
</style>
<path class="st0" d="M365.16,47.7h-82.7V31.34C282.46,14.06,268.4,0,251.12,0H145.39c-17.28,0-31.34,14.06-31.34,31.34v16.34h-82.7
	C14.06,47.69,0,61.75,0,79.03v429.18c0,17.29,14.06,31.35,31.34,31.35h333.81c17.28,0,31.34-14.06,31.34-31.35l0-429.18
	C396.51,61.76,382.44,47.7,365.16,47.7L365.16,47.7z M126.97,31.34c0-10.16,8.26-18.42,18.42-18.42h105.74
	c10.16,0,18.42,8.26,18.42,18.42v45.61c0,10.16-8.26,18.42-18.42,18.42H145.39c-10.16,0-18.42-8.26-18.42-18.42V31.34L126.97,31.34z
	 M383.58,508.21c0,10.17-8.26,18.43-18.42,18.43H31.35c-10.16,0-18.42-8.26-18.42-18.43V79.03c0-10.16,8.26-18.42,18.42-18.42h82.7
	v16.34c0,17.28,14.06,31.34,31.34,31.34h105.74c17.28,0,31.34-14.06,31.34-31.34l0-16.34h82.7c10.16,0,18.42,8.26,18.42,18.42
	l0,429.18L383.58,508.21z"/>
<path class="st0" d="M331.98,206.3H156.79c-3.57,0-6.46,2.89-6.46,6.46s2.89,6.46,6.46,6.46h175.2c3.57,0,6.46-2.89,6.46-6.46
	S335.56,206.3,331.98,206.3L331.98,206.3z"/>
<path class="st0" d="M90.95,179.87c-18.14,0-32.9,14.76-32.9,32.9s14.76,32.9,32.9,32.9c18.15,0,32.9-14.76,32.9-32.9
	S109.09,179.87,90.95,179.87L90.95,179.87z M90.95,232.74c-11.01,0-19.97-8.96-19.97-19.97c0-11.01,8.96-19.97,19.97-19.97
	c11.02,0,19.98,8.96,19.98,19.97S101.97,232.74,90.95,232.74z"/>
<path class="st0" d="M331.98,307.89H156.79c-3.57,0-6.46,2.89-6.46,6.46s2.89,6.46,6.46,6.46h175.2c3.57,0,6.46-2.89,6.46-6.46
	S335.56,307.89,331.98,307.89L331.98,307.89z"/>
<path class="st0" d="M84.84,346.22H95c14.77,0,26.79-12.02,26.79-26.78v-10.16c0-14.77-12.02-26.78-26.79-26.78H84.84
	c-14.77,0-26.79,12.02-26.79,26.78v10.16C58.06,334.21,70.08,346.22,84.84,346.22z M70.99,309.28c0-7.64,6.22-13.86,13.86-13.86
	h10.16c7.64,0,13.86,6.22,13.86,13.86v10.16c0,7.64-6.22,13.86-13.86,13.86H84.85c-7.64,0-13.86-6.22-13.86-13.86L70.99,309.28z"/>
<path class="st0" d="M331.98,409.49H156.79c-3.57,0-6.46,2.89-6.46,6.46s2.89,6.46,6.46,6.46h175.2c3.57,0,6.46-2.89,6.46-6.46
	S335.56,409.49,331.98,409.49L331.98,409.49z"/>
<path class="st0" d="M90.95,383.05c-18.14,0-32.9,14.76-32.9,32.9c0,18.12,14.76,32.89,32.9,32.89c18.15,0,32.9-14.76,32.9-32.89
	C123.85,397.81,109.09,383.05,90.95,383.05L90.95,383.05z M90.95,435.93c-11.01,0-19.97-8.96-19.97-19.96
	c0-11.02,8.96-19.98,19.97-19.98c11.02,0,19.98,8.96,19.98,19.98C110.93,426.97,101.97,435.93,90.95,435.93z"/>
</svg>
