<?xml version="1.0" encoding="utf-8"?>
<!-- Generator: Adobe Illustrator 25.4.1, SVG Export Plug-In . SVG Version: 6.00 Build 0)  -->
<svg version="1.1" id="Capa_1" xmlns="http://www.w3.org/2000/svg" xmlns:xlink="http://www.w3.org/1999/xlink" x="0px" y="0px"
	 viewBox="0 0 530.67 411.39" style="enable-background:new 0 0 530.67 411.39;" xml:space="preserve">
<style type="text/css">
	.st0{fill:#F25B86;}
</style>
<path class="st0" d="M462.74,75.14H355.33v-7.21C355.33,30.47,324.86,0,287.4,0H67.93C30.47,0,0,30.47,0,67.93v133.59
	c0,37.46,30.47,67.93,67.93,67.93h17.95v58.5c0,3.63,2.36,6.83,5.82,7.91c0.82,0.26,1.65,0.38,2.47,0.38c2.67,0,5.24-1.3,6.82-3.57
	l43.77-63.22h30.58v7.21c0,37.46,30.47,67.93,67.93,67.93h142.64l43.77,63.22c1.58,2.28,4.15,3.57,6.82,3.57
	c0.82,0,1.66-0.12,2.47-0.38c3.46-1.08,5.82-4.29,5.82-7.91l0-58.5h17.95c37.46,0,67.93-30.47,67.93-67.93V143.07
	C530.67,105.62,500.2,75.14,462.74,75.14L462.74,75.14z M140.41,252.87c-2.72,0-5.27,1.34-6.82,3.57l-31.13,44.97v-40.25
	c0-4.58-3.71-8.29-8.29-8.29H67.92c-28.32,0-51.34-23.04-51.34-51.34l0-133.6c0-28.32,23.03-51.34,51.34-51.34H287.4
	c28.32,0,51.34,23.03,51.34,51.34v133.59c0,28.32-23.04,51.34-51.34,51.34L140.41,252.87L140.41,252.87z M514.08,276.67
	c0,28.32-23.03,51.34-51.34,51.34h-26.25c-4.58,0-8.29,3.71-8.29,8.29v40.25l-31.13-44.97c-1.55-2.23-4.09-3.57-6.82-3.57H243.27
	c-28.32,0-51.34-23.04-51.34-51.34v-7.21h95.48c37.46,0,67.93-30.47,67.93-67.93l0-109.79h107.41c28.32,0,51.34,23.04,51.34,51.34
	L514.08,276.67z M456.71,266.53c0,4.58-3.71,8.29-8.29,8.29h-82.6c-4.58,0-8.29-3.71-8.29-8.29s3.71-8.29,8.29-8.29h82.6
	C453,258.24,456.71,261.95,456.71,266.53z M456.71,153.22c0,4.58-3.71,8.29-8.29,8.29l-62.62,0c-4.58,0-8.29-3.71-8.29-8.29
	s3.71-8.29,8.29-8.29h62.62C453,144.93,456.71,148.64,456.71,153.22L456.71,153.22z M456.71,209.88c0,4.58-3.71,8.29-8.29,8.29
	h-62.62c-4.58,0-8.29-3.71-8.29-8.29s3.71-8.29,8.29-8.29h62.62C453,201.58,456.71,205.3,456.71,209.88L456.71,209.88z
	 M190.62,134.73c0,7.16-5.8,12.96-12.96,12.96c-7.16,0-12.96-5.8-12.96-12.96c0-7.16,5.8-12.96,12.96-12.96
	S190.62,127.58,190.62,134.73z M272.83,134.73c0,7.16-5.8,12.96-12.96,12.96c-7.16,0-12.96-5.8-12.96-12.96
	c0-7.16,5.8-12.96,12.96-12.96C267.03,121.77,272.83,127.58,272.83,134.73z M108.41,134.73c0,7.16-5.8,12.96-12.96,12.96
	c-7.16,0-12.96-5.8-12.96-12.96c0-7.16,5.8-12.96,12.96-12.96C102.61,121.77,108.41,127.58,108.41,134.73z"/>
</svg>
