<?xml version="1.0" encoding="utf-8"?>
<!-- Generator: Adobe Illustrator 25.4.1, SVG Export Plug-In . SVG Version: 6.00 Build 0)  -->
<svg version="1.1" id="Capa_1" xmlns="http://www.w3.org/2000/svg" xmlns:xlink="http://www.w3.org/1999/xlink" x="0px" y="0px"
	 viewBox="0 0 509.03 467.03" style="enable-background:new 0 0 509.03 467.03;" xml:space="preserve">
<style type="text/css">
	.st0{fill:#9ECC46;}
</style>
<path class="st0" d="M468.72,313.42c-5.71,0-11.08,2.22-15.11,6.26c-2.25,2.25-3.91,4.92-4.96,7.82l-15.64-11.93
	c-0.04-0.04-0.09-0.05-0.13-0.08c-0.16-0.11-0.33-0.21-0.5-0.31c-0.14-0.09-0.29-0.17-0.44-0.23c-0.16-0.07-0.32-0.12-0.49-0.18
	c-0.17-0.06-0.35-0.12-0.53-0.16c-0.15-0.04-0.31-0.05-0.46-0.07c-0.2-0.03-0.4-0.05-0.61-0.06c-0.05,0-0.1-0.02-0.14-0.02H412.1
	v-84.4c51.5-12.06,89.98-58.36,89.98-113.49C502.08,52.28,449.79,0,385.53,0S268.98,52.28,268.98,116.55
	c0,55.12,38.47,101.43,89.98,113.49v84.4h-42.24h0c-6.16,0-11.96,2.4-16.31,6.75c-4.36,4.36-6.75,10.15-6.75,16.31
	c0,6.16,2.4,11.96,6.75,16.31c2.05,2.05,4.42,3.64,6.99,4.78c-3.2,3.94-5.14,8.87-5.14,14.15c0,8.9,5.49,16.82,13.27,20.64
	c-3.27,3.98-5.23,9.07-5.24,14.61c0,6.16,2.41,11.95,6.77,16.3c1.66,1.66,3.54,3.03,5.55,4.1c-3.5,4.16-5.41,9.35-5.41,14.84
	c0,6.16,2.4,11.95,6.75,16.31c4.08,4.08,9.43,6.41,15.14,6.7c0.2,0.02,0.39,0.05,0.59,0.05h90.28c7.56,0,14.67-2.94,20.01-8.29
	c0.27-0.27,0.54-0.56,0.8-0.84c3.81,5.9,10.43,9.83,17.97,9.83c11.78,0,21.37-9.59,21.37-21.38V334.76
	C490.1,322.99,480.52,313.41,468.72,313.42L468.72,313.42z M279.87,116.56c0-58.26,47.39-105.65,105.65-105.65
	c58.26,0,105.65,47.39,105.65,105.65c0,58.26-47.4,105.65-105.65,105.65C327.26,222.21,279.87,174.81,279.87,116.56L279.87,116.56z
	 M401.19,232.05v82.4h-31.35v-82.4c5.13,0.7,10.36,1.06,15.68,1.06C390.83,233.1,396.06,232.74,401.19,232.05L401.19,232.05z
	 M447.34,438.04c0,4.64-1.81,9.01-5.1,12.29c-3.29,3.29-7.66,5.1-12.3,5.1h-89.67h-0.02c-3.25,0-6.31-1.27-8.61-3.57
	c-2.3-2.3-3.56-5.35-3.56-8.6s1.27-6.31,3.57-8.61c2.3-2.3,5.36-3.57,8.61-3.57h0.02h13.07c3.01,0,5.45-2.44,5.45-5.45
	c0-3.01-2.44-5.45-5.45-5.45h-19.98h-0.02c-3.24,0-6.29-1.27-8.59-3.56c-2.3-2.3-3.57-5.36-3.57-8.6c0-6.71,5.46-12.16,12.16-12.18
	h0.03l12.5-0.01c3.01,0,5.45-2.45,5.44-5.45c0-3.01-2.44-5.44-5.45-5.44h0l-19.97,0.01c-6.91,0-12.75-5.58-12.75-12.18
	c0-6.6,5.84-12.18,12.75-12.18h0h14.78c3.01,0,5.45-2.44,5.45-5.45c0-3.01-2.44-5.45-5.45-5.45h-23.97h0c-3.25,0-6.3-1.27-8.6-3.57
	c-2.3-2.3-3.57-5.36-3.57-8.61c0-3.25,1.27-6.31,3.57-8.61c2.3-2.3,5.36-3.56,8.61-3.56h111.16l19.48,14.88v97.79
	C447.35,438.02,447.34,438.03,447.34,438.04L447.34,438.04z M468.73,456.13c-5.78,0-10.48-4.7-10.48-10.48V334.79
	c0-2.79,1.09-5.42,3.06-7.4c1.98-1.98,4.61-3.07,7.42-3.07c5.77,0,10.47,4.7,10.47,10.47v110.86
	C479.2,451.43,474.5,456.13,468.73,456.13L468.73,456.13z"/>
<path class="st0" d="M448.1,73.55c-2.13-2.13-5.58-2.13-7.71,0l-74.46,74.47l-35.3-35.3c-2.13-2.13-5.58-2.13-7.71,0
	s-2.13,5.58,0,7.71l39.16,39.16c1.06,1.06,2.46,1.6,3.85,1.6c1.39,0,2.79-0.53,3.85-1.6l78.32-78.32
	C450.23,79.12,450.23,75.67,448.1,73.55L448.1,73.55z"/>
<path class="st0" d="M233.1,116.56c0-64.27-52.28-116.55-116.55-116.55C52.28,0.01,0,52.29,0,116.56
	c0,55.12,38.47,101.43,89.98,113.49v84.4H72.36c-0.05,0-0.1,0.01-0.14,0.02c-0.2,0-0.4,0.04-0.6,0.06
	c-0.16,0.02-0.32,0.04-0.48,0.07c-0.17,0.04-0.35,0.1-0.52,0.16c-0.17,0.05-0.34,0.11-0.5,0.18c-0.14,0.07-0.29,0.15-0.43,0.23
	c-0.17,0.1-0.35,0.2-0.5,0.31c-0.04,0.03-0.09,0.05-0.13,0.08L53.43,327.5c-1.05-2.9-2.71-5.57-4.96-7.82
	c-4.04-4.04-9.4-6.26-15.12-6.26c-5.71,0-11.07,2.22-15.11,6.26c-4.04,4.04-6.26,9.4-6.26,15.11v110.86
	c0,11.79,9.59,21.38,21.37,21.38c7.53,0,14.16-3.93,17.96-9.83c0.26,0.29,0.53,0.57,0.8,0.84c5.35,5.34,12.45,8.29,20.01,8.29h90.28
	c0.2,0,0.38-0.04,0.57-0.05c5.73-0.28,11.08-2.61,15.16-6.7c4.36-4.36,6.76-10.15,6.75-16.31c0-5.49-1.91-10.68-5.41-14.84
	c2.02-1.06,3.89-2.44,5.55-4.09c4.36-4.36,6.76-10.15,6.77-16.32c0-5.53-1.97-10.62-5.24-14.6c7.79-3.82,13.27-11.74,13.27-20.64
	c0-5.28-1.94-10.21-5.14-14.15c2.57-1.14,4.95-2.73,6.99-4.78c4.36-4.36,6.75-10.15,6.75-16.31c0-6.16-2.4-11.96-6.75-16.32
	c-4.36-4.36-10.15-6.75-16.31-6.75h0h-42.24v-84.4C194.62,217.99,233.1,171.68,233.1,116.56L233.1,116.56z M43.82,445.64
	c0,5.78-4.7,10.48-10.48,10.48c-5.77,0-10.47-4.7-10.47-10.48V334.78c0-2.79,1.09-5.42,3.07-7.4c1.98-1.98,4.61-3.07,7.41-3.07
	c2.79,0,5.43,1.09,7.4,3.07c1.98,1.98,3.07,4.6,3.06,7.4L43.82,445.64L43.82,445.64z M185.36,325.35c3.25,0,6.31,1.27,8.61,3.56
	c2.3,2.3,3.57,5.36,3.56,8.61c0,3.25-1.27,6.3-3.57,8.61c-2.3,2.3-5.36,3.57-8.61,3.57h-23.97c-3.01,0-5.45,2.44-5.45,5.45
	c0,3.01,2.44,5.45,5.45,5.45h14.77h0.02c6.91,0,12.75,5.58,12.75,12.18c0,6.6-5.84,12.18-12.75,12.18l-19.97-0.01h0
	c-3.01,0-5.45,2.44-5.45,5.44c0,3.01,2.44,5.45,5.44,5.45l12.48,0c0.01,0,0.02,0,0.04,0c6.71,0,12.18,5.46,12.19,12.17
	c0,3.25-1.27,6.31-3.57,8.61c-2.3,2.3-5.35,3.56-8.6,3.56h-0.02h-19.98c-3.01,0-5.45,2.44-5.45,5.45c0,3.01,2.44,5.45,5.45,5.45
	h13.07h0c3.25,0,6.31,1.27,8.61,3.57c2.3,2.3,3.57,5.36,3.57,8.62c0,3.25-1.27,6.3-3.56,8.6s-5.36,3.57-8.61,3.57h-0.01H72.1
	c-4.65,0-9.02-1.81-12.3-5.1c-3.29-3.29-5.1-7.65-5.1-12.29v-0.02v-97.8l19.48-14.87L185.36,325.35z M100.88,314.45v-82.4
	c5.13,0.7,10.36,1.06,15.68,1.06c5.31,0,10.54-0.36,15.68-1.06v82.4L100.88,314.45z M116.55,222.21
	c-58.26,0-105.65-47.4-105.65-105.65c0-58.26,47.39-105.65,105.65-105.65c58.26,0,105.65,47.39,105.65,105.65
	C222.21,174.81,174.81,222.21,116.55,222.21z"/>
<path class="st0" d="M161.14,71.97c-2.13-2.13-5.58-2.13-7.71,0l-36.88,36.88L79.67,71.97c-2.13-2.13-5.58-2.13-7.71,0
	s-2.13,5.58,0,7.71l36.88,36.88l-36.88,36.88c-2.13,2.13-2.13,5.58,0,7.71c1.06,1.06,2.46,1.6,3.85,1.6s2.79-0.53,3.85-1.6
	l36.88-36.88l36.88,36.88c1.06,1.06,2.46,1.6,3.85,1.6s2.79-0.53,3.85-1.6c2.13-2.13,2.13-5.58,0-7.71l-36.88-36.88l36.88-36.88
	C163.27,77.55,163.27,74.1,161.14,71.97L161.14,71.97z"/>
</svg>
