<?xml version="1.0" encoding="utf-8"?>
<!-- Generator: Adobe Illustrator 25.4.1, SVG Export Plug-In . SVG Version: 6.00 Build 0)  -->
<svg version="1.1" id="Capa_1" xmlns="http://www.w3.org/2000/svg" xmlns:xlink="http://www.w3.org/1999/xlink" x="0px" y="0px"
	 viewBox="0 0 448 447.94" style="enable-background:new 0 0 448 447.94;" xml:space="preserve">
<style type="text/css">
	.st0{fill:#3BA5DF;}
</style>
<path class="st0" d="M2.91,275.97l11.95,6.54c10.99,6.01,19.97,15,25.98,25.98l6.54,11.95c0.98,1.8,2.87,2.91,4.92,2.91
	c2.05,0,3.93-1.12,4.91-2.91l6.54-11.95c6.01-10.99,15-19.97,25.98-25.98l11.95-6.54c1.8-0.98,2.91-2.87,2.91-4.91
	s-1.12-3.93-2.91-4.91l-11.95-6.54c-10.99-6.01-19.98-15-25.99-25.98l-6.54-11.95c-1.96-3.59-7.86-3.59-9.83,0l-6.54,11.95
	c-6.01,10.99-15,19.97-25.98,25.98l-11.95,6.54C1.12,267.12,0,269.01,0,271.05S1.12,274.98,2.91,275.97L2.91,275.97z M20.24,269.43
	c12.87-7.04,23.4-17.57,30.44-30.44l1.62-2.97l1.62,2.97c7.04,12.87,17.57,23.39,30.44,30.44l2.97,1.62l-2.97,1.62
	c-12.87,7.04-23.4,17.57-30.44,30.44l-1.62,2.97l-1.62-2.97c-7.04-12.87-17.57-23.39-30.44-30.44l-2.97-1.62L20.24,269.43z"/>
<path class="st0" d="M445.09,252.06l-11.95-6.54c-10.99-6.01-19.97-15-25.98-25.98l-6.54-11.95c-1.96-3.59-7.86-3.59-9.83,0
	l-6.54,11.95c-6.01,10.99-15,19.97-25.98,25.98l-11.95,6.54c-1.8,0.98-2.91,2.87-2.91,4.91s1.12,3.93,2.91,4.91l11.95,6.54
	c10.99,6.01,19.97,15,25.98,25.98l6.54,11.95c0.98,1.8,2.87,2.91,4.91,2.91s3.93-1.12,4.91-2.91l6.54-11.95
	c6.01-10.99,15-19.97,25.98-25.98l11.95-6.54c1.79-0.98,2.91-2.87,2.91-4.91S446.88,253.04,445.09,252.06L445.09,252.06z
	 M427.76,258.6c-12.87,7.04-23.4,17.57-30.44,30.44l-1.62,2.97l-1.62-2.97c-7.04-12.87-17.57-23.39-30.44-30.44l-2.97-1.62
	l2.97-1.62c12.87-7.04,23.4-17.57,30.44-30.44l1.62-2.97l1.62,2.97c7.04,12.87,17.57,23.39,30.44,30.44l2.97,1.62L427.76,258.6z"/>
<path class="st0" d="M391.5,76.44c0.65,0.04,1.3,0.06,1.94,0.06c7.34,0,14.35-2.65,19.91-7.58c12.47-11.04,13.68-30.23,2.7-42.76
	c-5.33-6.09-12.7-9.72-20.75-10.23c-8.06-0.52-15.8,2.16-21.85,7.52c-12.46,11.04-13.67,30.22-2.7,42.76
	C376.07,72.29,383.44,75.93,391.5,76.44L391.5,76.44z M380.87,31.83c3.49-3.09,7.89-4.76,12.5-4.76c0.41,0,0.81,0.01,1.22,0.04
	c5.05,0.32,9.68,2.61,13.03,6.43c6.93,7.91,6.17,20.03-1.7,27c-3.8,3.36-8.66,5.03-13.72,4.72c-5.05-0.32-9.68-2.61-13.04-6.43
	C372.24,50.91,373,38.8,380.87,31.83L380.87,31.83z"/>
<path class="st0" d="M47.49,26.55c-8.09-0.5-15.81,2.16-21.85,7.52c-12.46,11.04-13.68,30.23-2.7,42.76
	c5.33,6.09,12.7,9.72,20.75,10.23c0.65,0.04,1.3,0.06,1.95,0.06c7.34,0,14.35-2.65,19.91-7.58c12.46-11.04,13.68-30.23,2.7-42.76
	C62.91,30.69,55.54,27.05,47.49,26.55L47.49,26.55z M58.12,71.16c-3.8,3.36-8.67,5.01-13.72,4.72c-5.05-0.32-9.68-2.61-13.03-6.43
	c-6.93-7.91-6.17-20.03,1.7-27c3.49-3.09,7.89-4.76,12.5-4.76c0.41,0,0.81,0.01,1.22,0.04c5.05,0.32,9.68,2.61,13.03,6.43
	C66.75,52.07,65.98,64.18,58.12,71.16L58.12,71.16z"/>
<path class="st0" d="M358.42,134.16c0-36.94-15.45-72.66-42.38-97.97C288.73,10.52,252.99-2.32,215.43,0
	C147.54,4.21,92.3,60.81,89.68,128.85c-1.4,36.28,11.47,70.81,36.23,97.23c18.82,20.08,29.57,46.99,30.81,76.21h-1.78
	c-12.36,0-22.41,10.05-22.41,22.41c0,10.15,6.83,18.64,16.1,21.39V394c0,11.21,9.12,20.32,20.32,20.32h1.12v7.49
	c0,14.41,11.72,26.12,26.12,26.12h55.6c14.41,0,26.12-11.72,26.12-26.12v-7.49h1.12c11.21,0,20.32-9.12,20.32-20.32v-47.91
	c9.27-2.75,16.1-11.24,16.1-21.39c0-12.36-10.05-22.41-22.41-22.41h-1.77c1.25-29.1,12.12-56.13,31.14-76.57
	C345.64,200.77,358.43,168.26,358.42,134.16L358.42,134.16z M266.72,421.82c0,8.23-6.7,14.92-14.92,14.92h-55.6
	c-8.23,0-14.92-6.7-14.92-14.92v-7.49h85.45L266.72,421.82z M279.04,403.13H168.95c-5.03,0-9.12-4.09-9.12-9.12v-46.9h128.33V394
	C288.16,399.03,284.06,403.13,279.04,403.13L279.04,403.13z M304.26,324.7c0,6.18-5.03,11.21-11.21,11.21H154.94
	c-6.18,0-11.21-5.03-11.21-11.21s5.03-11.21,11.21-11.21h138.12C299.24,313.49,304.26,318.52,304.26,324.7z M278.97,162.56
	c0,29.56-21.68,53.95-49.37,56.88v-16.87l48.95-46.49C278.79,158.25,278.97,160.42,278.97,162.56L278.97,162.56z M229.6,187.12
	V145.7l33.12-31.46c5.52,9.32,10.21,19.15,13.12,28.97L229.6,187.12z M229.6,130.25V70.61c7.29,7.9,17.66,19.96,27.04,33.95
	L229.6,130.25z M218.4,130.25l-26.72-25.38c9.29-13.86,19.5-25.97,26.72-33.98V130.25z M185.6,114.54l32.8,31.16v41.43l-46.11-43.79
	C175.26,133.67,180.03,123.88,185.6,114.54L185.6,114.54z M169.46,156.09l48.93,46.48v16.87c-27.69-2.93-49.37-27.32-49.37-56.88
	C169.03,160.43,169.2,158.27,169.46,156.09L169.46,156.09z M280.08,302.29H229.6v-71.64c33.87-2.95,60.57-32.34,60.57-68.08
	c0-50.35-59.78-107.42-62.32-109.83c-2.18-2.06-5.61-2.04-7.76,0.07c-2.55,2.48-62.26,61.36-62.26,109.76
	c0,35.75,26.7,65.13,60.57,68.08v71.65h-50.48c-1.25-32.09-13.07-61.71-33.84-83.88c-22.7-24.21-34.49-55.87-33.21-89.13
	c2.41-62.36,53.04-114.23,115.26-118.1c34.43-2.11,67.21,9.64,92.25,33.17c25.05,23.55,38.85,55.44,38.85,89.81
	c0,31.25-11.72,61.06-33,83.92C293.27,240.61,281.36,270.35,280.08,302.29L280.08,302.29z"/>
</svg>
