<?xml version="1.0" encoding="utf-8"?>
<!-- Generator: Adobe Illustrator 25.4.1, SVG Export Plug-In . SVG Version: 6.00 Build 0)  -->
<svg version="1.1" id="Capa_1" xmlns="http://www.w3.org/2000/svg" xmlns:xlink="http://www.w3.org/1999/xlink" x="0px" y="0px"
	 viewBox="0 0 333.2 448" style="enable-background:new 0 0 333.2 448;" xml:space="preserve">
<style type="text/css">
	.st0{fill:#33CC9D;}
</style>
<path class="st0" d="M327.04,24.64H215.6c-1.68-2.24-3.36-4.48-5.6-6.72C198.24,6.72,183.12,0,166.32,0
	c-19.6,0-37.52,9.52-49.28,24.64H5.6c-3.36,0-5.6,2.24-5.6,5.6V442.4c0,3.36,2.24,5.6,5.6,5.6h322c3.36,0,5.6-2.24,5.6-5.6l0-412.16
	C332.64,27.45,330.4,24.64,327.04,24.64L327.04,24.64z M109.76,87.92h113.12c3.36,0,5.6-2.24,5.6-5.6v-6.16h53.2v320.32H50.96V76.16
	h53.2v6.16C104.16,85.68,106.96,87.92,109.76,87.92L109.76,87.92z M166.32,11.2c13.44,0,26.32,5.04,35.84,15.12
	c2.24,2.24,4.48,4.48,6.16,7.28c5.6,8.4,8.96,18.48,8.96,28.56v14.56H115.36V62.16c0-10.08,2.8-20.16,8.96-28.56
	C133.84,19.6,149.52,11.2,166.32,11.2L166.32,11.2z M321.44,436.8H11.2V35.84h99.12c0,0,0,0.56-0.56,0.56
	c-0.56,1.68-1.12,3.36-1.68,4.48c0,0.56-0.56,1.12-0.56,1.68c-0.56,1.68-1.12,3.92-1.68,5.6v0.56c-0.56,1.68-0.56,3.36-1.12,5.04
	v1.68c0,2.24-0.56,3.92-0.56,6.16v2.8h-58.8c-3.36,0-5.6,2.24-5.6,5.6v331.52c0,3.36,2.24,5.6,5.6,5.6h241.36
	c3.36,0,5.6-2.24,5.6-5.6V70.56c0-3.36-2.24-5.6-5.6-5.6l-58.24,0v-2.8c0-2.24,0-3.92-0.56-6.16v-1.68c0-1.68-0.56-3.36-1.12-5.04
	v-0.56c-0.56-1.68-1.12-3.92-1.68-5.6c0-0.56-0.56-1.12-0.56-1.12c-0.56-1.68-1.12-3.36-2.24-5.04V36.4h99.12L321.44,436.8z"/>
<path class="st0" d="M106.96,225.68c14,18.48,21.28,39.76,21.28,61.04v23.52c0,14.56,11.76,26.88,26.88,26.88h21.84
	c14.56,0,26.88-11.76,26.88-26.88v-17.36v-1.12v-5.04c0-21.28,7.28-42.56,21.28-61.04c10.08-13.44,15.68-29.68,15.68-47.04
	c0-42.56-33.6-76.72-75.04-76.72c-41.44,0-75.04,34.72-75.04,76.72C91.28,196,96.88,212.24,106.96,225.68L106.96,225.68z
	 M171.36,286.16h-12.32v-35.84h12.32V286.16z M154,297.36h39.2v8.96H140v-8.96H154z M176.96,326.48h-21.84
	c-6.16,0-11.2-3.36-14-8.96h49.84C188.72,322.56,183.12,326.48,176.96,326.48z M166.32,113.12c35.28,0,63.84,29.68,63.84,65.52
	c0,14.56-4.48,28.56-13.44,40.32c-15.68,20.16-23.52,43.68-24.08,67.76H182v-41.44c0-3.36-2.24-5.6-5.6-5.6h-23.52
	c-3.36,0-5.6,2.24-5.6,5.6v41.44h-8.4c0-23.52-8.4-47.04-24.08-67.76c-8.96-11.76-13.44-25.76-13.44-40.32
	C102.48,142.24,131.04,113.12,166.32,113.12L166.32,113.12z"/>
<path class="st0" d="M148.4,219.52c0.56,2.8,2.8,4.48,5.6,4.48h1.12c2.8-0.56,5.04-3.92,3.92-6.72l-11.2-45.92
	c-0.56-2.8-3.92-5.04-6.72-3.92c-2.8,0.56-5.04,3.92-3.92,6.72L148.4,219.52z"/>
<path class="st0" d="M175.84,224h1.12c2.24,0,5.04-1.68,5.6-4.48l11.2-45.92c0.56-2.8-1.12-6.16-3.92-6.72s-6.16,1.12-6.72,3.92
	l-11.2,45.92C170.81,220.08,172.48,222.88,175.84,224L175.84,224z"/>
<path class="st0" d="M165.2,224c3.36,0,5.6-2.24,5.6-5.6v-45.92c0-3.36-2.24-5.6-5.6-5.6c-3.36,0-5.6,2.24-5.6,5.6l0,45.92
	C159.61,221.2,162.4,224,165.2,224z"/>
<path class="st0" d="M76.72,362.88c0,3.36,2.24,5.6,5.6,5.6h164.64c3.36,0,5.6-2.24,5.6-5.6c0-3.36-2.24-5.6-5.6-5.6l-164.64,0
	C79.52,357.28,76.72,360.08,76.72,362.88z"/>
</svg>
