<?xml version="1.0" encoding="utf-8"?>
<!-- Generator: Adobe Illustrator 22.1.0, SVG Export Plug-In . SVG Version: 6.00 Build 0)  -->
<svg version="1.1" id="_x2014_ÎÓÈ_x5F_12" xmlns="http://www.w3.org/2000/svg" xmlns:xlink="http://www.w3.org/1999/xlink"
	 x="0px" y="0px" viewBox="0 0 187.1 95.1" style="enable-background:new 0 0 187.1 95.1;" xml:space="preserve">
<style type="text/css">
	.st0{fill:#C4122C;}
	.st1{fill:#F6323E;}
	.st2{fill:#FFFFFF;}
</style>
<polygon class="st0" points="187.1,48 0,39.1 0,19.1 187.1,28 "/>
<polygon class="st0" points="187.1,76 0,67.1 0,47.1 187.1,56 "/>
<polygon class="st1" points="187.1,48 0,67.1 0,47.1 187.1,28 "/>
<polygon class="st1" points="187.1,76 0,95.1 0,75.1 187.1,56 "/>
<polygon class="st1" points="187.1,20 0,39.1 0,19.1 187.1,0 "/>
<g>
	<path class="st2" d="M23.2,21.1c2.2-0.2,4,0.8,4.9,2.7L25.8,24c-0.6-0.9-1.4-1.3-2.5-1.2c-1.7,0.2-2.8,1.5-2.6,3.5
		c0.2,2,1.5,3.1,3.2,2.9c1-0.1,1.8-0.6,2.2-1.6l2.2-0.2c-0.5,2.1-2.1,3.4-4.3,3.6c-2.8,0.3-5.1-1.6-5.4-4.5
		C18.5,23.6,20.4,21.4,23.2,21.1z"/>
	<path class="st2" d="M33.9,30.1c-2.2,0.2-4.1-1.2-4.3-3.6c-0.2-2.4,1.3-4.2,3.6-4.4s4.1,1.2,4.4,3.6C37.7,28.1,36.1,29.9,33.9,30.1
		z M33.7,28.4c1-0.1,1.9-1,1.8-2.5c-0.2-1.5-1.2-2.2-2.2-2.1c-1,0.1-1.9,0.9-1.7,2.5C31.7,27.8,32.6,28.5,33.7,28.4z"/>
	<path class="st2" d="M44.3,24.6c-0.1-1.2-0.9-1.8-1.9-1.7c-1.1,0.1-1.7,0.8-1.6,2.1l0.4,4.3l-2,0.2l-0.8-7.7l2-0.2l0.1,1
		c0.4-0.7,1.2-1.2,2.2-1.3c1.8-0.2,3.2,0.9,3.4,3l0.4,4.5l-2,0.2L44.3,24.6z"/>
	<path class="st2" d="M51.5,28.4c-1.9,0.2-3.4-0.8-3.6-2.2l2-0.2c0.1,0.6,0.7,1,1.5,0.9c0.8-0.1,1.2-0.5,1.1-0.9
		c-0.1-1.4-4.4-0.1-4.7-2.9c-0.1-1.3,0.9-2.4,2.8-2.6c1.9-0.2,3.1,0.7,3.4,2.2L52,22.8c-0.1-0.6-0.6-1-1.4-0.9
		c-0.7,0.1-1.1,0.4-1,0.8c0.1,1.4,4.3,0.1,4.7,2.9C54.4,27.1,53.4,28.2,51.5,28.4z"/>
	<path class="st2" d="M55.8,21.6l-0.9,0.1l-0.2-1.6l0.9-0.1l-0.2-1.9l2-0.2l0.2,1.9l1.7-0.2l0.2,1.6l-1.7,0.2l0.4,3.7
		c0.1,0.5,0.3,0.7,0.9,0.7l0.9-0.1l0.2,1.6l-1.2,0.1c-1.5,0.1-2.5-0.4-2.7-2.2L55.8,21.6z"/>
	<path class="st2" d="M63.5,27.1l-2,0.2l-0.8-7.7l2-0.2l0.1,1.2c0.4-0.8,1.2-1.4,2.2-1.5l0.2,2l-0.5,0.1c-1.2,0.1-1.8,0.6-1.7,2.1
		L63.5,27.1z"/>
	<path class="st2" d="M74.4,26l-2,0.2l-0.1-1c-0.4,0.7-1.2,1.2-2.2,1.3c-1.8,0.2-3.2-0.9-3.4-3L66.3,19l2-0.2l0.4,4.3
		c0.1,1.2,0.9,1.8,1.9,1.7c1.1-0.1,1.7-0.8,1.5-2.1l-0.4-4.3l2-0.2L74.4,26z"/>
	<path class="st2" d="M80.9,17.5l2.1-0.2l-3.7,11.8l-2.1,0.2l1.3-4l-3.8-7.2l2.2-0.2l2.5,5.2L80.9,17.5z"/>
	<path class="st2" d="M88.2,24.7c-2.2,0.2-4-1.2-4.3-3.6c-0.2-2.4,1.2-4.1,3.5-4.4c2.2-0.2,4,1.1,4.2,3.4c0,0.3,0,0.5,0,0.8
		l-5.6,0.6c0.2,1.1,1.1,1.7,2,1.6c0.8-0.1,1.3-0.5,1.5-1.1l2.1-0.2C91.2,23.3,90.1,24.6,88.2,24.7z M85.8,20.2l3.7-0.4
		c-0.1-1-1-1.6-2-1.5C86.5,18.5,85.9,19.1,85.8,20.2z"/>
	<path class="st2" d="M104,23.1l-2,0.2l-0.1-1c-0.4,0.7-1.2,1.2-2.2,1.3c-1.8,0.2-3.2-0.9-3.4-3l-0.4-4.5l2-0.2l0.4,4.3
		c0.1,1.2,0.9,1.8,1.9,1.7c1.1-0.1,1.7-0.8,1.5-2.1l-0.4-4.3l2-0.2L104,23.1z"/>
	<path class="st2" d="M110.9,18.1c-0.1-1.2-0.9-1.8-1.9-1.7c-1.1,0.1-1.7,0.8-1.6,2.1l0.4,4.3l-2,0.2l-0.8-7.7l2-0.2l0.1,1
		c0.4-0.7,1.2-1.2,2.2-1.3c1.8-0.2,3.2,0.9,3.4,3l0.4,4.5l-2,0.2L110.9,18.1z"/>
	<path class="st2" d="M117.4,13.8c1.2-0.1,2.1,0.4,2.7,1l-0.1-1.1l2-0.2l0.8,7.7l-2,0.2l-0.1-1.1c-0.4,0.7-1.2,1.4-2.4,1.5
		c-2,0.2-3.7-1.3-3.9-3.7C114,15.7,115.4,14,117.4,13.8z M118,15.5c-1,0.1-2,1-1.8,2.4c0.1,1.5,1.2,2.2,2.3,2.1c1.1-0.1,2-1,1.8-2.5
		S119.1,15.4,118,15.5z"/>
	<path class="st2" d="M138.2,15.4c-0.1-1.2-0.9-1.8-1.9-1.7c-1,0.1-1.7,0.8-1.5,2l0.4,4.3l-2,0.2l-0.4-4.3c-0.1-1.2-0.9-1.8-1.9-1.7
		c-1.1,0.1-1.7,0.8-1.6,2l0.4,4.3l-2,0.2l-0.8-7.7l2-0.2l0.1,0.9c0.4-0.7,1.2-1.2,2.2-1.3c1.2-0.1,2.2,0.3,2.9,1.2
		c0.4-0.9,1.4-1.6,2.5-1.7c1.9-0.2,3.3,0.9,3.5,3l0.4,4.5l-2,0.2L138.2,15.4z"/>
	<path class="st2" d="M145.9,19c-2.2,0.2-4-1.2-4.3-3.6c-0.2-2.4,1.2-4.1,3.5-4.4c2.2-0.2,4,1.1,4.2,3.4c0,0.3,0,0.5,0,0.8l-5.6,0.6
		c0.2,1.1,1.1,1.7,2,1.6c0.8-0.1,1.3-0.5,1.5-1.1l2.1-0.2C148.9,17.6,147.8,18.9,145.9,19z M143.5,14.5l3.7-0.4c-0.1-1-1-1.6-2-1.5
		C144.2,12.8,143.6,13.4,143.5,14.5z"/>
	<path class="st2" d="M149.9,8.6c-0.1-0.6,0.4-1.2,1.1-1.3c0.7-0.1,1.2,0.4,1.3,1c0.1,0.6-0.4,1.2-1.1,1.3
		C150.5,9.7,149.9,9.3,149.9,8.6z M152.3,10.5l0.9,9c0.2,1.8-0.7,2.5-2.2,2.7l-0.9,0.1l-0.2-1.7l0.6-0.1c0.6-0.1,0.8-0.3,0.7-0.8
		l-0.9-9L152.3,10.5z"/>
	<path class="st2" d="M158.4,17.8c-2.2,0.2-4.1-1.2-4.3-3.6c-0.2-2.4,1.3-4.2,3.6-4.4s4.1,1.2,4.4,3.6
		C162.3,15.8,160.6,17.6,158.4,17.8z M158.2,16.1c1-0.1,1.9-1,1.8-2.5c-0.2-1.5-1.2-2.2-2.2-2.1c-1,0.1-1.9,0.9-1.7,2.5
		C156.2,15.5,157.2,16.2,158.2,16.1z"/>
	<path class="st2" d="M165.8,17l-2,0.2l-0.8-7.7l2-0.2l0.1,1.2c0.4-0.8,1.2-1.4,2.2-1.5l0.2,2l-0.5,0.1c-1.2,0.1-1.8,0.6-1.7,2.1
		L165.8,17z"/>
</g>
<g>
	<path class="st2" d="M51.9,43.3c3.4-0.4,6.3,1.2,7.7,4.2l-3.5,0.4c-0.9-1.4-2.3-2-3.9-1.8c-2.7,0.3-4.4,2.4-4,5.5
		c0.3,3.1,2.4,4.9,5.1,4.6c1.6-0.2,2.9-1,3.4-2.6l3.5-0.4c-0.7,3.3-3.3,5.3-6.6,5.7c-4.4,0.5-8.1-2.4-8.6-7
		C44.5,47.3,47.5,43.7,51.9,43.3z"/>
	<path class="st2" d="M68.7,57.3c-3.5,0.4-6.4-1.8-6.8-5.6c-0.4-3.8,2.1-6.5,5.6-6.9c3.5-0.4,6.5,1.8,6.9,5.6
		C74.8,54.2,72.3,56.9,68.7,57.3z M68.5,54.6c1.6-0.2,3-1.5,2.8-3.9c-0.3-2.4-1.9-3.4-3.5-3.3s-3,1.5-2.7,3.9
		C65.3,53.8,66.8,54.8,68.5,54.6z"/>
	<path class="st2" d="M93.5,47.7c-0.2-1.9-1.4-2.8-3-2.6c-1.6,0.2-2.6,1.3-2.4,3.2l0.7,6.7l-3.1,0.3l-0.7-6.7
		c-0.2-1.9-1.4-2.8-3-2.6c-1.7,0.2-2.6,1.3-2.4,3.2l0.7,6.7l-3.1,0.3L76,44.1l3.1-0.3l0.2,1.5c0.7-1.1,1.9-1.9,3.4-2
		c1.9-0.2,3.5,0.4,4.5,1.9c0.6-1.5,2.1-2.6,3.9-2.8c2.9-0.3,5.2,1.3,5.5,4.7l0.8,7.1l-3.1,0.3L93.5,47.7z"/>
	<path class="st2" d="M111.7,52.5l-3.1,0.3l-0.2-1.5c-0.7,1.1-1.9,1.9-3.4,2.1c-2.8,0.3-5.1-1.3-5.4-4.6l-0.8-7.1l3.1-0.3l0.7,6.7
		c0.2,1.9,1.4,2.9,3,2.7c1.7-0.2,2.6-1.3,2.4-3.3l-0.7-6.7l3.1-0.3L111.7,52.5z"/>
	<path class="st2" d="M122.5,44.6c-0.2-1.9-1.4-2.9-3-2.7c-1.7,0.2-2.6,1.3-2.4,3.3l0.7,6.7l-3.1,0.3l-1.3-12.1l3.1-0.3l0.2,1.5
		c0.7-1.1,1.9-1.9,3.5-2.1c2.8-0.3,5,1.3,5.4,4.7l0.8,7.1l-3.1,0.3L122.5,44.6z"/>
	<path class="st2" d="M132.6,37.8c1.9-0.2,3.4,0.6,4.2,1.5l-0.2-1.7l3.1-0.3l1.3,12.1l-3.1,0.3l-0.2-1.8c-0.6,1.1-1.9,2.2-3.8,2.4
		c-3.1,0.3-5.8-1.9-6.2-5.7C127.3,40.8,129.5,38.2,132.6,37.8z M133.6,40.4c-1.6,0.2-3.1,1.6-2.8,3.9s1.9,3.4,3.6,3.3
		c1.7-0.2,3.1-1.6,2.8-3.9C137,41.4,135.3,40.3,133.6,40.4z"/>
</g>
<g>
	<g>
		<path class="st2" d="M25,78.9c1.2-0.1,2.1,0.4,2.7,1l-0.1-1.1l2-0.2l0.8,7.7l-2,0.2l-0.1-1.1c-0.4,0.7-1.2,1.4-2.4,1.5
			c-2,0.2-3.7-1.2-3.9-3.7S23.1,79.1,25,78.9z M25.7,80.5c-1,0.1-2,1-1.8,2.5c0.1,1.5,1.2,2.2,2.3,2.1c1.1-0.1,2-1,1.8-2.5
			C27.8,81.1,26.8,80.4,25.7,80.5z"/>
		<path class="st2" d="M36,77.8c2-0.2,3.7,1.2,3.9,3.6s-1.1,4.2-3.1,4.4c-1.2,0.1-2.1-0.4-2.7-1l0.5,4.8l-2,0.2l-1.2-11.4l2-0.2
			l0.1,1.1C33.9,78.6,34.8,77.9,36,77.8z M35.6,79.5c-1,0.1-2,1-1.8,2.5c0.1,1.5,1.2,2.2,2.3,2.1c1.1-0.1,2-1,1.8-2.5
			C37.7,80.1,36.7,79.4,35.6,79.5z"/>
		<path class="st2" d="M45.1,84.9c-2.2,0.2-4.1-1.2-4.3-3.6c-0.2-2.4,1.3-4.2,3.6-4.4s4.1,1.1,4.4,3.6C49,82.9,47.4,84.7,45.1,84.9z
			 M45,83.2c1-0.1,1.9-1,1.8-2.5c-0.2-1.5-1.2-2.2-2.2-2.1s-1.9,0.9-1.7,2.5C43,82.6,43.9,83.3,45,83.2z"/>
		<path class="st2" d="M52.5,84l-2,0.2l-0.8-7.7l2-0.2l0.1,1.2c0.4-0.8,1.2-1.4,2.2-1.6l0.2,2L53.8,78c-1.2,0.1-1.8,0.6-1.7,2.1
			L52.5,84z"/>
		<path class="st2" d="M55.9,77.5L55,77.6L54.8,76l0.9-0.1L55.5,74l2-0.2l0.2,1.9l1.7-0.2l0.2,1.6l-1.7,0.2l0.4,3.7
			c0.1,0.5,0.3,0.7,0.9,0.7l0.9-0.1l0.2,1.6L59,83.4c-1.5,0.2-2.5-0.4-2.7-2.1L55.9,77.5z"/>
		<path class="st2" d="M63.8,74.9c1.2-0.1,2.2,0.4,2.7,1l-0.1-1.1l2-0.2l0.8,7.7l-2,0.2l-0.1-1.1c-0.4,0.7-1.2,1.4-2.4,1.5
			c-2,0.2-3.7-1.2-3.9-3.7C60.5,76.8,61.9,75.1,63.8,74.9z M64.5,76.6c-1,0.1-2,1-1.8,2.5c0.1,1.5,1.2,2.2,2.3,2.1
			c1.1-0.1,2-1,1.8-2.5C66.6,77.2,65.6,76.5,64.5,76.6z"/>
		<path class="st2" d="M76,77.3c-0.1-1.2-0.9-1.8-1.9-1.7c-1.1,0.1-1.7,0.8-1.5,2.1l0.4,4.3l-2,0.2l-0.8-7.7l2-0.2l0.1,1
			c0.4-0.7,1.2-1.2,2.2-1.3c1.8-0.2,3.2,0.9,3.4,3l0.5,4.5l-2,0.2L76,77.3z"/>
		<path class="st2" d="M82.5,73c1-0.1,2,0.3,2.6,0.9l-0.4-3.7l2-0.2l1,10.3l-2,0.2l-0.1-1.1c-0.4,0.8-1.2,1.4-2.4,1.5
			c-2,0.2-3.7-1.2-3.9-3.7S80.5,73.2,82.5,73z M83.2,74.7c-1,0.1-2,1-1.8,2.5c0.1,1.5,1.2,2.2,2.3,2.1c1.1-0.1,2-1,1.8-2.5
			C85.3,75.3,84.2,74.6,83.2,74.7z"/>
		<path class="st2" d="M93.1,80c-2.2,0.2-4.1-1.2-4.3-3.6c-0.2-2.4,1.3-4.2,3.6-4.4s4.1,1.1,4.4,3.6C97,78,95.4,79.8,93.1,80z
			 M93,78.3c1-0.1,1.9-1,1.8-2.5c-0.2-1.5-1.2-2.2-2.2-2.1s-1.9,0.9-1.7,2.5C91,77.8,91.9,78.4,93,78.3z"/>
		<path class="st2" d="M101.6,72.8l-0.9,0.1l-0.2-1.6l0.9-0.1l-0.2-1.9l2-0.2l0.2,1.9l1.7-0.2l0.2,1.6l-1.7,0.2l0.4,3.7
			c0.1,0.5,0.3,0.7,0.9,0.7l0.9-0.1l0.2,1.6l-1.2,0.1c-1.5,0.2-2.5-0.4-2.7-2.1L101.6,72.8z"/>
		<path class="st2" d="M114.6,77.7l-2,0.2l-0.1-1c-0.4,0.7-1.2,1.2-2.2,1.3c-1.8,0.2-3.2-0.9-3.4-3l-0.5-4.5l2-0.2l0.4,4.2
			c0.1,1.2,0.9,1.8,1.9,1.7c1.1-0.1,1.7-0.8,1.5-2.1l-0.4-4.3l2-0.2L114.6,77.7z"/>
		<path class="st2" d="M119.5,77.3c-1.9,0.2-3.4-0.8-3.6-2.2l2-0.2c0.1,0.6,0.7,1,1.5,0.9c0.8-0.1,1.1-0.5,1.1-0.9
			c-0.1-1.4-4.4-0.1-4.7-2.9c-0.1-1.3,0.9-2.4,2.8-2.6c1.9-0.2,3.1,0.7,3.4,2.2l-1.9,0.2c-0.1-0.6-0.6-0.9-1.4-0.9
			c-0.7,0.1-1.1,0.4-1,0.9c0.1,1.4,4.3,0.1,4.7,2.9C122.4,76,121.4,77.1,119.5,77.3z"/>
		<path class="st2" d="M126.2,66.6c-0.1-0.6,0.4-1.2,1.1-1.3c0.7-0.1,1.2,0.4,1.3,1c0.1,0.6-0.4,1.2-1.1,1.3
			C126.8,67.7,126.3,67.3,126.2,66.6z M126.6,68.7l2-0.2l0.8,7.7l-2,0.2L126.6,68.7z"/>
		<path class="st2" d="M133.5,67.8c1-0.1,2,0.3,2.6,0.9l-0.4-3.7l2-0.2l1,10.3l-2,0.2l-0.1-1.1c-0.4,0.8-1.2,1.4-2.4,1.5
			c-2,0.2-3.7-1.2-3.9-3.7C130.2,69.8,131.6,68,133.5,67.8z M134.2,69.5c-1,0.1-2,1-1.8,2.5c0.1,1.5,1.2,2.2,2.3,2.1
			c1.1-0.1,2-1,1.8-2.5C136.3,70.1,135.3,69.4,134.2,69.5z"/>
		<path class="st2" d="M144.1,74.8c-2.2,0.2-4-1.2-4.3-3.6c-0.2-2.4,1.2-4.1,3.5-4.4c2.2-0.2,4,1.1,4.2,3.4c0,0.3,0,0.5,0,0.8
			l-5.6,0.6c0.2,1.1,1.1,1.7,2,1.6c0.8-0.1,1.3-0.5,1.5-1.1l2.1-0.2C147.2,73.4,146,74.6,144.1,74.8z M141.8,70.3l3.7-0.4
			c-0.1-1-1-1.6-2-1.5C142.5,68.6,141.8,69.2,141.8,70.3z"/>
		<path class="st2" d="M151.6,66c1.2-0.1,2.2,0.4,2.7,1l-0.1-1.1l2-0.2l0.8,7.7l-2,0.2l-0.1-1.1c-0.4,0.7-1.2,1.4-2.4,1.5
			c-2,0.2-3.7-1.2-3.9-3.7C148.2,67.9,149.6,66.2,151.6,66z M152.2,67.7c-1,0.1-2,1-1.8,2.5c0.1,1.5,1.2,2.2,2.3,2.1
			c1.1-0.1,2-1,1.8-2.5C154.4,68.3,153.3,67.6,152.2,67.7z"/>
		<path class="st2" d="M161.7,73c-1.9,0.2-3.4-0.8-3.6-2.2l2-0.2c0.1,0.6,0.7,1,1.5,0.9c0.8-0.1,1.1-0.5,1.1-0.9
			c-0.1-1.4-4.4-0.1-4.7-2.9c-0.1-1.3,0.9-2.4,2.8-2.6c1.9-0.2,3.1,0.7,3.4,2.2l-1.9,0.2c-0.1-0.6-0.6-1-1.4-0.9
			c-0.7,0.1-1.1,0.4-1,0.9c0.1,1.4,4.3,0.1,4.7,2.9C164.7,71.7,163.6,72.8,161.7,73z"/>
	</g>
</g>
</svg>
