<?xml version="1.0" encoding="utf-8"?>
<!-- Generator: Adobe Illustrator 25.4.1, SVG Export Plug-In . SVG Version: 6.00 Build 0)  -->
<svg version="1.1" id="Layer_1" xmlns="http://www.w3.org/2000/svg" xmlns:xlink="http://www.w3.org/1999/xlink" x="0px" y="0px"
	 viewBox="0 0 369.5 323.9" style="enable-background:new 0 0 369.5 323.9;" xml:space="preserve">
<style type="text/css">
	.st0{clip-path:url(#SVGID_00000006701341105940784190000013882986099789221255_);}
	.st1{fill:#2A5405;}
	.st2{fill:#404859;}
	.st3{fill:#434A59;}
	.st4{fill:#40840B;}
	.st5{fill:#F2CDAC;}
	.st6{fill:#C66C67;}
	.st7{fill:#FFFFFF;}
	.st8{fill:#2A2E35;}
	.st9{fill:#FF5F4A;}
	.st10{fill:#EAEAEA;}
	.st11{fill:#A64F3C;}
	.st12{fill:#95B7BF;}
	.st13{fill:#FF867A;}
	.st14{fill:#1A1B1D;}
</style>
<g>
	<defs>
		<rect id="SVGID_1_" width="369.5" height="323.9"/>
	</defs>
	<clipPath id="SVGID_00000073679998705414550810000012752972146007526589_">
		<use xlink:href="#SVGID_1_"  style="overflow:visible;"/>
	</clipPath>
	<g style="clip-path:url(#SVGID_00000073679998705414550810000012752972146007526589_);">
		<g>
			<path class="st1" d="M112.7,124.4c0,0-66.2,68.9-66.2,91.4c0,16.3,18.6,20.8,29.6,15.2c17.5-8.9,42.4-59.3,46.4-73.4
				C126.4,143.6,131.3,122.4,112.7,124.4z"/>
		</g>
		<g>
			<path class="st1" d="M93.6,124.9c0,0-2.5,52.8-5.7,74.4c-3.2,21.6-21,30.2-35,26.3c-14-3.9-2.9-44.9,3.4-65.5
				c5.7-18.9,12.3-37.9,16.9-39.1C77.9,119.9,93.6,124.9,93.6,124.9z"/>
		</g>
		<g>
			<g>
				<path d="M160.3,75.5c0,0-4.2,0.1-6.2-1.9s-4-0.9-5,0.6c-1,1.4,0.8,4,0.8,4s-1.8-1.3-3,0.6c-1.2,1.9,2.9,8.8,6.1,11.3
					c3.3,2.5,8.8,8.3,10.2,9.4s2.9-0.1,3.3-1.6s5.4-6.5,5.3-10.7C171.8,82.9,170,74.5,160.3,75.5z"/>
			</g>
		</g>
		<g>
			<g>
				<g>
					<path class="st2" d="M230,624.7c4-3.8,0.8-14.9,0.8-15.3c-0.1-1.7,7.8-3.9,10.2-0.1c4.8,7.4,1.1-1.5,3.7,1
						c4.3,4,9.2,20.4,6.8,22.3c-4.6,3.5-39,2.5-39.8-0.9C211.2,629.5,224.9,629.5,230,624.7z"/>
				</g>
			</g>
		</g>
		<g>
			<g>
				<g>
					<path class="st2" d="M106,623.9c4.8-3.7,5.3-14.2,5.4-14.5c0.3-1.7,8.6-3.8,10.2-0.1c3.1,7.3,1.5-1.5,3.5,0.9
						c3.3,4,4.5,20.2,1.8,22c-5.3,3.5-39.2,2.5-39.2-0.9C87.5,629.2,99.9,628.7,106,623.9z"/>
				</g>
			</g>
		</g>
		<g>
			<g>
				<g>
					<path class="st3" d="M90.1,265.1L194.7,285l57.5,328.3c-10.5,6.9-20.9,5.3-30.9,2.7l-80.6-265.4c0,0,2.7,48,0,106.9
						c-3.6,79.5,0.1,152.7-2.7,152.7c0,0-6.2,3.5-20.6,3.5c-10.7,0-16.9-3.9-16.9-3.9C85,352.7,90.1,265.1,90.1,265.1z"/>
				</g>
			</g>
		</g>
		<g>
			<g>
				<g>
					<path class="st4" d="M200.1,292.9c0.5-14.9,2-44.7,1.4-58.7c-1.9-38.8,12.6-59.4,12-71.5c-1.2-23.1-17.3-45.9-74.6-47.1
						c-30.4-0.7-34,20.7-37.1,37.9c-1.8,10.1-15.5,104.4-13.9,127.8c0.5,6.7,15,12.8,34.7,15.8c2.4,0.4,13.9,0.4,15.6,0.6
						C166.7,301,200,294.1,200.1,292.9z"/>
				</g>
			</g>
		</g>
		<g>
			<g>
				<g>
					<path class="st5" d="M150.6,120.7c3.9,3.9,16.8,1,17.1-1.7L164,95.5l-7.7,4l-1.9,4.4l-2.2,5.2l-3,8.1
						C147.6,120,149.5,119.6,150.6,120.7z"/>
				</g>
			</g>
		</g>
		<g>
			<g>
				<g>
					<path class="st6" d="M152.1,109.2c7.6-0.3,9.9-6.8,9.9-6.8l-7.6,1.6L152.1,109.2z"/>
				</g>
			</g>
		</g>
		<g>
			<g>
				<g>
					<path class="st5" d="M164.4,89.8l0.4,7.1c-0.1,3.8-3,7-7,7.5c-3,0.4-4.5,0.5-8-0.8c-2.9-1.1-3.7-4.4-2.7-8.3
						c1.3-5.1,4-9.4,5.5-11.6c0.9-1.3,2-2.1,3.1-2.6c0.4-0.2,0.9-0.2,1.4,0c0.4,0.1,0.8,0.3,1.2,0.4
						C161.9,82.8,164.2,86.1,164.4,89.8z"/>
				</g>
			</g>
		</g>
		<g>
			<g>
				<g>
					<path class="st7" d="M155.1,122c0,0-4.1-6.3-4.1-9.9c-4.1,0.8-5.4,14.7-5.4,14.7l9.2-2.8l5.6,5.9c0,0,10.3-4.7,10.8-7.4
						c0.5-2.8-3.5-10.6-4.5-9.2C163.6,117.9,155.1,122,155.1,122z"/>
				</g>
			</g>
		</g>
		<g>
			<path class="st5" d="M89.9,115.5c0,0-2.1,7.5-2.2,11.5c-0.1,4-10.3,1.7-11.3-1.1c-1-2.8,2.2-6.1,3.3-9.8
				C80.7,112.4,89.9,112.1,89.9,115.5z"/>
		</g>
		<g>
			<g>
				<g>
					<path class="st5" d="M164.4,92.8c0.4-0.6,0.8-1.2,1.1-1.8c0.6-1.2,1.7-2.9,3.1-1.2c2,2.5-0.6,8.4-3.9,7.5
						C162.2,96.6,163.3,94.2,164.4,92.8z"/>
				</g>
			</g>
		</g>
		<g>
			<g>
				<path class="st8" d="M140.6,351.1c0,0,0.1,0,0.1,0c0.4-0.1,0.6-0.4,0.6-0.8c-0.2-1.4-5.9-35-12.9-44.6c-0.2-0.3-0.7-0.4-1-0.1
					s-0.4,0.6-0.2,1c6.8,9.4,12.6,43.7,12.6,44C140,350.9,140.3,351.1,140.6,351.1z"/>
			</g>
		</g>
		<g>
			<g>
				<path class="st8" d="M133.4,605.7C133.4,605.7,133.4,605.7,133.4,605.7c0.5,0,0.7-0.4,0.7-0.8c0-0.2-1.6-14.8-2.2-21.3
					c-0.4-3.8,0.6-13.5,1.5-23c0.7-7,1.4-14.2,1.6-19.1c0.4-11.2,0.4-62,0-73.5c-0.2-6.3,1.2-31,2.4-52.8
					c0.9-15.9,1.7-29.6,1.7-33.6c0-9.4-4-40.1-4.1-41.4c-0.1-0.4-0.4-0.6-0.8-0.6c-0.4,0-0.6,0.4-0.6,0.8c0,0.3,4.1,31.9,4.1,41.2
					c0,4-0.8,17.6-1.7,33.5c-1.3,21.8-2.7,46.5-2.4,52.9c0.4,11.4,0.4,62.1,0,73.3c-0.2,4.9-0.9,12.1-1.6,19
					c-1,10-1.9,19.4-1.5,23.2c0.6,6.5,2.2,21.2,2.2,21.3C132.7,605.4,133,605.7,133.4,605.7z"/>
			</g>
		</g>
		<g>
			<g>
				<path class="st6" d="M150.5,102.1c4.5,1.2,11.3,0.8,11.3,0.8c-1.1,0.8-2.4,1.4-3.9,1.6c-3,0.4-4.5,0.5-8-0.8
					c-1.3-0.5-2.1-1.4-2.6-2.6C148,101.3,149.1,101.7,150.5,102.1z"/>
			</g>
		</g>
		<g>
			<g>
				<g>
					<g>
						<g>
							<g>
								<path class="st9" d="M87,102.8c0,0-5.8-2.2-5.8-3.5c0-1.2,2-1.7,3.5-3.4c1.4-1.6,2.1-3.9,2.1-3.9l7.8,2.2L87,102.8z"/>
							</g>
						</g>
						<g>
							<g>
								<path class="st10" d="M95.2,92.3c0,0-16.4,18.8-23.1,19.2c-6.7,0.4,4.5,9.6,10.3,7.4s22.4-19.7,22.4-19.7L95.2,92.3z"/>
							</g>
						</g>
						<g>
							<g>
								<path class="st9" d="M116.2,81.9c-3.1-2.4-7.3-5.7-11.7-9.7L88.9,93.7c4.9,1.9,9.8,4.2,14.4,6.9c2.9,1.7,6.6,0.9,8.6-1.9
									l5.6-7.7C119.6,88.1,119,84.1,116.2,81.9z"/>
							</g>
						</g>
						<g>
							<g>
								<path class="st10" d="M78.8,33.1L42.1,83.6c0,0,23,0.7,46.8,10l15.5-21.5C91.8,61,83.8,44.1,78.8,33.1z"/>
							</g>
						</g>
						<g>
							<g>
								<path class="st9" d="M78.8,33.1c1.8,3.9,3.9,8.5,6.4,13.3c-0.8,3.9-3.1,10.8-9.8,21.5c-5.8,9.2-12.8,14.8-18.3,17.3
									c-9.1-1.4-15.1-1.6-15.1-1.6L78.8,33.1z"/>
							</g>
						</g>
						<g>
							<g>
								<path class="st11" d="M65.6,62C55.4,76.1,44.5,85.7,41.2,83.3c-3.3-2.4,2.3-15.8,12.5-29.9c10.2-14.1,21.2-23.7,24.5-21.3
									C81.4,34.4,75.8,47.8,65.6,62z"/>
							</g>
						</g>
						<g>
							<g>
								<path class="st10" d="M41.9,43.5l0.8-1.2c2.1-2.9,6-3.7,9.1-1.9L72,52.3c-1.8,3.1-4,6.4-6.4,9.7c-1.8,2.5-3.6,4.8-5.4,6.9
									L42.8,52.6C40.2,50.2,39.9,46.3,41.9,43.5z"/>
							</g>
						</g>
						<g>
							<g>
								<path class="st12" d="M65.6,62c2.4-3.3,4.6-6.6,6.4-9.7l-2.5-1.5L56.1,65.1l4.1,3.9C62,66.8,63.8,64.4,65.6,62z"/>
							</g>
						</g>
						<g>
							<g>
								<path class="st7" d="M41,83.8c2.4,1.4,6.8-1.7,10.2-4.6c4.7-4.1,10-10.1,14.9-16.9c5-6.9,9-13.8,11.4-19.5
									c1.8-4.2,3.3-9.5,1-11.2c-1.5-1.1-4.2-0.3-7.8,2.4c-3.3,2.5-7.1,6.2-11.2,11l1,0.6c4-4.7,7.7-8.3,10.9-10.6
									c3.1-2.3,5.4-3.1,6.4-2.4c0.8,0.6,0.8,2,0.6,3.2c-0.2,1.8-0.9,4-2,6.7c-2.4,5.6-6.4,12.5-11.3,19.3
									C60.2,68.4,55,74.4,50.4,78.4c-2.2,1.9-4.1,3.3-5.7,4c-1,0.5-2.4,0.9-3.2,0.4c-0.7-0.5-0.7-1.6-0.7-2.5
									c0.1-1.4,0.5-3.1,1.3-5.3c1.6-4.3,4.4-9.8,8.1-15.6l-0.9-0.8c-3.8,5.8-6.8,11.6-8.3,16c-1.7,4.8-1.8,7.9-0.2,9.1
									C40.9,83.8,40.9,83.8,41,83.8z"/>
							</g>
						</g>
						<g>
							<g>
								<g>
									<path class="st11" d="M105.1,80.8l7.9,5.1c0.1,0.1,0.2,0,0.3-0.1l0.6-0.9c0.1-0.1,0-0.2-0.1-0.3l-7.9-5.1
										c-0.1-0.1-0.2,0-0.3,0.1l-0.6,0.9C104.9,80.6,105,80.7,105.1,80.8z"/>
								</g>
							</g>
							<g>
								<g>
									<path class="st11" d="M103.7,82.9l7.9,5.1c0.1,0.1,0.2,0,0.3-0.1l0.6-0.9c0.1-0.1,0-0.2-0.1-0.3l-7.9-5.1
										c-0.1-0.1-0.2,0-0.3,0.1l-0.6,0.9C103.6,82.7,103.6,82.8,103.7,82.9z"/>
								</g>
							</g>
							<g>
								<g>
									<path class="st11" d="M102.4,84.9l7.9,5.1c0.1,0.1,0.2,0,0.3-0.1l0.6-0.9c0.1-0.1,0-0.2-0.1-0.3l-7.9-5.1
										c-0.1-0.1-0.2,0-0.3,0.1l-0.6,0.9C102.3,84.7,102.3,84.9,102.4,84.9z"/>
								</g>
							</g>
						</g>
					</g>
					<g>
						<g>
							<path class="st7" d="M101.4,72.9c0.2,0.1,0.5,0,0.7-0.2c0.2-0.3,0.2-0.7-0.1-0.9c-0.1-0.1-7.9-6.5-12-13.6
								c-0.2-0.3-0.6-0.4-0.9-0.2c-0.3,0.2-0.4,0.6-0.2,0.9c4.2,7.3,12,13.7,12.3,14C101.3,72.9,101.3,72.9,101.4,72.9z"/>
						</g>
					</g>
					<g>
						<g>
							<path class="st7" d="M87.4,56.3c0.2,0,0.4,0,0.5-0.1c0.3-0.2,0.4-0.6,0.2-0.9l-1.8-3.1c-0.2-0.3-0.6-0.4-0.9-0.2
								s-0.4,0.6-0.2,0.9l1.8,3.1C87.2,56.2,87.3,56.3,87.4,56.3z"/>
						</g>
					</g>
				</g>
				<g>
					<polygon points="39.2,20.5 38,0 30.2,2.6 					"/>
				</g>
				<g>
					<polygon points="30.7,27.6 14,7.5 8.1,16 					"/>
				</g>
				<g>
					<polygon points="26,43.7 0,41 1.7,51.2 					"/>
				</g>
			</g>
		</g>
		<g>
			<path class="st5" d="M84.7,118.9c-1.1-1,0.9-2.4,3.2-5.4c2.3-3.1,3.8-4.2,5.1-4.9c1.8-1,3.4-1.1,1.6,1.1
				c-1.6,1.9-2.6,5.3-3.8,7.6C89.1,120.7,85.6,119.8,84.7,118.9z"/>
		</g>
		<g>
			<path class="st5" d="M81.2,102.4c-1.3,0.5-4.3,4.4-5.8,6.4c-0.6,0.7-0.4,1.8,0.4,2.3c0.9,0.6,2.1,1.1,3.4,0.6
				c1.3-0.4,2.6-2.3,2.6-2.3s0.3,0.2,1.6-1.2c0.8-1,0-2-0.5-2.5c0.5,0.3,1.4,0.7,2.4,0.3C86.9,105.2,82.9,101.7,81.2,102.4z"/>
		</g>
		<g>
			<path class="st4" d="M208.6,144.3l50.7,80.1l89.1,43.3c0,0,0.5,20.2-6,24c0,0-84.5-13.7-102.2-26.5
				c-32.2-23.3-52.7-71.3-55.8-96.7C182.6,152.8,208.6,144.3,208.6,144.3z"/>
		</g>
		<g>
			<path class="st13" d="M346,272.6c1.5-0.7,6.1,0.2,8.5,1c4.5,1.5,7.5,0.8,9.3-0.1s1.3,2.7-1.5,3.6c-2.8,0.9-7.9,0.5-5.8,2.1
				c2,1.5,15.5-3.8,12.5,1.1c-9,14.7-21.9,9.3-27.5,3.3C341.5,283.6,335.5,277.5,346,272.6z"/>
		</g>
		<g>
			<path class="st7" d="M273.3,238.7c-0.2,0-0.5-0.1-0.7-0.2c-0.4-0.3-10.8-7.9-15-14.5c-0.4-0.6-0.2-1.3,0.4-1.7
				c0.6-0.4,1.3-0.2,1.7,0.4c4,6.2,14.3,13.8,14.4,13.8c0.6,0.4,0.7,1.2,0.3,1.7C274.1,238.5,273.7,238.7,273.3,238.7z"/>
		</g>
		<g>
			<path class="st7" d="M201.4,218.8c-0.4,0-0.9-0.2-1.1-0.7c-13.2-25.5-17-53-17-53.2c-0.1-0.7,0.4-1.3,1.1-1.4
				c0.7-0.1,1.3,0.4,1.4,1.1c0,0.3,3.8,27.4,16.8,52.4c0.3,0.6,0.1,1.4-0.5,1.7C201.8,218.8,201.6,218.8,201.4,218.8z"/>
		</g>
		<g>
			<path class="st7" d="M76.2,225.2c-0.3,0-0.6-0.2-0.7-0.5c-0.1-0.4,0.1-0.8,0.5-0.9c0,0,4.6-1.8,9.6-15.6c5.2-14.3,6-60.9,6-61.4
				c0-0.4,0.3-0.7,0.8-0.7c0.4,0,0.7,0.4,0.7,0.8c0,1.9-0.8,47.4-6.1,61.9c-5.4,14.7-10.4,16.4-10.6,16.5
				C76.4,225.1,76.3,225.2,76.2,225.2z"/>
		</g>
		<g id="XMLID_1605_">
			<g id="XMLID_1625_">
				<g id="XMLID_1626_">
					<path id="XMLID_1627_" class="st14" d="M155.5,96.4c0-0.1,0-0.2-0.1-0.2c0,0-0.1,0-0.1,0l-0.2,0c-0.1,0-0.1-0.1-0.2-0.1
						c0,0-0.1,0-0.1,0c-0.1-0.1-0.3-0.1-0.4-0.1l-0.2-0.1c-0.1,0-0.1,0-0.2-0.1c0,0,0-0.1-0.1-0.1c-0.1,0-0.2-0.2-0.3-0.2
						c-0.1-0.1-0.1-0.1-0.2-0.2c0,0,0-0.1-0.1-0.1s-0.1-0.1,0-0.1l0-0.1c0-0.1,0-0.2,0-0.3c0-0.1,0-0.2,0-0.3c0-0.1,0.1-0.2,0.1-0.4
						l0,0c0,0,0,0,0,0l0,0c0,0,0-0.1,0.1-0.1l0.1-0.2l0-0.1l0.1-0.1l0.1-0.2c0-0.1,0-0.1,0.1-0.2c0,0,0.1-0.1,0.1-0.1
						s0.1-0.1,0.1-0.1c0.1-0.2,0.2-0.2,0.2-0.4c0.1-0.1,0.1-0.2,0.2-0.3l0.1-0.2c0-0.1,0-0.1,0.1-0.2l0.1-0.1
						c0.1-0.1,0.1-0.2,0.2-0.3c0.1-0.1,0.1-0.2,0.2-0.4c0.1-0.1,0.1-0.2,0.2-0.4c0,0,0.1-0.1,0.1-0.1s0.1-0.1,0.1-0.1l0.1-0.2
						c0.1-0.1,0.1-0.3,0.2-0.5c0.1-0.1,0.1-0.2,0.1-0.2c0,0,0-0.1,0-0.1s0-0.1,0-0.1c0-0.1-0.1-0.2-0.2-0.2c-0.1,0-0.2-0.1-0.2-0.1
						c-0.1,0-0.1,0.1-0.2,0.1c0,0-0.1,0.1-0.1,0.1c-0.1,0.1-0.1,0.1-0.1,0.2s0,0.1-0.1,0.2c-0.1,0.1-0.2,0.3-0.3,0.5
						c-0.1,0.1-0.1,0.1-0.1,0.2c0,0.1-0.1,0.1-0.1,0.2l0,0l0,0c-0.1,0-0.1,0.1-0.1,0.2c-0.1,0.1-0.1,0.2-0.1,0.2
						c-0.1,0.2-0.2,0.3-0.3,0.5c0,0,0,0.1-0.1,0.1c-0.1,0.1-0.1,0.2-0.2,0.3c0,0.1-0.1,0.1-0.1,0.1s0,0.1,0,0.1
						c-0.1,0.1-0.1,0.1-0.1,0.2c-0.1,0.2-0.3,0.5-0.4,0.8c0,0.1-0.1,0.1-0.1,0.1c0,0,0,0.1,0,0.1c0,0.1-0.1,0.1-0.1,0.1
						c-0.1,0.1-0.1,0.1-0.1,0.2l-0.1,0.2c0,0,0,0.1,0,0.1c0,0.1,0,0.1-0.1,0.2c0,0.1-0.1,0.2-0.1,0.3c-0.1,0.2-0.1,0.5,0,0.8
						c0,0.1,0,0.1,0.1,0.2c0,0.1,0.1,0.3,0.1,0.4c0.1,0.1,0.1,0.1,0.1,0.2c0.1,0.1,0.1,0.1,0.1,0.1c0.1,0.1,0.1,0.1,0.2,0.2
						c0.3,0.2,0.6,0.3,0.9,0.5c0.1,0,0.1,0,0.1,0.1c0,0,0.1,0,0.1,0c0.1,0,0.1,0,0.1,0.1c0.1,0,0.1,0,0.2,0.1l0.2,0
						c0.1,0,0.1,0,0.2,0c0,0,0.1,0,0.1,0c0,0,0.1-0.1,0.1-0.1c0.1-0.1,0.1-0.1,0.1-0.2C155.5,96.5,155.5,96.5,155.5,96.4z"/>
				</g>
			</g>
			<g>
				<g id="XMLID_1622_">
					<g id="XMLID_1623_">
						<path id="XMLID_1624_" class="st14" d="M168.1,95.7c0.1,0,0.1-0.1,0.1-0.1c0,0,0-0.1,0-0.1l0-0.1c0,0,0-0.1,0-0.1
							c0,0,0,0,0-0.1c0-0.1-0.1-0.1-0.1-0.2l-0.1-0.1c0,0-0.1,0-0.1-0.1c0,0,0-0.1,0-0.1c-0.1,0-0.1-0.1-0.2-0.1
							c-0.1,0-0.1-0.1-0.1-0.1l-0.1,0c0,0,0,0-0.1,0l0,0c0,0-0.1-0.1-0.1-0.1c-0.1,0-0.1,0-0.2-0.1s-0.1,0-0.2,0l0,0l0,0l0,0
							c0,0,0,0-0.1,0l-0.1,0c0,0,0,0-0.1,0c0,0,0,0-0.1,0l-0.1,0c0,0-0.1,0-0.1,0c0,0,0,0-0.1,0c0,0,0,0,0,0c-0.1,0-0.1,0-0.2,0.1
							c-0.1,0-0.1,0-0.1,0.1l-0.1,0c0,0,0,0-0.1,0l0,0c-0.1,0-0.1,0-0.1,0.1c-0.1,0-0.1,0.1-0.1,0.1s-0.1,0.1-0.1,0.1c0,0,0,0,0,0
							c0,0,0,0,0,0l-0.1,0.1c-0.1,0.1-0.1,0.1-0.1,0.2c0,0-0.1,0.1-0.1,0.1c0,0,0,0,0,0c0,0,0,0.1,0,0.1c0,0.1,0.1,0.1,0.1,0.1
							s0.1,0,0.2,0.1c0,0,0.1,0,0.1,0l0,0c0,0,0,0,0,0c0,0,0,0,0,0c0.1,0,0.1-0.1,0.1-0.1c0,0,0.1,0,0.1,0s0,0,0-0.1l0,0l0,0
							c0,0,0.1,0,0.1,0c0,0,0.1,0,0.1,0c0.1,0,0.1-0.1,0.1-0.1l0,0c0,0,0.1,0,0.1,0c0,0,0,0,0.1,0c0,0,0,0,0,0c0,0,0,0,0.1,0
							c0.1,0,0.2,0,0.3,0c0,0,0,0,0.1,0l0,0c0,0,0,0,0,0s0,0,0,0l0,0l0,0c0,0,0,0,0,0s0.1,0,0.1,0c0.1,0,0.1,0,0.2,0.1c0,0,0,0,0,0
							c0,0,0.1,0,0.1,0.1s0,0,0,0c0,0,0,0,0,0s0,0,0.1,0.1c0.1,0.1,0.1,0.1,0.2,0.2c0,0,0,0,0,0s0,0,0,0s0,0,0,0.1c0,0,0,0,0,0.1
							l0,0.1c0,0,0,0,0,0c0,0,0,0,0,0s0.1,0,0.1,0C168,95.8,168.1,95.8,168.1,95.7C168.1,95.7,168.1,95.7,168.1,95.7z"/>
					</g>
				</g>
				<g id="XMLID_1619_">
					<g id="XMLID_1620_">
						<path id="XMLID_1621_" class="st14" d="M167.2,96.9c0.1,0,0.1,0,0.2,0c0,0,0,0,0,0v-0.1c0,0,0-0.1,0-0.1c0,0,0,0,0-0.1
							c0-0.1,0-0.1,0-0.2v-0.1c0,0,0-0.1,0-0.1c0,0,0,0,0-0.1c0-0.1,0-0.1-0.1-0.1c0-0.1,0-0.1-0.1-0.1l0-0.1c0,0,0,0,0,0l0,0
							c0,0,0-0.1-0.1-0.1c0,0,0-0.1-0.1-0.1c0,0-0.1-0.1-0.1-0.1l0,0l0,0l0,0c0,0,0,0,0,0l-0.1-0.1l0,0c0,0,0,0,0,0l-0.1,0
							c0,0,0,0-0.1,0s0,0,0,0l0,0c0,0-0.1-0.1-0.1-0.1c-0.1,0-0.1,0-0.1,0l-0.1,0c0,0,0,0-0.1,0l0,0c0,0-0.1-0.1-0.1,0s-0.1,0-0.1,0
							s-0.1,0-0.1,0c0,0,0,0,0,0s0,0-0.1,0l-0.1,0c-0.1,0-0.1,0.1-0.2,0.1c0,0-0.1,0-0.1,0c0,0,0,0,0,0c0,0,0,0,0,0.1
							c0,0.1,0,0.1,0.1,0.2c0,0.1,0.1,0.1,0.1,0.2c0,0,0.1,0.1,0.1,0.1l0,0c0,0,0,0,0.1,0s0,0,0,0c0,0,0.1,0,0.1,0c0,0,0,0,0,0
							c0,0,0,0,0.1,0l0,0l0,0c0,0,0,0,0.1,0s0,0,0.1,0c0.1,0,0.1,0,0.1,0l0,0c0,0,0,0,0.1,0s0,0,0,0l0,0c0,0,0,0,0,0
							c0.1,0,0.1,0,0.2,0.1c0,0,0,0,0,0l0,0l0,0c0,0,0,0,0,0l0,0l0,0l0,0c0,0,0,0,0,0.1c0,0,0,0.1,0.1,0.1l0,0c0,0,0,0.1,0,0.1
							c0,0,0,0,0,0c0,0,0,0,0,0s0,0.1,0,0.1c0,0.1,0.1,0.1,0,0.2c0,0,0,0,0,0l0,0c0,0,0,0,0,0c0,0,0,0,0,0l0,0c0,0,0,0,0,0s0,0,0,0
							s0,0,0.1,0c0,0,0.1,0,0.1,0.1C167.1,96.9,167.1,96.9,167.2,96.9z"/>
					</g>
				</g>
			</g>
			<g id="XMLID_1616_">
				<g id="XMLID_1617_">
					<path id="XMLID_1618_" class="st14" d="M155.9,98.5c-0.1-0.1-0.1-0.1-0.2-0.1c0,0,0,0,0,0l-0.1,0.1c0,0-0.1,0-0.1,0
						s0,0-0.1,0.1c0,0-0.1,0.1-0.2,0.1l-0.1,0c0,0,0,0.1-0.1,0.1c0,0-0.1,0-0.1,0c-0.1,0.1-0.1,0-0.1,0.1c0,0-0.1,0.1-0.1,0.1
						l-0.1,0c0,0,0,0-0.1,0.1l0,0c0,0-0.1,0-0.1,0s-0.1,0-0.1,0.1c-0.1,0-0.1,0-0.2,0l0,0l0,0l0,0c0,0,0,0-0.1,0H154l0,0
						c0,0,0,0-0.1,0h-0.1c0,0,0,0-0.1,0c0,0,0,0,0,0l0,0c-0.1,0-0.1,0-0.2,0c-0.1,0-0.1,0-0.2,0l-0.1,0c0,0,0,0-0.1,0l0,0
						c-0.1,0-0.1-0.1-0.1-0.1c-0.1,0-0.1,0-0.1-0.1c-0.1,0-0.1-0.1-0.2-0.1c0,0,0,0,0,0c0,0,0,0-0.1-0.1l-0.1-0.1
						c-0.1-0.1-0.1-0.1-0.2-0.1c0,0,0-0.1-0.1-0.1c0,0,0,0-0.1,0c0,0-0.1,0-0.1,0c-0.1,0-0.1,0.1-0.2,0.2c-0.1,0.1-0.1,0.1-0.1,0.2
						c0,0.1,0,0.1,0,0.1c0,0,0,0,0.1,0.1s0.1,0.1,0.1,0.1c0,0,0.1,0,0.1,0.1c0.1,0.1,0.2,0.1,0.2,0.2c0,0,0.1,0.1,0.1,0.1
						c0,0,0.1,0,0.1,0l0,0l0,0c0,0.1,0.1,0.1,0.1,0.1c0.1,0,0.1,0.1,0.1,0.1c0.1,0,0.2,0.1,0.3,0.1c0,0,0,0,0.1,0
						c0.1,0,0.1,0,0.1,0.1s0.1,0,0.1,0s0,0,0.1,0c0,0,0.1,0,0.1,0c0.2,0,0.3,0,0.5,0c0,0,0.1,0,0.1,0c0,0,0,0,0.1,0c0,0,0.1,0,0.1,0
						s0.1,0,0.1,0h0.1c0,0,0,0,0,0c0,0,0.1,0,0.1,0c0.1,0,0.1,0,0.1-0.1c0.1,0,0.2-0.1,0.3-0.1c0,0,0,0,0.1,0c0.1,0,0.1,0,0.1-0.1
						c0,0,0.1,0,0.1,0s0-0.1,0.1-0.1c0,0,0.1,0,0.1,0c0.1-0.1,0.3-0.2,0.4-0.3c0,0,0,0,0.1-0.1c0,0,0,0,0.1-0.1c0,0,0,0,0.1,0
						c0,0,0.1-0.1,0.1,0l0.1-0.1c0,0,0-0.1,0-0.1s0,0,0-0.1c0,0,0-0.1,0-0.1c-0.1-0.1-0.1-0.1-0.1-0.2C156,98.6,156,98.5,155.9,98.5
						z"/>
				</g>
			</g>
			<g id="XMLID_1614_">
				<path id="XMLID_1615_" class="st14" d="M159.2,93.6L159.2,93.6c-0.4-0.2-0.7-0.7-0.5-1.1l0.2-0.3c0.2-0.4,0.6-0.7,1.1-0.5
					c0.4,0.2,0.6,0.7,0.5,1.1l-0.2,0.3C160.1,93.5,159.6,93.7,159.2,93.6z"/>
			</g>
			<g id="XMLID_1612_">
				<path id="XMLID_1613_" class="st14" d="M150.9,90.2L150.9,90.2c-0.4-0.2-0.7-0.7-0.5-1.1l0.2-0.3c0.2-0.4,0.6-0.7,1.1-0.5
					c0.4,0.2,0.6,0.7,0.5,1.1l-0.2,0.3C151.8,90.1,151.3,90.3,150.9,90.2z"/>
			</g>
			<g id="XMLID_1609_">
				<g id="XMLID_1610_">
					<path id="XMLID_1611_" class="st14" d="M162.4,90.9c0.1-0.1,0.1-0.1,0.2-0.2c0,0,0,0,0-0.1l0-0.1c0,0,0-0.1,0-0.1
						c0,0,0,0-0.1-0.1c-0.1-0.1-0.1-0.1-0.1-0.2l0-0.1c0,0-0.1,0-0.1-0.1c0,0,0-0.1,0-0.1c-0.1,0-0.1-0.1-0.2-0.1
						c-0.1-0.1-0.1-0.1-0.1-0.1l-0.1-0.1c0,0,0,0-0.1,0l0,0c0,0-0.1-0.1-0.1-0.1c-0.1-0.1-0.1-0.1-0.1-0.1c-0.1,0-0.1-0.1-0.2-0.1
						l0,0l0,0l0,0c0,0,0,0-0.1,0l-0.1-0.1l0,0c0,0,0,0-0.1,0l-0.1-0.1c0,0-0.1,0-0.1,0c0,0,0,0,0,0s0,0,0,0c-0.1,0-0.1-0.1-0.2-0.1
						c-0.1,0-0.1,0-0.1-0.1l-0.1,0c0,0,0,0-0.1,0l0,0c-0.1,0-0.1-0.1-0.1-0.1c-0.1,0-0.1,0-0.2,0c-0.1,0-0.1,0-0.2,0l0,0
						c0,0,0,0-0.1,0l-0.1,0c-0.1,0-0.1,0.1-0.2,0c-0.1,0-0.1,0-0.1,0c0,0,0,0,0,0s0,0.1,0,0.1c0,0.1,0,0.2,0,0.3s0,0.2,0.1,0.2
						c0,0.1,0,0.1,0.1,0.1l0,0c0,0,0,0,0.1,0c0,0,0,0,0.1,0c0.1,0,0.1,0,0.2,0c0,0,0.1,0,0.1,0c0,0,0.1,0,0.1,0l0,0l0,0
						c0,0,0.1,0.1,0.1,0c0,0,0.1,0,0.1,0c0.1,0,0.1,0,0.2,0l0,0c0,0,0.1,0,0.1,0s0,0,0.1,0c0,0,0,0,0,0c0,0,0.1,0.1,0.1,0.1
						c0.1,0,0.2,0.1,0.3,0.1c0,0,0,0,0.1,0l0,0c0,0,0,0,0,0c0,0,0,0,0.1,0.1l0.1,0l0,0c0,0,0,0,0.1,0.1c0,0,0.1,0.1,0.1,0.1
						c0.1,0.1,0.1,0.1,0.2,0.1c0,0,0,0,0,0c0,0,0.1,0.1,0.1,0.1c0,0,0,0,0.1,0.1s0,0,0.1,0c0,0,0,0,0,0.1c0.1,0.1,0.1,0.2,0.2,0.2
						l0,0l0,0l0,0c0,0,0,0,0,0l0.1,0.1c0,0,0,0,0.1,0c0,0,0,0,0.1,0.1s0.1,0,0.1,0c0.1,0,0.1-0.1,0.2-0.1
						C162.4,90.9,162.4,90.9,162.4,90.9z"/>
				</g>
			</g>
			<g id="XMLID_1606_">
				<g id="XMLID_1607_">
					<path id="XMLID_1608_" class="st14" d="M150.6,86.2c0.1,0.1,0.1,0.2,0.1,0.2c0,0,0,0,0,0l0.1,0c0,0,0.1,0,0.1,0l0,0
						c0,0,0.1,0,0.2,0l0.1,0c0,0,0,0,0.1,0c0,0,0,0,0.1,0c0,0,0.1,0,0.1,0c0,0,0.1,0,0.1,0l0.1,0c0,0,0,0,0,0l0,0c0,0,0.1,0.1,0.1,0
						c0.1,0,0.1,0,0.1,0c0.1,0,0.1,0,0.2,0l0,0l0,0l0,0c0,0,0,0,0.1,0l0.1,0l0,0c0,0,0,0,0.1,0l0.1,0c0,0,0,0,0.1,0l0,0c0,0,0,0,0,0
						c0.1,0,0.1,0.1,0.2,0c0,0,0.1,0,0.1,0l0.1,0c0,0,0,0,0.1,0l0,0c0,0,0,0.1,0.1,0.1c0.1,0,0.1,0,0.1,0.1c0.1,0,0.1,0.1,0.1,0.1
						l0,0c0,0,0,0,0,0l0.1,0.1c0.1,0.1,0.1,0,0.2,0.1c0,0,0,0.1,0.1,0.1l0,0c0,0,0.1,0,0.1,0c0.1,0,0.1-0.1,0.2-0.2
						c0.1-0.1,0.1-0.1,0.2-0.2c0.1-0.1,0-0.1,0-0.1c0,0,0,0,0,0c0,0,0,0-0.1-0.1s-0.1,0-0.1-0.1c0-0.1-0.1-0.1-0.2-0.2
						c0,0,0,0-0.1-0.1s-0.1,0-0.1,0l0,0l0,0c0-0.1-0.1-0.1-0.1-0.1c0,0-0.1-0.1-0.1-0.1c-0.1,0-0.2-0.1-0.2-0.1c0,0,0,0-0.1,0
						c0,0-0.1-0.1-0.1-0.1s0,0-0.1,0c0,0,0,0-0.1,0c0,0-0.1-0.1-0.1-0.1c-0.1,0-0.2-0.1-0.4-0.1c0,0,0,0-0.1,0c0,0,0,0-0.1,0
						c0,0,0,0-0.1,0c0,0-0.1,0-0.1,0l-0.1,0l0,0c0,0-0.1,0-0.1,0c0,0-0.1,0-0.1,0c-0.1,0-0.2,0-0.3,0c0,0,0,0-0.1,0c0,0-0.1,0-0.1,0
						c0,0,0,0-0.1,0c0,0,0,0,0,0c0,0-0.1,0-0.1,0c-0.1,0-0.2,0.1-0.4,0c0,0,0,0-0.1,0l0,0c0,0,0,0-0.1,0c0,0-0.1,0-0.1,0l-0.1,0
						c0,0,0,0-0.1,0.1c0,0,0,0,0,0c0,0,0,0.1,0,0.1c0,0.1,0,0.1,0,0.2C150.6,86.2,150.6,86.2,150.6,86.2z"/>
				</g>
			</g>
		</g>
	</g>
</g>
</svg>
