<?xml version="1.0" encoding="utf-8"?>
<!-- Generator: Adobe Illustrator 25.4.1, SVG Export Plug-In . SVG Version: 6.00 Build 0)  -->
<svg version="1.1" id="Layer_1" xmlns="http://www.w3.org/2000/svg" xmlns:xlink="http://www.w3.org/1999/xlink" x="0px" y="0px"
	 viewBox="0 0 369.47 634.65" style="enable-background:new 0 0 369.47 634.65;" xml:space="preserve">
<style type="text/css">
	.st0{fill:#2A5405;}
	.st1{fill:#404859;}
	.st2{fill:#434A59;}
	.st3{fill:#40840B;}
	.st4{fill:#F2CDAC;}
	.st5{fill:#C66C67;}
	.st6{fill:#FFFFFF;}
	.st7{fill:#2A2E35;}
	.st8{fill:#FF5F4A;}
	.st9{fill:#EAEAEA;}
	.st10{fill:#A64F3C;}
	.st11{fill:#95B7BF;}
	.st12{fill:#FF867A;}
	.st13{fill:#1A1B1D;}
</style>
<g>
	<g>
		<path class="st0" d="M112.74,124.43c0,0-66.17,68.94-66.21,91.43c-0.03,16.29,18.56,20.8,29.55,15.25
			c17.53-8.85,42.41-59.27,46.38-73.41C126.42,143.56,131.29,122.41,112.74,124.43z"/>
	</g>
	<g>
		<path class="st0" d="M93.6,124.88c0,0-2.46,52.8-5.66,74.4c-3.19,21.6-20.96,30.19-35.02,26.34c-14.05-3.86-2.86-44.91,3.38-65.52
			c5.74-18.94,12.29-37.93,16.95-39.05C77.92,119.93,93.6,124.88,93.6,124.88z"/>
	</g>
	<g>
		<g>
			<path d="M160.34,75.47c0,0-4.19,0.14-6.16-1.92c-1.97-2.06-3.96-0.88-4.97,0.56c-1.01,1.44,0.76,3.96,0.76,3.96
				s-1.8-1.32-3.04,0.55c-1.24,1.87,2.88,8.77,6.15,11.31c3.26,2.54,8.81,8.29,10.16,9.44c1.35,1.15,2.91-0.14,3.33-1.55
				c0.42-1.41,5.37-6.5,5.32-10.72C171.84,82.87,170,74.49,160.34,75.47z"/>
		</g>
	</g>
	<g>
		<g>
			<g>
				<path class="st1" d="M230.01,624.71c3.98-3.78,0.82-14.92,0.8-15.31c-0.08-1.68,7.78-3.89,10.23-0.14
					c4.83,7.4,1.14-1.47,3.71,0.95c4.28,4.04,9.17,20.42,6.78,22.26c-4.57,3.51-39.02,2.47-39.82-0.93
					C211.22,629.5,224.91,629.55,230.01,624.71z"/>
			</g>
		</g>
	</g>
	<g>
		<g>
			<g>
				<path class="st1" d="M106.02,623.91c4.79-3.73,5.34-14.16,5.4-14.54c0.29-1.66,8.58-3.85,10.16-0.14
					c3.13,7.3,1.46-1.45,3.46,0.94c3.34,3.98,4.53,20.15,1.75,21.96c-5.31,3.47-39.22,2.46-39.25-0.9
					C87.53,629.22,99.89,628.69,106.02,623.91z"/>
			</g>
		</g>
	</g>
	<g>
		<g>
			<g>
				<path class="st2" d="M90.11,265.07l104.56,19.89l57.49,328.28c-10.52,6.92-20.94,5.3-30.95,2.65l-80.56-265.44
					c0,0,2.7,47.97,0,106.92c-3.64,79.52,0.06,152.72-2.69,152.72c0,0-6.16,3.51-20.61,3.51c-10.66,0-16.87-3.91-16.87-3.91
					C85.01,352.67,90.11,265.07,90.11,265.07z"/>
			</g>
		</g>
	</g>
	<g>
		<g>
			<g>
				<path class="st3" d="M200.08,292.87c0.53-14.86,2.03-44.71,1.36-58.67c-1.85-38.8,12.61-59.36,11.97-71.52
					c-1.21-23.09-17.3-45.86-74.6-47.12c-30.44-0.67-33.99,20.68-37.06,37.9c-1.81,10.14-15.5,104.36-13.89,127.83
					c0.46,6.72,15.02,12.78,34.67,15.82c2.41,0.37,13.88,0.4,15.56,0.6C166.66,301.05,200.03,294.11,200.08,292.87z"/>
			</g>
		</g>
	</g>
	<g>
		<g>
			<g>
				<path class="st4" d="M150.65,120.74c3.89,3.9,16.79,1.02,17.07-1.69l-3.73-23.51l-7.73,4.02l-1.91,4.45l-2.24,5.2l-2.96,8.14
					C147.64,120.04,149.51,119.6,150.65,120.74z"/>
			</g>
		</g>
	</g>
	<g>
		<g>
			<g>
				<path class="st5" d="M152.09,109.21c7.56-0.29,9.85-6.83,9.85-6.83l-7.61,1.62L152.09,109.21z"/>
			</g>
		</g>
	</g>
	<g>
		<g>
			<g>
				<path class="st4" d="M164.4,89.8l0.45,7.1c-0.06,3.75-3.03,7.04-7.01,7.52c-2.97,0.36-4.52,0.52-7.99-0.85
					c-2.89-1.13-3.68-4.39-2.67-8.3c1.31-5.07,3.96-9.37,5.51-11.59c0.88-1.26,1.97-2.12,3.13-2.6c0.44-0.18,0.93-0.18,1.38-0.04
					c0.39,0.12,0.79,0.26,1.18,0.41C161.85,82.79,164.16,86.1,164.4,89.8z"/>
			</g>
		</g>
	</g>
	<g>
		<g>
			<g>
				<path class="st6" d="M155.11,121.98c0,0-4.06-6.31-4.07-9.86c-4.05,0.83-5.37,14.7-5.37,14.7l9.25-2.75l5.57,5.9
					c0,0,10.34-4.66,10.82-7.45c0.49-2.79-3.49-10.62-4.5-9.19C163.6,117.87,155.11,121.98,155.11,121.98z"/>
			</g>
		</g>
	</g>
	<g>
		<path class="st4" d="M89.88,115.55c0,0-2.08,7.51-2.15,11.48c-0.08,3.97-10.33,1.74-11.32-1.07c-0.99-2.81,2.24-6.12,3.27-9.84
			C80.7,112.4,89.9,112.15,89.88,115.55z"/>
	</g>
	<g>
		<g>
			<g>
				<path class="st4" d="M164.4,92.76c0.42-0.56,0.75-1.18,1.05-1.82c0.56-1.21,1.67-2.89,3.06-1.17c2.03,2.49-0.65,8.41-3.87,7.52
					C162.24,96.63,163.34,94.18,164.4,92.76z"/>
			</g>
		</g>
	</g>
	<g>
		<g>
			<path class="st7" d="M140.65,351.15c0.04,0,0.08,0,0.11-0.01c0.37-0.06,0.63-0.42,0.56-0.79c-0.24-1.42-5.89-34.98-12.89-44.61
				c-0.22-0.31-0.65-0.37-0.96-0.15c-0.31,0.22-0.37,0.65-0.15,0.96c6.81,9.38,12.59,43.69,12.65,44.03
				C140.03,350.91,140.32,351.15,140.65,351.15z"/>
		</g>
	</g>
	<g>
		<g>
			<path class="st7" d="M133.35,605.68c0.02,0,0.05,0,0.07,0c0.38-0.04,0.65-0.38,0.61-0.75c-0.02-0.15-1.55-14.8-2.2-21.32
				c-0.37-3.75,0.58-13.53,1.51-22.98c0.68-6.97,1.39-14.19,1.58-19.12c0.43-11.24,0.45-62.04,0.03-73.46
				c-0.23-6.34,1.19-31.02,2.44-52.79c0.91-15.87,1.7-29.57,1.7-33.56c0-9.39-3.98-40.1-4.15-41.41c-0.05-0.38-0.39-0.64-0.77-0.59
				c-0.38,0.05-0.64,0.39-0.59,0.77c0.04,0.32,4.14,31.93,4.14,41.23c0,3.95-0.79,17.63-1.7,33.48c-1.26,21.8-2.68,46.51-2.44,52.92
				c0.42,11.4,0.4,62.13-0.03,73.35c-0.19,4.89-0.89,12.08-1.57,19.04c-0.98,9.96-1.9,19.37-1.51,23.25
				c0.65,6.52,2.18,21.17,2.2,21.32C132.71,605.42,133.01,605.68,133.35,605.68z"/>
		</g>
	</g>
	<g>
		<g>
			<path class="st5" d="M150.47,102.1c4.47,1.19,11.27,0.75,11.27,0.75c-1.1,0.83-2.44,1.4-3.92,1.58
				c-2.97,0.36-4.52,0.52-7.99-0.85c-1.27-0.5-2.14-1.41-2.62-2.61C147.99,101.33,149.05,101.72,150.47,102.1z"/>
		</g>
	</g>
	<g>
		<g>
			<g>
				<g>
					<g>
						<g>
							<path class="st8" d="M87.01,102.85c0,0-5.81-2.18-5.76-3.47c0.04-1.2,1.97-1.71,3.46-3.43c1.38-1.6,2.09-3.87,2.09-3.87
								l7.83,2.22L87.01,102.85z"/>
						</g>
					</g>
					<g>
						<g>
							<path class="st9" d="M95.15,92.34c0,0-16.41,18.75-23.11,19.19c-6.7,0.44,4.49,9.63,10.27,7.42
								c5.78-2.21,22.39-19.71,22.39-19.71L95.15,92.34z"/>
						</g>
					</g>
					<g>
						<g>
							<path class="st8" d="M116.16,81.89c-3.09-2.37-7.27-5.72-11.74-9.69L88.91,93.66c4.88,1.92,9.75,4.19,14.41,6.87
								c2.92,1.68,6.64,0.86,8.61-1.87l5.55-7.68C119.57,88.09,118.99,84.06,116.16,81.89z"/>
						</g>
					</g>
					<g>
						<g>
							<path class="st9" d="M78.84,33.11L42.09,83.62c0,0,22.97,0.65,46.82,10.04l15.51-21.46C91.84,61.03,83.8,44.11,78.84,33.11z"
								/>
						</g>
					</g>
					<g>
						<g>
							<path class="st8" d="M78.84,33.11c1.75,3.87,3.87,8.47,6.44,13.3c-0.8,3.89-3.13,10.84-9.75,21.48
								c-5.75,9.25-12.78,14.83-18.31,17.33c-9.1-1.43-15.13-1.6-15.13-1.6L78.84,33.11z"/>
						</g>
					</g>
					<g>
						<g>
							<path class="st10" d="M65.63,61.99C55.41,76.13,44.45,85.66,41.15,83.27c-3.3-2.39,2.3-15.78,12.52-29.93
								C63.89,39.2,74.85,29.67,78.15,32.06C81.45,34.45,75.85,47.84,65.63,61.99z"/>
						</g>
					</g>
					<g>
						<g>
							<path class="st9" d="M41.9,43.53l0.83-1.15c2.08-2.87,6-3.7,9.06-1.91l20.22,11.82c-1.84,3.11-3.98,6.39-6.38,9.71
								c-1.78,2.47-3.59,4.79-5.37,6.94L42.78,52.59C40.25,50.22,39.87,46.34,41.9,43.53z"/>
						</g>
					</g>
					<g>
						<g>
							<path class="st11" d="M65.63,61.99c2.4-3.32,4.55-6.6,6.38-9.71l-2.52-1.47L56.13,65.06l4.13,3.86
								C62.04,66.78,63.85,64.45,65.63,61.99z"/>
						</g>
					</g>
					<g>
						<g>
							<path class="st6" d="M40.97,83.85c2.4,1.45,6.85-1.67,10.2-4.59c4.66-4.05,9.96-10.06,14.92-16.94
								c4.97-6.87,9.01-13.79,11.4-19.49c1.75-4.19,3.35-9.55,1-11.25c-1.53-1.1-4.15-0.3-7.79,2.39
								c-3.33,2.47-7.13,6.17-11.21,10.98l1.02,0.59c3.96-4.67,7.66-8.26,10.88-10.64c3.05-2.26,5.39-3.13,6.42-2.39
								c0.78,0.56,0.77,2.02,0.64,3.15c-0.21,1.75-0.89,4.01-2.02,6.71C74.08,48,70.07,54.84,65.16,61.65
								C60.24,68.45,55,74.4,50.41,78.39c-2.21,1.92-4.14,3.27-5.73,4.03c-1.03,0.49-2.42,0.95-3.19,0.38
								c-0.66-0.47-0.74-1.61-0.7-2.48c0.07-1.37,0.49-3.14,1.26-5.27c1.56-4.33,4.4-9.8,8.12-15.56l-0.87-0.81
								c-3.76,5.83-6.76,11.56-8.34,15.97c-1.74,4.84-1.79,7.89-0.15,9.08C40.86,83.78,40.92,83.82,40.97,83.85z"/>
						</g>
					</g>
					<g>
						<g>
							<g>
								<path class="st10" d="M105.07,80.8l7.9,5.11c0.1,0.06,0.23,0.04,0.29-0.06l0.56-0.87c0.06-0.1,0.04-0.23-0.06-0.29
									l-7.9-5.11c-0.1-0.06-0.23-0.04-0.29,0.06l-0.56,0.87C104.94,80.61,104.97,80.74,105.07,80.8z"/>
							</g>
						</g>
						<g>
							<g>
								<path class="st10" d="M103.74,82.86l7.9,5.11c0.1,0.06,0.23,0.04,0.29-0.06l0.56-0.87c0.06-0.1,0.04-0.23-0.06-0.29
									l-7.9-5.11c-0.1-0.06-0.23-0.04-0.29,0.06l-0.56,0.87C103.61,82.67,103.64,82.8,103.74,82.86z"/>
							</g>
						</g>
						<g>
							<g>
								<path class="st10" d="M102.4,84.93l7.9,5.11c0.1,0.06,0.23,0.04,0.29-0.06l0.56-0.87c0.06-0.1,0.04-0.23-0.06-0.29
									l-7.9-5.11c-0.1-0.06-0.23-0.04-0.29,0.06l-0.56,0.87C102.27,84.73,102.3,84.86,102.4,84.93z"/>
							</g>
						</g>
					</g>
				</g>
				<g>
					<g>
						<path class="st6" d="M101.43,72.95c0.25,0.08,0.54,0,0.71-0.21c0.23-0.28,0.19-0.7-0.1-0.93c-0.08-0.06-7.93-6.49-12.03-13.6
							c-0.18-0.32-0.59-0.42-0.9-0.24c-0.32,0.18-0.42,0.59-0.24,0.9c4.22,7.32,12.01,13.7,12.34,13.97
							C101.28,72.89,101.35,72.92,101.43,72.95z"/>
					</g>
				</g>
				<g>
					<g>
						<path class="st6" d="M87.43,56.32c0.17,0.05,0.36,0.04,0.53-0.06c0.32-0.18,0.43-0.58,0.25-0.9l-1.8-3.14
							c-0.18-0.32-0.58-0.43-0.9-0.25c-0.32,0.18-0.43,0.58-0.25,0.9l1.8,3.14C87.15,56.16,87.28,56.27,87.43,56.32z"/>
					</g>
				</g>
			</g>
			<g>
				<polygon points="39.24,20.47 37.95,0 30.24,2.64 				"/>
			</g>
			<g>
				<polygon points="30.67,27.65 14.04,7.47 8.05,15.97 				"/>
			</g>
			<g>
				<polygon points="26.02,43.69 0,40.97 1.69,51.23 				"/>
			</g>
		</g>
	</g>
	<g>
		<path class="st4" d="M84.71,118.93c-1.07-0.99,0.88-2.38,3.23-5.43c2.35-3.06,3.8-4.18,5.08-4.86c1.84-0.98,3.4-1.1,1.61,1.12
			c-1.56,1.93-2.55,5.31-3.75,7.61C89.14,120.71,85.62,119.77,84.71,118.93z"/>
	</g>
	<g>
		<path class="st4" d="M81.21,102.37c-1.26,0.46-4.34,4.4-5.85,6.42c-0.55,0.73-0.37,1.76,0.39,2.27c0.86,0.57,2.08,1.07,3.42,0.62
			c1.26-0.42,2.63-2.28,2.63-2.28s0.35,0.18,1.57-1.25c0.85-1,0.03-2.01-0.53-2.52c0.5,0.32,1.38,0.7,2.44,0.27
			C86.94,105.23,82.92,101.75,81.21,102.37z"/>
	</g>
	<g>
		<path class="st3" d="M208.55,144.27l50.7,80.05l89.13,43.25c0,0,0.5,20.19-5.95,23.98c0,0-84.55-13.74-102.18-26.48
			c-32.24-23.3-52.74-71.25-55.78-96.71C182.61,152.81,208.55,144.27,208.55,144.27z"/>
	</g>
	<g>
		<path class="st12" d="M345.99,272.62c1.46-0.68,6.13,0.17,8.48,0.96c4.49,1.52,7.53,0.76,9.31-0.1s1.3,2.68-1.46,3.62
			c-2.75,0.94-7.85,0.53-5.82,2.08c2.03,1.54,15.54-3.79,12.52,1.12c-9.03,14.68-21.91,9.27-27.52,3.31
			C341.52,283.61,335.5,277.51,345.99,272.62z"/>
	</g>
	<g>
		<path class="st6" d="M273.32,238.72c-0.25,0-0.51-0.08-0.73-0.23c-0.44-0.32-10.82-7.85-15.03-14.51
			c-0.37-0.58-0.19-1.34,0.38-1.71c0.58-0.37,1.34-0.19,1.71,0.38c3.96,6.25,14.28,13.75,14.39,13.82c0.56,0.4,0.68,1.18,0.28,1.73
			C274.09,238.54,273.71,238.72,273.32,238.72z"/>
	</g>
	<g>
		<path class="st6" d="M201.44,218.81c-0.45,0-0.88-0.24-1.1-0.67c-13.21-25.46-16.99-52.98-17.02-53.25
			c-0.09-0.68,0.39-1.3,1.07-1.39c0.68-0.09,1.3,0.39,1.39,1.07c0.04,0.27,3.76,27.37,16.77,52.44c0.32,0.61,0.08,1.36-0.53,1.67
			C201.83,218.77,201.63,218.81,201.44,218.81z"/>
	</g>
	<g>
		<path class="st6" d="M76.22,225.16c-0.32,0-0.61-0.21-0.71-0.52c-0.12-0.39,0.1-0.81,0.49-0.93c0.03-0.01,4.6-1.75,9.63-15.58
			c5.19-14.27,6.03-60.94,6.04-61.41c0.01-0.41,0.35-0.72,0.76-0.73c0.41,0.01,0.74,0.35,0.73,0.76c-0.03,1.93-0.85,47.4-6.13,61.9
			c-5.36,14.73-10.38,16.43-10.59,16.49C76.36,225.15,76.29,225.16,76.22,225.16z"/>
	</g>
	<g id="XMLID_1605_">
		<g id="XMLID_1625_">
			<g id="XMLID_1626_">
				<path id="XMLID_1627_" class="st13" d="M155.46,96.39c-0.02-0.14-0.04-0.18-0.12-0.24c-0.03-0.01-0.09-0.03-0.12-0.04
					l-0.16-0.02c-0.06-0.02-0.11-0.07-0.21-0.07c-0.03-0.01-0.1,0-0.13-0.01c-0.15-0.05-0.27-0.09-0.39-0.14l-0.17-0.09
					c-0.06-0.02-0.12-0.04-0.18-0.06c-0.03-0.01-0.04-0.08-0.1-0.1c-0.12-0.04-0.18-0.16-0.27-0.19c-0.08-0.06-0.12-0.14-0.16-0.22
					c-0.02-0.04-0.04-0.08-0.06-0.12c-0.02-0.04-0.05-0.05-0.04-0.08l-0.01-0.07c0-0.1,0.03-0.19,0.02-0.26
					c0-0.1,0.04-0.22,0.04-0.32c0.04-0.12,0.07-0.21,0.13-0.36l0.01-0.03c0.01-0.03,0.01-0.03,0.01-0.03l0,0
					c0.01-0.03,0.03-0.09,0.07-0.11l0.14-0.22l0.03-0.09l0.08-0.14l0.09-0.17c0.02-0.06,0.04-0.12,0.06-0.18
					c0.01-0.03,0.05-0.05,0.06-0.08c0.01-0.03,0.05-0.05,0.06-0.08c0.05-0.15,0.18-0.24,0.21-0.4c0.07-0.11,0.11-0.23,0.17-0.31
					l0.09-0.17c0.02-0.06,0.03-0.09,0.05-0.15l0.06-0.08c0.07-0.11,0.13-0.19,0.2-0.3c0.07-0.11,0.11-0.23,0.2-0.37
					c0.08-0.14,0.15-0.25,0.21-0.4c0.01-0.03,0.05-0.05,0.06-0.08c0.01-0.03,0.06-0.08,0.07-0.11l0.15-0.25
					c0.08-0.14,0.11-0.33,0.24-0.49c0.06-0.08,0.12-0.16,0.15-0.25c0.01-0.03,0.02-0.06,0.03-0.09s-0.03-0.11-0.02-0.14
					c-0.04-0.08-0.08-0.16-0.2-0.2c-0.09-0.03-0.18-0.06-0.25-0.05c-0.1,0-0.15,0.05-0.17,0.11c-0.01,0.03-0.05,0.05-0.06,0.08
					c-0.05,0.05-0.07,0.11-0.09,0.17s-0.04,0.12-0.09,0.17c-0.11,0.13-0.17,0.31-0.27,0.48c-0.05,0.05-0.07,0.11-0.12,0.16
					c-0.02,0.06-0.08,0.14-0.1,0.2l-0.01,0.03l-0.01,0.03c-0.08,0.04-0.11,0.13-0.14,0.22c-0.06,0.08-0.09,0.17-0.15,0.25
					c-0.09,0.17-0.19,0.34-0.29,0.54c-0.01,0.03-0.03,0.09-0.07,0.11c-0.06,0.08-0.12,0.16-0.16,0.28
					c-0.02,0.06-0.06,0.08-0.08,0.14s-0.03,0.09-0.04,0.12c-0.05,0.05-0.08,0.14-0.13,0.19c-0.15,0.25-0.29,0.54-0.44,0.79
					c-0.02,0.06-0.06,0.08-0.08,0.14c-0.01,0.03-0.03,0.09-0.04,0.12c-0.02,0.06-0.06,0.08-0.08,0.14
					c-0.05,0.05-0.07,0.11-0.09,0.17l-0.09,0.17c-0.01,0.03-0.02,0.06-0.02,0.06c-0.02,0.06-0.04,0.12-0.06,0.18
					c-0.04,0.12-0.07,0.21-0.08,0.34c-0.05,0.25-0.08,0.51,0,0.77c0.01,0.07,0.03,0.11,0.05,0.15c0.02,0.14,0.08,0.26,0.14,0.38
					c0.05,0.05,0.06,0.12,0.11,0.17c0.05,0.05,0.08,0.06,0.13,0.11c0.07,0.09,0.12,0.14,0.2,0.2c0.29,0.23,0.62,0.35,0.91,0.48
					c0.06,0.02,0.09,0.03,0.15,0.05c0.03,0.01,0.1,0,0.13,0.01c0.06,0.02,0.09,0.03,0.15,0.05c0.06,0.02,0.12,0.04,0.18,0.06
					l0.19,0.03c0.06,0.02,0.1,0,0.17-0.01c0.04-0.02,0.09,0.03,0.13,0.01c0.04-0.02,0.05-0.05,0.09-0.07
					c0.05-0.05,0.08-0.14,0.11-0.23C155.49,96.5,155.47,96.46,155.46,96.39z"/>
			</g>
		</g>
		<g>
			<g id="XMLID_1622_">
				<g id="XMLID_1623_">
					<path id="XMLID_1624_" class="st13" d="M168.13,95.69c0.09-0.04,0.09-0.06,0.12-0.13c0.01-0.02-0.01-0.05-0.01-0.05l-0.03-0.06
						c-0.01-0.03,0-0.07-0.04-0.09c-0.02-0.01-0.04-0.04-0.03-0.06c-0.03-0.06-0.06-0.11-0.1-0.18l-0.05-0.06
						c-0.01-0.03-0.06-0.02-0.08-0.05c-0.02-0.01-0.01-0.05-0.03-0.06c-0.06-0.02-0.08-0.1-0.16-0.1c-0.06-0.04-0.1-0.06-0.12-0.07
						l-0.06-0.04c-0.02-0.01-0.04-0.01-0.06-0.02l-0.04-0.01c-0.04-0.01-0.07-0.07-0.11-0.09c-0.06-0.02-0.11-0.04-0.17-0.06
						c-0.06-0.02-0.11-0.04-0.18-0.04l-0.02-0.01l-0.02-0.01l0,0c-0.02-0.01-0.04-0.01-0.06-0.02l-0.11-0.02
						c-0.02-0.01-0.02-0.01-0.05,0.01c-0.02-0.01-0.04-0.01-0.07,0l-0.09-0.01c-0.02-0.01-0.05,0.01-0.08,0.02
						c-0.02-0.01-0.02-0.01-0.05,0.01c-0.02-0.01-0.02-0.01-0.04-0.01c-0.06,0.03-0.12,0.01-0.19,0.05
						c-0.06,0.03-0.11,0.03-0.14,0.05l-0.08,0.02c-0.03,0.01-0.04,0.04-0.06,0.03l-0.03,0.01c-0.05,0.01-0.1,0.01-0.14,0.05
						c-0.06,0.03-0.09,0.06-0.15,0.09c-0.06,0.03-0.11,0.06-0.14,0.12c-0.01,0.02-0.03,0.01-0.03,0.01
						c-0.03,0.01-0.03,0.01-0.04,0.04l-0.09,0.06c-0.06,0.05-0.07,0.14-0.13,0.17c-0.04,0.04-0.06,0.05-0.08,0.09
						c-0.01,0.02-0.01,0.02-0.01,0.04c0.01,0.03,0.03,0.06,0.04,0.09c0.03,0.06,0.08,0.1,0.15,0.12s0.11,0.04,0.17,0.06
						c0.04,0.01,0.09,0.01,0.1-0.01l0.03-0.01c0.01-0.02,0.04-0.04,0.04-0.04c0.01-0.02,0.01-0.04,0.04-0.04
						c0.06-0.03,0.07-0.07,0.12-0.13c0.03-0.01,0.05-0.01,0.06-0.03c0.01-0.02,0.04-0.04,0.04-0.06l0,0l0,0
						c0.04,0.01,0.05-0.01,0.08-0.02c0.03-0.01,0.06-0.03,0.09-0.04c0.06-0.03,0.11-0.06,0.15-0.09l0.03-0.01
						c0.03-0.01,0.05-0.01,0.08-0.02c0.02,0.01,0.03-0.01,0.05-0.01c0.01-0.02,0.01-0.02,0.04-0.04c0.02,0.01,0.04,0.01,0.07,0
						c0.08-0.02,0.18-0.03,0.26,0c0.02,0.01,0.02,0.01,0.05-0.01l0.03-0.01c0.02,0.01,0.02,0.01,0.04,0.01s0.02,0.01,0.04,0.01
						l0.04,0.01l0.02,0.01c0.02,0.01,0.02,0.01,0.04,0.01s0.06,0.02,0.08,0.03c0.06,0.02,0.08,0.03,0.17,0.06
						c0.02,0.01,0.02,0.01,0.04,0.01c0.01,0.03,0.06,0.04,0.08,0.05c0.02,0.01,0.01,0.03,0.04,0.04c0.02,0.01,0.03-0.01,0.04,0.01
						s0.04,0.04,0.05,0.06c0.08,0.05,0.13,0.12,0.18,0.18c0,0,0.01,0.03,0.04,0.04s0.02,0.01,0.04,0.01s0.01,0.03,0.01,0.05
						c-0.01,0.02,0.01,0.03,0.03,0.06l0.03,0.06c0.01,0.03,0.02,0.01,0.04,0.04c0.02,0.01,0.01,0.03,0.04,0.04s0.05-0.01,0.07,0
						c0.05-0.01,0.1-0.01,0.16-0.04C168.07,95.72,168.1,95.71,168.13,95.69z"/>
				</g>
			</g>
			<g id="XMLID_1619_">
				<g id="XMLID_1620_">
					<path id="XMLID_1621_" class="st13" d="M167.16,96.9c0.09,0.01,0.12-0.01,0.17-0.01c0.03-0.01,0.01-0.02,0.01-0.04l0-0.07
						c0.01-0.02,0.04-0.06,0.03-0.09c0.01-0.02-0.01-0.03-0.01-0.05c-0.01-0.05,0.02-0.11,0.01-0.16l0-0.07
						c-0.01-0.03-0.03-0.06-0.02-0.08c0.01-0.02,0.01-0.04-0.01-0.05c-0.03-0.06-0.01-0.12-0.05-0.14
						c-0.03-0.06-0.04-0.09-0.06-0.11l-0.03-0.06c-0.01-0.03-0.01-0.03-0.04-0.04l-0.01-0.03c-0.01-0.03-0.02-0.08-0.06-0.11
						c-0.04-0.04-0.04-0.09-0.08-0.12c-0.04-0.04-0.06-0.09-0.11-0.11l-0.02-0.01l-0.01-0.03l0,0c-0.01-0.03-0.01-0.03-0.04-0.04
						l-0.07-0.07l-0.02-0.01c-0.02-0.01-0.04-0.04-0.04-0.04l-0.06-0.04c-0.02-0.01-0.04-0.01-0.06-0.02s-0.02-0.01-0.01-0.03
						l-0.01-0.03c-0.04-0.01-0.1-0.06-0.15-0.05c-0.06-0.02-0.08-0.03-0.13-0.04l-0.06-0.02c-0.02-0.01-0.03,0.01-0.05,0.01
						l-0.04-0.01c-0.04-0.01-0.08-0.05-0.13-0.04s-0.09-0.01-0.14,0c-0.05,0.01-0.11-0.02-0.15,0.02c0,0-0.02-0.01-0.04-0.01
						s-0.03,0.01-0.05,0.01l-0.1,0.01c-0.07,0-0.12,0.08-0.19,0.05c-0.04-0.01-0.07,0-0.11,0.03c-0.01,0.02-0.03,0.01-0.04,0.04
						c-0.01,0.02-0.01,0.04,0,0.07c0.01,0.05,0.03,0.13,0.05,0.19c0.03,0.06,0.06,0.09,0.09,0.15c0.04,0.04,0.05,0.06,0.08,0.05
						l0.03-0.01c0.02,0.01,0.03-0.01,0.05-0.01s0.03-0.01,0.03-0.01c0.04,0.01,0.08-0.02,0.13-0.03c0.02,0.01,0.04,0.01,0.04,0.01
						c0.02,0.01,0.03-0.01,0.06-0.03l0,0l0,0c0.01,0.03,0.04,0.01,0.06,0.02s0.04,0.01,0.07,0c0.05-0.01,0.09,0.01,0.14,0l0.02,0.01
						c0.02,0.01,0.04,0.01,0.06,0.02s0.02,0.01,0.04,0.01l0.03-0.01c0.02,0.01,0.04,0.04,0.04,0.04c0.06,0.02,0.13,0.04,0.18,0.11
						c0,0,0.02,0.01,0.01,0.03l0.02,0.01l0.01,0.03c-0.01,0.02,0.01,0.03,0.01,0.03l0.04,0.04l0.02,0.01l0.01,0.03
						c0.01,0.03,0.04,0.04,0.03,0.06c0.04,0.04,0.04,0.09,0.08,0.12l0.01,0.03c0.01,0.03,0.01,0.05,0.02,0.08
						c0,0-0.01,0.02,0.01,0.03c0.02,0.01,0.02,0.01,0.01,0.03s0.01,0.05,0.01,0.05c0.02,0.08,0.05,0.14,0.03,0.2
						c-0.01,0.02-0.01,0.02,0.01,0.03l0.01,0.03c0,0-0.01,0.02-0.01,0.04c-0.01,0.02-0.01,0.02-0.01,0.04l-0.01,0.04
						c-0.01,0.02,0.01,0.03,0.01,0.03s-0.01,0.02,0.01,0.03s0.04,0.01,0.06,0.02c0.04,0.01,0.11,0.04,0.15,0.05
						C167.09,96.9,167.12,96.89,167.16,96.9z"/>
				</g>
			</g>
		</g>
		<g id="XMLID_1616_">
			<g id="XMLID_1617_">
				<path id="XMLID_1618_" class="st13" d="M155.93,98.5c-0.11-0.07-0.14-0.08-0.2-0.1c-0.03-0.01-0.04,0.02-0.04,0.02l-0.05,0.05
					c-0.01,0.03-0.07,0.01-0.08,0.04c-0.01,0.03-0.01,0.03-0.05,0.05c-0.04,0.02-0.12,0.06-0.17,0.11l-0.08,0.04
					c-0.04,0.02-0.02,0.06-0.06,0.08c-0.01,0.03-0.06-0.02-0.07,0.01c-0.05,0.05-0.11,0.03-0.14,0.12
					c-0.04,0.02-0.09,0.07-0.13,0.09l-0.08,0.04c-0.03-0.01-0.04,0.02-0.05,0.05l-0.04,0.02c-0.04,0.02-0.1,0-0.14,0.02
					c-0.04,0.02-0.11,0.03-0.15,0.05c-0.07,0.01-0.11,0.03-0.18,0.04l0,0l-0.03-0.01l0,0c-0.03-0.01-0.03-0.01-0.07,0.01l-0.1,0
					l-0.04,0.02c-0.03-0.01-0.03-0.01-0.06-0.02l-0.1,0c-0.03-0.01-0.04,0.02-0.07,0.01c-0.03-0.01-0.03-0.01-0.03-0.01l-0.03-0.01
					c-0.07,0.01-0.12-0.04-0.17,0.01c-0.07,0.01-0.1,0-0.16-0.02l-0.06-0.02c-0.03-0.01-0.04,0.02-0.07,0.01l-0.03-0.01
					c-0.06-0.02-0.08-0.06-0.14-0.08c-0.06-0.02-0.09-0.03-0.15-0.05c-0.06-0.02-0.11-0.07-0.17-0.09
					c-0.03-0.01-0.03-0.01-0.02-0.04c-0.03-0.01-0.03-0.01-0.05-0.05l-0.08-0.06c-0.05-0.05-0.15-0.05-0.2-0.1
					c-0.02-0.04-0.04-0.08-0.07-0.09c0,0-0.03-0.01-0.06-0.02c-0.03-0.01-0.07,0.01-0.11,0.03c-0.07,0.01-0.13,0.09-0.22,0.16
					c-0.06,0.08-0.11,0.13-0.14,0.22c-0.02,0.06-0.04,0.12-0.01,0.13c0,0,0.03,0.01,0.05,0.05c0.02,0.04,0.05,0.05,0.07,0.09
					c0.02,0.04,0.06,0.02,0.08,0.06c0.07,0.09,0.16,0.12,0.25,0.15c0.03,0.01,0.05,0.05,0.08,0.06c0.03,0.01,0.09,0.03,0.12,0.04
					l0,0l0,0c0.01,0.07,0.08,0.06,0.1,0.1c0.06,0.02,0.08,0.06,0.14,0.08c0.12,0.04,0.21,0.07,0.33,0.11
					c0.03,0.01,0.03,0.01,0.06,0.02c0.06,0.02,0.12,0.04,0.15,0.05c0.03,0.01,0.06,0.02,0.09,0.03c0.03,0.01,0.04-0.02,0.07-0.01
					c0.03,0.01,0.09,0.03,0.12,0.04c0.16,0.02,0.33,0.01,0.49,0.04c0.03,0.01,0.06,0.02,0.07-0.01c0.03,0.01,0.04-0.02,0.07-0.01
					c0.03,0.01,0.06,0.02,0.09,0.03c0.03,0.01,0.07-0.01,0.1,0l0.1,0c0,0,0.03,0.01,0.04-0.02c0.03,0.01,0.07-0.01,0.1,0
					c0.07-0.01,0.11-0.03,0.15-0.05c0.11-0.03,0.22-0.06,0.31-0.13c0.01-0.03,0.04-0.02,0.07-0.01c0.07-0.01,0.11-0.03,0.15-0.05
					c0.04-0.02,0.07-0.01,0.08-0.04c0.01-0.03,0.02-0.06,0.05-0.05c0.04-0.02,0.07-0.01,0.11-0.03c0.13-0.09,0.26-0.18,0.39-0.27
					c0.04-0.02,0.04-0.02,0.05-0.05c0.01-0.03,0.01-0.03,0.05-0.05c0.01-0.03,0.04-0.02,0.08-0.04c0.04-0.02,0.05-0.05,0.08-0.04
					l0.06-0.08c0.01-0.03,0.02-0.06,0.03-0.09c0.01-0.03,0.04-0.02,0.02-0.06c0.01-0.03-0.01-0.07-0.04-0.08
					c-0.05-0.05-0.09-0.13-0.14-0.18C156.01,98.56,155.99,98.52,155.93,98.5z"/>
			</g>
		</g>
		<g id="XMLID_1614_">
			<path id="XMLID_1615_" class="st13" d="M159.22,93.61l-0.03-0.01c-0.41-0.18-0.64-0.66-0.46-1.1l0.16-0.35
				c0.18-0.41,0.61-0.69,1.1-0.46c0.41,0.18,0.64,0.66,0.46,1.1l-0.16,0.35C160.08,93.54,159.61,93.74,159.22,93.61z"/>
		</g>
		<g id="XMLID_1612_">
			<path id="XMLID_1613_" class="st13" d="M150.9,90.2l-0.03-0.01c-0.41-0.18-0.64-0.66-0.46-1.1l0.16-0.35
				c0.18-0.41,0.57-0.67,1.1-0.46c0.41,0.18,0.64,0.66,0.46,1.1l-0.16,0.35C151.77,90.13,151.29,90.34,150.9,90.2z"/>
		</g>
		<g id="XMLID_1609_">
			<g id="XMLID_1610_">
				<path id="XMLID_1611_" class="st13" d="M162.44,90.9c0.09-0.07,0.14-0.12,0.16-0.18c0.01-0.03-0.02-0.04-0.01-0.07l-0.04-0.08
					c-0.02-0.04-0.01-0.07-0.03-0.11c-0.03-0.01-0.02-0.04-0.05-0.05c-0.05-0.05-0.06-0.12-0.11-0.17l-0.04-0.08
					c-0.03-0.01-0.06-0.02-0.08-0.06c-0.03-0.01-0.01-0.07-0.04-0.08c-0.06-0.02-0.06-0.12-0.16-0.12
					c-0.05-0.05-0.08-0.06-0.13-0.11l-0.05-0.05c-0.03-0.01-0.03-0.01-0.06-0.02l-0.02-0.04c-0.02-0.04-0.07-0.09-0.09-0.13
					c-0.05-0.05-0.11-0.07-0.14-0.08c-0.06-0.02-0.11-0.07-0.17-0.09l0,0l-0.03-0.01l0,0c-0.03-0.01-0.03-0.01-0.06-0.02l-0.11-0.07
					l-0.03-0.01c-0.03-0.01-0.03-0.01-0.06-0.02l-0.08-0.06c-0.03-0.01-0.06-0.02-0.06-0.02c-0.03-0.01-0.03-0.01-0.03-0.01
					s-0.02-0.04-0.03-0.01c-0.07,0.01-0.11-0.07-0.18-0.06c-0.06-0.02-0.09-0.03-0.15-0.05l-0.09-0.03
					c-0.03-0.01-0.04,0.02-0.07,0.01l-0.03-0.01c-0.06-0.02-0.08-0.06-0.14-0.08c-0.06-0.02-0.12-0.04-0.19-0.03
					c-0.06-0.02-0.12-0.04-0.19-0.03l-0.03-0.01c-0.03-0.01-0.03-0.01-0.06-0.02l-0.13-0.01c-0.06-0.02-0.15,0.05-0.24,0.02
					c-0.06-0.02-0.09-0.03-0.13-0.01c0,0-0.03-0.01-0.04,0.02s-0.02,0.06-0.03,0.09c-0.02,0.06-0.02,0.16-0.02,0.26
					c0,0.1,0.04,0.18,0.05,0.25c0.01,0.07,0.03,0.11,0.06,0.12l0.03,0.01c0.03,0.01,0.03,0.01,0.06,0.02
					c0.03,0.01,0.04-0.02,0.07-0.01c0.06,0.02,0.13,0.01,0.2,0c0.03,0.01,0.06,0.02,0.06,0.02c0.03,0.01,0.07-0.01,0.07-0.01l0,0
					l0,0c0.02,0.04,0.05,0.05,0.09,0.03c0.03,0.01,0.06,0.02,0.09,0.03c0.07-0.01,0.12,0.04,0.22,0.04l0.03,0.01
					c0.03,0.01,0.06,0.02,0.09,0.03c0.03,0.01,0.03,0.01,0.06,0.02c0.03,0.01,0.04-0.02,0.04-0.02c0.03,0.01,0.05,0.05,0.05,0.05
					c0.09,0.03,0.21,0.07,0.29,0.13c0.03,0.01,0.03,0.01,0.06,0.02l0.03,0.01c0.03,0.01,0.02,0.04,0.02,0.04
					c0.03,0.01,0.02,0.04,0.05,0.05l0.06,0.02l0.03,0.01c0.03,0.01,0.03,0.01,0.05,0.05c0.03,0.01,0.05,0.05,0.08,0.06
					c0.05,0.05,0.1,0.1,0.19,0.13c0,0,0.03,0.01,0.02,0.04c0.02,0.04,0.05,0.05,0.07,0.09c0.03,0.01,0.02,0.04,0.05,0.05
					c0.03,0.01,0.03,0.01,0.06,0.02c0.02,0.04,0.02,0.04,0.04,0.08c0.08,0.06,0.15,0.15,0.22,0.24l0.02,0.04l0.03,0.01l0.02,0.04
					c-0.01,0.03,0.02,0.04,0.02,0.04l0.05,0.05c0,0,0.03,0.01,0.06,0.02c0.03,0.01,0.02,0.04,0.05,0.05
					c0.03,0.01,0.07-0.01,0.08-0.04c0.07-0.01,0.15-0.05,0.2-0.1C162.36,90.94,162.4,90.92,162.44,90.9z"/>
			</g>
		</g>
		<g id="XMLID_1606_">
			<g id="XMLID_1607_">
				<path id="XMLID_1608_" class="st13" d="M150.61,86.24c0.06,0.12,0.08,0.16,0.1,0.2c0.03,0.01,0.03,0.01,0.03,0.01l0.07-0.01
					c0.03,0.01,0.06,0.02,0.1,0l0.04-0.02c0.03,0.01,0.13,0.01,0.17-0.01l0.07-0.01c0.03,0.01,0.04-0.02,0.08-0.04
					c0.03,0.01,0.03,0.01,0.06,0.02c0.04-0.02,0.09,0.03,0.14-0.02c0.04-0.02,0.07-0.01,0.14-0.02l0.07-0.01
					c0.03,0.01,0.04-0.02,0.04-0.02l0.03,0.01c0.03,0.01,0.08,0.06,0.12,0.04c0.06,0.02,0.07-0.01,0.13,0.01
					c0.06,0.02,0.09,0.03,0.16,0.02l0,0l0.03,0.01l0,0c0.03,0.01,0.03,0.01,0.06,0.02l0.09,0.03l0.03,0.01
					c0.03,0.01,0.03,0.01,0.06,0.02l0.06,0.02c0.03,0.01,0.04-0.02,0.07-0.01l0.03,0.01c0,0,0.02,0.04,0.03,0.01
					c0.07-0.01,0.08,0.06,0.16,0.02c0.03,0.01,0.09,0.03,0.12,0.04l0.06,0.02c0.03,0.01,0.03,0.01,0.06,0.02l0.03,0.01
					c0.03,0.01,0.04,0.08,0.1,0.1c0.06,0.02,0.06,0.02,0.11,0.07c0.06,0.02,0.08,0.06,0.14,0.08l0.02,0.04c0,0,0.03,0.01,0.02,0.04
					l0.08,0.06c0.05,0.05,0.12,0.04,0.17,0.09c0.02,0.04,0.01,0.07,0.07,0.09l0.03,0.01c0.03,0.01,0.07-0.01,0.08-0.04
					c0.07-0.01,0.13-0.09,0.22-0.16c0.06-0.08,0.11-0.13,0.17-0.21c0.05-0.05,0.04-0.12,0.01-0.13c0,0-0.03-0.01-0.02-0.04
					c-0.02-0.04-0.02-0.04-0.05-0.05c-0.03-0.01-0.06-0.02-0.05-0.05c-0.04-0.08-0.13-0.11-0.18-0.16
					c-0.03-0.01-0.02-0.04-0.05-0.05c-0.03-0.01-0.06-0.02-0.09-0.03l0,0l0,0c-0.01-0.07-0.05-0.05-0.07-0.09
					c-0.03-0.01-0.08-0.06-0.11-0.07c-0.09-0.03-0.17-0.09-0.23-0.11c-0.03-0.01-0.03-0.01-0.06-0.02
					c-0.03-0.01-0.08-0.06-0.11-0.07c-0.03-0.01-0.03-0.01-0.06-0.02c-0.03-0.01-0.04,0.02-0.07,0.01
					c-0.03-0.01-0.05-0.05-0.08-0.06c-0.12-0.04-0.24-0.08-0.36-0.13c-0.03-0.01-0.03-0.01-0.06-0.02
					c-0.03-0.01-0.04,0.02-0.07,0.01c-0.03-0.01-0.03-0.01-0.06-0.02c-0.03-0.01-0.06-0.02-0.06-0.02l-0.06-0.02l-0.03-0.01
					c-0.03-0.01-0.06-0.02-0.06-0.02c-0.03-0.01-0.09-0.03-0.13-0.01c-0.1,0-0.19-0.03-0.26-0.02c-0.03-0.01-0.03-0.01-0.06-0.02
					c-0.03-0.01-0.09-0.03-0.13-0.01c-0.03-0.01-0.03-0.01-0.07,0.01c-0.03-0.01-0.04,0.02-0.04,0.02c-0.03-0.01-0.06-0.02-0.1,0
					c-0.13-0.01-0.25,0.05-0.38,0.03c-0.03-0.01-0.03-0.01-0.07,0.01L151,85.67c-0.03-0.01-0.03-0.01-0.06-0.02
					c-0.03-0.01-0.07,0.01-0.07,0.01l-0.07,0.01c-0.03-0.01-0.04,0.02-0.05,0.05c-0.01,0.03-0.04,0.02-0.04,0.02
					c-0.01,0.03-0.02,0.06,0,0.1c0.01,0.07,0.02,0.14,0.03,0.21C150.57,86.16,150.59,86.2,150.61,86.24z"/>
			</g>
		</g>
	</g>
</g>
</svg>
