<?xml version="1.0" encoding="utf-8"?>
<!-- Generator: Adobe Illustrator 25.4.1, SVG Export Plug-In . SVG Version: 6.00 Build 0)  -->
<svg version="1.1" id="Capa_1" xmlns="http://www.w3.org/2000/svg" xmlns:xlink="http://www.w3.org/1999/xlink" x="0px" y="0px"
	 viewBox="0 0 700 700" style="enable-background:new 0 0 700 700;" xml:space="preserve">
<style type="text/css">
	.st0{fill:none;stroke:#7AA7DE;stroke-width:13;stroke-miterlimit:10;}
	.st1{fill:#7AA7DE;}
</style>
<g>
	<path class="st0" d="M354.8,270l115,114.9c0.6,0.6,1.3,0.9,2.1,0.9c0.7,0,1.5-0.3,2.1-0.9l65.1-65.1c0.9-0.9,1.1-2.3,0.5-3.4
		c-24.4-48.7-74-102.1-94.2-122.8c-0.5-0.6-1.3-0.9-2.1-0.9c-0.6-0.3-1.5,0.3-2.1,0.9l-30.3,30.3c-10,10-21.1,15.1-33.6,15.1h0
		c-17.9-0.7-29.6-13.7-31-15.4l-7.4-7.3c-7.8-7.8-21.7-7.9-29.5,0L257,268.5c-3.9,3.9-6.1,9.2-6.1,14.8c0,5.6,2.2,10.9,6.1,14.8
		l5.8,5.8c7.5,7.5,22.1,7.5,29.5,0.1l47.3-45.2c3.4-3.3,9.1-3.1,12.4,0.3c2,2.1,2.7,5.1,2,8.2C353.7,268.2,354,269.2,354.8,270
		L354.8,270z"/>
	<path class="st0" d="M220,460.5c2.3,2.3,5.5,3.6,9,3.6c3.4,0,6.7-1.3,9-3.6l56.6-56.6c2.4-2.4,3.7-5.6,3.7-9c0-3.4-1.3-6.6-3.7-9
		l-3.8-3.7c-4.8-4.8-13.3-4.8-18,0l-56.6,56.6c-2.4,2.4-3.7,5.6-3.7,9c0,3.4,1.3,6.6,3.7,9L220,460.5z"/>
	<path class="st0" d="M500.6,417.4L343.9,260.7"/>
	<path class="st0" d="M328,492.4l48.9,48.9"/>
	<path class="st0" d="M107.7,273.9l104.7,104.7"/>
	<path class="st0" d="M300.7,217.6l-69.2-69.2"/>
	<path class="st0" d="M268.4,364.9c0-3.4-1.3-6.6-3.7-9l-3.8-3.8c-4.8-4.7-13.2-4.8-18,0l-56.6,56.6c-2.4,2.4-3.7,5.6-3.7,9
		c0,3.4,1.3,6.6,3.7,9l3.8,3.7c2.3,2.3,5.6,3.6,9,3.6c3.4,0,6.7-1.3,9-3.6l56.6-56.6C267,371.5,268.4,368.3,268.4,364.9L268.4,364.9
		z"/>
	<path class="st0" d="M281,521.4c2.3,2.3,5.6,3.6,9,3.6c3.4,0,6.7-1.3,9-3.6l31.2-31.2c5-5,5-13.1,0-18.1l-3.7-3.7
		c-4.8-4.8-13.3-4.8-18,0l-31.3,31.2c-5,5-5,13.1,0,18.1L281,521.4z"/>
	<path class="st0" d="M250.3,490.8c2.3,2.3,5.6,3.6,9,3.6c3.4,0,6.7-1.3,9-3.6l43.9-43.9c2.4-2.4,3.7-5.6,3.7-9c0-3.4-1.3-6.6-3.7-9
		l-3.8-3.8c-4.8-4.8-13.2-4.7-18,0l-43.7,43.8c-0.1,0.1-0.2,0.2-0.3,0.3c-2.3,2.4-3.6,5.5-3.6,8.8c0,3.4,1.3,6.7,3.7,9L250.3,490.8z
		"/>
	<path class="st0" d="M423.8,454.5l62.6,62.6c2.7,2.7,6.2,4.1,10,4.1c3.8,0,7.3-1.5,10-4.1l4.1-4.2c5.3-5.3,5.3-14.7,0-19.9
		l-62.6-62.6"/>
	<path class="st0" d="M456.9,421.5l62.6,62.5c2.6,2.6,6.2,4.1,10,4.1h0c3.8,0,7.3-1.5,9.9-4.1l4.2-4.2c5.2-5.3,5.3-14.6,0-19.9
		L481,397.4"/>
	<path class="st0" d="M356.4,522l34.5,34.5c5.5,5.5,14.4,5.5,20,0l4.1-4.1c5.3-5.4,5.3-14.7,0-19.9l-34.5-34.6"/>
	<path class="st0" d="M390.2,488.1l48.5,48.5c2.6,2.7,6.2,4.1,10,4.1c3.8,0,7.3-1.4,9.9-4.1l4.2-4.2c5.3-5.3,5.2-14.6,0-19.9
		l-48.4-48.3"/>
	<path class="st0" d="M390.2,488.1"/>
	<path class="st0" d="M386.2,478.1"/>
	<path class="st1" d="M61.5,440.2c1.3,0,2.5-0.2,3.8-0.5c7.8-2.1,12.4-10.1,10.3-17.9c-32.3-120.2,17-245.2,122.6-311.2
		C308.1,42.2,447.3,59,538,143l-22.1,13.8c-4.8,3-7.4,8.5-6.8,14.2c0.7,5.6,4.6,10.3,10,12.1l74.6,24.1c1.5,0.5,3,0.7,4.5,0.7
		c2.8,0,5.6-0.8,8-2.4c3.7-2.4,6.1-6.3,6.5-10.7l7.9-75.6c0.6-5.5-2.1-10.9-6.8-13.9c-4.7-3-10.7-3-15.5,0l-34.8,21.7
		C463.7,29.6,306.3,8.8,182.8,85.9C66.2,158.7,11.8,296.8,47.4,429.4C49.2,436,55.1,440.2,61.5,440.2L61.5,440.2z"/>
	<path class="st1" d="M627.7,255.3c-7.8,2.2-12.3,10.2-10.1,18c33.4,119.2-16.7,248.3-121.9,314C386,655.8,246.7,639,156,554.9
		l25.5-15.9c4.9-3.1,7.5-8.7,6.7-14.4c-0.8-5.7-4.9-10.4-10.5-12l-78.1-22c-4.2-1.2-8.6-0.4-12.2,2c-3.6,2.4-5.9,6.3-6.3,10.6
		l-7.4,75.3c-0.5,5.5,2.1,10.9,6.8,13.8c2.4,1.5,5,2.2,7.7,2.2c2.7,0,5.4-0.7,7.7-2.2l34.4-21.5c58.7,57.3,137.2,88.2,217.1,88.2
		c56,0,112.7-15.2,163.7-47c116.1-72.5,171.4-215,134.5-346.6C643.6,257.7,635.5,253.1,627.7,255.3L627.7,255.3z"/>
</g>
</svg>
