<?xml version="1.0" encoding="utf-8"?>
<!-- Generator: Adobe Illustrator 25.4.1, SVG Export Plug-In . SVG Version: 6.00 Build 0)  -->
<svg version="1.1" id="_x2014_ÎÓÈ_x5F_1" xmlns="http://www.w3.org/2000/svg" xmlns:xlink="http://www.w3.org/1999/xlink"
	 x="0px" y="0px" viewBox="0 0 963.78 499.51" style="enable-background:new 0 0 963.78 499.51;" xml:space="preserve">
<style type="text/css">
	.st0{clip-path:url(#SVGID_00000093165300042910880080000006061408979753490844_);}
	.st1{fill:#F6DA39;}
	.st2{fill:#FCA637;}
	.st3{fill:#FFFFFF;}
	.st4{fill:#F2CDAC;}
	.st5{fill:#F4E726;}
	.st6{fill:#EFBC90;}
	.st7{fill:#F4CAAB;}
	.st8{fill:#F7D52C;}
	.st9{fill:#EF7C2E;}
	.st10{fill:#76D3F4;}
	.st11{fill:#B5231C;}
	.st12{fill:#1A1B1D;}
</style>
<g>
	<defs>
		<rect id="SVGID_1_" y="0" width="963.78" height="507.47"/>
	</defs>
	<clipPath id="SVGID_00000089561316531142748640000018111998218017747630_">
		<use xlink:href="#SVGID_1_"  style="overflow:visible;"/>
	</clipPath>
	<g style="clip-path:url(#SVGID_00000089561316531142748640000018111998218017747630_);">
		<g>
			<g>
				<g id="XMLID_628_">
					<polygon id="XMLID_629_" class="st1" points="296.54,840.64 351.03,1306.81 351.03,1295.77 329.89,1703.84 453.86,1716.45 
						501.33,1306.98 501.6,1304.91 501.33,1295.93 488.54,826.84 					"/>
				</g>
				<g id="XMLID_626_">
					<path id="XMLID_627_" class="st1" d="M368.75,972.39l248.92-33.71c27.04-3.7,79.79-35.18,76.18-62.23l-48.16-210l-295.96,50.83
						l-53.18,123.37C300.06,867.7,341.6,976.01,368.75,972.39z"/>
				</g>
				<g id="XMLID_624_">
					<polygon id="XMLID_625_" class="st1" points="488.19,834.11 629.24,1294.81 626.89,1275.35 640.67,1703.78 765.09,1698.07 
						777.56,1276.5 777.89,1269.97 775.12,1257.04 674.5,785.84 					"/>
				</g>
			</g>
			<g id="XMLID_620_">
				<g id="XMLID_621_">
					<g id="XMLID_622_">
						<polygon id="XMLID_623_" class="st2" points="640.67,1703.78 648,1787.3 856.64,1767.79 765.09,1698.07 						"/>
					</g>
				</g>
			</g>
			<g id="XMLID_616_">
				<g id="XMLID_617_">
					<g id="XMLID_618_">
						<polygon id="XMLID_619_" class="st2" points="329.89,1703.84 324.98,1787.56 534.13,1798.72 453.86,1716.45 						"/>
					</g>
				</g>
			</g>
			<g id="XMLID_613_">
				<g id="XMLID_614_">
					<path id="XMLID_615_" class="st3" d="M306.62,905.62c0.32-0.59,0.67-0.8,1.58-0.98c0.37-0.03,0.74-0.07,1.11-0.01l1.58,0.04
						c0.65,0.03,1.29-0.12,1.93-0.18c0.47,0.05,0.84,0.02,1.3-0.03c1.38-0.13,2.76-0.25,4.13-0.47l1.74-0.25
						c0.55-0.05,1.29-0.12,1.84-0.17c0.46-0.04,0.8-0.35,1.26-0.39c1.29-0.12,2.54-0.7,3.82-0.82c1.1-0.19,2.08-0.56,3.07-0.93
						l1.52-0.6c0.36-0.13,0.81-0.26,1.26-0.39l0.8-0.35c0.89-0.45,1.86-1.01,2.74-1.46c1.07-0.47,2.12-1.12,3.19-1.69
						c1.05-0.65,2.11-1.31,3.24-2.06l0.26-0.21l0.34-0.31l0.08-0.1c0.35-0.22,0.6-0.52,0.95-0.74l1.9-1.57l0.6-0.52l0.94-0.92
						c0.43-0.41,0.85-0.82,1.28-1.23c0.34-0.31,0.77-0.72,1.2-1.04l0.5-0.6c0.17-0.2,0.24-0.39,0.5-0.6
						c1.04-0.84,1.57-2.09,2.62-2.84c0.67-0.8,1.34-1.61,2-2.5l0.89-1.38c0.24-0.39,0.49-0.7,0.74-1.09l0.39-0.78
						c0.57-0.89,0.84-1.93,1.41-2.82c0.55-1.07,1.1-2.14,1.56-3.21c0.45-1.16,0.9-2.31,1.43-3.57c0.16-0.29,0.13-0.57,0.2-0.85
						c0.15-0.39,0.21-0.76,0.36-1.15c0.21-0.76,0.5-1.62,0.62-2.38c0.42-1.52,1.03-2.97,1.16-4.56c0.01-0.93,0.12-1.68,0.31-2.63
						c0.06-0.38,0.03-0.65,0.19-0.95c0.16-0.29,0.41-0.59,0.57-0.89c0.42-0.5,0.86-0.73,1.42-0.69c0.57,0.13,0.79,0.48,1.2,0.91
						c0.32,0.43,0.47,1.07,0.44,1.72c-0.06,0.38-0.03,0.65-0.09,1.03c-0.03,0.65-0.17,1.22-0.21,1.78c-0.04,0.56-0.27,1.05-0.4,1.71
						c-0.22,1.69-0.81,3.32-1.31,4.95c-0.13,0.57-0.26,1.23-0.48,1.81c-0.22,0.67-0.53,1.35-0.84,1.93l-0.08,0.19
						c0.01,0.09,0.02,0.18,0.02,0.18c-0.02,0.74-0.5,1.62-0.81,2.3c-0.29,0.86-0.68,1.73-1.16,2.52c-0.86,1.75-1.81,3.51-2.87,5.09
						c-0.16,0.29-0.4,0.69-0.56,0.98c-0.48,0.88-1.05,1.68-1.63,2.47c-0.24,0.39-0.58,0.8-0.91,1.2c-0.34,0.31-0.6,0.52-0.84,0.91
						l-1.33,1.7c-1.85,2.12-3.89,4.07-5.94,6.02c-0.34,0.31-0.69,0.62-1.12,0.94c-0.35,0.22-0.7,0.44-0.96,0.65
						c-0.34,0.31-0.69,0.62-1.03,0.93c-0.53,0.33-0.87,0.64-1.3,0.96l-1.4,0.96c-0.18,0.11-0.35,0.22-0.53,0.33
						c-0.43,0.32-0.88,0.54-1.31,0.86l-2.38,1.43c-1.77,0.91-3.45,1.8-5.25,2.43c-0.36,0.13-0.72,0.25-1.07,0.47
						c-0.89,0.36-1.78,0.81-2.78,1.09c-0.45,0.13-0.99,0.37-1.44,0.5c-0.45,0.13-0.83,0.08-1.28,0.21c-0.72,0.25-1.35,0.5-2.07,0.66
						c-2.72,0.71-5.56,1.07-8.32,1.42c-0.46,0.04-0.92,0.08-1.38,0.13c-0.37,0.03-0.84-0.02-1.11,0.01
						c-0.46,0.04-0.92,0.08-1.38,0.13c-0.64,0.06-1.1,0.1-1.67,0.06l-1.77-0.02c-0.56-0.04-0.94-0.1-1.41-0.24
						c-0.38-0.06-0.93-0.01-1.31-0.16c-0.28-0.07-0.4-0.33-0.6-0.5c-0.31-0.34-0.54-0.79-0.49-1.25
						C306.29,906.12,306.45,905.82,306.62,905.62z"/>
				</g>
			</g>
			<g id="XMLID_610_">
				<g id="XMLID_611_">
					<path id="XMLID_612_" class="st3" d="M486.08,917.95c0.22-0.67,0.56-0.98,1.46-1.25c0.36-0.13,0.82-0.17,1.19-0.2l1.74-0.25
						c0.74-0.07,1.36-0.4,2.09-0.47c0.46-0.04,0.91-0.18,1.37-0.22c1.46-0.32,2.89-0.92,4.23-1.41c0.63-0.24,1.16-0.48,1.69-0.81
						s1.16-0.48,1.69-0.81c0.35-0.22,0.69-0.62,1.04-0.84c1.15-0.66,1.87-1.84,2.72-2.66c0.67-0.8,1.14-1.78,1.51-2.74
						c0.23-0.49,0.37-1.05,0.5-1.62c0.05-0.47,0.29-0.86,0.34-1.33l0.11-0.85c0.08-1.12-0.02-2.23-0.03-3.34
						c-0.03-1.3-0.15-2.59-0.27-3.97c-0.23-1.46-0.35-2.75-0.58-4.31c-0.01-0.09-0.03-0.28-0.03-0.37l-0.13-0.45l-0.02-0.18
						c-0.04-0.46-0.18-0.91-0.22-1.37l-0.45-2.84l-0.08-0.92l-0.23-1.46l-0.37-2.01c-0.05-0.55-0.11-1.2-0.16-1.75l-0.18-0.91
						c-0.12-0.27-0.14-0.54-0.17-0.82c-0.04-1.48-0.56-3.01-0.59-4.4c-0.21-1.28-0.31-2.38-0.43-3.67l-0.26-1.83
						c-0.04-0.46-0.09-1.01-0.14-1.47l-0.18-0.91c-0.2-1.19-0.59-2.36-0.69-3.46c-0.22-1.37-0.34-2.66-0.56-4.03
						c-0.23-1.46-0.46-2.93-0.59-4.4c-0.03-0.37-0.15-0.64-0.19-1c-0.04-0.46-0.18-0.91-0.22-1.37l-0.44-2.74
						c-0.25-1.74-0.24-3.6-0.68-5.32c-0.28-1-0.45-1.91-0.55-2.92c-0.03-0.37-0.16-0.73-0.1-1.1c0.06-0.38,0.21-0.76,0.36-1.15
						c0.22-0.67,0.65-0.99,1.2-1.04c0.56,0.04,0.96,0.38,1.46,0.7c0.4,0.33,0.75,1.05,0.81,1.69c0.03,0.37,0.16,0.73,0.19,1.1
						c0.15,0.64,0.21,1.28,0.36,1.92c0.15,0.64,0.11,1.2,0.26,1.83c0.45,1.82,0.52,3.57,0.78,5.41c0.15,0.64,0.3,1.27,0.36,1.92
						c0.08,0.83,0.23,1.46,0.21,2.3l0.03,0.28c0.01,0.09,0.02,0.18,0.12,0.27c0.34,0.71,0.44,1.72,0.51,2.55l0.46,2.93
						c0.28,2.02,0.56,4.03,0.84,6.14c0.04,0.46,0.17,0.82,0.2,1.19c0.19,1.1,0.38,2.1,0.56,3.1c0.04,0.46,0.19,1.1,0.24,1.56
						c0.04,0.46-0.02,0.84,0.04,1.39l0.4,2.28c0.46,3.02,0.83,5.96,1.38,8.88c0.13,0.45,0.19,1,0.23,1.46
						c0.03,0.37,0.08,0.83,0.11,1.2c0.04,0.46,0.19,1,0.32,1.46c0.15,0.64,0.2,1.19,0.35,1.73l0.26,1.83
						c0.03,0.28,0.04,0.46,0.06,0.64c0.05,0.55,0.2,1.19,0.24,1.65c0.19,1,0.28,2.02,0.37,3.03c0.1,2.13,0.21,4.34-0.23,6.61
						c-0.05,0.47-0.11,0.85-0.25,1.32c-0.17,1.13-0.53,2.28-0.99,3.34c-0.23,0.49-0.45,1.16-0.78,1.56
						c-0.33,0.49-0.68,0.71-0.91,1.2c-0.49,0.7-0.99,1.39-1.58,2c-2.47,2.46-5.49,3.85-8.55,4.97c-0.54,0.14-0.99,0.37-1.54,0.42
						c-0.46,0.04-0.91,0.18-1.28,0.21c-0.54,0.14-1,0.28-1.45,0.41c-0.64,0.15-1.18,0.29-1.73,0.35l-1.92,0.27
						c-0.64,0.06-1.01,0.09-1.57,0.05c-0.46,0.04-1,0.19-1.48,0.04c-0.28-0.07-0.58-0.23-0.78-0.39c-0.49-0.33-0.71-0.68-0.75-1.14
						C485.84,918.43,485.92,918.24,486.08,917.95z"/>
				</g>
			</g>
			<g id="XMLID_607_">
				<g id="XMLID_608_">
					<path id="XMLID_609_" class="st3" d="M328.82,1681.19c0.41-0.59,0.94-0.83,2.05-0.93c0.46-0.04,1.02,0,1.58,0.04
						c0.74,0.02,1.5,0.14,2.24,0.16c0.94,0.1,1.85-0.08,2.8,0.11c0.57,0.13,1.22,0.17,1.78,0.21c1.96,0.1,3.82,0.2,5.78,0.3
						c0.85,0.11,1.68,0.12,2.52,0.14c0.85,0.11,1.7,0.31,2.54,0.32c0.65,0.03,1.21-0.02,1.86,0.01c1.79,0.3,3.73,0.21,5.44,0.61
						c1.5,0.14,3,0.28,4.49,0.42c0.74,0.02,1.5,0.14,2.34,0.16c0.65,0.03,1.13,0.17,1.78,0.21c0.38,0.06,0.75,0.02,1.21,0.07
						c1.4,0.06,2.98,0.1,4.38,0.15c1.68,0.12,3.36,0.25,5.06,0.46c1.77,0.11,3.64,0.22,5.43,0.52c0.18-0.02,0.28,0.07,0.47,0.05
						c0.18-0.02,0.37-0.03,0.65,0.03c0.09-0.01,0.09-0.01,0.18-0.02c0.56,0.04,1.12,0.08,1.68,0.12c1.12,0.08,2.34,0.16,3.46,0.24
						c0.38,0.06,0.75,0.12,1.12,0.08c0.56,0.04,1.21,0.07,1.77,0.11c0.85,0.11,1.68,0.12,2.52,0.14c0.75,0.02,1.41,0.24,2.16,0.27
						c0.38,0.06,0.74,0.02,1.12,0.08c0.37-0.03,0.74-0.07,1.02,0c1.79,0.3,3.73,0.21,5.44,0.61c1.5,0.14,3,0.28,4.49,0.42
						c0.74,0.02,1.5,0.14,2.34,0.16c0.65,0.03,1.13,0.17,1.78,0.21c0.38,0.06,0.74,0.02,1.21,0.07c1.4,0.06,2.98,0.1,4.38,0.15
						c1.68,0.12,3.36,0.25,5.06,0.46c1.77,0.11,3.64,0.22,5.43,0.52c0.47,0.05,0.84,0.02,1.31,0.07c0.56,0.04,1.12,0.08,1.68,0.12
						c1.12,0.08,2.34,0.16,3.46,0.24c2.15,0.17,4.34,0.71,6.56,0.69c1.21-0.02,2.42,0.06,3.64,0.22c0.47,0.05,0.94,0.1,1.32,0.25
						c0.48,0.14,0.87,0.38,1.26,0.63c0.78,0.39,1.01,0.93,0.87,1.4c-0.14,0.48-0.67,0.8-1.28,1.23c-0.53,0.33-1.45,0.41-2.28,0.4
						c-0.47-0.05-0.85-0.11-1.31-0.07c-0.75-0.02-1.59-0.13-2.34-0.16c-0.75-0.02-1.51-0.23-2.25-0.26
						c-2.23-0.07-4.4-0.43-6.74-0.59c-0.84-0.02-1.67-0.03-2.42-0.06c-0.94-0.1-1.78-0.21-2.82-0.39c-0.09,0.01-0.19-0.08-0.28-0.07
						c-0.09,0.01-0.18,0.02-0.28,0.03c-0.91,0.18-2.23-0.07-3.16-0.08c-1.21-0.07-2.43-0.15-3.56-0.32
						c-2.53-0.23-5.05-0.37-7.58-0.69c-0.47-0.05-1.03-0.09-1.5-0.14c-1.31-0.07-2.52-0.14-3.83-0.3c-0.65-0.03-1.31-0.07-1.87-0.2
						c-0.57-0.13-1.05-0.27-1.6-0.22c-0.93-0.01-1.87-0.11-2.8-0.11c-3.65-0.31-7.31-0.72-11.04-0.93c-0.65-0.03-1.21-0.07-1.88-0.2
						c-0.47-0.05-1.04-0.18-1.51-0.23c-0.56-0.04-1.21-0.07-1.86-0.01c-0.74-0.02-1.4-0.06-2.14-0.08c-0.75-0.02-1.5-0.14-2.24-0.16
						c-0.28-0.07-0.56-0.04-0.85-0.11c-0.65-0.03-1.41-0.15-1.97-0.19c-1.21-0.07-2.43-0.15-3.56-0.32
						c-2.53-0.23-5.05-0.37-7.58-0.69c-0.47-0.05-1.03-0.09-1.5-0.14c-1.31-0.07-2.52-0.14-3.83-0.3c-0.65-0.03-1.31-0.07-1.87-0.2
						c-0.57-0.13-1.05-0.28-1.6-0.22c-0.93-0.01-1.87-0.11-2.8-0.11c-3.65-0.31-7.31-0.72-11.04-0.93c-0.65-0.03-1.21-0.07-1.87-0.2
						c-0.47-0.05-0.95-0.19-1.51-0.23c-0.56-0.04-1.21-0.07-1.86-0.01c-0.75-0.02-1.4-0.06-2.14-0.08c-0.74-0.02-1.5-0.14-2.24-0.16
						c-0.75-0.02-1.13-0.17-1.88-0.29c-0.57-0.13-1.21-0.07-1.69-0.22c-0.29-0.16-0.59-0.32-0.79-0.48
						c-0.5-0.42-0.73-0.86-0.67-1.24C328.4,1681.6,328.56,1681.4,328.82,1681.19z"/>
				</g>
			</g>
			<g id="XMLID_604_">
				<g id="XMLID_605_">
					<path id="XMLID_606_" class="st3" d="M643.54,1680.49c0.31-0.68,0.74-1,1.92-1.29c0.45-0.13,1-0.19,1.56-0.24
						c0.74-0.07,1.47-0.14,2.21-0.2c0.92-0.08,1.82-0.35,2.74-0.44c0.64-0.06,1.21-0.02,1.84-0.17c1.93-0.18,3.85-0.54,5.79-0.63
						c0.83-0.08,1.66-0.15,2.49-0.23s1.67-0.06,2.49-0.14c0.64-0.06,1.18-0.29,1.83-0.26c1.86,0.01,3.67-0.43,5.44-0.41
						c1.48-0.04,2.95-0.18,4.52-0.32c0.74-0.07,1.56-0.14,2.3-0.21c0.64-0.06,1.21-0.02,1.85-0.08c0.37-0.03,0.83-0.08,1.2-0.11
						c1.47-0.14,2.93-0.46,4.31-0.58c1.66-0.15,3.31-0.31,5.06-0.47c1.84-0.17,3.58-0.42,5.43-0.5c0.18-0.02,0.28-0.03,0.46-0.04
						c0.18-0.02,0.37-0.03,0.64-0.06c0.09-0.01,0.09-0.01,0.18-0.02c0.55-0.05,1.1-0.1,1.66-0.15c1.1-0.1,2.3-0.21,3.5-0.32
						c0.37-0.03,0.74-0.07,1.1-0.1c0.64-0.06,1.2-0.11,1.84-0.17c0.83-0.08,1.66-0.15,2.49-0.23c0.74-0.07,1.48-0.04,2.22-0.11
						c0.37-0.03,0.74-0.07,1.2-0.11c0.37-0.03,0.73-0.16,1.1-0.19c1.86,0.01,3.67-0.43,5.44-0.41c1.48-0.04,2.95-0.18,4.52-0.32
						c0.74-0.07,1.56-0.14,2.3-0.21c0.64-0.06,1.21-0.02,1.85-0.08c0.37-0.03,0.83-0.08,1.2-0.11c1.47-0.14,2.93-0.46,4.31-0.58
						c1.66-0.15,3.31-0.31,5.06-0.47c1.84-0.17,3.58-0.42,5.43-0.5c0.46-0.04,0.82-0.17,1.28-0.21c0.55-0.05,1.1-0.1,1.66-0.15
						c1.2-0.11,2.3-0.21,3.5-0.32c2.21-0.2,4.45-0.04,6.55-0.42c1.19-0.2,2.38-0.4,3.67-0.43c0.46-0.04,0.92-0.08,1.3-0.03
						c0.47,0.05,0.95,0.19,1.33,0.34c0.77,0.3,1.18,0.73,1.13,1.2c-0.04,0.56-0.48,0.88-0.99,1.39c-0.52,0.42-1.33,0.68-2.16,0.76
						c-0.46,0.04-0.92,0.08-1.29,0.12c-0.83,0.08-1.56,0.14-2.38,0.31c-0.74,0.07-1.48,0.04-2.22,0.11c-2.2,0.3-4.42,0.41-6.72,0.62
						c-0.83,0.08-1.65,0.24-2.38,0.31c-0.92,0.08-1.84,0.17-2.77,0.16c-0.09,0.01-0.18,0.02-0.28,0.03
						c-0.09,0.01-0.18,0.02-0.27,0.12c-0.9,0.27-2.2,0.3-3.2,0.48c-1.2,0.11-2.39,0.22-3.59,0.33c-2.58,0.24-5.06,0.47-7.56,0.6
						c-0.46,0.04-1.01,0.09-1.47,0.14c-1.28,0.21-2.57,0.33-3.86,0.45c-0.64,0.06-1.29,0.12-1.93,0.18
						c-0.56-0.04-1.03-0.09-1.67,0.06c-0.92,0.08-1.83,0.26-2.75,0.35c-3.68,0.34-7.37,0.59-11.05,1.02
						c-0.64,0.06-1.2,0.11-1.84,0.17c-0.46,0.04-1.02,0-1.48,0.04c-0.64,0.06-1.19,0.2-1.83,0.26c-0.74,0.07-1.37,0.22-2.11,0.29
						c-0.74,0.07-1.47,0.14-2.21,0.2c-0.28,0.03-0.55,0.05-0.83,0.08c-0.64,0.06-1.38,0.13-2.02,0.19c-1.2,0.11-2.39,0.22-3.59,0.33
						c-2.58,0.24-5.06,0.47-7.56,0.6c-0.46,0.04-1.01,0.09-1.47,0.14c-1.28,0.21-2.57,0.33-3.86,0.45
						c-0.64,0.06-1.29,0.12-1.93,0.18c-0.56-0.04-1.03-0.09-1.67,0.06c-0.92,0.08-1.83,0.26-2.75,0.35
						c-3.68,0.34-7.37,0.59-11.05,1.02c-0.64,0.06-1.2,0.11-1.84,0.17c-0.46,0.04-1.02,0-1.48,0.04c-0.64,0.06-1.19,0.2-1.83,0.26
						c-0.74,0.07-1.37,0.22-2.11,0.29c-0.74,0.07-1.47,0.14-2.21,0.2c-0.74,0.07-1.21,0.02-1.86-0.01c-0.56-0.04-1.2,0.11-1.76,0.07
						c-0.38-0.06-0.67-0.22-0.87-0.38c-0.59-0.32-0.8-0.67-0.94-1.12C643.21,1680.99,643.38,1680.79,643.54,1680.49z"/>
				</g>
			</g>
			<g id="XMLID_599_">
				<g id="XMLID_600_">
					<g id="XMLID_601_">
						<g id="XMLID_602_">
							<path id="XMLID_603_" class="st3" d="M839.16,1754.36c-0.7-0.58-1.47-0.79-3.33-0.9c-0.74-0.02-1.67,0.06-2.49,0.14
								c-1.2,0.11-2.39,0.22-3.59,0.33c-1.47,0.14-2.96,0.09-4.43,0.22c-0.92,0.08-1.92,0.27-2.94,0.36
								c-3.13,0.29-6.18,0.38-9.31,0.76c-1.38,0.13-2.67,0.25-4.05,0.37c-1.38,0.13-2.65,0.43-4.03,0.56
								c-1.01,0.09-1.95-0.01-3.05,0.19c-2.93,0.46-5.9,0.45-8.64,0.98c-2.38,0.31-4.78,0.53-7.17,0.75
								c-1.2,0.11-2.49,0.23-3.68,0.34c-1.01,0.09-1.92,0.27-2.94,0.36c-0.64,0.06-1.29,0.12-1.93,0.18
								c-2.3,0.21-4.71,0.25-7.01,0.46c-2.67,0.25-5.34,0.49-8.09,0.84c-2.95,0.27-5.8,0.53-8.64,0.89
								c-0.28,0.03-0.46,0.04-0.74,0.07c-0.37,0.03-0.64,0.06-1.02,0c-0.09,0.01-0.18,0.02-0.28,0.03
								c-0.83,0.08-1.84,0.17-2.67,0.25c-1.84,0.17-3.68,0.34-5.52,0.51c-0.64,0.06-1.2,0.11-1.84,0.17
								c-1.01,0.09-1.93,0.18-2.95,0.27c-1.38,0.13-2.67,0.25-4.05,0.37c-1.2,0.11-2.29,0.3-3.49,0.41
								c-0.64,0.06-1.2,0.11-1.84,0.17c-0.55,0.05-1.11,0.01-1.76,0.07c-2.93,0.46-5.99,0.46-8.64,0.98
								c-2.38,0.31-4.78,0.53-7.17,0.75c-1.2,0.11-2.49,0.23-3.68,0.34c-1.01,0.09-1.92,0.27-2.94,0.36
								c-0.64,0.06-1.29,0.12-1.93,0.18c-2.3,0.21-4.71,0.25-7.01,0.46c-2.67,0.25-5.34,0.49-8.09,0.84
								c-2.95,0.27-5.8,0.53-8.64,0.89c-0.74,0.07-1.39,0.04-2.03,0.09c-0.83,0.08-1.84,0.17-2.67,0.25
								c-1.84,0.17-3.68,0.34-5.52,0.51c-3.5,0.32-7.05,1.02-10.57,1.16c-2.03,0.09-3.88,0.17-5.9,0.45
								c-0.74,0.07-1.47,0.14-2.11,0.29c-0.73,0.16-1.44,0.5-2.07,0.75c-1.25,0.49-1.76,1.09-1.53,1.53
								c0.24,0.54,1.01,0.84,1.97,1.21c0.86,0.29,2.26,0.35,3.64,0.22c0.74-0.07,1.38-0.13,2.12-0.2c1.29-0.12,2.58-0.24,3.78-0.26
								c1.2-0.11,2.38-0.31,3.58-0.42c3.6-0.24,7.17-0.75,10.76-1.08c1.29-0.12,2.59-0.15,3.87-0.26c1.56-0.14,2.94-0.36,4.5-0.51
								c0.18-0.02,0.28-0.03,0.46-0.04c0.18-0.02,0.28-0.03,0.47,0.05c1.5,0.14,3.51-0.23,5.08-0.28c1.93-0.18,3.87-0.36,5.8-0.53
								c4.05-0.37,8.1-0.75,12.14-1.21c0.83-0.08,1.66-0.15,2.39-0.22c2.03-0.09,4.15-0.29,6.18-0.48c1.01-0.09,2.12-0.2,3.04-0.28
								c0.91-0.18,1.64-0.34,2.65-0.43c1.47-0.14,2.95-0.18,4.52-0.32c5.89-0.54,11.77-1.18,17.67-1.63
								c1.01-0.09,1.93-0.18,2.95-0.27c0.83-0.08,1.56-0.24,2.38-0.31c1.01-0.09,1.94-0.09,2.95-0.18c1.11-0.01,2.31-0.12,3.41-0.22
								c1.2-0.11,2.39-0.22,3.59-0.33c0.46-0.04,0.92-0.08,1.29-0.12c1.1-0.1,2.21-0.2,3.22-0.3c1.93-0.18,3.87-0.36,5.8-0.53
								c4.05-0.37,8.1-0.75,12.14-1.21c0.83-0.08,1.66-0.15,2.39-0.22c2.03-0.09,4.15-0.29,6.18-0.48c1.01-0.09,2.12-0.2,3.04-0.28
								c0.91-0.18,1.64-0.34,2.65-0.43c1.47-0.14,2.95-0.18,4.52-0.32c5.89-0.54,11.77-1.18,17.67-1.63
								c1.01-0.09,1.93-0.18,2.95-0.27c0.83-0.08,1.56-0.24,2.38-0.31c1.01-0.09,1.94-0.09,2.95-0.18c1.11-0.01,2.31-0.12,3.41-0.22
								c1.2-0.11,2.39-0.22,3.59-0.33s1.92-0.27,2.93-0.46c0.82-0.17,1.93-0.18,2.75-0.35c0.54-0.14,0.98-0.46,1.34-0.59
								c0.79-0.44,1.12-0.94,1.17-1.41C839.75,1754.77,839.46,1754.61,839.16,1754.36z"/>
						</g>
					</g>
				</g>
			</g>
			<g id="XMLID_594_">
				<g id="XMLID_595_">
					<g id="XMLID_596_">
						<g id="XMLID_597_">
							<path id="XMLID_598_" class="st3" d="M693.61,1768.52c0.63-0.24,0.98-0.46,1.2-1.13c0.07-0.28,0.13-0.57,0.1-0.94l-0.12-1.29
								c-0.05-0.55,0.09-1.03-0.05-1.57c-0.13-0.36-0.16-0.73-0.19-1c-0.19-1.1-0.3-2.2-0.67-3.28l-0.41-1.45
								c-0.22-0.35-0.46-0.98-0.68-1.33c-0.13-0.36-0.07-0.74-0.29-1.09c-0.54-0.88-0.74-1.97-1.46-2.74
								c-0.54-0.79-0.97-1.49-1.41-2.19l-0.75-1.14c-0.21-0.26-0.51-0.51-0.63-0.78l-0.42-0.52c-0.53-0.69-0.88-1.5-1.48-2
								c-0.62-0.69-1.34-1.45-2.04-2.04c-0.8-0.67-1.53-1.44-2.41-2.01c-0.1-0.08-0.1-0.08-0.2-0.17c-0.1-0.08-0.2-0.17-0.3-0.25
								l-0.1-0.08c-0.21-0.26-0.5-0.42-0.8-0.58l-1.68-1.14c-0.2-0.17-0.39-0.24-0.59-0.32l-0.89-0.57
								c-0.39-0.24-0.88-0.48-1.27-0.72c-0.38-0.15-0.77-0.3-1.16-0.45c-0.19-0.08-0.39-0.24-0.59-0.32
								c-0.19-0.08-0.39-0.24-0.59-0.32c-1.05-0.27-2.03-0.83-3.05-0.83c-0.95-0.19-1.7-0.31-2.55-0.51l-1.32-0.25
								c-0.38-0.06-0.65-0.03-1.03-0.09l-0.66-0.12c-0.85-0.11-1.7-0.31-2.44-0.33c-0.93-0.01-1.95-0.01-2.87,0.08
								c-1.01,0.09-2.13,0.1-3.12,0.38c-0.28,0.03-0.46,0.04-0.74-0.02c-0.28,0.03-0.64,0.15-0.91,0.18
								c-0.64,0.15-1.28,0.21-2.01,0.37c-1.27,0.3-2.32,1.05-3.6,1.26c-0.73,0.16-1.36,0.4-1.97,0.74
								c-0.27,0.12-0.44,0.23-0.61,0.43c-0.17,0.2-0.32,0.59-0.48,0.79c-0.23,0.49-0.18,1.04,0.14,1.47
								c0.32,0.43,0.71,0.68,1.2,0.91c0.39,0.24,0.85,0.2,1.31,0.07c0.18-0.11,0.45-0.13,0.63-0.24c0.45-0.13,0.72-0.25,1.17-0.39
								c0.36-0.13,0.71-0.34,1.07-0.47c1.09-0.29,2.17-0.66,3.25-0.95c0.46-0.04,0.83-0.08,1.2-0.11c0.45-0.13,0.91-0.18,1.36-0.31
								l0.18-0.02l0.19,0.08c0.48,0.14,1.12,0.08,1.67,0.03l1.85-0.08c1.3-0.03,2.6,0.04,3.82,0.2c0.28-0.03,0.47,0.05,0.75,0.12
								c0.66,0.12,1.32,0.25,1.89,0.38c0.28,0.07,0.67,0.22,0.95,0.19c0.28-0.03,0.55-0.05,0.85,0.11c0.48,0.14,0.87,0.38,1.35,0.53
								c1.72,0.58,3.55,1.25,5.12,2.22c0.29,0.16,0.49,0.23,0.79,0.48c0.19,0.08,0.49,0.23,0.68,0.31c0.29,0.16,0.5,0.42,0.7,0.58
								c0.3,0.25,0.51,0.51,0.8,0.67c0.3,0.25,0.59,0.41,0.91,0.75c0.1,0.08,0.2,0.17,0.3,0.25c0.3,0.25,0.51,0.51,0.8,0.67
								l1.32,1.27c0.92,0.94,1.66,1.89,2.59,2.92c0.2,0.17,0.32,0.43,0.43,0.61c0.34,0.62,0.66,1.15,0.99,1.67
								c0.12,0.27,0.34,0.62,0.54,0.79c0.21,0.26,0.41,0.43,0.53,0.69c0.23,0.44,0.36,0.9,0.59,1.34c0.81,1.69,1.52,3.39,1.96,5.2
								c0.03,0.28,0.15,0.64,0.18,0.91c0.12,0.27,0.24,0.54,0.25,0.72c0.12,0.27,0.06,0.64,0.08,0.92c0.03,0.37,0.07,0.74,0.1,1.1
								l0.1,1.1c0.03,0.37,0.14,0.54,0.27,0.9c0.03,0.28-0.03,0.65,0.08,0.92c0.11,0.18,0.31,0.34,0.5,0.42
								c0.39,0.24,0.78,0.39,1.25,0.44C693.17,1768.75,693.34,1768.64,693.61,1768.52z"/>
						</g>
					</g>
				</g>
			</g>
			<g id="XMLID_517_">
				<g id="XMLID_518_">
					<g id="XMLID_519_">
						<g id="XMLID_520_">
							<path id="XMLID_593_" class="st3" d="M790.05,1722.13c0.69,0.4,1.16,0.45,2.34,0.16c0.45-0.13,0.98-0.46,1.42-0.69
								c0.71-0.34,1.31-0.86,1.92-1.29c0.79-0.54,1.68-0.9,2.46-1.53c0.52-0.42,0.94-0.83,1.46-1.25c1.55-1.26,3.1-2.61,4.46-4.03
								c0.59-0.61,1.18-1.32,1.77-1.93c0.58-0.7,0.98-1.48,1.56-2.19c0.42-0.5,0.94-0.92,1.25-1.51c0.96-1.67,2.21-3.27,2.79-4.99
								c0.61-1.45,1.32-2.81,1.83-4.35l0.81-2.3l0.47-1.9l0.35-1.24c0.42-1.52,0.83-3.05,0.87-4.63c0.11-1.87,0.03-3.72-0.42-5.53
								c-0.37-2.01-1.11-3.98-2.38-5.63l-0.32-0.43l-0.43-0.61l-0.11-0.18c-0.33-0.53-0.84-1.04-1.34-1.45
								c-1.01-0.93-2.11-1.75-3.38-2.38c-0.39-0.24-0.87-0.38-1.35-0.53c-0.67-0.22-1.43-0.42-2.18-0.54
								c-1.04-0.18-2.06-0.18-3.07-0.09c-0.83,0.08-1.64,0.34-2.45,0.6c-0.45,0.13-0.91,0.18-1.26,0.4
								c-0.36,0.13-0.82,0.17-1.17,0.39c-1.76,1-3.72,1.92-4.98,3.34c-1.2,1.04-2.3,2.25-3.29,3.55c-0.59,0.61-0.99,1.3-1.49,1.99
								c-0.41,0.59-0.64,1.08-0.96,1.67l-0.64,1.08c-0.81,1.28-1.6,2.75-2.13,4.1c-0.59,1.63-1.18,3.36-1.47,5.15
								c-0.38,1.89-0.67,3.78-0.68,5.72c0.04,0.46-0.11,0.85-0.16,1.31c-0.04,0.56,0.02,1.21-0.02,1.77
								c0.02,1.21,0.14,2.49,0.34,3.68c0.3,2.29,1.25,4.53,1.93,6.78c0.4,1.26,0.78,2.43,1.54,3.66c0.23,0.44,0.45,0.89,0.76,1.23
								c0.4,0.33,0.8,0.67,1.2,0.91c0.7,0.49,1.35,0.53,1.77,0.11c0.43-0.41,0.46-1.06,0.58-1.72c0.12-0.66-0.22-1.37-0.56-2.08
								c-0.13-0.36-0.34-0.71-0.57-1.15c-0.34-0.62-0.5-1.35-0.84-2.06c-0.24-0.63-0.58-1.25-0.74-1.97
								c-0.55-1.99-1.03-4.08-1.22-6.2c0.02-0.74,0.05-1.49-0.03-2.32c0.02-0.84-0.06-1.67-0.05-2.59l0.07-0.28
								c-0.01-0.09,0.08-0.19,0.07-0.28c0.29-0.86,0.37-2.08,0.57-2.93c0.17-1.13,0.54-2.19,0.82-3.23
								c0.72-2.29,1.63-4.42,2.84-6.48c0.24-0.39,0.48-0.79,0.82-1.19c0.65-0.99,1.4-1.89,2.25-2.81c0.33-0.4,0.76-0.81,1.18-1.32
								c0.33-0.4,0.58-0.8,1.01-1.11c0.69-0.53,1.4-0.96,2.1-1.4c2.81-1.74,5.97-2.69,8.75-1.74c0.48,0.14,0.87,0.38,1.35,0.53
								c0.38,0.15,0.77,0.3,1.07,0.55c0.4,0.33,0.71,0.68,1.02,1.02c0.42,0.52,0.74,0.95,1.06,1.39c0.33,0.53,0.65,1.05,0.99,1.67
								l0.34,0.62c0.14,0.54,0.39,1.17,0.52,1.62c0.28,1,0.37,2.01,0.47,3.11c0.11,2.22-0.32,4.58-0.85,6.86
								c-0.14,0.48-0.28,0.95-0.43,1.34c-0.45,1.16-0.81,2.3-1.36,3.37c-0.23,0.49-0.46,1.06-0.78,1.65
								c-0.23,0.49-0.28,0.95-0.61,1.45l-1.37,2.26c-1.85,3.05-3.83,5.83-6.48,8.3c-0.43,0.41-0.76,0.81-1.28,1.23
								c-0.34,0.31-0.68,0.71-1.02,1.02c-0.43,0.41-0.96,0.65-1.39,1.06c-0.61,0.43-1.14,0.75-1.66,1.17l-1.75,1.18
								c-0.43,0.32-0.87,0.64-1.39,1.06c-0.43,0.32-1.06,0.56-1.4,0.87c-0.26,0.21-0.41,0.59-0.48,0.79
								c-0.23,0.58-0.27,1.05-0.14,1.5C789.46,1721.81,789.76,1721.97,790.05,1722.13z"/>
						</g>
					</g>
				</g>
			</g>
			<g id="XMLID_512_">
				<g id="XMLID_513_">
					<g id="XMLID_514_">
						<g id="XMLID_515_">
							<path id="XMLID_516_" class="st3" d="M791.42,1720.89c0.25,0.72,0.65,1.05,1.9,1.5c0.48,0.14,1.04,0.18,1.6,0.22
								c0.75,0.12,1.58,0.04,2.34,0.16c0.93,0.01,1.87,0.2,2.9,0.2c0.64-0.06,1.29-0.12,1.93-0.18c2.03-0.09,4.06-0.28,5.97-0.64
								c0.82-0.17,1.73-0.35,2.54-0.61c0.82-0.17,1.61-0.61,2.52-0.88c0.64-0.15,1.28-0.21,1.9-0.55c1.78-0.81,3.68-1.36,5.17-2.33
								c1.32-0.77,2.73-1.55,4.05-2.42l2.01-1.39l1.46-1.25l0.95-0.74c1.21-0.95,2.42-1.99,3.42-3.19c1.17-1.41,2.23-2.99,2.91-4.72
								c0.85-1.84,1.4-3.94,1.4-5.98c-0.02-0.18,0.06-0.38,0.04-0.56l0.02-0.74l-0.02-0.18c0.03-0.65-0.12-1.29-0.18-1.93
								c-0.22-1.37-0.71-2.63-1.38-3.86c-0.23-0.44-0.54-0.79-0.75-1.14c-0.43-0.61-0.86-1.22-1.46-1.72
								c-0.71-0.68-1.52-1.35-2.4-1.82c-0.78-0.39-1.55-0.69-2.32-0.99c-0.38-0.15-0.86-0.29-1.25-0.44
								c-0.38-0.15-0.77-0.3-1.15-0.36c-2.07-0.27-4.14-0.64-5.97-0.29c-1.66,0.15-3.2,0.48-4.74,0.9
								c-0.82,0.17-1.54,0.42-2.35,0.68c-0.63,0.24-1.16,0.48-1.79,0.72l-1.16,0.48c-1.43,0.6-2.85,1.28-4.17,2.06
								c-1.49,0.97-2.87,2.12-4.25,3.27c-1.45,1.34-2.82,2.67-3.88,4.26c-0.24,0.39-0.58,0.7-0.93,1.01c-0.43,0.41-0.74,1-1.07,1.49
								c-0.74,1-1.29,2.07-1.94,3.15c-1.11,2.05-1.63,4.42-2.46,6.54c-0.44,1.25-0.79,2.49-0.86,3.79c-0.05,0.47-0.19,0.95-0.06,1.4
								c0.05,0.55,0.28,1,0.41,1.45c0.26,0.81,0.86,1.22,1.4,1.08c0.55-0.05,0.97-0.55,1.48-1.06c0.42-0.5,0.63-1.26,0.74-2.02
								c0.06-0.38,0.12-0.75,0.26-1.23c0.12-0.75,0.33-1.42,0.54-2.19c0.12-0.66,0.25-1.32,0.56-2c0.75-1.93,1.59-3.86,2.63-5.72
								c0.5-0.6,0.91-1.2,1.31-1.88c0.49-0.7,0.9-1.29,1.47-2.18l0.17-0.2c0.09-0.01,0.18-0.11,0.26-0.21
								c0.7-0.44,1.45-1.43,2.22-2.06c0.76-0.81,1.72-1.46,2.58-2.19c1.91-1.38,3.93-2.68,6.07-3.62c0.44-0.23,0.89-0.36,1.35-0.5
								c1.17-0.39,2.26-0.67,3.44-0.97c0.54-0.14,1.1-0.19,1.73-0.35c0.54-0.14,0.9-0.27,1.46-0.32c0.84,0.02,1.67,0.03,2.52,0.14
								c3.26,0.16,6.44,1.36,8.15,3.8c0.23,0.44,0.44,0.79,0.76,1.23c0.22,0.35,0.44,0.7,0.56,1.06c0.13,0.45,0.19,1,0.23,1.46
								c0.06,0.64,0.02,1.21,0.07,1.76c-0.03,0.65-0.07,1.31-0.2,1.88c-0.07,0.28-0.05,0.47-0.12,0.66
								c-0.13,0.57-0.36,1.15-0.5,1.62c-0.38,0.96-0.94,1.85-1.51,2.74c-1.22,1.88-2.92,3.52-4.73,5.08
								c-0.34,0.31-0.78,0.63-1.13,0.85c-1.05,0.65-2.01,1.39-3.07,1.95c-0.53,0.33-0.97,0.55-1.59,0.89
								c-0.43,0.32-0.78,0.63-1.31,0.86l-2.5,1.07c-3.21,1.41-6.55,2.46-10.12,2.98c-0.55,0.05-1.1,0.19-1.74,0.25
								c-0.46,0.04-1,0.19-1.46,0.23c-0.55,0.05-1.11,0.01-1.77-0.02c-0.74-0.02-1.39,0.04-2.04,0l-2.14-0.08
								c-0.55,0.05-1.11,0.01-1.76,0.07c-0.55,0.05-1.13-0.17-1.68-0.12c-0.37,0.03-0.63,0.24-0.89,0.36
								c-0.53,0.33-0.86,0.73-1.01,1.11C791.09,1720.36,791.3,1720.53,791.42,1720.89z"/>
						</g>
					</g>
				</g>
			</g>
			<g id="XMLID_507_">
				<g id="XMLID_508_">
					<g id="XMLID_509_">
						<g id="XMLID_510_">
							<path id="XMLID_511_" class="st3" d="M765.4,1723.56c0.24,0.63,0.36,0.9,0.65,1.05c0.1,0.08,0.19,0.08,0.28,0.07
								c0.18-0.02,0.28-0.03,0.45-0.13c0.18-0.02,0.38,0.15,0.56,0.04c0.08-0.1,0.27-0.12,0.36-0.13c0.37-0.03,0.84,0.02,1.2-0.11
								c0.18-0.02,0.37-0.03,0.55-0.05s0.35-0.22,0.44-0.23c0.09-0.01,0.29,0.16,0.38,0.06c0.35-0.22,0.74,0.02,1.08-0.38
								c0.27-0.12,0.54-0.23,0.9-0.27c0.18-0.02,0.28-0.03,0.46-0.04c0.09-0.01,0.18-0.11,0.36-0.13c0.09-0.01,0.18-0.02,0.28-0.03
								c0.28-0.03,0.65,0.03,0.93,0.01c0.36-0.13,0.64-0.15,1-0.28c0.37-0.03,0.74-0.07,1.09-0.29l0.09-0.01l0.09-0.01l0,0
								c0.09-0.01,0.18-0.02,0.37-0.03c0.28-0.03,0.46-0.04,0.74-0.07c0.09-0.01,0.18-0.02,0.18-0.11c0.09-0.01,0.28-0.03,0.37-0.03
								c0.18-0.02,0.37-0.03,0.55-0.05s0.27-0.12,0.44-0.23c0.09-0.01,0.18-0.02,0.28-0.03c0.09-0.01,0.19,0.08,0.18-0.02
								c0.35-0.22,0.74,0.02,1.08-0.38c0.27-0.12,0.54-0.23,0.9-0.27c0.18-0.02,0.28-0.03,0.46-0.04c0.09-0.01,0.18-0.11,0.36-0.13
								c0.09-0.01,0.18-0.02,0.28-0.03c0.28-0.03,0.65,0.03,0.93,0.01c0.36-0.13,0.64-0.15,1-0.28c0.37-0.03,0.74-0.07,1.09-0.29
								c0.09-0.01,0.18-0.02,0.28,0.07c0.09-0.01,0.18-0.02,0.37-0.03c0.28-0.03,0.46-0.04,0.74-0.07c0.46-0.04,0.79-0.54,1.26-0.39
								c0.28,0.07,0.47,0.05,0.74-0.07c0.09-0.01,0.18-0.02,0.27-0.12c0.08-0.1,0.15-0.39,0.13-0.57c0.06-0.38,0.1-0.94-0.04-1.48
								c-0.14-0.54-0.27-0.9-0.5-1.35c-0.22-0.35-0.42-0.52-0.51-0.51c-0.09,0.01-0.18,0.02-0.28,0.03
								c-0.18,0.02-0.28,0.03-0.46,0.04c-0.18,0.02-0.27,0.12-0.45,0.13c-0.47-0.05-0.91,0.18-1.36,0.31
								c-0.18,0.02-0.38-0.06-0.47-0.05c-0.18,0.02-0.36,0.13-0.54,0.23c0,0,0,0-0.09,0.01c0,0,0,0-0.1-0.08
								c-0.2-0.17-0.47-0.05-0.65-0.03c-0.28,0.03-0.46,0.04-0.73,0.16c-0.45,0.13-1,0.19-1.46,0.32c-0.09,0.01-0.18,0.02-0.28,0.03
								c-0.28,0.03-0.55,0.05-0.74,0.07c-0.09,0.01-0.28,0.03-0.36,0.13c-0.08,0.1-0.17,0.2-0.26,0.21
								c-0.18,0.02-0.38-0.06-0.55,0.05c-0.73,0.16-1.45,0.41-2.19,0.39c-0.09,0.01-0.28,0.03-0.37,0.03
								c-0.09,0.01-0.18,0.11-0.27,0.12c-0.09,0.01-0.28,0.03-0.38-0.06c-0.18,0.02-0.28,0.03-0.46,0.04
								c-0.18,0.02-0.28,0.03-0.46,0.04c-0.09,0.01-0.09,0.01-0.18,0.11c-0.18,0.02-0.28,0.03-0.37,0.03
								c-0.28,0.03-0.46,0.04-0.73,0.16c-0.45,0.13-1,0.19-1.46,0.32c-0.09,0.01-0.18,0.02-0.28,0.03
								c-0.28,0.03-0.55,0.05-0.74,0.07c-0.09,0.01-0.28,0.03-0.37,0.03c-0.08,0.1-0.17,0.2-0.26,0.21
								c-0.18,0.02-0.38-0.06-0.55,0.05c-0.73,0.16-1.45,0.41-2.18,0.48c-0.09,0.01-0.28,0.03-0.37,0.03
								c-0.09,0.01-0.18,0.11-0.27,0.12c-0.09,0.01-0.28,0.03-0.38-0.06c-0.18,0.02-0.28,0.03-0.46,0.04
								c-0.18,0.02-0.28,0.03-0.46,0.04c-0.18,0.02-0.18,0.11-0.35,0.22c-0.08,0.1-0.28,0.03-0.36,0.13
								c-0.08,0.1-0.06,0.38-0.05,0.47c-0.06,0.38-0.02,0.84,0.12,1.29C765.17,1723.12,765.28,1723.3,765.4,1723.56z"/>
						</g>
					</g>
				</g>
			</g>
			<g id="XMLID_502_">
				<g id="XMLID_503_">
					<g id="XMLID_504_">
						<g id="XMLID_505_">
							<path id="XMLID_506_" class="st3" d="M783.01,1737.35c0.24,0.63,0.36,0.9,0.66,1.15c0.1,0.08,0.28,0.07,0.38,0.06
								c0.18-0.02,0.37-0.03,0.55-0.05c0.28-0.03,0.48,0.14,0.74,0.02c0.18-0.11,0.27-0.12,0.45-0.13c0.46-0.04,1.02,0,1.48-0.04
								c0.18-0.02,0.46-0.04,0.64-0.06c0.18-0.02,0.44-0.23,0.63-0.24c0.18-0.02,0.38,0.15,0.47,0.05c0.44-0.23,0.93,0.01,1.36-0.31
								c0.36-0.13,0.73-0.16,1.18-0.29c0.18-0.02,0.37-0.03,0.55-0.05s0.27-0.12,0.45-0.13c0.09-0.01,0.18-0.02,0.28-0.03
								c0.37-0.03,0.75,0.12,1.11-0.01c0.46-0.04,0.82-0.17,1.28-0.21c0.46-0.04,0.92-0.08,1.37-0.22l0.09-0.01
								c0.09-0.01,0.09-0.01,0.18-0.02c0,0,0,0,0.09-0.01c0.18-0.02,0.28-0.03,0.46-0.04c0.28-0.03,0.55-0.05,0.92-0.08
								c0.09-0.01,0.18-0.02,0.28-0.03c0.18-0.02,0.28-0.03,0.46-0.04c0.18-0.02,0.46-0.04,0.64-0.06c0.18-0.02,0.36-0.13,0.54-0.23
								c0.09-0.01,0.18-0.02,0.28-0.03c0.09-0.01,0.19,0.08,0.28-0.03c0.44-0.23,0.93,0.01,1.36-0.31c0.36-0.13,0.73-0.16,1.18-0.29
								c0.18-0.02,0.37-0.03,0.55-0.05c0.18-0.02,0.27-0.12,0.45-0.13c0.09-0.01,0.18-0.02,0.28-0.03c0.37-0.03,0.75,0.12,1.11-0.01
								c0.46-0.04,0.82-0.17,1.28-0.21c0.46-0.04,0.92-0.08,1.37-0.22c0.09-0.01,0.18-0.02,0.38,0.06c0.18-0.02,0.28-0.03,0.46-0.04
								c0.28-0.03,0.55-0.05,0.92-0.08c0.55-0.05,1.07-0.47,1.63-0.43c0.38,0.06,0.65,0.03,0.92-0.08c0.09-0.01,0.28-0.03,0.36-0.13
								c0.08-0.1,0.15-0.39,0.23-0.58c0.15-0.39,0.19-0.95,0.05-1.49c-0.14-0.54-0.27-0.9-0.5-1.35c-0.22-0.35-0.42-0.52-0.7-0.49
								c-0.09,0.01-0.18,0.02-0.37,0.03c-0.18,0.02-0.37,0.03-0.64,0.06c-0.18,0.02-0.36,0.13-0.54,0.14
								c-0.56-0.04-1.1,0.19-1.74,0.25c-0.18,0.02-0.47-0.05-0.65-0.03c-0.28,0.03-0.45,0.13-0.72,0.25l-0.09,0.01
								c0,0-0.09,0.01-0.1-0.08c-0.29-0.16-0.56-0.04-0.84-0.02c-0.28,0.03-0.64,0.06-0.92,0.08c-0.64,0.15-1.28,0.21-1.92,0.36
								c-0.09,0.01-0.28,0.03-0.37,0.03c-0.37,0.03-0.64,0.06-1.01,0.09c-0.18,0.02-0.37,0.03-0.46,0.04
								c-0.18,0.11-0.26,0.21-0.44,0.23c-0.28,0.03-0.47-0.05-0.75-0.02c-0.91,0.18-1.92,0.36-2.84,0.45
								c-0.18,0.02-0.28,0.03-0.46,0.04c-0.09,0.01-0.27,0.12-0.36,0.13c-0.18,0.02-0.28-0.07-0.47-0.05
								c-0.18,0.02-0.37,0.03-0.55,0.05s-0.37,0.03-0.55,0.05c-0.09,0.01-0.18,0.02-0.18,0.11c-0.18,0.02-0.37,0.03-0.55,0.05
								c-0.28,0.03-0.64,0.06-0.92,0.08c-0.64,0.15-1.28,0.21-1.92,0.36c-0.09,0.01-0.28,0.03-0.37,0.03
								c-0.37,0.03-0.64,0.06-1.01,0.09c-0.18,0.02-0.37,0.03-0.46,0.04c-0.18,0.11-0.26,0.21-0.44,0.23
								c-0.28,0.03-0.47-0.05-0.74-0.02c-0.91,0.18-1.92,0.36-2.84,0.45c-0.18,0.02-0.28,0.03-0.46,0.04
								c-0.09,0.01-0.27,0.12-0.36,0.13c-0.18,0.02-0.28-0.07-0.47-0.05c-0.18,0.02-0.37,0.03-0.55,0.05
								c-0.18,0.02-0.37,0.03-0.55,0.05c-0.18,0.02-0.27,0.12-0.44,0.23c-0.08,0.1-0.28,0.03-0.45,0.13
								c-0.08,0.1-0.15,0.39-0.14,0.48c-0.06,0.38-0.11,0.85-0.07,1.31C782.86,1736.81,782.98,1737.07,783.01,1737.35z"/>
						</g>
					</g>
				</g>
			</g>
			<g id="XMLID_497_">
				<g id="XMLID_498_">
					<g id="XMLID_499_">
						<g id="XMLID_500_">
							<path id="XMLID_501_" class="st3" d="M518.85,1782.96c-0.62-0.69-1.3-0.99-3.1-1.39c-0.75-0.12-1.6-0.22-2.44-0.24
								c-1.21-0.07-2.43-0.15-3.55-0.23c-1.49-0.05-2.91-0.38-4.4-0.43c-0.93-0.01-1.95-0.01-2.89-0.11
								c-3.08-0.18-6.17-0.45-9.34-0.62c-1.31-0.07-2.71-0.21-4.02-0.28c-1.31-0.07-2.69-0.03-4.09-0.09
								c-1.03-0.09-1.98-0.28-3-0.28c-2.97,0-5.98-0.47-8.75-0.31c-2.42-0.06-4.85-0.2-7.17-0.27c-1.21-0.07-2.43-0.15-3.73-0.21
								c-1.03-0.09-1.95-0.01-2.98-0.1c-0.65-0.03-1.31-0.07-1.87-0.11c-2.34-0.16-4.69-0.5-7.01-0.56
								c-2.7-0.12-5.41-0.24-8.11-0.37c-2.9-0.2-5.79-0.39-8.67-0.41c-0.28,0.03-0.47-0.05-0.75-0.02
								c-0.38-0.06-0.65-0.03-1.03-0.09c-0.09,0.01-0.18,0.02-0.28-0.07c-0.85-0.11-1.77-0.11-2.7-0.12
								c-1.87-0.11-3.73-0.21-5.6-0.32c-0.65-0.03-1.21-0.07-1.87-0.11c-0.94-0.1-1.96-0.1-2.9-0.2c-1.31-0.07-2.71-0.21-4.02-0.28
								c-1.12-0.08-2.33-0.06-3.53-0.05c-0.65-0.03-1.21-0.07-1.87-0.11c-0.56-0.04-1.13-0.17-1.68-0.12
								c-2.97,0-5.98-0.47-8.75-0.31c-2.42-0.06-4.85-0.2-7.17-0.27c-1.21-0.07-2.43-0.15-3.73-0.21c-1.03-0.09-1.95-0.01-2.98-0.1
								c-0.65-0.03-1.31-0.07-1.87-0.11c-2.34-0.16-4.69-0.5-7.01-0.56c-2.7-0.12-5.41-0.24-8.11-0.37c-2.9-0.2-5.79-0.39-8.67-0.41
								c-0.75-0.02-1.31-0.16-2.06-0.18c-0.85-0.11-1.77-0.11-2.7-0.12c-1.87-0.11-3.73-0.21-5.6-0.32c-3.55-0.23-7.05,0-10.62-0.41
								c-1.97-0.19-3.84-0.39-5.88-0.39c-0.75-0.02-1.49-0.05-2.13,0.01c-0.74,0.07-1.46,0.23-2.1,0.38
								c-1.27,0.3-1.87,0.82-1.73,1.37c0.14,0.54,0.92,0.94,1.81,1.5c0.79,0.48,2.2,0.73,3.51,0.79c0.65,0.03,1.4,0.06,2.15,0.17
								c1.31,0.07,2.52,0.14,3.83,0.3c1.21,0.07,2.42,0.06,3.63,0.13c3.56,0.32,7.18,0.36,10.81,0.49c1.31,0.07,2.62,0.22,3.93,0.29
								c1.58,0.04,2.98,0.1,4.47,0.14c0.18-0.02,0.28-0.03,0.47,0.05c0.18-0.02,0.28,0.07,0.47,0.05c1.42,0.33,3.56,0.32,5.15,0.45
								c1.96,0.1,3.82,0.2,5.78,0.3c4.1,0.18,8.12,0.46,12.21,0.55c0.84,0.02,1.59,0.13,2.43,0.15c2.06,0.18,4.11,0.27,6.16,0.36
								c0.94,0.1,2.15,0.17,3.08,0.18c0.93,0.01,1.67-0.06,2.69,0.03c1.5,0.14,3,0.28,4.49,0.33c5.97,0.29,11.83,0.49,17.73,0.97
								c1.03,0.09,1.96,0.1,2.99,0.19c0.84,0.02,1.57-0.05,2.42,0.06c0.93,0.01,1.97,0.19,2.9,0.29c1.12,0.08,2.24,0.16,3.36,0.25
								c1.21,0.07,2.43,0.15,3.64,0.22c0.47,0.05,0.93,0.01,1.31,0.07c1.12,0.08,2.24,0.16,3.26,0.16c1.96,0.1,3.82,0.2,5.78,0.3
								c4.1,0.18,8.12,0.46,12.21,0.55c0.84,0.02,1.59,0.13,2.43,0.15c2.06,0.18,4.11,0.27,6.16,0.36c1.03,0.09,2.15,0.17,3.08,0.18
								c0.93,0.01,1.67-0.06,2.69,0.03c1.5,0.14,3,0.28,4.49,0.33c5.97,0.29,11.83,0.49,17.73,0.97c1.03,0.09,1.96,0.1,2.99,0.19
								c0.84,0.02,1.57-0.05,2.42,0.06c0.93,0.01,1.97,0.19,2.9,0.29c1.12,0.08,2.24,0.16,3.36,0.25c1.21,0.07,2.43,0.15,3.64,0.22
								c1.12,0.08,1.86,0.01,2.97,0c0.84,0.02,1.97,0.19,2.79,0.02c0.55-0.05,1-0.28,1.36-0.4c0.8-0.35,1.23-0.76,1.38-1.15
								C519.45,1783.46,519.15,1783.21,518.85,1782.96z"/>
						</g>
					</g>
				</g>
			</g>
			<g id="XMLID_492_">
				<g id="XMLID_493_">
					<g id="XMLID_494_">
						<g id="XMLID_495_">
							<path id="XMLID_496_" class="st3" d="M372.81,1775.72c0.64-0.15,0.99-0.37,1.3-0.96c0.16-0.29,0.13-0.57,0.2-0.85l0.07-1.31
								c0.04-0.56,0.27-1.05,0.13-1.59c-0.03-0.37-0.07-0.74-0.09-1.01c-0.01-1.11-0.02-2.23-0.21-3.32l-0.23-1.46
								c-0.13-0.36-0.28-1-0.41-1.45c-0.03-0.37,0.02-0.74-0.19-1.1c-0.46-0.98-0.47-2.09-1.11-2.96c-0.35-0.8-0.7-1.61-1.05-2.32
								l-0.57-1.15c-0.13-0.36-0.42-0.52-0.54-0.88l-0.34-0.62c-0.34-0.71-0.7-1.61-1.13-2.22c-0.54-0.79-1.07-1.57-1.7-2.35
								c-0.63-0.78-1.27-1.65-2.07-2.32c-0.1-0.08-0.1-0.08-0.2-0.17c-0.1-0.08-0.2-0.17-0.21-0.26l-0.1-0.08
								c-0.21-0.26-0.42-0.52-0.71-0.68l-1.52-1.35c-0.2-0.17-0.39-0.24-0.5-0.42l-0.8-0.67c-0.4-0.33-0.8-0.58-1.19-0.82
								c-0.39-0.24-0.78-0.39-1.17-0.63c-0.2-0.17-0.39-0.24-0.59-0.41s-0.3-0.25-0.49-0.33c-0.96-0.38-1.87-1.13-2.91-1.31
								c-0.86-0.29-1.63-0.59-2.4-0.89l-1.25-0.44c-0.38-0.15-0.66-0.12-1.04-0.18l-0.67-0.22c-0.77-0.3-1.63-0.59-2.39-0.71
								c-0.95-0.19-1.88-0.29-2.91-0.38c-1.03-0.09-2.06-0.18-3.07-0.09c-0.28,0.03-0.47-0.05-0.75-0.12
								c-0.28-0.07-0.64,0.06-0.93-0.01c-0.64,0.06-1.3,0.03-2.03,0.09c-1.29,0.12-2.44,0.69-3.74,0.72
								c-0.74,0.07-1.37,0.22-2.09,0.47c-0.27,0.12-0.54,0.14-0.71,0.34c-0.26,0.21-0.42,0.5-0.58,0.7
								c-0.33,0.49-0.27,1.05-0.05,1.49c0.24,0.54,0.63,0.78,1.03,1.11c0.4,0.33,0.86,0.29,1.23,0.26c0.18-0.11,0.45-0.13,0.64-0.15
								c0.45-0.13,0.82-0.17,1.19-0.2s0.72-0.25,1.09-0.29c1.1-0.1,2.19-0.39,3.39-0.5c0.47,0.05,0.85,0.11,1.21,0.07
								c0.46-0.04,0.93,0.01,1.38-0.13l0.18-0.02l0.19,0.08c0.49,0.23,1.13,0.17,1.6,0.22l1.78,0.21c1.31,0.16,2.54,0.42,3.78,0.77
								c0.28,0.07,0.48,0.14,0.76,0.21c0.67,0.22,1.25,0.44,1.83,0.67c0.29,0.16,0.59,0.32,0.87,0.38c0.28,0.07,0.56,0.04,0.85,0.2
								c0.39,0.24,0.88,0.48,1.27,0.72c1.66,0.87,3.32,1.74,4.73,3c0.29,0.16,0.4,0.33,0.7,0.59c0.2,0.17,0.49,0.33,0.59,0.41
								c0.2,0.17,0.41,0.43,0.62,0.69c0.21,0.26,0.42,0.52,0.72,0.77c0.3,0.25,0.51,0.51,0.82,0.85c0.1,0.08,0.2,0.17,0.3,0.25
								c0.21,0.26,0.42,0.52,0.63,0.78l1.06,1.48c0.75,1.05,1.4,2.1,2.06,3.24c0.11,0.18,0.23,0.44,0.34,0.71
								c0.24,0.63,0.49,1.25,0.72,1.79c0.12,0.27,0.24,0.63,0.36,0.9c0.21,0.26,0.32,0.43,0.44,0.7c0.13,0.45,0.27,0.9,0.4,1.36
								c0.54,1.81,1.08,3.61,1.15,5.46c0.03,0.28,0.06,0.64,0.08,0.92s0.14,0.54,0.16,0.73c0.03,0.28-0.03,0.65-0.1,0.94
								c-0.06,0.38-0.02,0.74,0.01,1.11l-0.08,1.12c-0.06,0.38,0.06,0.64,0.08,0.92s-0.13,0.57-0.01,0.93
								c0.11,0.18,0.31,0.34,0.42,0.52c0.31,0.34,0.79,0.48,1.17,0.63C372.27,1775.86,372.53,1775.75,372.81,1775.72z"/>
						</g>
					</g>
				</g>
			</g>
			<g id="XMLID_487_">
				<g id="XMLID_488_">
					<g id="XMLID_489_">
						<g id="XMLID_490_">
							<path id="XMLID_491_" class="st3" d="M474.95,1743.84c0.6,0.5,1.08,0.64,2.36,0.43c0.54-0.14,1-0.28,1.53-0.51
								c0.72-0.25,1.42-0.69,2.14-0.94c0.89-0.36,1.79-0.72,2.68-1.18c0.53-0.33,1.05-0.65,1.58-0.98c1.76-1,3.43-2.08,4.98-3.34
								c0.69-0.53,1.39-1.06,2.07-1.68s1.18-1.32,1.86-1.94c0.52-0.42,1.04-0.84,1.45-1.34c1.16-1.5,2.62-2.84,3.48-4.5
								c0.81-1.28,1.7-2.66,2.41-4.03l1.1-2.14l0.77-1.74l0.54-1.16c0.61-1.45,1.22-2.9,1.54-4.41c0.39-1.8,0.59-3.67,0.42-5.52
								c-0.09-2.03-0.57-4.13-1.57-5.98l-0.23-0.44l-0.34-0.62l-0.11-0.18c-0.33-0.53-0.66-1.15-1.08-1.66
								c-0.84-1.04-1.86-2.06-3.05-2.87c-0.39-0.24-0.79-0.48-1.17-0.63c-0.68-0.31-1.36-0.62-2.03-0.83
								c-0.95-0.28-1.99-0.47-3.02-0.56c-0.84-0.02-1.67,0.06-2.58,0.24c-0.46,0.04-0.92,0.08-1.28,0.21
								c-0.37,0.03-0.83,0.08-1.19,0.2c-1.97,0.74-3.97,1.29-5.43,2.54c-1.4,0.87-2.61,1.91-3.8,3.04c-0.6,0.52-1.2,1.13-1.79,1.74
								c-0.42,0.5-0.84,1.01-1.25,1.51l-0.84,1.01c-1,1.21-2.01,2.41-2.72,3.78c-0.88,1.57-1.65,3.22-2.24,4.85
								c-0.67,1.83-1.24,3.64-1.53,5.53c-0.05,0.47-0.2,0.85-0.34,1.33c-0.13,0.57-0.17,1.22-0.21,1.78
								c-0.17,1.22-0.24,2.44-0.22,3.64c-0.06,2.33,0.62,4.68,0.92,6.97c0.21,1.28,0.42,2.56,1,3.81c0.23,0.44,0.27,0.9,0.59,1.34
								c0.32,0.43,0.72,0.77,1.03,1.11c0.61,0.59,1.27,0.72,1.7,0.31c0.43-0.32,0.56-0.98,0.78-1.65c0.23-0.58-0.04-1.39-0.2-2.12
								c-0.13-0.36-0.25-0.72-0.39-1.17c-0.25-0.72-0.32-1.46-0.48-2.18c-0.16-0.73-0.4-1.36-0.47-2.09
								c-0.2-2.12-0.38-4.14-0.3-6.28c0.12-0.75,0.23-1.51,0.35-2.26c0.11-0.85,0.22-1.6,0.31-2.63l0.07-0.28
								c-0.01-0.09,0.08-0.19,0.16-0.29c0.39-0.78,0.65-2.01,1.04-2.79c0.37-1.05,0.83-2.12,1.29-3.09c1.01-2.14,2.21-4.2,3.72-6
								c0.24-0.39,0.58-0.7,0.93-1.01c0.85-0.82,1.71-1.64,2.57-2.37c0.43-0.32,0.86-0.73,1.39-1.06c0.43-0.32,0.69-0.62,1.21-0.95
								c0.79-0.44,1.51-0.79,2.32-1.05c3.04-1.3,6.33-1.79,8.96-0.45c0.39,0.24,0.79,0.48,1.27,0.72c0.3,0.25,0.69,0.4,1,0.74
								c0.31,0.34,0.63,0.78,0.86,1.22c0.33,0.53,0.56,1.06,0.88,1.5c0.24,0.54,0.48,1.16,0.72,1.79l0.24,0.63
								c0.14,0.54,0.2,1.19,0.24,1.65c0.09,1.01,0.09,2.03,0.01,3.15c-0.26,2.25-0.98,4.45-1.8,6.66c-0.14,0.48-0.38,0.87-0.63,1.26
								c-0.64,1.08-1.19,2.15-1.85,3.14c-0.33,0.49-0.65,0.99-0.97,1.57c-0.23,0.49-0.38,0.87-0.8,1.37l-1.67,2.01
								c-2.26,2.71-4.71,5.26-7.59,7.29c-0.53,0.33-0.96,0.65-1.39,1.06c-0.34,0.31-0.78,0.63-1.13,0.85
								c-0.43,0.32-1.06,0.56-1.51,0.79c-0.62,0.34-1.24,0.67-1.77,0.91l-1.96,0.92c-0.53,0.33-0.97,0.55-1.59,0.89
								c-0.44,0.23-1.08,0.38-1.51,0.7c-0.26,0.21-0.42,0.5-0.58,0.7c-0.33,0.49-0.47,0.97-0.33,1.42
								C474.55,1743.51,474.75,1743.67,474.95,1743.84z"/>
						</g>
					</g>
				</g>
			</g>
			<g id="XMLID_482_">
				<g id="XMLID_483_">
					<g id="XMLID_484_">
						<g id="XMLID_485_">
							<path id="XMLID_486_" class="st3" d="M476.53,1742.86c0.16,0.73,0.57,1.15,1.64,1.71c0.49,0.23,1.05,0.37,1.53,0.51
								c0.76,0.21,1.51,0.32,2.27,0.44c0.95,0.19,1.81,0.48,2.84,0.57c0.65,0.03,1.31,0.07,1.87,0.11c1.97,0.19,4.03,0.37,6.05,0.18
								c0.83-0.08,1.76-0.07,2.68-0.15s1.73-0.35,2.64-0.52c0.64-0.06,1.3-0.03,1.92-0.27c1.81-0.54,3.82-0.82,5.42-1.61
								c1.43-0.6,2.86-1.19,4.29-1.79l2.13-1.03l1.67-0.99l1.05-0.65c1.32-0.77,2.73-1.64,3.84-2.67c1.37-1.24,2.63-2.66,3.6-4.23
								c1.14-1.78,1.98-3.71,2.26-5.69c0.08-0.19,0.06-0.38,0.14-0.48l0.12-0.66l0.08-0.19c0.12-0.66,0.07-1.31,0.1-1.96
								c-0.04-1.39-0.25-2.76-0.74-4.02c-0.13-0.45-0.36-0.9-0.58-1.25c-0.34-0.62-0.68-1.33-1.19-1.84
								c-0.63-0.78-1.35-1.55-2.15-2.12c-0.7-0.49-1.47-0.89-2.16-1.29c-0.39-0.24-0.79-0.48-1.17-0.63s-0.69-0.4-1.07-0.55
								c-2-0.56-4.01-1.21-5.86-1.13c-1.58-0.04-3.25,0.02-4.81,0.17c-0.83,0.08-1.66,0.15-2.48,0.32c-0.64,0.15-1.27,0.3-1.91,0.45
								l-1.18,0.29c-1.45,0.41-2.99,0.83-4.42,1.43c-1.6,0.8-3.19,1.59-4.68,2.66c-1.57,1.07-3.14,2.24-4.5,3.57
								c-0.33,0.4-0.69,0.62-1.03,0.93c-0.43,0.32-0.85,0.82-1.27,1.32c-0.84,0.91-1.6,1.82-2.34,2.81c-1.4,1.89-2.22,4.1-3.33,6.16
								c-0.63,1.17-1.09,2.33-1.43,3.66c-0.14,0.48-0.28,0.95-0.33,1.42c0.05,0.55,0.09,1.01,0.23,1.46
								c0.18,0.91,0.59,1.34,1.14,1.29s1.08-0.38,1.59-0.89c0.52-0.42,0.83-1.1,1.04-1.86c0.15-0.39,0.3-0.77,0.45-1.16
								c0.22-0.67,0.62-1.36,0.83-2.03c0.22-0.67,0.44-1.25,0.84-1.93c1.04-1.77,2.08-3.63,3.42-5.23c0.51-0.51,1.11-1.03,1.61-1.63
								c0.59-0.61,1.09-1.21,1.77-1.93l0.17-0.2c0.09-0.01,0.18-0.11,0.27-0.12c0.8-0.35,1.66-1.17,2.44-1.71
								c0.87-0.64,1.93-1.2,2.9-1.75c2.12-1.12,4.27-2.06,6.53-2.64c0.45-0.13,0.9-0.27,1.36-0.31c1.19-0.2,2.38-0.31,3.49-0.41
								c0.55-0.05,1.11-0.01,1.76-0.07c0.55-0.05,0.91-0.18,1.48-0.04c0.85,0.11,1.7,0.31,2.45,0.42c3.21,0.63,6.15,2.22,7.5,4.88
								c0.23,0.44,0.36,0.9,0.59,1.34c0.13,0.36,0.34,0.71,0.39,1.17c0.04,0.46,0.09,1.01,0.04,1.48c-0.03,0.65-0.17,1.22-0.21,1.78
								c-0.12,0.66-0.26,1.23-0.48,1.81c-0.07,0.28-0.14,0.48-0.22,0.67c-0.23,0.49-0.46,1.06-0.78,1.56
								c-0.57,0.89-1.14,1.68-1.9,2.5c-1.51,1.72-3.43,3.1-5.35,4.39c-0.44,0.23-0.79,0.44-1.24,0.67c-1.07,0.47-2.22,1.04-3.3,1.51
								c-0.54,0.23-1.07,0.47-1.7,0.71c-0.54,0.23-0.89,0.45-1.42,0.69l-2.54,0.7c-3.45,0.87-6.83,1.46-10.45,1.43
								c-0.56-0.04-1.11,0.01-1.77-0.02c-0.46,0.04-1.02,0-1.48,0.04c-0.56-0.04-1.13-0.17-1.69-0.22
								c-0.75-0.12-1.32-0.25-1.98-0.28l-2.08-0.37c-0.56-0.04-1.13-0.17-1.78-0.21c-0.47-0.05-1.15-0.36-1.61-0.32
								c-0.37,0.03-0.64,0.15-0.9,0.27c-0.63,0.24-0.97,0.55-1.12,0.94C476.38,1742.22,476.5,1742.49,476.53,1742.86z"/>
						</g>
					</g>
				</g>
			</g>
			<g id="XMLID_477_">
				<g id="XMLID_478_">
					<g id="XMLID_479_">
						<g id="XMLID_480_">
							<path id="XMLID_481_" class="st3" d="M450.35,1741.75c0.15,0.64,0.18,0.91,0.48,1.16c0.1,0.08,0.19,0.08,0.28,0.07
								c0.18-0.02,0.28-0.03,0.46-0.04c0.18-0.02,0.38,0.15,0.57,0.13c0.09-0.01,0.28-0.03,0.37-0.03c0.37-0.03,0.75,0.12,1.21,0.07
								c0.18-0.02,0.38,0.06,0.56,0.04c0.18-0.02,0.36-0.13,0.54-0.14c0.09-0.01,0.29,0.16,0.38,0.06c0.36-0.13,0.75,0.12,1.1-0.19
								c0.28-0.03,0.64-0.15,0.92-0.08c0.18-0.02,0.28-0.03,0.46-0.04c0.09-0.01,0.27-0.12,0.36-0.13c0.09-0.01,0.18-0.02,0.28-0.03
								c0.28-0.03,0.57,0.13,0.85,0.11c0.37-0.03,0.64-0.06,1.01-0.09s0.75,0.02,1.1-0.1l0.09-0.01c0,0,0.09-0.01,0.1,0.08l0,0
								c0.09-0.01,0.18-0.02,0.37-0.03c0.28-0.03,0.47,0.05,0.74,0.02c0.09-0.01,0.18-0.02,0.28-0.03c0.09-0.01,0.28,0.07,0.38,0.06
								c0.18-0.02,0.38,0.06,0.56,0.04c0.18-0.02,0.27-0.12,0.45-0.13c0.09-0.01,0.18-0.02,0.19,0.08c0.09-0.01,0.19,0.08,0.19,0.08
								c0.36-0.13,0.75,0.12,1.1-0.19c0.28-0.03,0.64-0.15,0.92-0.08c0.18-0.02,0.28-0.03,0.46-0.04c0.09-0.01,0.27-0.12,0.36-0.13
								c0.09-0.01,0.18-0.02,0.28-0.03c0.28-0.03,0.57,0.13,0.85,0.11c0.37-0.03,0.64-0.06,1.01-0.09s0.75,0.02,1.1-0.1
								c0.09-0.01,0.19,0.08,0.28,0.07c0.09-0.01,0.18-0.02,0.37-0.03c0.28-0.03,0.47,0.05,0.75,0.02c0.47,0.05,0.89-0.36,1.28-0.21
								c0.28,0.07,0.48,0.14,0.75,0.02c0.09-0.01,0.18-0.02,0.27-0.12c0.08-0.1,0.15-0.39,0.23-0.49c0.15-0.39,0.2-0.85,0.15-1.41
								s-0.18-0.91-0.31-1.36c-0.13-0.36-0.33-0.53-0.52-0.6c-0.09,0.01-0.18,0.02-0.28-0.07c-0.19-0.08-0.28-0.07-0.47-0.05
								c-0.18,0.02-0.27,0.12-0.46,0.04c-0.48-0.14-0.92,0.08-1.38,0.13c-0.18,0.02-0.29-0.16-0.48-0.14
								c-0.18,0.02-0.37,0.03-0.54,0.14c0,0,0,0-0.09,0.01c0,0,0,0-0.1-0.08c-0.21-0.26-0.48-0.14-0.66-0.12
								c-0.28,0.03-0.47-0.05-0.75-0.02c-0.55,0.05-1.02,0-1.56,0.14c-0.09,0.01-0.18,0.02-0.28,0.03
								c-0.28-0.07-0.56-0.04-0.74-0.02c-0.09,0.01-0.28-0.07-0.37,0.03c-0.08,0.1-0.17,0.2-0.36,0.13
								c-0.18,0.02-0.38-0.06-0.56-0.04c-0.74,0.07-1.47,0.14-2.22,0.11c-0.09,0.01-0.28-0.07-0.37,0.03
								c-0.09,0.01-0.18,0.11-0.27,0.12c-0.09,0.01-0.28-0.07-0.38-0.06c-0.19-0.08-0.28-0.07-0.47-0.05
								c-0.18,0.02-0.28,0.03-0.46,0.04c-0.09,0.01-0.09,0.01-0.18,0.02c-0.09,0.01-0.28,0.03-0.37,0.03
								c-0.28,0.03-0.47-0.05-0.74-0.02c-0.55,0.05-1.02,0-1.56,0.14c-0.09,0.01-0.18,0.02-0.28,0.03
								c-0.28-0.07-0.56-0.04-0.75-0.02c-0.09,0.01-0.28-0.07-0.37,0.03c-0.08,0.1-0.17,0.2-0.36,0.13
								c-0.18,0.02-0.38-0.06-0.56-0.04c-0.74,0.07-1.47,0.14-2.22,0.11c-0.09,0.01-0.28,0.03-0.37,0.03
								c-0.09,0.01-0.18,0.11-0.27,0.12c-0.09,0.01-0.28-0.07-0.38-0.06c-0.19-0.08-0.28-0.07-0.47-0.05
								c-0.18,0.02-0.28,0.03-0.46,0.04c-0.18,0.02-0.27,0.12-0.35,0.22c-0.08,0.1-0.28-0.07-0.36,0.13
								c-0.08,0.1-0.16,0.29-0.14,0.48c-0.06,0.38-0.11,0.85-0.07,1.31C450.3,1741.19,450.32,1741.47,450.35,1741.75z"/>
						</g>
					</g>
				</g>
			</g>
			<g id="XMLID_472_">
				<g id="XMLID_473_">
					<g id="XMLID_474_">
						<g id="XMLID_475_">
							<path id="XMLID_476_" class="st3" d="M465.85,1757.86c0.06,0.64,0.18,0.91,0.48,1.16c0.1,0.08,0.28,0.07,0.38,0.06
								c0.18-0.02,0.37-0.03,0.55-0.05c0.28-0.03,0.49,0.23,0.75,0.12c0.18-0.02,0.28-0.03,0.46-0.04c0.47,0.05,1.04,0.18,1.5,0.14
								c0.18-0.02,0.47,0.05,0.65,0.03c0.18-0.02,0.45-0.13,0.64-0.15c0.18-0.02,0.29,0.16,0.48,0.14c0.45-0.13,0.95,0.19,1.38-0.13
								c0.37-0.03,0.74-0.07,1.2-0.11c0.18-0.02,0.38,0.06,0.56,0.04s0.27-0.12,0.46-0.04c0.09-0.01,0.18-0.02,0.28,0.07
								c0.38,0.06,0.76,0.21,1.13,0.17c0.46-0.04,0.84,0.02,1.3-0.03c0.46-0.04,0.94,0.1,1.39-0.04l0.09-0.01
								c0.09-0.01,0.1,0.08,0.19,0.08c0,0,0,0,0.09-0.01c0.1,0.08,0.28-0.03,0.47,0.05c0.28-0.03,0.56,0.04,0.93,0.01
								c0.09-0.01,0.18-0.02,0.28-0.03c0.18-0.02,0.28,0.07,0.47,0.05c0.18-0.02,0.47,0.05,0.65,0.03s0.36-0.13,0.54-0.14
								c0.09-0.01,0.19,0.08,0.28,0.07c0.1,0.08,0.19,0.08,0.28,0.07c0.45-0.13,0.95,0.19,1.38-0.13c0.37-0.03,0.74-0.07,1.2-0.11
								c0.18-0.02,0.38,0.06,0.56,0.04c0.18-0.02,0.27-0.12,0.46-0.04c0.09-0.01,0.18-0.02,0.28,0.07c0.38,0.06,0.76,0.21,1.13,0.17
								c0.46-0.04,0.84,0.02,1.3-0.03c0.46-0.04,0.94,0.1,1.39-0.04c0.09-0.01,0.19,0.08,0.28,0.07c0.1,0.08,0.28-0.03,0.47,0.05
								c0.28-0.03,0.56,0.04,0.93,0.01c0.56,0.04,1.17-0.39,1.75-0.16c0.29,0.16,0.66,0.12,0.94,0.1c0.09-0.01,0.28-0.03,0.36-0.13
								c0.08-0.1,0.25-0.3,0.33-0.49c0.24-0.39,0.29-0.86,0.24-1.41s-0.18-0.91-0.31-1.36c-0.13-0.45-0.34-0.62-0.61-0.59
								c-0.09,0.01-0.18,0.02-0.38-0.06c-0.19-0.08-0.38-0.06-0.65-0.03c-0.18,0.02-0.36,0.13-0.55,0.05
								c-0.57-0.13-1.11,0.01-1.76,0.07c-0.19-0.08-0.38-0.15-0.66-0.12c-0.28,0.03-0.46,0.04-0.73,0.16l-0.09,0.01
								c0,0-0.09,0.01-0.1-0.08c-0.21-0.26-0.57-0.13-0.85-0.2c-0.28-0.07-0.65-0.03-0.93-0.01c-0.64,0.06-1.3,0.03-1.94,0.09
								c-0.09,0.01-0.28,0.03-0.38-0.06c-0.38-0.06-0.65-0.03-1.03-0.09c-0.18,0.02-0.38-0.06-0.46,0.04
								c-0.18,0.02-0.27,0.12-0.45,0.13c-0.28-0.07-0.47-0.05-0.75-0.12c-0.93-0.01-1.94,0.09-2.88-0.01
								c-0.18,0.02-0.28-0.07-0.46,0.04c-0.09,0.01-0.27,0.12-0.36,0.13c-0.18,0.02-0.28-0.07-0.48-0.14
								c-0.19-0.08-0.38-0.06-0.56-0.04s-0.37,0.03-0.56-0.04c-0.09,0.01-0.18,0.02-0.18,0.02c-0.18,0.02-0.37,0.03-0.56-0.04
								c-0.28-0.07-0.65-0.03-0.93-0.01c-0.64,0.06-1.3,0.03-1.94,0.09c-0.09,0.01-0.28,0.03-0.38-0.06
								c-0.38-0.06-0.65-0.03-1.03-0.09c-0.18,0.02-0.38-0.06-0.46,0.04c-0.18,0.02-0.27,0.12-0.45,0.13
								c-0.28-0.07-0.47-0.05-0.75-0.12c-0.93-0.01-1.94,0.09-2.88-0.01c-0.18,0.02-0.28-0.07-0.46,0.04
								c-0.09,0.01-0.27,0.12-0.36,0.13c-0.18,0.02-0.28-0.07-0.48-0.14c-0.19-0.08-0.38-0.06-0.56-0.04
								c-0.18,0.02-0.37,0.03-0.56-0.04c-0.18,0.02-0.27,0.12-0.45,0.13c-0.18,0.02-0.28-0.07-0.46,0.04
								c-0.08,0.1-0.16,0.29-0.23,0.49c-0.15,0.39-0.2,0.85-0.26,1.23C465.71,1757.41,465.82,1757.59,465.85,1757.86z"/>
						</g>
					</g>
				</g>
			</g>
		</g>
		<g id="XMLID_146_">
			<path id="XMLID_147_" class="st4" d="M337.97,628.35l248.24-89.96c0.01,0,0.02-0.01,0.03-0.01l4.67-2.07
				c3.64-1.45,7.57-2.65,11.37-3.11l386.36-51.63c25.67-3.51,49.35,14.58,52.69,40.26c3.33,24.31-12.92,46.85-36.45,52.03
				l-371.44,80.96c-0.56,0.12-0.78-0.69-0.23-0.87l157.46-33.4c0.54-0.17-182.49-11.78-157.14,34.24l-229.4,105.96
				c-36.48,19.17-83.71,7.45-102.89-29.03c-19.19-36.49-5.05-81.6,31.43-100.77c1.58-0.84,3.51-1.71,5.27-2.57
				C337.94,628.36,337.96,628.35,337.97,628.35z"/>
		</g>
		<path class="st5" d="M553.67,26.22c-53.96-38.6-118.86-12.2-127.43,43.62c-11.13,72.43,3.07,130.74-14.88,178.8
			c-27.83,74.5-20.03,147.67-20.03,147.67c73.49-100.37,149.56-58.92,191.46-159.72C596.24,204.2,605.37,63.2,553.67,26.22z"/>
		<polygon class="st6" points="532.43,270.22 468.05,270.28 467.94,147.12 507.28,147.08 		"/>
		<path class="st7" d="M579.8,84.68c10.93,50.54,2.93,101.53-27.58,112.61c-28.62,10.4-78.32-16.99-101.1-66.94
			c-23.98-52.59-12.33-91.93,30.04-106.61C526.19,8.14,567.83,29.27,579.8,84.68z"/>
		<polygon class="st6" points="608.17,901.12 606.67,890.87 594.54,808.22 420.59,845.92 436.58,901.28 		"/>
		<polygon class="st6" points="518.76,901.21 531.18,825.91 354.55,808.43 351.72,891.9 351.4,901.36 		"/>
		<polygon class="st8" points="646.41,901.09 632.88,792.78 386.49,793.01 412.41,901.3 		"/>
		<path class="st8" d="M546.43,901.18c5.72-64.42,9.16-108.33,9.16-108.33l-236.73,0.22c0,0,1.23,44.63,2.03,108.32L546.43,901.18z"
			/>
		<path class="st9" d="M842.43,476.21l77.95,140.31c0,0-183.67,85.38-267.03,46.35C536.42,608.1,334.56,380.39,397.52,302.92
			c69.91-86.04,179.85,132.47,294.12,200.35C740.63,532.36,842.43,476.21,842.43,476.21z"/>
		<path class="st10" d="M445.67,264.1c0,0,50.69,44.36,101.31,14.71c0,0,17.5,185,40.22,260.46s81.73,267.39,81.73,267.39
			l-360.37,6.68C298.57,644.45,362.21,452.52,445.67,264.1z"/>
		<path class="st7" d="M482.23,385.86c-23.55,44.11-46.31,90.08-67.07,135.92c-10.36,22.99-20.26,46.11-29.23,69.29
			c-8.93,23.13-17.07,46.52-22.67,69.05c-1.38,5.65-2.49,11.01-3.46,16.51l-2.78,18.15c-1.61,12.31-3.14,24.69-4.39,37.25
			c-2.54,25.07,60.9,18.74,59.23,44.16c-3.21,50.84-5.37,102.17-6.57,153.11l-0.58,24.64l-146.48,37.46l-0.82-24.63
			c-1.73-51.99-2.5-103.6-2.19-155.64c0.23-26.01,33.96-57.43,35.12-83.7c0.56-13.12,1.42-26.36,2.4-39.65l1.92-20.16
			c0.87-7.24,2.01-14.54,3.32-21.48c5.41-27.77,13.04-53.49,21.32-78.84c8.32-25.3,17.44-50.02,26.98-74.49
			c19.24-49.01,39.75-96.5,62.24-144.45l17.58-37.46l75.64,38.45L482.23,385.86z"/>
		<path class="st11" d="M432.95,242.56c0,0-175.73,263.34-139.64,544.03c0,0-15.07,55.16,184.6,47.45
			c199.67-7.7,211.07-35.28,211.07-35.28c-63.35-150.59-112.6-321.06-137.18-526.33C551.79,272.43,477.14,275.25,432.95,242.56z"/>
		<path class="st9" d="M414.53,845.9l-166.6,20.77c0,0,18.71-176.53,41.43-276.71c28.57-125.93,81.89-313.55,178.42-288.09
			c126.15,33.27-56.58,286.14-69.72,355.43C387.43,713.28,414.53,845.9,414.53,845.9z"/>
		<path class="st5" d="M495.81,9.94c-14.64,0.01-24.67,1.33-37.13,7.81c-20.03,10.4-46.45,35.24-51.65,91.46
			c-4.85,52.43,16.17,78.07-28.57,127.56c-50.35,38.3-140.14,31.85-129.69,117.68c10.45,85.83,124.27,74.53,151.28,31.58
			c27.02-42.94,23.94-81.19,38.96-108.26c15.03-27.07,41.16-11.23,54.2-41.1c15.29-28.1-11.36-91.07-16.16-101.92
			c3.19-10.57,7.32-22.16,24.44-26.85c36.72-10.05,67.14-44.85,67.13-56.04C568.61,40.67,534.99,9.91,495.81,9.94z"/>
		
			<ellipse transform="matrix(0.9121 -0.4099 0.4099 0.9121 -7.629 208.2429)" class="st7" cx="481.91" cy="121.92" rx="14" ry="16.79"/>
		<g id="XMLID_148_">
			<g id="XMLID_168_">
				<g id="XMLID_169_">
					<path id="XMLID_170_" class="st12" d="M543.78,144.46c0,0.4,0,0.8,0.13,1.06c0.13,0.13,0.13,0.27,0.27,0.4
						c0.13,0.13,0.4,0,0.53,0.13c0.27,0.13,0.4,0.27,0.67,0.27l0.8,0.13c0.27,0,0.53,0,0.8,0c0.27,0,0.4,0,0.67,0
						c0.13,0,0.4,0.13,0.53,0.13c0.27,0,0.4,0,0.67,0c1.33-0.13,2.8-0.13,4.26-0.67c0.4-0.13,0.67-0.27,1.06-0.53
						c0.27-0.13,0.4-0.13,0.67-0.27c0.27-0.13,0.4-0.4,0.67-0.53c0.4-0.4,0.8-0.8,1.06-1.33c0.13-0.13,0.27-0.27,0.4-0.53
						c0.67-0.93,0.93-2,1.06-3.06c0.13-0.53,0.13-0.93,0.13-1.46c0-0.27,0-0.53,0-0.8c0,0,0-0.13,0-0.27l-0.13-0.8
						c0-0.27,0-0.53-0.13-0.8c0-0.27-0.13-0.4-0.13-0.67c0-0.13,0-0.4,0-0.53c0-0.27-0.13-0.4-0.13-0.67
						c-0.27-1.2-0.4-2.53-0.67-3.73c-0.13-0.27-0.13-0.67-0.27-0.93c0-0.13,0-0.27,0-0.53c0-0.27-0.13-0.4-0.13-0.67
						c0-0.53-0.13-0.93-0.27-1.33c-0.13-0.13-0.13-0.4-0.13-0.53c-0.13-0.93-0.27-1.73-0.4-2.53c-0.13-0.4-0.13-0.8-0.27-1.2
						c0-0.4,0-0.8-0.27-1.06v-0.13v-0.13c0-0.27-0.13-0.67-0.13-0.93c-0.13-0.27-0.13-0.53-0.27-0.8c-0.13-0.8-0.13-1.6-0.4-2.26
						c-0.13-0.27-0.13-0.53-0.13-0.8s0-0.53-0.13-0.8c0-0.13-0.13-0.27-0.13-0.4c0-0.27-0.13-0.53-0.53-0.67
						c-0.27-0.13-0.67-0.13-1.06-0.13c-0.53,0-0.8,0.27-1.06,0.53c0,0.13-0.27,0.4-0.27,0.53c0,0.13,0,0.27,0,0.4
						c0,0.4,0.13,0.8,0.27,1.2c0.27,0.8,0.13,1.6,0.27,2.26l0.27,1.2c0,0.13,0.13,0.4,0.13,0.53s0.13,0.27,0.13,0.4
						c0,0.67,0.13,1.2,0.27,1.86c0.13,0.67,0.13,1.2,0.27,1.73c0.13,0.53,0.27,0.93,0.4,1.46l0.13,0.4c0,0.27,0,0.4,0,0.67l0.13,0.8
						c0.13,0.4,0.13,0.93,0.27,1.46c-0.13,0.67,0.27,1.2,0.27,1.86c0,0.13,0.13,0.27,0.13,0.4s0.13,0.27,0.13,0.4
						c0,0.27,0,0.53,0,0.8l0.13,0.8l0.13,0.67v0.4l0.27,1.06c0.13,0.13,0.13,0.4,0.13,0.53l0,0c0,0,0,0,0,0.13v0.13
						c0,0.67,0,1.06,0,1.6c-0.13,0.4-0.13,0.93-0.27,1.33c-0.13,0.27-0.13,0.67-0.27,1.06l-0.13,0.27c0,0.13-0.13,0.13-0.27,0.27
						c-0.13,0.13-0.27,0.27-0.4,0.4c-0.27,0.27-0.53,0.53-0.93,0.67c-0.4,0-0.8,0.4-1.33,0.4c-0.27,0-0.4,0.27-0.53,0.27
						c-0.27,0-0.53,0-0.8,0l-0.8,0.13c-0.53,0-1.06,0-1.73,0c-0.13,0-0.4-0.13-0.53-0.13c-0.4-0.13-0.67,0-0.93,0l-0.67-0.13
						c-0.13,0-0.4,0-0.53,0c-0.4,0.13-0.53,0.27-0.8,0.8C543.78,143.92,543.65,144.06,543.78,144.46z"/>
				</g>
			</g>
			<g id="XMLID_165_">
				<g id="XMLID_166_">
					<path id="XMLID_167_" class="st12" d="M473.78,121.48c0.27,0.27,0.53,0.4,0.8,0.53c0.13,0,0.27,0.13,0.4,0.13
						s0.13-0.13,0.27-0.13c0.13-0.13,0.13,0,0.27-0.13l0.27-0.27c0.13-0.13,0.27-0.13,0.27-0.27c0-0.13,0-0.27,0.13-0.27
						s0.13,0,0.27,0s0.27-0.13,0.27-0.13c0.4-0.27,0.8-0.53,1.33-0.67c0.13-0.13,0.27-0.13,0.4-0.27c0.13-0.13,0.13,0,0.27,0
						s0.13-0.13,0.27-0.13c0.13,0,0.4,0,0.53-0.13c0.13,0,0.13,0,0.27,0c0.53,0,0.67,0,1.06,0c0.13,0,0.4,0,0.53,0s0.13,0,0.27,0
						h0.13h0.27c0.13,0,0.13,0,0.27,0s0.13,0,0.27,0l0.13,0.13c0.13,0.13,0.13,0.13,0.27,0.13c0.53,0,1.06,0.27,1.46,0.53
						c0.13,0.13,0.27,0.13,0.4,0.13c0.13,0.13,0.13,0.13,0.13,0.27c0.13,0,0.13,0.13,0.27,0.13c0.13,0.13,0.27,0.13,0.4,0.27
						l0.13,0.13c0.13,0.27,0.4,0.53,0.67,0.8c0.13,0.13,0.27,0.27,0.4,0.4c0.13,0.13,0.13,0.27,0.4,0.27l0,0l0,0
						c0,0.13,0.13,0.27,0.13,0.4c0,0.13,0.13,0.13,0.27,0.27c0.13,0.4,0.13,0.67,0.4,0.93c0.13,0,0.13,0.13,0.13,0.27
						c0,0,0.13,0.13,0.13,0.27l0.13,0.13c0,0.13,0.27,0.27,0.53,0.27c0.4,0,0.67,0,1.06,0s0.8-0.13,1.06-0.4
						c0.13-0.13,0.27-0.27,0.4-0.4c0-0.13,0-0.13,0-0.27c0-0.27-0.13-0.4-0.27-0.67c-0.27-0.27-0.13-0.8-0.4-1.2l-0.4-0.53
						c0-0.13,0-0.13-0.13-0.27c0,0-0.13,0-0.13-0.13c0-0.4-0.27-0.67-0.53-0.93c-0.27-0.27-0.4-0.53-0.67-0.8
						c-0.13-0.27-0.4-0.4-0.67-0.53l-0.13-0.13c-0.13,0-0.13-0.13-0.27-0.27l-0.4-0.27c-0.13-0.13-0.4-0.27-0.67-0.53
						c-0.27-0.4-0.67-0.4-0.93-0.67c-0.13,0-0.13,0-0.27,0c-0.13-0.13-0.13-0.13-0.27-0.13c-0.13-0.13-0.27-0.27-0.4-0.27
						l-0.53-0.13c-0.13-0.13-0.27-0.13-0.4-0.13c-0.13-0.13-0.13-0.13-0.27-0.13l-0.67-0.13c-0.13,0-0.27,0-0.4,0l0,0h-0.13h-0.13
						c-0.4-0.13-0.67-0.13-1.06-0.13c-0.4,0-0.67,0-1.06,0c-0.27,0-0.53,0.27-0.8,0.27h-0.27c-0.13,0-0.27,0-0.4,0l-0.4,0.13
						c-0.13,0-0.4,0-0.8,0.13c-0.4-0.13-0.67,0.27-1.06,0.27c-0.13,0-0.13,0.27-0.27,0.27c-0.13,0.13-0.4,0-0.53,0.13l-0.4,0.27
						c-0.4,0.27-0.67,0.53-0.93,0.8c0,0.13-0.13,0.27-0.27,0.27c-0.27,0-0.27,0.27-0.4,0.4l-0.27,0.27c0,0-0.13,0.13-0.13,0.27
						c0,0.4,0,0.53,0.4,0.93C473.92,120.95,474.05,121.08,473.78,121.48z"/>
				</g>
			</g>
			<g id="XMLID_162_">
				<g id="XMLID_163_">
					<path id="XMLID_164_" class="st12" d="M477.91,129.73c0.27,0,0.67,0,0.93,0c0.13,0,0.27,0,0.4,0c0.13,0,0.13-0.13,0.13-0.13
						s0.13,0,0.13-0.13v-0.27c0-0.13,0-0.13,0-0.27c0-0.13,0-0.27,0-0.27l0.13-0.13c0.13,0,0.13,0,0.13-0.13
						c0-0.4,0.27-0.67,0.53-1.06c0,0,0.13-0.13,0.13-0.27c0-0.13,0-0.13,0.13-0.13c0.13,0,0.13-0.13,0.13-0.13
						c0.13-0.13,0.13-0.27,0.27-0.4l0.13-0.13c0.27-0.13,0.4-0.4,0.67-0.53c0-0.13,0.13-0.13,0.27-0.27l0.13-0.13h0.13l0.27-0.13
						c0,0,0.13,0,0.13-0.13l0.13-0.13h0.13c0-0.13,0.13-0.13,0.13-0.13c0.4-0.27,0.8-0.27,1.2-0.27c0,0,0.13-0.13,0.27-0.13
						l0.13,0.13c0.13,0,0.13,0,0.27,0c0.13,0,0.27,0,0.4,0h0.13c0.27,0.13,0.53,0.13,0.8,0.27c0.13,0.13,0.27,0.13,0.4,0.13
						c0.13,0,0.27,0.13,0.4,0l0,0l0,0c0.13,0.13,0.13,0.27,0.27,0.27c0,0,0.13,0,0.27,0c0.27,0.13,0.4,0.4,0.67,0.4
						c0,0,0,0.13,0.13,0.13s0.13,0.13,0.27,0.13l0.13,0.13c0.13,0.13,0.27,0,0.53-0.13c0.27-0.27,0.53-0.4,0.8-0.67
						c0.27-0.27,0.53-0.67,0.67-0.93c0.13-0.13,0.13-0.27,0.13-0.4c0-0.13-0.13-0.13-0.13-0.27c-0.13-0.27-0.27-0.4-0.53-0.4
						c-0.4,0-0.53-0.53-0.93-0.67l-0.53-0.27c-0.13,0-0.13-0.13-0.27-0.13c-0.13,0-0.27,0-0.27,0c-0.13-0.27-0.53-0.27-0.8-0.4
						c-0.27-0.13-0.53-0.13-0.8-0.27s-0.53,0-0.8,0h-0.27c-0.13,0-0.13-0.13-0.27-0.13h-0.4c-0.27,0-0.4,0-0.8,0
						c-0.27-0.13-0.67,0-0.93,0l-0.13,0.13c0,0.13,0,0.13-0.13,0.13c-0.13,0-0.27,0-0.4,0l-0.4,0.13c0,0-0.13,0.13-0.27,0.13h-0.13
						l-0.53,0.27c-0.13,0-0.13,0-0.27,0.13l0,0l-0.13,0.13h-0.13c-0.27,0-0.53,0.27-0.8,0.4c-0.27,0.13-0.4,0.4-0.67,0.53
						c-0.27,0.13-0.4,0.4-0.53,0.53l-0.13,0.13c-0.13,0-0.13,0-0.27,0.13l-0.27,0.27c-0.13,0.13-0.27,0.27-0.53,0.53
						c-0.27,0-0.27,0.4-0.53,0.67c-0.13,0-0.13,0.13-0.13,0.27c0,0.13-0.13,0.27-0.27,0.4l-0.13,0.4c-0.13,0.27-0.13,0.67-0.27,0.93
						c0,0.13-0.13,0.13-0.13,0.27c-0.13,0.13,0,0.4,0,0.53l-0.13,0.4c0,0.13-0.13,0.13,0,0.27c0.27,0.13,0.4,0.27,0.93,0.4
						C477.11,129.47,477.24,129.6,477.91,129.73z"/>
				</g>
			</g>
			<g id="XMLID_159_">
				<g id="XMLID_160_">
					<path id="XMLID_161_" class="st12" d="M538.33,152.17c-0.27,0.13-0.53,0.4-0.8,0.53c-0.13,0-0.27,0.13-0.27,0.27
						c-0.13,0.13,0,0.13,0,0.27c0,0.13,0,0.27,0,0.4l0.13,0.4c0.13,0,0.13,0.13,0.27,0.27c0.13,0.13,0.27,0.13,0.27,0.27
						c0.13,0.13,0.13,0.13,0.13,0.27c0,0.13,0,0.13,0.13,0.27c0.4,0.53,0.8,1.06,1.2,1.6c0.13,0.13,0.27,0.13,0.4,0.27
						c0.13,0,0.13,0.13,0.13,0.27c0,0.13,0.13,0.13,0.27,0.27c0.13,0.13,0.27,0.27,0.53,0.4c0.13,0,0.27,0,0.27,0.13
						c0.27,0.4,0.67,0.67,1.06,0.93c0.13,0.13,0.27,0.27,0.53,0.4c0.13,0,0.27,0.13,0.4,0.13c0,0.13,0.13,0.13,0.13,0.13l0.4,0.13
						c0.13,0,0.27,0.13,0.4,0.13c0.13,0,0.27,0,0.4,0s0.13,0.13,0.27,0.13c0,0.13,0.13,0.13,0.27,0.13c0.67,0.13,1.33,0.4,2,0.53
						c0.13,0,0.4,0,0.53,0c0.13,0,0.13,0.13,0.27,0.13c0.13,0,0.27,0,0.4,0c0.13,0,0.4,0,0.67,0c0.13,0,0.13,0,0.27,0
						c0.53,0,0.93,0,1.46,0c0.27,0,0.4-0.13,0.67-0.13c0.13-0.13,0.4,0,0.53-0.27l0,0l0,0c0.13,0,0.4,0,0.53,0
						c0.13,0,0.27-0.13,0.4-0.13c0.4,0,0.8,0,1.2-0.27c0.13-0.13,0.27,0,0.4-0.13c0.13-0.13,0.27-0.13,0.4-0.27
						c0.13-0.13,0.27-0.13,0.27-0.13c0.13,0,0.13-0.27,0.13-0.53c0-0.4-0.13-0.67-0.27-1.06c-0.27-0.4-0.4-0.8-0.67-0.93
						c-0.13-0.13-0.27-0.27-0.4-0.27c-0.13,0-0.27,0-0.27,0c-0.13,0-0.27,0.13-0.4,0.27c-0.27,0.13-0.67,0-0.93,0.13l-0.4,0.13
						c-0.13,0.13-0.13,0.13-0.27,0.13c0,0.13,0,0.13-0.13,0.13c-0.27,0-0.53,0.13-0.8,0.13c-0.27,0-0.4,0-0.67,0
						c-0.27,0-0.4,0.13-0.67,0.13h-0.13c-0.13,0-0.13-0.13-0.27-0.13h-0.27c-0.27,0-0.4,0-0.67-0.13c-0.13-0.27-0.4-0.13-0.67-0.27
						h-0.13c0,0,0,0-0.13,0c-0.13,0-0.13-0.13-0.27-0.13l-0.4-0.13c-0.13,0-0.13,0-0.27,0l-0.13-0.13l-0.4-0.13
						c-0.13-0.13-0.13-0.13-0.27-0.13l0,0h-0.13l0,0c-0.27-0.13-0.4-0.27-0.67-0.4c-0.13-0.13-0.4-0.27-0.53-0.4
						c-0.13-0.13-0.4-0.13-0.53-0.27l-0.13-0.13c0-0.13,0-0.27-0.13-0.27l-0.27-0.27c-0.13-0.13-0.27-0.4-0.4-0.53
						c0-0.4-0.27-0.4-0.4-0.67c0-0.13-0.27,0-0.27-0.13c-0.13-0.13,0-0.27-0.13-0.4l-0.27-0.27c-0.13-0.27-0.4-0.53-0.53-0.67
						c-0.13-0.13-0.13-0.13-0.13-0.27c0-0.13-0.27-0.13-0.27-0.27l-0.13-0.27c0,0,0-0.13-0.13-0.13c-0.27,0-0.4,0-0.93,0.13
						C538.86,151.38,538.73,151.51,538.33,152.17z"/>
				</g>
			</g>
			<g id="XMLID_157_">
				<path id="XMLID_158_" class="st12" d="M529.28,124.09l-0.13-1.6c-0.13-2,1.46-3.59,3.33-3.73c2.26-0.27,3.59,1.46,3.73,3.33
					l0.13,1.6c0.13,2-1.46,3.59-3.33,3.73h-0.13C531.14,127.42,529.54,125.96,529.28,124.09z"/>
			</g>
			<g id="XMLID_155_">
				<path id="XMLID_156_" class="st12" d="M566.94,122.1l-0.13-1.6c-0.13-2,1.46-3.59,3.33-3.73c2.4-0.13,3.59,1.46,3.73,3.33
					l0.13,1.6c0.13,2-1.46,3.59-3.33,3.73h-0.13C568.8,125.42,567.21,123.96,566.94,122.1z"/>
			</g>
			<g id="XMLID_152_">
				<g>
					<g id="XMLID_00000099627400620869630200000000137047420470955648_">
						<path id="XMLID_00000078033686918994472610000002530515879806265481_" class="st5" d="M524.35,112.65
							c0.13,0.27,0.4,0.53,0.67,0.67c0,0.13,0.13,0.27,0.27,0.27s0.13-0.13,0.27-0.13c0.13,0,0.27,0,0.27,0l0.27-0.13
							c0,0,0.13,0,0.13-0.13l0.13-0.13h0.13l0.13-0.13c0.4-0.27,0.8-0.53,1.2-0.67c0.13-0.13,0.13-0.13,0.27-0.27
							c0.13,0,0.13,0,0.27,0c0.13,0,0.13-0.13,0.27-0.13c0.13-0.13,0.27-0.13,0.4-0.27c0-0.13,0.13-0.13,0.13-0.13
							c0.4,0,0.67-0.13,0.93-0.27c0.13,0,0.27-0.13,0.4-0.13c0.13-0.13,0.13-0.13,0.27-0.13h0.13h0.27c0.13,0,0.13-0.13,0.27-0.13
							c0,0,0-0.13,0.13-0.13h0.13c0.13,0,0.13,0,0.27,0c0.4-0.13,0.93-0.13,1.33-0.13c0,0,0.13-0.13,0.27-0.13c0,0,0,0.13,0.13,0.13
							c0.13,0,0.13,0,0.27,0c0.13,0,0.27,0,0.4,0h0.13c0.4,0.13,0.67,0,0.93,0.13c0.13,0,0.27,0,0.4,0c0.13,0.13,0.27,0.13,0.4,0
							l0,0l0,0c0,0,0.13,0.13,0.27,0.13c0,0,0.13,0,0.27,0c0.27,0.13,0.53,0.27,0.8,0.27c0.13,0,0.13,0.13,0.27,0.13s0.13,0,0.27,0
							h0.13c0.13,0,0.27-0.13,0.4-0.4c0.13-0.27,0.4-0.53,0.53-0.93c0.13-0.4,0.27-0.8,0.27-1.06c0-0.13,0-0.27,0-0.4
							s-0.13-0.13-0.13-0.13c-0.13-0.13-0.27-0.13-0.53-0.13c-0.4,0-0.67-0.4-0.93-0.4l-0.53-0.13c-0.13,0-0.13,0-0.27,0h-0.13
							c-0.27-0.13-0.53-0.13-0.8-0.13c-0.27-0.13-0.53-0.13-0.8-0.13c-0.27,0-0.4,0.13-0.67,0.13h-0.13c-0.13,0-0.13-0.13-0.27-0.13
							h-0.4c-0.27,0-0.4,0-0.67,0c-0.27-0.13-0.53,0.13-0.8,0c0-0.13-0.13,0-0.13,0s0,0-0.13,0c0,0-0.13,0-0.27,0l-0.4,0.13
							c-0.13,0-0.13,0-0.27,0h-0.13l-0.53,0.13c-0.13,0-0.13,0-0.27,0l0,0h-0.13l0,0c-0.27,0-0.53,0.13-0.8,0.13
							c-0.13,0-0.4,0-0.67,0.13c-0.13,0.13-0.4,0.27-0.53,0.4l-0.13,0.13c-0.13,0-0.13,0-0.27,0l-0.27,0.13
							c-0.27,0.13-0.4,0.13-0.67,0.27c-0.4-0.13-0.53,0.27-0.8,0.27c-0.13,0-0.13,0.27-0.27,0.27c-0.13,0.13-0.27,0.13-0.4,0.13
							l-0.27,0.27c-0.27,0.13-0.4,0.4-0.67,0.53c-0.13,0-0.13,0.13-0.27,0.13c-0.13,0.13-0.13,0.27-0.27,0.4l-0.27,0.27
							c0,0.13-0.13,0.13-0.13,0.27c0,0.27,0.13,0.53,0.4,0.93C523.95,112.38,524.09,112.51,524.35,112.65z"/>
					</g>
				</g>
			</g>
			<g id="XMLID_149_">
				<g>
					<g id="XMLID_00000131339241951285248350000000313369185981343127_">
						<path id="XMLID_00000052069064523007729080000004773887222689493654_" class="st5" d="M576.92,109.19
							c0.13-0.27,0.27-0.53,0.4-0.8c0.13-0.13,0.13-0.27,0.13-0.4c0,0-0.13,0-0.13-0.13c0-0.13,0-0.27-0.13-0.27l-0.27-0.13
							c0,0-0.13-0.13-0.27-0.13c-0.13,0-0.13,0-0.27,0l-0.13-0.13c-0.13-0.13-0.13-0.13-0.27-0.13c-0.53-0.13-0.93-0.53-1.46-0.67
							c-0.13-0.13-0.27-0.13-0.4-0.13c0,0,0-0.13-0.13-0.13c-0.13-0.13-0.13-0.13-0.27-0.13c-0.13-0.13-0.4-0.13-0.53-0.13
							c-0.13,0-0.13,0-0.27,0c-0.27-0.13-0.67-0.13-1.06-0.27c-0.13-0.13-0.4-0.13-0.53-0.13c0,0-0.13,0-0.27,0h-0.13h-0.27
							c0,0-0.13,0-0.27,0c-0.13,0-0.13,0-0.27,0c-0.13,0-0.13-0.13-0.27-0.13c-0.13,0-0.13,0-0.27,0c-0.53,0-1.06,0-1.6,0
							c-0.13,0-0.27,0.13-0.4,0.13c-0.13,0-0.13-0.13-0.27-0.13c-0.13,0-0.13,0-0.27,0c-0.13,0-0.4,0.13-0.53,0.13
							c-0.13,0-0.13,0-0.27,0c-0.27,0-0.67,0.13-1.06,0.13c-0.13,0-0.4,0.13-0.53,0.13c-0.13,0.13-0.27,0-0.4,0.27l0,0l0,0
							c-0.13,0-0.27,0-0.4,0s-0.13,0.13-0.27,0.13c-0.27,0.13-0.67,0.13-0.93,0.4c0,0.13-0.13,0.13-0.27,0.13
							c-0.13,0-0.13,0-0.27,0.13c0,0.13-0.13,0.13-0.13,0.13c-0.13,0-0.27,0.27-0.13,0.53c0.13,0.4,0.27,0.67,0.4,1.06
							c0.27,0.4,0.4,0.8,0.67,0.93c0,0.13,0.13,0.27,0.27,0.27h0.13c0.27,0,0.27-0.13,0.4-0.27c0.27-0.13,0.53,0,0.8-0.13l0.4-0.13
							c0-0.13,0.13-0.13,0.13-0.13l0.13-0.13c0.27,0,0.4-0.13,0.67-0.13c0.27-0.13,0.27-0.13,0.53-0.13c0.27,0,0.4-0.27,0.53-0.27
							h0.13c0.13,0,0.13,0,0.27,0h0.27c0.13,0,0.4,0,0.53,0c0.27,0.27,0.4,0,0.67,0.13c0,0.13,0.13,0,0.13,0h0.13
							c0.13,0,0.13,0.13,0.27,0.13h0.27c0.13,0,0.13,0,0.27,0H570h0.4c0.13,0,0.13,0,0.27,0l0,0h0.13l0,0
							c0.27,0.13,0.4,0.13,0.67,0.13c0.27,0,0.27,0.13,0.53,0.13c0.13,0.13,0.4,0,0.53,0h0.13c0,0,0,0.13,0.13,0.13l0.27,0.13
							c0.27,0.13,0.4,0.13,0.53,0.27c0.13,0.27,0.4,0.13,0.53,0.27c0.13,0,0.13,0,0.27,0c0.13,0.13,0.13,0.27,0.27,0.27l0.27,0.13
							c0.13,0.13,0.53,0.27,0.67,0.27l0.13,0.13c0.13,0.13,0.27,0.13,0.4,0.13l0.27,0.13c0,0,0,0,0.13,0
							c0.13-0.13,0.27-0.27,0.67-0.67C577.32,109.99,577.45,109.85,576.92,109.19z"/>
					</g>
				</g>
			</g>
		</g>
		<g id="XMLID_33_">
			<g id="XMLID_34_">
				<path id="XMLID_35_" class="st3" d="M559.99,269.26c-0.31,1.6-0.46,3.33-0.69,8.12c-0.08,2-0.15,4.26-0.23,6.39l-0.27,9.32
					c-0.12,3.86-0.27,7.45-0.38,11.45l-0.19,7.59l-0.85,23.96c-0.12,3.46-0.27,6.92-0.38,10.38c-0.12,3.46-0.23,6.92-0.35,10.51
					c-0.12,2.53-0.23,5.06-0.38,7.72c-0.27,7.59-0.77,15.17-1.04,22.23c-0.31,6.12-0.65,12.24-1,18.23l-0.62,9.32
					c-0.15,2.53-0.31,4.79-0.46,7.45l-0.35,4.79c-0.42,5.86-0.96,11.71-1.5,17.17c-0.62,6.52-1.38,12.78-2.35,18.77
					c-1.04,6.39-2.38,11.98-3.96,16.64c-0.15,0.4-0.27,0.8-0.42,1.06l-0.58,1.46l-0.19,0.4c-0.54,1.06-1.08,2.4-1.65,3.33
					c-1.19,2-2.42,3.33-3.73,3.86c-0.42,0.13-0.85,0.27-1.27,0.27c-0.69,0-1.35-0.53-2-0.93c-0.88-0.8-1.81-1.86-2.61-3.46
					c-0.73-1.33-1.42-2.79-2.08-4.66c-0.35-0.93-0.65-2.13-0.96-3.06c-0.27-1.06-0.54-2-0.85-3.06c-1.46-5.32-2.58-11.98-3.61-17.97
					c-0.88-5.32-1.61-10.91-2.31-16.64c-0.38-2.93-0.73-5.86-1.08-8.78c-0.27-2.4-0.58-4.52-0.85-7.05l-0.5-4.52
					c-0.62-5.59-1.12-11.58-1.65-17.17c-0.62-6.65-1.15-13.31-1.69-19.96c-0.54-7.32-1.04-14.51-1.5-21.83
					c-0.08-1.86-0.19-3.46-0.27-5.19c-0.12-2.26-0.23-4.52-0.35-6.79c-0.23-4.66-0.42-9.45-0.62-14.11
					c-0.35-9.05-0.77-18.1-0.85-27.15c-0.08-5.19-0.12-9.85-0.19-15.17c-0.04-1.86-0.04-3.59-0.08-5.46c-0.04-2-0.15-3.73-0.19-5.46
					c-0.15-3.19-0.35-4.66-0.54-4.26c-0.23,0.4-0.35,2.4-0.54,4.79c-0.15,2.13-0.23,5.72-0.19,9.32c0,1.86,0.04,3.73,0.04,5.59
					c0,3.33,0.08,6.65,0.12,9.98c0.04,3.19,0.15,6.12,0.23,9.32c0.15,9.32,0.58,18.63,1,27.95c0.15,3.46,0.31,6.79,0.46,10.11
					c0.23,3.99,0.46,7.45,0.73,11.45l0.08,1.2l0.04,1.2c0.15,3.73,0.54,9.05,0.85,13.04c0.35,4.92,0.73,9.72,1.15,14.64
					c0.92,10.25,1.85,20.36,2.96,30.21l0.65,5.86c0.54,5.06,1.15,9.98,1.81,14.91c0.31,2.4,0.65,5.06,1,7.32
					c0.35,2.13,0.62,3.86,0.96,6.12c0.58,3.46,1.12,6.92,1.77,10.25c1.31,6.52,2.85,12.51,4.77,17.3c1.92,4.66,4.19,7.72,6.61,8.12
					c0.81,0,1.62,0,2.38-0.67c0.65-0.4,1.27-1.06,1.85-1.73c0.73-0.8,1.46-1.86,2.11-3.06c0.81-1.33,1.54-3.19,2.27-5.06
					c0.77-2,1.46-4.26,2.11-6.65c0.27-1.06,0.46-1.86,0.65-2.79c0.58-2.26,1.08-4.92,1.46-7.05c0.81-4.39,1.5-9.05,2.04-13.71
					c1.19-10.11,2-20.36,2.69-30.61l0.42-6.12c0.38-5.19,0.73-10.38,1.04-15.7c0.15-2.53,0.31-5.32,0.46-7.85
					c0.12-2.4,0.19-4.26,0.31-6.79c0.19-3.86,0.42-7.59,0.62-11.45c0.73-15.3,1.27-30.34,1.85-45.78l0.23-7.59l0.15-6.26l0.27-7.45
					l0.27-8.78l0.27-9.45c0.08-2.93,0.08-4.92,0.15-7.72c0.04-2.26,0.15-5.06,0.15-7.19c0-1.46-0.04-2.66-0.08-3.59
					c-0.08-2.13-0.23-3.19-0.38-3.46C560.22,267.93,560.11,268.59,559.99,269.26z"/>
			</g>
		</g>
	</g>
</g>
</svg>
