<?xml version="1.0" encoding="utf-8"?>
<!-- Generator: Adobe Illustrator 22.1.0, SVG Export Plug-In . SVG Version: 6.00 Build 0)  -->
<svg version="1.1" id="Capa_1" xmlns="http://www.w3.org/2000/svg" xmlns:xlink="http://www.w3.org/1999/xlink" x="0px" y="0px"
	 viewBox="0 0 286.7 641.1" style="enable-background:new 0 0 286.7 641.1;" xml:space="preserve">
<style type="text/css">
	.st0{fill:#5CBEC6;}
	.st1{fill:#FF867A;}
	.st2{fill:#529AE3;}
	.st3{fill:#54678C;}
	.st4{fill:#F2CDAC;}
	.st5{fill:#4B83A6;}
	.st6{fill:#62B4D6;}
	.st7{fill:#1A1B1D;}
	.st8{fill:#509CC1;}
	.st9{fill:#EAEAEA;}
	.st10{fill:#95B7BF;}
	.st11{fill:#FFFFFF;}
	.st12{fill:#434A59;}
	.st13{fill:none;}
</style>
<path class="st0" d="M286.7,633.1c0,4.4-48.7,8-108.7,8s-108.7-3.6-108.7-8s48.7-8,108.7-8S286.7,628.7,286.7,633.1"/>
<path class="st1" d="M265,529.1c3.2,58.1,3.3,93.8,0,93.8c-16.8,0-41-104.1-60.1-190.6c25.7-1.4,46.3,6.1,54,5.1
	C260.9,463.6,263,494.1,265,529.1"/>
<path class="st1" d="M165.4,443.2c-9.7,83.2-22.1,184.3-34.3,184.3c-12.7,0-14.5-98.5-12.4-188.5C132.8,441.7,149,442.9,165.4,443.2
	"/>
<path class="st2" d="M127,295.6L127,295.6c3-25.5,12.1-57.1,17-64.1c20.7,0.1,40.1,4.9,84.5,1.9c21.8,45.8,17.6,68,19,85.8
	c0.9,11.4,5.9,50.2,11.3,118.2c-7.7,1-29.2,3.6-54.9,5c-12.2,0.7-25.4,1-38.5,0.8c-16.4-0.3-32.6-1.5-46.7-4.2
	C120.3,371.5,124,308.8,127,295.6"/>
<path class="st3" d="M203.4,420.4c0.1,0,0.2,0,0.4,0c0.8-0.2,1.3-1,1.1-1.8c-1.1-4.2-25.9-103.6-40.1-127.6c-0.4-0.7-1.3-1-2.1-0.5
	c-0.7,0.4-1,1.3-0.5,2.1c14,23.6,39.5,125.8,39.8,126.8C202.1,419.9,202.7,420.4,203.4,420.4"/>
<path class="st4" d="M169.7,130l-77.1,55c0,0-81,29.2-75.1,41c5.9,11.8,74.4-9.5,93.3-17.2c19-7.7,51.5-34,58.9-44.4
	C177.1,154,169.7,130,169.7,130"/>
<path class="st5" d="M199.8,77.1c0,0-4.1-4.3-10.4-0.9c-6.2,3.4-10.3,23.2-15.5,27.5c-5.2,4.3-4.7,4.7-3.1,7.9
	c1.6,3.3,15.4,12.2,26.9,12s15.4-8.8,19.3-16.2C220.9,99.9,218.7,74.1,199.8,77.1"/>
<path class="st3" d="M144.1,231.5c12.5,0.1,24.6,1.8,41.9,2.6l39.2,6.2c0,0-6.9,8.8-32.5,11.1c-18,1.6-42.1-2.6-54.8-5.2
	C140.2,239.3,142.4,234,144.1,231.5"/>
<path class="st6" d="M142.1,234.6c15.6-53.1,9.1-78.5,12.8-86.1c14.5-29.9,39.9-27.1,53.2-23.5c13.3,3.5,18.6,12.3,20.9,18.3
	c6.1,16.4-8.4,41.9,1.5,94.7C178.9,261.4,156.4,238.3,142.1,234.6"/>
<path class="st4" d="M204.8,103.6l-1.7,20.8c0,3.2-7.1,8.7-12.1,4.7c-1.5-1.2,0.4-5.5,1.8-8.8l3.7-16.6L204.8,103.6z"/>
<path class="st7" d="M195.1,110.2c3.4,0.1,6.3-0.6,6.3-0.6s-4.3,7.1-7.9,8L195.1,110.2z"/>
<path class="st4" d="M205.8,92.9l0.5,7.5c0.4,5.9-4.1,10.9-10,11.4c-3.6,0.3-7.8-0.6-9.9-3.6c-1.1-1.6-2.1-3.6-1.7-6
	c0.4-2.4,2.9-6.4,3.7-8.3c1.3-2.9,2.3-4.6,3.4-6.2C195.9,81.8,204.6,84.4,205.8,92.9"/>
<path class="st3" d="M148.5,208.8c1.7-8.7,2.9-16.4,3.6-23.1c15.9-3.5,43.8-11.1,68-25.3c0,0-9,27.8-39.4,39.7
	C166.9,205.5,156.1,207.9,148.5,208.8"/>
<path class="st4" d="M217.5,134.7c-19.8,9.1-59.3,23.6-59.3,23.6s-18.5-61.6-19.9-62.4c-2.7-1.6-4.2-2.7-8.2,0.9
	c-1.4,1.3-15.4,84.1,12,97.3c12.7,6.1,24.3,3.7,37-1.8c22.3-9.7,35.1-24.3,41-32C229.7,148.2,223.9,131.8,217.5,134.7"/>
<path class="st4" d="M205.4,100.3c0.5-0.5,0.9-1.1,1.3-1.7c0.7-1.2,2-2.8,3.2-0.9c1.8,2.7-2.3,8.8-5.4,7.6
	C202.1,104.4,204.2,101.7,205.4,100.3"/>
<path class="st7" d="M163.5,173.5c0.1,0,0.1,0,0.2,0c0.3-0.1,0.5-0.4,0.4-0.8c-0.2-0.5-3.8-12.3-5.3-14.7c-0.2-0.3-0.6-0.4-0.8-0.2
	c-0.3,0.2-0.4,0.6-0.2,0.8c1.5,2.3,5.2,14.3,5.2,14.4C163,173.3,163.2,173.5,163.5,173.5"/>
<path class="st8" d="M128,82.5c0,0-5.5-1.5-5.5-2.7c-0.1-1.1,1.7-1.7,2.9-3.4c1.1-1.6,1.6-3.7,1.6-3.7l7.3,1.4L128,82.5z"/>
<path class="st6" d="M134.7,72.3c0,0-13.5,18.4-19.6,19.3c-6.1,0.9,4.8,8.4,9.9,6c5.1-2.5,18.9-19.7,18.9-19.7L134.7,72.3z"/>
<path class="st5" d="M153,61.1c-3-1.9-7.1-4.7-11.5-7.9l-12.5,20.8c4.6,1.4,9.2,3.1,13.7,5.2c2.8,1.3,6.1,0.3,7.7-2.4l4.5-7.4
	C156.6,66.5,155.8,62.9,153,61.1"/>
<path class="st8" d="M115.2,19.4L85.6,68.4c0,0,21-1.2,43.5,5.6l12.5-20.8C129.2,43.9,120.6,29.1,115.2,19.4"/>
<path class="st6" d="M114.9,20.6c1.9,3.4,4.2,7.4,6.9,11.6c-0.4,3.6-2,10.1-7.2,20.4C110,61.5,104,67.1,99.1,69.8
	c-8.4-0.6-13.9-0.3-13.9-0.3L114.9,20.6z"/>
<path class="st5" d="M105.4,46.8c-8.2,13.7-17.5,23.2-20.7,21.3c-3.2-1.9,0.9-14.6,9.1-28.3c8.2-13.7,17.5-23.2,20.7-21.3
	C117.7,20.5,113.6,33.1,105.4,46.8"/>
<path class="st9" d="M82.3,31.8l0.7-1.1c1.7-2.8,5.2-3.8,8.1-2.4l19.4,9.2c-1.4,3-3.1,6.1-5.1,9.4c-1.4,2.4-2.9,4.7-4.4,6.7L83.8,40
	C81.3,38,80.7,34.5,82.3,31.8"/>
<path class="st10" d="M105.4,46.8c1.9-3.2,3.6-6.4,5.1-9.4l-2.4-1.2l-11.1,14l4.1,3.2C102.5,51.5,103.9,49.2,105.4,46.8"/>
<path class="st11" d="M84.6,68.7c2.3,1.1,6.1-2.1,9-5c3.9-4.1,8.3-10,12.3-16.6c4-6.7,7.2-13.3,8.9-18.7c1.3-4,2.3-9,0-10.3
	c-1.5-0.9-3.8,0-6.9,2.8c-2.9,2.5-6,6.2-9.4,10.9l1,0.5c3.3-4.6,6.4-8.1,9.1-10.5c2.6-2.3,4.7-3.3,5.7-2.7c0.8,0.5,0.9,1.8,0.8,2.8
	c-0.1,1.6-0.5,3.7-1.3,6.3c-1.7,5.3-4.8,11.9-8.8,18.4C101,53.1,96.6,59,92.8,63c-1.9,1.9-3.5,3.3-4.9,4.1c-0.9,0.5-2.1,1.1-2.9,0.6
	c-0.6-0.4-0.8-1.4-0.8-2.2c0-1.3,0.2-2.9,0.7-4.9c1.1-4.1,3.3-9.3,6.2-14.8l-0.9-0.7c-3,5.6-5.3,11.1-6.4,15.2
	c-1.2,4.6-1,7.3,0.6,8.3C84.4,68.6,84.5,68.7,84.6,68.7"/>
<path class="st11" d="M142.8,61l7.6,4.1c0.1,0,0.2,0,0.2-0.1l0.5-0.9c0-0.1,0-0.2-0.1-0.2l-7.6-4.1c-0.1,0-0.2,0-0.2,0.1l-0.5,0.9
	C142.7,60.8,142.7,60.9,142.8,61"/>
<path class="st11" d="M141.8,62.9l7.6,4.1c0.1,0,0.2,0,0.2-0.1l0.5-0.9c0-0.1,0-0.2-0.1-0.2l-7.6-4.1c-0.1,0-0.2,0-0.2,0.1l-0.5,0.9
	C141.6,62.8,141.7,62.9,141.8,62.9"/>
<path class="st11" d="M140.7,64.9l7.6,4.1c0.1,0,0.2,0,0.2-0.1l0.5-0.9c0-0.1,0-0.2-0.1-0.2l-7.6-4.1c-0.1,0-0.2,0-0.2,0.1l-0.5,0.9
	C140.6,64.8,140.6,64.9,140.7,64.9"/>
<path class="st11" d="M138.9,54.1c0.2,0.1,0.5,0,0.6-0.2c0.2-0.3,0.1-0.7-0.2-0.8c-0.1-0.1-7.7-5.3-12-11.5
	c-0.2-0.3-0.6-0.3-0.8-0.2c-0.3,0.2-0.3,0.6-0.2,0.8c4.4,6.4,12,11.6,12.3,11.8C138.7,54,138.8,54.1,138.9,54.1"/>
<path class="st11" d="M124.8,40c0.2,0,0.3,0,0.5-0.1c0.3-0.2,0.3-0.6,0.2-0.8l-1.9-2.7c-0.2-0.3-0.6-0.3-0.8-0.2
	c-0.3,0.2-0.3,0.6-0.2,0.8l1.9,2.7C124.6,39.9,124.7,39.9,124.8,40"/>
<path class="st4" d="M139.3,97.5c0,0-3.3-10.7-7.1-12.8s-11.2-3.4-11.4-2.4c-0.2,0.9,5.5,1.6,5.5,1.6s-5.7-0.5-6.7,0.9
	c-1,1.4,0.1,1.5,0.1,1.5s-3,0.9-1,3.3c3.1,3.9,7.9,5.5,8.2,5.7c0.3,0.3,2.7,8.1,7.3,8.4C139,104.1,140.1,101,139.3,97.5"/>
<path class="st4" d="M19.1,218.7c-1.7,0-5.7,3-7.5,4.8c-3.5,3.5-6.7,4.2-8.8,4.2c-2.1,0,0,3.1,3,2.7c3-0.4,7.6-3.1,6.4-0.7
	c-1.2,2.4-16.3,3.6-11.2,6.8c15.2,9.6,24.8-1.4,27.3-9.6C28.4,227,31.2,218.5,19.1,218.7"/>
<path class="st12" d="M104.8,621c5.6,1.3,8.4,6.2,8.9,8.3c0.6,2.5,6.9,1.4,11.2-0.8c4.3-2.2,5.4-5.8,9.5-10.5
	c2.5-2.9,5.1-3.8,6.6-4.1c0.5,2.3,1.1,4.4,1.7,5.7c2.4,5,1.3,13.2-3,14.4c-4.3,1.1-41.6,3.8-49.5-0.4C85.5,631.1,95.6,626,104.8,621
	"/>
<path class="st1" d="M134.4,618c-4.1,4.7-5.2,8.3-9.5,10.5c-4.3,2.2-10.7,3.3-11.2,0.8c-0.5-2-3.3-7-8.9-8.3
	c6-3.2,12.9-7.4,13.8-9.8c2.3-6.1,2.3-33.6,0.7-51.8c-0.3-3.4,29.8-9.2,29.2,6.3c0,0-8.8,41.7-7.4,48.2
	C139.5,614.2,137,615.1,134.4,618"/>
<path class="st12" d="M240.2,621c5.6,1.3,8.8,6.2,9.3,8.3c0.1,0.3,0.1,0.6,0.1,0.8c0.3-0.4,1-0.9,2.1-1.5c4.2-2.2,5.1-5.8,8.9-10.5
	c2.4-2.9,4.9-3.8,6.4-4.1c0.6,2.3,1.3,4.4,2,5.7c2.7,5,2,13.2-2.2,14.4c-4.2,1.1-32.4,3.8-40.6-0.4C221.4,631.1,231.2,626,240.2,621
	"/>
<path class="st1" d="M266.6,581c0,0-1.1,26.4,0.5,32.9c-1.6,0.3-4,1.2-6.4,4.1c-3.8,4.7-4.7,8.3-8.9,10.5c-1.2,0.6-1.8,1.2-2.1,1.5
	c0-0.2,0-0.5-0.1-0.8c-0.6-2-3.7-7-9.3-8.3c5.9-3.2,9.7-8.2,10.4-10.6c2-6.1-8.2-30.7-12.7-51.1C237.2,556,264.1,564,266.6,581"/>
<path class="st7" d="M82.5,194.2c0.1,0,0.3,0,0.4-0.1l11.6-9.6c0.3-0.2,0.3-0.6,0.1-0.8c-0.2-0.3-0.6-0.3-0.8-0.1l-11.6,9.6
	c-0.3,0.2-0.3,0.6-0.1,0.8C82.1,194.1,82.3,194.2,82.5,194.2"/>
<rect class="st13" width="286.7" height="641.1"/>
<g id="XMLID_1605_">
	<g id="XMLID_1625_">
		<g id="XMLID_1626_">
			<path id="XMLID_1627_" class="st7" d="M195.7,101.8c0-0.1,0-0.2-0.1-0.2c0,0-0.1,0-0.1,0l-0.2,0c-0.1,0-0.1-0.1-0.2-0.1
				c0,0-0.1,0-0.1,0c-0.1-0.1-0.3-0.1-0.4-0.1l-0.2-0.1c-0.1,0-0.1,0-0.2-0.1c0,0,0-0.1-0.1-0.1c-0.1,0-0.2-0.2-0.3-0.2
				c-0.1-0.1-0.1-0.1-0.2-0.2c0,0,0-0.1-0.1-0.1s0-0.1,0-0.1l0-0.1c0-0.1,0-0.2,0-0.3c0-0.1,0-0.2,0-0.3c0-0.1,0.1-0.2,0.1-0.4l0,0
				c0,0,0,0,0,0l0,0c0,0,0-0.1,0.1-0.1L194,99l0-0.1l0.1-0.1l0.1-0.2c0-0.1,0-0.1,0.1-0.2c0,0,0.1,0,0.1-0.1s0.1,0,0.1-0.1
				c0.1-0.1,0.2-0.2,0.2-0.4c0.1-0.1,0.1-0.2,0.2-0.3l0.1-0.2c0-0.1,0-0.1,0.1-0.1l0.1-0.1c0.1-0.1,0.1-0.2,0.2-0.3
				c0.1-0.1,0.1-0.2,0.2-0.4c0.1-0.1,0.2-0.2,0.2-0.4c0,0,0.1,0,0.1-0.1c0,0,0.1-0.1,0.1-0.1l0.2-0.2c0.1-0.1,0.1-0.3,0.2-0.5
				c0.1-0.1,0.1-0.2,0.2-0.2c0,0,0-0.1,0-0.1c0,0,0-0.1,0-0.1c0-0.1-0.1-0.2-0.2-0.2c-0.1,0-0.2-0.1-0.2-0.1c-0.1,0-0.2,0-0.2,0.1
				c0,0-0.1,0-0.1,0.1c-0.1,0-0.1,0.1-0.1,0.2s0,0.1-0.1,0.2c-0.1,0.1-0.2,0.3-0.3,0.5c-0.1,0-0.1,0.1-0.1,0.2
				c0,0.1-0.1,0.1-0.1,0.2l0,0l0,0c-0.1,0-0.1,0.1-0.1,0.2c-0.1,0.1-0.1,0.2-0.2,0.2c-0.1,0.2-0.2,0.3-0.3,0.5c0,0,0,0.1-0.1,0.1
				c-0.1,0.1-0.1,0.2-0.2,0.3c0,0.1-0.1,0.1-0.1,0.1c0,0.1,0,0.1,0,0.1c-0.1,0-0.1,0.1-0.1,0.2c-0.2,0.2-0.3,0.5-0.4,0.8
				c0,0.1-0.1,0.1-0.1,0.1c0,0,0,0.1,0,0.1c0,0.1-0.1,0.1-0.1,0.1c-0.1,0-0.1,0.1-0.1,0.2l-0.1,0.2c0,0,0,0.1,0,0.1
				c0,0.1,0,0.1-0.1,0.2c0,0.1-0.1,0.2-0.1,0.3c-0.1,0.2-0.1,0.5,0,0.8c0,0.1,0,0.1,0,0.2c0,0.1,0.1,0.3,0.1,0.4
				c0,0.1,0.1,0.1,0.1,0.2c0,0.1,0.1,0.1,0.1,0.1c0.1,0.1,0.1,0.1,0.2,0.2c0.3,0.2,0.6,0.3,0.9,0.5c0.1,0,0.1,0,0.1,0.1
				c0,0,0.1,0,0.1,0c0.1,0,0.1,0,0.1,0.1c0.1,0,0.1,0,0.2,0.1l0.2,0c0.1,0,0.1,0,0.2,0c0,0,0.1,0,0.1,0c0,0,0.1,0,0.1-0.1
				c0.1,0,0.1-0.1,0.1-0.2C195.7,102,195.7,101.9,195.7,101.8z"/>
		</g>
	</g>
	<g>
		<g id="XMLID_1622_">
			<g id="XMLID_1623_">
				<path id="XMLID_1624_" class="st7" d="M208.3,101.1c0.1,0,0.1-0.1,0.1-0.1c0,0,0,0,0,0l0-0.1c0,0,0-0.1,0-0.1c0,0,0,0,0-0.1
					c0-0.1-0.1-0.1-0.1-0.2l0-0.1c0,0-0.1,0-0.1-0.1c0,0,0,0,0-0.1c-0.1,0-0.1-0.1-0.2-0.1c-0.1,0-0.1-0.1-0.1-0.1l-0.1,0
					c0,0,0,0-0.1,0l0,0c0,0-0.1-0.1-0.1-0.1c-0.1,0-0.1,0-0.2-0.1s-0.1,0-0.2,0l0,0l0,0l0,0c0,0,0,0-0.1,0l-0.1,0c0,0,0,0,0,0
					c0,0,0,0-0.1,0l-0.1,0c0,0,0,0-0.1,0c0,0,0,0,0,0c0,0,0,0,0,0c-0.1,0-0.1,0-0.2,0.1c-0.1,0-0.1,0-0.1,0l-0.1,0c0,0,0,0-0.1,0
					l0,0c0,0-0.1,0-0.1,0c-0.1,0-0.1,0.1-0.2,0.1c-0.1,0-0.1,0.1-0.1,0.1c0,0,0,0,0,0c0,0,0,0,0,0l-0.1,0.1c-0.1,0-0.1,0.1-0.1,0.2
					c0,0-0.1,0-0.1,0.1c0,0,0,0,0,0c0,0,0,0.1,0,0.1c0,0.1,0.1,0.1,0.1,0.1c0.1,0,0.1,0,0.2,0.1c0,0,0.1,0,0.1,0l0,0c0,0,0,0,0,0
					c0,0,0,0,0,0c0.1,0,0.1-0.1,0.1-0.1c0,0,0,0,0.1,0c0,0,0,0,0-0.1l0,0l0,0c0,0,0,0,0.1,0c0,0,0.1,0,0.1,0c0.1,0,0.1-0.1,0.2-0.1
					l0,0c0,0,0,0,0.1,0c0,0,0,0,0,0c0,0,0,0,0,0c0,0,0,0,0.1,0c0.1,0,0.2,0,0.3,0c0,0,0,0,0,0l0,0c0,0,0,0,0,0s0,0,0,0l0,0l0,0
					c0,0,0,0,0,0s0.1,0,0.1,0c0.1,0,0.1,0,0.2,0.1c0,0,0,0,0,0c0,0,0.1,0,0.1,0.1c0,0,0,0,0,0s0,0,0,0s0,0,0,0.1
					c0.1,0.1,0.1,0.1,0.2,0.2c0,0,0,0,0,0s0,0,0,0s0,0,0,0c0,0,0,0,0,0.1l0,0.1c0,0,0,0,0,0c0,0,0,0,0,0s0,0,0.1,0c0,0,0.1,0,0.2,0
					C208.3,101.2,208.3,101.2,208.3,101.1z"/>
			</g>
		</g>
		<g id="XMLID_1619_">
			<g id="XMLID_1620_">
				<path id="XMLID_1621_" class="st7" d="M207.4,102.4c0.1,0,0.1,0,0.2,0c0,0,0,0,0,0l0-0.1c0,0,0-0.1,0-0.1c0,0,0,0,0,0
					c0,0,0-0.1,0-0.2l0-0.1c0,0,0-0.1,0-0.1s0,0,0,0c0-0.1,0-0.1,0-0.1c0-0.1,0-0.1-0.1-0.1l0-0.1c0,0,0,0,0,0l0,0
					c0,0,0-0.1-0.1-0.1c0,0,0-0.1-0.1-0.1c0,0-0.1-0.1-0.1-0.1l0,0l0,0l0,0c0,0,0,0,0,0l-0.1-0.1l0,0c0,0,0,0,0,0l-0.1,0
					c0,0,0,0-0.1,0c0,0,0,0,0,0l0,0c0,0-0.1-0.1-0.1-0.1c-0.1,0-0.1,0-0.1,0l-0.1,0c0,0,0,0,0,0l0,0c0,0-0.1-0.1-0.1,0s-0.1,0-0.1,0
					c0,0-0.1,0-0.1,0c0,0,0,0,0,0s0,0,0,0l-0.1,0c-0.1,0-0.1,0.1-0.2,0.1c0,0-0.1,0-0.1,0c0,0,0,0,0,0c0,0,0,0,0,0.1
					c0,0,0,0.1,0.1,0.2c0,0.1,0.1,0.1,0.1,0.2c0,0,0,0.1,0.1,0.1l0,0c0,0,0,0,0,0s0,0,0,0c0,0,0.1,0,0.1,0c0,0,0,0,0,0
					c0,0,0,0,0.1,0l0,0l0,0c0,0,0,0,0.1,0s0,0,0.1,0c0,0,0.1,0,0.1,0l0,0c0,0,0,0,0.1,0s0,0,0,0l0,0c0,0,0,0,0,0
					c0.1,0,0.1,0,0.2,0.1c0,0,0,0,0,0l0,0l0,0c0,0,0,0,0,0l0,0l0,0l0,0c0,0,0,0,0,0.1c0,0,0,0.1,0.1,0.1l0,0c0,0,0,0,0,0.1
					c0,0,0,0,0,0s0,0,0,0s0,0,0,0c0,0.1,0,0.1,0,0.2c0,0,0,0,0,0l0,0c0,0,0,0,0,0c0,0,0,0,0,0l0,0c0,0,0,0,0,0s0,0,0,0s0,0,0.1,0
					c0,0,0.1,0,0.1,0.1C207.3,102.4,207.3,102.3,207.4,102.4z"/>
			</g>
		</g>
	</g>
	<g id="XMLID_1616_">
		<g id="XMLID_1617_">
			<path id="XMLID_1618_" class="st7" d="M196.1,104c-0.1-0.1-0.1-0.1-0.2-0.1c0,0,0,0,0,0l-0.1,0c0,0-0.1,0-0.1,0c0,0,0,0-0.1,0
				c0,0-0.1,0.1-0.2,0.1l-0.1,0c0,0,0,0.1-0.1,0.1c0,0-0.1,0-0.1,0c-0.1,0-0.1,0-0.1,0.1c0,0-0.1,0.1-0.1,0.1l-0.1,0c0,0,0,0-0.1,0
				l0,0c0,0-0.1,0-0.1,0c0,0-0.1,0-0.2,0c-0.1,0-0.1,0-0.2,0l0,0l0,0l0,0c0,0,0,0-0.1,0l-0.1,0l0,0c0,0,0,0-0.1,0l-0.1,0
				c0,0,0,0-0.1,0c0,0,0,0,0,0l0,0c-0.1,0-0.1,0-0.2,0c-0.1,0-0.1,0-0.2,0l-0.1,0c0,0,0,0-0.1,0l0,0c-0.1,0-0.1-0.1-0.1-0.1
				c-0.1,0-0.1,0-0.1-0.1c-0.1,0-0.1-0.1-0.2-0.1c0,0,0,0,0,0c0,0,0,0,0-0.1l-0.1-0.1c0-0.1-0.1-0.1-0.2-0.1c0,0,0-0.1-0.1-0.1
				c0,0,0,0-0.1,0c0,0-0.1,0-0.1,0c-0.1,0-0.1,0.1-0.2,0.2c-0.1,0.1-0.1,0.1-0.1,0.2c0,0.1,0,0.1,0,0.1c0,0,0,0,0,0.1
				c0,0,0,0.1,0.1,0.1c0,0,0.1,0,0.1,0.1c0.1,0.1,0.2,0.1,0.2,0.2c0,0,0,0.1,0.1,0.1c0,0,0.1,0,0.1,0l0,0l0,0c0,0.1,0.1,0.1,0.1,0.1
				c0.1,0,0.1,0.1,0.1,0.1c0.1,0,0.2,0.1,0.3,0.1c0,0,0,0,0.1,0c0.1,0,0.1,0,0.1,0.1c0,0,0.1,0,0.1,0c0,0,0,0,0.1,0c0,0,0.1,0,0.1,0
				c0.2,0,0.3,0,0.5,0c0,0,0.1,0,0.1,0c0,0,0,0,0.1,0c0,0,0.1,0,0.1,0c0,0,0.1,0,0.1,0l0.1,0c0,0,0,0,0,0c0,0,0.1,0,0.1,0
				c0.1,0,0.1,0,0.2,0c0.1,0,0.2-0.1,0.3-0.1c0,0,0,0,0.1,0c0.1,0,0.1,0,0.2,0c0,0,0.1,0,0.1,0c0,0,0-0.1,0.1,0c0,0,0.1,0,0.1,0
				c0.1-0.1,0.3-0.2,0.4-0.3c0,0,0,0,0.1,0c0,0,0,0,0.1,0c0,0,0,0,0.1,0c0,0,0.1,0,0.1,0l0.1-0.1c0,0,0-0.1,0-0.1c0,0,0,0,0-0.1
				c0,0,0-0.1,0-0.1c0-0.1-0.1-0.1-0.1-0.2C196.2,104,196.2,104,196.1,104z"/>
		</g>
	</g>
	<g id="XMLID_1614_">
		<path id="XMLID_1615_" class="st7" d="M199.4,99.1L199.4,99.1c-0.4-0.2-0.7-0.7-0.5-1.1l0.2-0.3c0.2-0.4,0.6-0.7,1.1-0.5
			c0.4,0.2,0.6,0.7,0.5,1.1l-0.2,0.3C200.3,99,199.8,99.2,199.4,99.1z"/>
	</g>
	<g id="XMLID_1612_">
		<path id="XMLID_1613_" class="st7" d="M191.1,95.7L191.1,95.7c-0.4-0.2-0.7-0.7-0.5-1.1l0.2-0.3c0.2-0.4,0.6-0.7,1.1-0.5
			c0.4,0.2,0.6,0.7,0.5,1.1l-0.2,0.3C192,95.6,191.5,95.8,191.1,95.7z"/>
	</g>
	<g id="XMLID_1609_">
		<g id="XMLID_1610_">
			<path id="XMLID_1611_" class="st7" d="M202.7,96.4c0.1-0.1,0.1-0.1,0.2-0.2c0,0,0,0,0-0.1l0-0.1c0,0,0-0.1,0-0.1c0,0,0,0,0-0.1
				c0-0.1-0.1-0.1-0.1-0.2l0-0.1c0,0-0.1,0-0.1-0.1c0,0,0-0.1,0-0.1c-0.1,0-0.1-0.1-0.2-0.1c0-0.1-0.1-0.1-0.1-0.1l0-0.1
				c0,0,0,0-0.1,0l0,0c0,0-0.1-0.1-0.1-0.1c0-0.1-0.1-0.1-0.1-0.1c-0.1,0-0.1-0.1-0.2-0.1l0,0l0,0l0,0c0,0,0,0-0.1,0l-0.1-0.1l0,0
				c0,0,0,0-0.1,0l-0.1-0.1c0,0-0.1,0-0.1,0c0,0,0,0,0,0s0,0,0,0c-0.1,0-0.1-0.1-0.2-0.1c-0.1,0-0.1,0-0.1-0.1l-0.1,0c0,0,0,0-0.1,0
				l0,0c-0.1,0-0.1-0.1-0.1-0.1c-0.1,0-0.1,0-0.2,0c-0.1,0-0.1,0-0.2,0l0,0c0,0,0,0-0.1,0l-0.1,0c-0.1,0-0.2,0-0.2,0
				c-0.1,0-0.1,0-0.1,0c0,0,0,0,0,0c0,0,0,0.1,0,0.1c0,0.1,0,0.2,0,0.3c0,0.1,0,0.2,0,0.3c0,0.1,0,0.1,0.1,0.1l0,0c0,0,0,0,0.1,0
				c0,0,0,0,0.1,0c0.1,0,0.1,0,0.2,0c0,0,0.1,0,0.1,0c0,0,0.1,0,0.1,0l0,0l0,0c0,0,0,0.1,0.1,0c0,0,0.1,0,0.1,0c0.1,0,0.1,0,0.2,0
				l0,0c0,0,0.1,0,0.1,0c0,0,0,0,0.1,0c0,0,0,0,0,0c0,0,0,0.1,0,0.1c0.1,0,0.2,0.1,0.3,0.1c0,0,0,0,0.1,0l0,0c0,0,0,0,0,0
				c0,0,0,0,0,0.1l0.1,0l0,0c0,0,0,0,0,0.1c0,0,0,0.1,0.1,0.1c0,0.1,0.1,0.1,0.2,0.1c0,0,0,0,0,0c0,0,0,0.1,0.1,0.1c0,0,0,0,0,0.1
				c0,0,0,0,0.1,0c0,0,0,0,0,0.1c0.1,0.1,0.1,0.2,0.2,0.2l0,0l0,0l0,0c0,0,0,0,0,0l0,0.1c0,0,0,0,0.1,0c0,0,0,0,0,0.1
				c0,0,0.1,0,0.1,0c0.1,0,0.2,0,0.2-0.1C202.6,96.4,202.6,96.4,202.7,96.4z"/>
		</g>
	</g>
	<g id="XMLID_1606_">
		<g id="XMLID_1607_">
			<path id="XMLID_1608_" class="st7" d="M190.8,91.7c0.1,0.1,0.1,0.2,0.1,0.2c0,0,0,0,0,0l0.1,0c0,0,0.1,0,0.1,0l0,0
				c0,0,0.1,0,0.2,0l0.1,0c0,0,0,0,0.1,0c0,0,0,0,0.1,0c0,0,0.1,0,0.1,0c0,0,0.1,0,0.1,0l0.1,0c0,0,0,0,0,0l0,0c0,0,0.1,0.1,0.1,0
				c0.1,0,0.1,0,0.1,0c0.1,0,0.1,0,0.2,0l0,0l0,0l0,0c0,0,0,0,0.1,0l0.1,0l0,0c0,0,0,0,0.1,0l0.1,0c0,0,0,0,0.1,0l0,0c0,0,0,0,0,0
				c0.1,0,0.1,0.1,0.2,0c0,0,0.1,0,0.1,0l0.1,0c0,0,0,0,0.1,0l0,0c0,0,0,0.1,0.1,0.1c0.1,0,0.1,0,0.1,0.1c0.1,0,0.1,0.1,0.1,0.1l0,0
				c0,0,0,0,0,0l0.1,0.1c0,0.1,0.1,0,0.2,0.1c0,0,0,0.1,0.1,0.1l0,0c0,0,0.1,0,0.1,0c0.1,0,0.1-0.1,0.2-0.2c0.1-0.1,0.1-0.1,0.2-0.2
				c0.1,0,0-0.1,0-0.1c0,0,0,0,0,0c0,0,0,0,0-0.1c0,0-0.1,0,0-0.1c0-0.1-0.1-0.1-0.2-0.2c0,0,0,0,0-0.1c0,0-0.1,0-0.1,0l0,0l0,0
				c0-0.1,0-0.1-0.1-0.1c0,0-0.1-0.1-0.1-0.1c-0.1,0-0.2-0.1-0.2-0.1c0,0,0,0-0.1,0c0,0-0.1-0.1-0.1-0.1c0,0,0,0-0.1,0
				c0,0,0,0-0.1,0c0,0,0-0.1-0.1-0.1c-0.1,0-0.2-0.1-0.4-0.1c0,0,0,0-0.1,0c0,0,0,0-0.1,0c0,0,0,0-0.1,0c0,0-0.1,0-0.1,0l-0.1,0l0,0
				c0,0-0.1,0-0.1,0c0,0-0.1,0-0.1,0c-0.1,0-0.2,0-0.3,0c0,0,0,0-0.1,0c0,0-0.1,0-0.1,0c0,0,0,0-0.1,0c0,0,0,0,0,0c0,0-0.1,0-0.1,0
				c-0.1,0-0.3,0-0.4,0c0,0,0,0-0.1,0l0,0c0,0,0,0-0.1,0c0,0-0.1,0-0.1,0l-0.1,0c0,0,0,0-0.1,0c0,0,0,0,0,0c0,0,0,0.1,0,0.1
				c0,0.1,0,0.1,0,0.2C190.8,91.6,190.8,91.7,190.8,91.7z"/>
		</g>
	</g>
</g>
<path class="st5" d="M183.6,84.2c0,0-5.4-0.4-6.9,2.1s-2.1,5.4-2,7.4c0.1,2,4.4,5.4,4.4,5.4"/>
<path class="st5" d="M216.2,91.6c0,0,9.8,2,9.7,10.2c-0.2,8.2-11.1,6.5-11.1,6.5"/>
<path class="st5" d="M209.1,83.1c0,0,2-6.2,8.5-3.1c6.5,3.1,1.8,13.6,1.8,13.6"/>
</svg>
