<?xml version="1.0" encoding="utf-8"?>
<!-- Generator: Adobe Illustrator 22.1.0, SVG Export Plug-In . SVG Version: 6.00 Build 0)  -->
<svg version="1.1" id="Capa_1" xmlns="http://www.w3.org/2000/svg" xmlns:xlink="http://www.w3.org/1999/xlink" x="0px" y="0px"
	 viewBox="0 0 253 120" style="enable-background:new 0 0 253 120;" xml:space="preserve">
<style type="text/css">
	.st0{display:none;}
	.st1{display:inline;fill:#0C1A3C;}
	.st2{display:inline;fill:#FF8B61;}
	.st3{display:inline;fill:#F1624F;}
	.st4{display:inline;opacity:0.3;}
	.st5{clip-path:url(#SVGID_2_);fill:#185177;}
	.st6{display:inline;fill:#EB4A6D;}
	.st7{display:inline;fill:#F48090;}
	.st8{display:inline;fill:#F2CDAC;}
	.st9{display:inline;fill:#1A1B1D;}
	.st10{display:inline;fill:#F56D8E;}
	.st11{display:inline;fill:#D1152C;}
	.st12{display:inline;fill:#F86057;}
	.st13{display:inline;fill:#1F8A4B;}
	.st14{clip-path:url(#SVGID_4_);fill:#326C92;}
	.st15{display:inline;fill:#219E56;}
	.st16{display:inline;fill:none;}
	.st17{display:inline;fill:#F3E8E2;}
	.st18{display:inline;fill:#346E94;}
	.st19{display:inline;}
	.st20{fill:#1A1B1D;}
	.st21{clip-path:url(#SVGID_6_);}
	.st22{fill:#CE4949;}
	.st23{fill:#5CBEC6;}
	.st24{fill:#404859;}
	.st25{fill:#434A59;}
	.st26{fill:#40840B;}
	.st27{fill:#F2CDAC;}
	.st28{opacity:0.29;}
	.st29{fill:#FFFFFF;}
	.st30{fill:#2A2E35;}
	.st31{fill:#F70D3F;}
	.st32{fill:#EAEAEA;}
	.st33{fill:#A64F3C;}
	.st34{fill:#95B7BF;}
	.st35{fill:#0C0A01;}
	.st36{fill:#FF867A;}
	.st37{fill:#823636;}
</style>
<g class="st0">
	<path class="st1" d="M187.3,74.6c-2.9,1.7,6,10.5,9.4,8.8C200.2,81.6,191.5,72.4,187.3,74.6"/>
	<path class="st2" d="M190.9,74.7l-2.6,1.4c0,0-0.6-0.2-1.5-0.4c-1.1-0.2-2.7-0.4-3.9-0.1c-2.1,0.6-4,2.8-5,3.9
		c-1,1.1-1.1,5.5-1.4,6.1c-0.3,0.6,1.6,2,2.4,0.2c0.4-0.9,0.7-1.8,0.9-2.6c0.2-0.8,0.8-1.6,1.5-2.2l1.3-1.1c0,0-1.3,1.8-1.3,3.4
		c0,1.2,1.9,1.5,1.9,1.5s0.1,2,2.4,1.6c0,0,0.5,1.3,2.2,1.1s2.6-3.4,2.6-3.4s1.6-0.4,2.8-1.3c0.7-0.5,1.2-1.2,1.3-2.1l2.2-1.3
		C195.3,77.6,193.1,75.6,190.9,74.7"/>
	<path class="st3" d="M184.6,81.2c-0.3,0.6-0.6,1.2-0.8,1.8c-0.2,0.6-0.5,1.2-0.7,1.8h0c-0.1-0.3-0.1-0.7,0-1.1c0-0.3,0.1-0.7,0.3-1
		c0.1-0.1,0.1-0.3,0.2-0.4c0.1-0.1,0.2-0.3,0.3-0.4C184.1,81.7,184.3,81.5,184.6,81.2C184.6,81.2,184.6,81.2,184.6,81.2z"/>
	<path class="st3" d="M187,83.2c-0.4,0.4-0.7,1-0.9,1.6c-0.2,0.6-0.5,1.2-0.5,1.8h0c-0.1-0.3-0.1-0.7-0.1-1c0-0.3,0.1-0.7,0.2-0.9
		c0.1-0.1,0.1-0.3,0.2-0.4s0.2-0.3,0.3-0.4C186.4,83.5,186.7,83.3,187,83.2L187,83.2z"/>
	<path class="st3" d="M177.4,80.2c-0.6,1.6-0.7,4.8-0.9,5.4c-0.1,0.2,0.1,0.5,0.3,0.7C178.2,84.8,177.8,82.9,177.4,80.2"/>
	<g class="st4">
		<g>
			<g>
				<g>
					<defs>
						<rect id="SVGID_1_" x="194.3" y="64.9" width="9.5" height="5.2"/>
					</defs>
					<clipPath id="SVGID_2_">
						<use xlink:href="#SVGID_1_"  style="overflow:visible;"/>
					</clipPath>
					<path class="st5" d="M198.9,65c-4.3,0.4-2.3,3.4-2.3,3.4l-2.3,1.4c1,0.3,1.6,0.4,1.6,0.4c3.6-1.8,6.3-2.6,7.5-2.8
						c0.4-0.1,0.5-0.5,0.3-0.8C203.1,65.8,201.7,64.7,198.9,65"/>
				</g>
			</g>
		</g>
	</g>
	<path class="st6" d="M200,110.5c0.5,4.3,0,9.3,0,9.3h41.6c0,0,1.6-11-3.3-20.2C233.4,90.4,201.4,100.2,200,110.5"/>
	<path class="st7" d="M178.3,13.5c5.6-4.2,10.1-4.1,11.6-0.4s6.1-0.5,7,5c0.9,5.5,2,0.4,4.8,5.3c7.9,13.7-3.7,18.7-11.3,18.6
		c-7.6-0.1-9-1.8-8.8-3.7s-5.1,3.6-6.1-3.1c-1-6.7-5-6.3-3.2-11.8c0,0-2.8-1.5-1.2-6.1C172.7,12.9,178.3,13.5,178.3,13.5"/>
	<path class="st8" d="M159.6,73.1c-6.5-4.8-12.4-6.7-12.9-5.8c-0.5,0.8,5.6,4.4,5.6,4.4s-3.4,1.2-2.5,3.5c0,0-2.1,0.8-0.9,2.4
		c0,0-1.2,1.4,0.4,2.7c1.6,1.3,3.8,1.3,3.8,1.3s1.1,2.6,4.1,3.1c2.9,0.5,4,2.2,4,2.2s2,0.3,2.9-2.2
		C165.1,82.1,163.5,76.4,159.6,73.1"/>
	<path class="st8" d="M164.2,78.4c0,0-2.9-5.3-5.6-5.3c-2.6,0-6.9,0.4-6.8,1.6s6.6,1.5,6.6,1.5s-1.6,2.6-0.4,5.4
		c1.2,2.8,6.2,3,6.2,3L164.2,78.4L164.2,78.4z"/>
	<path class="st9" d="M156.7,84.5c0.2,0,0.4,0.1,0.5,0.1c2.9,0.5,4,2.2,4,2.2s2,0.3,2.9-2.2c0.5-1.2,0.7-4.1,0-6.2
		C162.3,82.9,158.3,84.2,156.7,84.5"/>
	<path class="st9" d="M158.5,73.2c-0.6,0.1-1.2,0.2-1.8,0.2c-0.6,0.1-1.2,0.2-1.8,0.3c-0.6,0.1-1.1,0.2-1.7,0.4
		c-0.3,0.1-0.5,0.2-0.7,0.3c-0.1,0.1-0.2,0.1-0.2,0.2c-0.1,0.1-0.1,0.1-0.1,0.1l0,0c0,0,0,0,0,0v0l0,0l0,0c0,0,0.1,0.1,0.2,0.1
		c0.2,0.1,0.5,0.2,0.7,0.2c0.5,0.1,1.1,0.2,1.7,0.3c1.1,0.2,2.3,0.2,3.5,0.3h0c0.3,0,0.6,0.3,0.5,0.6c0,0.1,0,0.2-0.1,0.3
		c-0.1,0.2-0.3,0.5-0.4,0.8s-0.2,0.6-0.3,0.8c-0.2,0.6-0.2,1.2-0.2,1.8c0,0.6,0.1,1.2,0.3,1.8c0.2,0.6,0.6,1.1,1.1,1.5l0,0v0h0
		c-0.5-0.3-1-0.8-1.3-1.4c-0.3-0.6-0.5-1.2-0.5-1.9c-0.1-0.7,0-1.3,0.1-1.9s0.4-1.3,0.7-1.8l0,0.1c-1.2,0-2.4-0.1-3.6-0.3
		c-0.6-0.1-1.2-0.2-1.8-0.3c-0.3-0.1-0.6-0.2-0.8-0.3c-0.1-0.1-0.3-0.1-0.4-0.3c-0.1-0.1-0.1-0.3-0.1-0.4c0.1-0.3,0.4-0.5,0.7-0.6
		s0.6-0.2,0.8-0.3c0.6-0.2,1.2-0.2,1.8-0.3C156.1,73.2,157.3,73.1,158.5,73.2C158.5,73.1,158.5,73.1,158.5,73.2
		C158.6,73.1,158.6,73.2,158.5,73.2L158.5,73.2z"/>
	<path class="st9" d="M152.4,71.7c0,0-0.8,0.3-1.5,0.8c1.4,0,3.4,0.1,3.4,0.1S153.5,72.3,152.4,71.7"/>
	<path class="st9" d="M149.9,75.2c1.8,2.2,4.6,3.4,5.3,3.2s-0.2-1.8-0.2-1.8s1.4,1.1,0.8,2c-0.6,0.9-3.7-0.4-4.8-1.4
		S149.9,75.2,149.9,75.2"/>
	<path class="st9" d="M148.9,77.6c1.6,1.7,5,2.2,5,2.2s-1.4,0.4-3.1-0.3C149.1,78.9,148.9,77.6,148.9,77.6"/>
	<path class="st6" d="M180.8,47.6c-4.8,16.6-7.2,38.3-7.2,38.3l-9.4-7.5c0,0-0.8,5.8-4.5,8.3c0,0,11.3,15.4,20,15.3
		c8.8,0,14.9-27.7,14.9-27.7L180.8,47.6z"/>
	<path class="st10" d="M193,35.6c0,0,18.5,4.2,27.1,13.5c8.5,9.3,18.2,50.5,18.2,50.5s-22,11.9-38.3,10.9c0,0-6-21.8-7.8-26
		c-1.8-4.2-11.1-2.5-12.8-12.8s1.4-24.2,1.4-24.2S182.6,41.7,193,35.6"/>
	<path class="st6" d="M192.2,84.5c1.8,4.2,7.8,26,7.8,26c16.3,0.9,38.3-10.9,38.3-10.9s-9.3-39.8-17.8-50
		c-4.7,1.7-8.6,5.6-10.1,13.5C212.8,78.9,192.2,84.5,192.2,84.5"/>
	<path class="st8" d="M176.1,23.5c0.5,2.8,0.9,9.1,3.6,11.9c2.6,2.7,5.4,0,5.4,0l1,5.4c0.2,1,1.3,1.6,2.2,1.2c2-0.8,5.2-2.3,6.6-4.9
		l-2.6-7.1c0,0-0.6-7.6-6.3-11.3C180.3,15.1,175.4,19.7,176.1,23.5"/>
	<path class="st9" d="M185,35.4l0.5,2.8c1.9-1.4,2.1-6.3,2.1-6.3S186.9,34.2,185,35.4"/>
	<path class="st7" d="M178.7,19.7c0.8,2.7,5.2,4.7,8,5.1c0,0-0.7,2.8,1.4,3.2s0.2,2.1,2.7,3.4c2.5,1.3-0.3,4.8,4,5.6
		c1.8,0.3,2.9-0.6,3.7-1.8c1.4-2.1,1.4-4.8,0.2-7c-1.9-3.4-5.5-9-9.4-10.9c-5.7-2.9-11.1-1.3-13.8,1.3s-0.7,6.7-0.7,6.7
		S178.4,24.3,178.7,19.7"/>
	<path class="st8" d="M213.2,87.1l-4.3,2.3c0,0-2.9-0.3-5.4,1.7s-4.6,2.1-4.2,2.7c0.4,0.6,2.4,1.6,5-0.3c2.5-1.9,2.7-0.8,1.9,1.3
		c-0.8,2.1-6,7.8-6.3,9.1c-0.3,1.3,4.3-2.6,6.4-4.6c0,0-5.1,7.2-5,8.3s4.5-3.4,6.7-7.4c0,0-2.6,5.8-2.5,6.8c0.1,1.2,2.7-1.1,4.6-6.1
		c0,0-1.7,4.7-1.2,5s1.3-1.3,2.8-5.3c1.5-4,4.4-6.6,4.4-6.6S216,89.2,213.2,87.1"/>
	<path class="st9" d="M215.1,95.1c0.6-0.7,1-1.1,1-1.1s-0.1-4.9-2.9-7l-4.3,2.3C212.3,91.2,214.2,93.8,215.1,95.1"/>
	<path class="st10" d="M219.8,49.1c-3.2-2.9-8.4-1.7-9.9,2.3c0,0.1-0.1,0.2-0.1,0.3c-2.2,6.3,0.6,11.8,5.2,16.5
		c4.6,4.7,11,11.7,11,11.7l-15.6,7.3c0,0,4.4,5.3,5.2,8.7c0,0,20-3.9,25.4-10.4s-5.5-21.3-13.3-28.9
		C224.3,53.2,221.6,50.7,219.8,49.1"/>
	<polygon class="st11" points="146.9,67.5 75.9,67.5 85.4,49 137.4,49 	"/>
	<rect x="75.9" y="67.5" class="st12" width="71.1" height="51"/>
	<path class="st13" d="M-16,39.1c0,0-25.1,6-36.2,17.1S-51.2,95-51.2,95L-16,39.1z"/>
	<g class="st4">
		<g>
			<g>
				<g>
					<defs>
						<rect id="SVGID_3_" x="-56.2" y="53" width="31.5" height="42"/>
					</defs>
					<clipPath id="SVGID_4_">
						<use xlink:href="#SVGID_3_"  style="overflow:visible;"/>
					</clipPath>
					<path class="st14" d="M-56,78.6c1.5,8.8,4.9,16.5,4.9,16.5l26.4-42c-8.3,2.7-20.9,7.7-28,14.7c-0.1,0.1-0.2,0.2-0.3,0.3
						C-55.6,70.9-56.7,74.8-56,78.6"/>
				</g>
			</g>
		</g>
	</g>
	<path class="st8" d="M29.6,22.5C29.4,13.7,16,9.9,10.6,13.8s-5,13-5,13l-9.1,12.8l14,3.4l5.9-4.5c0,0,3.3,2.8,4.6,1.8
		c0.9-0.7,4-3.3,4.6-4c0.2-0.2-2-2.5-2.3-2.5c-1.5-0.4-1.3,1.6-1.1,0.9c0.1-0.2,0.3-0.3,0.5-0.1c0.7,0.7,2.4,2.3,2.9,1.8
		c0.6-0.7,0.7-2.4,0.7-2.4s2.3,0,2.8-0.6s-0.5-2-0.6-4.4C28.5,26.6,29.9,24.8,29.6,22.5"/>
	<path class="st9" d="M29.1,33.4c-0.2,0.2-3.6-1.1-3.7-0.7c-0.2,0.4,0.2,1,0.9,1.3C28,34.6,29.1,33.4,29.1,33.4"/>
	<path class="st9" d="M13.4,35.3c-1,1.4-3.2,5-2.8,7.7l5.9-4.5c-1.3-1.2-2-2.4-2.4-3.2C13.9,35.1,13.5,35.1,13.4,35.3"/>
	<path class="st9" d="M20.3,26.8c2-0.2,2.3-2.8,2.3-2.8s1.8-0.9,5.8-0.2c4,0.7,7.8-2.2,5.5-3.1c0,0,4-1.5,4.2-4.4
		c0.1-2.9-4.8-0.9-4.8-0.9s3.1-2.1,2.8-4.7s-4.3-0.2-4.3-0.2s2.5-2.6,0.6-4.4s-5.4,1.2-5.4,1.2s2.3-4.6-1.3-6
		c-3.6-1.4-6.7,3.4-6.7,3.4S11.9-0.3,6.8,3.8c-5.1,4.1-0.2,6.7-0.2,6.7s-8,0.6-8,6.9s4.2,5.2,4.2,5.2s-6.6,6.1,0.6,8.1
		c7.3,2,13-1.1,13-1.1s-2.5-0.9-0.8-4.6C17,22.1,20.1,24.2,20.3,26.8"/>
	<path class="st15" d="M-11.4,119.9l30.6-48c0,0,11.7-14.5,10-20.3S7.8,37.9-7.2,37.3c-20.1-0.9-36.2,34.6-36.2,34.6l-37.2,48H-11.4
		z"/>
	<rect x="-68.2" y="1" class="st16" width="310.8" height="118.9"/>
	<rect x="-68.2" y="1" class="st16" width="310.8" height="118.9"/>
	<rect x="97.1" y="56.9" class="st17" width="30.3" height="2.8"/>
	<polygon class="st18" points="85.8,44.6 80,54 98.3,59.8 100.1,59.8 103.7,51.6 	"/>
	<path class="st8" d="M56,60.6c4.7-0.1,9.5-6.7,13-7.8c2.9-0.9,9.5-0.3,11.8,0c0.5,0.1,0.8,0.5,0.8,0.9c0,0.7-0.6,1.4-1.3,1.4
		l-7.8,0.8c0,0,3.9,0.8,4.3,1.9c0.4,1.1-0.8,2.6-0.8,2.6s0.3,1.8-0.5,3c0,0-0.4,2.6-2.3,3.1S68.8,66,68.8,66s-1.5,3.2-7.7,2.2L56,69
		V60.6z"/>
	<path class="st9" d="M61.7,66.9l-5.7,0.6V69l5.1-0.7c6.2,0.9,7.7-2.2,7.7-2.2C67.5,66.7,64.8,68.1,61.7,66.9"/>
	<path class="st9" d="M71.5,59c1.8,0,4.5,1.5,4.5,1.5l0.6-0.9C76.6,59.6,73.5,58,71.5,59"/>
	<path class="st9" d="M75.5,63.5c-2.1,0.3-4.8-0.7-4.8-0.7l5.1,0C75.8,62.7,75.8,63.3,75.5,63.5"/>
	<path class="st13" d="M21.2,43.3c9.1,6.4,20.2,14.9,20.2,14.9l18.5,1.2c0,0,3.3,3.9,3.3,8.7c0,4.8-1.8,6.7-1.8,6.7
		s-17.9,7-24.6,6.4c-4.4-0.4-16.4-6.1-24.2-10.1c-7-3.5-10.7-11.5-8.7-19.1c0.5-1.8,1.3-3.7,2.4-5.6C9.3,41.2,16.2,39.8,21.2,43.3"
		/>
	<g id="XMLID_21_" class="st19">
		<g id="XMLID_22_">
			<path id="XMLID_23_" class="st20" d="M182.6,30.6c0-0.1-0.1-0.1-0.1-0.1c0,0-0.1,0-0.1,0l-0.1,0c0,0-0.1,0-0.2,0c0,0-0.1,0-0.1,0
				c-0.1,0-0.2,0-0.3,0l-0.1,0c0,0-0.1,0-0.1,0s0,0-0.1,0c-0.1,0-0.2-0.1-0.2-0.1c-0.1,0-0.1-0.1-0.2-0.1c0,0,0,0-0.1-0.1
				c0,0,0,0,0,0l0,0c0-0.1,0-0.1,0-0.2c0-0.1,0-0.2,0-0.2c0-0.1,0-0.2,0-0.3v0c0,0,0,0,0,0l0,0c0,0,0-0.1,0-0.1l0-0.2v-0.1l0-0.1
				l0-0.1c0,0,0-0.1,0-0.1c0,0,0,0,0-0.1s0,0,0-0.1c0-0.1,0.1-0.2,0-0.3c0-0.1,0-0.2,0-0.2l0-0.1c0,0,0-0.1,0-0.1l0-0.1
				c0-0.1,0-0.2,0.1-0.2c0-0.1,0-0.2,0-0.3c0-0.1,0-0.2,0-0.3c0,0,0,0,0-0.1s0-0.1,0-0.1l0-0.2c0-0.1,0-0.2,0-0.4c0-0.1,0-0.1,0-0.2
				c0,0,0,0,0-0.1c0,0,0-0.1,0-0.1c0,0-0.1-0.1-0.2-0.1s-0.1,0-0.2,0c-0.1,0-0.1,0.1-0.1,0.1s0,0,0,0.1c0,0,0,0.1,0,0.1s0,0.1,0,0.1
				c0,0.1,0,0.2-0.1,0.4c0,0,0,0.1,0,0.1s0,0.1,0,0.2v0v0c0,0,0,0.1,0,0.2c0,0.1,0,0.1,0,0.2c0,0.1,0,0.3-0.1,0.5c0,0,0,0.1,0,0.1
				c0,0.1,0,0.1,0,0.2c0,0,0,0.1,0,0.1s0,0.1,0,0.1c0,0,0,0.1,0,0.2c0,0.2-0.1,0.5-0.1,0.7c0,0,0,0.1,0,0.1s0,0.1,0,0.1s0,0.1,0,0.1
				c0,0,0,0.1,0,0.1l0,0.1c0,0,0,0,0,0c0,0,0,0.1,0,0.1c0,0.1,0,0.2,0,0.2c0,0.2,0.1,0.4,0.2,0.5c0,0,0,0.1,0.1,0.1
				c0,0.1,0.1,0.2,0.2,0.2c0,0,0.1,0.1,0.1,0.1s0.1,0,0.1,0c0.1,0,0.1,0.1,0.2,0.1c0.2,0.1,0.5,0.1,0.7,0.1c0,0,0.1,0,0.1,0
				s0.1,0,0.1,0s0.1,0,0.1,0s0.1,0,0.1,0l0.3-0.1c0,0,0.1,0,0.1,0c0,0,0.1,0,0.1,0c0,0,0,0,0-0.1c0,0,0-0.1,0-0.2
				C182.6,30.7,182.6,30.7,182.6,30.6z"/>
		</g>
	</g>
	<g id="XMLID_12_" class="st19">
		<g id="XMLID_13_">
			<path id="XMLID_14_" class="st20" d="M183.4,32c-0.1,0-0.1,0-0.2,0c0,0,0,0,0,0l0,0c0,0,0,0,0,0c0,0,0,0,0,0c0,0-0.1,0.1-0.1,0.1
				l0,0c0,0,0,0,0,0.1c0,0,0,0,0,0c0,0-0.1,0-0.1,0.1c0,0,0,0.1-0.1,0.1l0,0c0,0,0,0,0,0l0,0c0,0-0.1,0-0.1,0c0,0-0.1,0-0.1,0.1
				c0,0-0.1,0-0.1,0.1l0,0h0l0,0c0,0,0,0,0,0l-0.1,0l0,0c0,0,0,0,0,0l-0.1,0c0,0,0,0,0,0h0h0c0,0-0.1,0-0.1,0c0,0-0.1,0-0.1,0h0
				c0,0,0,0,0,0h0c0,0-0.1,0-0.1,0s-0.1,0-0.1,0c0,0-0.1,0-0.1,0s0,0,0,0c0,0,0,0,0,0l-0.1,0c0,0-0.1,0-0.2,0c0,0,0,0-0.1,0h0
				c0,0,0,0-0.1,0c0,0-0.1,0.1-0.1,0.2c0,0.1,0,0.1,0,0.2c0,0,0,0.1,0,0.1c0,0,0,0,0,0c0,0,0,0,0.1,0c0,0,0,0,0.1,0
				c0.1,0,0.1,0,0.2,0c0,0,0,0,0.1,0s0.1,0,0.1,0l0,0l0,0c0,0,0.1,0,0.1,0s0.1,0,0.1,0c0.1,0,0.2,0,0.2,0c0,0,0,0,0,0
				c0,0,0.1,0,0.1,0s0,0,0.1,0s0,0,0,0s0.1,0,0.1,0c0.1,0,0.2-0.1,0.4-0.1c0,0,0,0,0,0c0,0,0,0,0,0s0,0,0.1,0s0,0,0.1,0l0.1,0
				c0,0,0,0,0,0c0,0,0,0,0.1,0c0,0,0.1,0,0.1-0.1c0.1,0,0.1-0.1,0.2-0.2c0,0,0,0,0,0c0,0,0.1,0,0.1-0.1s0,0,0,0c0,0,0,0,0,0
				c0,0,0,0,0.1,0c0.1-0.1,0.1-0.2,0.2-0.3c0,0,0,0,0,0c0,0,0,0,0,0c0,0,0,0,0,0c0,0,0,0,0,0l0-0.1c0,0,0,0,0-0.1s0,0,0,0
				c0,0,0,0,0,0c0,0-0.1-0.1-0.1-0.1C183.5,32,183.5,32,183.4,32z"/>
		</g>
	</g>
	<g id="XMLID_10_" class="st19">
		<path id="XMLID_11_" class="st20" d="M184.5,27.8L184.5,27.8c-0.4,0-0.6-0.3-0.6-0.7l0-0.3c0-0.3,0.2-0.6,0.7-0.6
			c0.3,0,0.6,0.3,0.6,0.7l0,0.3C185.1,27.5,184.8,27.8,184.5,27.8z"/>
	</g>
	<g id="XMLID_8_" class="st19">
		<path id="XMLID_9_" class="st20" d="M178,27.4L178,27.4c-0.4,0-0.6-0.3-0.6-0.7l0-0.3c0-0.3,0.2-0.6,0.7-0.6
			c0.3,0,0.6,0.3,0.6,0.7l0,0.3C178.5,27.2,178.2,27.4,178,27.4z"/>
	</g>
	<g id="XMLID_5_" class="st19">
		<g id="XMLID_6_">
			<path id="XMLID_7_" class="st20" d="M186.1,25.2c0-0.1,0.1-0.1,0.1-0.2c0,0,0,0,0,0l0,0c0,0,0,0,0-0.1c0,0,0,0,0,0
				c0,0-0.1-0.1-0.1-0.1l0,0c0,0,0,0-0.1,0c0,0,0,0,0,0c0,0-0.1-0.1-0.1,0c0,0-0.1,0-0.1,0l0,0c0,0,0,0,0,0l0,0c0,0-0.1,0-0.1-0.1
				c0,0-0.1,0-0.1,0c0,0-0.1,0-0.1,0l0,0h0l0,0c0,0,0,0,0,0l-0.1,0h0c0,0,0,0,0,0l-0.1,0c0,0,0,0,0,0c0,0,0,0,0,0s0,0,0,0
				c0,0-0.1,0-0.1,0c0,0-0.1,0-0.1,0h-0.1c0,0,0,0,0,0h0c0,0-0.1,0-0.1,0s-0.1,0-0.1,0c0,0-0.1,0-0.1,0h0c0,0,0,0,0,0l-0.1,0
				c0,0-0.1,0.1-0.2,0.1c0,0-0.1,0-0.1,0c0,0,0,0,0,0s0,0,0,0.1c0,0,0,0.1,0,0.2s0.1,0.1,0.1,0.2c0,0,0,0.1,0.1,0.1h0c0,0,0,0,0,0
				l0,0c0,0,0.1,0,0.1,0c0,0,0,0,0,0c0,0,0,0,0,0l0,0l0,0c0,0,0,0,0.1,0c0,0,0,0,0.1,0c0,0,0.1,0,0.2,0h0c0,0,0,0,0.1,0s0,0,0,0l0,0
				c0,0,0,0,0,0c0.1,0,0.2,0,0.2,0c0,0,0,0,0,0h0c0,0,0,0,0,0c0,0,0,0,0,0h0h0c0,0,0,0,0,0c0,0,0,0,0.1,0c0,0,0.1,0,0.2,0
				c0,0,0,0,0,0c0,0,0,0,0.1,0s0,0,0,0h0c0,0,0,0,0,0c0.1,0,0.1,0.1,0.2,0.1l0,0h0l0,0c0,0,0,0,0,0l0,0h0c0,0,0,0,0,0l0,0
				c0,0,0.1-0.1,0.1-0.1C186,25.2,186.1,25.2,186.1,25.2z"/>
		</g>
	</g>
	<g id="XMLID_2_" class="st19">
		<g id="XMLID_3_">
			<path id="XMLID_4_" class="st20" d="M176.8,24.8c0.1,0.1,0.1,0.1,0.1,0.1c0,0,0,0,0,0l0,0c0,0,0,0,0.1,0l0,0c0,0,0.1,0,0.1,0l0,0
				c0,0,0,0,0,0c0,0,0,0,0,0c0,0,0.1,0,0.1,0s0,0,0.1,0l0,0c0,0,0,0,0,0h0c0,0,0.1,0,0.1,0c0,0,0,0,0.1,0c0,0,0.1,0,0.1,0l0,0h0l0,0
				c0,0,0,0,0,0h0.1h0c0,0,0,0,0,0h0c0,0,0,0,0,0h0c0,0,0,0,0,0c0,0,0.1,0,0.1,0c0,0,0.1,0,0.1,0h0c0,0,0,0,0,0h0c0,0,0,0,0.1,0
				c0,0,0,0,0.1,0c0,0,0.1,0,0.1,0l0,0c0,0,0,0,0,0l0.1,0c0,0,0.1,0,0.1,0s0,0,0.1,0h0c0,0,0,0,0,0c0,0,0.1-0.1,0.1-0.2
				c0-0.1,0-0.1,0.1-0.2c0,0,0-0.1,0-0.1c0,0,0,0,0,0c0,0,0,0,0,0c0,0,0,0,0,0c0,0-0.1,0-0.2-0.1c0,0,0,0,0,0s0,0-0.1,0l0,0l0,0
				c0,0,0,0-0.1,0c0,0-0.1,0-0.1,0c-0.1,0-0.1,0-0.2,0s0,0,0,0s-0.1,0-0.1,0s0,0,0,0l0,0c0,0,0,0-0.1,0c-0.1,0-0.2,0-0.3,0
				c0,0,0,0,0,0c0,0,0,0,0,0h0h0.1h0h0c0,0,0,0,0,0c0,0-0.1,0-0.1,0c-0.1,0-0.1,0-0.2,0c0,0,0,0,0,0s-0.1,0-0.1,0c0,0,0,0,0,0
				c0,0,0,0,0,0c0,0,0,0-0.1,0c-0.1,0-0.2,0.1-0.2,0.1c0,0,0,0,0,0l0,0c0,0,0,0,0,0l0,0l0,0c0,0,0,0,0,0c0,0,0,0,0,0c0,0,0,0,0,0.1
				s0,0.1,0.1,0.1C176.7,24.7,176.8,24.7,176.8,24.8z"/>
		</g>
	</g>
	<g id="XMLID_26_" class="st19">
		<path id="XMLID_27_" class="st20" d="M26.4,28.3l0-0.3c0-0.4,0.3-0.7,0.6-0.7c0.4,0,0.7,0.3,0.7,0.6l0,0.3c0,0.4-0.3,0.7-0.6,0.7
			h0C26.8,29,26.5,28.7,26.4,28.3z"/>
	</g>
	<g id="XMLID_18_" class="st19">
		<g id="XMLID_19_">
			<path id="XMLID_20_" class="st20" d="M25.5,26.2c0,0,0.1,0.1,0.1,0.1c0,0,0,0,0,0l0,0h0l0,0c0,0,0,0,0,0l0,0h0l0,0
				c0.1,0,0.1-0.1,0.2-0.1c0.1,0,0.1,0,0.1,0c0,0,0,0,0,0l0,0c0,0,0,0,0.1,0c0,0,0,0,0,0c0.1,0,0.1,0,0.2,0s0,0,0.1,0c0,0,0,0,0,0h0
				h0c0,0,0,0,0,0s0,0,0,0h0c0,0,0,0,0,0c0.1,0,0.2,0,0.2,0l0,0c0,0,0,0,0,0c0,0,0,0,0,0c0,0,0,0,0.1,0h0c0.1,0,0.1,0,0.2,0
				c0,0,0,0,0.1,0c0,0,0,0,0.1,0l0,0l0,0l0,0h0c0,0,0.1,0,0.1,0c0,0,0,0,0,0h0h0c0,0,0,0,0.1-0.1c0,0,0.1-0.1,0.1-0.2s0-0.1,0-0.2
				c0,0,0,0,0-0.1s0,0,0,0c0,0,0,0-0.1,0s-0.1-0.1-0.2-0.1l-0.1,0c0,0,0,0,0,0h0c0,0-0.1,0-0.1,0c0,0-0.1,0-0.1,0c0,0-0.1,0-0.1,0h0
				c0,0,0,0,0,0h-0.1c0,0-0.1,0-0.1,0c0,0-0.1,0-0.1,0c0,0,0,0,0,0s0,0,0,0h0l-0.1,0c0,0,0,0,0,0h0l-0.1,0c0,0,0,0,0,0l0,0h0l0,0
				c0,0-0.1,0-0.1,0s-0.1,0-0.1,0c0,0-0.1,0-0.1,0.1l0,0c0,0,0,0,0,0l0,0c0,0-0.1,0-0.1,0c-0.1,0-0.1,0-0.1,0s0,0,0,0c0,0,0,0-0.1,0
				l0,0c0,0-0.1,0.1-0.1,0.1c0,0,0,0,0,0c0,0,0,0,0,0.1l0,0c0,0,0,0,0,0c0,0,0,0.1,0.1,0.2C25.4,26.1,25.4,26.1,25.5,26.2z"/>
		</g>
	</g>
	<g id="XMLID_50_" class="st19">
		<g id="XMLID_51_">
			<path id="XMLID_52_" class="st20" d="M19.2,27c0.1-0.1,0.1-0.1,0.1-0.2c0,0,0-0.1,0-0.1l-0.1-0.1c0,0,0-0.1-0.1-0.1
				c0,0-0.1,0-0.1-0.1c-0.1-0.1-0.1-0.1-0.2-0.2l-0.1-0.1c0,0-0.1,0-0.1,0c0,0,0-0.1-0.1-0.1c-0.1,0-0.1-0.1-0.2-0.1
				c-0.1,0-0.1,0-0.2,0L18.1,26c0,0-0.1,0-0.1,0H18c-0.1,0-0.1-0.1-0.2-0.1c-0.1,0-0.1,0-0.2,0s-0.1,0-0.2,0h0h0l0,0
				c0,0-0.1,0-0.1,0l-0.1,0c0,0,0,0-0.1,0c0,0-0.1,0-0.1,0l-0.1,0c0,0-0.1,0-0.1,0.1c0,0,0,0-0.1,0c0,0,0,0-0.1,0
				c-0.1,0.1-0.1,0.1-0.2,0.1s-0.1,0.1-0.1,0.1l-0.1,0.1c0,0,0,0.1-0.1,0.1l0,0c-0.1,0-0.1,0.1-0.1,0.1c-0.1,0.1-0.1,0.1-0.1,0.2
				c-0.1,0.1-0.1,0.1-0.1,0.2c0,0,0,0,0,0c0,0,0,0,0,0.1l-0.1,0.1c-0.1,0.1,0,0.2-0.1,0.2c0,0.1-0.1,0.1-0.1,0.1c0,0,0,0,0,0.1
				c0,0,0.1,0.1,0.1,0.1c0.1,0.1,0.1,0.1,0.2,0.1s0.1,0,0.2,0s0.1,0,0.1-0.1l0,0c0,0,0-0.1,0-0.1c0,0,0-0.1,0-0.1
				c0.1-0.1,0.1-0.1,0.1-0.2c0,0,0.1,0,0.1-0.1c0,0,0-0.1,0-0.1l0,0l0,0c0.1,0,0.1,0,0.1-0.1c0,0,0.1-0.1,0.1-0.1
				c0.1-0.1,0.1-0.1,0.1-0.2l0,0c0,0,0.1,0,0.1-0.1c0,0,0,0,0.1,0c0,0,0,0,0-0.1c0,0,0.1,0,0.1,0c0.1-0.1,0.2-0.1,0.3-0.1
				c0,0,0,0,0.1,0l0,0c0,0,0,0,0.1,0c0,0,0,0,0.1,0h0.1h0c0,0,0,0,0.1,0c0,0,0.1,0,0.1,0c0.1,0,0.1,0,0.2,0c0,0,0,0,0.1,0
				c0,0,0.1,0,0.1,0s0,0,0.1,0c0,0,0,0,0.1,0c0,0,0.1,0,0.1,0.1c0.1,0,0.2,0.1,0.3,0.1c0,0,0,0,0.1,0s0,0,0.1,0c0,0,0,0,0,0.1
				s0,0,0.1,0.1l0.1,0.1c0,0,0,0,0.1,0c0,0,0,0,0.1,0c0,0,0.1,0,0.1,0C19.2,27.1,19.2,27,19.2,27C19.1,27,19.2,27,19.2,27z"/>
		</g>
	</g>
	<g id="XMLID_47_" class="st19">
		<g id="XMLID_48_">
			<path id="XMLID_49_" class="st20" d="M18.6,28.8c0.1,0,0.1-0.1,0.2-0.1c0,0,0,0,0-0.1l0-0.1c0,0,0-0.1,0-0.1c0,0,0,0,0-0.1
				c0-0.1,0-0.1-0.1-0.2l0-0.1c0,0-0.1-0.1-0.1-0.1s0-0.1,0-0.1c-0.1-0.1-0.1-0.1-0.1-0.1c-0.1-0.1-0.1-0.1-0.1-0.1l-0.1-0.1
				c0,0,0,0-0.1,0l0,0c0,0-0.1-0.1-0.1-0.1c-0.1,0-0.1-0.1-0.1-0.1c-0.1,0-0.1-0.1-0.2-0.1h0l0,0l0,0c0,0,0,0-0.1,0l-0.1-0.1h0
				c0,0-0.1,0-0.1,0l-0.1,0c0,0-0.1,0-0.1,0c0,0,0,0,0,0l0,0c-0.1,0-0.1,0-0.2,0c-0.1,0-0.1,0-0.2,0h-0.1c0,0,0,0-0.1,0h-0.1
				c-0.1,0-0.1,0-0.2,0c-0.1,0-0.1,0-0.2,0.1c-0.1,0-0.1,0-0.2,0.1c0,0,0,0-0.1,0c0,0,0,0-0.1,0l-0.1,0.1c-0.1,0-0.1,0.1-0.2,0.1
				c-0.1,0-0.1,0-0.1,0.1c0,0,0,0,0,0.1c0,0,0,0.1,0,0.1c0,0.1,0.1,0.1,0.1,0.2c0.1,0.1,0.1,0.1,0.2,0.1c0.1,0,0.1,0.1,0.1,0l0,0
				c0,0,0,0,0.1,0s0,0,0,0c0.1,0,0.1-0.1,0.1-0.1c0,0,0.1,0,0.1,0c0,0,0,0,0.1-0.1l0,0l0,0c0,0,0.1,0,0.1,0c0,0,0.1,0,0.1,0
				c0.1,0,0.1,0,0.2-0.1h0c0,0,0.1,0,0.1,0c0,0,0,0,0.1,0l0,0c0,0,0.1,0,0.1,0c0.1,0,0.2,0,0.2,0.1c0,0,0,0,0,0h0l0,0c0,0,0,0,0,0
				l0.1,0h0l0,0c0,0,0.1,0,0.1,0.1c0.1,0,0.1,0.1,0.1,0.1l0,0c0,0,0,0.1,0.1,0.1c0,0,0,0,0,0c0,0,0,0,0,0s0,0.1,0,0.1
				c0.1,0.1,0.1,0.1,0.1,0.2c0,0,0,0,0,0l0,0c0,0,0,0,0,0.1s0,0,0,0.1v0.1c0,0,0,0,0,0s0,0,0,0c0,0,0.1,0,0.1,0c0.1,0,0.1,0,0.2,0
				C18.5,28.8,18.5,28.8,18.6,28.8z"/>
		</g>
	</g>
	<g id="XMLID_33_" class="st19">
		<g id="XMLID_34_">
			<path id="XMLID_35_" class="st20" d="M25.3,36.6C25.2,36.6,25.2,36.6,25.3,36.6L25.3,36.6l-0.1-0.1h0c0,0,0,0,0,0c0,0,0,0-0.1,0
				h0c0,0,0,0,0,0h0c0,0,0,0-0.1,0c0,0,0,0-0.1,0h0c0,0,0,0,0,0l0,0c0,0,0,0-0.1,0c0,0,0,0-0.1,0c0,0,0,0-0.1,0l0,0l0,0l0,0
				c0,0,0,0,0,0h0l0,0c0,0,0,0,0,0h0c0,0,0,0,0,0l0,0l0,0c0,0,0,0-0.1,0c0,0,0,0-0.1,0h0c0,0,0,0,0,0l0,0c0,0,0,0,0,0c0,0,0,0,0,0
				c0,0,0,0-0.1,0l0,0c0,0,0,0,0,0l0,0c0,0,0,0-0.1-0.1v0c0,0,0,0,0,0h0c0,0-0.1,0-0.1,0c0,0,0,0-0.1,0.1c0,0,0,0,0,0c0,0,0,0,0,0v0
				c0,0,0,0,0,0s0,0.1,0.1,0.1c0,0,0,0,0,0c0,0,0,0,0,0l0,0l0,0c0,0,0,0,0,0c0,0,0,0,0,0c0,0,0.1,0,0.1,0.1c0,0,0,0,0,0c0,0,0,0,0,0
				s0,0,0,0c0,0,0,0,0,0l0,0c0.1,0,0.1,0,0.2,0.1h0c0,0,0,0,0,0c0,0,0,0,0,0h0h0l0,0h0c0,0,0,0,0.1,0c0,0,0.1,0,0.1,0c0,0,0,0,0,0
				c0,0,0,0,0.1,0h0c0,0,0,0,0,0h0c0.1,0,0.1,0,0.2-0.1c0,0,0,0,0,0c0,0,0,0,0,0c0,0,0,0,0,0h0l0,0c0,0,0,0,0,0c0,0,0,0,0,0v0
				c0,0,0-0.1,0-0.1C25.3,36.6,25.3,36.6,25.3,36.6z"/>
		</g>
	</g>
</g>
<g>
	<g>
		<defs>
			<rect id="SVGID_5_" x="-97" y="-56.1" width="355.9" height="176.1"/>
		</defs>
		<clipPath id="SVGID_6_">
			<use xlink:href="#SVGID_5_"  style="overflow:visible;"/>
		</clipPath>
		<g class="st21">
			<g>
				<g>
					<path class="st22" d="M140.6,117.1c0,0-52.8,86.9-47.7,110.3c3.7,16.9,24.1,17.3,34.2,9c16.2-13.2,30.4-71.4,31.2-87
						C159.2,133.9,159.4,110.7,140.6,117.1z"/>
				</g>
				<g>
					<path class="st22" d="M120.8,122c0,0,9.6,55.5,11.3,78.6s-14.8,36.2-30.3,35.5s-13.4-46-11.6-68.9c1.6-21,4-42.3,8.6-44.5
						C103.4,120.5,120.8,122,120.8,122z"/>
				</g>
				<g>
					<g>
						<path d="M178.8,55.2c0,0-4.3,1.1-6.9-0.6c-2.5-1.7-4.3,0-5,1.7s1.7,3.9,1.7,3.9s-2.2-1-3,1.3s5,8.5,9,10.3
							c4,1.9,11.1,6.6,12.7,7.5c1.7,0.9,3-0.8,3.1-2.4c0.1-1.6,4.1-8,3-12.4C192.4,60.3,188.6,52,178.8,55.2z"/>
					</g>
				</g>
				<g>
					<g>
						<g>
							<g>
								<path class="st23" d="M283.3,634.4L267,638c-22.2,4.9-114.6,27.7-92.7,27.8c20.3,0,105.8-16.4,128-21.4L322,640
									c67.5-15,126.6-31.4,103.7-30.2l0,0C402.8,611,356.7,618,283.3,634.4z"/>
							</g>
						</g>
					</g>
				</g>
				<g>
					<g>
						<g>
							<path class="st24" d="M378.2,609.9c3.3-4.8-2.6-15.7-2.7-16.1c-0.5-1.7,7.2-5.8,10.6-2.5c6.7,6.6,0.8-1.8,4.1,0.1
								c5.4,3.2,14.2,19.1,12.2,21.6c-3.9,4.7-40,11.6-41.6,8.2C359.8,619.2,374,616.1,378.2,609.9z"/>
						</g>
					</g>
				</g>
				<g>
					<g>
						<g>
							<path class="st24" d="M249.2,637.8c4.1-5,2.3-16,2.2-16.4c-0.1-1.8,8-6,10.5-2.5c4.9,6.9,1.2-1.8,3.8,0.2
								c4.4,3.4,9.4,19.9,6.9,22.4c-4.7,4.8-40.2,11.6-41,8.1C231.2,647.5,243.9,644.2,249.2,637.8z"/>
						</g>
					</g>
				</g>
				<g>
					<g>
						<g>
							<path class="st25" d="M149.6,268.5l113.3-3.5l135.7,327.9c-9.3,9.6-20.5,10.3-31.5,9.9L221.9,345.6c0,0,13.9,49.2,24.7,111.1
								c14.6,83.5,35.4,158.7,32.5,159.3c0,0-5.6,5.1-20.6,8.4c-11.1,2.5-18.4-0.2-18.4-0.2C164.6,360.7,149.6,268.5,149.6,268.5z"
								/>
						</g>
					</g>
				</g>
				<g>
					<g>
						<g>
							<path class="st26" d="M270.3,272c-2.9-15.6-8.2-46.9-12.2-61.3c-10.9-39.9-0.6-64.6-4.1-77.1c-6.6-23.7-28.6-43.7-88.4-31.7
								c-31.8,6.3-30.5,29.4-29.8,48c0.5,10.9,8,112.1,15.1,136.1c2,6.9,18.6,9.8,39.7,8.4c2.6-0.2,14.5-2.8,16.3-3
								C237.5,288.2,270.6,273.3,270.3,272z"/>
						</g>
					</g>
				</g>
				<g>
					<g>
						<g>
							<path class="st27" d="M179.1,104.5c5,3.2,17.7-2.8,17.4-5.7l-9.3-23.6l-7.1,6l-1,5.1l-1.1,5.9l-1.2,9.2
								C175.9,104.5,177.7,103.6,179.1,104.5z"/>
						</g>
					</g>
				</g>
				<g class="st28">
					<g>
						<g>
							<path d="M178,92.2c7.8-2,8.7-9.4,8.7-9.4l-7.5,3.4L178,92.2z"/>
						</g>
					</g>
				</g>
				<g>
					<g>
						<g>
							<path class="st27" d="M186.3,69.2l2.1,7.3c0.8,3.9-1.5,8-5.5,9.4c-3,1.1-4.6,1.6-8.5,1c-3.3-0.5-4.8-3.7-4.7-8
								c0.2-5.6,2-10.7,3-13.3c0.6-1.5,1.5-2.7,2.6-3.4c0.4-0.3,0.9-0.4,1.4-0.4c0.4,0,0.9,0.1,1.3,0.2
								C182,62.5,185.2,65.4,186.3,69.2z"/>
						</g>
					</g>
				</g>
				<g>
					<g>
						<g>
							<path class="st29" d="M184.1,104.8c0,0-5.7-5.6-6.5-9.3c-4,1.8-2.2,16.5-2.2,16.5l9-5l7.2,4.8c0,0,9.7-7.2,9.5-10.2
								c-0.1-3-6.1-10.2-6.8-8.5C191.9,98.6,184.1,104.8,184.1,104.8z"/>
						</g>
					</g>
				</g>
				<g>
					<path class="st27" d="M114.8,113.2c0,0-0.4,8.3,0.4,12.4c0.8,4.1-10.3,4.2-12,1.5c-1.7-2.7,0.9-6.9,1.1-11
						C104.5,112,114,109.7,114.8,113.2z"/>
				</g>
				<g>
					<g>
						<g>
							<path class="st27" d="M187,72.3c0.3-0.7,0.5-1.4,0.7-2.1c0.3-1.4,1.1-3.4,2.9-1.9c2.7,2.1,1.3,8.9-2.3,8.7
								C185.6,76.8,186.2,74,187,72.3z"/>
						</g>
					</g>
				</g>
				<g>
					<g>
						<path class="st30" d="M222.1,346.3c0,0,0.1,0,0.1,0c0.4-0.1,0.5-0.6,0.4-1c-0.6-1.4-14.2-35-23.7-43.4c-0.3-0.3-0.8-0.2-1,0.1
							s-0.2,0.8,0.1,1c9.2,8.2,23.2,42.5,23.3,42.8C221.4,346.2,221.7,346.4,222.1,346.3z"/>
					</g>
				</g>
				<g>
					<g>
						<path class="st30" d="M273.4,612.5C273.4,612.5,273.4,612.5,273.4,612.5c0.5-0.2,0.7-0.6,0.5-0.9c0-0.2-5-15-7.2-21.6
							c-1.3-3.8-2.5-14.2-3.8-24.2c-0.9-7.4-1.8-15.1-2.8-20.2c-2.1-11.8-13.9-64.6-17-76.4c-1.7-6.5-5.9-32.5-9.7-55.4
							c-2.7-16.7-5.1-31.1-6-35.3c-2.2-9.8-13.4-40.8-13.9-42.1c-0.1-0.4-0.6-0.6-0.9-0.4c-0.4,0.1-0.6,0.6-0.4,0.9
							c0.1,0.3,11.7,32.2,13.8,41.9c0.9,4.1,3.3,18.5,6,35.2c3.7,23,8,49,9.7,55.6c3.1,11.8,14.8,64.5,16.9,76.2
							c0.9,5.1,1.9,12.8,2.8,20.2c1.3,10.6,2.5,20.6,3.8,24.5c2.2,6.6,7.2,21.5,7.2,21.7C272.6,612.4,273,612.6,273.4,612.5z"/>
					</g>
				</g>
				<g class="st28">
					<g>
						<path d="M174.6,85.2c4.9,0.2,11.9-1.8,11.9-1.8c-1,1.1-2.2,2-3.7,2.5c-3,1.1-4.6,1.6-8.5,1c-1.4-0.2-2.5-1-3.3-2.1
							C171.9,85,173.1,85.1,174.6,85.2z"/>
					</g>
				</g>
				<g>
					<g>
						<g>
							<g>
								<g>
									<g>
										<path class="st31" d="M108.9,100.7c0,0-6.5-0.9-6.8-2.3c-0.2-1.3,1.6-2.2,2.8-4.4c1.1-2,1.3-4.5,1.3-4.5l8.6,0.5
											L108.9,100.7z"/>
									</g>
								</g>
								<g>
									<g>
										<path class="st32" d="M114.9,87.8c0,0-12.7,23.3-19.6,25.3c-6.9,2,6.9,9,12.4,5.3c5.5-3.6,18.7-25.7,18.7-25.7L114.9,87.8
											z"/>
									</g>
								</g>
								<g>
									<g>
										<path class="st31" d="M134.3,72.1c-3.8-1.8-8.9-4.3-14.5-7.4l-11.1,25.9c5.5,0.9,11.1,2.1,16.6,3.8
											c3.4,1.1,7.1-0.6,8.5-3.9l4-9.3C139.3,77.8,137.8,73.7,134.3,72.1z"/>
									</g>
								</g>
								<g>
									<g>
										<path class="st32" d="M84.2,30.1l-26.5,61c0,0,24-4.6,51-0.4l11.1-25.9C104.2,56.1,92,40.3,84.2,30.1z"/>
									</g>
								</g>
								<g>
									<g>
										<path class="st31" d="M84.2,30.1c2.7,3.6,6,7.9,9.8,12.3c0.1,4.2-0.7,12-5.2,24.6C85,77.9,79,85.3,73.8,89.2
											c-9.8,0.6-16.1,1.8-16.1,1.8L84.2,30.1z"/>
									</g>
								</g>
								<g>
									<g>
										<path class="st33" d="M77.2,63.1c-7.4,17.1-16.5,29.5-20.5,27.8c-4-1.7-1.3-16.9,6.1-34s16.5-29.5,20.5-27.8
											C87.3,30.8,84.5,46.1,77.2,63.1z"/>
									</g>
								</g>
								<g>
									<g>
										<path class="st32" d="M48.3,49.4l0.6-1.4c1.5-3.5,5.4-5.2,9-4.1l23.8,7.6c-1.2,3.7-2.7,7.6-4.4,11.6c-1.3,3-2.6,5.8-4,8.5
											L51.3,58.7C48.1,56.8,46.8,52.8,48.3,49.4z"/>
									</g>
								</g>
								<g>
									<g>
										<path class="st34" d="M77.2,63.1c1.7-4,3.2-7.9,4.4-11.6l-3-1L68,68.5l5.2,3.1C74.6,68.9,75.9,66.1,77.2,63.1z"/>
									</g>
								</g>
								<g>
									<g>
										<path class="st29" d="M56.6,91.6c2.8,0.9,6.7-3.3,9.5-7.1c3.9-5.3,8-12.8,11.6-21.1c3.6-8.3,6.2-16.4,7.3-22.9
											c0.9-4.8,1.3-10.7-1.6-11.9c-1.8-0.8-4.4,0.6-7.5,4.3c-2.9,3.3-6,8.1-9.1,14l1.2,0.4c3-5.8,6-10.4,8.9-13.6
											c2.6-3,4.9-4.5,6.1-4c0.9,0.4,1.3,1.9,1.4,3.1c0.2,1.9,0,4.4-0.5,7.4c-1.1,6.4-3.7,14.4-7.2,22.6
											c-3.5,8.2-7.6,15.6-11.5,20.8c-1.9,2.5-3.5,4.4-5,5.5c-1,0.7-2.3,1.5-3.2,1.1c-0.8-0.3-1.1-1.5-1.3-2.4
											c-0.2-1.4-0.2-3.4,0.1-5.8c0.6-4.9,2.3-11.2,4.8-18.1l-1.1-0.6c-2.6,6.9-4.4,13.6-5,18.5c-0.7,5.4,0,8.6,2,9.5
											C56.5,91.5,56.6,91.5,56.6,91.6z"/>
									</g>
								</g>
								<g>
									<g>
										<g>
											<path class="st33" d="M122.5,73.6l9.4,3.5c0.1,0,0.2,0,0.3-0.1l0.4-1.1c0-0.1,0-0.2-0.1-0.3l-9.4-3.5
												c-0.1,0-0.2,0-0.3,0.1l-0.4,1.1C122.4,73.4,122.4,73.5,122.5,73.6z"/>
										</g>
									</g>
									<g>
										<g>
											<path class="st33" d="M121.6,76l9.4,3.5c0.1,0,0.2,0,0.3-0.1l0.4-1.1c0-0.1,0-0.2-0.1-0.3l-9.4-3.5c-0.1,0-0.2,0-0.3,0.1
												l-0.4,1.1C121.5,75.8,121.5,76,121.6,76z"/>
										</g>
									</g>
									<g>
										<g>
											<path class="st33" d="M120.7,78.5l9.4,3.5c0.1,0,0.2,0,0.3-0.1l0.4-1.1c0-0.1,0-0.2-0.1-0.3l-9.4-3.5
												c-0.1,0-0.2,0-0.3,0.1l-0.4,1.1C120.5,78.3,120.6,78.4,120.7,78.5z"/>
										</g>
									</g>
								</g>
							</g>
							<g>
								<g>
									<path class="st29" d="M116.9,66.2c0.3,0,0.6-0.1,0.7-0.4c0.2-0.3,0-0.8-0.3-0.9c-0.1-0.1-9.7-4.9-15.6-11.4
										c-0.3-0.3-0.7-0.3-1,0c-0.3,0.3-0.3,0.7,0,1c6.1,6.6,15.6,11.5,16.1,11.7C116.8,66.2,116.9,66.2,116.9,66.2z"/>
								</g>
							</g>
							<g>
								<g>
									<path class="st29" d="M98.5,52.2c0.2,0,0.4,0,0.5-0.2c0.3-0.3,0.3-0.7,0-1l-2.6-2.8c-0.3-0.3-0.7-0.3-1,0
										c-0.3,0.3-0.3,0.7,0,1l2.6,2.8C98.2,52.1,98.4,52.2,98.5,52.2z"/>
								</g>
							</g>
						</g>
						<g>
							<polygon class="st35" points="40.2,26.1 34.1,5.1 26.7,9.6 							"/>
						</g>
						<g>
							<polygon class="st35" points="32.9,35.5 11,18.4 6.7,28.6 							"/>
						</g>
						<g>
							<polygon class="st35" points="31.8,53.3 4.1,56.5 8.3,66.8 							"/>
						</g>
					</g>
				</g>
				<g>
					<path class="st27" d="M110.2,117.9c-1.4-0.8,0.4-2.7,2.1-6.4c1.7-3.7,3-5.2,4.1-6.2c1.7-1.4,3.3-1.9,1.9,0.8
						c-1.2,2.4-1.4,6.1-2.1,8.8C115.2,118.7,111.4,118.6,110.2,117.9z"/>
				</g>
				<g>
					<path class="st27" d="M102.7,101.5c-1.2,0.8-3.5,5.6-4.6,8c-0.4,0.9,0,1.9,0.9,2.3c1,0.4,2.4,0.6,3.7-0.1c1.2-0.7,2.2-3,2.2-3
						s0.4,0.1,1.3-1.7c0.6-1.2-0.4-2.1-1.1-2.5c0.6,0.2,1.6,0.4,2.6-0.3C109.4,103.1,104.4,100.5,102.7,101.5z"/>
				</g>
				<g>
					<path class="st26" d="M244.8,115.6L316,187l102.6,24.3c0,0,5.2,20.9-0.6,26.3c0,0-91,5.3-112.3-3.9
						c-38.9-16.8-71.3-61.8-80.4-87.6C219.8,130.5,244.8,115.6,244.8,115.6z"/>
				</g>
				<g>
					<path class="st36" d="M417.3,217.2c1.4-1,6.4-1.2,9-1c5,0.5,8-0.9,9.7-2.3s2,2.5-0.7,4.1c-2.6,1.6-8,2.4-5.6,3.5
						s15.3-7.5,13.3-1.7c-6,17.4-20.6,14.7-27.8,9.8C415.2,229.6,407.5,224.7,417.3,217.2z"/>
				</g>
				<g>
					<path class="st22" d="M333.9,198.8c-0.3,0.1-0.5,0-0.8-0.1c-0.5-0.2-13.1-5.7-19-11.6c-0.5-0.5-0.5-1.4,0-1.9
						c0.5-0.5,1.3-0.5,1.9,0c5.6,5.6,18,11,18.2,11c0.7,0.3,1,1.1,0.7,1.7C334.7,198.4,334.3,198.7,333.9,198.8z"/>
				</g>
				<g>
					<path class="st22" d="M254.6,194.7c-0.5,0.1-1-0.1-1.3-0.4c-19.6-23.4-29.9-51.1-30-51.4c-0.2-0.7,0.1-1.4,0.8-1.7
						c0.7-0.2,1.4,0.1,1.7,0.8c0.1,0.3,10.2,27.6,29.6,50.6c0.5,0.6,0.4,1.4-0.2,1.9C255,194.6,254.8,194.6,254.6,194.7z"/>
				</g>
				<g>
					<path class="st37" d="M126,230.3c-0.3,0.1-0.7-0.1-0.9-0.4c-0.2-0.4-0.1-0.9,0.3-1.1c0,0,4.4-2.9,6.4-18.4
						c2.1-16-7.8-64.7-7.9-65.2c-0.1-0.4,0.2-0.8,0.6-0.9c0.4-0.1,0.9,0.2,0.9,0.6c0.4,2,10.1,49.4,8,65.7
						c-2.2,16.6-7,19.5-7.2,19.6C126.1,230.2,126,230.2,126,230.3z"/>
				</g>
			</g>
			<g>
				<g id="XMLID_00000155839800177477631500000005372612264971528882_">
					<g id="XMLID_00000176040887623595324180000000631316198893710005_">
						<path id="XMLID_00000129186312130137395170000015606118012599629208_" class="st20" d="M177.5,74.9c0-0.1-0.1-0.1-0.1-0.1
							c0,0-0.1,0-0.1,0l-0.1,0c0,0-0.1,0-0.2,0c0,0-0.1,0-0.1,0c-0.1,0-0.2,0-0.3,0l-0.1,0c0,0-0.1,0-0.1,0c0,0,0,0-0.1,0
							c-0.1,0-0.2-0.1-0.2-0.1c-0.1,0-0.1-0.1-0.2-0.1c0,0,0,0-0.1-0.1c0,0,0,0,0,0l0,0c0-0.1,0-0.1,0-0.2c0-0.1,0-0.2,0-0.2
							c0-0.1,0-0.2,0-0.3v0c0,0,0,0,0,0l0,0c0,0,0-0.1,0-0.1l0-0.2v-0.1l0-0.1l0-0.1c0,0,0-0.1,0-0.1c0,0,0,0,0-0.1c0,0,0,0,0-0.1
							c0-0.1,0.1-0.2,0-0.3c0-0.1,0-0.2,0-0.2l0-0.1c0,0,0-0.1,0-0.1l0-0.1c0-0.1,0-0.2,0.1-0.2c0-0.1,0-0.2,0-0.3
							c0-0.1,0-0.2,0-0.3c0,0,0,0,0-0.1s0-0.1,0-0.1l0-0.2c0-0.1,0-0.2,0-0.4c0-0.1,0-0.1,0-0.2c0,0,0,0,0-0.1c0,0,0-0.1,0-0.1
							c0,0-0.1-0.1-0.2-0.1s-0.1,0-0.2,0c-0.1,0-0.1,0.1-0.1,0.1s0,0,0,0.1c0,0,0,0.1,0,0.1c0,0,0,0.1,0,0.1c0,0.1,0,0.2-0.1,0.4
							c0,0,0,0.1,0,0.1c0,0,0,0.1,0,0.2v0v0c0,0,0,0.1,0,0.2c0,0.1,0,0.1,0,0.2c0,0.1,0,0.3-0.1,0.4c0,0,0,0.1,0,0.1
							c0,0.1,0,0.1,0,0.2c0,0,0,0.1,0,0.1s0,0.1,0,0.1c0,0,0,0.1,0,0.2c0,0.2-0.1,0.4-0.1,0.7c0,0,0,0.1,0,0.1s0,0.1,0,0.1
							s0,0.1,0,0.1c0,0,0,0.1,0,0.1l-0.1,0.1c0,0,0,0,0,0c0,0,0,0.1,0,0.1c0,0.1,0,0.2,0,0.2c0,0.2,0.1,0.4,0.2,0.5
							c0,0,0,0.1,0.1,0.1c0,0.1,0.1,0.2,0.2,0.2c0,0,0.1,0.1,0.1,0.1c0,0,0.1,0,0.1,0c0.1,0,0.1,0.1,0.2,0.1
							c0.2,0.1,0.5,0.1,0.7,0.1c0,0,0.1,0,0.1,0s0.1,0,0.1,0c0,0,0.1,0,0.1,0c0,0,0.1,0,0.1,0l0.3-0.1c0,0,0.1,0,0.1,0
							c0,0,0.1,0,0.1,0s0,0,0-0.1c0,0,0-0.1,0-0.2C177.6,75,177.6,75,177.5,74.9z"/>
					</g>
				</g>
				<g id="XMLID_00000011742037406250600440000017513101485809203639_">
					<g id="XMLID_00000182503002097680392230000000873997733552273567_">
						<path id="XMLID_00000168114931490539653430000018079207855126020743_" class="st20" d="M178.4,76.3c-0.1,0-0.1,0-0.2,0
							c0,0,0,0,0,0l0,0c0,0,0,0,0,0c0,0,0,0,0,0c0,0-0.1,0.1-0.1,0.1l0,0c0,0,0,0,0,0.1c0,0,0,0,0,0c0,0-0.1,0-0.1,0.1
							c0,0,0,0.1-0.1,0.1l0,0c0,0,0,0,0,0l0,0c0,0-0.1,0-0.1,0c0,0-0.1,0-0.1,0.1c0,0-0.1,0-0.1,0.1l0,0h0l0,0c0,0,0,0,0,0l-0.1,0
							l0,0c0,0,0,0,0,0l-0.1,0c0,0,0,0,0,0h0h0c0,0-0.1,0-0.1,0c0,0-0.1,0-0.1,0h0c0,0,0,0,0,0h0c0,0-0.1,0-0.1,0s-0.1,0-0.1,0
							s-0.1,0-0.1,0c0,0,0,0,0,0c0,0,0,0,0,0l-0.1,0c0,0-0.1,0-0.2,0c0,0,0,0-0.1,0h0c0,0,0,0-0.1,0c0,0-0.1,0.1-0.1,0.2
							s0,0.1,0,0.2c0,0,0,0.1,0,0.1c0,0,0,0,0,0c0,0,0,0,0.1,0c0,0,0,0,0.1,0c0.1,0,0.1,0,0.2,0c0,0,0,0,0.1,0s0.1,0,0.1,0l0,0l0,0
							c0,0,0.1,0,0.1,0s0.1,0,0.1,0c0.1,0,0.2,0,0.2,0c0,0,0,0,0,0c0,0,0.1,0,0.1,0s0,0,0.1,0s0,0,0,0s0.1,0,0.1,0
							c0.1,0,0.2-0.1,0.4-0.1c0,0,0,0,0,0c0,0,0,0,0,0s0,0,0.1,0s0,0,0.1,0l0.1,0c0,0,0,0,0,0c0,0,0,0,0.1,0c0,0,0.1,0,0.1-0.1
							c0.1,0,0.1-0.1,0.2-0.2c0,0,0,0,0,0c0,0,0.1,0,0.1-0.1c0,0,0,0,0,0c0,0,0,0,0,0c0,0,0,0,0.1,0c0.1-0.1,0.1-0.2,0.2-0.3
							c0,0,0,0,0,0c0,0,0,0,0,0c0,0,0,0,0,0c0,0,0,0,0,0l0-0.1c0,0,0,0,0-0.1c0,0,0,0,0,0c0,0,0,0,0,0c0,0-0.1-0.1-0.1-0.1
							C178.5,76.3,178.5,76.3,178.4,76.3z"/>
					</g>
				</g>
				<g id="XMLID_00000153693984033095115710000005481893782357491120_">
					<path id="XMLID_00000052799371285916230300000009973758036661890742_" class="st20" d="M179.5,72.1L179.5,72.1
						c-0.4,0-0.6-0.3-0.6-0.7l0-0.3c0-0.3,0.2-0.6,0.7-0.6c0.3,0,0.6,0.3,0.6,0.7l0,0.3C180.1,71.9,179.8,72.1,179.5,72.1z"/>
				</g>
				<g id="XMLID_00000078726751625359131810000017074399437997821372_">
					<path id="XMLID_00000060741755283328332010000001545317967514613183_" class="st20" d="M172.9,71.8L172.9,71.8
						c-0.4,0-0.6-0.3-0.6-0.7l0-0.3c0-0.3,0.2-0.6,0.7-0.6c0.3,0,0.6,0.3,0.6,0.7l0,0.3C173.5,71.5,173.2,71.8,172.9,71.8z"/>
				</g>
				<g id="XMLID_00000067942896823640914970000008735153021942583982_">
					<g id="XMLID_00000047745873507232700040000002390162768234907048_">
						<path id="XMLID_00000048475296436414412730000012195301684508690837_" class="st20" d="M181.1,69.5c0-0.1,0.1-0.1,0.1-0.2
							c0,0,0,0,0,0l0,0c0,0,0,0,0-0.1c0,0,0,0,0,0c0,0-0.1-0.1-0.1-0.1l0,0c0,0,0,0-0.1,0c0,0,0,0,0,0c0,0-0.1-0.1-0.1,0
							c0,0-0.1,0-0.1,0l0,0c0,0,0,0,0,0l0,0c0,0-0.1,0-0.1-0.1c0,0-0.1,0-0.1,0c0,0-0.1,0-0.1,0l0,0h0l0,0c0,0,0,0,0,0l-0.1,0h0
							c0,0,0,0,0,0l-0.1,0c0,0,0,0,0,0c0,0,0,0,0,0s0,0,0,0c0,0-0.1,0-0.1,0c0,0-0.1,0-0.1,0h-0.1c0,0,0,0,0,0h0c0,0-0.1,0-0.1,0
							c0,0-0.1,0-0.1,0c0,0-0.1,0-0.1,0h0c0,0,0,0,0,0l-0.1,0c0,0-0.1,0.1-0.2,0.1c0,0-0.1,0-0.1,0c0,0,0,0,0,0s0,0,0,0.1
							c0,0,0,0.1,0,0.2s0.1,0.1,0.1,0.2c0,0,0,0.1,0.1,0.1h0c0,0,0,0,0,0l0,0c0,0,0.1,0,0.1,0c0,0,0,0,0,0c0,0,0,0,0,0l0,0l0,0
							c0,0,0,0,0.1,0c0,0,0,0,0.1,0c0,0,0.1,0,0.2,0h0c0,0,0,0,0.1,0s0,0,0,0l0,0c0,0,0,0,0,0c0.1,0,0.2,0,0.2,0c0,0,0,0,0,0h0
							c0,0,0,0,0,0c0,0,0,0,0,0h0h0c0,0,0,0,0,0c0,0,0,0,0.1,0c0,0,0.1,0,0.2,0c0,0,0,0,0,0c0,0,0,0,0.1,0s0,0,0,0h0c0,0,0,0,0,0
							c0.1,0,0.1,0.1,0.2,0.1l0,0h0l0,0c0,0,0,0,0,0l0,0h0c0,0,0,0,0,0l0,0c0,0,0.1-0.1,0.1-0.1C181,69.5,181,69.5,181.1,69.5z"/>
					</g>
				</g>
				<g id="XMLID_00000127015884416735785570000007171866802673614737_">
					<g id="XMLID_00000122700587920809801510000016822229966309212298_">
						<path id="XMLID_00000028310102014681204950000008283359395869959298_" class="st20" d="M171.7,69.1c0.1,0.1,0.1,0.1,0.1,0.1
							c0,0,0,0,0,0l0,0c0,0,0,0,0.1,0l0,0c0,0,0.1,0,0.1,0l0,0c0,0,0,0,0,0c0,0,0,0,0,0c0,0,0.1,0,0.1,0s0,0,0.1,0l0,0c0,0,0,0,0,0
							h0c0,0,0.1,0,0.1,0c0,0,0,0,0.1,0c0,0,0.1,0,0.1,0l0,0h0l0,0c0,0,0,0,0,0h0.1h0c0,0,0,0,0,0h0c0,0,0,0,0,0h0c0,0,0,0,0,0
							c0,0,0.1,0,0.1,0c0,0,0.1,0,0.1,0h0c0,0,0,0,0,0h0c0,0,0,0,0.1,0c0,0,0,0,0.1,0c0,0,0.1,0,0.1,0l0,0c0,0,0,0,0,0l0.1,0
							c0,0,0.1,0,0.1,0c0,0,0,0,0.1,0h0c0,0,0,0,0,0c0,0,0.1-0.1,0.1-0.2s0-0.1,0.1-0.2c0,0,0-0.1,0-0.1c0,0,0,0,0,0c0,0,0,0,0,0
							c0,0,0,0,0,0c0,0-0.1,0-0.2-0.1c0,0,0,0,0,0s0,0-0.1,0l0,0l0,0c0,0,0,0-0.1,0s-0.1,0-0.1,0c-0.1,0-0.1,0-0.2,0c0,0,0,0,0,0
							s-0.1,0-0.1,0c0,0,0,0,0,0l0,0c0,0,0,0-0.1,0c-0.1,0-0.2,0-0.3,0c0,0,0,0,0,0c0,0,0,0,0,0h0h0h0h0c0,0,0,0,0,0
							c0,0-0.1,0-0.1,0c-0.1,0-0.1,0-0.2,0s0,0,0,0s-0.1,0-0.1,0c0,0,0,0,0,0c0,0,0,0,0,0c0,0,0,0-0.1,0c-0.1,0-0.2,0.1-0.2,0.1
							c0,0,0,0,0,0l0,0c0,0,0,0,0,0l0,0l0,0c0,0,0,0,0,0c0,0,0,0,0,0c0,0,0,0,0,0.1c0,0,0,0.1,0.1,0.1
							C171.7,69.1,171.7,69.1,171.7,69.1z"/>
					</g>
				</g>
			</g>
		</g>
	</g>
</g>
</svg>
