<?xml version="1.0" encoding="utf-8"?>
<!-- Generator: Adobe Illustrator 22.1.0, SVG Export Plug-In . SVG Version: 6.00 Build 0)  -->
<svg version="1.1" id="Capa_1" xmlns="http://www.w3.org/2000/svg" xmlns:xlink="http://www.w3.org/1999/xlink" x="0px" y="0px"
	 viewBox="0 0 323.2 120" style="enable-background:new 0 0 323.2 120;" xml:space="preserve">
<style type="text/css">
	.st0{fill:#0C1A3C;}
	.st1{fill:#FF8B61;}
	.st2{fill:#F1624F;}
	.st3{opacity:0.3;}
	.st4{clip-path:url(#SVGID_2_);fill:#185177;}
	.st5{fill:#EB4A6D;}
	.st6{fill:#F48090;}
	.st7{fill:#F2CDAC;}
	.st8{fill:#1A1B1D;}
	.st9{fill:#F56D8E;}
	.st10{fill:#D1152C;}
	.st11{fill:#F86057;}
	.st12{fill:#1F8A4B;}
	.st13{clip-path:url(#SVGID_4_);fill:#326C92;}
	.st14{fill:#219E56;}
	.st15{fill:none;}
	.st16{fill:#F3E8E2;}
	.st17{fill:#346E94;}
</style>
<g>
	<path class="st0" d="M267.9,74.6c-2.9,1.7,6,10.5,9.4,8.8C280.8,81.6,272.1,72.4,267.9,74.6"/>
	<path class="st1" d="M271.5,74.7l-2.6,1.4c0,0-0.6-0.2-1.5-0.4c-1.1-0.2-2.7-0.4-3.8-0.1c-2.1,0.6-4,2.8-5,3.9
		c-1,1.1-1.1,5.5-1.4,6.1c-0.3,0.6,1.6,2,2.4,0.2c0.4-0.9,0.7-1.8,0.9-2.6c0.2-0.8,0.8-1.6,1.5-2.2l1.3-1.1c0,0-1.3,1.8-1.3,3.4
		c0,1.2,1.9,1.5,1.9,1.5s0.1,2,2.4,1.6c0,0,0.5,1.3,2.2,1.1c1.7-0.2,2.6-3.4,2.6-3.4s1.6-0.4,2.8-1.3c0.7-0.5,1.2-1.2,1.3-2.1
		l2.2-1.3C275.9,77.6,273.7,75.6,271.5,74.7"/>
	<path class="st2" d="M265.2,81.2c-0.3,0.6-0.6,1.2-0.8,1.8c-0.2,0.6-0.5,1.2-0.7,1.8h0c-0.1-0.3-0.1-0.7,0-1.1c0-0.3,0.1-0.7,0.3-1
		c0.1-0.1,0.1-0.3,0.2-0.4c0.1-0.1,0.2-0.3,0.3-0.4C264.7,81.7,264.9,81.5,265.2,81.2C265.2,81.2,265.2,81.2,265.2,81.2z"/>
	<path class="st2" d="M267.6,83.2c-0.4,0.4-0.7,1-0.9,1.6c-0.2,0.6-0.5,1.2-0.5,1.8h0c-0.1-0.3-0.1-0.7-0.1-1c0-0.3,0.1-0.7,0.2-0.9
		c0.1-0.1,0.1-0.3,0.2-0.4s0.2-0.3,0.3-0.4C267,83.5,267.3,83.3,267.6,83.2L267.6,83.2z"/>
	<path class="st2" d="M258,80.2c-0.6,1.6-0.7,4.8-0.9,5.4c-0.1,0.2,0.1,0.5,0.3,0.7C258.8,84.8,258.4,82.9,258,80.2"/>
	<g class="st3">
		<g>
			<g>
				<g>
					<defs>
						<rect id="SVGID_1_" x="274.9" y="64.9" width="9.5" height="5.2"/>
					</defs>
					<clipPath id="SVGID_2_">
						<use xlink:href="#SVGID_1_"  style="overflow:visible;"/>
					</clipPath>
					<path class="st4" d="M279.5,65c-4.3,0.4-2.3,3.4-2.3,3.4l-2.3,1.4c1,0.3,1.6,0.4,1.6,0.4c3.6-1.8,6.3-2.6,7.5-2.8
						c0.3-0.1,0.5-0.5,0.3-0.8C283.7,65.8,282.3,64.7,279.5,65"/>
				</g>
			</g>
		</g>
	</g>
	<path class="st5" d="M280.6,110.5c0.5,4.3,0,9.3,0,9.3h41.6c0,0,1.6-11-3.3-20.2C314,90.4,282,100.2,280.6,110.5"/>
	<path class="st6" d="M258.9,13.5c5.6-4.2,10.1-4.1,11.7-0.4s6.1-0.5,7,5c0.9,5.5,2,0.4,4.8,5.3c7.9,13.7-3.7,18.7-11.3,18.6
		c-7.6-0.1-9-1.8-8.8-3.7c0.2-1.9-5.1,3.6-6.1-3.1c-1-6.7-5-6.3-3.3-11.8c0,0-2.8-1.5-1.2-6.1C253.3,12.9,258.9,13.5,258.9,13.5"/>
	<path class="st7" d="M240.2,73.1c-6.5-4.8-12.4-6.7-12.9-5.8c-0.5,0.8,5.6,4.4,5.6,4.4s-3.4,1.2-2.5,3.5c0,0-2.1,0.8-0.9,2.4
		c0,0-1.2,1.4,0.4,2.7c1.6,1.3,3.8,1.3,3.8,1.3s1.1,2.6,4.1,3.1c2.9,0.5,4,2.2,4,2.2s2,0.3,2.9-2.2
		C245.7,82.1,244.1,76.4,240.2,73.1"/>
	<path class="st7" d="M244.8,78.4c0,0-2.9-5.3-5.6-5.3c-2.6,0-6.9,0.4-6.8,1.6s6.6,1.5,6.6,1.5s-1.6,2.6-0.4,5.4
		c1.2,2.8,6.2,3,6.2,3L244.8,78.4L244.8,78.4z"/>
	<path class="st8" d="M237.3,84.5c0.2,0,0.4,0.1,0.5,0.1c2.9,0.5,4,2.2,4,2.2s2,0.3,2.9-2.2c0.5-1.2,0.7-4.1,0-6.2
		C242.9,82.9,238.9,84.2,237.3,84.5"/>
	<path class="st8" d="M239.1,73.2c-0.6,0.1-1.2,0.2-1.8,0.2c-0.6,0.1-1.2,0.2-1.8,0.3c-0.6,0.1-1.1,0.2-1.7,0.4
		c-0.3,0.1-0.5,0.2-0.7,0.3c-0.1,0.1-0.2,0.1-0.2,0.2c-0.1,0.1-0.1,0.1-0.1,0.1l0,0c0,0,0,0,0,0v0l0,0l0,0c0,0,0.1,0.1,0.2,0.1
		c0.2,0.1,0.5,0.2,0.7,0.2c0.5,0.1,1.1,0.2,1.7,0.3c1.1,0.2,2.3,0.2,3.5,0.3h0c0.3,0,0.6,0.3,0.5,0.6c0,0.1,0,0.2-0.1,0.3
		c-0.1,0.2-0.3,0.5-0.4,0.8s-0.2,0.6-0.3,0.8c-0.2,0.6-0.2,1.2-0.2,1.8c0,0.6,0.1,1.2,0.3,1.8c0.2,0.6,0.6,1.1,1.1,1.5l0,0v0h0
		c-0.5-0.3-1-0.8-1.3-1.4c-0.3-0.6-0.5-1.2-0.5-1.9c-0.1-0.7,0-1.3,0.1-1.9s0.4-1.3,0.7-1.8l0,0.1c-1.2,0-2.4-0.1-3.6-0.3
		c-0.6-0.1-1.2-0.2-1.8-0.3c-0.3-0.1-0.6-0.2-0.8-0.3c-0.1-0.1-0.3-0.1-0.4-0.3c-0.1-0.1-0.1-0.3-0.1-0.4c0.1-0.3,0.4-0.5,0.7-0.6
		s0.6-0.2,0.8-0.3c0.6-0.2,1.2-0.2,1.8-0.3C236.7,73.2,237.9,73.1,239.1,73.2C239.1,73.1,239.1,73.1,239.1,73.2
		C239.2,73.1,239.2,73.2,239.1,73.2L239.1,73.2z"/>
	<path class="st8" d="M233,71.7c0,0-0.8,0.3-1.5,0.8c1.4,0,3.4,0.1,3.4,0.1S234.1,72.3,233,71.7"/>
	<path class="st8" d="M230.5,75.2c1.8,2.2,4.6,3.4,5.3,3.2s-0.2-1.8-0.2-1.8s1.4,1.1,0.8,2c-0.6,0.9-3.7-0.4-4.8-1.4
		S230.5,75.2,230.5,75.2"/>
	<path class="st8" d="M229.5,77.6c1.6,1.7,5,2.2,5,2.2s-1.4,0.4-3.1-0.3C229.7,78.9,229.5,77.6,229.5,77.6"/>
	<path class="st5" d="M261.4,47.6c-4.8,16.6-7.2,38.3-7.2,38.3l-9.4-7.5c0,0-0.8,5.8-4.5,8.3c0,0,11.3,15.4,20,15.3
		c8.8,0,14.9-27.7,14.9-27.7L261.4,47.6z"/>
	<path class="st9" d="M273.6,35.6c0,0,18.5,4.2,27.1,13.5c8.5,9.3,18.2,50.5,18.2,50.5s-22,11.9-38.3,10.9c0,0-6-21.8-7.8-26
		C271,80.3,261.7,82,260,71.7s1.4-24.2,1.4-24.2S263.2,41.7,273.6,35.6"/>
	<path class="st5" d="M272.8,84.5c1.8,4.2,7.8,26,7.8,26c16.3,0.9,38.3-10.9,38.3-10.9s-9.3-39.8-17.8-50
		c-4.7,1.7-8.6,5.6-10.1,13.5C293.4,78.9,272.8,84.5,272.8,84.5"/>
	<path class="st7" d="M256.7,23.5c0.5,2.8,0.9,9.1,3.6,11.9c2.6,2.7,5.4,0,5.4,0l1,5.4c0.2,1,1.3,1.6,2.2,1.2c2-0.8,5.2-2.3,6.6-4.9
		l-2.6-7.1c0,0-0.6-7.6-6.3-11.3C260.9,15.1,256,19.7,256.7,23.5"/>
	<path class="st8" d="M265.6,35.4l0.5,2.8c1.9-1.4,2.1-6.3,2.1-6.3S267.5,34.2,265.6,35.4"/>
	<path class="st6" d="M259.3,19.7c0.8,2.7,5.2,4.7,8,5.1c0,0-0.7,2.8,1.4,3.2s0.2,2.1,2.7,3.4c2.5,1.3-0.3,4.8,4,5.6
		c1.8,0.3,2.9-0.6,3.7-1.8c1.4-2.1,1.4-4.8,0.2-7c-1.9-3.4-5.5-9-9.4-10.9c-5.7-2.9-11.1-1.3-13.8,1.3c-2.7,2.5-0.7,6.7-0.7,6.7
		S259,24.3,259.3,19.7"/>
	<path class="st7" d="M293.8,87.1l-4.3,2.3c0,0-2.9-0.3-5.4,1.7c-2.5,2.1-4.6,2.1-4.2,2.7c0.3,0.6,2.4,1.6,5-0.3
		c2.5-1.9,2.7-0.8,1.9,1.3c-0.8,2.1-6,7.8-6.3,9.1c-0.3,1.3,4.3-2.6,6.4-4.6c0,0-5.1,7.2-5,8.3c0.2,1.1,4.5-3.4,6.7-7.4
		c0,0-2.6,5.8-2.5,6.8c0.1,1.2,2.7-1.1,4.6-6.1c0,0-1.7,4.7-1.2,5s1.3-1.3,2.8-5.3s4.4-6.6,4.4-6.6S296.6,89.2,293.8,87.1"/>
	<path class="st8" d="M295.7,95.1c0.6-0.7,1-1.1,1-1.1s-0.1-4.9-2.9-7l-4.3,2.3C292.9,91.2,294.8,93.8,295.7,95.1"/>
	<path class="st9" d="M300.4,49.1c-3.2-2.9-8.4-1.7-9.9,2.3c0,0.1-0.1,0.2-0.1,0.3c-2.2,6.3,0.6,11.8,5.2,16.5
		c4.7,4.7,11,11.7,11,11.7L291,87.3c0,0,4.4,5.3,5.2,8.7c0,0,20-3.9,25.4-10.4c5.5-6.5-5.5-21.3-13.3-28.9
		C304.9,53.2,302.2,50.7,300.4,49.1"/>
	<polygon class="st10" points="227.5,67.5 156.5,67.5 166,49 218,49 	"/>
	<rect x="156.5" y="67.5" class="st11" width="71.1" height="51"/>
	<path class="st12" d="M64.6,39.1c0,0-25.1,6-36.2,17.1S29.4,95,29.4,95L64.6,39.1z"/>
	<g class="st3">
		<g>
			<g>
				<g>
					<defs>
						<rect id="SVGID_3_" x="24.4" y="53" width="31.5" height="42"/>
					</defs>
					<clipPath id="SVGID_4_">
						<use xlink:href="#SVGID_3_"  style="overflow:visible;"/>
					</clipPath>
					<path class="st13" d="M24.6,78.6c1.5,8.8,4.9,16.5,4.9,16.5l26.4-42c-8.3,2.7-20.9,7.7-28,14.7c-0.1,0.1-0.2,0.2-0.3,0.3
						C25,70.9,23.9,74.8,24.6,78.6"/>
				</g>
			</g>
		</g>
	</g>
	<path class="st7" d="M110.2,22.5c-0.2-8.8-13.6-12.6-19.1-8.7s-5,13-5,13l-9.1,12.8l14,3.4l5.9-4.5c0,0,3.3,2.8,4.6,1.8
		c0.9-0.7,4-3.3,4.6-4c0.2-0.2-2-2.5-2.3-2.5c-1.5-0.4-1.3,1.6-1.1,0.9c0.1-0.2,0.3-0.3,0.5-0.1c0.7,0.7,2.4,2.3,2.9,1.8
		c0.6-0.7,0.7-2.4,0.7-2.4s2.3,0,2.8-0.6s-0.5-2-0.6-4.4C109.1,26.6,110.5,24.8,110.2,22.5"/>
	<path class="st8" d="M109.7,33.4c-0.2,0.2-3.6-1.1-3.7-0.7c-0.2,0.4,0.2,1,0.9,1.3C108.6,34.6,109.7,33.4,109.7,33.4"/>
	<path class="st8" d="M94,35.3c-1,1.4-3.2,5-2.8,7.7l5.9-4.5c-1.3-1.2-2-2.4-2.4-3.2C94.5,35.1,94.1,35.1,94,35.3"/>
	<path class="st8" d="M100.9,26.8c2-0.2,2.3-2.8,2.3-2.8s1.8-0.9,5.8-0.2c4,0.7,7.8-2.2,5.5-3.1c0,0,4-1.5,4.2-4.4
		c0.1-2.9-4.8-0.9-4.8-0.9s3.1-2.1,2.8-4.7s-4.3-0.2-4.3-0.2s2.5-2.6,0.6-4.4s-5.4,1.2-5.4,1.2s2.3-4.6-1.3-6
		c-3.6-1.4-6.7,3.4-6.7,3.4s-7.2-4.9-12.3-0.8c-5.1,4.1-0.2,6.7-0.2,6.7s-8,0.6-8,6.9s4.2,5.2,4.2,5.2s-6.6,6.1,0.6,8.1
		c7.3,2,13-1.1,13-1.1s-2.5-0.9-0.8-4.6C97.6,22.1,100.7,24.2,100.9,26.8"/>
	<path class="st14" d="M69.1,119.9l30.6-48c0,0,11.7-14.5,10-20.3S88.3,37.9,73.4,37.3c-20.1-0.9-36.2,34.6-36.2,34.6L0,119.9H69.1z
		"/>
	<rect x="12.4" y="1" class="st15" width="310.8" height="118.9"/>
	<rect x="12.4" y="1" class="st15" width="310.8" height="118.9"/>
	<rect x="177.7" y="56.9" class="st16" width="30.3" height="2.8"/>
	<polygon class="st17" points="166.4,44.6 160.6,54 178.9,59.8 180.7,59.8 184.3,51.6 	"/>
	<path class="st7" d="M136.6,60.6c4.7-0.1,9.5-6.7,13-7.8c2.9-0.9,9.5-0.3,11.8,0c0.5,0.1,0.8,0.5,0.8,0.9c0,0.7-0.6,1.4-1.3,1.4
		l-7.8,0.8c0,0,3.9,0.8,4.3,1.9c0.4,1.1-0.8,2.6-0.8,2.6s0.3,1.8-0.5,3c0,0-0.4,2.6-2.3,3.1s-4.4-0.5-4.4-0.5s-1.5,3.2-7.7,2.2
		l-5.1,0.8V60.6z"/>
	<path class="st8" d="M142.3,66.9l-5.7,0.6V69l5.1-0.7c6.2,0.9,7.7-2.2,7.7-2.2C148.1,66.7,145.4,68.1,142.3,66.9"/>
	<path class="st8" d="M152.1,59c1.8,0,4.5,1.5,4.5,1.5l0.6-0.9C157.2,59.6,154.1,58,152.1,59"/>
	<path class="st8" d="M156.1,63.5c-2.1,0.3-4.8-0.7-4.8-0.7l5.1,0C156.4,62.7,156.3,63.3,156.1,63.5"/>
	<path class="st12" d="M101.8,43.3c9.1,6.4,20.2,14.9,20.2,14.9l18.5,1.2c0,0,3.3,3.9,3.3,8.7c0,4.8-1.8,6.7-1.8,6.7
		s-17.9,7-24.6,6.4c-4.4-0.4-16.4-6.1-24.2-10.1c-7-3.5-10.7-11.5-8.7-19.1c0.5-1.8,1.3-3.7,2.4-5.6C89.9,41.2,96.8,39.8,101.8,43.3
		"/>
	<g id="XMLID_21_">
		<g id="XMLID_22_">
			<path id="XMLID_23_" class="st8" d="M263.2,30.6c0-0.1-0.1-0.1-0.1-0.1c0,0-0.1,0-0.1,0l-0.1,0c0,0-0.1,0-0.2,0c0,0-0.1,0-0.1,0
				c-0.1,0-0.2,0-0.3,0l-0.1,0c0,0-0.1,0-0.1,0c0,0,0,0-0.1,0c-0.1,0-0.2-0.1-0.2-0.1c-0.1,0-0.1-0.1-0.2-0.1c0,0,0,0-0.1-0.1
				c0,0,0,0,0,0l0,0c0-0.1,0-0.1,0-0.2c0-0.1,0-0.2,0-0.2c0-0.1,0-0.2,0-0.3v0c0,0,0,0,0,0l0,0c0,0,0-0.1,0-0.1l0-0.2v-0.1l0-0.1
				l0-0.1c0,0,0-0.1,0-0.1c0,0,0,0,0-0.1s0,0,0-0.1c0-0.1,0.1-0.2,0-0.3c0-0.1,0-0.2,0-0.2l0-0.1c0,0,0-0.1,0-0.1l0-0.1
				c0-0.1,0-0.2,0.1-0.2c0-0.1,0-0.2,0-0.3c0-0.1,0-0.2,0-0.3c0,0,0,0,0-0.1s0-0.1,0-0.1l0-0.2c0-0.1,0-0.2,0-0.4c0-0.1,0-0.1,0-0.2
				c0,0,0,0,0-0.1c0,0,0-0.1,0-0.1c0,0-0.1-0.1-0.2-0.1s-0.1,0-0.2,0c-0.1,0-0.1,0.1-0.1,0.1s0,0,0,0.1c0,0,0,0.1,0,0.1s0,0.1,0,0.1
				c0,0.1,0,0.2-0.1,0.4c0,0,0,0.1,0,0.1s0,0.1,0,0.2v0v0c0,0,0,0.1,0,0.2c0,0.1,0,0.1,0,0.2c0,0.1,0,0.3-0.1,0.5c0,0,0,0.1,0,0.1
				c0,0.1,0,0.1,0,0.2c0,0,0,0.1,0,0.1s0,0.1,0,0.1c0,0,0,0.1,0,0.2c0,0.2-0.1,0.5-0.1,0.7c0,0,0,0.1,0,0.1s0,0.1,0,0.1s0,0.1,0,0.1
				c0,0,0,0.1,0,0.1l0,0.1c0,0,0,0,0,0c0,0,0,0.1,0,0.1c0,0.1,0,0.2,0,0.2c0,0.2,0.1,0.4,0.2,0.5c0,0,0,0.1,0.1,0.1
				c0,0.1,0.1,0.2,0.2,0.2c0,0,0.1,0.1,0.1,0.1c0,0,0.1,0,0.1,0c0.1,0,0.1,0.1,0.2,0.1c0.2,0.1,0.5,0.1,0.7,0.1c0,0,0.1,0,0.1,0
				c0,0,0.1,0,0.1,0c0,0,0.1,0,0.1,0c0,0,0.1,0,0.1,0l0.3-0.1c0,0,0.1,0,0.1,0c0,0,0.1,0,0.1,0c0,0,0,0,0-0.1c0,0,0-0.1,0-0.2
				C263.2,30.7,263.2,30.7,263.2,30.6z"/>
		</g>
	</g>
	<g id="XMLID_12_">
		<g id="XMLID_13_">
			<path id="XMLID_14_" class="st8" d="M264,32c-0.1,0-0.1,0-0.2,0c0,0,0,0,0,0l0,0c0,0,0,0,0,0c0,0,0,0,0,0c0,0-0.1,0.1-0.1,0.1
				l0,0c0,0,0,0,0,0.1c0,0,0,0,0,0c0,0-0.1,0-0.1,0.1c0,0,0,0.1-0.1,0.1l0,0c0,0,0,0,0,0l0,0c0,0-0.1,0-0.1,0c0,0-0.1,0-0.1,0.1
				c0,0-0.1,0-0.1,0.1l0,0h0l0,0c0,0,0,0,0,0l-0.1,0l0,0c0,0,0,0,0,0l-0.1,0c0,0,0,0,0,0h0h0c0,0-0.1,0-0.1,0c0,0-0.1,0-0.1,0h0
				c0,0,0,0,0,0h0c0,0-0.1,0-0.1,0c0,0-0.1,0-0.1,0c0,0-0.1,0-0.1,0c0,0,0,0,0,0c0,0,0,0,0,0l-0.1,0c0,0-0.1,0-0.2,0c0,0,0,0-0.1,0
				h0c0,0,0,0-0.1,0c0,0-0.1,0.1-0.1,0.2c0,0.1,0,0.1,0,0.2c0,0,0,0.1,0,0.1c0,0,0,0,0,0c0,0,0,0,0.1,0c0,0,0,0,0.1,0
				c0.1,0,0.1,0,0.2,0c0,0,0,0,0.1,0c0,0,0.1,0,0.1,0l0,0l0,0c0,0,0.1,0,0.1,0c0,0,0.1,0,0.1,0c0.1,0,0.2,0,0.2,0c0,0,0,0,0,0
				c0,0,0.1,0,0.1,0s0,0,0.1,0c0,0,0,0,0,0s0.1,0,0.1,0c0.1,0,0.2-0.1,0.4-0.1c0,0,0,0,0,0c0,0,0,0,0,0s0,0,0.1,0c0,0,0,0,0.1,0
				l0.1,0c0,0,0,0,0,0c0,0,0,0,0.1,0c0,0,0.1,0,0.1-0.1c0.1,0,0.1-0.1,0.2-0.2c0,0,0,0,0,0c0,0,0.1,0,0.1-0.1c0,0,0,0,0,0
				c0,0,0,0,0,0c0,0,0,0,0.1,0c0.1-0.1,0.1-0.2,0.2-0.3c0,0,0,0,0,0c0,0,0,0,0,0c0,0,0,0,0,0c0,0,0,0,0,0l0-0.1c0,0,0,0,0-0.1
				s0,0,0,0c0,0,0,0,0,0c0,0-0.1-0.1-0.1-0.1C264.1,32,264.1,32,264,32z"/>
		</g>
	</g>
	<g id="XMLID_10_">
		<path id="XMLID_11_" class="st8" d="M265.1,27.8L265.1,27.8c-0.3,0-0.6-0.3-0.6-0.7l0-0.3c0-0.3,0.2-0.6,0.7-0.6
			c0.3,0,0.6,0.3,0.6,0.7l0,0.3C265.7,27.5,265.4,27.8,265.1,27.8z"/>
	</g>
	<g id="XMLID_8_">
		<path id="XMLID_9_" class="st8" d="M258.6,27.4L258.6,27.4c-0.4,0-0.6-0.3-0.6-0.7l0-0.3c0-0.3,0.2-0.6,0.7-0.6
			c0.3,0,0.6,0.3,0.6,0.7l0,0.3C259.1,27.2,258.8,27.4,258.6,27.4z"/>
	</g>
	<g id="XMLID_5_">
		<g id="XMLID_6_">
			<path id="XMLID_7_" class="st8" d="M266.7,25.2c0-0.1,0.1-0.1,0.1-0.2c0,0,0,0,0,0l0,0c0,0,0,0,0-0.1c0,0,0,0,0,0
				c0,0-0.1-0.1-0.1-0.1l0,0c0,0,0,0-0.1,0c0,0,0,0,0,0c0,0-0.1-0.1-0.1,0c0,0-0.1,0-0.1,0l0,0c0,0,0,0,0,0l0,0c0,0-0.1,0-0.1-0.1
				c0,0-0.1,0-0.1,0c0,0-0.1,0-0.1,0l0,0h0l0,0c0,0,0,0,0,0l-0.1,0h0c0,0,0,0,0,0l-0.1,0c0,0,0,0,0,0c0,0,0,0,0,0s0,0,0,0
				c0,0-0.1,0-0.1,0c0,0-0.1,0-0.1,0H265c0,0,0,0,0,0h0c0,0-0.1,0-0.1,0c0,0-0.1,0-0.1,0c0,0-0.1,0-0.1,0h0c0,0,0,0,0,0l-0.1,0
				c0,0-0.1,0.1-0.2,0.1c0,0-0.1,0-0.1,0c0,0,0,0,0,0s0,0,0,0.1c0,0,0,0.1,0,0.2s0.1,0.1,0.1,0.2c0,0,0,0.1,0.1,0.1h0c0,0,0,0,0,0
				l0,0c0,0,0.1,0,0.1,0c0,0,0,0,0,0c0,0,0,0,0,0l0,0l0,0c0,0,0,0,0.1,0c0,0,0,0,0.1,0c0,0,0.1,0,0.2,0h0c0,0,0,0,0.1,0c0,0,0,0,0,0
				l0,0c0,0,0,0,0,0c0.1,0,0.2,0,0.2,0c0,0,0,0,0,0h0c0,0,0,0,0,0c0,0,0,0,0,0h0h0c0,0,0,0,0,0c0,0,0,0,0.1,0c0,0,0.1,0,0.2,0
				c0,0,0,0,0,0c0,0,0,0,0.1,0c0,0,0,0,0,0h0c0,0,0,0,0,0c0.1,0,0.1,0.1,0.2,0.1l0,0h0l0,0c0,0,0,0,0,0l0,0h0c0,0,0,0,0,0l0,0
				c0,0,0.1-0.1,0.1-0.1C266.6,25.2,266.7,25.2,266.7,25.2z"/>
		</g>
	</g>
	<g id="XMLID_2_">
		<g id="XMLID_3_">
			<path id="XMLID_4_" class="st8" d="M257.4,24.8c0.1,0.1,0.1,0.1,0.1,0.1c0,0,0,0,0,0l0,0c0,0,0,0,0.1,0l0,0c0,0,0.1,0,0.1,0l0,0
				c0,0,0,0,0,0c0,0,0,0,0,0c0,0,0.1,0,0.1,0c0,0,0,0,0.1,0l0,0c0,0,0,0,0,0h0c0,0,0.1,0,0.1,0c0,0,0,0,0.1,0c0,0,0.1,0,0.1,0l0,0h0
				l0,0c0,0,0,0,0,0h0.1h0c0,0,0,0,0,0h0c0,0,0,0,0,0h0c0,0,0,0,0,0c0,0,0.1,0,0.1,0c0,0,0.1,0,0.1,0h0c0,0,0,0,0,0h0c0,0,0,0,0.1,0
				c0,0,0,0,0.1,0c0,0,0.1,0,0.1,0l0,0c0,0,0,0,0,0l0.1,0c0,0,0.1,0,0.1,0c0,0,0,0,0.1,0h0c0,0,0,0,0,0c0,0,0.1-0.1,0.1-0.2
				c0-0.1,0-0.1,0.1-0.2c0,0,0-0.1,0-0.1c0,0,0,0,0,0c0,0,0,0,0,0c0,0,0,0,0,0c0,0-0.1,0-0.2-0.1c0,0,0,0,0,0s0,0-0.1,0l0,0l0,0
				c0,0,0,0-0.1,0c0,0-0.1,0-0.1,0c-0.1,0-0.1,0-0.2,0c0,0,0,0,0,0s-0.1,0-0.1,0c0,0,0,0,0,0l0,0c0,0,0,0-0.1,0c-0.1,0-0.2,0-0.3,0
				c0,0,0,0,0,0c0,0,0,0,0,0h0h0.1h0h0c0,0,0,0,0,0c0,0-0.1,0-0.1,0c-0.1,0-0.1,0-0.2,0c0,0,0,0,0,0s-0.1,0-0.1,0c0,0,0,0,0,0
				c0,0,0,0,0,0c0,0,0,0-0.1,0c-0.1,0-0.2,0.1-0.2,0.1c0,0,0,0,0,0l0,0c0,0,0,0,0,0l0,0l0,0c0,0,0,0,0,0c0,0,0,0,0,0c0,0,0,0,0,0.1
				c0,0,0,0.1,0.1,0.1C257.3,24.7,257.4,24.7,257.4,24.8z"/>
		</g>
	</g>
	<g id="XMLID_26_">
		<path id="XMLID_27_" class="st8" d="M107,28.3l0-0.3c0-0.4,0.3-0.7,0.6-0.7c0.4,0,0.7,0.3,0.7,0.6l0,0.3c0,0.4-0.3,0.7-0.6,0.7h0
			C107.4,29,107.1,28.7,107,28.3z"/>
	</g>
	<g id="XMLID_18_">
		<g id="XMLID_19_">
			<path id="XMLID_20_" class="st8" d="M106.1,26.2c0,0,0.1,0.1,0.1,0.1c0,0,0,0,0,0l0,0h0l0,0c0,0,0,0,0,0l0,0h0l0,0
				c0.1,0,0.1-0.1,0.2-0.1c0.1,0,0.1,0,0.1,0c0,0,0,0,0,0l0,0c0,0,0,0,0.1,0c0,0,0,0,0,0c0.1,0,0.1,0,0.2,0s0,0,0.1,0c0,0,0,0,0,0h0
				h0c0,0,0,0,0,0s0,0,0,0h0c0,0,0,0,0,0c0.1,0,0.2,0,0.2,0l0,0c0,0,0,0,0,0c0,0,0,0,0,0c0,0,0,0,0.1,0h0c0.1,0,0.1,0,0.2,0
				c0,0,0,0,0.1,0c0,0,0,0,0.1,0l0,0l0,0l0,0h0c0,0,0.1,0,0.1,0c0,0,0,0,0,0h0h0c0,0,0,0,0.1-0.1c0,0,0.1-0.1,0.1-0.2s0-0.1,0-0.2
				c0,0,0,0,0-0.1s0,0,0,0c0,0,0,0-0.1,0s-0.1-0.1-0.2-0.1l-0.1,0c0,0,0,0,0,0h0c0,0-0.1,0-0.1,0c0,0-0.1,0-0.1,0c0,0-0.1,0-0.1,0h0
				c0,0,0,0,0,0h-0.1c0,0-0.1,0-0.1,0c0,0-0.1,0-0.1,0c0,0,0,0,0,0s0,0,0,0h0l-0.1,0c0,0,0,0,0,0h0l-0.1,0c0,0,0,0,0,0l0,0h0l0,0
				c0,0-0.1,0-0.1,0s-0.1,0-0.1,0c0,0-0.1,0-0.1,0.1l0,0c0,0,0,0,0,0l0,0c0,0-0.1,0-0.1,0c-0.1,0-0.1,0-0.1,0s0,0,0,0c0,0,0,0-0.1,0
				l0,0c0,0-0.1,0.1-0.1,0.1c0,0,0,0,0,0c0,0,0,0,0,0.1l0,0c0,0,0,0,0,0c0,0,0,0.1,0.1,0.2C106,26.1,106,26.1,106.1,26.2z"/>
		</g>
	</g>
	<g id="XMLID_50_">
		<g id="XMLID_51_">
			<path id="XMLID_52_" class="st8" d="M99.8,27c0.1-0.1,0.1-0.1,0.1-0.2c0,0,0-0.1,0-0.1l-0.1-0.1c0,0,0-0.1-0.1-0.1
				c0,0-0.1,0-0.1-0.1c-0.1-0.1-0.1-0.1-0.2-0.2l-0.1-0.1c0,0-0.1,0-0.1,0c0,0,0-0.1-0.1-0.1c-0.1,0-0.1-0.1-0.2-0.1
				c-0.1,0-0.1,0-0.2,0L98.7,26c0,0-0.1,0-0.1,0h-0.1c-0.1,0-0.1-0.1-0.2-0.1c-0.1,0-0.1,0-0.2,0s-0.1,0-0.2,0h0h0l0,0
				c0,0-0.1,0-0.1,0l-0.1,0c0,0,0,0-0.1,0c0,0-0.1,0-0.1,0l-0.1,0c0,0-0.1,0-0.1,0.1c0,0,0,0-0.1,0c0,0,0,0-0.1,0
				c-0.1,0.1-0.1,0.1-0.2,0.1s-0.1,0.1-0.1,0.1l-0.1,0.1c0,0,0,0.1-0.1,0.1l0,0c-0.1,0-0.1,0.1-0.1,0.1c-0.1,0.1-0.1,0.1-0.1,0.2
				c-0.1,0.1-0.1,0.1-0.1,0.2c0,0,0,0,0,0c0,0,0,0,0,0.1l-0.1,0.1c-0.1,0.1,0,0.2-0.1,0.2c0,0.1-0.1,0.1-0.1,0.1c0,0,0,0,0,0.1
				c0,0,0.1,0.1,0.1,0.1c0.1,0.1,0.1,0.1,0.2,0.1s0.1,0,0.2,0s0.1,0,0.1-0.1l0,0c0,0,0-0.1,0-0.1c0,0,0-0.1,0-0.1
				c0.1-0.1,0.1-0.1,0.1-0.2c0,0,0.1,0,0.1-0.1c0,0,0-0.1,0-0.1l0,0l0,0c0.1,0,0.1,0,0.1-0.1c0,0,0.1-0.1,0.1-0.1
				c0.1-0.1,0.1-0.1,0.1-0.2l0,0c0,0,0.1,0,0.1-0.1c0,0,0,0,0.1,0c0,0,0,0,0-0.1c0,0,0.1,0,0.1,0c0.1-0.1,0.2-0.1,0.3-0.1
				c0,0,0,0,0.1,0l0,0c0,0,0,0,0.1,0c0,0,0,0,0.1,0h0.1h0c0,0,0,0,0.1,0c0,0,0.1,0,0.1,0c0.1,0,0.1,0,0.2,0c0,0,0,0,0.1,0
				c0,0,0.1,0,0.1,0s0,0,0.1,0c0,0,0,0,0.1,0c0,0,0.1,0,0.1,0.1c0.1,0,0.2,0.1,0.3,0.1c0,0,0,0,0.1,0s0,0,0.1,0c0,0,0,0,0,0.1
				s0,0,0.1,0.1l0.1,0.1c0,0,0,0,0.1,0c0,0,0,0,0.1,0c0,0,0.1,0,0.1,0C99.8,27.1,99.8,27,99.8,27C99.7,27,99.8,27,99.8,27z"/>
		</g>
	</g>
	<g id="XMLID_47_">
		<g id="XMLID_48_">
			<path id="XMLID_49_" class="st8" d="M99.2,28.8c0.1,0,0.1-0.1,0.2-0.1c0,0,0,0,0-0.1l0-0.1c0,0,0-0.1,0-0.1c0,0,0,0,0-0.1
				c0-0.1,0-0.1-0.1-0.2l0-0.1c0,0-0.1-0.1-0.1-0.1s0-0.1,0-0.1C99,27.9,99,27.9,99,27.9c-0.1-0.1-0.1-0.1-0.1-0.1l-0.1-0.1
				c0,0,0,0-0.1,0l0,0c0,0-0.1-0.1-0.1-0.1c-0.1,0-0.1-0.1-0.1-0.1c-0.1,0-0.1-0.1-0.2-0.1h0l0,0l0,0c0,0,0,0-0.1,0l-0.1-0.1h0
				c0,0-0.1,0-0.1,0l-0.1,0c0,0-0.1,0-0.1,0c0,0,0,0,0,0l0,0c-0.1,0-0.1,0-0.2,0c-0.1,0-0.1,0-0.2,0h-0.1c0,0,0,0-0.1,0h-0.1
				c-0.1,0-0.1,0-0.2,0c-0.1,0-0.1,0-0.2,0.1c-0.1,0-0.1,0-0.2,0.1c0,0,0,0-0.1,0c0,0,0,0-0.1,0l-0.1,0.1c-0.1,0-0.1,0.1-0.2,0.1
				c-0.1,0-0.1,0-0.1,0.1c0,0,0,0,0,0.1c0,0,0,0.1,0,0.1c0,0.1,0.1,0.1,0.1,0.2c0.1,0.1,0.1,0.1,0.2,0.1c0.1,0,0.1,0.1,0.1,0l0,0
				c0,0,0,0,0.1,0s0,0,0,0c0.1,0,0.1-0.1,0.1-0.1c0,0,0.1,0,0.1,0c0,0,0,0,0.1-0.1l0,0l0,0c0,0,0.1,0,0.1,0c0,0,0.1,0,0.1,0
				c0.1,0,0.1,0,0.2-0.1h0c0,0,0.1,0,0.1,0c0,0,0,0,0.1,0l0,0c0,0,0.1,0,0.1,0c0.1,0,0.2,0,0.2,0.1c0,0,0,0,0,0h0l0,0c0,0,0,0,0,0
				l0.1,0h0l0,0c0,0,0.1,0,0.1,0.1c0.1,0,0.1,0.1,0.1,0.1l0,0c0,0,0,0.1,0.1,0.1c0,0,0,0,0,0c0,0,0,0,0,0s0,0.1,0,0.1
				c0.1,0.1,0.1,0.1,0.1,0.2c0,0,0,0,0,0l0,0c0,0,0,0,0,0.1s0,0,0,0.1v0.1c0,0,0,0,0,0s0,0,0,0c0,0,0.1,0,0.1,0c0.1,0,0.1,0,0.2,0
				C99.1,28.8,99.1,28.8,99.2,28.8z"/>
		</g>
	</g>
	<g id="XMLID_33_">
		<g id="XMLID_34_">
			<path id="XMLID_35_" class="st8" d="M105.9,36.6C105.8,36.6,105.8,36.6,105.9,36.6L105.9,36.6l-0.1-0.1h0c0,0,0,0,0,0
				c0,0,0,0-0.1,0h0c0,0,0,0,0,0h0c0,0,0,0-0.1,0c0,0,0,0-0.1,0h0c0,0,0,0,0,0l0,0c0,0,0,0-0.1,0c0,0,0,0-0.1,0c0,0,0,0-0.1,0l0,0
				l0,0l0,0c0,0,0,0,0,0h0l0,0c0,0,0,0,0,0h0c0,0,0,0,0,0l0,0l0,0c0,0,0,0-0.1,0c0,0,0,0-0.1,0h0c0,0,0,0,0,0l0,0c0,0,0,0,0,0
				c0,0,0,0,0,0c0,0,0,0-0.1,0l0,0c0,0,0,0,0,0l0,0c0,0,0,0-0.1-0.1v0c0,0,0,0,0,0h0c0,0-0.1,0-0.1,0c0,0,0,0-0.1,0.1c0,0,0,0,0,0
				c0,0,0,0,0,0v0c0,0,0,0,0,0s0,0.1,0.1,0.1c0,0,0,0,0,0c0,0,0,0,0,0l0,0l0,0c0,0,0,0,0,0c0,0,0,0,0,0c0,0,0.1,0,0.1,0.1
				c0,0,0,0,0,0c0,0,0,0,0,0s0,0,0,0c0,0,0,0,0,0l0,0c0.1,0,0.1,0,0.2,0.1h0c0,0,0,0,0,0c0,0,0,0,0,0h0h0l0,0h0c0,0,0,0,0.1,0
				c0,0,0.1,0,0.1,0c0,0,0,0,0,0c0,0,0,0,0.1,0h0c0,0,0,0,0,0h0c0.1,0,0.1,0,0.2-0.1c0,0,0,0,0,0c0,0,0,0,0,0c0,0,0,0,0,0h0l0,0
				c0,0,0,0,0,0c0,0,0,0,0,0v0c0,0,0-0.1,0-0.1C105.9,36.6,105.9,36.6,105.9,36.6z"/>
		</g>
	</g>
</g>
</svg>
