<svg id="Capa_1" data-name="Capa 1" xmlns="http://www.w3.org/2000/svg" xmlns:xlink="http://www.w3.org/1999/xlink" viewBox="0 0 2081.42 1324.6"><defs><style>.cls-1{fill:none;}.cls-2{clip-path:url(#clip-path);}.cls-3{fill:#f7c8a7;}.cls-4{fill:#f8c8a6;}.cls-5{fill:#414142;stroke:#414142;}.cls-10,.cls-5,.cls-8{stroke-miterlimit:10;}.cls-10,.cls-5{stroke-width:0.98px;}.cls-10,.cls-6,.cls-8{fill:#fff;}.cls-7{fill:#ef7e6d;}.cls-8{stroke:#ea5444;stroke-width:11.16px;}.cls-9{fill:#ea5444;}.cls-10{stroke:#bd202e;}.cls-11{fill:#fbe2cb;}.cls-12{fill:#fce0c7;}.cls-13{fill:#f4dabd;}</style><clipPath id="clip-path"><rect class="cls-1" x="39.18" y="53.54" width="1895.95" height="1271.06"/></clipPath></defs><g class="cls-2"><path class="cls-3" d="M1215.13,866.08a22.11,22.11,0,0,0-.33-2.49l-2.66-14.26c-2.38-12.77-2.16-33.63.49-46.35l14.14-68c2.64-12.72,4.81-27.2,4.81-32.18s-1.53-9-3.4-9-9.29-8.84-16.5-19.66l-21.31-32c-7.2-10.81-18.95-15.84-26.11-11.17s-10.93,18.91-8.38,31.65l2,10.24c2.55,12.74,1.37,33.28-2.63,45.64l-9.23,28.58c-4,12.37-4,32.61-.13,45l.43,1.35a346.6,346.6,0,0,1,10.5,45.9l3.47,24.12,4,59.06h70Z"/><path class="cls-4" d="M840.55,743a333,333,0,0,1-14.14-33.37c-3.11-9-12-21.5-19.8-27.72s-10.07-17.17-5.09-24.32,9.05-17.34,9.05-22.63-3.82-9.62-8.48-9.62-15,8.43-22.88,18.74l-19.87,25.88C751.43,680.22,745,692,745,696s2.84,17.6,6.31,30.12l19.06,68.74c3.47,12.52,3.35,33-.27,45.45l-6.08,21a24,24,0,0,0-.74,3.58l-27.74,57.61H803l16.75-55.25-.93-.1a26.91,26.91,0,0,0,2.44-5.95l6.86-25.29c3.41-12.54,9.5-26.37,13.54-30.72S849,788.86,849,778.59,845.22,752.29,840.55,743Z"/><rect class="cls-5" x="797.14" y="500.67" width="388.05" height="303.2" rx="23.62"/><rect class="cls-6" x="828.82" y="531.03" width="324.7" height="240.22"/><rect class="cls-7" x="828.82" y="531.03" width="324.7" height="183.37"/><circle class="cls-8" cx="991.16" cy="625.29" r="46.85" transform="translate(157.52 1448.97) rotate(-76.9)"/><polygon class="cls-9" points="983.69 603.47 983.69 647.12 1012.23 625.29 983.69 603.47"/><polygon class="cls-9" points="849.04 729.58 849.04 748.39 861.34 738.98 849.04 729.58"/><rect class="cls-10" x="868.66" y="728.78" width="239.18" height="19.7"/><polygon class="cls-9" points="1123.59 746.8 1112.02 740.22 1112.02 737.63 1123.59 730.45 1123.59 746.8"/><rect class="cls-9" x="1125.55" y="736.58" width="1.97" height="4.8"/><rect class="cls-9" x="1128.53" y="733.35" width="1.97" height="11.03"/><rect class="cls-9" x="1131.48" y="731.9" width="1.97" height="13.93"/><rect class="cls-9" x="871.48" y="731.43" width="158.47" height="13.93"/><path class="cls-4" d="M1207.49,746.39c7.67-4.75,6.41-16.13-2.8-25.3l-1.14-1.12c-9.21-9.17-24.08-24.36-33-33.76l-12.88-13.5c-9-9.4-20-13.33-24.43-8.73s-4.41,14.37.13,21.71a102.83,102.83,0,0,0,20.89,23c6.94,5.3,14.44,14.51,16.65,20.45s8.23,14.2,13.36,18.35S1199.81,751.14,1207.49,746.39Z"/><path class="cls-4" d="M774.58,744.08c-7.67-4.75-6.41-16.14,2.8-25.3l1.13-1.13c9.21-9.16,24.09-24.35,33.06-33.75l12.87-13.5c9-9.4,20-13.33,24.44-8.73s4.41,14.37-.14,21.71a102.59,102.59,0,0,1-20.89,23c-6.94,5.3-14.43,14.5-16.65,20.45S803,741,797.85,745.18,782.25,748.83,774.58,744.08Z"/><path class="cls-11" d="M1141.65,665.1s-7.63,4.47-6.6,8.53c0,0,3,6.17,7,6.28l8.52-9.09S1144.13,663.38,1141.65,665.1Z"/><path class="cls-11" d="M840.74,663.65s6.73,5.75,5,9.56c0,0-4,5.56-8,5L831,667.73S838.61,661.53,840.74,663.65Z"/><path class="cls-12" d="M828.82,807.14s-34.36,7.87-37-28.22C791.83,778.92,785.75,820.92,828.82,807.14Z"/><path class="cls-13" d="M756.4,679.62s-17.06,12.91-3.28,42.32C753.12,721.94,743.93,693.85,756.4,679.62Z"/><path class="cls-11" d="M1218.27,686.36s18,11.51,6.63,41.93C1224.9,728.29,1231.83,699.55,1218.27,686.36Z"/><path class="cls-11" d="M1152.53,807.14s34.36,7.87,37-28.22C1189.51,778.92,1195.6,820.92,1152.53,807.14Z"/></g></svg>