<?xml version="1.0" encoding="utf-8"?>
<!-- Generator: Adobe Illustrator 25.4.1, SVG Export Plug-In . SVG Version: 6.00 Build 0)  -->
<svg version="1.1" id="Capa_1" xmlns="http://www.w3.org/2000/svg" xmlns:xlink="http://www.w3.org/1999/xlink" x="0px" y="0px"
	 viewBox="0 0 600 120" style="enable-background:new 0 0 600 120;" xml:space="preserve">
<style type="text/css">
	.st0{display:none;}
	.st1{display:inline;fill:#0C1A3C;}
	.st2{display:inline;fill:#FF8B61;}
	.st3{display:inline;fill:#F1624F;}
	.st4{display:inline;opacity:0.3;}
	.st5{clip-path:url(#SVGID_00000168800317781156838880000002481996933807437994_);fill:#185177;}
	.st6{display:inline;fill:#EB4A6D;}
	.st7{display:inline;fill:#F48090;}
	.st8{display:inline;fill:#F2CDAC;}
	.st9{display:inline;fill:#1A1B1D;}
	.st10{display:inline;fill:#F56D8E;}
	.st11{display:inline;fill:#D1152C;}
	.st12{display:inline;fill:#F86057;}
	.st13{display:inline;fill:#1F8A4B;}
	.st14{clip-path:url(#SVGID_00000098931017730197860610000006564942730649020556_);fill:#326C92;}
	.st15{display:inline;fill:#219E56;}
	.st16{display:inline;fill:none;}
	.st17{display:inline;fill:#F3E8E2;}
	.st18{display:inline;fill:#346E94;}
	.st19{display:inline;}
	.st20{fill:#1A1B1D;}
	.st21{clip-path:url(#SVGID_00000180365536083890247830000008836994349876514198_);}
	.st22{fill:#CE4949;}
	.st23{fill:#5CBEC6;}
	.st24{fill:#404859;}
	.st25{fill:#434A59;}
	.st26{fill:#40840B;}
	.st27{fill:#F2CDAC;}
	.st28{opacity:0.29;}
	.st29{fill:#FFFFFF;}
	.st30{fill:#2A2E35;}
	.st31{fill:#F70D3F;}
	.st32{fill:#EAEAEA;}
	.st33{fill:#A64F3C;}
	.st34{fill:#95B7BF;}
	.st35{fill:#0C0A01;}
	.st36{fill:#FF5F4A;}
	.st37{fill:#FF867A;}
	.st38{fill:#823636;}
</style>
<g class="st0">
	<path class="st1" d="M406.31,74.6c-2.94,1.71,5.98,10.53,9.41,8.75C419.18,81.6,410.54,72.43,406.31,74.6"/>
	<path class="st2" d="M409.91,74.74l-2.62,1.36c0,0-0.63-0.21-1.54-0.38c-1.12-0.24-2.69-0.42-3.85-0.1
		c-2.1,0.56-4.02,2.8-5.04,3.92c-1.01,1.12-1.08,5.46-1.36,6.09c-0.28,0.63,1.57,1.96,2.38,0.17c0.38-0.87,0.73-1.85,0.94-2.59
		c0.24-0.84,0.77-1.61,1.47-2.17l1.29-1.05c0,0-1.29,1.82-1.29,3.39c0,1.19,1.89,1.54,1.89,1.54s0.14,1.99,2.41,1.61
		c0,0,0.45,1.29,2.17,1.12s2.59-3.43,2.59-3.43s1.57-0.42,2.76-1.33c0.66-0.52,1.22-1.22,1.29-2.1l2.17-1.26
		C414.32,77.61,412.08,75.61,409.91,74.74"/>
	<path class="st3" d="M403.65,81.25c-0.31,0.59-0.59,1.19-0.84,1.78c-0.24,0.59-0.49,1.22-0.66,1.85h-0.04
		c-0.07-0.35-0.07-0.7,0-1.05c0.04-0.35,0.14-0.66,0.28-0.98c0.07-0.14,0.14-0.31,0.21-0.45c0.1-0.14,0.17-0.31,0.28-0.42
		c0.21-0.28,0.42-0.52,0.73-0.73H403.65z"/>
	<path class="st3" d="M406.03,83.17c-0.38,0.45-0.73,1.01-0.94,1.57c-0.24,0.56-0.45,1.15-0.52,1.75h-0.03
		c-0.14-0.31-0.14-0.66-0.1-1.01c0.03-0.31,0.1-0.66,0.24-0.94c0.07-0.14,0.14-0.28,0.24-0.42s0.17-0.28,0.31-0.38
		c0.21-0.24,0.49-0.45,0.8-0.59L406.03,83.17z"/>
	<path class="st3" d="M396.4,80.23c-0.63,1.64-0.7,4.83-0.94,5.39c-0.1,0.21,0.07,0.49,0.31,0.73
		C397.24,84.85,396.79,82.93,396.4,80.23"/>
	<g class="st4">
		<g>
			<g>
				<defs>
					<rect id="SVGID_1_" x="413.27" y="64.94" width="9.55" height="5.25"/>
				</defs>
				<clipPath id="SVGID_00000151523996165274811040000012423470451236157368_">
					<use xlink:href="#SVGID_1_"  style="overflow:visible;"/>
				</clipPath>
				<path style="clip-path:url(#SVGID_00000151523996165274811040000012423470451236157368_);fill:#185177;" d="M417.85,64.98
					c-4.27,0.42-2.27,3.39-2.27,3.39l-2.31,1.36c1.01,0.28,1.64,0.45,1.64,0.45c3.6-1.75,6.33-2.55,7.52-2.83
					c0.35-0.1,0.49-0.52,0.28-0.8C422.09,65.78,420.69,64.7,417.85,64.98"/>
			</g>
		</g>
	</g>
	<path class="st6" d="M418.97,110.54c0.49,4.27,0,9.34,0,9.34h41.64c0,0,1.61-10.99-3.32-20.23
		C452.36,90.42,420.41,100.25,418.97,110.54"/>
	<path class="st7" d="M397.31,13.5c5.56-4.16,10.08-4.09,11.65-0.35s6.12-0.49,7,5.04c0.87,5.53,1.96,0.38,4.79,5.32
		c7.94,13.68-3.74,18.72-11.34,18.65c-7.59-0.07-9.03-1.78-8.82-3.67c0.21-1.89-5.14,3.6-6.12-3.11c-1.01-6.72-5.04-6.3-3.25-11.83
		c0,0-2.83-1.5-1.19-6.09C391.68,12.87,397.31,13.5,397.31,13.5"/>
	<path class="st8" d="M378.59,73.13c-6.54-4.83-12.35-6.65-12.88-5.84c-0.52,0.84,5.63,4.44,5.63,4.44s-3.43,1.15-2.48,3.46
		c0,0-2.06,0.77-0.94,2.38c0,0-1.19,1.43,0.42,2.69c1.61,1.26,3.81,1.26,3.81,1.26s1.15,2.62,4.06,3.08c2.9,0.49,4.02,2.2,4.02,2.2
		s2.03,0.28,2.94-2.2C384.09,82.12,382.51,76.45,378.59,73.13"/>
	<path class="st8" d="M383.18,78.41c0,0-2.87-5.28-5.63-5.28c-2.62,0-6.89,0.38-6.82,1.64c0.07,1.26,6.65,1.5,6.65,1.5
		s-1.61,2.55-0.42,5.39c1.19,2.83,6.23,2.97,6.23,2.97V78.41z"/>
	<path class="st9" d="M375.69,84.54c0.17,0.03,0.35,0.07,0.52,0.1c2.9,0.49,4.02,2.2,4.02,2.2s2.03,0.28,2.94-2.2
		c0.45-1.22,0.7-4.13,0-6.23C381.29,82.86,377.3,84.22,375.69,84.54"/>
	<path class="st9" d="M377.54,73.17c-0.59,0.1-1.19,0.17-1.78,0.24c-0.59,0.1-1.19,0.21-1.75,0.31c-0.56,0.14-1.15,0.24-1.68,0.42
		c-0.28,0.1-0.52,0.21-0.73,0.31c-0.1,0.07-0.17,0.14-0.24,0.17c-0.07,0.07-0.07,0.1-0.07,0.1l0,0c0,0,0,0,0-0.03v-0.03l0,0l0,0
		c0,0,0.1,0.07,0.17,0.1c0.21,0.1,0.45,0.17,0.73,0.24c0.52,0.14,1.12,0.24,1.68,0.31c1.15,0.17,2.34,0.24,3.5,0.35h0.03
		c0.31,0.03,0.56,0.31,0.52,0.63c0,0.1-0.03,0.21-0.1,0.28c-0.14,0.21-0.28,0.49-0.38,0.77s-0.21,0.56-0.31,0.84
		c-0.17,0.56-0.24,1.15-0.24,1.78c0,0.59,0.14,1.22,0.31,1.78c0.21,0.56,0.59,1.05,1.08,1.5l0,0v0.03h-0.04
		c-0.52-0.35-1.01-0.84-1.29-1.43c-0.28-0.59-0.45-1.22-0.52-1.89c-0.07-0.66,0-1.29,0.14-1.92c0.14-0.63,0.38-1.26,0.7-1.82
		l0.03,0.1c-1.19-0.03-2.38-0.14-3.57-0.31c-0.59-0.07-1.19-0.17-1.78-0.35c-0.28-0.07-0.59-0.17-0.84-0.31
		c-0.14-0.07-0.28-0.14-0.38-0.28c-0.1-0.1-0.14-0.31-0.1-0.45c0.1-0.31,0.38-0.49,0.66-0.63c0.28-0.14,0.56-0.24,0.84-0.31
		c0.59-0.17,1.19-0.24,1.78-0.35c1.19-0.14,2.38-0.21,3.6-0.21C377.54,73.13,377.54,73.13,377.54,73.17
		C377.58,73.13,377.58,73.17,377.54,73.17L377.54,73.17z"/>
	<path class="st9" d="M371.38,71.73c0,0-0.84,0.28-1.54,0.84c1.43,0,3.36,0.14,3.36,0.14S372.5,72.26,371.38,71.73"/>
	<path class="st9" d="M368.86,75.19c1.78,2.24,4.62,3.39,5.28,3.15c0.66-0.24-0.24-1.78-0.24-1.78s1.36,1.08,0.8,1.99
		c-0.56,0.87-3.71-0.38-4.83-1.4S368.86,75.19,368.86,75.19"/>
	<path class="st9" d="M367.92,77.57c1.64,1.68,4.97,2.24,4.97,2.24s-1.4,0.38-3.11-0.28C368.1,78.87,367.92,77.57,367.92,77.57"/>
	<path class="st6" d="M399.83,47.59c-4.79,16.59-7.24,38.32-7.24,38.32l-9.41-7.52c0,0-0.77,5.81-4.55,8.26
		c0,0,11.27,15.36,20.05,15.29c8.78-0.03,14.94-27.68,14.94-27.68L399.83,47.59z"/>
	<path class="st10" d="M412.01,35.65c0,0,18.51,4.16,27.08,13.47c8.54,9.31,18.2,50.53,18.2,50.53s-22.01,11.86-38.32,10.88
		c0,0-6.02-21.77-7.77-26c-1.75-4.23-11.06-2.52-12.81-12.81c-1.75-10.29,1.4-24.18,1.4-24.18S401.58,41.67,412.01,35.65"/>
	<path class="st6" d="M411.24,84.54c1.75,4.23,7.77,26,7.77,26c16.31,0.94,38.32-10.88,38.32-10.88s-9.34-39.75-17.78-50
		c-4.72,1.68-8.64,5.6-10.11,13.47C431.82,78.87,411.24,84.54,411.24,84.54"/>
	<path class="st8" d="M395.11,23.55c0.52,2.8,0.94,9.13,3.57,11.86c2.62,2.73,5.35,0,5.35,0l1.01,5.39c0.17,1.01,1.26,1.61,2.2,1.22
		c2.03-0.77,5.18-2.34,6.65-4.9l-2.62-7.07c0,0-0.59-7.59-6.3-11.27C399.27,15.11,394.37,19.66,395.11,23.55"/>
	<path class="st9" d="M404.03,35.41l0.52,2.76c1.89-1.4,2.1-6.33,2.1-6.33S405.85,34.22,404.03,35.41"/>
	<path class="st7" d="M397.66,19.7c0.8,2.73,5.21,4.72,8.05,5.14c0,0-0.7,2.8,1.43,3.22s0.24,2.13,2.66,3.43
		c2.45,1.29-0.28,4.76,4.02,5.63c1.75,0.35,2.94-0.56,3.74-1.78c1.4-2.1,1.43-4.83,0.21-7c-1.89-3.36-5.46-8.96-9.38-10.92
		c-5.74-2.87-11.09-1.26-13.82,1.29s-0.7,6.72-0.7,6.72S397.38,24.32,397.66,19.7"/>
	<path class="st8" d="M432.2,87.13l-4.27,2.34c0,0-2.94-0.35-5.42,1.71s-4.58,2.06-4.23,2.69c0.35,0.63,2.41,1.57,4.97-0.31
		c2.55-1.89,2.69-0.8,1.92,1.29c-0.77,2.13-6.02,7.8-6.33,9.06c-0.31,1.26,4.27-2.59,6.4-4.62c0,0-5.14,7.21-4.97,8.26
		c0.17,1.05,4.48-3.36,6.68-7.38c0,0-2.59,5.81-2.48,6.79c0.1,1.15,2.66-1.12,4.58-6.05c0,0-1.68,4.69-1.19,5
		c0.49,0.31,1.29-1.26,2.83-5.28c1.54-4.02,4.41-6.58,4.41-6.58S435,89.16,432.2,87.13"/>
	<path class="st9" d="M434.13,95.14c0.59-0.66,1.01-1.05,1.01-1.05s-0.1-4.93-2.9-6.96l-4.27,2.34
		C431.33,91.22,433.25,93.78,434.13,95.14"/>
	<path class="st10" d="M438.81,49.09c-3.22-2.9-8.4-1.71-9.94,2.34c-0.04,0.1-0.07,0.21-0.1,0.31c-2.17,6.3,0.56,11.79,5.21,16.48
		c4.65,4.72,11.02,11.72,11.02,11.72l-15.57,7.35c0,0,4.44,5.35,5.21,8.71c0,0,19.98-3.92,25.44-10.43
		c5.46-6.51-5.49-21.35-13.26-28.94C443.26,53.22,440.63,50.74,438.81,49.09"/>
	<polygon class="st11" points="365.93,67.46 294.86,67.46 304.37,49.02 356.44,49.02 	"/>
	<rect x="294.86" y="67.46" class="st12" width="71.07" height="50.95"/>
	<path class="st13" d="M203.04,39.12c0,0-25.05,6.02-36.15,17.11S167.83,95,167.83,95L203.04,39.12z"/>
	<g class="st4">
		<g>
			<g>
				<defs>
					<rect id="SVGID_00000106142626670746118380000004484349996936526268_" x="162.8" y="53.01" width="31.49" height="41.99"/>
				</defs>
				<clipPath id="SVGID_00000029745574812153487240000018122147858565721020_">
					<use xlink:href="#SVGID_00000106142626670746118380000004484349996936526268_"  style="overflow:visible;"/>
				</clipPath>
				<path style="clip-path:url(#SVGID_00000029745574812153487240000018122147858565721020_);fill:#326C92;" d="M162.97,78.55
					c1.54,8.85,4.86,16.48,4.86,16.48l26.45-42.03c-8.33,2.73-20.93,7.7-27.96,14.73c-0.1,0.1-0.21,0.21-0.31,0.31
					C163.43,70.86,162.31,74.77,162.97,78.55"/>
			</g>
		</g>
	</g>
	<path class="st8" d="M248.63,22.53c-0.24-8.78-13.65-12.6-19.07-8.68s-5,13.02-5,13.02l-9.1,12.81l14,3.39l5.95-4.51
		c0,0,3.32,2.83,4.58,1.85c0.87-0.7,3.99-3.32,4.58-4.02c0.17-0.21-2.03-2.48-2.27-2.55c-1.54-0.38-1.26,1.61-1.08,0.94
		c0.07-0.21,0.31-0.28,0.49-0.14c0.73,0.7,2.41,2.27,2.87,1.75c0.59-0.66,0.7-2.38,0.7-2.38s2.31,0,2.8-0.59
		c0.49-0.59-0.49-2.03-0.56-4.41C247.51,26.63,248.91,24.84,248.63,22.53"/>
	<path class="st9" d="M248.11,33.41c-0.24,0.21-3.6-1.12-3.74-0.7c-0.17,0.38,0.21,1.05,0.94,1.29
		C247.02,34.64,248.11,33.41,248.11,33.41"/>
	<path class="st9" d="M232.36,35.34c-0.98,1.4-3.22,4.97-2.83,7.73l5.95-4.51c-1.29-1.15-2.03-2.41-2.38-3.15
		C232.92,35.13,232.53,35.09,232.36,35.34"/>
	<path class="st9" d="M239.29,26.8c1.99-0.21,2.34-2.76,2.34-2.76s1.82-0.91,5.81-0.17c3.99,0.73,7.84-2.24,5.49-3.11
		c0,0,4.02-1.5,4.16-4.41c0.1-2.9-4.76-0.94-4.76-0.94s3.11-2.13,2.8-4.65c-0.31-2.52-4.27-0.24-4.27-0.24s2.52-2.59,0.59-4.44
		s-5.35,1.19-5.35,1.19s2.34-4.58-1.29-5.98c-3.64-1.4-6.72,3.39-6.72,3.39s-7.21-4.93-12.28-0.84c-5.07,4.09-0.17,6.65-0.17,6.65
		s-7.98,0.56-7.98,6.89s4.16,5.25,4.16,5.25s-6.65,6.12,0.63,8.12c7.28,1.99,12.98-1.08,12.98-1.08s-2.52-0.91-0.84-4.58
		C235.96,22.08,239.11,24.25,239.29,26.8"/>
	<path class="st15" d="M207.55,119.88l30.58-47.97c0,0,11.72-14.45,9.97-20.3s-21.35-13.68-36.32-14.31
		c-20.09-0.87-36.18,34.61-36.18,34.61l-37.2,47.97H207.55z"/>
	<rect x="150.79" y="1.01" class="st16" width="310.8" height="118.87"/>
	<rect x="150.79" y="1.01" class="st16" width="310.8" height="118.87"/>
	<rect x="316.13" y="56.89" class="st17" width="30.27" height="2.83"/>
	<polygon class="st18" points="304.76,44.65 298.95,53.99 317.29,59.76 319.11,59.76 322.68,51.61 	"/>
	<path class="st8" d="M274.98,60.64c4.69-0.1,9.48-6.68,13.05-7.84c2.9-0.94,9.52-0.31,11.83-0.03c0.45,0.07,0.84,0.45,0.8,0.94
		c0,0.73-0.56,1.36-1.29,1.43l-7.77,0.8c0,0,3.92,0.8,4.27,1.92c0.35,1.12-0.84,2.62-0.84,2.62s0.28,1.78-0.49,2.97
		c0,0-0.38,2.62-2.34,3.08s-4.37-0.49-4.37-0.49s-1.5,3.15-7.73,2.2L274.98,69L274.98,60.64z"/>
	<path class="st9" d="M280.68,66.94l-5.74,0.56V69l5.11-0.73c6.23,0.91,7.73-2.2,7.73-2.2C286.46,66.66,283.76,68.06,280.68,66.94"
		/>
	<path class="st9" d="M290.45,58.96c1.78,0.03,4.55,1.54,4.55,1.54l0.56-0.87C295.56,59.62,292.55,57.98,290.45,58.96"/>
	<path class="st9" d="M294.51,63.47c-2.13,0.31-4.76-0.73-4.76-0.73l5.07,0.03C294.82,62.74,294.75,63.26,294.51,63.47"/>
	<path class="st13" d="M240.16,43.32c9.1,6.44,20.16,14.87,20.16,14.87l18.51,1.22c0,0,3.29,3.92,3.29,8.68
		c-0.04,4.76-1.82,6.65-1.82,6.65s-17.85,7.03-24.6,6.4c-4.41-0.42-16.38-6.12-24.25-10.08c-7.03-3.53-10.74-11.51-8.71-19.14
		c0.49-1.82,1.26-3.67,2.41-5.56C228.34,41.22,235.23,39.82,240.16,43.32"/>
	<g id="XMLID_21_" class="st19">
		<g id="XMLID_22_">
			<path id="XMLID_23_" class="st20" d="M401.58,30.61c-0.04-0.1-0.07-0.1-0.14-0.14c-0.04,0-0.07,0-0.1,0l-0.1,0.03
				c-0.03,0-0.1-0.03-0.17,0c-0.03,0-0.07,0.03-0.1,0.03c-0.1,0-0.21,0-0.31,0l-0.14-0.03c-0.04,0-0.1,0-0.14,0s-0.04-0.03-0.1-0.03
				c-0.1,0-0.17-0.07-0.24-0.07c-0.07-0.03-0.1-0.07-0.17-0.1c-0.03-0.03-0.03-0.03-0.07-0.07c-0.03-0.03-0.03-0.03-0.03-0.03
				l-0.04-0.03c-0.03-0.07-0.03-0.14-0.03-0.17c-0.03-0.07-0.03-0.17-0.03-0.24c0-0.1,0-0.17,0-0.28v-0.03c0-0.03,0-0.03,0-0.03l0,0
				c0-0.03,0-0.07,0.03-0.1l0.03-0.17v-0.07l0.04-0.1l0.03-0.14c0-0.03,0-0.1,0-0.14c0-0.03,0.03-0.03,0.03-0.07
				s0.04-0.03,0.04-0.07c0-0.1,0.07-0.21,0.03-0.31c0.03-0.1,0.03-0.17,0.03-0.24l0.04-0.14c0-0.03,0-0.07,0-0.1l0.03-0.07
				c0.03-0.1,0.03-0.17,0.07-0.24c0.03-0.1,0.03-0.17,0.03-0.31c0.03-0.1,0.03-0.21,0.03-0.31c0-0.03,0.04-0.03,0.04-0.07
				s0.03-0.07,0.03-0.1l0.03-0.21c0.04-0.1,0-0.24,0.04-0.38c0.03-0.07,0.03-0.14,0.03-0.21c0-0.03,0-0.03,0-0.07
				c0-0.03-0.03-0.07-0.03-0.1c-0.04-0.03-0.1-0.1-0.17-0.1c-0.07,0-0.14,0-0.17,0.03c-0.07,0.03-0.1,0.07-0.1,0.1
				c0,0.03-0.04,0.03-0.04,0.07c-0.03,0.03-0.03,0.1-0.03,0.14s0,0.1-0.03,0.14c-0.04,0.1-0.04,0.24-0.07,0.38
				c-0.03,0.03-0.03,0.1-0.03,0.14s-0.04,0.1-0.04,0.17v0.03v0.03c-0.03,0.03-0.03,0.1-0.03,0.17c-0.03,0.07-0.03,0.14-0.03,0.21
				c-0.04,0.14-0.04,0.28-0.07,0.45c0,0.03,0,0.07-0.03,0.1c-0.03,0.07-0.03,0.14-0.03,0.24c0,0.03-0.04,0.07-0.04,0.1
				c0,0.03,0,0.07,0,0.1c-0.03,0.03-0.03,0.1-0.03,0.17c-0.03,0.21-0.07,0.45-0.1,0.66c0,0.03-0.03,0.07-0.03,0.1
				c0,0.03,0,0.07,0,0.1c0,0.03-0.03,0.07-0.03,0.1c-0.04,0.03-0.04,0.1-0.04,0.14l-0.03,0.14c0,0.03,0,0.03,0,0.03
				c0,0.03,0,0.1,0,0.14c0,0.1,0,0.17,0.03,0.24c0.04,0.17,0.07,0.38,0.17,0.52c0.04,0.03,0.04,0.07,0.07,0.1
				c0.03,0.1,0.1,0.17,0.17,0.24c0.03,0.03,0.07,0.07,0.1,0.1c0.03,0.03,0.07,0.03,0.1,0.03c0.07,0.03,0.1,0.07,0.17,0.1
				c0.24,0.1,0.52,0.1,0.73,0.1c0.04,0,0.07,0,0.1,0s0.07-0.03,0.1-0.03s0.07,0,0.1,0c0.03,0,0.1,0,0.14,0l0.28-0.1
				c0.03,0,0.07-0.03,0.1-0.03c0.03-0.03,0.07,0,0.1-0.03c0.04-0.03,0.04-0.03,0.04-0.07c0.03-0.03,0.03-0.1,0.03-0.17
				C401.65,30.68,401.62,30.68,401.58,30.61z"/>
		</g>
	</g>
	<g id="XMLID_12_" class="st19">
		<g id="XMLID_13_">
			<path id="XMLID_14_" class="st20" d="M402.42,31.98c-0.1-0.03-0.1-0.03-0.17-0.03c-0.03,0-0.03,0.03-0.03,0.03l-0.04,0.03
				c0,0.03-0.03,0.03-0.03,0.03c0,0.03,0,0.03-0.03,0.03c-0.04,0.03-0.07,0.07-0.1,0.1l-0.03,0.03c-0.04,0.03,0,0.03-0.04,0.07
				c0,0.03-0.03,0-0.03,0.03c-0.03,0.03-0.07,0.03-0.07,0.1c-0.03,0.03-0.03,0.07-0.07,0.1l-0.03,0.03c-0.04,0-0.04,0.03-0.04,0.03
				l-0.03,0.03c-0.03,0.03-0.07,0.03-0.1,0.03c-0.03,0.03-0.07,0.03-0.1,0.07c-0.04,0.03-0.07,0.03-0.1,0.07l0,0h-0.04l0,0
				c-0.03,0-0.03,0-0.03,0.03l-0.07,0.03l-0.04,0.03c-0.03,0-0.03,0-0.03,0l-0.07,0.03c-0.04,0-0.04,0.03-0.04,0.03h-0.03h-0.03
				c-0.04,0.03-0.1,0-0.1,0.03c-0.04,0.03-0.07,0.03-0.1,0.03h-0.03c-0.04,0-0.04,0.03-0.04,0.03h-0.03c-0.03,0-0.07-0.03-0.1-0.03
				c-0.03,0-0.07,0-0.1,0c-0.04,0-0.1-0.03-0.14-0.03s-0.04,0-0.04-0.03c-0.03,0-0.03,0-0.03-0.03l-0.07-0.03
				c-0.04-0.03-0.1,0-0.17-0.03c-0.04-0.03-0.04-0.03-0.07-0.03h-0.03c0,0-0.04,0.03-0.07,0.03c-0.03,0.03-0.07,0.1-0.1,0.17
				c-0.04,0.07-0.04,0.1-0.04,0.17c0,0.03,0,0.1,0.04,0.1c0,0,0.03,0,0.03,0.03c0.03,0.03,0.03,0.03,0.07,0.03
				c0.04,0.03,0.04,0,0.07,0.03c0.07,0.03,0.14,0.03,0.21,0.03c0.04,0,0.04,0.03,0.07,0.03s0.07,0,0.1,0l0,0l0,0
				c0.04,0.03,0.07,0.03,0.1,0.03s0.07,0.03,0.1,0.03c0.1,0,0.17,0,0.24,0c0.04,0,0.04,0,0.04,0c0.03,0,0.1,0,0.1,0s0.03,0,0.07,0
				s0.03-0.03,0.03-0.03s0.07,0,0.1,0c0.1-0.03,0.24-0.07,0.35-0.1c0.04,0,0.04,0,0.04-0.03c0.03,0,0.03-0.03,0.03-0.03
				s0.03,0,0.07,0s0.04-0.03,0.07-0.03l0.07-0.03c0,0,0.04,0,0.04-0.03c0.03,0,0.03-0.03,0.07-0.03c0.03-0.03,0.07-0.03,0.1-0.07
				c0.07-0.03,0.14-0.1,0.17-0.17c0-0.03,0.03-0.03,0.03-0.03c0.04-0.03,0.07-0.03,0.1-0.07s0.03-0.03,0.03-0.03
				c0-0.03,0-0.03,0.04-0.03c0.03-0.03,0.03-0.03,0.07-0.03c0.07-0.1,0.14-0.17,0.21-0.28c0.04-0.03,0.04-0.03,0.04-0.03
				c0-0.03,0-0.03,0.03-0.03c0-0.03,0.04-0.03,0.04-0.03c0.03-0.03,0.03-0.03,0.03-0.03l0.03-0.07c0-0.03,0-0.03,0-0.07
				s0.04-0.03,0-0.03c0-0.03-0.03-0.03-0.03-0.03c-0.03-0.03-0.1-0.07-0.14-0.1C402.49,32.01,402.49,31.98,402.42,31.98z"/>
		</g>
	</g>
	<g id="XMLID_10_" class="st19">
		<path id="XMLID_11_" class="st20" d="M403.51,27.78L403.51,27.78c-0.35-0.03-0.63-0.31-0.59-0.66l0.04-0.28
			c0.03-0.31,0.24-0.63,0.66-0.59c0.31,0.03,0.59,0.31,0.59,0.66l-0.04,0.28C404.1,27.54,403.82,27.78,403.51,27.78z"/>
	</g>
	<g id="XMLID_8_" class="st19">
		<path id="XMLID_9_" class="st20" d="M396.96,27.43L396.96,27.43c-0.35-0.03-0.63-0.31-0.59-0.66l0.03-0.28
			c0.03-0.31,0.24-0.59,0.66-0.59c0.31,0.03,0.59,0.31,0.59,0.66l-0.03,0.28C397.52,27.19,397.24,27.43,396.96,27.43z"/>
	</g>
	<g id="XMLID_5_" class="st19">
		<g id="XMLID_6_">
			<path id="XMLID_7_" class="st20" d="M405.12,25.16c0.03-0.07,0.07-0.1,0.07-0.17c0-0.03-0.03-0.03-0.03-0.03l-0.04-0.03
				c-0.03-0.03-0.03-0.03-0.03-0.07c-0.03,0-0.03-0.03-0.03-0.03c-0.04-0.03-0.07-0.07-0.1-0.1l-0.03-0.03c-0.04,0-0.04,0-0.07-0.03
				c-0.03,0-0.03-0.03-0.03-0.03c-0.03,0-0.07-0.07-0.14-0.03c-0.03-0.03-0.07-0.03-0.1-0.03l-0.03-0.03c-0.03,0-0.03,0-0.03,0
				l-0.04-0.03c-0.03-0.03-0.07-0.03-0.1-0.07c-0.04-0.03-0.1-0.03-0.1-0.03c-0.04,0-0.1-0.03-0.14-0.03l0,0h-0.03l0,0
				c-0.04,0-0.04,0-0.04,0l-0.1-0.03h-0.04c-0.03,0-0.03,0-0.03,0l-0.07-0.03c-0.03,0-0.03,0-0.03,0c-0.03,0-0.03,0-0.03,0
				s-0.04-0.03-0.04,0c-0.03,0.03-0.1-0.03-0.14,0c-0.04,0-0.07,0-0.1,0h-0.07c-0.03,0-0.03,0.03-0.03,0.03h-0.03
				c-0.04,0-0.07-0.03-0.1-0.03s-0.1,0-0.14,0.03c-0.03,0-0.1,0-0.14,0.03h-0.03c-0.03,0-0.03,0-0.03,0l-0.1,0.03
				c-0.03,0-0.1,0.07-0.17,0.07c-0.03,0-0.07,0-0.1,0.03c0,0-0.03,0-0.03,0.03s0,0.03,0,0.07c0,0.03,0.03,0.1,0.03,0.17
				c0,0.07,0.07,0.1,0.1,0.17c0.03,0.03,0.03,0.07,0.07,0.07h0.04c0.03,0,0.03,0,0.03,0l0.03-0.03c0.04,0,0.1-0.03,0.14-0.03
				c0.03,0,0.03,0,0.03,0c0.04,0,0.04-0.03,0.04-0.03l0,0l0,0c0.03,0.03,0.03,0.03,0.07,0c0.04,0,0.04,0,0.07,0
				c0.03-0.03,0.1,0,0.17-0.03h0.03c0.03,0,0.03,0,0.07,0c0.04,0,0.04,0,0.04,0l0.03-0.03c0.04,0,0.04,0.03,0.04,0.03
				c0.07,0,0.17,0,0.24,0.03c0.03,0,0.03,0,0.03,0h0.04c0.03,0,0.03,0.03,0.03,0.03c0.03,0,0.03,0.03,0.03,0.03h0.04h0.03
				c0.04,0,0.04,0,0.04,0.03c0.03,0,0.03,0.03,0.07,0.03c0.03,0.03,0.1,0.03,0.17,0.03c0,0,0.03,0,0.03,0.03
				c0.04,0.03,0.04,0.03,0.07,0.03c0.03,0,0.03,0.03,0.03,0.03h0.03c0.04,0.03,0.04,0.03,0.04,0.03c0.07,0.03,0.14,0.07,0.21,0.1
				l0.04,0.03h0.03l0.03,0.03c0,0.03,0.04,0.03,0.04,0.03l0.03,0.03h0.03c0.04,0,0.04,0.03,0.04,0.03l0.03-0.03
				c0.03-0.03,0.1-0.07,0.1-0.1C405.05,25.19,405.08,25.16,405.12,25.16z"/>
		</g>
	</g>
	<g id="XMLID_2_" class="st19">
		<g id="XMLID_3_">
			<path id="XMLID_4_" class="st20" d="M395.77,24.77c0.07,0.07,0.1,0.1,0.1,0.1c0.03,0,0.03,0,0.03,0l0.03-0.03
				c0.04,0,0.04,0,0.07-0.03l0.03-0.03c0.03,0,0.1-0.03,0.1-0.03l0.03-0.03c0.03,0,0.03-0.03,0.03-0.03c0.04,0,0.04,0,0.04,0
				c0.03-0.03,0.07,0,0.1-0.03c0.03-0.03,0.03-0.03,0.1-0.03l0.04-0.03c0.03,0,0.03-0.03,0.03-0.03h0.03c0.04,0,0.07,0.03,0.1,0
				c0.03,0,0.03-0.03,0.1-0.03c0.03,0,0.07,0,0.1-0.03l0,0h0.03l0,0c0.03,0,0.03,0,0.03,0h0.07h0.03c0.03,0,0.03,0,0.03,0h0.04
				c0.03,0,0.03-0.03,0.03-0.03h0.03c0,0,0.04,0.03,0.04,0c0.03-0.03,0.07,0.03,0.1-0.03c0.03,0,0.07,0,0.1,0h0.04
				c0.03,0,0.03,0,0.03,0h0.03c0.04,0,0.04,0.03,0.1,0.03c0.03,0,0.03,0,0.1,0.03c0.03,0,0.07,0.03,0.1,0.03l0.03,0.03
				c0,0,0.03,0,0.03,0.03l0.07,0.03c0.03,0.03,0.1,0,0.14,0.03c0.04,0.03,0.04,0.03,0.07,0.03h0.03c0.04,0,0.04-0.03,0.04-0.03
				c0.03-0.03,0.07-0.1,0.1-0.17c0.04-0.07,0.04-0.1,0.07-0.17c0.03-0.03,0-0.1-0.04-0.1c0,0-0.03,0-0.03-0.03
				c-0.03-0.03-0.03-0.03-0.03-0.03c-0.04,0-0.04,0-0.04-0.03c-0.03-0.03-0.1-0.03-0.17-0.07c-0.03,0-0.03-0.03-0.03-0.03
				s-0.04,0-0.07,0l0,0l0,0c-0.03-0.03-0.03-0.03-0.07-0.03c-0.03,0-0.07-0.03-0.1-0.03c-0.07,0-0.14-0.03-0.17-0.03s-0.03,0-0.03,0
				s-0.07-0.03-0.1-0.03s-0.03,0-0.03,0l-0.04,0.03c0,0-0.03-0.03-0.07-0.03c-0.1,0-0.17,0-0.28,0c-0.03,0-0.03,0-0.03,0
				c-0.04,0-0.04,0.03-0.04,0.03h-0.03H397h-0.04h-0.03c-0.03,0-0.03,0-0.03,0c-0.04,0-0.07,0-0.1,0.03
				c-0.07,0.03-0.14,0.03-0.17,0.03c-0.04,0-0.04,0-0.04,0s-0.07,0-0.1,0.03c-0.04,0-0.04,0-0.04,0.03c-0.03,0-0.03,0.03-0.03,0.03
				c-0.03,0-0.03,0-0.07,0.03c-0.1,0.03-0.17,0.1-0.24,0.1c-0.03,0-0.03,0-0.03,0.03l-0.04,0.03c-0.03,0-0.03,0-0.03,0l-0.03,0.03
				l-0.04,0.03c-0.03,0-0.03,0.03-0.03,0.03c0,0.03-0.03,0.03-0.03,0.03c0,0.03,0,0.03,0.03,0.07s0.03,0.1,0.07,0.14
				C395.74,24.74,395.77,24.74,395.77,24.77z"/>
		</g>
	</g>
	<g id="XMLID_26_" class="st19">
		<path id="XMLID_27_" class="st20" d="M245.41,28.34l-0.03-0.31c-0.04-0.38,0.28-0.7,0.63-0.7c0.42-0.03,0.7,0.28,0.7,0.63
			l0.03,0.31c0.04,0.38-0.28,0.7-0.63,0.7h-0.03C245.8,28.97,245.48,28.73,245.41,28.34z"/>
	</g>
	<g id="XMLID_18_" class="st19">
		<g id="XMLID_19_">
			<path id="XMLID_20_" class="st20" d="M244.5,26.17c0.04,0.03,0.07,0.1,0.14,0.14c0,0.03,0.03,0.03,0.03,0.03l0.04-0.03h0.03
				l0.04-0.03c0,0,0.03,0,0.03-0.03l0.03-0.03h0.04l0.03-0.03c0.07-0.03,0.14-0.1,0.24-0.14C245.2,26,245.2,26,245.2,26
				c0.03,0,0.03,0,0.03,0l0.03-0.03c0.04-0.03,0.04-0.03,0.07-0.03c0-0.03,0.04-0.03,0.04-0.03c0.07,0,0.14-0.03,0.17-0.03
				s0.03-0.03,0.07-0.03c0.03-0.03,0.03-0.03,0.03-0.03h0.04h0.03c0.03,0,0.03-0.03,0.03-0.03s0-0.03,0.04-0.03h0.03
				c0.04,0,0.04,0,0.04,0c0.07-0.03,0.17-0.03,0.24-0.03l0.03-0.03c0,0,0,0.03,0.03,0.03c0.04,0,0.04,0,0.04,0c0.03,0,0.03,0,0.07,0
				h0.03c0.07,0.03,0.14,0,0.17,0.03c0.04,0,0.04,0,0.07,0c0.03,0.03,0.03,0.03,0.07,0l0,0l0,0l0.03,0.03h0.04
				c0.03,0.03,0.1,0.03,0.14,0.03c0.03,0,0.03,0.03,0.03,0.03h0.03h0.04c0.03,0,0.03-0.03,0.07-0.07c0.03-0.03,0.07-0.1,0.1-0.17
				c0.03-0.07,0.03-0.14,0.03-0.21c0-0.03,0-0.03,0-0.07s-0.03-0.03-0.03-0.03c-0.03-0.03-0.03-0.03-0.1-0.03
				c-0.07,0-0.14-0.07-0.17-0.07l-0.1-0.03c-0.04,0-0.04,0-0.04,0h-0.03c-0.03-0.03-0.1-0.03-0.14-0.03
				c-0.03-0.03-0.1-0.03-0.14-0.03c-0.03,0-0.07,0.03-0.14,0.03h-0.03c-0.04,0-0.04-0.03-0.04-0.03h-0.07c-0.04,0-0.07,0-0.14,0
				c-0.04-0.03-0.1,0.03-0.14,0c0-0.03-0.03,0-0.03,0s0,0-0.04,0h-0.03l-0.07,0.03c-0.03,0-0.03,0-0.03,0h-0.04l-0.1,0.03
				c-0.04,0-0.04,0-0.04,0l0,0h-0.03l0,0c-0.04,0-0.1,0.03-0.14,0.03s-0.07,0-0.14,0.03c-0.03,0.03-0.07,0.03-0.1,0.07l-0.04,0.03
				c-0.03,0-0.03,0-0.03,0l-0.04,0.03c-0.03,0.03-0.07,0.03-0.14,0.03c-0.07-0.03-0.1,0.03-0.14,0.03c-0.04,0-0.04,0.03-0.04,0.03
				c-0.03,0.03-0.03,0.03-0.07,0.03l-0.03,0.03c-0.03,0.03-0.07,0.07-0.14,0.1c-0.03,0-0.03,0.03-0.03,0.03
				c-0.04,0.03-0.04,0.03-0.04,0.07l-0.03,0.03c0,0.03-0.03,0.03-0.03,0.03c0,0.03,0.03,0.1,0.07,0.17
				C244.4,26.14,244.43,26.14,244.5,26.17z"/>
		</g>
	</g>
	<g id="XMLID_50_" class="st19">
		<g id="XMLID_51_">
			<path id="XMLID_52_" class="st20" d="M238.2,26.98c0.07-0.07,0.07-0.1,0.07-0.21c0-0.03-0.04-0.07-0.04-0.07l-0.07-0.07
				c-0.03-0.03-0.03-0.07-0.07-0.07c-0.04,0-0.07-0.03-0.07-0.07c-0.07-0.07-0.1-0.1-0.21-0.17l-0.07-0.07
				c-0.03-0.03-0.07,0-0.1-0.03c-0.03,0-0.03-0.07-0.07-0.07c-0.07,0-0.14-0.07-0.21-0.07c-0.07-0.03-0.14-0.03-0.17-0.03L237.12,26
				c-0.03,0-0.07,0-0.07,0h-0.07c-0.07,0-0.1-0.07-0.17-0.07c-0.07,0-0.14,0-0.21,0c-0.07,0-0.14,0-0.21,0.03h-0.04h-0.03l0,0
				c-0.03,0-0.07,0-0.07,0L236.1,26c-0.04,0-0.04,0-0.07,0.03c-0.03,0-0.07,0-0.07,0.03l-0.1,0.03c-0.03,0-0.07,0.03-0.07,0.07
				c-0.04,0-0.04,0-0.07,0.03c-0.03,0-0.03,0-0.07,0c-0.07,0.07-0.14,0.07-0.21,0.14c-0.07,0.07-0.1,0.07-0.14,0.1l-0.07,0.07
				c-0.04,0.03-0.04,0.07-0.07,0.07l-0.03,0.03c-0.07,0.03-0.1,0.07-0.14,0.1c-0.07,0.07-0.07,0.1-0.14,0.17
				c-0.07,0.07-0.1,0.1-0.1,0.21c0,0.03-0.03,0.03-0.03,0.03c-0.04,0.03-0.04,0.03-0.04,0.07l-0.07,0.1
				c-0.07,0.07-0.03,0.21-0.07,0.24c-0.03,0.07-0.07,0.07-0.07,0.14c0,0.03,0,0.03,0,0.07c0.03,0.03,0.07,0.07,0.07,0.07
				c0.07,0.07,0.14,0.07,0.21,0.07s0.14,0,0.21,0c0.07,0,0.1-0.03,0.1-0.07l0.03-0.03c0-0.03,0.03-0.07,0.03-0.07
				c0-0.03,0-0.07,0.04-0.07c0.07-0.07,0.07-0.1,0.07-0.21c0.04-0.03,0.07-0.03,0.07-0.07c0-0.03,0.03-0.07,0.03-0.07l0,0l0,0
				c0.07,0,0.07-0.03,0.07-0.07c0.03-0.03,0.07-0.07,0.07-0.07c0.07-0.07,0.1-0.1,0.14-0.17l0.03-0.03
				c0.04-0.03,0.07-0.03,0.07-0.07c0.03,0,0.03-0.03,0.07-0.03c0-0.03,0-0.03,0.04-0.07c0.03,0,0.07,0,0.07-0.03
				c0.07-0.07,0.21-0.1,0.31-0.1c0.04,0,0.04,0,0.07-0.03l0.03-0.03c0.03,0,0.03,0,0.07,0c0.04,0,0.04,0,0.07,0h0.07h0.04
				c0.03,0,0.03,0,0.07,0c0.04,0,0.07,0,0.1,0c0.07,0,0.1,0,0.21,0c0.03,0,0.03,0,0.07,0c0.04,0.03,0.07,0.03,0.1,0.03
				s0.03,0.03,0.07,0.03c0.04,0,0.04-0.03,0.07,0c0.03,0.03,0.07,0.03,0.07,0.07c0.1,0.03,0.21,0.07,0.28,0.14
				c0,0,0.04,0.03,0.07,0.03s0.03,0,0.07,0c0.04,0,0.04,0.03,0.04,0.07s0.03,0.03,0.07,0.07l0.07,0.07c0.03,0.03,0.03,0,0.07,0.03
				c0.03,0,0.03,0.03,0.07,0.03c0.03,0,0.07-0.03,0.07-0.03c0.07-0.03,0.1-0.07,0.17-0.1C238.13,27.01,238.17,27.01,238.2,26.98z"/>
		</g>
	</g>
	<g id="XMLID_47_" class="st19">
		<g id="XMLID_48_">
			<path id="XMLID_49_" class="st20" d="M237.57,28.8c0.1-0.03,0.14-0.07,0.21-0.07c0.04-0.03,0-0.03,0-0.07l-0.03-0.07
				c0-0.03,0.03-0.07,0-0.1c0-0.03-0.03-0.03-0.03-0.07c-0.04-0.07-0.04-0.14-0.07-0.21l-0.03-0.07c-0.04-0.03-0.07-0.07-0.07-0.07
				s0-0.07-0.03-0.07c-0.07-0.07-0.07-0.14-0.1-0.14c-0.07-0.07-0.07-0.07-0.1-0.1l-0.07-0.07c-0.04-0.03-0.04-0.03-0.07-0.03
				l-0.03-0.03c-0.03-0.03-0.07-0.07-0.1-0.1c-0.07-0.03-0.07-0.07-0.14-0.1c-0.07-0.03-0.1-0.07-0.17-0.07h-0.03l-0.04-0.03l0,0
				c-0.03-0.03-0.03-0.03-0.07-0.03l-0.1-0.07h-0.04c-0.03,0-0.07-0.03-0.07-0.03l-0.07-0.03c-0.04,0-0.07,0-0.07,0
				c-0.03,0-0.03,0-0.03-0.03l-0.04-0.03c-0.07,0-0.14-0.03-0.21,0c-0.07,0-0.1,0-0.17,0h-0.07c-0.03,0-0.03,0.03-0.07,0.03h-0.07
				c-0.07,0-0.1-0.03-0.17,0c-0.07,0.03-0.1,0.03-0.17,0.07c-0.07,0.03-0.14,0.03-0.17,0.07c0,0-0.03,0-0.07,0
				c-0.04,0-0.04,0.03-0.07,0.03l-0.1,0.07c-0.07,0.03-0.1,0.14-0.21,0.14c-0.07,0-0.07,0.03-0.1,0.07c0,0.03-0.03,0.03-0.03,0.07
				c0,0.03,0,0.07,0.03,0.07c0.03,0.07,0.07,0.14,0.14,0.21c0.07,0.07,0.1,0.07,0.17,0.14c0.07,0.03,0.07,0.07,0.1,0.03l0.03-0.03
				c0.04,0,0.04-0.03,0.07-0.03s0.03-0.03,0.03-0.03c0.07,0,0.07-0.07,0.14-0.07c0.04,0,0.07,0,0.07,0c0.03,0,0.03-0.03,0.07-0.07
				l0,0l0,0c0.03,0.03,0.07,0,0.07,0c0.04,0,0.07,0,0.07-0.03c0.07-0.03,0.1-0.03,0.17-0.07h0.04c0.03,0,0.07,0,0.07,0
				c0.03,0,0.03,0,0.07,0l0.04-0.03c0.03,0,0.07,0.03,0.07,0.03c0.07,0,0.17,0,0.24,0.07c0,0,0.03,0,0.03,0.03h0.04l0.03,0.03
				c0,0.03,0.04,0.03,0.04,0.03l0.07,0.03h0.03l0.04,0.03c0.03,0.03,0.07,0.03,0.07,0.07c0.07,0.03,0.07,0.07,0.14,0.1l0.04,0.03
				c0.03,0.03,0.03,0.07,0.07,0.07c0,0,0,0.03,0.03,0.03c0.04,0,0.04,0,0.04,0.03s0.03,0.07,0.03,0.07c0.07,0.07,0.1,0.14,0.1,0.21
				c0,0.03,0,0.03,0.03,0.03l0.04,0.03c0,0,0,0.03,0,0.07s0,0.03,0,0.07v0.07c0,0.03,0.03,0.03,0.03,0.03s0,0.03,0.04,0.03
				c0.03,0,0.07,0,0.07,0c0.07,0,0.14,0,0.21,0C237.47,28.8,237.5,28.8,237.57,28.8z"/>
		</g>
	</g>
	<g id="XMLID_33_" class="st19">
		<g id="XMLID_34_">
			<path id="XMLID_35_" class="st20" d="M244.26,36.63c-0.04-0.03-0.04-0.03-0.07-0.07l0,0h-0.03h-0.04c0,0,0,0-0.03,0
				c0,0-0.04,0-0.07,0.03h-0.03c0,0,0,0.03-0.04,0.03h-0.03c-0.04,0-0.04,0-0.07,0.03c0,0-0.03,0-0.07,0.03h-0.03c0,0,0,0-0.04,0
				l0,0c0,0-0.03,0-0.07,0c0,0-0.04,0-0.07,0c-0.04,0-0.04,0-0.07,0l0,0l0,0l0,0c0,0,0,0-0.03,0h-0.04l0,0c0,0,0,0-0.03,0h-0.03
				c0,0,0,0-0.04,0l0,0l0,0c-0.03,0-0.03-0.03-0.07,0c-0.03,0-0.03,0-0.07-0.03h-0.04c0,0,0,0-0.03,0l0,0
				c-0.04,0-0.04-0.03-0.04-0.03c-0.03,0-0.03-0.03-0.03-0.03c-0.03,0-0.03-0.03-0.07-0.03l0,0c0,0,0,0,0-0.03l-0.03-0.03
				c0-0.03-0.04-0.03-0.07-0.07v-0.03c0,0,0,0-0.03,0h-0.04c-0.03,0-0.07,0.03-0.1,0.03c-0.04,0.03-0.04,0.03-0.07,0.07
				c0,0.03-0.04,0.03,0,0.03c0,0,0,0,0,0.03v0.03c0,0,0.03,0,0.03,0.03s0.04,0.07,0.07,0.07c0,0,0,0.03,0.03,0.03
				c0.04,0,0.04,0.03,0.04,0.03l0,0l0,0c0,0.03,0.03,0.03,0.03,0.03c0.04,0,0.04,0.03,0.04,0.03c0.03,0.03,0.07,0.03,0.1,0.07
				c0,0,0,0,0.04,0c0.03,0,0.03,0.03,0.03,0.03s0.03,0,0.03,0.03c0,0,0,0,0.04,0l0.03,0.03c0.07,0.03,0.1,0.03,0.17,0.07h0.04
				c0,0,0,0,0.03,0c0,0,0.04,0,0.04,0.03h0.03h0.03l0,0h0.04c0.03,0,0.03,0,0.07,0c0.03,0,0.07,0,0.14-0.03c0,0,0,0,0.04,0
				c0.03,0,0.03,0,0.07,0h0.03c0,0,0-0.03,0.03,0h0.04c0.07-0.03,0.1-0.03,0.17-0.07c0,0,0,0,0.04,0c0,0,0,0,0.03,0c0,0,0,0,0.03,0
				h0.04l0.03-0.03c0,0,0-0.03,0.03-0.03c0,0,0,0,0-0.03v-0.03c0-0.03-0.03-0.07-0.03-0.07C244.26,36.63,244.26,36.63,244.26,36.63z
				"/>
		</g>
	</g>
</g>
<g>
	<defs>
		<rect id="SVGID_00000047055706486735283220000003619319123622970247_" x="122.04" y="-56.13" width="355.91" height="176.13"/>
	</defs>
	<clipPath id="SVGID_00000183968100165148836690000006986060750833484197_">
		<use xlink:href="#SVGID_00000047055706486735283220000003619319123622970247_"  style="overflow:visible;"/>
	</clipPath>
	<g style="clip-path:url(#SVGID_00000183968100165148836690000006986060750833484197_);">
		<g>
			<g>
				<path class="st22" d="M359.6,117.13c0,0-52.82,86.95-47.66,110.33c3.74,16.93,24.1,17.32,34.24,9.01
					c16.17-13.25,30.36-71.41,31.22-87.02C378.25,133.85,378.42,110.74,359.6,117.13z"/>
			</g>
			<g>
				<path class="st22" d="M339.82,122.02c0,0,9.65,55.45,11.33,78.63c1.68,23.18-14.8,36.23-30.3,35.47
					c-15.5-0.76-13.37-46.01-11.65-68.87c1.58-21.01,4-42.26,8.58-44.5C322.38,120.51,339.82,122.02,339.82,122.02z"/>
			</g>
			<g>
				<g>
					<path d="M397.75,55.23c0,0-4.32,1.11-6.85-0.58c-2.52-1.69-4.32,0-5.04,1.73c-0.72,1.73,1.71,3.94,1.71,3.94
						s-2.18-0.96-3.03,1.27c-0.85,2.23,5.03,8.45,9,10.33c3.98,1.88,11.07,6.58,12.74,7.46c1.67,0.88,2.99-0.82,3.1-2.39
						c0.11-1.56,4.08-7.99,3.05-12.37C411.42,60.26,407.56,51.99,397.75,55.23z"/>
				</g>
			</g>
			<g>
				<g>
					<g>
						<g>
							<path class="st23" d="M502.27,634.37l-16.25,3.62c-22.18,4.94-114.55,27.73-92.68,27.76
								c20.29,0.03,105.81-16.43,127.99-21.36l19.68-4.38c67.46-15.02,126.62-31.39,103.71-30.21l0,0
								C621.81,610.97,575.68,618.03,502.27,634.37z"/>
						</g>
					</g>
				</g>
			</g>
			<g>
				<g>
					<g>
						<path class="st24" d="M597.21,609.91c3.26-4.85-2.6-15.7-2.71-16.1c-0.48-1.73,7.18-5.85,10.6-2.51
							c6.73,6.58,0.84-1.79,4.08,0.13c5.38,3.21,14.25,19.1,12.19,21.57c-3.94,4.71-39.98,11.59-41.6,8.24
							C578.79,619.23,593.03,616.12,597.21,609.91z"/>
					</g>
				</g>
			</g>
			<g>
				<g>
					<g>
						<path class="st24" d="M468.17,637.76c4.11-4.99,2.27-15.95,2.25-16.36c-0.08-1.79,8.02-5.98,10.53-2.5
							c4.94,6.87,1.18-1.85,3.82,0.18c4.39,3.37,9.37,19.89,6.9,22.42c-4.72,4.84-40.19,11.63-41,8.14
							C450.18,647.55,462.91,644.15,468.17,637.76z"/>
					</g>
				</g>
			</g>
			<g>
				<g>
					<g>
						<path class="st25" d="M368.63,268.53l113.26-3.51l135.68,327.87c-9.33,9.63-20.54,10.35-31.55,9.91L440.9,345.57
							c0,0,13.9,49.23,24.73,111.12c14.61,83.48,35.39,158.7,32.53,159.33c0,0-5.59,5.07-20.61,8.41
							c-11.08,2.47-18.43-0.16-18.43-0.16C383.59,360.74,368.63,268.53,368.63,268.53z"/>
					</g>
				</g>
			</g>
			<g>
				<g>
					<g>
						<path class="st26" d="M489.34,271.97c-2.89-15.57-8.24-46.93-12.16-61.28c-10.9-39.89-0.63-64.61-4.1-77.09
							c-6.6-23.72-28.59-43.66-88.43-31.71c-31.79,6.35-30.54,29.36-29.75,47.96c0.46,10.95,8.03,112.05,15.14,136.06
							c2.03,6.87,18.57,9.81,39.69,8.42c2.6-0.17,14.52-2.79,16.31-2.97C456.5,288.2,489.58,273.27,489.34,271.97z"/>
					</g>
				</g>
			</g>
			<g>
				<g>
					<g>
						<path class="st27" d="M398.15,104.52c4.95,3.16,17.68-2.83,17.35-5.71l-9.32-23.57l-7.11,5.97l-0.96,5.06l-1.13,5.93
							l-1.19,9.15C394.86,104.49,396.7,103.6,398.15,104.52z"/>
					</g>
				</g>
			</g>
			<g class="st28">
				<g>
					<g>
						<path d="M396.98,92.21c7.79-2.04,8.66-9.37,8.66-9.37l-7.53,3.45L396.98,92.21z"/>
					</g>
				</g>
			</g>
			<g>
				<g>
					<g>
						<path class="st27" d="M405.28,69.19l2.11,7.28c0.8,3.91-1.52,8.02-5.55,9.44c-3.01,1.06-4.58,1.58-8.5,0.97
							c-3.26-0.51-4.84-3.71-4.69-8.01c0.19-5.57,1.95-10.65,3.05-13.32c0.62-1.51,1.55-2.66,2.65-3.43
							c0.41-0.29,0.92-0.41,1.43-0.37c0.43,0.03,0.88,0.08,1.32,0.15C401.01,62.5,404.18,65.39,405.28,69.19z"/>
					</g>
				</g>
			</g>
			<g>
				<g>
					<g>
						<path class="st29" d="M403.07,104.78c0,0-5.68-5.61-6.51-9.3c-4.01,1.79-2.19,16.52-2.19,16.52l8.97-5l7.16,4.85
							c0,0,9.67-7.23,9.53-10.25c-0.14-3.01-6.08-10.23-6.8-8.51C410.94,98.55,403.07,104.78,403.07,104.78z"/>
					</g>
				</g>
			</g>
			<g>
				<path class="st27" d="M333.8,113.19c0,0-0.42,8.29,0.42,12.43c0.84,4.14-10.33,4.19-12.01,1.5c-1.68-2.69,0.91-6.88,1.12-10.98
					C323.53,112.03,333.03,109.65,333.8,113.19z"/>
			</g>
			<g>
				<g>
					<g>
						<path class="st27" d="M405.97,72.26c0.31-0.68,0.51-1.4,0.67-2.13c0.3-1.39,1.07-3.39,2.91-1.93
							c2.68,2.12,1.27,8.89-2.29,8.71C404.62,76.79,405.19,73.98,405.97,72.26z"/>
					</g>
				</g>
			</g>
			<g>
				<g>
					<path class="st30" d="M441.06,346.29c0.04-0.01,0.08-0.02,0.12-0.04c0.37-0.15,0.55-0.58,0.4-0.95
						c-0.58-1.42-14.22-34.99-23.72-43.38c-0.3-0.27-0.76-0.24-1.03,0.06c-0.27,0.3-0.24,0.76,0.06,1.03
						c9.24,8.17,23.19,42.49,23.33,42.84C440.36,346.18,440.71,346.36,441.06,346.29z"/>
				</g>
			</g>
			<g>
				<g>
					<path class="st30" d="M492.35,612.49c0.02-0.01,0.05-0.01,0.07-0.02c0.38-0.13,0.59-0.54,0.46-0.92
						c-0.05-0.15-5.03-15.02-7.21-21.64c-1.26-3.81-2.52-14.19-3.75-24.23c-0.9-7.41-1.84-15.06-2.78-20.23
						c-2.15-11.78-13.89-64.58-16.97-76.35c-1.71-6.54-5.94-32.51-9.68-55.42c-2.72-16.7-5.07-31.13-5.99-35.27
						c-2.17-9.76-13.41-40.76-13.89-42.07c-0.14-0.38-0.56-0.57-0.94-0.44c-0.38,0.14-0.57,0.56-0.44,0.94
						c0.12,0.32,11.69,32.23,13.84,41.89c0.91,4.1,3.26,18.51,5.98,35.19c3.74,22.95,7.97,48.95,9.7,55.56
						c3.08,11.75,14.79,64.47,16.94,76.24c0.94,5.13,1.87,12.76,2.77,20.15c1.29,10.58,2.51,20.57,3.81,24.52
						c2.19,6.62,7.17,21.5,7.22,21.65C491.62,612.37,491.99,612.57,492.35,612.49z"/>
				</g>
			</g>
			<g class="st28">
				<g>
					<path d="M393.65,85.19c4.92,0.2,11.89-1.83,11.89-1.83c-0.95,1.12-2.21,2.02-3.71,2.54c-3.01,1.06-4.58,1.58-8.5,0.97
						c-1.44-0.22-2.55-0.97-3.33-2.11C390.9,84.96,392.09,85.13,393.65,85.19z"/>
				</g>
			</g>
			<g>
				<g>
					<g>
						<g>
							<g>
								<g>
									<path class="st31" d="M327.88,100.65c0,0-6.54-0.92-6.79-2.27c-0.23-1.26,1.65-2.23,2.8-4.37
										c1.07-1.98,1.28-4.51,1.28-4.51l8.65,0.5L327.88,100.65z"/>
								</g>
							</g>
							<g>
								<g>
									<path class="st32" d="M333.9,87.85c0,0-12.72,23.28-19.58,25.29c-6.87,2.01,6.9,8.97,12.39,5.34
										c5.5-3.63,18.71-25.67,18.71-25.67L333.9,87.85z"/>
								</g>
							</g>
							<g>
								<g>
									<path class="st31" d="M353.32,72.13c-3.76-1.75-8.88-4.27-14.45-7.36l-11.15,25.89c5.51,0.87,11.1,2.1,16.57,3.81
										c3.42,1.07,7.1-0.64,8.52-3.93l3.99-9.26C358.3,77.78,356.76,73.73,353.32,72.13z"/>
								</g>
							</g>
							<g>
								<g>
									<path class="st32" d="M303.25,30.06l-26.5,60.99c0,0,24.02-4.64,50.98-0.4l11.15-25.89
										C323.22,56.07,310.95,40.35,303.25,30.06z"/>
								</g>
							</g>
							<g>
								<g>
									<path class="st31" d="M303.25,30.06c2.71,3.62,5.99,7.91,9.77,12.33c0.07,4.23-0.74,11.99-5.16,24.58
										c-3.84,10.94-9.85,18.37-15.02,22.25c-9.78,0.62-16.1,1.84-16.1,1.84L303.25,30.06z"/>
								</g>
							</g>
							<g>
								<g>
									<path class="st33" d="M296.2,63.13c-7.35,17.06-16.53,29.5-20.52,27.78c-3.98-1.72-1.26-16.94,6.09-34
										c7.35-17.06,16.53-29.5,20.52-27.78C306.28,30.85,303.55,46.07,296.2,63.13z"/>
								</g>
							</g>
							<g>
								<g>
									<path class="st32" d="M267.27,49.44l0.6-1.39c1.49-3.47,5.38-5.23,8.97-4.08l23.75,7.6c-1.19,3.65-2.66,7.56-4.39,11.57
										c-1.28,2.98-2.62,5.81-3.98,8.45l-21.94-12.93C267.1,56.78,265.81,52.83,267.27,49.44z"/>
								</g>
							</g>
							<g>
								<g>
									<path class="st34" d="M296.2,63.13c1.73-4.01,3.2-7.91,4.39-11.57l-2.96-0.95l-10.59,17.91l5.19,3.06
										C293.58,68.94,294.92,66.11,296.2,63.13z"/>
								</g>
							</g>
							<g>
								<g>
									<path class="st29" d="M275.64,91.56c2.83,0.95,6.73-3.32,9.54-7.13c3.9-5.28,8.02-12.76,11.59-21.06
										c3.57-8.29,6.18-16.42,7.34-22.89c0.85-4.76,1.27-10.7-1.57-11.92c-1.84-0.79-4.38,0.65-7.54,4.29
										c-2.89,3.33-5.98,8.06-9.11,14l1.2,0.38c3.04-5.78,6.05-10.36,8.85-13.57c2.65-3.05,4.88-4.5,6.12-3.97
										c0.94,0.4,1.27,1.92,1.39,3.13c0.18,1.87,0,4.37-0.55,7.44c-1.14,6.38-3.72,14.41-7.25,22.62
										c-3.54,8.21-7.6,15.6-11.45,20.81c-1.85,2.51-3.54,4.36-5.03,5.51c-0.96,0.74-2.3,1.54-3.23,1.14
										c-0.79-0.34-1.14-1.5-1.3-2.41c-0.24-1.44-0.21-3.38,0.09-5.77c0.62-4.86,2.31-11.21,4.84-18.05l-1.09-0.64
										c-2.56,6.93-4.35,13.58-4.98,18.53c-0.69,5.43-0.03,8.62,1.95,9.47C275.5,91.51,275.57,91.54,275.64,91.56z"/>
								</g>
							</g>
							<g>
								<g>
									<g>
										<path class="st33" d="M341.53,73.55l9.42,3.5c0.11,0.04,0.23-0.02,0.27-0.13l0.39-1.06c0.04-0.11-0.02-0.23-0.13-0.27
											l-9.42-3.5c-0.11-0.04-0.23,0.02-0.27,0.13l-0.39,1.06C341.37,73.39,341.42,73.51,341.53,73.55z"/>
									</g>
								</g>
								<g>
									<g>
										<path class="st33" d="M340.62,76.01l9.42,3.5c0.11,0.04,0.23-0.02,0.27-0.13l0.39-1.06c0.04-0.11-0.02-0.23-0.13-0.27
											l-9.42-3.5c-0.11-0.04-0.23,0.02-0.27,0.13l-0.39,1.06C340.45,75.84,340.51,75.97,340.62,76.01z"/>
									</g>
								</g>
								<g>
									<g>
										<path class="st33" d="M339.71,78.46l9.42,3.5c0.11,0.04,0.23-0.02,0.27-0.13l0.39-1.06c0.04-0.11-0.02-0.23-0.13-0.27
											l-9.42-3.5c-0.11-0.04-0.23,0.02-0.27,0.13l-0.39,1.06C339.54,78.3,339.6,78.42,339.71,78.46z"/>
									</g>
								</g>
							</g>
						</g>
						<g>
							<g>
								<path class="st29" d="M335.94,66.24c0.28,0.02,0.56-0.12,0.69-0.39c0.17-0.35,0.03-0.77-0.31-0.94
									c-0.1-0.05-9.74-4.91-15.65-11.35c-0.26-0.29-0.71-0.31-0.99-0.04c-0.29,0.26-0.31,0.71-0.04,0.99
									c6.08,6.63,15.65,11.46,16.06,11.66C335.77,66.21,335.85,66.23,335.94,66.24z"/>
							</g>
						</g>
						<g>
							<g>
								<path class="st29" d="M317.55,52.19c0.19,0.02,0.38-0.04,0.53-0.18c0.29-0.26,0.31-0.71,0.05-0.99l-2.59-2.85
									c-0.26-0.29-0.71-0.31-0.99-0.05c-0.29,0.26-0.31,0.71-0.05,0.99l2.59,2.85C317.22,52.1,317.38,52.18,317.55,52.19z"/>
							</g>
						</g>
					</g>
					<g>
						<polygon class="st35" points="259.17,26.1 253.1,5.11 245.69,9.64 						"/>
					</g>
					<g>
						<polygon class="st35" points="251.93,35.54 229.97,18.41 225.71,28.63 						"/>
					</g>
					<g>
						<polygon class="st35" points="250.8,53.28 223.14,56.47 227.27,66.75 						"/>
					</g>
				</g>
			</g>
			<g>
				<path class="st27" d="M329.21,117.89c-1.35-0.78,0.36-2.67,2.1-6.4c1.74-3.72,2.99-5.22,4.15-6.22
					c1.69-1.45,3.28-1.93,1.93,0.79c-1.18,2.36-1.43,6.11-2.14,8.77C334.21,118.72,330.35,118.56,329.21,117.89z"/>
			</g>
			<g>
				<path class="st27" d="M321.74,101.5c-1.21,0.77-3.49,5.58-4.59,8.02c-0.4,0.88,0.03,1.92,0.93,2.26
					c1.03,0.39,2.41,0.63,3.7-0.14c1.21-0.73,2.2-2.98,2.2-2.98s0.41,0.11,1.34-1.66c0.65-1.24-0.43-2.1-1.14-2.5
					c0.59,0.22,1.59,0.4,2.6-0.28C328.35,103.14,323.37,100.46,321.74,101.5z"/>
			</g>
			<g>
				<path class="st36" d="M463.77,115.58l71.21,71.46l102.64,24.33c0,0,5.19,20.86-0.64,26.3c0,0-91.05,5.28-112.31-3.88
					c-38.9-16.75-71.29-61.84-80.35-87.6C438.79,130.46,463.77,115.58,463.77,115.58z"/>
			</g>
			<g>
				<path class="st37" d="M636.29,217.18c1.36-1.04,6.41-1.25,9.04-0.97c5.02,0.54,8-0.95,9.66-2.26c1.66-1.31,1.97,2.48-0.67,4.1
					c-2.64,1.62-8.04,2.37-5.57,3.5c2.47,1.13,15.28-7.53,13.28-1.73c-5.99,17.35-20.63,14.7-27.83,9.81
					C634.18,229.63,626.52,224.69,636.29,217.18z"/>
			</g>
			<g>
				<path class="st22" d="M552.93,198.75c-0.26,0.06-0.54,0.04-0.81-0.08c-0.53-0.23-13.06-5.66-18.97-11.6
					c-0.51-0.52-0.51-1.35,0-1.87c0.52-0.52,1.35-0.51,1.87,0c5.56,5.58,18.02,10.98,18.15,11.04c0.67,0.29,0.98,1.07,0.69,1.73
					C553.68,198.39,553.33,198.66,552.93,198.75z"/>
			</g>
			<g>
				<path class="st22" d="M473.62,194.7c-0.47,0.1-0.97-0.05-1.3-0.44c-19.62-23.41-29.91-51.13-30.01-51.41
					c-0.25-0.68,0.1-1.44,0.78-1.69c0.69-0.25,1.44,0.1,1.69,0.78c0.1,0.27,10.24,27.58,29.56,50.62c0.47,0.56,0.4,1.39-0.16,1.86
					C474.01,194.56,473.82,194.65,473.62,194.7z"/>
			</g>
			<g>
				<path class="st38" d="M344.95,230.26c-0.33,0.07-0.68-0.07-0.86-0.38c-0.22-0.38-0.08-0.86,0.3-1.08
					c0.03-0.02,4.37-2.88,6.41-18.42c2.1-16.03-7.83-64.73-7.93-65.22c-0.09-0.43,0.2-0.83,0.62-0.94c0.43-0.09,0.85,0.19,0.94,0.62
					c0.41,2.01,10.08,49.45,7.95,65.74c-2.17,16.55-6.99,19.48-7.19,19.59C345.1,230.21,345.03,230.24,344.95,230.26z"/>
			</g>
		</g>
		<g>
			<g id="XMLID_00000155839800177477631500000005372612264971528882_">
				<g id="XMLID_00000176040887623595324180000000631316198893710005_">
					<path id="XMLID_00000129186312130137395170000015606118012599629208_" class="st20" d="M396.55,74.94
						c-0.03-0.1-0.07-0.1-0.14-0.14c-0.03,0-0.07,0-0.1,0l-0.1,0.03c-0.04,0-0.1-0.03-0.17,0c-0.04,0-0.07,0.03-0.1,0.03
						c-0.1,0-0.21,0-0.31,0l-0.14-0.03c-0.03,0-0.1,0-0.14,0c-0.03,0-0.03-0.03-0.1-0.03c-0.1,0-0.17-0.07-0.24-0.07
						c-0.07-0.03-0.1-0.07-0.17-0.1c-0.03-0.03-0.03-0.03-0.07-0.07c-0.04-0.03-0.04-0.03-0.04-0.03l-0.03-0.03
						c-0.03-0.07-0.03-0.14-0.03-0.17c-0.04-0.07-0.04-0.17-0.04-0.24c0-0.1,0-0.17,0-0.28v-0.03c0-0.03,0-0.03,0-0.03l0,0
						c0-0.03,0-0.07,0.04-0.1l0.03-0.17v-0.07l0.03-0.1l0.04-0.14c0-0.03,0-0.1,0-0.14c0-0.03,0.03-0.03,0.03-0.07
						c0-0.03,0.03-0.03,0.03-0.07c0-0.1,0.07-0.21,0.04-0.31c0.03-0.1,0.03-0.17,0.03-0.24l0.03-0.14c0-0.03,0-0.07,0-0.1l0.04-0.07
						c0.03-0.1,0.03-0.17,0.07-0.24c0.03-0.1,0.03-0.17,0.03-0.31c0.04-0.1,0.04-0.21,0.04-0.31c0-0.03,0.03-0.03,0.03-0.07
						s0.03-0.07,0.03-0.1l0.04-0.21c0.03-0.1,0-0.24,0.03-0.38c0.04-0.07,0.04-0.14,0.04-0.21c0-0.03,0-0.03,0-0.07
						c0-0.03-0.04-0.07-0.04-0.1c-0.03-0.03-0.1-0.1-0.17-0.1s-0.14,0-0.17,0.03c-0.07,0.03-0.1,0.07-0.1,0.1
						c0,0.03-0.03,0.03-0.03,0.07c-0.04,0.03-0.04,0.1-0.04,0.14c0,0.03,0,0.1-0.03,0.14c-0.03,0.1-0.03,0.24-0.07,0.38
						c-0.04,0.03-0.04,0.1-0.04,0.14c0,0.03-0.03,0.1-0.03,0.17v0.03v0.03c-0.03,0.03-0.03,0.1-0.03,0.17
						c-0.04,0.07-0.04,0.14-0.04,0.21c-0.03,0.14-0.03,0.28-0.07,0.45c0,0.03,0,0.07-0.03,0.1c-0.04,0.07-0.04,0.14-0.04,0.24
						c0,0.03-0.03,0.07-0.03,0.1s0,0.07,0,0.1c-0.03,0.03-0.03,0.1-0.03,0.17c-0.04,0.21-0.07,0.45-0.1,0.66
						c0,0.03-0.04,0.07-0.04,0.1c0,0.03,0,0.07,0,0.1c0,0.03-0.03,0.07-0.03,0.1c-0.03,0.03-0.03,0.1-0.03,0.14L394,73.92
						c0,0.03,0,0.03,0,0.03c0,0.03,0,0.1,0,0.14c0,0.1,0,0.17,0.04,0.24c0.03,0.17,0.07,0.38,0.17,0.52
						c0.03,0.03,0.03,0.07,0.07,0.1c0.04,0.1,0.1,0.17,0.17,0.24c0.04,0.03,0.07,0.07,0.1,0.1c0.04,0.03,0.07,0.03,0.1,0.03
						c0.07,0.03,0.1,0.07,0.17,0.1c0.24,0.1,0.52,0.1,0.73,0.1c0.03,0,0.07,0,0.1,0c0.03,0,0.07-0.03,0.1-0.03c0.04,0,0.07,0,0.1,0
						c0.04,0,0.1,0,0.14,0l0.28-0.1c0.03,0,0.07-0.03,0.1-0.03c0.04-0.03,0.07,0,0.1-0.03c0.03-0.03,0.03-0.03,0.03-0.07
						c0.04-0.03,0.04-0.1,0.04-0.17C396.62,75.01,396.59,75.01,396.55,74.94z"/>
				</g>
			</g>
			<g id="XMLID_00000011742037406250600440000017513101485809203639_">
				<g id="XMLID_00000182503002097680392230000000873997733552273567_">
					<path id="XMLID_00000168114931490539653430000018079207855126020743_" class="st20" d="M397.39,76.3
						c-0.1-0.03-0.1-0.03-0.17-0.03c-0.04,0-0.04,0.03-0.04,0.03l-0.03,0.03c0,0.03-0.03,0.03-0.03,0.03c0,0.03,0,0.03-0.04,0.03
						c-0.03,0.03-0.07,0.07-0.1,0.1l-0.03,0.03c-0.03,0.03,0,0.03-0.03,0.07c0,0.03-0.04,0-0.04,0.03c-0.03,0.03-0.07,0.03-0.07,0.1
						c-0.03,0.03-0.03,0.07-0.07,0.1l-0.04,0.03c-0.03,0-0.03,0.03-0.03,0.03l-0.03,0.03c-0.04,0.03-0.07,0.03-0.1,0.03
						c-0.03,0.03-0.07,0.03-0.1,0.07c-0.03,0.03-0.07,0.03-0.1,0.07l0,0h-0.03l0,0c-0.03,0-0.03,0-0.03,0.03l-0.07,0.03l-0.03,0.03
						c-0.03,0-0.03,0-0.03,0l-0.07,0.03c-0.03,0-0.03,0.03-0.03,0.03h-0.04h-0.03c-0.03,0.03-0.1,0-0.1,0.03
						c-0.03,0.03-0.07,0.03-0.1,0.03h-0.04c-0.03,0-0.03,0.03-0.03,0.03h-0.03c-0.04,0-0.07-0.03-0.1-0.03s-0.07,0-0.1,0
						s-0.1-0.03-0.14-0.03c-0.03,0-0.03,0-0.03-0.03c-0.03,0-0.03,0-0.03-0.03l-0.07-0.03c-0.03-0.03-0.1,0-0.17-0.03
						c-0.03-0.03-0.03-0.03-0.07-0.03h-0.04c0,0-0.03,0.03-0.07,0.03c-0.03,0.03-0.07,0.1-0.1,0.17c-0.03,0.07-0.03,0.1-0.03,0.17
						c0,0.03,0,0.1,0.03,0.1c0,0,0.04,0,0.04,0.03c0.03,0.03,0.03,0.03,0.07,0.03c0.03,0.03,0.03,0,0.07,0.03
						c0.07,0.03,0.14,0.03,0.21,0.03c0.03,0,0.03,0.03,0.07,0.03s0.07,0,0.1,0l0,0l0,0c0.03,0.03,0.07,0.03,0.1,0.03
						c0.03,0,0.07,0.03,0.1,0.03c0.1,0,0.17,0,0.24,0c0.03,0,0.03,0,0.03,0c0.04,0,0.1,0,0.1,0s0.03,0,0.07,0
						c0.04,0,0.04-0.03,0.04-0.03s0.07,0,0.1,0c0.1-0.03,0.24-0.07,0.35-0.1c0.03,0,0.03,0,0.03-0.03c0.04,0,0.04-0.03,0.04-0.03
						s0.03,0,0.07,0s0.03-0.03,0.07-0.03l0.07-0.03c0,0,0.03,0,0.03-0.03c0.03,0,0.03-0.03,0.07-0.03c0.04-0.03,0.07-0.03,0.1-0.07
						c0.07-0.03,0.14-0.1,0.17-0.17c0-0.03,0.04-0.03,0.04-0.03c0.03-0.03,0.07-0.03,0.1-0.07c0.04-0.03,0.04-0.03,0.04-0.03
						c0-0.03,0-0.03,0.03-0.03c0.04-0.03,0.04-0.03,0.07-0.03c0.07-0.1,0.14-0.17,0.21-0.28c0.03-0.03,0.03-0.03,0.03-0.03
						c0-0.03,0-0.03,0.04-0.03c0-0.03,0.03-0.03,0.03-0.03c0.03-0.03,0.03-0.03,0.03-0.03l0.04-0.07c0-0.03,0-0.03,0-0.07
						c0-0.03,0.03-0.03,0-0.03c0-0.03-0.04-0.03-0.04-0.03c-0.03-0.03-0.1-0.07-0.14-0.1C397.46,76.34,397.46,76.3,397.39,76.3z"/>
				</g>
			</g>
			<g id="XMLID_00000153693984033095115710000005481893782357491120_">
				<path id="XMLID_00000052799371285916230300000009973758036661890742_" class="st20" d="M398.48,72.1L398.48,72.1
					c-0.35-0.03-0.63-0.31-0.59-0.66l0.03-0.28c0.04-0.31,0.24-0.63,0.66-0.59c0.31,0.03,0.59,0.31,0.59,0.66l-0.03,0.28
					C399.07,71.86,398.79,72.1,398.48,72.1z"/>
			</g>
			<g id="XMLID_00000078726751625359131810000017074399437997821372_">
				<path id="XMLID_00000060741755283328332010000001545317967514613183_" class="st20" d="M391.93,71.75L391.93,71.75
					c-0.35-0.03-0.63-0.31-0.59-0.66l0.04-0.28c0.03-0.31,0.24-0.59,0.66-0.59c0.31,0.03,0.59,0.31,0.59,0.66l-0.04,0.28
					C392.49,71.51,392.21,71.75,391.93,71.75z"/>
			</g>
			<g id="XMLID_00000067942896823640914970000008735153021942583982_">
				<g id="XMLID_00000047745873507232700040000002390162768234907048_">
					<path id="XMLID_00000048475296436414412730000012195301684508690837_" class="st20" d="M400.09,69.48
						c0.04-0.07,0.07-0.1,0.07-0.17c0-0.03-0.04-0.03-0.04-0.03l-0.03-0.03c-0.03-0.03-0.03-0.03-0.03-0.07
						c-0.04,0-0.04-0.03-0.04-0.03c-0.03-0.03-0.07-0.07-0.1-0.1l-0.04-0.03c-0.03,0-0.03,0-0.07-0.03c-0.04,0-0.04-0.03-0.04-0.03
						c-0.03,0-0.07-0.07-0.14-0.03c-0.04-0.03-0.07-0.03-0.1-0.03l-0.03-0.03c-0.04,0-0.04,0-0.04,0l-0.03-0.03
						c-0.04-0.03-0.07-0.03-0.1-0.07c-0.03-0.03-0.1-0.03-0.1-0.03c-0.03,0-0.1-0.03-0.14-0.03l0,0h-0.04l0,0c-0.03,0-0.03,0-0.03,0
						l-0.1-0.03h-0.03c-0.04,0-0.04,0-0.04,0l-0.07-0.03c-0.03,0-0.03,0-0.03,0c-0.04,0-0.04,0-0.04,0s-0.03-0.03-0.03,0
						c-0.03,0.03-0.1-0.03-0.14,0c-0.03,0-0.07,0-0.1,0h-0.07c-0.03,0-0.03,0.03-0.03,0.03h-0.04c-0.03,0-0.07-0.03-0.1-0.03
						c-0.04,0-0.1,0-0.14,0.03c-0.04,0-0.1,0-0.14,0.03h-0.03c-0.04,0-0.04,0-0.04,0l-0.1,0.03c-0.04,0-0.1,0.07-0.17,0.07
						c-0.03,0-0.07,0-0.1,0.03c0,0-0.04,0-0.04,0.03s0,0.03,0,0.07c0,0.03,0.04,0.1,0.04,0.17c0,0.07,0.07,0.1,0.1,0.17
						c0.04,0.03,0.04,0.07,0.07,0.07h0.03c0.04,0,0.04,0,0.04,0l0.03-0.03c0.03,0,0.1-0.03,0.14-0.03c0.03,0,0.03,0,0.03,0
						c0.03,0,0.03-0.03,0.03-0.03l0,0l0,0c0.04,0.03,0.04,0.03,0.07,0c0.03,0,0.03,0,0.07,0c0.04-0.03,0.1,0,0.17-0.03h0.04
						c0.03,0,0.03,0,0.07,0s0.03,0,0.03,0l0.04-0.03c0.03,0,0.03,0.03,0.03,0.03c0.07,0,0.17,0,0.24,0.03c0.03,0,0.03,0,0.03,0h0.03
						c0.04,0,0.04,0.03,0.04,0.03c0.03,0,0.03,0.03,0.03,0.03h0.03h0.04c0.03,0,0.03,0,0.03,0.03c0.03,0,0.03,0.03,0.07,0.03
						c0.04,0.03,0.1,0.03,0.17,0.03c0,0,0.03,0,0.03,0.03c0.03,0.03,0.03,0.03,0.07,0.03s0.04,0.03,0.04,0.03h0.03
						c0.03,0.03,0.03,0.03,0.03,0.03c0.07,0.03,0.14,0.07,0.21,0.1l0.03,0.03h0.04l0.03,0.03c0,0.03,0.03,0.03,0.03,0.03l0.04,0.03
						h0.03c0.03,0,0.03,0.03,0.03,0.03l0.04-0.03c0.03-0.03,0.1-0.07,0.1-0.1C400.02,69.51,400.05,69.48,400.09,69.48z"/>
				</g>
			</g>
			<g id="XMLID_00000127015884416735785570000007171866802673614737_">
				<g id="XMLID_00000122700587920809801510000016822229966309212298_">
					<path id="XMLID_00000028310102014681204950000008283359395869959298_" class="st20" d="M390.74,69.09
						c0.07,0.07,0.1,0.1,0.1,0.1c0.04,0,0.04,0,0.04,0l0.03-0.03c0.03,0,0.03,0,0.07-0.03l0.04-0.03c0.03,0,0.1-0.03,0.1-0.03
						l0.04-0.03c0.03,0,0.03-0.03,0.03-0.03c0.03,0,0.03,0,0.03,0c0.04-0.03,0.07,0,0.1-0.03c0.03-0.03,0.03-0.03,0.1-0.03
						l0.03-0.03c0.04,0,0.04-0.03,0.04-0.03h0.03c0.03,0,0.07,0.03,0.1,0c0.03,0,0.03-0.03,0.1-0.03c0.04,0,0.07,0,0.1-0.03l0,0
						h0.03l0,0c0.04,0,0.04,0,0.04,0H392h0.04c0.03,0,0.03,0,0.03,0h0.03c0.04,0,0.04-0.03,0.04-0.03h0.03c0,0,0.03,0.03,0.03,0
						c0.04-0.03,0.07,0.03,0.1-0.03c0.03,0,0.07,0,0.1,0h0.03c0.04,0,0.04,0,0.04,0h0.03c0.03,0,0.03,0.03,0.1,0.03
						c0.03,0,0.03,0,0.1,0.03c0.04,0,0.07,0.03,0.1,0.03l0.03,0.03c0,0,0.04,0,0.04,0.03l0.07,0.03c0.04,0.03,0.1,0,0.14,0.03
						c0.03,0.03,0.03,0.03,0.07,0.03h0.04c0.03,0,0.03-0.03,0.03-0.03c0.03-0.03,0.07-0.1,0.1-0.17c0.03-0.07,0.03-0.1,0.07-0.17
						c0.04-0.03,0-0.1-0.03-0.1c0,0-0.03,0-0.03-0.03c-0.04-0.03-0.04-0.03-0.04-0.03c-0.03,0-0.03,0-0.03-0.03
						c-0.04-0.03-0.1-0.03-0.17-0.07c-0.04,0-0.04-0.03-0.04-0.03s-0.03,0-0.07,0l0,0l0,0c-0.03-0.03-0.03-0.03-0.07-0.03
						s-0.07-0.03-0.1-0.03c-0.07,0-0.14-0.03-0.17-0.03c-0.04,0-0.04,0-0.04,0s-0.07-0.03-0.1-0.03c-0.04,0-0.04,0-0.04,0
						l-0.03,0.03c0,0-0.03-0.03-0.07-0.03c-0.1,0-0.17,0-0.28,0c-0.04,0-0.04,0-0.04,0c-0.03,0-0.03,0.03-0.03,0.03H392h-0.04h-0.03
						h-0.04c-0.03,0-0.03,0-0.03,0c-0.03,0-0.07,0-0.1,0.03c-0.07,0.03-0.14,0.03-0.17,0.03c-0.03,0-0.03,0-0.03,0s-0.07,0-0.1,0.03
						c-0.03,0-0.03,0-0.03,0.03c-0.04,0-0.04,0.03-0.04,0.03c-0.03,0-0.03,0-0.07,0.03c-0.1,0.03-0.17,0.1-0.24,0.1
						c-0.04,0-0.04,0-0.04,0.03l-0.03,0.03c-0.04,0-0.04,0-0.04,0l-0.03,0.03l-0.03,0.03c-0.04,0-0.04,0.03-0.04,0.03
						c0,0.03-0.03,0.03-0.03,0.03c0,0.03,0,0.03,0.03,0.07c0.04,0.03,0.04,0.1,0.07,0.14C390.71,69.06,390.74,69.06,390.74,69.09z"
						/>
				</g>
			</g>
		</g>
	</g>
</g>
</svg>
