<?xml version="1.0" encoding="utf-8"?>
<!-- Generator: Adobe Illustrator 25.4.1, SVG Export Plug-In . SVG Version: 6.00 Build 0)  -->
<svg version="1.1" id="Capa_1" xmlns="http://www.w3.org/2000/svg" xmlns:xlink="http://www.w3.org/1999/xlink" x="0px" y="0px"
	 viewBox="0 0 600 120" style="enable-background:new 0 0 600 120;" xml:space="preserve">
<style type="text/css">
	.st0{fill:#0C1A3C;}
	.st1{fill:#FF8B61;}
	.st2{fill:#F1624F;}
	.st3{opacity:0.3;}
	.st4{clip-path:url(#SVGID_00000012469527766110020380000001229483971558339457_);fill:#185177;}
	.st5{fill:#EB4A6D;}
	.st6{fill:#F48090;}
	.st7{fill:#F2CDAC;}
	.st8{fill:#1A1B1D;}
	.st9{fill:#F56D8E;}
	.st10{fill:#D1152C;}
	.st11{fill:#F86057;}
	.st12{fill:#1F8A4B;}
	.st13{clip-path:url(#SVGID_00000049905629578441751980000006060556879598420895_);fill:#326C92;}
	.st14{fill:#219E56;}
	.st15{fill:none;}
	.st16{fill:#F3E8E2;}
	.st17{fill:#346E94;}
</style>
<g>
	<path class="st0" d="M406.31,74.6c-2.94,1.71,5.98,10.53,9.41,8.75C419.18,81.6,410.54,72.43,406.31,74.6"/>
	<path class="st1" d="M409.91,74.74l-2.62,1.36c0,0-0.63-0.21-1.54-0.38c-1.12-0.24-2.69-0.42-3.85-0.1
		c-2.1,0.56-4.02,2.8-5.04,3.92c-1.01,1.12-1.08,5.46-1.36,6.09c-0.28,0.63,1.57,1.96,2.38,0.17c0.38-0.87,0.73-1.85,0.94-2.59
		c0.24-0.84,0.77-1.61,1.47-2.17l1.29-1.05c0,0-1.29,1.82-1.29,3.39c0,1.19,1.89,1.54,1.89,1.54s0.14,1.99,2.41,1.61
		c0,0,0.45,1.29,2.17,1.12s2.59-3.43,2.59-3.43s1.57-0.42,2.76-1.33c0.66-0.52,1.22-1.22,1.29-2.1l2.17-1.26
		C414.32,77.61,412.08,75.61,409.91,74.74"/>
	<path class="st2" d="M403.65,81.25c-0.31,0.59-0.59,1.19-0.84,1.78c-0.24,0.59-0.49,1.22-0.66,1.85h-0.04
		c-0.07-0.35-0.07-0.7,0-1.05c0.04-0.35,0.14-0.66,0.28-0.98c0.07-0.14,0.14-0.31,0.21-0.45c0.1-0.14,0.17-0.31,0.28-0.42
		c0.21-0.28,0.42-0.52,0.73-0.73H403.65z"/>
	<path class="st2" d="M406.03,83.17c-0.38,0.45-0.73,1.01-0.94,1.57c-0.24,0.56-0.45,1.15-0.52,1.75h-0.03
		c-0.14-0.31-0.14-0.66-0.1-1.01c0.03-0.31,0.1-0.66,0.24-0.94c0.07-0.14,0.14-0.28,0.24-0.42s0.17-0.28,0.31-0.38
		c0.21-0.24,0.49-0.45,0.8-0.59L406.03,83.17z"/>
	<path class="st2" d="M396.4,80.23c-0.63,1.64-0.7,4.83-0.94,5.39c-0.1,0.21,0.07,0.49,0.31,0.73
		C397.24,84.85,396.79,82.93,396.4,80.23"/>
	<g class="st3">
		<g>
			<g>
				<defs>
					<rect id="SVGID_1_" x="413.27" y="64.94" width="9.55" height="5.25"/>
				</defs>
				<clipPath id="SVGID_00000099622558173452888410000006468427061330895248_">
					<use xlink:href="#SVGID_1_"  style="overflow:visible;"/>
				</clipPath>
				<path style="clip-path:url(#SVGID_00000099622558173452888410000006468427061330895248_);fill:#185177;" d="M417.85,64.98
					c-4.27,0.42-2.27,3.39-2.27,3.39l-2.31,1.36c1.01,0.28,1.64,0.45,1.64,0.45c3.6-1.75,6.33-2.55,7.52-2.83
					c0.35-0.1,0.49-0.52,0.28-0.8C422.09,65.78,420.69,64.7,417.85,64.98"/>
			</g>
		</g>
	</g>
	<path class="st5" d="M418.97,110.54c0.49,4.27,0,9.34,0,9.34h41.64c0,0,1.61-10.99-3.32-20.23
		C452.36,90.42,420.41,100.25,418.97,110.54"/>
	<path class="st6" d="M397.31,13.5c5.56-4.16,10.08-4.09,11.65-0.35s6.12-0.49,7,5.04c0.87,5.53,1.96,0.38,4.79,5.32
		c7.94,13.68-3.74,18.72-11.34,18.65c-7.59-0.07-9.03-1.78-8.82-3.67c0.21-1.89-5.14,3.6-6.12-3.11c-1.01-6.72-5.04-6.3-3.25-11.83
		c0,0-2.83-1.5-1.19-6.09C391.68,12.87,397.31,13.5,397.31,13.5"/>
	<path class="st7" d="M378.59,73.13c-6.54-4.83-12.35-6.65-12.88-5.84c-0.52,0.84,5.63,4.44,5.63,4.44s-3.43,1.15-2.48,3.46
		c0,0-2.06,0.77-0.94,2.38c0,0-1.19,1.43,0.42,2.69c1.61,1.26,3.81,1.26,3.81,1.26s1.15,2.62,4.06,3.08c2.9,0.49,4.02,2.2,4.02,2.2
		s2.03,0.28,2.94-2.2C384.09,82.12,382.51,76.45,378.59,73.13"/>
	<path class="st7" d="M383.18,78.41c0,0-2.87-5.28-5.63-5.28c-2.62,0-6.89,0.38-6.82,1.64c0.07,1.26,6.65,1.5,6.65,1.5
		s-1.61,2.55-0.42,5.39c1.19,2.83,6.23,2.97,6.23,2.97V78.41z"/>
	<path class="st8" d="M375.69,84.54c0.17,0.03,0.35,0.07,0.52,0.1c2.9,0.49,4.02,2.2,4.02,2.2s2.03,0.28,2.94-2.2
		c0.45-1.22,0.7-4.13,0-6.23C381.29,82.86,377.3,84.22,375.69,84.54"/>
	<path class="st8" d="M377.54,73.17c-0.59,0.1-1.19,0.17-1.78,0.24c-0.59,0.1-1.19,0.21-1.75,0.31c-0.56,0.14-1.15,0.24-1.68,0.42
		c-0.28,0.1-0.52,0.21-0.73,0.31c-0.1,0.07-0.17,0.14-0.24,0.17c-0.07,0.07-0.07,0.1-0.07,0.1l0,0c0,0,0,0,0-0.03v-0.03l0,0l0,0
		c0,0,0.1,0.07,0.17,0.1c0.21,0.1,0.45,0.17,0.73,0.24c0.52,0.14,1.12,0.24,1.68,0.31c1.15,0.17,2.34,0.24,3.5,0.35h0.03
		c0.31,0.03,0.56,0.31,0.52,0.63c0,0.1-0.03,0.21-0.1,0.28c-0.14,0.21-0.28,0.49-0.38,0.77s-0.21,0.56-0.31,0.84
		c-0.17,0.56-0.24,1.15-0.24,1.78c0,0.59,0.14,1.22,0.31,1.78c0.21,0.56,0.59,1.05,1.08,1.5l0,0v0.03h-0.04
		c-0.52-0.35-1.01-0.84-1.29-1.43c-0.28-0.59-0.45-1.22-0.52-1.89c-0.07-0.66,0-1.29,0.14-1.92c0.14-0.63,0.38-1.26,0.7-1.82
		l0.03,0.1c-1.19-0.03-2.38-0.14-3.57-0.31c-0.59-0.07-1.19-0.17-1.78-0.35c-0.28-0.07-0.59-0.17-0.84-0.31
		c-0.14-0.07-0.28-0.14-0.38-0.28c-0.1-0.1-0.14-0.31-0.1-0.45c0.1-0.31,0.38-0.49,0.66-0.63c0.28-0.14,0.56-0.24,0.84-0.31
		c0.59-0.17,1.19-0.24,1.78-0.35c1.19-0.14,2.38-0.21,3.6-0.21C377.54,73.13,377.54,73.13,377.54,73.17
		C377.58,73.13,377.58,73.17,377.54,73.17L377.54,73.17z"/>
	<path class="st8" d="M371.38,71.73c0,0-0.84,0.28-1.54,0.84c1.43,0,3.36,0.14,3.36,0.14S372.5,72.26,371.38,71.73"/>
	<path class="st8" d="M368.86,75.19c1.78,2.24,4.62,3.39,5.28,3.15c0.66-0.24-0.24-1.78-0.24-1.78s1.36,1.08,0.8,1.99
		c-0.56,0.87-3.71-0.38-4.83-1.4S368.86,75.19,368.86,75.19"/>
	<path class="st8" d="M367.92,77.57c1.64,1.68,4.97,2.24,4.97,2.24s-1.4,0.38-3.11-0.28C368.1,78.87,367.92,77.57,367.92,77.57"/>
	<path class="st5" d="M399.83,47.59c-4.79,16.59-7.24,38.32-7.24,38.32l-9.41-7.52c0,0-0.77,5.81-4.55,8.26
		c0,0,11.27,15.36,20.05,15.29c8.78-0.03,14.94-27.68,14.94-27.68L399.83,47.59z"/>
	<path class="st9" d="M412.01,35.65c0,0,18.51,4.16,27.08,13.47c8.54,9.31,18.2,50.53,18.2,50.53s-22.01,11.86-38.32,10.88
		c0,0-6.02-21.77-7.77-26c-1.75-4.23-11.06-2.52-12.81-12.81c-1.75-10.29,1.4-24.18,1.4-24.18S401.58,41.67,412.01,35.65"/>
	<path class="st5" d="M411.24,84.54c1.75,4.23,7.77,26,7.77,26c16.31,0.94,38.32-10.88,38.32-10.88s-9.34-39.75-17.78-50
		c-4.72,1.68-8.64,5.6-10.11,13.47C431.82,78.87,411.24,84.54,411.24,84.54"/>
	<path class="st7" d="M395.11,23.55c0.52,2.8,0.94,9.13,3.57,11.86c2.62,2.73,5.35,0,5.35,0l1.01,5.39c0.17,1.01,1.26,1.61,2.2,1.22
		c2.03-0.77,5.18-2.34,6.65-4.9l-2.62-7.07c0,0-0.59-7.59-6.3-11.27C399.27,15.11,394.37,19.66,395.11,23.55"/>
	<path class="st8" d="M404.03,35.41l0.52,2.76c1.89-1.4,2.1-6.33,2.1-6.33S405.85,34.22,404.03,35.41"/>
	<path class="st6" d="M397.66,19.7c0.8,2.73,5.21,4.72,8.05,5.14c0,0-0.7,2.8,1.43,3.22s0.24,2.13,2.66,3.43
		c2.45,1.29-0.28,4.76,4.02,5.63c1.75,0.35,2.94-0.56,3.74-1.78c1.4-2.1,1.43-4.83,0.21-7c-1.89-3.36-5.46-8.96-9.38-10.92
		c-5.74-2.87-11.09-1.26-13.82,1.29s-0.7,6.72-0.7,6.72S397.38,24.32,397.66,19.7"/>
	<path class="st7" d="M432.2,87.13l-4.27,2.34c0,0-2.94-0.35-5.42,1.71s-4.58,2.06-4.23,2.69c0.35,0.63,2.41,1.57,4.97-0.31
		c2.55-1.89,2.69-0.8,1.92,1.29c-0.77,2.13-6.02,7.8-6.33,9.06c-0.31,1.26,4.27-2.59,6.4-4.62c0,0-5.14,7.21-4.97,8.26
		c0.17,1.05,4.48-3.36,6.68-7.38c0,0-2.59,5.81-2.48,6.79c0.1,1.15,2.66-1.12,4.58-6.05c0,0-1.68,4.69-1.19,5
		c0.49,0.31,1.29-1.26,2.83-5.28c1.54-4.02,4.41-6.58,4.41-6.58S435,89.16,432.2,87.13"/>
	<path class="st8" d="M434.13,95.14c0.59-0.66,1.01-1.05,1.01-1.05s-0.1-4.93-2.9-6.96l-4.27,2.34
		C431.33,91.22,433.25,93.78,434.13,95.14"/>
	<path class="st9" d="M438.81,49.09c-3.22-2.9-8.4-1.71-9.94,2.34c-0.04,0.1-0.07,0.21-0.1,0.31c-2.17,6.3,0.56,11.79,5.21,16.48
		c4.65,4.72,11.02,11.72,11.02,11.72l-15.57,7.35c0,0,4.44,5.35,5.21,8.71c0,0,19.98-3.92,25.44-10.43
		c5.46-6.51-5.49-21.35-13.26-28.94C443.26,53.22,440.63,50.74,438.81,49.09"/>
	<polygon class="st10" points="365.93,67.46 294.86,67.46 304.37,49.02 356.44,49.02 	"/>
	<rect x="294.86" y="67.46" class="st11" width="71.07" height="50.95"/>
	<path class="st12" d="M203.04,39.12c0,0-25.05,6.02-36.15,17.11S167.83,95,167.83,95L203.04,39.12z"/>
	<g class="st3">
		<g>
			<g>
				<defs>
					<rect id="SVGID_00000075133463071710600170000009226298632268978100_" x="162.8" y="53.01" width="31.49" height="41.99"/>
				</defs>
				<clipPath id="SVGID_00000034082915191967810910000017062985219266374328_">
					<use xlink:href="#SVGID_00000075133463071710600170000009226298632268978100_"  style="overflow:visible;"/>
				</clipPath>
				<path style="clip-path:url(#SVGID_00000034082915191967810910000017062985219266374328_);fill:#326C92;" d="M162.97,78.55
					c1.54,8.85,4.86,16.48,4.86,16.48l26.45-42.03c-8.33,2.73-20.93,7.7-27.96,14.73c-0.1,0.1-0.21,0.21-0.31,0.31
					C163.43,70.86,162.31,74.77,162.97,78.55"/>
			</g>
		</g>
	</g>
	<path class="st7" d="M248.63,22.53c-0.24-8.78-13.65-12.6-19.07-8.68s-5,13.02-5,13.02l-9.1,12.81l14,3.39l5.95-4.51
		c0,0,3.32,2.83,4.58,1.85c0.87-0.7,3.99-3.32,4.58-4.02c0.17-0.21-2.03-2.48-2.27-2.55c-1.54-0.38-1.26,1.61-1.08,0.94
		c0.07-0.21,0.31-0.28,0.49-0.14c0.73,0.7,2.41,2.27,2.87,1.75c0.59-0.66,0.7-2.38,0.7-2.38s2.31,0,2.8-0.59
		c0.49-0.59-0.49-2.03-0.56-4.41C247.51,26.63,248.91,24.84,248.63,22.53"/>
	<path class="st8" d="M248.11,33.41c-0.24,0.21-3.6-1.12-3.74-0.7c-0.17,0.38,0.21,1.05,0.94,1.29
		C247.02,34.64,248.11,33.41,248.11,33.41"/>
	<path class="st8" d="M232.36,35.34c-0.98,1.4-3.22,4.97-2.83,7.73l5.95-4.51c-1.29-1.15-2.03-2.41-2.38-3.15
		C232.92,35.13,232.53,35.09,232.36,35.34"/>
	<path class="st8" d="M239.29,26.8c1.99-0.21,2.34-2.76,2.34-2.76s1.82-0.91,5.81-0.17c3.99,0.73,7.84-2.24,5.49-3.11
		c0,0,4.02-1.5,4.16-4.41c0.1-2.9-4.76-0.94-4.76-0.94s3.11-2.13,2.8-4.65c-0.31-2.52-4.27-0.24-4.27-0.24s2.52-2.59,0.59-4.44
		s-5.35,1.19-5.35,1.19s2.34-4.58-1.29-5.98c-3.64-1.4-6.72,3.39-6.72,3.39s-7.21-4.93-12.28-0.84c-5.07,4.09-0.17,6.65-0.17,6.65
		s-7.98,0.56-7.98,6.89s4.16,5.25,4.16,5.25s-6.65,6.12,0.63,8.12c7.28,1.99,12.98-1.08,12.98-1.08s-2.52-0.91-0.84-4.58
		C235.96,22.08,239.11,24.25,239.29,26.8"/>
	<path class="st14" d="M207.55,119.88l30.58-47.97c0,0,11.72-14.45,9.97-20.3s-21.35-13.68-36.32-14.31
		c-20.09-0.87-36.18,34.61-36.18,34.61l-37.2,47.97H207.55z"/>
	<rect x="150.79" y="1.01" class="st15" width="310.8" height="118.87"/>
	<rect x="150.79" y="1.01" class="st15" width="310.8" height="118.87"/>
	<rect x="316.13" y="56.89" class="st16" width="30.27" height="2.83"/>
	<polygon class="st17" points="304.76,44.65 298.95,53.99 317.29,59.76 319.11,59.76 322.68,51.61 	"/>
	<path class="st7" d="M274.98,60.64c4.69-0.1,9.48-6.68,13.05-7.84c2.9-0.94,9.52-0.31,11.83-0.03c0.45,0.07,0.84,0.45,0.8,0.94
		c0,0.73-0.56,1.36-1.29,1.43l-7.77,0.8c0,0,3.92,0.8,4.27,1.92c0.35,1.12-0.84,2.62-0.84,2.62s0.28,1.78-0.49,2.97
		c0,0-0.38,2.62-2.34,3.08s-4.37-0.49-4.37-0.49s-1.5,3.15-7.73,2.2L274.98,69L274.98,60.64z"/>
	<path class="st8" d="M280.68,66.94l-5.74,0.56V69l5.11-0.73c6.23,0.91,7.73-2.2,7.73-2.2C286.46,66.66,283.76,68.06,280.68,66.94"
		/>
	<path class="st8" d="M290.45,58.96c1.78,0.03,4.55,1.54,4.55,1.54l0.56-0.87C295.56,59.62,292.55,57.98,290.45,58.96"/>
	<path class="st8" d="M294.51,63.47c-2.13,0.31-4.76-0.73-4.76-0.73l5.07,0.03C294.82,62.74,294.75,63.26,294.51,63.47"/>
	<path class="st12" d="M240.16,43.32c9.1,6.44,20.16,14.87,20.16,14.87l18.51,1.22c0,0,3.29,3.92,3.29,8.68
		c-0.04,4.76-1.82,6.65-1.82,6.65s-17.85,7.03-24.6,6.4c-4.41-0.42-16.38-6.12-24.25-10.08c-7.03-3.53-10.74-11.51-8.71-19.14
		c0.49-1.82,1.26-3.67,2.41-5.56C228.34,41.22,235.23,39.82,240.16,43.32"/>
	<g id="XMLID_21_">
		<g id="XMLID_22_">
			<path id="XMLID_23_" class="st8" d="M401.58,30.61c-0.04-0.1-0.07-0.1-0.14-0.14c-0.04,0-0.07,0-0.1,0l-0.1,0.03
				c-0.03,0-0.1-0.03-0.17,0c-0.03,0-0.07,0.03-0.1,0.03c-0.1,0-0.21,0-0.31,0l-0.14-0.03c-0.04,0-0.1,0-0.14,0s-0.04-0.03-0.1-0.03
				c-0.1,0-0.17-0.07-0.24-0.07c-0.07-0.03-0.1-0.07-0.17-0.1c-0.03-0.03-0.03-0.03-0.07-0.07c-0.03-0.03-0.03-0.03-0.03-0.03
				l-0.04-0.03c-0.03-0.07-0.03-0.14-0.03-0.17c-0.03-0.07-0.03-0.17-0.03-0.24c0-0.1,0-0.17,0-0.28v-0.03c0-0.03,0-0.03,0-0.03l0,0
				c0-0.03,0-0.07,0.03-0.1l0.03-0.17v-0.07l0.04-0.1l0.03-0.14c0-0.03,0-0.1,0-0.14c0-0.03,0.03-0.03,0.03-0.07
				s0.04-0.03,0.04-0.07c0-0.1,0.07-0.21,0.03-0.31c0.03-0.1,0.03-0.17,0.03-0.24l0.04-0.14c0-0.03,0-0.07,0-0.1l0.03-0.07
				c0.03-0.1,0.03-0.17,0.07-0.24c0.03-0.1,0.03-0.17,0.03-0.31c0.03-0.1,0.03-0.21,0.03-0.31c0-0.03,0.04-0.03,0.04-0.07
				s0.03-0.07,0.03-0.1l0.03-0.21c0.04-0.1,0-0.24,0.04-0.38c0.03-0.07,0.03-0.14,0.03-0.21c0-0.03,0-0.03,0-0.07
				c0-0.03-0.03-0.07-0.03-0.1c-0.04-0.03-0.1-0.1-0.17-0.1c-0.07,0-0.14,0-0.17,0.03c-0.07,0.03-0.1,0.07-0.1,0.1
				c0,0.03-0.04,0.03-0.04,0.07c-0.03,0.03-0.03,0.1-0.03,0.14s0,0.1-0.03,0.14c-0.04,0.1-0.04,0.24-0.07,0.38
				c-0.03,0.03-0.03,0.1-0.03,0.14s-0.04,0.1-0.04,0.17v0.03v0.03c-0.03,0.03-0.03,0.1-0.03,0.17c-0.03,0.07-0.03,0.14-0.03,0.21
				c-0.04,0.14-0.04,0.28-0.07,0.45c0,0.03,0,0.07-0.03,0.1c-0.03,0.07-0.03,0.14-0.03,0.24c0,0.03-0.04,0.07-0.04,0.1
				c0,0.03,0,0.07,0,0.1c-0.03,0.03-0.03,0.1-0.03,0.17c-0.03,0.21-0.07,0.45-0.1,0.66c0,0.03-0.03,0.07-0.03,0.1
				c0,0.03,0,0.07,0,0.1c0,0.03-0.03,0.07-0.03,0.1c-0.04,0.03-0.04,0.1-0.04,0.14l-0.03,0.14c0,0.03,0,0.03,0,0.03
				c0,0.03,0,0.1,0,0.14c0,0.1,0,0.17,0.03,0.24c0.04,0.17,0.07,0.38,0.17,0.52c0.04,0.03,0.04,0.07,0.07,0.1
				c0.03,0.1,0.1,0.17,0.17,0.24c0.03,0.03,0.07,0.07,0.1,0.1c0.03,0.03,0.07,0.03,0.1,0.03c0.07,0.03,0.1,0.07,0.17,0.1
				c0.24,0.1,0.52,0.1,0.73,0.1c0.04,0,0.07,0,0.1,0s0.07-0.03,0.1-0.03s0.07,0,0.1,0c0.03,0,0.1,0,0.14,0l0.28-0.1
				c0.03,0,0.07-0.03,0.1-0.03c0.03-0.03,0.07,0,0.1-0.03c0.04-0.03,0.04-0.03,0.04-0.07c0.03-0.03,0.03-0.1,0.03-0.17
				C401.65,30.68,401.62,30.68,401.58,30.61z"/>
		</g>
	</g>
	<g id="XMLID_12_">
		<g id="XMLID_13_">
			<path id="XMLID_14_" class="st8" d="M402.42,31.98c-0.1-0.03-0.1-0.03-0.17-0.03c-0.03,0-0.03,0.03-0.03,0.03l-0.04,0.03
				c0,0.03-0.03,0.03-0.03,0.03c0,0.03,0,0.03-0.03,0.03c-0.04,0.03-0.07,0.07-0.1,0.1l-0.03,0.03c-0.04,0.03,0,0.03-0.04,0.07
				c0,0.03-0.03,0-0.03,0.03c-0.03,0.03-0.07,0.03-0.07,0.1c-0.03,0.03-0.03,0.07-0.07,0.1l-0.03,0.03c-0.04,0-0.04,0.03-0.04,0.03
				l-0.03,0.03c-0.03,0.03-0.07,0.03-0.1,0.03c-0.03,0.03-0.07,0.03-0.1,0.07c-0.04,0.03-0.07,0.03-0.1,0.07l0,0h-0.04l0,0
				c-0.03,0-0.03,0-0.03,0.03l-0.07,0.03l-0.04,0.03c-0.03,0-0.03,0-0.03,0l-0.07,0.03c-0.04,0-0.04,0.03-0.04,0.03h-0.03h-0.03
				c-0.04,0.03-0.1,0-0.1,0.03c-0.04,0.03-0.07,0.03-0.1,0.03h-0.03c-0.04,0-0.04,0.03-0.04,0.03h-0.03c-0.03,0-0.07-0.03-0.1-0.03
				c-0.03,0-0.07,0-0.1,0c-0.04,0-0.1-0.03-0.14-0.03s-0.04,0-0.04-0.03c-0.03,0-0.03,0-0.03-0.03l-0.07-0.03
				c-0.04-0.03-0.1,0-0.17-0.03c-0.04-0.03-0.04-0.03-0.07-0.03h-0.03c0,0-0.04,0.03-0.07,0.03c-0.03,0.03-0.07,0.1-0.1,0.17
				c-0.04,0.07-0.04,0.1-0.04,0.17c0,0.03,0,0.1,0.04,0.1c0,0,0.03,0,0.03,0.03c0.03,0.03,0.03,0.03,0.07,0.03
				c0.04,0.03,0.04,0,0.07,0.03c0.07,0.03,0.14,0.03,0.21,0.03c0.04,0,0.04,0.03,0.07,0.03s0.07,0,0.1,0l0,0l0,0
				c0.04,0.03,0.07,0.03,0.1,0.03s0.07,0.03,0.1,0.03c0.1,0,0.17,0,0.24,0c0.04,0,0.04,0,0.04,0c0.03,0,0.1,0,0.1,0s0.03,0,0.07,0
				s0.03-0.03,0.03-0.03s0.07,0,0.1,0c0.1-0.03,0.24-0.07,0.35-0.1c0.04,0,0.04,0,0.04-0.03c0.03,0,0.03-0.03,0.03-0.03
				s0.03,0,0.07,0s0.04-0.03,0.07-0.03l0.07-0.03c0,0,0.04,0,0.04-0.03c0.03,0,0.03-0.03,0.07-0.03c0.03-0.03,0.07-0.03,0.1-0.07
				c0.07-0.03,0.14-0.1,0.17-0.17c0-0.03,0.03-0.03,0.03-0.03c0.04-0.03,0.07-0.03,0.1-0.07s0.03-0.03,0.03-0.03
				c0-0.03,0-0.03,0.04-0.03c0.03-0.03,0.03-0.03,0.07-0.03c0.07-0.1,0.14-0.17,0.21-0.28c0.04-0.03,0.04-0.03,0.04-0.03
				c0-0.03,0-0.03,0.03-0.03c0-0.03,0.04-0.03,0.04-0.03c0.03-0.03,0.03-0.03,0.03-0.03l0.03-0.07c0-0.03,0-0.03,0-0.07
				s0.04-0.03,0-0.03c0-0.03-0.03-0.03-0.03-0.03c-0.03-0.03-0.1-0.07-0.14-0.1C402.49,32.01,402.49,31.98,402.42,31.98z"/>
		</g>
	</g>
	<g id="XMLID_10_">
		<path id="XMLID_11_" class="st8" d="M403.51,27.78L403.51,27.78c-0.35-0.03-0.63-0.31-0.59-0.66l0.04-0.28
			c0.03-0.31,0.24-0.63,0.66-0.59c0.31,0.03,0.59,0.31,0.59,0.66l-0.04,0.28C404.1,27.54,403.82,27.78,403.51,27.78z"/>
	</g>
	<g id="XMLID_8_">
		<path id="XMLID_9_" class="st8" d="M396.96,27.43L396.96,27.43c-0.35-0.03-0.63-0.31-0.59-0.66l0.03-0.28
			c0.03-0.31,0.24-0.59,0.66-0.59c0.31,0.03,0.59,0.31,0.59,0.66l-0.03,0.28C397.52,27.19,397.24,27.43,396.96,27.43z"/>
	</g>
	<g id="XMLID_5_">
		<g id="XMLID_6_">
			<path id="XMLID_7_" class="st8" d="M405.12,25.16c0.03-0.07,0.07-0.1,0.07-0.17c0-0.03-0.03-0.03-0.03-0.03l-0.04-0.03
				c-0.03-0.03-0.03-0.03-0.03-0.07c-0.03,0-0.03-0.03-0.03-0.03c-0.04-0.03-0.07-0.07-0.1-0.1l-0.03-0.03c-0.04,0-0.04,0-0.07-0.03
				c-0.03,0-0.03-0.03-0.03-0.03c-0.03,0-0.07-0.07-0.14-0.03c-0.03-0.03-0.07-0.03-0.1-0.03l-0.03-0.03c-0.03,0-0.03,0-0.03,0
				l-0.04-0.03c-0.03-0.03-0.07-0.03-0.1-0.07c-0.04-0.03-0.1-0.03-0.1-0.03c-0.04,0-0.1-0.03-0.14-0.03l0,0h-0.03l0,0
				c-0.04,0-0.04,0-0.04,0l-0.1-0.03h-0.04c-0.03,0-0.03,0-0.03,0l-0.07-0.03c-0.03,0-0.03,0-0.03,0c-0.03,0-0.03,0-0.03,0
				s-0.04-0.03-0.04,0c-0.03,0.03-0.1-0.03-0.14,0c-0.04,0-0.07,0-0.1,0h-0.07c-0.03,0-0.03,0.03-0.03,0.03h-0.03
				c-0.04,0-0.07-0.03-0.1-0.03s-0.1,0-0.14,0.03c-0.03,0-0.1,0-0.14,0.03h-0.03c-0.03,0-0.03,0-0.03,0l-0.1,0.03
				c-0.03,0-0.1,0.07-0.17,0.07c-0.03,0-0.07,0-0.1,0.03c0,0-0.03,0-0.03,0.03s0,0.03,0,0.07c0,0.03,0.03,0.1,0.03,0.17
				c0,0.07,0.07,0.1,0.1,0.17c0.03,0.03,0.03,0.07,0.07,0.07h0.04c0.03,0,0.03,0,0.03,0l0.03-0.03c0.04,0,0.1-0.03,0.14-0.03
				c0.03,0,0.03,0,0.03,0c0.04,0,0.04-0.03,0.04-0.03l0,0l0,0c0.03,0.03,0.03,0.03,0.07,0c0.04,0,0.04,0,0.07,0
				c0.03-0.03,0.1,0,0.17-0.03h0.03c0.03,0,0.03,0,0.07,0c0.04,0,0.04,0,0.04,0l0.03-0.03c0.04,0,0.04,0.03,0.04,0.03
				c0.07,0,0.17,0,0.24,0.03c0.03,0,0.03,0,0.03,0h0.04c0.03,0,0.03,0.03,0.03,0.03c0.03,0,0.03,0.03,0.03,0.03h0.04h0.03
				c0.04,0,0.04,0,0.04,0.03c0.03,0,0.03,0.03,0.07,0.03c0.03,0.03,0.1,0.03,0.17,0.03c0,0,0.03,0,0.03,0.03
				c0.04,0.03,0.04,0.03,0.07,0.03c0.03,0,0.03,0.03,0.03,0.03h0.03c0.04,0.03,0.04,0.03,0.04,0.03c0.07,0.03,0.14,0.07,0.21,0.1
				l0.04,0.03h0.03l0.03,0.03c0,0.03,0.04,0.03,0.04,0.03l0.03,0.03h0.03c0.04,0,0.04,0.03,0.04,0.03l0.03-0.03
				c0.03-0.03,0.1-0.07,0.1-0.1C405.05,25.19,405.08,25.16,405.12,25.16z"/>
		</g>
	</g>
	<g id="XMLID_2_">
		<g id="XMLID_3_">
			<path id="XMLID_4_" class="st8" d="M395.77,24.77c0.07,0.07,0.1,0.1,0.1,0.1c0.03,0,0.03,0,0.03,0l0.03-0.03
				c0.04,0,0.04,0,0.07-0.03l0.03-0.03c0.03,0,0.1-0.03,0.1-0.03l0.03-0.03c0.03,0,0.03-0.03,0.03-0.03c0.04,0,0.04,0,0.04,0
				c0.03-0.03,0.07,0,0.1-0.03c0.03-0.03,0.03-0.03,0.1-0.03l0.04-0.03c0.03,0,0.03-0.03,0.03-0.03h0.03c0.04,0,0.07,0.03,0.1,0
				c0.03,0,0.03-0.03,0.1-0.03c0.03,0,0.07,0,0.1-0.03l0,0h0.03l0,0c0.03,0,0.03,0,0.03,0h0.07h0.03c0.03,0,0.03,0,0.03,0h0.04
				c0.03,0,0.03-0.03,0.03-0.03h0.03c0,0,0.04,0.03,0.04,0c0.03-0.03,0.07,0.03,0.1-0.03c0.03,0,0.07,0,0.1,0h0.04
				c0.03,0,0.03,0,0.03,0h0.03c0.04,0,0.04,0.03,0.1,0.03c0.03,0,0.03,0,0.1,0.03c0.03,0,0.07,0.03,0.1,0.03l0.03,0.03
				c0,0,0.03,0,0.03,0.03l0.07,0.03c0.03,0.03,0.1,0,0.14,0.03c0.04,0.03,0.04,0.03,0.07,0.03h0.03c0.04,0,0.04-0.03,0.04-0.03
				c0.03-0.03,0.07-0.1,0.1-0.17c0.04-0.07,0.04-0.1,0.07-0.17c0.03-0.03,0-0.1-0.04-0.1c0,0-0.03,0-0.03-0.03
				c-0.03-0.03-0.03-0.03-0.03-0.03c-0.04,0-0.04,0-0.04-0.03c-0.03-0.03-0.1-0.03-0.17-0.07c-0.03,0-0.03-0.03-0.03-0.03
				s-0.04,0-0.07,0l0,0l0,0c-0.03-0.03-0.03-0.03-0.07-0.03c-0.03,0-0.07-0.03-0.1-0.03c-0.07,0-0.14-0.03-0.17-0.03s-0.03,0-0.03,0
				s-0.07-0.03-0.1-0.03s-0.03,0-0.03,0l-0.04,0.03c0,0-0.03-0.03-0.07-0.03c-0.1,0-0.17,0-0.28,0c-0.03,0-0.03,0-0.03,0
				c-0.04,0-0.04,0.03-0.04,0.03h-0.03H397h-0.04h-0.03c-0.03,0-0.03,0-0.03,0c-0.04,0-0.07,0-0.1,0.03
				c-0.07,0.03-0.14,0.03-0.17,0.03c-0.04,0-0.04,0-0.04,0s-0.07,0-0.1,0.03c-0.04,0-0.04,0-0.04,0.03c-0.03,0-0.03,0.03-0.03,0.03
				c-0.03,0-0.03,0-0.07,0.03c-0.1,0.03-0.17,0.1-0.24,0.1c-0.03,0-0.03,0-0.03,0.03l-0.04,0.03c-0.03,0-0.03,0-0.03,0l-0.03,0.03
				l-0.04,0.03c-0.03,0-0.03,0.03-0.03,0.03c0,0.03-0.03,0.03-0.03,0.03c0,0.03,0,0.03,0.03,0.07s0.03,0.1,0.07,0.14
				C395.74,24.74,395.77,24.74,395.77,24.77z"/>
		</g>
	</g>
	<g id="XMLID_26_">
		<path id="XMLID_27_" class="st8" d="M245.41,28.34l-0.03-0.31c-0.04-0.38,0.28-0.7,0.63-0.7c0.42-0.03,0.7,0.28,0.7,0.63
			l0.03,0.31c0.04,0.38-0.28,0.7-0.63,0.7h-0.03C245.8,28.97,245.48,28.73,245.41,28.34z"/>
	</g>
	<g id="XMLID_18_">
		<g id="XMLID_19_">
			<path id="XMLID_20_" class="st8" d="M244.5,26.17c0.04,0.03,0.07,0.1,0.14,0.14c0,0.03,0.03,0.03,0.03,0.03l0.04-0.03h0.03
				l0.04-0.03c0,0,0.03,0,0.03-0.03l0.03-0.03h0.04l0.03-0.03c0.07-0.03,0.14-0.1,0.24-0.14C245.2,26,245.2,26,245.2,26
				c0.03,0,0.03,0,0.03,0l0.03-0.03c0.04-0.03,0.04-0.03,0.07-0.03c0-0.03,0.04-0.03,0.04-0.03c0.07,0,0.14-0.03,0.17-0.03
				s0.03-0.03,0.07-0.03c0.03-0.03,0.03-0.03,0.03-0.03h0.04h0.03c0.03,0,0.03-0.03,0.03-0.03s0-0.03,0.04-0.03h0.03
				c0.04,0,0.04,0,0.04,0c0.07-0.03,0.17-0.03,0.24-0.03l0.03-0.03c0,0,0,0.03,0.03,0.03c0.04,0,0.04,0,0.04,0c0.03,0,0.03,0,0.07,0
				h0.03c0.07,0.03,0.14,0,0.17,0.03c0.04,0,0.04,0,0.07,0c0.03,0.03,0.03,0.03,0.07,0l0,0l0,0l0.03,0.03h0.04
				c0.03,0.03,0.1,0.03,0.14,0.03c0.03,0,0.03,0.03,0.03,0.03h0.03h0.04c0.03,0,0.03-0.03,0.07-0.07c0.03-0.03,0.07-0.1,0.1-0.17
				c0.03-0.07,0.03-0.14,0.03-0.21c0-0.03,0-0.03,0-0.07s-0.03-0.03-0.03-0.03c-0.03-0.03-0.03-0.03-0.1-0.03
				c-0.07,0-0.14-0.07-0.17-0.07l-0.1-0.03c-0.04,0-0.04,0-0.04,0h-0.03c-0.03-0.03-0.1-0.03-0.14-0.03
				c-0.03-0.03-0.1-0.03-0.14-0.03c-0.03,0-0.07,0.03-0.14,0.03h-0.03c-0.04,0-0.04-0.03-0.04-0.03h-0.07c-0.04,0-0.07,0-0.14,0
				c-0.04-0.03-0.1,0.03-0.14,0c0-0.03-0.03,0-0.03,0s0,0-0.04,0h-0.03l-0.07,0.03c-0.03,0-0.03,0-0.03,0h-0.04l-0.1,0.03
				c-0.04,0-0.04,0-0.04,0l0,0h-0.03l0,0c-0.04,0-0.1,0.03-0.14,0.03s-0.07,0-0.14,0.03c-0.03,0.03-0.07,0.03-0.1,0.07l-0.04,0.03
				c-0.03,0-0.03,0-0.03,0l-0.04,0.03c-0.03,0.03-0.07,0.03-0.14,0.03c-0.07-0.03-0.1,0.03-0.14,0.03c-0.04,0-0.04,0.03-0.04,0.03
				c-0.03,0.03-0.03,0.03-0.07,0.03l-0.03,0.03c-0.03,0.03-0.07,0.07-0.14,0.1c-0.03,0-0.03,0.03-0.03,0.03
				c-0.04,0.03-0.04,0.03-0.04,0.07l-0.03,0.03c0,0.03-0.03,0.03-0.03,0.03c0,0.03,0.03,0.1,0.07,0.17
				C244.4,26.14,244.43,26.14,244.5,26.17z"/>
		</g>
	</g>
	<g id="XMLID_50_">
		<g id="XMLID_51_">
			<path id="XMLID_52_" class="st8" d="M238.2,26.98c0.07-0.07,0.07-0.1,0.07-0.21c0-0.03-0.04-0.07-0.04-0.07l-0.07-0.07
				c-0.03-0.03-0.03-0.07-0.07-0.07c-0.04,0-0.07-0.03-0.07-0.07c-0.07-0.07-0.1-0.1-0.21-0.17l-0.07-0.07
				c-0.03-0.03-0.07,0-0.1-0.03c-0.03,0-0.03-0.07-0.07-0.07c-0.07,0-0.14-0.07-0.21-0.07c-0.07-0.03-0.14-0.03-0.17-0.03L237.12,26
				c-0.03,0-0.07,0-0.07,0h-0.07c-0.07,0-0.1-0.07-0.17-0.07c-0.07,0-0.14,0-0.21,0c-0.07,0-0.14,0-0.21,0.03h-0.04h-0.03l0,0
				c-0.03,0-0.07,0-0.07,0L236.1,26c-0.04,0-0.04,0-0.07,0.03c-0.03,0-0.07,0-0.07,0.03l-0.1,0.03c-0.03,0-0.07,0.03-0.07,0.07
				c-0.04,0-0.04,0-0.07,0.03c-0.03,0-0.03,0-0.07,0c-0.07,0.07-0.14,0.07-0.21,0.14c-0.07,0.07-0.1,0.07-0.14,0.1l-0.07,0.07
				c-0.04,0.03-0.04,0.07-0.07,0.07l-0.03,0.03c-0.07,0.03-0.1,0.07-0.14,0.1c-0.07,0.07-0.07,0.1-0.14,0.17
				c-0.07,0.07-0.1,0.1-0.1,0.21c0,0.03-0.03,0.03-0.03,0.03c-0.04,0.03-0.04,0.03-0.04,0.07l-0.07,0.1
				c-0.07,0.07-0.03,0.21-0.07,0.24c-0.03,0.07-0.07,0.07-0.07,0.14c0,0.03,0,0.03,0,0.07c0.03,0.03,0.07,0.07,0.07,0.07
				c0.07,0.07,0.14,0.07,0.21,0.07s0.14,0,0.21,0c0.07,0,0.1-0.03,0.1-0.07l0.03-0.03c0-0.03,0.03-0.07,0.03-0.07
				c0-0.03,0-0.07,0.04-0.07c0.07-0.07,0.07-0.1,0.07-0.21c0.04-0.03,0.07-0.03,0.07-0.07c0-0.03,0.03-0.07,0.03-0.07l0,0l0,0
				c0.07,0,0.07-0.03,0.07-0.07c0.03-0.03,0.07-0.07,0.07-0.07c0.07-0.07,0.1-0.1,0.14-0.17l0.03-0.03
				c0.04-0.03,0.07-0.03,0.07-0.07c0.03,0,0.03-0.03,0.07-0.03c0-0.03,0-0.03,0.04-0.07c0.03,0,0.07,0,0.07-0.03
				c0.07-0.07,0.21-0.1,0.31-0.1c0.04,0,0.04,0,0.07-0.03l0.03-0.03c0.03,0,0.03,0,0.07,0c0.04,0,0.04,0,0.07,0h0.07h0.04
				c0.03,0,0.03,0,0.07,0c0.04,0,0.07,0,0.1,0c0.07,0,0.1,0,0.21,0c0.03,0,0.03,0,0.07,0c0.04,0.03,0.07,0.03,0.1,0.03
				s0.03,0.03,0.07,0.03c0.04,0,0.04-0.03,0.07,0c0.03,0.03,0.07,0.03,0.07,0.07c0.1,0.03,0.21,0.07,0.28,0.14
				c0,0,0.04,0.03,0.07,0.03s0.03,0,0.07,0c0.04,0,0.04,0.03,0.04,0.07s0.03,0.03,0.07,0.07l0.07,0.07c0.03,0.03,0.03,0,0.07,0.03
				c0.03,0,0.03,0.03,0.07,0.03c0.03,0,0.07-0.03,0.07-0.03c0.07-0.03,0.1-0.07,0.17-0.1C238.13,27.01,238.17,27.01,238.2,26.98z"/>
		</g>
	</g>
	<g id="XMLID_47_">
		<g id="XMLID_48_">
			<path id="XMLID_49_" class="st8" d="M237.57,28.8c0.1-0.03,0.14-0.07,0.21-0.07c0.04-0.03,0-0.03,0-0.07l-0.03-0.07
				c0-0.03,0.03-0.07,0-0.1c0-0.03-0.03-0.03-0.03-0.07c-0.04-0.07-0.04-0.14-0.07-0.21l-0.03-0.07c-0.04-0.03-0.07-0.07-0.07-0.07
				s0-0.07-0.03-0.07c-0.07-0.07-0.07-0.14-0.1-0.14c-0.07-0.07-0.07-0.07-0.1-0.1l-0.07-0.07c-0.04-0.03-0.04-0.03-0.07-0.03
				l-0.03-0.03c-0.03-0.03-0.07-0.07-0.1-0.1c-0.07-0.03-0.07-0.07-0.14-0.1c-0.07-0.03-0.1-0.07-0.17-0.07h-0.03l-0.04-0.03l0,0
				c-0.03-0.03-0.03-0.03-0.07-0.03l-0.1-0.07h-0.04c-0.03,0-0.07-0.03-0.07-0.03l-0.07-0.03c-0.04,0-0.07,0-0.07,0
				c-0.03,0-0.03,0-0.03-0.03l-0.04-0.03c-0.07,0-0.14-0.03-0.21,0c-0.07,0-0.1,0-0.17,0h-0.07c-0.03,0-0.03,0.03-0.07,0.03h-0.07
				c-0.07,0-0.1-0.03-0.17,0c-0.07,0.03-0.1,0.03-0.17,0.07c-0.07,0.03-0.14,0.03-0.17,0.07c0,0-0.03,0-0.07,0
				c-0.04,0-0.04,0.03-0.07,0.03l-0.1,0.07c-0.07,0.03-0.1,0.14-0.21,0.14c-0.07,0-0.07,0.03-0.1,0.07c0,0.03-0.03,0.03-0.03,0.07
				c0,0.03,0,0.07,0.03,0.07c0.03,0.07,0.07,0.14,0.14,0.21c0.07,0.07,0.1,0.07,0.17,0.14c0.07,0.03,0.07,0.07,0.1,0.03l0.03-0.03
				c0.04,0,0.04-0.03,0.07-0.03s0.03-0.03,0.03-0.03c0.07,0,0.07-0.07,0.14-0.07c0.04,0,0.07,0,0.07,0c0.03,0,0.03-0.03,0.07-0.07
				l0,0l0,0c0.03,0.03,0.07,0,0.07,0c0.04,0,0.07,0,0.07-0.03c0.07-0.03,0.1-0.03,0.17-0.07h0.04c0.03,0,0.07,0,0.07,0
				c0.03,0,0.03,0,0.07,0l0.04-0.03c0.03,0,0.07,0.03,0.07,0.03c0.07,0,0.17,0,0.24,0.07c0,0,0.03,0,0.03,0.03h0.04l0.03,0.03
				c0,0.03,0.04,0.03,0.04,0.03l0.07,0.03h0.03l0.04,0.03c0.03,0.03,0.07,0.03,0.07,0.07c0.07,0.03,0.07,0.07,0.14,0.1l0.04,0.03
				c0.03,0.03,0.03,0.07,0.07,0.07c0,0,0,0.03,0.03,0.03c0.04,0,0.04,0,0.04,0.03s0.03,0.07,0.03,0.07c0.07,0.07,0.1,0.14,0.1,0.21
				c0,0.03,0,0.03,0.03,0.03l0.04,0.03c0,0,0,0.03,0,0.07s0,0.03,0,0.07v0.07c0,0.03,0.03,0.03,0.03,0.03s0,0.03,0.04,0.03
				c0.03,0,0.07,0,0.07,0c0.07,0,0.14,0,0.21,0C237.47,28.8,237.5,28.8,237.57,28.8z"/>
		</g>
	</g>
	<g id="XMLID_33_">
		<g id="XMLID_34_">
			<path id="XMLID_35_" class="st8" d="M244.26,36.63c-0.04-0.03-0.04-0.03-0.07-0.07l0,0h-0.03h-0.04c0,0,0,0-0.03,0
				c0,0-0.04,0-0.07,0.03h-0.03c0,0,0,0.03-0.04,0.03h-0.03c-0.04,0-0.04,0-0.07,0.03c0,0-0.03,0-0.07,0.03h-0.03c0,0,0,0-0.04,0
				l0,0c0,0-0.03,0-0.07,0c0,0-0.04,0-0.07,0c-0.04,0-0.04,0-0.07,0l0,0l0,0l0,0c0,0,0,0-0.03,0h-0.04l0,0c0,0,0,0-0.03,0h-0.03
				c0,0,0,0-0.04,0l0,0l0,0c-0.03,0-0.03-0.03-0.07,0c-0.03,0-0.03,0-0.07-0.03h-0.04c0,0,0,0-0.03,0l0,0
				c-0.04,0-0.04-0.03-0.04-0.03c-0.03,0-0.03-0.03-0.03-0.03c-0.03,0-0.03-0.03-0.07-0.03l0,0c0,0,0,0,0-0.03l-0.03-0.03
				c0-0.03-0.04-0.03-0.07-0.07v-0.03c0,0,0,0-0.03,0h-0.04c-0.03,0-0.07,0.03-0.1,0.03c-0.04,0.03-0.04,0.03-0.07,0.07
				c0,0.03-0.04,0.03,0,0.03c0,0,0,0,0,0.03v0.03c0,0,0.03,0,0.03,0.03s0.04,0.07,0.07,0.07c0,0,0,0.03,0.03,0.03
				c0.04,0,0.04,0.03,0.04,0.03l0,0l0,0c0,0.03,0.03,0.03,0.03,0.03c0.04,0,0.04,0.03,0.04,0.03c0.03,0.03,0.07,0.03,0.1,0.07
				c0,0,0,0,0.04,0c0.03,0,0.03,0.03,0.03,0.03s0.03,0,0.03,0.03c0,0,0,0,0.04,0l0.03,0.03c0.07,0.03,0.1,0.03,0.17,0.07h0.04
				c0,0,0,0,0.03,0c0,0,0.04,0,0.04,0.03h0.03h0.03l0,0h0.04c0.03,0,0.03,0,0.07,0c0.03,0,0.07,0,0.14-0.03c0,0,0,0,0.04,0
				c0.03,0,0.03,0,0.07,0h0.03c0,0,0-0.03,0.03,0h0.04c0.07-0.03,0.1-0.03,0.17-0.07c0,0,0,0,0.04,0c0,0,0,0,0.03,0c0,0,0,0,0.03,0
				h0.04l0.03-0.03c0,0,0-0.03,0.03-0.03c0,0,0,0,0-0.03v-0.03c0-0.03-0.03-0.07-0.03-0.07C244.26,36.63,244.26,36.63,244.26,36.63z
				"/>
		</g>
	</g>
</g>
</svg>
