<?xml version="1.0" encoding="utf-8"?>
<!-- Generator: Adobe Illustrator 22.1.0, SVG Export Plug-In . SVG Version: 6.00 Build 0)  -->
<svg version="1.1" id="Capa_1" xmlns="http://www.w3.org/2000/svg" xmlns:xlink="http://www.w3.org/1999/xlink" x="0px" y="0px"
	 viewBox="0 0 888.2 339.7" style="enable-background:new 0 0 888.2 339.7;" xml:space="preserve">
<style type="text/css">
	.st0{display:none;fill:#CB1C3E;}
	.st1{display:none;fill:#346E94;}
	.st2{display:none;fill:#FFAA3F;}
	.st3{display:none;fill:#EC8120;}
	.st4{display:none;fill:#99162B;}
	.st5{display:none;fill:#FFAD91;}
	.st6{display:none;fill:#F1624F;}
	.st7{display:none;fill:#F3E8E2;}
	.st8{display:none;fill:#56114A;}
	.st9{display:none;opacity:0.5;}
	.st10{display:inline;}
	.st11{clip-path:url(#SVGID_2_);fill:#0C1A3C;}
	.st12{clip-path:url(#SVGID_4_);fill:#0C1A3C;}
	.st13{display:none;fill:#0C1A3C;}
	.st14{display:none;opacity:0.3;}
	.st15{clip-path:url(#SVGID_6_);fill:#185177;}
	.st16{display:none;}
	.st17{display:inline;fill:#FFAA3F;}
	.st18{display:inline;fill:#EC8120;}
	.st19{display:inline;fill:#346E94;}
	.st20{display:inline;opacity:0.3;}
	.st21{clip-path:url(#SVGID_8_);fill:#185177;}
	.st22{clip-path:url(#SVGID_10_);fill:#185177;}
	.st23{display:inline;fill:#0C1A3C;}
	.st24{display:inline;fill:#FF8B61;}
	.st25{display:inline;opacity:0.5;}
	.st26{clip-path:url(#SVGID_12_);fill:#0C1A3C;}
	.st27{clip-path:url(#SVGID_14_);fill:#0C1A3C;}
	.st28{display:inline;fill:#F1624F;}
	.st29{display:inline;fill:#F3E8E2;}
	.st30{fill:#0C1A3C;}
	.st31{fill:#FF8B61;}
	.st32{fill:#F1624F;}
	.st33{opacity:0.3;}
	.st34{clip-path:url(#SVGID_16_);fill:#185177;}
	.st35{clip-path:url(#SVGID_18_);fill:#0C1A3C;}
	.st36{clip-path:url(#SVGID_20_);fill:#0C1A3C;}
	.st37{fill:#EB4A6D;}
	.st38{fill:#F48090;}
	.st39{fill:#F2CDAC;}
	.st40{fill:#1A1B1D;}
	.st41{fill:#F56D8E;}
	.st42{fill:#D1152C;}
	.st43{fill:#F86057;}
	.st44{fill:#1F8A4B;}
	.st45{clip-path:url(#SVGID_22_);fill:#326C92;}
	.st46{fill:#219E56;}
	.st47{fill:none;}
	.st48{fill:#F3E8E2;}
	.st49{fill:#346E94;}
</style>
<path class="st0" d="M448.7,176.4c1-22.2,17.2-21.6,17.2-21.6s5.6-21.7,12.4-24.2c6.2-2.3,11.7,5.4,9.8,12.2
	c-1.9,6.8-5.4,11.4-9,9.7l-0.8,3.9c0,0,13.7,5.3,13,20H448.7z"/>
<path class="st1" d="M437.4,161.7l1.3-6.2c5.7,2.7,11.4-4.6,14.3-15.5c3-10.9-5.8-23.1-15.6-19.4c-10.9,4-19.7,38.6-19.7,38.6
	s-25.8-1-27.4,34.4l-12,146h79.9v-146C459.2,170.1,437.4,161.7,437.4,161.7"/>
<polygon class="st2" points="295,318.6 295,339.7 402,339.7 397.9,318.6 "/>
<polygon class="st3" points="357.5,339.7 402,339.7 397.9,318.6 353.8,318.6 "/>
<path class="st0" d="M360,123.9c-37.2,1-50.3,27.3-50.3,27.3s-22.3,66.9-20.9,98.2c1.4,31.3,6.2,69.2,6.2,69.2h102.9
	c0,0,14.1-35.3,5.3-69.2c-8.9-33.9,5.3-75.6-0.2-92.7C397.4,139.7,380.6,125.8,360,123.9"/>
<path class="st4" d="M397.9,318.6c0,0,14.1-35.3,5.3-69.2c-3.5-13.4-3.4-28.1-2.4-42c-14.2-11.2-37.9,18.2-67.2-13.5
	c-12.6,25.6-6.8,59.4-1.8,78.1c4.2,15.6-3.5,35.7-36.8,46.6H397.9z"/>
<path class="st4" d="M350.1,135c3.3,1.3,6.9,1.9,10.8,1.9c2.6,0,5.2-0.3,7.9-0.9c4-0.8,7-4,7.8-7.8c-5.1-2.3-10.7-3.8-16.6-4.4
	c-6.1,0.2-11.6,1-16.5,2.3C343.9,130.1,346.3,133.5,350.1,135"/>
<path class="st5" d="M352.5,84.4c-0.8,3.3-1,6.1-1,8.7c-0.3,0.1-0.5,0.1-0.8,0.2c-3.7,1.3-4.3,7.9,1.2,9.4c0,2.5-0.2,5-0.9,8.1
	c-1.3,5.5-2.4,10.2-3.1,13.4c-0.7,2.9,0.9,5.8,3.7,6.8c5.9,2.3,12.1,1.8,16.3,0.9c3-0.6,5-3.5,4.6-6.6l-1.4-10c0,0,6.5,1.2,9.7-3.6
	c3.2-4.7,4.1-28.5,4.1-28.5C386.2,66.4,355,73.6,352.5,84.4"/>
<path class="st6" d="M371.1,115.2c-3.9-1.1-6.5-2.6-8-3.6c-0.5-0.3-1.1,0.1-1,0.7c0.5,3.9,2.7,13.4,10.6,13.9L371.1,115.2z"/>
<path class="st7" d="M377.9,100.6c-3.3,0.5-7,0.2-8.7-0.1c-0.5-0.1-1,0.4-0.8,0.9c0.4,1.5,1.6,4,5.2,3.8c3.4-0.2,4.7-2.3,5.2-3.7
	C379,101.1,378.5,100.5,377.9,100.6"/>
<path class="st6" d="M370.6,107.2c4.1,0.8,6.3-0.4,6.3-0.4s-0.3,2.4-3.1,2.6C370.9,109.6,370.6,107.2,370.6,107.2"/>
<path class="st6" d="M374.6,86.1c0.3,3.5,3.7,5.5,3.1,7.5c-0.5,2-2.6,2.7-2.6,2.7s2.3,1.8,3.7-1C381.1,90.7,374.6,86.1,374.6,86.1"
	/>
<path class="st8" d="M377.4,85.3c2.4-0.5,3.7,0.8,3.7,0.8s0.2-2.1-1.4-2.5C378.1,83.2,376.9,83.9,377.4,85.3"/>
<path class="st8" d="M370.6,84.8c-2.6-0.6-5.1,1.3-5.1,1.3s-0.2-2.7,2.5-3.2C370.9,82.3,370.6,84.8,370.6,84.8"/>
<g class="st9">
	<g class="st10">
		<defs>
			<rect id="SVGID_1_" x="377.2" y="79.7" width="4.6" height="2.8"/>
		</defs>
		<clipPath id="SVGID_2_">
			<use xlink:href="#SVGID_1_"  style="overflow:visible;"/>
		</clipPath>
		<path class="st11" d="M377.3,81.5c2.9-0.7,4.4,0.9,4.4,0.9s0.7-2.2-1.7-2.7C378.2,79.4,376.8,80.6,377.3,81.5"/>
	</g>
</g>
<g class="st9">
	<g class="st10">
		<defs>
			<rect id="SVGID_3_" x="364.7" y="78.9" width="6.8" height="3.4"/>
		</defs>
		<clipPath id="SVGID_4_">
			<use xlink:href="#SVGID_3_"  style="overflow:visible;"/>
		</clipPath>
		<path class="st12" d="M371.4,80.8c-3.7-0.8-6.7,1.4-6.7,1.4s1-3.4,4.4-3.4C372.2,78.9,371.4,80.8,371.4,80.8"/>
	</g>
</g>
<path class="st13" d="M362.8,75.4c0.5,12.7-6.1,17.5-6.1,17.5l0.9,7c0.1,0.7-0.4,1.3-1.1,1.3h0c-0.7,0-1.2-0.6-1.2-1.2
	c0.1-1.8-0.3-5.1-3.7-6.9c0,0-2.2-6.2,0-11.1C354.5,75.4,362.8,75.4,362.8,75.4"/>
<path class="st1" d="M351.6,93.1c0,0,4.3-16.9,19.1-16.9c12.8,0,14.1,9.6,14.1,9.6s4.1-6.1-4.9-16c-9-9.9-19.8-7.8-26.4-1
	c-6.7,6.8-11.4,4.4-10.6,13.2C343.6,90.9,351.6,93.1,351.6,93.1"/>
<g class="st14">
	<g class="st10">
		<defs>
			<rect id="SVGID_5_" x="342.7" y="72.6" width="20" height="20.5"/>
		</defs>
		<clipPath id="SVGID_6_">
			<use xlink:href="#SVGID_5_"  style="overflow:visible;"/>
		</clipPath>
		<path class="st15" d="M362.7,78C362.7,78,362.7,78,362.7,78c-0.9-8.1-7.9-5.6-11.2-2.7c-2.4,2.1-5.8,0.6-8.4,2.1
			c-0.4,1.1-0.5,2.5-0.3,4.6c0.8,8.9,8.7,11.1,8.7,11.1S354.2,82.4,362.7,78"/>
	</g>
</g>
<path class="st6" d="M352.4,96.8c-1-1.9-2.7-0.3-2.5,1.3c0.2,1.6,2,2.4,2,2.4S350.1,97.3,352.4,96.8"/>
<path class="st0" d="M575.4,176.4c-1-22.2-17.2-21.6-17.2-21.6s-5.6-21.7-12.4-24.2c-6.2-2.3-11.7,5.4-9.8,12.2
	c1.9,6.8,5.4,11.4,9,9.7l0.8,3.9c0,0-13.7,5.3-13,20H575.4z"/>
<path class="st13" d="M584.8,124.1c-13.6,0.2-10.2,20.4-8,24.1c2.2,3.7,5.8,3.4,5.8,3.4v5.3c0,0-11.2,3.6-9.5,23.7
	c1.7,20.1,2.9,159.2,2.9,159.2h59.2c0,0-9-161-16-171.8c-7.1-10.9-21.3-12-21.3-12l-2.3-7.8c0,0,3.1-17.2-1.4-21.4
	C589.7,122.4,584.8,124.1,584.8,124.1"/>
<g class="st16">
	<path class="st17" d="M739.2,281.1c2.6,31.4,2.2,58.6,2.2,58.6H626.5l-5.5-58.6H739.2z"/>
	<path class="st18" d="M622.4,296.5l4,43.2h69l-7.5-58.6H632C632.5,292,627.4,295.6,622.4,296.5"/>
	<path class="st17" d="M608.9,171.9c-11.3,17.2,12,109.3,12,109.3h22.1L608.9,171.9z"/>
	<path class="st19" d="M621.3,158.1c-7.3,7.6-12.3,13.8-12.3,13.8s0,31,11.1,61.1c11.1,30.1,12,48.2,12,48.2h107.2
		c0,0-13.5-116.6-26.2-135.7c-5.3-8-16-11.2-27.3-12.1C661.6,131.4,638,140.7,621.3,158.1"/>
	<g class="st20">
		<g>
			<defs>
				<rect id="SVGID_7_" x="637" y="134.9" width="26" height="15.7"/>
			</defs>
			<clipPath id="SVGID_8_">
				<use xlink:href="#SVGID_7_"  style="overflow:visible;"/>
			</clipPath>
			<path class="st21" d="M645.2,150.6L645.2,150.6c0.7,0,1.3-0.1,2-0.2l7.3-1.6c3.4-0.8,6.1-3,7.6-6.1c1.1-2.5,1.3-5.2,0.6-7.7
				c-9,2-17.7,5.5-25.6,10.4C638.5,148.5,641.7,150.6,645.2,150.6"/>
		</g>
	</g>
	<g class="st20">
		<g>
			<defs>
				<rect id="SVGID_9_" x="622.2" y="173.9" width="117.1" height="107.3"/>
			</defs>
			<clipPath id="SVGID_10_">
				<use xlink:href="#SVGID_9_"  style="overflow:visible;"/>
			</clipPath>
			<path class="st22" d="M700.2,173.9c0,49.3-52.9,63.2-78,64.9c9.9,26.6,9.8,42.4,9.8,42.4h107.2c0,0-6.9-59.7-15.5-100.7
				L700.2,173.9z"/>
		</g>
	</g>
	<path class="st23" d="M644,90.4c10.1,2.5,11.9,17.8,11.8,23.8c-0.1,6,2.9,5.8,1.8,9.7c-1.1,3.9-10.5,5.7-18.8,3.6
		c-8.3-2.1-9.4-13.7-9.4-13.7s-8.5,3.8-11.7,0.1C602.2,95.6,633.9,87.8,644,90.4"/>
	<path class="st24" d="M624.8,108c1.9,6.6,0.5,9.7,1.4,15.7c0.7,4.6,3.9,8.1,5.4,9.5c0.4,0.4,1.1,0.6,1.6,0.4l3.4-0.8l4,10.5
		c0.9,2.3,3.3,3.6,5.7,3.1l7.3-1.6c4.4-1,6.7-5.9,4.6-9.9l-6.9-13.2c0,0,3.5-1.1,0.9-11.8C647.9,92.3,625.8,91.1,624.8,108"/>
	<g class="st25">
		<g>
			<defs>
				<rect id="SVGID_11_" x="635.2" y="105.8" width="5.8" height="2.6"/>
			</defs>
			<clipPath id="SVGID_12_">
				<use xlink:href="#SVGID_11_"  style="overflow:visible;"/>
			</clipPath>
			<path class="st26" d="M635.2,108.3c0.1-0.7,0.5-1.3,0.9-1.6c0.5-0.4,1-0.7,1.6-0.8c0.6-0.1,1.2-0.1,1.7,0c0.6,0.2,1.1,0.5,1.5,1
				l0,0.1c-1-0.2-2-0.1-3,0.1c-1,0.2-1.9,0.6-2.7,1.2L635.2,108.3z"/>
		</g>
	</g>
	<g class="st25">
		<g>
			<defs>
				<rect id="SVGID_13_" x="627.2" y="106.8" width="5.2" height="2.3"/>
			</defs>
			<clipPath id="SVGID_14_">
				<use xlink:href="#SVGID_13_"  style="overflow:visible;"/>
			</clipPath>
			<path class="st27" d="M632.3,109.1c-0.4-0.2-0.8-0.4-1.2-0.5c-0.4-0.2-0.8-0.3-1.3-0.3c-0.4-0.1-0.9-0.1-1.3-0.1
				c-0.4,0-0.9,0.1-1.3,0.2l-0.1-0.1c0.3-0.6,0.8-1,1.3-1.2c0.5-0.2,1.1-0.2,1.6-0.2c0.5,0.1,1,0.3,1.4,0.7c0.4,0.3,0.8,0.8,0.9,1.4
				L632.3,109.1z"/>
		</g>
	</g>
	<path class="st28" d="M644,126.6c0,0-2.5,4.1-7.5,6.2l4,10.5C644,139.8,645.2,134.2,644,126.6"/>
	<path class="st28" d="M632.6,113.4c0.2,3-2.1,6.6-1.9,7.2c0.2,0.6,3.9,1,3.9,1L632.6,113.4z"/>
	<path class="st29" d="M630.2,124.3c1.9-0.5,6.3-1.3,6.3-1.3s-2.4,3.4-6.2,1.6C630.2,124.5,630.1,124.3,630.2,124.3"/>
	<path class="st28" d="M631.2,126.9c0.5,0.1,1,0.1,1.6,0c0.5-0.1,1-0.2,1.5-0.4c1-0.4,1.9-0.9,2.7-1.6l0.1,0.1
		c-0.1,0.7-0.4,1.3-0.8,1.7c-0.4,0.5-0.9,0.8-1.5,1c-0.6,0.2-1.2,0.3-1.9,0.2c-0.6-0.1-1.3-0.4-1.7-1L631.2,126.9z"/>
	<path class="st28" d="M652.9,124.8l-1.7-3.2c-1,3-4.8,3.2-4.8,3.2S650.3,127,652.9,124.8"/>
	<path class="st23" d="M636.1,111.4c0.2-0.6,0.6-1,1-1.3c0.2-0.2,0.5-0.2,0.8-0.3c0.3,0,0.5,0,0.8,0c0.5,0.1,1,0.3,1.4,0.6
		c0.4,0.3,0.7,0.8,0.8,1.4l-0.1,0.1c-0.7-0.5-1.5-0.7-2.3-0.8c-0.8-0.1-1.6,0-2.4,0.4L636.1,111.4z"/>
	<path class="st23" d="M638.7,111.9c0,0.7-0.4,1.3-0.8,1.3c-0.5,0-0.8-0.6-0.8-1.3c0-0.7,0.4-1.3,0.8-1.3
		C638.3,110.6,638.7,111.2,638.7,111.9"/>
	<path class="st23" d="M627.2,113.2c-0.5-0.3-0.8-1-0.3-1.7c0.2-0.3,0.5-0.6,0.8-0.7c0.3-0.1,0.7-0.2,1-0.2c0.6,0.1,1.1,0.3,1.4,0.6
		c0.4,0.3,0.6,0.8,0.6,1.4l-0.1,0.1c-0.6-0.4-1.3-0.8-2-0.8c-0.3,0-0.7,0-1,0.3c-0.2,0.2-0.3,0.6-0.3,1L627.2,113.2z"/>
	<path class="st23" d="M629.8,112.5c0,0.7-0.4,1.3-0.8,1.3c-0.5,0-0.8-0.6-0.8-1.3c0-0.7,0.4-1.3,0.8-1.3
		C629.4,111.2,629.8,111.8,629.8,112.5"/>
	<path class="st23" d="M625.7,110c6.2-1.7,9.3-7.5,9.3-7.5s-0.2,5.3,8,4.6c0,0,1.5,6.5,4.5,9.3c0,0,0.5-2.1,2.3-1.2
		c1.8,0.9,1.4,6.5,1.4,6.5s4.3-1.2,2.5-9.3c-1.9-8.5-4.5-17.9-18.5-17.5c-9.2,0.3-12.2,8.8-12.7,12.4
		C622.2,109,623.9,110.5,625.7,110"/>
	<path class="st19" d="M700.2,173.9c6.9,11.4,54.6,23.8,54.6,23.8l-24.5,12.7c0,0,19.1,3.4,26.9,25l42.4-21.9
		c14.7-7.4,6.2-32.9-32.7-53.6c-57.4-30.5-85.5-26.8-85.5-26.8"/>
</g>
<path class="st30" d="M730.2,210.3c-8.4,4.9,17.1,30.1,26.9,25C767,230.3,742.3,204.1,730.2,210.3"/>
<path class="st31" d="M740.5,210.7l-7.5,3.9c0,0-1.8-0.6-4.4-1.1c-3.2-0.7-7.7-1.2-11-0.3c-6,1.6-11.5,8-14.4,11.2
	c-2.9,3.2-3.1,15.6-3.9,17.4c-0.8,1.8,4.5,5.6,6.8,0.5c1.1-2.5,2.1-5.3,2.7-7.4c0.7-2.4,2.2-4.6,4.2-6.2l3.7-3c0,0-3.7,5.2-3.7,9.7
	c0,3.4,5.4,4.4,5.4,4.4s0.4,5.7,6.9,4.6c0,0,1.3,3.7,6.2,3.2c4.9-0.5,7.4-9.8,7.4-9.8s4.5-1.2,7.9-3.8c1.9-1.5,3.5-3.5,3.7-6
	l6.2-3.6C753.1,218.9,746.7,213.2,740.5,210.7"/>
<path class="st32" d="M722.6,229.3c-0.9,1.7-1.7,3.4-2.4,5.1c-0.7,1.7-1.4,3.5-1.9,5.3l-0.1,0c-0.2-1-0.2-2,0-3
	c0.1-1,0.4-1.9,0.8-2.8c0.2-0.4,0.4-0.9,0.6-1.3c0.3-0.4,0.5-0.9,0.8-1.2c0.6-0.8,1.2-1.5,2.1-2.1L722.6,229.3z"/>
<path class="st32" d="M729.4,234.8c-1.1,1.3-2.1,2.9-2.7,4.5c-0.7,1.6-1.3,3.3-1.5,5l-0.1,0c-0.4-0.9-0.4-1.9-0.3-2.9
	c0.1-0.9,0.3-1.9,0.7-2.7c0.2-0.4,0.4-0.8,0.7-1.2c0.3-0.4,0.5-0.8,0.9-1.1c0.6-0.7,1.4-1.3,2.3-1.7L729.4,234.8z"/>
<path class="st32" d="M701.9,226.4c-1.8,4.7-2,13.8-2.7,15.4c-0.3,0.6,0.2,1.4,0.9,2.1C704.3,239.6,703,234.1,701.9,226.4"/>
<g class="st33">
	<g>
		<defs>
			<rect id="SVGID_15_" x="750.1" y="182.7" width="27.3" height="15"/>
		</defs>
		<clipPath id="SVGID_16_">
			<use xlink:href="#SVGID_15_"  style="overflow:visible;"/>
		</clipPath>
		<path class="st34" d="M763.2,182.8c-12.2,1.2-6.5,9.7-6.5,9.7l-6.6,3.9c2.9,0.8,4.7,1.3,4.7,1.3c10.3-5,18.1-7.3,21.5-8.1
			c1-0.3,1.4-1.5,0.8-2.3C775.3,185.1,771.3,182,763.2,182.8"/>
	</g>
</g>
<g class="st14">
	<g class="st10">
		<defs>
			<rect id="SVGID_17_" x="262.8" y="281.9" width="26" height="32.8"/>
		</defs>
		<clipPath id="SVGID_18_">
			<use xlink:href="#SVGID_17_"  style="overflow:visible;"/>
		</clipPath>
		<polygon class="st35" points="282.1,314.7 262.8,314.7 269.4,281.9 288.7,281.9 		"/>
	</g>
</g>
<polygon class="st7" points="275.5,314.7 256.2,314.7 262.8,281.9 282.1,281.9 "/>
<g class="st14">
	<g class="st10">
		<defs>
			<rect id="SVGID_19_" x="243.5" y="281.9" width="26" height="32.8"/>
		</defs>
		<clipPath id="SVGID_20_">
			<use xlink:href="#SVGID_19_"  style="overflow:visible;"/>
		</clipPath>
		<polygon class="st36" points="262.8,314.7 243.5,314.7 250.1,281.9 269.4,281.9 		"/>
	</g>
</g>
<polygon class="st7" points="256.2,314.7 236.8,314.7 243.5,281.9 262.8,281.9 "/>
<rect x="231.8" y="296.5" class="st13" width="18.7" height="29.4"/>
<rect x="250.5" y="296.5" class="st1" width="44.6" height="29.4"/>
<path class="st37" d="M766.4,313c1.4,12.2,0,26.7,0,26.7h119c0,0,4.6-31.4-9.5-57.8C861.8,255.5,770.5,283.6,766.4,313"/>
<path class="st38" d="M704.5,35.7c15.9-11.9,28.8-11.7,33.3-1s17.5-1.4,20,14.4c2.5,15.8,5.6,1.1,13.7,15.2
	c22.7,39.1-10.7,53.5-32.4,53.3s-25.8-5.1-25.2-10.5c0.6-5.4-14.7,10.3-17.5-8.9c-2.9-19.2-14.4-18-9.3-33.8c0,0-8.1-4.3-3.4-17.4
	C688.4,33.9,704.5,35.7,704.5,35.7"/>
<path class="st39" d="M651,206.1c-18.7-13.8-35.3-19-36.8-16.7c-1.5,2.4,16.1,12.7,16.1,12.7s-9.8,3.3-7.1,9.9c0,0-5.9,2.2-2.7,6.8
	c0,0-3.4,4.1,1.2,7.7c4.6,3.6,10.9,3.6,10.9,3.6s3.3,7.5,11.6,8.8c8.3,1.4,11.5,6.3,11.5,6.3s5.8,0.8,8.4-6.3S662.2,215.6,651,206.1
	"/>
<path class="st39" d="M664.1,221.2c0,0-8.2-15.1-16.1-15.1c-7.5,0-19.7,1.1-19.5,4.7c0.2,3.6,19,4.3,19,4.3s-4.6,7.3-1.2,15.4
	c3.4,8.1,17.8,8.5,17.8,8.5V221.2z"/>
<path class="st40" d="M642.7,238.7c0.5,0.1,1,0.2,1.5,0.3c8.3,1.4,11.5,6.3,11.5,6.3s5.8,0.8,8.4-6.3c1.3-3.5,2-11.8,0-17.8
	C658.7,233.9,647.3,237.8,642.7,238.7"/>
<path class="st40" d="M648,206.2c-1.7,0.3-3.4,0.5-5.1,0.7c-1.7,0.3-3.4,0.6-5,0.9c-1.6,0.4-3.3,0.7-4.8,1.2
	c-0.8,0.3-1.5,0.6-2.1,0.9c-0.3,0.2-0.5,0.4-0.7,0.5c-0.2,0.2-0.2,0.3-0.2,0.3c0,0,0,0,0,0c0,0,0,0,0-0.1c0,0,0-0.1,0-0.1
	c0,0,0,0,0,0c0,0,0,0,0,0c0,0,0.3,0.2,0.5,0.3c0.6,0.3,1.3,0.5,2.1,0.7c1.5,0.4,3.2,0.7,4.8,0.9c3.3,0.5,6.7,0.7,10,1l0.1,0
	c0.9,0.1,1.6,0.9,1.5,1.8c0,0.3-0.1,0.6-0.3,0.8c-0.4,0.6-0.8,1.4-1.1,2.2c-0.3,0.8-0.6,1.6-0.9,2.4c-0.5,1.6-0.7,3.3-0.7,5.1
	c0,1.7,0.4,3.5,0.9,5.1c0.6,1.6,1.7,3,3.1,4.3l0,0c0,0,0,0.1,0,0.1c0,0-0.1,0-0.1,0c-1.5-1-2.9-2.4-3.7-4.1
	c-0.8-1.7-1.3-3.5-1.5-5.4c-0.2-1.9,0-3.7,0.4-5.5c0.4-1.8,1.1-3.6,2-5.2l0.1,0.3c-3.4-0.1-6.8-0.4-10.2-0.9c-1.7-0.2-3.4-0.5-5.1-1
	c-0.8-0.2-1.7-0.5-2.4-0.9c-0.4-0.2-0.8-0.4-1.1-0.8c-0.3-0.3-0.4-0.9-0.3-1.3c0.3-0.9,1.1-1.4,1.9-1.8c0.8-0.4,1.6-0.7,2.4-0.9
	c1.7-0.5,3.4-0.7,5.1-1c3.4-0.4,6.8-0.6,10.3-0.6c0.1,0,0.1,0,0.1,0.1C648.1,206.1,648.1,206.2,648,206.2L648,206.2z"/>
<path class="st40" d="M630.4,202.1c0,0-2.4,0.8-4.4,2.4c4.1,0,9.6,0.4,9.6,0.4S633.6,203.6,630.4,202.1"/>
<path class="st40" d="M623.2,212c5.1,6.4,13.2,9.7,15.1,9c1.9-0.7-0.7-5.1-0.7-5.1s3.9,3.1,2.3,5.7c-1.6,2.5-10.6-1.1-13.8-4
	C622.9,214.7,623.2,212,623.2,212"/>
<path class="st40" d="M620.5,218.8c4.7,4.8,14.2,6.4,14.2,6.4s-4,1.1-8.9-0.8C621,222.5,620.5,218.8,620.5,218.8"/>
<path class="st37" d="M711.7,133.1C698,180.5,691,242.6,691,242.6l-26.9-21.5c0,0-2.2,16.6-13,23.6c0,0,32.2,43.9,57.3,43.7
	c25.1-0.1,42.7-79.1,42.7-79.1L711.7,133.1z"/>
<path class="st41" d="M746.5,99c0,0,52.9,11.9,77.4,38.5c24.4,26.6,52,144.4,52,144.4S813,315.8,766.4,313c0,0-17.2-62.2-22.2-74.3
	s-31.6-7.2-36.6-36.6c-5-29.4,4-69.1,4-69.1S716.7,116.2,746.5,99"/>
<path class="st37" d="M744.3,238.7c5,12.1,22.2,74.3,22.2,74.3c46.6,2.7,109.5-31.1,109.5-31.1S849.3,168.3,825.2,139
	c-13.5,4.8-24.7,16-28.9,38.5C803.1,222.5,744.3,238.7,744.3,238.7"/>
<path class="st39" d="M698.2,64.4c1.5,8,2.7,26.1,10.2,33.9c7.5,7.8,15.3,0,15.3,0l2.9,15.4c0.5,2.9,3.6,4.6,6.3,3.5
	c5.8-2.2,14.8-6.7,19-14l-7.5-20.2c0,0-1.7-21.7-18-32.2C710.1,40.3,696.1,53.3,698.2,64.4"/>
<path class="st40" d="M723.7,98.3l1.5,7.9c5.4-4,6-18.1,6-18.1S728.9,94.9,723.7,98.3"/>
<path class="st38" d="M705.5,53.4c2.3,7.8,14.9,13.5,23,14.7c0,0-2,8,4.1,9.2c6.1,1.2,0.7,6.1,7.6,9.8c7,3.7-0.8,13.6,11.5,16.1
	c5,1,8.4-1.6,10.7-5.1c4-6,4.1-13.8,0.6-20c-5.4-9.6-15.6-25.6-26.8-31.2c-16.4-8.2-31.7-3.6-39.5,3.7c-7.8,7.3-2,19.2-2,19.2
	S704.7,66.6,705.5,53.4"/>
<path class="st39" d="M804.2,246.1l-12.2,6.7c0,0-8.4-1-15.5,4.9c-7.1,5.9-13.1,5.9-12.1,7.7c1,1.8,6.9,4.5,14.2-0.9
	c7.3-5.4,7.7-2.3,5.5,3.7c-2.2,6.1-17.2,22.3-18.1,25.9c-0.9,3.6,12.2-7.4,18.3-13.2c0,0-14.7,20.6-14.2,23.6
	c0.5,3,12.8-9.6,19.1-21.1c0,0-7.4,16.6-7.1,19.4c0.3,3.3,7.6-3.2,13.1-17.3c0,0-4.8,13.4-3.4,14.3c1.4,0.9,3.7-3.6,8.1-15.1
	c4.4-11.5,12.6-18.8,12.6-18.8S812.2,251.9,804.2,246.1"/>
<path class="st40" d="M809.7,269c1.7-1.9,2.9-3,2.9-3s-0.3-14.1-8.3-19.9l-12.2,6.7C801.7,257.8,807.2,265.1,809.7,269"/>
<path class="st41" d="M823.1,137.4c-9.2-8.3-24-4.9-28.4,6.7c-0.1,0.3-0.2,0.6-0.3,0.9c-6.2,18,1.6,33.7,14.9,47.1
	c13.3,13.5,31.5,33.5,31.5,33.5l-44.5,21c0,0,12.7,15.3,14.9,24.9c0,0,57.1-11.2,72.7-29.8c15.6-18.6-15.7-61-37.9-82.7
	C835.8,149.2,828.3,142.1,823.1,137.4"/>
<polygon class="st42" points="614.8,189.9 411.7,189.9 438.9,137.2 587.7,137.2 "/>
<rect x="411.7" y="189.9" class="st43" width="203.1" height="145.6"/>
<path class="st44" d="M149.3,108.9c0,0-71.6,17.2-103.3,48.9c-31.7,31.7,2.7,110.8,2.7,110.8L149.3,108.9z"/>
<g class="st33">
	<g>
		<defs>
			<rect id="SVGID_21_" x="34.3" y="148.6" width="90" height="120"/>
		</defs>
		<clipPath id="SVGID_22_">
			<use xlink:href="#SVGID_21_"  style="overflow:visible;"/>
		</clipPath>
		<path class="st45" d="M34.8,221.6c4.4,25.3,13.9,47.1,13.9,47.1l75.6-120.1c-23.8,7.8-59.8,22-79.9,42.1c-0.3,0.3-0.6,0.6-0.9,0.9
			C36.1,199.6,32.9,210.8,34.8,221.6"/>
	</g>
</g>
<path class="st39" d="M279.6,61.5c-0.7-25.1-39-36-54.5-24.8s-14.3,37.2-14.3,37.2l-26,36.6l40,9.7l17-12.9c0,0,9.5,8.1,13.1,5.3
	c2.5-2,11.4-9.5,13.1-11.5c0.5-0.6-5.8-7.1-6.5-7.3c-4.4-1.1-3.6,4.6-3.1,2.7c0.2-0.6,0.9-0.8,1.4-0.4c2.1,2,6.9,6.5,8.2,5
	c1.7-1.9,2-6.8,2-6.8s6.6,0,8-1.7c1.4-1.7-1.4-5.8-1.6-12.6C276.4,73.2,280.4,68.1,279.6,61.5"/>
<path class="st40" d="M278.1,92.6c-0.7,0.6-10.3-3.2-10.7-2c-0.5,1.1,0.6,3,2.7,3.7C275,96.1,278.1,92.6,278.1,92.6"/>
<path class="st40" d="M233.1,98.1c-2.8,4-9.2,14.2-8.1,22.1l17-12.9c-3.7-3.3-5.8-6.9-6.8-9C234.7,97.5,233.6,97.4,233.1,98.1"/>
<path class="st40" d="M252.9,73.7c5.7-0.6,6.7-7.9,6.7-7.9s5.2-2.6,16.6-0.5c11.4,2.1,22.4-6.4,15.7-8.9c0,0,11.5-4.3,11.9-12.6
	c0.3-8.3-13.6-2.7-13.6-2.7s8.9-6.1,8-13.3c-0.9-7.2-12.2-0.7-12.2-0.7s7.2-7.4,1.7-12.7c-5.5-5.3-15.3,3.4-15.3,3.4
	s6.7-13.1-3.7-17.1c-10.4-4-19.2,9.7-19.2,9.7S228.9-3.7,214.4,8c-14.5,11.7-0.5,19-0.5,19s-22.8,1.6-22.8,19.7
	c0,18.1,11.9,15,11.9,15s-19,17.5,1.8,23.2c20.8,5.7,37.1-3.1,37.1-3.1s-7.2-2.6-2.4-13.1C243.4,60.2,252.4,66.4,252.9,73.7"/>
<path class="st46" d="M162.2,339.7l87.4-137.1c0,0,33.5-41.3,28.5-58c-5-16.7-61-39.1-103.8-40.9c-57.4-2.5-103.4,98.9-103.4,98.9
	L-35.4,339.7H162.2z"/>
<rect class="st47" width="888.2" height="339.7"/>
<rect class="st47" width="888.2" height="339.7"/>
<rect x="472.5" y="159.7" class="st48" width="86.5" height="8.1"/>
<polygon class="st49" points="440,124.7 423.4,151.4 475.8,167.9 481,167.9 491.2,144.6 "/>
<path class="st39" d="M354.9,170.4c13.4-0.3,27.1-19.1,37.3-22.4c8.3-2.7,27.2-0.9,33.8-0.1c1.3,0.2,2.4,1.3,2.3,2.7
	c0,2.1-1.6,3.9-3.7,4.1l-22.2,2.3c0,0,11.2,2.3,12.2,5.5c1,3.2-2.4,7.5-2.4,7.5s0.8,5.1-1.4,8.5c0,0-1.1,7.5-6.7,8.8
	c-5.6,1.3-12.5-1.4-12.5-1.4s-4.3,9-22.1,6.3l-14.6,2.1L354.9,170.4z"/>
<path class="st40" d="M371.2,188.4l-16.4,1.6l0,4.3l14.6-2.1c17.8,2.6,22.1-6.3,22.1-6.3C387.7,187.6,380,191.6,371.2,188.4"/>
<path class="st40" d="M399.1,165.6c5.1,0.1,13,4.4,13,4.4l1.6-2.5C413.7,167.5,405.1,162.8,399.1,165.6"/>
<path class="st40" d="M410.7,178.5c-6.1,0.9-13.6-2.1-13.6-2.1l14.5,0.1C411.6,176.4,411.4,177.9,410.7,178.5"/>
<path class="st44" d="M255.4,120.9c26,18.4,57.6,42.5,57.6,42.5l52.9,3.5c0,0,9.4,11.2,9.4,24.8c-0.1,13.6-5.2,19-5.2,19
	s-51,20.1-70.3,18.3c-12.6-1.2-46.8-17.5-69.3-28.8c-20.1-10.1-30.7-32.9-24.9-54.7c1.4-5.2,3.6-10.5,6.9-15.9
	C221.6,114.9,241.3,110.9,255.4,120.9"/>
<g id="XMLID_21_">
	<g id="XMLID_22_">
		<path id="XMLID_23_" class="st40" d="M716.7,84.6c-0.1-0.3-0.2-0.3-0.4-0.4c-0.1,0-0.2,0-0.3,0l-0.3,0.1c-0.1,0-0.3-0.1-0.5,0
			c-0.1,0-0.2,0.1-0.3,0.1c-0.3,0-0.6,0-0.9,0l-0.4-0.1c-0.1,0-0.3,0-0.4,0c-0.1,0-0.1-0.1-0.3-0.1c-0.3,0-0.5-0.2-0.7-0.2
			c-0.2-0.1-0.3-0.2-0.5-0.3c-0.1-0.1-0.1-0.1-0.2-0.2c-0.1-0.1-0.1-0.1-0.1-0.1l-0.1-0.1c-0.1-0.2-0.1-0.4-0.1-0.5
			c-0.1-0.2-0.1-0.5-0.1-0.7c0-0.3,0-0.5,0-0.8v-0.1c0-0.1,0-0.1,0-0.1l0,0c0-0.1,0-0.2,0.1-0.3l0.1-0.5v-0.2l0.1-0.3l0.1-0.4
			c0-0.1,0-0.3,0-0.4c0-0.1,0.1-0.1,0.1-0.2c0-0.1,0.1-0.1,0.1-0.2c0-0.3,0.2-0.6,0.1-0.9c0.1-0.3,0.1-0.5,0.1-0.7l0.1-0.4
			c0-0.1,0-0.2,0-0.3l0.1-0.2c0.1-0.3,0.1-0.5,0.2-0.7c0.1-0.3,0.1-0.5,0.1-0.9c0.1-0.3,0.1-0.6,0.1-0.9c0-0.1,0.1-0.1,0.1-0.2
			c0-0.1,0.1-0.2,0.1-0.3l0.1-0.6c0.1-0.3,0-0.7,0.1-1.1c0.1-0.2,0.1-0.4,0.1-0.6c0-0.1,0-0.1,0-0.2c0-0.1-0.1-0.2-0.1-0.3
			c-0.1-0.1-0.3-0.3-0.5-0.3c-0.2,0-0.4,0-0.5,0.1c-0.2,0.1-0.3,0.2-0.3,0.3c0,0.1-0.1,0.1-0.1,0.2c-0.1,0.1-0.1,0.3-0.1,0.4
			c0,0.1,0,0.3-0.1,0.4c-0.1,0.3-0.1,0.7-0.2,1.1c-0.1,0.1-0.1,0.3-0.1,0.4c0,0.1-0.1,0.3-0.1,0.5v0.1v0.1c-0.1,0.1-0.1,0.3-0.1,0.5
			c-0.1,0.2-0.1,0.4-0.1,0.6c-0.1,0.4-0.1,0.8-0.2,1.3c0,0.1,0,0.2-0.1,0.3c-0.1,0.2-0.1,0.4-0.1,0.7c0,0.1-0.1,0.2-0.1,0.3
			c0,0.1,0,0.2,0,0.3c-0.1,0.1-0.1,0.3-0.1,0.5c-0.1,0.6-0.2,1.3-0.3,1.9c0,0.1-0.1,0.2-0.1,0.3c0,0.1,0,0.2,0,0.3
			c0,0.1-0.1,0.2-0.1,0.3c-0.1,0.1-0.1,0.3-0.1,0.4l-0.1,0.4c0,0.1,0,0.1,0,0.1c0,0.1,0,0.3,0,0.4c0,0.3,0,0.5,0.1,0.7
			c0.1,0.5,0.2,1.1,0.5,1.5c0.1,0.1,0.1,0.2,0.2,0.3c0.1,0.3,0.3,0.5,0.5,0.7c0.1,0.1,0.2,0.2,0.3,0.3c0.1,0.1,0.2,0.1,0.3,0.1
			c0.2,0.1,0.3,0.2,0.5,0.3c0.7,0.3,1.5,0.3,2.1,0.3c0.1,0,0.2,0,0.3,0c0.1,0,0.2-0.1,0.3-0.1c0.1,0,0.2,0,0.3,0c0.1,0,0.3,0,0.4,0
			L716,86c0.1,0,0.2-0.1,0.3-0.1c0.1-0.1,0.2,0,0.3-0.1c0.1-0.1,0.1-0.1,0.1-0.2c0.1-0.1,0.1-0.3,0.1-0.5
			C716.9,84.8,716.8,84.8,716.7,84.6z"/>
	</g>
</g>
<g id="XMLID_12_">
	<g id="XMLID_13_">
		<path id="XMLID_14_" class="st40" d="M719.1,88.5c-0.3-0.1-0.3-0.1-0.5-0.1c-0.1,0-0.1,0.1-0.1,0.1l-0.1,0.1
			c0,0.1-0.1,0.1-0.1,0.1c0,0.1,0,0.1-0.1,0.1c-0.1,0.1-0.2,0.2-0.3,0.3l-0.1,0.1c-0.1,0.1,0,0.1-0.1,0.2c0,0.1-0.1,0-0.1,0.1
			c-0.1,0.1-0.2,0.1-0.2,0.3c-0.1,0.1-0.1,0.2-0.2,0.3l-0.1,0.1c-0.1,0-0.1,0.1-0.1,0.1l-0.1,0.1c-0.1,0.1-0.2,0.1-0.3,0.1
			c-0.1,0.1-0.2,0.1-0.3,0.2c-0.1,0.1-0.2,0.1-0.3,0.2l0,0h-0.1l0,0c-0.1,0-0.1,0-0.1,0.1l-0.2,0.1l-0.1,0.1c-0.1,0-0.1,0-0.1,0
			l-0.2,0.1c-0.1,0-0.1,0.1-0.1,0.1s-0.1,0-0.1,0h-0.1c-0.1,0.1-0.3,0-0.3,0.1c-0.1,0.1-0.2,0.1-0.3,0.1h-0.1
			c-0.1,0-0.1,0.1-0.1,0.1h-0.1c-0.1,0-0.2-0.1-0.3-0.1c-0.1,0-0.2,0-0.3,0c-0.1,0-0.3-0.1-0.4-0.1c-0.1,0-0.1,0-0.1-0.1
			c-0.1,0-0.1,0-0.1-0.1l-0.2-0.1c-0.1-0.1-0.3,0-0.5-0.1c-0.1-0.1-0.1-0.1-0.2-0.1c0,0-0.1,0-0.1,0s-0.1,0.1-0.2,0.1
			c-0.1,0.1-0.2,0.3-0.3,0.5c-0.1,0.2-0.1,0.3-0.1,0.5c0,0.1,0,0.3,0.1,0.3c0,0,0.1,0,0.1,0.1c0.1,0.1,0.1,0.1,0.2,0.1
			c0.1,0.1,0.1,0,0.2,0.1c0.2,0.1,0.4,0.1,0.6,0.1c0.1,0,0.1,0.1,0.2,0.1s0.2,0,0.3,0l0,0l0,0c0.1,0.1,0.2,0.1,0.3,0.1
			c0.1,0,0.2,0.1,0.3,0.1c0.3,0,0.5,0,0.7,0c0.1,0,0.1,0,0.1,0c0.1,0,0.3,0,0.3,0s0.1,0,0.2,0s0.1-0.1,0.1-0.1s0.2,0,0.3,0
			c0.3-0.1,0.7-0.2,1-0.3c0.1,0,0.1,0,0.1-0.1c0.1,0,0.1-0.1,0.1-0.1s0.1,0,0.2,0s0.1-0.1,0.2-0.1l0.2-0.1c0,0,0.1,0,0.1-0.1
			c0.1,0,0.1-0.1,0.2-0.1c0.1-0.1,0.2-0.1,0.3-0.2c0.2-0.1,0.4-0.3,0.5-0.5c0-0.1,0.1-0.1,0.1-0.1c0.1-0.1,0.2-0.1,0.3-0.2
			c0.1-0.1,0.1-0.1,0.1-0.1c0-0.1,0-0.1,0.1-0.1c0.1-0.1,0.1-0.1,0.2-0.1c0.2-0.3,0.4-0.5,0.6-0.8c0.1-0.1,0.1-0.1,0.1-0.1
			c0-0.1,0-0.1,0.1-0.1c0-0.1,0.1-0.1,0.1-0.1c0.1-0.1,0.1-0.1,0.1-0.1l0.1-0.2c0-0.1,0-0.1,0-0.2c0-0.1,0.1-0.1,0-0.1
			c0-0.1-0.1-0.1-0.1-0.1c-0.1-0.1-0.3-0.2-0.4-0.3C719.3,88.6,719.3,88.5,719.1,88.5z"/>
	</g>
</g>
<g id="XMLID_10_">
	<path id="XMLID_11_" class="st40" d="M722.2,76.5L722.2,76.5c-1-0.1-1.8-0.9-1.7-1.9l0.1-0.8c0.1-0.9,0.7-1.8,1.9-1.7
		c0.9,0.1,1.7,0.9,1.7,1.9l-0.1,0.8C723.9,75.8,723.1,76.5,722.2,76.5z"/>
</g>
<g id="XMLID_8_">
	<path id="XMLID_9_" class="st40" d="M703.5,75.5L703.5,75.5c-1-0.1-1.8-0.9-1.7-1.9l0.1-0.8c0.1-0.9,0.7-1.7,1.9-1.7
		c0.9,0.1,1.7,0.9,1.7,1.9l-0.1,0.8C705.1,74.8,704.3,75.5,703.5,75.5z"/>
</g>
<g id="XMLID_5_">
	<g id="XMLID_6_">
		<path id="XMLID_7_" class="st40" d="M726.8,69c0.1-0.2,0.2-0.3,0.2-0.5c0-0.1-0.1-0.1-0.1-0.1l-0.1-0.1c-0.1-0.1-0.1-0.1-0.1-0.2
			c-0.1,0-0.1-0.1-0.1-0.1c-0.1-0.1-0.2-0.2-0.3-0.3l-0.1-0.1c-0.1,0-0.1,0-0.2-0.1c-0.1,0-0.1-0.1-0.1-0.1c-0.1,0-0.2-0.2-0.4-0.1
			c-0.1-0.1-0.2-0.1-0.3-0.1l-0.1-0.1c-0.1,0-0.1,0-0.1,0l-0.1-0.1c-0.1-0.1-0.2-0.1-0.3-0.2c-0.1-0.1-0.3-0.1-0.3-0.1
			c-0.1,0-0.3-0.1-0.4-0.1l0,0h-0.1l0,0c-0.1,0-0.1,0-0.1,0l-0.3-0.1h-0.1c-0.1,0-0.1,0-0.1,0l-0.2-0.1c-0.1,0-0.1,0-0.1,0
			c-0.1,0-0.1,0-0.1,0s-0.1-0.1-0.1,0c-0.1,0.1-0.3-0.1-0.4,0c-0.1,0-0.2,0-0.3,0h-0.2c-0.1,0-0.1,0.1-0.1,0.1h-0.1
			c-0.1,0-0.2-0.1-0.3-0.1c-0.1,0-0.3,0-0.4,0.1c-0.1,0-0.3,0-0.4,0.1h-0.1c-0.1,0-0.1,0-0.1,0l-0.3,0.1c-0.1,0-0.3,0.2-0.5,0.2
			c-0.1,0-0.2,0-0.3,0.1c0,0-0.1,0-0.1,0.1c0,0.1,0,0.1,0,0.2c0,0.1,0.1,0.3,0.1,0.5s0.2,0.3,0.3,0.5c0.1,0.1,0.1,0.2,0.2,0.2h0.1
			c0.1,0,0.1,0,0.1,0s0.1-0.1,0.1-0.1c0.1,0,0.3-0.1,0.4-0.1c0.1,0,0.1,0,0.1,0c0.1,0,0.1-0.1,0.1-0.1l0,0l0,0
			c0.1,0.1,0.1,0.1,0.2,0c0.1,0,0.1,0,0.2,0c0.1-0.1,0.3,0,0.5-0.1h0.1c0.1,0,0.1,0,0.2,0s0.1,0,0.1,0s0.1-0.1,0.1-0.1
			c0.1,0,0.1,0.1,0.1,0.1c0.2,0,0.5,0,0.7,0.1c0.1,0,0.1,0,0.1,0h0.1c0.1,0,0.1,0.1,0.1,0.1c0.1,0,0.1,0.1,0.1,0.1h0.1h0.1
			c0.1,0,0.1,0,0.1,0.1c0.1,0,0.1,0.1,0.2,0.1c0.1,0.1,0.3,0.1,0.5,0.1c0,0,0.1,0,0.1,0.1c0.1,0.1,0.1,0.1,0.2,0.1
			c0.1,0,0.1,0.1,0.1,0.1s0.1,0,0.1,0c0.1,0.1,0.1,0.1,0.1,0.1c0.2,0.1,0.4,0.2,0.6,0.3l0.1,0.1h0.1l0.1,0.1c0,0.1,0.1,0.1,0.1,0.1
			l0.1,0.1c0,0,0.1,0,0.1,0c0.1,0,0.1,0.1,0.1,0.1s0.1-0.1,0.1-0.1c0.1-0.1,0.3-0.2,0.3-0.3C726.6,69.1,726.7,69,726.8,69z"/>
	</g>
</g>
<g id="XMLID_2_">
	<g id="XMLID_3_">
		<path id="XMLID_4_" class="st40" d="M700.1,67.9c0.2,0.2,0.3,0.3,0.3,0.3c0.1,0,0.1,0,0.1,0l0.1-0.1c0.1,0,0.1,0,0.2-0.1l0.1-0.1
			c0.1,0,0.3-0.1,0.3-0.1l0.1-0.1c0.1,0,0.1-0.1,0.1-0.1c0.1,0,0.1,0,0.1,0c0.1-0.1,0.2,0,0.3-0.1c0.1-0.1,0.1-0.1,0.3-0.1l0.1-0.1
			c0.1,0,0.1-0.1,0.1-0.1h0.1c0.1,0,0.2,0.1,0.3,0c0.1,0,0.1-0.1,0.3-0.1c0.1,0,0.2,0,0.3-0.1l0,0h0.1l0,0c0.1,0,0.1,0,0.1,0h0.2
			h0.1c0.1,0,0.1,0,0.1,0h0.1c0.1,0,0.1-0.1,0.1-0.1h0.1c0,0,0.1,0.1,0.1,0c0.1-0.1,0.2,0.1,0.3-0.1c0.1,0,0.2,0,0.3,0h0.1
			c0.1,0,0.1,0,0.1,0h0.1c0.1,0,0.1,0.1,0.3,0.1c0.1,0,0.1,0,0.3,0.1c0.1,0,0.2,0.1,0.3,0.1l0.1,0.1c0,0,0.1,0,0.1,0.1l0.2,0.1
			c0.1,0.1,0.3,0,0.4,0.1c0.1,0.1,0.1,0.1,0.2,0.1h0.1c0.1,0,0.1-0.1,0.1-0.1c0.1-0.1,0.2-0.3,0.3-0.5c0.1-0.2,0.1-0.3,0.2-0.5
			c0.1-0.1,0-0.3-0.1-0.3c0,0-0.1,0-0.1-0.1c-0.1-0.1-0.1-0.1-0.1-0.1c-0.1,0-0.1,0-0.1-0.1c-0.1-0.1-0.3-0.1-0.5-0.2
			c-0.1,0-0.1-0.1-0.1-0.1s-0.1,0-0.2,0l0,0l0,0c-0.1-0.1-0.1-0.1-0.2-0.1c-0.1,0-0.2-0.1-0.3-0.1c-0.2,0-0.4-0.1-0.5-0.1
			c-0.1,0-0.1,0-0.1,0s-0.2-0.1-0.3-0.1c-0.1,0-0.1,0-0.1,0s-0.1,0.1-0.1,0.1s-0.1-0.1-0.2-0.1c-0.3,0-0.5,0-0.8,0
			c-0.1,0-0.1,0-0.1,0c-0.1,0-0.1,0.1-0.1,0.1s-0.1,0-0.1,0s-0.1,0-0.1,0h-0.1h-0.1c-0.1,0-0.1,0-0.1,0c-0.1,0-0.2,0-0.3,0.1
			c-0.2,0.1-0.4,0.1-0.5,0.1c-0.1,0-0.1,0-0.1,0s-0.2,0-0.3,0.1c-0.1,0-0.1,0-0.1,0.1c-0.1,0-0.1,0.1-0.1,0.1c-0.1,0-0.1,0-0.2,0.1
			c-0.3,0.1-0.5,0.3-0.7,0.3c-0.1,0-0.1,0-0.1,0.1l-0.1,0.1c-0.1,0-0.1,0-0.1,0s-0.1,0.1-0.1,0.1l-0.1,0.1c-0.1,0-0.1,0.1-0.1,0.1
			c0,0.1-0.1,0.1-0.1,0.1c0,0.1,0,0.1,0.1,0.2c0.1,0.1,0.1,0.3,0.2,0.4C700,67.8,700.1,67.8,700.1,67.9z"/>
	</g>
</g>
<g id="XMLID_26_">
	<path id="XMLID_27_" class="st40" d="M270.4,78.1l-0.1-0.9c-0.1-1.1,0.8-2,1.8-2c1.2-0.1,2,0.8,2,1.8l0.1,0.9c0.1,1.1-0.8,2-1.8,2
		h-0.1C271.5,79.9,270.6,79.2,270.4,78.1z"/>
</g>
<g id="XMLID_18_">
	<g id="XMLID_19_">
		<path id="XMLID_20_" class="st40" d="M267.8,71.9c0.1,0.1,0.2,0.3,0.4,0.4c0,0.1,0.1,0.1,0.1,0.1s0.1-0.1,0.1-0.1s0.1,0,0.1,0
			l0.1-0.1c0,0,0.1,0,0.1-0.1l0.1-0.1h0.1l0.1-0.1c0.2-0.1,0.4-0.3,0.7-0.4c0.1-0.1,0.1-0.1,0.1-0.1c0.1,0,0.1,0,0.1,0
			s0.1-0.1,0.1-0.1c0.1-0.1,0.1-0.1,0.2-0.1c0-0.1,0.1-0.1,0.1-0.1c0.2,0,0.4-0.1,0.5-0.1c0.1,0,0.1-0.1,0.2-0.1
			c0.1-0.1,0.1-0.1,0.1-0.1h0.1h0.1c0.1,0,0.1-0.1,0.1-0.1c0,0,0-0.1,0.1-0.1h0.1c0.1,0,0.1,0,0.1,0c0.2-0.1,0.5-0.1,0.7-0.1
			c0,0,0.1-0.1,0.1-0.1c0,0,0,0.1,0.1,0.1s0.1,0,0.1,0c0.1,0,0.1,0,0.2,0h0.1c0.2,0.1,0.4,0,0.5,0.1c0.1,0,0.1,0,0.2,0
			c0.1,0.1,0.1,0.1,0.2,0l0,0l0,0c0,0,0.1,0.1,0.1,0.1c0,0,0.1,0,0.1,0c0.1,0.1,0.3,0.1,0.4,0.1c0.1,0,0.1,0.1,0.1,0.1s0.1,0,0.1,0
			h0.1c0.1,0,0.1-0.1,0.2-0.2c0.1-0.1,0.2-0.3,0.3-0.5s0.1-0.4,0.1-0.6c0-0.1,0-0.1,0-0.2c0-0.1-0.1-0.1-0.1-0.1
			c-0.1-0.1-0.1-0.1-0.3-0.1c-0.2,0-0.4-0.2-0.5-0.2l-0.3-0.1c-0.1,0-0.1,0-0.1,0h-0.1c-0.1-0.1-0.3-0.1-0.4-0.1
			c-0.1-0.1-0.3-0.1-0.4-0.1c-0.1,0-0.2,0.1-0.4,0.1h-0.1c-0.1,0-0.1-0.1-0.1-0.1h-0.2c-0.1,0-0.2,0-0.4,0c-0.1-0.1-0.3,0.1-0.4,0
			c0-0.1-0.1,0-0.1,0s0,0-0.1,0c0,0-0.1,0-0.1,0l-0.2,0.1c-0.1,0-0.1,0-0.1,0h-0.1l-0.3,0.1c-0.1,0-0.1,0-0.1,0l0,0h-0.1l0,0
			c-0.1,0-0.3,0.1-0.4,0.1c-0.1,0-0.2,0-0.4,0.1c-0.1,0.1-0.2,0.1-0.3,0.2l-0.1,0.1c-0.1,0-0.1,0-0.1,0l-0.1,0.1
			c-0.1,0.1-0.2,0.1-0.4,0.1c-0.2-0.1-0.3,0.1-0.4,0.1c-0.1,0-0.1,0.1-0.1,0.1c-0.1,0.1-0.1,0.1-0.2,0.1l-0.1,0.1
			c-0.1,0.1-0.2,0.2-0.4,0.3c-0.1,0-0.1,0.1-0.1,0.1c-0.1,0.1-0.1,0.1-0.1,0.2l-0.1,0.1c0,0.1-0.1,0.1-0.1,0.1
			c0,0.1,0.1,0.3,0.2,0.5C267.5,71.8,267.6,71.8,267.8,71.9z"/>
	</g>
</g>
<g id="XMLID_50_">
	<g id="XMLID_51_">
		<path id="XMLID_52_" class="st40" d="M249.8,74.2c0.2-0.2,0.2-0.3,0.2-0.6c0-0.1-0.1-0.2-0.1-0.2l-0.2-0.2
			c-0.1-0.1-0.1-0.2-0.2-0.2c-0.1,0-0.2-0.1-0.2-0.2c-0.2-0.2-0.3-0.3-0.6-0.5l-0.2-0.2c-0.1-0.1-0.2,0-0.3-0.1
			c-0.1,0-0.1-0.2-0.2-0.2c-0.2,0-0.4-0.2-0.6-0.2c-0.2-0.1-0.4-0.1-0.5-0.1l-0.2-0.1c-0.1,0-0.2,0-0.2,0h-0.2
			c-0.2,0-0.3-0.2-0.5-0.2c-0.2,0-0.4,0-0.6,0c-0.2,0-0.4,0-0.6,0.1h-0.1h-0.1l0,0c-0.1,0-0.2,0-0.2,0l-0.4,0.1
			c-0.1,0-0.1,0-0.2,0.1c-0.1,0-0.2,0-0.2,0.1l-0.3,0.1c-0.1,0-0.2,0.1-0.2,0.2c-0.1,0-0.1,0-0.2,0.1c-0.1,0-0.1,0-0.2,0
			c-0.2,0.2-0.4,0.2-0.6,0.4c-0.2,0.2-0.3,0.2-0.4,0.3l-0.2,0.2c-0.1,0.1-0.1,0.2-0.2,0.2l-0.1,0.1c-0.2,0.1-0.3,0.2-0.4,0.3
			c-0.2,0.2-0.2,0.3-0.4,0.5c-0.2,0.2-0.3,0.3-0.3,0.6c0,0.1-0.1,0.1-0.1,0.1c-0.1,0.1-0.1,0.1-0.1,0.2l-0.2,0.3
			c-0.2,0.2-0.1,0.6-0.2,0.7c-0.1,0.2-0.2,0.2-0.2,0.4c0,0.1,0,0.1,0,0.2c0.1,0.1,0.2,0.2,0.2,0.2c0.2,0.2,0.4,0.2,0.6,0.2
			c0.2,0,0.4,0,0.6,0c0.2,0,0.3-0.1,0.3-0.2l0.1-0.1c0-0.1,0.1-0.2,0.1-0.2c0-0.1,0-0.2,0.1-0.2c0.2-0.2,0.2-0.3,0.2-0.6
			c0.1-0.1,0.2-0.1,0.2-0.2c0-0.1,0.1-0.2,0.1-0.2l0,0l0,0c0.2,0,0.2-0.1,0.2-0.2c0.1-0.1,0.2-0.2,0.2-0.2c0.2-0.2,0.3-0.3,0.4-0.5
			l0.1-0.1c0.1-0.1,0.2-0.1,0.2-0.2c0.1,0,0.1-0.1,0.2-0.1c0-0.1,0-0.1,0.1-0.2c0.1,0,0.2,0,0.2-0.1c0.2-0.2,0.6-0.3,0.9-0.3
			c0.1,0,0.1,0,0.2-0.1l0.1-0.1c0.1,0,0.1,0,0.2,0c0.1,0,0.1,0,0.2,0h0.2h0.1c0.1,0,0.1,0,0.2,0c0.1,0,0.2,0,0.3,0
			c0.2,0,0.3,0,0.6,0c0.1,0,0.1,0,0.2,0c0.1,0.1,0.2,0.1,0.3,0.1c0.1,0,0.1,0.1,0.2,0.1c0.1,0,0.1-0.1,0.2,0
			c0.1,0.1,0.2,0.1,0.2,0.2c0.3,0.1,0.6,0.2,0.8,0.4c0,0,0.1,0.1,0.2,0.1c0.1,0,0.1,0,0.2,0c0.1,0,0.1,0.1,0.1,0.2
			c0,0.1,0.1,0.1,0.2,0.2l0.2,0.2c0.1,0.1,0.1,0,0.2,0.1c0.1,0,0.1,0.1,0.2,0.1c0.1,0,0.2-0.1,0.2-0.1c0.2-0.1,0.3-0.2,0.5-0.3
			C249.6,74.3,249.7,74.3,249.8,74.2z"/>
	</g>
</g>
<g id="XMLID_47_">
	<g id="XMLID_48_">
		<path id="XMLID_49_" class="st40" d="M248,79.4c0.3-0.1,0.4-0.2,0.6-0.2c0.1-0.1,0-0.1,0-0.2l-0.1-0.2c0-0.1,0.1-0.2,0-0.3
			c0-0.1-0.1-0.1-0.1-0.2c-0.1-0.2-0.1-0.4-0.2-0.6l-0.1-0.2c-0.1-0.1-0.2-0.2-0.2-0.2s0-0.2-0.1-0.2c-0.2-0.2-0.2-0.4-0.3-0.4
			c-0.2-0.2-0.2-0.2-0.3-0.3l-0.2-0.2c-0.1-0.1-0.1-0.1-0.2-0.1l-0.1-0.1c-0.1-0.1-0.2-0.2-0.3-0.3c-0.2-0.1-0.2-0.2-0.4-0.3
			c-0.2-0.1-0.3-0.2-0.5-0.2h-0.1l-0.1-0.1l0,0c-0.1-0.1-0.1-0.1-0.2-0.1l-0.3-0.2h-0.1c-0.1,0-0.2-0.1-0.2-0.1l-0.2-0.1
			c-0.1,0-0.2,0-0.2,0c-0.1,0-0.1,0-0.1-0.1l-0.1-0.1c-0.2,0-0.4-0.1-0.6,0c-0.2,0-0.3,0-0.5,0h-0.2c-0.1,0-0.1,0.1-0.2,0.1h-0.2
			c-0.2,0-0.3-0.1-0.5,0s-0.3,0.1-0.5,0.2c-0.2,0.1-0.4,0.1-0.5,0.2c0,0-0.1,0-0.2,0c-0.1,0-0.1,0.1-0.2,0.1l-0.3,0.2
			c-0.2,0.1-0.3,0.4-0.6,0.4c-0.2,0-0.2,0.1-0.3,0.2c0,0.1-0.1,0.1-0.1,0.2c0,0.1,0,0.2,0.1,0.2c0.1,0.2,0.2,0.4,0.4,0.6
			c0.2,0.2,0.3,0.2,0.5,0.4c0.2,0.1,0.2,0.2,0.3,0.1l0.1-0.1c0.1,0,0.1-0.1,0.2-0.1c0.1,0,0.1-0.1,0.1-0.1c0.2,0,0.2-0.2,0.4-0.2
			c0.1,0,0.2,0,0.2,0c0.1,0,0.1-0.1,0.2-0.2l0,0l0,0c0.1,0.1,0.2,0,0.2,0c0.1,0,0.2,0,0.2-0.1c0.2-0.1,0.3-0.1,0.5-0.2h0.1
			c0.1,0,0.2,0,0.2,0c0.1,0,0.1,0,0.2,0l0.1-0.1c0.1,0,0.2,0.1,0.2,0.1c0.2,0,0.5,0,0.7,0.2c0,0,0.1,0,0.1,0.1h0.1l0.1,0.1
			c0,0.1,0.1,0.1,0.1,0.1l0.2,0.1h0.1l0.1,0.1c0.1,0.1,0.2,0.1,0.2,0.2c0.2,0.1,0.2,0.2,0.4,0.3l0.1,0.1c0.1,0.1,0.1,0.2,0.2,0.2
			c0,0,0,0.1,0.1,0.1c0.1,0,0.1,0,0.1,0.1s0.1,0.2,0.1,0.2c0.2,0.2,0.3,0.4,0.3,0.6c0,0.1,0,0.1,0.1,0.1l0.1,0.1c0,0,0,0.1,0,0.2
			c0,0.1,0,0.1,0,0.2v0.2c0,0.1,0.1,0.1,0.1,0.1s0,0.1,0.1,0.1c0.1,0,0.2,0,0.2,0c0.2,0,0.4,0,0.6,0C247.7,79.4,247.8,79.4,248,79.4
			z"/>
	</g>
</g>
<g id="XMLID_33_">
	<g id="XMLID_34_">
		<path id="XMLID_35_" class="st40" d="M267.1,101.8c-0.1-0.1-0.1-0.1-0.2-0.2c0,0,0,0,0,0l-0.1,0c0,0-0.1,0-0.1,0c0,0,0,0-0.1,0
			c0,0-0.1,0-0.2,0.1l-0.1,0c0,0,0,0.1-0.1,0.1c0,0-0.1,0-0.1,0c-0.1,0-0.1,0-0.2,0.1c0,0-0.1,0-0.2,0.1l-0.1,0c0,0,0,0-0.1,0l0,0
			c0,0-0.1,0-0.2,0c0,0-0.1,0-0.2,0c-0.1,0-0.1,0-0.2,0l0,0l0,0l0,0c0,0,0,0-0.1,0l-0.1,0l0,0c0,0,0,0-0.1,0l-0.1,0c0,0,0,0-0.1,0
			c0,0,0,0,0,0l0,0c-0.1,0-0.1-0.1-0.2,0c-0.1,0-0.1,0-0.2-0.1l-0.1,0c0,0,0,0-0.1,0l0,0c-0.1,0-0.1-0.1-0.1-0.1
			c-0.1,0-0.1-0.1-0.1-0.1c-0.1,0-0.1-0.1-0.2-0.1c0,0,0,0,0,0c0,0,0,0,0-0.1l-0.1-0.1c0-0.1-0.1-0.1-0.2-0.2c0,0,0-0.1,0-0.1
			c0,0,0,0-0.1,0c0,0-0.1,0-0.1,0c-0.1,0-0.2,0.1-0.3,0.1c-0.1,0.1-0.1,0.1-0.2,0.2c0,0.1-0.1,0.1,0,0.1c0,0,0,0,0,0.1
			c0,0,0,0.1,0,0.1c0,0,0.1,0,0.1,0.1c0,0.1,0.1,0.2,0.2,0.2c0,0,0,0.1,0.1,0.1s0.1,0.1,0.1,0.1l0,0l0,0c0,0.1,0.1,0.1,0.1,0.1
			c0.1,0,0.1,0.1,0.1,0.1c0.1,0.1,0.2,0.1,0.3,0.2c0,0,0,0,0.1,0c0.1,0,0.1,0.1,0.1,0.1c0,0,0.1,0,0.1,0.1c0,0,0,0,0.1,0
			c0,0,0.1,0.1,0.1,0.1c0.2,0.1,0.3,0.1,0.5,0.2c0,0,0.1,0,0.1,0c0,0,0,0,0.1,0c0,0,0.1,0,0.1,0.1c0,0,0.1,0,0.1,0l0.1,0
			c0,0,0,0,0,0c0,0,0.1,0,0.1,0c0.1,0,0.1,0,0.2,0c0.1,0,0.2,0,0.4-0.1c0,0,0,0,0.1,0c0.1,0,0.1,0,0.2,0c0,0,0.1,0,0.1,0
			c0,0,0-0.1,0.1,0c0,0,0.1,0,0.1,0c0.2-0.1,0.3-0.1,0.5-0.2c0,0,0,0,0.1,0c0,0,0,0,0.1,0c0,0,0,0,0.1,0c0,0,0.1,0,0.1,0l0.1-0.1
			c0,0,0-0.1,0.1-0.1c0,0,0,0,0-0.1c0,0,0-0.1,0-0.1c0-0.1-0.1-0.2-0.1-0.2C267.1,101.8,267.1,101.8,267.1,101.8z"/>
	</g>
</g>
</svg>
