<?xml version="1.0" encoding="utf-8"?>
<!-- Generator: Adobe Illustrator 22.1.0, SVG Export Plug-In . SVG Version: 6.00 Build 0)  -->
<svg version="1.1" id="Capa_1" xmlns="http://www.w3.org/2000/svg" xmlns:xlink="http://www.w3.org/1999/xlink" x="0px" y="0px"
	 viewBox="0 0 226.8 226.8" style="enable-background:new 0 0 226.8 226.8;" xml:space="preserve">
<style type="text/css">
	.st0{fill:#F2CDAC;}
	.st1{fill:#3089E0;}
	.st2{fill:#FFFFFF;}
	.st3{fill:none;stroke:#FFFFFF;stroke-width:0.3613;stroke-linecap:round;stroke-linejoin:round;stroke-miterlimit:10;}
	.st4{fill:none;stroke:#FFFFFF;stroke-width:0.3625;stroke-linecap:round;stroke-linejoin:round;stroke-miterlimit:10;}
	.st5{fill:#4CC9F0;}
	.st6{fill:#1A1B1D;}
	.st7{fill:#E6E6E6;}
	.st8{fill:#072AC8;}
</style>
<g>
	<polygon class="st0" points="116.4,198 118,211.8 132.2,210.8 132.2,196.6 	"/>
	<g id="XMLID_110_">
		<g id="XMLID_111_">
			<g id="XMLID_112_">
				<polygon id="XMLID_113_" class="st1" points="132.2,210.8 132.5,220.5 108.2,221.2 117.8,212 				"/>
			</g>
		</g>
	</g>
	<g id="XMLID_105_">
		<g id="XMLID_106_">
			<g id="XMLID_107_">
				<g id="XMLID_108_">
					<path id="XMLID_109_" class="st2" d="M110,219.4c0-0.1,0.1-0.1,0.4-0.1c0.1,0,0.1,0,0.3,0c0.1,0,0.3,0,0.4,0c0.1,0,0.3,0,0.6,0
						c0.1,0,0.3,0,0.3,0c0.4,0,0.7,0,1.1,0c0.1,0,0.3,0,0.4,0c0.1,0,0.3,0,0.4,0c0.1,0,0.3,0,0.3,0c0.3,0,0.7,0,1,0s0.6,0,0.8,0
						c0.1,0,0.3,0,0.4,0c0.1,0,0.3,0,0.3,0s0.1,0,0.3,0c0.3,0,0.6,0,0.8,0c0.3,0,0.7,0,1,0s0.7,0,1,0c0,0,0,0,0.1,0c0,0,0,0,0.1,0
						l0,0c0.1,0,0.3,0,0.3,0c0.3,0,0.4,0,0.7,0c0,0,0.1,0,0.3,0c0.1,0,0.3,0,0.3,0c0.1,0,0.3,0,0.4,0c0.1,0,0.3,0,0.4,0
						c0,0,0.1,0,0.3,0h0.1c0.3,0,0.7,0,1,0s0.6,0,0.8,0c0.1,0,0.3,0,0.4,0c0.1,0,0.3,0,0.3,0s0.1,0,0.3,0c0.3,0,0.6,0,0.8,0
						s0.7,0,1,0s0.7,0,1,0c0.1,0,0.1,0,0.3,0c0.1,0,0.3,0,0.3,0c0.3,0,0.4,0,0.7,0c0.4,0,0.8,0,1.3,0c0.3,0,0.4,0,0.7,0
						c0.1,0,0.1,0,0.3,0s0.1,0,0.3,0c0.1,0,0.3,0.1,0.1,0.1c0,0-0.1,0.1-0.3,0.1s-0.3,0-0.4,0.1c-0.1,0-0.1,0-0.3,0
						c-0.1,0-0.3,0-0.4,0s-0.3,0-0.4,0c-0.4,0-0.8,0-1.3,0c-0.1,0-0.3,0-0.4,0c-0.1,0-0.3,0-0.6,0l0,0l0,0c-0.1,0-0.4,0-0.6,0
						c-0.3,0-0.4,0-0.7,0c-0.4,0-1,0-1.4,0c-0.1,0-0.1,0-0.3,0c-0.3,0-0.4,0-0.7,0c-0.1,0-0.3,0-0.3,0s-0.1,0-0.3,0
						c-0.1,0-0.3,0-0.6,0c-0.7,0-1.4,0-2.1,0c-0.1,0-0.3,0-0.3,0c-0.1,0-0.1,0-0.3,0s-0.3,0-0.3,0c-0.1,0-0.3,0-0.4,0s-0.3,0-0.4,0
						h-0.1c-0.1,0-0.3,0-0.4,0c-0.3,0-0.4,0-0.7,0c-0.4,0-1,0-1.4,0c-0.1,0-0.1,0-0.3,0c-0.3,0-0.4,0-0.7,0c-0.1,0-0.3,0-0.3,0
						s-0.1,0-0.3,0s-0.3,0-0.6,0c-0.7,0-1.4,0-2.1,0c-0.1,0-0.3,0-0.3,0c-0.1,0-0.1,0-0.3,0c-0.1,0-0.3,0-0.3,0c-0.1,0-0.3,0-0.4,0
						c-0.1,0-0.3,0-0.4,0s-0.3,0-0.3,0c-0.1,0-0.3,0-0.3,0h-0.1C110.2,219.6,110.2,219.6,110,219.4C110,219.6,110,219.4,110,219.4z"
						/>
				</g>
			</g>
		</g>
	</g>
	<g id="XMLID_100_">
		<g id="XMLID_101_">
			<g id="XMLID_102_">
				<g id="XMLID_103_">
					<path id="XMLID_104_" class="st2" d="M118.2,214.9v0.1l0,0l0,0l0,0l0,0H118l0,0l0,0l0,0h-0.1c0,0,0,0-0.1,0l0,0l0,0l0,0
						c0,0,0,0-0.1,0h-0.1h-0.1l0,0l0,0l0,0l0,0c0,0,0,0-0.1,0l0,0l0,0l0,0l0,0l0,0l0,0h-0.1c0,0,0,0-0.1,0l0,0l0,0l0,0
						c0,0,0,0-0.1,0h-0.1h-0.1l0,0l0,0c0,0,0,0-0.1,0h-0.1c0,0,0,0-0.1,0l0,0l0,0v-0.1v-0.1l0,0l0,0l0,0l0,0h0.1l0,0l0,0l0,0l0,0
						l0,0c0,0,0,0,0.1,0h0.1l0,0c0,0,0,0,0.1,0l0,0l0,0l0,0c0.1,0,0.1,0,0.3,0l0,0l0,0l0,0l0,0l0,0l0,0l0,0c0,0,0,0,0.1,0h0.1l0,0
						c0,0,0,0,0.1,0l0,0l0,0l0,0c0.1,0,0.1,0,0.3,0l0,0l0,0l0,0l0,0l0,0l0,0l0,0l0,0C118.2,214.6,118.2,214.6,118.2,214.9
						C118.2,214.8,118.2,214.8,118.2,214.9z"/>
				</g>
			</g>
		</g>
	</g>
	<g id="XMLID_99_">
		<polygon class="st0" points="61.2,196.8 58.3,211 72.8,210.7 73.5,196.8 		"/>
	</g>
	<polygon class="st1" points="83.2,80.1 70.2,85.7 43.8,203.5 148.6,203.5 127.6,86.4 111.7,80.1 	"/>
	<g>
		<path class="st3" d="M76.7,202.8"/>
		<path class="st3" d="M91.6,85.7"/>
	</g>
	<line class="st4" x1="83.7" y1="85.8" x2="112.6" y2="85.8"/>
	<g id="XMLID_95_">
		<g id="XMLID_96_">
			<g id="XMLID_97_">
				<polygon id="XMLID_98_" class="st1" points="72.8,210.7 72.5,220.4 48.3,219.8 58.3,211 				"/>
			</g>
		</g>
	</g>
	<g id="XMLID_90_">
		<g id="XMLID_91_">
			<g id="XMLID_92_">
				<g id="XMLID_93_">
					<path id="XMLID_94_" class="st2" d="M50.1,218c0,0,0.1-0.1,0.4-0.1c0.1,0,0.1,0,0.3,0c0.1,0,0.3,0,0.4,0c0.1,0,0.3,0,0.6,0
						c0.1,0,0.3,0,0.3,0c0.4,0,0.7,0,1.1,0c0.1,0,0.3,0,0.4,0c0.1,0,0.3,0,0.4,0c0.1,0,0.3,0,0.3,0c0.3,0,0.7,0,1,0
						c0.3,0,0.6,0,0.8,0c0.1,0,0.3,0,0.4,0c0.1,0,0.3,0,0.3,0s0.1,0,0.3,0c0.3,0,0.6,0,0.8,0c0.3,0,0.7,0,1,0c0.3,0,0.7,0,1,0
						c0,0,0,0,0.1,0h0.1l0,0c0.1,0,0.3,0,0.3,0c0.3,0,0.4,0,0.7,0c0,0,0.1,0,0.3,0c0.1,0,0.3,0,0.3,0c0.1,0,0.3,0,0.4,0
						c0.1,0,0.3,0,0.4,0c0,0,0.1,0,0.3,0h0.1c0.3,0,0.7,0,1,0c0.3,0,0.6,0,0.8,0c0.1,0,0.3,0,0.4,0c0.1,0,0.3,0,0.3,0s0.1,0,0.3,0
						c0.3,0,0.6,0,0.8,0s0.7,0,1,0s0.7,0,1,0c0.1,0,0.1,0,0.3,0c0.1,0,0.3,0,0.3,0c0.3,0,0.4,0,0.7,0c0.4,0,0.8,0,1.3,0
						c0.3,0,0.4,0,0.7,0c0.1,0,0.1,0,0.3,0c0.1,0,0.1,0,0.3,0c0.1,0,0.3,0.1,0.1,0.1c0,0-0.1,0.1-0.3,0.1c-0.1,0-0.3,0-0.4,0
						s-0.1,0-0.3,0c-0.1,0-0.3,0-0.4,0c-0.1,0-0.3,0-0.4,0c-0.4,0-0.8,0-1.3,0c-0.1,0-0.3,0-0.4,0s-0.3,0-0.6,0l0,0l0,0
						c-0.1,0-0.4,0-0.6,0c-0.3,0-0.4,0-0.7,0c-0.4,0-1,0-1.4,0c-0.1,0-0.1,0-0.3,0c-0.3,0-0.4,0-0.7,0c-0.1,0-0.3,0-0.3,0
						s-0.1,0-0.3,0c-0.1,0-0.3,0-0.6,0c-0.7,0-1.4,0-2.1,0c-0.1,0-0.3,0-0.3,0c-0.1,0-0.1,0-0.3,0s-0.3,0-0.3,0c-0.1,0-0.3,0-0.4,0
						c-0.1,0-0.3,0-0.4,0h-0.1c-0.1,0-0.3,0-0.4,0c-0.3,0-0.4,0-0.7,0c-0.4,0-1,0-1.4,0c-0.1,0-0.1,0-0.3,0c-0.3,0-0.4,0-0.7,0
						c-0.1,0-0.3,0-0.3,0s-0.1,0-0.3,0s-0.3,0-0.6,0c-0.7,0-1.4,0-2.1,0c-0.1,0-0.3,0-0.3,0c-0.1,0-0.1,0-0.3,0c-0.1,0-0.3,0-0.3,0
						c-0.1,0-0.3,0-0.4,0c-0.1,0-0.3,0-0.4,0c-0.1,0-0.3,0-0.3,0c-0.1,0-0.3,0-0.3,0h-0.1C50.1,218.3,50.1,218.2,50.1,218
						C50.1,218.2,50.1,218.2,50.1,218z"/>
				</g>
			</g>
		</g>
	</g>
	<g id="XMLID_85_">
		<g id="XMLID_86_">
			<g id="XMLID_87_">
				<g id="XMLID_88_">
					<path id="XMLID_89_" class="st2" d="M58.4,213.9C58.4,213.9,58.4,214.1,58.4,213.9c0,0.1-0.1,0.1-0.1,0.1l0,0l0,0l0,0h-0.1l0,0
						l0,0l0,0H58c0,0,0,0-0.1,0l0,0l0,0l0,0c0,0,0,0-0.1,0h-0.1h-0.1l0,0l0,0l0,0l0,0c0,0,0,0-0.1,0l0,0l0,0l0,0l0,0l0,0l0,0h-0.1
						c0,0,0,0-0.1,0l0,0l0,0l0,0c0,0,0,0-0.1,0h-0.1h-0.1l0,0l0,0c0,0,0,0-0.1,0h-0.1c0,0,0,0-0.1,0l0,0l0,0v-0.1v-0.1l0,0l0,0l0,0
						l0,0h0.1l0,0l0,0l0,0l0,0l0,0c0,0,0,0,0.1,0h0.1l0,0c0,0,0,0,0.1,0l0,0l0,0l0,0c0.1,0,0.1,0,0.3,0l0,0l0,0l0,0l0,0l0,0l0,0l0,0
						c0,0,0,0,0.1,0h0.1l0,0c0,0,0,0,0.1,0l0,0l0,0l0,0c0.1,0,0.1,0,0.3,0l0,0l0,0l0,0l0,0l0,0l0,0l0,0l0,0
						C58.6,213.8,58.6,213.8,58.4,213.9L58.4,213.9z"/>
				</g>
			</g>
		</g>
	</g>
	<g id="XMLID_83_">
		<path id="XMLID_84_" class="st2" d="M90.6,16.8c1.8-4.2,7-6.3,11.2-4.8s7,6.6,6.3,11.2c-0.3,2.1-1.4,4.2-3.2,5.6
			c-3.2,2.2-8,1.1-10.7-1.7C91.6,24.3,90.6,20.7,90.6,16.8"/>
	</g>
	<g id="XMLID_81_">
		<path id="XMLID_82_" class="st2" d="M102.4,14c-1.1-2.7,0-6,2.5-7.7c0.7-0.4,1.5-0.8,2.5-0.7c1.4,0.1,2.5,1.1,3.1,2.2
			c0.6,1.3,0.7,2.7,0.3,3.9c-0.4,1.4-1.5,2.5-2.8,3.4c-1.3,0.7-2.7,1.1-4.2,1.4"/>
	</g>
	<g id="XMLID_79_">
		<path id="XMLID_80_" class="st0" d="M116.4,36.1l35.4,24.3l0.4,0.3c1.1,0.8,1.8,2,2.1,3.2l10.5,40.5c0.7,2.8-1,5.5-3.7,6.3
			c-2.5,0.7-5.2-0.7-6.2-3.2L141,68l2.5,3.5l-37-22.2c-3.7-2.5-4.6-7.6-2.1-11.4c2.5-3.7,7.6-4.6,11.4-2.1
			C116.1,35.9,116.2,36.1,116.4,36.1z"/>
	</g>
	<g id="XMLID_77_">
		<path id="XMLID_78_" class="st0" d="M89.6,50.6L75.6,75.7l-0.3,0.6c-0.1,0.4-0.4,0.7-0.7,1.1l-28.3,31.9c-1.8,2.1-5.1,2.2-7.2,0.4
			c-2-1.8-2.2-4.8-0.7-6.9l25.6-34l-1,1.5l11.7-25.9c1.7-4.2,6.3-6.6,10.5-4.9c4.2,1.7,6.2,6.3,4.6,10.5
			C89.8,50.1,89.6,50.4,89.6,50.6z"/>
	</g>
	<g id="XMLID_75_">
		<path id="XMLID_76_" class="st5" d="M66.3,86.5c0,0,5.6-22.4,7.2-37.8c1.3-12.1,14.1-18.3,28.3-17.4c14.1,0.8,20.7,8.2,21.4,19.3
			c0.7,11.2,6.6,36.1,6.6,36.1s-12.1,5.9-31.5,5.5C78.8,91.8,66.3,86.5,66.3,86.5z"/>
	</g>
	<g id="XMLID_73_">
		<path id="XMLID_74_" class="st0" d="M91.6,32c0,0,1.3,19.5,6.3,20.2c5.2,0.8,6.6-20.7,6.6-20.7S98.8,30.5,91.6,32z"/>
	</g>
	<g id="XMLID_70_">
		<g id="XMLID_71_">
			<path id="XMLID_72_" class="st0" d="M97.9,37.3c-2.4,0-4.2-2-4.2-4.2v-7.6c0-2.4,1.8-4.2,4.2-4.2s4.2,2,4.2,4.2v7.6
				C102.2,35.4,100.2,37.3,97.9,37.3z"/>
		</g>
	</g>
	<g id="XMLID_67_">
		<g id="XMLID_68_">
			<path id="XMLID_69_" class="st6" d="M93.6,33v-7.6c0-2.4,1.8-4.2,4.2-4.2s4.2,2,4.2,4.2l0,0l-2.8,4.8L93.6,33z"/>
		</g>
	</g>
	<g id="XMLID_64_">
		<g id="XMLID_65_">
			<path id="XMLID_66_" class="st0" d="M95.4,31.4c-2.2-0.1-4.9-1.4-6.3-3.4c-1.3-1.7-1-3.9-0.6-5.9c0.4-2,1-4.2,2.2-5.8
				c1.3-1.5,3.4-2.5,5.5-2.4c3.7,0.1,6.5,3.4,6.3,7l-0.3,4.2C102.2,28.8,99.1,31.6,95.4,31.4z"/>
		</g>
	</g>
	<g id="XMLID_61_">
		<g id="XMLID_62_">
			<path id="XMLID_63_" class="st0" d="M101.2,24.5c0.4,0.1,0.7,0.1,1.1,0.1c0.1,0,0.3,0,0.4,0.1c0,0,0.8,0.6,0.4-0.1
				c0,0-0.7,0-0.8,0c-0.3,0-0.4,0-0.7,0c-0.1,0-0.1,0-0.3,0c-0.3-0.1-0.3-0.1-0.1,0.1c-0.1-0.6-0.8-0.8-1.3-0.7
				c-0.6,0.1-0.8,0.7-0.7,1.3c0.1,1.3,1.7,1.4,2.7,1.5c1,0,2.1,0,2.8-0.7c0.8-0.8,0.6-2-0.1-2.7c-0.3-0.3-0.8-0.6-1.3-0.7
				c-0.4-0.1-1-0.1-1.4-0.3C100.5,22,99.9,24.1,101.2,24.5L101.2,24.5z"/>
		</g>
	</g>
	<g id="XMLID_38_">
		<g id="XMLID_58_">
			<g id="XMLID_59_">
				<path id="XMLID_60_" class="st6" d="M93.4,25C93.3,24.8,93.3,24.8,93.4,25C93.3,24.8,93.3,24.8,93.4,25h-0.1c0,0,0,0-0.1,0l0,0
					H93h-0.1c0,0,0,0-0.1,0l0,0h-0.1c0,0,0,0-0.1,0l0,0l0,0l0,0v-0.1v-0.1v-0.1l0,0l0,0l0,0l0,0v-0.1l0,0l0,0v-0.1c0,0,0,0,0-0.1
					l0,0l0,0V24v-0.1v-0.1l0,0l0,0v-0.1v-0.1v-0.1l0,0l0,0v-0.1c0,0,0-0.1,0-0.3v-0.1l0,0l0,0c0,0,0,0-0.1,0h-0.1l0,0l0,0
					c0,0,0,0,0,0.1c0,0.1,0,0,0,0.1c0,0,0,0.1,0,0.3c0,0,0,0,0,0.1c0,0,0,0,0,0.1l0,0l0,0c0,0,0,0,0,0.1v0.1c0,0.1,0,0.1,0,0.3l0,0
					v0.1l0,0l0,0c0,0,0,0,0,0.1c0,0.1,0,0.3,0,0.4l0,0l0,0l0,0c0,0,0,0,0,0.1v0.1l0,0c0,0,0,0,0,0.1v0.1c0,0.1,0,0.3,0.1,0.3l0,0
					c0,0,0,0.1,0.1,0.1l0,0l0,0c0,0,0,0,0.1,0c0.1,0,0.3,0,0.4,0l0,0l0,0l0,0c0,0,0,0,0.1,0h0.1l0,0l0,0l0,0
					C93.4,25.1,93.4,25.1,93.4,25L93.4,25z"/>
			</g>
		</g>
		<g id="XMLID_55_">
			<g id="XMLID_56_">
				<path id="XMLID_57_" class="st6" d="M103.7,24.5L103.7,24.5C103.7,24.4,103.7,24.4,103.7,24.5v-0.1l0,0l0,0c0,0,0,0-0.1-0.1l0,0
					l0,0l0,0c0,0,0,0-0.1,0c0,0,0,0-0.1,0l0,0l0,0l0,0c0,0,0,0-0.1,0c0,0,0,0-0.1,0c-0.1,0,0,0-0.1,0l0,0l0,0l0,0l0,0l0,0l0,0l0,0
					l0,0l0,0l0,0l0,0c0,0,0,0-0.1,0l0,0l0,0l0,0l0,0l0,0c0,0,0,0,0,0.1c0,0,0,0,0,0.1l0,0l0,0l0,0v0.1l0,0l0,0l0,0c0,0,0,0,0.1,0
					s0,0,0.1,0l0,0l0,0l0,0l0,0c0,0,0,0,0-0.1l0,0l0,0l0,0l0,0l0,0l0,0c0,0,0,0,0-0.1l0,0l0,0l0,0l0,0l0,0h0.1l0,0l0,0l0,0l0,0l0,0
					l0,0l0,0l0,0c0,0,0,0,0.1,0l0,0l0,0l0,0l0,0l0,0h0.1l0,0l0,0l0,0l0,0l0,0l0,0l0,0C103.4,24.4,103.6,24.7,103.7,24.5
					C103.7,24.7,103.7,24.7,103.7,24.5L103.7,24.5z"/>
			</g>
		</g>
		<g id="XMLID_52_">
			<g id="XMLID_53_">
				<path id="XMLID_54_" class="st6" d="M103.4,25.4L103.4,25.4C103.6,25.4,103.4,25.4,103.4,25.4L103.4,25.4
					c0.1-0.1,0.1-0.1,0.1-0.1l0,0c0,0,0,0,0-0.1l0,0l0,0l0,0l0,0l0,0l0,0l0,0l0,0l0,0l0,0c0,0,0,0-0.1,0l0,0l0,0l0,0l0,0l0,0l0,0
					l0,0l0,0l0,0l0,0l0,0c0,0,0,0-0.1,0c0,0,0,0-0.1,0l0,0l0,0l0,0c0,0,0,0-0.1,0c-0.1,0,0,0-0.1,0c0,0,0,0-0.1,0l0,0l0,0l0,0
					c0,0,0,0-0.1,0l0,0l0,0l0,0c0,0,0,0,0,0.1c0,0,0,0,0.1,0l0,0l0,0l0,0l0,0l0,0l0,0l0,0l0,0l0,0l0,0l0,0c0,0,0,0,0.1,0l0,0l0,0
					l0,0l0,0l0,0h0.1l0,0l0,0l0,0l0,0l0,0l0,0l0,0l0,0l0,0l0,0l0,0l0,0l0,0l0,0c0,0,0,0,0,0.1l0,0l0,0l0,0l0,0l0,0l0,0l0,0l0,0
					C103.1,25.5,103.3,25.5,103.4,25.4C103.3,25.5,103.4,25.4,103.4,25.4z"/>
			</g>
		</g>
		<g id="XMLID_49_">
			<g id="XMLID_50_">
				<path id="XMLID_51_" class="st6" d="M93.9,25.7L93.9,25.7C93.7,25.7,93.7,25.7,93.9,25.7L93.9,25.7c-0.1,0-0.1,0-0.1,0l0,0l0,0
					l0,0l0,0l0,0l0,0l0,0l0,0l0,0l0,0l0,0l0,0l0,0l0,0l0,0l0,0l0,0l0,0l0,0l0,0l0,0l0,0l0,0l0,0l0,0l0,0l0,0l0,0l0,0l0,0l0,0
					c0,0,0,0-0.1,0l0,0l0,0l0,0c0,0,0,0-0.1,0l0,0l0,0l0,0c0,0,0,0,0,0.1c0,0,0,0,0,0.1l0,0l0,0l0,0l0,0h0.1l0,0l0,0l0,0l0,0l0,0
					l0,0h0.1l0,0l0,0l0,0l0,0l0,0c0,0,0.1,0,0.3,0l0,0l0,0l0,0l0,0l0,0l0,0l0,0l0,0c0,0,0.1,0,0.1-0.1l0,0l0,0l0,0l0,0l0,0l0.1-0.1
					l0,0l0,0l0,0l0,0l0,0l0,0l0,0l0,0C94,25.8,94,25.8,93.9,25.7C94,25.8,93.9,25.7,93.9,25.7z"/>
			</g>
		</g>
		<g id="XMLID_47_">
			<path id="XMLID_48_" class="st6" d="M94.6,23.1L94.6,23.1c-0.3,0-0.4-0.1-0.4-0.4v-0.1c0-0.1,0.1-0.4,0.4-0.3
				c0.1,0,0.4,0.1,0.3,0.4v0.1C94.8,23,94.7,23.1,94.6,23.1z"/>
		</g>
		<g id="XMLID_45_">
			<path id="XMLID_46_" class="st6" d="M90.6,23L90.6,23c-0.3,0-0.4-0.1-0.4-0.4v-0.1c0-0.1,0.1-0.4,0.4-0.3c0.1,0,0.4,0.1,0.3,0.4
				v0.1C90.9,22.9,90.8,23,90.6,23z"/>
		</g>
		<g id="XMLID_42_">
			<g id="XMLID_43_">
				<path id="XMLID_44_" class="st6" d="M95.5,21.6L95.5,21.6C95.5,21.5,95.5,21.5,95.5,21.6v-0.1l0,0l0,0l0,0l0,0l0,0l0,0
					c0,0,0,0-0.1,0l0,0l0,0l0,0l0,0l0,0l0,0c0,0,0,0-0.1,0l0,0l0,0l0,0l0,0l0,0l0,0l0,0l0,0l0,0l0,0l0,0c0,0,0,0-0.1,0l0,0l0,0l0,0
					l0,0l0,0c0,0,0,0-0.1,0c0,0,0,0-0.1,0l0,0l0,0l0,0c0,0,0,0-0.1,0l0,0l0,0l0,0c0,0,0,0,0,0.1c0,0.1,0,0,0,0.1l0,0l0,0l0,0l0,0
					c0,0,0,0,0.1,0l0,0l0,0l0,0l0,0l0,0l0,0c0,0,0,0,0.1,0l0,0l0,0l0,0l0,0l0,0h0.1l0,0l0,0l0,0l0,0l0,0l0,0l0,0l0,0c0,0,0,0,0.1,0
					l0,0l0,0l0,0l0,0l0,0h0.1l0,0l0,0l0,0l0,0l0,0l0,0l0,0C95.4,21.7,95.4,21.7,95.5,21.6C95.4,21.7,95.4,21.7,95.5,21.6L95.5,21.6z
					"/>
			</g>
		</g>
		<g id="XMLID_39_">
			<g id="XMLID_40_">
				<path id="XMLID_41_" class="st6" d="M89.9,21.3C89.9,21.5,89.9,21.5,89.9,21.3C89.9,21.5,89.9,21.5,89.9,21.3L89.9,21.3
					c0.1,0,0.1,0,0.1,0l0,0l0,0l0,0l0,0l0,0l0,0l0,0l0,0l0,0l0,0l0,0l0,0l0,0l0,0l0,0l0,0l0,0l0,0l0,0l0,0l0,0l0,0l0,0l0,0l0,0l0,0
					l0,0l0,0l0,0l0,0l0,0l0,0l0,0l0,0l0,0c0,0,0,0,0.1,0l0,0l0,0l0,0c0,0,0,0,0-0.1c0,0,0,0,0-0.1l0,0l0,0l0,0l0,0c0,0,0,0-0.1,0
					l0,0l0,0l0,0l0,0l0,0l0,0h-0.1l0,0l0,0l0,0l0,0l0,0h-0.1l0,0l0,0l0,0l0,0l0,0l0,0l0,0l0,0h-0.1l0,0l0,0l0,0l0,0l0,0h-0.1l0,0
					l0,0l0,0l0,0l0,0l0,0l0,0l0,0C89.9,21.2,89.9,21.3,89.9,21.3C89.8,21.3,89.9,21.3,89.9,21.3z"/>
			</g>
		</g>
	</g>
	<g>
		<g>
			<g>
				<g>
					<path class="st7" d="M91.9,22.3c0.7-0.4,1.4,0,1.4,0l0.1-0.3c0,0-0.8-0.4-1.8,0L91.9,22.3z"/>
				</g>
			</g>
		</g>
		<g>
			<g>
				<g>
					<path class="st7" d="M97.7,21.9h4.6c0.1,0,0.1-0.1,0.1-0.1l-0.1-0.1h-4.6c-0.1,0-0.1,0.1-0.1,0.1S97.5,21.9,97.7,21.9z"/>
				</g>
			</g>
		</g>
		<g>
			<g>
				<g>
					<path class="st7" d="M93.3,22c0-1.3,1-2.2,2.2-2.2c1.3,0,2.2,1,2.2,2.2c0,1.3-1,2.2-2.2,2.2C94.3,24.3,93.3,23.3,93.3,22z
						 M93.6,22c0,1.1,0.8,2,2,2s2-0.8,2-2s-0.8-2-2-2S93.6,21,93.6,22z"/>
				</g>
			</g>
		</g>
		<g>
			<g>
				<g>
					<path class="st7" d="M87.4,22c0-1.3,1-2.2,2.2-2.2c1.3,0,2.2,1,2.2,2.2c0,1.3-1,2.2-2.2,2.2C88.4,24.3,87.4,23.3,87.4,22z
						 M87.8,22c0,1.1,0.8,2,2,2s2-0.8,2-2s-0.8-2-2-2S87.8,21,87.8,22z"/>
				</g>
			</g>
		</g>
	</g>
	<g id="XMLID_36_">
		<path id="XMLID_37_" class="st2" d="M90.8,16.5c2.7,3.5,7.3,5.8,11.8,6.2c0,0,3.4-8-3.4-9.1C92.5,12.6,90.8,16.5,90.8,16.5z"/>
	</g>
	<g>
		<g>
			<path class="st2" d="M55.3,201.3c0.1,0,0.3-0.1,0.3-0.1L78.3,92.5c0-0.1,0-0.3-0.1-0.3c-0.1,0-0.3,0-0.3,0.1L55.2,201
				C55.1,201.1,55.2,201.3,55.3,201.3L55.3,201.3z"/>
		</g>
		<g id="XMLID_33_">
			<g id="XMLID_34_">
				<path id="XMLID_35_" class="st2" d="M106.5,31.9c-0.1,0.1-0.1,0.3-0.3,0.8c0,0.1,0,0.4-0.1,0.7l-0.1,1c0,0.4-0.1,0.8-0.1,1.3
					v0.8l-0.3,2.5c0,0.4-0.1,0.7-0.1,1.1s-0.1,0.7-0.1,1.1c0,0.3-0.1,0.6-0.1,0.8c-0.1,0.8-0.3,1.5-0.4,2.4c-0.1,0.7-0.3,1.3-0.4,2
					l-0.3,1c0,0.3-0.1,0.6-0.1,0.8l-0.1,0.6c-0.1,0.6-0.3,1.3-0.6,1.8c-0.3,0.7-0.6,1.4-0.8,2c-0.4,0.7-0.8,1.3-1.4,1.7l-0.1,0.1
					l-0.3,0.1l0,0c-0.1,0.1-0.4,0.3-0.6,0.3c-0.4,0.1-0.8,0.3-1.4,0.4c-0.1,0-0.3,0-0.4,0c-0.3,0-0.4,0-0.7-0.1
					c-0.3-0.1-0.7-0.1-1-0.4c-0.3-0.1-0.6-0.3-0.7-0.6c-0.1-0.1-0.3-0.3-0.3-0.3c-0.1-0.1-0.1-0.1-0.3-0.3c-0.6-0.6-1-1.3-1.3-2
					c-0.3-0.6-0.6-1.1-0.8-1.7c-0.1-0.3-0.3-0.6-0.4-1c-0.1-0.3-0.3-0.4-0.3-0.7l-0.1-0.4c-0.3-0.6-0.4-1.3-0.6-1.8
					c-0.3-0.7-0.4-1.4-0.6-2.1c-0.1-0.7-0.4-1.5-0.6-2.2c0-0.1,0-0.4-0.1-0.6c0-0.3-0.1-0.4-0.1-0.7c-0.1-0.6-0.1-1-0.3-1.5
					c-0.1-1-0.3-2-0.3-2.8c0-0.6,0-1,0-1.5c0-0.1,0-0.4,0-0.6c0-0.1,0-0.4,0-0.6c0-0.3-0.1-0.6-0.1-0.4c-0.1,0-0.1,0.3-0.1,0.6
					s-0.1,0.6,0,1c0,0.1,0,0.4,0,0.6c0,0.3,0,0.7,0,1.1c0,0.3,0,0.7,0.1,1c0,1,0.3,2,0.4,3c0,0.4,0.1,0.7,0.1,1.1
					c0.1,0.4,0.1,0.8,0.3,1.3v0.1v0.1c0,0.4,0.1,1,0.3,1.4c0.1,0.6,0.3,1,0.4,1.5c0.3,1.1,0.7,2.1,1.1,3.2l0.3,0.6
					c0.1,0.6,0.4,1.1,0.7,1.5c0.1,0.3,0.3,0.6,0.4,0.7c0.1,0.3,0.3,0.4,0.3,0.7c0.3,0.4,0.4,0.7,0.7,1.1c0.4,0.7,1,1.3,1.7,1.8
					c0.7,0.6,1.5,0.8,2.4,0.8c0.3,0,0.6,0,0.8,0s0.4-0.1,0.7-0.1c0.3-0.1,0.6-0.1,0.7-0.3c0.3-0.1,0.6-0.3,0.8-0.6
					c0.3-0.1,0.6-0.4,0.7-0.7c0.1-0.1,0.1-0.1,0.3-0.3c0.3-0.3,0.4-0.6,0.6-0.7c0.3-0.4,0.6-1,0.7-1.4c0.4-1.1,0.7-2.1,1-3.2
					l0.1-0.7c0.1-0.6,0.3-1.1,0.4-1.7c0-0.3,0.1-0.6,0.1-0.8c0-0.3,0-0.4,0.1-0.7c0-0.4,0.1-0.8,0.3-1.3c0.3-1.5,0.4-3.2,0.7-4.8
					l0.1-0.8v-0.7l0.1-0.8l0.1-1l0.1-1c0-0.3,0-0.6,0-0.8c0-0.3,0-0.6,0-0.7s0-0.3,0-0.4C106.7,32,106.5,31.9,106.5,31.9
					C106.5,31.7,106.5,31.7,106.5,31.9z"/>
			</g>
		</g>
		<path class="st2" d="M79.8,201.3c0.1,0,0.3-0.1,0.3-0.3L88,94.6c0-0.1-0.1-0.3-0.3-0.3c-0.1,0-0.3,0.1-0.3,0.3L79.5,201
			C79.5,201.1,79.7,201.3,79.8,201.3L79.8,201.3z"/>
		<path class="st2" d="M99.8,202L99.8,202c0.1,0,0.3-0.1,0.3-0.3L98.6,95.3c0-0.1-0.1-0.3-0.3-0.3l0,0c-0.1,0-0.3,0.1-0.3,0.3
			l1.4,106.4C99.5,201.8,99.6,202,99.8,202z"/>
		<path class="st2" d="M120.2,201.3L120.2,201.3c0.1,0,0.3-0.1,0.3-0.3l-8.7-106.4c0-0.1-0.1-0.3-0.3-0.3c-0.1,0-0.3,0.1-0.3,0.3
			l8.7,106.4C120,201.1,120,201.3,120.2,201.3z"/>
		<path class="st2" d="M137.7,200.2L137.7,200.2c0.1,0,0.3-0.1,0.3-0.3L121.8,93.4c0-0.1-0.1-0.3-0.3-0.1c-0.1,0-0.3,0.1-0.3,0.3
			L137.4,200C137.4,200,137.6,200.2,137.7,200.2z"/>
	</g>
	<g id="XMLID_29_">
		<g id="XMLID_30_">
			<g id="XMLID_31_">
				<path id="XMLID_32_" class="st0" d="M164.4,103.7c0.3,1,0.4,1.8,0.6,2.7c0.1,0.8,0.3,1.8,0.4,2.7c0.3,1.8,0.3,3.7,0,5.6
					c-0.1,1-1,1.5-2,1.4c-0.8-0.1-1.4-0.8-1.4-1.7v-0.1c0-1.4-0.3-3-0.7-4.5c-0.3-0.7-0.4-1.5-0.7-2.2c-0.3-0.7-0.6-1.5-0.8-2.2
					c-0.6-1.3,0-2.7,1.3-3.2c1.3-0.6,2.7,0,3.2,1.3C164.4,103.4,164.4,103.6,164.4,103.7z"/>
			</g>
		</g>
	</g>
	<g id="XMLID_25_">
		<g id="XMLID_26_">
			<g id="XMLID_27_">
				<path id="XMLID_28_" class="st0" d="M162.3,103.8c0.1,1,0.3,1.8,0.4,2.8s0.3,1.8,0.3,2.8c0,1,0.1,2,0,3c0,0.6-0.1,1-0.3,1.5
					c0,0.3-0.1,0.6-0.3,0.8c-0.1,0.3-0.3,0.7-0.4,1c-0.4,0.8-1.4,1.1-2.2,0.7c-0.7-0.3-1-1.1-0.8-1.8l0.1-0.6c0-0.1,0.1-1,0-1.7
					c-0.1-0.7-0.3-1.5-0.4-2.4s-0.4-1.7-0.7-2.4c-0.3-0.8-0.6-1.7-0.8-2.4c-0.4-1.3,0.1-2.8,1.5-3.2c1.3-0.4,2.8,0.1,3.2,1.5
					C162.3,103.6,162.3,103.7,162.3,103.8z"/>
			</g>
		</g>
	</g>
	<g id="XMLID_21_">
		<g id="XMLID_22_">
			<g id="XMLID_23_">
				<path id="XMLID_24_" class="st0" d="M159.4,100.8c0.3,1.4,0.3,2.5,0.4,3.8c0.1,1.3,0.1,2.5,0.1,3.8c0,2.5-0.3,5.1-0.8,7.6
					c-0.3,0.8-1.1,1.4-2.1,1.3c-0.8-0.1-1.4-1-1.3-1.8l0,0c0.3-2.1,0.3-4.4,0-6.7c-0.1-1.1-0.3-2.2-0.6-3.4
					c-0.3-1.1-0.4-2.2-0.7-3.2l0,0c-0.4-1.4,0.4-2.8,1.7-3.1c1.4-0.4,2.8,0.4,3.1,1.7C159.2,100.5,159.4,100.6,159.4,100.8z"/>
			</g>
		</g>
	</g>
	<path class="st8" d="M190.5,155.7l-45.1,6.2c-3.2,0.4-6-2.1-6-5.3l0.1-27.6c0-1.5,1.1-2.8,2.7-3.1l41.9-5.8c1.5-0.1,3,0.7,3.4,2.2
		l7.5,26.4C195.7,152.1,193.5,155.3,190.5,155.7z"/>
	<path class="st2" d="M157,146.2c0.3,0,0.7,0,1.1,0l15.6-2.1c3.8-0.6,6.7-3.7,6.9-7.6l0.4-13.9c0-0.1-0.1-0.3-0.3-0.3
		c-0.1,0-0.3,0.1-0.3,0.3l-0.4,13.9c-0.1,3.7-2.8,6.6-6.3,7l-15.6,2.1c-3.5,0.6-7-1.7-8-5.1l-4.2-13.2c0-0.1-0.1-0.1-0.3-0.1
		c-0.1,0-0.3,0.1-0.1,0.3l4.2,13.2C150.5,143.9,153.6,146.2,157,146.2z"/>
	<path class="st2" d="M158.7,140.3c0-0.4,0-0.7,0.3-1c0.3-0.3,0.6-0.6,1-0.6l10.1-1.4c0.7-0.1,1.4,0.4,1.5,1.3
		c0.1,0.7-0.4,1.4-1.1,1.5l-10.1,1.4h-0.1C159.4,141.4,158.8,141,158.7,140.3z M170.1,137.7l-10.1,1.4c-0.3,0-0.4,0.1-0.6,0.3
		c-0.1,0.1-0.3,0.4-0.1,0.7c0,0.6,0.6,0.8,1,0.7l10.1-1.4l0,0c0.4,0,0.8-0.6,0.7-1C171.1,138.1,170.6,137.7,170.1,137.7
		C170.2,137.7,170.1,137.7,170.1,137.7z"/>
	<path class="st2" d="M148,127.5c0,0,0.1-5.2,1.7-10.5c2.1-7,5.9-11.2,10.8-12c5.1-0.7,9.8,2.2,13.6,8.6c3,4.6,4.4,9.6,4.4,9.7
		l0.1,0.6L148,128V127.5z M160.6,106c-10.3,1.4-11.5,17.7-11.7,20.9l28.5-3.9C176.4,119.9,170.9,104.5,160.6,106z"/>
	<g id="XMLID_17_">
		<g id="XMLID_18_">
			<g id="XMLID_19_">
				<path id="XMLID_20_" class="st0" d="M162.3,101.2c0.4,0.1,0.4,0.1,0.6,0.3c0.1,0,0.3,0.1,0.3,0.3c0.1,0.1,0.3,0.3,0.6,0.4
					c0.3,0.3,0.6,0.6,0.7,0.8c0.4,0.6,0.8,1.1,1.1,1.7c0.7,1.1,1.1,2.4,1.7,3.5c0.3,0.8-0.1,1.8-1,2.1c-0.7,0.3-1.5,0-2-0.6l0,0
					c-0.7-1-1.4-1.8-2.1-2.5c-0.4-0.4-0.7-0.7-1.1-1c-0.1-0.1-0.4-0.3-0.6-0.3c-0.1,0-0.1,0-0.3-0.1l0,0c0,0-0.1,0,0.1,0.1
					c-1.3-0.6-2-2-1.4-3.2C159.5,101.3,161.1,100.8,162.3,101.2z"/>
			</g>
		</g>
	</g>
	<g>
		<g id="XMLID_13_">
			<g id="XMLID_14_">
				<g id="XMLID_15_">
					<path id="XMLID_16_" class="st0" d="M43.2,104c0.3,0.3,0.4,0.3,0.6,0.4c0.1,0.1,0.1,0.1,0.3,0.3c0.1,0.1,0.3,0.3,0.4,0.6
						c0.3,0.3,0.4,0.7,0.7,1c0.4,0.7,0.7,1.3,1,2c0.6,1.3,0.8,2.5,1.1,3.7c0.3,0.8-0.3,1.8-1.3,2c-0.7,0.1-1.5-0.1-1.8-0.8l0,0
						c-0.6-1-1.1-2-1.7-2.8c-0.3-0.4-0.7-0.8-1-1.1c-0.1-0.1-0.3-0.3-0.4-0.4l-0.1-0.1l0,0c0,0-0.1,0,0.1,0.1
						c-1.3-0.7-1.7-2.2-1-3.5C40.4,103.7,42.1,103.3,43.2,104z"/>
				</g>
			</g>
		</g>
		<g id="XMLID_9_">
			<g id="XMLID_10_">
				<g id="XMLID_11_">
					<path id="XMLID_12_" class="st0" d="M38.2,103c-0.7,0.7-1.3,1.4-1.8,2c-0.6,0.7-1.1,1.4-1.7,2.1c-1.1,1.4-2.1,3-2.8,4.9
						c-0.3,0.8,0.1,1.8,1,2.2c0.8,0.3,1.7,0,2.1-0.7l0,0c0.7-1.3,1.7-2.5,2.8-3.7c0.6-0.6,1.1-1.1,1.7-1.7c0.6-0.6,1.3-1.1,1.8-1.5
						c1.1-0.8,1.3-2.2,0.6-3.4c-0.8-1.1-2.4-1.3-3.4-0.6C38.5,102.9,38.3,103,38.2,103z"/>
				</g>
			</g>
		</g>
		<g id="XMLID_5_">
			<g id="XMLID_6_">
				<g id="XMLID_7_">
					<path id="XMLID_8_" class="st0" d="M39.6,105.5c-0.7,0.7-1.3,1.4-1.8,2.2c-0.6,0.7-1.1,1.5-1.7,2.2c-0.6,0.8-1,1.7-1.4,2.5
						c-0.3,0.4-0.4,1-0.6,1.5c-0.1,0.3-0.1,0.6-0.3,0.8c0,0.3,0,0.7-0.1,1.1c0,0.8,0.7,1.7,1.7,1.7c0.7,0,1.4-0.4,1.5-1.1l0.1-0.6
						c0-0.1,0.4-0.8,0.8-1.5c0.4-0.6,1-1.3,1.5-1.8c0.6-0.6,1.1-1.3,1.7-1.8s1.3-1.1,1.8-1.7c1.1-0.8,1.1-2.5,0.3-3.5
						c-0.8-1.1-2.5-1.3-3.5-0.3C39.9,105.2,39.7,105.4,39.6,105.5z"/>
				</g>
			</g>
		</g>
		<g id="XMLID_1_">
			<g id="XMLID_2_">
				<g id="XMLID_3_">
					<path id="XMLID_4_" class="st0" d="M43.8,104.3c-0.8,1.1-1.5,2-2.2,3.1c-0.7,1-1.4,2.1-2,3.2c-1.3,2.1-2.2,4.5-3,7
						c-0.3,0.8,0.3,1.8,1.1,2.1c0.8,0.3,1.7-0.1,2.1-1l0,0c0.8-2,2-3.9,3.2-5.8c0.7-0.8,1.4-1.8,2.1-2.7s1.5-1.7,2.2-2.4l0,0
						c1-1,1-2.5,0-3.5c-1-1-2.5-1-3.5,0C43.9,104.1,43.8,104.1,43.8,104.3z"/>
				</g>
			</g>
		</g>
	</g>
</g>
</svg>
