<?xml version="1.0" encoding="utf-8"?>
<!-- Generator: Adobe Illustrator 22.1.0, SVG Export Plug-In . SVG Version: 6.00 Build 0)  -->
<svg version="1.1" id="Layer_1" xmlns="http://www.w3.org/2000/svg" xmlns:xlink="http://www.w3.org/1999/xlink" x="0px" y="0px"
	 viewBox="0 0 247.6 287" style="enable-background:new 0 0 247.6 287;" xml:space="preserve">
<style type="text/css">
	.st0{fill:#FFFFFF;}
	.st1{fill:#F2CDAC;}
	.st2{fill:#E1BA9E;}
	.st3{fill:#F2513B;}
	.st4{fill:#236AD8;}
	.st5{fill:#B5EAF7;}
	.st6{fill:#A38978;}
	.st7{fill:#0E2E35;}
	.st8{fill:#07439B;}
	.st9{fill:none;stroke:#FFFFFF;stroke-width:0.3613;stroke-linecap:round;stroke-linejoin:round;stroke-miterlimit:10;}
	.st10{fill:none;stroke:#FFFFFF;stroke-width:0.3625;stroke-linecap:round;stroke-linejoin:round;stroke-miterlimit:10;}
	.st11{fill:#1A1B1D;}
	.st12{fill:#D41116;}
	.st13{fill:none;stroke:#FFFFFF;stroke-miterlimit:10;}
</style>
<g id="XMLID_790_">
	<g id="XMLID_791_">
		<path id="XMLID_792_" class="st0" d="M140.5,30c-1,1.4-0.5,2.6,0.2,4.1c0.8,2.1,1.6,4.3,3.2,5.8c1.2,1.2,2.8,2,4.1,3.1
			c2.4,1.9,4,4.8,6.7,5.9c2.8,1.1,6,1.6,8.9,0.9c2.9-0.8,6.3-1.2,8.7,0.5c2.1,1.6,2.9,4.6,5.1,6c2.6,1.6,6,0.5,8.7-1
			s5.4-3.4,8.4-3.3c2.9,0.1,5.6,1.1,8.4,0.8c2.5-0.3,4.8-2.9,5.2-5.5c0.5-2.6-0.7-5.3-2.8-6.8c-2-1.6-4.9-1.9-7.3-1.2
			c-2.1,0.7-4,2.1-6.2,2.1c-2.7,0-4.9-1.8-6.7-3.9c-1.8-2-3.5-4.3-5.9-5.3c-4.2-1.8-9.1,0.7-13.6,0.4c-3-0.2-5.9-1.6-8.5-3
			c-2.7-1.4-5.5-2.9-8.5-3.2C145.4,26.3,142,27.3,140.5,30"/>
	</g>
</g>
<g>
	<g id="XMLID_753_">
		<path id="XMLID_754_" class="st1" d="M182.2,79.7l-35.8,3.7l-0.7,0.1c-0.5,0.1-1.1,0.1-1.6,0l-53.4-6.1c-3.5-0.4-6.3-3.7-6.1-7.2
			c0.2-3.4,2.9-5.9,6.2-5.8l53.5,1.7l-2.3,0.1l34.6-6.7c5.4-1.4,11.5,1.8,13.1,7.4c1.7,5.6-1.4,11.2-6.8,12.6
			C182.8,79.6,182.5,79.7,182.2,79.7z"/>
	</g>
	<g>
		<g id="XMLID_689_">
			<g id="XMLID_690_">
				<g id="XMLID_691_">
					<path id="XMLID_692_" class="st1" d="M93.5,70.5c0.1,0.5,0,0.6,0,0.8s0,0.3-0.1,0.5c0,0.3-0.1,0.6-0.2,0.8
						c-0.1,0.5-0.3,1-0.4,1.4c-0.4,0.9-0.7,1.6-1.2,2.4c-0.8,1.4-1.8,2.7-2.8,3.9c-0.7,0.9-2,0.9-2.9,0.2c-0.8-0.7-1-1.7-0.6-2.6
						l0,0c0.6-1.3,1.1-2.6,1.5-3.9c0.2-0.6,0.3-1.3,0.4-1.8c0-0.3,0-0.6,0-0.8c0-0.1,0-0.2,0-0.3V71c0,0.1,0-0.1,0,0.2
						c-0.3-1.8,0.9-3.4,2.6-3.6C91.6,67.4,93.2,68.7,93.5,70.5z"/>
				</g>
			</g>
		</g>
		<g id="XMLID_685_">
			<g id="XMLID_686_">
				<g id="XMLID_687_">
					<path id="XMLID_688_" class="st1" d="M90.5,64.6c-1.2-0.2-2.3-0.3-3.5-0.5c-1.1-0.1-2.3-0.2-3.4-0.2c-2.3,0-4.6,0-7,0.6
						c-1.1,0.3-1.8,1.5-1.4,2.6c0.3,1.1,1.3,1.8,2.4,1.6h0.1c1.8-0.2,3.8,0,5.8,0.3c1,0.2,2,0.4,3,0.6c1,0.2,2,0.5,2.9,0.8
						c1.6,0.5,3.3-0.3,3.7-2c0.4-1.6-0.5-3.4-2.2-3.9C90.8,64.6,90.6,64.6,90.5,64.6z"/>
				</g>
			</g>
		</g>
		<g id="XMLID_681_">
			<g id="XMLID_682_">
				<g id="XMLID_683_">
					<path id="XMLID_684_" class="st1" d="M89.2,67.8c-1.2-0.1-2.4-0.2-3.6-0.2c-1.2,0-2.3-0.1-3.6,0c-1.2,0-2.4,0.1-3.7,0.3
						c-0.6,0.1-1.3,0.2-1.9,0.5c-0.3,0.1-0.7,0.3-1,0.4c-0.4,0.2-0.8,0.5-1.1,0.7c-0.9,0.7-1.1,2-0.4,2.9c0.6,0.8,1.6,1.1,2.4,0.8
						L77,73c0.2-0.1,1.2-0.3,2.1-0.3c1,0,2,0.1,3,0.2c1,0.1,2.1,0.3,3.1,0.5s2.1,0.4,3.1,0.7c1.7,0.5,3.4-0.6,3.7-2.3
						s-0.8-3.5-2.5-3.9C89.5,67.8,89.3,67.8,89.2,67.8z"/>
				</g>
			</g>
		</g>
		<g id="XMLID_677_">
			<g id="XMLID_678_">
				<g id="XMLID_679_">
					<path id="XMLID_680_" class="st1" d="M93.6,71.2c-1.7-0.1-3.2-0.1-4.8-0.1s-3.1,0.1-4.7,0.3c-3.1,0.3-6.2,0.9-9.2,2
						c-1.1,0.4-1.6,1.6-1.1,2.8c0.4,1.1,1.5,1.7,2.6,1.4h0.1c2.6-0.6,5.5-0.8,8.3-0.8c1.4,0,2.8,0.1,4.3,0.2
						c1.4,0.1,2.9,0.3,4.2,0.6l0,0c1.7,0.3,3.3-0.8,3.6-2.6c0.2-1.7-1-3.4-2.7-3.8C93.9,71.2,93.8,71.2,93.6,71.2z"/>
				</g>
			</g>
		</g>
	</g>
</g>
<g>
	<g id="XMLID_233_">
		<g id="XMLID_234_">
			<g id="XMLID_235_">
				<path id="XMLID_236_" class="st2" d="M44.9,84.7l12,19.4l0.2,0.3c1.1,2,3.3,2.9,5.4,2.4l37.3-9c2.2-0.5,3.4-2.5,3-4.7
					c-0.4-2-2.4-3.3-4.4-3.1l-37.7,6.3l5.5,2.7l-9.4-20.2C56.7,78.9,44.9,84.6,44.9,84.7z"/>
			</g>
		</g>
	</g>
	<g id="XMLID_229_">
		<g id="XMLID_230_">
			<g id="XMLID_231_">
				<path id="XMLID_232_" class="st2" d="M96.2,91.8c0.2-0.3,0.2-0.3,0.3-0.5c0.1-0.1,0.1-0.2,0.2-0.2c0.1-0.2,0.3-0.2,0.4-0.4
					c0.3-0.2,0.5-0.4,0.8-0.6c0.6-0.3,1-0.6,1.6-0.9c1.1-0.5,2.1-0.9,3.2-1.1c0.8-0.2,1.6,0.2,1.8,1c0.2,0.6-0.1,1.3-0.7,1.6l0,0
					c-0.8,0.5-1.7,1-2.4,1.6c-0.3,0.3-0.7,0.6-0.9,0.9c-0.1,0.2-0.3,0.3-0.3,0.4c-0.1,0.1-0.1,0.2-0.1,0.2v0.1c0,0,0,0.1,0.1-0.1
					c-0.6,1.1-1.8,1.5-2.9,1S95.7,92.8,96.2,91.8z"/>
			</g>
		</g>
	</g>
	<g id="XMLID_225_">
		<g id="XMLID_226_">
			<g id="XMLID_227_">
				<path id="XMLID_228_" class="st2" d="M98.5,90.2c0.9-0.2,1.6-0.2,2.4-0.3c0.8-0.1,1.5-0.1,2.3-0.1c1.6,0,3.2,0.1,4.9,0.4
					c0.8,0.2,1.3,1,1.1,1.8c-0.2,0.7-0.8,1.2-1.6,1.1h-0.1c-1.3-0.1-2.6,0-4,0.2c-0.6,0.1-1.4,0.3-2,0.4s-1.4,0.3-2,0.6
					c-1.1,0.4-2.3-0.2-2.6-1.4c-0.4-1.1,0.2-2.3,1.4-2.6C98.3,90.2,98.4,90.2,98.5,90.2z"/>
			</g>
		</g>
	</g>
	<g id="XMLID_221_">
		<g id="XMLID_222_">
			<g id="XMLID_223_">
				<path id="XMLID_224_" class="st2" d="M98.5,92c0.9-0.1,1.6-0.1,2.5-0.2c0.8,0,1.6,0,2.4,0c0.8,0,1.7,0.1,2.5,0.2
					c0.4,0,0.9,0.1,1.4,0.3c0.2,0.1,0.5,0.2,0.8,0.3c0.2,0.1,0.5,0.3,0.8,0.5c0.6,0.5,0.9,1.3,0.4,1.9c-0.4,0.6-1,0.8-1.6,0.5
					l-0.5-0.2c-0.2-0.1-0.8-0.2-1.5-0.2s-1.4,0.1-2.1,0.1c-0.7,0.1-1.5,0.2-2.2,0.3s-1.4,0.3-2.2,0.5c-1.1,0.3-2.4-0.4-2.6-1.6
					c-0.3-1.1,0.4-2.4,1.6-2.6C98.2,92,98.4,92,98.5,92z"/>
			</g>
		</g>
	</g>
	<g id="XMLID_217_">
		<g id="XMLID_218_">
			<g id="XMLID_219_">
				<path id="XMLID_220_" class="st2" d="M95.5,94.3c1.2-0.1,2.2-0.1,3.3-0.1s2.1,0.1,3.3,0.2c2.2,0.2,4.3,0.6,6.5,1.4
					c0.8,0.3,1.1,1.1,0.9,1.9c-0.2,0.7-1,1.1-1.7,1h-0.1c-1.9-0.4-3.8-0.6-5.8-0.6c-1,0-2,0-2.9,0.1s-2,0.3-2.8,0.4l0,0
					c-1.2,0.3-2.3-0.5-2.6-1.7s0.5-2.3,1.7-2.6C95.3,94.4,95.4,94.3,95.5,94.3z"/>
			</g>
		</g>
	</g>
</g>
<g>
	<path class="st3" d="M127.3,61.4C120.8,58,110.7,64,103,75.2C95.4,64,85.2,58,78.7,61.4c-7.5,4-9.5,18.5-1.3,32.9
		c8.4,14.7,25.5,21.2,25.5,21.2s17.1-7.3,25.4-21.2C137,80.1,134.9,65.4,127.3,61.4z"/>
</g>
<path class="st4" d="M51.5,97.2c0,0-11.3-8.3-14.7-14.2s2.3-2.1,8.2-3.6c2.2-0.6,1.7-13.6,5.9-9.4c6.9,6.9,12.5,20.7,12.5,20.7
	L51.5,97.2z"/>
<path class="st5" d="M33.1,61.3c0,0-5.2,0.8-16.5,6.7c-9.1-0.7-9.7,81.4-9.7,81.4s41.1-2.1,46.9-12c0,0,2.8-38.4,2.5-43.2
	c-0.2-4.8-5.5-24.6-7-26.7C47.9,65.2,33.1,61.3,33.1,61.3z"/>
<path class="st2" d="M34.5,46.9c0,0-0.1,0.4-0.2,1c-0.5,2.9-2.6,12.6-4,15.2c-1.7,3.2,5.8,13.4,13.1,12.2c2.2-0.4-1.8-9.4-1.6-10.4
	c0.4-1.8,0.9-4.3,1.4-6.9c0.3-1.4,0.6-2.9,0.8-4.3c0.8-3.9,1.4-7.1,1.4-7.1L34.5,46.9z"/>
<path class="st6" d="M34.2,48.3c0.1-0.6,0.2-1,0.2-1L45.2,47c0,0-0.6,3.2-1.4,7.1c-0.3,1.4-0.6,2.8-0.8,4.3
	c-1.7-0.2-3.4-1.1-5.2-2.6c-1.9-1.7-3.2-3.7-3.9-5.8C34,49.4,34.2,48.8,34.2,48.3z"/>
<g>
	<path class="st2" d="M38.2,26c-0.3-0.2-7,16.2-3.8,22c3.1,5.8,11.2,9.5,15.2,6.6c4.4-3.2,8.9-21.5,3.4-28.1
		C47.5,20,38.2,26,38.2,26z"/>
	<path class="st7" d="M52.8,16.8c-5.5-0.3-9.7,2-11.3,3.1c-2.4-0.3-6,0.2-10.8,4.8c-5.8,5.7-4.7,14-0.9,18.9s3.6,8.7,3.6,8.7
		s2.1-4.8,2.3-6.6c0.2-1.1,0.2-2.3,0-3.3c-0.5-2.8,3.5-3.5,5.1-5.3c1.2-1.4,2.2-5,4-7.3l2-1.6c0,0,4.1-1.8,7.2-0.2
		C57.1,29.7,59.8,17.1,52.8,16.8z"/>
	<path class="st2" d="M39.8,40.1c-0.5,2.1-1.9,3.5-3.1,3.3c-1.2-0.3-1.8-2.2-1.3-4.3s1.9-3.5,3.1-3.3C39.7,36.1,40.3,38,39.8,40.1z"
		/>
</g>
<g>
	<g id="XMLID_576_">
		<g id="XMLID_577_">
			<g id="XMLID_578_">
				<path id="XMLID_579_" class="st2" d="M16.7,93.9l13.9,27.9l0.2,0.4c1.3,2.8,4.1,4.3,7,4l51.8-7.6c3-0.4,5-3,4.7-6
					c-0.3-2.8-2.8-4.8-5.6-4.7l-52.1,3.9l7.2,4.4L33.5,87.5C33.4,87.5,16.7,93.8,16.7,93.9z"/>
			</g>
		</g>
	</g>
	<g id="XMLID_572_">
		<g id="XMLID_573_">
			<g id="XMLID_574_">
				<path id="XMLID_575_" class="st2" d="M85.5,109.9c0.3-0.4,0.3-0.4,0.5-0.6c0.1-0.1,0.2-0.2,0.3-0.3c0.2-0.2,0.4-0.3,0.6-0.5
					c0.4-0.3,0.8-0.5,1.2-0.7c0.8-0.4,1.5-0.7,2.3-1c1.5-0.5,3-0.9,4.5-1.1c1.1-0.2,2.1,0.5,2.3,1.6c0.2,0.9-0.3,1.8-1.1,2.1l0,0
					c-1.2,0.6-2.4,1.2-3.5,1.9c-0.5,0.3-1,0.7-1.4,1.1c-0.2,0.2-0.4,0.4-0.5,0.5s-0.1,0.2-0.2,0.2v0.1c0,0,0,0.1,0.2-0.1
					c-0.9,1.4-2.7,1.8-4.1,1C85.2,113.3,84.7,111.2,85.5,109.9z"/>
			</g>
		</g>
	</g>
	<g id="XMLID_568_">
		<g id="XMLID_569_">
			<g id="XMLID_570_">
				<path id="XMLID_571_" class="st2" d="M88.9,108c1.2-0.1,2.2-0.1,3.3-0.1s2.1,0,3.2,0.1c2.2,0.2,4.3,0.5,6.6,1.2
					c1.1,0.4,1.6,1.5,1.3,2.6c-0.3,1-1.3,1.5-2.3,1.3h-0.1c-1.7-0.3-3.6-0.3-5.5-0.2c-0.9,0.1-1.9,0.2-2.8,0.3
					c-0.9,0.1-1.9,0.3-2.8,0.5c-1.5,0.4-3.1-0.6-3.4-2.2c-0.4-1.5,0.6-3.1,2.2-3.4C88.6,108,88.8,108,88.9,108z"/>
			</g>
		</g>
	</g>
	<g id="XMLID_564_">
		<g id="XMLID_565_">
			<g id="XMLID_566_">
				<path id="XMLID_567_" class="st2" d="M88.6,110.5c1.2,0,2.2,0,3.4,0.1c1.1,0.1,2.2,0.2,3.3,0.3c1.1,0.1,2.3,0.3,3.4,0.6
					c0.6,0.1,1.2,0.3,1.8,0.6c0.3,0.1,0.7,0.3,1,0.5s0.7,0.5,1,0.8c0.8,0.7,1,1.9,0.3,2.7c-0.6,0.7-1.5,0.9-2.3,0.5l-0.7-0.3
					c-0.2-0.1-1.1-0.4-2-0.4c-0.9-0.1-1.9-0.1-2.9-0.1s-2,0.1-3,0.2s-2,0.2-3,0.4c-1.6,0.3-3.2-0.9-3.4-2.5
					c-0.3-1.6,0.9-3.2,2.5-3.4C88.3,110.5,88.5,110.5,88.6,110.5z"/>
			</g>
		</g>
	</g>
	<g id="XMLID_560_">
		<g id="XMLID_561_">
			<g id="XMLID_562_">
				<path id="XMLID_563_" class="st2" d="M84.3,113.3c1.6,0,3,0.2,4.5,0.3c1.5,0.2,2.9,0.4,4.4,0.7c2.9,0.6,5.8,1.4,8.6,2.7
					c1,0.5,1.4,1.7,1,2.7c-0.4,0.9-1.5,1.4-2.5,1.1h-0.1c-2.5-0.8-5.1-1.3-7.8-1.5c-1.3-0.1-2.7-0.2-4-0.2s-2.7,0.1-3.9,0.2l0,0
					c-1.6,0.2-3.1-1-3.3-2.7c-0.2-1.6,1-3.1,2.7-3.3C84,113.3,84.2,113.3,84.3,113.3z"/>
			</g>
		</g>
	</g>
</g>
<path class="st4" d="M23.7,110.2c0,0-11.3-25.8-11.5-33.1C12,69.8,19.3,62,25.5,63.6s13.7,40,13.7,40L23.7,110.2z"/>
<g>
	<g id="XMLID_393_">
		<polygon id="XMLID_521_" class="st4" points="32.1,155.7 28.1,218.1 28,219.3 28,219.6 16.7,273.3 0.4,270.1 8.2,216.2 8,217.7 
			6.6,138.7 		"/>
	</g>
	<g id="XMLID_391_">
		<path id="XMLID_392_" class="st4" d="M7.6,167.3l-1-28.6l46.3-2.2l1.2,28.8c0.1,3.6-2.7,6.7-6.3,6.9l-33.4,1.4
			C10.8,173.7,7.8,170.9,7.6,167.3z"/>
	</g>
	<g id="XMLID_389_">
		<polygon id="XMLID_390_" class="st4" points="55.4,136.5 64.9,216.3 65.1,218 65,218.9 58.2,274.6 41.6,273.9 45,216.9 
			45.1,219.5 30.7,137.4 		"/>
	</g>
	<g id="XMLID_323_">
		<g id="XMLID_324_">
			<g id="XMLID_325_">
				<polygon id="XMLID_326_" class="st8" points="58.2,274.6 69.4,285 41.5,285 41.6,273.9 				"/>
			</g>
		</g>
	</g>
	<g id="XMLID_319_">
		<g id="XMLID_320_">
			<g id="XMLID_321_">
				<polygon id="XMLID_322_" class="st8" points="16.7,273.3 26.3,285.1 -1.3,281.1 0.4,270.1 				"/>
			</g>
		</g>
	</g>
	<g id="XMLID_316_">
		<g id="XMLID_317_">
			<path id="XMLID_318_" class="st0" d="M52.9,154.2c-0.1,0-0.1,0-0.2,0c0,0-0.1,0-0.1,0.1c0,0,0,0.1,0,0.2c0,0.1,0,0.1,0,0.2v0.2
				c0,0.1,0,0.1,0,0.2c0,0.1,0,0.1,0,0.2c0,0,0,0.1,0,0.2s0,0.1,0,0.2c0,0.4,0,0.8,0.1,1.1v0.3c0,0.1,0,0.1,0,0.2c0,0.1,0,0.1,0,0.2
				s0.1,0.3,0.1,0.4v0.1c0.1,0.3,0.1,0.5,0.2,0.8l0.1,0.3c0,0.1,0.1,0.1,0.1,0.2v0.1c0,0.1,0.1,0.1,0.1,0.2c0,0.1,0.1,0.1,0.1,0.2
				c0,0,0.1,0.1,0.1,0.2c0,0,0,0.1,0.1,0.1c0,0.1,0.1,0.1,0.1,0.2c0.2,0.3,0.4,0.7,0.6,1l0.2,0.2l0.1,0.1l0.1,0.1
				c0.1,0.1,0.2,0.2,0.3,0.3l0.1,0.1c0.2,0.2,0.4,0.4,0.6,0.6l0.3,0.2c0.1,0.1,0.2,0.2,0.3,0.2l0,0l0,0c0.1,0.1,0.1,0.1,0.2,0.2
				c0.1,0,0.1,0.1,0.2,0.1c0.2,0.1,0.4,0.2,0.6,0.3c0.1,0,0.1,0.1,0.2,0.1c0.1,0,0.1,0,0.2,0.1h0.1c0.1,0,0.2,0,0.2,0
				c0.1,0,0.1,0,0.2-0.1c0-0.1,0-0.1,0-0.2l-0.1-0.1c0,0-0.1,0-0.1-0.1c-0.1,0-0.2-0.1-0.3-0.1c-0.2-0.1-0.4-0.2-0.6-0.3
				c-0.1,0-0.2-0.1-0.3-0.2c0,0-0.1,0-0.1-0.1c0,0-0.1,0-0.1-0.1c-0.1-0.1-0.3-0.2-0.4-0.3c-0.1-0.1-0.3-0.2-0.4-0.3
				c-0.1-0.1-0.2-0.2-0.3-0.3l-0.1-0.1l-0.1-0.1l-0.1-0.2c-0.1-0.1-0.2-0.2-0.3-0.3c-0.1-0.2-0.2-0.3-0.3-0.4c0,0,0-0.1-0.1-0.1h0.1
				c0-0.1-0.1-0.1-0.1-0.2l-0.1-0.2l-0.1-0.1v-0.1l-0.2-0.3c0,0,0-0.1-0.1-0.1l0,0l0,0l0,0c-0.1-0.2-0.1-0.3-0.2-0.5
				c0-0.2-0.1-0.3-0.2-0.5c0-0.1-0.1-0.3-0.1-0.4V158v-0.2v-0.2c0-0.1-0.1-0.3-0.1-0.4c0-0.2,0-0.3,0-0.5c0-0.1,0-0.1,0-0.2
				s0-0.2,0-0.2v-0.2c0-0.2,0-0.4,0-0.6c0,0,0-0.1,0-0.2c0-0.1,0-0.2,0-0.3v-0.2v-0.1c0-0.1,0-0.2-0.1-0.2
				C53.1,154.2,53.1,154.2,52.9,154.2z"/>
		</g>
	</g>
	<g id="XMLID_313_">
		<g id="XMLID_314_">
			<path id="XMLID_315_" class="st0" d="M7,164c0,0.1,0,0.1,0,0.2c0,0,0,0.1,0.1,0.1c0,0,0.1,0,0.2,0c0.1,0,0.1,0,0.2,0h0.2
				c0.1,0,0.1,0,0.2,0c0.1,0,0.1,0,0.2,0h0.1c0.1,0,0.1,0,0.2,0c0.4,0,0.8,0,1.1-0.1c0.1,0,0.2,0,0.3-0.1c0.1,0,0.1,0,0.2,0
				c0.1,0,0.1,0,0.2,0c0.1,0,0.3-0.1,0.4-0.1h0.1c0.2-0.1,0.5-0.2,0.7-0.3l0.3-0.2c0.1,0,0.1-0.1,0.2-0.1c0,0,0,0,0.1,0l0.2-0.1
				c0.1,0,0.1-0.1,0.2-0.1l0.1-0.1c0,0,0.1,0,0.1-0.1c0.1,0,0.1-0.1,0.2-0.1c0.3-0.2,0.6-0.5,0.9-0.7l0.2-0.2l0.1-0.1l0.1-0.1
				c0.1-0.1,0.2-0.2,0.2-0.3l0.1-0.1c0.2-0.2,0.3-0.4,0.4-0.6c0.1-0.1,0.1-0.2,0.2-0.3c0-0.1,0.1-0.2,0.1-0.3l0,0l0,0
				c0-0.1,0.1-0.2,0.1-0.2c0-0.1,0.1-0.2,0.1-0.2c0.1-0.2,0.2-0.4,0.2-0.6c0-0.1,0.1-0.1,0.1-0.2c0-0.1,0-0.1,0-0.2v-0.1
				c0-0.1,0-0.2,0-0.2c0-0.1-0.1-0.1-0.1-0.1c-0.1,0-0.1,0-0.2,0.1l-0.1,0.1v0.1c0,0.1-0.1,0.2-0.1,0.3c0,0.2-0.1,0.4-0.2,0.6
				c0,0.1-0.1,0.2-0.1,0.3c0,0,0,0.1-0.1,0.1v0.1c-0.1,0.2-0.2,0.3-0.2,0.5c-0.1,0.1-0.2,0.3-0.2,0.4c-0.1,0.1-0.1,0.2-0.2,0.4
				l-0.1,0.1l-0.1,0.1l-0.1,0.2c-0.1,0.1-0.2,0.2-0.3,0.3c-0.1,0.1-0.2,0.2-0.4,0.3c0,0,0,0-0.1,0.1l-0.1,0.1
				c-0.1,0-0.1,0.1-0.2,0.1c-0.1,0-0.1,0.1-0.2,0.1l-0.1,0.1l-0.1,0.1l-0.3,0.2l-0.1,0.1l0,0l0,0l0,0c-0.2,0.1-0.3,0.2-0.5,0.2
				c-0.1,0.1-0.3,0.1-0.4,0.2c-0.1,0-0.3,0.1-0.4,0.2h-0.1c-0.1,0-0.1,0-0.2,0l-0.2,0.1c-0.1,0-0.3,0.1-0.4,0.1
				c-0.2,0-0.3,0.1-0.5,0.1c-0.1,0-0.1,0-0.2,0c-0.1,0-0.2,0-0.2,0H8.6c-0.2,0-0.4,0-0.6,0c-0.1,0-0.1,0-0.2,0c-0.1,0-0.2,0-0.3,0
				H7.3H7.2C7.2,163.9,7.1,163.9,7,164L7,164z"/>
		</g>
	</g>
	<g id="XMLID_310_">
		<g id="XMLID_311_">
			<path id="XMLID_312_" class="st0" d="M30.7,167.9c0,0.1,0,0.1,0.1,0.2c0,0,0.1,0,0.1,0.1c0.1,0,0.1,0,0.2,0c0.1,0,0.1,0,0.2,0
				h0.3c0.1,0,0.1,0,0.2,0c0.1,0,0.1,0,0.2,0c0,0,0.1,0,0.2,0c0.1,0,0.1,0,0.2,0c0.4-0.1,0.8-0.3,1.2-0.6c0.1-0.1,0.2-0.2,0.2-0.2
				c0-0.1,0.1-0.1,0.1-0.1s0.1-0.1,0.1-0.2c0.1-0.1,0.1-0.3,0.2-0.4c0-0.1,0-0.1,0-0.2c0.1-0.3,0.1-0.6,0.1-0.9c0-0.1,0-0.3,0-0.4
				s0-0.1,0-0.2c0,0,0,0,0-0.1v-0.2c0-0.1,0-0.1,0-0.2c0-0.1,0-0.1,0-0.2c0,0,0-0.1,0-0.2c0-0.1,0-0.1,0-0.2c0-0.4,0-0.8-0.1-1.2
				v-0.3c0-0.1,0-0.1,0-0.2c0-0.1,0-0.1,0-0.2c0-0.1,0-0.3,0-0.4c0,0,0-0.1,0-0.2c0-0.3,0-0.6,0-0.8v-0.4c0-0.1,0-0.2,0-0.3l0,0l0,0
				c0-0.1,0-0.2,0-0.3c0-0.1,0-0.2,0-0.3c0-0.2,0-0.5,0-0.7c0-0.1,0-0.2,0-0.2c0-0.1,0-0.2,0-0.3V158c0-0.1,0-0.2-0.1-0.2
				s-0.1-0.1-0.2-0.1c-0.1,0-0.1,0-0.2,0.1c0,0,0,0.1-0.1,0.1v0.1c0,0.1,0,0.3,0,0.4c0,0.2,0,0.5,0,0.7v0.4c0,0.1,0,0.1,0,0.2v0.1
				c0,0.2,0,0.4,0,0.6s0,0.4,0,0.5c0,0.1,0,0.3,0,0.5v0.1c0,0.1,0,0.1,0,0.2v0.2c0,0.2,0,0.3,0,0.5c0,0.2,0,0.4,0,0.6v0.1v0.1
				c0,0.1,0,0.2,0,0.2v0.3v0.2v0.1v0.4c0,0.1,0,0.1,0,0.2l0,0v0.1l0,0c0,0.2,0,0.4,0,0.6s0,0.4,0,0.5c0,0.1,0,0.3,0,0.4v0.1
				c0,0.1,0,0.1-0.1,0.2c0,0.1,0,0.1-0.1,0.2s-0.1,0.2-0.2,0.3c-0.1,0.1-0.2,0.2-0.4,0.3l-0.1,0.1c-0.1,0-0.2,0-0.2,0.1
				c-0.1,0-0.1,0.1-0.2,0.1c-0.2,0-0.4,0.1-0.6,0.1c-0.1,0-0.1,0-0.2,0c-0.1,0-0.2,0-0.3,0H31c0,0-0.1,0-0.2,0
				C30.8,167.7,30.7,167.7,30.7,167.9C30.7,167.8,30.7,167.9,30.7,167.9z"/>
		</g>
	</g>
	<g id="XMLID_304_">
		<g id="XMLID_305_">
			<path id="XMLID_306_" class="st0" d="M0.5,267.1c0,0,0,0.1,0.1,0.2c0,0,0.1,0,0.1,0.1c0.1,0,0.1,0,0.2,0c0.1,0,0.1,0,0.2,0.1
				c0.1,0,0.2,0,0.3,0s0.2,0,0.3,0s0.2,0,0.2,0c0.1,0,0.1,0,0.2,0c0.1,0,0.2,0,0.2,0c0.5,0.1,1,0.2,1.5,0.3c0.1,0,0.2,0,0.4,0
				c0.1,0,0.1,0,0.2,0c0.1,0,0.2,0,0.2,0c0.2,0,0.3,0.1,0.5,0.1c0.1,0,0.1,0,0.2,0c0.3,0.1,0.7,0.1,1,0.2c0.1,0,0.3,0.1,0.5,0.1
				c0.1,0,0.2,0,0.3,0h0.1c0.1,0,0.2,0,0.3,0s0.2,0,0.3,0s0.2,0,0.2,0c0.1,0,0.1,0,0.2,0c0.1,0,0.2,0,0.2,0c0.5,0.1,1,0.2,1.5,0.3
				c0.1,0,0.2,0,0.4,0c0.1,0,0.1,0,0.2,0c0.1,0,0.2,0,0.2,0c0.2,0,0.3,0.1,0.5,0.1c0.1,0,0.1,0,0.2,0c0.3,0.1,0.7,0.1,1,0.2
				c0.1,0,0.3,0.1,0.5,0.1c0.1,0,0.3,0.1,0.4,0l0,0l0,0c0.1,0,0.2,0.1,0.4,0.1c0.1,0,0.2,0,0.3,0c0.3,0,0.6,0.1,0.9,0.2
				c0.1,0,0.2,0,0.3,0.1c0.1,0,0.2,0,0.3,0s0.1,0,0.2,0c0.1,0,0.2,0,0.3,0s0.2-0.1,0.2-0.1c0-0.1,0-0.1-0.1-0.2c0,0-0.1-0.1-0.2-0.1
				c0,0-0.1,0-0.2,0c-0.2,0-0.3-0.1-0.5-0.1c-0.3,0-0.6-0.1-0.9-0.2c-0.1,0-0.3,0-0.5-0.1c-0.1,0-0.1,0-0.2,0c-0.1,0-0.1,0-0.2,0
				c-0.2-0.1-0.5-0.1-0.7-0.1s-0.4-0.1-0.7-0.1c-0.2,0-0.4,0-0.6-0.1c-0.1,0-0.1,0-0.2,0c-0.1,0-0.1,0-0.2,0c-0.1,0-0.2,0-0.3,0
				c-0.2,0-0.4-0.1-0.6-0.1C9.9,268,9.6,268,9.4,268H9.3H9.2c-0.1,0-0.2,0-0.3-0.1c-0.1,0-0.2,0-0.3,0s-0.2,0-0.2,0H8.3
				c-0.1,0-0.3,0-0.5-0.1c-0.1,0-0.1,0-0.2,0l0,0H7.5c0,0,0,0-0.1,0c-0.2-0.1-0.5-0.1-0.7-0.1s-0.4-0.1-0.7-0.1
				c-0.2,0-0.4,0-0.6-0.1c-0.1,0-0.1,0-0.2,0c-0.1,0-0.1,0-0.2,0c-0.1,0-0.2,0-0.3,0c-0.2,0-0.4-0.1-0.6-0.1
				c-0.2-0.1-0.5-0.1-0.7-0.1c-0.1,0-0.2,0-0.2,0c-0.1,0-0.2,0-0.3-0.1c-0.1,0-0.2,0-0.3,0c-0.3,0-0.5-0.1-0.8-0.1
				c-0.1,0-0.2,0-0.2,0c-0.1,0-0.2,0-0.4,0c-0.1,0-0.2,0-0.3,0s-0.1,0-0.2,0C0.7,267,0.6,267,0.5,267.1L0.5,267.1z"/>
		</g>
	</g>
	<g id="XMLID_301_">
		<g id="XMLID_302_">
			<path id="XMLID_303_" class="st0" d="M42.3,270.9c0,0.1,0,0.1,0.1,0.2c0,0,0.1,0,0.1,0.1c0.1,0,0.2,0,0.2,0c0.1,0,0.1,0,0.2,0
				c0.1,0,0.2,0,0.3,0s0.2,0,0.3,0s0.2,0,0.2,0c0.1,0,0.1,0,0.2,0c0.1,0,0.2,0,0.2,0c0.5,0,1,0,1.5,0c0.1,0,0.2,0,0.4,0
				c0.1,0,0.1,0,0.2,0c0.1,0,0.2,0,0.3,0c0.2,0,0.3,0,0.5,0c0.1,0,0.1,0,0.2,0c0.3,0,0.7,0,1,0c0.2,0,0.3,0,0.5,0c0.1,0,0.2,0,0.3,0
				h0.1c0.1,0,0.2,0,0.3,0s0.2,0,0.3,0s0.2,0,0.2,0c0.1,0,0.1,0,0.2,0c0.1,0,0.2,0,0.2,0c0.5,0,1,0,1.5,0c0.1,0,0.2,0,0.4,0
				c0.1,0,0.1,0,0.2,0c0.1,0,0.2,0,0.3,0c0.2,0,0.3,0,0.5,0c0.1,0,0.1,0,0.2,0c0.3,0,0.7,0,1,0c0.2,0,0.3,0,0.5,0c0.1,0,0.3,0,0.4,0
				l0,0l0,0c0.1,0,0.2,0,0.4,0c0.1,0,0.2,0,0.3,0c0.3,0,0.6,0,0.9,0c0.1,0,0.2,0,0.3,0s0.2,0,0.3,0c0,0,0.1,0,0.2,0
				c0.1,0,0.2,0,0.3-0.1s0.1-0.1,0.1-0.2s0-0.1-0.1-0.2c0,0-0.1,0-0.2-0.1c0,0-0.1,0-0.2,0c-0.2,0-0.3,0-0.5,0c-0.3,0-0.6,0-0.9,0
				c-0.2,0-0.3,0-0.5,0c-0.1,0-0.1,0-0.2,0c-0.1,0-0.1,0-0.2,0c-0.2,0-0.5,0-0.7,0s-0.5,0-0.7,0s-0.4,0-0.6,0c0,0-0.1,0-0.2,0
				c-0.1,0-0.2,0-0.2,0c-0.1,0-0.2,0-0.3,0c-0.2,0-0.4,0-0.6,0c-0.2,0-0.5,0-0.7,0h-0.1c-0.1,0-0.1,0-0.2,0c-0.1,0-0.2,0-0.3,0
				s-0.2,0-0.3,0s-0.2,0-0.2,0h-0.1c-0.2,0-0.3,0-0.5,0c-0.1,0-0.1,0-0.2,0l0,0h-0.1c0,0,0,0-0.1,0c-0.2,0-0.5,0-0.7,0s-0.5,0-0.7,0
				s-0.4,0-0.6,0c0,0-0.1,0-0.2,0c-0.1,0-0.2,0-0.2,0c-0.1,0-0.2,0-0.3,0c-0.2,0-0.4,0-0.6,0c-0.2,0-0.5,0-0.7,0c-0.1,0-0.2,0-0.2,0
				c-0.1,0-0.2,0-0.3,0s-0.2,0-0.3,0c-0.3,0-0.5,0-0.8,0c-0.1,0-0.2,0-0.2,0c-0.1,0-0.2,0-0.4,0c-0.1,0-0.2,0-0.3,0s-0.1,0-0.2,0
				c-0.2,0-0.2,0.1-0.3,0.1C42.2,270.8,42.2,270.9,42.3,270.9z"/>
		</g>
	</g>
	<g id="XMLID_296_">
		<g id="XMLID_297_">
			<g id="XMLID_298_">
				<g id="XMLID_299_">
					<path id="XMLID_300_" class="st0" d="M67.3,283.2c0,0.1-0.1,0.1-0.2,0.2c0,0-0.1,0-0.2,0.1c-0.1,0-0.3,0-0.4,0
						c-0.1,0-0.2,0-0.4,0s-0.3,0-0.5,0c-0.1,0-0.3,0-0.5,0c-0.1,0-0.3,0-0.4,0c-0.1,0-0.2,0-0.3,0s-0.3,0-0.4,0c-0.8,0-1.6,0-2.4,0
						c-0.2,0-0.4,0-0.6,0c-0.1,0-0.2,0-0.4,0c-0.1,0-0.3,0-0.4,0c-0.3,0-0.6,0-0.8,0c-0.1,0-0.2,0-0.3,0c-0.5,0-1.1,0-1.6,0
						c-0.3,0-0.5,0-0.8,0c-0.1,0-0.3,0-0.4,0c0,0-0.1,0-0.2,0c-0.2,0-0.3,0-0.5,0c-0.1,0-0.3,0-0.5,0c-0.1,0-0.3,0-0.4,0
						c-0.1,0-0.2,0-0.3,0s-0.3,0-0.4,0c-0.8,0-1.6,0-2.4,0c-0.2,0-0.4,0-0.6,0c-0.1,0-0.2,0-0.4,0c-0.1,0-0.3,0-0.4,0
						c-0.3,0-0.6,0-0.8,0c-0.1,0-0.2,0-0.3,0c-0.5,0-1.1,0-1.6,0c-0.3,0-0.5,0-0.8,0c-0.2,0-0.5,0-0.7,0c0,0,0,0-0.1,0
						c0,0,0,0-0.1,0c-0.2,0-0.4,0-0.6,0c-0.2,0-0.3,0-0.5,0c-0.5,0-1,0-1.4,0c-0.2,0-0.3,0-0.5,0s-0.3,0-0.5,0c-0.1,0-0.2,0-0.3,0
						c-0.2,0-0.4,0-0.5-0.1s-0.2-0.1-0.2-0.2c0-0.1,0-0.1,0.2-0.2c0.1,0,0.2-0.1,0.3-0.1s0.2,0,0.3,0c0.3,0,0.5,0,0.8,0
						c0.5,0,0.9,0,1.4,0c0.2,0,0.5,0,0.7,0c0.1,0,0.2,0,0.4,0c0.1,0,0.2,0,0.3,0c0.4,0,0.8,0,1.2,0s0.7,0,1.1,0c0.3,0,0.6,0,0.9,0
						c0.1,0,0.2,0,0.3,0s0.3,0,0.4,0c0.2,0,0.3,0,0.5,0c0.3,0,0.6,0,1,0s0.8,0,1.2,0c0.1,0,0.2,0,0.2,0c0.1,0,0.2,0,0.2,0
						c0.2,0,0.3,0,0.5,0s0.4,0,0.5,0s0.3,0,0.4,0c0.1,0,0.2,0,0.2,0c0.2,0,0.5,0,0.7,0c0.1,0,0.2,0,0.4,0l0,0h0.1h0.1
						c0.4,0,0.8,0,1.2,0s0.7,0,1.1,0c0.3,0,0.6,0,0.9,0c0.1,0,0.2,0,0.3,0s0.3,0,0.4,0c0.2,0,0.3,0,0.5,0c0.3,0,0.6,0,1,0
						s0.8,0,1.2,0c0.1,0,0.3,0,0.4,0c0.2,0,0.4,0,0.5,0s0.4,0,0.5,0c0.4,0,0.8,0,1.2,0c0.1,0,0.3,0,0.4,0c0.2,0,0.4,0,0.6,0
						c0.2,0,0.3,0,0.5,0c0.1,0,0.2,0,0.3,0c0.2,0,0.3,0.1,0.4,0.2C67.3,283,67.4,283.1,67.3,283.2z"/>
				</g>
			</g>
		</g>
	</g>
	<g id="XMLID_291_">
		<g id="XMLID_292_">
			<g id="XMLID_293_">
				<g id="XMLID_294_">
					<path id="XMLID_295_" class="st0" d="M47.7,283.1c-0.1,0-0.1,0-0.2-0.1c0,0,0,0-0.1-0.1v-0.1v-0.1v-0.1v-0.1v-0.1v-0.1v-0.1
						c0-0.2-0.1-0.5-0.2-0.7c0-0.1,0-0.1-0.1-0.2c0,0,0-0.1-0.1-0.1c0,0,0-0.1-0.1-0.1c0-0.1-0.1-0.1-0.1-0.2v-0.1
						c-0.1-0.1-0.2-0.3-0.3-0.4l-0.2-0.2l-0.1-0.1l0,0l-0.1-0.1l-0.1-0.1c0,0,0-0.1-0.1-0.1h-0.1c0,0-0.1,0-0.1-0.1
						c-0.2-0.1-0.4-0.3-0.7-0.4c-0.1,0-0.1-0.1-0.2-0.1h-0.1h-0.1c-0.1,0-0.2,0-0.2-0.1h-0.1c-0.2,0-0.3-0.1-0.5-0.1h-0.2
						c-0.1,0-0.2,0-0.2,0l0,0l0,0c-0.1,0-0.1,0-0.2,0c0,0-0.1,0-0.2,0c-0.1,0-0.3,0.1-0.4,0.1h-0.1c-0.1,0-0.1,0-0.2,0h-0.1
						c-0.1,0-0.1,0-0.2,0c-0.1,0-0.1-0.1-0.1-0.1c0-0.1,0-0.1,0-0.2c0,0,0-0.1,0.1-0.1c0,0,0,0,0.1,0s0.2-0.1,0.3-0.1
						c0.2,0,0.3-0.1,0.5-0.1c0.1,0,0.2,0,0.3,0h0.1h0.1c0.1,0,0.3,0,0.4,0c0.1,0,0.3,0,0.4,0c0.1,0,0.2,0,0.3,0.1h0.1h0.1h0.2
						c0.1,0,0.2,0.1,0.3,0.1s0.3,0.1,0.4,0.1c0,0,0,0,0.1,0c0,0,0,0,0.1,0c0,0,0.1,0,0.1,0.1c0,0,0.1,0.1,0.2,0.1l0.1,0.1
						c0,0,0,0,0.1,0l0.2,0.2c0,0,0.1,0,0.1,0.1l0,0l0,0l0,0c0.1,0.1,0.2,0.2,0.3,0.3c0.1,0.1,0.2,0.2,0.2,0.3
						c0.1,0.1,0.1,0.2,0.2,0.3v0.1c0,0,0,0.1,0.1,0.1l0.1,0.2c0,0.1,0.1,0.2,0.2,0.3c0.1,0.1,0.1,0.3,0.2,0.4v0.1c0,0,0,0.1,0.1,0.2
						v0.2c0,0.1,0,0.3,0,0.4v0.1c0,0.1,0,0.1,0,0.2v0.2v0.1C48,283,47.9,283.1,47.7,283.1C47.8,283.1,47.8,283.1,47.7,283.1z"/>
				</g>
			</g>
		</g>
	</g>
	<g id="XMLID_286_">
		<g id="XMLID_287_">
			<g id="XMLID_288_">
				<g id="XMLID_289_">
					<path id="XMLID_290_" class="st0" d="M61.1,278c0-0.1,0-0.1,0-0.2c0,0,0-0.1,0.1-0.1c0,0,0.1-0.1,0.2-0.1
						c0.1,0,0.1-0.1,0.2-0.1l0.2-0.1c0.1,0,0.1-0.1,0.2-0.1c0.1,0,0.1-0.1,0.2-0.1l0.1-0.1c0.1,0,0.1-0.1,0.2-0.1
						c0.4-0.3,0.7-0.6,1-1l0.2-0.3c0-0.1,0.1-0.1,0.1-0.2c0-0.1,0.1-0.1,0.1-0.2c0.1-0.1,0.1-0.3,0.2-0.4c0,0,0-0.1,0.1-0.2
						c0.1-0.3,0.2-0.6,0.2-0.9c0-0.1,0-0.3,0-0.4c0-0.1,0-0.1,0-0.2v-0.1c0-0.1-0.1-0.2-0.1-0.2c0-0.1-0.1-0.1-0.1-0.2l-0.1-0.1
						l-0.1-0.1c-0.1,0-0.1-0.1-0.2-0.1c-0.4-0.2-0.8-0.1-1.2,0.1c-0.1,0-0.2,0.1-0.3,0.2c-0.1,0-0.1,0.1-0.1,0.1
						c-0.1,0.1-0.1,0.1-0.2,0.2c-0.1,0.1-0.2,0.2-0.3,0.3l-0.1,0.1c-0.2,0.3-0.3,0.5-0.5,0.8c0,0.1-0.1,0.3-0.1,0.4
						c0,0.1-0.1,0.3-0.1,0.4l0,0l0,0c0,0.1,0,0.2,0,0.3s0,0.2,0,0.3c0,0.3,0,0.6,0.1,0.8c0,0.1,0,0.2,0.1,0.3c0,0.1,0,0.2,0.1,0.3
						c0,0.1,0,0.1,0.1,0.2c0,0.1,0.1,0.2,0,0.3c0,0.1,0,0.2-0.1,0.2s-0.1,0-0.2,0l-0.1-0.1c0,0-0.1-0.1-0.1-0.2
						c-0.1-0.2-0.1-0.3-0.2-0.5c-0.1-0.3-0.2-0.6-0.2-0.9c0-0.2,0-0.3,0-0.5c0-0.1,0-0.2,0-0.2c0-0.1,0-0.1,0-0.2
						c0-0.3,0.1-0.5,0.2-0.8c0.1-0.2,0.2-0.5,0.3-0.7c0.1-0.2,0.2-0.4,0.3-0.5l0.1-0.1c0-0.1,0.1-0.1,0.1-0.2
						c0.1-0.1,0.1-0.2,0.2-0.2c0.1-0.2,0.3-0.3,0.5-0.4c0.2-0.2,0.5-0.3,0.7-0.4c0,0,0.1,0,0.2,0c0,0,0.1,0,0.2,0c0.1,0,0.2,0,0.3,0
						s0.3,0,0.4,0c0.1,0,0.2,0.1,0.3,0.1s0.1,0,0.2,0.1c0.2,0.1,0.3,0.2,0.4,0.4c0.1,0.1,0.1,0.1,0.2,0.2l0,0v0.1v0.1
						c0.1,0.2,0.2,0.5,0.2,0.8c0,0.2,0,0.5,0,0.7c0,0.2-0.1,0.4-0.2,0.6l-0.1,0.2l-0.1,0.2l-0.1,0.3c-0.1,0.2-0.2,0.4-0.3,0.6
						c-0.1,0.2-0.3,0.4-0.4,0.6c0,0.1-0.1,0.1-0.2,0.2c-0.1,0.1-0.1,0.2-0.2,0.3c-0.1,0.1-0.2,0.2-0.3,0.2c-0.2,0.2-0.4,0.3-0.6,0.5
						c-0.1,0-0.1,0.1-0.2,0.1c-0.1,0.1-0.2,0.1-0.3,0.2c-0.1,0-0.2,0.1-0.3,0.1s-0.1,0.1-0.2,0.1c-0.2,0-0.2,0-0.3,0
						C61.1,278.1,61.1,278.1,61.1,278z"/>
				</g>
			</g>
		</g>
	</g>
	<g id="XMLID_281_">
		<g id="XMLID_282_">
			<g id="XMLID_283_">
				<g id="XMLID_284_">
					<path id="XMLID_285_" class="st0" d="M61.3,277.8L61.3,277.8l0.2-0.1c0.1,0,0.1,0,0.2,0c0.1,0,0.2,0,0.2,0h0.3
						c0.1,0,0.2,0,0.3,0s0.2,0,0.2,0c0.1,0,0.1,0,0.2,0c0.1,0,0.2,0,0.2,0c0.5,0,0.9-0.1,1.4-0.3l0.3-0.1c0.1,0,0.1-0.1,0.2-0.1
						c0.1,0,0.1-0.1,0.2-0.1c0.1-0.1,0.3-0.1,0.4-0.2c0,0,0.1-0.1,0.2-0.1c0.3-0.2,0.5-0.4,0.7-0.6c0.1-0.1,0.2-0.2,0.2-0.3
						c0-0.1,0.1-0.1,0.1-0.2c0,0,0,0,0-0.1s0-0.2,0-0.2c0-0.1,0-0.1,0-0.2s0-0.1,0-0.2c0,0,0-0.1-0.1-0.1c0-0.1-0.1-0.1-0.1-0.2
						c-0.2-0.3-0.6-0.5-1-0.6c-0.1,0-0.2,0-0.3,0s-0.1,0-0.2,0c-0.1,0-0.2,0-0.2,0c-0.2,0-0.3,0-0.5,0.1c-0.1,0-0.1,0-0.2,0
						c-0.3,0.1-0.6,0.2-0.8,0.4c-0.1,0.1-0.3,0.2-0.4,0.3c-0.1,0.1-0.2,0.2-0.3,0.2l0,0l0,0c-0.1,0.1-0.1,0.2-0.2,0.3
						c-0.1,0.1-0.1,0.2-0.2,0.2c-0.2,0.2-0.3,0.5-0.4,0.7c0,0.1-0.1,0.2-0.1,0.3c0,0.1-0.1,0.2-0.1,0.3s0,0.1,0,0.2
						c0,0.1-0.1,0.2-0.1,0.3c-0.1,0.1-0.1,0.1-0.2,0.1c-0.1,0-0.1,0-0.2-0.2c0-0.1,0-0.1,0-0.2s0-0.1,0-0.2c0-0.2,0.1-0.3,0.2-0.5
						c0.1-0.3,0.2-0.6,0.4-0.8c0.1-0.1,0.2-0.3,0.3-0.4c0-0.1,0.1-0.1,0.2-0.2l0.1-0.1c0.2-0.2,0.4-0.4,0.6-0.5
						c0.2-0.1,0.4-0.3,0.6-0.4c0.2-0.1,0.4-0.2,0.6-0.2h0.2c0.1,0,0.2,0,0.2-0.1c0.1,0,0.2,0,0.3-0.1c0.2,0,0.4-0.1,0.6-0.1
						c0.2,0,0.5,0,0.8,0.1c0,0,0.1,0,0.1,0.1c0,0,0.1,0,0.2,0.1c0.1,0,0.2,0.1,0.3,0.2s0.2,0.2,0.3,0.3c0.1,0.1,0.1,0.2,0.2,0.2
						c0,0,0.1,0.1,0.1,0.2c0.1,0.2,0.1,0.3,0.1,0.5c0,0.1,0,0.2,0,0.3l0,0v0.1c0,0,0,0,0,0.1c0,0.3-0.1,0.5-0.3,0.8
						c-0.1,0.2-0.3,0.4-0.4,0.6c-0.1,0.1-0.3,0.3-0.5,0.4l-0.1,0.1l-0.2,0.1l-0.3,0.2c-0.2,0.1-0.4,0.2-0.6,0.3
						c-0.2,0.1-0.5,0.2-0.7,0.2c-0.1,0-0.2,0-0.3,0s-0.2,0.1-0.3,0.1s-0.2,0-0.3,0c-0.3,0-0.5,0-0.8,0c-0.1,0-0.2,0-0.3,0
						s-0.3,0-0.4-0.1c-0.1,0-0.2,0-0.3,0s-0.1,0-0.2,0c-0.2-0.1-0.2-0.1-0.2-0.2C61.4,277.9,61.3,277.9,61.3,277.8z"/>
				</g>
			</g>
		</g>
	</g>
	<g id="XMLID_276_">
		<g id="XMLID_277_">
			<g id="XMLID_278_">
				<g id="XMLID_279_">
					<path id="XMLID_280_" class="st0" d="M58,277.8c0-0.1,0-0.1,0-0.2c0,0,0,0,0-0.1l0,0l0,0c0,0,0,0,0.1,0c0,0,0,0,0.1,0l0,0l0,0
						l0,0c0.1,0,0.2,0,0.3,0c0,0,0,0,0.1,0l0,0l0,0h0.1l0,0c0.1,0,0.1,0,0.2,0H59l0,0l0,0c0,0,0,0,0.1,0s0,0,0.1,0l0,0l0,0l0,0
						c0.1,0,0.2,0,0.3,0c0,0,0,0,0.1,0l0,0l0,0h0.1l0,0c0.1,0,0.1,0,0.2,0H60h0.1l0,0l0,0c0,0,0,0,0.1,0c0,0,0,0,0.1,0s0.1,0,0.2,0
						c0,0,0,0,0.1,0s0,0,0.1,0l0,0c0,0,0,0,0.1,0.1c0,0.1,0,0.1,0,0.2c0,0.1,0,0.1,0,0.2v0.1l0,0h-0.1c-0.1,0-0.1,0-0.2,0h-0.1l0,0
						l0,0h-0.1h-0.1h-0.1l0,0l0,0c0,0,0,0-0.1,0h-0.1h-0.1l0,0l0,0c0,0,0,0-0.1,0s0,0-0.1,0l0,0l0,0h-0.1l0,0l0,0l0,0l0,0h-0.1h-0.1
						h-0.1l0,0l0,0c0,0,0,0-0.1,0H59h-0.1l0,0c0,0,0,0-0.1,0c0,0,0,0-0.1,0c0,0-0.1,0-0.2,0l0,0c0,0,0,0-0.1,0c0,0,0,0-0.1,0l0,0
						c0,0,0-0.1-0.1-0.1C57.9,278,57.9,277.9,58,277.8z"/>
				</g>
			</g>
		</g>
	</g>
	<g id="XMLID_271_">
		<g id="XMLID_272_">
			<g id="XMLID_273_">
				<g id="XMLID_274_">
					<path id="XMLID_275_" class="st0" d="M60,279.9c0-0.1,0-0.1,0-0.2c0,0,0,0,0-0.1c0,0,0,0,0.1,0c0,0,0,0,0.1,0c0,0,0,0,0.1,0
						s0,0,0.1,0c0,0,0,0,0.1,0l0,0c0,0,0,0,0.1,0s0.3,0,0.4,0h0.1c0,0,0,0,0.1,0c0,0,0,0,0.1,0h0.1l0,0c0.1,0,0.2,0,0.3,0h0.1
						c0,0,0,0,0.1,0l0,0c0,0,0,0,0.1,0c0,0,0,0,0.1,0c0,0,0,0,0.1,0l0,0c0,0,0,0,0.1,0s0.3,0,0.4,0h0.1c0,0,0,0,0.1,0c0,0,0,0,0.1,0
						h0.1l0,0c0.1,0,0.2,0,0.3,0h0.1h0.1l0,0l0,0h0.1h0.1c0.1,0,0.2,0,0.2,0s0,0,0.1,0h0.1l0,0c0,0,0.1,0,0.1,0.1c0,0.1,0,0.1,0,0.2
						s0,0.1,0,0.2v0.1l0,0h-0.1c-0.1,0-0.1,0-0.2,0h-0.1c0,0,0,0-0.1,0l0,0c-0.1,0-0.1,0-0.2,0s-0.1,0-0.2,0h-0.1l0,0c0,0,0,0-0.1,0
						s0,0-0.1,0s-0.1,0-0.2,0c-0.1,0-0.1,0-0.2,0l0,0l0,0c0,0,0,0-0.1,0h-0.1c0,0,0,0-0.1,0l0,0h-0.1c0,0,0,0-0.1,0l0,0l0,0l0,0
						c-0.1,0-0.1,0-0.2,0s-0.1,0-0.2,0h-0.1l0,0c0,0,0,0-0.1,0s0,0-0.1,0s-0.1,0-0.2,0c-0.1,0-0.1,0-0.2,0c0,0,0,0-0.1,0
						s-0.1,0-0.1,0h-0.1c-0.1,0-0.1,0-0.2,0c0,0,0,0-0.1,0h-0.1c0,0,0,0-0.1,0l0,0c0,0,0-0.1-0.1-0.2C60.1,280,60,280,60,279.9z"/>
				</g>
			</g>
		</g>
	</g>
	<g id="XMLID_266_">
		<g id="XMLID_267_">
			<g id="XMLID_268_">
				<g id="XMLID_269_">
					<path id="XMLID_270_" class="st0" d="M24.5,283.1c0,0-0.1,0.1-0.2,0.1c0,0-0.1,0-0.2,0c-0.1,0-0.3,0-0.4,0c-0.1,0-0.2,0-0.4,0
						s-0.3,0-0.5-0.1c-0.1,0-0.3,0-0.4-0.1c-0.1,0-0.3-0.1-0.4-0.1c-0.1,0-0.2,0-0.3,0s-0.3,0-0.4-0.1c-0.8-0.1-1.6-0.2-2.3-0.3
						c-0.2,0-0.4-0.1-0.6-0.1c-0.1,0-0.2,0-0.4,0c-0.1,0-0.3,0-0.4-0.1c-0.3,0-0.5-0.1-0.8-0.1c-0.1,0-0.2,0-0.3,0
						c-0.5-0.1-1.1-0.1-1.6-0.2c-0.3,0-0.5-0.1-0.8-0.1c-0.1,0-0.3,0-0.4-0.1c0,0-0.1,0-0.2,0c-0.2,0-0.3,0-0.5-0.1
						c-0.1,0-0.3,0-0.4-0.1c-0.1,0-0.3-0.1-0.4-0.1c-0.1,0-0.2,0-0.3,0s-0.3,0-0.4-0.1c-0.8-0.1-1.6-0.2-2.3-0.3
						c-0.2,0-0.4-0.1-0.6-0.1c-0.1,0-0.2,0-0.4,0c-0.1,0-0.3,0-0.4-0.1c-0.3,0-0.5-0.1-0.8-0.1c-0.1,0-0.2,0-0.3,0
						c-0.5-0.1-1.1-0.1-1.6-0.2c-0.3,0-0.5-0.1-0.8-0.1c-0.2,0-0.5-0.1-0.7-0.1c0,0,0,0-0.1,0c0,0,0,0-0.1,0c-0.2,0-0.4,0-0.6-0.1
						c-0.2,0-0.3-0.1-0.5-0.1c-0.5-0.1-1-0.1-1.4-0.2c-0.2,0-0.3,0-0.5-0.1c-0.2,0-0.3-0.1-0.5-0.1c-0.1,0-0.2,0-0.3,0
						c-0.2,0-0.4-0.1-0.5-0.1c-0.1-0.1-0.2-0.1-0.2-0.2s0.1-0.1,0.2-0.2c0.1,0,0.2,0,0.3,0s0.2,0,0.3,0c0.3,0,0.5,0.1,0.8,0.1
						c0.5,0.1,0.9,0.1,1.4,0.2c0.2,0,0.5,0.1,0.7,0.1c0.1,0,0.2,0,0.4,0c0.1,0,0.2,0,0.3,0c0.4,0,0.8,0.1,1.1,0.2
						c0.4,0,0.7,0.1,1.1,0.1c0.3,0,0.6,0.1,0.9,0.2c0.1,0,0.2,0,0.2,0c0.1,0,0.3,0,0.4,0c0.2,0,0.3,0,0.5,0.1c0.3,0,0.6,0.1,0.9,0.1
						c0.4,0,0.8,0.1,1.2,0.1c0.1,0,0.1,0,0.2,0c0.1,0,0.2,0,0.2,0c0.2,0,0.3,0,0.5,0s0.4,0.1,0.5,0.1s0.3,0,0.4,0.1
						c0.1,0,0.2,0,0.2,0c0.2,0,0.5,0.1,0.7,0.1c0.1,0,0.2,0,0.4,0l0,0h0.1h0.1c0.4,0,0.8,0.1,1.1,0.2c0.4,0,0.7,0.1,1.1,0.1
						c0.3,0,0.6,0.1,0.9,0.2c0.1,0,0.2,0,0.2,0c0.1,0,0.3,0,0.4,0c0.2,0,0.3,0,0.5,0.1c0.3,0,0.6,0.1,0.9,0.1c0.4,0,0.8,0.1,1.2,0.1
						c0.1,0,0.3,0,0.4,0.1c0.2,0,0.4,0,0.5,0.1c0.2,0,0.4,0.1,0.5,0.1c0.4,0.1,0.8,0.1,1.2,0.2c0.1,0,0.3,0,0.4,0
						c0.2,0,0.4,0.1,0.6,0.1c0.1,0,0.3,0,0.5,0.1c0.1,0,0.2,0,0.3,0.1c0.2,0.1,0.3,0.1,0.4,0.2C24.5,282.9,24.6,282.9,24.5,283.1z"
						/>
				</g>
			</g>
		</g>
	</g>
	<g id="XMLID_261_">
		<g id="XMLID_262_">
			<g id="XMLID_263_">
				<g id="XMLID_264_">
					<path id="XMLID_265_" class="st0" d="M5,280.1c0,0-0.1,0-0.1-0.1c0,0,0,0,0-0.1v-0.1v-0.1v-0.1v-0.1v-0.1v-0.1v-0.1
						c0-0.2,0-0.5-0.1-0.7c0-0.1,0-0.1,0-0.2v-0.1v-0.1c0-0.1,0-0.2-0.1-0.2v-0.1c-0.1-0.2-0.1-0.3-0.2-0.5l-0.1-0.2
						c0,0,0-0.1-0.1-0.1l0,0l-0.1-0.1l-0.1-0.1c0,0,0-0.1-0.1-0.1c0,0,0,0-0.1-0.1c0,0,0-0.1-0.1-0.1c-0.2-0.2-0.4-0.3-0.6-0.5
						c0,0-0.1-0.1-0.2-0.1H2.9c0,0-0.1,0-0.1-0.1c-0.1,0-0.1-0.1-0.2-0.1H2.5c-0.2-0.1-0.3-0.1-0.5-0.1H1.8c-0.1,0-0.1,0-0.2,0l0,0
						l0,0c-0.1,0-0.1,0-0.2,0c0,0-0.1,0-0.2,0c-0.2,0-0.3,0-0.5,0H0.6c0,0-0.1,0-0.2,0H0.3c0,0-0.1,0-0.2,0S0,275.5,0,275.4
						c0-0.1,0-0.1,0-0.2c0,0,0-0.1,0.1-0.1h0.1c0.1,0,0.2,0,0.3,0c0.2,0,0.3,0,0.5,0c0.1,0,0.2,0,0.3,0h0.1h0.1c0.1,0,0.3,0,0.4,0
						c0.1,0,0.3,0,0.4,0.1c0.1,0,0.2,0.1,0.3,0.1h0.1h0.1l0.2,0.1c0.1,0,0.2,0.1,0.3,0.1s0.2,0.1,0.4,0.2c0,0,0,0,0.1,0
						c0,0,0,0,0.1,0.1l0.1,0.1l0.1,0.1l0.1,0.1c0,0,0,0,0.1,0.1l0.2,0.2l0.1,0.1l0,0l0,0l0,0c0.1,0.1,0.2,0.2,0.2,0.3
						c0.1,0.1,0.1,0.2,0.2,0.3c0,0.1,0.1,0.2,0.1,0.3v0.1c0,0,0,0.1,0.1,0.1l0.1,0.2c0,0.1,0.1,0.2,0.1,0.3c0.1,0.1,0.1,0.3,0.1,0.4
						v0.1c0,0.1,0,0.1,0,0.2v0.2c0,0.1,0,0.3,0,0.4v0.1c0,0.1,0,0.1,0,0.2v0.2v0.1c0,0.1-0.1,0.1-0.2,0.1
						C5.2,280.1,5.1,280.1,5,280.1z"/>
				</g>
			</g>
		</g>
	</g>
	<g id="XMLID_252_">
		<g id="XMLID_253_">
			<g id="XMLID_254_">
				<g id="XMLID_255_">
					<path id="XMLID_260_" class="st0" d="M19.1,277.1c0-0.1,0-0.1,0.1-0.2c0,0,0-0.1,0.1-0.1s0.1,0,0.2-0.1c0.1,0,0.1-0.1,0.2-0.1
						l0.3-0.1c0.1,0,0.2-0.1,0.2-0.1c0.1,0,0.1,0,0.2-0.1c0,0,0.1-0.1,0.2-0.1c0.1,0,0.1-0.1,0.2-0.1c0.4-0.2,0.8-0.5,1.1-0.9
						l0.2-0.2c0.1-0.1,0.1-0.1,0.1-0.2s0.1-0.1,0.1-0.2c0.1-0.1,0.2-0.3,0.3-0.4c0,0,0.1-0.1,0.1-0.2c0.1-0.3,0.3-0.6,0.3-0.9
						c0-0.1,0-0.3,0-0.4s0-0.1,0-0.2v-0.1c0-0.1,0-0.2-0.1-0.2c0-0.1-0.1-0.1-0.1-0.2c0-0.1-0.1-0.1-0.1-0.2l-0.1-0.1
						c-0.1,0-0.1-0.1-0.2-0.1c-0.3-0.2-0.8-0.2-1.2,0c-0.1,0-0.2,0.1-0.3,0.1s-0.1,0.1-0.2,0.1c-0.1,0-0.1,0.1-0.2,0.1
						c-0.1,0.1-0.2,0.2-0.4,0.3l-0.1,0.1c-0.2,0.2-0.4,0.5-0.6,0.8c-0.1,0.1-0.1,0.3-0.2,0.4c-0.1,0.1-0.1,0.3-0.2,0.4l0,0l0,0
						c0,0.1,0,0.2-0.1,0.3c0,0.1,0,0.2-0.1,0.3c0,0.3,0,0.6,0,0.8c0,0.1,0,0.2,0,0.3c0,0.1,0,0.2,0,0.3s0,0.1,0,0.2
						c0,0.1,0,0.2,0,0.3s-0.1,0.2-0.1,0.2c-0.1,0-0.1,0-0.2-0.1c0,0-0.1-0.1-0.1-0.2c0-0.1,0-0.1-0.1-0.2c-0.1-0.2-0.1-0.3-0.1-0.5
						c0-0.3-0.1-0.6,0-0.9c0-0.2,0-0.3,0.1-0.5c0-0.1,0-0.2,0-0.2c0-0.1,0-0.1,0.1-0.2c0.1-0.2,0.2-0.5,0.3-0.7s0.2-0.4,0.4-0.6
						c0.1-0.2,0.3-0.3,0.4-0.5l0.1-0.1c0.1-0.1,0.1-0.1,0.2-0.2c0.1-0.1,0.2-0.1,0.3-0.2c0.2-0.1,0.3-0.3,0.5-0.4s0.5-0.2,0.8-0.3
						c0,0,0.1,0,0.2,0c0,0,0.1,0,0.2,0c0.1,0,0.2,0,0.3,0s0.3,0.1,0.4,0.1c0.1,0,0.2,0.1,0.3,0.1l0.1,0.1c0.1,0.1,0.3,0.3,0.4,0.4
						c0,0.1,0.1,0.2,0.1,0.2l0,0v0.1v0.1c0.1,0.3,0.1,0.5,0.1,0.8c0,0.2,0,0.5-0.1,0.7c-0.1,0.2-0.2,0.4-0.3,0.6l-0.1,0.1l-0.1,0.2
						l-0.2,0.3c-0.1,0.2-0.2,0.3-0.4,0.5c-0.1,0.2-0.3,0.4-0.5,0.6c-0.1,0.1-0.1,0.1-0.2,0.2c-0.1,0.1-0.2,0.2-0.3,0.2
						c-0.1,0.1-0.2,0.1-0.3,0.2c-0.2,0.1-0.5,0.3-0.7,0.4c-0.1,0-0.1,0.1-0.2,0.1c-0.1,0-0.2,0.1-0.4,0.1c-0.1,0-0.2,0.1-0.3,0.1
						s-0.1,0-0.2,0C19.3,277.2,19.2,277.2,19.1,277.1L19.1,277.1z"/>
				</g>
			</g>
		</g>
	</g>
	<g id="XMLID_247_">
		<g id="XMLID_248_">
			<g id="XMLID_249_">
				<g id="XMLID_250_">
					<path id="XMLID_251_" class="st0" d="M19.3,277c0,0,0.1-0.1,0.2-0.1h0.1c0.1,0,0.1,0,0.2,0.1c0.1,0,0.2,0,0.2,0l0.3,0.1
						c0.1,0,0.2,0,0.3,0.1c0.1,0,0.1,0,0.2,0c0.1,0,0.1,0,0.2,0c0.1,0,0.2,0,0.2,0c0.5,0,0.9,0,1.4-0.1l0.3-0.1c0.1,0,0.1,0,0.2-0.1
						c0.1,0,0.2,0,0.2-0.1c0.1,0,0.3-0.1,0.5-0.2c0.1,0,0.1,0,0.2-0.1c0.3-0.1,0.5-0.3,0.8-0.5c0.1-0.1,0.2-0.2,0.3-0.3
						c0-0.1,0.1-0.1,0.1-0.2c0,0,0,0,0-0.1c0-0.1,0.1-0.1,0.1-0.2s0-0.1,0-0.2c0-0.1,0-0.1,0-0.2s0-0.1,0-0.2c0-0.1,0-0.1-0.1-0.2
						c-0.1-0.4-0.5-0.6-0.9-0.7c-0.1,0-0.2-0.1-0.3-0.1s-0.1,0-0.2,0c-0.1,0-0.2,0-0.2,0c-0.1,0-0.3,0-0.5,0c-0.1,0-0.1,0-0.2,0
						c-0.3,0-0.6,0.1-0.9,0.3c-0.1,0.1-0.3,0.1-0.4,0.2c-0.1,0.1-0.2,0.2-0.3,0.2l0,0l0,0c-0.1,0.1-0.2,0.2-0.3,0.2
						c-0.1,0.1-0.2,0.1-0.2,0.2c-0.2,0.2-0.4,0.4-0.5,0.7c-0.1,0.1-0.1,0.2-0.1,0.2c0,0.1-0.1,0.2-0.1,0.3c0,0,0,0.1-0.1,0.1
						c0,0.1-0.1,0.2-0.2,0.2c-0.1,0.1-0.1,0.1-0.2,0.1c-0.1,0-0.1-0.1-0.1-0.2s0-0.1,0-0.2c0-0.1,0-0.1,0.1-0.2
						c0.1-0.2,0.1-0.3,0.2-0.5c0.2-0.3,0.3-0.5,0.5-0.8c0.1-0.1,0.2-0.2,0.3-0.3s0.1-0.1,0.2-0.2l0.1-0.1c0.2-0.2,0.4-0.3,0.6-0.4
						c0.2-0.1,0.4-0.2,0.7-0.3c0.2-0.1,0.4-0.1,0.6-0.1H23c0.1,0,0.2,0,0.3,0s0.2,0,0.3,0c0.2,0,0.4,0,0.6,0c0.2,0,0.5,0.1,0.8,0.2
						l0.1,0.1l0.1,0.1c0.1,0.1,0.2,0.1,0.3,0.2s0.2,0.2,0.3,0.3c0.1,0.1,0.1,0.2,0.1,0.3c0,0,0,0.1,0.1,0.2c0,0.2,0.1,0.4,0,0.5
						c0,0.1,0,0.2,0,0.3l0,0v0.1c0,0,0,0,0,0.1c-0.1,0.3-0.2,0.5-0.4,0.7c-0.1,0.2-0.3,0.4-0.5,0.5s-0.4,0.2-0.5,0.3l-0.1,0.1
						l-0.2,0.1l-0.3,0.1c-0.2,0.1-0.4,0.1-0.6,0.2c-0.2,0.1-0.5,0.1-0.7,0.1c-0.1,0-0.2,0-0.3,0s-0.2,0-0.4,0s-0.2,0-0.4,0
						c-0.3,0-0.5,0-0.8-0.1c-0.1,0-0.2,0-0.2,0c-0.1,0-0.2-0.1-0.4-0.1c-0.1,0-0.2,0-0.3-0.1c-0.1,0-0.1,0-0.2-0.1
						C19.4,277.2,19.4,277.1,19.3,277C19.4,277,19.3,277,19.3,277z"/>
				</g>
			</g>
		</g>
	</g>
	<g id="XMLID_242_">
		<g id="XMLID_243_">
			<g id="XMLID_244_">
				<g id="XMLID_245_">
					<path id="XMLID_246_" class="st0" d="M15.9,276.5c0-0.1,0-0.1,0-0.2c0,0,0,0,0-0.1l0,0l0,0c0,0,0,0,0.1,0c0,0,0,0,0.1,0l0,0
						l0,0l0,0c0.1,0,0.2,0,0.3,0c0,0,0,0,0.1,0l0,0l0,0h0.1l0,0c0.1,0,0.1,0,0.2,0h0.1l0,0l0,0c0,0,0,0,0.1,0s0,0,0.1,0l0,0l0,0l0,0
						c0.1,0,0.2,0,0.3,0c0,0,0,0,0.1,0l0,0l0,0h0.1l0,0c0.1,0,0.1,0,0.2,0h0.1H18l0,0l0,0c0,0,0,0,0.1,0c0,0,0,0,0.1,0s0.1,0,0.2,0
						c0,0,0,0,0.1,0c0,0,0,0,0.1,0l0,0c0,0,0,0,0.1,0.1c0,0.1,0,0.1,0,0.2s0,0.1,0,0.2c0,0,0,0,0,0.1l0,0h-0.1c0,0-0.1,0-0.2,0h-0.1
						l0,0l0,0h-0.1h-0.1H18l0,0l0,0c0,0,0,0-0.1,0h-0.1h-0.1l0,0l0,0c0,0,0,0-0.1,0s0,0-0.1,0l0,0l0,0h-0.1l0,0l0,0l0,0l0,0h-0.1
						h-0.1h-0.1l0,0l0,0c0,0,0,0-0.1,0h-0.1h-0.1l0,0c0,0,0,0-0.1,0s0,0-0.1,0s-0.1,0-0.2,0l0,0c0,0,0,0-0.1,0c0,0,0,0-0.1,0l0,0
						c0,0,0-0.1,0-0.2C15.9,276.5,15.9,276.5,15.9,276.5z"/>
				</g>
			</g>
		</g>
	</g>
	<g id="XMLID_237_">
		<g id="XMLID_238_">
			<g id="XMLID_239_">
				<g id="XMLID_240_">
					<path id="XMLID_241_" class="st0" d="M17.7,278.8c0,0,0-0.1,0-0.2c0,0,0,0,0-0.1c0,0,0,0,0.1,0c0,0,0,0,0.1,0c0,0,0,0,0.1,0
						c0,0,0,0,0.1,0c0,0,0,0,0.1,0l0,0c0,0,0,0,0.1,0s0.3,0,0.4,0h0.1c0,0,0,0,0.1,0c0,0,0,0,0.1,0h0.1l0,0c0.1,0,0.2,0,0.3,0h0.1
						c0,0,0,0,0.1,0l0,0c0,0,0,0,0.1,0c0,0,0,0,0.1,0c0,0,0,0,0.1,0l0,0c0,0,0,0,0.1,0s0.3,0,0.4,0h0.1c0,0,0,0,0.1,0c0,0,0,0,0.1,0
						h0.1l0,0c0.1,0,0.2,0,0.3,0h0.1h0.1l0,0l0,0h0.1h0.1c0.1,0,0.2,0,0.2,0s0,0,0.1,0h0.1l0,0c0,0,0.1,0,0.1,0.1s0,0.1,0,0.2
						c0,0.1,0,0.1,0,0.2c0,0,0,0,0,0.1c0,0.1,0,0,0,0h-0.1c-0.1,0-0.2,0-0.2,0h-0.1c0,0,0,0-0.1,0l0,0c-0.1,0-0.1,0-0.2,0
						s-0.1,0-0.2,0H21l0,0c0,0,0,0-0.1,0s0,0-0.1,0s-0.1,0-0.2,0c-0.1,0-0.1,0-0.2,0l0,0l0,0c0,0,0,0-0.1,0h-0.1c0,0,0,0-0.1,0l0,0
						H20c0,0,0,0-0.1,0l0,0l0,0l0,0c-0.1,0-0.1,0-0.2,0s-0.1,0-0.2,0h-0.1l0,0c0,0,0,0-0.1,0s0,0-0.1,0s-0.1,0-0.2,0
						c-0.1,0-0.1,0-0.2,0c0,0,0,0-0.1,0h-0.1h-0.1c-0.1,0-0.1,0-0.2,0c0,0,0,0-0.1,0h-0.1c0,0,0,0-0.1,0l0,0c0,0,0-0.1,0-0.2
						C17.8,278.9,17.7,278.8,17.7,278.8z"/>
				</g>
			</g>
		</g>
	</g>
</g>
<polygon class="st1" points="196,257 198.2,274.8 216.7,273.6 216.7,255.2 "/>
<g id="XMLID_786_">
	<g id="XMLID_787_">
		<g id="XMLID_788_">
			<polygon id="XMLID_789_" class="st8" points="216.7,273.6 217.2,286.2 185.4,287 197.9,275 			"/>
		</g>
	</g>
</g>
<g id="XMLID_781_">
	<g id="XMLID_782_">
		<g id="XMLID_783_">
			<g id="XMLID_784_">
				<path id="XMLID_785_" class="st0" d="M187.8,284.7c0.1-0.1,0.2-0.1,0.5-0.2c0.1,0,0.3,0,0.4,0c0.2,0,0.4,0,0.6,0s0.4,0,0.7,0
					c0.1,0,0.3,0,0.4,0c0.5,0,0.9-0.1,1.4-0.1c0.2,0,0.4,0,0.6,0s0.4,0,0.6,0c0.1,0,0.3,0,0.5,0c0.4,0,0.9-0.1,1.3,0
					c0.4,0,0.7,0,1.1,0c0.2,0,0.4,0,0.6,0c0.1,0,0.3,0,0.4,0s0.2,0,0.3,0c0.3,0,0.7-0.1,1.1-0.1s0.8,0,1.2,0c0.4,0,0.9,0,1.3,0h0.1
					c0.1,0,0.1,0,0.1,0s0,0,0.1,0s0.3,0,0.4,0c0.3,0,0.6,0,0.8,0c0.1,0,0.2,0,0.3,0c0.1,0,0.3,0,0.4,0c0.2,0,0.4,0,0.6,0
					s0.3,0,0.5,0c0.1,0,0.2,0,0.3,0c0.1,0,0.2,0,0.3,0c0.4,0,0.9-0.1,1.3,0c0.4,0,0.7,0,1.1,0c0.2,0,0.4,0,0.6,0c0.1,0,0.3,0,0.4,0
					s0.2,0,0.3,0c0.3,0,0.7-0.1,1.1-0.1s0.8,0,1.2,0c0.4,0,0.9,0,1.3,0c0.1,0,0.2,0,0.3,0c0.1,0,0.3,0,0.4,0c0.3,0,0.6,0,0.8,0
					c0.5,0,1.1,0,1.6,0c0.3,0,0.6,0,0.9,0c0.1,0,0.2,0,0.3,0c0.1,0,0.2,0,0.3,0.1c0.2,0.1,0.3,0.1,0.3,0.2s-0.1,0.1-0.3,0.2
					c-0.1,0.1-0.3,0.1-0.5,0.1c-0.1,0-0.2,0-0.3,0c-0.2,0-0.4,0-0.6,0s-0.4,0-0.6,0c-0.6,0-1.1,0-1.6,0c-0.2,0-0.4,0-0.6,0
					s-0.4,0-0.7,0h-0.1h-0.1c-0.2,0-0.5,0-0.8,0s-0.6,0-0.9,0c-0.6,0-1.2,0-1.9,0c-0.1,0-0.2,0-0.4,0c-0.3,0-0.6,0-0.9,0
					c-0.1,0-0.3,0-0.5,0c-0.1,0-0.3,0-0.4,0c-0.2,0-0.5,0-0.7,0c-0.9,0-1.8,0-2.7,0.1c-0.1,0-0.3,0-0.4,0s-0.2,0-0.4,0
					c-0.1,0-0.3,0-0.4,0c-0.2,0-0.3,0-0.5,0s-0.4,0-0.6,0c-0.1,0-0.1,0-0.2,0c-0.2,0-0.3,0-0.5,0c-0.3,0-0.6,0-0.9,0
					c-0.6,0-1.2,0-1.9,0c-0.1,0-0.2,0-0.4,0c-0.3,0-0.6,0-0.9,0c-0.1,0-0.3,0-0.5,0s-0.3,0-0.4,0c-0.2,0-0.5,0-0.7,0
					c-0.9,0-1.8,0-2.7,0.1c-0.1,0-0.3,0-0.4,0s-0.2,0-0.4,0c-0.1,0-0.3,0-0.4,0c-0.2,0-0.3,0-0.5,0s-0.4,0-0.6,0s-0.3,0-0.5,0
					c-0.1,0-0.3,0-0.4,0s-0.1,0-0.2-0.1s-0.2-0.1-0.2-0.2C187.7,284.8,187.8,284.8,187.8,284.7z"/>
			</g>
		</g>
	</g>
</g>
<g id="XMLID_776_">
	<g id="XMLID_777_">
		<g id="XMLID_778_">
			<g id="XMLID_779_">
				<path id="XMLID_780_" class="st0" d="M198.4,278.8c0,0.1,0,0.1-0.1,0.2c0,0,0,0-0.1,0c0,0,0,0-0.1,0H198c0,0,0,0-0.1,0
					s-0.1,0-0.2,0h-0.1h-0.1c0,0,0,0-0.1,0s-0.1,0-0.2,0h-0.1H197c0,0,0,0-0.1,0s0,0,0,0h-0.1c-0.1,0-0.1,0-0.1,0
					c-0.1,0-0.1,0-0.2,0l0,0l0,0l0,0c0,0,0,0-0.1,0h-0.1l0,0c0,0,0,0-0.1,0s-0.1,0-0.1,0s0,0-0.1,0l0,0l0,0c-0.1,0-0.1,0-0.2,0h-0.1
					h-0.1c0,0,0,0-0.1,0l0,0h-0.1c-0.1,0-0.1,0-0.1,0c-0.1,0-0.1,0-0.2,0l0,0c0,0,0,0-0.1,0h-0.1c-0.1,0-0.1-0.1-0.2,0h-0.1l0,0
					v-0.1c0-0.1,0-0.1,0-0.2c0-0.1,0-0.1,0.1-0.2c0-0.1,0.1-0.1,0.1-0.1l0,0h0.1c0,0,0,0,0.1,0s0.1,0,0.2,0h0.1h0.1l0,0l0,0h0.1h0.1
					c0.1,0,0.1,0,0.2,0c0,0,0,0,0.1,0h0.1c0,0,0,0,0.1,0c0,0,0,0,0.1,0h0.1c0.1,0,0.2,0,0.3,0c0,0,0,0,0.1,0l0,0c0,0,0,0,0.1,0
					c0,0,0,0,0.1,0h0.1l0,0c0,0,0,0,0.1,0h0.1c0.1,0,0.1,0,0.2,0c0,0,0,0,0.1,0h0.1c0,0,0,0,0.1,0c0,0,0,0,0.1,0h0.1
					c0.1,0,0.2,0,0.3,0c0,0,0,0,0.1,0s0,0,0,0s0,0,0.1,0c0,0,0,0,0.1,0h0.1c0,0,0,0,0.1,0c0,0,0,0,0.1,0v0.1c0,0.1,0,0.1,0,0.2
					C198.4,278.7,198.4,278.8,198.4,278.8z"/>
			</g>
		</g>
	</g>
</g>
<g id="XMLID_775_">
	<polygon class="st1" points="124.1,255.4 120.2,273.8 139.1,273.3 140.1,255.4 	"/>
</g>
<polygon class="st5" points="155.3,121.9 152.4,123.2 103.2,263.9 240,263.9 209,121.9 192.6,121.9 "/>
<g>
	<path class="st9" d="M144.2,263.2"/>
	<path class="st9" d="M163.7,111.8"/>
</g>
<line class="st10" x1="150.5" y1="127.1" x2="188.2" y2="127.1"/>
<g id="XMLID_771_">
	<g id="XMLID_772_">
		<g id="XMLID_773_">
			<polygon id="XMLID_774_" class="st8" points="139.1,273.3 138.8,285.9 107.1,285.1 120.2,273.8 			"/>
		</g>
	</g>
</g>
<g id="XMLID_766_">
	<g id="XMLID_767_">
		<g id="XMLID_768_">
			<g id="XMLID_769_">
				<path id="XMLID_770_" class="st0" d="M109.6,282.9c0.1-0.1,0.2-0.1,0.5-0.2c0.1,0,0.3,0,0.4,0c0.2,0,0.4,0,0.6,0
					c0.2,0,0.4,0,0.7,0c0.1,0,0.3,0,0.4,0c0.5,0,0.9,0,1.4,0c0.2,0,0.4,0,0.6,0c0.2,0,0.4,0,0.6,0c0.1,0,0.3,0,0.5,0
					c0.4,0,0.9,0,1.3,0.1c0.4,0,0.7,0,1.1,0c0.2,0,0.4,0,0.6,0c0.1,0,0.3,0,0.4,0c0.1,0,0.2,0,0.3,0c0.3,0,0.7,0,1.1,0
					c0.4,0,0.8,0,1.2,0s0.9,0,1.3,0h0.1c0.1,0,0.1,0,0.1,0s0,0,0.1,0s0.3,0,0.4,0c0.3,0,0.6,0,0.8,0c0.1,0,0.2,0,0.3,0s0.3,0,0.4,0
					c0.2,0,0.4,0,0.6,0c0.2,0,0.3,0,0.5,0c0.1,0,0.2,0,0.3,0s0.2,0,0.3,0c0.4,0,0.9,0,1.3,0.1c0.4,0,0.7,0,1.1,0c0.2,0,0.4,0,0.6,0
					c0.1,0,0.3,0,0.4,0c0.1,0,0.2,0,0.3,0c0.3,0,0.7,0,1.1,0c0.4,0,0.8,0,1.2,0s0.9,0,1.3,0c0.1,0,0.2,0,0.3,0s0.3,0,0.4,0
					c0.3,0,0.6,0,0.8,0c0.5,0,1.1,0.1,1.6,0.1c0.3,0,0.6,0,0.9,0c0.1,0,0.2,0,0.3,0s0.2,0.1,0.3,0.1c0.2,0.1,0.3,0.1,0.2,0.2
					c0,0.1-0.1,0.1-0.3,0.2c-0.1,0.1-0.3,0.1-0.6,0.1c-0.1,0-0.2,0-0.3,0c-0.2,0-0.4,0-0.6,0c-0.2,0-0.4,0-0.6,0
					c-0.6,0-1.1,0-1.6-0.1c-0.2,0-0.4,0-0.6,0c-0.2,0-0.4,0-0.7,0h-0.1h-0.1c-0.2,0-0.5,0-0.8,0s-0.6,0-0.9,0c-0.6,0-1.2,0-1.9-0.1
					c-0.1,0-0.2,0-0.4,0c-0.3,0-0.6,0-0.9,0c-0.1,0-0.3,0-0.5,0c-0.1,0-0.3,0-0.4,0c-0.2,0-0.5,0-0.7,0c-0.9,0-1.8-0.1-2.7-0.1
					c-0.1,0-0.3,0-0.4,0c-0.1,0-0.2,0-0.4,0c-0.1,0-0.3,0-0.4,0c-0.2,0-0.3,0-0.5,0s-0.4,0-0.6,0c-0.1,0-0.1,0-0.2,0
					c-0.2,0-0.3,0-0.5,0c-0.3,0-0.6,0-0.9,0c-0.6,0-1.2,0-1.9-0.1c-0.1,0-0.2,0-0.4,0c-0.3,0-0.6,0-0.9,0c-0.1,0-0.3,0-0.5,0
					c-0.1,0-0.3,0-0.4,0c-0.2,0-0.5,0-0.7,0c-0.9,0-1.8-0.1-2.7-0.1c-0.1,0-0.3,0-0.4,0c-0.1,0-0.2,0-0.4,0c-0.1,0-0.3,0-0.4,0
					c-0.2,0-0.3,0-0.5,0s-0.4,0-0.6,0c-0.2,0-0.3,0-0.5,0c-0.1,0-0.3,0-0.4,0c-0.1,0-0.1-0.1-0.2-0.1
					C109.6,283.2,109.5,283.1,109.6,282.9C109.5,283,109.5,283,109.6,282.9z"/>
			</g>
		</g>
	</g>
</g>
<g id="XMLID_761_">
	<g id="XMLID_762_">
		<g id="XMLID_763_">
			<g id="XMLID_764_">
				<path id="XMLID_765_" class="st0" d="M120.4,277.6c0,0.1,0,0.1-0.1,0.2c0,0,0,0-0.1,0c0,0,0,0-0.1,0H120c0,0,0,0-0.1,0
					s-0.1,0-0.2,0h-0.1h-0.1c0,0,0,0-0.1,0s-0.1,0-0.2,0h-0.1H119c0,0,0,0-0.1,0s0,0,0,0h-0.1c-0.1,0-0.1,0-0.1,0
					c-0.1,0-0.1,0-0.2,0l0,0l0,0l0,0c0,0,0,0-0.1,0h-0.1l0,0c0,0,0,0-0.1,0s-0.1,0-0.1,0s0,0-0.1,0l0,0l0,0c-0.1,0-0.1,0-0.2,0h-0.1
					h-0.1c0,0,0,0-0.1,0s0,0,0,0h-0.1c-0.1,0-0.1,0-0.1,0c-0.1,0-0.1,0-0.2,0l0,0c0,0,0,0-0.1,0h-0.1c-0.1,0-0.1-0.1-0.2-0.1h-0.1
					l0,0v-0.1c0-0.1,0-0.1,0-0.2s0-0.1,0.1-0.2c0.1-0.1,0.1-0.1,0.1-0.1l0,0h0.1c0,0,0,0,0.1,0s0.1,0,0.2,0h0.1h0.1l0,0l0,0h0.1h0.1
					c0.1,0,0.1,0,0.2,0c0,0,0,0,0.1,0h0.1c0,0,0,0,0.1,0c0,0,0,0,0.1,0h0.1c0.1,0,0.2,0,0.3,0c0,0,0,0,0.1,0s0,0,0,0s0,0,0.1,0
					c0,0,0,0,0.1,0h0.1l0,0c0,0,0,0,0.1,0h0.1c0.1,0,0.1,0,0.2,0c0,0,0,0,0.1,0h0.1c0,0,0,0,0.1,0c0,0,0,0,0.1,0h0.1
					c0.1,0,0.2,0,0.3,0c0,0,0,0,0.1,0s0,0,0,0s0,0,0.1,0c0,0,0,0,0.1,0h0.1c0,0,0,0,0.1,0c0,0,0,0,0.1,0v0.1c0,0.1,0,0.1,0,0.2
					C120.4,277.5,120.4,277.5,120.4,277.6z"/>
			</g>
		</g>
	</g>
</g>
<g id="XMLID_759_">
	<path id="XMLID_760_" class="st0" d="M159.5,37.9c2.3-5.5,9.1-8.3,14.8-6.1c5.7,2.1,9.2,8.6,8.2,14.5c-0.4,2.8-1.9,5.5-4.2,7.2
		c-4.2,3-10.5,1.5-14-2.2C160.7,47.5,159.5,43,159.5,37.9"/>
</g>
<g id="XMLID_751_">
	<path id="XMLID_752_" class="st4" d="M147.9,131.6c0,0-6.8-31.8-4.7-51.8c1.7-15.7,12.3-24.2,30.7-23.2c18.4,1,27,10.5,27.8,25
		c0.8,14.4,8.7,46.7,8.7,46.7s-15.7,7.7-41.1,7.1C144.1,134.8,147.9,131.6,147.9,131.6z"/>
</g>
<g id="XMLID_749_">
	<path id="XMLID_750_" class="st1" d="M160.9,57.8c0,0,1.4,24.9,8.2,25.9c6.7,1.1,8.7-26.8,8.7-26.8S170.3,55.9,160.9,57.8z"/>
</g>
<g id="XMLID_746_">
	<g id="XMLID_747_">
		<path id="XMLID_748_" class="st1" d="M168.9,64.3c-3,0-5.5-2.5-5.5-5.5V49c0-3,2.5-5.5,5.5-5.5s5.5,2.5,5.5,5.5v9.8
			C174.5,61.9,172,64.3,168.9,64.3z"/>
	</g>
</g>
<g id="XMLID_743_">
	<g id="XMLID_744_">
		<path id="XMLID_745_" class="st11" d="M163.4,58.8V49c0-3,2.5-5.5,5.5-5.5s5.5,2.5,5.5,5.5l0,0l-3.7,6.3L163.4,58.8z"/>
	</g>
</g>
<g id="XMLID_740_">
	<g id="XMLID_741_">
		<path id="XMLID_742_" class="st1" d="M165.8,56.7c-3-0.2-6.4-1.9-8.2-4.3c-1.7-2.3-1.3-5-0.8-7.6s1.3-5.4,3-7.5s4.4-3.3,7.2-3.2
			c4.8,0.3,8.4,4.3,8.2,9l-0.3,5.5C174.6,53.3,170.5,56.9,165.8,56.7z"/>
	</g>
</g>
<g id="XMLID_737_">
	<g id="XMLID_738_">
		<path id="XMLID_739_" class="st1" d="M173.2,47.9c0.5,0.2,0.9,0.1,1.4,0.2c0.2,0,0.3,0.1,0.5,0.1c0,0,1.1,0.7,0.6-0.2
			c0,0-1,0.1-1.1,0.1c-0.3,0-0.6,0-0.8-0.1c-0.1,0-0.2,0-0.3-0.1c-0.4-0.2-0.4-0.1-0.2,0.2c-0.1-0.7-1-1.1-1.7-1
			c-0.8,0.2-1.1,1-1,1.7c0.2,1.6,2.2,1.8,3.5,1.9c1.2,0.1,2.7,0,3.6-0.9c1-1,0.8-2.6-0.3-3.5c-0.5-0.4-1-0.8-1.6-1s-1.3-0.1-1.9-0.3
			C172.3,44.6,171.5,47.3,173.2,47.9L173.2,47.9z"/>
	</g>
</g>
<g id="XMLID_714_">
	<g id="XMLID_734_">
		<g id="XMLID_735_">
			<path id="XMLID_736_" class="st11" d="M163.1,48.3c0-0.1-0.1-0.1-0.1-0.1h-0.1h-0.1h-0.1h-0.1c-0.1,0-0.2,0-0.2,0h-0.1h-0.1
				c0,0,0,0-0.1,0s-0.1-0.1-0.2-0.1c-0.1,0-0.1-0.1-0.1-0.1s0,0-0.1-0.1s0,0,0,0l0,0c0-0.1,0-0.1,0-0.1c0-0.1,0-0.1,0-0.2
				c0-0.1,0-0.1,0-0.2l0,0l0,0l0,0v-0.1v-0.1v-0.1V47v-0.1v-0.1c0,0,0,0,0-0.1s0,0,0-0.1s0.1-0.2,0-0.3c0-0.1,0-0.1,0-0.2V46v-0.1
				v-0.1c0-0.1,0-0.1,0.1-0.2c0-0.1,0-0.1,0-0.2c0-0.1,0-0.2,0-0.3c0,0,0,0,0-0.1v-0.1v-0.2c0-0.1,0-0.2,0-0.3s0-0.1,0-0.2
				c0,0,0,0,0-0.1V44l-0.1-0.1c-0.1,0-0.1,0-0.1,0c-0.1,0-0.1,0.1-0.1,0.1s0,0,0,0.1v0.1v0.1c0,0.1,0,0.2-0.1,0.3v0.1v0.1l0,0l0,0
				v0.1c0,0.1,0,0.1,0,0.2c0,0.1,0,0.2-0.1,0.3v0.1c0,0.1,0,0.1,0,0.2v0.1v0.1V46c0,0.2-0.1,0.3-0.1,0.5v0.1v0.1v0.1v0.1V47l0,0v0.1
				c0,0.1,0,0.1,0,0.2c0,0.1,0.1,0.3,0.1,0.4c0,0,0,0.1,0.1,0.1c0,0.1,0.1,0.1,0.1,0.2l0.1,0.1h0.1c0.1,0,0.1,0.1,0.1,0.1
				c0.2,0.1,0.4,0.1,0.6,0.1h0.1h0.1h0.1h0.1h0.1H163.1L163.1,48.3c0,0,0,0,0-0.1v-0.1C163.1,48.4,163.1,48.4,163.1,48.3z"/>
		</g>
	</g>
	<g id="XMLID_731_">
		<g id="XMLID_732_">
			<path id="XMLID_733_" class="st11" d="M176.6,47.8c0.1-0.1,0.1-0.1,0.1-0.1l0,0l0,0c0,0,0-0.1-0.1-0.1l0,0l-0.1-0.1h-0.1h-0.1
				l0,0c-0.1,0-0.1-0.1-0.1,0c-0.1,0-0.1,0-0.1,0H176c0,0,0,0-0.1,0l0,0h-0.1c-0.1,0-0.1,0-0.1,0c-0.1,0-0.1,0-0.1,0l0,0l0,0l0,0
				c0,0,0,0-0.1,0h-0.1l0,0c0,0,0,0-0.1,0h-0.1c0,0,0,0-0.1,0l0,0l0,0c0,0-0.1,0-0.1,0.1l-0.1,0.1h-0.1l0,0l0,0c0,0-0.1,0-0.1,0.1
				l-0.1,0.1l-0.1,0.1l0,0l0,0l-0.1,0.1c0,0.1,0,0.1-0.1,0.2v0.1l0,0c0,0,0,0,0.1,0.1l0.1,0.1h0.1h0.1l0,0l0,0l0,0
				c0,0,0-0.1,0.1-0.1l0,0c0,0,0,0,0-0.1l0,0l0,0c0,0,0,0,0.1,0c0,0,0,0,0.1-0.1l0.1-0.1l0,0c0,0,0,0,0.1,0l0,0l0,0c0,0,0,0,0.1,0
				s0.1-0.1,0.2-0.1l0,0l0,0l0,0l0,0l0,0l0,0l0,0h0.1c0.1,0,0.1,0,0.1,0l0,0h0.1l0,0l0,0c0,0,0,0,0.1,0s0.1,0.1,0.2,0.1l0,0l0,0l0,0
				l0,0l0,0l0,0l0,0c0,0,0,0,0.1,0C176.5,48,176.5,48,176.6,47.8C176.5,47.9,176.5,47.9,176.6,47.8z"/>
		</g>
	</g>
	<g id="XMLID_728_">
		<g id="XMLID_729_">
			<path id="XMLID_730_" class="st11" d="M176.1,49c0.1,0,0.1,0,0.1-0.1l0,0v-0.1v-0.1l0,0v-0.1v-0.1c0,0,0,0,0-0.1l0,0
				c0,0,0-0.1-0.1-0.1l-0.1-0.1l0,0l0,0l0,0c0,0,0-0.1-0.1-0.1l-0.1-0.1l-0.1-0.1l0,0l0,0l0,0l0,0h-0.1l0,0l0,0h-0.1c0,0,0,0-0.1,0
				s0,0,0,0l0,0h-0.1c-0.1,0-0.1,0-0.1,0h-0.1l0,0l0,0H175h-0.1c0,0-0.1,0-0.1,0.1l0,0l0,0h-0.1c-0.1,0-0.1,0.1-0.1,0.1
				s-0.1,0-0.1,0.1l0,0c0,0,0,0,0,0.1l0.1,0.1l0.1,0.1h0.1l0,0l0,0l0,0c0,0,0.1,0,0.1-0.1l0,0l0,0l0,0l0,0c0,0,0,0,0.1,0s0,0,0.1,0
				h0.1l0,0c0,0,0,0,0.1,0s0,0,0,0l0,0l0,0c0.1,0,0.1,0,0.2,0l0,0l0,0l0,0l0,0l0,0l0,0l0,0l0,0l0.1,0.1l0,0c0,0,0,0,0,0.1l0,0l0,0
				l0,0c0,0.1,0.1,0.1,0.1,0.1l0,0l0,0l0,0l0,0l0,0l0,0l0,0c0,0,0,0,0.1,0h0.1C176.1,49,176.1,49,176.1,49z"/>
		</g>
	</g>
	<g id="XMLID_725_">
		<g id="XMLID_726_">
			<path id="XMLID_727_" class="st11" d="M163.8,49.4C163.7,49.4,163.7,49.4,163.8,49.4L163.8,49.4L163.8,49.4L163.8,49.4
				L163.8,49.4l-0.2,0.1l0,0c0,0,0,0,0,0.1l0,0c0,0-0.1,0-0.1,0.1c0,0,0,0.1-0.1,0.1l0,0l0,0l0,0h-0.1c0,0-0.1,0-0.1,0.1
				c0,0-0.1,0-0.1,0.1l0,0l0,0l0,0l0,0H163l0,0l0,0h-0.1l0,0l0,0l0,0h-0.1h-0.1l0,0l0,0l0,0h-0.1h-0.1h-0.1l0,0l0,0h-0.1h-0.1
				c0,0,0,0-0.1,0l0,0c0,0,0,0-0.1,0l-0.1,0.1c0,0.1,0,0.1,0,0.1v0.1l0,0c0,0,0,0,0.1,0c0,0,0,0,0.1,0s0.1,0,0.2,0c0,0,0,0,0.1,0
				h0.1l0,0l0,0h0.1h0.1c0.1,0,0.1,0,0.2,0l0,0h0.1c0,0,0,0,0.1,0s0,0,0,0h0.1c0.1,0,0.2-0.1,0.3-0.1l0,0l0,0c0,0,0,0,0.1,0
				s0,0,0.1,0h0.1l0,0c0,0,0,0,0.1,0c0,0,0.1,0,0.1-0.1c0.1,0,0.1-0.1,0.1-0.1l0,0c0,0,0.1,0,0.1-0.1l0,0l0,0c0,0,0,0,0.1,0
				c0.1-0.1,0.1-0.1,0.2-0.2l0,0l0,0l0,0l0,0v-0.1c0,0,0,0,0-0.1s0,0,0,0l0,0l-0.1-0.1C163.8,49.4,163.8,49.4,163.8,49.4z"/>
		</g>
	</g>
	<g id="XMLID_723_">
		<path id="XMLID_724_" class="st11" d="M164.6,46.1L164.6,46.1c-0.3,0-0.5-0.2-0.5-0.5v-0.2c0-0.3,0.2-0.5,0.5-0.5s0.5,0.2,0.5,0.5
			v0.2C165.1,45.9,164.9,46.1,164.6,46.1z"/>
	</g>
	<g id="XMLID_721_">
		<path id="XMLID_722_" class="st11" d="M159.4,45.8L159.4,45.8c-0.3,0-0.5-0.2-0.5-0.5v-0.2c0-0.3,0.2-0.5,0.5-0.5s0.5,0.2,0.5,0.5
			v0.2C159.9,45.6,159.7,45.8,159.4,45.8z"/>
	</g>
	<g id="XMLID_718_">
		<g id="XMLID_719_">
			<path id="XMLID_720_" class="st11" d="M165.9,44c0-0.1,0.1-0.1,0.1-0.1l0,0l0,0c0,0,0,0,0-0.1l0,0l-0.1-0.1l0,0c0,0,0,0-0.1,0
				l0,0c0,0-0.1-0.1-0.1,0h-0.1l0,0l0,0l0,0c0,0-0.1,0-0.1-0.1h-0.1h-0.1l0,0l0,0l0,0l0,0h-0.1l0,0l0,0h-0.1l0,0l0,0l0,0H165h-0.1
				h-0.1l0,0l0,0h-0.1h-0.1h-0.1l0,0l0,0h-0.1l-0.1,0.1h-0.1l0,0c0,0,0,0,0,0.1v0.1l0.1,0.1c0,0,0,0.1,0.1,0.1l0,0l0,0l0,0h0.1l0,0
				l0,0l0,0l0,0c0,0,0,0,0.1,0c0,0,0,0,0.1,0h0.1l0,0c0,0,0,0,0.1,0s0,0,0,0l0,0l0,0c0.1,0,0.1,0,0.2,0l0,0l0,0l0,0l0,0l0,0l0,0l0,0
				c0,0,0,0,0.1,0h0.1l0,0c0,0,0,0,0.1,0l0,0l0,0l0,0c0.1,0,0.1,0.1,0.2,0.1l0,0l0,0l0,0l0,0l0,0l0,0l0,0l0,0
				C165.7,44.2,165.8,44.1,165.9,44C165.8,44.1,165.8,44.1,165.9,44z"/>
		</g>
	</g>
	<g id="XMLID_715_">
		<g id="XMLID_716_">
			<path id="XMLID_717_" class="st11" d="M158.5,43.8C158.6,43.8,158.6,43.8,158.5,43.8c0.1,0.1,0.1,0.1,0.1,0.1l0,0c0,0,0,0,0.1,0
				l0,0h0.1l0,0l0,0l0,0h0.1c0,0,0,0,0.1,0l0,0l0,0l0,0h0.1c0,0,0,0,0.1,0h0.1l0,0l0,0l0,0l0,0h0.1l0,0l0,0l0,0l0,0l0,0l0,0h0.1h0.1
				l0,0l0,0l0,0c0,0,0,0,0.1,0c0,0,0,0,0.1,0h0.1l0,0l0,0h0.1h0.1c0,0,0,0,0.1,0l0,0l0,0l0.1-0.1c0-0.1,0-0.1,0.1-0.1v-0.1l0,0l0,0
				l0,0c0,0-0.1,0-0.1-0.1l0,0c0,0,0,0-0.1,0l0,0l0,0c0,0,0,0-0.1,0H160c-0.1,0-0.1,0-0.1,0l0,0h-0.1l0,0l0,0c0,0,0,0-0.1,0
				s-0.1,0-0.2,0l0,0l0,0l0,0l0,0l0,0l0,0l0,0h-0.1c-0.1,0-0.1,0-0.1,0l0,0h-0.1l0,0l0,0c0,0,0,0-0.1,0s-0.1,0.1-0.2,0.1l0,0l0,0
				l0,0l0,0l0,0l0,0l0,0c0,0,0,0,0,0.1c0,0,0,0.1,0.1,0.1C158.5,43.7,158.5,43.7,158.5,43.8z"/>
		</g>
	</g>
</g>
<g>
	<g>
		<g>
			<g>
				<path class="st12" d="M161.2,45c1-0.5,1.9,0,1.9,0l0.2-0.4c0,0-1.1-0.6-2.3,0L161.2,45z"/>
			</g>
		</g>
	</g>
	<g>
		<g>
			<g>
				<path class="st12" d="M168.6,44.4h6c0.1,0,0.2-0.1,0.2-0.2s-0.1-0.2-0.2-0.2h-6c-0.1,0-0.2,0.1-0.2,0.2S168.5,44.4,168.6,44.4z"
					/>
			</g>
		</g>
	</g>
	<g>
		<g>
			<g>
				<path class="st12" d="M162.9,44.7c0-1.6,1.3-2.9,3-2.9c1.6,0,3,1.3,3,2.9c0,1.6-1.3,2.9-3,2.9C164.2,47.6,162.9,46.3,162.9,44.7
					z M163.4,44.7c0,1.4,1.1,2.5,2.5,2.5s2.5-1.1,2.5-2.5s-1.1-2.5-2.5-2.5C164.5,42.2,163.4,43.3,163.4,44.7z"/>
			</g>
		</g>
	</g>
	<g>
		<g>
			<g>
				<path class="st12" d="M155.3,44.7c0-1.6,1.3-2.9,3-2.9s3,1.3,3,2.9c0,1.6-1.3,2.9-3,2.9S155.3,46.3,155.3,44.7z M155.8,44.7
					c0,1.4,1.1,2.5,2.5,2.5s2.5-1.1,2.5-2.5s-1.1-2.5-2.5-2.5S155.8,43.3,155.8,44.7z"/>
			</g>
		</g>
	</g>
</g>
<g id="XMLID_712_">
	<path id="XMLID_713_" class="st0" d="M159.7,37.5c3.6,4.6,9.5,7.5,15.4,8c0,0,4.4-10.3-4.4-11.7C161.9,32.3,159.7,37.5,159.7,37.5z
		"/>
</g>
<g>
	<g>
		<path class="st0" d="M128.6,250.6c0.1,0,0.2-0.1,0.3-0.2l23.7-112.5c0-0.1-0.1-0.3-0.2-0.3c-0.1,0-0.3,0.1-0.3,0.2l-23.7,112.5
			C128.3,250.5,128.4,250.6,128.6,250.6C128.5,250.6,128.5,250.6,128.6,250.6z"/>
	</g>
	<g id="XMLID_709_">
		<g id="XMLID_710_">
			<path id="XMLID_711_" class="st0" d="M180.1,57.3c-0.1,0.2-0.2,0.5-0.3,1.1c0,0.3-0.1,0.6-0.1,0.9l-0.1,1.3
				c-0.1,0.5-0.1,1-0.2,1.6l-0.1,1l-0.4,3.3c-0.1,0.5-0.1,0.9-0.2,1.4c-0.1,0.5-0.1,0.9-0.2,1.4c-0.1,0.3-0.1,0.7-0.2,1.1
				c-0.1,1-0.4,2.1-0.5,3c-0.1,0.8-0.3,1.7-0.5,2.5l-0.3,1.3c-0.1,0.3-0.1,0.7-0.2,1l-0.2,0.7c-0.2,0.8-0.5,1.6-0.7,2.3
				c-0.3,0.9-0.7,1.7-1.1,2.6c-0.5,0.9-1.1,1.6-1.9,2.3c-0.1,0.1-0.1,0.1-0.2,0.1l-0.3,0.2l-0.1,0.1c-0.3,0.1-0.5,0.3-0.8,0.5
				c-0.6,0.3-1.2,0.5-1.8,0.5c-0.2,0-0.4,0-0.6,0c-0.3,0-0.6-0.1-1-0.1c-0.4-0.1-0.9-0.3-1.2-0.5s-0.7-0.4-1-0.6
				c-0.2-0.1-0.3-0.3-0.5-0.4c-0.1-0.1-0.3-0.3-0.4-0.4c-0.7-0.7-1.2-1.6-1.7-2.5c-0.4-0.7-0.8-1.5-1.1-2.3
				c-0.2-0.4-0.3-0.8-0.5-1.2c-0.1-0.3-0.3-0.6-0.4-1l-0.2-0.6c-0.3-0.8-0.5-1.6-0.8-2.3c-0.3-0.9-0.6-1.8-0.8-2.7
				c-0.3-1-0.5-2-0.7-3c0-0.3-0.1-0.5-0.1-0.7c-0.1-0.3-0.1-0.6-0.2-0.9c-0.1-0.6-0.2-1.3-0.3-1.9c-0.2-1.2-0.4-2.5-0.4-3.7
				c0-0.7-0.1-1.3-0.1-2.1c0-0.3,0-0.5,0-0.7c0-0.3-0.1-0.5-0.1-0.7c-0.1-0.4-0.2-0.6-0.3-0.6c-0.1,0.1-0.2,0.3-0.3,0.7
				c-0.1,0.3-0.1,0.8-0.1,1.3c0,0.3,0,0.5,0,0.8c0,0.5,0,0.9,0.1,1.4c0,0.4,0.1,0.8,0.1,1.3c0.1,1.3,0.3,2.5,0.5,3.8
				c0.1,0.5,0.1,0.9,0.2,1.4c0.1,0.5,0.2,1,0.3,1.6v0.2v0.2c0.1,0.5,0.3,1.2,0.4,1.8c0.2,0.7,0.3,1.3,0.6,2c0.4,1.4,0.9,2.8,1.4,4.1
				l0.3,0.8c0.3,0.7,0.6,1.4,0.9,2c0.1,0.3,0.3,0.7,0.5,1s0.3,0.5,0.5,0.8c0.3,0.5,0.5,0.9,0.8,1.4c0.6,0.9,1.4,1.7,2.3,2.4
				c0.9,0.6,2,1.1,3.2,1.1c0.4,0,0.8,0,1.1-0.1s0.6-0.1,0.9-0.2c0.3-0.1,0.7-0.3,1-0.4c0.4-0.2,0.7-0.4,1.1-0.7
				c0.4-0.3,0.7-0.6,1-0.9c0.1-0.1,0.2-0.3,0.3-0.4c0.3-0.3,0.5-0.7,0.7-1c0.4-0.6,0.7-1.2,1-1.9c0.6-1.4,1-2.8,1.3-4.2l0.2-0.8
				c0.2-0.7,0.3-1.4,0.5-2.1c0.1-0.3,0.1-0.7,0.2-1.1c0.1-0.3,0.1-0.6,0.1-0.9c0.1-0.5,0.2-1,0.3-1.6c0.3-2.1,0.6-4.1,0.9-6.3l0.1-1
				l0.1-0.9l0.1-1L180,62l0.1-1.3c0-0.4,0-0.7,0.1-1.1c0-0.3,0.1-0.7,0.1-1c0-0.2,0-0.4,0-0.5C180.4,57.4,180.3,57.3,180.1,57.3
				C180.3,57.1,180.2,57.2,180.1,57.3z"/>
		</g>
	</g>
	<path class="st0" d="M154.1,250.6c0.1,0,0.2-0.1,0.3-0.2l8.3-110.2c0-0.1-0.1-0.3-0.2-0.3c-0.1,0-0.3,0.1-0.3,0.2l-8.3,110.2
		C153.8,250.5,153.9,250.6,154.1,250.6L154.1,250.6z"/>
	<path class="st0" d="M175,251.4L175,251.4c0.1,0,0.3-0.1,0.3-0.3l-1.4-110.2c0-0.1-0.1-0.3-0.3-0.3l0,0c-0.1,0-0.3,0.1-0.3,0.3
		l1.4,110.2C174.8,251.3,174.9,251.4,175,251.4z"/>
	<path class="st0" d="M196.4,250.6L196.4,250.6c0.2,0,0.3-0.1,0.3-0.3l-9.2-110.2c0-0.1-0.1-0.2-0.3-0.2c-0.1,0-0.2,0.1-0.2,0.3
		l9.2,110.2C196.1,250.5,196.2,250.6,196.4,250.6z"/>
	<path class="st0" d="M214.7,249.5L214.7,249.5c0.2,0,0.3-0.2,0.3-0.3L198.1,139c0-0.1-0.2-0.2-0.3-0.2c-0.1,0-0.2,0.2-0.2,0.3
		l16.9,110.2C214.4,249.4,214.6,249.5,214.7,249.5z"/>
</g>
<g>
	<g id="XMLID_755_">
		<path id="XMLID_756_" class="st1" d="M193.3,102.3l-32.2,8.1l-0.6,0.1c-1.7,0.4-3.5,0.2-5-0.4l-49.8-21.5
			c-3.4-1.5-4.9-5.4-3.4-8.7c1.4-3.2,5-4.8,8.3-3.7l51.5,17.3l-5.6-0.2l31.3-11.4c5.6-1.7,11.5,1.4,13.2,7s-1.5,11.5-7.1,13.3
			C193.7,102.2,193.5,102.3,193.3,102.3z"/>
	</g>
	<g id="XMLID_705_">
		<g id="XMLID_706_">
			<g id="XMLID_707_">
				<path id="XMLID_708_" class="st1" d="M106.9,88.8c-1.2-0.5-2.2-1-3.2-1.5s-2.1-1.1-3.1-1.7c-2-1.2-4-2.6-5.8-4.5
					C94,80.2,94,78.8,94.9,78c0.8-0.8,2.1-0.8,2.9-0.2l0.1,0.1c1.5,1.1,3.3,2.1,5.2,2.9c1,0.4,1.9,0.8,2.9,1.1c1,0.3,2,0.7,2.9,0.9
					c1.7,0.4,2.7,2.1,2.3,3.8c-0.4,1.7-2.2,2.7-3.8,2.3C107.2,88.9,107,88.8,106.9,88.8z"/>
			</g>
		</g>
	</g>
	<g id="XMLID_701_">
		<g id="XMLID_702_">
			<g id="XMLID_703_">
				<path id="XMLID_704_" class="st1" d="M108.5,86.5c-1.1-0.6-2.2-1.1-3.2-1.8c-1-0.6-2.1-1.3-3.1-1.9c-1-0.7-2-1.5-3-2.3
					c-0.5-0.5-1-0.9-1.5-1.5c-0.2-0.3-0.5-0.6-0.7-1c-0.2-0.3-0.4-0.8-0.6-1.3c-0.5-1.1,0-2.3,1.1-2.8c0.9-0.4,1.9-0.1,2.5,0.6
					l0.5,0.6c0.2,0.2,0.9,0.9,1.7,1.4s1.8,1,2.7,1.5c1,0.5,2,0.9,3,1.3c1,0.4,2.1,0.8,3.1,1.1c1.7,0.6,2.7,2.4,2.1,4.1
					c-0.6,1.7-2.4,2.7-4.2,2.1C108.8,86.6,108.6,86.5,108.5,86.5z"/>
			</g>
		</g>
	</g>
	<g id="XMLID_697_">
		<g id="XMLID_698_">
			<g id="XMLID_699_">
				<path id="XMLID_700_" class="st1" d="M114.1,85.9c-1.6-0.8-2.9-1.7-4.2-2.6c-1.4-0.9-2.7-1.9-3.9-2.9c-2.5-2-4.9-4.3-7-6.9
					c-0.7-1-0.6-2.3,0.4-3.1c0.9-0.7,2.2-0.6,2.9,0.2l0,0c2,2,4.3,3.8,6.8,5.3c1.2,0.8,2.5,1.5,3.8,2.2s2.7,1.3,3.9,1.8l0,0
					c1.7,0.7,2.5,2.6,1.8,4.3c-0.7,1.7-2.6,2.5-4.3,1.8C114.3,86,114.2,85.9,114.1,85.9z"/>
			</g>
		</g>
	</g>
	<g id="XMLID_693_">
		<g id="XMLID_694_">
			<g id="XMLID_695_">
				<path id="XMLID_696_" class="st1" d="M111.1,88.6c-0.5,0.3-0.5,0.2-0.8,0.3c-0.2,0-0.3,0.1-0.5,0.1c-0.3,0.1-0.6,0.1-0.9,0.2
					c-0.5,0.1-1,0.1-1.5,0.1c-0.9,0-1.9-0.1-2.7-0.2c-1.7-0.2-3.3-0.6-4.9-1.1c-1.1-0.3-1.8-1.6-1.4-2.7c0.3-1,1.2-1.6,2.2-1.5l0,0
					c1.5,0.1,2.9,0.1,4.3-0.1c0.7-0.1,1.3-0.2,1.9-0.3c0.3-0.1,0.6-0.2,0.8-0.3c0.1-0.1,0.2-0.1,0.3-0.1c0,0,0,0,0.1-0.1
					c-0.1,0,0.1-0.1-0.2,0.1c1.6-0.9,3.6-0.4,4.5,1.1C113.2,85.6,112.7,87.7,111.1,88.6z"/>
			</g>
		</g>
	</g>
</g>
<path class="st1" d="M177.5,78.4"/>
<path class="st4" d="M182.2,79.7l4,27.1c0,0,10.4-1.9,11.2-2.4s4.9-4.4,4.9-5.7c0.1-1.3,1.8-14.6-1.7-19c-3.5-4.3-12.4-8.2-12.4-8.2
	L182.2,79.7z"/>
<line class="st13" x1="184.1" y1="83.4" x2="187.2" y2="103.3"/>
<polygon class="st4" points="150.7,63.4 141.8,64.3 140.6,86 148.3,84.2 151.6,63.8 "/>
<line class="st13" x1="144.5" y1="64.3" x2="142.9" y2="85.4"/>
<circle class="st0" cx="162.1" cy="59.9" r="0.6"/>
<circle class="st0" cx="162.4" cy="62.1" r="0.6"/>
<circle class="st0" cx="162.8" cy="64" r="0.6"/>
<circle class="st0" cx="163.6" cy="65.5" r="0.6"/>
<circle class="st0" cx="165.8" cy="66.2" r="0.6"/>
<circle class="st0" cx="168.1" cy="66.2" r="0.6"/>
<circle class="st0" cx="170.4" cy="65" r="0.6"/>
<circle class="st0" cx="172.4" cy="63.4" r="0.6"/>
<circle class="st0" cx="173.8" cy="61.4" r="0.6"/>
<circle class="st0" cx="174.8" cy="59.3" r="0.6"/>
<g id="XMLID_307_">
	<g id="XMLID_1125_">
		<g id="XMLID_1126_">
			<path id="XMLID_1127_" class="st11" d="M48.3,45.4c0,0.1,0,0.2,0,0.3c0,0,0,0.1,0.1,0.1s0.1,0,0.2,0c0.1,0,0.1,0.1,0.2,0.1H49
				c0.1,0,0.1,0,0.2,0c0.1,0,0.1,0,0.2,0h0.1c0,0,0.1,0,0.2,0c0.4,0,0.7,0,1.1-0.2c0.1,0,0.2-0.1,0.3-0.1s0.1,0,0.2-0.1
				c0.1,0,0.1-0.1,0.2-0.1c0.1-0.1,0.2-0.2,0.3-0.3l0.1-0.1c0.1-0.2,0.2-0.5,0.3-0.7c0-0.1,0-0.2,0-0.4c0-0.1,0-0.1,0-0.2
				c0,0,0,0,0-0.1v-0.2c0-0.1,0-0.1,0-0.2c0-0.1,0-0.1,0-0.2v-0.1c0-0.1,0-0.1,0-0.2c-0.1-0.3-0.1-0.6-0.2-0.9c0-0.1,0-0.2-0.1-0.2
				v-0.1c0,0,0-0.1,0-0.2c0-0.1,0-0.2-0.1-0.3v-0.1c0-0.3-0.1-0.4-0.1-0.6c0-0.1,0-0.2-0.1-0.3c0-0.1,0-0.2-0.1-0.3l0,0l0,0
				c0-0.1,0-0.2,0-0.2s0-0.1-0.1-0.2c0-0.2,0-0.4-0.1-0.5c0-0.1,0-0.1,0-0.2c0-0.1,0-0.1,0-0.2v-0.1c0-0.1-0.1-0.1-0.2-0.2
				c-0.1,0-0.2,0-0.3,0s-0.2,0.1-0.3,0.1l-0.1,0.1c0,0.1,0,0.1,0,0.1c0,0.1,0,0.2,0.1,0.3c0.1,0.2,0,0.4,0.1,0.5l0.1,0.3v0.1v0.1
				c0,0.2,0,0.3,0.1,0.5c0,0.2,0,0.3,0.1,0.4c0,0.1,0.1,0.2,0.1,0.4v0.1c0,0.1,0,0.1,0,0.2v0.2c0,0.1,0,0.3,0.1,0.4
				c0,0.2,0.1,0.3,0.1,0.5v0.1v0.1c0,0.1,0,0.1,0,0.2V43v0.2v0.1l0.1,0.3v0.1l0,0l0,0l0,0c0,0.2,0,0.3,0,0.4c0,0.1,0,0.3-0.1,0.4
				c0,0.1,0,0.2-0.1,0.3v0.1c0,0.1,0,0.1-0.1,0.1l-0.1,0.1c-0.1,0.1-0.1,0.1-0.2,0.2c-0.1,0-0.2,0.1-0.4,0.1c-0.1,0-0.1,0.1-0.1,0.1
				c-0.1,0-0.1,0-0.2,0h-0.2c-0.2,0-0.3,0-0.5,0h-0.1c-0.1,0-0.2,0-0.2,0h-0.2h-0.1C48.4,45.2,48.3,45.2,48.3,45.4
				C48.2,45.4,48.2,45.4,48.3,45.4z"/>
		</g>
	</g>
	<g id="XMLID_1122_">
		<g id="XMLID_1123_">
			<path id="XMLID_1124_" class="st11" d="M35.5,39.9c0.1,0.1,0.1,0.1,0.2,0.1h0.1c0,0,0,0,0.1,0c0,0,0,0,0.1,0l0.1-0.1
				c0,0,0.1,0,0.1-0.1v-0.1c0,0,0,0,0.1,0h0.1c0.1-0.1,0.2-0.1,0.4-0.2c0,0,0.1,0,0.1-0.1c0,0,0,0,0.1,0c0,0,0,0,0.1,0h0.1
				c0,0,0,0,0.1,0s0.2,0,0.3,0h0.1c0,0,0,0,0.1,0l0,0h0.1c0,0,0,0,0.1,0c0,0,0,0,0.1,0l0,0c0,0,0,0,0.1,0s0.3,0.1,0.4,0.1h0.1
				c0,0,0,0,0,0.1c0,0,0,0,0.1,0s0.1,0,0.1,0.1l0,0c0.1,0.1,0.1,0.1,0.2,0.2l0.1,0.1c0,0,0,0.1,0.1,0.1l0,0l0,0v0.1c0,0,0,0,0.1,0.1
				c0,0.1,0,0.2,0.1,0.2c0,0,0,0,0,0.1c0,0,0,0,0,0.1l0,0l0.1,0.1c0,0,0.2,0,0.3,0s0.2,0,0.3-0.1l0.1-0.1c0,0,0,0,0-0.1
				s0-0.1-0.1-0.2c-0.1-0.1,0-0.2-0.1-0.3L40,39.8c0,0,0,0,0-0.1l0,0c0-0.1-0.1-0.2-0.2-0.2c-0.1-0.1-0.1-0.1-0.2-0.2
				c-0.1-0.1-0.1-0.1-0.2-0.1l0,0c0,0,0,0-0.1-0.1L39.2,39c0,0-0.1-0.1-0.2-0.1c0-0.1-0.2-0.1-0.2-0.2c0,0,0,0-0.1,0c0,0,0,0-0.1,0
				l-0.1-0.1h-0.1h-0.1c0,0,0,0-0.1,0H38h-0.1l0,0l0,0l0,0c-0.1,0-0.2,0-0.3,0s-0.2,0-0.3,0s-0.1,0-0.2,0.1H37h-0.1h-0.1
				c-0.1,0-0.1,0-0.2,0.1c-0.1,0-0.2,0.1-0.3,0.1c0,0,0,0.1-0.1,0.1h-0.1L36,39.1c-0.1,0.1-0.2,0.1-0.2,0.2c0,0,0,0.1-0.1,0.1
				s-0.1,0.1-0.1,0.1l-0.1,0.1c0,0,0,0,0,0.1S35.5,39.8,35.5,39.9C35.6,39.8,35.6,39.8,35.5,39.9z"/>
		</g>
	</g>
	<g id="XMLID_1119_">
		<g id="XMLID_1120_">
			<path id="XMLID_1121_" class="st11" d="M36.5,41.9c0.1,0,0.2,0,0.3,0h0.1l0,0l0,0v-0.1c0,0,0,0,0-0.1v-0.1l0,0l0,0
				c0-0.1,0.1-0.2,0.2-0.3c0,0,0,0,0-0.1c0,0,0,0,0.1,0l0,0c0,0,0-0.1,0.1-0.1l0,0c0.1,0,0.1-0.1,0.2-0.1c0,0,0,0,0.1-0.1l0,0l0,0
				h0.1l0,0l0,0l0,0l0,0c0.1-0.1,0.2-0.1,0.3-0.1c0,0,0,0,0.1,0l0,0c0,0,0,0,0.1,0s0.1,0,0.1,0l0,0c0.1,0,0.2,0,0.2,0.1h0.1h0.1l0,0
				l0,0c0,0,0,0.1,0.1,0.1c0,0,0,0,0.1,0s0.1,0.1,0.2,0.1l0,0c0,0,0,0,0.1,0l0,0h0.1c0.1,0,0.2-0.1,0.2-0.2c0.1-0.1,0.1-0.2,0.2-0.2
				v-0.1c0,0,0,0,0-0.1s-0.1-0.1-0.1-0.1c-0.1,0-0.1-0.1-0.2-0.2l-0.1-0.1c0,0,0,0-0.1,0c0,0,0,0-0.1,0C39,40,38.9,40,38.9,40
				c-0.1,0-0.1,0-0.2-0.1c-0.1,0-0.1,0-0.2,0h-0.1c0,0,0,0-0.1,0h-0.1c-0.1,0-0.1,0-0.2,0c-0.1,0-0.1,0-0.2,0l0,0l0,0h-0.1h-0.1
				c0,0,0,0-0.1,0h-0.1L37.3,40c0,0,0,0-0.1,0l0,0l0,0l0,0c-0.1,0-0.1,0.1-0.2,0.1s-0.1,0.1-0.2,0.1c-0.1,0-0.1,0.1-0.1,0.2l0,0
				c0,0,0,0-0.1,0l-0.1,0.1l-0.1,0.1c-0.1,0-0.1,0.1-0.2,0.2c0,0,0,0,0,0.1s0,0.1-0.1,0.1v0.1c0,0.1,0,0.2-0.1,0.3c0,0,0,0,0,0.1
				v0.1v0.1c0,0,0,0,0,0.1c0.1,0,0.1,0.1,0.2,0.1C36.3,41.9,36.4,41.9,36.5,41.9z"/>
		</g>
	</g>
	<g id="XMLID_1116_">
		<g id="XMLID_1117_">
			<path id="XMLID_1118_" class="st11" d="M45.9,47.4c-0.1,0-0.2,0.1-0.2,0.1s-0.1,0-0.1,0.1c0,0,0,0,0,0.1s0,0.1,0,0.1v0.1
				c0,0,0,0.1,0.1,0.1c0,0,0.1,0,0.1,0.1c0,0,0,0,0,0.1c0,0,0,0,0,0.1c0.1,0.2,0.2,0.3,0.3,0.4l0.1,0.1c0,0,0,0,0,0.1
				c0,0,0,0,0.1,0.1l0.1,0.1h0.1c0.1,0.1,0.2,0.2,0.3,0.2l0.1,0.1H47l0,0h0.1h0.1h0.1c0,0,0,0,0.1,0c0,0,0,0,0.1,0
				c0.2,0,0.3,0.1,0.5,0.1h0.1c0,0,0,0,0.1,0h0.1c0.1,0,0.1,0,0.2,0c0,0,0,0,0.1,0s0.2,0,0.4,0c0.1,0,0.1,0,0.2,0c0,0,0.1,0,0.1-0.1
				l0,0l0,0h0.1h0.1c0.1,0,0.2,0,0.3-0.1h0.1c0,0,0.1,0,0.1-0.1c0,0,0,0,0.1,0c0,0,0-0.1,0-0.2c0-0.1,0-0.2-0.1-0.3
				c0-0.1-0.1-0.2-0.2-0.2l-0.1-0.1c0,0,0,0-0.1,0c0,0-0.1,0-0.1,0.1c-0.1,0.1-0.2,0-0.2,0h-0.1c0,0,0,0-0.1,0l0,0
				c-0.1,0-0.1,0-0.2,0c-0.1,0-0.1,0-0.2,0c-0.1,0-0.1,0-0.2,0l0,0c0,0,0,0-0.1,0h-0.1c-0.1,0-0.1,0-0.2,0c-0.1-0.1-0.1,0-0.2-0.1
				l0,0l0,0c0,0,0,0-0.1,0h-0.1c0,0,0,0-0.1,0l0,0h-0.1c0,0,0,0-0.1,0l0,0l0,0l0,0c0,0-0.1-0.1-0.2-0.1l-0.1-0.1c0,0-0.1,0-0.1-0.1
				l0,0V48l-0.1-0.1l-0.1-0.1c0-0.1-0.1-0.1-0.1-0.2h-0.1v-0.1l-0.1-0.1c0,0-0.1-0.1-0.1-0.2c0,0,0,0,0-0.1c0,0-0.1,0-0.1-0.1v-0.1
				l0,0c0,0-0.1,0-0.2,0C45.9,47.3,45.9,47.3,45.9,47.4z"/>
		</g>
	</g>
	<g id="XMLID_1114_">
		<path id="XMLID_1115_" class="st11" d="M43.6,40.5v-0.4c0-0.5,0.3-0.9,0.8-0.9c0.5-0.1,0.9,0.3,0.9,0.8v0.4c0,0.5-0.3,0.9-0.8,0.9
			c0,0,0,0-0.1,0C44,41.3,43.6,40.9,43.6,40.5z"/>
	</g>
	<g id="XMLID_1112_">
		<path id="XMLID_1113_" class="st11" d="M53,40v-0.4c0-0.5,0.3-0.9,0.8-0.9c0.5-0.1,0.9,0.3,0.9,0.8v0.4c0,0.5-0.3,0.9-0.8,0.9
			c0,0,0,0-0.1,0C53.3,40.8,53,40.5,53,40z"/>
	</g>
	<g id="XMLID_1109_">
		<g id="XMLID_1110_">
			<path id="XMLID_1111_" class="st11" d="M42.3,37.6c0,0.1,0.1,0.1,0.2,0.2c0,0,0,0.1,0.1,0.1c0,0,0,0,0.1,0h0.1h0.1l0,0l0,0l0,0
				l0,0c0.1-0.1,0.2-0.1,0.3-0.2c0,0,0,0,0.1-0.1c0,0,0,0,0.1,0c0,0,0,0,0.1,0c0,0,0.1,0,0.1-0.1l0,0c0.1,0,0.2,0,0.2-0.1h0.1
				c0,0,0,0,0.1,0l0,0h0.1c0,0,0,0,0.1,0s0,0,0.1,0l0,0c0,0,0,0,0.1,0s0.2,0,0.3,0h0.1c0,0,0,0,0.1,0c0,0,0,0,0.1,0s0.1,0,0.1,0l0,0
				c0.1,0,0.2,0,0.2,0h0.1h0.1l0,0l0,0c0,0,0,0,0.1,0c0,0,0,0,0.1,0s0.1,0.1,0.2,0.1c0,0,0,0,0.1,0c0,0,0,0,0.1,0l0,0
				c0,0,0.1,0,0.1-0.1s0.1-0.1,0.1-0.2c0-0.1,0.1-0.2,0.1-0.3v-0.1l0,0h-0.1c-0.1,0-0.1-0.1-0.2-0.1H46c0,0,0,0-0.1,0h-0.1
				c-0.1,0-0.1,0-0.2,0s-0.1,0-0.2,0c-0.1,0-0.1,0-0.2,0l0,0c0,0,0,0-0.1,0H45c-0.1,0-0.1,0-0.2,0c-0.1,0-0.1,0-0.2,0l0,0l0,0h-0.1
				h-0.1c0,0,0,0-0.1,0l0,0h-0.1c0,0,0,0-0.1,0l0,0l0,0l0,0c-0.1,0-0.1,0-0.2,0s-0.1,0-0.2,0l-0.1,0.1l0,0c0,0,0,0-0.1,0h-0.1
				c0,0-0.1,0-0.2,0.1c-0.1,0-0.1,0.1-0.2,0.1c0,0,0,0.1-0.1,0.1h-0.1l-0.1,0.1c-0.1,0-0.1,0.1-0.2,0.1c0,0,0,0-0.1,0
				c0,0,0,0.1-0.1,0.1l-0.1,0.1c0,0,0,0,0,0.1C42.1,37.4,42.1,37.4,42.3,37.6C42.2,37.6,42.2,37.6,42.3,37.6z"/>
		</g>
	</g>
	<g id="XMLID_308_">
		<g id="XMLID_309_">
			<path id="XMLID_1108_" class="st11" d="M55.4,36.8c0.1-0.1,0.1-0.2,0.1-0.2v-0.1c0,0,0,0,0-0.1v-0.1h-0.1c0,0,0,0-0.1,0
				c0,0,0,0-0.1,0l0,0c0,0,0,0-0.1,0c-0.2,0-0.3-0.1-0.4-0.2h-0.1c0,0,0,0-0.1,0c0,0,0,0-0.1,0h-0.1c0,0,0,0-0.1,0s-0.2,0-0.3-0.1
				h-0.1c0,0,0,0-0.1,0l0,0h-0.1c0,0,0,0-0.1,0c0,0,0,0-0.1,0c0,0,0,0-0.1,0c0,0,0,0-0.1,0c-0.2,0-0.3,0-0.4,0h-0.1c0,0,0,0-0.1,0
				c0,0,0,0-0.1,0h-0.1c0,0,0,0-0.1,0s-0.2,0-0.3,0h-0.1c0,0-0.1,0-0.1,0.1l0,0l0,0h-0.1c0,0,0,0.1-0.1,0.1s-0.2,0-0.2,0.1
				c0,0,0,0-0.1,0c0,0,0,0-0.1,0.1l0,0c0,0-0.1,0.1,0,0.1c0,0.1,0,0.2,0.1,0.3s0.1,0.2,0.2,0.2l0.1,0.1l0,0c0,0,0.1,0,0.1-0.1
				c0.1,0,0.1,0,0.2,0H52l0,0l0,0c0.1,0,0.1,0,0.2,0c0.1,0,0.1,0,0.2,0c0.1,0,0.1-0.1,0.1-0.1l0,0c0,0,0,0,0.1,0h0.1h0.1
				c0.1,0.1,0.1,0,0.2,0l0,0l0,0c0,0,0,0,0.1,0h0.1c0,0,0,0,0.1,0l0,0h0.1c0,0,0,0,0.1,0l0,0l0,0l0,0c0.1,0,0.1,0,0.2,0h0.1h0.1l0,0
				l0,0H54c0.1,0,0.1,0,0.1,0.1s0.1,0,0.1,0.1c0,0,0,0,0.1,0c0,0,0,0.1,0.1,0.1h0.1c0,0,0.1,0.1,0.2,0.1l0,0h0.1h0.1c0,0,0,0,0.1,0
				s0.1-0.1,0.2-0.2C55.5,37,55.5,36.9,55.4,36.8z"/>
		</g>
	</g>
</g>
</svg>
