<?xml version="1.0" encoding="utf-8"?>
<!-- Generator: Adobe Illustrator 22.1.0, SVG Export Plug-In . SVG Version: 6.00 Build 0)  -->
<svg version="1.1" id="Capa_1" xmlns="http://www.w3.org/2000/svg" xmlns:xlink="http://www.w3.org/1999/xlink" x="0px" y="0px"
	 viewBox="0 0 226.8 181.1" style="enable-background:new 0 0 226.8 181.1;" xml:space="preserve">
<style type="text/css">
	.st0{fill:#1A1B1D;}
	.st1{fill:#219E56;}
	.st2{fill:#1F8A4B;}
	.st3{fill:#81D886;}
	.st4{fill:#F2CDAC;}
	.st5{fill:#E1BA9E;}
	.st6{fill:#C6A48F;}
	.st7{fill:#FFFFFF;}
</style>
<g id="XMLID_1_">
	<g id="XMLID_590_">
		<g id="XMLID_591_">
			<path id="XMLID_592_" class="st0" d="M78.9,3.2c-1.6-2.5-4.9-3.5-7.9-3.1c-2.9,0.4-5.6,2-8.3,3.5c-2.7,1.5-5.3,2.9-8.4,3.2
				c-4.5,0.4-9.3-1.9-13.5,0c-2.4,1.1-4,3.3-5.7,5.3c-1.7,2-3.9,4-6.5,4c-2.1,0-4.1-1.3-6.3-1.9c-2.4-0.7-5.2-0.1-7.2,1.3
				c-2,1.6-3.1,4.3-2.5,6.8c0.5,2.5,2.8,5.1,5.2,5.2c2.9,0.3,5.5-0.8,8.3-1.1c3.1-0.1,5.7,1.6,8.4,3.1c2.7,1.5,6.1,2.4,8.5,0.7
				c2.1-1.5,2.8-4.4,4.8-6c2.3-1.9,5.7-1.5,8.5-0.8c2.9,0.7,6,0,8.8-1.2c2.7-1.2,4.3-4.1,6.4-6c1.3-1.1,2.8-2,4-3.2
				c1.5-1.6,2.3-3.7,2.9-5.9C79.5,5.7,80,4.5,78.9,3.2"/>
		</g>
	</g>
	<g id="XMLID_587_">
		<g id="XMLID_588_">
			<path id="XMLID_589_" class="st1" d="M19.8,49.2c-2.5,0.5-5.2-1.1-5.7-3.6c-0.5-2.5,1.1-5.2,3.6-5.7l10.7-2.4l1.9,8.7L20,49.2
				C20,49.2,19.9,49.2,19.8,49.2z"/>
		</g>
	</g>
	<g id="XMLID_585_">
		<path id="XMLID_586_" class="st2" d="M11.8,73.8c-16.7,3.6-4.7,1.1-8.4,1.9l0,0l0,0l0,0v0.1l0.1,0.3l0.1,0.5
			c0.1,0.3,0.1,0.7,0.3,0.9c0.3,0.7,0.4,1.2,0.8,1.9c0.5,1.2,1.2,2.4,2,3.5c1.6,2.1,3.5,4,5.7,5.3c2.3,1.3,4.8,2.3,7.3,2.8
			c0.7,0.1,1.3,0.1,2,0.3c0.7,0,1.3,0,1.9,0l2.4-0.1l19-0.8L38.1,83l0.3,37.5c0,2.4,1.9,4.3,4.3,4.1c2.1,0,3.9-1.6,4.1-3.6L51.8,84
			c0.5-3.5-2-6.8-5.5-7.3c-0.3,0-0.4,0-0.7,0h-0.8l-19-0.8l-2.4-0.1L23,75.6c-0.1,0-0.3-0.1-0.4-0.1c-0.5-0.1-0.9-0.4-1.3-0.8
			c-0.4-0.3-0.7-0.8-0.9-1.2c-0.1-0.3-0.1-0.4-0.3-0.7c0-0.1,0-0.3-0.1-0.4v-0.1v-0.1l0,0l0,0l0,0l0,0l0,0
			C16.4,72.8,28.6,70.2,11.8,73.8z"/>
	</g>
	<g id="XMLID_583_">
		<path id="XMLID_584_" class="st2" d="M25,70.7c-16.7,3.6-4.7,1.1-8.4,1.9l0,0l0,0l0,0v0.1l0.1,0.3l0.1,0.5
			c0.1,0.3,0.1,0.7,0.3,0.9c0.3,0.7,0.4,1.2,0.8,1.9c0.5,1.2,1.2,2.4,2,3.5c1.6,2.1,3.5,4,5.7,5.3c2.3,1.3,4.8,2.3,7.3,2.8
			c0.7,0.1,1.3,0.1,2,0.3c0.7,0,1.3,0,1.9,0l2.4-0.1l18.8-0.8l-6.9-6.4l5.5,34.6c0.4,2.3,2.5,3.9,4.8,3.5c2.1-0.3,3.6-2.1,3.6-4.1
			v-35c0-3.5-2.7-6.3-6.1-6.4h-0.8l-18.8-0.8l-2.4-0.1l-0.5-0.1c-0.1,0-0.3-0.1-0.4-0.1c-0.5-0.1-0.9-0.4-1.3-0.8
			c-0.4-0.3-0.7-0.8-0.9-1.2c-0.1-0.3-0.1-0.4-0.3-0.7c0-0.1,0-0.3-0.1-0.4V69v-0.1l0,0l0,0l0,0l0,0l0,0
			C29.5,69.8,41.7,67.1,25,70.7z"/>
	</g>
	<g id="XMLID_581_">
		<path id="XMLID_582_" class="st3" d="M33.8,68.9c0,0-3.6-15.9-5.7-25.1c-1.6-7.2-8-4.1-16.2-2.5C3.7,42.8,0.1,46.7,0.5,53.5
			s2,24.3,2,24.3s4.8,0.7,16.2-1.1C29.8,74.9,33.8,68.9,33.8,68.9z"/>
	</g>
	<g id="XMLID_544_">
		<g id="XMLID_578_">
			<g id="XMLID_579_">
				<path id="XMLID_580_" class="st4" d="M15.1,43.8c1.6-0.3,2.7-1.6,2.5-3.2L17,35.5c-0.3-1.6-1.6-2.7-3.2-2.5
					c-1.6,0.3-2.7,1.6-2.5,3.2l0.7,5.1C12,42.8,13.5,43.9,15.1,43.8z"/>
			</g>
		</g>
		<g id="XMLID_575_">
			<g id="XMLID_576_">
				<path id="XMLID_577_" class="st0" d="M17.6,40.4L17,35.4c-0.3-1.6-1.6-2.7-3.2-2.5c-1.6,0.3-2.7,1.6-2.5,3.2l0,0l2.3,3.1
					L17.6,40.4z"/>
			</g>
		</g>
		<g id="XMLID_545_">
			<g id="XMLID_572_">
				<g id="XMLID_573_">
					<path id="XMLID_574_" class="st4" d="M16.2,39.5c1.6-0.3,3.2-1.5,4-2.8c0.7-1.3,0.4-2.7-0.1-4c-0.5-1.3-1.1-2.8-2-3.7
						c-1.1-0.9-2.5-1.5-4-1.2c-2.4,0.4-4.1,2.8-3.6,5.2l0.5,2.8C11.4,38.3,13.8,39.9,16.2,39.5z"/>
				</g>
			</g>
			<g id="XMLID_569_">
				<g id="XMLID_570_">
					<path id="XMLID_571_" class="st4" d="M11.9,35.4c-0.3,0.1-0.5,0.1-0.8,0.3c-0.1,0-0.1,0-0.3,0.1l-0.1,0.1
						c-0.1,0.1-0.1,0-0.1-0.3c0,0,0.5,0,0.7,0s0.4-0.1,0.5-0.1C11.6,35.5,11.6,35.5,11.9,35.4c0.1,0,0.1,0-0.1,0.3
						c0-0.9,1.5-0.9,1.5,0s-0.8,1.2-1.6,1.3c-0.7,0.1-1.3,0.3-2-0.1c-0.7-0.4-0.7-1.2-0.3-1.9c0.1-0.3,0.4-0.5,0.7-0.7
						c0.3-0.1,0.7-0.1,0.9-0.3C12,33.6,12.7,35,11.9,35.4L11.9,35.4z"/>
				</g>
			</g>
			<g id="XMLID_546_">
				<g id="XMLID_566_">
					<g id="XMLID_567_">
						<path id="XMLID_568_" class="st0" d="M17.4,34.8L17.4,34.8C17.5,34.8,17.5,34.8,17.4,34.8l0.1-0.1c0,0,0,0,0.1,0l0,0h0.1l0,0
							l0,0l0,0h0.1c0,0,0,0,0.1,0l0,0l0,0l0,0c0,0,0,0,0-0.1c0-0.1,0-0.1,0-0.1v-0.1l0,0l0,0l0,0l0,0v-0.1l0,0l0,0l0,0l0,0l0,0l0,0
							V34v-0.1l0,0l0,0l0,0v-0.1v-0.1v-0.1l0,0l0,0v-0.1v-0.1c0,0,0,0,0-0.1l0,0l0,0c0,0,0,0,0.1,0c0,0,0,0,0.1,0l0,0l0,0l0,0l0,0
							v0.1l0,0c0,0,0,0,0,0.1l0,0l0,0c0,0,0,0,0,0.1c0,0,0,0,0,0.1v0.1l0,0c0,0,0,0,0,0.1l0,0l0,0c0,0,0,0,0,0.1
							c0,0.1,0,0.1,0.1,0.3l0,0l0,0l0,0l0,0l0,0l0,0l0,0v0.1c0,0.1,0,0.1,0,0.3l0,0c0,0,0,0.1-0.1,0.1l0,0l0,0c0,0,0,0-0.1,0
							c-0.1,0-0.3,0.1-0.3,0.1l0,0l0,0l0,0C17.9,35,17.5,35,17.4,34.8L17.4,34.8C17.4,35,17.4,35,17.4,34.8
							C17.4,35,17.4,35,17.4,34.8C17.4,35,17.4,35,17.4,34.8L17.4,34.8C17.4,35,17.4,35,17.4,34.8z"/>
					</g>
				</g>
				<g id="XMLID_563_">
					<g id="XMLID_564_">
						<path id="XMLID_565_" class="st0" d="M10,35.6C10,35.6,10,35.5,10,35.6C10,35.5,10,35.5,10,35.6L10,35.6
							C10,35.5,10,35.5,10,35.6v-0.1c0,0,0,0,0-0.1l0,0l0,0l0,0c0,0,0,0,0.1,0l0,0l0,0l0,0l0,0l0,0c0,0,0,0,0.1,0c0,0,0,0,0.1,0l0,0
							l0,0l0,0l0,0l0,0l0,0l0,0l0,0l0,0l0,0l0,0c0,0,0,0,0.1,0l0,0l0,0l0,0l0,0l0,0l0,0l0,0l0,0l0,0l0,0v0.1l0,0l0,0l0,0
							c0,0,0,0-0.1,0c0,0,0,0-0.1,0l0,0l0,0l0,0l0,0l0,0l0,0l0,0l0,0l0,0l0,0l0,0l0,0l0,0l0,0l0,0l0,0l0,0h-0.1l0,0l0,0l0,0l0,0l0,0
							l0,0l0,0l0,0c0,0,0,0-0.1,0l0,0l0,0l0,0l0,0l0,0c0,0-0.1,0-0.1,0.1l0,0l0,0l0,0l0,0l0,0l0,0l0,0C10.2,35.6,10.2,35.6,10,35.6
							C10.2,35.6,10.2,35.6,10,35.6L10,35.6z"/>
					</g>
				</g>
				<g id="XMLID_560_">
					<g id="XMLID_561_">
						<path id="XMLID_562_" class="st0" d="M10.3,36.2L10.3,36.2L10.3,36.2L10.3,36.2C10.3,36,10.3,36,10.3,36.2L10.3,36.2
							C10.2,36,10.2,36,10.2,36l0,0l0,0l0,0l0,0l0,0l0,0l0,0l0,0l0,0l0,0l0,0l0,0l0,0l0,0l0,0l0,0l0,0l0,0l0,0l0,0l0,0l0,0
							c0,0,0,0,0.1,0l0,0l0,0l0,0l0,0l0,0c0,0,0,0,0.1,0c0,0,0,0,0.1,0l0,0l0,0l0,0c0,0,0,0,0.1,0l0,0l0,0l0,0c0,0,0,0,0,0.1l0,0
							l0,0l0,0l0,0l0,0l0,0l0,0l0,0l0,0l0,0l0,0l0,0c0,0,0,0-0.1,0l0,0l0,0l0,0l0,0l0,0c0,0,0,0-0.1,0l0,0l0,0l0,0l0,0l0,0l0,0l0,0
							l0,0l0,0l0,0l0,0l0,0l0,0l0,0C10.4,36,10.4,36.2,10.3,36.2L10.3,36.2C10.4,36.2,10.4,36.2,10.3,36.2L10.3,36.2L10.3,36.2
							L10.3,36.2C10.4,36.2,10.4,36.3,10.3,36.2L10.3,36.2C10.4,36.3,10.4,36.3,10.3,36.2C10.3,36.3,10.3,36.3,10.3,36.2L10.3,36.2z
							"/>
					</g>
				</g>
				<g id="XMLID_557_">
					<g id="XMLID_558_">
						<path id="XMLID_559_" class="st0" d="M16.8,35.5L16.8,35.5L16.8,35.5L16.8,35.5L16.8,35.5c0.1,0,0.1,0,0.1,0l0,0l0,0l0,0l0,0
							l0,0l0,0l0,0l0,0l0,0l0,0l0,0l0,0l0,0l0,0l0,0l0,0l0,0l0,0l0,0l0,0l0,0l0,0l0,0l0,0l0,0l0,0l0,0l0,0l0,0l0,0l0,0l0,0l0,0l0,0
							c0,0,0,0,0.1,0l0,0l0,0l0,0l0,0c0,0,0,0,0,0.1l0,0l0,0l0,0l0,0c0,0,0,0-0.1,0l0,0l0,0l0,0l0,0l0,0l0,0h-0.1l0,0l0,0l0,0l0,0
							l0,0h-0.1l0,0l0,0l0,0l0,0l0,0l0,0l0,0l0,0h-0.1l0,0l0,0l0,0l0,0l0,0l-0.1-0.1l0,0l0,0l0,0l0,0l0,0l0,0
							C16.7,35.6,16.7,35.6,16.8,35.5L16.8,35.5C16.8,35.6,16.8,35.6,16.8,35.5C16.7,35.5,16.7,35.5,16.8,35.5z"/>
					</g>
				</g>
				<g id="XMLID_555_">
					<path id="XMLID_556_" class="st0" d="M16,33.9C16.2,33.9,16.2,33.9,16,33.9c0.1,0,0.3-0.1,0.3-0.3v-0.1c0-0.1-0.1-0.3-0.3-0.3
						c-0.1,0-0.3,0.1-0.3,0.3v0.1C15.9,33.7,16,33.9,16,33.9z"/>
				</g>
				<g id="XMLID_553_">
					<path id="XMLID_554_" class="st0" d="M18.7,33.3C18.8,33.3,18.8,33.3,18.7,33.3c0.1,0,0.3-0.1,0.3-0.3v-0.1
						c0-0.1-0.1-0.3-0.3-0.3c-0.1,0-0.3,0.1-0.3,0.3v0.1C18.6,33.2,18.7,33.3,18.7,33.3z"/>
				</g>
				<g id="XMLID_550_">
					<g id="XMLID_551_">
						<path id="XMLID_552_" class="st0" d="M15.4,32.8C15.4,32.8,15.2,32.8,15.4,32.8L15.4,32.8L15.4,32.8
							C15.4,32.8,15.4,32.7,15.4,32.8c0-0.1,0-0.1,0-0.1l0,0l0,0l0,0l0,0l0,0l0,0l0,0l0,0l0,0l0,0l0,0l0,0l0,0l0,0l0,0l0,0l0,0l0,0
							l0,0l0,0l0,0l0,0l0,0l0,0l0,0l0,0l0,0l0,0l0,0l0,0l0,0l0,0l0,0l0,0c0,0,0,0,0.1,0l0,0l0,0l0,0c0,0,0,0,0,0.1c0,0,0,0,0,0.1
							l0,0l0,0l0,0l0,0l0,0l0,0l0,0l0,0l0,0l0,0l0,0c0,0,0,0-0.1,0l0,0l0,0l0,0l0,0l0,0h-0.1l0,0l0,0l0,0l0,0l0,0l0,0l0,0l0,0l0,0
							l0,0l0,0l0,0l0,0l0,0c0,0,0,0-0.1,0C15.5,32.8,15.5,32.8,15.4,32.8L15.4,32.8L15.4,32.8L15.4,32.8L15.4,32.8L15.4,32.8
							C15.4,32.9,15.4,32.9,15.4,32.8C15.4,32.9,15.4,32.9,15.4,32.8L15.4,32.8C15.4,32.9,15.4,32.8,15.4,32.8z"/>
					</g>
				</g>
				<g id="XMLID_547_">
					<g id="XMLID_548_">
						<path id="XMLID_549_" class="st0" d="M19.1,32.1C19.1,32.3,19.1,32.3,19.1,32.1L19.1,32.1L19.1,32.1L19.1,32.1
							C19,32.3,19,32.3,19.1,32.1c-0.1,0-0.1,0-0.1,0l0,0l0,0l0,0l0,0l0,0l0,0l0,0l0,0l0,0l0,0l0,0l0,0l0,0l0,0l0,0l0,0l0,0l0,0l0,0
							l0,0l0,0l0,0l0,0l0,0l0,0l0,0l0,0l0,0l0,0l0,0l0,0l0,0l0,0l0,0l0,0l0,0l0,0l0,0c0,0,0,0,0-0.1l0,0l0,0l0,0l0,0c0,0,0,0,0.1,0
							l0,0l0,0l0,0l0,0l0,0l0,0c0,0,0,0,0.1,0l0,0l0,0l0,0l0,0l0,0h0.1l0,0l0,0l0,0l0,0l0,0l0,0l0,0l0,0c0,0,0,0,0.1,0l0,0l0,0l0,0
							l0,0l0,0h0.1l0,0l0,0l0,0l0,0l0,0l0,0l0,0C19.2,32,19.2,32,19.1,32.1C19.2,32.1,19.1,32.1,19.1,32.1L19.1,32.1z"/>
					</g>
				</g>
			</g>
		</g>
	</g>
	<g id="XMLID_542_">
		<path id="XMLID_543_" class="st0" d="M17.9,28.7c0,0.9-0.7,1.7-1.3,2.3c-1.7,1.6-3.9,2.5-6,2.9c0,0-1.3-4.5,2.1-5.7
			C16.2,26.9,17.9,28.7,17.9,28.7z"/>
	</g>
	<g id="XMLID_538_">
		<g id="XMLID_539_">
			<g id="XMLID_540_">
				<path id="XMLID_541_" class="st5" d="M70.4,79.6l23.8,1.9l11.9,0.9l6,0.4L115,83h0.8c0.1,0,0.3,0,0.1,0s-0.3-0.1-0.4-0.1
					c-0.5-0.1-0.9-0.4-1.3-0.7c-0.8-0.5-1.5-1.3-1.7-2.3c-0.1-0.3-0.1-0.5-0.1-0.7s0-0.3,0-0.4v-0.1v-0.1c0,0,0-0.1,0,0l0.1,1.5
					l0.7,5.9l1.3,11.9l2.7,23.8l13.8-0.8l-0.3-23.9L130.5,85l-0.1-6v-1.5V77v-0.5c0-0.4-0.1-0.7-0.1-1.1c-0.1-0.7-0.4-1.5-0.7-2.1
					c-1.1-2.8-2.9-5.2-5.5-6.8c-1.2-0.8-2.7-1.5-4.1-1.7c-0.4-0.1-0.7-0.1-1.1-0.3l-0.7-0.1l-0.7-0.1l-2.9-0.5l-5.9-1.1L97,60.5
					l-23.6-3.9L70.4,79.6z"/>
			</g>
		</g>
	</g>
	<g id="XMLID_534_">
		<g id="XMLID_535_">
			<g id="XMLID_536_">
				<path id="XMLID_537_" class="st6" d="M127.7,49.2l13.1,0.7c0.9,0,1.6-0.7,1.7-1.6c0-0.8-0.5-1.5-1.3-1.6L128.4,44
					c-1.5-0.3-2.9,0.7-3.2,2.1c-0.3,1.5,0.7,2.9,2.1,3.2C127.4,49.1,127.6,49.2,127.7,49.2z"/>
			</g>
		</g>
	</g>
	<g id="XMLID_316_">
		<g id="XMLID_530_">
			<g id="XMLID_531_">
				<g id="XMLID_532_">
					<path id="XMLID_533_" class="st0" d="M116.9,137.3c0.1,0,0.3,0,0.3-0.1l7.9-8.4c0.1-0.1,0.1-0.4,0-0.5c-0.1-0.1-0.4-0.1-0.5,0
						l-7.9,8.4c-0.1,0.1-0.1,0.4,0,0.5C116.7,137.1,116.7,137.3,116.9,137.3z"/>
				</g>
			</g>
		</g>
		<g id="XMLID_526_">
			<g id="XMLID_527_">
				<g id="XMLID_528_">
					<path id="XMLID_529_" class="st0" d="M120.7,129.4h6.9c0.4,0,0.8-0.4,0.8-0.8s-0.4-0.8-0.8-0.8h-6.9c-0.4,0-0.8,0.4-0.8,0.8
						S120.2,129.4,120.7,129.4z"/>
				</g>
			</g>
		</g>
		<g id="XMLID_522_">
			<g id="XMLID_523_">
				<g id="XMLID_524_">
					<path id="XMLID_525_" class="st0" d="M6,139.4c0-23,18.7-41.7,41.7-41.7s41.7,18.7,41.7,41.7s-18.7,41.7-41.7,41.7
						S6,162.4,6,139.4z M10.7,139.4c0,20.4,16.6,37,37,37s37-16.6,37-37s-16.6-37-37-37C27.4,102.4,10.7,119,10.7,139.4z"/>
				</g>
			</g>
		</g>
		<g id="XMLID_391_">
			<g id="XMLID_392_">
				<g id="XMLID_393_">
					<path id="XMLID_521_" class="st0" d="M143.5,139.4c0-23,18.7-41.7,41.7-41.7s41.7,18.7,41.7,41.7s-18.7,41.7-41.7,41.7
						S143.5,162.4,143.5,139.4z M148.1,139.4c0,20.4,16.6,37,37,37s37-16.6,37-37s-16.6-37-37-37C164.7,102.4,148.1,119,148.1,139.4
						z"/>
				</g>
			</g>
		</g>
		<g id="XMLID_381_">
			<g id="XMLID_382_">
				<g id="XMLID_389_">
					<path id="XMLID_390_" class="st0" d="M141,139.8c0.3,0,0.4-0.1,0.4-0.4c0-24.2,19.6-43.7,43.7-43.7c11.6,0,22.7,4.5,30.9,12.8
						c0.1,0.1,0.4,0.1,0.5,0c0.1-0.1,0.1-0.4,0-0.5c-8.4-8.4-19.6-13.1-31.4-13.1c-24.6,0-44.5,19.9-44.5,44.5
						C140.6,139.5,140.8,139.8,141,139.8z"/>
				</g>
			</g>
		</g>
		<g id="XMLID_377_">
			<g id="XMLID_378_">
				<g id="XMLID_379_">
					<path id="XMLID_380_" class="st0" d="M3.6,139.8c0.3,0,0.4-0.1,0.4-0.4c0-24.2,19.6-43.7,43.7-43.7c10,0,19.9,3.5,27.6,9.9
						c0.1,0.1,0.4,0.1,0.5,0s0.1-0.4,0-0.5c-7.9-6.4-17.9-10-28.2-10c-24.6,0-44.5,19.9-44.5,44.5C3.2,139.5,3.3,139.8,3.6,139.8z"
						/>
				</g>
			</g>
		</g>
		<g id="XMLID_373_">
			<g id="XMLID_374_">
				<g id="XMLID_375_">
					<path id="XMLID_376_" class="st0" d="M185.1,139.8h0.1c0.3-0.1,0.3-0.3,0.3-0.5l-30.6-83.1c-0.1-0.3-0.3-0.3-0.5-0.3
						c-0.3,0.1-0.3,0.3-0.3,0.5l30.6,83.1C184.9,139.7,185,139.8,185.1,139.8z"/>
				</g>
			</g>
		</g>
		<g id="XMLID_369_">
			<g id="XMLID_370_">
				<g id="XMLID_371_">
					<path id="XMLID_372_" class="st0" d="M99,139h0.1c0.3-0.1,0.3-0.3,0.3-0.5L77.6,80.4c-0.1-0.3-0.3-0.3-0.5-0.3
						c-0.3,0.1-0.3,0.3-0.3,0.5l21.8,58.1C98.6,138.9,98.8,139,99,139z"/>
				</g>
			</g>
		</g>
		<g id="XMLID_365_">
			<g id="XMLID_366_">
				<g id="XMLID_367_">
					<path id="XMLID_368_" class="st0" d="M93,121.5h0.5l0,0c13.6-0.1,26.8-5.3,36.6-14.6l1.9-1.9c9.5-8.9,21.9-13.9,35-13.9
						c0.3,0,0.4-0.1,0.4-0.4c0-0.3-0.1-0.4-0.4-0.4c-13.2,0-25.9,5.1-35.5,14.2l-1.9,1.9c-9.6,9.1-23,14.3-36.6,14.3
						c-0.3,0-0.4,0.1-0.4,0.4C92.6,121.4,92.7,121.5,93,121.5z"/>
				</g>
			</g>
		</g>
		<g id="XMLID_361_">
			<g id="XMLID_362_">
				<g id="XMLID_363_">
					<path id="XMLID_364_" class="st0" d="M137.7,60.6h11.9c2.9,0,5.3-2.4,5.3-5.3s-2.4-5.3-5.3-5.3h-11.9c-0.3,0-0.4,0.1-0.4,0.4
						c0,0.3,0.1,0.4,0.4,0.4h11.9c2.5,0,4.5,2,4.5,4.5c0,2.5-2,4.5-4.5,4.5h-11.9c-0.3,0-0.4,0.1-0.4,0.4
						C137.3,60.3,137.4,60.6,137.7,60.6z"/>
				</g>
			</g>
		</g>
		<g id="XMLID_357_">
			<g id="XMLID_358_">
				<g id="XMLID_359_">
					<path id="XMLID_360_" class="st0" d="M43.1,139.4c0-2.5,2-4.7,4.7-4.7c2.7,0,4.7,2.1,4.7,4.7c0,2.5-2,4.7-4.7,4.7
						C45.1,143.9,43.1,141.9,43.1,139.4z M43.9,139.4c0,2.1,1.7,3.9,3.9,3.9c2.1,0,3.9-1.7,3.9-3.9s-1.7-3.9-3.9-3.9
						C45.5,135.5,43.9,137.3,43.9,139.4z"/>
				</g>
			</g>
		</g>
		<g id="XMLID_353_">
			<g id="XMLID_354_">
				<g id="XMLID_355_">
					<path id="XMLID_356_" class="st0" d="M180.5,139.4c0-2.5,2-4.7,4.7-4.7c2.5,0,4.7,2.1,4.7,4.7c0,2.5-2.1,4.7-4.7,4.7
						C182.5,143.9,180.5,141.9,180.5,139.4z M181.1,139.4c0,2.1,1.7,3.9,3.9,3.9s3.9-1.7,3.9-3.9s-1.7-3.9-3.9-3.9
						C182.9,135.5,181.1,137.3,181.1,139.4z"/>
				</g>
			</g>
		</g>
		<g id="XMLID_349_">
			<g id="XMLID_350_">
				<g id="XMLID_351_">
					<path id="XMLID_352_" class="st0" d="M186.3,139.4c0,0.7-0.5,1.2-1.2,1.2s-1.2-0.5-1.2-1.2c0-0.7,0.5-1.2,1.2-1.2
						C185.7,138.1,186.3,138.6,186.3,139.4z"/>
				</g>
			</g>
		</g>
		<g id="XMLID_345_">
			<g id="XMLID_346_">
				<g id="XMLID_347_">
					<path id="XMLID_348_" class="st0" d="M49,139.4c0,0.7-0.5,1.2-1.2,1.2s-1.2-0.5-1.2-1.2c0-0.7,0.5-1.2,1.2-1.2
						C48.5,138.1,49,138.6,49,139.4z"/>
				</g>
			</g>
		</g>
		<g id="XMLID_341_">
			<g id="XMLID_342_">
				<g id="XMLID_343_">
					<path id="XMLID_344_" class="st0" d="M47.7,139.8c0.1,0,0.3,0,0.3-0.1l35.3-43c0.1-0.1,0.1-0.4,0-0.5c-0.1-0.1-0.4-0.1-0.5,0
						l-35.3,43c-0.1,0.1-0.1,0.4,0,0.5C47.6,139.7,47.7,139.8,47.7,139.8z"/>
				</g>
			</g>
		</g>
		<g id="XMLID_337_">
			<g id="XMLID_338_">
				<g id="XMLID_339_">
					<path id="XMLID_340_" class="st0" d="M69.9,84L88,82.5c0.8-0.1,1.5-0.8,1.5-1.7c-0.1-0.8-0.7-1.3-1.5-1.5l-18.2-1.5
						c-1.7-0.1-3.2,1.1-3.3,2.8s1.1,3.2,2.8,3.3C69.5,84,69.6,84,69.9,84z"/>
				</g>
			</g>
		</g>
		<g id="XMLID_333_">
			<g id="XMLID_334_">
				<g id="XMLID_335_">
					<path id="XMLID_336_" class="st0" d="M96.2,145.9c0-6.9,5.6-12.7,12.7-12.7c6.9,0,12.7,5.6,12.7,12.7c0,6.9-5.6,12.7-12.7,12.7
						C101.8,158.5,96.2,152.9,96.2,145.9z M97.1,145.9c0,6.4,5.2,11.8,11.8,11.8c6.4,0,11.8-5.2,11.8-11.8c0-6.4-5.2-11.8-11.8-11.8
						C102.3,134.2,97.1,139.4,97.1,145.9z"/>
				</g>
			</g>
		</g>
		<g id="XMLID_329_">
			<g id="XMLID_330_">
				<g id="XMLID_331_">
					<path id="XMLID_332_" class="st0" d="M112.1,145.9c0,1.9-1.5,3.3-3.3,3.3c-1.9,0-3.3-1.5-3.3-3.3c0-1.9,1.5-3.3,3.3-3.3
						C110.6,142.6,112.1,144.1,112.1,145.9z"/>
				</g>
			</g>
		</g>
		<g id="XMLID_325_">
			<g id="XMLID_326_">
				<g id="XMLID_327_">
					<path id="XMLID_328_" class="st0" d="M93,163c0.1,0,0.3,0,0.3-0.1l15.9-16.7c0.1-0.1,0.1-0.4,0-0.5c-0.1-0.1-0.4-0.1-0.5,0
						l-15.9,16.7c-0.1,0.1-0.1,0.4,0,0.5C92.7,163,92.8,163,93,163z"/>
				</g>
			</g>
		</g>
		<g id="XMLID_321_">
			<g id="XMLID_322_">
				<g id="XMLID_323_">
					<path id="XMLID_324_" class="st0" d="M90,163.4H97c0.4,0,0.8-0.4,0.8-0.8s-0.4-0.8-0.8-0.8H90c-0.4,0-0.8,0.4-0.8,0.8
						C89.4,163,89.6,163.4,90,163.4z"/>
				</g>
			</g>
		</g>
		<g id="XMLID_319_">
			<rect id="XMLID_320_" x="0" y="90.4" class="st0" width="81.2" height="0.8"/>
		</g>
		<g id="XMLID_317_">
			
				<rect id="XMLID_318_" x="30.1" y="85.3" transform="matrix(0.8215 -0.5702 0.5702 0.8215 -60.2297 37.9216)" class="st0" width="0.8" height="59.7"/>
		</g>
	</g>
	<g id="XMLID_312_">
		<g id="XMLID_313_">
			<g id="XMLID_314_">
				<path id="XMLID_315_" class="st6" d="M129.4,49.2l13-0.4c0.9,0,1.6-0.8,1.6-1.7c0-0.8-0.7-1.5-1.5-1.6l-12.8-1.7
					c-1.5-0.1-2.8,0.8-3.1,2.3c-0.3,1.5,0.8,2.8,2.3,3.1C129,49.2,129.3,49.2,129.4,49.2z"/>
			</g>
		</g>
	</g>
	<g id="XMLID_308_">
		<g id="XMLID_309_">
			<g id="XMLID_310_">
				<path id="XMLID_311_" class="st6" d="M129.4,59.3l13-0.4c0.9,0,1.6-0.8,1.6-1.7c0-0.8-0.7-1.5-1.5-1.6l-12.8-1.7
					c-1.5-0.1-2.8,0.8-3.1,2.3c-0.1,1.5,0.8,2.8,2.3,3.1C129,59.3,129.3,59.3,129.4,59.3z"/>
			</g>
		</g>
	</g>
	<g id="XMLID_304_">
		<g id="XMLID_305_">
			<g id="XMLID_306_">
				<path id="XMLID_307_" class="st5" d="M75.2,31.3L99.6,46l0.4,0.3c0.5,0.3,1.1,0.5,1.7,0.5l30.9,4c2.3,0.3,4.4-1.3,4.7-3.6
					c0.3-2.1-1.2-4.1-3.3-4.7l-30.3-6.4l2,0.8L82.5,20.3c-2.9-2.1-7.1-1.5-9.2,1.5c-2.1,2.9-1.5,7.1,1.5,9.2
					C74.9,31.1,75.1,31.2,75.2,31.3z"/>
			</g>
		</g>
	</g>
	<g id="XMLID_300_">
		<g id="XMLID_301_">
			<g id="XMLID_302_">
				<path id="XMLID_303_" class="st6" d="M127.7,59.1l12.3,0.7c0.9,0,1.6-0.7,1.7-1.6c0-0.8-0.5-1.5-1.2-1.7l-12-2.7
					c-1.5-0.3-2.9,0.5-3.2,2c-0.3,1.5,0.5,2.9,2,3.2C127.3,59.1,127.6,59.1,127.7,59.1z"/>
			</g>
		</g>
	</g>
	<g id="XMLID_298_">
		<path id="XMLID_299_" class="st3" d="M73.3,21.7c2.1-2.9,5.6-4.9,8.7-2.8l19.4,15l-4.8,10.3L75.2,31.3c-0.1-0.1-0.3-0.3-0.5-0.3
			C71.7,28.8,71.1,24.7,73.3,21.7z"/>
	</g>
	<g id="XMLID_294_">
		<g id="XMLID_295_">
			<g id="XMLID_296_">
				<path id="XMLID_297_" class="st5" d="M52.2,65.7c2.5,7.9,5.2,15.6,8,23.5l8.4,23.4c2.8,7.7,5.6,15.6,8.5,23.4
					c2.9,7.7,5.9,15.5,8.8,23.2l12.4-3.9c-1.9-8-3.7-16.2-5.7-24.2c-2-8-4-16-6-24c-1.1-4-2.1-8-3.1-12c-0.9-4-1.9-8-2.9-12
					c-2-8-4-16-6.3-24L52.2,65.7z"/>
			</g>
		</g>
	</g>
	<g id="XMLID_290_">
		<g id="XMLID_291_">
			<g id="XMLID_292_">
				<path id="XMLID_293_" class="st1" d="M62.1,56.9c7.3-0.3,10.4,0.3,18.7,1.2c0.8,0.1,13.5,2.3,14.3,2.4c0,0,24.7,4.4,24.8,4.4
					c-2.8-0.5-10.3,7.9-11.9,9.6c-5.3,5.9-7.2,13.1-10.2,20.2c-3.6,8.8-11.5,15.4-19.2,20.4c-4,2.7-8.4,4.8-13,6.5
					c-0.9,0.3-12,2.9-11.9,2.5c0,0,4-21,2.5-33.4c-1.5-12.4-12.2-19.4-2.9-33.4L62.1,56.9z"/>
			</g>
		</g>
	</g>
	<g id="XMLID_286_">
		<g id="XMLID_287_">
			<g id="XMLID_288_">
				<path id="XMLID_289_" class="st2" d="M87.6,59.1c0,0,0.8-16.2-0.7-28.7c-0.9-9.9-7.3-15.6-15.5-15C60,16.3,58.9,22.3,57,31.2
					C54.9,41.4,52,59.7,52,59.7s9.1,9.8,22.3,5.5C89.4,60.1,87.6,59.1,87.6,59.1z"/>
			</g>
		</g>
	</g>
	<g id="XMLID_282_">
		<g id="XMLID_283_">
			<g id="XMLID_284_">
				<path id="XMLID_285_" class="st5" d="M66.5,34.1l33,21.8l0.3,0.3c0.5,0.4,1.2,0.7,1.9,0.7l30.9,4c2.3,0.3,4.4-1.3,4.7-3.6
					c0.3-2.1-1.2-4.1-3.3-4.7l-30.3-6.4l2.1,0.9L74.1,23.3c-2.9-2.1-7.1-1.6-9.3,1.3c-2.1,2.9-1.6,7.1,1.3,9.3
					C66.4,34,66.4,34.1,66.5,34.1z"/>
			</g>
		</g>
	</g>
	<g id="XMLID_278_">
		<g id="XMLID_279_">
			<g id="XMLID_280_">
				<path id="XMLID_281_" class="st5" d="M133.2,57.9c0.8,0,1.9,0.1,2.8,0.1c0.9,0.1,1.9,0.3,2.8,0.4c1.9,0.3,3.7,0.7,5.3,1.3l0,0
					c0.8,0.3,1.7-0.1,2.1-0.9c0.3-0.8,0-1.6-0.7-2c-1.9-1.1-3.7-1.9-5.7-2.7c-0.9-0.4-2-0.7-2.9-0.9c-1.1-0.3-2-0.5-3.1-0.8l0,0
					c-1.5-0.3-2.9,0.7-3.2,2.1c-0.3,1.5,0.7,2.9,2.1,3.2C132.8,57.9,132.9,57.9,133.2,57.9z"/>
			</g>
		</g>
	</g>
	<g id="XMLID_274_">
		<g id="XMLID_275_">
			<g id="XMLID_276_">
				<path id="XMLID_277_" class="st0" d="M137.7,61.5h9.5c0.7,0,1.3-0.5,1.3-1.3c0-0.7-0.5-1.3-1.3-1.3h-9.5c-0.7,0-1.3,0.5-1.3,1.3
					C136.4,61,137,61.5,137.7,61.5z"/>
			</g>
		</g>
	</g>
	<g id="XMLID_270_">
		<g id="XMLID_271_">
			<g id="XMLID_272_">
				<path id="XMLID_273_" class="st5" d="M130.9,59.4l6.7,4.5c0.8,0.5,1.9,0.3,2.4-0.5c0.5-0.7,0.4-1.7-0.3-2.3l-5.9-5.5
					c-0.9-0.8-2.4-0.8-3.3,0.1c-0.8,0.9-0.8,2.4,0.1,3.3C130.6,59.3,130.8,59.3,130.9,59.4z"/>
			</g>
		</g>
	</g>
	<g id="XMLID_266_">
		<g id="XMLID_267_">
			<g id="XMLID_268_">
				<path id="XMLID_269_" class="st5" d="M138.6,58.5c0,0-0.9-0.3-1.1,0.3c-0.1,0.5,1.1,1.5,1.1,1.5s-2.7-0.7-2.3-1.6
					C136.6,57.7,136.6,57.9,138.6,58.5z"/>
			</g>
		</g>
	</g>
	<g id="XMLID_262_">
		<g id="XMLID_263_">
			<g id="XMLID_264_">
				<path id="XMLID_265_" class="st5" d="M131.6,47.6c1.1,0,2.1,0,3.2,0.1c1.1,0.1,2.1,0.1,3.2,0.3c1.1,0.1,2.1,0.3,3.1,0.5
					c0.9,0.3,2,0.5,2.7,1.1h0.1c0.8,0.4,1.7,0.1,2.3-0.7c0.4-0.7,0.3-1.6-0.4-2.1c-1.1-0.9-2.3-1.5-3.3-2c-1.1-0.5-2.3-0.9-3.5-1.2
					c-1.2-0.4-2.3-0.7-3.5-0.9c-1.2-0.3-2.3-0.5-3.5-0.7c-1.5-0.3-2.8,0.8-3.1,2.3c-0.3,1.5,0.8,2.8,2.3,3.1
					C131.3,47.6,131.4,47.6,131.6,47.6z"/>
			</g>
		</g>
	</g>
	<g id="XMLID_258_">
		<g id="XMLID_259_">
			<g id="XMLID_260_">
				<path id="XMLID_261_" class="st0" d="M137.7,51.5h9.5c0.7,0,1.3-0.5,1.3-1.3c0-0.7-0.5-1.3-1.3-1.3h-9.5c-0.7,0-1.3,0.5-1.3,1.3
					C136.4,51,137,51.5,137.7,51.5z"/>
			</g>
		</g>
	</g>
	<g id="XMLID_254_">
		<g id="XMLID_255_">
			<g id="XMLID_256_">
				<path id="XMLID_257_" class="st5" d="M130.9,49.4l6.7,4.5c0.8,0.5,1.9,0.3,2.4-0.5c0.5-0.7,0.4-1.7-0.3-2.3l-5.9-5.5
					c-0.9-0.8-2.4-0.8-3.3,0.1c-0.8,0.9-0.8,2.4,0.1,3.3C130.6,49.2,130.8,49.4,130.9,49.4z"/>
			</g>
		</g>
	</g>
	<g id="XMLID_250_">
		<g id="XMLID_251_">
			<g id="XMLID_252_">
				<path id="XMLID_253_" class="st5" d="M138.6,48.2c0,0-1.2-0.3-1.3,0.1c-0.3,0.5,1.3,1.7,1.3,1.7s-3.5-1.1-3.1-2
					C135.8,47.2,136.8,46.7,138.6,48.2z"/>
			</g>
		</g>
	</g>
	<g id="XMLID_189_">
		<g id="XMLID_245_">
			<g id="XMLID_246_">
				<g id="XMLID_247_">
					<g id="XMLID_248_">
						<path id="XMLID_249_" class="st5" d="M73.2,19.5c1.9,0,3.3-1.5,3.3-3.3v-5.9c0-1.9-1.5-3.3-3.3-3.3c-1.9,0-3.3,1.5-3.3,3.3
							v5.9C69.9,18,71.3,19.5,73.2,19.5z"/>
					</g>
				</g>
			</g>
		</g>
		<g id="XMLID_240_">
			<g id="XMLID_241_">
				<g id="XMLID_242_">
					<g id="XMLID_243_">
						<path id="XMLID_244_" class="st0" d="M76.5,16.1v-5.9c0-1.9-1.5-3.3-3.3-3.3c-1.9,0-3.3,1.5-3.3,3.3l0,0L72,14L76.5,16.1z"/>
					</g>
				</g>
			</g>
		</g>
		<g id="XMLID_190_">
			<g id="XMLID_235_">
				<g id="XMLID_236_">
					<g id="XMLID_237_">
						<g id="XMLID_238_">
							<path id="XMLID_239_" class="st5" d="M75.1,14.6c1.9-0.1,3.9-1.1,4.9-2.5c1.1-1.3,0.8-3.1,0.5-4.7c-0.3-1.6-0.8-3.3-1.9-4.5
								c-1.1-1.3-2.7-2-4.3-1.9c-2.8,0.1-5.1,2.5-4.9,5.5l0.1,3.3C69.7,12.6,72.1,14.8,75.1,14.6z"/>
						</g>
					</g>
				</g>
			</g>
			<g id="XMLID_230_">
				<g id="XMLID_231_">
					<g id="XMLID_232_">
						<g id="XMLID_233_">
							<path id="XMLID_234_" class="st5" d="M70.7,9.4c-0.3,0.1-0.5,0.1-0.8,0.1c-0.1,0-0.1,0-0.3,0.1c0,0-0.7,0.4-0.4-0.1
								c0,0,0.5,0,0.7,0s0.4,0,0.5,0C70.4,9.6,70.4,9.6,70.7,9.4c0.1,0,0.1,0,0,0.1c0.1-0.4,0.7-0.7,1.1-0.5
								c0.5,0.1,0.7,0.5,0.5,1.1c-0.1,0.9-1.3,1.1-2.1,1.2c-0.7,0-1.6,0-2.1-0.5c-0.7-0.7-0.4-1.6,0.1-2.1c0.3-0.3,0.7-0.5,0.9-0.5
								C69.5,8,69.9,8,70.1,8C71.2,7.4,71.6,9.2,70.7,9.4L70.7,9.4z"/>
						</g>
					</g>
				</g>
			</g>
			<g id="XMLID_191_">
				<g id="XMLID_225_">
					<g id="XMLID_226_">
						<g id="XMLID_227_">
							<g id="XMLID_228_">
								<path id="XMLID_229_" class="st0" d="M77.1,9.7L77.1,9.7C77.2,9.7,77.2,9.7,77.1,9.7h0.1c0,0,0,0,0.1,0l0,0h0.1h0.1
									c0,0,0,0,0.1,0l0,0h0.1c0,0,0,0,0.1,0l0,0l0,0l0,0V9.6V9.4V9.3l0,0l0,0l0,0l0,0V9.2l0,0l0,0V9c0,0,0,0,0-0.1l0,0l0,0V8.8
									V8.6V8.5l0,0l0,0V8.4V8.2V8.1l0,0l0,0V8V7.8V7.7l0,0l0,0c0,0,0,0,0.1,0h0.1l0,0l0,0c0,0,0,0,0,0.1c0,0,0,0,0,0.1v0.1
									c0,0,0,0,0,0.1c0,0,0,0,0,0.1l0,0l0,0c0,0,0,0,0,0.1v0.1c0,0.1,0,0.1,0,0.3l0,0V9l0,0l0,0c0,0,0,0,0,0.1s0,0.3,0,0.3l0,0
									l0,0l0,0c0,0,0,0,0,0.1v0.1l0,0c0,0,0,0,0,0.1V10c0,0.1,0,0.1-0.1,0.3l0,0c0,0,0,0.1-0.1,0.1l0,0l0,0c0,0,0,0-0.1,0
									s-0.3,0-0.4,0l0,0l0,0l0,0c0,0,0,0-0.1,0h-0.1l0,0C77.2,9.8,77.2,9.8,77.1,9.7C77.2,9.8,77.2,9.8,77.1,9.7
									C77.1,9.8,77.1,9.7,77.1,9.7L77.1,9.7z"/>
							</g>
						</g>
					</g>
				</g>
				<g id="XMLID_220_">
					<g id="XMLID_221_">
						<g id="XMLID_222_">
							<g id="XMLID_223_">
								<path id="XMLID_224_" class="st0" d="M68.7,9.4C68.5,9.4,68.5,9.4,68.7,9.4C68.5,9.3,68.5,9.3,68.7,9.4L68.7,9.4
									c0-0.1,0-0.1,0-0.1l0,0c0,0,0,0,0.1-0.1l0,0l0,0l0,0c0,0,0,0,0.1,0c0,0,0,0,0.1,0l0,0l0,0l0,0c0,0,0,0,0.1,0c0,0,0,0,0.1,0
									c0,0,0,0,0.1,0l0,0l0,0l0,0l0,0l0,0l0,0l0,0l0,0l0,0l0,0l0,0c0,0,0,0,0.1,0l0,0l0,0l0,0l0,0l0,0c0,0,0,0,0,0.1
									c0,0,0,0,0,0.1l0,0l0,0l0,0v0.1l0,0l0,0l0,0c0,0,0,0-0.1,0c0,0,0,0-0.1,0l0,0l0,0l0,0l0,0c0,0,0,0,0-0.1l0,0l0,0l0,0l0,0
									l0,0l0,0c0,0,0,0,0-0.1l0,0l0,0l0,0l0,0l0,0h-0.1l0,0l0,0l0,0l0,0l0,0l0,0l0,0l0,0c0,0,0,0-0.1,0l0,0l0,0l0,0l0,0l0,0h-0.1
									l0,0l0,0l0,0l0,0l0,0l0,0l0,0C68.8,9.6,68.8,9.6,68.7,9.4L68.7,9.4L68.7,9.4z"/>
							</g>
						</g>
					</g>
				</g>
				<g id="XMLID_215_">
					<g id="XMLID_216_">
						<g id="XMLID_217_">
							<g id="XMLID_218_">
								<path id="XMLID_219_" class="st0" d="M68.9,10.1C68.8,10.1,68.8,10.1,68.9,10.1L68.9,10.1L68.9,10.1
									C68.8,10.1,68.8,10.1,68.9,10.1c-0.1-0.1-0.1-0.1,0-0.1c0,0,0,0,0-0.1l0,0l0,0l0,0l0,0l0,0l0,0l0,0l0,0l0,0l0,0
									c0,0,0,0,0.1,0l0,0l0,0l0,0l0,0l0,0l0,0l0,0l0,0l0,0l0,0l0,0c0,0,0,0,0.1,0c0,0,0,0,0.1,0l0,0l0,0l0,0c0,0,0,0,0.1,0
									c0,0,0,0,0.1,0c0,0,0,0,0.1,0l0,0l0,0l0,0c0,0,0,0,0.1,0l0,0l0,0l0,0c0,0,0,0,0,0.1c0,0,0,0-0.1,0l0,0l0,0l0,0l0,0l0,0l0,0
									l0,0l0,0l0,0l0,0l0,0c0,0,0,0-0.1,0l0,0l0,0l0,0l0,0l0,0h-0.1l0,0l0,0l0,0l0,0l0,0l0,0l0,0l0,0l0,0l0,0l0,0l0,0l0,0l0,0
									c0,0,0,0,0,0.1l0,0l0,0l0,0l0,0l0,0l0,0l0,0C69.1,10.2,69.1,10.2,68.9,10.1C68.9,10.2,68.9,10.2,68.9,10.1L68.9,10.1z"/>
							</g>
						</g>
					</g>
				</g>
				<g id="XMLID_210_">
					<g id="XMLID_211_">
						<g id="XMLID_212_">
							<g id="XMLID_213_">
								<path id="XMLID_214_" class="st0" d="M76.3,10.4C76.4,10.4,76.4,10.4,76.3,10.4C76.4,10.4,76.4,10.4,76.3,10.4L76.3,10.4
									c0.1,0,0.1,0,0.1,0l0,0l0,0l0,0l0,0l0,0l0,0l0,0l0,0l0,0l0,0l0,0l0,0l0,0l0,0l0,0l0,0l0,0l0,0l0,0l0,0l0,0l0,0l0,0l0,0l0,0
									l0,0l0,0l0,0l0,0l0,0l0,0c0,0,0,0,0.1,0l0,0l0,0l0,0c0,0,0,0,0.1,0l0,0l0,0l0,0c0,0,0,0,0,0.1c0,0,0,0,0,0.1l0,0l0,0l0,0
									l0,0h-0.1l0,0l0,0l0,0l0,0l0,0l0,0h-0.1l0,0l0,0l0,0l0,0l0,0h-0.1l0,0l0,0l0,0l0,0l0,0l0,0l0,0l0,0c0,0-0.1,0-0.1-0.1l0,0
									l0,0l0,0l0,0l0,0L76,10.4l0,0l0,0l0,0l0,0l0,0l0,0l0,0l0,0C76.1,10.4,76.3,10.4,76.3,10.4L76.3,10.4z"/>
							</g>
						</g>
					</g>
				</g>
				<g id="XMLID_206_">
					<g id="XMLID_207_">
						<g id="XMLID_208_">
							<path id="XMLID_209_" class="st0" d="M75.9,8.4L75.9,8.4c0.1,0,0.3-0.1,0.3-0.3V8c0-0.1-0.1-0.3-0.3-0.3
								c-0.1,0-0.3,0.1-0.3,0.3v0.1C75.5,8.2,75.6,8.4,75.9,8.4z"/>
						</g>
					</g>
				</g>
				<g id="XMLID_202_">
					<g id="XMLID_203_">
						<g id="XMLID_204_">
							<path id="XMLID_205_" class="st0" d="M78.9,8.2L78.9,8.2c0.1,0,0.3-0.1,0.3-0.3V7.8c0-0.1-0.1-0.3-0.3-0.3s-0.3,0.1-0.3,0.3
								V8C78.7,8.1,78.8,8.2,78.9,8.2z"/>
						</g>
					</g>
				</g>
				<g id="XMLID_197_">
					<g id="XMLID_198_">
						<g id="XMLID_199_">
							<g id="XMLID_200_">
								<path id="XMLID_201_" class="st0" d="M75.1,7.2C75.1,7,75.1,7,75.1,7.2C75.1,7,75.1,7,75.1,7.2L75.1,7.2c0-0.1,0-0.1,0-0.1
									l0,0l0,0l0,0l0,0l0,0c0,0,0,0,0.1,0l0,0l0,0l0,0l0,0l0,0l0,0c0,0,0,0,0.1,0l0,0l0,0l0,0l0,0l0,0l0,0l0,0l0,0l0,0l0,0l0,0
									c0,0,0,0,0.1,0l0,0l0,0l0,0l0,0l0,0c0,0,0,0,0.1,0c0,0,0,0,0.1,0l0,0l0,0l0,0c0,0,0,0,0.1,0l0,0l0,0l0,0c0,0,0,0,0,0.1
									c0,0,0,0,0,0.1s0,0,0,0l0,0l0,0l0,0c0,0,0,0-0.1,0l0,0l0,0l0,0l0,0l0,0l0,0c0,0,0,0-0.1,0l0,0l0,0l0,0l0,0l0,0h-0.1l0,0l0,0
									l0,0l0,0l0,0l0,0l0,0l0,0c0,0,0,0-0.1,0l0,0l0,0l0,0l0,0l0,0h-0.1l0,0l0,0l0,0l0,0l0,0l0,0l0,0C75.2,7.2,75.2,7.2,75.1,7.2
									L75.1,7.2L75.1,7.2z"/>
							</g>
						</g>
					</g>
				</g>
				<g id="XMLID_192_">
					<g id="XMLID_193_">
						<g id="XMLID_194_">
							<g id="XMLID_195_">
								<path id="XMLID_196_" class="st0" d="M79.5,6.9C79.5,7,79.5,7,79.5,6.9L79.5,6.9L79.5,6.9C79.3,7,79.3,7,79.5,6.9
									c-0.1,0-0.1,0-0.1,0l0,0l0,0l0,0l0,0l0,0l0,0l0,0l0,0l0,0l0,0l0,0l0,0l0,0l0,0l0,0l0,0l0,0l0,0l0,0l0,0l0,0l0,0l0,0l0,0l0,0
									l0,0l0,0l0,0l0,0l0,0l0,0l0,0l0,0l0,0c0,0,0,0-0.1,0l0,0l0,0l0,0c0,0,0,0,0-0.1c0,0,0,0,0-0.1l0,0l0,0l0,0l0,0
									c0,0,0,0,0.1,0l0,0l0,0l0,0l0,0l0,0l0,0h0.1l0,0l0,0l0,0l0,0l0,0h0.1l0,0l0,0l0,0l0,0l0,0l0,0l0,0l0,0h0.1l0,0l0,0l0,0l0,0
									l0,0h0.1l0,0l0,0l0,0l0,0l0,0l0,0l0,0l0,0C79.5,6.9,79.5,6.9,79.5,6.9L79.5,6.9z"/>
							</g>
						</g>
					</g>
				</g>
			</g>
		</g>
	</g>
	<g id="XMLID_185_">
		<g id="XMLID_186_">
			<g id="XMLID_187_">
				<polygon id="XMLID_188_" class="st1" points="130.6,120.7 130.9,123.4 136.6,127.9 117.4,127.9 117,121 				"/>
			</g>
		</g>
	</g>
	<g id="XMLID_181_">
		<g id="XMLID_182_">
			<g id="XMLID_183_">
				<polygon id="XMLID_184_" class="st1" points="98.4,154.8 99.2,157.4 104.6,162 86.3,162 84.7,155 				"/>
			</g>
		</g>
	</g>
	<g id="XMLID_177_">
		<g id="XMLID_178_">
			<g id="XMLID_179_">
				<path id="XMLID_180_" class="st0" d="M79.5,4.2c0,0-5.5-1.7-6.3,1.2C72.4,8.8,69.5,8,69.5,8S66.4,2.6,70,1.6
					C73.7,0.5,77.7,0.1,79.5,4.2z"/>
			</g>
		</g>
	</g>
	<g id="XMLID_173_">
		<g id="XMLID_174_">
			<g id="XMLID_175_">
				<path id="XMLID_176_" class="st0" d="M165.8,87.3c6.9,0,12.2-2,15.5-6.1c6.1-7.2,4.3-18.3,4.1-18.7c0-0.1-0.1-0.3-0.4-0.3h-28.3
					c-0.3,0-0.4,0.1-0.4,0.4c0,0.3,0.1,0.4,0.4,0.4h28c0.3,1.9,1.2,11.5-4.1,17.8c-3.2,3.9-8.3,5.9-15,5.9c-0.3,0-0.4,0.1-0.4,0.4
					C165.5,87,165.6,87.3,165.8,87.3z"/>
			</g>
		</g>
	</g>
	<g id="XMLID_169_">
		<g id="XMLID_170_">
			<g id="XMLID_171_">
				<path id="XMLID_172_" class="st0" d="M177.9,83.6c0.1,0,0.4-0.1,0.4-0.4l2.1-20.6c0-0.3-0.1-0.4-0.4-0.4s-0.4,0.1-0.4,0.4
					l-2.1,20.6C177.5,83.3,177.6,83.4,177.9,83.6C177.8,83.6,177.9,83.6,177.9,83.6z"/>
			</g>
		</g>
	</g>
	<g id="XMLID_165_">
		<g id="XMLID_166_">
			<g id="XMLID_167_">
				<path id="XMLID_168_" class="st0" d="M171,86.6c0.3,0,0.4-0.1,0.4-0.4l2-23.6c0-0.3-0.1-0.4-0.4-0.4s-0.4,0.1-0.4,0.4l-2,23.6
					C170.4,86.4,170.7,86.5,171,86.6C170.8,86.6,170.8,86.6,171,86.6z"/>
			</g>
		</g>
	</g>
	<g id="XMLID_161_">
		<g id="XMLID_162_">
			<g id="XMLID_163_">
				<path id="XMLID_164_" class="st0" d="M164.4,83.6c0.3,0,0.4-0.1,0.4-0.4l0.7-20.6c0-0.3-0.1-0.4-0.4-0.4s-0.4,0.1-0.4,0.4
					L164,83.2C164,83.3,164.2,83.6,164.4,83.6L164.4,83.6z"/>
			</g>
		</g>
	</g>
	<g id="XMLID_157_">
		<g id="XMLID_158_">
			<g id="XMLID_159_">
				<path id="XMLID_160_" class="st0" d="M158.4,67.3h27c0.3,0,0.4-0.1,0.4-0.4c0-0.3-0.1-0.4-0.4-0.4h-27c-0.3,0-0.4,0.1-0.4,0.4
					S158.3,67.3,158.4,67.3z"/>
			</g>
		</g>
	</g>
	<g id="XMLID_153_">
		<g id="XMLID_154_">
			<g id="XMLID_155_">
				<path id="XMLID_156_" class="st0" d="M160.7,73.3h24.2c0.3,0,0.4-0.1,0.4-0.4c0-0.3-0.1-0.4-0.4-0.4h-24.2
					c-0.3,0-0.4,0.1-0.4,0.4C160.3,73,160.4,73.3,160.7,73.3z"/>
			</g>
		</g>
	</g>
	<g id="XMLID_149_">
		<g id="XMLID_150_">
			<g id="XMLID_151_">
				<path id="XMLID_152_" class="st0" d="M162.8,79h19.8c0.3,0,0.4-0.1,0.4-0.4c0-0.3-0.1-0.4-0.4-0.4h-19.8c-0.3,0-0.4,0.1-0.4,0.4
					C162.4,78.9,162.6,79,162.8,79z"/>
			</g>
		</g>
	</g>
	<g id="XMLID_145_">
		<g id="XMLID_146_">
			<g id="XMLID_147_">
				<path id="XMLID_148_" class="st0" d="M164.6,83.8H178c0.3,0,0.4-0.1,0.4-0.4c0-0.3-0.1-0.4-0.4-0.4h-13.5
					c-0.3,0-0.4,0.1-0.4,0.4C164.2,83.7,164.3,83.8,164.6,83.8z"/>
			</g>
		</g>
	</g>
	<g id="XMLID_143_">
		<path id="XMLID_144_" class="st3" d="M64.5,24.7c2.1-2.9,6.7-3.9,9.6-1.6l24.6,18.8L93.5,52l-27-17.5c-0.1-0.1-0.3-0.1-0.4-0.3
			C63.3,32,62.4,27.6,64.5,24.7z"/>
	</g>
	<g id="XMLID_141_">
		<path id="XMLID_142_" class="st1" d="M17.5,83.4c1.3,0,3.1-0.3,3.5-0.3c4.1-0.4,7.7-3.1,8.1-7.5L45,76.4h0.8c0.1,0,0.4,0,0.7,0
			c3.5,0.5,6,3.7,5.5,7.3l-5.1,37.1c-0.3,2-2,3.6-4.1,3.6c-2.4,0-4.3-1.9-4.3-4.1l-0.3-29.8l-12,0.5l-2.4,0.1c-0.5,0-1.2,0-1.9,0
			c-0.7-0.1-1.3-0.1-2-0.3c-2.1-0.4-4.1-1.1-6.1-2C15.4,87.4,16.7,85.4,17.5,83.4z"/>
	</g>
	<g id="XMLID_138_">
		<g id="XMLID_139_">
			<path id="XMLID_140_" class="st1" d="M1.7,53.7c-1.9-1.9-1.3-4.8,0.5-6.8c2-2.1,5.3-2.1,7.1-0.1l8.1,8.8l-7.1,6.3l-8.4-8
				C1.9,53.8,1.9,53.7,1.7,53.7z"/>
		</g>
	</g>
	<g id="XMLID_136_">
		<polygon id="XMLID_137_" class="st1" points="47,119.8 46.9,122.8 51.6,127.8 37.8,125.6 38.5,118.6 		"/>
	</g>
	<g>
		<g id="XMLID_133_">
			<g id="XMLID_134_">
				<path id="XMLID_135_" class="st7" d="M10.4,41.5c0,0,0.1,0.1,0.1,0.3v0.1v0.3c0,0.1,0.1,0.3,0.1,0.3c0,0.1,0,0.1,0.1,0.3
					c0.1,0.3,0.1,0.4,0.3,0.7c0,0.1,0.1,0.1,0.1,0.3c0,0.1,0.1,0.1,0.1,0.3l0.1,0.1c0.1,0.1,0.3,0.3,0.4,0.5
					c0.1,0.1,0.3,0.3,0.4,0.3l0.3,0.1l0.1,0.1h0.1c0.1,0.1,0.4,0.1,0.5,0.1c0.1,0,0.4,0.1,0.7,0.1c0.3,0,0.4,0,0.7,0l0,0h0.1l0,0
					c0.1,0,0.1,0,0.3,0c0.1,0,0.3,0,0.4-0.1h0.1h0.3l0.3-0.1c0.1,0,0.1-0.1,0.3-0.1l0.1-0.1c0,0,0.1,0,0.1-0.1
					c0.3-0.1,0.4-0.3,0.5-0.4c0.1-0.1,0.3-0.3,0.4-0.4l0.1-0.3l0.1-0.1c0,0,0-0.1,0.1-0.1c0.1-0.1,0.1-0.3,0.3-0.5
					c0.1-0.1,0.1-0.4,0.3-0.5c0.1-0.3,0.1-0.4,0.1-0.7v-0.1c0-0.1,0-0.1,0-0.3s0-0.3,0-0.4c0-0.3,0-0.5,0-0.8c0-0.1-0.1-0.3-0.1-0.4
					v-0.1v-0.1c0-0.1,0-0.1,0-0.1s0.1,0,0.1,0.1c0,0,0.1,0.1,0.1,0.3v0.1c0,0.1,0,0.3,0.1,0.3c0,0.1,0,0.1,0,0.3c0,0.3,0,0.5,0,0.9
					c0,0.1,0,0.3,0,0.3c0,0.1,0,0.3-0.1,0.4l0,0l0,0c0,0.1-0.1,0.3-0.1,0.4c0,0.1-0.1,0.3-0.1,0.4c-0.1,0.3-0.3,0.5-0.5,0.8l0,0.8
					c-0.1,0.1-0.3,0.3-0.4,0.4l-0.1,0.1c-0.1,0-0.1,0.1-0.1,0.1c-0.1,0.1-0.1,0.1-0.3,0.3c-0.4,0.3-0.8,0.4-1.3,0.5
					c-0.1,0-0.1,0-0.3,0c-0.1,0-0.1,0-0.1,0c-0.1,0-0.1,0-0.3,0c-0.1,0-0.1,0-0.3,0h-0.3h-0.1c-0.1,0-0.1,0-0.3,0
					c-0.1,0-0.3,0-0.5-0.1c-0.3-0.1-0.7-0.1-0.9-0.3l-0.1-0.1c-0.1-0.1-0.3-0.1-0.4-0.3c-0.1,0-0.1-0.1-0.3-0.1l-0.1-0.1
					c-0.1-0.1-0.1-0.1-0.3-0.3c-0.4-0.4-0.7-0.8-0.8-1.2c0-0.1-0.1-0.1-0.1-0.3c0-0.1,0-0.1-0.1-0.1c0-0.1,0-0.1-0.1-0.3
					c0-0.1,0-0.1-0.1-0.3c0-0.1,0-0.1-0.1-0.3c0-0.1,0-0.1,0-0.3c0-0.1,0-0.1,0-0.3v-0.1C10.3,41.5,10.3,41.5,10.4,41.5
					C10.3,41.5,10.3,41.5,10.4,41.5z"/>
			</g>
		</g>
		<g id="XMLID_128_">
			<g id="XMLID_129_">
				<g id="XMLID_130_">
					<g id="XMLID_131_">
						<path id="XMLID_132_" class="st7" d="M117.4,126c0-0.1,0.1-0.1,0.3-0.1c0.1,0,0.1,0,0.3,0s0.3,0,0.3,0c0.1,0,0.3,0,0.4,0
							c0.1,0,0.1,0,0.3,0c0.3,0,0.5,0,0.8,0c0.1,0,0.3,0,0.4,0c0.1,0,0.3,0,0.4,0c0.1,0,0.1,0,0.3,0c0.3,0,0.5,0,0.8,0
							c0.3,0,0.4,0,0.7,0c0.1,0,0.3,0,0.3,0c0.1,0,0.1,0,0.3,0h0.1c0.3,0,0.4,0,0.7,0c0.3,0,0.5,0,0.7,0c0.3,0,0.5,0,0.8,0
							c0,0,0,0,0.1,0c0,0,0,0,0.1,0l0,0c0.1,0,0.1,0,0.3,0s0.3,0,0.5,0h0.1c0.1,0,0.1,0,0.3,0s0.3,0,0.4,0c0.1,0,0.3,0,0.3,0h0.1
							h0.1c0.3,0,0.5,0,0.8,0c0.3,0,0.4,0,0.7,0c0.1,0,0.3,0,0.3,0c0.1,0,0.1,0,0.3,0h0.1c0.3,0,0.4,0,0.7,0c0.3,0,0.5,0,0.7,0
							c0.3,0,0.5,0,0.8,0c0.1,0,0.1,0,0.1,0c0.1,0,0.1,0,0.3,0c0.1,0,0.3,0,0.5,0s0.7,0,0.9,0c0.1,0,0.3,0,0.5,0c0.1,0,0.1,0,0.1,0
							c0.1,0,0.1,0,0.1,0c0.1,0,0.1,0.1,0.1,0.1l-0.1,0.1c-0.1,0-0.1,0.1-0.3,0.1c-0.1,0-0.1,0-0.1,0c-0.1,0-0.3,0-0.3,0
							c-0.1,0-0.3,0-0.3,0c-0.3,0-0.7,0-0.9,0c-0.1,0-0.3,0-0.4,0s-0.3,0-0.4,0l0,0l0,0c-0.1,0-0.3,0-0.4,0s-0.4,0-0.5,0
							c-0.4,0-0.7,0-1.1,0c-0.1,0-0.1,0-0.3,0c-0.1,0-0.4,0-0.5,0s-0.1,0-0.3,0c-0.1,0-0.1,0-0.3,0c-0.1,0-0.3,0-0.4,0
							c-0.5,0-1.1,0-1.6,0c-0.1,0-0.1,0-0.3,0c-0.1,0-0.1,0-0.3,0s-0.1,0-0.3,0s-0.3,0-0.3,0c-0.1,0-0.3,0-0.3,0h-0.1
							c-0.1,0-0.1,0-0.3,0s-0.4,0-0.5,0c-0.4,0-0.7,0-1.1,0c-0.1,0-0.1,0-0.3,0c-0.1,0-0.4,0-0.5,0s-0.1,0-0.3,0s-0.1,0-0.3,0
							s-0.3,0-0.4,0c-0.5,0-1.1,0-1.6,0c-0.1,0-0.1,0-0.3,0s-0.1,0-0.3,0c-0.1,0-0.1,0-0.3,0s-0.3,0-0.3,0c-0.1,0-0.3,0-0.3,0
							s-0.1,0-0.3,0c-0.1,0-0.1,0-0.3,0h-0.1C117.5,126.3,117.4,126.2,117.4,126C117.3,126.2,117.4,126.2,117.4,126z"/>
					</g>
				</g>
			</g>
		</g>
		<g id="XMLID_123_">
			<g id="XMLID_124_">
				<g id="XMLID_125_">
					<g id="XMLID_126_">
						<path id="XMLID_127_" class="st7" d="M128.6,123.1L128.6,123.1c0-0.1,0-0.1,0.1-0.1c0.1,0,0,0,0,0l0,0l0,0h0.1l0,0l0,0l0,0
							h0.1c0,0,0,0,0.1,0l0,0l0,0l0,0c0,0,0,0,0.1,0h0.1h0.1l0,0l0,0l0,0l0,0c0,0,0,0,0.1,0l0,0l0,0l0,0l0,0l0,0l0,0h0.1
							c0,0,0,0,0.1,0l0,0l0,0l0,0c0,0,0,0,0.1,0h0.1h0.1l0,0l0,0c0,0,0,0,0.1,0h0.1c0,0,0,0,0.1,0l0,0l0,0v0.1v0.1c0,0,0,0,0,0.1
							l0,0l0,0l0,0h-0.1l0,0l0,0l0,0l0,0l0,0c0,0,0,0-0.1,0h-0.1l0,0c0,0,0,0-0.1,0l0,0l0,0l0,0c-0.1,0-0.1,0-0.3,0l0,0l0,0l0,0l0,0
							l0,0l0,0l0,0c0,0,0,0-0.1,0h-0.1l0,0c0,0,0,0-0.1,0l0,0l0,0l0,0c-0.1,0-0.1,0-0.3,0l0,0l0,0l0,0l0,0l0,0l0,0l0,0l0,0
							C128.6,123.4,128.6,123.2,128.6,123.1C128.6,123.2,128.6,123.2,128.6,123.1z"/>
					</g>
				</g>
			</g>
		</g>
		<g id="XMLID_118_">
			<g id="XMLID_119_">
				<g id="XMLID_120_">
					<g id="XMLID_121_">
						<path id="XMLID_122_" class="st7" d="M128.6,121.8L128.6,121.8c0-0.1,0-0.1,0.1-0.1c0.1,0,0,0,0,0l0,0l0,0h0.1l0,0l0,0l0,0
							h0.1c0,0,0,0,0.1,0l0,0l0,0l0,0c0,0,0,0,0.1,0h0.1h0.1l0,0l0,0l0,0l0,0c0,0,0,0,0.1,0l0,0l0,0l0,0l0,0l0,0l0,0h0.1
							c0,0,0,0,0.1,0l0,0l0,0l0,0c0,0,0,0,0.1,0h0.1h0.1l0,0l0,0c0,0,0,0,0.1,0h0.1c0,0,0,0,0.1,0l0,0l0,0v0.1v0.1c0,0,0,0,0,0.1
							l0,0l0,0l0,0h-0.1l0,0l0,0l0,0l0,0l0,0c0,0,0,0-0.1,0h-0.1l0,0c0,0,0,0-0.1,0l0,0l0,0l0,0c-0.1,0-0.1,0-0.3,0l0,0l0,0l0,0l0,0
							l0,0l0,0l0,0c0,0,0,0-0.1,0h-0.1l0,0c0,0,0,0-0.1,0l0,0l0,0l0,0c-0.1,0-0.1,0-0.3,0l0,0l0,0l0,0l0,0l0,0l0,0l0,0l0,0
							C128.6,122,128.6,121.9,128.6,121.8C128.6,121.9,128.6,121.9,128.6,121.8z"/>
					</g>
				</g>
			</g>
		</g>
		<g id="XMLID_113_">
			<g id="XMLID_114_">
				<g id="XMLID_115_">
					<g id="XMLID_116_">
						<path id="XMLID_117_" class="st7" d="M121.1,126c-0.1,0-0.1,0-0.1,0l0,0v-0.1c0,0,0,0,0-0.1c0,0,0,0,0-0.1s-0.1-0.1-0.1-0.1
							v-0.1c0,0,0,0,0-0.1l0,0c0-0.1-0.1-0.1-0.1-0.1l-0.1-0.1h-0.1l0,0l0,0l-0.1-0.1l-0.1-0.1l-0.1-0.1l0,0l0,0l0,0l0,0h-0.1l0,0
							h-0.1h-0.1c0,0,0,0-0.1,0l0,0l0,0c-0.1,0-0.1,0-0.1-0.1h-0.1h-0.1c0,0,0,0-0.1,0l0,0h-0.1c-0.1,0-0.1,0-0.1,0
							c-0.1,0-0.1,0-0.3,0l0,0c0,0,0,0-0.1,0h-0.1c-0.1,0-0.1,0-0.3,0h-0.1l0,0l0,0v-0.1v-0.1c0,0,0-0.1,0.1-0.1l0,0h0.1h0.1
							c0.1,0,0.1,0,0.3,0h0.1h0.1l0,0l0,0h0.1h0.1c0.1,0,0.3,0,0.3,0s0,0,0.1,0h0.1c0,0,0,0,0.1,0c0,0,0,0,0.1,0h0.1
							c0.1,0,0.3,0.1,0.4,0.1c0,0,0,0,0.1,0l0,0c0,0,0,0,0.1,0c0,0,0,0,0.1,0h0.1l0,0c0,0,0,0,0.1,0c0,0,0.1,0,0.1,0.1
							c0.1,0.1,0.1,0.1,0.3,0.3l0,0l0.1,0.1c0,0,0,0,0,0.1c0,0,0,0,0,0.1c0,0,0.1,0,0.1,0.1c0.1,0.1,0.1,0.3,0.3,0.4c0,0,0,0,0,0.1
							c0,0.1,0,0,0,0.1c0,0,0,0,0,0.1c0,0,0,0,0,0.1v0.1c0,0,0,0,0,0.1c0,0,0,0,0,0.1l0,0C121.3,126.2,121.3,126.2,121.1,126
							L121.1,126z"/>
					</g>
				</g>
			</g>
		</g>
		<g id="XMLID_108_">
			<g id="XMLID_109_">
				<g id="XMLID_110_">
					<g id="XMLID_111_">
						<path id="XMLID_112_" class="st7" d="M86,160.6c0-0.1,0.1-0.1,0.3-0.1s0.1,0,0.3,0s0.3,0,0.3,0c0.1,0,0.3,0,0.4,0
							c0.1,0,0.1,0,0.3,0c0.3,0,0.5,0,0.8,0c0.1,0,0.3,0,0.4,0s0.3,0,0.4,0c0.1,0,0.1,0,0.3,0c0.3,0,0.5,0,0.8,0c0.3,0,0.4,0,0.7,0
							c0.1,0,0.3,0,0.3,0c0.1,0,0.1,0,0.3,0h0.1c0.3,0,0.4,0,0.7,0s0.5,0,0.7,0c0.3,0,0.5,0,0.8,0c0,0,0,0,0.1,0c0,0,0,0,0.1,0l0,0
							c0.1,0,0.1,0,0.3,0s0.3,0,0.5,0h0.1c0.1,0,0.1,0,0.3,0c0.1,0,0.3,0,0.4,0c0.1,0,0.3,0,0.3,0h0.1H96c0.3,0,0.5,0,0.8,0
							c0.3,0,0.4,0,0.7,0c0.1,0,0.3,0,0.3,0c0.1,0,0.1,0,0.3,0h0.1c0.3,0,0.4,0,0.7,0c0.3,0,0.5,0,0.7,0c0.3,0,0.5,0,0.8,0
							c0.1,0,0.1,0,0.1,0c0.1,0,0.1,0,0.3,0c0.1,0,0.3,0,0.5,0c0.3,0,0.7,0,0.9,0c0.1,0,0.3,0,0.5,0c0.1,0,0.1,0,0.1,0
							c0.1,0,0.1,0,0.1,0c0.1,0,0.1,0.1,0.1,0.1l-0.1,0.1c-0.1,0-0.1,0.1-0.3,0.1s-0.1,0-0.1,0c-0.1,0-0.3,0-0.3,0H102
							c-0.3,0-0.7,0-0.9,0c-0.1,0-0.3,0-0.4,0c-0.1,0-0.3,0-0.4,0l0,0l0,0c-0.1,0-0.3,0-0.4,0c-0.1,0-0.4,0-0.5,0
							c-0.4,0-0.7,0-1.1,0c-0.1,0-0.1,0-0.3,0c-0.1,0-0.4,0-0.5,0s-0.1,0-0.3,0s-0.1,0-0.3,0s-0.3,0-0.4,0c-0.5,0-1.1,0-1.6,0
							c-0.1,0-0.1,0-0.3,0s-0.1,0-0.3,0c-0.1,0-0.1,0-0.3,0s-0.3,0-0.3,0c-0.1,0-0.3,0-0.3,0h-0.1c-0.1,0-0.1,0-0.3,0
							c-0.1,0-0.4,0-0.5,0c-0.4,0-0.7,0-1.1,0c-0.1,0-0.1,0-0.3,0s-0.4,0-0.5,0s-0.1,0-0.3,0c-0.1,0-0.1,0-0.3,0s-0.3,0-0.4,0
							c-0.5,0-1.1,0-1.6,0c-0.1,0-0.1,0-0.3,0s-0.1,0-0.3,0s-0.1,0-0.3,0c-0.1,0-0.3,0-0.3,0c-0.1,0-0.3,0-0.3,0c-0.1,0-0.1,0-0.3,0
							s-0.1,0-0.3,0h-0.1C86.2,160.8,86.2,160.8,86,160.6L86,160.6z"/>
					</g>
				</g>
			</g>
		</g>
		<g id="XMLID_103_">
			<g id="XMLID_104_">
				<g id="XMLID_105_">
					<g id="XMLID_106_">
						<path id="XMLID_107_" class="st7" d="M97.2,157.4C97.2,157.3,97.2,157.3,97.2,157.4c0-0.1,0-0.1,0.1-0.1l0,0l0,0l0,0h0.1l0,0
							l0,0l0,0h0.1c0,0,0,0,0.1,0l0,0l0,0l0,0c0,0,0,0,0.1,0H98h0.1l0,0l0,0l0,0l0,0c0,0,0,0,0.1,0l0,0l0,0l0,0l0,0l0,0l0,0h0.1
							c0,0,0,0,0.1,0l0,0l0,0l0,0c0,0,0,0,0.1,0h0.1H99l0,0l0,0c0,0,0,0,0.1,0h0.1c0,0,0,0,0.1,0l0,0l0,0v0.1v0.1c0,0,0,0,0,0.1l0,0
							l0,0l0,0h-0.1l0,0l0,0l0,0l0,0l0,0c0,0,0,0-0.1,0H99l0,0c0,0,0,0-0.1,0l0,0l0,0l0,0c-0.1,0-0.1,0-0.3,0l0,0l0,0l0,0l0,0l0,0
							l0,0l0,0c0,0,0,0-0.1,0h-0.1l0,0c0,0,0,0-0.1,0l0,0l0,0l0,0c-0.1,0-0.1,0-0.3,0l0,0l0,0l0,0l0,0l0,0l0,0l0,0l0,0
							C97.2,157.6,97.2,157.6,97.2,157.4L97.2,157.4z"/>
					</g>
				</g>
			</g>
		</g>
		<g id="XMLID_98_">
			<g id="XMLID_99_">
				<g id="XMLID_100_">
					<g id="XMLID_101_">
						<path id="XMLID_102_" class="st7" d="M96.7,156.1C96.7,156,96.7,156,96.7,156.1c0-0.1,0-0.1,0.1-0.1l0,0l0,0l0,0H97l0,0l0,0
							l0,0h0.1c0,0,0,0,0.1,0l0,0l0,0l0,0c0,0,0,0,0.1,0h0.1h0.1l0,0l0,0l0,0l0,0c0,0,0,0,0.1,0l0,0l0,0l0,0l0,0l0,0l0,0h0.1
							c0,0,0,0,0.1,0l0,0l0,0l0,0c0,0,0,0,0.1,0h0.1h0.1l0,0l0,0c0,0,0,0,0.1,0h0.1c0,0,0,0,0.1,0l0,0l0,0v0.1v0.1c0,0,0,0,0,0.1
							l0,0l0,0l0,0h-0.1l0,0l0,0l0,0l0,0l0,0c0,0,0,0-0.1,0h-0.1l0,0c0,0,0,0-0.1,0l0,0l0,0l0,0c-0.1,0-0.1,0-0.3,0l0,0l0,0l0,0l0,0
							l0,0l0,0l0,0c0,0,0,0-0.1,0h-0.1l0,0c0,0,0,0-0.1,0l0,0l0,0l0,0c-0.1,0-0.1,0-0.3,0l0,0l0,0l0,0l0,0l0,0l0,0l0,0l0,0
							C96.7,156.2,96.7,156.2,96.7,156.1L96.7,156.1z"/>
					</g>
				</g>
			</g>
		</g>
		<g id="XMLID_93_">
			<g id="XMLID_94_">
				<g id="XMLID_95_">
					<g id="XMLID_96_">
						<path id="XMLID_97_" class="st7" d="M89.5,160.6c-0.1,0-0.1,0-0.1,0l0,0v-0.1c0,0,0,0,0-0.1c0,0,0,0,0-0.1s-0.1-0.1-0.1-0.1
							V160c0,0,0,0,0-0.1l0,0c0-0.1-0.1-0.1-0.1-0.1l-0.1-0.1h-0.1l0,0l0,0l-0.1-0.1l-0.1-0.1l-0.1-0.1l0,0l0,0l0,0l0,0h-0.1l0,0
							h-0.1H88c0,0,0,0-0.1,0l0,0l0,0c-0.1,0-0.1,0-0.1-0.1h-0.1h-0.1c0,0,0,0-0.1,0l0,0h-0.1c-0.1,0-0.1,0-0.1,0
							c-0.1,0-0.1,0-0.3,0l0,0c0,0,0,0-0.1,0h-0.5c-0.1,0-0.1,0-0.3,0h-0.1l0,0l0,0v-0.1v-0.1c0,0,0-0.1,0.1-0.1l0,0H86h0.1
							c0.1,0,0.1,0,0.3,0h0.1h0.1l0,0l0,0h0.1H87c0.1,0,0.3,0,0.3,0s0,0,0.1,0h0.1c0,0,0,0,0.1,0c0,0,0,0,0.1,0h0.1
							c0.1,0,0.3,0.1,0.4,0.1c0,0,0,0,0.1,0l0,0c0,0,0,0,0.1,0c0,0,0,0,0.1,0h0.1l0,0c0,0,0,0,0.1,0c0,0,0.1,0,0.1,0.1
							c0.1,0.1,0.1,0.1,0.3,0.3l0,0l0.1,0.1c0,0,0,0,0,0.1c0,0,0,0,0,0.1c0,0,0,0,0.1,0.1c0.1,0.1,0.1,0.3,0.3,0.4c0,0,0,0,0,0.1
							c0,0,0,0,0,0.1c0,0,0,0,0,0.1c0,0,0,0,0,0.1v0.1c0,0,0,0,0,0.1c0,0,0,0,0,0.1l0,0C89.6,160.6,89.6,160.6,89.5,160.6
							L89.5,160.6z"/>
					</g>
				</g>
			</g>
		</g>
		<g id="XMLID_90_">
			<g id="XMLID_91_">
				<path id="XMLID_92_" class="st7" d="M50.8,91.2c0-0.1,0-0.3,0-0.5c0-0.1,0-0.3,0.1-0.4l0.1-0.7c0-0.3,0.1-0.5,0.1-0.8l0.1-0.5
					c0-0.5,0.1-1.1,0.1-1.6c0-0.3,0-0.5,0-0.7c0-0.3,0-0.5,0-0.7s0-0.3,0-0.5c0-0.5,0-1.1,0-1.5c0-0.4-0.1-0.8-0.3-1.2
					c0-0.3-0.1-0.4-0.1-0.7c0-0.1-0.1-0.3-0.1-0.5c0-0.1-0.1-0.1-0.1-0.3c-0.1-0.4-0.4-0.7-0.5-1.1c-0.3-0.4-0.5-0.7-0.8-1.1
					c-0.4-0.3-0.8-0.7-1.2-0.8h-0.1L48,77.6l0,0c-0.1,0-0.3-0.1-0.4-0.1c-0.3-0.1-0.5-0.1-0.9-0.3L46.3,77l-0.5-0.1
					c-0.3,0-0.4,0-0.7-0.1c-0.1,0-0.4,0-0.5-0.1h-0.3c-0.1,0-0.1,0-0.3,0c-0.5,0-1.1,0-1.5-0.1l-1.2-0.1h-0.7c-0.1,0-0.3,0-0.5,0
					h-0.3c-0.4,0-0.8,0-1.2-0.1l-1.3-0.1c-0.5,0-0.9-0.1-1.5-0.1c-0.1,0-0.3,0-0.4,0c-0.1,0-0.3,0-0.5,0h-0.9
					c-0.7,0-1.2-0.1-1.9-0.1c-0.4,0-0.7,0-1.1,0c-0.1,0-0.3,0-0.4,0c-0.1,0-0.3,0-0.4-0.1c-0.3,0-0.3-0.1-0.3-0.1s0.1-0.1,0.3-0.1
					c0.1,0,0.4,0,0.7,0c0.1,0,0.3,0,0.4,0h0.7c0.3,0,0.4,0,0.7,0c0.7,0,1.2,0.1,1.9,0.1c0.3,0,0.4,0,0.7,0s0.5,0,0.8,0.1h0.1h0.1
					c0.3,0,0.7,0,0.9,0l0.9,0.1c0.7,0,1.3,0.1,2.1,0.1h0.4l1.1,0.1c0.1,0,0.4,0,0.5,0c0.1,0,0.3,0,0.4,0c0.3,0,0.5,0,0.8,0
					c1.1,0.1,2,0.1,3.1,0.3c0.1,0,0.4,0.1,0.5,0.1l0.4,0.1c0.1,0,0.3,0.1,0.5,0.1c0.1,0.1,0.4,0.1,0.5,0.3c0.1,0.1,0.4,0.1,0.5,0.3
					c0.1,0,0.1,0.1,0.1,0.1c0.1,0.1,0.3,0.3,0.4,0.4c0.3,0.3,0.5,0.5,0.7,0.7c0.4,0.5,0.8,1.2,1.1,1.9l0.1,0.4
					c0.1,0.3,0.3,0.7,0.3,1.1c0,0.1,0.1,0.4,0.1,0.5c0,0.1,0,0.3,0,0.5c0,0.3,0,0.5,0,0.8c0,1.1,0,2-0.1,3.1c0,0.1,0,0.3,0,0.5v0.4
					v0.5c0,0.1,0,0.4-0.1,0.5l-0.1,0.7c0,0.1-0.1,0.3-0.1,0.5c0,0.1-0.1,0.3-0.1,0.5c0,0.1-0.1,0.1-0.1,0.3
					C51,91.3,50.9,91.3,50.8,91.2C50.8,91.3,50.8,91.3,50.8,91.2z"/>
			</g>
		</g>
		<g id="XMLID_87_">
			<g id="XMLID_88_">
				<path id="XMLID_89_" class="st7" d="M8.8,59.9c0-0.1,0-0.1,0.1-0.1c0,0,0,0,0.1-0.1l0.1-0.1l0.1-0.1l0.1-0.1
					C9.6,59.1,9.8,59,9.9,59l0.1-0.1l0.1-0.1l0.1-0.1c0.1-0.1,0.3-0.3,0.4-0.3c0.1-0.1,0.1-0.1,0.3-0.3l0.1-0.1c0,0,0.1,0,0.1-0.1
					c0,0,0,0,0.1-0.1s0.1-0.1,0.3-0.3c0.1-0.1,0.3-0.1,0.3-0.3c0.1-0.1,0.3-0.1,0.4-0.3l0,0l0,0l0,0l0.1-0.1
					c0.1-0.1,0.1-0.1,0.3-0.1c0,0,0,0,0.1,0l0.1-0.1l0.1-0.1l0.1-0.1c0,0,0,0,0.1-0.1c0,0,0,0,0.1,0c0.1-0.1,0.3-0.3,0.4-0.3
					c0.1-0.1,0.1-0.1,0.3-0.3l0.1-0.1c0,0,0.1,0,0.1-0.1c0,0,0,0,0.1-0.1c0.1-0.1,0.1-0.1,0.3-0.3c0.1-0.1,0.3-0.1,0.3-0.3
					c0.1-0.1,0.3-0.1,0.4-0.3c0,0,0,0,0.1-0.1l0.1-0.1c0.1-0.1,0.1-0.1,0.3-0.1c0.1-0.1,0.3-0.3,0.4-0.4c0.1-0.1,0.1-0.1,0.3-0.3
					c0,0,0,0,0.1-0.1H17c0.1,0,0.1,0,0.1,0v0.1c0,0,0,0.1-0.1,0.1c0,0,0,0-0.1,0.1l-0.1,0.1l-0.1,0.1c-0.1,0.1-0.3,0.3-0.4,0.4
					L16,54.3c-0.1,0-0.1,0.1-0.1,0.1l0,0l0,0c0,0.1-0.1,0.1-0.1,0.1c-0.1,0.1-0.1,0.1-0.3,0.1c-0.1,0.1-0.3,0.3-0.5,0.4
					c0,0-0.1,0-0.1,0.1c-0.1,0.1-0.1,0.1-0.3,0.3l-0.1,0.1c0,0-0.1,0-0.1,0.1l-0.1,0.1c-0.3,0.1-0.5,0.4-0.7,0.5l-0.1,0.1
					c0,0-0.1,0-0.1,0.1l-0.1,0.1L13,57l-0.1,0.1l0,0l-0.1,0.1c-0.1,0.1-0.1,0.1-0.3,0.1c-0.1,0.1-0.3,0.3-0.5,0.4c0,0-0.1,0-0.1,0.1
					c-0.1,0.1-0.1,0.1-0.3,0.3l-0.1,0.1c0,0-0.1,0-0.1,0.1l-0.1,0.1c-0.3,0.1-0.5,0.4-0.7,0.5l-0.1,0.1c0,0-0.1,0-0.1,0.1L10,59.5
					l-0.1,0.1l-0.1,0.1c0,0-0.1,0-0.1,0.1l-0.1,0.1c0,0,0,0-0.1,0C8.8,60.1,8.8,60.1,8.8,59.9C8.8,60.1,8.8,59.9,8.8,59.9z"/>
			</g>
		</g>
		<g id="XMLID_84_">
			<g id="XMLID_85_">
				<path id="XMLID_86_" class="st7" d="M29.5,49.9C29.4,49.9,29.4,49.9,29.5,49.9c-0.1-0.1-0.1-0.1-0.1-0.1v-0.1v-0.1v-0.1
					c0-0.1,0-0.3-0.1-0.3V49v-0.1v-0.1c0-0.1,0-0.1,0-0.3s0-0.1,0-0.3V48v-0.1v-0.1c0-0.1,0-0.1-0.1-0.3c0-0.1,0-0.1,0-0.3
					s0-0.1-0.1-0.3l0,0l0,0l0,0c0,0,0,0,0-0.1v-0.1l0,0v-0.1v-0.1v-0.1l0,0l0,0c0-0.1-0.1-0.1-0.1-0.3s0-0.1,0-0.3v-0.1v-0.1v-0.1
					c0-0.1,0-0.1-0.1-0.3c0-0.1,0-0.1-0.1-0.3c0-0.1,0-0.1-0.1-0.3c0,0,0,0,0-0.1c0,0,0,0,0-0.1v-0.1c0-0.1,0-0.3-0.1-0.4
					c0-0.1,0-0.1-0.1-0.1c0,0,0,0,0-0.1c0,0,0,0,0-0.1c0,0,0-0.1,0.1-0.1h0.1c0,0,0.1,0,0.1,0.1c0,0,0,0,0,0.1v0.1v0.1
					c0,0.1,0.1,0.3,0.1,0.4v0.1v0.1l0,0l0,0v0.1c0,0.1,0,0.1,0,0.1c0,0.1,0.1,0.3,0.1,0.4c0,0,0,0,0,0.1c0,0.1,0,0.1,0,0.3v0.1
					c0,0,0,0,0,0.1v0.1c0,0.1,0.1,0.4,0.1,0.5v0.1v0.1v0.1V47v0.1l0,0v0.1c0,0.1,0,0.1,0,0.1c0,0.1,0,0.3,0.1,0.4c0,0,0,0,0,0.1
					s0,0.1,0,0.3v0.1c0,0,0,0,0,0.1v0.1c0,0.1,0.1,0.4,0.1,0.5c0,0,0,0,0,0.1v0.1v0.1v0.1v0.1v0.1V50C29.7,49.8,29.7,49.9,29.5,49.9
					C29.7,49.9,29.5,49.9,29.5,49.9L29.5,49.9z"/>
			</g>
		</g>
		<g id="XMLID_81_">
			<g id="XMLID_82_">
				<path id="XMLID_83_" class="st7" d="M1.2,49.2c0,0.1,0,0.1-0.1,0.3c0,0.1-0.1,0.1-0.1,0.1c0,0.1-0.1,0.1-0.1,0.3
					c0,0.1,0,0.3-0.1,0.4c0,0.1,0,0.1,0,0.3c0,0.3,0,0.5,0,0.8c0,0.1,0,0.3,0.1,0.3c0,0.1,0,0.3,0.1,0.3c0,0.1,0.1,0.1,0.1,0.3
					c0.1,0.3,0.3,0.4,0.4,0.7c0.1,0.1,0.3,0.3,0.4,0.5l0.3,0.3l0.1,0.1l0.1,0.1c0.1,0.1,0.3,0.3,0.4,0.4l0.5,0.5
					c0.1,0.1,0.4,0.4,0.5,0.5l0,0H4l0,0l0.5,0.5l0.1,0.1l0.1,0.1l0.3,0.3c0.1,0.1,0.1,0.1,0.3,0.3l0.1,0.1L5.6,57
					c0.1,0.1,0.4,0.4,0.5,0.5c0.1,0.1,0.3,0.3,0.4,0.4l0.3,0.3l0.1,0.1l0.1,0.1c0.1,0.1,0.3,0.3,0.4,0.4L8,59.4
					c0.1,0.1,0.4,0.4,0.5,0.5l0.1,0.1l0.1,0.1l0.4,0.3c0.3,0.3,0.4,0.4,0.7,0.7c0.1,0.1,0.3,0.3,0.4,0.4l0.1,0.1l0.1,0.1
					c0.1,0.1,0.1,0.1,0,0.1h-0.1c-0.1,0-0.1-0.1-0.3-0.1L10,61.7c-0.1-0.1-0.1-0.1-0.3-0.3c-0.1-0.1-0.1-0.1-0.3-0.3
					c-0.3-0.3-0.4-0.4-0.7-0.7c-0.1-0.1-0.1-0.1-0.3-0.3c-0.1-0.1-0.1-0.1-0.3-0.3l0,0l0,0C8.1,59.8,8,59.7,8,59.7l-0.4-0.4
					c-0.3-0.3-0.5-0.5-0.8-0.7l-0.1-0.1c-0.1-0.1-0.3-0.3-0.4-0.4c-0.1,0-0.1-0.1-0.1-0.1L6,57.8l-0.3-0.3c-0.4-0.4-0.8-0.7-1.2-1.1
					c-0.1,0-0.1-0.1-0.1-0.1l-0.1-0.1c-0.1,0-0.1-0.1-0.1-0.1C4,55.9,4,55.9,3.9,55.8l-0.3-0.5c0,0,0,0-0.1-0.1S3.3,55,3.2,55
					l-0.4-0.4c-0.3-0.3-0.5-0.5-0.8-0.8v-0.1c-0.1-0.1-0.3-0.3-0.4-0.4c0-0.1-0.1-0.1-0.1-0.3s-0.1-0.1-0.1-0.1
					c-0.1-0.1-0.1-0.3-0.3-0.3c-0.3-0.4-0.5-0.9-0.5-1.5c0-0.1,0-0.1,0-0.3c0-0.1,0-0.1,0-0.3s0-0.1,0-0.3c0-0.1,0-0.3,0.1-0.3
					c0-0.1,0.1-0.3,0.1-0.3c0-0.1,0.1-0.1,0.1-0.3s0.1-0.1,0.1-0.3C1.1,49.1,1.1,49.1,1.2,49.2c0-0.1,0-0.1,0.1-0.1
					C1.2,49.1,1.2,49.1,1.2,49.2z"/>
			</g>
		</g>
		<g id="XMLID_78_">
			<g id="XMLID_79_">
				<path id="XMLID_80_" class="st7" d="M8.3,84.6C8.3,84.6,8.4,84.5,8.3,84.6c0.1-0.1,0.1-0.1,0.3-0.1h0.1c0,0,0.1,0,0.1-0.1h0.1
					c0.1,0,0.3-0.1,0.3-0.3L9.3,84l0.1-0.1c0,0,0-0.1,0.1-0.1c0.1-0.1,0.1-0.1,0.3-0.3c0.1-0.1,0.1-0.1,0.1-0.3c0,0,0-0.1,0.1-0.1
					v-0.1v-0.1c0-0.1,0-0.1,0.1-0.3c0-0.1,0-0.3,0.1-0.3c0-0.1,0-0.3,0-0.4l0,0l0,0l0,0v-0.1v-0.3v-0.1v-0.1V81v-0.1c0,0,0,0,0-0.1
					c0,0,0,0,0-0.1s-0.1-0.3-0.1-0.4c0-0.1-0.1-0.1-0.1-0.3L10,79.8v-0.1v-0.1c0-0.1-0.1-0.1-0.1-0.3S9.8,79.2,9.8,79
					c-0.1-0.1-0.1-0.1-0.3-0.3c0,0,0,0,0-0.1c0,0,0-0.1-0.1-0.1l-0.1-0.1c-0.1-0.1-0.1-0.3-0.3-0.4c0-0.1-0.1-0.1-0.1-0.3
					c0,0,0,0,0-0.1v-0.1v-0.1h0.1c0,0,0.1,0,0.1,0.1c0,0,0,0,0,0.1l0.1,0.1c0,0,0,0.1,0.1,0.1c0.1,0.1,0.1,0.3,0.3,0.4l0.1,0.1
					l0.1,0.1l0,0l0,0l0.1,0.1l0.1,0.3c0.1,0.1,0.1,0.3,0.3,0.5v0.1c0,0.1,0.1,0.1,0.1,0.3V80v0.1c0,0.1,0,0.1,0.1,0.1
					c0.1,0.3,0.1,0.5,0.1,0.8v0.1v0.1v0.1v0.1v0.1l0,0v0.1c0,0.1,0,0.1,0,0.3c0,0.1-0.1,0.4-0.1,0.5v0.1c0,0.1-0.1,0.1-0.1,0.3
					c0,0,0,0.1-0.1,0.1c0,0,0,0-0.1,0.1l-0.1,0.1C10,83.7,9.8,83.8,9.5,84c0,0-0.1,0-0.1,0.1H9.2c0,0-0.1,0-0.1,0.1
					c0,0-0.1,0-0.1,0.1H8.8H8.7H8.5c0,0,0,0-0.1,0c0,0,0,0-0.1-0.1C8.3,84.6,8.3,84.6,8.3,84.6z"/>
			</g>
		</g>
		<g id="XMLID_75_">
			<g id="XMLID_76_">
				<path id="XMLID_77_" class="st7" d="M40.6,116c0-0.3,0-0.4,0-1.1c0-0.3,0-0.5,0-0.8l0.1-1.1c0-0.5,0.1-0.9,0.1-1.5l0.1-0.9
					l0.3-2.9c0-0.4,0-0.8,0.1-1.3c0-0.4,0.1-0.8,0.1-1.3c0-0.3,0-0.7,0-0.9c0-0.9,0.1-1.9,0.1-2.8l0.1-2.3v-1.2c0-0.3,0-0.7,0-0.9
					v-0.7c0-0.7,0-1.5,0-2.3v-2.5c0-0.9-0.1-1.9-0.1-2.8c0-0.1,0-0.1,0-0.3v-0.3V88c0-0.3,0-0.5,0-0.8c0-0.5-0.1-1.2-0.3-1.7
					c0-0.1-0.1-0.4-0.1-0.5c-0.1-0.3-0.3-0.5-0.4-0.8c-0.3-0.3-0.5-0.5-0.9-0.8c-0.3-0.1-0.7-0.3-1.1-0.3c-0.1,0-0.4,0-0.5-0.1
					c-0.1,0-0.4,0-0.5,0c-0.9,0-1.9,0-2.8,0h-2.3h-1.2c-0.3,0-0.7,0-0.9,0h-0.7c-0.7,0-1.5,0-2.3,0h-2.5c-0.9,0-1.9,0-2.8-0.1
					c-0.3,0-0.4,0-0.7,0c-0.3,0-0.5-0.1-0.8-0.1c-0.5-0.1-1.2-0.3-1.7-0.4c-1.1-0.4-2.1-0.9-2.9-1.7c-0.5-0.4-0.8-0.9-1.2-1.5
					c-0.1-0.3-0.3-0.4-0.3-0.7c-0.1-0.3-0.1-0.4-0.1-0.7c0-0.4,0-0.5,0-0.5s0.1,0.3,0.3,0.5c0.1,0.3,0.3,0.7,0.4,1.1
					c0.1,0.1,0.3,0.4,0.4,0.5c0.3,0.3,0.5,0.7,0.8,0.9c0.3,0.3,0.5,0.5,0.8,0.7c0.9,0.7,2,1.1,3.1,1.3c0.4,0.1,0.8,0.1,1.2,0.3
					c0.5,0.1,0.9,0.1,1.5,0.1h0.1h0.1c0.5,0,1.1,0,1.6,0h1.9c1.3,0,2.5,0,3.9,0h0.8h2c0.3,0,0.7,0,0.9,0s0.5,0,0.8,0
					c0.5,0,0.9,0,1.5,0c0.9,0,1.9,0,2.8,0.1c0.9,0.3,1.9,0.9,2.1,1.9c0.1,0.3,0.3,0.7,0.3,0.9s0.1,0.5,0.1,0.8l0.1,0.9l0.1,1.1v1.2
					c0,0.1,0,0.3,0,0.4c0,0.4,0,0.7,0,1.1v1.9c0,1.3,0,2.5,0,3.9v0.8v2c0,0.3,0,0.7,0,0.9s0,0.5,0,0.8c0,0.5,0,0.9,0,1.5
					c-0.1,1.9-0.3,3.7-0.4,5.6l-0.1,0.9l-0.1,0.8l-0.1,0.9l-0.1,1.1l-0.1,1.2c0,0.4,0,0.7-0.1,0.9c0,0.3,0,0.7-0.1,0.9
					c0,0.1,0,0.3-0.1,0.4C40.7,116,40.7,116.2,40.6,116C40.6,116.2,40.6,116.2,40.6,116z"/>
			</g>
		</g>
		<g id="XMLID_72_">
			<g id="XMLID_73_">
				<path id="XMLID_74_" class="st7" d="M38.6,115.5l0.1-0.1h0.1H39c0.1,0,0.1,0,0.3,0h0.1c0.1,0,0.3,0,0.4,0.1h0.1h0.1h0.1
					c0.1,0,0.3,0,0.4,0.1c0.1,0,0.3,0,0.3,0.1H41h0.1c0,0,0,0,0.1,0c0.1,0,0.3,0,0.3,0c0.1,0,0.3,0,0.4,0.1c0.1,0,0.3,0,0.4,0.1l0,0
					l0,0l0,0h0.1c0.1,0,0.1,0,0.3,0c0,0,0,0,0.1,0H43h0.1h0.1c0,0,0,0,0.1,0c0,0,0,0,0.1,0c0.1,0,0.3,0,0.4,0.1c0.1,0,0.3,0,0.3,0.1
					h0.1h0.1c0,0,0,0,0.1,0c0.1,0,0.3,0,0.3,0c0.1,0,0.3,0,0.4,0.1c0.1,0,0.3,0,0.4,0.1h0.1h0.1c0.1,0,0.1,0,0.3,0
					c0.1,0,0.3,0.1,0.5,0.1c0.1,0,0.1,0,0.3,0h0.1c0,0,0,0,0.1,0c0,0,0.1,0.1,0,0.1c0,0,0,0.1-0.1,0.1H47h-0.1h-0.1h-0.1
					c-0.1,0-0.3,0-0.5-0.1h-0.1c-0.1,0-0.1,0-0.1,0l0,0l0,0c-0.1,0-0.1,0-0.3,0c-0.1,0-0.1,0-0.3,0c-0.1,0-0.4-0.1-0.5-0.1h-0.1
					c-0.1,0-0.1,0-0.3,0h-0.1h-0.1c-0.1,0-0.1,0-0.3,0c-0.3,0-0.5-0.1-0.8-0.1h-0.1h-0.1h-0.1h-0.1h-0.1l0,0h-0.1
					c-0.1,0-0.1,0-0.3,0c-0.1,0-0.4-0.1-0.5-0.1h-0.1c-0.1,0-0.1,0-0.3,0h-0.1h-0.1c-0.1,0-0.1,0-0.3,0c-0.3,0-0.5-0.1-0.8-0.1h-0.1
					h-0.1h-0.1h-0.1H39h-0.1h-0.1l0,0C38.6,115.6,38.5,115.5,38.6,115.5L38.6,115.5z"/>
			</g>
		</g>
		<g id="XMLID_69_">
			<g id="XMLID_70_">
				<path id="XMLID_71_" class="st7" d="M38.1,124.3c0,0,0.1,0,0.3,0h0.1c0.1,0,0.1,0,0.3,0c0.1,0,0.1,0,0.3,0h0.1
					c0.1,0,0.4,0,0.5,0.1c0.1,0,0.1,0,0.3,0c0.1,0,0.1,0,0.3,0c0.1,0,0.1,0,0.1,0c0.1,0,0.4,0,0.5,0.1c0.1,0,0.3,0,0.4,0.1
					c0.1,0,0.1,0,0.3,0c0.1,0,0.1,0,0.1,0h0.1c0.1,0,0.3,0,0.4,0s0.3,0,0.5,0.1c0.1,0,0.4,0,0.5,0.1l0,0c0,0,0,0,0.1,0l0,0h0.1
					c0.1,0,0.3,0,0.4,0h0.1h0.1c0.1,0,0.1,0,0.3,0c0.1,0,0.1,0,0.3,0h0.1H45c0.1,0,0.4,0,0.5,0.1c0.1,0,0.3,0,0.4,0.1
					c0.1,0,0.1,0,0.3,0c0.1,0,0.1,0,0.1,0h0.1c0.1,0,0.3,0,0.4,0c0.1,0,0.3,0,0.5,0.1c0.1,0,0.4,0,0.5,0.1h0.1h0.1
					c0.1,0,0.3,0,0.4,0c0.3,0,0.4,0.1,0.7,0.1c0.1,0,0.3,0,0.4,0h0.1c0,0,0.1,0,0.1,0.1c0.1,0,0.1,0.1,0.1,0.1L50,126
					c0,0-0.1,0-0.3,0h-0.1c-0.1,0-0.1,0-0.3,0c-0.1,0-0.1,0-0.3,0c-0.3,0-0.4-0.1-0.7-0.1c-0.1,0-0.1,0-0.3,0s-0.1,0-0.3,0l0,0l0,0
					c-0.1,0-0.3,0-0.3,0c-0.1,0-0.3,0-0.4,0c-0.3,0-0.5-0.1-0.8-0.1h-0.1c-0.1,0-0.3,0-0.4,0h-0.1h-0.1c-0.1,0-0.1,0-0.3,0
					c-0.4,0-0.7-0.1-1.1-0.1c-0.1,0-0.1,0-0.1,0h-0.1h-0.1c-0.1,0-0.1,0-0.3,0c-0.1,0-0.1,0-0.3,0c0,0,0,0-0.1,0c-0.1,0-0.1,0-0.3,0
					c-0.1,0-0.3,0-0.4,0c-0.3,0-0.5-0.1-0.8-0.1h-0.1c-0.1,0-0.3,0-0.4,0H41h-0.1c-0.1,0-0.1,0-0.3,0c-0.4,0-0.7-0.1-1.1-0.1
					c-0.1,0-0.1,0-0.1,0h-0.1h-0.1c-0.1,0-0.1,0-0.3,0c-0.1,0-0.1,0-0.3,0c-0.1,0-0.1,0-0.1,0h-0.1c0,0,0,0-0.1,0l-0.1-0.1
					C38.1,124.3,38.1,124.3,38.1,124.3z"/>
			</g>
		</g>
		<g id="XMLID_66_">
			<g id="XMLID_67_">
				<path id="XMLID_68_" class="st7" d="M46.6,125.5C46.5,125.5,46.5,125.5,46.6,125.5C46.5,125.5,46.5,125.5,46.6,125.5
					c-0.1-0.1-0.1-0.1-0.1-0.1l0,0l0,0v-0.1l0,0l0,0l0,0v-0.1c0,0,0,0,0-0.1l0,0l0,0l0,0v-0.1v-0.1v-0.1l0,0l0,0l0,0l0,0
					c0,0,0,0,0-0.1l0,0l0,0l0,0l0,0l0,0l0,0v-0.1c0,0,0,0,0-0.1l0,0l0,0l0,0V124v-0.1v-0.1l0,0l0,0c0,0,0,0,0-0.1v-0.1
					c0,0,0,0,0-0.1c0-0.1,0,0,0,0l0,0h0.1h0.1l0,0l0,0l0,0l0,0v0.1l0,0l0,0l0,0l0,0c0,0,0,0,0,0.1s0,0,0,0.1v0.1l0,0c0,0,0,0,0,0.1
					l0,0l0,0l0,0c0,0.1,0,0.1,0,0.3l0,0l0,0l0,0l0,0l0,0l0,0l0,0c0,0,0,0,0,0.1v0.1l0,0c0,0,0,0,0,0.1l0,0l0,0l0,0
					c0,0.1,0,0.1,0,0.3l0,0l0,0l0,0l0,0l0,0l0,0l0,0l0,0C46.7,125.6,46.6,125.6,46.6,125.5L46.6,125.5z"/>
			</g>
		</g>
		<g id="XMLID_63_">
			<g id="XMLID_64_">
				<path id="XMLID_65_" class="st7" d="M45.1,121.8C45.3,121.8,45.3,121.8,45.1,121.8C45.3,121.8,45.3,121.8,45.1,121.8
					C45.3,121.8,45.3,121.8,45.1,121.8c0.1-0.1,0.1-0.1,0.1-0.1l0,0c0,0,0,0,0.1,0l0,0l0,0l0,0c0,0,0,0,0.1,0c0,0,0,0,0.1,0l0,0l0,0
					l0,0c0,0,0,0,0.1,0c0,0,0,0,0.1,0c0,0,0,0,0.1,0l0,0l0,0l0,0l0,0l0,0l0,0l0,0l0,0l0,0l0,0l0,0c0,0,0,0,0.1,0c0,0,0,0,0.1,0l0,0
					l0,0l0,0c0,0,0,0,0.1,0c0,0,0,0,0.1,0c0,0,0,0,0.1,0l0,0l0,0l0,0h0.1l0,0l0,0l0,0v0.1v0.1l0,0l0,0l0,0l0,0h-0.1l0,0l0,0l0,0l0,0
					l0,0l0,0h-0.1l0,0l0,0l0,0l0,0l0,0h-0.1l0,0l0,0l0,0l0,0l0,0l0,0l0,0l0,0h-0.1l0,0l0,0l0,0l0,0l0,0h-0.1l0,0l0,0l0,0l0,0l0,0
					l0,0l0,0l0,0C45.3,121.9,45.3,121.9,45.1,121.8L45.1,121.8z"/>
			</g>
		</g>
		<g id="XMLID_60_">
			<g id="XMLID_61_">
				<path id="XMLID_62_" class="st7" d="M45.1,120.8C45.3,120.8,45.3,120.7,45.1,120.8C45.3,120.7,45.3,120.7,45.1,120.8
					C45.3,120.7,45.3,120.7,45.1,120.8c0.1-0.1,0.1-0.1,0.1-0.1l0,0c0,0,0,0,0.1,0l0,0l0,0l0,0c0,0,0,0,0.1,0c0,0,0,0,0.1,0l0,0l0,0
					l0,0c0,0,0,0,0.1,0c0,0,0,0,0.1,0c0,0,0,0,0.1,0l0,0l0,0l0,0l0,0l0,0l0,0l0,0l0,0l0,0l0,0l0,0c0,0,0,0,0.1,0c0,0,0,0,0.1,0l0,0
					l0,0l0,0c0,0,0,0,0.1,0c0,0,0,0,0.1,0c0,0,0,0,0.1,0l0,0l0,0l0,0h0.1l0,0l0,0l0,0v0.1v0.1l0,0l0,0l0,0l0,0h-0.1l0,0l0,0l0,0l0,0
					l0,0l0,0h-0.1l0,0l0,0l0,0l0,0l0,0h-0.1l0,0l0,0l0,0l0,0l0,0l0,0l0,0l0,0h-0.1l0,0l0,0l0,0l0,0l0,0h-0.1l0,0l0,0l0,0l0,0l0,0
					l0,0l0,0l0,0C45.3,121,45.3,121,45.1,120.8L45.1,120.8z"/>
			</g>
		</g>
		<g id="XMLID_57_">
			<g id="XMLID_58_">
				<path id="XMLID_59_" class="st7" d="M65,23.7c-0.1,0.1-0.1,0.3-0.4,0.5c-0.1,0.1-0.3,0.3-0.3,0.4c-0.1,0.3-0.3,0.5-0.4,0.7
					c-0.1,0.3-0.3,0.7-0.3,0.9c-0.1,0.3-0.1,0.4-0.1,0.7c-0.1,0.9-0.1,1.6,0,2.3c0,0.3,0.1,0.7,0.3,0.9s0.1,0.5,0.3,0.8
					s0.3,0.4,0.3,0.7c0.3,0.5,0.8,1.1,1.2,1.6c0.4,0.4,0.8,0.8,1.2,1.2c0.3,0.1,0.4,0.4,0.7,0.5c0.1,0.1,0.4,0.3,0.5,0.4l0.4,0.3
					c0.4,0.3,0.9,0.7,1.3,0.9l1.6,0.9c0.5,0.4,1.2,0.7,1.7,1.1c0,0,0.1,0,0.1,0.1l0.3,0.1h0.1c0.1,0.1,0.4,0.3,0.5,0.3l1.1,0.7
					l0.4,0.3l0.5,0.4c0.3,0.1,0.5,0.3,0.8,0.5c0.3,0.1,0.4,0.3,0.7,0.4l0.4,0.3c0.1,0.1,0.3,0.1,0.4,0.3c0.5,0.4,1.2,0.7,1.7,1.1
					l1.5,0.9l0.7,0.4c0.1,0.1,0.4,0.3,0.5,0.4l0.4,0.3c0.4,0.3,0.9,0.5,1.3,0.8l1.6,1.1c0.5,0.4,1.1,0.8,1.7,1.1
					c0.1,0.1,0.3,0.1,0.4,0.3c0.1,0.1,0.4,0.3,0.5,0.4l1.1,0.7c0.7,0.5,1.3,0.9,2,1.5c0.4,0.3,0.7,0.5,1.1,0.8
					c0.1,0.1,0.3,0.1,0.4,0.3c0.1,0.1,0.3,0.3,0.4,0.3c0.3,0.1,0.3,0.3,0.3,0.3s-0.3-0.1-0.4-0.1c-0.1-0.1-0.4-0.3-0.7-0.4
					c-0.1-0.1-0.3-0.1-0.4-0.3l-1.1-0.7c-0.3-0.1-0.4-0.3-0.7-0.5c-0.7-0.5-1.3-0.9-2-1.5c-0.3-0.1-0.5-0.3-0.8-0.5
					c-0.3-0.3-0.5-0.4-0.8-0.5h-0.1H87c-0.3-0.1-0.7-0.4-0.9-0.7l-1.2-0.8c-0.8-0.5-1.6-1.1-2.4-1.6l-0.5-0.3l-1.1-0.7
					c-0.1-0.1-0.4-0.3-0.7-0.4c-0.1-0.1-0.3-0.3-0.5-0.3c-0.3-0.1-0.5-0.4-0.9-0.5c-1.2-0.7-2.3-1.5-3.5-2.1L74.7,40l-0.5-0.3
					l-0.5-0.3l-0.7-0.4l-0.7-0.4c-0.1,0-0.1-0.1-0.3-0.1c-0.3-0.1-0.4-0.3-0.7-0.4l-1.2-0.8c-0.8-0.5-1.6-0.9-2.4-1.6l-0.4-0.4
					c-0.4-0.3-0.8-0.7-1.1-0.9c-0.1-0.1-0.4-0.4-0.5-0.5s-0.3-0.3-0.4-0.5c-0.3-0.3-0.4-0.5-0.7-0.8c-0.8-1.2-1.3-2.4-1.5-3.9
					c0-0.3,0-0.5,0-0.7c0-0.1,0-0.4,0-0.5c0-0.3,0-0.4,0.1-0.7c0-0.3,0.1-0.5,0.3-0.8s0.3-0.5,0.4-0.8c0.1-0.3,0.3-0.4,0.4-0.7
					c0.1-0.1,0.3-0.4,0.4-0.5C64.9,23.9,64.9,23.9,65,23.7C65,23.9,65.2,23.9,65,23.7C65.2,23.7,65.2,23.7,65,23.7z"/>
			</g>
		</g>
		<g id="XMLID_54_">
			<g id="XMLID_55_">
				<path id="XMLID_56_" class="st7" d="M91.4,50.2c0,0,0-0.1,0-0.3c0,0,0-0.1,0.1-0.1l0.1-0.1c0-0.1,0.1-0.1,0.1-0.3
					c0,0,0-0.1,0.1-0.1c0.1-0.1,0.1-0.3,0.3-0.5l0.1-0.3c0,0,0.1-0.1,0.1-0.3c0,0,0-0.1,0.1-0.1c0.1-0.1,0.1-0.3,0.3-0.4
					c0.1-0.1,0.1-0.3,0.3-0.4l-0.3,0c0,0,0-0.1,0.1-0.1V47c0-0.1,0.1-0.3,0.1-0.4c0.1-0.1,0.1-0.3,0.3-0.4c0.1-0.1,0.1-0.3,0.3-0.4
					l0,0l0,0l0,0c0,0,0-0.1,0.1-0.1l0.1-0.3v-0.1l0.1-0.1l0.1-0.3l0.1-0.1v-0.1c0,0,0,0,0-0.1c0.1-0.1,0.1-0.3,0.3-0.4
					c0.1-0.1,0.1-0.3,0.3-0.4l0.1-0.1l0.1-0.1v-0.1c0.1-0.1,0.1-0.3,0.3-0.4c0.1-0.1,0.1-0.3,0.3-0.4c0.1-0.1,0.1-0.3,0.3-0.4v-0.1
					c0,0,0-0.1,0.1-0.1l0.1-0.3c0.1-0.1,0.3-0.3,0.3-0.5c0-0.1,0.1-0.1,0.1-0.3c0,0,0-0.1,0.1-0.1c0,0,0.1,0,0.1-0.1
					c0.1,0,0.1,0,0.1,0v0.1c0,0,0,0.1-0.1,0.1c0,0,0,0.1-0.1,0.1c0,0.1-0.1,0.1-0.1,0.1l-0.1,0.1c-0.1,0.1-0.3,0.4-0.3,0.5
					S96,41.8,96,41.8c0,0.1-0.1,0.1-0.1,0.3l0,0l0,0c0,0.1-0.1,0.1-0.1,0.3l-0.1,0.3c-0.1,0.3-0.3,0.4-0.4,0.5c0,0,0,0.1-0.1,0.1
					C95,43.4,95,43.5,95,43.5s0,0.1-0.1,0.1c0,0,0,0.1-0.1,0.1L94.6,44c-0.1,0.3-0.4,0.5-0.5,0.9c0,0,0,0.1-0.1,0.1
					c0,0,0,0.1-0.1,0.1c0,0,0,0.1-0.1,0.1c0,0.1-0.1,0.1-0.1,0.1l-0.1,0.1c0,0,0,0,0,0.1l-0.1,0.1l-0.1,0.3
					c-0.1,0.3-0.3,0.4-0.4,0.7c0,0,0,0.1-0.1,0.1c0,0.1-0.1,0.3-0.1,0.3s0,0.1-0.1,0.1c0,0,0,0.1-0.1,0.1L92,47.8
					c-0.1,0.3-0.3,0.5-0.5,0.9c0,0,0,0.1-0.1,0.1c0,0,0,0.1-0.1,0.1c0,0,0,0.1-0.1,0.1c0,0.1-0.1,0.1-0.1,0.1l-0.1,0.1
					c0,0,0,0.1-0.1,0.1c0,0,0,0.1-0.1,0.1c0,0,0,0-0.1,0C91.4,50.2,91.4,50.2,91.4,50.2L91.4,50.2z"/>
			</g>
		</g>
		<g id="XMLID_51_">
			<g id="XMLID_52_">
				<path id="XMLID_53_" class="st7" d="M82.1,28.8c0.1,0,0.1,0,0.3,0.1c0.1,0,0.1,0.1,0.3,0.1c0.1,0.1,0.3,0.1,0.3,0.3
					c0.1,0.1,0.3,0.1,0.4,0.3c0.1,0.1,0.1,0.1,0.3,0.3c0.3,0.3,0.5,0.4,0.8,0.7c0.1,0.1,0.3,0.1,0.4,0.3c0.1,0.1,0.3,0.1,0.4,0.3
					c0.1,0.1,0.1,0.1,0.3,0.1c0.3,0.3,0.5,0.4,0.8,0.5c0.3,0.1,0.4,0.3,0.7,0.5c0.1,0.1,0.3,0.1,0.3,0.3c0.1,0.1,0.1,0.1,0.3,0.3
					l0.1,0.1c0.3,0.1,0.4,0.3,0.7,0.5c0.3,0.1,0.5,0.4,0.7,0.5c0.3,0.1,0.5,0.4,0.8,0.5c0,0,0,0,0.1,0c0,0,0,0,0.1,0.1l0,0
					c0.1,0,0.1,0.1,0.3,0.1c0.1,0.1,0.3,0.3,0.5,0.4l0.1,0.1c0.1,0.1,0.1,0.1,0.3,0.1c0.1,0.1,0.3,0.1,0.4,0.3
					c0.1,0.1,0.1,0.1,0.3,0.3l0.1,0.1l0.1,0.1c0.3,0.3,0.5,0.4,0.8,0.5s0.4,0.3,0.7,0.5c0.1,0.1,0.3,0.1,0.3,0.3
					c0.1,0.1,0.1,0.1,0.3,0.3l0.1,0.1c0.3,0.1,0.4,0.3,0.7,0.5c0.3,0.1,0.5,0.4,0.7,0.5c0.3,0.1,0.5,0.4,0.8,0.5
					c0.1,0,0.1,0.1,0.1,0.1c0.1,0,0.1,0.1,0.3,0.1c0.1,0.1,0.3,0.3,0.5,0.4c0.3,0.3,0.5,0.5,0.9,0.7c0.1,0.1,0.4,0.3,0.5,0.4
					c0.1,0,0.1,0.1,0.1,0.1l0.1,0.1c0.1,0.1,0.1,0.1,0.1,0.1s-0.1,0-0.3,0s-0.3-0.1-0.3-0.3c-0.1,0-0.1-0.1-0.1-0.1
					c-0.1-0.1-0.3-0.1-0.3-0.3C98.2,41,98,41,98,40.8c-0.3-0.3-0.7-0.5-0.9-0.7C97,40,96.8,40,96.7,39.9c-0.1-0.1-0.3-0.3-0.4-0.3
					l0,0l0,0c-0.1-0.1-0.3-0.3-0.4-0.3c-0.1-0.1-0.3-0.3-0.5-0.4c-0.4-0.3-0.7-0.5-1.1-0.8c-0.1,0-0.1-0.1-0.3-0.1
					c-0.1-0.1-0.4-0.3-0.5-0.4c-0.1-0.1-0.1-0.1-0.3-0.3c-0.1-0.1-0.1-0.1-0.3-0.1c-0.1-0.1-0.3-0.1-0.4-0.3
					c-0.5-0.4-1.1-0.8-1.5-1.2c-0.1-0.1-0.1-0.1-0.3-0.3c-0.7-0.3-0.8-0.3-0.8-0.3c-0.1-0.1-0.1-0.1-0.3-0.1
					c-0.1-0.1-0.1-0.1-0.3-0.3s-0.3-0.1-0.3-0.3l-0.1-0.1c-0.1-0.1-0.1-0.1-0.3-0.3s-0.3-0.3-0.5-0.4c-0.4-0.3-0.7-0.5-1.1-0.8
					c-0.1,0-0.1-0.1-0.3-0.1c-0.1-0.1-0.4-0.3-0.5-0.4c-0.1-0.1-0.1-0.1-0.3-0.3C86,32,86,32,85.9,32c-0.1-0.1-0.3-0.1-0.4-0.3
					c-0.5-0.4-1.1-0.8-1.5-1.2c-0.1-0.1-0.1-0.1-0.3-0.3c-0.1,0-0.1-0.1-0.3-0.1C83.3,30,83.3,30,83.2,30c-0.1-0.1-0.1-0.1-0.3-0.3
					c-0.1-0.1-0.3-0.1-0.3-0.3c0-0.1-0.1-0.1-0.3-0.3c-0.1-0.1-0.1-0.1-0.3-0.1L82,28.9c0-0.1-0.1-0.1,0-0.1
					C82.1,28.8,82.1,28.8,82.1,28.8z"/>
			</g>
		</g>
		<g id="XMLID_48_">
			<g id="XMLID_49_">
				<path id="XMLID_50_" class="st7" d="M95.8,39.2v-0.1c0,0,0,0,0-0.1c0-0.1,0-0.1,0.1-0.1c0,0,0-0.1,0.1-0.1v-0.1
					c0-0.1,0.1-0.3,0.1-0.3s0-0.1,0.1-0.1l0.1-0.1v-0.1c0.1-0.1,0.1-0.3,0.1-0.3c0-0.1,0.1-0.1,0.1-0.3c0,0,0-0.1,0.1-0.1
					c0,0,0-0.1,0.1-0.1c0,0,0,0,0-0.1s0.1-0.1,0.1-0.3c0-0.1,0.1-0.1,0.1-0.3s0.1-0.3,0.1-0.3l0,0l0,0l0,0V36c0-0.1,0.1-0.1,0.1-0.1
					s0,0,0-0.1v-0.1c0,0,0-0.1,0.1-0.1c0,0,0-0.1,0.1-0.1c0,0,0,0,0-0.1c0,0,0,0,0-0.1c0.1-0.1,0.1-0.3,0.1-0.3
					c0-0.1,0.1-0.1,0.1-0.3c0,0,0-0.1,0.1-0.1c0,0,0-0.1,0.1-0.1c0,0,0,0,0-0.1s0.1-0.1,0.1-0.3c0-0.1,0.1-0.1,0.1-0.3
					s0.1-0.3,0.1-0.3s0,0,0-0.1v-0.1c0-0.1,0.1-0.1,0.1-0.1c0.1-0.1,0.1-0.3,0.3-0.4c0-0.1,0.1-0.1,0.1-0.3c0,0,0,0,0-0.1
					c0,0,0,0,0.1,0h0.1v0.1v0.1c0,0,0,0,0,0.1c0,0,0,0.1-0.1,0.1c0,0,0,0.1-0.1,0.1c0,0.1-0.1,0.3-0.3,0.4c0,0,0,0.1-0.1,0.1
					c0,0,0,0.1-0.1,0.1l0,0l0,0c0,0,0,0.1-0.1,0.1c0,0.1-0.1,0.1-0.1,0.3c-0.1,0.1-0.1,0.3-0.3,0.4c0,0,0,0,0,0.1S98,34.6,98,34.7
					v0.1c0,0,0,0,0,0.1c0,0,0,0.1-0.1,0.1c-0.1,0.3-0.3,0.4-0.4,0.7v0.1c0,0,0,0,0,0.1s0,0.1,0,0.1s0,0.1-0.1,0.1c0,0,0,0.1-0.1,0.1
					l0,0c0,0,0,0.1-0.1,0.1c0,0.1-0.1,0.1-0.1,0.3c-0.1,0.1-0.1,0.3-0.3,0.4c0,0,0,0,0,0.1s-0.1,0.1-0.1,0.3v0.1c0,0,0,0-0.1,0.1
					c0,0,0,0.1-0.1,0.1c-0.1,0.3-0.3,0.4-0.4,0.7v0.1c0,0,0,0,0,0.1v0.1C95.9,39.1,95.9,39.2,95.8,39.2c0,0,0,0.1-0.1,0.1
					c0,0,0,0.1-0.1,0.1C95.9,39.2,95.9,39.2,95.8,39.2C95.9,39.4,95.9,39.4,95.8,39.2C95.8,39.4,95.8,39.4,95.8,39.2
					C95.8,39.4,95.8,39.2,95.8,39.2z"/>
			</g>
		</g>
		<g id="XMLID_45_">
			<g id="XMLID_46_">
				<path id="XMLID_47_" class="st7" d="M68.9,15.6c0,0,0.1,0.1,0.1,0.3V16v0.3c0,0.1,0,0.3,0.1,0.3c0,0.1,0,0.1,0,0.3
					c0,0.3,0.1,0.4,0.1,0.7c0,0.1,0.1,0.1,0.1,0.3c0,0.1,0.1,0.1,0.1,0.3c0,0.1,0.1,0.1,0.1,0.3c0.1,0.3,0.3,0.4,0.3,0.5
					c0.1,0.1,0.1,0.3,0.3,0.4c0,0.1,0.1,0.1,0.1,0.3l0.1,0.1l0.1,0.1c0.1,0.1,0.3,0.3,0.4,0.3c0.1,0.1,0.3,0.3,0.5,0.3
					c0.1,0.1,0.4,0.1,0.5,0.3l0,0h0.1l0,0c0.1,0,0.1,0,0.1,0c0.1,0,0.3,0,0.4,0.1h0.1h0.3h0.3c0.1,0,0.1,0,0.3,0h0.1H74
					c0.3,0,0.4-0.1,0.7-0.1c0.1-0.1,0.3-0.1,0.5-0.3c0.1,0,0.1-0.1,0.3-0.1s0.1-0.1,0.1-0.1l0.1-0.1c0.1-0.1,0.3-0.3,0.3-0.4
					c0.1-0.1,0.3-0.3,0.3-0.5c0.1-0.1,0.1-0.4,0.3-0.5v-0.1c0-0.1,0-0.1,0-0.1c0-0.1,0.1-0.3,0.1-0.4c0-0.3,0.1-0.5,0.1-0.8
					c0-0.1,0-0.3,0-0.4v-0.1v-0.1c0-0.1,0-0.1,0.1-0.1l0.1,0.1c0,0.1,0.1,0.1,0.1,0.3v0.1c0,0.1,0,0.3,0,0.3c0,0.1,0,0.1,0,0.3
					c0,0.3-0.1,0.5-0.1,0.8c0,0.1,0,0.3-0.1,0.3c0,0.1-0.1,0.3-0.1,0.3l0,0l0,0c0,0.1-0.1,0.3-0.1,0.4c-0.1,0.1-0.1,0.3-0.3,0.4
					c-0.1,0.3-0.4,0.5-0.7,0.8l-0.1,0.1c-0.1,0.1-0.3,0.3-0.4,0.3c-0.1,0-0.1,0.1-0.3,0.1s-0.1,0-0.3,0.1c-0.1,0-0.3,0.1-0.4,0.1
					c-0.5,0.1-0.9,0.1-1.5,0.1c-0.1,0-0.1,0-0.3,0s-0.1,0-0.1,0c-0.1,0-0.1,0-0.3,0c-0.1,0-0.1,0-0.3-0.1c-0.1,0-0.1-0.1-0.3-0.1
					h-0.1c-0.1,0-0.1-0.1-0.3-0.1c-0.1-0.1-0.3-0.1-0.4-0.3c-0.3-0.1-0.5-0.4-0.8-0.7l0.1,0.1c-0.1-0.1-0.3-0.3-0.3-0.4
					c0-0.1-0.1-0.1-0.1-0.3c0-0.1-0.1-0.1-0.1-0.1c-0.1-0.1-0.1-0.1-0.1-0.3c-0.3-0.4-0.4-0.8-0.5-1.3c0-0.1,0-0.1-0.1-0.3
					c0-0.1,0-0.1,0-0.1c0-0.1,0-0.1,0-0.3c0-0.1,0-0.1,0-0.3v-0.3c0-0.1,0-0.1,0-0.3c0-0.1,0-0.1,0-0.3v-0.1c0-0.1,0-0.1,0.1-0.1
					C68.8,15.6,68.9,15.6,68.9,15.6z"/>
			</g>
		</g>
		<g id="XMLID_42_">
			<g id="XMLID_43_">
				<path id="XMLID_44_" class="st7" d="M55.2,117.6c0.3-0.1,0.5-0.1,1.3-0.3c0.4,0,0.7-0.1,1.1-0.1l1.6-0.3
					c0.7-0.1,1.2-0.3,1.9-0.4c0.4-0.1,0.8-0.1,1.2-0.3c1.3-0.3,2.7-0.7,3.9-1.1c0.5-0.1,1.1-0.4,1.7-0.5c0.5-0.1,1.1-0.4,1.6-0.7
					c0.4-0.1,0.8-0.4,1.2-0.5c1.2-0.5,2.4-1.1,3.5-1.6c0.9-0.5,1.9-1.1,2.7-1.6c0.4-0.3,0.9-0.7,1.3-0.9s0.7-0.5,1.1-0.8l0.7-0.5
					c0.8-0.7,1.6-1.3,2.3-2c0.8-0.8,1.6-1.7,2.4-2.5c0.8-0.9,1.6-2,2.3-3.1c0-0.1,0.1-0.1,0.1-0.3l0.3-0.4l0.1-0.1
					c0.1-0.3,0.4-0.7,0.5-1.1c0.4-0.7,0.8-1.5,1.1-2.1l0.4-0.7l0.5-1.2c0.3-0.5,0.5-1.1,0.7-1.6c0.1-0.5,0.4-0.9,0.5-1.5
					c0.1-0.3,0.1-0.5,0.3-0.8c0.1-0.3,0.1-0.5,0.3-0.7c0.4-1.2,0.8-2.4,1.3-3.6l1.1-2.9l0.5-1.5c0.1-0.4,0.3-0.8,0.5-1.2l0.3-0.8
					c0.4-0.9,0.8-1.9,1.2-2.8c0.5-1.1,1.1-2.1,1.7-3.2c0.7-1.1,1.5-2.1,2.3-3.2c0.3-0.3,0.4-0.5,0.5-0.7c0.3-0.3,0.5-0.5,0.8-0.9
					c0.5-0.5,1.2-1.2,1.9-1.7c1.2-1.1,2.5-1.9,3.9-2.5c0.8-0.4,1.6-0.7,2.4-0.9c0.3-0.1,0.7-0.1,0.9-0.3c0.3-0.1,0.7-0.1,0.9-0.1
					c0.5-0.1,0.8-0.1,0.8,0c-0.1,0-0.4,0.1-0.8,0.3c-0.4,0.1-0.9,0.3-1.5,0.4c-0.3,0.1-0.5,0.1-0.9,0.3c-0.5,0.1-1.1,0.4-1.5,0.7
					c-0.5,0.3-0.9,0.4-1.3,0.8c-1.3,0.8-2.5,1.7-3.7,2.8c-0.4,0.4-0.8,0.8-1.2,1.2c-0.4,0.5-0.8,0.9-1.2,1.5l-0.1,0.1l-0.1,0.1
					c-0.4,0.5-0.9,1.2-1.2,1.9c-0.4,0.7-0.8,1.5-1.2,2.1c-0.8,1.6-1.6,3.2-2.3,4.8l-0.4,0.9L94.3,84c-0.1,0.4-0.3,0.8-0.4,1.3
					c-0.1,0.4-0.3,0.7-0.4,1.1c-0.3,0.7-0.4,1.2-0.7,1.9c-0.8,2.4-1.7,4.9-2.8,7.3c-0.1,0.4-0.4,0.8-0.5,1.2L89,97.7
					c-0.3,0.4-0.4,0.8-0.7,1.1c-0.3,0.4-0.5,0.8-0.8,1.3c-0.3,0.4-0.5,0.9-0.9,1.3c-0.1,0.1-0.3,0.3-0.4,0.5
					c-0.3,0.4-0.7,0.8-0.8,1.2c-0.5,0.7-1.1,1.3-1.7,1.9c-1.2,1.3-2.5,2.5-4,3.6l-0.8,0.7c-0.7,0.5-1.5,1.1-2.3,1.6
					c-0.4,0.3-0.8,0.5-1.2,0.7c-0.4,0.1-0.7,0.4-1.1,0.5c-0.5,0.3-1.2,0.7-1.7,0.9c-2.4,1.2-4.8,2-7.3,2.8l-1.2,0.4l-1.1,0.3
					c-0.4,0.1-0.8,0.3-1.2,0.3c-0.5,0.1-0.9,0.3-1.5,0.3l-1.6,0.3c-0.5,0.1-0.8,0.1-1.3,0.3c-0.4,0-0.8,0.1-1.2,0.1
					c-0.3,0-0.4,0-0.7,0c-0.4,0-0.5,0-0.5,0C54.9,117.8,55,117.8,55.2,117.6z"/>
			</g>
		</g>
	</g>
	<g>
		<g id="XMLID_38_">
			<g id="XMLID_39_">
				<g id="XMLID_40_">
					<path id="XMLID_41_" class="st5" d="M10.6,61.7l12,11.1l0.1,0.1c1.2,1.2,2.8,1.3,4.1,0.7l24-13.4c1.3-0.7,1.9-2.4,1.2-3.9
						c-0.7-1.3-2.3-1.9-3.6-1.3L23.6,66.6l4.4,0.8L17.5,55.3C17.5,55.5,10.4,61.7,10.6,61.7z"/>
				</g>
			</g>
		</g>
		<g id="XMLID_34_">
			<g id="XMLID_35_">
				<g id="XMLID_36_">
					<path id="XMLID_37_" class="st5" d="M47.3,56.7c0.1-0.3,0.1-0.3,0.1-0.4c0-0.1,0.1-0.1,0.1-0.3c0.1-0.1,0.1-0.3,0.3-0.4
						c0.1-0.3,0.3-0.4,0.4-0.5c0.3-0.4,0.7-0.7,0.9-0.9c0.7-0.5,1.3-0.9,2-1.3c0.5-0.3,1.1-0.1,1.5,0.4c0.3,0.4,0.1,0.9-0.1,1.2l0,0
						c-0.5,0.5-0.9,1.1-1.3,1.6c-0.1,0.3-0.4,0.5-0.5,0.8c-0.1,0.1-0.1,0.3-0.1,0.4v0.1l0,0c0,0,0,0,0-0.1c-0.1,0.8-1.1,1.5-1.9,1.2
						C47.8,58.5,47.1,57.5,47.3,56.7z"/>
				</g>
			</g>
		</g>
		<g id="XMLID_30_">
			<g id="XMLID_31_">
				<g id="XMLID_32_">
					<path id="XMLID_33_" class="st5" d="M48.6,55.1c0.5-0.3,1.1-0.5,1.6-0.7c0.5-0.3,1.1-0.4,1.6-0.5c1.1-0.3,2.3-0.5,3.5-0.7
						c0.5,0,1.1,0.4,1.1,1.1c0,0.5-0.4,0.9-0.9,1.1l0,0c-0.9,0.1-1.9,0.5-2.7,0.9c-0.4,0.3-0.9,0.4-1.3,0.7
						c-0.4,0.3-0.9,0.5-1.2,0.8c-0.7,0.5-1.6,0.3-2.1-0.4c-0.5-0.7-0.3-1.6,0.4-2.1C48.5,55.3,48.6,55.3,48.6,55.1z"/>
				</g>
			</g>
		</g>
		<g id="XMLID_26_">
			<g id="XMLID_27_">
				<g id="XMLID_28_">
					<path id="XMLID_29_" class="st5" d="M49,56.5c0.5-0.3,1.1-0.4,1.6-0.5c0.5-0.1,1.1-0.3,1.7-0.5c0.5-0.1,1.2-0.3,1.9-0.3
						c0.3,0,0.7,0,1.1,0c0.1,0,0.4,0,0.5,0s0.4,0.1,0.7,0.1c0.5,0.1,0.8,0.8,0.7,1.3c-0.1,0.4-0.5,0.7-1.1,0.7h-0.4
						c-0.1,0-0.7,0-1.1,0.1c-0.5,0.1-0.9,0.3-1.5,0.5c-0.5,0.3-0.9,0.4-1.5,0.7c-0.5,0.3-0.9,0.5-1.3,0.7c-0.8,0.4-1.7,0.1-2.1-0.5
						c-0.5-0.8-0.3-1.7,0.5-2.1C48.9,56.6,48.9,56.5,49,56.5z"/>
				</g>
			</g>
		</g>
		<g id="XMLID_22_">
			<g id="XMLID_23_">
				<g id="XMLID_24_">
					<path id="XMLID_25_" class="st5" d="M47.4,58.6c0.8-0.3,1.5-0.5,2.3-0.7c0.8-0.1,1.5-0.4,2.3-0.5c1.6-0.3,3.1-0.4,4.7-0.3
						c0.5,0,1.1,0.5,0.9,1.1c0,0.5-0.5,0.9-1.1,0.9l0,0c-1.3,0.1-2.8,0.3-4.1,0.7c-0.7,0.1-1.3,0.4-2,0.7c-0.7,0.3-1.3,0.5-1.9,0.8
						l0,0c-0.8,0.4-1.7,0.1-2.1-0.7c-0.4-0.8-0.1-1.7,0.7-2.1C47.3,58.7,47.3,58.7,47.4,58.6z"/>
				</g>
			</g>
		</g>
	</g>
	<g>
		<g id="XMLID_18_">
			<g id="XMLID_19_">
				<g id="XMLID_20_">
					<path id="XMLID_21_" class="st5" d="M30.2,46.2l7.3-2.1h0.3c1.6-0.3,2.7-1.6,2.9-3.1l2.4-27.4c0.1-1.6-0.9-2.9-2.5-3.1
						c-1.5-0.1-2.8,0.8-3.1,2.3l-4.3,27.1l3.3-3.9l-8.1,1.6L30.2,46.2z"/>
				</g>
			</g>
		</g>
		<g id="XMLID_14_">
			<g id="XMLID_15_">
				<g id="XMLID_16_">
					<path id="XMLID_17_" class="st5" d="M38.1,14.4c-0.1-0.1-0.1-0.3-0.3-0.3c0-0.1-0.1-0.1-0.1-0.3c-0.1-0.1-0.1-0.3-0.1-0.4
						c-0.1-0.3-0.1-0.5-0.3-0.7c-0.1-0.4-0.1-0.8-0.3-1.3c-0.1-0.8-0.1-1.6,0-2.4c0-0.5,0.5-1.1,1.1-0.9c0.5,0,0.9,0.4,0.9,0.8l0,0
						c0.1,0.7,0.3,1.3,0.5,2c0.1,0.3,0.3,0.7,0.4,0.8s0.1,0.3,0.3,0.3l0.1,0.1l0,0c0,0,0,0-0.1-0.1c0.7,0.7,0.7,1.6,0,2.3
						C39.7,15,38.6,15,38.1,14.4z"/>
				</g>
			</g>
		</g>
		<g id="XMLID_10_">
			<g id="XMLID_11_">
				<g id="XMLID_12_">
					<path id="XMLID_13_" class="st5" d="M37.4,12.4c0.1-0.7,0.3-1.1,0.3-1.7c0.1-0.5,0.3-1.1,0.4-1.6c0.4-1.1,0.8-2.1,1.5-3.2
						c0.3-0.5,0.9-0.7,1.5-0.3c0.4,0.3,0.7,0.8,0.4,1.3l0,0c-0.4,0.8-0.7,1.7-0.8,2.8c-0.1,0.5-0.1,0.9-0.1,1.5
						c0,0.5-0.1,1.1-0.1,1.5c0,0.8-0.7,1.5-1.5,1.5s-1.5-0.7-1.5-1.5C37.4,12.6,37.4,12.5,37.4,12.4z"/>
				</g>
			</g>
		</g>
		<g id="XMLID_6_">
			<g id="XMLID_7_">
				<g id="XMLID_8_">
					<path id="XMLID_9_" class="st5" d="M38.7,12.9c0.1-0.7,0.3-1.2,0.4-1.7c0.1-0.5,0.4-1.1,0.5-1.7c0.3-0.5,0.4-1.1,0.7-1.7
						c0.1-0.3,0.3-0.5,0.5-0.8c0.1-0.1,0.3-0.3,0.4-0.4s0.4-0.3,0.5-0.4c0.4-0.4,1.1-0.3,1.5,0.1c0.3,0.4,0.3,0.9,0,1.2L43,7.7
						c-0.1,0.1-0.3,0.5-0.4,0.9s-0.3,0.9-0.4,1.5c-0.1,0.5-0.1,1.1-0.3,1.6c-0.1,0.5-0.1,1.1-0.1,1.6c0,0.8-0.8,1.5-1.7,1.5
						c-0.8,0-1.5-0.8-1.5-1.7C38.7,13,38.7,12.9,38.7,12.9z"/>
				</g>
			</g>
		</g>
		<g id="XMLID_2_">
			<g id="XMLID_3_">
				<g id="XMLID_4_">
					<path id="XMLID_5_" class="st5" d="M39.7,15.4c0.3-0.8,0.4-1.5,0.7-2.3c0.3-0.7,0.5-1.5,0.9-2.1c0.7-1.5,1.5-2.8,2.4-4.1
						c0.4-0.5,1.1-0.5,1.5-0.1c0.4,0.3,0.5,0.9,0.3,1.3l0,0c-0.7,1.2-1.2,2.4-1.7,3.9c-0.3,0.7-0.4,1.3-0.5,2
						c-0.1,0.7-0.3,1.5-0.4,2l0,0c-0.1,0.8-0.9,1.5-1.7,1.3s-1.5-0.9-1.3-1.7C39.5,15.6,39.7,15.4,39.7,15.4z"/>
				</g>
			</g>
		</g>
	</g>
</g>
</svg>
