<?xml version="1.0" encoding="utf-8"?>
<!-- Generator: Adobe Illustrator 22.1.0, SVG Export Plug-In . SVG Version: 6.00 Build 0)  -->
<svg version="1.1" id="Layer_1" xmlns="http://www.w3.org/2000/svg" xmlns:xlink="http://www.w3.org/1999/xlink" x="0px" y="0px"
	 viewBox="0 0 159 226.8" style="enable-background:new 0 0 159 226.8;" xml:space="preserve">
<style type="text/css">
	.st0{fill:#E1BA9E;}
	.st1{fill:#072AC8;}
	.st2{fill:#3089E0;}
	.st3{fill:#FFFFFF;}
	.st4{clip-path:url(#SVGID_2_);}
	.st5{fill:#4CC9F0;}
	.st6{fill:#FFD09F;}
	.st7{fill:#FFB769;}
	.st8{fill:#B5EAF7;}
	.st9{fill:#3EA9E8;}
	.st10{fill:#154AD0;}
	.st11{fill:#012968;}
	.st12{fill:#FFE1C8;}
	.st13{fill:#F7A491;}
	.st14{fill:#1A1B1D;}
	.st15{fill:#FF5B51;}
</style>
<g>
	<path class="st0" d="M79.9,81.5c-0.3,0.1,3.7,5.2,7.6,8.9c3.1,4,6.1,8.6,7.1,13.7c1.5,7.7,8.7,44.8,10,47.5
		c8.2,21.1,11.5,40.6,13.8,49.2c0.4,1.7,1.4,3.2,2.7,4.4l0,0l-0.5,9.7l-5.7,5.2c0,0-2.8-1.4-5.4-7.3c0,0-24.9-50.5-26.6-53.8
		c-3.3-9.5-15.2-58.5-15.2-58.5l-2.9-11.1L79.9,81.5z"/>
	<path class="st0" d="M77.5,87.6c-0.3,0,0.3,6.4,1.7,11.6c0.5,5,0.5,10.5-1.3,15.3c-2.8,7.4-16.5,42.5-16.8,45.5
		c-4.3,22.3-11.9,40.5-14.6,49c-0.5,1.7-0.5,3.4-0.1,5.1l0,0l-5.6,7.9l-7.6,1.4c0,0-1.6-2.7-0.6-9c0,0,5.8-55.9,6.1-59.7
		C41,145,56.9,97.2,56.9,97.2l3.5-10.9L77.5,87.6z"/>
	<path class="st0" d="M24.4,33.3c0.1-0.3,0.4-0.1,0.7,0.4c-0.4-1.8-0.3-4.1,0-4.3c0.4-0.2,0.6,2.9,1.6,4.6c1,1.7,1.7,3.7,1.9,3.7
		c0.2-0.1-1.1-2.5-2-4.2s-0.2-9.7,0.6-4c0.9,5.8,6.4,10.2,6.5,8.4c0.2-1.7-0.7-4.4,0.4-4.1c1.2,0.4,1.5,4.3,2.5,7.2
		c0.1,0.3,0.1,1.3,0.1,2.6c0,0.6,0.4,1.2,1,1.4l14.6,5.4l9.5-16.7L72.7,36c0,0-8.7,22.6-16.1,26c-3.3,1.5-19.2-9.5-25.4-14.8
		C25.1,42.1,23.9,34.5,24.4,33.3z"/>
	<path class="st1" d="M66.6,23.3c-3.7,1.8-13.5,24.4-13.5,24.4l12.5,7.7l4-11.5C69.5,43.8,71.3,21,66.6,23.3z"/>
	<g id="XMLID_384_">
		<g id="XMLID_385_">
			<path id="XMLID_386_" class="st2" d="M86.1,71.9c6.1,6,8.2,9.1,14,16.8c0.5,0.7,9,13.3,9.4,14l16.2,24.6
				c-1.8-2.8-15.1-2.4-17.8-2.4c-9.3,0.1-16.9,4.4-25.4,7.6c-10.4,4-22.4,2.7-32.9,0.1c-5.5-1.3-10.9-3.2-16-5.7
				c-1-0.5-12.1-7.8-11.8-8c0,0,21-13.5,30.4-24.9c9.4-11.2,6.6-25.9,25.9-29.4L86.1,71.9z"/>
		</g>
	</g>
	<g id="XMLID_1_">
		<g id="XMLID_290_">
			<path id="XMLID_383_" class="st3" d="M28.8,115c0.3,0.2,0.5,0.3,1.4,1c0.3,0.2,0.6,0.5,1,0.7l1.5,1.1c0.6,0.4,1.2,0.9,1.9,1.3
				c0.4,0.3,0.9,0.5,1.3,0.9c1.3,0.9,2.7,1.7,4.1,2.5c0.6,0.3,1.3,0.6,1.8,1c0.6,0.3,1.3,0.6,1.8,1c0.5,0.2,1,0.4,1.4,0.6
				c1.4,0.6,2.9,1.1,4.2,1.6c1.2,0.4,2.4,0.7,3.5,1c0.6,0.1,1.3,0.3,1.8,0.4c0.5,0.1,1,0.2,1.5,0.3l1,0.1c1.2,0.1,2.5,0.2,3.5,0.3
				c1.4,0.1,2.8,0.1,4.2,0c1.5-0.1,3-0.3,4.4-0.5c0.1,0,0.2,0,0.4-0.1l0.5-0.1h0.1c0.4-0.1,1-0.2,1.4-0.3c1-0.2,1.8-0.5,2.8-0.9
				l0.9-0.3l1.4-0.5c0.6-0.2,1.3-0.5,1.9-0.7c0.5-0.2,1.1-0.4,1.7-0.6c0.3-0.1,0.6-0.2,0.9-0.4c0.2-0.2,0.5-0.2,0.9-0.3
				c1.4-0.6,2.8-1.3,4.1-1.8l3.4-1.5l1.7-0.7c0.4-0.2,1-0.3,1.4-0.5l1-0.3c1.1-0.4,2.2-0.9,3.4-1.2c1.3-0.4,2.7-0.7,4.1-1.1
				c1.5-0.3,3-0.5,4.5-0.6c0.4,0,0.7,0,1.1-0.1c0.4,0,1,0,1.4,0c1,0,1.9,0.1,2.9,0.2c1.8,0.2,3.6,0.6,5.4,1.3c1,0.3,1.8,0.7,2.8,1.3
				c0.3,0.2,0.6,0.4,1,0.5c0.3,0.2,0.6,0.4,0.9,0.6c0.5,0.4,0.7,0.6,0.6,0.6c-0.1,0-0.4-0.2-0.9-0.4c-0.3-0.2-1-0.6-1.6-1
				c-0.3-0.2-0.6-0.3-1-0.5c-0.5-0.3-1.2-0.5-1.8-0.7c-0.5-0.2-1.2-0.4-1.7-0.5c-1.7-0.5-3.5-0.7-5.5-0.9c-0.6,0-1.3,0-2,0
				c-0.7,0-1.5,0.1-2.2,0.1h-0.2c-0.1,0-0.1,0-0.2,0c-0.7,0.1-1.8,0.2-2.6,0.4c-1,0.2-1.9,0.4-2.9,0.6c-2,0.5-4,1.3-6,2l-1.2,0.4
				l-2.9,1.3c-0.4,0.2-1,0.4-1.5,0.6c-0.4,0.2-0.7,0.3-1.3,0.5c-0.7,0.3-1.4,0.6-2.1,1c-2.8,1.3-5.6,2.5-8.5,3.4
				c-0.4,0.2-1,0.3-1.5,0.4l-1.2,0.3c-0.5,0.1-1,0.3-1.5,0.4c-0.5,0.1-1.2,0.3-1.7,0.4c-0.6,0.1-1.2,0.2-1.8,0.3
				c-0.2,0-0.4,0.1-0.6,0.1c-0.5,0.1-1.2,0.1-1.7,0.2c-1,0.1-2,0.1-3,0.1c-2.1,0-4.2-0.2-6.3-0.4l-1.2-0.2c-1.1-0.2-2.1-0.4-3.1-0.6
				c-0.5-0.1-1.1-0.3-1.5-0.4s-0.9-0.2-1.3-0.4c-0.7-0.2-1.5-0.5-2.2-0.7c-2.9-1.1-5.6-2.5-8.2-4l-1.3-0.7l-1.1-0.6
				c-0.4-0.3-0.9-0.5-1.3-0.9c-0.4-0.3-1-0.6-1.5-1l-1.5-1.1c-0.4-0.3-0.7-0.6-1.2-1c-0.3-0.3-0.7-0.6-1.2-0.9
				c-0.2-0.2-0.4-0.3-0.5-0.5c-0.3-0.3-0.4-0.4-0.4-0.5C28.6,114.9,28.7,115,28.8,115z"/>
		</g>
	</g>
	<g>
		<g id="XMLID_412_">
			<g id="XMLID_413_">
				<g id="XMLID_414_">
					<polygon id="XMLID_415_" class="st2" points="109.4,215.8 111,218.7 110.2,226.8 125.4,211.8 121.2,204.7 					"/>
				</g>
			</g>
		</g>
		<g id="XMLID_407_">
			<g id="XMLID_408_">
				<g id="XMLID_409_">
					<g id="XMLID_410_">
						<path id="XMLID_411_" class="st3" d="M124.6,210.4c-0.1,0-0.2,0-0.3,0.1c-0.1,0-0.1,0.1-0.2,0.2c-0.1,0.1-0.2,0.2-0.2,0.2
							c-0.1,0.1-0.2,0.2-0.3,0.3c-0.1,0.1-0.1,0.1-0.2,0.2c-0.2,0.2-0.4,0.4-0.6,0.6c-0.1,0.1-0.2,0.2-0.3,0.3s-0.2,0.2-0.3,0.3
							c-0.1,0.1-0.1,0.1-0.2,0.2c-0.2,0.2-0.4,0.4-0.6,0.6c-0.2,0.2-0.3,0.3-0.5,0.5c-0.1,0.1-0.2,0.2-0.3,0.3
							c-0.1,0.1-0.1,0.1-0.2,0.2l-0.1,0.1c-0.2,0.2-0.3,0.3-0.5,0.5c-0.2,0.2-0.4,0.4-0.6,0.5c-0.2,0.2-0.4,0.4-0.6,0.6
							c0,0,0,0-0.1,0.1c0,0,0,0-0.1,0.1l0,0c-0.1,0.1-0.1,0.1-0.2,0.2c-0.1,0.1-0.3,0.3-0.4,0.4l-0.1,0.1c-0.1,0.1-0.1,0.1-0.2,0.2
							c-0.1,0.1-0.2,0.2-0.3,0.3s-0.1,0.2-0.2,0.3l-0.1,0.1l-0.1,0.1c-0.2,0.2-0.4,0.4-0.6,0.6c-0.2,0.2-0.3,0.3-0.5,0.5
							c-0.1,0.1-0.2,0.2-0.3,0.3c-0.1,0.1-0.1,0.1-0.2,0.2l-0.1,0.1c-0.2,0.2-0.3,0.3-0.5,0.5c-0.2,0.2-0.4,0.4-0.6,0.5
							c-0.2,0.2-0.4,0.4-0.6,0.6c-0.1,0.1-0.1,0.1-0.1,0.1c-0.1,0.1-0.1,0.1-0.2,0.2c-0.1,0.1-0.3,0.3-0.4,0.4
							c-0.2,0.2-0.5,0.5-0.7,0.7c-0.1,0.1-0.3,0.2-0.4,0.4c-0.1,0.1-0.1,0.1-0.1,0.2c0,0.1-0.1,0.1-0.1,0.2c-0.1,0.1-0.1,0.2,0,0.2
							c0.1,0,0.1,0,0.2,0c0.1,0,0.2-0.1,0.3-0.2c0.1-0.1,0.1-0.1,0.1-0.1c0.1-0.1,0.2-0.2,0.3-0.3s0.1-0.2,0.2-0.2
							c0.3-0.2,0.5-0.5,0.7-0.7c0.1-0.1,0.2-0.2,0.3-0.3c0.1-0.1,0.2-0.2,0.3-0.3l0,0l0,0c0.1-0.1,0.3-0.2,0.4-0.3
							c0.1-0.1,0.3-0.3,0.4-0.4c0.3-0.3,0.6-0.5,0.9-0.9c0.1-0.1,0.1-0.1,0.2-0.2c0.1-0.1,0.3-0.3,0.4-0.4c0.1-0.1,0.1-0.1,0.2-0.2
							c0.1-0.1,0.1-0.1,0.2-0.2c0.1-0.1,0.2-0.2,0.3-0.3c0.4-0.4,0.9-0.9,1.3-1.3c0.1-0.1,0.1-0.1,0.2-0.2c0.1-0.1,0.1-0.1,0.1-0.2
							c0.1-0.1,0.1-0.1,0.2-0.2c0.1-0.1,0.2-0.2,0.2-0.2c0.1-0.1,0.2-0.2,0.2-0.2l0.1-0.1c0.1-0.1,0.1-0.1,0.2-0.2
							c0.1-0.1,0.3-0.3,0.4-0.4c0.3-0.3,0.6-0.5,0.9-0.9c0.1-0.1,0.1-0.1,0.2-0.2c0.1-0.1,0.3-0.3,0.4-0.4c0.1-0.1,0.1-0.1,0.2-0.2
							c0.1-0.1,0.1-0.1,0.2-0.2c0.1-0.1,0.2-0.2,0.3-0.3c0.4-0.4,0.9-0.9,1.3-1.3c0.1-0.1,0.1-0.1,0.2-0.2c0.1-0.1,0.1-0.1,0.1-0.2
							c0.1-0.1,0.1-0.1,0.2-0.2c0.1-0.1,0.2-0.2,0.2-0.2c0.1-0.1,0.2-0.2,0.2-0.2c0.1-0.1,0.1-0.1,0.2-0.2c0.1-0.1,0.1-0.1,0.2-0.2
							c0-0.1,0-0.1,0.1-0.1c0-0.1,0-0.1,0-0.2C124.8,210.4,124.6,210.4,124.6,210.4z"/>
					</g>
				</g>
			</g>
		</g>
		<g id="XMLID_402_">
			<g id="XMLID_403_">
				<g id="XMLID_404_">
					<g id="XMLID_405_">
						<path id="XMLID_406_" class="st3" d="M112.7,216.9c-0.1-0.1-0.1-0.1-0.1-0.1l0,0l0,0c0,0,0,0-0.1,0l0,0c0,0-0.1,0-0.1,0.1l0,0
							c0,0,0,0,0,0.1l0,0c0,0-0.1,0-0.1,0.1c0,0,0,0-0.1,0.1l0,0l0,0l0,0c0,0-0.1,0-0.1,0.1l-0.1,0.1l-0.1,0.1l0,0l0,0l0,0l0,0
							c0,0,0,0-0.1,0.1l0,0l0,0l0,0l0,0l0,0l0,0c0,0-0.1,0-0.1,0.1c0,0,0,0-0.1,0.1l0,0l0,0l0,0c0,0-0.1,0-0.1,0.1l-0.1,0.1
							l-0.1,0.1l0,0l0,0c0,0,0,0-0.1,0.1c0,0,0,0.1-0.1,0.1h-0.1l0,0c0,0,0,0,0,0.1l0.1,0.1l0.1,0.1h0.1l0,0l0,0l0,0l0.1-0.1
							c0,0,0,0,0.1,0c0,0,0,0,0-0.1l0,0l0,0c0,0,0,0,0.1,0c0,0,0,0,0.1-0.1l0.1-0.1l0,0c0,0,0,0,0.1-0.1l0,0l0,0c0,0,0,0,0.1,0
							c0.1-0.1,0.1-0.1,0.2-0.2l0,0l0,0l0,0l0,0l0,0l0,0l0,0c0,0,0,0,0.1-0.1l0.1-0.1l0,0c0,0,0,0,0.1-0.1l0,0l0,0c0,0,0,0,0.1,0
							c0.1-0.1,0.1-0.1,0.2-0.2l0,0l0,0l0,0l0,0l0,0l0,0l0,0c0,0,0,0,0-0.1C112.8,217.2,112.8,217.1,112.7,216.9L112.7,216.9z"/>
					</g>
				</g>
			</g>
		</g>
		<g id="XMLID_397_">
			<g id="XMLID_398_">
				<g id="XMLID_399_">
					<g id="XMLID_400_">
						<path id="XMLID_401_" class="st3" d="M112,215.4c-0.1-0.1-0.1-0.1-0.1-0.1l0,0l0,0c0,0,0,0-0.1,0l0,0c0,0-0.1,0-0.1,0.1l0,0
							c0,0,0,0,0,0.1l0,0c0,0-0.1,0-0.1,0.1c0,0,0,0-0.1,0.1l0,0l0,0l0,0c0,0-0.1,0-0.1,0.1l-0.1,0.1l-0.1,0.1l0,0l0,0l0,0l0,0
							c0,0,0,0-0.1,0.1l0,0l0,0l0,0l0,0l0,0l0,0c0,0-0.1,0-0.1,0.1c0,0,0,0-0.1,0.1l0,0l0,0l0,0c0,0-0.1,0-0.1,0.1l-0.1,0.1
							l-0.1,0.1l0,0l0,0c0,0,0,0-0.1,0.1c0,0,0,0.1-0.1,0.1h-0.1l0,0c0,0,0,0,0,0.1l0.1,0.1l0.1,0.1h0.1l0,0l0,0l0,0l0.1-0.1
							c0,0,0,0,0.1,0c0,0,0,0,0-0.1l0,0l0,0c0,0,0,0,0.1,0c0,0,0,0,0.1-0.1l0.1-0.1l0,0c0,0,0,0,0.1-0.1l0,0l0,0c0,0,0,0,0.1,0
							c0.1-0.1,0.1-0.1,0.2-0.2l0,0l0,0l0,0l0,0l0,0l0,0l0,0c0,0,0,0,0.1-0.1l0.1-0.1l0,0c0,0,0,0,0.1-0.1l0,0l0,0c0,0,0,0,0.1,0
							c0.1-0.1,0.1-0.1,0.2-0.2l0,0l0,0l0,0l0,0l0,0l0,0l0,0c0,0,0,0,0-0.1C112.1,215.6,112.1,215.6,112,215.4L112,215.4z"/>
					</g>
				</g>
			</g>
		</g>
		<g id="XMLID_387_">
			<g id="XMLID_388_">
				<g id="XMLID_394_">
					<g id="XMLID_395_">
						<path id="XMLID_396_" class="st3" d="M121.8,213.3c0.1-0.1,0.1-0.1,0.1-0.1s0,0,0-0.1V213v-0.1c0,0,0,0,0-0.1s0-0.1-0.1-0.2
							v-0.1v-0.1v-0.1c0-0.1,0-0.1,0-0.2s0-0.1,0-0.2v-0.1c0,0,0,0,0-0.1l0,0c0,0,0-0.1,0-0.2s0-0.1,0-0.2s0-0.1,0.1-0.2l0,0l0,0
							l0,0c0,0,0,0,0-0.1l0.1-0.1l0,0v-0.1v-0.1v-0.1l0,0l0,0c0-0.1,0.1-0.1,0.1-0.2c0-0.1,0.1-0.1,0.1-0.2l0.1-0.1v-0.1l0,0
							l0.1-0.1c0.1-0.1,0.1-0.1,0.1-0.2c0.1-0.1,0.1-0.1,0.1-0.2l0,0c0,0,0,0,0.1-0.1l0.1-0.1c0.1-0.1,0.1-0.2,0.2-0.2
							c0.1,0,0.1-0.1,0.1-0.1s0,0,0-0.1s0-0.1,0-0.1c0-0.1,0-0.1-0.1-0.1l-0.1-0.1h-0.1l0,0l-0.1,0.1c0,0,0,0.1-0.1,0.1
							c-0.1,0.1-0.1,0.1-0.2,0.2c0,0-0.1,0-0.1,0.1c0,0.1-0.1,0.1-0.1,0.1l0,0l0,0l-0.1,0.1l-0.1,0.1c-0.1,0.1-0.1,0.2-0.2,0.3
							c0,0,0,0-0.1,0.1l-0.1,0.1c0,0,0,0-0.1,0.1c0,0,0,0,0,0.1l-0.1,0.1c-0.1,0.1-0.2,0.3-0.2,0.5v0.1v0.1v0.1v0.1v0.1l0,0v0.1
							c0,0.1,0,0.1,0,0.2c0,0.1,0,0.2,0,0.4c0,0,0,0,0,0.1s0,0.1,0,0.2v0.1v0.1c0,0.1,0,0.1,0,0.1c0,0.2,0.1,0.3,0.1,0.5v0.1v0.1
							v0.1v0.1l0.1,0.1c0,0,0,0,0.1,0.1c0,0,0,0.1,0.1,0.1h0.1C121.6,213.4,121.6,213.4,121.8,213.3
							C121.6,213.3,121.6,213.3,121.8,213.3z"/>
					</g>
				</g>
			</g>
		</g>
	</g>
	<g>
		<g id="XMLID_436_">
			<g id="XMLID_437_">
				<g id="XMLID_438_">
					<polygon id="XMLID_439_" class="st2" points="31.2,214.7 30.4,217.8 24.1,223.1 45.4,223.3 47.4,215.2 					"/>
				</g>
			</g>
		</g>
		<g id="XMLID_431_">
			<g id="XMLID_432_">
				<g id="XMLID_433_">
					<g id="XMLID_434_">
						<path id="XMLID_435_" class="st3" d="M45.8,221.7c-0.1-0.1-0.1-0.1-0.3-0.1c-0.1,0-0.2,0-0.2,0c-0.1,0-0.2,0-0.3,0
							c-0.2,0-0.3,0-0.4,0c-0.1,0-0.2,0-0.3,0c-0.3,0-0.6,0-1,0c-0.1,0-0.3,0-0.4,0c-0.1,0-0.3,0-0.4,0c-0.1,0-0.2,0-0.3,0
							c-0.3,0-0.6,0-0.9,0c-0.2,0-0.5,0-0.7,0c-0.1,0-0.2,0-0.4,0c-0.1,0-0.2,0-0.3,0c-0.1,0-0.1,0-0.2,0c-0.2,0-0.5,0-0.7,0
							c-0.3,0-0.5,0-0.9,0c-0.3,0-0.6,0-0.9,0h-0.1h-0.1l0,0c-0.1,0-0.2,0-0.3,0c-0.2,0-0.4,0-0.5,0c-0.1,0-0.1,0-0.2,0
							c-0.1,0-0.2,0-0.3,0c-0.1,0-0.3,0-0.4,0c-0.1,0-0.2,0-0.3,0c-0.1,0-0.1,0-0.2,0c-0.1,0-0.1,0-0.2,0c-0.3,0-0.6,0-0.9,0
							c-0.2,0-0.5,0-0.7,0c-0.1,0-0.2,0-0.4,0c-0.1,0-0.2,0-0.3,0c-0.1,0-0.1,0-0.2,0c-0.2,0-0.5,0-0.7,0c-0.3,0-0.5,0-0.9,0
							s-0.6,0-0.9,0c-0.1,0-0.1,0-0.2,0s-0.2,0-0.3,0c-0.2,0-0.4,0-0.5,0c-0.3,0-0.7,0-1.1,0c-0.2,0-0.4,0-0.6,0c-0.1,0-0.1,0-0.2,0
							s-0.1,0-0.2,0.1c-0.1,0-0.2,0.1-0.2,0.2c0,0.1,0.1,0.1,0.2,0.2c0.1,0,0.2,0.1,0.3,0.1s0.1,0,0.2,0c0.1,0,0.2,0,0.4,0
							s0.2,0,0.3,0c0.3,0,0.7,0,1.1,0c0.1,0,0.2,0,0.4,0c0.2,0,0.3,0,0.4,0l0,0l0,0c0.1,0,0.3,0,0.5,0s0.4,0,0.6,0
							c0.4,0,0.9,0,1.3,0c0.1,0,0.2,0,0.2,0c0.2,0,0.4,0,0.6,0c0.1,0,0.2,0,0.3,0c0.1,0,0.2,0,0.2,0c0.2,0,0.3,0,0.4,0
							c0.6,0,1.2,0,1.8,0c0.1,0,0.2,0,0.3,0c0.1,0,0.2,0,0.2,0c0.1,0,0.2,0,0.3,0c0.1,0,0.2,0,0.3,0c0.1,0,0.2,0,0.3,0
							c0.1,0,0.1,0,0.1,0c0.1,0,0.2,0,0.3,0c0.2,0,0.4,0,0.6,0c0.4,0,0.9,0,1.3,0c0.1,0,0.2,0,0.2,0c0.2,0,0.4,0,0.6,0
							c0.1,0,0.2,0,0.3,0c0.1,0,0.2,0,0.2,0c0.2,0,0.3,0,0.4,0c0.6,0,1.2,0,1.8,0c0.1,0,0.2,0,0.3,0c0.1,0,0.2,0,0.2,0
							c0.1,0,0.2,0,0.3,0c0.1,0,0.2,0,0.3,0c0.1,0,0.2,0,0.3,0c0.1,0,0.2,0,0.3,0c0.1,0,0.2,0,0.3,0c0.1,0,0.1,0,0.1-0.1
							C45.6,221.9,45.7,221.9,45.8,221.7C45.8,221.8,45.8,221.8,45.8,221.7z"/>
					</g>
				</g>
			</g>
		</g>
		<g id="XMLID_426_">
			<g id="XMLID_427_">
				<g id="XMLID_428_">
					<g id="XMLID_429_">
						<path id="XMLID_430_" class="st3" d="M32.7,217.8c0-0.1,0-0.1,0-0.1l0,0l0,0c0,0,0,0-0.1,0s0,0,0,0h-0.1c0,0,0,0-0.1,0
							c0,0,0,0-0.1,0c-0.1,0,0,0,0,0h-0.1h-0.1l0,0l0,0l0,0H32h-0.1h-0.1l0,0l0,0l0,0l0,0c0,0,0,0-0.1,0l0,0l0,0c0,0,0,0-0.1,0
							s0,0,0,0l0,0l0,0h-0.1h-0.1l0,0l0,0l0,0h-0.1h-0.1H31l0,0l0,0c0,0,0,0-0.1,0h-0.1h-0.1l0,0c0,0,0,0,0,0.1c0,0,0,0.1,0,0.2
							s0,0.1,0,0.2v0.1l0,0l0,0l0,0h0.1c0,0,0,0,0.1,0c0.1,0,0,0,0.1,0l0,0l0,0c0,0,0,0,0.1,0s0.1,0,0.1,0c0.1,0,0.1,0,0.2,0l0,0
							h0.1l0,0l0,0c0,0,0,0,0.1,0s0.2,0,0.2,0l0,0l0,0l0,0l0,0l0,0l0,0l0,0H32c0.1,0,0.1,0,0.2,0l0,0h0.1l0,0l0,0c0,0,0,0,0.1,0
							c0.1,0,0.2,0,0.2,0l0,0l0,0l0,0l0,0l0,0l0,0l0,0c0,0,0,0,0-0.1C32.7,218,32.7,218,32.7,217.8
							C32.7,217.9,32.7,217.8,32.7,217.8z"/>
					</g>
				</g>
			</g>
		</g>
		<g id="XMLID_421_">
			<g id="XMLID_422_">
				<g id="XMLID_423_">
					<g id="XMLID_424_">
						<path id="XMLID_425_" class="st3" d="M33.4,216.2c0-0.1,0-0.1,0-0.1l0,0l0,0c0,0,0,0-0.1,0c-0.1,0,0,0,0,0h-0.1c0,0,0,0-0.1,0
							c0,0,0,0-0.1,0c-0.1,0,0,0,0,0h-0.1h-0.1l0,0l0,0l0,0h-0.1h-0.1h-0.1l0,0l0,0l0,0l0,0c0,0,0,0-0.1,0l0,0l0,0c0,0,0,0-0.1,0
							c-0.1,0,0,0,0,0l0,0l0,0h-0.1H32l0,0l0,0l0,0h-0.1h-0.1h-0.1l0,0l0,0c0,0,0,0-0.1,0h-0.1h-0.1l0,0c0,0,0,0,0,0.1
							c0,0,0,0.1,0,0.2s0,0.1,0,0.2v0.1l0,0l0,0l0,0h0.1c0,0,0,0,0.1,0s0,0,0.1,0l0,0l0,0c0,0,0,0,0.1,0s0.1,0,0.1,0
							c0.1,0,0.1,0,0.2,0l0,0h0.1l0,0l0,0c0,0,0,0,0.1,0c0.1,0,0.2,0,0.2,0l0,0l0,0l0,0l0,0l0,0l0,0l0,0h0.1c0.1,0,0.1,0,0.2,0l0,0
							h0.1l0,0l0,0c0,0,0,0,0.1,0c0.1,0,0.2,0,0.2,0l0,0l0,0l0,0l0,0l0,0l0,0l0,0c0,0,0,0,0-0.1C33.4,216.5,33.4,216.4,33.4,216.2
							C33.4,216.3,33.4,216.3,33.4,216.2z"/>
					</g>
				</g>
			</g>
		</g>
		<g id="XMLID_416_">
			<g id="XMLID_417_">
				<g id="XMLID_418_">
					<g id="XMLID_419_">
						<path id="XMLID_420_" class="st3" d="M41.7,221.7c0.1,0,0.1,0,0.2-0.1c0,0,0,0,0-0.1v-0.1c0,0,0-0.1,0.1-0.1c0,0,0,0,0-0.1
							c0-0.1,0.1-0.1,0.1-0.2l0.1-0.1v-0.1c0,0,0,0,0.1-0.1c0-0.1,0.1-0.1,0.1-0.2c0-0.1,0.1-0.1,0.1-0.1l0.1-0.1c0,0,0,0,0.1-0.1
							l0,0c0,0,0.1-0.1,0.2-0.1c0.1,0,0.1-0.1,0.2-0.1c0.1,0,0.1-0.1,0.2-0.1l0,0l0,0l0,0c0,0,0,0,0.1,0l0.1-0.1l0,0h0.1h0.1H44
							c0,0,0,0,0.1,0l0,0c0.1,0,0.2,0,0.2-0.1c0.1,0,0.1,0,0.2,0h0.1h0.1h0.1c0.1,0,0.1,0,0.2,0c0.1,0,0.1,0,0.2,0
							c0.1,0,0.2,0,0.2,0s0,0,0.1,0s0.1,0,0.1,0h0.2c0.1,0,0.2,0,0.3,0c0.1,0,0.1,0,0.2,0c0,0,0,0,0.1,0c0,0,0,0,0.1-0.1
							c0,0,0.1-0.1,0.1-0.2s0-0.1,0-0.2l-0.1-0.1c0,0,0,0-0.1,0h-0.1h-0.1c-0.1,0-0.2,0-0.3,0h-0.1h-0.1l0,0l0,0c0,0-0.1,0-0.2,0
							s-0.1,0-0.2,0c-0.1,0-0.2,0-0.3,0c0,0,0,0-0.1,0c-0.1,0-0.1,0-0.2,0h-0.1c0,0,0,0-0.1,0h-0.1c-0.2,0-0.3,0.1-0.5,0.1h-0.1
							c0,0,0,0-0.1,0h-0.1h-0.1l-0.1,0.1l0,0h-0.1c-0.1,0-0.1,0.1-0.2,0.1c-0.1,0.1-0.2,0.1-0.3,0.2c0,0,0,0-0.1,0
							c-0.1,0-0.1,0.1-0.1,0.1s-0.1,0-0.1,0.1v0.1l-0.1,0.1c-0.1,0.1-0.2,0.3-0.3,0.5v0.1v0.1v0.1v0.1v0.1v0.1v0.1c0,0,0,0,0.1,0.1
							C41.5,221.7,41.6,221.7,41.7,221.7C41.6,221.7,41.6,221.7,41.7,221.7z"/>
					</g>
				</g>
			</g>
		</g>
	</g>
	<g>
		<g id="XMLID_452_">
			<g id="XMLID_453_">
				<g id="XMLID_454_">
					<path id="XMLID_455_" class="st0" d="M95.5,73.5c-1,0.3-2,0.6-3.1,1c-1.1,0.3-2.1,0.5-3.2,0.7c-2.1,0.4-4.3,0.7-6.4,0.6h-0.1
						c-1.1,0-1.9,0.9-1.9,1.9c0,1,0.6,1.7,1.6,1.9c2.5,0.4,4.9,0.5,7.4,0.5c1.2,0,2.5-0.1,3.6-0.2c1.3-0.1,2.4-0.2,3.6-0.4l0,0
						c1.7-0.3,2.9-1.9,2.6-3.6c-0.3-1.7-1.9-2.9-3.6-2.6C95.8,73.4,95.6,73.4,95.5,73.5z"/>
				</g>
			</g>
		</g>
		<g id="XMLID_448_">
			<g id="XMLID_449_">
				<g id="XMLID_450_">
					<path id="XMLID_451_" class="st0" d="M97.3,70.9l-9.1-2.2c-1.1-0.2-2.2,0.4-2.5,1.5c-0.2,1,0.3,2,1.2,2.4l8.7,3.5
						c1.4,0.5,3-0.1,3.5-1.5s-0.1-3-1.5-3.5C97.7,71,97.4,70.9,97.3,70.9z"/>
				</g>
			</g>
		</g>
	</g>
	<path class="st1" d="M96,21.3c0,0,2.1-0.1,7.8,2.5c5.7,2.6,17.9,19.6,17.9,19.6l-10,7.7L94.8,40C94.8,40.1,92.6,21.3,96,21.3z"/>
	<g>
		<g>
			<defs>
				<path id="SVGID_1_" d="M96,21.3c0,0,2.1-0.1,7.8,2.5c5.7,2.6,17.9,19.6,17.9,19.6l-10,7.7L94.8,40C94.8,40.1,92.6,21.3,96,21.3z
					"/>
			</defs>
			<clipPath id="SVGID_2_">
				<use xlink:href="#SVGID_1_"  style="overflow:visible;"/>
			</clipPath>
			<g id="XMLID_456_" class="st4">
				<g id="XMLID_457_">
					<path id="XMLID_458_" class="st3" d="M118.6,55c0.1-0.1,0.3-0.2,0.6-0.5c0.1-0.1,0.3-0.3,0.5-0.4c0.2-0.2,0.4-0.4,0.6-0.7
						c0.2-0.3,0.4-0.6,0.6-1c0.1-0.2,0.2-0.4,0.3-0.6c0.3-0.7,0.4-1.6,0.5-2.5c0-0.3,0-0.7,0-1.1c0-0.3-0.1-0.7-0.1-1.1
						c-0.1-0.2-0.1-0.5-0.2-0.7c-0.2-0.7-0.5-1.5-0.9-2.1c-0.3-0.5-0.6-1.2-1-1.6c-0.2-0.3-0.4-0.5-0.5-0.9
						c-0.1-0.2-0.3-0.4-0.5-0.6l-0.3-0.4c-0.4-0.4-0.9-1-1.3-1.4l-1.6-1.5c-0.5-0.5-1.2-1.1-1.7-1.6c0-0.1-0.1-0.1-0.1-0.1l-0.2-0.2
						l-0.1-0.1c-0.2-0.2-0.3-0.3-0.5-0.5l-1.1-1.1l-0.3-0.3l-0.5-0.5c-0.2-0.2-0.5-0.5-0.7-0.7c-0.2-0.2-0.4-0.4-0.6-0.6l-0.3-0.3
						c-0.1-0.1-0.2-0.2-0.3-0.3c-0.5-0.5-1.2-1.2-1.7-1.7l-1.4-1.4l-0.7-0.7c-0.2-0.2-0.3-0.4-0.5-0.5l-0.3-0.4
						c-0.4-0.4-0.9-1-1.3-1.4l-1.5-1.6c-0.5-0.5-1.1-1.2-1.6-1.7c-0.1-0.1-0.2-0.3-0.4-0.4c-0.2-0.2-0.3-0.3-0.5-0.5l-1.1-1.1
						c-0.6-0.7-1.3-1.4-1.9-2.1c-0.3-0.4-0.6-0.7-1.1-1.2c-0.1-0.1-0.2-0.3-0.4-0.4c-0.1-0.1-0.2-0.3-0.3-0.4
						c-0.2-0.3-0.3-0.4-0.2-0.4c0.1,0,0.2,0.1,0.4,0.3c0.2,0.1,0.4,0.4,0.6,0.6c0.1,0.1,0.2,0.3,0.4,0.4l0.6,0.7
						c0.2,0.2,0.4,0.4,0.6,0.7c0.6,0.7,1.3,1.4,1.9,2.1c0.2,0.3,0.5,0.5,0.7,0.7c0.3,0.3,0.5,0.5,0.9,0.9l0.1,0.1l0.1,0.1
						c0.3,0.3,0.6,0.7,1,1l1.1,1.2c0.7,0.9,1.5,1.6,2.2,2.4l0.4,0.4l1.2,1.2c0.2,0.2,0.4,0.4,0.6,0.6c0.2,0.2,0.3,0.3,0.5,0.5
						c0.3,0.3,0.5,0.5,0.9,0.9c1.2,1.2,2.2,2.2,3.4,3.4l0.5,0.5l0.4,0.4l0.5,0.5l0.6,0.6l0.7,0.6c0.1,0.1,0.2,0.2,0.2,0.2
						c0.2,0.2,0.4,0.4,0.6,0.6l1.2,1.1c0.7,0.7,1.6,1.6,2.2,2.5l0.4,0.5c0.3,0.4,0.6,0.9,1,1.4c0.1,0.2,0.3,0.5,0.4,0.7
						c0.1,0.2,0.2,0.4,0.3,0.6c0.2,0.3,0.3,0.7,0.5,1.2c0.6,1.5,0.9,3.2,0.6,4.8c0,0.2-0.1,0.5-0.1,0.7s-0.1,0.4-0.2,0.6
						c-0.1,0.2-0.2,0.5-0.3,0.7c-0.1,0.3-0.3,0.5-0.4,0.9c-0.2,0.3-0.4,0.5-0.6,0.9c-0.2,0.2-0.3,0.4-0.6,0.6
						c-0.2,0.2-0.4,0.3-0.6,0.4c-0.1,0.1-0.2,0.1-0.3,0.2C118.8,54.9,118.6,54.9,118.6,55C118.5,55,118.6,55,118.6,55z"/>
				</g>
			</g>
		</g>
	</g>
	<path class="st5" d="M65.6,77.4c5.9,3.1,28.5,2.6,28.5,2.6c0.5-5.9,3.5-21.5,4.8-34.2c1.6-8.8-1.1-11.4-2.9-24.4
		c0-0.1-9.1-0.7-9.1-0.7l-9.4,0.2c0,0-8.2,0.6-10.8,2.4c-0.2,0.1-1.2,15-0.4,25.5c0.5,7.2,1.4,13,1.3,17.7
		C67.4,73.3,65.6,77.4,65.6,77.4z"/>
	<path class="st5" d="M63.7,41.5c0.2,5.6,7.4,11,17.7,11S100,48,100,42.3s-6.9-13.5-17.1-13.5C72.7,28.8,63.5,34.4,63.7,41.5z"/>
	<g>
		<rect x="6.9" y="22" transform="matrix(0.4868 -0.8735 0.8735 0.4868 -12.8267 23.2876)" class="st6" width="13" height="1.1"/>
		<rect x="7.1" y="22.4" transform="matrix(0.4868 -0.8735 0.8735 0.4868 -12.8495 23.5021)" class="st7" width="13" height="0.6"/>
		
			<rect x="11.4" y="24.3" transform="matrix(0.4869 -0.8735 0.8735 0.4869 -12.583 28.2118)" class="st6" width="12.6" height="1.1"/>
		
			<rect x="11.5" y="24.5" transform="matrix(0.4869 -0.8735 0.8735 0.4869 -12.5719 28.3551)" class="st7" width="12.6" height="0.7"/>
		
			<rect x="15.9" y="26.7" transform="matrix(0.4869 -0.8735 0.8735 0.4869 -12.4059 33.3881)" class="st6" width="12.6" height="1.1"/>
		
			<rect x="16" y="27.1" transform="matrix(0.4869 -0.8735 0.8735 0.4869 -12.4423 33.5807)" class="st7" width="12.6" height="0.6"/>
		<path class="st8" d="M96.4,99.6c-4.1-3.6-6.5-11.2-8-14.2c0,0-1.9-4-7.8-4.1c-5.9-0.1-12.4-3.6-15.4-10.4
			c-3-6.7,4.3-16.9,4.3-16.9l0.3-0.5c0,0,4.8-11.6,12.1-12.5c7.3-1,13.7,2.8,16.9,7.7c3.2,4.9,7.6,4.5,7.6,4.5
			c3.4-0.3,11.1-2.1,16.4-0.6c4.9,1.4,8.8,5,11.1,9.5c2.6,4.9,3,11.7-0.7,20.1c-0.2,0.4-2.1,4.4-2.8,5.6c-0.5,1.1-2.9,4.9-3.2,5.2
			c-5.2,7.6-11.2,10.8-16.8,11.1C105.3,104.5,100.1,103.1,96.4,99.6z"/>
		<path class="st9" d="M83.1,73.9c4.8,2.7,11,0.6,13.9-4.5c2.9-5.1,1.3-11.5-3.5-14.1s-11-0.6-13.9,4.5
			C76.7,64.9,78.3,71.3,83.1,73.9z"/>
		<path class="st8" d="M84.9,70.7c3.1,1.7,7.2,0.4,9-2.9c1.8-3.3,0.9-7.5-2.2-9.2s-7.2-0.4-9,2.9C80.7,64.8,81.8,68.9,84.9,70.7z"/>
		<path class="st10" d="M9.6,13.3c-3.9,2-6.2,6.1-5.9,10.5v0.1l18.1,9c0.7-0.2,3.4,0.3,3.4,0.3l3.6-6.5c0,0-1.9-1.9-2.1-2.7
			L9.6,13.3L9.6,13.3z M22.9,27l-10.1-6.2c-0.7-0.5-1.1-1.6-0.5-2.5l0,0c0.5-0.9,1.6-1.2,2.4-0.6l10.1,6.2c0.7,0.5,1.1,1.6,0.5,2.5
			l0,0C24.8,27.2,23.7,27.5,22.9,27z M9.6,23.5L9.6,23.5c0.4-0.9,1.5-1.3,2.4-0.9l10.5,5.2c0.9,0.4,1.2,1.5,0.6,2.4l0,0
			c-0.4,0.9-1.5,1.3-2.4,0.9l-10.5-5.2C9.4,25.4,9.1,24.3,9.6,23.5z"/>
		<path class="st10" d="M82.7,61.5c-1,1.7-1.2,3.6-0.6,5.4L25.2,33.3l3.6-6.5L87.6,58C85.7,58.2,83.7,59.5,82.7,61.5z"/>
		
			<rect x="97.7" y="75.8" transform="matrix(0.4869 -0.8735 0.8735 0.4869 -10.6367 137.6338)" class="st9" width="28.2" height="4.2"/>
		<path class="st11" d="M26.9,22.5L26.9,22.5c0.2-0.3,0.1-0.6-0.2-0.7l-2.1-1.2c-0.3-0.1-0.6-0.1-0.7,0.2l0,0
			c-0.1,0.3-0.1,0.6,0.2,0.7l2.1,1.2C26.5,22.8,26.8,22.7,26.9,22.5z"/>
		<path class="st11" d="M22.6,20L22.6,20c0.2-0.3,0.1-0.6-0.2-0.7l-2.1-1.2c-0.3-0.1-0.6-0.1-0.7,0.2l0,0c-0.1,0.3-0.1,0.6,0.2,0.7
			l2.1,1.2C22,20.4,22.3,20.3,22.6,20z"/>
		<path class="st11" d="M18.4,17.5L18.4,17.5c0.2-0.3,0.1-0.6-0.2-0.7L16,15.5c-0.3-0.1-0.6-0.1-0.7,0.2l0,0
			c-0.1,0.3-0.1,0.6,0.2,0.7l2.1,1.2C17.8,17.8,18.2,17.7,18.4,17.5z"/>
		<path class="st11" d="M11.8,29L11.8,29c0.2-0.3,0.1-0.6-0.2-0.7l-2.1-1.2C9.2,27,8.8,27,8.7,27.3l0,0C8.6,27.6,8.6,28,9,28.1
			l2.1,1.2C11.4,29.5,11.7,29.4,11.8,29z"/>
		<path class="st11" d="M16.2,31.3L16.2,31.3c0.2-0.3,0.1-0.6-0.2-0.7l-2.1-1.2c-0.3-0.1-0.6-0.1-0.7,0.2l0,0
			c-0.1,0.3-0.1,0.6,0.2,0.7l2.1,1.2C15.7,31.7,16,31.6,16.2,31.3z"/>
		<path class="st11" d="M20.5,33.8L20.5,33.8c0.2-0.3,0.1-0.6-0.2-0.7l-2.1-1.2c-0.3-0.1-0.6-0.1-0.7,0.2l0,0
			c-0.1,0.3-0.1,0.6,0.2,0.7l2.1,1.2C20.1,34.2,20.4,34.1,20.5,33.8z"/>
		<polygon class="st12" points="25.2,33.3 29,26.7 29.6,27.1 26,33.8 		"/>
		<polygon class="st12" points="30.3,36.2 34.1,29.5 34.4,29.6 30.6,36.4 		"/>
		<polygon class="st12" points="34.9,39 38.8,31.9 39.2,32.1 35.2,39.2 		"/>
		<polygon class="st12" points="38.8,41.4 42.9,34.1 43.2,34.3 39.2,41.5 		"/>
		<polygon class="st12" points="42.8,43.6 46.9,36.2 47.2,36.4 43.1,43.8 		"/>
		<polygon class="st12" points="46.4,45.8 50.6,38.3 50.9,38.4 46.7,46 		"/>
		<polygon class="st12" points="50,47.9 54.4,40.2 54.7,40.4 50.3,48.1 		"/>
		<polygon class="st12" points="53.1,49.7 57.5,41.9 57.8,42 53.4,49.9 		"/>
		<polygon class="st12" points="56.2,51.5 60.6,43.5 60.9,43.7 56.4,51.8 		"/>
		<polygon class="st12" points="59.1,53.4 63.7,45.1 64,45.3 59.4,53.5 		"/>
		<polygon class="st12" points="61.9,55 66.5,46.6 66.8,46.8 62.2,55.2 		"/>
		<polygon class="st12" points="64.6,56.6 69.3,48.1 69.5,48.2 64.8,56.7 		"/>
		<polygon class="st12" points="69.3,59.4 74.1,50.7 74.4,50.8 69.6,59.5 		"/>
		<polygon class="st12" points="71.5,60.6 76.4,51.9 76.8,52.1 71.8,60.9 		"/>
		<polygon class="st12" points="73.4,61.8 78.4,52.9 78.7,53 73.8,62 		"/>
		<polygon class="st12" points="75.4,63 80.4,54 80.7,54.2 75.7,63.2 		"/>
		<rect x="14.7" y="19" transform="matrix(0.487 -0.8734 0.8734 0.487 -9.6632 23.2294)" class="st3" width="0.5" height="1.6"/>
		
			<rect x="12.1" y="23.9" transform="matrix(0.4873 -0.8732 0.8732 0.4873 -15.2113 23.3484)" class="st3" width="0.4" height="1.5"/>
		<rect x="19" y="21.4" transform="matrix(0.4874 -0.8732 0.8732 0.4874 -9.5718 28.2022)" class="st3" width="0.4" height="1.7"/>
		<rect x="16.4" y="26" transform="matrix(0.4869 -0.8734 0.8734 0.4869 -14.8954 28.3224)" class="st3" width="0.5" height="1.6"/>
		<rect x="23.4" y="23.8" transform="matrix(0.487 -0.8734 0.8734 0.487 -9.2754 33.2225)" class="st3" width="0.4" height="1.5"/>
		
			<rect x="20.6" y="29.2" transform="matrix(0.4862 -0.8739 0.8739 0.4862 -15.4842 33.4845)" class="st3" width="0.3" height="1.4"/>
		<g>
			<polygon class="st12" points="66.8,57.9 71.5,49.3 71.8,49.5 67.1,58.1 			"/>
		</g>
	</g>
	<path class="st13" d="M79.8,10.8c-0.1,1-0.6,1.7-1.2,1.7c-0.5-0.1-1-0.9-0.9-1.9c0.1-1,0.6-1.7,1.2-1.7
		C79.5,8.9,79.9,9.8,79.8,10.8z"/>
	<g id="XMLID_459_">
		<g id="XMLID_515_">
			<g id="XMLID_516_">
				<g id="XMLID_517_">
					<g id="XMLID_518_">
						<path id="XMLID_519_" class="st0" d="M83.6,26.8c-2.1,0-3.9-1.7-3.9-3.9v-7c0-2.1,1.7-3.9,3.9-3.9s3.9,1.7,3.9,3.9v7
							C87.5,25.1,85.8,26.8,83.6,26.8z"/>
					</g>
				</g>
			</g>
		</g>
		<g id="XMLID_510_">
			<g id="XMLID_511_">
				<g id="XMLID_512_">
					<g id="XMLID_513_">
						<path id="XMLID_514_" class="st14" d="M79.7,22.9v-7c0-2.1,1.7-3.9,3.9-3.9c2.1,0,3.9,1.7,3.9,3.9l0,0l-2.6,4.5L79.7,22.9z"/>
					</g>
				</g>
			</g>
		</g>
		<g id="XMLID_460_">
			<g id="XMLID_505_">
				<g id="XMLID_506_">
					<g id="XMLID_507_">
						<g id="XMLID_508_">
							<path id="XMLID_509_" class="st0" d="M81.5,21.2c-2.1-0.1-4.5-1.3-5.8-3c-1.2-1.6-1-3.5-0.5-5.5c0.4-1.8,0.9-3.9,2.1-5.4
								c1.2-1.5,3.1-2.4,5-2.2c3.3,0.2,5.9,3,5.8,6.4l-0.2,3.9C87.7,18.9,84.8,21.4,81.5,21.2z"/>
						</g>
					</g>
				</g>
			</g>
			<g id="XMLID_500_">
				<g id="XMLID_501_">
					<g id="XMLID_502_">
						<g id="XMLID_503_">
							<path id="XMLID_504_" class="st0" d="M86.6,15.1c0.3,0.1,0.6,0.1,1,0.2c0.1,0,0.2,0,0.3,0.1c0,0,0.7,0.5,0.4-0.1
								c0,0-0.6,0.1-0.7,0.1c-0.2,0-0.4,0-0.6,0c-0.1,0-0.1,0-0.2,0c-0.2-0.1-0.3-0.1-0.1,0.1c-0.1-0.5-0.7-0.9-1.2-0.6
								c-0.5,0.1-0.7,0.6-0.6,1.2c0.2,1.2,1.5,1.3,2.5,1.4c0.9,0.1,1.9,0,2.6-0.6c0.7-0.7,0.5-1.8-0.2-2.5c-0.3-0.3-0.7-0.5-1.2-0.6
								s-0.9-0.1-1.3-0.2C85.9,12.9,85.4,14.7,86.6,15.1L86.6,15.1z"/>
						</g>
					</g>
				</g>
			</g>
			<g id="XMLID_461_">
				<g id="XMLID_495_">
					<g id="XMLID_496_">
						<g id="XMLID_497_">
							<g id="XMLID_498_">
								<path id="XMLID_499_" class="st14" d="M79,15.4L79,15.4c-0.1-0.1-0.1-0.1-0.1-0.1h-0.1h-0.1c0,0,0,0-0.1,0
									c-0.1,0-0.1,0-0.2,0h-0.1c0,0,0,0-0.1,0l0,0c-0.1,0-0.1,0-0.1,0s-0.1,0-0.1-0.1l0,0l0,0l0,0v-0.1V15c0-0.1,0-0.1,0-0.2l0,0
									l0,0l0,0c0,0,0,0,0-0.1v-0.1l0,0v-0.1v-0.1c0,0,0,0,0-0.1l0,0l0,0c0-0.1,0-0.1,0-0.2s0-0.1,0-0.1v-0.1c0,0,0,0,0-0.1l0,0
									v-0.1c0-0.1,0-0.1,0-0.2s0-0.1,0-0.2l0,0c0,0,0,0,0-0.1V13c0-0.1,0-0.1,0-0.2v-0.1l0,0l0,0c0,0-0.1,0-0.1-0.1h-0.1
									c0,0-0.1,0-0.1,0.1l0,0v0.1c0,0,0,0,0,0.1s0,0.1,0,0.2c0,0,0,0,0,0.1v0.1l0,0l0,0v0.1v0.1c0,0.1,0,0.2,0,0.2l0,0v0.1
									c0,0,0,0,0,0.1c0,0,0,0,0,0.1v0.1c0,0.1,0,0.2-0.1,0.3c0,0,0,0,0,0.1c0,0,0,0,0,0.1c0,0,0,0,0,0.1c0,0,0,0,0,0.1V15l0,0v0.1
									v0.1c0,0.1,0,0.2,0.1,0.3c0,0,0,0,0,0.1l0.1,0.1c0,0,0,0,0.1,0c0,0,0,0,0.1,0c0,0,0.1,0,0.1,0.1c0.1,0,0.3,0.1,0.4,0.1
									c0,0,0,0,0.1,0s0,0,0.1,0c0,0,0,0,0.1,0s0,0,0.1,0H79c0,0,0,0,0.1,0c0,0,0,0,0.1,0C78.9,15.5,79,15.5,79,15.4
									C79,15.5,79,15.4,79,15.4L79,15.4z"/>
							</g>
						</g>
					</g>
				</g>
				<g id="XMLID_490_">
					<g id="XMLID_491_">
						<g id="XMLID_492_">
							<g id="XMLID_493_">
								<path id="XMLID_494_" class="st14" d="M89,15.1C89,15,89,15,89,15.1C89,15,89,15,89,15.1V15l0,0l0,0l-0.1-0.1l0,0l0,0l0,0
									h-0.1h-0.1l0,0l0,0l0,0h-0.1h-0.1h-0.1l0,0l0,0l0,0l0,0h-0.1l0,0l0,0l0,0l0,0l0,0l0,0c0,0-0.1,0-0.1,0.1c0,0,0,0-0.1,0.1
									l0,0l0,0l0,0h-0.1c0,0,0,0-0.1,0.1c0,0,0,0.1-0.1,0.1l0,0l0,0v0.1v0.1c0,0,0,0,0,0.1l0,0l0,0h0.1h0.1l0,0l0,0l0,0l0,0v-0.1
									l0,0l0,0l0,0l0,0l0,0l0,0c0,0,0,0,0.1-0.1l0,0l0,0l0,0l0,0l0,0l0.1-0.1l0,0l0,0l0,0l0,0l0,0l0,0l0,0l0,0h0.1l0,0l0,0l0,0
									l0,0l0,0c0,0,0.1,0,0.1,0.1l0,0l0,0l0,0l0,0l0,0l0,0l0,0l0,0C88.9,15.1,88.9,15.1,89,15.1L89,15.1z"/>
							</g>
						</g>
					</g>
				</g>
				<g id="XMLID_485_">
					<g id="XMLID_486_">
						<g id="XMLID_487_">
							<g id="XMLID_488_">
								<path id="XMLID_489_" class="st14" d="M88.7,16C88.7,16,88.8,16,88.7,16L88.7,16L88.7,16c0.1-0.1,0.1-0.1,0.1-0.1l0,0v-0.1
									l0,0l0,0l0,0c0,0,0-0.1-0.1-0.1c0,0,0,0,0-0.1l0,0l0,0l0,0c0,0,0,0,0-0.1c0,0,0,0-0.1,0c0,0,0,0-0.1,0l0,0l0,0l0,0l0,0h-0.1
									l0,0l0,0l0,0l0,0l0,0l0,0h-0.1h-0.1l0,0l0,0l0,0c0,0,0,0-0.1,0h-0.1h-0.1l0,0l0,0h-0.1c0,0,0,0.1-0.1,0.1c0,0,0,0-0.1,0l0,0
									l0,0c0,0,0,0.1,0.1,0.1c0,0,0.1,0,0.1,0.1l0,0l0,0l0,0l0,0c0,0,0,0,0.1,0l0,0l0,0l0,0l0,0l0,0l0,0h0.1l0,0l0,0l0,0l0,0l0,0
									H88l0,0l0,0l0,0l0,0l0,0l0,0l0,0l0,0c0,0,0,0,0.1,0.1l0,0l0,0l0,0l0,0l0,0c0,0,0,0.1,0.1,0.1l0,0l0,0l0,0l0,0l0,0l0,0l0,0
									l0,0C88.2,16,88.5,16,88.7,16L88.7,16z"/>
							</g>
						</g>
					</g>
				</g>
				<g id="XMLID_480_">
					<g id="XMLID_481_">
						<g id="XMLID_482_">
							<g id="XMLID_483_">
								<path id="XMLID_484_" class="st14" d="M80,16.2C79.9,16.2,79.9,16.2,80,16.2c-0.1,0-0.1,0-0.1,0l0,0l0,0l0,0
									c0,0,0,0-0.1,0.1l0,0l0,0l0,0c0,0,0,0,0,0.1l0,0l0,0l0,0l0,0c0,0,0,0-0.1,0c0,0,0,0-0.1,0c0,0,0,0-0.1,0l0,0l0,0l0,0l0,0
									l0,0l0,0l0,0l0,0l0,0l0,0l0,0h-0.1c0,0,0,0-0.1,0l0,0l0,0l0,0c0,0,0,0-0.1,0s0,0-0.1,0s0,0-0.1,0l0,0l0,0l0,0h-0.1l0,0l0,0
									l0,0c0,0,0,0.1-0.1,0.1v0.1c0,0,0,0,0,0.1l0,0l0,0l0,0h0.1l0,0c0,0,0,0,0.1,0l0,0l0,0c0,0,0,0,0.1,0s0,0,0.1,0h0.1l0,0
									c0,0,0,0,0.1,0c0.1,0,0,0,0,0l0,0l0,0c0.1,0,0.1,0,0.2-0.1l0,0l0,0l0,0l0,0l0,0l0,0l0,0c0,0,0,0,0.1,0l0.1-0.1l0,0
									c0,0,0,0,0.1,0l0,0l0,0l0,0c0,0,0.1-0.1,0.1-0.2l0,0l0,0l0,0l0,0l0,0l0,0l0,0l0,0C80.1,16.2,80.1,16.2,80,16.2L80,16.2z"/>
							</g>
						</g>
					</g>
				</g>
				<g id="XMLID_476_">
					<g id="XMLID_477_">
						<g id="XMLID_478_">
							<path id="XMLID_479_" class="st14" d="M80.5,13.8L80.5,13.8c-0.2,0-0.3-0.2-0.3-0.3v-0.2c0-0.2,0.1-0.3,0.3-0.3
								c0.2,0,0.3,0.2,0.3,0.3v0.2C80.8,13.7,80.7,13.8,80.5,13.8z"/>
						</g>
					</g>
				</g>
				<g id="XMLID_472_">
					<g id="XMLID_473_">
						<g id="XMLID_474_">
							<path id="XMLID_475_" class="st14" d="M76.9,13.7L76.9,13.7c-0.2,0-0.3-0.2-0.3-0.3v-0.2c0-0.2,0.1-0.3,0.3-0.3
								c0.2,0,0.3,0.2,0.3,0.3v0.2C77.2,13.5,77.1,13.7,76.9,13.7z"/>
						</g>
					</g>
				</g>
				<g id="XMLID_467_">
					<g id="XMLID_468_">
						<g id="XMLID_469_">
							<g id="XMLID_470_">
								<path id="XMLID_471_" class="st14" d="M81.5,12.4C81.5,12.3,81.5,12.3,81.5,12.4C81.5,12.3,81.5,12.3,81.5,12.4v-0.1l0,0
									l0,0c0,0,0,0-0.1-0.1l0,0l0,0l0,0c0,0,0,0-0.1,0c0,0,0,0-0.1,0l0,0l0,0l0,0c0,0,0,0-0.1,0c0,0,0,0-0.1,0c0,0,0,0-0.1,0l0,0
									l0,0l0,0l0,0l0,0l0,0l0,0l0,0l0,0l0,0l0,0h-0.1c0,0,0,0-0.1,0l0,0l0,0l0,0c0,0,0,0-0.1,0c0,0,0,0-0.1,0h-0.1l0,0l0,0l0,0
									h-0.1c0,0,0,0-0.1,0l0,0l0,0v0.1c0,0,0,0.1,0.1,0.1l0,0l0,0l0,0l0,0c0,0,0,0,0.1,0l0,0l0,0l0,0l0,0l0,0l0,0h0.1l0,0l0,0l0,0
									l0,0l0,0h0.1l0,0l0,0l0,0l0,0l0,0l0,0l0,0l0,0h0.1l0,0l0,0l0,0l0,0l0,0c0,0,0.1,0,0.1,0.1l0,0l0,0l0,0l0,0l0,0l0,0l0,0l0,0
									C81.4,12.4,81.4,12.4,81.5,12.4C81.4,12.4,81.4,12.4,81.5,12.4z"/>
							</g>
						</g>
					</g>
				</g>
				<g id="XMLID_462_">
					<g id="XMLID_463_">
						<g id="XMLID_464_">
							<g id="XMLID_465_">
								<path id="XMLID_466_" class="st14" d="M76.2,12.2L76.2,12.2L76.2,12.2L76.2,12.2c0.1,0,0.1,0,0.1,0l0,0c0,0,0,0,0.1,0l0,0
									l0,0l0,0c0,0,0,0,0.1,0l0,0l0,0l0,0l0,0c0,0,0,0,0.1,0c0,0,0,0,0.1,0c0,0,0,0,0.1,0l0,0l0,0l0,0l0,0l0,0l0,0l0,0l0,0l0,0
									l0,0l0,0c0,0,0,0,0.1,0c0,0,0,0,0.1,0l0,0l0,0l0,0l0,0c0,0,0,0,0.1,0c0,0,0,0,0.1,0l0,0l0,0l0,0h0.1l0,0l0,0l0,0
									c0,0,0-0.1,0.1-0.1V12c0,0,0,0,0-0.1l0,0l0,0l0,0h-0.1l0,0l0,0l0,0l0,0l0,0l0,0h-0.1l0,0c0,0,0,0-0.1,0l0,0l0,0l0,0
									c-0.1,0-0.1,0-0.2,0l0,0l0,0l0,0l0,0l0,0l0,0l0,0c0,0,0,0-0.1,0h-0.1l0,0c0,0,0,0-0.1,0l0,0l0,0l0,0c0,0-0.1,0-0.1,0.1l0,0
									l0,0l0,0l0,0l0,0l0,0l0,0l0,0C76.2,12,76.2,12.1,76.2,12.2C76.2,12.1,76.2,12.1,76.2,12.2z"/>
							</g>
						</g>
					</g>
				</g>
			</g>
		</g>
	</g>
	<g>
		<g id="XMLID_596_">
			<g id="XMLID_597_">
				<path id="XMLID_598_" class="st15" d="M76.4,7.5c1-3.3,4.6-5.5,8-5.9c3.5-0.4,7,0.5,10.4,1.4c3.4,0.9,7,1.8,10.4,1.2
					c5.2-0.9,10.1-4.9,15.3-4.1c3,0.5,5.6,2.7,8,4.4c2.5,1.7,5.6,3.3,8.6,2.6c2.5-0.6,4.3-2.7,6.5-4c2.6-1.5,5.9-1.7,8.6-0.5
					s4.8,4,4.9,7s-1.6,6.5-4.4,7.5c-3.2,1.1-6.4,0.6-9.7,1.3c-3.4,0.6-6,3.5-8.7,6c-2.6,2.4-6.2,4.6-9.5,3.4c-2.9-1-4.5-4.2-7.3-5.5
					c-3.2-1.4-6.9,0-10,1.7c-3.1,1.6-6.9,1.8-10.3,1.3c-3.4-0.5-6-3.3-9.1-4.9c-1.8-0.9-3.7-1.4-5.5-2.5c-2.2-1.4-3.7-3.6-5.1-5.8
					C76.5,10.5,75.7,9.3,76.4,7.5"/>
			</g>
		</g>
		<g id="XMLID_520_">
			<g id="XMLID_593_">
				<g id="XMLID_594_">
					<path id="XMLID_595_" class="st15" d="M76.2,8.9c0,0,5.7-3.6,7.4-0.5c1.9,3.4,4.9,1.8,4.9,1.8s1.9-7-2.6-7.2
						C81.6,2.9,76.9,3.7,76.2,8.9z"/>
				</g>
			</g>
		</g>
	</g>
	<path class="st0" d="M91,79.2c-0.2-0.2,0.1-0.3,0.6-0.4c-1.8-0.3-3.9-1.4-3.9-1.7c0-0.4,2.9,0.6,4.8,0.4c1.9-0.1,4.2,0,4.2-0.2
		c0-0.2-2.7,0-4.6,0.1c-1.9,0.1-9-3.9-3.4-2.2c5.6,1.6,11.9-1.6,10.4-2.5c-1.5-0.9-4.4-1.2-3.5-2c0.9-0.9,4.6,0.4,7.6,0.7
		c0.3,0,1.3,0.4,2.4,1c0.5,0.2,1.2,0.1,1.6-0.3l10.9-11l-6.3-9.7l10-7.7c0,0,8.8,10.3,8.8,18.4c0,3.7-16.6,13.4-24,16.9
		C99.4,82.3,92,80.1,91,79.2z"/>
	<g>
		<g id="XMLID_444_">
			<g id="XMLID_445_">
				<g id="XMLID_446_">
					<path id="XMLID_447_" class="st0" d="M32.7,37.5c-0.6-0.7-1.5-1.6-2.1-2.5c-0.7-0.9-1.4-1.7-2-2.6c-1.3-1.8-2.5-3.6-3.3-5.6
						v-0.1c-0.4-1-1.6-1.4-2.6-1c-0.9,0.4-1.3,1.3-1.1,2.2c0.6,2.5,1.5,4.7,2.6,7c0.5,1.1,1.1,2.1,1.7,3.2c0.6,1.1,1.2,2,1.9,3.2
						l0,0c1,1.5,2.9,1.8,4.4,0.9c1.5-1,1.8-2.9,0.9-4.4C32.9,37.8,32.8,37.7,32.7,37.5z"/>
				</g>
			</g>
		</g>
		<g id="XMLID_440_">
			<g id="XMLID_441_">
				<g id="XMLID_442_">
					<path id="XMLID_443_" class="st0" d="M35.8,38.3L34,28.9c-0.2-1.1-1.3-1.8-2.4-1.6c-1,0.2-1.7,1.1-1.7,2.1l0.4,9.4
						c0.1,1.5,1.4,2.7,2.9,2.7c1.5,0,2.7-1.4,2.7-2.9C35.8,38.5,35.8,38.4,35.8,38.3z"/>
				</g>
			</g>
		</g>
	</g>
	<g>
		<g id="XMLID_603_">
			<g id="XMLID_604_">
				<g id="XMLID_605_">
					<path id="XMLID_606_" class="st0" d="M98.9,74.5c-1.1,0-2.2-0.1-3.4-0.3c-1.2-0.1-2.4-0.3-3.4-0.5c-2.4-0.4-4.6-1-6.6-1.8h-0.1
						c-1.1-0.4-2.2,0.1-2.7,1.2c-0.3,1,0,1.9,0.9,2.5c2.2,1.4,4.7,2.5,7.1,3.4c1.2,0.4,2.5,0.9,3.7,1.3c1.3,0.3,2.5,0.7,3.9,1l0,0
						c1.8,0.4,3.6-0.7,4-2.6c0.4-1.8-0.7-3.6-2.6-4C99.4,74.5,99.2,74.5,98.9,74.5z"/>
				</g>
			</g>
		</g>
		<g id="XMLID_599_">
			<g id="XMLID_600_">
				<g id="XMLID_601_">
					<path id="XMLID_602_" class="st0" d="M101.8,72.8L93.6,67c-1-0.6-2.4-0.4-3,0.5c-0.6,0.9-0.5,2.1,0.3,2.9l7.3,6.9
						c1.2,1.1,3,1.1,4.2-0.1c1.1-1.2,1.1-3-0.1-4.2C102,72.9,101.8,72.8,101.8,72.8z"/>
				</g>
			</g>
		</g>
	</g>
</g>
</svg>
