<?xml version="1.0" encoding="utf-8"?>
<!-- Generator: Adobe Illustrator 22.1.0, SVG Export Plug-In . SVG Version: 6.00 Build 0)  -->
<svg version="1.1" id="Layer_1" xmlns="http://www.w3.org/2000/svg" xmlns:xlink="http://www.w3.org/1999/xlink" x="0px" y="0px"
	 viewBox="0 0 153 226.8" style="enable-background:new 0 0 153 226.8;" xml:space="preserve">
<style type="text/css">
	.st0{fill:#3EA9E8;}
	.st1{fill:#154AD0;}
	.st2{fill:#FFFFFF;}
	.st3{fill:#F2CDAC;}
	.st4{fill:#1A1B1D;}
	.st5{fill:#E1BA9E;}
</style>
<g>
	<g>
		<g>
			<g id="XMLID_833_">
				<polyline id="XMLID_1_" class="st0" points="56.9,219 56.9,218.5 50.8,217 63.7,128.8 21.7,115.1 24.2,216.3 				"/>
			</g>
			<g id="XMLID_831_">
				<path id="XMLID_832_" class="st0" d="M34.7,154l54.9-2.1c5.9-0.2,10.6-4.6,10.4-9.7l-2-40.7l-71.6,2.6L23.6,145
					C23.7,150.2,28.7,154.2,34.7,154z"/>
			</g>
			<g id="XMLID_829_">
				<polyline id="XMLID_2_" class="st0" points="111.3,214.2 105.4,103.2 63.5,130.1 84.9,218.9 84.8,215.2 				"/>
			</g>
		</g>
		<g id="XMLID_825_">
			<g id="XMLID_826_">
				<g id="XMLID_827_">
					<polygon id="XMLID_828_" class="st1" points="83.9,210.7 83.8,226.5 129.6,226.4 111.1,211.8 					"/>
				</g>
			</g>
		</g>
		<g id="XMLID_821_">
			<g id="XMLID_822_">
				<g id="XMLID_823_">
					<polygon id="XMLID_824_" class="st1" points="24.7,205.5 21.9,221.2 67.3,226.8 51.5,210.1 					"/>
				</g>
			</g>
		</g>
		<g id="XMLID_818_">
			<g id="XMLID_819_">
				<path id="XMLID_820_" class="st2" d="M22.6,140.4c0.1-0.1,0.1-0.1,0.4-0.1c0.1,0,0.1,0,0.3,0h0.4c0.1,0,0.3,0,0.4,0
					c0.1,0,0.1,0,0.3,0c0.3,0,0.6,0,0.9,0h0.4c0.1,0,0.3,0,0.4,0c0.1,0,0.1,0,0.3,0c0.3,0,0.5-0.1,0.9-0.1c0.3,0,0.5-0.1,0.6-0.1
					L28,140c0.1,0,0.1,0,0.3,0h0.1c0.3-0.1,0.4-0.1,0.6-0.2c0.3-0.1,0.5-0.2,0.8-0.2c0.3-0.1,0.5-0.2,0.8-0.3l0,0h0.1l0,0
					c0.1,0,0.1-0.1,0.3-0.1l0.5-0.2l0.1-0.1l0.3-0.1c0.1-0.1,0.3-0.1,0.3-0.2c0.1,0,0.1-0.1,0.3-0.2l0.1-0.1c0,0,0-0.1,0.1-0.1
					c0.3-0.1,0.4-0.3,0.6-0.4c0.1-0.1,0.4-0.3,0.5-0.4l0.3-0.2c0-0.1,0.1-0.1,0.1-0.2l0.1-0.1c0.1-0.1,0.3-0.3,0.4-0.5
					c0.1-0.2,0.3-0.4,0.4-0.5c0.1-0.2,0.3-0.4,0.4-0.7v-0.1c0-0.1,0-0.1,0.1-0.2c0-0.1,0.1-0.3,0.1-0.4c0.1-0.3,0.3-0.5,0.4-0.9
					c0-0.2,0-0.3,0.1-0.4c0-0.1,0-0.1,0-0.2c0-0.1,0.1-0.1,0.1-0.1c0.1-0.1,0.3-0.1,0.4-0.1c0.1,0,0.1,0.1,0.3,0.2
					c0,0.1,0.1,0.2,0,0.3c0,0.1,0,0.1,0,0.2c0,0.1,0,0.2-0.1,0.3c0,0.1-0.1,0.2-0.1,0.3c-0.1,0.3-0.3,0.7-0.4,0.9
					c0,0.1-0.1,0.2-0.1,0.3s-0.1,0.2-0.3,0.3l0,0l0,0c0,0.1-0.1,0.3-0.3,0.4c-0.1,0.1-0.1,0.3-0.3,0.4c-0.3,0.3-0.5,0.7-0.8,0.9
					c0,0-0.1,0.1-0.1,0.2c-0.1,0.1-0.3,0.3-0.4,0.4c0,0.1-0.1,0.1-0.3,0.2c-0.1,0-0.1,0.1-0.3,0.1l-0.4,0.3c-0.5,0.3-0.9,0.7-1.4,1
					c-0.1,0-0.1,0.1-0.3,0.1s-0.1,0.1-0.3,0.1c-0.1,0-0.1,0.1-0.3,0.1c-0.1,0-0.3,0.1-0.3,0.1l-0.4,0.1h-0.1c-0.1,0-0.3,0.1-0.3,0.1
					l-0.5,0.2c-0.4,0.1-0.8,0.3-1.1,0.3c-0.1,0-0.1,0-0.3,0.1c-0.3,0-0.4,0.1-0.6,0.1c-0.1,0-0.3,0-0.4,0.1c-0.1,0-0.1,0-0.3,0
					s-0.3,0.1-0.5,0.1c-0.6,0.1-1.3,0.1-1.9,0.1c-0.1,0-0.3,0-0.3,0c-0.1,0-0.1,0-0.3,0c-0.1,0-0.3,0-0.3,0c-0.1,0-0.3,0-0.4,0h-0.4
					c-0.1,0-0.3,0-0.3-0.1c-0.1,0-0.3,0-0.3,0l-0.1-0.1c0-0.1-0.1-0.1-0.1-0.2C22.4,140.4,22.4,140.4,22.6,140.4z"/>
			</g>
		</g>
		<g id="XMLID_815_">
			<g id="XMLID_816_">
				<path id="XMLID_817_" class="st2" d="M61.3,145.8c0-0.1,0.1-0.2,0.4-0.2c0.1,0,0.1,0,0.3,0h0.4c0.1,0,0.3,0,0.5,0
					c0.1,0,0.3,0,0.3,0c0.4,0,0.6-0.1,1-0.2c0.1,0,0.3-0.1,0.4-0.1s0.3-0.1,0.4-0.1c0.1,0,0.1-0.1,0.3-0.1c0.3-0.1,0.5-0.3,0.6-0.4
					c0.1-0.1,0.3-0.3,0.4-0.4c0-0.1,0.1-0.2,0.1-0.3s0.1-0.1,0.1-0.2v-0.1c0-0.2,0-0.4,0-0.7c0-0.2,0-0.4,0-0.8c0-0.3,0-0.5,0-0.9
					c0,0,0,0,0-0.1V141l0,0c0-0.1,0-0.2,0-0.2v-0.5V140v-0.3v-0.4c0-0.1,0-0.2,0-0.3v-0.2v-0.1c0-0.3,0-0.5,0-0.9c0-0.2,0-0.4,0-0.7
					v-0.3c0-0.1,0-0.2,0-0.3v-0.2c0-0.2-0.1-0.4-0.1-0.7s0-0.5,0-0.8c0-0.3,0-0.5,0-0.9c0-0.1,0-0.1,0-0.2c0-0.1,0-0.2,0-0.2V133
					c0-0.3,0-0.7,0-1c0-0.2,0-0.3,0-0.5c0-0.1,0-0.1,0-0.2c0-0.1,0-0.1,0.1-0.2c0-0.1,0.1-0.2,0.3-0.2c0.1,0,0.3,0.1,0.3,0.1
					c0.1,0.1,0.1,0.2,0.1,0.3s0,0.1,0,0.2c0,0.1,0,0.2,0,0.3c0,0.1,0,0.2,0,0.3c0,0.3,0,0.7,0,1c0,0.1,0,0.2,0,0.3s0,0.3,0,0.4l0,0
					l0,0c0,0.1,0,0.3,0,0.4v0.5c0,0.4,0,0.8,0,1.2c0,0.1,0,0.1,0,0.2c0,0.2,0,0.4,0,0.5c0,0.1,0,0.2,0,0.3c0,0.1,0,0.1,0,0.2v0.4
					c0,0.5,0,1.1,0.1,1.7c0,0.1,0,0.2,0,0.3s0,0.1,0,0.2c0,0.1,0,0.2,0,0.3c0,0.1,0,0.2,0,0.3v0.3v0.1c0,0.1,0,0.2,0,0.3
					c0,0.2,0,0.4,0,0.5c0,0.4,0,0.9-0.1,1.2c0,0.1,0,0.1-0.1,0.2c0,0.2-0.1,0.4-0.3,0.7c0,0.1-0.1,0.2-0.3,0.3
					c-0.1,0.1-0.1,0.1-0.3,0.2s-0.3,0.2-0.4,0.3c-0.6,0.4-1.3,0.7-2,0.8c-0.1,0-0.3,0-0.4,0c-0.1,0-0.3,0-0.3,0c-0.1,0-0.3,0-0.4,0
					c-0.1,0-0.3,0-0.4,0H62c-0.1,0-0.3,0-0.4,0c-0.1,0-0.3,0-0.4,0c0,0-0.1,0-0.1-0.1c-0.1-0.1-0.1-0.1-0.1-0.2
					C61.3,145.9,61.3,145.9,61.3,145.8z"/>
			</g>
		</g>
		<g id="XMLID_812_">
			<g id="XMLID_813_">
				<path id="XMLID_814_" class="st2" d="M25,201.3c0.1-0.1,0.3-0.1,0.5-0.1c0.1,0,0.3,0,0.4,0c0.1,0,0.4,0,0.5,0.1
					c0.3,0,0.4,0,0.6,0.1c0.1,0,0.3,0,0.4,0.1c0.4,0,0.9,0.1,1.3,0.1c0.1,0,0.4,0,0.5,0.1c0.1,0,0.4,0.1,0.5,0.1c0.1,0,0.3,0,0.4,0
					c0.4,0.1,0.8,0.1,1.1,0.2c0.4,0,0.6,0.1,1,0.1c0.1,0,0.4,0,0.5,0.1c0.1,0,0.3,0,0.4,0.1c0.1,0,0.1,0,0.3,0c0.3,0,0.6,0.1,1,0.1
					c0.4,0,0.8,0.1,1.1,0.2c0.4,0,0.8,0.1,1.1,0.2c0,0,0,0,0.1,0h0.1l0,0c0.1,0,0.3,0,0.4,0c0.3,0,0.5,0.1,0.8,0.1
					c0.1,0,0.1,0,0.3,0c0.1,0,0.3,0,0.4,0c0.1,0,0.4,0,0.5,0.1c0.1,0,0.3,0.1,0.5,0.1c0.1,0,0.1,0,0.3,0c0.1,0,0.1,0,0.3,0
					c0.4,0.1,0.8,0.1,1.1,0.2c0.4,0,0.6,0.1,1,0.1c0.1,0,0.4,0,0.5,0.1c0.1,0,0.3,0,0.4,0.1c0.1,0,0.1,0,0.3,0c0.3,0,0.6,0.1,1,0.1
					c0.4,0,0.8,0.1,1.1,0.2c0.4,0,0.8,0.1,1.1,0.2c0.1,0,0.1,0,0.3,0c0.1,0,0.3,0,0.4,0c0.3,0,0.5,0.1,0.8,0.1
					c0.5,0.1,0.9,0.2,1.4,0.2c0.3,0,0.5,0,0.8,0.1c0.1,0,0.3,0,0.3,0.1c0.1,0,0.1,0.1,0.3,0.1c0.1,0.1,0.3,0.2,0.1,0.3
					c0,0.1-0.1,0.1-0.3,0.2c-0.1,0-0.4,0-0.5,0s-0.1,0-0.3,0c-0.1,0-0.4,0-0.5-0.1c-0.1-0.1-0.4-0.1-0.5-0.1c-0.5,0-1-0.1-1.5-0.2
					c-0.1,0-0.4,0-0.5,0c-0.3,0-0.4-0.1-0.6-0.1l0,0l0,0c-0.3,0-0.5,0-0.6-0.1c-0.3,0-0.5-0.1-0.8-0.1c-0.5-0.1-1.1-0.1-1.6-0.2
					c-0.1,0-0.3,0-0.4,0c-0.3,0-0.5-0.1-0.9-0.1c-0.1,0-0.3,0-0.4-0.1c-0.1,0-0.3-0.1-0.4-0.1c-0.3,0-0.4,0-0.6-0.1
					c-0.8-0.1-1.5-0.2-2.4-0.3c-0.1,0-0.3,0-0.4-0.1c-0.1,0-0.3,0-0.4-0.1c-0.1,0-0.3,0-0.4,0c-0.1,0-0.3,0-0.5,0
					c-0.1,0-0.4,0-0.5-0.1h-0.1c-0.1,0-0.3,0-0.4-0.1c-0.3,0-0.5-0.1-0.8-0.1c-0.5-0.1-1.1-0.1-1.6-0.2c-0.1,0-0.3,0-0.4,0
					c-0.3,0-0.5-0.1-0.9-0.1c-0.1,0-0.3,0-0.4-0.1c-0.1,0-0.3-0.1-0.4-0.1c-0.3,0-0.4,0-0.6-0.1c-0.8-0.1-1.5-0.2-2.4-0.3
					c-0.1,0-0.3,0-0.4-0.1c-0.1,0-0.3,0-0.4-0.1c-0.1,0-0.3,0-0.4,0c-0.1,0-0.3,0-0.5,0c-0.1,0-0.4,0-0.5-0.1c-0.1,0-0.3,0-0.4-0.1
					c-0.1,0-0.3,0-0.4-0.1l-0.1-0.1C25,201.5,24.8,201.4,25,201.3C24.8,201.4,24.8,201.3,25,201.3z"/>
			</g>
		</g>
		<g id="XMLID_809_">
			<g id="XMLID_810_">
				<path id="XMLID_811_" class="st2" d="M84.9,206.4c0.1-0.1,0.1-0.2,0.5-0.2c0.1,0,0.3,0,0.4,0c0.1,0,0.4,0,0.5,0
					c0.3,0,0.4,0,0.6,0c0.1,0,0.3,0,0.4,0c0.4,0,0.9,0,1.3,0c0.1,0,0.4,0,0.5,0c0.1,0,0.4,0,0.5,0s0.3,0,0.4,0c0.4,0,0.8,0,1.1,0
					s0.6,0,1,0c0.1,0,0.4,0,0.5,0s0.3,0,0.4,0c0.1,0,0.1,0,0.3,0c0.4,0,0.6,0,1,0c0.4,0,0.8,0,1.1,0s0.8,0,1.1,0c0,0,0,0,0.1,0h0.1
					l0,0c0.1,0,0.3,0,0.4,0c0.3,0,0.5,0,0.8,0c0.1,0,0.1,0,0.3,0c0.1,0,0.3,0,0.4,0s0.4,0,0.5,0c0.1,0,0.4,0,0.5,0
					c0.1,0,0.1,0,0.3,0c0.1,0,0.1,0,0.3,0c0.4,0,0.8,0,1.1,0c0.4,0,0.6,0,1,0c0.1,0,0.4,0,0.5,0c0.1,0,0.3,0,0.4,0s0.1,0,0.3,0
					c0.4,0,0.6,0,1,0c0.4,0,0.8,0,1.1,0c0.4,0,0.8,0,1.1,0c0.1,0,0.1,0,0.3,0c0.1,0,0.3,0,0.4,0c0.3,0,0.5,0,0.8,0
					c0.5,0,1,0.1,1.4,0c0.3,0,0.5,0,0.8,0c0.1,0,0.3,0,0.3,0c0.1,0,0.3,0,0.3,0.1c0.1,0.1,0.3,0.1,0.3,0.2s-0.1,0.1-0.3,0.2
					c-0.1,0.1-0.3,0.1-0.5,0.1c-0.1,0-0.3,0-0.3,0c-0.1,0-0.4,0-0.5,0c-0.1,0-0.4,0-0.5,0c-0.5,0-1,0-1.5,0c-0.1,0-0.4,0-0.5,0
					c-0.3,0-0.4,0-0.6,0l0,0l0,0c-0.3,0-0.5,0-0.8,0c-0.3,0-0.5,0-0.8,0c-0.5,0-1.1,0-1.6,0c-0.1,0-0.3,0-0.4,0c-0.3,0-0.5,0-0.9,0
					c-0.1,0-0.3,0-0.4,0s-0.3,0-0.4,0c-0.3,0-0.4,0-0.6,0c-0.8,0-1.6,0-2.4,0c-0.1,0-0.3,0-0.4,0s-0.3,0-0.4,0s-0.3,0-0.4,0
					s-0.3,0-0.5,0c-0.1,0-0.4,0-0.5,0h-0.1c-0.1,0-0.3,0-0.5,0c-0.3,0-0.5,0-0.8,0c-0.5,0-1.1,0-1.6,0c-0.1,0-0.3,0-0.4,0
					c-0.3,0-0.5,0-0.9,0c-0.1,0-0.3,0-0.4,0c-0.1,0-0.3,0-0.4,0c-0.3,0-0.4,0-0.6,0c-0.8,0-1.6,0-2.4,0c-0.1,0-0.3,0-0.4,0
					c-0.1,0-0.3,0-0.4,0c-0.1,0-0.3,0-0.4,0c-0.1,0-0.3,0-0.5,0c-0.1,0-0.4,0-0.5,0c-0.1,0-0.3,0-0.4,0c-0.1,0-0.3,0-0.4,0
					c-0.1,0-0.1,0-0.1-0.1c-0.1-0.1-0.1-0.1-0.1-0.2C84.9,206.5,84.9,206.4,84.9,206.4z"/>
			</g>
		</g>
		<g id="XMLID_804_">
			<g id="XMLID_805_">
				<g id="XMLID_806_">
					<g id="XMLID_807_">
						<path id="XMLID_808_" class="st2" d="M126.1,223.5c-0.1-0.1-0.3-0.2-0.8-0.2c-0.1,0-0.4,0-0.5,0c-0.3,0-0.5,0-0.8,0
							c-0.4,0-0.6,0-1,0c-0.3,0-0.4,0-0.6,0c-0.6,0-1.4,0-2,0c-0.3,0-0.6,0-0.9,0c-0.3,0-0.6,0-0.9,0c-0.3,0-0.4,0-0.6,0
							c-0.6,0-1.3,0-1.9,0c-0.5,0-1,0-1.5,0c-0.3,0-0.5,0-0.8,0c-0.3,0-0.4,0-0.6,0c-0.1,0-0.3,0-0.4,0c-0.5,0-1,0-1.5,0
							c-0.6,0-1.1,0-1.8,0c-0.6,0-1.3,0-1.9,0h-0.1c-0.1,0-0.1,0-0.3,0l0,0c-0.1,0-0.4,0-0.6,0c-0.4,0-0.8,0-1.3,0
							c-0.1,0-0.3,0-0.4,0c-0.3,0-0.4,0-0.6,0c-0.3,0-0.6,0-0.9,0c-0.3,0-0.5,0-0.8,0c-0.1,0-0.3,0-0.4,0c-0.1,0-0.3,0-0.4,0
							c-0.6,0-1.3,0-1.9,0c-0.5,0-1,0-1.5,0c-0.3,0-0.5,0-0.8,0c-0.3,0-0.4,0-0.6,0c-0.1,0-0.3,0-0.4,0c-0.5,0-1,0-1.5,0
							c-0.6,0-1.1,0-1.8,0c-0.6,0-1.3,0-1.9,0c-0.1,0-0.3,0-0.5,0c-0.1,0-0.4,0-0.6,0c-0.4,0-0.8,0-1.3,0c-0.8,0-1.5,0.1-2.3,0
							c-0.5,0-0.9,0-1.3,0c-0.1,0-0.4,0-0.5,0s-0.4,0.1-0.5,0.1c-0.3,0.1-0.4,0.2-0.4,0.2c0,0.1,0.3,0.2,0.4,0.2
							c0.1,0.1,0.5,0.1,0.8,0.1c0.1,0,0.3,0,0.5,0s0.5,0,0.9,0c0.3,0,0.5,0,0.8,0c0.8,0,1.5,0,2.4,0c0.3,0,0.5,0,0.9,0
							c0.4,0,0.6,0,1,0c0,0,0,0,0.1,0c0,0,0,0,0.1,0c0.4,0,0.8,0,1.1,0c0.4,0,0.9,0,1.3,0c0.9,0,1.8,0,2.7,0c0.1,0,0.4,0,0.5,0
							c0.5,0,0.9,0,1.4,0c0.3,0,0.5,0,0.6,0c0.3,0,0.4,0,0.6,0c0.4,0,0.6,0,1,0c1.3,0,2.5,0,3.9,0c0.3,0,0.4,0,0.6,0
							c0.1,0,0.4,0,0.5,0c0.3,0,0.4,0,0.6,0c0.3,0,0.5,0,0.8,0c0.3,0,0.5,0,0.8,0c0.1,0,0.3,0,0.3,0c0.3,0,0.5,0,0.8,0
							c0.4,0,0.9,0,1.3,0c0.9,0,1.8,0,2.7,0c0.1,0,0.4,0,0.5,0c0.5,0,0.9,0,1.4,0c0.3,0,0.5,0,0.6,0c0.3,0,0.4,0,0.6,0
							c0.4,0,0.6,0,1,0c1.3,0,2.5,0,3.9,0c0.3,0,0.4,0,0.6,0c0.1,0,0.4,0,0.5,0c0.3,0,0.4,0,0.6,0c0.3,0,0.5,0,0.8,0
							c0.3,0,0.5,0,0.8,0c0.3,0,0.4,0,0.6,0c0.1,0,0.4,0,0.6,0c0.1,0,0.3-0.1,0.3-0.1c0.1-0.1,0.3-0.1,0.3-0.2
							C126.2,223.7,126.1,223.7,126.1,223.5z"/>
					</g>
				</g>
			</g>
		</g>
		<g id="XMLID_799_">
			<g id="XMLID_800_">
				<g id="XMLID_801_">
					<g id="XMLID_802_">
						<path id="XMLID_803_" class="st2" d="M94.1,223.8c0.1,0,0.3-0.1,0.3-0.2c0,0,0-0.1,0-0.2v-0.2c0-0.1,0-0.2,0-0.3s0-0.1,0-0.2
							c0-0.2,0-0.4-0.1-0.7v-0.3c0-0.1-0.1-0.2-0.1-0.2c0-0.1,0-0.1,0-0.2c-0.1-0.2-0.1-0.4-0.3-0.5c-0.1-0.1-0.1-0.3-0.3-0.4
							l-0.1-0.2l-0.1-0.1l-0.1-0.1c-0.1-0.1-0.1-0.3-0.3-0.4c-0.1-0.1-0.3-0.3-0.4-0.4c-0.1-0.1-0.3-0.3-0.5-0.4l0,0l0,0l0,0
							l-0.1-0.1l-0.4-0.2c0,0-0.1,0-0.1-0.1l-0.1-0.1c-0.1,0-0.1-0.1-0.3-0.1s-0.1-0.1-0.3-0.1c0,0-0.1,0-0.1-0.1c0,0-0.1,0-0.1-0.1
							c-0.3-0.1-0.4-0.2-0.6-0.2c-0.3,0-0.4-0.1-0.5-0.1l-0.3-0.1c-0.1,0-0.1,0-0.3,0h-0.1c-0.1,0-0.4-0.1-0.5-0.1
							c-0.3,0-0.4,0-0.6,0c-0.3,0-0.5,0-0.6,0H87c0,0-0.1,0-0.3,0s-0.3,0-0.5,0c-0.3,0-0.5,0.1-0.8,0.2c-0.1,0-0.3,0-0.5,0.1
							c0,0-0.1,0-0.1,0.1l-0.1,0.1c0,0.1,0,0.2,0,0.3s0.1,0.1,0.3,0.2c0.1,0,0.1,0,0.3,0h0.1c0.1,0,0.1,0,0.3,0c0.1,0,0.1,0,0.3-0.1
							c0.3,0,0.5-0.1,0.8-0.1c0.1,0,0.1,0,0.3,0c0.1,0,0.3,0,0.3,0l0,0l0,0c0.1,0,0.3,0,0.4,0h0.4c0.3,0,0.5,0,0.9,0.1h0.1
							c0.1,0,0.3,0.1,0.4,0.1c0,0,0.1,0,0.3,0h0.1c0.1,0,0.1,0.1,0.3,0.1c0.4,0.1,0.8,0.3,1,0.5c0,0,0.1,0,0.1,0.1
							c0,0,0.1,0,0.1,0.1l0.1,0.1l0.1,0.1l0.1,0.1l0,0l0.1,0.1l0.3,0.2c0.1,0.2,0.4,0.4,0.5,0.5c0,0,0,0.1,0.1,0.1
							c0,0.1,0.1,0.2,0.1,0.3c0,0,0,0.1,0.1,0.1l0.1,0.1c0,0.1,0,0.2,0.1,0.2c0.1,0.3,0.3,0.7,0.4,1c0,0,0,0.1,0,0.2v0.1
							c0,0,0,0.1,0,0.2c0,0.1,0,0.1,0,0.2v0.2c0,0.1,0,0.1,0,0.2c0,0,0,0.1,0,0.2c0,0,0,0.1,0.1,0.1
							C93.8,223.7,93.9,223.8,94.1,223.8C94,223.8,94,223.8,94.1,223.8z"/>
					</g>
				</g>
			</g>
		</g>
		<g id="XMLID_794_">
			<g id="XMLID_795_">
				<g id="XMLID_796_">
					<g id="XMLID_797_">
						<path id="XMLID_798_" class="st2" d="M116,216.7c0.1,0.1,0.3,0.1,0.5,0.1c0.1,0,0.3-0.1,0.4-0.1s0.3-0.1,0.5-0.2
							c0.1-0.1,0.4-0.1,0.5-0.2c0.1-0.1,0.3-0.1,0.4-0.2c0.4-0.2,0.8-0.4,1-0.7c0.1-0.1,0.3-0.2,0.4-0.3c0.1-0.1,0.3-0.2,0.4-0.4
							c0.1-0.1,0.3-0.1,0.3-0.2c0.3-0.3,0.5-0.5,0.8-0.9c0.1-0.2,0.4-0.5,0.5-0.8l0.3-0.4l0.1-0.3l0.1-0.2c0.1-0.3,0.3-0.5,0.3-0.9
							s0.1-0.7,0-1.1c0-0.4-0.1-0.8-0.4-1.1v-0.1l-0.1-0.1l0,0c0-0.1-0.1-0.2-0.3-0.3c-0.3-0.2-0.4-0.3-0.6-0.5
							c-0.1,0-0.1-0.1-0.3-0.1c-0.1,0-0.3-0.1-0.5-0.1c-0.3,0-0.5-0.1-0.6-0.1s-0.4,0-0.5,0.1c-0.1,0-0.3,0-0.3,0
							c-0.1,0-0.1,0-0.3,0c-0.4,0.1-0.9,0.3-1.1,0.5c-0.3,0.2-0.5,0.4-0.8,0.7c-0.1,0.1-0.3,0.2-0.4,0.3c-0.1,0.1-0.1,0.2-0.3,0.3
							l-0.1,0.2c-0.3,0.2-0.4,0.4-0.5,0.8c-0.1,0.3-0.4,0.7-0.4,1c-0.1,0.3-0.3,0.7-0.3,1.1c0,0.1,0,0.1,0,0.2c0,0.1,0,0.2,0,0.3
							c0,0.2,0,0.4,0,0.7c0,0.4,0.1,0.9,0.3,1.3c0,0.2,0.1,0.4,0.3,0.8c0,0.1,0.1,0.2,0.1,0.2c0.1,0.1,0.1,0.1,0.3,0.2
							c0.1,0.1,0.3,0.1,0.4,0s0.1-0.2,0.1-0.3c0-0.1,0-0.2-0.1-0.4c0-0.1,0-0.1-0.1-0.2c0-0.1-0.1-0.2-0.1-0.4
							c0-0.1-0.1-0.2-0.1-0.4c-0.1-0.4-0.1-0.8-0.1-1.2c0-0.1,0-0.3,0-0.4c0-0.1,0-0.3,0-0.4l0,0l0,0c0.1-0.1,0.1-0.4,0.1-0.5
							c0-0.2,0.1-0.4,0.3-0.5c0.3-0.4,0.5-0.8,0.8-1.2c0-0.1,0.1-0.1,0.3-0.2c0.1-0.2,0.4-0.3,0.5-0.4c0.1-0.1,0.1-0.1,0.3-0.2
							c0.1-0.1,0.1-0.1,0.3-0.2c0.1-0.1,0.4-0.1,0.5-0.2c0.6-0.3,1.4-0.4,1.9-0.2c0.1,0,0.1,0.1,0.3,0.1c0.1,0,0.1,0.1,0.3,0.1
							c0.1,0.1,0.1,0.1,0.3,0.2c0.1,0.1,0.1,0.2,0.3,0.3c0,0.1,0.1,0.2,0.1,0.3v0.1c0,0.1,0,0.2,0.1,0.3c0,0.2,0,0.4,0,0.5
							c0,0.4-0.1,0.9-0.4,1.3c0,0.1-0.1,0.2-0.1,0.2c-0.1,0.2-0.3,0.4-0.4,0.7c0,0.1-0.1,0.2-0.3,0.3c0,0.1-0.1,0.2-0.1,0.2
							l-0.4,0.4c-0.5,0.5-1,1-1.5,1.4c-0.1,0.1-0.1,0.1-0.3,0.2c-0.1,0-0.1,0.1-0.3,0.2c-0.1,0.1-0.3,0.1-0.4,0.2
							c-0.1,0.1-0.3,0.1-0.4,0.2l-0.4,0.2c-0.1,0-0.3,0.1-0.4,0.2c-0.1,0-0.3,0.1-0.4,0.1l-0.1,0.1c0,0.1-0.1,0.2,0,0.3
							C115.9,216.6,116,216.7,116,216.7z"/>
					</g>
				</g>
			</g>
		</g>
		<g id="XMLID_789_">
			<g id="XMLID_790_">
				<g id="XMLID_791_">
					<g id="XMLID_792_">
						<path id="XMLID_793_" class="st2" d="M116.4,216.5c0,0.1,0.1,0.2,0.4,0.3c0.1,0,0.3,0,0.4,0.1c0.1,0,0.4,0,0.5,0.1
							c0.3,0,0.4,0.1,0.6,0.1c0.1,0,0.3,0,0.4,0c0.5,0,0.9,0,1.3,0c0.1,0,0.4,0,0.5-0.1c0.1,0,0.4-0.1,0.5-0.1c0.1,0,0.3,0,0.4-0.1
							c0.4-0.1,0.9-0.2,1.1-0.3c0.3-0.1,0.6-0.2,0.9-0.4l0.5-0.2l0.4-0.2l0.3-0.1c0.3-0.1,0.5-0.3,0.8-0.5c0.3-0.2,0.5-0.5,0.8-0.9
							c0.3-0.3,0.4-0.8,0.4-1.1v-0.1v-0.1l0,0c0-0.1,0-0.2,0-0.3c0-0.2-0.1-0.5-0.3-0.8c0-0.1-0.1-0.1-0.1-0.2
							c-0.1-0.1-0.1-0.2-0.3-0.3c-0.1-0.1-0.3-0.3-0.5-0.4c-0.1-0.1-0.4-0.1-0.5-0.2c-0.1,0-0.1-0.1-0.3-0.1c-0.1,0-0.1-0.1-0.3-0.1
							c-0.5-0.1-0.9-0.2-1.3-0.1c-0.4,0-0.8,0-1,0.1c-0.1,0-0.4,0-0.5,0.1c-0.1,0-0.3,0.1-0.4,0.1l-0.3,0.1c-0.4,0.1-0.6,0.2-1,0.3
							s-0.6,0.3-1,0.5c-0.4,0.2-0.6,0.4-0.9,0.8c0,0.1-0.1,0.1-0.3,0.2c-0.1,0.1-0.1,0.2-0.3,0.2c-0.1,0.2-0.4,0.3-0.5,0.5
							c-0.3,0.3-0.5,0.8-0.6,1.2c-0.1,0.2-0.3,0.4-0.3,0.7c0,0.1,0,0.2,0,0.2c0,0.1,0,0.2,0,0.3s0.1,0.2,0.3,0.2
							c0.1,0,0.3-0.1,0.4-0.2c0.1-0.1,0.1-0.2,0.3-0.3c0-0.1,0-0.1,0.1-0.2c0-0.1,0.1-0.2,0.1-0.4c0-0.1,0.1-0.2,0.1-0.3
							c0.3-0.3,0.4-0.7,0.6-1c0.1-0.1,0.3-0.2,0.4-0.3c0.1-0.1,0.3-0.2,0.4-0.4l0,0l0,0c0.1-0.1,0.4-0.2,0.5-0.3
							c0.1-0.1,0.4-0.2,0.6-0.3c0.5-0.2,0.9-0.4,1.4-0.5c0.1,0,0.3,0,0.3-0.1c0.3,0,0.5-0.1,0.8-0.1c0.1,0,0.3,0,0.4,0s0.3,0,0.4,0
							s0.4,0,0.5,0.1c0.8,0.1,1.4,0.3,1.6,0.9c0,0.1,0.1,0.1,0.1,0.2c0,0.1,0.1,0.1,0.1,0.2s0,0.2,0,0.3c0,0.1,0,0.2,0,0.3
							s0,0.2-0.1,0.3v0.1c0,0.1-0.1,0.2-0.1,0.3c-0.1,0.2-0.3,0.3-0.4,0.4c-0.3,0.3-0.8,0.7-1.1,0.9c-0.1,0-0.1,0.1-0.3,0.1
							c-0.3,0.1-0.5,0.2-0.8,0.3c-0.1,0-0.3,0.1-0.4,0.1s-0.1,0.1-0.3,0.1l-0.5,0.1c-0.8,0.2-1.5,0.3-2.3,0.4c-0.1,0-0.3,0-0.4,0
							s-0.3,0-0.4,0s-0.3,0-0.4,0s-0.3,0-0.5,0H117c-0.1,0-0.3,0-0.4,0s-0.3,0-0.4,0s-0.1,0-0.3,0c-0.1,0-0.3,0.1-0.3,0.2
							C116.2,216.4,116.4,216.4,116.4,216.5z"/>
					</g>
				</g>
			</g>
		</g>
		<g id="XMLID_784_">
			<g id="XMLID_785_">
				<g id="XMLID_786_">
					<g id="XMLID_787_">
						<path id="XMLID_788_" class="st2" d="M113.5,216.6c0,0.1,0,0.2,0.1,0.2l0,0c0,0,0,0,0.1,0h0.1c0,0,0,0,0.1,0s0.1,0,0.3,0h0.1
							h0.1c0,0,0,0,0.1,0s0.1,0,0.3,0c0,0,0.1,0,0.3,0c0,0,0,0,0.1,0c0,0,0,0,0.1,0l0,0c0,0,0.1,0,0.3,0c0.1,0,0.1,0,0.3,0
							c0.1,0,0.1,0,0.3,0l0,0l0,0l0,0c0,0,0,0,0.1,0h0.1l0,0c0,0,0,0,0.1,0h0.1c0,0,0,0,0.1,0l0,0l0,0c0.1,0,0.1,0,0.3,0
							c0,0,0.1,0,0.3,0c0,0,0,0,0.1,0c0,0,0,0,0.1,0l0,0c0,0,0.1,0,0.3,0c0.1,0,0.1,0,0.3,0c0.1,0,0.1,0,0.3,0l0,0c0,0,0,0,0.1,0
							h0.1c0.1,0,0.1-0.1,0.3,0h0.1l0,0v-0.1c0-0.1,0-0.2,0-0.3s0-0.2-0.1-0.2c0-0.1-0.1-0.1-0.1-0.1l0,0c0,0,0,0-0.1,0
							c0,0,0,0-0.1,0s-0.3,0-0.3,0H118h-0.1l0,0l0,0h-0.1h-0.1c-0.1,0-0.3,0-0.4,0l0,0h-0.1c0,0,0,0-0.1,0l0,0h-0.1
							c-0.1,0-0.4,0-0.5,0c0,0,0,0-0.1,0l0,0c0,0,0,0-0.1,0c0,0,0,0-0.1,0c0,0,0,0-0.1,0l0,0c0,0,0,0-0.1,0h-0.1c-0.1,0-0.3,0-0.4,0
							l0,0h-0.1c0,0,0,0-0.1,0l0,0h-0.1c-0.1,0-0.4,0-0.5,0c0,0,0,0-0.1,0l0,0c0,0,0,0-0.1,0c0,0,0,0-0.1,0c0,0,0,0-0.1,0
							c0,0,0,0-0.1,0c0,0,0,0-0.1,0v0.1c0,0.1,0,0.1,0,0.2C113.3,216.5,113.5,216.5,113.5,216.6z"/>
					</g>
				</g>
			</g>
		</g>
		<g id="XMLID_779_">
			<g id="XMLID_780_">
				<g id="XMLID_781_">
					<g id="XMLID_782_">
						<path id="XMLID_783_" class="st2" d="M114.2,219.4c0,0.1,0,0.2,0.1,0.2c0,0,0,0,0.1,0h0.1h0.1c0,0,0,0,0.1,0s0.3,0,0.4,0h0.1
							h0.1h0.1c0.1,0,0.3,0,0.3,0c0.1,0,0.1,0,0.3,0h0.1c0,0,0,0,0.1,0l0,0c0.1,0,0.1,0,0.3,0c0.1,0,0.1,0,0.3,0c0.1,0,0.3,0,0.3,0
							l0,0l0,0l0,0c0,0,0,0,0.1,0c0,0,0.1,0,0.3,0l0,0c0,0,0,0,0.1,0h0.1h0.1l0,0l0,0c0.1,0,0.3,0,0.3,0c0.1,0,0.1,0,0.3,0h0.1
							c0,0,0,0,0.1,0l0,0c0.1,0,0.1,0,0.3,0c0.1,0,0.1,0,0.3,0c0.1,0,0.3,0,0.3,0s0,0,0.1,0c0,0,0,0,0.1,0c0,0,0.1,0,0.3,0
							c0.1,0,0.3-0.1,0.4,0c0.1,0,0.1,0,0.3,0c0,0,0,0,0.1,0v-0.1c0-0.1,0-0.2,0-0.3s0-0.2-0.1-0.2c0-0.1-0.1-0.1-0.1-0.1s0,0-0.1,0
							h-0.1H120c-0.1,0-0.3,0-0.4,0h-0.1h-0.1l0,0l0,0h-0.1c0,0-0.1,0-0.3,0c-0.1,0-0.3,0-0.4,0c0,0,0,0-0.1,0s-0.1,0-0.3,0h-0.1
							c0,0,0,0-0.1,0h-0.1c-0.3,0-0.4,0-0.6,0c0,0,0,0-0.1,0c0,0,0,0-0.1,0c0,0,0,0-0.1,0h-0.1h-0.1l0,0h-0.1c0,0-0.1,0-0.3,0
							c-0.1,0-0.3,0-0.4,0c0,0,0,0-0.1,0s-0.1,0-0.3,0h-0.1c0,0,0,0-0.1,0h-0.1c-0.3,0-0.4,0-0.6,0c0,0,0,0-0.1,0c0,0,0,0-0.1,0
							c0,0,0,0-0.1,0H114h-0.1c0,0,0,0-0.1,0c0,0,0,0-0.1,0v0.1c0,0.1,0,0.1,0,0.2C114.2,219.3,114.2,219.4,114.2,219.4z"/>
					</g>
				</g>
			</g>
		</g>
		<g id="XMLID_774_">
			<g id="XMLID_775_">
				<g id="XMLID_776_">
					<g id="XMLID_777_">
						<path id="XMLID_778_" class="st2" d="M64.2,223.7c-0.1-0.1-0.3-0.2-0.6-0.3c-0.1,0-0.4-0.1-0.5-0.1c-0.3,0-0.5-0.1-0.8-0.1
							c-0.4,0-0.6-0.1-1-0.1c-0.3,0-0.4,0-0.6-0.1c-0.6-0.1-1.4-0.2-2-0.3c-0.3,0-0.6-0.1-0.9-0.1s-0.6,0-0.9-0.1
							c-0.3,0-0.4-0.1-0.6-0.1c-0.6,0-1.3-0.2-1.9-0.2c-0.5,0-1-0.1-1.5-0.2c-0.3,0-0.5-0.1-0.8-0.1c-0.3,0-0.4,0-0.6-0.1
							c-0.1,0-0.3,0-0.4,0c-0.5-0.1-1-0.2-1.5-0.2c-0.6-0.1-1.1-0.1-1.8-0.2c-0.6-0.1-1.3-0.2-1.9-0.2h-0.1c-0.1,0-0.1,0-0.3,0l0,0
							c-0.1,0-0.4,0-0.6-0.1c-0.4,0-0.8-0.1-1.3-0.1c-0.1,0-0.3,0-0.4,0c-0.3,0-0.4,0-0.6-0.1c-0.3,0-0.6-0.1-0.9-0.1
							c-0.3,0-0.5,0-0.8-0.1c-0.1,0-0.3,0-0.4,0c-0.1,0-0.3,0-0.4,0c-0.6,0-1.3-0.2-1.9-0.2c-0.5,0-1-0.1-1.5-0.2
							c-0.3,0-0.5-0.1-0.8-0.1c-0.3,0-0.4,0-0.6-0.1c-0.1,0-0.3,0-0.4,0c-0.5-0.1-1-0.2-1.5-0.2c-0.6-0.1-1.1-0.1-1.8-0.2
							s-1.3-0.2-1.9-0.2c-0.1,0-0.3,0-0.5-0.1c-0.1,0-0.4,0-0.6-0.1c-0.4,0-0.8-0.1-1.3-0.1c-0.8-0.1-1.5-0.1-2.3-0.2
							c-0.4-0.1-0.9-0.1-1.3-0.2c-0.1,0-0.4,0-0.5,0c-0.1,0-0.4,0-0.5,0c-0.3,0-0.4,0.1-0.4,0.2c0,0.1,0.1,0.2,0.4,0.3
							c0.1,0.1,0.5,0.2,0.8,0.2c0.1,0,0.3,0,0.5,0.1c0.3,0,0.5,0.1,0.9,0.1c0.3,0,0.5,0,0.8,0.1c0.8,0.1,1.5,0.2,2.4,0.3
							c0.3,0,0.5,0.1,0.9,0.1c0.4,0,0.6,0.1,1,0.1c0,0,0,0,0.1,0c0,0,0,0,0.1,0c0.3,0.1,0.8,0.1,1.1,0.2c0.4,0,0.9,0.1,1.3,0.1
							c0.9,0.1,1.8,0.2,2.7,0.3c0.1,0,0.4,0,0.5,0.1c0.5,0.1,0.9,0.1,1.4,0.2c0.3,0,0.5,0.1,0.6,0.1c0.3,0,0.4,0,0.6,0
							c0.4,0,0.6,0.1,1,0.1c1.3,0.1,2.5,0.3,3.8,0.4c0.3,0,0.4,0,0.6,0.1c0.1,0,0.4,0,0.5,0c0.3,0,0.4,0.1,0.6,0.1
							c0.3,0,0.5,0.1,0.8,0.1c0.3,0,0.5,0.1,0.8,0.1c0.1,0,0.3,0,0.3,0c0.3,0,0.5,0.1,0.8,0.1c0.4,0,0.9,0.1,1.3,0.1
							c0.9,0.1,1.8,0.2,2.7,0.3c0.1,0,0.4,0,0.5,0.1c0.5,0.1,0.9,0.1,1.4,0.2c0.3,0,0.5,0.1,0.6,0.1c0.3,0,0.4,0,0.6,0
							c0.4,0,0.6,0.1,1,0.1c1.3,0.1,2.5,0.3,3.8,0.4c0.3,0,0.4,0,0.6,0.1c0.1,0,0.4,0,0.5,0c0.3,0,0.4,0.1,0.6,0.1
							c0.3,0,0.5,0.1,0.8,0.1s0.5,0.1,0.8,0.1c0.3,0,0.4,0,0.6,0c0.1,0,0.4,0.1,0.6,0c0.1,0,0.3,0,0.3,0c0.1,0,0.3-0.1,0.4-0.2
							C64.4,223.8,64.4,223.7,64.2,223.7z"/>
					</g>
				</g>
			</g>
		</g>
		<g id="XMLID_769_">
			<g id="XMLID_770_">
				<g id="XMLID_771_">
					<g id="XMLID_772_">
						<path id="XMLID_773_" class="st2" d="M32.7,219.7c0.1,0,0.3,0,0.3-0.1v-0.1v-0.2c0-0.1,0.1-0.2,0-0.3c0-0.1,0-0.1,0-0.2
							c0-0.2,0-0.4,0-0.7v-0.3c0-0.1,0-0.2,0-0.3s0-0.1,0-0.2c-0.1-0.2,0-0.4-0.1-0.5c0-0.1-0.1-0.3-0.1-0.4l-0.1-0.2
							c0-0.1-0.1-0.1-0.1-0.2v-0.1c0-0.1-0.1-0.3-0.3-0.4c-0.1-0.1-0.3-0.3-0.4-0.4c-0.1-0.1-0.3-0.3-0.4-0.4l0,0l0,0l0,0l-0.1-0.1
							L31,214c0,0-0.1,0-0.1-0.1l-0.1-0.1c-0.1-0.1-0.1-0.1-0.3-0.2c-0.1,0-0.1-0.1-0.3-0.1c0,0-0.1,0-0.1-0.1c0-0.1,0,0-0.1-0.1
							c-0.3-0.1-0.4-0.2-0.6-0.3c-0.1-0.1-0.4-0.1-0.5-0.2l-0.3-0.1c-0.1,0-0.1,0-0.3,0h-0.1c-0.1-0.1-0.4-0.1-0.5-0.2
							c-0.3,0-0.4-0.1-0.6-0.1c-0.3,0-0.5-0.1-0.6-0.1h-0.1c0,0-0.1,0-0.3,0c-0.1,0-0.3,0-0.5,0c-0.3,0-0.5,0.1-0.9,0.1
							c-0.1,0-0.3,0-0.5,0h-0.1l-0.1,0.1c-0.1,0.1-0.1,0.2,0,0.3c0,0.1,0.1,0.1,0.3,0.2c0.1,0.1,0.1,0.1,0.3,0.1h0.1
							c0.1,0,0.1,0,0.3,0c0.1,0,0.1,0,0.3,0c0.3,0,0.5,0,0.8,0c0.1,0,0.1,0,0.3,0c0.1,0,0.3,0,0.3,0l0,0l0,0c0.1,0,0.3,0,0.4,0.1
							l0.4,0.1c0.3,0,0.5,0.1,0.8,0.2H28c0.1,0,0.3,0.1,0.4,0.1l0.1,0.1h0.1c0.1,0,0.1,0.1,0.3,0.1c0.4,0.2,0.6,0.4,1,0.7l0.1,0.1
							l0.1,0.1l0.1,0.1l0.1,0.1c0,0,0.1,0.1,0.1,0.2l0,0l0.1,0.1l0.3,0.3c0.1,0.2,0.3,0.4,0.4,0.7v0.1c0,0.1,0.1,0.2,0.1,0.3
							c0,0,0,0.1,0,0.2c0,0,0,0.1,0.1,0.1c0,0.1,0,0.2,0,0.2c0.1,0.3,0.1,0.7,0.1,1.1c0,0,0,0.1,0,0.2c0,0.1,0,0.1,0,0.1
							s0,0.1,0,0.2s0,0.1,0,0.2v0.2c0,0.1,0,0.1,0,0.2c0,0.1,0,0.1,0,0.2c0,0,0,0.1,0.1,0.1c0,0.1,0.1,0.1,0.3,0.1
							C32.5,219.7,32.5,219.7,32.7,219.7z"/>
					</g>
				</g>
			</g>
		</g>
		<g id="XMLID_764_">
			<g id="XMLID_765_">
				<g id="XMLID_766_">
					<g id="XMLID_767_">
						<path id="XMLID_768_" class="st2" d="M55.5,215.5c0.1,0.1,0.3,0.1,0.5,0.1c0.1,0,0.3,0,0.4-0.1c0.1,0,0.4-0.1,0.5-0.1
							c0.3,0,0.4-0.1,0.6-0.2c0.1,0,0.3-0.1,0.4-0.1c0.4-0.1,0.8-0.3,1.1-0.5c0.1-0.1,0.4-0.2,0.5-0.3c0.1-0.1,0.3-0.2,0.5-0.3
							c0.1-0.1,0.3-0.1,0.4-0.2c0.3-0.2,0.6-0.4,0.9-0.8c0.3-0.2,0.4-0.4,0.6-0.8l0.3-0.4l0.3-0.3l0.1-0.2c0.1-0.2,0.4-0.5,0.4-0.8
							c0.1-0.3,0.3-0.7,0.3-1c0-0.4,0-0.8-0.3-1.2v-0.1V208l0,0c0-0.1-0.1-0.2-0.3-0.3c-0.1-0.2-0.4-0.4-0.6-0.5
							c-0.1,0-0.1-0.1-0.3-0.1c-0.1-0.1-0.3-0.1-0.4-0.2c-0.3-0.1-0.4-0.1-0.6-0.1c-0.1,0-0.4,0-0.5,0c-0.1,0-0.3,0-0.3,0
							c-0.1,0-0.1,0-0.3,0c-0.5,0.1-0.9,0.2-1.3,0.4c-0.4,0.1-0.6,0.3-0.9,0.5c-0.1,0.1-0.3,0.2-0.4,0.3c-0.1,0.1-0.3,0.2-0.3,0.2
							l-0.3,0.2c-0.3,0.2-0.5,0.4-0.6,0.7c-0.3,0.3-0.4,0.5-0.6,0.9c-0.1,0.3-0.4,0.7-0.5,1c0,0.1,0,0.1-0.1,0.2
							c0,0.1,0,0.2-0.1,0.3c0,0.2-0.1,0.4-0.1,0.7c0,0.4,0,0.9,0,1.3c0,0.2,0,0.4,0.1,0.8c0,0.1,0,0.2,0.1,0.2
							c0,0.1,0.1,0.1,0.3,0.2c0.1,0.1,0.3,0.1,0.4,0.1c0.1,0,0.1-0.2,0.3-0.3c0-0.1,0-0.2,0-0.4c0-0.1,0-0.1,0-0.2
							c0-0.1,0-0.3,0-0.4s0-0.2,0-0.4c0-0.4,0-0.8,0-1.2c0-0.1,0.1-0.3,0.1-0.4c0-0.1,0.1-0.3,0.1-0.4l0,0l0,0
							c0.1-0.1,0.1-0.3,0.3-0.5c0.1-0.2,0.3-0.4,0.4-0.5c0.3-0.4,0.5-0.8,0.9-1.1c0-0.1,0.1-0.1,0.3-0.2c0.3-0.1,0.4-0.3,0.6-0.4
							c0.1,0,0.3-0.1,0.4-0.2c0.1,0,0.1-0.1,0.3-0.1c0.1-0.1,0.4-0.1,0.5-0.1c0.6-0.2,1.4-0.2,2,0.1c0.1,0,0.1,0.1,0.3,0.1
							c0,0,0.1,0.1,0.3,0.1c0,0.1,0.1,0.1,0.1,0.2c0,0.1,0.1,0.2,0.1,0.3s0.1,0.2,0.1,0.3v0.1c0,0.1,0,0.2,0,0.3c0,0.2,0,0.4,0,0.5
							c-0.1,0.4-0.3,0.9-0.5,1.2c0,0.1-0.1,0.1-0.1,0.2c-0.1,0.2-0.3,0.4-0.5,0.5c-0.1,0.1-0.1,0.2-0.3,0.3c0,0.1-0.1,0.1-0.3,0.2
							l-0.4,0.3c-0.5,0.4-1.1,0.9-1.8,1.2c-0.1,0-0.3,0.1-0.4,0.2c-0.1,0-0.1,0.1-0.3,0.1c-0.1,0-0.3,0.1-0.4,0.1
							c-0.1,0-0.3,0.1-0.4,0.1l-0.5,0.1c-0.1,0-0.3,0.1-0.4,0.1c-0.1,0-0.3,0-0.4,0.1l-0.1,0.1c-0.1,0.1-0.1,0.2-0.1,0.2
							C55.4,215.4,55.5,215.5,55.5,215.5z"/>
					</g>
				</g>
			</g>
		</g>
		<g id="XMLID_759_">
			<g id="XMLID_760_">
				<g id="XMLID_761_">
					<g id="XMLID_762_">
						<path id="XMLID_763_" class="st2" d="M55.9,215.4c0,0.1,0.1,0.2,0.4,0.3c0.1,0,0.3,0.1,0.4,0.1c0.1,0,0.4,0.1,0.5,0.1
							c0.3,0,0.4,0.1,0.6,0.1c0.1,0,0.3,0,0.4,0c0.4,0.1,0.9,0.1,1.3,0.1c0.1,0,0.4,0,0.6,0s0.4,0,0.6,0c0.1,0,0.3,0,0.4,0
							c0.4-0.1,0.9-0.1,1.3-0.2c0.4-0.1,0.6-0.2,1-0.2l0.5-0.1l0.4-0.1l0.3-0.1c0.3-0.1,0.6-0.2,0.9-0.4c0.4-0.2,0.6-0.4,0.9-0.8
							c0.3-0.3,0.5-0.7,0.6-1v-0.1V213l0,0c0-0.1,0-0.2,0-0.3c0-0.2,0-0.5-0.1-0.8c0-0.1,0-0.2-0.1-0.2c0-0.1-0.1-0.2-0.3-0.3
							c-0.1-0.1-0.3-0.3-0.4-0.4c-0.1-0.1-0.3-0.2-0.5-0.3c-0.1,0-0.1-0.1-0.3-0.1s-0.1-0.1-0.3-0.1c-0.4-0.1-0.9-0.3-1.3-0.3
							s-0.8,0-1,0c-0.1,0-0.4,0-0.5,0s-0.3,0-0.4,0h-0.3c-0.4,0-0.6,0.1-1,0.2c-0.4,0.1-0.8,0.2-1,0.4c-0.4,0.2-0.8,0.3-1,0.5
							c-0.1,0.1-0.1,0.1-0.3,0.1c-0.1,0-0.3,0.1-0.3,0.2c-0.3,0.1-0.4,0.3-0.5,0.4c-0.4,0.3-0.5,0.8-0.9,1.1
							c-0.1,0.2-0.3,0.4-0.4,0.7c0,0.1-0.1,0.2-0.1,0.2c0,0.1,0,0.2,0,0.3c0,0.2,0.1,0.2,0.3,0.2c0.1,0,0.3,0,0.4-0.1
							c0.1-0.1,0.3-0.2,0.3-0.3c0-0.1,0.1-0.1,0.1-0.2c0-0.1,0.1-0.2,0.3-0.3c0-0.1,0.1-0.2,0.3-0.3c0.3-0.3,0.5-0.7,0.9-0.9
							c0.1-0.1,0.3-0.2,0.4-0.3c0.1-0.1,0.3-0.2,0.4-0.3l0,0l0,0c0.1,0,0.4-0.2,0.5-0.3c0.3-0.1,0.5-0.2,0.6-0.3
							c0.5-0.2,1-0.3,1.5-0.4c0.1,0,0.3,0,0.3,0c0.3,0,0.5,0,0.8,0c0.1,0,0.3,0,0.4,0c0.1,0,0.3,0,0.4,0c0.1,0,0.4,0.1,0.5,0.1
							c0.6,0.2,1.3,0.5,1.5,1.1c0,0.1,0,0.2,0.1,0.2c0,0.1,0,0.1,0,0.2c0,0.1,0,0.2,0,0.3c0,0.1,0,0.2-0.1,0.3
							c0,0.1-0.1,0.2-0.1,0.3v0.1c0,0.1-0.1,0.2-0.3,0.3c-0.1,0.1-0.3,0.3-0.5,0.4c-0.4,0.3-0.8,0.5-1.3,0.8c-0.1,0-0.1,0.1-0.3,0.1
							c-0.3,0.1-0.5,0.1-0.8,0.2c-0.1,0-0.3,0.1-0.4,0.1c-0.1,0-0.3,0.1-0.4,0.1l-0.5,0.1c-0.8,0.1-1.5,0.1-2.3,0.1
							c-0.1,0-0.3,0-0.4,0c-0.1,0-0.3,0-0.4,0c-0.1,0-0.3,0-0.4-0.1c-0.1,0-0.3-0.1-0.4-0.1l-0.5-0.1c-0.1,0-0.3,0-0.4-0.1
							c-0.1,0-0.3-0.1-0.4-0.1c-0.1,0-0.1,0-0.3,0c-0.1,0-0.3,0.1-0.3,0.1C55.9,215.3,55.9,215.3,55.9,215.4z"/>
					</g>
				</g>
			</g>
		</g>
		<g id="XMLID_754_">
			<g id="XMLID_755_">
				<g id="XMLID_756_">
					<g id="XMLID_757_">
						<path id="XMLID_758_" class="st2" d="M50.2,214.7c0,0.1,0,0.2,0.1,0.2l0,0c0,0,0,0,0.1,0h0.1c0,0,0,0,0.1,0c0.1,0,0.1,0,0.3,0
							h0.1h0.1c0,0,0,0,0.1,0s0.1,0,0.3,0c0,0,0.1,0,0.3,0c0,0,0,0,0.1,0c0,0,0,0,0.1,0l0,0h0.1c0.1,0,0.1,0,0.3,0
							c0.1,0,0.1,0,0.3,0l0,0l0,0l0,0c0,0,0,0,0.1,0H53l0,0c0,0,0,0,0.1,0h0.1c0,0,0,0,0.1,0l0,0l0,0c0.1,0,0.1,0,0.3,0
							c0,0,0.1,0,0.3,0c0,0,0,0,0.1,0c0,0,0,0,0.1,0l0,0h0.1c0.1,0,0.1,0,0.3,0c0.1,0,0.1,0,0.3,0l0,0c0,0,0,0,0.1,0H55
							c0.1,0,0.3,0,0.3,0h0.1l0,0v-0.1c0-0.1,0-0.1,0-0.2c0-0.1,0-0.2,0-0.2c0-0.1,0-0.1-0.1-0.1l0,0c0,0,0,0-0.1,0c0,0,0,0-0.1,0
							s-0.3,0-0.3,0s0,0-0.1,0h-0.1l0,0l0,0h-0.1h-0.1c-0.1,0-0.3,0-0.4,0l0,0h-0.1c0,0,0,0-0.1,0c0,0,0,0-0.1,0h-0.1
							c-0.1,0-0.4,0-0.5,0c0,0,0,0-0.1,0l0,0c0,0,0,0-0.1,0c0,0,0,0-0.1,0c0,0,0,0-0.1,0l0,0c0,0,0,0-0.1,0h-0.1c-0.1,0-0.3,0-0.4,0
							l0,0h-0.1c0,0,0,0-0.1,0c0,0,0,0-0.1,0h-0.1c-0.1,0-0.4,0-0.5,0c0,0,0,0-0.1,0l0,0c0,0,0,0-0.1,0c0,0,0,0-0.1,0c0,0,0,0-0.1,0
							c0,0,0,0-0.1,0c0,0,0,0-0.1,0c0,0,0,0,0,0.1c0,0.1,0,0.1,0,0.2C50.2,214.6,50.2,214.6,50.2,214.7z"/>
					</g>
				</g>
			</g>
		</g>
		<g id="XMLID_749_">
			<g id="XMLID_750_">
				<g id="XMLID_751_">
					<g id="XMLID_752_">
						<path id="XMLID_753_" class="st2" d="M53.2,218c0,0.1,0,0.2,0.1,0.2c0,0,0,0,0.1,0h0.1h0.1c0,0,0,0,0.1,0c0.1,0,0.3,0,0.4,0
							h0.1h0.1c0,0,0,0,0.1,0c0.1,0,0.3,0,0.3,0c0.1,0,0.1,0,0.3,0h0.1c0,0,0,0,0.1,0l0,0c0.1,0,0.1,0,0.3,0s0.1,0,0.3,0
							c0.1,0,0.3,0,0.3,0l0,0l0,0l0,0c0,0,0,0,0.1,0c0,0,0.1,0,0.3,0l0,0c0,0,0,0,0.1,0h0.1h0.1l0,0l0,0c0.1,0,0.3,0,0.3,0
							c0.1,0,0.1,0,0.3,0h0.1c0,0,0,0,0.1,0l0,0c0.1,0,0.1,0,0.3,0c0.1,0,0.1,0,0.3,0s0.3,0,0.3,0l0,0c0,0,0,0,0.1,0
							c0,0,0.1,0,0.3,0c0.1,0,0.3,0,0.4,0c0,0,0.1,0,0.3,0c0,0,0,0,0.1,0c0,0,0,0,0.1-0.1c0-0.1,0.1-0.1,0.1-0.2c0-0.1,0-0.2,0-0.2
							c0-0.1,0-0.1-0.1-0.1c0,0,0,0-0.1,0h-0.1h-0.1c-0.1,0-0.3,0-0.4,0h-0.1h-0.1l0,0l0,0h-0.1c0,0-0.1,0-0.3,0c-0.1,0-0.3,0-0.4,0
							c0,0,0,0-0.1,0c-0.1,0-0.1,0-0.3,0h-0.1c0,0,0,0-0.1,0h-0.1c-0.3,0-0.4,0-0.6,0c0,0,0,0-0.1,0c0,0,0,0-0.1,0c0,0,0,0-0.1,0H56
							h-0.1l0,0h-0.1c0,0-0.1,0-0.3,0c-0.1,0-0.3,0-0.4,0c0,0,0,0-0.1,0c-0.1,0-0.1,0-0.3,0h-0.1c0,0,0,0-0.1,0h-0.1
							c-0.3,0-0.4,0-0.6,0c0,0,0,0-0.1,0c0,0,0,0-0.1,0c0,0,0,0-0.1,0h-0.1h-0.1c0,0,0,0-0.1,0c0,0,0,0-0.1,0c0,0,0,0,0,0.1
							c0,0.1,0,0.1-0.1,0.2C53.2,217.9,53.2,217.9,53.2,218z"/>
					</g>
				</g>
			</g>
		</g>
	</g>
	<g id="XMLID_718_">
		<g id="XMLID_719_">
			<path id="XMLID_720_" class="st0" d="M68.9,59.2c-6.8,1.3-13.5-2.4-15-8.1c-1.5-5.9,2.8-11.6,9.5-12.9l28-5.4L96,52.3L69.7,59
				C69.4,59.1,69.1,59.1,68.9,59.2z"/>
		</g>
	</g>
	<g id="XMLID_712_">
		<path id="XMLID_713_" class="st1" d="M105.4,103.2c0,0-9.6-35.7-15-56.5c-4.3-16.3-20.8-9.3-42.2-5.6C27,44.8,17.3,53.3,18.5,68.7
			c1.1,15.3,5.2,54.6,5.2,54.6s12.8,1.6,42.2-2.5C95.2,116.8,105.4,103.2,105.4,103.2z"/>
	</g>
	<g id="XMLID_675_">
		<g id="XMLID_709_">
			<g id="XMLID_710_">
				<path id="XMLID_711_" class="st3" d="M56.7,46.7c4.2-0.4,7.1-3.7,6.6-7.3l-1.8-11.5c-0.5-3.6-4.3-6.1-8.5-5.6
					c-4.2,0.4-7.1,3.7-6.6,7.3l1.8,11.6C48.7,44.6,52.5,47.3,56.7,46.7z"/>
			</g>
		</g>
		<g id="XMLID_706_">
			<g id="XMLID_707_">
				<path id="XMLID_708_" class="st4" d="M63.2,39.4l-1.8-11.5c-0.5-3.6-4.3-6.1-8.5-5.6c-4.2,0.4-7.1,3.7-6.6,7.3l0,0l6.1,6.8
					L63.2,39.4z"/>
			</g>
		</g>
		<g id="XMLID_676_">
			<g id="XMLID_703_">
				<g id="XMLID_704_">
					<path id="XMLID_705_" class="st3" d="M59.6,37.3c4-0.7,8.3-3.1,10.4-6.3c1.9-2.9,0.9-6.1-0.3-9.1c-1.3-2.9-2.8-6.2-5.4-8.5
						c-2.8-2.2-6.6-3.3-10.4-2.6c-6.4,1-10.7,6.4-9.5,11.8l1.4,6.4C47.1,34.7,53.1,38.2,59.6,37.3z"/>
				</g>
			</g>
			<g id="XMLID_700_">
				<g id="XMLID_701_">
					<path id="XMLID_702_" class="st3" d="M48.2,27.9c-0.6,0.3-1.3,0.4-2,0.5c-0.3,0-0.5,0.1-0.8,0.2c-0.1,0.1-0.4,0.2-0.5,0.3
						c-0.3,0.3-0.4,0.1-0.5-0.5c0-0.1,1.4,0,1.6,0c0.5,0,0.9-0.1,1.4-0.3c0.1,0,0.4-0.1,0.5-0.1c0.6-0.3,0.6-0.1,0,0.4
						c0-2.1,3.9-2.1,3.8,0c0,2-2.3,2.6-4.2,3c-1.6,0.3-3.7,0.5-5.2-0.3c-1.8-0.8-1.8-2.7-0.6-4c0.5-0.5,1.1-1.1,1.9-1.4
						c0.8-0.4,1.8-0.3,2.5-0.7C48.4,24.1,50.3,26.9,48.2,27.9L48.2,27.9z"/>
				</g>
			</g>
			<g id="XMLID_677_">
				<g id="XMLID_697_">
					<g id="XMLID_698_">
						<path id="XMLID_699_" class="st4" d="M62.6,26.8c0-0.1,0-0.1,0.1-0.1c0,0,0,0,0.1,0H63h0.1h0.1c0.1,0,0.3,0,0.4,0h0.1h0.1
							c0,0,0,0,0.1,0c0.1,0,0.1-0.1,0.3-0.1l0.1-0.1c0,0,0,0,0-0.1c0,0,0,0,0-0.1l0,0c0,0,0-0.1,0-0.2c0-0.1,0-0.1,0-0.2
							s0-0.1,0-0.3l0,0l0,0l0,0c0,0,0,0,0-0.1l-0.1-0.1v-0.1v-0.1V25v-0.1c0,0,0,0,0-0.1l0,0c0-0.1-0.1-0.2-0.1-0.3
							c0-0.1,0-0.1-0.1-0.2v-0.1V24v-0.1c0-0.1-0.1-0.1-0.1-0.2c0-0.1,0-0.1-0.1-0.3c0-0.1-0.1-0.2-0.1-0.3c0,0,0,0,0-0.1v-0.1
							l-0.1-0.2c0-0.1,0-0.2-0.1-0.3c0-0.1-0.1-0.1-0.1-0.2c0,0,0,0,0-0.1v-0.1l0.1-0.1c0.1,0,0.1,0,0.3,0c0,0,0.1,0,0.1,0.1
							c0,0,0,0,0,0.1v0.1v0.1c0,0.1,0.1,0.2,0.1,0.3v0.1v0.1l0,0l0,0c0,0,0,0.1,0.1,0.1c0,0.1,0,0.1,0.1,0.2c0,0.1,0.1,0.2,0.1,0.4
							c0,0,0,0,0,0.1c0,0.1,0,0.1,0.1,0.2v0.1V24v0.1c0.1,0.2,0.1,0.4,0.3,0.5v0.1v0.1V25v0.1v0.1l0,0v0.1c0,0.1,0,0.1,0,0.2
							c0,0.1,0,0.3-0.1,0.5v0.1c0,0.1-0.1,0.1-0.1,0.2l-0.1,0.1h-0.1L64,26.6c-0.3,0.1-0.5,0.1-0.8,0.2h-0.1H63h-0.1h-0.1L62.6,26.8
							l-0.1,0h-0.1c0,0,0,0,0-0.1v-0.1C62.6,26.9,62.6,26.9,62.6,26.8z"/>
					</g>
				</g>
				<g id="XMLID_694_">
					<g id="XMLID_695_">
						<path id="XMLID_696_" class="st4" d="M43.4,28.5c-0.1,0-0.1-0.1-0.1-0.1l0,0l0,0v-0.1l0,0l0.1-0.1h0.1c0,0,0,0,0.1,0l0,0
							c0.1,0,0.1-0.1,0.1-0.1c0.1,0,0.1,0,0.1,0H44l0,0l0,0h0.1h0.1c0.1,0,0.1,0,0.3,0l0,0l0,0l0,0l0,0h0.1l0,0c0,0,0,0,0.1,0h0.1
							c0,0,0,0,0.1,0l0,0l0,0c0,0,0.1,0,0.1,0.1c0,0,0.1,0,0.1,0.1h0.1l0,0l0,0c0,0,0.1,0,0.1,0.1l0.1,0.1l0.1,0.1l0,0l0,0l0.1,0.1
							c0,0,0,0.1,0.1,0.2c0,0,0,0.1,0.1,0.1l0,0c0,0,0,0,0,0.1L46,29.2c-0.1,0-0.1,0-0.1,0h-0.1l0,0l0,0l0,0c0,0,0-0.1-0.1-0.1l0,0
							c0,0,0,0,0-0.1l0,0l0,0c0,0,0,0-0.1,0c0,0,0,0-0.1,0l-0.1-0.1l0,0c0,0,0,0-0.1,0l0,0l0,0c0,0,0,0-0.1,0
							c-0.1,0-0.1-0.1-0.3-0.1l0,0l0,0l0,0l0,0l0,0l0,0l0,0c0,0,0,0-0.1,0c-0.1,0-0.1,0-0.1,0l0,0c0,0,0,0-0.1,0l0,0l0,0l0,0
							c-0.1,0-0.1,0.1-0.3,0.1l0,0l0,0l0,0l0,0l0,0l0,0l0,0c0,0,0,0-0.1,0c0,0-0.1,0-0.1-0.1C43.4,28.5,43.4,28.5,43.4,28.5z"/>
					</g>
				</g>
				<g id="XMLID_691_">
					<g id="XMLID_692_">
						<path id="XMLID_693_" class="st4" d="M44.2,29.8c-0.1,0-0.1,0-0.1,0l0,0v-0.1c0,0,0,0,0-0.1l0,0v-0.1v-0.1c0,0,0,0,0-0.1l0,0
							c0,0,0-0.1,0.1-0.1c0,0,0-0.1,0.1-0.1l0,0l0,0l0,0c0,0,0-0.1,0.1-0.1s0.1-0.1,0.1-0.1l0.1-0.1l0,0l0,0l0,0l0,0h0.1l0,0l0,0
							h0.1c0,0,0,0,0.1,0l0,0l0,0h0.1c0.1,0,0.1,0,0.1,0h0.1l0,0l0,0h0.1h0.1h0.1l0,0l0,0h0.1c0.1,0,0.1,0.1,0.1,0.1h0.1l0,0
							c0,0,0,0,0,0.1c0,0,0,0.1-0.1,0.1l-0.1,0.1h-0.1l0,0l0,0l0,0h-0.1l0,0l0,0l0,0l0,0c0,0,0,0-0.1,0c0,0,0,0-0.1,0s-0.1,0-0.1,0
							l0,0c0,0,0,0-0.1,0l0,0l0,0l0,0c-0.1,0-0.1,0-0.3,0.1l0,0l0,0l0,0l0,0l0,0l0,0l0,0l0,0l-0.1,0.1l0,0c0,0,0,0,0,0.1l0,0l0,0
							l0,0c0,0.1-0.1,0.1-0.1,0.2l0,0l0,0l0,0l0,0l0,0l0,0l0,0c0,0,0,0-0.1,0h-0.1C44.3,29.8,44.2,29.8,44.2,29.8z"/>
					</g>
				</g>
				<g id="XMLID_688_">
					<g id="XMLID_689_">
						<path id="XMLID_690_" class="st4" d="M61.1,28.4c0.1,0,0.1,0,0.1,0l0,0l0,0l0,0l0,0l0.1,0.1l0,0l0,0l0,0c0,0,0.1,0,0.1,0.1
							c0,0,0,0,0.1,0.1l0,0l0,0l0,0h0.1h0.1H62l0,0l0,0l0,0l0,0h0.1l0,0l0,0l0,0l0,0l0,0l0,0h0.1h0.1l0,0l0,0l0,0h0.1h0.1h0.1l0,0
							l0,0h0.1H63c0,0,0,0,0.1,0l0,0c0,0,0,0,0.1,0l0.1,0.1c0,0.1,0,0.1,0.1,0.1V29l0,0l0,0c0,0,0,0-0.1,0c0,0-0.1,0-0.3,0.1
							c0,0,0,0-0.1,0c0,0,0,0-0.1,0l0,0l0,0h-0.1h-0.1c-0.1,0-0.1,0-0.3,0l0,0h-0.1l0,0l0,0c0,0,0,0-0.1,0c-0.1,0-0.3,0-0.4,0l0,0
							l0,0l0,0c0,0,0,0-0.1,0h-0.1l0,0l0,0h-0.1c-0.1,0-0.1-0.1-0.3-0.1l0,0h-0.1l0,0l0,0c0,0,0,0-0.1,0c-0.1-0.1-0.1-0.1-0.3-0.2
							l0,0l0,0l0,0l0,0l0,0l0,0l0,0l0,0l0.1-0.1C60.9,28.4,60.9,28.4,61.1,28.4z"/>
					</g>
				</g>
				<g id="XMLID_686_">
					<path id="XMLID_687_" class="st4" d="M59.2,24.6h0.1c0.4-0.1,0.6-0.3,0.5-0.7v-0.3c-0.1-0.3-0.4-0.5-0.8-0.4
						c-0.4,0.1-0.6,0.3-0.5,0.7v0.3C58.7,24.4,58.9,24.6,59.2,24.6z"/>
				</g>
				<g id="XMLID_684_">
					<path id="XMLID_685_" class="st4" d="M66.2,23.5h0.1c0.4-0.1,0.6-0.3,0.5-0.7v-0.3c0-0.3-0.4-0.5-0.8-0.4
						c-0.4,0.1-0.6,0.3-0.5,0.7V23C65.6,23.3,65.9,23.5,66.2,23.5z"/>
				</g>
				<g id="XMLID_681_">
					<g id="XMLID_682_">
						<path id="XMLID_683_" class="st4" d="M57.3,22.3c0-0.1-0.1-0.1-0.1-0.1l0,0l0,0c0,0,0,0,0-0.1l0,0c0,0,0-0.1,0.1-0.1l0,0
							c0,0,0,0,0.1,0l0,0l0.1-0.1h0.1l0,0l0,0l0,0c0,0,0,0,0.1-0.1h0.1H58l0,0l0,0l0,0l0,0h0.1l0,0l0,0l0,0l0,0l0,0l0,0h0.1h0.1l0,0
							l0,0l0,0h0.1h0.1h0.1l0,0l0,0h0.1H59h0.1l0,0c0,0,0,0,0,0.1c0,0,0,0.1,0,0.2c0,0.1,0,0.1-0.1,0.1c0,0,0,0.1-0.1,0.1l0,0l0,0
							l0,0h-0.1l0,0l0,0l0,0l0,0c0,0,0,0-0.1,0s0,0-0.1,0h-0.1l0,0c0,0,0,0-0.1,0l0,0l0,0l0,0c-0.1,0-0.1,0-0.3,0l0,0l0,0l0,0l0,0
							l0,0l0,0l0,0c0,0,0,0-0.1,0h-0.1l0,0c0,0,0,0-0.1,0l0,0l0,0l0,0c-0.1,0-0.1,0.1-0.1,0.1l0,0l0,0l0,0l0,0l0,0l0,0
							C57.4,22.4,57.4,22.5,57.3,22.3C57.3,22.4,57.3,22.4,57.3,22.3C57.3,22.3,57.2,22.3,57.3,22.3C57.3,22.4,57.3,22.4,57.3,22.3z
							"/>
					</g>
				</g>
				<g id="XMLID_678_">
					<g id="XMLID_679_">
						<path id="XMLID_680_" class="st4" d="M67.1,20.9C67.1,21,67,21,67,21l0,0l0,0l0,0l0,0h-0.1l0,0l0,0l0,0h-0.1c0,0,0,0-0.1,0
							l0,0l0,0l0,0h-0.1c0,0,0,0-0.1,0h-0.1l0,0l0,0l0,0l0,0h-0.1l0,0l0,0l0,0l0,0l0,0l0,0H66c0,0,0,0-0.1,0l0,0l0,0l0,0
							c0,0,0,0-0.1,0c0,0,0,0-0.1,0h-0.1l0,0l0,0l0,0h-0.1l0,0l0,0c0,0,0,0-0.1,0l-0.1-0.1c0,0,0-0.1-0.1-0.1s0-0.1,0-0.1l0,0l0,0
							l0,0c0,0,0.1,0,0.1-0.1l0,0c0,0,0,0,0.1,0l0,0l0,0c0,0,0,0,0.1,0s0,0,0.1,0c0,0,0.1,0,0.3,0l0,0c0,0,0,0,0.1,0l0,0l0,0
							c0,0,0,0,0.1,0c0.1,0,0.1,0,0.4,0l0,0l0,0l0,0l0,0l0,0l0,0l0,0c0,0,0,0,0.1,0c0.1,0,0.1,0,0.3,0l0,0h0.1l0,0l0,0
							c0,0,0,0,0.1,0s0.1,0.1,0.4,0.1l0,0l0,0l0,0l0,0l0,0l0,0l0,0c0,0,0,0,0,0.1v0.1C67.3,20.9,67.3,20.9,67.1,20.9z"/>
					</g>
				</g>
			</g>
		</g>
	</g>
	<g id="XMLID_673_">
		<path id="XMLID_674_" class="st4" d="M63.8,12.9c-0.1,2.1-1.8,3.8-3.5,5.2c-4.3,3.4-9.7,5.5-15.4,6.4c0,0-3.5-10.3,5.6-12.9
			C59.3,8.9,63.8,12.9,63.8,12.9z"/>
	</g>
	<g id="XMLID_668_">
		<g id="XMLID_669_">
			<path id="XMLID_670_" class="st0" d="M21.8,69c-4.8-4.3-3.5-11,1.3-15.3C28.2,49,37,49,41.8,53.2l21.3,19.9L44.5,87.2L22.3,69.4
				C22.2,69.3,21.9,69.1,21.8,69z"/>
		</g>
	</g>
	<g id="XMLID_665_">
		<g id="XMLID_666_">
			<path id="XMLID_667_" class="st2" d="M44.3,41.8c0.1,0.1,0.3,0.2,0.3,0.5c0,0.1,0,0.3,0.1,0.4l0.1,0.7c0.1,0.2,0.1,0.4,0.3,0.8
				c0,0.1,0.1,0.3,0.1,0.4c0.3,0.5,0.5,1,0.8,1.4c0.1,0.2,0.3,0.4,0.4,0.5c0.1,0.2,0.3,0.4,0.5,0.5c0.1,0.1,0.3,0.2,0.4,0.4
				c0.4,0.4,0.8,0.8,1.1,1.1c0.4,0.3,0.8,0.5,1.1,0.8l0.6,0.3l0.6,0.2c0.1,0,0.3,0.1,0.4,0.1c0.4,0.1,0.9,0.3,1.3,0.3
				c0.5,0.1,1,0.2,1.6,0.3s1.1,0.1,1.8,0.1h0.1H56l0,0c0.1,0,0.4,0,0.5,0c0.4,0,0.8-0.1,1.1-0.1l0.4-0.1l0.5-0.1l0.8-0.2
				c0.1-0.1,0.5-0.1,0.6-0.2l0.4-0.1c0.1,0,0.1-0.1,0.4-0.1c0.5-0.2,1-0.5,1.4-0.8c0.4-0.2,0.8-0.5,1.1-0.8l0.5-0.4l0.4-0.4
				c0.1-0.1,0.1-0.1,0.3-0.3c0.3-0.3,0.5-0.7,0.6-1.1c0.3-0.4,0.5-0.9,0.6-1.2c0.1-0.4,0.4-1,0.5-1.4c0-0.1,0-0.2,0-0.3
				c0-0.1,0-0.3,0-0.4c0-0.3,0-0.7,0.1-1c0-0.5,0-1.2-0.1-1.8c-0.1-0.3-0.1-0.7-0.3-1c0-0.1,0-0.1-0.1-0.3c0-0.1,0-0.2,0-0.3
				c0-0.2,0-0.3,0.1-0.3s0.3,0.1,0.4,0.2c0.1,0.1,0.3,0.3,0.4,0.5c0,0.1,0.1,0.2,0.1,0.4c0.1,0.2,0.1,0.4,0.1,0.7
				c0,0.2,0.1,0.4,0.1,0.7c0.1,0.7,0.1,1.3,0,2c0,0.2,0,0.4-0.1,0.7c0,0.3-0.1,0.5-0.1,0.9V44c0,0,0,0,0,0.1c0,0.3-0.1,0.7-0.3,0.9
				c-0.1,0.3-0.3,0.7-0.5,1c-0.4,0.7-0.8,1.3-1.3,2l-0.4,0.3c-0.3,0.3-0.6,0.5-0.9,0.9c-0.1,0.1-0.4,0.2-0.5,0.4
				c-0.1,0.1-0.4,0.2-0.5,0.3c-0.3,0.2-0.5,0.3-0.8,0.4c-1.1,0.5-2.3,1-3.5,1.2c-0.1,0-0.4,0.1-0.6,0.1c-0.1,0-0.4,0-0.5,0
				s-0.4,0-0.6,0.1c-0.3,0-0.5,0-0.8,0h-0.8c-0.1,0-0.1,0-0.3,0c-0.3,0-0.5,0-0.6,0c-0.4,0-0.8-0.1-1.3-0.1
				c-0.9-0.1-1.6-0.4-2.4-0.7l-0.5-0.2c-0.4-0.1-0.8-0.3-1.1-0.5c-0.1-0.1-0.4-0.2-0.5-0.3c-0.1-0.1-0.3-0.2-0.4-0.3
				c-0.3-0.2-0.5-0.3-0.8-0.5c-0.9-0.8-1.6-1.6-2.1-2.6c-0.1-0.1-0.1-0.3-0.3-0.5c0-0.1-0.1-0.3-0.1-0.4c-0.1-0.5-0.1-0.7-0.3-0.9
				c-0.1-0.2-0.1-0.4-0.3-0.5c0-0.2-0.1-0.4-0.1-0.7s0-0.3-0.1-0.5c0-0.1-0.1-0.3,0-0.5c0-0.1,0-0.2,0.1-0.3c0-0.1,0.1-0.2,0.3-0.2
				C44.2,41.7,44.2,41.8,44.3,41.8z"/>
		</g>
	</g>
	<g id="XMLID_659_">
		<g id="XMLID_660_">
			<path id="XMLID_661_" class="st2" d="M40.1,83.2c0-0.1,0-0.2,0.1-0.4c0-0.1,0.1-0.1,0.3-0.2c0.1-0.1,0.3-0.2,0.4-0.3
				c0.1-0.1,0.3-0.2,0.5-0.3c0.1-0.1,0.3-0.1,0.4-0.2c0.4-0.2,0.6-0.4,0.9-0.7c0.1-0.1,0.3-0.2,0.4-0.3c0.1-0.1,0.3-0.2,0.5-0.3
				c0.1-0.1,0.1-0.1,0.3-0.2c0.4-0.2,0.6-0.4,0.9-0.7c0.3-0.1,0.5-0.3,0.8-0.5c0.1-0.1,0.3-0.2,0.4-0.3c0.1-0.1,0.3-0.1,0.4-0.2
				l0.1-0.1c0.3-0.2,0.5-0.4,0.6-0.5c0.3-0.2,0.5-0.4,0.8-0.5c0.4-0.2,0.6-0.4,0.9-0.7c0,0,0,0,0.1,0c0,0,0,0,0.1-0.1l0,0
				c0.1-0.1,0.1-0.1,0.3-0.2c0.1-0.1,0.4-0.3,0.5-0.4l0.1-0.1c0.1-0.1,0.1-0.1,0.3-0.2c0.1-0.1,0.3-0.2,0.4-0.3
				c0.1-0.1,0.3-0.1,0.4-0.2l0.1-0.1l0.1-0.1c0.4-0.2,0.6-0.4,0.9-0.7c0.3-0.1,0.5-0.3,0.8-0.5c0.1-0.1,0.3-0.2,0.4-0.3
				c0.1-0.1,0.3-0.1,0.4-0.2l0.1-0.1c0.3-0.2,0.5-0.4,0.6-0.5c0.3-0.2,0.5-0.4,0.8-0.5c0.4-0.2,0.6-0.4,0.9-0.7
				c0.1,0,0.1-0.1,0.1-0.1c0.1-0.1,0.1-0.1,0.3-0.2s0.4-0.3,0.5-0.4c0.4-0.3,0.8-0.4,1.1-0.8c0.1-0.1,0.4-0.3,0.6-0.4
				c0.1,0,0.1-0.1,0.3-0.1s0.1-0.1,0.3-0.1c0.1,0,0.4,0,0.4,0.1c0,0.1,0,0.2,0,0.3c0,0.1-0.1,0.2-0.3,0.3c-0.1,0-0.1,0.1-0.3,0.1
				c-0.1,0.1-0.3,0.2-0.4,0.3c-0.1,0.1-0.3,0.1-0.4,0.3c-0.4,0.3-0.8,0.5-1.1,0.9c-0.1,0.1-0.3,0.2-0.4,0.3
				c-0.1,0.1-0.4,0.2-0.5,0.3l0,0l0,0c-0.1,0.1-0.4,0.3-0.5,0.4c-0.1,0.1-0.4,0.3-0.6,0.4c-0.4,0.3-0.8,0.7-1.3,0.9
				c-0.1,0-0.1,0.1-0.3,0.2c-0.1,0.1-0.4,0.3-0.6,0.4c-0.1,0.1-0.3,0.1-0.4,0.2s-0.1,0.1-0.3,0.2c-0.1,0.1-0.3,0.2-0.5,0.3
				c-0.6,0.4-1.3,0.9-1.8,1.3c-0.1,0.1-0.1,0.1-0.4,0.2c-0.1,0-0.1,0.1-0.3,0.1c-0.1,0.1-0.1,0.1-0.3,0.2c-0.1,0.1-0.3,0.2-0.4,0.3
				c-0.1,0.1-0.3,0.2-0.4,0.3l-0.1,0.1c-0.1,0.1-0.3,0.1-0.4,0.2c-0.1,0.1-0.4,0.3-0.6,0.4c-0.4,0.3-0.8,0.7-1.3,0.9
				c-0.1,0-0.1,0.1-0.3,0.2c-0.1,0.1-0.4,0.3-0.6,0.4c-0.1,0.1-0.3,0.1-0.4,0.2c-0.1,0.1-0.1,0.1-0.3,0.2c-0.1,0.1-0.3,0.2-0.5,0.3
				c-0.6,0.4-1.3,0.9-1.8,1.3c-0.1,0.1-0.1,0.1-0.4,0.2c-0.1,0-0.1,0.1-0.3,0.1c-0.1,0.1-0.1,0.1-0.3,0.2c-0.1,0.1-0.3,0.2-0.4,0.3
				c-0.1,0.1-0.3,0.2-0.4,0.3c-0.1,0.1-0.3,0.1-0.4,0.2c-0.1,0-0.1,0.1-0.4,0.2h-0.1c-0.1,0-0.3,0-0.4-0.1
				C40.1,83.3,40.1,83.3,40.1,83.2z"/>
		</g>
	</g>
	<g id="XMLID_656_">
		<g id="XMLID_657_">
			<path id="XMLID_658_" class="st2" d="M94.3,60.7c-0.1,0-0.3-0.1-0.3-0.2c0,0,0-0.1,0-0.2V60c0-0.1-0.1-0.2-0.1-0.3
				c0-0.1,0-0.1,0-0.2c0-0.2-0.1-0.4-0.1-0.7l-0.1-0.3c0-0.1,0-0.2,0-0.3s0-0.1-0.1-0.2c0-0.2-0.1-0.4-0.1-0.7
				c0-0.2-0.1-0.3-0.1-0.5l-0.1-0.3c0-0.1,0-0.1,0-0.2v-0.1c0-0.1-0.1-0.3-0.1-0.5c0-0.2-0.1-0.4-0.1-0.5c0-0.2-0.1-0.4-0.1-0.7l0,0
				c0,0,0,0,0-0.1l0,0c0-0.1,0-0.1,0-0.2l-0.1-0.4v-0.1l-0.1-0.2l-0.1-0.3c0-0.1,0-0.2,0-0.3v-0.1v-0.1c0-0.2-0.1-0.4-0.1-0.7
				c0-0.2-0.1-0.3-0.1-0.5L92,50.8c0-0.1,0-0.1,0-0.2v-0.1c0-0.1-0.1-0.3-0.1-0.5s-0.1-0.4-0.1-0.5c-0.1-0.2-0.1-0.4-0.3-0.7v-0.1
				c0-0.1,0-0.1-0.1-0.2L91.2,48c-0.1-0.3-0.1-0.5-0.3-0.8c-0.1-0.1-0.1-0.3-0.1-0.4v-0.1c0-0.1,0-0.1,0-0.2c0-0.1,0.1-0.2,0.3-0.2
				s0.3,0,0.4,0.1c0.1,0,0.1,0.1,0.3,0.2v0.1c0,0.1,0.1,0.2,0.1,0.3c0,0.1,0,0.2,0.1,0.3c0.1,0.3,0.1,0.5,0.3,0.8
				c0,0.1,0.1,0.2,0.1,0.3s0,0.2,0.1,0.3l0,0l0,0c0.1,0.1,0.1,0.3,0.1,0.3c0,0.1,0.1,0.3,0.1,0.4c0.1,0.3,0.1,0.5,0.3,0.9
				c0,0.1,0,0.1,0,0.2c0,0.1,0.1,0.3,0.1,0.4c0,0.1,0,0.1,0.1,0.2c0,0.1,0,0.1,0,0.2c0,0.1,0.1,0.2,0.1,0.3c0.1,0.4,0.3,0.9,0.4,1.3
				c0,0.1,0,0.1,0,0.2c0,0,0,0.1,0,0.2c0,0.1,0,0.1,0.1,0.2c0,0.1,0,0.1,0.1,0.2l0.1,0.3c0,0,0,0,0,0.1c0,0.1,0,0.1,0,0.2
				c0,0.1,0.1,0.3,0.1,0.4c0.1,0.3,0.1,0.5,0.3,0.9c0,0.1,0,0.1,0,0.2c0,0.1,0.1,0.3,0.1,0.4c0,0.1,0,0.1,0,0.2s0,0.1,0,0.2
				c0,0.1,0,0.2,0.1,0.3c0.1,0.4,0.1,0.9,0.4,1.3c0,0.1,0,0.1,0,0.2c0,0,0,0.1,0,0.2c0,0.1,0,0.1,0.1,0.2c0,0.1,0,0.1,0,0.3V60
				c0,0.1,0,0.1,0,0.2c0,0.1,0,0.1,0,0.2c0,0,0,0.1-0.1,0.1C94.5,60.6,94.4,60.7,94.3,60.7C94.4,60.7,94.4,60.7,94.3,60.7z"/>
		</g>
	</g>
	<g id="XMLID_653_">
		<g id="XMLID_654_">
			<path id="XMLID_655_" class="st2" d="M20.4,59.1c0,0.1,0,0.3-0.3,0.5C20,59.7,20,60,19.9,60.1c-0.1,0.2-0.3,0.4-0.4,0.5
				c-0.1,0.3-0.1,0.5-0.3,0.8c0,0.1-0.1,0.3-0.1,0.5c0,0.5,0,1.2,0.1,1.7c0,0.2,0.1,0.5,0.3,0.8c0.1,0.2,0.1,0.4,0.3,0.8
				c0.1,0.2,0.3,0.3,0.4,0.5c0.3,0.5,0.6,1,1,1.4c0.4,0.4,0.6,0.8,1,1.1l0.5,0.5l0.5,0.4l0.4,0.3c0.4,0.3,0.8,0.7,1.1,1l1.4,1.1
				c0.5,0.4,1,0.8,1.4,1.2l0.1,0.1l0.1,0.1l0,0c0.1,0.1,1.4,1.1,1.4,1.1l0.4,0.2l0.5,0.4l0.6,0.5c0.1,0.1,0.4,0.3,0.6,0.4l0.4,0.2
				c0.1,0.1,0.1,0.1,0.4,0.2c0.5,0.4,1,0.8,1.4,1.2c0.4,0.3,0.8,0.7,1.1,1l0.6,0.5l0.5,0.4l0.4,0.2c0.4,0.3,0.8,0.7,1.1,0.9l1.4,1.1
				c0.5,0.4,1,0.8,1.4,1.2c0.1,0.1,0.3,0.1,0.4,0.3c0.1,0.1,0.4,0.2,0.5,0.3l1,0.8c0.6,0.4,1.1,1,1.8,1.4c0.4,0.2,0.6,0.5,1,0.8
				c0.1,0.1,0.3,0.2,0.4,0.3c0.1,0.1,0.1,0.2,0.3,0.3c0.1,0.2,0.1,0.3,0.1,0.4c-0.1,0-0.3,0-0.5-0.1c-0.1,0-0.5-0.2-0.6-0.4
				c-0.1-0.1-0.3-0.2-0.4-0.3c-0.3-0.1-0.4-0.3-0.6-0.5c-0.1-0.1-0.4-0.3-0.6-0.5c-0.6-0.4-1.1-1-1.8-1.4c-0.3-0.1-0.5-0.3-0.6-0.5
				c-0.3-0.2-0.5-0.4-0.8-0.7l-0.1-0.1c0,0,0,0-0.1,0c-0.3-0.1-0.6-0.4-0.9-0.7l-1-0.8c-0.6-0.5-1.4-1.1-2-1.6l-0.4-0.3
				c-0.4-0.3-0.6-0.5-1-0.9c-0.1-0.1-0.4-0.3-0.5-0.4c-0.1-0.1-0.3-0.2-0.4-0.4L32.3,77c-1-0.8-1.9-1.5-3-2.4
				c-0.1-0.1-0.4-0.3-0.5-0.4c-0.1-0.1-0.3-0.2-0.4-0.3c-0.1-0.1-0.4-0.2-0.5-0.4c-0.1-0.1-0.4-0.3-0.6-0.4l-0.6-0.4
				c-0.1-0.1-0.1-0.1-0.3-0.2c-0.1-0.1-0.4-0.3-0.5-0.4l-1-0.8c-0.6-0.5-1.4-1.1-2-1.6l-0.4-0.3c-0.4-0.3-0.6-0.5-1-0.9
				c-0.1-0.1-0.4-0.3-0.5-0.4c-0.1-0.1-0.3-0.3-0.4-0.4c-0.3-0.2-0.4-0.4-0.6-0.8c-0.8-1-1.3-2.2-1.4-3.5c0-0.2,0-0.4,0-0.7
				c0-0.1,0-0.3,0-0.5c0-0.2,0-0.4,0-0.7c0-0.2,0.1-0.4,0.1-0.7c0.1-0.2,0.1-0.5,0.3-0.8s0.3-0.3,0.4-0.5c0.1-0.1,0.3-0.3,0.4-0.4
				c0.1-0.1,0.3-0.1,0.3-0.1c0.1-0.1,0.4-0.1,0.4,0C20.4,59,20.4,59,20.4,59.1z"/>
		</g>
	</g>
	<g>
		<g id="XMLID_643_">
			<g id="XMLID_644_">
				<g id="XMLID_645_">
					<path id="XMLID_646_" class="st5" d="M44.7,87.2l31.4,25.1l0.5,0.4c3,2.6,7.4,3,11,1.4L113.2,84c3.7-1.6,4.9-5.4,3.2-8.6
						c-1.8-2.9-5.9-4.1-9.5-2.9L79.1,98.7l11.5,1.8L63.1,73.2C63,73.2,44.5,87.1,44.7,87.2z"/>
				</g>
			</g>
		</g>
		<g id="XMLID_639_">
			<g id="XMLID_640_">
				<g id="XMLID_641_">
					<path id="XMLID_642_" class="st5" d="M104.2,77c-0.4-0.5-0.3-0.5-0.4-0.9c0-0.2-0.1-0.3-0.1-0.5c-0.1-0.3-0.1-0.7-0.3-1
						c0-0.5-0.1-1.1-0.1-1.6c0-1.1,0.1-2.1,0.3-2.9c0.3-1.8,0.9-3.6,1.5-5.3c0.4-1.2,1.9-2,3.4-1.5c1.1,0.3,2,1.3,1.9,2.4v0.1
						c-0.1,1.6-0.1,3.1,0.1,4.7c0.1,0.8,0.3,1.4,0.5,2.1c0.1,0.3,0.3,0.7,0.4,0.9c0,0.1,0.1,0.2,0.1,0.3v0.1c0-0.1,0.1,0.1-0.1-0.2
						c1.1,1.7,0.5,3.9-1.4,4.9C108,79.2,105.4,78.8,104.2,77z"/>
				</g>
			</g>
		</g>
		<g id="XMLID_635_">
			<g id="XMLID_636_">
				<g id="XMLID_637_">
					<path id="XMLID_638_" class="st5" d="M104.1,72.5c0.6-1.3,1.3-2.4,1.9-3.5c0.6-1.1,1.4-2.3,2.1-3.4c1.5-2.2,3.3-4.3,5.7-6.3
						c1.1-0.9,2.9-0.9,3.9,0.1c1,0.9,1,2.2,0.1,3.1l-0.1,0.1c-1.4,1.6-2.7,3.6-3.7,5.6c-0.5,1-1,2.1-1.4,3.1s-0.9,2.2-1.1,3.1
						c-0.5,1.8-2.7,2.9-4.8,2.5c-2.1-0.4-3.4-2.3-2.9-4.1C103.9,72.8,104,72.7,104.1,72.5z"/>
				</g>
			</g>
		</g>
		<g id="XMLID_631_">
			<g id="XMLID_632_">
				<g id="XMLID_633_">
					<path id="XMLID_634_" class="st5" d="M107,74.2c0.8-1.2,1.5-2.3,2.3-3.5c0.8-1.1,1.6-2.3,2.4-3.4c0.9-1.1,1.9-2.2,2.9-3.3
						c0.5-0.5,1.1-1.1,1.9-1.5c0.4-0.2,0.8-0.5,1.3-0.8c0.4-0.2,1.1-0.4,1.6-0.7c1.4-0.5,2.9,0,3.5,1.2c0.5,1,0.1,2.1-0.8,2.7
						l-0.8,0.5c-0.3,0.2-1.1,1-1.8,1.8c-0.8,0.9-1.3,1.8-1.9,2.9s-1.1,2.2-1.6,3.3c-0.5,1.1-1,2.3-1.4,3.3c-0.8,1.8-3,2.8-5.2,2.3
						c-2.1-0.7-3.3-2.6-2.7-4.5C106.8,74.5,106.8,74.3,107,74.2z"/>
				</g>
			</g>
		</g>
		<g id="XMLID_627_">
			<g id="XMLID_628_">
				<g id="XMLID_629_">
					<path id="XMLID_630_" class="st5" d="M107.7,80.2c1-1.6,2.1-3.1,3.3-4.6c1.1-1.4,2.4-2.8,3.7-4.2c2.5-2.7,5.4-5.3,8.7-7.6
						c1.3-0.9,2.9-0.7,3.9,0.4c0.9,1,0.8,2.3-0.3,3.1h-0.1c-2.5,2.2-4.8,4.7-6.7,7.4c-1,1.3-1.9,2.7-2.8,4.1s-1.6,2.9-2.3,4.2l0,0
						c-0.9,1.8-3.3,2.7-5.3,2c-2.1-0.8-3.2-2.8-2.3-4.6C107.5,80.5,107.5,80.4,107.7,80.2z"/>
				</g>
			</g>
		</g>
	</g>
	<g>
		<g id="XMLID_623_">
			<g id="XMLID_624_">
				<g id="XMLID_625_">
					<path id="XMLID_626_" class="st5" d="M96,52.1l19.2-4.9l0.6-0.1c4.2-0.7,7.1-3.6,7.6-7.1l6.1-21.3c0.5-3.5-2.5-6.6-6.6-7.1
						c-3.9-0.3-7.3,2-8.1,5.1l-11.1,20.7l8.8-8.7l-21.3,3.6L96,52.1z"/>
				</g>
			</g>
		</g>
		<g id="XMLID_619_">
			<g id="XMLID_620_">
				<g id="XMLID_621_">
					<path id="XMLID_622_" class="st5" d="M117.4,20.2c-0.5-0.4-0.5-0.5-0.6-0.7s-0.3-0.3-0.4-0.4c-0.1-0.3-0.4-0.5-0.5-0.9
						c-0.3-0.5-0.5-1.1-0.6-1.5c-0.3-1-0.5-2-0.6-2.9c-0.3-1.8-0.3-3.7-0.1-5.4c0.1-1.3,1.4-2.3,2.9-2.2c1.3,0,2.3,0.9,2.5,1.8l0,0
						c0.4,1.5,0.8,3,1.4,4.5c0.3,0.7,0.6,1.4,1,2c0.1,0.3,0.4,0.5,0.5,0.8c0.1,0.1,0.1,0.2,0.3,0.2c0,0,0,0,0.1,0
						c0,0,0.1,0.1-0.1-0.2c1.6,1.4,1.6,3.7,0,5C121.7,21.6,119,21.6,117.4,20.2z"/>
				</g>
			</g>
		</g>
		<g id="XMLID_615_">
			<g id="XMLID_616_">
				<g id="XMLID_617_">
					<path id="XMLID_618_" class="st5" d="M115.9,15.9c0.3-1.4,0.5-2.5,0.9-3.8c0.4-1.2,0.8-2.5,1.1-3.7c0.9-2.5,1.9-4.9,3.7-7.3
						c0.8-1.1,2.5-1.4,3.8-0.8c1.1,0.7,1.6,2,1,3v0.1c-1,1.8-1.6,4-2,6.2c-0.3,1.1-0.4,2.2-0.5,3.4c-0.1,1.1-0.1,2.3-0.1,3.4
						c0,1.8-1.8,3.4-4,3.4c-2.1,0-3.9-1.5-3.9-3.5C115.9,16.2,115.9,16,115.9,15.9z"/>
				</g>
			</g>
		</g>
		<g id="XMLID_611_">
			<g id="XMLID_612_">
				<g id="XMLID_613_">
					<path id="XMLID_614_" class="st5" d="M119.1,16.8c0.4-1.4,0.8-2.6,1.1-3.9c0.5-1.2,0.9-2.5,1.4-3.8c0.5-1.2,1.1-2.5,1.9-3.8
						c0.4-0.7,0.8-1.3,1.4-2c0.3-0.3,0.6-0.7,1-1c0.4-0.3,0.9-0.7,1.4-1c1.1-0.8,2.9-0.5,3.8,0.4c0.8,0.9,0.8,2,0,2.7l-0.6,0.7
						c-0.3,0.2-0.9,1.2-1.1,2.2c-0.4,1-0.8,2.2-1,3.3c-0.3,1.1-0.5,2.3-0.6,3.5s-0.4,2.4-0.4,3.5c-0.1,2-2.1,3.5-4.4,3.3
						c-2.3-0.1-4-1.8-3.8-3.8C119.1,17.2,119.1,17,119.1,16.8z"/>
				</g>
			</g>
		</g>
		<g id="XMLID_607_">
			<g id="XMLID_608_">
				<g id="XMLID_609_">
					<path id="XMLID_610_" class="st5" d="M121.5,22.6c0.5-1.8,1.1-3.5,1.9-5.1c0.6-1.6,1.4-3.3,2.3-4.9c1.6-3.1,3.7-6.3,6.3-9.1
						c1-1.1,2.7-1.2,3.9-0.4c1.1,0.8,1.4,2.1,0.6,3.1l0,0c-1.9,2.6-3.3,5.5-4.4,8.6c-0.5,1.5-1,3-1.5,4.6c-0.4,1.5-0.8,3.1-1,4.6
						l0,0c-0.4,2-2.4,3.4-4.7,3c-2.3-0.3-3.9-2.1-3.5-4C121.5,22.8,121.5,22.7,121.5,22.6z"/>
				</g>
			</g>
		</g>
	</g>
</g>
</svg>
