<?xml version="1.0" encoding="utf-8"?>
<!-- Generator: Adobe Illustrator 22.1.0, SVG Export Plug-In . SVG Version: 6.00 Build 0)  -->
<svg version="1.1" id="OBJECTS" xmlns="http://www.w3.org/2000/svg" xmlns:xlink="http://www.w3.org/1999/xlink" x="0px" y="0px"
	 viewBox="0 0 108 226.8" style="enable-background:new 0 0 108 226.8;" xml:space="preserve">
<style type="text/css">
	.st0{fill:#EFDA4B;}
	.st1{fill:#E8A543;}
	.st2{fill:#FFFFFF;}
	.st3{fill:#201626;}
	.st4{fill:#A53D31;}
	.st5{fill:#9ED688;}
	.st6{fill:#343737;}
	.st7{fill:#E9C734;}
	.st8{fill:#202122;}
</style>
<g>
	<g>
		<g>
			<g id="XMLID_628_">
				<polygon id="XMLID_629_" class="st0" points="76.5,109.5 73.4,166.1 73.4,164.8 79,213.8 64.1,216.3 55.3,167.3 55.2,167 
					55.2,166 53.3,109.3 				"/>
			</g>
			<g id="XMLID_626_">
				<path id="XMLID_627_" class="st0" d="M68.8,126l-30.3-2.1c-3.3-0.2-9.9-3.7-9.7-6.9L33,91.3l36,3.9l7.3,14.5
					C76.3,112.8,72.1,126.2,68.8,126z"/>
			</g>
			<g id="XMLID_624_">
				<polygon id="XMLID_625_" class="st0" points="53.4,110.2 39.8,166.7 39.9,164.4 41.5,216.2 26.4,216.4 21.8,165.6 21.7,164.9 
					21.9,163.3 30.5,105.8 				"/>
			</g>
		</g>
		<g id="XMLID_620_">
			<g id="XMLID_621_">
				<g id="XMLID_622_">
					<polygon id="XMLID_623_" class="st1" points="41.5,216.2 41.2,226.3 16,225.5 26.4,216.4 					"/>
				</g>
			</g>
		</g>
		<g id="XMLID_616_">
			<g id="XMLID_617_">
				<g id="XMLID_618_">
					<polygon id="XMLID_619_" class="st1" points="79,213.8 80.1,223.9 55.1,226.8 64.1,216.3 					"/>
				</g>
			</g>
		</g>
		<g id="XMLID_613_">
			<g id="XMLID_614_">
				<path id="XMLID_615_" class="st2" d="M75.7,117.4c0-0.1-0.1-0.1-0.2-0.1h-0.1h-0.2c-0.1,0-0.1,0-0.2,0c-0.1,0-0.1,0-0.1,0
					c-0.2,0-0.3,0-0.5,0h-0.2c-0.1,0-0.1,0-0.2,0c-0.1,0-0.1,0-0.1,0c-0.1,0-0.3-0.1-0.4-0.1c-0.1,0-0.2,0-0.4-0.1l-0.2-0.1h-0.1
					h-0.1c-0.1,0-0.2-0.1-0.3-0.1s-0.2-0.1-0.4-0.2c-0.1-0.1-0.2-0.1-0.4-0.2l0,0l0,0l0,0l-0.1-0.1l-0.2-0.2l-0.1-0.1l-0.1-0.1
					c-0.1,0-0.1-0.1-0.2-0.1l-0.1-0.1l-0.1-0.1c0,0,0,0-0.1-0.1c-0.1-0.1-0.2-0.2-0.3-0.3c-0.1-0.1-0.2-0.2-0.2-0.3l-0.1-0.1
					l-0.1-0.1v-0.1c-0.1-0.1-0.1-0.2-0.2-0.3c-0.1-0.1-0.1-0.2-0.2-0.3c-0.1-0.1-0.1-0.3-0.2-0.4v-0.1v-0.1c0-0.1-0.1-0.2-0.1-0.3
					c-0.1-0.2-0.1-0.3-0.2-0.5c0-0.1,0-0.2-0.1-0.3v-0.1l-0.1-0.1c-0.1-0.1-0.1-0.1-0.2-0.1c-0.1,0-0.1,0.1-0.1,0.1
					c0,0.1,0,0.1,0,0.2v0.1c0,0.1,0,0.1,0,0.2s0,0.1,0.1,0.2c0,0.2,0.1,0.4,0.2,0.5c0,0.1,0,0.1,0.1,0.2c0,0.1,0.1,0.1,0.1,0.2l0,0
					l0,0c0,0.1,0.1,0.2,0.1,0.3c0,0.1,0.1,0.2,0.1,0.3c0.1,0.2,0.2,0.4,0.4,0.6c0,0,0,0.1,0.1,0.1c0.1,0.1,0.1,0.2,0.2,0.3l0.1,0.1
					l0.1,0.1l0.2,0.2c0.2,0.2,0.5,0.4,0.8,0.6l0.1,0.1c0,0,0.1,0,0.1,0.1l0.1,0.1c0.1,0,0.1,0.1,0.2,0.1l0.2,0.1c0,0,0,0,0.1,0
					s0.1,0.1,0.2,0.1l0.3,0.1c0.2,0.1,0.4,0.2,0.6,0.2h0.1c0.1,0,0.2,0.1,0.3,0.1s0.1,0,0.2,0c0.1,0,0.1,0,0.1,0
					c0.1,0,0.2,0,0.2,0.1c0.3,0.1,0.6,0.1,1,0.1c0.1,0,0.1,0,0.2,0H75c0.1,0,0.1,0,0.2,0c0.1,0,0.1,0,0.2,0h0.2c0.1,0,0.1,0,0.2,0
					H76c0,0,0,0,0.1-0.1C75.8,117.6,75.8,117.5,75.7,117.4C75.8,117.5,75.7,117.4,75.7,117.4z"/>
			</g>
		</g>
		<g id="XMLID_610_">
			<g id="XMLID_611_">
				<path id="XMLID_612_" class="st2" d="M54.2,120.3c0-0.1-0.1-0.1-0.2-0.1h-0.1h-0.2c-0.1,0-0.2,0-0.2,0c-0.1,0-0.1,0-0.2,0
					c-0.2,0-0.3-0.1-0.5-0.1c-0.1,0-0.1,0-0.2-0.1c-0.1-0.1-0.1,0-0.2-0.1l-0.1-0.1c-0.1-0.1-0.2-0.2-0.3-0.3
					c-0.1-0.1-0.1-0.2-0.2-0.3c0-0.1,0-0.1-0.1-0.2c0-0.1,0-0.1,0-0.1v-0.1c0-0.1,0-0.2,0-0.4c0-0.1,0-0.3,0-0.4c0-0.2,0-0.3,0-0.5
					l0,0v-0.1l0,0c0-0.1,0-0.1,0-0.2v-0.3v-0.1v-0.2v-0.2c0-0.1,0-0.1,0-0.2v-0.1v-0.1c0-0.2,0-0.3,0-0.5c0-0.1,0-0.3,0-0.4v-0.2
					c0-0.1,0-0.1,0-0.2v-0.1c0-0.1,0-0.3,0.1-0.4c0-0.2,0-0.3,0-0.5s0-0.3,0-0.5v-0.1c0-0.1,0-0.1,0-0.2V112c0-0.2,0-0.4,0-0.6
					c0-0.1,0-0.2,0-0.3v-0.1v-0.1c0-0.1-0.1-0.1-0.1-0.1c-0.1,0-0.1,0-0.2,0.1c0,0-0.1,0.1-0.1,0.2v0.1c0,0.1,0,0.1,0,0.2
					s0,0.1,0,0.2c0,0.2,0,0.4,0,0.6c0,0.1,0,0.1,0,0.2s0,0.2,0,0.3l0,0l0,0c0,0.1,0,0.2,0,0.3v0.3c0,0.2,0,0.5-0.1,0.8
					c0,0.1,0,0.1,0,0.1c0,0.1,0,0.2,0,0.4c0,0.1,0,0.1,0,0.2s0,0.1,0,0.2v0.3c0,0.3-0.1,0.8-0.1,1.1c0,0.1,0,0.1,0,0.2v0.1
					c0,0.1,0,0.1,0,0.2c0,0.1,0,0.1,0,0.2v0.2v0.1c0,0.1,0,0.1,0,0.2c0,0.1,0,0.2,0,0.3c0,0.2,0,0.5,0.1,0.8c0,0.1,0,0.1,0,0.1
					c0,0.1,0.1,0.3,0.1,0.4s0.1,0.1,0.1,0.2c0,0.1,0.1,0.1,0.1,0.1c0.1,0.1,0.1,0.1,0.2,0.2c0.3,0.3,0.6,0.4,1.1,0.5
					c0.1,0,0.1,0,0.2,0c0.1,0,0.1,0,0.1,0c0.1,0,0.1,0,0.2,0s0.1,0,0.2,0h0.2c0.1,0,0.1,0,0.2,0c0.1,0,0.1,0,0.2,0h0.1
					C54.1,120.4,54.2,120.4,54.2,120.3L54.2,120.3z"/>
			</g>
		</g>
		<g id="XMLID_607_">
			<g id="XMLID_608_">
				<path id="XMLID_609_" class="st2" d="M79,211.1c-0.1-0.1-0.1-0.1-0.2-0.1c-0.1,0-0.1,0-0.2,0c-0.1,0-0.2,0-0.3,0
					c-0.1,0-0.2,0-0.3,0s-0.1,0-0.2,0c-0.2,0-0.4,0-0.6,0.1c-0.1,0-0.2,0-0.3,0s-0.2,0-0.3,0.1c-0.1,0-0.1,0-0.2,0
					c-0.2,0-0.4,0.1-0.6,0.1c-0.2,0-0.3,0.1-0.5,0.1c-0.1,0-0.2,0-0.3,0s-0.1,0-0.2,0h-0.1c-0.2,0-0.3,0-0.5,0
					c-0.2,0-0.4,0.1-0.6,0.1c-0.2,0-0.4,0.1-0.6,0.1c0,0,0,0-0.1,0c0,0,0,0-0.1,0l0,0c-0.1,0-0.1,0-0.2,0c-0.1,0-0.3,0-0.4,0.1h-0.1
					c-0.1,0-0.1,0-0.2,0c-0.1,0-0.2,0-0.3,0s-0.2,0-0.2,0h-0.1h-0.1c-0.2,0-0.4,0.1-0.6,0.1c-0.2,0-0.3,0.1-0.5,0.1
					c-0.1,0-0.2,0-0.3,0s-0.1,0-0.2,0h-0.1c-0.2,0-0.3,0-0.5,0s-0.4,0.1-0.6,0.1c-0.2,0-0.4,0.1-0.6,0.1c-0.1,0-0.1,0-0.1,0
					c-0.1,0-0.1,0-0.2,0c-0.1,0-0.3,0-0.4,0.1c-0.2,0-0.5,0.1-0.8,0.1c-0.1,0-0.3,0-0.4,0.1c-0.1,0-0.1,0-0.1,0
					c-0.1,0-0.1,0-0.1,0.1c-0.1,0-0.1,0.1-0.1,0.2c0,0.1,0.1,0.1,0.2,0.1c0.1,0,0.2,0,0.3,0c0.1,0,0.1,0,0.1,0c0.1,0,0.2,0,0.3,0
					c0.1,0,0.2,0,0.3,0c0.3,0,0.5-0.1,0.9-0.1c0.1,0,0.2,0,0.3,0s0.2,0,0.3-0.1l0,0l0,0c0.1,0,0.3,0,0.4,0c0.1,0,0.3,0,0.4-0.1
					c0.3,0,0.6-0.1,0.9-0.1c0.1,0,0.1,0,0.2,0c0.1,0,0.3,0,0.4-0.1c0.1,0,0.1,0,0.2,0c0.1,0,0.1,0,0.2,0c0.1,0,0.2,0,0.3,0
					c0.4-0.1,0.9-0.1,1.3-0.2c0.1,0,0.1,0,0.2,0c0.1,0,0.1,0,0.2,0c0.1,0,0.1,0,0.2,0c0.1,0,0.2,0,0.2,0c0.1,0,0.2,0,0.3,0h0.1
					c0.1,0,0.2,0,0.2,0c0.1,0,0.3,0,0.4-0.1c0.3,0,0.6-0.1,0.9-0.1c0.1,0,0.1,0,0.2,0c0.1,0,0.3,0,0.4-0.1c0.1,0,0.1,0,0.2,0
					c0.1,0,0.1,0,0.2,0c0.1,0,0.2,0,0.3,0c0.4-0.1,0.9-0.1,1.3-0.2c0.1,0,0.1,0,0.2,0c0.1,0,0.1,0,0.2,0c0.1,0,0.1,0,0.2,0
					c0.1,0,0.2,0,0.2,0c0.1,0,0.2,0,0.3,0s0.1,0,0.2,0c0.1,0,0.1,0,0.2,0c0,0,0.1,0,0.1-0.1C79,211.2,79,211.2,79,211.1L79,211.1z"
					/>
			</g>
		</g>
		<g id="XMLID_604_">
			<g id="XMLID_605_">
				<path id="XMLID_606_" class="st2" d="M41,213.4c0-0.1-0.1-0.1-0.2-0.1c-0.1,0-0.1,0-0.2,0s-0.2,0-0.2,0c-0.1,0-0.2,0-0.3,0
					c-0.1,0-0.1,0-0.2,0c-0.2,0-0.4,0-0.8,0c-0.1,0-0.2,0-0.3,0s-0.2,0-0.3,0c-0.1,0-0.1,0-0.2,0c-0.2,0-0.4,0-0.6,0
					c-0.2,0-0.3,0-0.5,0c-0.1,0-0.2,0-0.3,0c-0.1,0-0.1,0-0.2,0h-0.1c-0.2,0-0.3,0-0.5,0c-0.2,0-0.4,0-0.6,0c-0.2,0-0.4,0-0.6,0
					c0,0,0,0-0.1,0c0,0,0,0-0.1,0l0,0c-0.1,0-0.1,0-0.2,0s-0.3,0-0.4,0h-0.1c-0.1,0-0.1,0-0.2,0c-0.1,0-0.2,0-0.3,0
					c-0.1,0-0.2,0-0.2,0h-0.1h-0.1c-0.2,0-0.4,0-0.6,0s-0.3,0-0.5,0c-0.1,0-0.2,0-0.3,0c-0.1,0-0.1,0-0.2,0h-0.1c-0.2,0-0.3,0-0.5,0
					c-0.2,0-0.4,0-0.6,0c-0.2,0-0.4,0-0.6,0c-0.1,0-0.1,0-0.1,0c-0.1,0-0.1,0-0.2,0s-0.3,0-0.4,0c-0.2,0-0.5,0-0.8,0
					c-0.1,0-0.3,0-0.4,0c-0.1,0-0.1,0-0.1,0c-0.1,0-0.1,0-0.1,0c-0.1,0-0.1,0.1-0.1,0.1c0,0.1,0.1,0.1,0.1,0.1
					c0.1,0,0.2,0.1,0.2,0.1c0.1,0,0.1,0,0.1,0c0.1,0,0.2,0,0.3,0c0.1,0,0.2,0,0.2,0c0.2,0,0.5,0,0.9,0c0.1,0,0.2,0,0.3,0
					c0.1,0,0.2,0,0.3,0l0,0l0,0c0.1,0,0.2,0,0.4,0c0.1,0,0.3,0,0.4,0c0.3,0,0.6,0,1,0c0.1,0,0.1,0,0.2,0s0.3,0,0.4,0s0.1,0,0.2,0
					c0.1,0,0.1,0,0.2,0c0.1,0,0.2,0,0.3,0c0.4,0,0.9,0,1.3,0c0.1,0,0.1,0,0.2,0s0.1,0,0.2,0c0.1,0,0.1,0,0.2,0c0.1,0,0.2,0,0.2,0
					c0.1,0,0.2,0,0.2,0h0.1c0.1,0,0.2,0,0.2,0c0.1,0,0.3,0,0.4,0c0.3,0,0.6,0,1,0c0.1,0,0.1,0,0.2,0c0.1,0,0.3,0,0.4,0
					c0.1,0,0.1,0,0.2,0c0.1,0,0.1,0,0.2,0c0.1,0,0.2,0,0.3,0c0.4,0,0.9,0,1.3,0c0.1,0,0.1,0,0.2,0s0.1,0,0.2,0c0.1,0,0.1,0,0.2,0
					c0.1,0,0.2,0,0.2,0c0.1,0,0.2,0,0.2,0c0.1,0,0.1,0,0.2,0s0.1,0,0.2,0h0.1c0.1,0,0.1-0.1,0.1-0.1C41,213.4,41,213.4,41,213.4z"/>
			</g>
		</g>
		<g id="XMLID_599_">
			<g id="XMLID_600_">
				<g id="XMLID_601_">
					<g id="XMLID_602_">
						<path id="XMLID_603_" class="st2" d="M17.9,223.7c0.1-0.1,0.2-0.1,0.4-0.1c0.1,0,0.2,0,0.3,0c0.1,0,0.3,0,0.4,0
							c0.2,0,0.3,0,0.5,0c0.1,0,0.2,0,0.3,0c0.4,0,0.8,0,1.1,0c0.2,0,0.3,0,0.5,0c0.2,0,0.3,0,0.5,0c0.1,0,0.2,0,0.3,0
							c0.3,0,0.8,0,1.1,0s0.5,0,0.9,0c0.1,0,0.3,0,0.4,0c0.1,0,0.2,0,0.3,0c0.1,0,0.1,0,0.2,0c0.3,0,0.5,0,0.9,0c0.3,0,0.6,0,1,0
							s0.8,0,1.1,0h0.1h0.1l0,0c0.1,0,0.2,0,0.3,0c0.2,0,0.4,0,0.6,0c0.1,0,0.1,0,0.2,0s0.2,0,0.3,0c0.2,0,0.3,0,0.5,0
							c0.1,0,0.3,0,0.4,0s0.1,0,0.2,0c0.1,0,0.1,0,0.2,0c0.3,0,0.8,0,1.1,0s0.5,0,0.9,0c0.1,0,0.3,0,0.4,0c0.1,0,0.2,0,0.3,0
							c0.1,0,0.1,0,0.2,0c0.3,0,0.5,0,0.9,0s0.6,0,1,0s0.8,0,1.1,0c0.1,0,0.2,0,0.2,0c0.1,0,0.2,0,0.3,0c0.2,0,0.4,0,0.6,0
							c0.4,0,0.9,0.1,1.3,0.1c0.2,0,0.4,0,0.8,0c0.1,0,0.2,0,0.2,0c0.1,0,0.2,0,0.2,0.1c0.1,0,0.2,0.1,0.2,0.2
							c0,0.1-0.1,0.1-0.2,0.1c-0.1,0-0.3,0.1-0.4,0.1c-0.1,0-0.2,0-0.2,0c-0.1,0-0.3,0-0.4,0c-0.1,0-0.3,0-0.4,0c-0.4,0-0.9,0-1.3,0
							c-0.1,0-0.3,0-0.4,0c-0.2,0-0.3,0-0.5,0c0,0,0,0-0.1,0c0,0,0,0-0.1,0c-0.2,0-0.4,0-0.6,0c-0.2,0-0.4,0-0.8,0
							c-0.5,0-1,0-1.5-0.1c-0.1,0-0.2,0-0.3,0c-0.2,0-0.5,0-0.8,0c-0.1,0-0.2,0-0.3,0c-0.1,0-0.2,0-0.3,0c-0.2,0-0.3,0-0.5,0
							c-0.8,0-1.4,0-2.1-0.1c-0.1,0-0.2,0-0.3,0c-0.1,0-0.2,0-0.3,0c-0.1,0-0.2,0-0.3,0c-0.1,0-0.3,0-0.4,0s-0.3,0-0.4,0
							s-0.1,0-0.1,0c-0.1,0-0.2,0-0.4,0c-0.2,0-0.4,0-0.8,0c-0.5,0-1,0-1.5-0.1c-0.1,0-0.2,0-0.3,0c-0.2,0-0.5,0-0.8,0
							c-0.1,0-0.2,0-0.3,0c-0.1,0-0.2,0-0.3,0c-0.2,0-0.3,0-0.5,0c-0.8,0-1.4,0-2.1-0.1c-0.1,0-0.2,0-0.3,0c-0.1,0-0.2,0-0.3,0
							c-0.1,0-0.2,0-0.3,0c-0.1,0-0.3,0-0.4,0s-0.3,0-0.4,0c-0.1,0-0.2,0-0.3,0c-0.1,0-0.2,0-0.3,0c-0.1,0-0.1,0-0.2-0.1
							c-0.1,0-0.1-0.1-0.1-0.1C17.9,223.8,17.9,223.8,17.9,223.7z"/>
					</g>
				</g>
			</g>
		</g>
		<g id="XMLID_594_">
			<g id="XMLID_595_">
				<g id="XMLID_596_">
					<g id="XMLID_597_">
						<path id="XMLID_598_" class="st2" d="M35.6,224.3c-0.1,0-0.1,0-0.1-0.1v-0.1V224c0-0.1,0-0.1,0-0.2v-0.1c0-0.1,0-0.2,0.1-0.4
							V223c0,0,0-0.1,0.1-0.2v-0.1c0.1-0.1,0.1-0.2,0.1-0.3c0.1-0.1,0.1-0.2,0.1-0.3l0.1-0.1l0.1-0.1v-0.1c0.1-0.1,0.1-0.2,0.2-0.2
							c0.1-0.1,0.1-0.2,0.2-0.2c0.1-0.1,0.2-0.2,0.3-0.2l0,0l0,0l0,0L37,221l0.2-0.1c0,0,0,0,0.1,0l0.1-0.1l0.1-0.1
							c0,0,0.1,0,0.1-0.1c0,0,0,0,0.1,0c0,0,0,0,0.1,0s0.2-0.1,0.3-0.1c0.1,0,0.2,0,0.3-0.1h0.1h0.1h0.1c0.1,0,0.2,0,0.3-0.1
							c0.1,0,0.2,0,0.3,0c0.1,0,0.2,0,0.4,0h0.1h0.1c0.1,0,0.1,0,0.2,0s0.3,0.1,0.4,0.1c0.1,0,0.2,0,0.2,0.1h0.1c0,0,0,0.1,0.1,0.1
							c0,0.1,0,0.1,0,0.2c0,0.1-0.1,0.1-0.1,0.1H41h-0.1c-0.1,0-0.1,0-0.1,0h-0.1c-0.1,0-0.2-0.1-0.4-0.1c-0.1,0-0.1,0-0.1,0
							c-0.1,0-0.1,0-0.2,0l0,0l0,0c-0.1,0-0.1,0-0.2,0h-0.2c-0.1,0-0.3,0-0.4,0H39c-0.1,0-0.1,0-0.2,0.1h-0.1h-0.1
							c-0.1,0-0.1,0-0.1,0.1c-0.2,0.1-0.4,0.2-0.6,0.3c0,0-0.1,0-0.1,0.1h-0.1l-0.1,0.1l-0.1,0.1l-0.1,0.1l0,0l-0.1,0.1l-0.1,0.2
							c-0.1,0.1-0.2,0.2-0.3,0.3v0.1c0,0.1-0.1,0.1-0.1,0.2c0,0,0,0.1-0.1,0.1c0,0,0,0.1-0.1,0.1c0,0.1,0,0.1-0.1,0.2
							c-0.1,0.2-0.1,0.4-0.2,0.6v0.1v0.1v0.1v0.1v0.1v0.1v0.1c0,0,0,0-0.1,0.1C35.8,224.3,35.8,224.3,35.6,224.3L35.6,224.3z"/>
					</g>
				</g>
			</g>
		</g>
		<g id="XMLID_517_">
			<g id="XMLID_518_">
				<g id="XMLID_519_">
					<g id="XMLID_520_">
						<path id="XMLID_593_" class="st2" d="M23.6,219.5c-0.1,0-0.1,0.1-0.3,0c-0.1,0-0.1,0-0.2-0.1c-0.1,0-0.2-0.1-0.2-0.1
							c-0.1-0.1-0.2-0.1-0.3-0.2c-0.1,0-0.1-0.1-0.2-0.1c-0.2-0.1-0.4-0.3-0.5-0.4c-0.1-0.1-0.1-0.1-0.2-0.2
							c-0.1-0.1-0.1-0.2-0.2-0.2c-0.1-0.1-0.1-0.1-0.2-0.2c-0.1-0.2-0.3-0.4-0.3-0.5c-0.1-0.2-0.2-0.3-0.2-0.5l-0.1-0.3l-0.1-0.2
							v-0.1c-0.1-0.2-0.1-0.3-0.1-0.5s0-0.4,0-0.6s0.1-0.5,0.2-0.6v-0.1v-0.1l0,0c0-0.1,0.1-0.1,0.1-0.2c0.1-0.1,0.2-0.2,0.4-0.3
							c0,0,0.1,0,0.1-0.1c0.1,0,0.2-0.1,0.2-0.1c0.1,0,0.2,0,0.3,0c0.1,0,0.2,0,0.3,0c0.1,0,0.1,0,0.1,0h0.1
							c0.2,0.1,0.4,0.2,0.6,0.3c0.1,0.1,0.3,0.2,0.4,0.4c0.1,0.1,0.1,0.1,0.2,0.2c0.1,0.1,0.1,0.1,0.1,0.2l0.1,0.1
							c0.1,0.1,0.2,0.3,0.3,0.4c0.1,0.2,0.2,0.4,0.2,0.6c0.1,0.2,0.1,0.4,0.1,0.6c0,0.1,0,0.1,0,0.1c0,0.1,0,0.1,0,0.2
							c0,0.1,0,0.3,0,0.4c0,0.3-0.1,0.5-0.2,0.9c0,0.1-0.1,0.3-0.1,0.4c0,0.1,0,0.1-0.1,0.1l-0.1,0.1c-0.1,0.1-0.1,0.1-0.2,0
							c-0.1-0.1-0.1-0.1-0.1-0.2c0-0.1,0-0.2,0-0.2s0-0.1,0.1-0.1c0-0.1,0-0.2,0.1-0.2c0-0.1,0.1-0.1,0.1-0.2c0-0.2,0.1-0.5,0.1-0.8
							c0-0.1,0-0.2,0-0.3s0-0.2,0-0.3l0,0l0,0c0-0.1-0.1-0.2-0.1-0.3s-0.1-0.2-0.1-0.4c-0.1-0.3-0.2-0.5-0.4-0.8l-0.1-0.1
							c-0.1-0.1-0.2-0.2-0.3-0.3l-0.1-0.1l-0.1-0.1c-0.1-0.1-0.2-0.1-0.2-0.1c-0.3-0.2-0.8-0.3-1.1-0.1c-0.1,0-0.1,0-0.1,0.1
							c0,0-0.1,0-0.1,0.1l-0.1,0.1c0,0.1-0.1,0.1-0.1,0.2c0,0.1-0.1,0.1-0.1,0.2v0.1c0,0.1,0,0.1,0,0.2c0,0.1,0,0.2,0,0.4
							s0.1,0.5,0.1,0.9c0,0.1,0,0.1,0.1,0.1c0.1,0.1,0.1,0.3,0.2,0.4c0,0.1,0.1,0.1,0.1,0.2c0,0.1,0,0.1,0.1,0.2l0.2,0.2
							c0.2,0.3,0.5,0.6,0.9,1c0.1,0,0.1,0.1,0.2,0.1l0.1,0.1c0.1,0,0.1,0.1,0.2,0.1c0.1,0,0.1,0.1,0.2,0.1l0.2,0.1
							c0.1,0,0.1,0.1,0.2,0.1c0.1,0,0.1,0.1,0.2,0.1l0.1,0.1c0,0.1,0,0.1,0,0.2C23.7,219.4,23.6,219.5,23.6,219.5z"/>
					</g>
				</g>
			</g>
		</g>
		<g id="XMLID_512_">
			<g id="XMLID_513_">
				<g id="XMLID_514_">
					<g id="XMLID_515_">
						<path id="XMLID_516_" class="st2" d="M23.5,219.4c0,0.1-0.1,0.1-0.2,0.2c-0.1,0-0.1,0-0.2,0c-0.1,0-0.2,0-0.3,0
							c-0.1,0-0.2,0-0.3,0c-0.1,0-0.1,0-0.2,0c-0.2,0-0.5,0-0.8,0c-0.1,0-0.2,0-0.3-0.1c-0.1,0-0.2-0.1-0.3-0.1c-0.1,0-0.1,0-0.2,0
							c-0.2-0.1-0.4-0.1-0.6-0.2c-0.2-0.1-0.3-0.2-0.5-0.2l-0.2-0.1l-0.2-0.1l-0.1-0.1c-0.1-0.1-0.3-0.2-0.4-0.3
							c-0.1-0.1-0.3-0.3-0.4-0.5s-0.2-0.4-0.2-0.8c0,0,0,0,0-0.1v-0.1l0,0c0-0.1,0-0.1,0-0.2c0-0.2,0.1-0.3,0.1-0.4s0.1-0.1,0.1-0.1
							c0-0.1,0.1-0.1,0.2-0.2c0.1-0.1,0.2-0.2,0.3-0.2c0.1,0,0.2-0.1,0.3-0.1c0,0,0.1,0,0.1-0.1s0.1,0,0.1,0c0.2,0,0.5-0.1,0.8-0.1
							c0.2,0,0.4,0,0.5,0.1c0.1,0,0.2,0,0.3,0.1c0.1,0,0.1,0,0.2,0.1H21c0.2,0.1,0.3,0.1,0.5,0.2c0.2,0.1,0.3,0.2,0.5,0.3
							c0.2,0.1,0.3,0.3,0.5,0.5l0.1,0.1c0.1,0,0.1,0.1,0.1,0.2c0.1,0.1,0.2,0.2,0.2,0.3c0.1,0.2,0.2,0.5,0.3,0.8
							c0.1,0.1,0.1,0.3,0.1,0.4c0,0.1,0,0.1,0,0.2c0,0.1,0,0.1,0,0.2c0,0.1-0.1,0.1-0.1,0.1c-0.1,0-0.1-0.1-0.2-0.1
							c-0.1-0.1-0.1-0.1-0.1-0.2v-0.1c0-0.1,0-0.2-0.1-0.2c0-0.1,0-0.1-0.1-0.2c-0.1-0.2-0.2-0.4-0.3-0.6c-0.1-0.1-0.1-0.1-0.2-0.2
							c-0.1-0.1-0.1-0.1-0.2-0.2l0,0l0,0c-0.1,0-0.2-0.2-0.3-0.2c-0.1-0.1-0.2-0.2-0.3-0.2c-0.2-0.1-0.5-0.3-0.8-0.4
							c-0.1,0-0.1,0-0.2,0s-0.3-0.1-0.4-0.1s-0.1,0-0.2,0c-0.1,0-0.1,0-0.2,0s-0.2,0-0.3,0c-0.4,0-0.8,0.2-1,0.5
							c0,0.1,0,0.1-0.1,0.1c0,0,0,0.1-0.1,0.1c0,0.1,0,0.1,0,0.2c0,0.1,0,0.1,0,0.2c0,0.1,0,0.1,0,0.2v0.1c0,0.1,0,0.1,0.1,0.2
							c0,0.1,0.1,0.2,0.2,0.3c0.1,0.2,0.4,0.4,0.6,0.5l0.1,0.1c0.1,0.1,0.2,0.1,0.4,0.2c0.1,0,0.1,0.1,0.2,0.1s0.1,0.1,0.2,0.1
							l0.3,0.1c0.4,0.1,0.9,0.2,1.3,0.3c0.1,0,0.1,0,0.2,0c0.1,0,0.1,0,0.2,0s0.1,0,0.2,0c0.1,0,0.2,0,0.2,0h0.2c0.1,0,0.1,0,0.2,0
							s0.1,0,0.2,0h0.1c0.1,0,0.1,0.1,0.1,0.1C23.5,219.3,23.5,219.3,23.5,219.4z"/>
					</g>
				</g>
			</g>
		</g>
		<g id="XMLID_507_">
			<g id="XMLID_508_">
				<g id="XMLID_509_">
					<g id="XMLID_510_">
						<path id="XMLID_511_" class="st2" d="M26.6,219.5c0,0.1,0,0.1-0.1,0.1l0,0c0,0,0,0-0.1,0c0,0,0,0-0.1,0l0,0h-0.1
							c0,0,0,0-0.1,0c0,0,0,0-0.1,0l0,0h-0.1h-0.1c0,0,0,0-0.1,0l0,0l0,0h-0.1h-0.1h-0.1l0,0l0,0l0,0l0,0h-0.1l0,0l0,0
							c0,0,0,0-0.1,0c0,0,0,0-0.1,0l0,0l0,0h-0.1h-0.1c0,0,0,0-0.1,0l0,0l0,0h-0.1h-0.1h-0.1l0,0l0,0h-0.1c-0.1,0-0.1-0.1-0.1,0H24
							l0,0c0,0,0,0,0-0.1c0,0,0-0.1,0-0.2c0-0.1,0-0.1,0-0.2c0,0,0-0.1,0.1-0.1l0,0c0,0,0,0,0.1,0c0,0,0,0,0.1,0c0.1,0,0.1,0,0.2,0
							c0,0,0,0,0.1,0c0,0,0,0,0.1,0l0,0l0,0h0.1H25c0.1,0,0.1,0,0.2,0l0,0h0.1l0,0l0,0c0,0,0,0,0.1,0s0.2,0,0.2,0l0,0l0,0l0,0
							c0,0,0,0,0.1,0c0,0,0,0,0.1,0l0,0l0,0H26c0.1,0,0.1,0,0.2,0l0,0h0.1l0,0l0,0c0,0,0,0,0.1,0c0.1,0,0.2,0,0.2,0l0,0l0,0l0,0
							c0,0,0,0,0.1,0c0,0,0,0,0.1,0l0,0l0,0c0,0,0,0,0,0.1v0.1C26.6,219.4,26.6,219.4,26.6,219.5z"/>
					</g>
				</g>
			</g>
		</g>
		<g id="XMLID_502_">
			<g id="XMLID_503_">
				<g id="XMLID_504_">
					<g id="XMLID_505_">
						<path id="XMLID_506_" class="st2" d="M24.6,221.2c0,0.1,0,0.1-0.1,0.1l0,0c0,0,0,0-0.1,0h-0.1c0,0,0,0-0.1,0
							c-0.1,0-0.1,0-0.2,0h-0.1h-0.1c0,0,0,0-0.1,0s-0.1,0-0.2,0h-0.1c0,0,0,0-0.1,0c0,0,0,0-0.1,0l0,0H23c-0.1,0-0.1,0-0.1,0
							c-0.1,0-0.1,0-0.2,0l0,0l0,0l0,0c0,0,0,0-0.1,0h-0.1l0,0c0,0,0,0-0.1,0h-0.1c0,0,0,0-0.1,0l0,0l0,0c-0.1,0-0.1,0-0.2,0h-0.1
							c0,0,0,0-0.1,0c0,0,0,0-0.1,0l0,0h-0.1c-0.1,0-0.1,0-0.1,0c-0.1,0-0.1,0-0.2,0l0,0c0,0,0,0-0.1,0h-0.1c-0.1,0-0.1,0-0.2,0
							h-0.1l0,0c0,0,0,0,0-0.1c0,0,0-0.1,0-0.2c0-0.1,0-0.1,0-0.2c0,0,0-0.1,0.1-0.1l0,0c0,0,0,0,0.1,0c0,0,0,0,0.1,0s0.1,0,0.2,0
							h0.1h0.1l0,0l0,0h0.1h0.1c0.1,0,0.1,0,0.2,0l0,0h0.1c0,0,0,0,0.1,0c0,0,0,0,0.1,0h0.1c0.1,0,0.2,0,0.3,0c0,0,0,0,0.1,0l0,0
							c0,0,0,0,0.1,0c0,0,0,0,0.1,0c0.1,0,0,0,0.1,0l0,0c0,0,0,0,0.1,0h0.1c0.1,0,0.1,0,0.2,0l0,0h0.1c0,0,0,0,0.1,0c0,0,0,0,0.1,0
							h0.1c0.1,0,0.2,0,0.3,0c0,0,0,0,0.1,0l0,0c0,0,0,0,0.1,0c0,0,0,0,0.1,0c0,0,0,0,0.1,0c0,0,0,0,0.1,0c0,0,0,0,0.1,0
							c0,0,0,0,0,0.1v0.1C24.6,221.2,24.6,221.2,24.6,221.2z"/>
					</g>
				</g>
			</g>
		</g>
		<g id="XMLID_497_">
			<g id="XMLID_498_">
				<g id="XMLID_499_">
					<g id="XMLID_500_">
						<path id="XMLID_501_" class="st2" d="M56.8,224.8c0.1-0.1,0.1-0.1,0.3-0.2c0.1,0,0.2,0,0.3,0c0.1,0,0.3,0,0.4-0.1
							c0.2,0,0.3-0.1,0.5-0.1c0.1,0,0.2,0,0.3,0c0.3,0,0.8-0.1,1.1-0.1c0.1,0,0.3,0,0.4-0.1c0.1,0,0.3,0,0.5,0c0.1,0,0.2,0,0.3-0.1
							c0.3,0,0.8-0.1,1.1-0.1s0.5-0.1,0.9-0.1c0.1,0,0.3,0,0.4-0.1c0.1,0,0.2,0,0.3,0c0.1,0,0.1,0,0.2,0c0.3,0,0.5-0.1,0.9-0.1
							c0.3,0,0.6-0.1,1-0.1c0.3,0,0.6-0.1,1.1-0.1H67h0.1l0,0c0.1,0,0.2,0,0.3,0c0.2,0,0.4-0.1,0.6-0.1c0.1,0,0.1,0,0.2,0
							c0.1,0,0.2,0,0.3,0c0.1,0,0.3,0,0.4-0.1c0.1,0,0.3,0,0.4,0c0.1,0,0.1,0,0.2,0c0.1,0,0.1,0,0.2,0c0.3,0,0.8-0.1,1.1-0.1
							c0.3,0,0.5-0.1,0.9-0.1c0.1,0,0.3,0,0.4-0.1c0.1,0,0.2,0,0.3,0s0.1,0,0.2,0c0.3,0,0.5-0.1,0.9-0.1c0.3,0,0.6-0.1,1-0.1
							c0.3,0,0.6-0.1,1.1-0.1c0.1,0,0.1,0,0.2,0c0.1,0,0.2,0,0.3,0c0.2,0,0.4-0.1,0.6-0.1c0.4-0.1,0.9,0,1.3-0.1
							c0.2,0,0.4-0.1,0.8-0.1c0.1,0,0.2,0,0.2,0c0.1,0,0.2,0,0.2,0c0.1,0,0.2,0.1,0.2,0.1c0,0.1-0.1,0.1-0.2,0.2
							c-0.1,0.1-0.2,0.1-0.4,0.1c-0.1,0-0.2,0-0.2,0c-0.1,0-0.3,0-0.4,0.1c-0.1,0-0.3,0-0.4,0c-0.4,0.1-0.9,0.1-1.3,0.1
							c-0.1,0-0.3,0-0.4,0.1c-0.2,0-0.3,0-0.5,0c0,0,0,0-0.1,0c0,0,0,0-0.1,0c-0.2,0-0.4,0.1-0.6,0.1c-0.2,0-0.4,0-0.6,0.1
							c-0.5,0-1,0.1-1.5,0.1c-0.1,0-0.2,0-0.3,0c-0.2,0-0.5,0.1-0.8,0.1c-0.1,0-0.2,0-0.3,0s-0.2,0-0.3,0c-0.2,0-0.3,0.1-0.5,0.1
							c-0.8,0.1-1.4,0.1-2.1,0.2c-0.1,0-0.2,0-0.3,0c-0.1,0-0.2,0-0.3,0s-0.2,0-0.3,0.1c-0.1,0-0.3,0-0.4,0.1c-0.1,0-0.3,0-0.4,0.1
							c-0.1,0-0.1,0-0.1,0c-0.1,0-0.3,0-0.4,0c-0.2,0-0.4,0-0.6,0.1c-0.5,0-1,0.1-1.5,0.1c-0.1,0-0.2,0-0.3,0
							c-0.2,0-0.5,0.1-0.8,0.1c-0.1,0-0.2,0-0.3,0c-0.1,0-0.2,0-0.3,0c-0.2,0-0.3,0.1-0.5,0.1c-0.8,0.1-1.4,0.1-2.1,0.2
							c-0.1,0-0.2,0-0.3,0c-0.1,0-0.2,0-0.3,0c-0.1,0-0.2,0-0.3,0.1c-0.1,0-0.3,0-0.4,0.1c-0.1,0-0.3,0-0.4,0.1c-0.1,0-0.2,0-0.3,0
							c-0.1,0-0.2,0-0.3,0c-0.1,0-0.1,0-0.2,0s-0.1-0.1-0.2-0.1C56.7,224.9,56.7,224.8,56.8,224.8z"/>
					</g>
				</g>
			</g>
		</g>
		<g id="XMLID_492_">
			<g id="XMLID_493_">
				<g id="XMLID_494_">
					<g id="XMLID_495_">
						<path id="XMLID_496_" class="st2" d="M74.3,222.8c-0.1,0-0.1,0-0.2-0.1v-0.1v-0.1c0-0.1,0-0.1,0-0.2v-0.1c0-0.1,0-0.2,0-0.4
							v-0.2c0,0,0-0.1,0-0.2v-0.1c0-0.1,0-0.2,0.1-0.3c0-0.1,0.1-0.2,0.1-0.3l0.1-0.1c0,0,0-0.1,0.1-0.1v-0.1c0-0.1,0.1-0.2,0.1-0.3
							c0.1-0.1,0.1-0.2,0.2-0.3c0.1-0.1,0.1-0.2,0.2-0.3l0,0l0,0l0,0c0,0,0-0.1,0.1-0.1l0.2-0.2c0,0,0,0,0.1-0.1l0.1-0.1l0.1-0.1
							c0,0,0.1,0,0.1-0.1c0,0,0,0,0.1-0.1c0,0,0,0,0.1,0s0.2-0.1,0.3-0.2c0.1,0,0.2-0.1,0.3-0.1l0.1-0.1h0.1H77
							c0.1,0,0.2-0.1,0.3-0.1s0.2,0,0.3-0.1c0.1,0,0.2,0,0.3,0h0.1h0.1c0.1,0,0.1,0,0.2,0c0.1,0,0.3,0.1,0.4,0.1c0.1,0,0.2,0,0.2,0
							h0.1l0.1,0.1c0,0.1,0,0.1,0,0.2s-0.1,0.1-0.1,0.1h-0.1H79c-0.1,0-0.1,0-0.1,0h-0.1c-0.1,0-0.2,0-0.4,0c-0.1,0-0.1,0-0.1,0
							c-0.1,0-0.1,0-0.2,0l0,0l0,0c-0.1,0-0.1,0-0.2,0h-0.2c-0.1,0-0.3,0.1-0.4,0.1H77c-0.1,0-0.1,0.1-0.2,0.1h-0.1h-0.1l-0.1,0.1
							c-0.2,0.1-0.4,0.2-0.5,0.4c0,0,0,0-0.1,0.1c0,0-0.1,0-0.1,0.1c0,0,0,0.1-0.1,0.1c0,0,0,0.1-0.1,0.1c-0.1,0-0.1,0.1-0.1,0.1
							l0,0c0,0,0,0.1-0.1,0.1l-0.1,0.2c-0.1,0.1-0.1,0.2-0.2,0.4v0.1c0,0.1,0,0.1-0.1,0.2v0.1v0.1c0,0.1,0,0.1,0,0.2
							c0,0.2-0.1,0.4-0.1,0.6v0.1v0.1v0.1v0.1v0.1v0.1v0.1c0,0,0,0,0,0.1l-0.1,0.1C74.3,222.8,74.3,222.8,74.3,222.8z"/>
					</g>
				</g>
			</g>
		</g>
		<g id="XMLID_487_">
			<g id="XMLID_488_">
				<g id="XMLID_489_">
					<g id="XMLID_490_">
						<path id="XMLID_491_" class="st2" d="M61.8,219.7c-0.1,0.1-0.1,0.1-0.3,0.1c-0.1,0-0.1,0-0.2,0s-0.2-0.1-0.2-0.1
							c-0.1,0-0.2-0.1-0.3-0.1c-0.1,0-0.1-0.1-0.2-0.1c-0.2-0.1-0.4-0.2-0.6-0.3c-0.1-0.1-0.2-0.1-0.2-0.2c-0.1-0.1-0.1-0.1-0.2-0.2
							c-0.1,0-0.1-0.1-0.2-0.1c-0.1-0.2-0.3-0.3-0.4-0.5c-0.1-0.1-0.2-0.3-0.3-0.4l-0.1-0.2l-0.1-0.2l-0.1-0.1
							c-0.1-0.2-0.2-0.3-0.2-0.5c-0.1-0.2-0.1-0.4-0.1-0.6c0-0.2,0-0.5,0.1-0.8v-0.1V215l0,0c0-0.1,0.1-0.1,0.1-0.2
							c0.1-0.1,0.2-0.2,0.3-0.3l0.1-0.1c0.1,0,0.1-0.1,0.2-0.1c0.1,0,0.2-0.1,0.3-0.1c0.1,0,0.2,0,0.3,0c0.1,0,0.1,0,0.1,0h0.1
							c0.2,0.1,0.5,0.1,0.6,0.2c0.2,0.1,0.3,0.2,0.4,0.3c0.1,0.1,0.1,0.1,0.2,0.2c0.1,0.1,0.1,0.1,0.2,0.2l0.1,0.1
							c0.1,0.1,0.2,0.3,0.3,0.4c0.1,0.2,0.2,0.3,0.3,0.5c0.1,0.2,0.2,0.4,0.2,0.6c0,0.1,0,0.1,0,0.1c0,0.1,0,0.1,0,0.2
							c0,0.1,0,0.3,0.1,0.4c0,0.3,0,0.5-0.1,0.9c0,0.1,0,0.3-0.1,0.4c0,0.1,0,0.1-0.1,0.2c0,0.1-0.1,0.1-0.1,0.1
							c-0.1,0.1-0.1,0.1-0.2,0c-0.1,0-0.1-0.1-0.1-0.2c0-0.1,0-0.2,0-0.2v-0.1c0-0.1,0-0.2,0-0.2c0-0.1,0-0.2,0-0.2
							c0-0.2,0-0.5,0-0.8c0-0.1,0-0.2-0.1-0.3c0-0.1,0-0.2-0.1-0.3l0,0l0,0c0-0.1-0.1-0.2-0.1-0.3s-0.1-0.2-0.2-0.3
							c-0.1-0.2-0.3-0.5-0.5-0.6l-0.1-0.1c-0.1-0.1-0.2-0.2-0.3-0.2c-0.1,0-0.1-0.1-0.2-0.1s-0.1-0.1-0.1-0.1
							c-0.1,0-0.2-0.1-0.3-0.1c-0.3-0.1-0.8-0.2-1.1,0L58,215c0,0-0.1,0-0.1,0.1l-0.1,0.1c0,0.1-0.1,0.1-0.1,0.2
							c0,0.1,0,0.1-0.1,0.2v0.1c0,0.1,0,0.1,0,0.2s0,0.2,0,0.4c0,0.3,0.1,0.5,0.2,0.8c0,0.1,0,0.1,0.1,0.1c0.1,0.1,0.1,0.2,0.2,0.3
							c0,0.1,0.1,0.1,0.1,0.2c0,0.1,0,0.1,0.1,0.1l0.2,0.2c0.3,0.3,0.6,0.6,1,0.9c0.1,0,0.1,0.1,0.2,0.1l0.1,0.1
							c0.1,0,0.1,0.1,0.2,0.1c0.1,0,0.1,0.1,0.2,0.1l0.2,0.1c0.1,0,0.1,0.1,0.2,0.1s0.1,0,0.2,0.1l0.1,0.1
							C61.8,219.5,61.9,219.6,61.8,219.7C61.9,219.7,61.8,219.7,61.8,219.7z"/>
					</g>
				</g>
			</g>
		</g>
		<g id="XMLID_482_">
			<g id="XMLID_483_">
				<g id="XMLID_484_">
					<g id="XMLID_485_">
						<path id="XMLID_486_" class="st2" d="M61.6,219.6c0,0.1-0.1,0.1-0.2,0.2c-0.1,0-0.1,0-0.2,0.1c-0.1,0-0.2,0-0.3,0.1
							c-0.1,0-0.2,0.1-0.3,0.1c-0.1,0-0.1,0-0.2,0c-0.2,0-0.4,0.1-0.8,0.1c-0.1,0-0.2,0-0.3,0c-0.1,0-0.2,0-0.3,0
							c-0.1,0-0.1,0-0.2,0c-0.2,0-0.4-0.1-0.6-0.1c-0.2-0.1-0.3-0.1-0.5-0.2l-0.2-0.1l-0.2-0.1l-0.1-0.1c-0.2-0.1-0.3-0.2-0.4-0.3
							c-0.2-0.1-0.3-0.3-0.4-0.4c-0.1-0.2-0.2-0.4-0.3-0.6c0,0,0,0,0-0.1V218l0,0c0-0.1,0-0.1,0-0.2c0-0.2,0-0.3,0.1-0.5
							c0-0.1,0-0.1,0.1-0.1c0-0.1,0.1-0.2,0.1-0.2c0.1-0.1,0.1-0.2,0.2-0.3s0.2-0.1,0.2-0.2l0.1-0.1c0,0,0.1,0,0.1-0.1
							c0.2-0.1,0.4-0.2,0.6-0.2c0.2,0,0.4,0,0.5,0c0.1,0,0.2,0,0.3,0c0.1,0,0.1,0,0.2,0h0.1c0.2,0,0.3,0.1,0.5,0.1
							c0.2,0.1,0.4,0.2,0.5,0.3c0.2,0.1,0.4,0.2,0.5,0.4l0.1,0.1c0.1,0,0.1,0.1,0.2,0.1c0.1,0.1,0.2,0.2,0.3,0.3
							c0.2,0.2,0.3,0.4,0.4,0.8c0.1,0.1,0.1,0.3,0.2,0.4c0,0.1,0,0.1,0,0.2c0,0.1,0,0.1,0,0.2c0,0.1-0.1,0.2-0.1,0.2s-0.1,0-0.2-0.1
							c-0.1,0-0.1-0.1-0.1-0.2c0,0,0-0.1-0.1-0.1c0-0.1-0.1-0.1-0.1-0.2c0-0.1-0.1-0.1-0.1-0.2c-0.1-0.2-0.3-0.4-0.4-0.6
							c-0.1-0.1-0.1-0.1-0.2-0.2c-0.1-0.1-0.1-0.1-0.2-0.2l0,0l0,0c-0.1,0-0.2-0.1-0.3-0.2c-0.1-0.1-0.2-0.1-0.3-0.2
							c-0.2-0.1-0.5-0.2-0.9-0.3c-0.1,0-0.1,0-0.2,0s-0.3,0-0.4,0c-0.1,0-0.1,0-0.2,0s-0.1,0-0.2,0c-0.1,0-0.2,0-0.3,0.1
							c-0.4,0.1-0.8,0.3-0.9,0.6c0,0.1,0,0.1-0.1,0.2v0.1c0,0.1,0,0.1,0,0.2c0,0.1,0,0.1,0,0.2c0,0.1,0,0.1,0.1,0.2v0.1
							c0,0.1,0.1,0.1,0.1,0.2c0.1,0.1,0.1,0.2,0.2,0.3c0.2,0.2,0.4,0.3,0.6,0.5c0.1,0,0.1,0,0.1,0.1c0.1,0,0.3,0.1,0.4,0.1
							c0.1,0,0.1,0,0.2,0.1c0.1,0,0.1,0,0.2,0.1l0.3,0.1c0.4,0.1,0.9,0.1,1.3,0.1c0.1,0,0.1,0,0.2,0s0.1,0,0.2,0c0.1,0,0.1,0,0.2,0
							c0.1,0,0.1,0,0.2,0l0.2-0.1c0.1,0,0.1,0,0.2,0c0.1,0,0.1,0,0.2,0h0.1C61.6,219.5,61.6,219.5,61.6,219.6
							C61.6,219.5,61.6,219.6,61.6,219.6z"/>
					</g>
				</g>
			</g>
		</g>
		<g id="XMLID_477_">
			<g id="XMLID_478_">
				<g id="XMLID_479_">
					<g id="XMLID_480_">
						<path id="XMLID_481_" class="st2" d="M64.8,219.3c0,0.1,0,0.1,0,0.1l0,0c0,0,0,0-0.1,0c0,0,0,0-0.1,0l0,0h-0.1c0,0,0,0-0.1,0
							c0,0,0,0-0.1,0l0,0h-0.1H64c0,0,0,0-0.1,0l0,0l0,0h-0.1h-0.1h-0.1l0,0l0,0l0,0l0,0h-0.1l0,0l0,0c0,0,0,0-0.1,0c0,0,0,0-0.1,0
							l0,0l0,0h-0.1h-0.1c0,0,0,0-0.1,0l0,0l0,0h-0.1h-0.1h-0.1l0,0l0,0h-0.1c-0.1,0-0.1,0-0.1,0h-0.1l0,0c0,0,0,0,0-0.1
							c0,0,0-0.1,0-0.2c0-0.1,0-0.1,0-0.2c0,0,0-0.1,0.1-0.1l0,0c0,0,0,0,0.1,0c0,0,0,0,0.1,0s0.1,0,0.2,0c0,0,0,0,0.1,0
							c0,0,0,0,0.1,0l0,0l0,0h0.1h0.1c0.1,0,0.1,0,0.2,0l0,0h0.1l0,0l0,0c0,0,0,0,0.1,0c0.1,0,0.2,0,0.2,0l0,0l0,0l0,0
							c0,0,0,0,0.1,0c0,0,0,0,0.1,0l0,0l0,0h0.1c0.1,0,0.1,0,0.2,0l0,0h0.1l0,0l0,0c0,0,0,0,0.1,0c0.1,0,0.2,0,0.2,0l0,0l0,0l0,0
							c0,0,0,0,0.1,0c0,0,0,0,0.1,0l0,0l0,0c0,0,0,0,0,0.1C64.7,219.1,64.7,219.2,64.8,219.3C64.8,219.2,64.8,219.3,64.8,219.3z"/>
					</g>
				</g>
			</g>
		</g>
		<g id="XMLID_472_">
			<g id="XMLID_473_">
				<g id="XMLID_474_">
					<g id="XMLID_475_">
						<path id="XMLID_476_" class="st2" d="M62.9,221.3c0,0.1,0,0.1,0,0.1l0,0c0,0,0,0-0.1,0h-0.1c0,0,0,0-0.1,0c-0.1,0-0.1,0-0.2,0
							h-0.1h-0.1c0,0,0,0-0.1,0c-0.1,0-0.1,0-0.2,0h-0.1c0,0,0,0-0.1,0c0,0,0,0-0.1,0l0,0h-0.1c-0.1,0-0.1,0-0.1,0
							c-0.1,0-0.1,0-0.2,0l0,0l0,0l0,0c0,0,0,0-0.1,0h-0.1l0,0c0,0,0,0-0.1,0h-0.1c0,0,0,0-0.1,0l0,0l0,0c-0.1,0-0.1,0-0.2,0h-0.1
							c0,0,0,0-0.1,0c0,0,0,0-0.1,0l0,0h-0.1c-0.1,0-0.1,0-0.1,0c-0.1,0-0.1,0-0.2,0l0,0c0,0,0,0-0.1,0h-0.1c-0.1,0-0.1,0-0.2,0
							h-0.1l0,0c0,0,0,0,0-0.1c0,0,0-0.1,0-0.2c0-0.1,0-0.1,0-0.2s0-0.1,0.1-0.1l0,0c0,0,0,0,0.1,0c0,0,0,0,0.1,0s0.1,0,0.2,0
							c0,0,0,0,0.1,0h0.1l0,0l0,0h0.1H60c0.1,0,0.1,0,0.2,0l0,0h0.1c0,0,0,0,0.1,0c0,0,0,0,0.1,0h0.1c0.1,0,0.2,0,0.3,0
							c0,0,0,0,0.1,0l0,0c0,0,0,0,0.1,0c0,0,0,0,0.1,0c0,0,0,0,0.1,0l0,0c0,0,0,0,0.1,0h0.1c0.1,0,0.1,0,0.2,0l0,0H62c0,0,0,0,0.1,0
							c0,0,0,0,0.1,0h0.1c0.1,0,0.2,0,0.3,0c0,0,0,0,0.1,0l0,0c0,0,0,0,0.1,0c0,0,0,0,0.1,0c0,0,0,0,0.1,0c0,0,0,0,0.1,0
							c0,0,0,0,0.1,0c0,0,0,0,0,0.1v0.1C62.9,221.3,62.9,221.3,62.9,221.3z"/>
					</g>
				</g>
			</g>
		</g>
	</g>
	<g>
		<g>
			<g>
				<g>
					<path class="st3" d="M97.9,82.5c0,0,1.2-0.3-1-3.2c-2.1-2.8-6.7-7.1-6.7-7.1S88.1,79.7,97.9,82.5z"/>
				</g>
			</g>
		</g>
	</g>
	<g>
		<g>
			<g>
				<g>
					<polygon class="st4" points="89.4,75.8 96.4,65.4 100.6,67.3 94.5,80.5 					"/>
				</g>
			</g>
		</g>
	</g>
	<g>
		<path class="st1" d="M97.9,82.5c0,0-4,3.3-8.5,10.6c-0.9,1.4-1.7,2.6-2.7,3.7c-3.5,4-7.6,5.5-10.5,3.2c-0.4-0.3-0.9-0.8-1.3-1.2
			c-1.2-1.5-2.6-4.2-3.9-7.2c-2.8-6.4-5.4-14.3-5.4-14.3l3.7-8.5l5.3-3.1l0.4,1.2l1.9,6.3l4.2,11.9l9.2-13v0.1
			c0.4,2.1,1.4,4.2,2.7,6C94.2,80,95.9,81.5,97.9,82.5z"/>
	</g>
	<g>
		<g>
			<g>
				<g>
					<path class="st0" d="M86.8,96.9c-3.5,4-7.6,5.5-10.5,3.2c1.9-1.7,6-4.8,9.7-3.7C86.3,96.5,86.5,96.6,86.8,96.9z"/>
				</g>
			</g>
		</g>
	</g>
	<g>
		<g>
			<g>
				<g>
					<g>
						<path class="st2" d="M80.8,85c-1.3,2.3-2.3,4.7-3,7.2c-0.1,0.3,0.3,0.4,0.4,0.1c0.8-2.5,1.7-4.8,2.9-7.1
							C81.3,85,80.9,84.8,80.8,85L80.8,85z"/>
					</g>
				</g>
			</g>
		</g>
	</g>
	<g>
		<g>
			<g>
				<g>
					<g>
						<path class="st2" d="M79.6,87.4c-0.8,0.6-1.4,1.3-2.1,1.9c-0.2,0.2,0.1,0.5,0.3,0.3c0.8-0.6,1.4-1.3,2.1-1.9
							C80.1,87.5,79.8,87.2,79.6,87.4L79.6,87.4z"/>
					</g>
				</g>
			</g>
		</g>
	</g>
	<g>
		<g>
			<g>
				<g>
					<path class="st3" d="M12.5,83.8c0,0-1.2-0.4,1-3.4c2.3-3,7.2-7.6,7.2-7.6S23.2,80.7,12.5,83.8z"/>
				</g>
			</g>
		</g>
	</g>
	<g>
		<g>
			<g>
				<g>
					<polygon class="st4" points="21.8,76.5 14.3,65.4 9.7,67.4 16.2,81.6 					"/>
				</g>
			</g>
		</g>
	</g>
	<g>
		<path class="st1" d="M12.5,83.8c0,0,4.3,3.5,9.1,11.4c0.9,1.5,1.8,2.8,2.9,4c3.8,4.3,8.2,5.8,11.3,3.5c0.4-0.3,1-0.8,1.4-1.3
			c1.3-1.6,2.7-4.5,4.1-7.6c3-6.9,5.7-15.4,5.7-15.4l-3.9-9.1l-2.8-6.7l-1.1,2.7L35.9,74l-5.2,12.7l-9.9-14v0.1
			c-0.5,2.4-1.5,4.5-2.9,6.4C16.5,81.1,14.7,82.7,12.5,83.8z"/>
	</g>
	<g>
		<g>
			<g>
				<g>
					<path class="st0" d="M24.6,99.1c3.8,4.3,8.2,5.8,11.3,3.5c-2-1.8-6.4-5.2-10.4-3.9C25.1,98.8,24.8,98.9,24.6,99.1z"/>
				</g>
			</g>
		</g>
	</g>
	<g>
		<g>
			<g>
				<g>
					<g>
						<path class="st5" d="M30.9,86.4c1.3,2.5,2.4,5.1,3.2,7.7c0.1,0.3-0.3,0.4-0.4,0.1c-0.8-2.7-1.8-5.2-3.1-7.6
							C30.4,86.4,30.8,86.2,30.9,86.4L30.9,86.4z"/>
					</g>
				</g>
			</g>
		</g>
	</g>
	<g>
		<g>
			<g>
				<g>
					<g>
						<path class="st2" d="M32.2,89c0.8,0.6,1.5,1.4,2.4,2c0.2,0.2-0.1,0.5-0.3,0.3c-0.8-0.6-1.5-1.4-2.4-2
							C31.6,89.1,32,88.8,32.2,89L32.2,89z"/>
					</g>
				</g>
			</g>
		</g>
	</g>
	<g>
		<path class="st1" d="M75.1,68.8c-0.2,3.1-1.7,6.9-3,9.8c-0.6,1.3-1.1,3-1.5,4.8c-1.2,5.4-1.5,11.5-1.5,11.5
			c-11.3,0.5-24,1.8-27.4,0.6c0,0-0.1-0.9-0.3-2c-0.3-1.9-0.9-4.9-1.3-7.1c-0.5-3-1.2-8.2-1.3-13.4c0-0.6,0-1.3,0-1.9
			c0-2.1,0.2-4.2,0.6-6c0.8-3.2,2-5.8,3.9-6.8c1-0.5,3.1-0.6,5.6-0.5c2.7,0.1,5.7,0.4,8.1,0.8c2,0.2,3.4,0.4,3.4,0.4
			s0.3,0.1,0.8,0.3c0.2,0.1,0.5,0.2,0.9,0.3c2.3,1,6.4,2.7,10.3,3.9c1.2,0.3,1.9,1.1,2.5,1.9C75,66.4,75.2,67.6,75.1,68.8z"/>
	</g>
	<g>
		<g>
			<g>
				<g>
					<path class="st6" d="M59.8,55.4c0,0,1.1-3.5,5.8-6.1c4.7-2.7,5.4-10.6,0.3-14.6c-1.3-1-2.6-1.3-3.3-1.9
						c-4.3-4.4-10.1-1.5-12.9,0.9c-3.2,2.7-1.4,5.7-1,8.6C49.2,44.7,59.8,55.4,59.8,55.4z"/>
				</g>
			</g>
		</g>
	</g>
	<g>
		<path class="st6" d="M64.1,34.3l2.7,2.9c7.6-3.8,14,6.4,14,6.4c1.7-0.9,3-1.9,4-3l-1.2-1.8l1.7,1.2c0.9-1.2,1.4-2.4,1.7-3.3
			l-2.6-2.5l2.8,1.5c0.2-1.2,0.2-2,0.2-2C76.3,22.3,64.1,34.3,64.1,34.3z"/>
	</g>
	<g>
		<g>
			<path class="st3" d="M65,33.8c1.4,0.4,2.6,1.4,3,2.8c0.1,0.2,0.4,0.1,0.4-0.1c-0.5-1.5-1.7-2.7-3.3-3.1
				C64.8,33.3,64.7,33.7,65,33.8L65,33.8z"/>
		</g>
	</g>
	<g>
		<g>
			<g>
				<g>
					<g>
						<g>
							<path class="st4" d="M61.2,48.2l-0.1,1.3v1v1L60.6,61c-2,2.1-11.3,3.5-10.3-1.7l1.1-2.9l1-2.7l0.2-0.5l0.9-2.3L61.2,48.2z"/>
						</g>
					</g>
				</g>
			</g>
		</g>
		<path class="st4" d="M61.6,59.7c0,0-3.5,7.2-10,5.9c-4.1-0.8-1.3-6.4-1.3-6.4s3.3-0.4,6.3-0.6c2,0.2,3.4,0.4,3.4,0.4
			s0.3,0.1,0.8,0.3C61,59.5,61.2,59.6,61.6,59.7z"/>
		<g>
			<g>
				<g>
					<g>
						<g>
							<path class="st3" d="M59,51.6c-4.1,5.2-7.3,6.7-8.3,6.3l1.8-4.8L59,51.6z"/>
						</g>
					</g>
				</g>
			</g>
		</g>
	</g>
	<g>
		<g>
			<g>
				<g>
					<g>
						<path class="st4" d="M63.7,46.9c-0.5,1.2-1.1,1.9-1.7,2.6c-0.3,0.3-0.5,0.5-0.9,0.9c-0.2,0.1-0.3,0.3-0.5,0.5
							c-0.2,0.2-0.5,0.4-0.9,0.8c-1.9,1.7-4.7,2.3-6,2.1c-0.4,0-1-0.1-1.3-0.2c-3.9-0.8-5.3-3.3-3.7-9.1c1.2-4,0.4-6.4,1.7-7.8l0,0
							c0.1-0.1,0.2-0.1,0.2-0.2c2-1.4,4.5-1.8,6.9-1.4C69.3,37,65.3,43.8,63.7,46.9z"/>
					</g>
				</g>
			</g>
		</g>
	</g>
	<path class="st3" d="M62,49.6c-0.3,0.3-0.5,0.5-0.9,0.9v1c-0.2-0.1-0.3-0.3-0.5-0.4c-0.5-0.6-0.6-1.5-0.6-1.5
		c0.1-0.1,0.6-0.1,1.2,0C61.4,49.5,61.8,49.5,62,49.6z"/>
	<g>
		<g>
			<g>
				<g>
					<path class="st6" d="M51.6,34.5c0,0-3.5,1.8-2.5,2.8c1.1,1,6.9-3.8,10.3,3.2c0.9,1.7-0.4,3.4,2.4,4.6c2.8,1.2,3.4,1,4.5-1.5
						c1-2.5-1.2-8.6-7.2-9.7C53,32.8,51.6,34.5,51.6,34.5z"/>
				</g>
			</g>
		</g>
	</g>
	<g>
		<g>
			<g>
				<g>
					<path class="st6" d="M55,36.1c0,0-0.4,6,5.8,7.2C67.1,44.5,63.5,35.1,55,36.1z"/>
				</g>
			</g>
		</g>
	</g>
	<g>
		<g>
			<path class="st3" d="M55.2,36.7c0.9-2.1,3.3-2.4,5.4-2.5c0.2,0,0.2-0.3,0-0.3c-2.1,0.1-4.7,0.4-5.7,2.8
				C54.8,36.8,55.1,36.9,55.2,36.7L55.2,36.7z"/>
		</g>
	</g>
	<g>
		<g>
			<g>
				<g>
					<path class="st6" d="M64,39.3c-0.8,0-2,0.2-2.8,0.6c-0.4,1.7-2.5,6.2-0.5,7c2.8,1.2,2.5,3.2,4.7-1.5c0.9-1.8,1.2-4.4,0.4-6
						C65.3,39.4,64.7,39.4,64,39.3z"/>
				</g>
			</g>
		</g>
	</g>
	<g>
		<g>
			<g>
				<g>
					<g>
						<g>
							<g>
								<path class="st4" d="M58.8,47.9C58.6,47,59,46,59.6,45.4c0.9-0.9,2.4-2,3.4-1.7c1.6,0.5,1.5,2,1,3.5
									c-0.4,1.5-1.8,3.2-3.9,2.5C59.2,49.4,58.9,48.5,58.8,47.9z"/>
							</g>
						</g>
					</g>
				</g>
			</g>
		</g>
		<path class="st2" d="M60.7,48.6l-1.9,2.6c-0.1,0.1,0,0.3,0.1,0.3l2.9,0.3c0.2,0,0.3-0.1,0.2-0.3l-1-2.9
			C61.1,48.5,60.8,48.5,60.7,48.6z"/>
		<g>
			<g>
				<g>
					<g>
						<g>
							<g>
								<g>
									<g>
										<path class="st3" d="M61,48c0-0.6,0.1-1.3,0.4-1.8c0.3-0.5,1.1-1.2,1.7-0.8c0.2,0.1,0.4-0.2,0.2-0.3
											c-0.6-0.3-1.3-0.1-1.8,0.4c-0.6,0.6-0.9,1.6-1,2.5C60.6,48.2,61,48.2,61,48L61,48z"/>
									</g>
								</g>
							</g>
						</g>
					</g>
				</g>
			</g>
		</g>
	</g>
	<g>
		<g>
			<g>
				<g>
					<path class="st6" d="M56.7,40.3c0,0,0.2,1.2,1.5,3.4c1.2,2,0.5,3.5-0.4,5.2c-1,1.7,1.8,3.7,1.8,3.7s-1-2.8,0.3-4.9
						c1.3-2.3,1.5-5.6,0.2-6.1C58.8,40.8,56.7,40.3,56.7,40.3z"/>
				</g>
			</g>
		</g>
	</g>
	<g>
		<g>
			<path class="st3" d="M61,44.2c1.2-1.3,3-1.7,4.7-1.1c0.2,0.1,0.3-0.3,0.1-0.3c-1.7-0.6-3.8-0.1-5.1,1.2
				C60.6,44.1,60.9,44.4,61,44.2L61,44.2z"/>
		</g>
	</g>
	<g>
		<g>
			<g>
				<g>
					<path class="st2" d="M64.5,60.9c0,3.7,3,6.6,6.7,6.6c1.4,0,2.7-0.4,3.8-1.2c0-0.1-0.1-0.3-0.2-0.4c-1,0.8-2.3,1.2-3.5,1.2
						c-3.3,0-6-2.7-6.1-5.9C64.8,61,64.6,61,64.5,60.9z"/>
				</g>
			</g>
		</g>
		<g>
			<g>
				<g>
					<path class="st2" d="M38.6,67.1c0.1,0.1,0.3,0.1,0.4,0.1c0.6,0.2,1.4,0.3,2,0.3c0.5,0,1-0.1,1.5-0.2c2.9-0.6,5.2-3.3,5.2-6.4
						c0-1.1-0.3-2.1-0.8-3.1c-0.2,0-0.3,0-0.5,0c0.5,0.9,0.9,1.9,0.9,3.1c0,3-2,5.5-4.8,6l0,0C42,67,41.6,67,41.1,67
						c-0.8,0-1.4-0.1-2-0.3c-0.1,0-0.2-0.1-0.3-0.1L38.6,67.1z"/>
				</g>
			</g>
		</g>
		<g>
			<g>
				<g>
					<g>
						<g>
							<g>
								<g>
									<path class="st2" d="M52,72.7c0,3.7,3,6.7,6.7,6.7c3.7,0,6.7-3,6.7-6.7c0-3.7-3-6.7-6.7-6.7C55,66,52,69,52,72.7z
										 M52.4,72.7c0-3.4,2.8-6.1,6.1-6.1c3.4,0,6.1,2.8,6.1,6.1c0,3.4-2.8,6.1-6.1,6.1C55.2,78.8,52.4,76.1,52.4,72.7z"/>
								</g>
							</g>
						</g>
					</g>
				</g>
			</g>
		</g>
		<g>
			<g>
				<g>
					<path class="st2" d="M36.6,77.7c0.4,1.6,1.4,2.9,2.7,3.8c1,0.6,2,1,3.2,1c1.3,0,2.5-0.4,3.5-1.1l0,0c1.6-1.1,2.7-3,2.7-5.1
						c0-3-2.1-5.6-5.1-6.1c-0.3-0.1-0.8-0.1-1.1-0.1c-1.2,0-2.4,0.3-3.3,1c-0.1,0.1-0.3,0-0.3-0.1l0,0c0-0.1,0-0.2,0.1-0.2
						c1.1-0.6,2.3-1.1,3.5-1.1c0.3,0,0.5,0,0.9,0.1c3.2,0.4,5.8,3.2,5.8,6.6c0,2.5-1.4,4.6-3.3,5.8c-1,0.5-2,0.9-3.2,0.9
						s-2.3-0.3-3.2-0.9c-1.4-0.8-2.6-2.1-3.1-3.8C36.4,78.2,36.5,77.9,36.6,77.7z"/>
				</g>
			</g>
		</g>
		<g>
			<g>
				<g>
					<path class="st2" d="M68.1,79.8c0.2,0,0.4,0,0.5,0c0,0.1-0.1,0.3-0.1,0.4c-0.1,0-0.3,0-0.4,0c-3.4,0-6.1,2.8-6.1,6.1
						c0,3.1,2.3,5.6,5.2,6.1c0,0.1,0,0.3,0.1,0.4c-3.2-0.4-5.7-3.2-5.7-6.6C61.4,82.7,64.5,79.8,68.1,79.8z"/>
				</g>
			</g>
		</g>
		<g>
			<g>
				<g>
					<path class="st2" d="M44.6,91.5c0,1.1,0.2,2,0.8,2.9c-0.2,0-0.3,0-0.5-0.1c-0.4-0.9-0.6-1.8-0.6-2.9c0-3.7,3-6.7,6.7-6.7
						c3.7,0,6.7,3,6.7,6.7c0,0.9-0.2,1.7-0.4,2.4c-0.2,0-0.3,0-0.5,0c0.3-0.8,0.5-1.6,0.5-2.5c0-3.4-2.8-6.1-6.1-6.1
						C47.4,85.3,44.6,88,44.6,91.5z"/>
				</g>
			</g>
		</g>
	</g>
	<g>
		<g>
			<g>
				<g>
					<g>
						<path class="st2" d="M41.5,94c4.5,0.4,9,0.2,13.5,0c4.6-0.3,9.4-0.4,14-0.8c0.3,0,0.3,0.4,0,0.4c-4.6,0.3-9.4,0.4-14,0.8
							c-4.5,0.3-9,0.4-13.5,0C41.2,94.5,41.2,94,41.5,94L41.5,94z"/>
					</g>
				</g>
			</g>
		</g>
	</g>
	<g>
		<g>
			<g>
				<g>
					<g>
						<path class="st2" d="M69.4,78.2c-1.3,5.1-1.9,10.2-1.8,15.4c0,0.3-0.4,0.3-0.4,0C67,88.3,67.6,83.1,69,77.9
							C69.1,77.7,69.5,77.8,69.4,78.2L69.4,78.2z"/>
					</g>
				</g>
			</g>
		</g>
	</g>
	<g>
		<g>
			<g>
				<path class="st2" d="M38.1,73.6c0.1-0.1,0.2-0.3,0.3-0.4c0.2-0.1,0.4-0.1,0.6-0.2c-1.3,2.3-2.8,4.5-2.7,7.3
					c0.1,2.9,1.6,4.9,3.3,7.1c0.6,0.9,1.3,1.6,1.6,2.7s0.3,2.3,0.3,3.4c0,0.3-0.4,0.3-0.4,0c0.1-1.2,0.1-2.5-0.4-3.7
					c-0.4-1.3-1.5-2.3-2.4-3.2c-1.5-1.8-2.6-3.9-2.6-6.3C35.9,77.8,36.9,75.7,38.1,73.6z"/>
			</g>
		</g>
	</g>
	<g>
		<path class="st1" d="M39.3,16.6c0-9.5-8-17.1-17.6-16.6C13.3,0.6,6.4,7.6,6.2,16c-0.1,3.8,1,7.2,3,10.1c2.8,3.9,4.1,8.7,4.1,13.4
			v0.2h18.9v-0.2c0-4.9,1.6-9.7,4.3-13.9C38.3,23,39.3,19.9,39.3,16.6z"/>
		<g>
			<path class="st2" d="M21.9,24.3c-0.4-0.2-1.2-0.6-1.7-0.9c1-1.1,1.4-2.5,0.9-3.9c-0.9-2.1-4.2-2.9-4.9-0.2
				c-0.3,1.4,0.2,2.8,1.3,4c-0.6,0.1-1.3,0-1.9-0.3c-1.5-0.8-2.3-2.5-2.5-4.1c-0.1-0.9-1.5-1-1.4,0c0.2,3,2.1,6,5.5,6
				c0.6,0,1.2-0.1,1.7-0.4c0.5,0.4,1.2,0.6,1.7,0.9v15.8c0,0.9,1.4,0.9,1.4,0C21.9,41.1,22.3,24.4,21.9,24.3z M19.6,21.1
				c-0.1,0.6-0.3,1.1-0.8,1.4c-0.2-0.2-0.5-0.5-0.8-0.9c-0.3-0.4-0.8-1.4-0.5-1.9C18.5,18,19.7,20.2,19.6,21.1z"/>
			<path class="st2" d="M23.6,41.1c0,0.9,1.4,0.9,1.4,0V25.3c0.5-0.2,1.2-0.4,1.7-0.9c0.5,0.2,1.1,0.4,1.7,0.4c3.3,0,5.4-2.9,5.5-6
				c0-1-1.3-0.9-1.4,0c-0.2,1.6-1,3.3-2.5,4.1c-0.6,0.3-1.3,0.4-1.9,0.3c1-1.2,1.6-2.6,1.3-4c-0.8-2.7-4.1-1.9-4.9,0.2
				c-0.5,1.4-0.1,2.9,0.9,3.9c-0.4,0.2-1.2,0.6-1.7,0.9C23.2,24.4,23.6,41.1,23.6,41.1z M27.8,19.7c0.2,0.5-0.2,1.5-0.5,1.9
				c-0.2,0.3-0.4,0.6-0.8,0.9c-0.3-0.3-0.6-0.9-0.8-1.4C25.8,20.2,27.1,18,27.8,19.7z"/>
		</g>
		<g>
			<path class="st7" d="M23.6,55.6h-1.7c-4.5,0-8.3-3.7-8.3-8.3v-4.4h18.2v4.4C31.9,51.8,28.1,55.6,23.6,55.6z"/>
			<rect x="9.6" y="39.7" class="st1" width="26.2" height="6.3"/>
		</g>
		<path class="st0" d="M39.3,16.6c0-9.5-8-17.1-17.6-16.6C13.3,0.6,6.4,7.6,6.2,16c0,1,0,1.9,0.1,2.8c1.1-7.6,7.5-13.8,15.4-14.3
			c0.9-0.1,1.7,0,2.6,0C24,5,23.9,5.4,23.9,6c0,1.2,0.6,2.4,1.4,3.2c1.1,1.3,2.4,2.3,3.9,2.9c1,0.4,2,0.6,3.1,0.5
			c1.3-0.2,2.6-1.2,3-2.5c2,2.4,3.4,5.3,3.9,8.6C39.3,18.1,39.3,17.3,39.3,16.6z"/>
	</g>
	<g>
		<g id="XMLID_14_">
			<g id="XMLID_15_">
				<g id="XMLID_16_">
					<path id="XMLID_17_" class="st4" d="M9.4,69.1c-0.2-0.2-0.2-0.3-0.3-0.4c0-0.1-0.1-0.2-0.1-0.3c-0.1-0.2-0.1-0.3-0.2-0.5
						c-0.1-0.3-0.2-0.6-0.3-0.9c-0.1-0.5-0.2-1.1-0.3-1.7c-0.1-1.1-0.1-2.1,0-3.1c0-0.8,0.6-1.3,1.4-1.3c0.6,0,1.2,0.5,1.3,1.1l0,0
						c0.2,0.9,0.4,1.8,0.6,2.6c0.1,0.4,0.3,0.8,0.5,1.1c0.1,0.1,0.2,0.3,0.3,0.4l0.1,0.1l0,0c0,0,0.1,0-0.1-0.1
						c0.9,0.9,0.9,2.1,0,2.9C11.6,70,10.3,70,9.4,69.1z"/>
				</g>
			</g>
		</g>
		<g id="XMLID_10_">
			<g id="XMLID_11_">
				<g id="XMLID_12_">
					<path id="XMLID_13_" class="st4" d="M8.7,66.7c0.1-0.8,0.3-1.5,0.4-2.1c0.1-0.8,0.3-1.4,0.5-2.1c0.4-1.4,1-2.8,1.8-4.2
						c0.4-0.6,1.3-0.9,1.9-0.4c0.5,0.4,0.8,1.1,0.5,1.7v0.1c-0.4,1.1-0.8,2.4-1,3.5c-0.1,0.6-0.2,1.3-0.2,1.9c0,0.6-0.1,1.3-0.1,1.9
						c0,1.1-0.9,1.9-1.9,1.9S8.8,68.1,8.8,67C8.7,66.9,8.7,66.8,8.7,66.7z"/>
				</g>
			</g>
		</g>
		<g id="XMLID_6_">
			<g id="XMLID_7_">
				<g id="XMLID_8_">
					<path id="XMLID_9_" class="st4" d="M10.4,67.2c0.2-0.8,0.3-1.5,0.5-2.3s0.4-1.4,0.8-2.1c0.3-0.8,0.5-1.4,1-2.1
						c0.2-0.3,0.4-0.8,0.6-1.1c0.1-0.2,0.3-0.4,0.4-0.5c0.2-0.2,0.4-0.4,0.6-0.5c0.5-0.4,1.4-0.3,1.8,0.2c0.3,0.5,0.3,1.2,0,1.6
						l-0.3,0.4c-0.1,0.1-0.4,0.6-0.5,1.3c-0.2,0.5-0.3,1.2-0.5,1.9c-0.1,0.6-0.2,1.3-0.3,2c-0.1,0.6-0.1,1.4-0.2,2
						c-0.1,1.1-1.1,1.9-2.1,1.9c-1.1-0.1-1.9-1.1-1.9-2.1C10.3,67.4,10.3,67.3,10.4,67.2z"/>
				</g>
			</g>
		</g>
		<g id="XMLID_2_">
			<g id="XMLID_3_">
				<g id="XMLID_4_">
					<path id="XMLID_5_" class="st4" d="M11.5,70.5c0.3-1.1,0.5-1.9,1-2.9c0.3-1,0.8-1.9,1.2-2.8c0.9-1.8,1.8-3.7,3.1-5.3
						c0.4-0.6,1.3-0.6,1.9-0.2c0.5,0.4,0.6,1.2,0.3,1.8l0,0c-1,1.5-1.6,3.2-2.1,4.9c-0.3,0.9-0.5,1.7-0.8,2.7
						c-0.2,0.9-0.4,1.8-0.5,2.7l0,0c-0.1,1.1-1.2,1.9-2.3,1.7c-1.1-0.1-1.9-1.2-1.7-2.3C11.5,70.7,11.5,70.6,11.5,70.5z"/>
				</g>
			</g>
		</g>
	</g>
	<g>
		<g id="XMLID_638_">
			<g id="XMLID_639_">
				<g id="XMLID_640_">
					<path id="XMLID_641_" class="st4" d="M94.1,67.6c-0.2-0.2-0.2-0.3-0.3-0.4c0-0.1-0.1-0.2-0.1-0.3c-0.1-0.2-0.1-0.3-0.2-0.5
						c-0.1-0.3-0.2-0.6-0.3-0.9c-0.1-0.5-0.2-1.1-0.3-1.7c-0.1-1.1-0.1-2.1,0-3.1c0-0.8,0.6-1.3,1.4-1.3c0.6,0,1.2,0.5,1.3,1.1l0,0
						c0.2,0.9,0.4,1.8,0.6,2.6c0.1,0.4,0.3,0.8,0.5,1.1c0.1,0.1,0.2,0.3,0.3,0.4l0.1,0.1l0,0c0,0,0.1,0-0.1-0.1
						c0.9,0.9,0.9,2.1,0,2.9C96.3,68.4,95,68.4,94.1,67.6z"/>
				</g>
			</g>
		</g>
		<g id="XMLID_634_">
			<g id="XMLID_635_">
				<g id="XMLID_636_">
					<path id="XMLID_637_" class="st4" d="M93.4,65.2c0.1-0.8,0.3-1.5,0.4-2.1c0.1-0.6,0.3-1.4,0.5-2.1c0.4-1.4,1-2.8,1.8-4.2
						c0.4-0.6,1.3-0.9,1.9-0.4c0.5,0.4,0.8,1.1,0.5,1.7v0.1c-0.4,1.1-0.8,2.4-1,3.5c-0.1,0.6-0.2,1.3-0.2,1.9c0,0.6-0.1,1.3-0.1,1.9
						c0,1.1-0.9,1.9-1.9,1.9c-1.1,0-1.9-0.9-1.9-1.9C93.4,65.3,93.4,65.2,93.4,65.2z"/>
				</g>
			</g>
		</g>
		<g id="XMLID_630_">
			<g id="XMLID_631_">
				<g id="XMLID_632_">
					<path id="XMLID_633_" class="st4" d="M95.1,65.7c0.2-0.8,0.3-1.5,0.5-2.3c0.2-0.8,0.4-1.4,0.8-2.1c0.3-0.8,0.5-1.4,1-2.1
						c0.2-0.3,0.4-0.8,0.6-1.1c0.1-0.2,0.3-0.4,0.4-0.5c0.2-0.2,0.4-0.4,0.6-0.5c0.5-0.4,1.4-0.3,1.8,0.2c0.3,0.5,0.3,1.2,0,1.6
						l-0.3,0.4c-0.1,0.1-0.4,0.6-0.5,1.3c-0.2,0.5-0.3,1.2-0.5,1.9c-0.1,0.6-0.2,1.3-0.3,2c-0.1,0.6-0.1,1.4-0.2,2
						c-0.1,1.1-1.1,1.9-2.1,1.9c-1.1-0.1-1.9-1.1-1.9-2.1C95,65.9,95,65.8,95.1,65.7z"/>
				</g>
			</g>
		</g>
		<g id="XMLID_18_">
			<g id="XMLID_19_">
				<g id="XMLID_20_">
					<path id="XMLID_21_" class="st4" d="M96.3,69c0.3-1.1,0.5-1.9,1-2.9c0.3-1,0.8-1.9,1.2-2.8c0.9-1.8,1.8-3.7,3.1-5.3
						c0.4-0.6,1.3-0.6,1.9-0.2c0.5,0.4,0.6,1.2,0.3,1.8l0,0c-1,1.5-1.6,3.2-2.1,4.9c-0.3,0.9-0.5,1.7-0.8,2.7
						c-0.2,0.9-0.4,1.8-0.5,2.7l0,0c-0.1,1.1-1.2,1.9-2.3,1.7c-1.1-0.1-1.9-1.2-1.7-2.3C96.2,69.1,96.3,69,96.3,69z"/>
				</g>
			</g>
		</g>
	</g>
	<g>
		<g id="XMLID_467_">
			<g id="XMLID_468_">
				<g id="XMLID_469_">
					<g id="XMLID_470_">
						<path id="XMLID_471_" class="st8" d="M52.6,46.1C52.6,46,52.6,46,52.6,46.1C52.5,46,52.5,46,52.5,46h-0.1h-0.1c0,0,0,0-0.1,0
							c-0.1,0-0.1,0-0.2,0h-0.1c0,0,0,0-0.1,0l0,0c-0.1,0-0.1,0-0.1,0s-0.1,0-0.1-0.1l0,0l0,0l0,0v-0.1v-0.1c0-0.1,0-0.1,0-0.2l0,0
							l0,0l0,0c0,0,0,0,0-0.1v-0.1l0,0v-0.1v-0.1c0,0,0,0,0-0.1l0,0l0,0c0-0.1,0-0.1,0-0.2c0-0.1,0-0.1,0-0.1v-0.1c0,0,0,0,0-0.1
							l0,0v-0.1c0-0.1,0-0.1,0-0.2c0-0.1,0-0.1,0-0.2l0,0c0,0,0,0,0-0.1v-0.1c0-0.1,0-0.1,0-0.2v-0.1l0,0l0,0c0,0-0.1,0-0.1-0.1
							h-0.1c0,0-0.1,0-0.1,0.1s0,0,0,0v0.1c0,0,0,0,0,0.1c0,0.1,0,0.1,0,0.2c0,0,0,0,0,0.1V44l0,0l0,0v0.1v0.1c0,0.1,0,0.2,0,0.3
							l0,0v0.1c0,0,0,0,0,0.1c0,0.1,0,0,0,0.1V45c0,0.1,0,0.3-0.1,0.4c0,0,0,0,0,0.1c0,0,0,0,0,0.1c0,0.1,0,0,0,0.1s0,0,0,0.1v0.1
							l0,0V46v0.1c0,0.1,0,0.2,0.1,0.3c0,0,0,0,0,0.1l0.1,0.1c0,0,0,0,0.1,0s0,0,0.1,0c0,0,0.1,0,0.1,0.1c0.1,0,0.3,0.1,0.4,0.1
							c0,0,0,0,0.1,0c0.1,0,0,0,0.1,0c0,0,0,0,0.1,0c0,0,0,0,0.1,0h0.1c0,0,0,0,0.1,0c0.1,0,0,0,0.1,0
							C52.5,46.2,52.5,46.2,52.6,46.1C52.5,46.1,52.5,46.1,52.6,46.1L52.6,46.1z"/>
					</g>
				</g>
			</g>
		</g>
		<g id="XMLID_462_">
			<g id="XMLID_463_">
				<g id="XMLID_464_">
					<g id="XMLID_465_">
						<path id="XMLID_466_" class="st8" d="M53.6,46.9h-0.1l0,0l0,0l0,0l0,0c0,0,0,0-0.1,0.1l0,0l0,0l0,0c0,0,0,0,0,0.1l0,0l0,0l0,0
							l0,0c0,0,0,0-0.1,0c0,0,0,0-0.1,0c0,0,0,0-0.1,0l0,0l0,0l0,0l0,0l0,0l0,0l0,0l0,0l0,0l0,0l0,0H53c0,0,0,0-0.1,0l0,0l0,0l0,0
							c0,0,0,0-0.1,0c0,0,0,0-0.1,0c0,0,0,0-0.1,0l0,0l0,0l0,0h-0.1l0,0l0,0l0,0c0,0,0,0.1-0.1,0.1v0.1c0,0,0,0,0,0.1l0,0l0,0l0,0
							h0.1l0,0c0,0,0,0,0.1,0l0,0l0,0c0,0,0,0,0.1,0c0,0,0,0,0.1,0h0.1l0,0c0,0,0,0,0.1,0l0,0l0,0l0,0c0.1,0,0.1,0,0.2-0.1l0,0l0,0
							l0,0l0,0l0,0l0,0l0,0c0,0,0,0,0.1,0l0.1-0.1l0,0c0,0,0,0,0.1,0l0,0l0,0l0,0c0,0,0.1-0.1,0.1-0.2l0,0l0,0l0,0l0,0l0,0l0,0l0,0
							l0,0C53.8,46.9,53.7,46.9,53.6,46.9C53.7,46.9,53.6,46.9,53.6,46.9z"/>
					</g>
				</g>
			</g>
		</g>
		<g id="XMLID_458_">
			<g id="XMLID_459_">
				<g id="XMLID_460_">
					<path id="XMLID_461_" class="st8" d="M54.2,44.3L54.2,44.3c-0.2,0-0.4-0.2-0.4-0.4v-0.2c0-0.2,0.1-0.3,0.4-0.3
						c0.2,0,0.3,0.2,0.3,0.4V44C54.7,44.2,54.5,44.3,54.2,44.3z"/>
				</g>
			</g>
		</g>
		<g id="XMLID_454_">
			<g id="XMLID_455_">
				<g id="XMLID_456_">
					<path id="XMLID_457_" class="st8" d="M50.3,44.1C50.3,44.1,50.2,44.1,50.3,44.1c-0.2,0-0.4-0.2-0.4-0.4v-0.2
						c0-0.2,0.1-0.4,0.4-0.3c0.2,0,0.3,0.2,0.3,0.4v0.2C50.6,44,50.4,44.1,50.3,44.1z"/>
				</g>
			</g>
		</g>
		<g id="XMLID_449_">
			<g id="XMLID_450_">
				<g id="XMLID_451_">
					<g id="XMLID_452_">
						<path id="XMLID_453_" class="st8" d="M55.2,42.7C55.3,42.7,55.3,42.6,55.2,42.7c0-0.1,0-0.1,0-0.1l0,0l0,0l0,0
							c0,0,0,0-0.1-0.1l0,0l0,0l0,0c0,0,0,0-0.1,0c0,0,0,0-0.1,0l0,0l0,0l0,0c0,0,0,0-0.1,0c0,0,0,0-0.1,0c-0.1,0,0,0-0.1,0l0,0l0,0
							l0,0l0,0l0,0l0,0l0,0l0,0l0,0l0,0l0,0h-0.1c0,0,0,0-0.1,0l0,0l0,0l0,0c0,0,0,0-0.1,0c0,0,0,0-0.1,0H54l0,0l0,0l0,0h-0.1
							c0,0,0,0-0.1,0l0,0l0,0v0.1c0,0,0,0.1,0.1,0.1l0,0l0,0l0,0l0,0c0,0,0,0,0.1,0l0,0l0,0l0,0l0,0l0,0l0,0h0.1l0,0l0,0l0,0l0,0
							l0,0h0.1l0,0l0,0l0,0l0,0l0,0l0,0l0,0l0,0h0.1l0,0l0,0l0,0l0,0l0,0c0,0,0.1,0,0.1,0.1l0,0l0,0l0,0l0,0l0,0l0,0l0,0l0,0
							C55.1,42.8,55.2,42.7,55.2,42.7L55.2,42.7z"/>
					</g>
				</g>
			</g>
		</g>
		<g id="XMLID_1_">
			<g id="XMLID_290_">
				<g id="XMLID_383_">
					<g id="XMLID_447_">
						<path id="XMLID_448_" class="st8" d="M49.5,42.5C49.5,42.5,49.5,42.6,49.5,42.5L49.5,42.5h0.1l0,0l0,0c0,0,0,0,0.1,0l0,0l0,0
							l0,0c0,0,0,0,0.1,0l0,0l0,0l0,0l0,0c0,0,0,0,0.1,0c0,0,0,0,0.1,0c0,0,0,0,0.1,0l0,0l0,0l0,0l0,0l0,0l0,0l0,0l0,0l0,0l0,0l0,0
							c0,0,0,0,0.1,0c0,0,0,0,0.1,0l0,0l0,0l0,0l0,0c0,0,0,0,0.1,0c0,0,0,0,0.1,0l0,0l0,0l0,0h0.1l0,0l0,0l0,0c0,0,0-0.1,0.1-0.1
							v-0.1c0,0,0,0,0-0.1l0,0l0,0l0,0h-0.1l0,0l0,0l0,0l0,0l0,0l0,0h-0.1l0,0c0,0,0,0-0.1,0l0,0l0,0l0,0c-0.1,0-0.1,0-0.2,0l0,0
							l0,0l0,0l0,0l0,0l0,0l0,0c0,0,0,0-0.1,0h-0.1l0,0c0,0,0,0-0.1,0l0,0l0,0l0,0c0,0-0.1,0-0.1,0.1l0,0l0,0l0,0l0,0l0,0l0,0l0,0
							l0,0C49.5,42.3,49.5,42.4,49.5,42.5L49.5,42.5z"/>
					</g>
				</g>
			</g>
		</g>
	</g>
</g>
</svg>
