<?xml version="1.0" encoding="utf-8"?>
<!-- Generator: Adobe Illustrator 22.1.0, SVG Export Plug-In . SVG Version: 6.00 Build 0)  -->
<svg version="1.1" id="_x2014_ÎÓÈ_x5F_1" xmlns="http://www.w3.org/2000/svg" xmlns:xlink="http://www.w3.org/1999/xlink"
	 x="0px" y="0px" viewBox="0 0 128 226.8" style="enable-background:new 0 0 128 226.8;" xml:space="preserve">
<style type="text/css">
	.st0{fill:#F6DA39;}
	.st1{fill:#FCA637;}
	.st2{fill:#FFFFFF;}
	.st3{fill:#F2CDAC;}
	.st4{fill:#03053E;}
	.st5{fill:#EFBC90;}
	.st6{fill:#F4CAAB;}
	.st7{fill:#F7D52C;}
	.st8{fill:#F9E87A;}
	.st9{fill:#76D3F4;}
	.st10{fill:#F8DC38;}
	.st11{fill:url(#SVGID_1_);}
	.st12{fill:#F6B517;}
	.st13{fill:#B5EAF7;}
	.st14{fill:url(#SVGID_2_);}
	.st15{fill:url(#SVGID_3_);}
	.st16{fill:url(#SVGID_4_);}
	.st17{fill:url(#SVGID_5_);}
	.st18{fill:#1A1B1D;}
</style>
<g>
	<g>
		<g>
			<g id="XMLID_628_">
				<polygon id="XMLID_629_" class="st0" points="21.2,113.1 27.4,165.5 27.4,164.3 24.9,210.2 38.9,211.6 44.2,165.5 44.2,165.3 
					44.2,164.3 42.8,111.5 				"/>
			</g>
			<g id="XMLID_626_">
				<path id="XMLID_627_" class="st0" d="M29.3,127.9l28.1-3.8c3.1-0.4,8.9-4,8.5-7l-5.4-23.6l-33.3,5.8l-6,13.9
					C21.6,116.1,26.2,128.3,29.3,127.9z"/>
			</g>
			<g id="XMLID_624_">
				<polygon id="XMLID_625_" class="st0" points="42.8,112.2 58.6,164.2 58.4,162 59.9,210.2 73.9,209.6 75.4,162.1 75.4,161.4 
					75.1,159.9 63.8,106.9 				"/>
			</g>
		</g>
		<g id="XMLID_620_">
			<g id="XMLID_621_">
				<g id="XMLID_622_">
					<polygon id="XMLID_623_" class="st1" points="59.9,210.2 60.8,219.7 84.2,217.4 73.9,209.6 					"/>
				</g>
			</g>
		</g>
		<g id="XMLID_616_">
			<g id="XMLID_617_">
				<g id="XMLID_618_">
					<polygon id="XMLID_619_" class="st1" points="24.9,210.2 24.4,219.7 47.9,220.9 38.9,211.6 					"/>
				</g>
			</g>
		</g>
		<g id="XMLID_613_">
			<g id="XMLID_614_">
				<path id="XMLID_615_" class="st2" d="M22.3,120.4c0-0.1,0.1-0.1,0.2-0.1h0.1h0.2c0.1,0,0.1,0,0.2,0c0.1,0,0.1,0,0.1,0
					c0.2,0,0.3,0,0.5-0.1h0.2c0.1,0,0.1,0,0.2,0c0.1,0,0.1,0,0.1,0c0.1,0,0.3-0.1,0.4-0.1c0.1,0,0.2-0.1,0.3-0.1l0.2-0.1h0.1h0.1
					c0.1,0,0.2-0.1,0.3-0.2c0.1-0.1,0.2-0.1,0.3-0.2c0.1-0.1,0.2-0.1,0.4-0.2l0,0l0,0l0,0l0.1-0.1l0.2-0.2l0.1-0.1l0.1-0.1l0.1-0.1
					l0.1-0.1l0.1-0.1c0,0,0,0,0.1-0.1c0.1-0.1,0.2-0.2,0.3-0.3c0.1-0.1,0.1-0.2,0.2-0.3l0.1-0.2l0.1-0.1v-0.1
					c0.1-0.1,0.1-0.2,0.2-0.3c0.1-0.1,0.1-0.2,0.2-0.4c0-0.1,0.1-0.3,0.2-0.4v-0.1v-0.1c0-0.1,0.1-0.2,0.1-0.3
					c0-0.2,0.1-0.3,0.1-0.5c0-0.1,0-0.2,0-0.3v-0.1c0,0,0-0.1,0.1-0.1c0-0.1,0.1-0.1,0.2-0.1c0.1,0,0.1,0.1,0.1,0.1s0.1,0.1,0,0.2
					v0.1c0,0.1,0,0.1,0,0.2s0,0.1,0,0.2c0,0.2-0.1,0.4-0.1,0.5s0,0.1-0.1,0.2c0,0.1-0.1,0.1-0.1,0.2l0,0l0,0c0,0.1-0.1,0.2-0.1,0.3
					c0,0.1-0.1,0.2-0.1,0.3c-0.1,0.2-0.2,0.4-0.3,0.6c0,0,0,0.1-0.1,0.1c-0.1,0.1-0.1,0.2-0.2,0.3L28,118l-0.1,0.1l-0.1,0.2
					c-0.2,0.2-0.4,0.4-0.7,0.7l-0.1,0.1c0,0-0.1,0-0.1,0.1l-0.1,0.1c-0.1,0-0.1,0.1-0.1,0.1l-0.2,0.1c0,0,0,0-0.1,0l-0.1,0.1
					l-0.3,0.2c-0.2,0.1-0.4,0.2-0.6,0.3c0,0-0.1,0-0.1,0.1c-0.1,0-0.2,0.1-0.3,0.1c0,0-0.1,0-0.2,0.1h-0.1c-0.1,0-0.1,0.1-0.2,0.1
					c-0.3,0.1-0.6,0.1-0.9,0.2c-0.1,0-0.1,0-0.2,0h-0.1c-0.1,0-0.1,0-0.2,0c-0.1,0-0.1,0-0.2,0h-0.2c-0.1,0-0.1,0-0.2,0h-0.1
					c0,0,0,0-0.1-0.1C22.2,120.5,22.2,120.5,22.3,120.4C22.2,120.4,22.3,120.4,22.3,120.4z"/>
			</g>
		</g>
		<g id="XMLID_610_">
			<g id="XMLID_611_">
				<path id="XMLID_612_" class="st2" d="M42.5,121.7c0-0.1,0.1-0.1,0.2-0.1h0.1H43c0.1,0,0.1,0,0.2-0.1c0.1,0,0.1,0,0.2,0
					c0.2,0,0.3-0.1,0.5-0.2c0.1,0,0.1-0.1,0.2-0.1s0.1-0.1,0.2-0.1l0.1-0.1c0.1-0.1,0.2-0.2,0.3-0.3c0.1-0.1,0.1-0.2,0.2-0.3
					c0-0.1,0-0.1,0.1-0.2c0-0.1,0-0.1,0-0.1V120c0-0.1,0-0.2,0-0.4c0-0.1,0-0.3,0-0.4c0-0.2,0-0.3-0.1-0.5l0,0l0,0l0,0
					c0-0.1,0-0.1,0-0.2v-0.3V118v-0.2v-0.2c0-0.1,0-0.1,0-0.2v-0.1v-0.1c0-0.2-0.1-0.3-0.1-0.5c0-0.1,0-0.3,0-0.4v-0.2
					c0-0.1,0-0.1,0-0.2v-0.1c0-0.1-0.1-0.3-0.1-0.4c0-0.2,0-0.3-0.1-0.4c0-0.2,0-0.3-0.1-0.5v-0.1c0-0.1,0-0.1,0-0.2v-0.3
					c0-0.2,0-0.4-0.1-0.6c0-0.1,0-0.2-0.1-0.3v-0.1v-0.1c0-0.1,0.1-0.1,0.1-0.1c0.1,0,0.1,0,0.2,0.1c0,0,0.1,0.1,0.1,0.2v0.1
					c0,0.1,0,0.1,0,0.2s0,0.1,0,0.2c0,0.2,0.1,0.4,0.1,0.6c0,0.1,0,0.1,0,0.2s0,0.2,0,0.3l0,0l0,0c0,0.1,0,0.2,0.1,0.3v0.3
					c0,0.2,0.1,0.4,0.1,0.7c0,0.1,0,0.1,0,0.1c0,0.1,0,0.2,0.1,0.3c0,0.1,0,0.1,0,0.2s0,0.1,0,0.2v0.3c0.1,0.3,0.1,0.7,0.2,1
					c0,0,0,0.1,0,0.2v0.1c0,0.1,0,0.1,0,0.2s0,0.1,0,0.2v0.2v0.1c0,0.1,0,0.1,0,0.2s0,0.2,0,0.3c0,0.2,0,0.5,0,0.7
					c0,0.1,0,0.1,0,0.1c0,0.1-0.1,0.2-0.1,0.4c0,0.1,0,0.1-0.1,0.2c0,0.1-0.1,0.1-0.1,0.1c-0.1,0.1-0.1,0.2-0.2,0.2
					c-0.3,0.3-0.6,0.4-0.9,0.5c-0.1,0-0.1,0-0.2,0c-0.1,0-0.1,0-0.1,0c-0.1,0-0.1,0-0.2,0s-0.1,0-0.2,0H43c-0.1,0-0.1,0-0.2,0
					c-0.1,0-0.1,0-0.2,0h-0.1C42.6,121.9,42.6,121.9,42.5,121.7C42.5,121.8,42.5,121.8,42.5,121.7z"/>
			</g>
		</g>
		<g id="XMLID_607_">
			<g id="XMLID_608_">
				<path id="XMLID_609_" class="st2" d="M24.8,207.6c0-0.1,0.1-0.1,0.2-0.1s0.1,0,0.2,0c0.1,0,0.2,0,0.2,0c0.1,0,0.2,0,0.3,0
					c0.1,0,0.1,0,0.2,0c0.2,0,0.4,0,0.6,0c0.1,0,0.2,0,0.3,0c0.1,0,0.2,0,0.3,0c0.1,0,0.1,0,0.2,0c0.2,0,0.4,0,0.6,0.1
					c0.2,0,0.3,0,0.5,0c0.1,0,0.2,0,0.3,0c0.1,0,0.1,0,0.2,0h0.1c0.2,0,0.3,0,0.5,0c0.2,0,0.4,0,0.6,0.1c0.2,0,0.4,0,0.6,0.1
					c0,0,0,0,0.1,0c0,0,0,0,0.1,0l0,0c0.1,0,0.1,0,0.2,0s0.3,0,0.4,0h0.1c0.1,0,0.1,0,0.2,0c0.1,0,0.2,0,0.3,0c0.1,0,0.2,0,0.2,0
					h0.1h0.1c0.2,0,0.4,0,0.6,0.1c0.2,0,0.3,0,0.5,0c0.1,0,0.2,0,0.3,0c0.1,0,0.1,0,0.2,0h0.1c0.2,0,0.3,0,0.5,0
					c0.2,0,0.4,0,0.6,0.1c0.2,0,0.4,0,0.6,0.1c0.1,0,0.1,0,0.1,0c0.1,0,0.1,0,0.2,0s0.3,0,0.4,0c0.2,0,0.5,0.1,0.7,0.1
					c0.1,0,0.3,0,0.4,0c0.1,0,0.1,0,0.1,0c0.1,0,0.1,0,0.1,0.1c0.1,0,0.1,0.1,0.1,0.2c0,0.1-0.1,0.1-0.1,0.1c-0.1,0-0.2,0-0.3,0
					c-0.1,0-0.1,0-0.1,0c-0.1,0-0.2,0-0.3,0c-0.1,0-0.2,0-0.2,0c-0.2,0-0.5,0-0.7-0.1c-0.1,0-0.2,0-0.3,0c-0.1,0-0.2,0-0.3,0l0,0
					l0,0c-0.1,0-0.2,0-0.3,0c-0.1,0-0.3,0-0.4,0c-0.3,0-0.6,0-0.8-0.1c-0.1,0-0.1,0-0.2,0s-0.3,0-0.4,0c-0.1,0-0.1,0-0.2,0
					s-0.1,0-0.2,0s-0.2,0-0.3,0c-0.4,0-0.8-0.1-1.2-0.1c-0.1,0-0.1,0-0.2,0s-0.1,0-0.2,0c-0.1,0-0.1,0-0.2,0s-0.2,0-0.2,0
					c-0.1,0-0.2,0-0.2,0h-0.1c-0.1,0-0.2,0-0.2,0c-0.1,0-0.3,0-0.4,0c-0.3,0-0.6,0-0.8-0.1c-0.1,0-0.1,0-0.2,0s-0.3,0-0.4,0
					s-0.1,0-0.2,0s-0.1,0-0.2,0c-0.1,0-0.2,0-0.3,0c-0.4,0-0.8-0.1-1.2-0.1c-0.1,0-0.1,0-0.2,0s-0.1,0-0.2,0c-0.1,0-0.1,0-0.2,0
					s-0.2,0-0.2,0c-0.1,0-0.2,0-0.2,0c-0.1,0-0.1,0-0.2,0s-0.1,0-0.2,0c0,0-0.1,0-0.1-0.1C24.8,207.8,24.8,207.7,24.8,207.6
					C24.8,207.7,24.8,207.7,24.8,207.6z"/>
			</g>
		</g>
		<g id="XMLID_604_">
			<g id="XMLID_605_">
				<path id="XMLID_606_" class="st2" d="M60.3,207.6c0-0.1,0.1-0.1,0.2-0.1c0,0,0.1,0,0.2,0s0.2,0,0.2,0c0.1,0,0.2,0,0.3,0
					c0.1,0,0.1,0,0.2,0c0.2,0,0.4-0.1,0.6-0.1c0.1,0,0.2,0,0.3,0c0.1,0,0.2,0,0.3,0c0.1,0,0.1,0,0.2,0c0.2,0,0.4,0,0.6,0
					s0.3,0,0.5,0c0.1,0,0.2,0,0.3,0c0.1,0,0.1,0,0.2,0h0.1c0.2,0,0.3,0,0.5-0.1c0.2,0,0.4,0,0.6-0.1c0.2,0,0.4,0,0.6-0.1
					c0,0,0,0,0.1,0c0,0,0,0,0.1,0l0,0c0.1,0,0.1,0,0.2,0c0.1,0,0.3,0,0.4,0h0.1c0.1,0,0.1,0,0.2,0s0.2,0,0.3,0c0.1,0,0.2,0,0.2,0
					h0.1h0.1c0.2,0,0.4,0,0.6,0c0.2,0,0.3,0,0.5,0c0.1,0,0.2,0,0.3,0c0.1,0,0.1,0,0.2,0h0.1c0.2,0,0.3,0,0.5-0.1
					c0.2,0,0.4,0,0.6-0.1c0.2,0,0.4,0,0.6-0.1c0.1,0,0.1,0,0.1,0c0.1,0,0.1,0,0.2,0s0.3,0,0.4,0c0.2,0,0.5,0,0.7,0
					c0.1,0,0.3,0,0.4,0s0.1,0,0.1,0c0.1,0,0.1,0,0.1,0c0.1,0,0.1,0.1,0.1,0.1c0,0.1-0.1,0.1-0.1,0.2c-0.1,0-0.1,0.1-0.2,0.1
					s-0.1,0-0.1,0c-0.1,0-0.2,0-0.3,0c-0.1,0-0.2,0-0.2,0c-0.2,0-0.5,0-0.7,0.1c-0.1,0-0.2,0-0.3,0c-0.1,0-0.2,0-0.3,0l0,0l0,0
					c-0.1,0-0.2,0-0.4,0.1c-0.1,0-0.3,0-0.4,0c-0.3,0-0.6,0.1-0.8,0.1c-0.1,0-0.1,0-0.2,0s-0.3,0-0.4,0s-0.1,0-0.2,0s-0.1,0-0.2,0
					c-0.1,0-0.2,0-0.3,0c-0.4,0-0.8,0.1-1.2,0.1c-0.1,0-0.1,0-0.2,0s-0.1,0-0.2,0s-0.1,0-0.2,0c-0.1,0-0.2,0-0.2,0
					c-0.1,0-0.2,0-0.2,0h-0.1c-0.1,0-0.2,0-0.2,0c-0.1,0-0.3,0-0.4,0c-0.3,0-0.6,0.1-0.8,0.1c-0.1,0-0.1,0-0.2,0c-0.1,0-0.3,0-0.4,0
					s-0.1,0-0.2,0s-0.1,0-0.2,0s-0.2,0-0.3,0c-0.4,0-0.8,0.1-1.2,0.1c-0.1,0-0.1,0-0.2,0c-0.1,0-0.1,0-0.2,0s-0.1,0-0.2,0
					s-0.2,0-0.2,0c-0.1,0-0.2,0-0.2,0c-0.1,0-0.1,0-0.2,0c-0.1,0-0.1,0-0.2,0h-0.1C60.4,207.8,60.3,207.7,60.3,207.6L60.3,207.6z"/>
			</g>
		</g>
		<g id="XMLID_599_">
			<g id="XMLID_600_">
				<g id="XMLID_601_">
					<g id="XMLID_602_">
						<path id="XMLID_603_" class="st2" d="M82.3,216c-0.1-0.1-0.2-0.1-0.4-0.1c-0.1,0-0.2,0-0.3,0c-0.1,0-0.3,0-0.4,0
							c-0.2,0-0.3,0-0.5,0c-0.1,0-0.2,0-0.3,0c-0.3,0-0.7,0-1,0.1c-0.2,0-0.3,0-0.4,0s-0.3,0-0.4,0.1c-0.1,0-0.2,0-0.3,0
							c-0.3,0-0.6,0-0.9,0.1c-0.3,0-0.5,0.1-0.8,0.1c-0.1,0-0.3,0-0.4,0s-0.2,0-0.3,0c-0.1,0-0.1,0-0.2,0c-0.3,0-0.5,0-0.8,0.1
							c-0.3,0-0.6,0.1-0.9,0.1s-0.6,0.1-0.9,0.1h-0.1h-0.1l0,0c-0.1,0-0.2,0-0.3,0c-0.2,0-0.4,0-0.6,0.1c-0.1,0-0.1,0-0.2,0
							s-0.2,0-0.3,0c-0.2,0-0.3,0-0.4,0s-0.3,0-0.4,0s-0.1,0-0.2,0s-0.1,0-0.2,0c-0.3,0-0.7,0.1-0.9,0.1c-0.3,0-0.5,0.1-0.8,0.1
							c-0.1,0-0.3,0-0.4,0s-0.2,0-0.3,0c-0.1,0-0.1,0-0.2,0c-0.3,0-0.5,0-0.8,0.1c-0.3,0-0.6,0.1-0.9,0.1s-0.6,0.1-0.9,0.1
							c-0.1,0-0.2,0-0.2,0c-0.1,0-0.2,0-0.3,0c-0.2,0-0.4,0-0.6,0.1c-0.4,0-0.8,0.1-1.2,0.1c-0.2,0-0.4,0-0.6,0c-0.1,0-0.2,0-0.2,0
							c-0.1,0-0.2,0.1-0.2,0.1c-0.1,0.1-0.2,0.1-0.2,0.2c0,0.1,0.1,0.1,0.2,0.1s0.2,0,0.4,0c0.1,0,0.2,0,0.2,0c0.1,0,0.3,0,0.4,0
							s0.3,0,0.4,0c0.4,0,0.8-0.1,1.2-0.1c0.1,0,0.3,0,0.4,0c0.2,0,0.3,0,0.5-0.1c0,0,0,0,0.1,0c0,0,0,0,0.1,0c0.2,0,0.4,0,0.6,0
							s0.4,0,0.6-0.1c0.4,0,0.9-0.1,1.3-0.1c0.1,0,0.2,0,0.3,0c0.2,0,0.5,0,0.7-0.1c0.1,0,0.2,0,0.3,0s0.2,0,0.3,0
							c0.2,0,0.3,0,0.5,0c0.6-0.1,1.3-0.1,2-0.2c0.1,0,0.2,0,0.3,0c0.1,0,0.2,0,0.3,0c0.1,0,0.2,0,0.3,0c0.1,0,0.3,0,0.4,0
							s0.3,0,0.4,0s0.1,0,0.1,0c0.1,0,0.2,0,0.4,0c0.2,0,0.4,0,0.6-0.1c0.4,0,0.9-0.1,1.3-0.1c0.1,0,0.2,0,0.3,0
							c0.2,0,0.5,0,0.7-0.1c0.1,0,0.2,0,0.3,0c0.1,0,0.2,0,0.3,0c0.2,0,0.3,0,0.5,0c0.6-0.1,1.3-0.1,2-0.2c0.1,0,0.2,0,0.3,0
							c0.1,0,0.2,0,0.3,0c0.1,0,0.2,0,0.3,0c0.1,0,0.3,0,0.4,0s0.3,0,0.4,0c0.1,0,0.2,0,0.3,0c0.1,0,0.2,0,0.3,0s0.1-0.1,0.1-0.1
							c0.1,0,0.1-0.1,0.1-0.2C82.4,216,82.4,216,82.3,216z"/>
					</g>
				</g>
			</g>
		</g>
		<g id="XMLID_594_">
			<g id="XMLID_595_">
				<g id="XMLID_596_">
					<g id="XMLID_597_">
						<path id="XMLID_598_" class="st2" d="M65.9,217.5c0.1,0,0.1-0.1,0.1-0.1v-0.1v-0.1c0-0.1,0-0.1,0-0.2v-0.1
							c0-0.1,0-0.2-0.1-0.4v-0.2l-0.1-0.1v-0.1c-0.1-0.1-0.1-0.2-0.2-0.3s-0.1-0.2-0.2-0.2l-0.1-0.1l-0.1-0.1v-0.1
							c-0.1-0.1-0.1-0.2-0.2-0.2c-0.1-0.1-0.1-0.2-0.2-0.2c-0.1-0.1-0.2-0.2-0.3-0.2l0,0l0,0l0,0c0,0-0.1,0-0.1-0.1l-0.2-0.1
							c0,0,0,0-0.1,0l-0.1-0.1l-0.1-0.1h-0.1c0,0,0,0-0.1,0c0,0,0,0-0.1,0s-0.2-0.1-0.3-0.1c-0.1,0-0.2,0-0.3-0.1h-0.1h-0.1h-0.1
							c-0.1,0-0.2,0-0.3,0c-0.1,0-0.2,0-0.3,0c-0.1,0-0.2,0-0.3,0h-0.1h-0.1c-0.1,0-0.1,0-0.2,0c-0.1,0-0.3,0.1-0.4,0.1
							s-0.1,0-0.2,0.1c0,0,0,0-0.1,0c0,0,0,0.1-0.1,0.1c0,0.1,0,0.1,0,0.2l0.1,0.1h0.1c0,0,0,0,0.1,0h0.1c0,0,0.1,0,0.1-0.1
							c0.1,0,0.2-0.1,0.4-0.1c0.1,0,0.1,0,0.1,0h0.1l0,0l0,0c0.1,0,0.1,0,0.2,0H62c0.1,0,0.3,0,0.4,0h0.1c0.1,0,0.1,0,0.2,0h0.1h0.1
							c0.1,0,0.1,0,0.1,0.1c0.2,0.1,0.4,0.1,0.6,0.2c0,0,0.1,0,0.1,0.1h0.1c0,0,0.1,0,0.1,0.1l0.1,0.1c0,0,0.1,0,0.1,0.1l0,0
							l0.1,0.1l0.1,0.1c0.1,0.1,0.2,0.2,0.3,0.3c0,0,0,0,0,0.1s0.1,0.1,0.1,0.2c0,0,0,0.1,0.1,0.1c0,0,0,0,0.1,0.1
							c0,0,0,0.1,0.1,0.1c0.1,0.2,0.2,0.4,0.2,0.6v0.1v0.1v0.1v0.1v0.1v0.1v0.1c0,0,0,0,0.1,0C65.7,217.5,65.8,217.5,65.9,217.5
							C65.8,217.5,65.9,217.5,65.9,217.5z"/>
					</g>
				</g>
			</g>
		</g>
		<g id="XMLID_517_">
			<g id="XMLID_518_">
				<g id="XMLID_519_">
					<g id="XMLID_520_">
						<path id="XMLID_593_" class="st2" d="M76.7,212.3c0.1,0,0.1,0,0.3,0c0,0,0.1-0.1,0.2-0.1s0.1-0.1,0.2-0.1
							c0.1-0.1,0.2-0.1,0.3-0.2c0.1,0,0.1-0.1,0.2-0.1c0.2-0.1,0.3-0.3,0.5-0.4c0.1-0.1,0.1-0.1,0.2-0.2c0.1-0.1,0.1-0.2,0.2-0.2
							c0-0.1,0.1-0.1,0.1-0.2c0.1-0.2,0.2-0.4,0.3-0.5c0.1-0.2,0.1-0.3,0.2-0.5l0.1-0.3l0.1-0.2v-0.1c0-0.2,0.1-0.3,0.1-0.5
							s0-0.4,0-0.6c0-0.2-0.1-0.4-0.3-0.6l0,0v-0.1l0,0c0-0.1-0.1-0.1-0.1-0.2c-0.1-0.1-0.2-0.2-0.4-0.3c0,0-0.1,0-0.1-0.1
							c-0.1,0-0.2,0-0.2-0.1c-0.1,0-0.2,0-0.3,0c-0.1,0-0.2,0-0.3,0.1h-0.1h-0.1c-0.2,0.1-0.4,0.2-0.5,0.4c-0.1,0.1-0.3,0.2-0.4,0.4
							c-0.1,0.1-0.1,0.1-0.2,0.2c0,0.1-0.1,0.1-0.1,0.2l-0.1,0.1c-0.1,0.1-0.2,0.3-0.2,0.4c-0.1,0.2-0.1,0.4-0.2,0.6
							c0,0.2-0.1,0.4-0.1,0.6c0,0.1,0,0.1,0,0.1c0,0.1,0,0.1,0,0.2c0,0.1,0,0.3,0,0.4c0,0.3,0.1,0.5,0.2,0.7c0,0.1,0.1,0.3,0.2,0.4
							c0,0,0,0.1,0.1,0.1l0.1,0.1c0.1,0.1,0.1,0.1,0.2,0c0,0,0.1-0.1,0.1-0.2c0-0.1,0-0.2-0.1-0.2c0,0,0-0.1-0.1-0.1
							c0-0.1-0.1-0.1-0.1-0.2c0-0.1-0.1-0.1-0.1-0.2c-0.1-0.2-0.1-0.4-0.1-0.7c0-0.1,0-0.2,0-0.3s0-0.2,0-0.3l0,0l0,0
							c0-0.1,0-0.2,0.1-0.3c0-0.1,0.1-0.2,0.1-0.4c0.1-0.3,0.2-0.5,0.3-0.7l0.1-0.1c0.1-0.1,0.2-0.2,0.2-0.3l0.1-0.1l0.1-0.1
							c0.1-0.1,0.2-0.1,0.2-0.2c0.3-0.2,0.7-0.3,1-0.2c0.1,0,0.1,0,0.1,0.1c0,0,0.1,0,0.1,0.1l0.1,0.1c0,0.1,0.1,0.1,0.1,0.2
							c0,0.1,0.1,0.1,0.1,0.2v0.1c0,0.1,0,0.1,0.1,0.2c0,0.1,0,0.2,0.1,0.3c0,0.2,0,0.5-0.1,0.8c0,0.1,0,0.1,0,0.1
							c0,0.1-0.1,0.3-0.1,0.4c0,0.1-0.1,0.1-0.1,0.2c0,0.1,0,0.1-0.1,0.2l-0.2,0.2c-0.2,0.3-0.4,0.6-0.7,0.9l-0.1,0.1l-0.1,0.1
							c0,0-0.1,0.1-0.2,0.1c-0.1,0-0.1,0.1-0.2,0.1l-0.2,0.1c0,0-0.1,0.1-0.2,0.1c0,0-0.1,0.1-0.2,0.1c0,0,0,0.1-0.1,0.1
							c0,0.1,0,0.1,0,0.2S76.7,212.3,76.7,212.3z"/>
					</g>
				</g>
			</g>
		</g>
		<g id="XMLID_512_">
			<g id="XMLID_513_">
				<g id="XMLID_514_">
					<g id="XMLID_515_">
						<path id="XMLID_516_" class="st2" d="M76.9,212.2c0,0.1,0.1,0.1,0.2,0.2c0.1,0,0.1,0,0.2,0s0.2,0,0.3,0s0.2,0,0.3,0
							c0.1,0,0.1,0,0.2,0c0.2,0,0.4,0,0.7-0.1c0.1,0,0.2,0,0.3-0.1c0.1,0,0.2-0.1,0.3-0.1c0.1,0,0.1,0,0.2-0.1
							c0.2-0.1,0.4-0.1,0.6-0.3c0.1-0.1,0.3-0.2,0.4-0.3l0.2-0.2l0.2-0.1l0.1-0.1c0.1-0.1,0.3-0.2,0.4-0.3c0.1-0.2,0.2-0.3,0.3-0.5
							s0.2-0.4,0.2-0.7c0,0,0,0,0-0.1v-0.1l0,0c0-0.1,0-0.1,0-0.2c0-0.2-0.1-0.3-0.2-0.4l-0.1-0.1c0-0.1-0.1-0.1-0.2-0.2
							c-0.1-0.1-0.2-0.1-0.3-0.2c-0.1,0-0.2-0.1-0.3-0.1h-0.1h-0.1c-0.2,0-0.5-0.1-0.7,0c-0.2,0-0.4,0.1-0.5,0.1s-0.2,0-0.3,0.1
							c-0.1,0-0.1,0.1-0.2,0.1l-0.1,0.1c-0.2,0.1-0.3,0.1-0.5,0.2c-0.2,0.1-0.3,0.2-0.5,0.4c-0.2,0.1-0.3,0.3-0.4,0.5l-0.1,0.1
							c0,0-0.1,0.1-0.1,0.2c-0.1,0.1-0.1,0.2-0.2,0.3c-0.1,0.2-0.2,0.5-0.3,0.7c0,0.1-0.1,0.3-0.1,0.4c0,0.1,0,0.1,0,0.2
							c0,0.1,0,0.1,0,0.2c0,0.1,0.1,0.1,0.2,0.1s0.1-0.1,0.2-0.1c0-0.1,0.1-0.1,0.1-0.2v-0.1c0-0.1,0-0.2,0.1-0.2
							c0-0.1,0-0.1,0.1-0.2c0.1-0.2,0.2-0.4,0.3-0.6c0.1-0.1,0.1-0.1,0.1-0.2c0.1-0.1,0.1-0.1,0.2-0.2l0,0l0,0
							c0.1,0,0.2-0.2,0.2-0.2c0.1-0.1,0.2-0.2,0.3-0.2c0.2-0.2,0.4-0.3,0.7-0.4c0,0,0.1,0,0.1-0.1c0.1,0,0.2-0.1,0.4-0.1
							c0.1,0,0.1,0,0.2,0s0.1,0,0.2,0s0.2,0,0.3,0c0.4,0,0.7,0.1,0.9,0.4c0,0,0,0.1,0.1,0.1c0,0,0,0.1,0.1,0.1c0,0,0,0.1,0,0.2
							c0,0.1,0,0.1,0,0.2c0,0.1,0,0.1,0,0.2v0.1c0,0.1,0,0.1-0.1,0.2c0,0.1-0.1,0.2-0.2,0.3c-0.1,0.2-0.3,0.4-0.5,0.6l-0.1,0.1
							c-0.1,0.1-0.2,0.2-0.3,0.2c-0.1,0-0.1,0.1-0.2,0.1l-0.1,0.1l-0.3,0.1c-0.4,0.2-0.7,0.3-1.1,0.3c-0.1,0-0.1,0-0.2,0
							s-0.1,0-0.2,0s-0.1,0-0.2,0s-0.2,0-0.2,0h-0.2c-0.1,0-0.1,0-0.2,0s-0.1,0-0.2,0h-0.1c-0.1,0-0.1,0.1-0.1,0.1
							C76.9,212.1,76.9,212.2,76.9,212.2z"/>
					</g>
				</g>
			</g>
		</g>
		<g id="XMLID_507_">
			<g id="XMLID_508_">
				<g id="XMLID_509_">
					<g id="XMLID_510_">
						<path id="XMLID_511_" class="st2" d="M73.9,212.5c0,0.1,0,0.1,0.1,0.1l0,0l0,0c0,0,0,0,0.1,0l0,0h0.1c0,0,0,0,0.1,0s0,0,0,0
							l0,0h0.1h0.1c0,0,0,0,0.1,0l0,0l0,0h0.1h0.1H75l0,0l0,0l0,0l0,0h0.1l0,0l0,0c0,0,0,0,0.1,0s0,0,0,0l0,0l0,0h0.1h0.1
							c0,0,0,0,0.1,0l0,0l0,0h0.1h0.1h0.1l0,0l0,0h0.1c0.1,0,0.1-0.1,0.1,0h0.1l0,0c0,0,0,0,0-0.1c0,0,0-0.1,0-0.2
							c0-0.1,0-0.1-0.1-0.1c0,0,0-0.1-0.1-0.1s0,0,0,0s0,0-0.1,0l0,0c-0.1,0-0.1,0-0.1,0s0,0-0.1,0c0,0,0,0-0.1,0l0,0l0,0h-0.1h-0.1
							c0,0-0.1,0-0.2,0l0,0H75l0,0l0,0c0,0,0,0-0.1,0s-0.2,0-0.2,0l0,0l0,0l0,0c0,0,0,0-0.1,0c0,0,0,0-0.1,0l0,0l0,0h-0.1
							c0,0-0.1,0-0.2,0l0,0H74l0,0l0,0c0,0,0,0-0.1,0s-0.2,0-0.2,0.1l0,0l0,0l0,0c0,0,0,0-0.1,0c0,0,0,0-0.1,0l0,0l0,0
							c0,0,0,0,0,0.1v0.1C73.9,212.4,73.9,212.5,73.9,212.5z"/>
					</g>
				</g>
			</g>
		</g>
		<g id="XMLID_502_">
			<g id="XMLID_503_">
				<g id="XMLID_504_">
					<g id="XMLID_505_">
						<path id="XMLID_506_" class="st2" d="M76,214c0,0.1,0,0.1,0.1,0.1l0,0c0,0,0,0,0.1,0h0.1l0,0c0.1,0,0.1,0,0.2,0h0.1
							c0,0,0,0,0.1,0s0,0,0.1,0h0.1H77c0,0,0,0,0.1,0s0,0,0,0l0,0h0.1c0.1,0,0.1,0,0.1,0c0.1,0,0.1,0,0.2,0l0,0l0,0l0,0
							c0,0,0,0,0.1,0h0.1l0,0c0,0,0,0,0.1,0h0.1c0,0,0,0,0.1,0l0,0l0,0h0.1h0.1c0,0,0,0,0.1,0s0,0,0,0l0,0h0.1c0.1,0,0.1,0,0.1,0
							c0.1,0,0.1,0,0.2,0l0,0c0,0,0,0,0.1,0H79c0.1,0,0.1-0.1,0.2,0h0.1l0,0c0,0,0,0,0-0.1c0,0,0-0.1,0-0.2c0-0.1,0-0.1-0.1-0.1
							c0,0,0-0.1-0.1-0.1l0,0c0,0,0,0-0.1,0c0,0,0,0-0.1,0s-0.1,0-0.2,0h-0.1c0,0,0,0-0.1,0l0,0l0,0h-0.1h-0.1c-0.1,0-0.1,0-0.2,0
							l0,0h-0.1c0,0,0,0-0.1,0l0,0h-0.1c-0.1,0-0.2,0-0.3,0c0,0,0,0-0.1,0l0,0c0,0,0,0-0.1,0c0,0,0,0-0.1,0s0,0-0.1,0l0,0
							c0,0,0,0-0.1,0h-0.1c-0.1,0-0.1,0-0.2,0l0,0h-0.1c0,0,0,0-0.1,0l0,0h-0.1c-0.1,0-0.2,0-0.3,0c0,0,0,0-0.1,0l0,0c0,0,0,0-0.1,0
							c0,0,0,0-0.1,0c0,0,0,0-0.1,0l0,0l0,0c0,0,0,0,0,0.1v0.1C76,213.9,76,214,76,214z"/>
					</g>
				</g>
			</g>
		</g>
		<g id="XMLID_497_">
			<g id="XMLID_498_">
				<g id="XMLID_499_">
					<g id="XMLID_500_">
						<path id="XMLID_501_" class="st2" d="M46.2,219.2c-0.1-0.1-0.1-0.1-0.3-0.2c-0.1,0-0.2,0-0.3,0c-0.1,0-0.3,0-0.4,0
							c-0.2,0-0.3,0-0.5,0c-0.1,0-0.2,0-0.3,0c-0.3,0-0.7,0-1-0.1c-0.1,0-0.3,0-0.4,0s-0.3,0-0.4,0s-0.2,0-0.3,0c-0.3,0-0.7-0.1-1,0
							c-0.3,0-0.5,0-0.8,0c-0.1,0-0.3,0-0.4,0s-0.2,0-0.3,0c-0.1,0-0.1,0-0.2,0c-0.3,0-0.5-0.1-0.8-0.1s-0.6,0-0.9,0s-0.6,0-0.9,0
							h-0.1h-0.1l0,0c-0.1,0-0.2,0-0.3,0c-0.2,0-0.4,0-0.6,0c-0.1,0-0.1,0-0.2,0s-0.2,0-0.3,0c-0.1,0-0.3,0-0.4,0s-0.3,0-0.4,0
							s-0.1,0-0.2,0c-0.1,0-0.1,0-0.2,0c-0.3,0-0.7-0.1-1,0c-0.3,0-0.5,0-0.8,0c-0.1,0-0.3,0-0.4,0c-0.1,0-0.2,0-0.3,0
							c-0.1,0-0.1,0-0.2,0c-0.3,0-0.5-0.1-0.8-0.1c-0.3,0-0.6,0-0.9,0c-0.3,0-0.6,0-0.9,0c-0.1,0-0.1,0-0.2,0c-0.1,0-0.2,0-0.3,0
							c-0.2,0-0.4,0-0.6,0c-0.4,0-0.8,0-1.2,0c-0.2,0-0.4,0-0.6,0c-0.1,0-0.2,0-0.2,0c-0.1,0-0.2,0-0.2,0c-0.1,0-0.2,0.1-0.2,0.1
							s0.1,0.1,0.2,0.2c0.1,0.1,0.2,0.1,0.4,0.1c0.1,0,0.2,0,0.2,0c0.1,0,0.3,0,0.4,0s0.3,0,0.4,0c0.4,0,0.8,0,1.2,0.1
							c0.1,0,0.3,0,0.4,0c0.2,0,0.3,0,0.5,0c0,0,0,0,0.1,0c0,0,0,0,0.1,0c0.2,0,0.4,0,0.6,0c0.2,0,0.4,0,0.6,0
							c0.4,0,0.9,0.1,1.3,0.1c0.1,0,0.2,0,0.3,0c0.2,0,0.5,0,0.7,0c0.1,0,0.2,0,0.3,0c0.1,0,0.2,0,0.3,0c0.2,0,0.3,0,0.5,0
							c0.7,0,1.3,0.1,2,0.1c0.1,0,0.2,0,0.3,0c0.1,0,0.2,0,0.3,0c0.1,0,0.2,0,0.3,0c0.1,0,0.2,0,0.4,0c0.1,0,0.3,0,0.4,0
							s0.1,0,0.1,0c0.1,0,0.2,0,0.4,0c0.2,0,0.4,0,0.6,0c0.4,0,0.9,0.1,1.3,0.1c0.1,0,0.2,0,0.3,0c0.2,0,0.5,0,0.7,0
							c0.1,0,0.2,0,0.3,0c0.1,0,0.2,0,0.3,0c0.2,0,0.3,0,0.5,0c0.7,0,1.3,0.1,2,0.1c0.1,0,0.2,0,0.3,0c0.1,0,0.2,0,0.3,0
							c0.1,0,0.2,0,0.3,0c0.1,0,0.2,0,0.4,0c0.1,0,0.3,0,0.4,0s0.2,0,0.3,0c0.1,0,0.2,0,0.3,0c0.1,0,0.1,0,0.1,0
							c0.1,0,0.1-0.1,0.2-0.1C46.3,219.2,46.3,219.2,46.2,219.2z"/>
					</g>
				</g>
			</g>
		</g>
		<g id="XMLID_492_">
			<g id="XMLID_493_">
				<g id="XMLID_494_">
					<g id="XMLID_495_">
						<path id="XMLID_496_" class="st2" d="M29.7,218.3c0.1,0,0.1,0,0.1-0.1v-0.1V218c0-0.1,0-0.1,0-0.2v-0.1c0-0.1,0-0.2,0-0.4
							v-0.2c0,0,0-0.1,0-0.2v-0.1c-0.1-0.1-0.1-0.2-0.1-0.3s-0.1-0.2-0.1-0.3l-0.1-0.1c0,0,0-0.1-0.1-0.1v-0.1
							c0-0.1-0.1-0.2-0.1-0.2c-0.1-0.1-0.1-0.2-0.2-0.3c-0.1-0.1-0.1-0.2-0.2-0.3l0,0l0,0l0,0c0,0,0-0.1-0.1-0.1l-0.2-0.1
							c0,0,0,0-0.1,0l-0.1,0l-0.1-0.1c0,0-0.1,0-0.1-0.1c0,0,0,0-0.1,0c0,0,0,0-0.1,0c-0.1,0-0.2-0.1-0.3-0.1
							c-0.1,0-0.2-0.1-0.3-0.1h-0.1h-0.1h-0.1c-0.1,0-0.2-0.1-0.3-0.1c-0.1,0-0.2,0-0.3,0c-0.1,0-0.2,0-0.3,0H26h-0.1
							c-0.1,0-0.1,0-0.2,0s-0.3,0.1-0.4,0.1c-0.1,0-0.2,0-0.2,0.1H25c0,0,0,0.1-0.1,0.1c0,0.1,0,0.1,0,0.2c0,0.1,0.1,0.1,0.1,0.1
							h0.1c0,0,0,0,0.1,0h0.1h0.1c0.1,0,0.2,0,0.4-0.1c0.1,0,0.1,0,0.1,0c0.1,0,0.1,0,0.2,0l0,0l0,0c0.1,0,0.1,0,0.2,0h0.2
							c0.1,0,0.3,0,0.4,0.1h0.1c0.1,0,0.1,0,0.2,0.1h0.1h0.1l0.1,0.1c0.2,0.1,0.4,0.2,0.5,0.3c0,0,0,0,0.1,0.1h0.1c0,0,0,0,0.1,0.1
							c0,0,0,0.1,0.1,0.1l0.1,0.1l0,0c0,0,0,0.1,0.1,0.1l0.1,0.2c0.1,0.1,0.2,0.2,0.2,0.4c0,0,0,0,0,0.1s0.1,0.1,0.1,0.2v0.1
							c0,0,0,0,0,0.1v0.1c0.1,0.2,0.1,0.4,0.1,0.6v0.1v0.1v0.1v0.1v0.1v0.1v0.1c0,0,0,0,0,0.1l0.1,0.1
							C29.7,218.3,29.7,218.3,29.7,218.3z"/>
					</g>
				</g>
			</g>
		</g>
		<g id="XMLID_487_">
			<g id="XMLID_488_">
				<g id="XMLID_489_">
					<g id="XMLID_490_">
						<path id="XMLID_491_" class="st2" d="M41.2,214.7c0.1,0.1,0.1,0.1,0.3,0c0.1,0,0.1,0,0.2-0.1c0.1,0,0.2-0.1,0.2-0.1
							c0.1,0,0.2-0.1,0.3-0.1c0.1,0,0.1-0.1,0.2-0.1c0.2-0.1,0.4-0.2,0.5-0.4c0.1-0.1,0.2-0.1,0.2-0.2c0.1-0.1,0.1-0.1,0.2-0.2
							c0.1,0,0.1-0.1,0.2-0.1c0.1-0.2,0.3-0.3,0.4-0.5c0.1-0.1,0.2-0.3,0.3-0.4l0.1-0.2l0.1-0.2l0.1-0.1c0.1-0.2,0.1-0.3,0.2-0.5
							c0-0.2,0.1-0.4,0-0.6c0-0.2-0.1-0.5-0.2-0.7l0,0V210l0,0c0-0.1-0.1-0.1-0.1-0.2c-0.1-0.1-0.2-0.2-0.3-0.3l-0.1-0.1
							c-0.1,0-0.1-0.1-0.2-0.1s-0.2-0.1-0.3-0.1c-0.1,0-0.2,0-0.3,0c-0.1,0-0.1,0-0.1,0h-0.1c-0.2,0.1-0.4,0.1-0.6,0.3
							c-0.2,0.1-0.3,0.2-0.4,0.3s-0.1,0.1-0.2,0.2c0,0.1-0.1,0.1-0.1,0.2l-0.1,0.1c-0.1,0.1-0.2,0.3-0.3,0.4
							c-0.1,0.2-0.2,0.4-0.2,0.5c-0.1,0.2-0.1,0.4-0.2,0.6c0,0.1,0,0.1,0,0.1c0,0.1,0,0.1,0,0.2c0,0.1,0,0.3,0,0.4
							c0,0.3,0.1,0.5,0.1,0.8c0,0.1,0,0.3,0.1,0.4c0,0,0,0.1,0.1,0.1l0.1,0.1c0.1,0.1,0.1,0.1,0.2,0c0,0,0.1-0.1,0.1-0.2
							c0-0.1,0-0.2,0-0.2v-0.1c0-0.1,0-0.2-0.1-0.2c0-0.1,0-0.1-0.1-0.2c0-0.2,0-0.5,0-0.7c0-0.1,0-0.2,0-0.2c0-0.1,0-0.2,0-0.3l0,0
							l0,0c0-0.1,0.1-0.2,0.1-0.3s0.1-0.2,0.1-0.3c0.1-0.2,0.2-0.5,0.4-0.7l0.1-0.1c0.1-0.1,0.2-0.2,0.3-0.3c0,0,0.1-0.1,0.2-0.1
							l0.1-0.1c0.1,0,0.2-0.1,0.3-0.1c0.3-0.1,0.7-0.2,1,0l0.1,0.1c0,0,0.1,0,0.1,0.1l0.1,0.1c0,0.1,0.1,0.1,0.1,0.2
							c0,0.1,0.1,0.1,0.1,0.2v0.1c0,0.1,0,0.1,0,0.2c0,0.1,0,0.2,0,0.3c0,0.2-0.1,0.5-0.2,0.7c0,0.1,0,0.1-0.1,0.1
							c-0.1,0.1-0.1,0.2-0.2,0.3c0,0.1-0.1,0.1-0.1,0.2c0,0.1,0,0.1-0.1,0.2l-0.2,0.2c-0.2,0.3-0.5,0.6-0.8,0.8
							c-0.1,0-0.1,0.1-0.2,0.1l-0.1,0.1c0,0-0.1,0.1-0.2,0.1s-0.1,0.1-0.2,0.1l-0.2,0.1c-0.1,0-0.1,0.1-0.2,0.1c0,0-0.1,0-0.2,0.1
							c0,0,0,0.1-0.1,0.1C41.2,214.5,41.2,214.6,41.2,214.7L41.2,214.7z"/>
					</g>
				</g>
			</g>
		</g>
		<g id="XMLID_482_">
			<g id="XMLID_483_">
				<g id="XMLID_484_">
					<g id="XMLID_485_">
						<path id="XMLID_486_" class="st2" d="M41.4,214.6c0,0.1,0.1,0.1,0.2,0.2c0.1,0,0.1,0,0.2,0.1c0.1,0,0.2,0,0.2,0
							c0.1,0,0.2,0.1,0.3,0.1c0.1,0,0.1,0,0.2,0c0.2,0,0.4,0,0.7,0c0.1,0,0.2,0,0.3,0c0.1,0,0.2,0,0.3-0.1c0.1,0,0.1,0,0.2,0
							c0.2-0.1,0.4-0.1,0.6-0.2c0.2-0.1,0.3-0.1,0.5-0.2l0.2-0.1l0.2-0.1l0.1-0.1c0.1-0.1,0.3-0.2,0.4-0.3c0.2-0.1,0.3-0.3,0.4-0.5
							c0.1-0.2,0.2-0.4,0.2-0.6c0,0,0,0,0-0.1v-0.1l0,0c0-0.1,0-0.1,0-0.2c0-0.2,0-0.3-0.1-0.4c0,0,0-0.1-0.1-0.1
							c0-0.1-0.1-0.1-0.1-0.2c-0.1-0.1-0.1-0.2-0.2-0.2c-0.1-0.1-0.2-0.1-0.2-0.1l-0.1-0.1c0,0-0.1,0-0.1-0.1
							c-0.2-0.1-0.4-0.1-0.6-0.1s-0.4,0-0.5,0c-0.1,0-0.2,0-0.3,0c-0.1,0-0.1,0-0.2,0h-0.1c-0.2,0-0.3,0.1-0.5,0.2
							c-0.2,0.1-0.3,0.2-0.5,0.3s-0.3,0.2-0.5,0.4l-0.1,0.1l-0.1,0.1c-0.1,0.1-0.2,0.2-0.3,0.3c-0.2,0.2-0.2,0.4-0.4,0.7
							c-0.1,0.1-0.1,0.3-0.2,0.4c0,0.1,0,0.1,0,0.2c0,0.1,0,0.1,0,0.2c0,0.1,0.1,0.1,0.1,0.1c0.1,0,0.1,0,0.2-0.1
							c0.1,0,0.1-0.1,0.1-0.2v-0.1c0-0.1,0.1-0.1,0.1-0.2c0-0.1,0-0.1,0.1-0.2c0.1-0.2,0.2-0.4,0.4-0.6c0.1-0.1,0.1-0.1,0.2-0.2
							c0.1-0.1,0.1-0.1,0.2-0.2l0,0l0,0c0.1,0,0.2-0.1,0.3-0.2c0.1-0.1,0.2-0.1,0.3-0.2c0.2-0.1,0.5-0.2,0.7-0.3h0.1
							c0.1,0,0.3,0,0.4,0c0.1,0,0.1,0,0.2,0s0.1,0,0.2,0s0.2,0,0.3,0c0.4,0.1,0.7,0.2,0.8,0.5c0,0,0,0.1,0.1,0.1v0.1
							c0,0.1,0,0.1,0,0.2c0,0.1,0,0.1,0,0.2c0,0.1,0,0.1-0.1,0.2v0.1c0,0.1-0.1,0.1-0.1,0.2c-0.1,0.1-0.1,0.2-0.2,0.3
							c-0.2,0.2-0.4,0.3-0.6,0.5c0,0-0.1,0-0.1,0.1c-0.1,0.1-0.2,0.1-0.4,0.2c-0.1,0-0.1,0.1-0.2,0.1s-0.1,0-0.2,0.1l-0.3,0.1
							c-0.4,0.1-0.7,0.2-1.1,0.2c-0.1,0-0.1,0-0.2,0c-0.1,0-0.1,0-0.2,0s-0.1,0-0.2,0s-0.1,0-0.2,0H42c-0.1,0-0.1,0-0.2,0
							c-0.1,0-0.1,0-0.2,0h-0.1C41.4,214.5,41.4,214.5,41.4,214.6C41.4,214.5,41.4,214.6,41.4,214.6z"/>
					</g>
				</g>
			</g>
		</g>
		<g id="XMLID_477_">
			<g id="XMLID_478_">
				<g id="XMLID_479_">
					<g id="XMLID_480_">
						<path id="XMLID_481_" class="st2" d="M38.5,214.5c0,0.1,0,0.1,0.1,0.1l0,0c0,0,0,0,0.1,0c0,0,0,0,0.1,0l0,0h0.1c0,0,0,0,0.1,0
							s0,0,0.1,0l0,0h0.1h0.1c0,0,0,0,0.1,0l0,0l0,0h0.1h0.1h0.1l0,0l0,0l0,0l0,0h0.1l0,0l0,0c0,0,0,0,0.1,0s0,0,0,0l0,0l0,0H40h0.1
							c0,0,0,0,0.1,0l0,0l0,0h0.1h0.1h0.1l0,0l0,0h0.1c0.1,0,0.1,0,0.1,0h0.1l0,0c0,0,0,0,0-0.1c0,0,0-0.1,0-0.2c0-0.1,0-0.1,0-0.1
							s0-0.1-0.1-0.1l0,0c0,0,0,0-0.1,0c0,0,0,0-0.1,0s-0.1,0-0.2,0c0,0,0,0-0.1,0c0,0,0,0-0.1,0l0,0l0,0H40h-0.1
							c-0.1,0-0.1,0-0.2,0l0,0h-0.1l0,0l0,0c0,0,0,0-0.1,0c-0.1,0-0.2,0-0.2,0l0,0l0,0l0,0c0,0,0,0-0.1,0c0,0,0,0-0.1,0l0,0l0,0H39
							c-0.1,0-0.1,0-0.2,0l0,0h-0.1l0,0l0,0c0,0,0,0-0.1,0c-0.1,0-0.2,0-0.2,0l0,0l0,0l0,0c0,0,0,0-0.1,0c0,0,0,0-0.1,0l0,0l0,0
							c0,0,0,0,0,0.1C38.5,214.3,38.5,214.3,38.5,214.5C38.5,214.4,38.5,214.4,38.5,214.5z"/>
					</g>
				</g>
			</g>
		</g>
		<g id="XMLID_472_">
			<g id="XMLID_473_">
				<g id="XMLID_474_">
					<g id="XMLID_475_">
						<path id="XMLID_476_" class="st2" d="M40.2,216.3c0,0.1,0,0.1,0.1,0.1l0,0c0,0,0,0,0.1,0h0.1c0,0,0,0,0.1,0c0.1,0,0.1,0,0.2,0
							h0.1c0,0,0,0,0.1,0c0,0,0,0,0.1,0c0,0,0.1,0,0.2,0h0.1c0,0,0,0,0.1,0c0.1,0,0,0,0.1,0l0,0h0.1c0.1,0,0.1,0,0.1,0
							c0.1,0,0.1,0,0.2,0l0,0l0,0l0,0c0,0,0,0,0.1,0h0.1l0,0c0,0,0,0,0.1,0h0.1c0,0,0,0,0.1,0l0,0l0,0c0,0,0.1,0,0.2,0h0.1
							c0,0,0,0,0.1,0s0,0,0.1,0l0,0h0.1c0.1,0,0.1,0,0.1,0c0.1,0,0.1,0,0.2,0l0,0c0,0,0,0,0.1,0h0.1c0.1,0,0.1,0,0.2,0H44l0,0
							c0,0,0,0,0-0.1c0,0,0-0.1,0-0.2s0-0.1,0-0.1s0-0.1-0.1-0.1l0,0c0,0,0,0-0.1,0c0,0,0,0-0.1,0s-0.1,0-0.2,0c0,0,0,0-0.1,0h-0.1
							l0,0l0,0h-0.1h-0.1c-0.1,0-0.1,0-0.2,0l0,0h-0.1c0,0,0,0-0.1,0l0,0h-0.1c-0.1,0-0.2,0-0.3,0c0,0,0,0-0.1,0l0,0c0,0,0,0-0.1,0
							c0,0,0,0-0.1,0s0,0-0.1,0l0,0c0,0,0,0-0.1,0h-0.1c-0.1,0-0.1,0-0.2,0l0,0h-0.1c0,0,0,0-0.1,0l0,0h-0.1c-0.1,0-0.2,0-0.3,0
							c0,0,0,0-0.1,0l0,0c0,0,0,0-0.1,0c0,0,0,0-0.1,0c0,0,0,0-0.1,0l0,0c0,0,0,0-0.1,0c0,0,0,0,0,0.1v0.1
							C40.2,216.3,40.2,216.3,40.2,216.3z"/>
					</g>
				</g>
			</g>
		</g>
	</g>
	<g id="XMLID_146_">
		<path id="XMLID_147_" class="st3" d="M25.8,89.1l28-10.2l0,0l0.5-0.2c0.4-0.2,0.8-0.3,1.2-0.3L99,72.6c2.9-0.4,5.6,1.6,6,4.5
			c0.4,2.8-1.4,5.2-4.1,5.9L59,92.1c-0.1,0-0.1-0.1,0-0.1l17.7-3.8c0.1,0-20.6-1.3-17.7,3.9L33.2,104c-4.1,2.2-9.5,0.8-11.6-3.3
			c-2.2-4.1-0.6-9.1,3.5-11.3C25.4,89.3,25.6,89.2,25.8,89.1L25.8,89.1z"/>
	</g>
	<g>
		<g id="XMLID_142_">
			<g id="XMLID_143_">
				<g id="XMLID_144_">
					<path id="XMLID_145_" class="st3" d="M103.3,77c-0.1-0.4-0.1-0.5-0.1-0.6s0-0.3,0-0.4c0-0.3,0-0.5,0-0.7c0-0.4,0.1-0.8,0.1-1.2
						c0.1-0.8,0.3-1.4,0.5-2.2c0.4-1.3,1-2.6,1.6-3.8c0.4-0.9,1.5-1.2,2.4-0.7c0.7,0.4,1.1,1.2,0.9,2l0,0c-0.3,1.2-0.5,2.4-0.5,3.5
						c0,0.6,0,1.1,0,1.5c0,0.2,0.1,0.5,0.1,0.7c0,0.1,0,0.2,0.1,0.2c0,0,0,0,0,0.1c0,0,0,0.1,0-0.2c0.5,1.4-0.2,3-1.5,3.5
						C105.4,79.1,103.8,78.4,103.3,77z"/>
				</g>
			</g>
		</g>
		<g id="XMLID_138_">
			<g id="XMLID_139_">
				<g id="XMLID_140_">
					<path id="XMLID_141_" class="st3" d="M106.7,81.2c1-0.1,2-0.2,2.9-0.4c0.9-0.2,1.9-0.3,2.9-0.5c1.9-0.4,3.8-1,5.7-2.1
						c0.9-0.5,1.2-1.5,0.7-2.5c-0.4-0.8-1.3-1.1-2.3-0.8h-0.1c-1.4,0.5-3.1,0.8-4.8,0.9c-0.8,0.1-1.7,0.1-2.6,0.1s-1.7,0-2.6,0
						c-1.4-0.1-2.7,1-2.8,2.5c-0.1,1.4,1,2.7,2.5,2.8C106.5,81.3,106.6,81.3,106.7,81.2z"/>
				</g>
			</g>
		</g>
		<g id="XMLID_134_">
			<g id="XMLID_135_">
				<g id="XMLID_136_">
					<path id="XMLID_137_" class="st3" d="M107.2,78.3c1-0.2,2-0.3,3-0.6c0.9-0.2,2-0.5,2.9-0.7c0.9-0.3,2-0.6,3-1
						c0.5-0.2,1-0.5,1.5-0.8c0.2-0.1,0.5-0.4,0.8-0.6c0.3-0.2,0.5-0.5,0.8-0.8c0.6-0.7,0.6-1.9-0.2-2.5c-0.6-0.5-1.4-0.6-2.2-0.1
						l-0.5,0.3c-0.2,0.1-0.9,0.5-1.7,0.7c-0.8,0.2-1.6,0.3-2.6,0.5c-0.9,0.1-1.7,0.2-2.7,0.3c-0.9,0.1-1.9,0.1-2.7,0.1
						c-1.4,0-2.7,1.2-2.7,2.7s1.2,2.7,2.7,2.7C107,78.3,107.1,78.3,107.2,78.3z"/>
				</g>
			</g>
		</g>
		<g id="XMLID_130_">
			<g id="XMLID_131_">
				<g id="XMLID_132_">
					<path id="XMLID_133_" class="st3" d="M103,76.5c1.4-0.3,2.7-0.6,4-0.9c1.3-0.4,2.6-0.8,3.8-1.2c2.5-0.9,4.9-2.1,7.2-3.7
						c0.8-0.5,1-1.6,0.5-2.6c-0.5-0.8-1.5-1-2.4-0.6l0,0c-2.1,1.1-4.3,1.9-6.7,2.5c-1.1,0.3-2.4,0.5-3.5,0.7
						c-1.1,0.2-2.5,0.3-3.5,0.4l0,0c-1.4,0.1-2.6,1.4-2.5,2.9s1.4,2.6,2.9,2.5C102.8,76.5,102.9,76.5,103,76.5z"/>
				</g>
			</g>
		</g>
	</g>
	<path class="st4" d="M50.1,21.3C44,17,36.7,19.9,35.7,26.2C34.5,34.3,36,40.9,34,46.4C31,54.8,31.8,63,31.8,63
		c8.3-11.3,16.9-6.7,21.6-18C54.9,41.3,55.9,25.5,50.1,21.3z"/>
	<polygon class="st5" points="47.7,48.8 40.5,48.8 40.5,34.9 44.9,34.9 	"/>
	<path class="st6" d="M53.1,27.9c1.2,5.7,0.3,11.4-3.1,12.6c-3.2,1.1-8.8-2-11.4-7.5c-2.7-6-1.4-10.4,3.4-12
		C47,19.3,51.7,21.7,53.1,27.9z"/>
	<polygon class="st5" points="56.2,119.9 56.1,118.7 54.7,109.4 35.2,113.6 36.9,119.9 	"/>
	<polygon class="st5" points="46.2,119.9 47.6,111.3 27.7,109.4 27.4,118.8 27.4,119.9 	"/>
	<polygon class="st7" points="60.6,119.9 59,107.6 31.3,107.6 34.2,119.9 	"/>
	<path class="st7" d="M49.4,119.9c0.6-7.3,1-12.2,1-12.2H23.8c0,0,0.1,5,0.2,12.2H49.4z"/>
	<path class="st8" d="M82.7,72l8.7,15.8c0,0-20.7,9.7-30.1,5.2c-13.2-6.2-35.9-31.8-28.8-40.5c7.9-9.7,20.3,14.9,33.1,22.5
		C71.2,78.3,82.7,72,82.7,72z"/>
	<path class="st9" d="M38,48.1c0,0,5.8,5,11.4,1.6c0,0,2,20.9,4.5,29.3c2.6,8.5,9.3,30.1,9.3,30.1L22.5,110
		C21.4,91,28.6,69.3,38,48.1z"/>
	<path class="st6" d="M42.1,61.8c-2.7,5-5.1,10.2-7.5,15.3c-1.1,2.6-2.3,5.2-3.3,7.8s-2,5.2-2.6,7.8c-0.2,0.6-0.3,1.2-0.4,1.9
		L28,96.6c-0.2,1.3-0.3,2.8-0.5,4.2c-0.3,2.8,6.9,2.2,6.7,4.9c-0.4,5.8-0.6,11.5-0.7,17.3l-0.1,2.8L16.9,130l-0.1-2.8
		c-0.2-5.9-0.3-11.6-0.2-17.5c0-2.9,3.8-6.5,3.9-9.5c0.1-1.4,0.2-3,0.3-4.4l0.2-2.3c0.1-0.8,0.2-1.6,0.4-2.5
		c0.6-3.1,1.4-6.1,2.4-8.8c0.9-2.9,2-5.7,3.1-8.4c2.2-5.6,4.5-10.9,7-16.2l2-4.2l8.5,4.3L42.1,61.8z"/>
	<path class="st10" d="M36.5,45.6c0,0-19.8,29.6-15.7,61.3c0,0-1.7,6.2,20.8,5.3s23.7-4,23.7-4c-7.1-17-12.6-36.2-15.4-59.3
		C49.9,49,41.5,49.3,36.5,45.6z"/>
	<path class="st8" d="M34.5,113.6l-18.8,2.4c0,0,2.1-19.8,4.6-31.1c3.2-14.2,9.3-35.3,20-32.5c14.2,3.7-6.4,32.2-7.8,40
		C31.4,98.7,34.5,113.6,34.5,113.6z"/>
	<path class="st4" d="M43.6,19.5c-1.6,0-2.8,0.1-4.2,0.9c-2.3,1.1-5.2,4-5.9,10.3c-0.5,5.9,1.9,8.8-3.2,14.4
		c-5.7,4.3-15.8,3.6-14.6,13.3c1.1,9.7,14,8.4,17.1,3.6c3.1-4.8,2.7-9.1,4.4-12.2c1.6-3.1,4.6-1.2,6.1-4.6
		c1.7-3.2-1.2-10.3-1.9-11.5c0.3-1.2,0.8-2.5,2.8-3c4.1-1.1,7.6-5,7.6-6.3C51.8,23.1,48,19.5,43.6,19.5z"/>
	<ellipse transform="matrix(0.9121 -0.4099 0.4099 0.9121 -9.4496 20.0532)" class="st6" cx="42" cy="32.1" rx="1.5" ry="1.9"/>
	<g>
		
			<linearGradient id="SVGID_1_" gradientUnits="userSpaceOnUse" x1="314.6251" y1="-1214.7371" x2="331.5808" y2="-1214.7371" gradientTransform="matrix(0.6374 0.7705 0.7705 -0.6374 756.0239 -887.6043)">
			<stop  offset="0" style="stop-color:#FFFFFF"/>
			<stop  offset="1" style="stop-color:#E7ECF9"/>
		</linearGradient>
		<polygon class="st11" points="14.8,138.9 14.4,134.1 37.2,132.4 37.6,137 		"/>
		<path class="st12" d="M71.3,132c-0.5-6.3-0.4-12.1,0.1-17.3c-3.3-0.5-6.8-0.6-10.5-0.3C44.6,115.7,32.2,125,33,135.1
			c0.8,10.1,14.6,17.3,30.8,15.9c3.7-0.3,7.1-1,10.3-2.1C72.7,144,71.8,138.2,71.3,132z"/>
		<path class="st13" d="M42.3,127.8c0.2,0,0.3,0.1,0.5,0.1c0.2,0.1,0.3,0.1,0.5,0.2c0.1,0,0.2,0.1,0.2,0.1c0.1,0,0.2,0.1,0.2,0.1
			h0.1h0.1l0.1,0.1c0.1,0,0.1,0.1,0.2,0.1c0.6,0.4,1.1,0.9,1.5,1.4c0.4,0.5,0.7,1.1,1,1.7c0.2,0.6,0.4,1.3,0.4,2
			c0.1,1.3-0.2,2.8-0.8,4c0,0.1-0.1,0.1-0.1,0.2c0,0.1-0.1,0.1-0.1,0.2l-0.1,0.2c0,0.1-0.1,0.1-0.1,0.2c-0.1,0.1-0.1,0.1-0.2,0.2
			c-0.1,0.1-0.1,0.1-0.2,0.2c-0.1,0.1-0.1,0.1-0.2,0.2l-0.1,0.1l0,0l0,0c-0.1,0.1-0.1,0.1-0.2,0.2l-0.2,0.4l0,0h-0.1
			c-0.1,0.1-0.1,0.1-0.2,0.2c-0.1,0.1-0.1,0.1-0.2,0.1c-0.1,0.1-0.3,0.2-0.4,0.3c-0.2,0.1-0.3,0.2-0.5,0.2c0-0.2,0.1-0.3,0.1-0.5
			c0-0.1,0.1-0.3,0.1-0.4c0-0.1,0.1-0.3,0.1-0.4c0-0.1,0-0.1,0.1-0.2c0-0.1,0-0.1,0.1-0.2c0-0.1,0-0.1,0.1-0.2c0-0.1,0-0.1,0.1-0.2
			c0-0.1,0.1-0.3,0.1-0.4c0-0.1,0-0.1,0-0.2v-0.2c0-0.1,0-0.1,0-0.2c0-0.1,0-0.1,0-0.2c0.2-1,0.2-2.1,0.1-3.1s-0.3-2.1-0.6-3.1
			c-0.2-0.5-0.4-1-0.6-1.5c0-0.1-0.1-0.1-0.1-0.2v-0.1v-0.1c-0.1-0.1-0.1-0.3-0.2-0.4c-0.1-0.1-0.1-0.3-0.2-0.4
			C42.5,128.1,42.4,128,42.3,127.8z"/>
		<g>
			<path class="st13" d="M59.8,143.5c-0.1,0-0.1-0.1-0.2-0.1s-0.1-0.1-0.2-0.1s-0.1-0.1-0.2-0.1s-0.1-0.1-0.2-0.1
				c-0.2-0.2-0.5-0.4-0.6-0.7c-0.4-0.5-0.6-1.2-0.6-1.9c-0.1-0.6,0.1-1.3,0.3-2c0.1-0.3,0.3-0.6,0.5-0.8c0.1-0.1,0.1-0.1,0.2-0.2
				c0.1-0.1,0.1-0.1,0.2-0.2c0.1,0,0.1-0.1,0.2-0.1s0.1-0.1,0.2-0.1c0,0.1,0,0.1-0.1,0.2c0,0.1,0,0.1-0.1,0.2c0,0.1,0,0.1-0.1,0.2
				l-0.1,0.2c-0.1,0.3-0.1,0.5-0.2,0.8c-0.1,0.5-0.1,1-0.1,1.5c0,0.5,0.1,1,0.3,1.5c0.1,0.2,0.2,0.5,0.3,0.8l0.1,0.2
				c0,0.1,0.1,0.1,0.1,0.2c0,0.1,0.1,0.1,0.1,0.2C59.7,143.4,59.7,143.4,59.8,143.5z"/>
			<path class="st13" d="M58.6,128.4c-0.1,0-0.1-0.1-0.2-0.1s-0.1-0.1-0.2-0.1s-0.1-0.1-0.2-0.1s-0.1-0.1-0.2-0.1
				c-0.2-0.2-0.5-0.4-0.6-0.7c-0.4-0.5-0.6-1.2-0.6-1.9c-0.1-0.6,0.1-1.3,0.3-2c0.1-0.3,0.3-0.6,0.5-0.8c0.1-0.1,0.1-0.1,0.2-0.2
				s0.1-0.1,0.2-0.2c0.1,0,0.1-0.1,0.2-0.1s0.1-0.1,0.2-0.1c0,0.1,0,0.1-0.1,0.2c0,0.1,0,0.1-0.1,0.2c0,0.1,0,0.1-0.1,0.2l-0.1,0.2
				c-0.1,0.3-0.1,0.5-0.2,0.8c-0.1,0.5-0.1,1-0.1,1.5c0,0.5,0.1,1,0.3,1.5c0.1,0.2,0.2,0.5,0.3,0.8l0.1,0.2c0,0.1,0.1,0.1,0.1,0.2
				c0,0.1,0.1,0.1,0.1,0.2C58.5,128.3,58.6,128.4,58.6,128.4z"/>
		</g>
	</g>
	<g>
		
			<linearGradient id="SVGID_2_" gradientUnits="userSpaceOnUse" x1="128.2401" y1="646.1798" x2="142.4299" y2="646.1798" gradientTransform="matrix(0.9695 -0.2452 -0.2452 -0.9695 130.9091 724.983)">
			<stop  offset="0" style="stop-color:#FFFFFF"/>
			<stop  offset="1" style="stop-color:#E7ECF9"/>
		</linearGradient>
		<polygon class="st14" points="113.9,77 108.6,80.1 93.5,53.7 98.8,50.6 		"/>
		<path class="st8" d="M73.7,13c-7.2,4.1-14.4,7.4-20.9,9.7c1.2,4.2,3.1,8.5,5.6,12.8c10.8,18.8,29,28.6,40.7,21.9
			s12.5-27.4,1.7-46.2C98.4,7,95.6,3.2,92.6,0C87.3,4.3,80.9,8.8,73.7,13z"/>
		
			<linearGradient id="SVGID_3_" gradientUnits="userSpaceOnUse" x1="82.1767" y1="184.6752" x2="97.3928" y2="184.6752" gradientTransform="matrix(1 0 0 -1 0 226.9291)">
			<stop  offset="0" style="stop-color:#FFFFFF"/>
			<stop  offset="1" style="stop-color:#E7ECF9"/>
		</linearGradient>
		<path class="st15" d="M97.1,36.5c0.1,0.3,0.1,0.5,0.2,0.8c0,0.3,0.1,0.5,0.1,0.8c0,0.1,0,0.3,0,0.4c0,0.1,0,0.3,0,0.4v0.1v0.1v0.2
			c0,0.1,0,0.3,0,0.4c-0.1,1-0.3,2.1-0.6,3c-0.3,0.9-0.8,1.7-1.4,2.5c-0.6,0.7-1.3,1.3-2.1,1.7c-1.5,0.9-3.5,1.2-5.4,0.9
			c-0.1,0-0.2,0-0.4-0.1c-0.1,0-0.2,0-0.4-0.1l-0.4-0.1c-0.1,0-0.2-0.1-0.4-0.1c-0.1,0-0.2-0.1-0.4-0.1c-0.1,0-0.2-0.1-0.4-0.1
			c-0.1-0.1-0.2-0.1-0.3-0.2L84.8,47h-0.1h-0.1c-0.1-0.1-0.2-0.1-0.3-0.2l-0.2-0.1H84l-0.1-0.1c-0.1-0.1-0.2-0.1-0.3-0.2
			c-0.1-0.1-0.2-0.1-0.3-0.2c-0.2-0.2-0.4-0.3-0.6-0.5c-0.2-0.2-0.4-0.4-0.6-0.6c0.2,0,0.4,0,0.7,0c0.2,0,0.4,0,0.6,0
			c0.2,0,0.4,0,0.6-0.1c0.1,0,0.2,0,0.3,0s0.2,0,0.3,0s0.2,0,0.3,0s0.2,0,0.3,0c0.2,0,0.4-0.1,0.6-0.1c0.1,0,0.2,0,0.3-0.1l0.3-0.1
			c0.1,0,0.2,0,0.3-0.1c0.1,0,0.2,0,0.3-0.1c1.4-0.3,2.7-0.8,3.9-1.5c1.2-0.7,2.3-1.5,3.3-2.6c0.5-0.5,1-1.1,1.4-1.7
			c0.1-0.1,0.1-0.2,0.2-0.2l0.1-0.1l0.1-0.1c0.1-0.2,0.2-0.3,0.3-0.5s0.2-0.3,0.4-0.5C96.9,36.9,97,36.7,97.1,36.5z"/>
		<g>
			
				<linearGradient id="SVGID_4_" gradientUnits="userSpaceOnUse" x1="70.0214" y1="193.5731" x2="77.431" y2="193.5731" gradientTransform="matrix(1 0 0 -1 0 226.9291)">
				<stop  offset="0" style="stop-color:#FFFFFF"/>
				<stop  offset="1" style="stop-color:#E7ECF9"/>
			</linearGradient>
			<path class="st16" d="M70,35.9c0-0.1,0-0.2,0-0.3c0-0.1,0-0.2,0-0.3s0-0.2,0-0.3s0-0.2,0.1-0.3c0.1-0.4,0.3-0.8,0.5-1.2
				c0.4-0.7,1.1-1.4,1.9-1.9c0.8-0.4,1.6-0.7,2.6-0.7c0.4,0,0.8,0.1,1.2,0.2c0.1,0,0.2,0.1,0.3,0.1c0.1,0,0.2,0.1,0.3,0.1
				c0.1,0,0.2,0.1,0.3,0.2c0.1,0.1,0.2,0.1,0.3,0.2c-0.1,0-0.2,0-0.3,0c-0.1,0-0.2,0-0.3,0c-0.1,0-0.2,0-0.3,0l-0.3,0.1
				c-0.4,0.1-0.7,0.2-1,0.3c-0.7,0.2-1.3,0.5-2,0.8c-0.6,0.3-1.1,0.7-1.6,1.2c-0.3,0.2-0.5,0.5-0.7,0.8l-0.2,0.2
				c-0.1,0.1-0.1,0.1-0.2,0.2c-0.1,0.1-0.1,0.2-0.2,0.2C70.2,35.7,70.1,35.8,70,35.9z"/>
			
				<linearGradient id="SVGID_5_" gradientUnits="userSpaceOnUse" x1="87.4786" y1="203.5439" x2="94.8883" y2="203.5439" gradientTransform="matrix(1 0 0 -1 0 226.9291)">
				<stop  offset="0" style="stop-color:#FFFFFF"/>
				<stop  offset="1" style="stop-color:#E7ECF9"/>
			</linearGradient>
			<path class="st17" d="M87.5,25.9c0-0.1,0-0.2,0-0.3s0-0.2,0-0.3c0-0.1,0-0.2,0-0.3c0-0.1,0-0.2,0.1-0.3c0.1-0.4,0.3-0.8,0.5-1.2
				c0.4-0.7,1.1-1.4,1.9-1.9c0.8-0.4,1.6-0.7,2.6-0.7c0.4,0,0.8,0.1,1.2,0.2c0.1,0,0.2,0.1,0.3,0.1s0.2,0.1,0.3,0.1s0.2,0.1,0.3,0.2
				s0.2,0.1,0.3,0.2c-0.1,0-0.2,0-0.3,0s-0.2,0-0.3,0s-0.2,0-0.3,0l-0.3,0.1c-0.4,0.1-0.7,0.2-1,0.3c-0.7,0.2-1.3,0.5-2,0.8
				c-0.6,0.3-1.1,0.7-1.6,1.2c-0.3,0.2-0.5,0.5-0.7,0.8l-0.2,0.2c-0.1,0.1-0.1,0.1-0.2,0.2c-0.1,0.1-0.1,0.2-0.2,0.2
				C87.6,25.7,87.6,25.8,87.5,25.9z"/>
		</g>
	</g>
	<g id="XMLID_148_">
		<g id="XMLID_168_">
			<g id="XMLID_169_">
				<path id="XMLID_170_" class="st18" d="M49.1,34.6v0.1l0,0c0,0,0,0,0.1,0c0,0,0,0,0.1,0h0.1h0.1c0,0,0,0,0.1,0c0,0,0,0,0.1,0
					c0,0,0,0,0.1,0s0.3,0,0.5-0.1c0,0,0.1,0,0.1-0.1c0,0,0,0,0.1,0c0,0,0,0,0.1-0.1l0.1-0.1c0,0,0,0,0-0.1c0.1-0.1,0.1-0.2,0.1-0.3
					s0-0.1,0-0.2v-0.1l0,0v-0.1v-0.1c0,0,0,0,0-0.1c0,0,0,0,0-0.1c0,0,0,0,0-0.1s0-0.3-0.1-0.4v-0.1c0,0,0,0,0-0.1c0,0,0,0,0-0.1
					c0-0.1,0-0.1,0-0.1s0,0,0-0.1s0-0.2,0-0.3v-0.1v-0.1l0,0l0,0v-0.1v-0.1c0-0.1,0-0.2,0-0.2v-0.1V31l0,0c0,0,0-0.1-0.1-0.1h-0.1
					c-0.1,0-0.1,0-0.1,0.1c0,0,0,0,0,0.1c0,0.1,0,0,0,0v0.1c0,0.1,0,0.2,0,0.2v0.1c0,0,0,0,0,0.1c0,0.1,0,0,0,0c0,0.1,0,0.1,0,0.2
					c0,0.1,0,0.1,0,0.2c0,0.1,0,0.1,0,0.2l0,0c0,0,0,0,0,0.1v0.1c0,0,0,0.1,0,0.2c0,0.1,0,0.1,0,0.2l0,0l0,0V33v0.1v0.1l0,0v0.1
					c0,0,0,0,0,0.1l0,0l0,0l0,0c0,0.1,0,0.1,0,0.2v0.1v0.1l0,0l0,0l0,0l-0.1,0.1h-0.1c0,0,0,0-0.1,0H50h-0.1c-0.1,0-0.1,0-0.2,0
					c0,0,0,0-0.1,0h-0.1h-0.1c0,0,0,0-0.1,0C49.1,34.4,49.1,34.5,49.1,34.6C49.1,34.5,49.1,34.6,49.1,34.6z"/>
			</g>
		</g>
		<g id="XMLID_165_">
			<g id="XMLID_166_">
				<path id="XMLID_167_" class="st18" d="M41.1,32.1C41.1,32.1,41.2,32.1,41.1,32.1c0.1,0.1,0.1,0.1,0.1,0.1l0,0l0,0l0,0l0,0l0,0
					l0,0l0,0l0.1-0.1l0,0l0,0l0,0c0,0,0,0,0.1,0l0,0c0.1,0,0.1,0,0.1,0s0,0,0.1,0c0.1,0,0,0,0,0l0,0l0,0l0,0l0,0l0,0l0,0
					c0.1,0,0.1,0,0.2,0.1l0,0l0,0l0,0l0,0l0,0c0,0,0,0.1,0.1,0.1l0,0l0,0l0,0l0,0l0,0l0,0v0.1l0,0l0,0l0,0c0,0,0,0,0.1,0h0.1h0.1
					l0,0l0,0c0,0,0,0,0-0.1v-0.1v-0.1l0,0l0,0c0,0,0-0.1-0.1-0.1c0,0,0-0.1-0.1-0.1c0,0,0,0-0.1-0.1l0,0l0,0l0,0c0,0,0,0-0.1-0.1
					c0,0-0.1,0-0.1-0.1l0,0l0,0l0,0h-0.1l0,0l0,0h-0.1l0,0l0,0l0,0l0,0h-0.1h-0.1h-0.1l0,0l0,0l0,0c0,0,0,0-0.1,0H41l0,0
					c0,0,0,0-0.1,0l0,0l-0.1,0.1l0,0l0,0l0,0l0,0C41.1,31.9,41.1,32,41.1,32.1C41.1,32,41.1,32,41.1,32.1z"/>
			</g>
		</g>
		<g id="XMLID_162_">
			<g id="XMLID_163_">
				<path id="XMLID_164_" class="st18" d="M41.5,33h0.1l0,0l0,0l0,0l0,0l0,0l0,0l0,0l0,0c0,0,0-0.1,0.1-0.1l0,0l0,0l0,0l0,0l0,0
					c0,0,0,0,0.1-0.1l0,0l0,0l0,0l0,0l0,0l0,0l0,0l0,0H42l0,0l0,0l0,0l0,0l0,0h0.1l0,0l0,0l0,0l0,0l0,0l0,0c0,0,0,0,0.1,0l0,0l0,0
					l0,0c0,0,0,0,0.1,0c0,0,0.1,0,0.1-0.1l0.1-0.1l0,0l0,0c0,0,0,0-0.1,0l-0.1-0.1h-0.1l0,0l0,0h-0.1H42h-0.1l0,0l0,0l0,0
					c0,0,0,0-0.1,0h-0.1l0,0l0,0l0,0l0,0l0,0l0,0h-0.1l0,0l0,0l0,0l0,0h-0.1c0,0,0,0-0.1,0.1c0,0,0,0-0.1,0.1l0,0l0,0l0,0
					c0,0,0,0-0.1,0.1c0,0,0,0-0.1,0.1l0,0l0,0l0,0V33l0,0c0,0,0,0,0,0.1l0,0l0,0c0,0,0,0,0.1,0C41.5,33,41.5,33,41.5,33z"/>
			</g>
		</g>
		<g id="XMLID_159_">
			<g id="XMLID_160_">
				<path id="XMLID_161_" class="st18" d="M48.4,35.5C48.3,35.6,48.3,35.6,48.4,35.5c-0.1,0.1-0.1,0.1-0.1,0.1l0,0l0,0l0,0l0,0l0,0
					l0,0l0,0c0,0.1,0.1,0.1,0.1,0.2l0,0l0,0l0,0c0,0,0,0,0.1,0l0,0l0.1,0.1c0,0,0,0,0.1,0l0,0l0,0l0,0l0,0l0,0l0,0l0,0
					c0.1,0,0.1,0,0.2,0.1c0,0,0,0,0.1,0c0.1,0,0,0,0,0l0,0c0,0,0,0,0.1,0l0,0c0.1,0,0.1,0,0.2,0c0,0,0,0,0.1,0c0,0,0,0,0.1,0l0,0
					l0,0c0,0,0,0,0.1,0s0,0,0,0h0.1l0,0l0,0l0,0c0,0,0,0,0-0.1v-0.1c0,0,0-0.1-0.1-0.1l0,0l0,0l0,0h-0.1l0,0l0,0l0,0h-0.1
					c0,0,0,0-0.1,0c0,0,0,0-0.1,0l0,0l0,0l0,0c0,0,0,0-0.1,0c0,0,0,0-0.1,0l0,0l0,0l0,0l0,0l0,0l0,0l0,0l0,0l0,0l0,0l0,0
					c0,0,0,0-0.1,0c0,0,0,0-0.1,0c0,0,0,0-0.1,0l0,0l0,0l0,0c0,0,0,0,0-0.1c0,0,0,0,0-0.1l0,0l0,0l0,0c0,0,0-0.1-0.1-0.1l0,0l0,0
					l0,0l0,0C48.5,35.4,48.5,35.4,48.4,35.5L48.4,35.5z"/>
			</g>
		</g>
		<g id="XMLID_157_">
			<path id="XMLID_158_" class="st18" d="M47.4,32.4v-0.2c0-0.2,0.2-0.4,0.4-0.4c0.2,0,0.4,0.2,0.4,0.4v0.2c0,0.2-0.2,0.4-0.4,0.4
				l0,0C47.6,32.7,47.4,32.6,47.4,32.4z"/>
		</g>
		<g id="XMLID_155_">
			<path id="XMLID_156_" class="st18" d="M51.6,32.1v-0.2c0-0.2,0.2-0.4,0.4-0.4c0.3,0,0.4,0.2,0.4,0.4v0.2c0,0.2-0.2,0.4-0.4,0.4
				l0,0C51.8,32.5,51.6,32.4,51.6,32.1z"/>
		</g>
		<g id="XMLID_152_">
			<g id="XMLID_153_">
				<path id="XMLID_154_" class="st18" d="M46.8,31C46.9,31,46.9,31.1,46.8,31c0.1,0.1,0.1,0.1,0.1,0.1l0,0l0,0l0,0l0,0l0,0l0,0l0,0
					L47,31l0,0l0,0l0,0l0,0l0,0h0.1l0,0l0,0l0,0l0,0l0,0l0,0l0,0l0,0h0.1l0,0l0,0l0,0l0,0l0,0h0.1l0,0l0,0l0,0l0,0l0,0l0,0h0.1l0,0
					l0,0l0,0l0,0c0,0,0-0.1,0.1-0.1s0-0.1,0-0.1l0,0l0,0c0,0,0,0-0.1,0h-0.1h-0.1l0,0l0,0h-0.1H47c0,0,0,0-0.1,0l0,0l0,0l0,0
					c0,0,0,0-0.1,0h-0.1l0,0l0,0l0,0l0,0l0,0l0,0h-0.1l0,0l0,0l0,0l0,0h-0.1c0,0,0,0-0.1,0c0,0,0,0-0.1,0l0,0l0,0l0,0c0,0,0,0-0.1,0
					h-0.1l0,0l0,0l0,0c0,0,0,0-0.1,0.1l0,0l0,0l0,0l0,0C46.7,30.9,46.8,30.9,46.8,31L46.8,31z"/>
			</g>
		</g>
		<g id="XMLID_149_">
			<g id="XMLID_150_">
				<path id="XMLID_151_" class="st18" d="M52.8,30.6L52.8,30.6c0.1-0.1,0.1-0.1,0.1-0.1l0,0l0,0l0,0l0,0l0,0l0,0l0,0
					c-0.1,0-0.1-0.1-0.2-0.1l0,0l0,0l0,0c0,0,0,0-0.1,0l0,0h-0.1c0,0,0,0-0.1,0l0,0l0,0l0,0l0,0l0,0l0,0l0,0c-0.1,0-0.1,0-0.2,0l0,0
					l0,0l0,0c0,0,0,0-0.1,0s0,0,0,0h-0.1c0,0,0,0-0.1,0l0,0l0,0l0,0l0,0l0,0h-0.1l0,0l0,0l0,0c0,0,0,0,0,0.1v0.1c0,0,0,0.1,0.1,0.1
					l0,0l0,0l0,0h0.1l0,0l0,0l0,0c0,0,0,0,0.1,0c0,0,0,0,0.1,0c0,0,0,0,0.1,0l0,0l0,0l0,0c0,0,0,0,0.1,0c0,0,0,0,0.1,0l0,0l0,0l0,0
					l0,0l0,0l0,0l0,0l0,0l0,0l0,0l0,0c0,0,0,0,0.1,0c0,0,0,0,0.1,0c0,0,0,0,0.1,0l0,0l0,0l0,0c0,0,0,0,0.1,0c0,0,0,0,0.1,0l0,0l0,0
					l0,0h0.1l0,0l0,0l0,0l0,0c0,0,0,0,0.1-0.1C52.8,30.7,52.9,30.7,52.8,30.6z"/>
			</g>
		</g>
	</g>
	<g id="XMLID_33_">
		<g id="XMLID_34_">
			<path id="XMLID_35_" class="st2" d="M50.8,48.7c0,0.2-0.1,0.4-0.1,0.9c0,0.2,0,0.5,0,0.7v1c0,0.4,0,0.8,0,1.3v0.8l-0.1,2.7
				c0,0.4,0,0.8,0,1.1c0,0.4,0,0.8,0,1.2c0,0.3,0,0.6,0,0.8c0,0.8-0.1,1.7-0.1,2.5s-0.1,1.3-0.1,2.1l-0.1,1c0,0.3,0,0.5-0.1,0.8v0.5
				c0,0.6-0.1,1.3-0.2,2c-0.1,0.7-0.2,1.4-0.3,2.2c-0.1,0.7-0.3,1.3-0.4,1.9v0.1l-0.1,0.2l0,0c-0.2,0.2-0.2,0.4-0.3,0.5
				c-0.1,0.2-0.3,0.4-0.4,0.4h-0.1c-0.1,0-0.1-0.1-0.2-0.1c-0.1-0.1-0.2-0.2-0.3-0.4c-0.1-0.1-0.2-0.3-0.2-0.5
				c0-0.1-0.1-0.2-0.1-0.3c0-0.1-0.1-0.2-0.1-0.3c-0.2-0.6-0.3-1.3-0.4-2.1c-0.1-0.6-0.2-1.2-0.3-1.9c0-0.3-0.1-0.6-0.1-1
				c0-0.3-0.1-0.5-0.1-0.8l-0.1-0.5c-0.1-0.6-0.1-1.3-0.2-2c-0.1-0.7-0.1-1.5-0.2-2.3c0-0.7-0.1-1.5-0.1-2.4c0-0.2,0-0.4,0-0.6
				c0-0.2,0-0.5,0-0.7c0-0.5,0-1-0.1-1.5c0-1-0.1-2.1-0.1-3.1c0-0.6,0-1.1,0-1.7c0-0.2,0-0.4,0-0.6s0-0.4,0-0.6c0-0.3,0-0.5-0.1-0.5
				c0,0,0,0.3-0.1,0.5c0,0.2,0,0.6,0,1c0,0.2,0,0.4,0,0.6c0,0.4,0,0.7,0,1.1c0,0.3,0,0.7,0,1c0,1,0.1,2.1,0.1,3.2
				c0,0.4,0,0.7,0.1,1.1c0,0.4,0.1,0.8,0.1,1.3v0.1v0.1c0,0.4,0.1,1,0.1,1.4c0,0.5,0.1,1.1,0.1,1.6c0.1,1.1,0.2,2.3,0.3,3.4l0.1,0.6
				c0.1,0.6,0.1,1.1,0.2,1.6c0,0.3,0.1,0.6,0.1,0.8c0,0.2,0.1,0.4,0.1,0.7c0.1,0.4,0.1,0.8,0.2,1.1c0.1,0.7,0.3,1.4,0.5,2
				s0.5,0.8,0.7,0.9c0.1,0,0.2,0,0.3-0.1c0.1,0,0.1-0.1,0.2-0.2s0.2-0.2,0.2-0.3c0.1-0.1,0.2-0.3,0.2-0.6c0.1-0.2,0.2-0.5,0.2-0.7
				c0-0.1,0.1-0.2,0.1-0.3c0.1-0.2,0.1-0.5,0.2-0.8c0.1-0.5,0.2-1,0.2-1.5c0.1-1.1,0.2-2.3,0.3-3.5v-0.7c0-0.6,0.1-1.1,0.1-1.7
				c0-0.3,0-0.6,0.1-0.9c0-0.3,0-0.5,0-0.7c0-0.4,0-0.8,0.1-1.3c0.1-1.7,0.1-3.4,0.2-5.1v-0.8v-0.7v-0.8v-1v-1c0-0.3,0-0.5,0-0.8
				c0-0.2,0-0.6,0-0.8s0-0.3,0-0.4C50.9,48.8,50.9,48.7,50.8,48.7C50.9,48.5,50.9,48.6,50.8,48.7z"/>
		</g>
	</g>
	<g id="XMLID_126_">
		<g id="XMLID_127_">
			<g id="XMLID_128_">
				<path id="XMLID_129_" class="st3" d="M33.1,125.5c0.1,1.6,0,3.1,0,4.6c-0.1,1.5-0.2,3.1-0.3,4.6c-0.4,3.1-0.9,6.2-2.2,9.4
					c-0.6,1.4-2.3,2.2-3.7,1.6c-1.3-0.5-2.1-2-1.7-3.4v-0.1c0.6-2.4,0.7-5,0.6-7.8c0-1.3-0.1-2.8-0.3-4.1c-0.1-1.3-0.3-2.8-0.5-4
					c-0.4-2.3,1-4.4,3.3-4.8c2.3-0.4,4.4,1,4.8,3.3C33.1,125,33.1,125.3,33.1,125.5z"/>
			</g>
		</g>
	</g>
	<g id="XMLID_122_">
		<g id="XMLID_123_">
			<g id="XMLID_124_">
				<path id="XMLID_125_" class="st3" d="M29.5,124.9c-0.1,1.6-0.2,3.2-0.3,4.8c-0.2,1.5-0.4,3.2-0.6,4.7c-0.3,1.6-0.6,3.2-1.1,4.8
					c-0.3,0.8-0.6,1.6-1,2.6c-0.2,0.4-0.5,0.9-0.7,1.3c-0.3,0.4-0.7,1-1.1,1.4c-1,1.1-2.8,1.2-3.9,0.2c-0.9-0.8-1.2-2.3-0.6-3.3
					l0.4-0.9c0.1-0.3,0.6-1.5,0.7-2.8c0.2-1.3,0.2-2.7,0.3-4.1c0-1.4,0-2.9-0.1-4.3c-0.1-1.4-0.2-2.9-0.3-4.2
					c-0.3-2.4,1.4-4.5,3.8-4.7c2.4-0.3,4.5,1.4,4.7,3.8C29.5,124.5,29.5,124.7,29.5,124.9z"/>
			</g>
		</g>
	</g>
	<g id="XMLID_118_">
		<g id="XMLID_119_">
			<g id="XMLID_120_">
				<path id="XMLID_121_" class="st3" d="M25.8,118.5c-0.2,2.4-0.4,4.3-0.7,6.5c-0.3,2.1-0.7,4.2-1.2,6.3c-1,4.1-2.4,8.2-4.4,12.1
					c-0.7,1.4-2.5,2-3.9,1.2c-1.3-0.7-1.9-2.3-1.3-3.6v-0.1c1.3-3.5,2.2-7.2,2.7-11c0.2-2,0.4-3.8,0.5-5.8c0.1-1.9,0.1-3.9,0-5.7
					v-0.1c-0.1-2.4,1.9-2.4,4.2-2.5c2.4-0.1,4.2-0.3,4.3,2.1C25.8,118.2,25.8,118.4,25.8,118.5z"/>
			</g>
		</g>
	</g>
	<g id="XMLID_114_">
		<g id="XMLID_115_">
			<g id="XMLID_116_">
				<path id="XMLID_117_" class="st3" d="M30.7,120.6c0.5,0.4,0.6,0.5,0.8,0.7c0.1,0.2,0.3,0.3,0.4,0.5c0.3,0.3,0.5,0.6,0.6,0.9
					c0.4,0.6,0.7,1.1,0.9,1.7c0.5,1.1,0.9,2.3,1.2,3.4c0.6,2.2,1,4.3,1.3,6.5c0.2,1.5-0.9,3-2.5,3.2c-1.3,0.2-2.6-0.6-3-1.7v-0.1
					c-0.7-1.7-1.5-3.5-2.5-5c-0.4-0.7-0.9-1.4-1.4-2.1c-0.2-0.3-0.5-0.5-0.7-0.7c-0.1-0.1-0.2-0.2-0.3-0.2c-0.1,0-0.1,0-0.1,0
					c0,0.1-0.1-0.1,0.2,0.2c-2-1.3-2.5-4-1.1-6C26,119.8,28.7,119.2,30.7,120.6z"/>
			</g>
		</g>
	</g>
</g>
</svg>
