<?xml version="1.0" encoding="utf-8"?>
<!-- Generator: Adobe Illustrator 22.1.0, SVG Export Plug-In . SVG Version: 6.00 Build 0)  -->
<svg version="1.1" id="Capa_1" xmlns="http://www.w3.org/2000/svg" xmlns:xlink="http://www.w3.org/1999/xlink" x="0px" y="0px"
	 viewBox="0 0 226.8 226.8" style="enable-background:new 0 0 226.8 226.8;" xml:space="preserve">
<style type="text/css">
	.st0{fill:#F2CDAC;}
	.st1{fill:#236AD8;}
	.st2{fill:#3089E0;}
	.st3{fill:none;stroke:#FFFFFF;stroke-width:8.690000e-02;stroke-miterlimit:10;}
	.st4{fill:#FFFFFF;}
	.st5{fill:#1A1B1D;}
	.st6{fill:#D1152C;}
</style>
<g id="XMLID_593_">
	<g id="XMLID_1736_">
		<g id="XMLID_1737_">
			<g id="XMLID_1738_">
				<path id="XMLID_1739_" class="st0" d="M189.8,67.2c1.3,0,2.5,0.2,3.8,0.2c1.3,0,2.5,0.2,3.8,0.4s2.5,0.2,3.8,0.4
					c0.6,0.2,1.3,0.2,1.9,0.4c0.8,0.2,1.3,0.4,2.3,0.8c0.9,0.4,1.3,1.5,0.9,2.5c-0.4,0.8-1.1,1.1-1.9,0.9H204
					c-0.4,0-0.8-0.2-1.3-0.2c-0.6,0-1.1,0-1.7,0c-1.1,0-2.3,0-3.6,0.2c-1.1,0-2.3,0.2-3.6,0.4c-1.1,0.2-2.5,0.2-3.6,0.4
					c-1.7,0.2-3.2-0.9-3.4-2.6c-0.2-1.7,0.9-3.2,2.6-3.4C189.5,67.2,189.6,67.2,189.8,67.2z"/>
			</g>
		</g>
	</g>
	<g id="XMLID_1732_">
		<g id="XMLID_1733_">
			<g id="XMLID_1734_">
				<path id="XMLID_1735_" class="st0" d="M188.5,67.2c2.3,0.4,4.5,0.8,7,1.3c1.1,0.2,2.3,0.6,3.4,0.8c1.1,0.4,2.3,0.6,3.6,1.1
					c0.9,0.4,1.3,1.5,0.9,2.5c-0.4,0.8-1.1,1.3-2.1,1.1h-0.2c-0.8-0.2-1.9-0.2-3-0.4c-1.1,0-2.3-0.2-3.4-0.2c-2.3,0-4.5,0-6.8,0l0,0
					c-1.7,0-3-1.3-3-3s1.3-3,3-3C188.1,67.2,188.3,67.2,188.5,67.2z"/>
			</g>
		</g>
	</g>
	<g id="XMLID_1728_">
		<g id="XMLID_1729_">
			<g id="XMLID_1730_">
				<path id="XMLID_1731_" class="st0" d="M129.1,41.3l26.8,29.2l0.4,0.4c0.9,1.1,2.3,1.7,3.6,1.7l34,2.5c2.6,0.2,4.9-1.7,4.9-4.3
					c0.2-2.5-1.5-4.5-4-4.9l-33.6-5.1l4,2.1l-24.7-31.3c-2.6-3.2-7.2-3.8-10.6-1.1c-3.2,2.6-3.8,7.2-1.1,10.6
					C128.7,40.9,128.9,41.1,129.1,41.3z"/>
			</g>
		</g>
	</g>
	<g id="XMLID_1724_">
		<g id="XMLID_1725_">
			<g id="XMLID_1726_">
				<path id="XMLID_1727_" class="st0" d="M192.1,65.5c1.5,0,2.8,0.2,4.2,0.2c1.3,0.2,2.6,0.2,4.2,0.4c1.3,0.2,2.6,0.4,4.2,0.6
					c1.3,0.2,2.8,0.4,4.2,0.9c0.9,0.4,1.5,1.3,1.1,2.3c-0.2,0.9-1.1,1.3-2.1,1.3l0,0c-1.1-0.2-2.5-0.2-3.8-0.2c-1.3,0-2.6,0-4,0
					c-1.3,0-2.6,0.2-4,0.2c-1.3,0.2-2.6,0.2-4,0.4c-1.7,0.2-3.2-0.9-3.4-2.6c-0.2-1.7,0.9-3.2,2.6-3.4
					C191.9,65.5,192.1,65.5,192.1,65.5z"/>
			</g>
		</g>
	</g>
	<g id="XMLID_1720_">
		<g id="XMLID_1721_">
			<g id="XMLID_1722_">
				<path id="XMLID_1723_" class="st0" d="M194.7,69.2l6.6,6c0.8,0.8,0.8,2.1,0.2,2.8c-0.8,0.8-1.7,0.8-2.6,0.4l-7.5-5.1
					c-1.1-0.8-1.5-2.5-0.8-3.6s2.5-1.5,3.6-0.8C194.6,69.1,194.7,69.2,194.7,69.2z"/>
			</g>
		</g>
	</g>
	<g id="XMLID_1716_">
		<g id="XMLID_1717_">
			<g id="XMLID_1718_">
				<path id="XMLID_1719_" class="st0" d="M200.6,70.6c0,0-1.9,0.2-2.1,1.5c0,0.8,1.5,2.1,1.5,2.1s-3-0.8-2.6-1.7
					C197.9,71.5,198.5,70,200.6,70.6z"/>
			</g>
		</g>
	</g>
	<g id="XMLID_1712_">
		<g id="XMLID_1713_">
			<g id="XMLID_1714_">
				<path id="XMLID_1715_" class="st1" d="M129.8,30.4c3.2-2.6,7.9-2.1,10.6,1.1l11.7,14.7l-10.2,8.9l-12.8-14
					c-0.2-0.2-0.2-0.2-0.4-0.4C126.1,37.5,126.6,33,129.8,30.4z"/>
			</g>
		</g>
	</g>
	<g id="XMLID_1708_">
		<g id="XMLID_1709_">
			<g id="XMLID_1710_">
				<path id="XMLID_1711_" class="st2" d="M118.7,79.6l13.2,62.5v-2.6l-0.2,65.9l15.3,0.6c1.1-7.2,2.1-23.4,3.2-30.6
					c0.8-5.8,1.5-11.5,2.5-17.2c1.1-7.2,2.8-13.8,1.9-20.9c-0.4-3.2-0.8-6.2-1.1-9.4c-1.1-8.9-2.1-17.7-3.2-26.6
					c-0.2-1.5-3.2-26-3-26C147.2,74.9,118.7,79.6,118.7,79.6z"/>
			</g>
		</g>
	</g>
	<g id="XMLID_1704_">
		<g id="XMLID_1705_">
			<g id="XMLID_1706_">
				<path id="XMLID_1707_" class="st2" d="M96.1,75.5l-11.7,53.2l7.2-7.9l-65.5,28.3l5.1,14l68.3-20.8l1.1-0.4
					c2.6-0.8,4.9-2.8,5.8-5.5l0.8-2.3l21.3-55.9L96.1,75.5z"/>
			</g>
		</g>
	</g>
	<g id="XMLID_1700_">
		<g id="XMLID_1701_">
			<g id="XMLID_1702_">
				<path id="XMLID_1703_" class="st1" d="M147.4,76.6c0,0-2.1-22.6-3.6-36.8C142.7,28.7,131,23.2,117.9,24
					c-12.8,0.8-18.9,7.4-19.4,17.7c-0.6,10.2-3,36.2-3,36.2s7.9,2.1,25.7,1.7C138.9,79.1,147.4,76.6,147.4,76.6z"/>
			</g>
		</g>
	</g>
	<g id="XMLID_1696_">
		<g id="XMLID_1697_">
			<g id="XMLID_1698_">
				<path id="XMLID_1699_" class="st0" d="M107.4,26.2l-37,18.7L70,45.1c-2.5,1.1-3.6,3.8-3.2,6.2l7,41.3c0.4,2.6,2.8,4.3,5.3,3.8
					c2.5-0.4,4.2-2.6,4-5.1l-3.8-41.7L75.7,56l37.9-16.6c3.8-1.7,5.5-6,3.8-9.8s-6-5.5-9.8-3.8C107.8,26.2,107.6,26.2,107.4,26.2z"
					/>
			</g>
		</g>
	</g>
	<g id="XMLID_1692_">
		<g id="XMLID_1693_">
			<g id="XMLID_1694_">
				<path id="XMLID_1695_" class="st1" d="M87.8,36.2l19.6-9.8c0.2,0,0.2-0.2,0.4-0.2c3.8-1.7,8.5,0.2,10.2,3.8
					c1.7,3.8-0.4,8.5-4.2,10.2l-20.9,8.9L87.8,36.2z"/>
			</g>
		</g>
	</g>
	<g id="XMLID_1688_">
		<g id="XMLID_1689_">
			<g id="XMLID_1690_">
				<path id="XMLID_1691_" class="st0" d="M81.3,88.9c0.4,0.2,0.4,0.2,0.6,0.4c0.2,0.2,0.2,0.2,0.4,0.2c0.2,0.2,0.4,0.4,0.4,0.6
					c0.2,0.4,0.4,0.8,0.6,0.9c0.4,0.8,0.8,1.3,0.9,1.9c0.6,1.3,0.9,2.6,1.1,3.8c0.2,0.9-0.4,1.9-1.3,2.1c-0.8,0.2-1.5-0.2-1.9-0.9
					l0,0c-0.6-1.1-1.1-2.1-1.7-3c-0.4-0.4-0.6-0.8-0.9-1.1c-0.2-0.2-0.4-0.4-0.6-0.4L78.7,93l0,0c0,0-0.2,0,0.2,0.2
					c-1.3-0.8-1.7-2.3-0.9-3.6C78.5,88.7,80,88.1,81.3,88.9z"/>
			</g>
		</g>
	</g>
	<g id="XMLID_1684_">
		<g id="XMLID_1685_">
			<g id="XMLID_1686_">
				<path id="XMLID_1687_" class="st0" d="M83,91.7c0.2,0.9,0.2,1.9,0.2,2.8s0,1.9,0,2.8c0,1.9-0.2,3.8-0.8,5.8
					c-0.4,0.9-1.3,1.5-2.3,1.1c-0.8-0.2-1.3-1.1-1.3-1.9l0,0c0.2-1.5,0.2-3,0-4.7c-0.2-0.8-0.2-1.7-0.4-2.5s-0.4-1.7-0.6-2.5
					c-0.4-1.3,0.4-2.6,1.7-3c1.3-0.4,2.6,0.4,3,1.7C83,91.5,83,91.5,83,91.7z"/>
			</g>
		</g>
	</g>
	<g id="XMLID_1680_">
		<g id="XMLID_1681_">
			<g id="XMLID_1682_">
				<path id="XMLID_1683_" class="st0" d="M80.8,91.5c0,0.9,0,1.9,0,3c0,0.9,0,1.9-0.2,3s-0.2,2.1-0.4,3c-0.2,0.6-0.2,1.1-0.4,1.7
					c-0.2,0.2-0.2,0.6-0.4,0.9s-0.4,0.6-0.6,0.9c-0.6,0.8-1.7,0.9-2.5,0.4c-0.6-0.4-0.8-1.3-0.6-1.9l0.2-0.6c0-0.2,0.4-0.9,0.4-1.7
					s0-1.7,0-2.5s-0.2-1.7-0.4-2.6c-0.2-0.8-0.4-1.7-0.4-2.6c-0.4-1.5,0.6-2.8,2.1-3s2.8,0.6,3,2.1C80.8,91.3,80.8,91.5,80.8,91.5z"
					/>
			</g>
		</g>
	</g>
	<g id="XMLID_1676_">
		<g id="XMLID_1677_">
			<g id="XMLID_1678_">
				<path id="XMLID_1679_" class="st0" d="M78.3,87.9c0,1.5,0,2.6-0.2,4s-0.2,2.6-0.4,3.8c-0.4,2.6-0.9,5.1-2.1,7.5
					c-0.4,0.9-1.3,1.3-2.3,0.9c-0.8-0.4-1.3-1.3-0.9-2.1l0,0c0.6-2.3,0.9-4.5,0.9-6.8c0-1.1,0-2.3,0-3.6c0-1.1-0.2-2.5-0.4-3.4l0,0
					c-0.2-1.5,0.8-2.8,2.3-3c1.5-0.2,2.8,0.8,3,2.3C78.3,87.7,78.3,87.7,78.3,87.9z"/>
			</g>
		</g>
	</g>
	<g id="XMLID_1671_">
		<g id="XMLID_1672_">
			<g id="XMLID_1673_">
				<g id="XMLID_1674_">
					<path id="XMLID_1675_" class="st3" d="M124.5,89.6"/>
				</g>
			</g>
		</g>
	</g>
	<g id="XMLID_1310_">
		<g id="XMLID_1311_">
			<g id="XMLID_1312_">
				<g id="XMLID_1669_">
					<path id="XMLID_1670_" class="st4" d="M147.4,201.1l-0.2-0.2H147h-0.4c-0.2,0-0.2,0-0.4,0h-0.2c-0.2,0-0.6,0-0.8,0h-0.4
						c-0.2,0-0.2,0-0.4,0h-0.2c-0.2,0-0.4,0-0.8,0c-0.2,0-0.4,0-0.6,0h-0.2h-0.2h-0.2c-0.2,0-0.4,0-0.6,0c-0.2,0-0.4,0-0.8,0
						c-0.2,0-0.6,0-0.8,0l0,0l0,0l0,0h-0.2h-0.4h-0.2h-0.2h-0.4c-0.2,0-0.2,0-0.2,0h-0.2h-0.2c-0.2,0-0.4,0-0.8,0
						c-0.2,0-0.4,0-0.6,0h-0.4h-0.2h-0.2c-0.2,0-0.4,0-0.6,0s-0.4,0-0.8,0c-0.2,0-0.4,0-0.8,0h-0.2H134h-0.4c-0.2,0-0.6,0-0.8,0
						c-0.2,0-0.4,0-0.4,0h-0.2h-0.2c-0.2,0-0.2,0.2-0.2,0.2s0,0.2,0.2,0.2c0,0,0.2,0,0.2,0.2h0.2c0.2,0,0.2,0,0.4,0
						c0.2,0,0.2,0,0.2,0c0.2,0,0.6,0,0.9,0c0.2,0,0.2,0,0.4,0c0.2,0,0.2,0,0.4,0l0,0l0,0c0.2,0,0.2,0,0.4,0h0.4c0.4,0,0.8,0,0.9,0
						h0.2c0.2,0,0.4,0,0.6,0h0.2h0.2c0.2,0,0.2,0,0.4,0c0.4,0,0.9,0,1.5,0h0.2h0.2h0.2c0.2,0,0.2,0,0.2,0h0.4c0,0,0,0,0.2,0
						c0.2,0,0.2,0,0.2,0h0.4c0.4,0,0.8,0,0.9,0h0.2c0.2,0,0.4,0,0.6,0h0.2h0.2c0.2,0,0.2,0,0.4,0c0.6,0,0.9,0,1.5,0h0.2h0.2h0.2
						c0.2,0,0.2,0,0.2,0h0.4c0.2,0,0.2,0,0.2,0h0.2C147.2,201.3,147.2,201.3,147.4,201.1C147.4,201.3,147.4,201.3,147.4,201.1
						C147.4,201.3,147.4,201.3,147.4,201.1z"/>
				</g>
			</g>
		</g>
	</g>
	<g id="XMLID_1299_">
		<g id="XMLID_1301_">
			<g id="XMLID_1304_">
				<polygon id="XMLID_1308_" class="st1" points="131.7,205.3 131.7,215.1 156.8,215.1 147,205.9 				"/>
			</g>
		</g>
	</g>
	<g id="XMLID_1293_">
		<g id="XMLID_1294_">
			<g id="XMLID_1296_">
				<polygon id="XMLID_1297_" class="st1" points="26.1,148.9 16.8,152.8 26.4,175.9 31.1,163 				"/>
			</g>
		</g>
	</g>
	<g>
		<g id="XMLID_1282_">
			<g id="XMLID_1284_">
				<g id="XMLID_1285_">
					<g id="XMLID_1291_">
						<path id="XMLID_1292_" class="st4" d="M145.5,59.6c0,0,0.2-0.2,0.2-0.4v-0.2c0-0.2,0-0.2,0-0.4s0-0.2,0-0.4s0-0.2,0-0.2
							c0-0.2,0-0.6,0-0.8s0-0.2,0-0.4s0-0.2,0-0.4s0-0.2,0-0.2c0-0.2,0-0.6,0-0.8s0-0.4,0-0.8c0-0.2,0-0.2,0-0.4s0-0.2,0-0.2v-0.2
							c0-0.2,0-0.4,0-0.6c0-0.2,0-0.6,0-0.8s0-0.6,0-0.8l0,0c0,0,0,0,0-0.2l0,0v-0.2c0-0.2,0-0.4,0-0.6v-0.2c0-0.2,0-0.2,0-0.2
							c0-0.2,0-0.2,0-0.4s0-0.2,0-0.4v-0.2v-0.2c0-0.2,0-0.6,0-0.8s0-0.4,0-0.8c0-0.2,0-0.2,0-0.4s0-0.2,0-0.2v-0.2
							c0-0.2,0-0.4,0-0.6c0-0.2,0-0.6,0-0.8s0-0.6,0-0.8v-0.2v-0.2c0-0.2,0-0.4,0-0.6c0-0.4-0.2-0.6-0.2-0.9c0-0.2,0-0.4,0-0.6v-0.2
							v-0.2c0-0.2-0.2-0.2-0.2-0.2l-0.2,0.2c0,0,0,0.2,0,0.4V43c0,0.2,0,0.2,0,0.4s0,0.2,0,0.4c0,0.4,0,0.8,0.2,0.9
							c0,0.2,0,0.2,0,0.4s0,0.2,0,0.4l0,0l0,0c0,0.2,0,0.4,0,0.4c0,0.2,0,0.4,0,0.6c0,0.4,0,0.8,0.2,1.1v0.2c0,0.2,0,0.4,0,0.6
							c0,0.2,0,0.2,0,0.2v0.2c0,0.2,0,0.2,0,0.4c0,0.6,0.2,1.1,0.2,1.7c0,0.2,0,0.2,0,0.2v0.2c0,0.2,0,0.2,0,0.2c0,0.2,0,0.2,0,0.4
							s0,0.2,0,0.4c0,0,0,0,0,0.2s0,0.2,0,0.4c0,0.2,0,0.4,0,0.6c0,0.4,0,0.8,0.2,1.1v0.2c0,0.2,0,0.4,0,0.6c0,0.2,0,0.2,0,0.2v0.2
							c0,0.2,0,0.2,0,0.4c0,0.6,0.2,1.1,0.2,1.7c0,0.2,0,0.2,0,0.2v0.2c0,0.2,0,0.2,0,0.2c0,0.2,0,0.2,0,0.4s0,0.2,0,0.4
							s0,0.2,0,0.2v0.2v0.2C145.3,59.8,145.3,59.8,145.5,59.6C145.5,59.8,145.5,59.6,145.5,59.6z"/>
					</g>
				</g>
			</g>
		</g>
		<g id="XMLID_1270_">
			<g id="XMLID_1271_">
				<g id="XMLID_1276_">
					<g id="XMLID_1280_">
						<path id="XMLID_1281_" class="st4" d="M92.8,48.9H93h0.2l0.2-0.2c0.2,0,0.2,0,0.4-0.2c0,0,0.2,0,0.2-0.2
							c0.2,0,0.4-0.2,0.6-0.2l0.2-0.2l0.2-0.2h0.2c0.2-0.2,0.4-0.2,0.6-0.2c0.2,0,0.4-0.2,0.4-0.2l0.2-0.2l0.2-0.2h0.2
							c0.2,0,0.4-0.2,0.4-0.2c0.2,0,0.4-0.2,0.6-0.2c0.2-0.2,0.4-0.2,0.6-0.2l0,0l0,0l0,0h0.2l0.4-0.2h0.2h0.2l0.2-0.2
							c0,0,0.2,0,0.2-0.2h0.2c0,0,0,0,0.2,0c0.2-0.2,0.4-0.2,0.6-0.2c0.2,0,0.4-0.2,0.4-0.2l0.2-0.2l0.2-0.2h0.2
							c0.2,0,0.4-0.2,0.4-0.2c0.2,0,0.4-0.2,0.6-0.2c0.2-0.2,0.4-0.2,0.6-0.2h0.2h0.2l0.4-0.2c0.2-0.2,0.4-0.2,0.8-0.4
							c0.2,0,0.2-0.2,0.4-0.2h0.2c0,0,0,0,0.2-0.2v-0.2c0,0-0.2,0-0.2-0.2h-0.2h-0.2c-0.2,0-0.2,0-0.2,0.2c0,0-0.2,0-0.2,0.2
							c-0.2,0.2-0.4,0.2-0.8,0.4c-0.2,0-0.2,0-0.2,0.2s-0.2,0.2-0.4,0.2l0,0l0,0c-0.2,0-0.2,0.2-0.4,0.2l-0.4,0.2
							c-0.2,0.2-0.6,0.2-0.8,0.4h-0.2c-0.2,0-0.4,0.2-0.4,0.2s-0.2,0-0.2,0.2c0,0-0.2,0-0.2,0.2l-0.4,0.2c-0.4,0.2-0.8,0.4-1.1,0.6
							c0,0-0.2,0-0.2,0.2c0,0-0.2,0-0.2,0.2h-0.2c0,0-0.2,0-0.2,0.2l-0.2,0.2l0,0c0,0-0.2,0-0.2,0.2l-0.2-0.8
							c-0.2,0.2-0.6,0.2-0.8,0.4h-0.2c-0.2,0-0.4,0.2-0.4,0.2s-0.2,0-0.2,0.2c0,0-0.2,0-0.2,0.2l-0.4,0.2c-0.4,0.2-0.8,0.4-1.1,0.6
							c0,0-0.2,0-0.2,0.2H94h-0.2c0,0-0.2,0-0.2,0.2l-0.2,0.2c0,0-0.2,0-0.2,0.2c0,0-0.2,0-0.2,0.2C92.8,48.7,92.8,48.7,92.8,48.9
							L92.8,48.9L92.8,48.9z"/>
					</g>
				</g>
			</g>
		</g>
		<g id="XMLID_1263_">
			<g id="XMLID_1264_">
				<g id="XMLID_1266_">
					<g id="XMLID_1267_">
						<path id="XMLID_1268_" class="st4" d="M94.7,47.9v-0.2v-0.2c0,0,0-0.2-0.2-0.2c0-0.2,0-0.2-0.2-0.4v-0.2
							c0-0.2-0.2-0.4-0.2-0.6c0-0.2,0-0.2-0.2-0.2c0-0.2,0-0.2-0.2-0.2v-0.2c-0.2-0.2-0.2-0.4-0.2-0.6c0-0.2-0.2-0.4-0.2-0.4
							s0-0.2-0.2-0.2v-0.2c0,0,0,0,0-0.2S93,43.8,93,43.8c0-0.2-0.2-0.4-0.2-0.6c0-0.2-0.2-0.4-0.2-0.6l0,0l0,0l0,0v-0.2
							c0-0.2-0.2-0.2-0.2-0.4c0,0,0,0,0-0.2v-0.2c0-0.2,0-0.2-0.2-0.2c0,0,0-0.2-0.2-0.2c0,0,0,0,0-0.2c0,0,0,0,0-0.2
							c-0.2-0.2-0.2-0.4-0.2-0.6c0-0.2-0.2-0.4-0.2-0.4s0-0.2-0.2-0.2v-0.2c0,0,0,0,0-0.2s-0.2-0.4-0.2-0.4c0-0.2-0.2-0.4-0.2-0.6
							c0-0.2-0.2-0.4-0.2-0.6v-0.2v-0.2c0-0.2-0.2-0.2-0.2-0.4s-0.2-0.4-0.4-0.8c0-0.2,0-0.2-0.2-0.4v-0.2c0,0,0,0-0.2-0.2h-0.2
							c0,0,0,0.2-0.2,0.2V36v0.2c0,0,0,0.2,0.2,0.2c0,0,0,0.2,0.2,0.2c0,0.2,0.2,0.4,0.4,0.8c0,0.2,0,0.2,0.2,0.2
							c0,0.2,0,0.2,0.2,0.2l0,0l0,0c0,0.2,0,0.2,0.2,0.4c0,0.2,0.2,0.2,0.2,0.4c0.2,0.2,0.2,0.6,0.4,0.8v0.2c0,0.2,0.2,0.2,0.2,0.4
							V40v0.2c0,0.2,0,0.2,0.2,0.4c0.2,0.4,0.4,0.8,0.4,1.1v0.2v0.2v0.2v0.2c0,0,0,0.2,0.2,0.2l0,0v0.2c0,0.2,0.2,0.2,0.2,0.4
							c0.2,0.2,0.2,0.6,0.4,0.8v0.2c0,0.2,0.2,0.2,0.2,0.4v0.2v0.2c0,0.2,0,0.2,0.2,0.4c0.2,0.4,0.4,0.8,0.4,1.1v0.2v0.2V47v0.2
							c0,0,0,0.2,0.2,0.2c0,0,0,0.2,0.2,0.2v0.2C94.5,47.9,94.5,47.9,94.7,47.9C94.5,48.1,94.7,48.1,94.7,47.9
							C94.7,48.1,94.7,48.1,94.7,47.9z"/>
					</g>
				</g>
			</g>
		</g>
		<g id="XMLID_1229_">
			<g id="XMLID_1231_">
				<g id="XMLID_1233_">
					<g id="XMLID_1238_">
						<path id="XMLID_1240_" class="st4" d="M144.4,50.4h0.2c0,0,0,0,0.2,0c0,0,0,0,0.2-0.2c0.2-0.2,0.2,0,0.2-0.2c0,0,0,0,0.2-0.2
							c0.2-0.2,0.2-0.2,0.4-0.2c0,0,0.2,0,0.2-0.2c0,0,0-0.2,0.2-0.2c0.2,0,0,0,0.2,0c0-0.2,0.2-0.2,0.2-0.2l0.2-0.2
							c0,0,0,0,0.2-0.2c0.2-0.2,0,0,0-0.2l0,0l0.2-0.2c0-0.2,0.2-0.2,0.2-0.2c0.2-0.2,0.2-0.2,0.2-0.2l0,0l0,0l0,0c0,0,0,0,0.2,0
							l0.2-0.2l0,0c0,0,0,0,0.2-0.2c0.2-0.2,0.2,0,0.2-0.2c0,0,0,0,0.2-0.2l0,0l0,0c0-0.2,0.2-0.2,0.2-0.2l0.2-0.2c0,0,0,0,0.2-0.2
							s0,0,0-0.2l0,0l0.2-0.2c0-0.2,0.2-0.2,0.2-0.2c0.2-0.2,0.2-0.2,0.2-0.2l0,0c0,0,0,0,0.2,0l0.2-0.2c0.2-0.2,0.2-0.2,0.4-0.4
							l0.2-0.2l0,0c0,0,0,0,0-0.2v-0.2h-0.2H150l0,0c0,0,0,0-0.2,0.2c0,0,0,0-0.2,0.2c-0.2,0.2-0.2,0.2-0.4,0.4c0,0-0.2,0-0.2,0.2
							l-0.2,0.2l0,0l0,0l-0.2,0.2l-0.2,0.2c-0.2,0.2-0.2,0.2-0.4,0.4l0,0l-0.2,0.2c0,0,0,0-0.2,0.2c0,0,0,0,0,0.2c0,0-0.2,0-0.2,0.2
							c-0.2,0.2-0.4,0.4-0.6,0.6c0,0,0,0-0.2,0.2l0,0c0,0,0,0-0.2,0c0,0,0,0-0.2,0.2s0,0-0.2,0.2l0,0c0,0,0,0-0.2,0.2l-0.2,0.2
							c-0.2,0.2-0.2,0.2-0.4,0.4l0,0l-0.2,0.2c0,0,0,0-0.2,0.2c0,0,0,0,0,0.2c0,0-0.2,0-0.2,0.2c-0.2,0.2-0.4,0.4-0.6,0.6
							c0,0,0,0-0.2,0.2l0,0c0,0,0,0-0.2,0c0,0,0,0-0.2,0.2c0,0,0,0-0.2,0.2s0,0,0,0.2s0,0,0,0.2l0,0
							C144.2,50.2,144.2,50.4,144.4,50.4L144.4,50.4z"/>
					</g>
				</g>
			</g>
		</g>
		<g id="XMLID_1211_">
			<g id="XMLID_1213_">
				<g id="XMLID_1214_">
					<g id="XMLID_1226_">
						<path id="XMLID_1228_" class="st4" d="M116.2,23.8c-0.2,0-0.2,0.2-0.2,0.2v0.2c0,0.2,0,0.2,0,0.4s0,0.4,0,0.4
							c0,0.2,0,0.2,0,0.4c0,0.4,0,0.8,0,0.9s0,0.2,0,0.4s0.2,0.2,0.2,0.4s0,0.2,0.2,0.4s0.2,0.6,0.4,0.8s0.4,0.4,0.4,0.6
							c0.2,0.2,0.2,0.2,0.2,0.4l0.2,0.2l0.2,0.2c0.2,0.2,0.4,0.4,0.6,0.4c0.2,0.2,0.6,0.2,0.8,0.4c0.4,0.2,0.6,0.2,0.9,0.2l0,0h0.2
							l0,0c0.2,0,0.2,0,0.2,0c0.2,0,0.4,0,0.6,0h0.2c0.2,0,0.2,0,0.4,0h0.4c0.2,0,0.2,0,0.4,0h0.2h0.2c0.4-0.2,0.6-0.2,0.9-0.4
							c0.2-0.2,0.4-0.2,0.8-0.4c0.2,0,0.2-0.2,0.4-0.2s0.2-0.2,0.2-0.2l0.2-0.2c0.2-0.2,0.4-0.4,0.6-0.6c0.2-0.2,0.4-0.6,0.4-0.8
							c0.2-0.2,0.2-0.6,0.4-0.9v-0.2c0-0.2,0-0.2,0-0.2c0-0.2,0-0.4,0.2-0.6c0-0.4,0-0.8,0-1.1c0-0.2,0-0.4-0.2-0.6V24l-0.2-0.2
							c0-0.2-0.2-0.2-0.2-0.2s0,0.2-0.2,0.2c0,0.2,0,0.2,0,0.4v0.2c0,0.2,0,0.2,0,0.4s0,0.2,0,0.4c0,0.4,0,0.8,0,1.1
							c0,0.2,0,0.2-0.2,0.4c0,0.2,0,0.2-0.2,0.4l0,0l0,0c0,0.2-0.2,0.4-0.2,0.4c-0.2,0.2-0.2,0.4-0.2,0.6c-0.2,0.4-0.4,0.6-0.8,0.9
							l-0.2,0.2c-0.2,0.2-0.4,0.2-0.4,0.4l-0.2,0.2l-0.2,0.2c-0.2,0-0.2,0.2-0.4,0.2c-0.6,0.2-1.1,0.4-1.7,0.4c-0.2,0-0.2,0-0.2,0
							H121c-0.2,0-0.2,0-0.2,0c-0.2,0-0.2,0-0.4,0s-0.2,0-0.4,0c0,0,0,0-0.2,0s-0.2,0-0.4-0.2c-0.2,0-0.4-0.2-0.6-0.2
							c-0.4-0.2-0.6-0.4-0.9-0.8l-0.2-0.2c-0.2-0.2-0.2-0.4-0.4-0.4l-0.2-0.2l-0.2-0.2c0-0.2-0.2-0.2-0.2-0.4
							c-0.2-0.6-0.4-1.1-0.4-1.7c0-0.2,0-0.2,0-0.2v-0.2c0-0.2,0-0.2,0-0.2c0-0.2,0-0.2,0-0.4v-0.4c0-0.2,0-0.2,0-0.2v-0.2v-0.2
							C116.6,23.8,116.4,23.8,116.2,23.8C116.4,23.8,116.4,23.8,116.2,23.8z"/>
					</g>
				</g>
			</g>
		</g>
		<g id="XMLID_1206_">
			<g id="XMLID_1207_">
				<g id="XMLID_1208_">
					<g id="XMLID_1209_">
						<path id="XMLID_1210_" class="st4" d="M120.4,100c0.2,0,0.2,0,0.2-0.2c0,0,0,0,0-0.2v-0.2c0,0,0-0.2,0.2-0.2v-0.2
							c0-0.2,0.2-0.4,0.2-0.6v-0.2v-0.2v-0.2c0-0.2,0.2-0.4,0.2-0.4c0-0.2,0-0.2,0.2-0.4V97v-0.2v-0.2c0-0.2,0.2-0.2,0.2-0.4
							s0.2-0.2,0.2-0.4s0.2-0.4,0.2-0.4l0,0l0,0l0,0v-0.2l0.2-0.4v-0.2v-0.2v-0.2v-0.2V94c0,0,0,0,0-0.2s0.2-0.4,0.2-0.4
							c0-0.2,0.2-0.2,0.2-0.4v-0.2v-0.2v-0.2c0-0.2,0.2-0.2,0.2-0.4s0.2-0.2,0.2-0.4s0.2-0.4,0.2-0.4s0,0,0-0.2v-0.2l0.2-0.2
							c0-0.2,0.2-0.4,0.2-0.6c0-0.2,0.2-0.2,0.2-0.4c0,0,0,0,0-0.2s0-0.2,0-0.2s0-0.2-0.2-0.2h-0.2l-0.2,0.2c0,0,0,0,0,0.2
							c0,0,0,0.2-0.2,0.2V90c-0.2,0.2-0.2,0.4-0.2,0.6c0,0,0,0.2-0.2,0.2v0.2l0,0l0,0l-0.2,0.2l-0.2,0.4c0,0.2-0.2,0.4-0.2,0.8
							c0,0,0,0,0,0.2s-0.2,0.2-0.2,0.4V93v0.2l-0.2,0.2c-0.2,0.4-0.2,0.6-0.4,0.9v0.2v0.2v0.2v0.2v0.2l0,0v0.2l-0.2,0.4
							c0,0.2-0.2,0.4-0.2,0.8c0,0,0,0,0,0.2s0,0.2-0.2,0.4v0.2v0.2l-0.2,0.2c-0.2,0.4-0.2,0.6-0.4,0.9v0.2v0.2v0.2v0.2v0.2v0.2v0.2
							c0,0,0,0,0,0.2C120.2,99.8,120.2,100,120.4,100L120.4,100z"/>
					</g>
				</g>
			</g>
		</g>
		<g id="XMLID_1055_">
			<g id="XMLID_1058_">
				<g id="XMLID_1060_">
					<g id="XMLID_1066_">
						<path id="XMLID_1203_" class="st4" d="M127.2,89.2C127,89.1,127,89.1,127.2,89.2C127,89.1,127,89.1,127.2,89.2l-0.2-0.2l0,0
							l0,0h-0.2l0,0l0,0l0,0h-0.2c0,0,0,0-0.2,0l0,0l0,0l0,0c0,0,0,0-0.2,0s0,0-0.2,0h-0.2l0,0l0,0l0,0l0,0h-0.2l0,0l0,0l0,0l0,0
							l0,0l0,0h-0.2c0,0,0,0-0.2,0l0,0l0,0l0,0c0,0,0,0-0.2,0s-0.2,0-0.2,0h-0.2l0,0l0,0h-0.2h-0.2c0,0,0,0-0.2,0l0,0l0,0v0.2v0.2
							l0,0l0,0l0,0l0,0h0.2l0,0l0,0l0,0l0,0c0,0,0,0,0.2,0c0,0,0,0,0.2,0h0.2l0,0c0,0,0,0,0.2,0l0,0l0,0l0,0c0.2,0,0.2,0,0.4,0l0,0
							l0,0l0,0l0,0l0,0l0,0l0,0c0,0,0,0,0.2,0h0.2l0,0c0,0,0,0,0.2,0l0,0l0,0l0,0c0.2,0,0.2,0,0.4,0l0,0l0,0l0,0l0,0l0,0l0,0l0,0
							l0,0C127.2,89.4,127.2,89.4,127.2,89.2L127.2,89.2z"/>
					</g>
				</g>
			</g>
		</g>
		<g id="XMLID_997_">
			<g id="XMLID_998_">
				<g id="XMLID_999_">
					<g id="XMLID_1001_">
						<path id="XMLID_1002_" class="st4" d="M147.9,82.5h-0.2c0,0,0,0-0.2,0h-0.2h-0.2H147c-0.2,0-0.4,0-0.4,0h-0.2h-0.2h-0.2
							c-0.2,0-0.2,0-0.4,0c-0.2,0-0.2,0-0.4,0h-0.2h-0.2h-0.2c-0.2,0-0.2,0-0.4-0.2c-0.2,0-0.2,0-0.4-0.2c-0.2,0-0.2-0.2-0.4-0.2
							l0,0l0,0l0,0c0,0,0,0-0.2,0l-0.2-0.2l0,0H143c0,0-0.2,0-0.2-0.2c0,0-0.2,0-0.2-0.2l0,0l0,0c-0.2,0-0.2-0.2-0.4-0.2l-0.2-0.2
							l-0.2-0.2c0,0,0,0-0.2-0.2l0,0c0-0.2-0.2-0.2-0.2-0.2c0-0.2-0.2-0.2-0.2-0.4s-0.2-0.2-0.2-0.4c0,0,0,0,0-0.2c0,0,0,0,0-0.2
							v-0.2c0-0.2-0.2-0.4-0.2-0.6c0-0.2,0-0.2,0-0.2s0,0,0-0.2c0,0,0,0,0-0.2h-0.2c0,0-0.2,0-0.2,0.2v0.2c0,0,0,0,0,0.2v0.2v0.2
							c0,0.2,0.2,0.4,0.2,0.6v0.2c0,0,0,0.2,0.2,0.2l0,0l0,0c0,0,0,0.2,0.2,0.2c0,0.2,0.2,0.2,0.2,0.2c0.2,0.2,0.2,0.4,0.4,0.6
							c0,0,0,0,0,0.2s0.2,0.2,0.2,0.2s0,0.2,0.2,0.2c0,0,0,0,0.2,0.2l0.2,0.2c0.2,0.2,0.6,0.4,0.8,0.6h0.2h0.2c0,0,0.2,0,0.2,0.2
							h0.2h0.2l0,0h0.2l0.2,0.2c0.2,0,0.4,0.2,0.6,0.2c0,0,0,0,0.2,0c0.2,0,0.2,0,0.4,0h0.2h0.2h0.2c0.4,0,0.6,0,0.9-0.2h0.2h0.2
							h0.2h0.2h0.2h0.2h0.2l0,0C147.9,82.8,147.9,82.6,147.9,82.5C147.9,82.6,147.9,82.5,147.9,82.5z"/>
					</g>
				</g>
			</g>
		</g>
		<g id="XMLID_979_">
			<g id="XMLID_980_">
				<g id="XMLID_985_">
					<g id="XMLID_986_">
						<path id="XMLID_996_" class="st4" d="M94.4,84.2C94.4,84.2,94.4,84.3,94.4,84.2c0.2,0.2,0.2,0.2,0.4,0.2h0.2h0.2h0.2
							c0.2,0,0.4,0,0.6,0h0.2h0.2h0.2c0.2,0,0.4,0,0.4-0.2c0.2,0,0.2-0.2,0.4-0.2h0.2h0.2h0.2c0.2,0,0.2,0,0.4-0.2
							c0.2,0,0.2-0.2,0.4-0.2s0.4-0.2,0.4-0.2l0,0l0,0l0,0c0,0,0,0,0.2,0l0.2-0.2l0,0l0.2-0.2l0-0.6c0,0,0.2,0,0.2-0.2l0,0l0,0
							c0.2-0.2,0.2-0.2,0.4-0.4s0.2-0.2,0.2-0.2l0.2-0.2c0,0,0,0,0.2-0.2l0,0c0-0.2,0.2-0.2,0.2-0.2c0.2-0.2,0.2-0.2,0.2-0.4
							s0.2-0.2,0.2-0.4l0,0c0,0,0,0,0-0.2l0.2-0.2c0.2-0.2,0.2-0.4,0.2-0.6c0-0.2,0.2-0.2,0.2-0.2s0,0,0-0.2s0-0.2,0-0.2
							s0-0.2-0.2-0.2s-0.2,0-0.2,0s-0.2,0-0.2,0.2c0,0,0,0,0,0.2c0,0,0,0.2-0.2,0.2v0.2c-0.2,0.2-0.2,0.4-0.2,0.4l-0.2,0.2
							c0,0,0,0.2-0.2,0.2l0,0l0,0l-0.2,0.2l-0.2,0.2c-0.2,0.2-0.2,0.4-0.4,0.4c0,0,0,0,0,0.2l-0.2,0.2c0,0,0,0-0.2,0.2s0,0,0,0.2
							l-0.2,0.2c-0.2,0.2-0.4,0.4-0.8,0.6c0,0,0,0-0.2,0s0,0-0.2,0h-0.2c0,0-0.2,0-0.2,0.2s-0.2,0-0.2,0.2l0,0h-0.2L97,83
							c-0.2,0.2-0.4,0.2-0.6,0.2c0,0,0,0-0.2,0s-0.2,0-0.4,0.2h-0.2c0,0,0,0-0.2,0h-0.2c-0.4,0.2-0.6,0.2-0.9,0.2h-0.2
							c0,0,0,0-0.2,0h-0.2h-0.2h-0.2h-0.2H93l0,0C94.4,84,94.4,84,94.4,84.2L94.4,84.2z"/>
					</g>
				</g>
			</g>
		</g>
		<g id="XMLID_922_">
			<g id="XMLID_943_">
				<g id="XMLID_944_">
					<g id="XMLID_949_">
						<path id="XMLID_950_" class="st4" d="M35.3,161.7v-0.2v-0.2c0-0.2,0-0.2-0.2-0.2c0-0.2,0-0.2-0.2-0.4v-0.2
							c0-0.2-0.2-0.4-0.2-0.8c0-0.2,0-0.2-0.2-0.4c0-0.2-0.2-0.2-0.2-0.4v-0.2c-0.2-0.2-0.2-0.4-0.2-0.8c0-0.2-0.2-0.4-0.2-0.6
							s0-0.2-0.2-0.2c0,0,0-0.2-0.2-0.2V157c0-0.2-0.2-0.4-0.2-0.6c0-0.2-0.2-0.4-0.2-0.6c0-0.2-0.2-0.4-0.2-0.8l0,0l0,0l0,0v-0.2
							c0-0.2-0.2-0.2-0.2-0.4v-0.2v-0.2c0-0.2,0-0.2-0.2-0.4c0-0.2,0-0.2-0.2-0.2v-0.2v-0.2c-0.2-0.2-0.2-0.4-0.2-0.8
							c0-0.2-0.2-0.4-0.2-0.6c0-0.2,0-0.2-0.2-0.2c0,0,0-0.2-0.2-0.2v-0.2c0-0.2-0.2-0.4-0.2-0.6c0-0.2-0.2-0.4-0.2-0.6
							c0-0.2-0.2-0.4-0.2-0.8v-0.2v-0.2c0-0.2-0.2-0.2-0.2-0.4c-0.2-0.2-0.2-0.6-0.4-0.8c0-0.2,0-0.4-0.2-0.4v-0.2
							c0,0,0-0.2-0.2-0.2c0,0-0.2-0.2-0.2,0c0,0.2,0,0.2-0.2,0.2c0,0,0,0.2,0,0.4v0.2c0,0.2,0,0.2,0.2,0.4c0,0.2,0,0.2,0.2,0.2
							c0,0.2,0.2,0.6,0.4,0.8c0,0.2,0,0.2,0.2,0.4c0,0.2,0,0.2,0.2,0.4l0,0l0,0c0,0.2,0,0.2,0.2,0.4c0,0.2,0.2,0.4,0.2,0.4
							c0.2,0.4,0.2,0.6,0.4,0.9v0.2c0,0.2,0.2,0.4,0.2,0.4v0.2v0.2c0,0.2,0,0.2,0.2,0.4c0.2,0.4,0.4,0.9,0.4,1.3v0.2v0.2v0.2
							c0,0.2,0,0.2,0,0.2c0,0.2,0,0.2,0.2,0.2c0,0,0,0,0,0.2v0.2c0,0.2,0.2,0.4,0.2,0.4c0.2,0.4,0.2,0.6,0.4,0.9v0.2
							c0,0.2,0.2,0.4,0.2,0.4v0.2v0.2c0,0.2,0,0.2,0.2,0.4c0.2,0.4,0.4,0.9,0.4,1.3v0.2v0.2v0.2c0,0.2,0,0.2,0,0.2
							c0,0.2,0,0.2,0.2,0.2c0,0.2,0,0.2,0.2,0.2v0.2c0,0,0,0,0.2,0C35.1,161.7,35.1,161.7,35.3,161.7L35.3,161.7z"/>
					</g>
				</g>
			</g>
		</g>
		<g>
			<g id="XMLID_836_">
				<g id="XMLID_837_">
					<g id="XMLID_838_">
						<g id="XMLID_839_">
							<path id="XMLID_921_" class="st4" d="M155.5,213.4c0,0-0.2-0.2-0.4-0.2c-0.2,0-0.2,0-0.4,0c-0.2,0-0.4,0-0.4,0
								c-0.2,0-0.4,0-0.6,0c-0.2,0-0.2,0-0.4,0c-0.4,0-0.8,0-1.1,0c-0.2,0-0.4,0-0.6,0c-0.2,0-0.4,0-0.6,0s-0.2,0-0.4,0
								c-0.4,0-0.8,0-1.1,0c-0.4,0-0.6,0-0.9,0c-0.2,0-0.4,0-0.4,0c-0.2,0-0.2,0-0.4,0h-0.2c-0.2,0-0.6,0-0.9,0s-0.8,0-0.9,0
								c-0.4,0-0.8,0-1.1,0c0,0,0,0-0.2,0c-0.2,0,0,0-0.2,0l0,0c-0.2,0-0.2,0-0.4,0c-0.2,0-0.4,0-0.8,0H143c-0.2,0-0.2,0-0.4,0
								c-0.2,0-0.4,0-0.6,0c-0.2,0-0.2,0-0.4,0h-0.2h-0.2c-0.4,0-0.8,0-1.1,0s-0.6,0-0.9,0c-0.2,0-0.4,0-0.4,0c-0.2,0-0.2,0-0.4,0
								h-0.2c-0.2,0-0.6,0-0.9,0s-0.8,0-0.9,0c-0.4,0-0.8,0-1.1,0c-0.2,0-0.2,0-0.2,0c-0.2,0-0.2,0-0.4,0c-0.2,0-0.4,0-0.8,0
								c-0.4,0-0.9,0-1.3,0c-0.2,0-0.4,0-0.8,0c-0.2,0-0.2,0-0.2,0h-0.2c-0.2,0-0.2,0.2-0.2,0.2l0.2,0.2c0.2,0,0.2,0,0.4,0
								c0.2,0,0.2,0,0.2,0c0.2,0,0.4,0,0.4,0s0.2,0,0.4,0c0.4,0,0.9,0,1.3,0c0.2,0,0.4,0,0.4,0c0.2,0,0.4,0,0.6,0l0,0l0,0
								c0.2,0,0.4,0,0.6,0c0.2,0,0.4,0,0.8,0c0.6,0,0.9,0,1.5,0c0.2,0,0.2,0,0.4,0c0.2,0,0.6,0,0.8,0c0.2,0,0.2,0,0.4,0
								c0.2,0,0.2,0,0.4,0c0.2,0,0.4,0,0.6,0c0.8,0,1.5,0,2.3,0c0.2,0,0.2,0,0.4,0c0.2,0,0.2,0,0.4,0c0.2,0,0.2,0,0.4,0
								c0.2,0,0.2,0,0.4,0c0.2,0,0.4,0,0.4,0h0.2c0.2,0,0.2,0,0.4,0c0.2,0,0.4,0,0.8,0c0.6,0,0.9,0,1.5,0c0.2,0,0.2,0,0.4,0
								c0.2,0,0.6,0,0.8,0c0.2,0,0.2,0,0.4,0c0.2,0,0.2,0,0.4,0c0.2,0,0.4,0,0.6,0c0.8,0,1.5,0,2.3,0c0.2,0,0.2,0,0.4,0
								c0.2,0,0.2,0,0.4,0c0.2,0,0.2,0,0.4,0c0.2,0,0.2,0,0.4,0c0.2,0,0.4,0,0.4,0s0.2,0,0.4,0c0.2,0,0.2,0,0.4,0h0.2
								C155.5,213.6,155.5,213.6,155.5,213.4L155.5,213.4z"/>
						</g>
					</g>
				</g>
			</g>
			<g id="XMLID_831_">
				<g id="XMLID_832_">
					<g id="XMLID_833_">
						<g id="XMLID_834_">
							<path id="XMLID_835_" class="st4" d="M137.4,213.4C137.6,213.4,137.6,213.4,137.4,213.4c0.2-0.2,0.2-0.2,0.2-0.2V213v-0.2
								c0,0,0,0,0-0.2c0-0.2,0-0.2,0-0.4v-0.2v-0.2c0,0,0,0,0-0.2s0-0.2-0.2-0.4l-0.2-0.2V211c0,0,0,0,0-0.2l0,0l-0.2-0.2l-0.2-0.2
								l-0.2-0.2l0,0l0,0l0,0c0,0,0,0-0.2,0l-0.2-0.2l0,0h-0.2h-0.2h-0.2l0,0l0,0c-0.2,0-0.2-0.2-0.4-0.2c-0.2,0-0.2,0-0.4,0h-0.2
								c0,0,0,0-0.2,0l0,0c-0.2,0-0.2,0-0.4,0c-0.2,0-0.2,0-0.4,0c-0.2,0-0.2,0-0.4,0c0,0,0,0-0.2,0c-0.2,0,0,0-0.2,0h-0.2
								c-0.2,0-0.2,0-0.4,0.2c-0.2,0-0.2,0-0.2,0l0,0l0,0v0.2c0,0,0,0,0.2,0.2h0.2l0,0h0.2c0,0,0,0,0.2,0c0.2,0,0.2,0,0.4,0h0.2h0.2
								l0,0l0,0h0.2h0.2c0.2,0,0.4,0,0.4,0s0,0,0.2,0h0.2c0,0,0,0,0.2,0c0.2,0,0,0,0.2,0h0.2c0.2,0,0.4,0.2,0.6,0.4c0,0,0,0,0.2,0
								l0,0l0,0c0,0,0,0,0.2,0c0.2,0,0,0,0.2,0l0,0l0,0l0.2,0.2c0.2,0.2,0.2,0.2,0.2,0.4l0,0c0,0,0,0.2,0.2,0.2c0,0,0,0,0,0.2
								c0,0.2,0,0,0,0v0.2c0,0.2,0.2,0.4,0.2,0.6c0,0,0,0,0,0.2l0,0c0,0,0,0,0,0.2c0,0.2,0,0,0,0.2v0.2
								C137.4,213.2,137.4,213.2,137.4,213.4c0,0.2,0,0,0,0.2l0,0C137.2,213.4,137.2,213.4,137.4,213.4L137.4,213.4z"/>
						</g>
					</g>
				</g>
			</g>
			<g id="XMLID_826_">
				<g id="XMLID_827_">
					<g id="XMLID_828_">
						<g id="XMLID_829_">
							<path id="XMLID_830_" class="st4" d="M149.8,209.1h0.2h0.2c0.2,0,0.2,0,0.2-0.2c0.2,0,0.2,0,0.4-0.2c0,0,0.2,0,0.2-0.2
								c0.2-0.2,0.4-0.2,0.6-0.4c0.2,0,0.2-0.2,0.2-0.2l0.2-0.2l0.2-0.2c0.2-0.2,0.4-0.4,0.4-0.6c0.2-0.2,0.2-0.4,0.4-0.4l0.2-0.2
								l0.2-0.2V206c0-0.2,0.2-0.4,0.2-0.6c0-0.2,0.2-0.4,0-0.8c0-0.2,0-0.6-0.2-0.8l0,0l0,0l0,0c0,0,0-0.2-0.2-0.2
								c-0.2-0.2-0.2-0.2-0.4-0.4c0,0-0.2,0-0.2-0.2c0,0-0.2,0-0.2-0.2c-0.2,0-0.2,0-0.4,0c-0.2,0-0.2,0-0.4,0h-0.2h-0.2
								c-0.2,0-0.4,0.2-0.8,0.2c-0.2,0.2-0.4,0.2-0.4,0.4l-0.2,0.2l-0.2,0.2l-0.2,0.2c-0.2,0.2-0.2,0.2-0.4,0.4
								c-0.2,0.2-0.2,0.4-0.2,0.6c-0.2,0.2-0.2,0.4-0.2,0.8v0.2v0.2c0,0.2,0,0.2,0,0.4c0,0.2,0,0.6,0,0.8c0,0.2,0,0.4,0.2,0.4v0.2
								c0,0,0,0,0.2,0.2h0.2c0,0,0-0.2,0.2-0.2v-0.2c0,0,0,0,0-0.2c0-0.2,0-0.2,0-0.2v-0.2c0-0.2,0-0.6,0-0.8c0-0.2,0-0.2,0-0.2
								s0-0.2,0-0.4l0,0l0,0c0-0.2,0.2-0.2,0.2-0.4c0-0.2,0.2-0.2,0.2-0.4c0.2-0.2,0.2-0.6,0.4-0.8c0,0,0,0,0.2-0.2
								c0.2-0.2,0.2-0.2,0.4-0.2c0,0,0.2,0,0.2-0.2c0,0,0.2,0,0.2-0.2c0.2,0,0.2,0,0.2-0.2c0.4-0.2,0.8-0.2,1.1,0c0,0,0.2,0,0.2,0.2
								c0,0,0,0,0.2,0.2c0.2,0.2,0,0.2,0.2,0.2c0,0,0,0.2,0.2,0.2v0.2l0,0v0.2c0,0.2,0,0.2,0,0.4c0,0.2-0.2,0.6-0.2,0.8v0.2
								c0,0.2-0.2,0.2-0.2,0.4c0,0,0,0.2-0.2,0.2c0,0,0,0.2-0.2,0.2l-0.2,0.2c-0.2,0.4-0.6,0.6-0.9,0.8c0,0-0.2,0-0.2,0.2H151h-0.2
								h-0.2h-0.2h-0.2H150l0,0C149.8,208.9,149.8,208.9,149.8,209.1L149.8,209.1z"/>
						</g>
					</g>
				</g>
			</g>
			<g id="XMLID_821_">
				<g id="XMLID_822_">
					<g id="XMLID_823_">
						<g id="XMLID_824_">
							<path id="XMLID_825_" class="st4" d="M150,209.1c0,0,0,0.2,0.2,0.2h0.2c0.2,0,0.2,0,0.2,0c0.2,0,0.2,0,0.4,0h0.2
								c0.2,0,0.4,0,0.8,0c0.2,0,0.2,0,0.4,0c0.2,0,0.2,0,0.4,0h0.2c0.2,0,0.4,0,0.8-0.2c0.2,0,0.4-0.2,0.6-0.2l0.2-0.2l0.2-0.2h0.2
								c0.2,0,0.4-0.2,0.4-0.4c0.2-0.2,0.4-0.4,0.4-0.6c0.2-0.2,0.2-0.4,0.4-0.8l0,0l0,0l0,0v-0.2c0-0.2,0-0.4,0-0.6v-0.2
								c0,0,0-0.2-0.2-0.2c0-0.2-0.2-0.2-0.2-0.2l-0.2-0.2h-0.2c0,0,0,0-0.2,0c-0.2,0-0.4-0.2-0.8-0.2c-0.2,0-0.4,0-0.6,0
								c-0.2,0-0.2,0-0.4,0H153h-0.2c-0.2,0-0.4,0-0.6,0.2c-0.2,0-0.4,0.2-0.6,0.4c-0.2,0.2-0.4,0.2-0.6,0.4c0,0,0,0-0.2,0.2
								l-0.2,0.2c-0.2,0.2-0.2,0.2-0.4,0.4c-0.2,0.2-0.2,0.4-0.4,0.8c0,0.2-0.2,0.2-0.2,0.4v0.2v0.2c0,0.2,0,0.2,0.2,0.2h0.2
								l0.2-0.2c0,0,0,0,0-0.2c0,0,0-0.2,0.2-0.2c0,0,0-0.2,0.2-0.2c0.2-0.2,0.2-0.4,0.4-0.6l0.2-0.2l0.2-0.2l0,0l0,0
								c0.2,0,0.2-0.2,0.4-0.2c0.2,0,0.2-0.2,0.4-0.2c0.2-0.2,0.6-0.2,0.8-0.2h0.2c0.2,0,0.2,0,0.4,0h0.2h0.2c0.2,0,0.2,0,0.4,0
								c0.4,0.2,0.8,0.4,0.9,0.6v0.2v0.2v0.2v0.2v0.2l0,0c0,0,0,0.2-0.2,0.2c0,0.2-0.2,0.2-0.2,0.4c-0.2,0.2-0.4,0.4-0.8,0.6H154
								c-0.2,0-0.2,0.2-0.4,0.2h-0.2h-0.2h-0.4c-0.4,0-0.8,0.2-1.3,0.2h-0.2h-0.2H151c-0.2,0-0.2,0-0.2,0h-0.2h-0.2h-0.2
								C150.2,208.9,150.2,208.9,150,209.1C150.2,208.9,150,208.9,150,209.1C150,208.9,150,208.9,150,209.1z"/>
						</g>
					</g>
				</g>
			</g>
			<g id="XMLID_816_">
				<g id="XMLID_817_">
					<g id="XMLID_818_">
						<g id="XMLID_819_">
							<path id="XMLID_820_" class="st4" d="M147,208.7C147,208.9,147,208.9,147,208.7C147,208.9,147,208.9,147,208.7
								C147,208.9,147,208.9,147,208.7c0.2,0.2,0.2,0.2,0.2,0.2l0,0h0.2l0,0l0,0l0,0h0.2c0,0,0,0,0.2,0l0,0l0,0l0,0c0,0,0,0,0.2,0
								c0.2,0,0,0,0.2,0c0.2,0,0.2,0,0.2,0l0,0l0,0l0,0l0,0l0,0l0,0l0,0l0,0l0,0l0,0l0,0h0.2c0,0,0,0,0.2,0l0,0l0,0l0,0
								c0,0,0,0,0.2,0c0.2,0,0,0,0.2,0s0.2,0,0.2,0l0,0l0,0l0,0h0.2c0,0,0,0,0.2,0l0,0l0,0v-0.2v-0.2l0,0l0,0l0,0l0,0h-0.2l0,0l0,0
								l0,0l0,0l0,0c0,0,0,0-0.2,0h-0.2l0,0c0,0,0,0-0.2,0l0,0l0,0l0,0c-0.2,0-0.2,0-0.2,0l0,0l0,0l0,0l0,0l0,0l0,0l0,0
								c0,0,0,0-0.2,0h-0.2l0,0c0,0,0,0-0.2,0l0,0l0,0l0,0c-0.2,0-0.2,0-0.2,0l0,0l0,0l0,0l0,0l0,0l0,0l0,0l0,0
								C146.8,208.5,146.8,208.5,147,208.7L147,208.7z"/>
						</g>
					</g>
				</g>
			</g>
			<g id="XMLID_811_">
				<g id="XMLID_812_">
					<g id="XMLID_813_">
						<g id="XMLID_814_">
							<path id="XMLID_815_" class="st4" d="M148.7,210.8C148.7,210.8,148.7,211,148.7,210.8C148.7,211,148.9,211,148.7,210.8
								C148.9,211,148.9,211,148.7,210.8c0.2,0.2,0.2,0.2,0.2,0.2l0,0h0.2l0,0l0,0l0,0h0.2h0.2l0,0l0,0l0,0h0.2h0.2h0.2l0,0l0,0l0,0
								l0,0c0,0,0,0,0.2,0l0,0l0,0l0,0l0,0l0,0l0,0h0.2h0.2l0,0l0,0l0,0h0.2h0.2h0.2l0,0l0,0c0,0,0,0,0.2,0h0.2c0,0,0,0,0.2,0l0,0
								l0,0c0,0,0,0,0-0.2c0-0.2,0-0.2,0-0.2l0,0l0,0l0,0l0,0h-0.2l0,0c0,0,0,0-0.2,0l0,0l0,0c0,0,0,0-0.2,0c0,0,0,0-0.2,0h-0.2l0,0
								c0,0,0,0-0.2,0l0,0l0,0c0,0,0,0-0.2,0c-0.2,0-0.2,0-0.4,0l0,0l0,0l0,0l0,0l0,0l0,0l0,0c0,0,0,0-0.2,0h-0.2l0,0c0,0,0,0-0.2,0
								l0,0l0,0c0,0,0,0-0.2,0c-0.2,0-0.2,0-0.4,0l0,0l0,0l0,0l0,0l0,0l0,0l0,0l0,0C148.7,210.6,148.7,210.6,148.7,210.8
								L148.7,210.8z"/>
						</g>
					</g>
				</g>
			</g>
		</g>
		<g id="XMLID_806_">
			<g id="XMLID_807_">
				<g id="XMLID_808_">
					<g id="XMLID_809_">
						<path id="XMLID_810_" class="st4" d="M27.4,173.4c0-0.2,0-0.2,0-0.4c0-0.2,0-0.2-0.2-0.2c0-0.2-0.2-0.2-0.2-0.4
							c0-0.2-0.2-0.4-0.2-0.6c0-0.2-0.2-0.2-0.2-0.4c-0.2-0.4-0.2-0.8-0.4-1.1c0-0.2-0.2-0.4-0.2-0.4s-0.2-0.2-0.2-0.4
							c0-0.2,0-0.2-0.2-0.4c-0.2-0.4-0.2-0.8-0.4-0.9c-0.2-0.2-0.2-0.6-0.4-0.8c0-0.2-0.2-0.2-0.2-0.4c0-0.2-0.2-0.2-0.2-0.4
							c0,0,0-0.2-0.2-0.2c-0.2-0.2-0.2-0.6-0.4-0.8c-0.2-0.4-0.2-0.6-0.4-0.9s-0.2-0.6-0.4-0.9l0,0c0,0,0,0,0-0.2l0,0
							c0-0.2,0-0.2-0.2-0.4c0-0.2-0.2-0.4-0.2-0.6c0,0,0-0.2-0.2-0.2c0-0.2-0.2-0.2-0.2-0.4c0-0.2-0.2-0.4-0.2-0.4
							c0-0.2-0.2-0.2-0.2-0.4v-0.2v-0.2c-0.2-0.4-0.2-0.8-0.4-0.9c-0.2-0.2-0.2-0.6-0.4-0.8c0-0.2-0.2-0.2-0.2-0.4
							c0-0.2-0.2-0.2-0.2-0.4c0,0,0-0.2-0.2-0.2c-0.2-0.2-0.2-0.6-0.4-0.8c-0.2-0.4-0.2-0.6-0.4-0.9c-0.2-0.4-0.2-0.6-0.4-0.9
							c0,0,0-0.2-0.2-0.2c0-0.2,0-0.2-0.2-0.4c0-0.2-0.2-0.4-0.2-0.6c-0.2-0.4-0.4-0.8-0.6-1.1c0-0.2-0.2-0.4-0.2-0.8
							c0,0,0-0.2-0.2-0.2l-0.2-0.2c-0.2-0.2-0.2-0.2-0.2-0.2v0.2c0,0.2,0,0.2,0.2,0.4c0,0,0,0.2,0.2,0.2c0,0.2,0.2,0.2,0.2,0.4
							c0,0.2,0.2,0.2,0.2,0.4c0.2,0.4,0.4,0.8,0.6,1.1c0,0.2,0.2,0.4,0.2,0.4c0,0.2,0.2,0.4,0.2,0.6l0,0l0,0c0,0.2,0.2,0.4,0.2,0.6
							c0.2,0.2,0.2,0.4,0.2,0.6c0.2,0.4,0.4,0.9,0.6,1.3c0,0.2,0,0.2,0.2,0.2c0.2,0.2,0.2,0.4,0.4,0.8c0,0.2,0.2,0.2,0.2,0.4
							c0,0.2,0.2,0.2,0.2,0.2c0,0.2,0.2,0.4,0.2,0.6c0.4,0.8,0.6,1.3,0.8,1.9c0,0.2,0.2,0.2,0.2,0.4c0,0.2,0.2,0.2,0.2,0.2
							c0,0.2,0,0.2,0.2,0.4c0,0.2,0.2,0.2,0.2,0.4c0,0.2,0.2,0.2,0.2,0.4v0.2c0,0.2,0.2,0.2,0.2,0.4c0.2,0.2,0.2,0.4,0.2,0.6
							c0.2,0.4,0.4,0.9,0.6,1.3c0,0.2,0,0.2,0.2,0.2c0.2,0.2,0.2,0.4,0.4,0.8c0,0.2,0.2,0.2,0.2,0.4c0,0.2,0.2,0.2,0.2,0.2
							c0,0.2,0.2,0.4,0.2,0.6c0.4,0.8,0.6,1.3,0.8,1.9c0,0.2,0.2,0.2,0.2,0.4c0,0.2,0.2,0.2,0.2,0.2c0,0.2,0,0.2,0.2,0.4
							c0,0.2,0.2,0.2,0.2,0.4c0,0.2,0.2,0.2,0.2,0.4s0.2,0.2,0.2,0.4c0,0.2,0.2,0.2,0.2,0.4c0,0,0,0.2,0.2,0.2
							C27.2,173.4,27.4,173.4,27.4,173.4C27.4,173.6,27.4,173.6,27.4,173.4z"/>
					</g>
				</g>
			</g>
		</g>
		<g id="XMLID_801_">
			<g id="XMLID_802_">
				<g id="XMLID_803_">
					<g id="XMLID_804_">
						<path id="XMLID_805_" class="st4" d="M20.6,157.4L20.6,157.4c0.2,0.2,0.2,0,0.2,0H21h0.2c0,0,0,0,0.2,0c0.2,0,0.2-0.2,0.4-0.2
							l0.2-0.2l0.2-0.2c0,0,0,0,0.2,0c0-0.2,0.2-0.2,0.2-0.2l0.2-0.2l0.2-0.2c0,0,0,0,0-0.2l0,0l0.2-0.2c0,0,0.2-0.2,0.2-0.4
							c0-0.2,0.2-0.2,0.2-0.4l0,0l0,0l0,0c0,0,0,0,0-0.2v-0.2l0,0v-0.2v-0.2v-0.2l0,0l0,0c0-0.2,0-0.2,0-0.4c0-0.2,0-0.2,0-0.4v-0.2
							c0,0,0,0,0-0.2l0,0c0-0.2,0-0.2,0-0.4c0-0.2,0-0.2-0.2-0.4c0-0.2,0-0.2-0.2-0.4l0,0c0,0,0,0,0-0.2c0,0,0-0.2-0.2-0.2
							c0-0.2-0.2-0.2-0.4-0.4l-0.2-0.2l0,0c0,0,0,0-0.2,0h-0.2v0.2v0.2l0,0c0,0,0,0,0.2,0.2c0,0,0,0,0.2,0.2c0,0.2,0.2,0.2,0.2,0.4
							v0.2c0,0,0,0.2,0.2,0.2l0,0l0,0v0.2v0.2c0,0.2,0,0.4,0.2,0.4c0,0,0,0,0,0.2v0.2c0,0,0,0,0,0.2c0,0.2,0,0,0,0.2v0.2
							c0,0.2,0,0.4,0,0.8c0,0,0,0,0,0.2c0,0,0,0,0,0.2c0,0,0,0,0,0.2c0,0,0,0,0,0.2s0,0.2,0,0.2l0,0c0,0,0,0,0,0.2l-0.2,0.2
							c0,0.2-0.2,0.2-0.2,0.4l0,0l-0.2,0.2c0,0,0,0,0,0.2c0,0.2,0,0,0,0s-0.2,0-0.2,0.2c-0.2,0.2-0.4,0.4-0.6,0.4c0,0,0,0-0.2,0
							s0,0,0,0s0,0-0.2,0c0,0,0,0-0.2,0h-0.2c0,0,0,0-0.2,0c0,0,0,0-0.2,0C20.6,157.2,20.6,157.2,20.6,157.4
							C20.6,157.2,20.6,157.4,20.6,157.4C20.4,157.4,20.4,157.4,20.6,157.4z"/>
					</g>
				</g>
			</g>
		</g>
		<g id="XMLID_796_">
			<g id="XMLID_797_">
				<g id="XMLID_798_">
					<g id="XMLID_799_">
						<path id="XMLID_800_" class="st4" d="M29.3,166.6c0,0.2,0,0.2,0,0.2l0.2,0.2l0.2,0.2c0.2,0,0.2,0.2,0.2,0.2s0.2,0,0.2,0.2
							c0.2,0.2,0.4,0.2,0.6,0.4c0.2,0,0.2,0.2,0.4,0.2s0.2,0,0.4,0.2h0.2c0.2,0,0.4,0.2,0.6,0.2c0.2,0,0.4,0,0.6,0H33h0.2h0.2
							c0.2,0,0.4,0,0.6,0c0.2,0,0.4-0.2,0.6-0.2c0.2-0.2,0.4-0.2,0.6-0.4l0,0l0,0l0,0c0,0,0-0.2,0.2-0.2c0-0.2,0.2-0.4,0.2-0.4v-0.2
							c0-0.2,0-0.2,0-0.2c0-0.2,0-0.2-0.2-0.4c0-0.2-0.2-0.2-0.2-0.2s0-0.2-0.2-0.2c0,0,0,0-0.2-0.2s-0.4-0.4-0.6-0.4
							c-0.2-0.2-0.4-0.2-0.6-0.2c-0.2,0-0.2,0-0.4-0.2H33h-0.2c-0.2,0-0.4-0.2-0.6-0.2c-0.2,0-0.4,0-0.6,0c-0.2,0-0.4,0-0.8,0.2
							h-0.2h-0.2c-0.2,0-0.4,0.2-0.4,0.2c-0.2,0.2-0.4,0.4-0.8,0.4c-0.2,0.2-0.2,0.2-0.4,0.4c0,0-0.2,0-0.2,0.2v0.2
							c0,0.2,0,0.2,0,0.2h0.2C29.1,166.8,29.3,166.8,29.3,166.6c0,0,0,0,0.2-0.2l0.2-0.2l0.2-0.2c0.2-0.2,0.4-0.2,0.6-0.4
							c0.2,0,0.2,0,0.2,0c0.2,0,0.2,0,0.4-0.2l0,0l0,0c0.2,0,0.2,0,0.4,0s0.2,0,0.4,0c0.4,0,0.6,0,0.8,0.2h0.2
							c0.2,0,0.2,0.2,0.4,0.2c0,0,0.2,0,0.2,0.2h0.2l0.2,0.2c0.4,0.2,0.6,0.6,0.6,0.9v0.2v0.2v0.2c0,0,0,0.2-0.2,0.2
							s-0.2,0.2-0.2,0.2l0,0l-0.2,0.2c-0.2,0-0.2,0.2-0.4,0.2c-0.2,0.2-0.6,0.2-0.8,0.2h-0.2c-0.2,0-0.4,0-0.4,0h-0.2h-0.2h-0.4
							c-0.4-0.2-0.8-0.2-1.1-0.4c0,0-0.2,0-0.2-0.2h-0.2c0,0-0.2,0-0.2-0.2l-0.2-0.2l-0.2-0.2c0,0-0.2,0-0.2-0.2l-0.2-0.2
							c0,0,0,0-0.2,0C29.5,166.6,29.5,166.6,29.3,166.6L29.3,166.6z"/>
					</g>
				</g>
			</g>
		</g>
		<g id="XMLID_791_">
			<g id="XMLID_792_">
				<g id="XMLID_793_">
					<g id="XMLID_794_">
						<path id="XMLID_795_" class="st4" d="M29.5,166.8l-0.2,0.2v0.2c0,0.2,0,0.2,0,0.2c0,0.2,0,0.2,0.2,0.4c0,0,0,0.2,0.2,0.2
							c0.2,0.2,0.2,0.4,0.4,0.8c0,0.2,0.2,0.2,0.2,0.2c0,0.2,0.2,0.2,0.2,0.2s0,0.2,0.2,0.2c0.2,0.2,0.4,0.4,0.4,0.6
							c0.2,0.2,0.4,0.2,0.4,0.4l0.2,0.2l0.2,0.2h0.2c0.2,0.2,0.4,0.2,0.6,0.2c0.2,0,0.4,0.2,0.6,0.2c0.2,0,0.6,0,0.8,0l0,0l0,0l0,0
							c0,0,0.2,0,0.2-0.2c0.2,0,0.4-0.2,0.4-0.4c0,0,0,0,0.2-0.2l0.2-0.2c0-0.2,0.2-0.2,0.2-0.4c0-0.2,0-0.2,0-0.4v-0.2v-0.2
							c0-0.2,0-0.6-0.2-0.8c0-0.2-0.2-0.4-0.4-0.6c0-0.2-0.2-0.2-0.2-0.2l-0.2-0.2l-0.2-0.2c-0.2-0.2-0.2-0.2-0.4-0.4
							c-0.2-0.2-0.4-0.2-0.6-0.4c-0.2-0.2-0.4-0.2-0.6-0.4h-0.2h-0.2c-0.2,0-0.4,0-0.4-0.2c-0.4,0-0.6,0-0.8,0s-0.4,0-0.4,0h-0.2
							c0,0-0.2,0-0.2,0.2c-0.2,0-0.2,0.2,0,0.2s0.2,0.2,0.2,0.2h0.2h0.2c0.2,0,0.2,0,0.2,0c0.2,0,0.2,0,0.2,0c0.2,0,0.6,0,0.8,0.2
							c0.2,0,0.2,0,0.2,0.2c0,0.2,0.2,0,0.4,0.2l0,0l0,0c0,0,0.2,0.2,0.4,0.2c0.2,0,0.2,0.2,0.4,0.2c0.2,0.2,0.4,0.4,0.6,0.6
							c0,0,0,0.2,0.2,0.2c0,0.2,0.2,0.2,0.2,0.4c0,0,0,0.2,0.2,0.2c0,0,0,0.2,0.2,0.2c0,0.2,0,0.2,0,0.2c0.2,0.4,0,0.8-0.2,1.1
							c0,0,0,0-0.2,0.2c0,0,0,0-0.2,0.2h-0.2h-0.2h-0.2l0,0H33c-0.2,0-0.2,0-0.4,0s-0.6-0.2-0.8-0.4c0,0-0.2,0-0.2-0.2
							c-0.2-0.2-0.2-0.2-0.4-0.2l-0.2-0.2c0,0-0.2,0-0.2-0.2l-0.2-0.2c-0.2-0.4-0.6-0.8-0.8-1.1c0,0,0-0.2-0.2-0.2v-0.2v-0.2v-0.2
							V167v-0.2v-0.2C29.6,166.8,29.6,166.8,29.5,166.8C29.6,166.8,29.6,166.8,29.5,166.8L29.5,166.8z"/>
					</g>
				</g>
			</g>
		</g>
		<g id="XMLID_786_">
			<g id="XMLID_787_">
				<g id="XMLID_788_">
					<g id="XMLID_789_">
						<path id="XMLID_790_" class="st4" d="M28.3,164C28.1,164,28.1,164,28.3,164C28.1,164,28.1,164,28.3,164c-0.2,0.2,0,0.2,0,0.2
							l0,0l0,0v0.2l0,0l0,0l0,0v0.2c0,0,0,0,0,0.2l0,0l0,0l0,0c0,0,0,0,0,0.2c0,0,0,0,0,0.2c0,0.2,0,0,0,0.2l0,0l0,0l0,0l0,0l0,0
							l0,0l0,0l0,0l0,0l0,0l0,0v0.2c0,0,0,0,0,0.2l0,0l0,0l0,0c0,0,0,0,0,0.2c0,0,0,0,0,0.2c0,0.2,0,0,0,0.2l0,0l0,0l0,0
							c0,0,0.2,0,0.2,0.2l0,0l0,0l0,0h0.2c0,0,0.2,0,0.2-0.2c0-0.2,0,0,0,0l0,0l0,0l0,0V166l0,0l0,0l0,0l0,0l0,0l0,0
							c0,0,0-0.2-0.2-0.2l0,0c0,0,0,0,0-0.2l0,0l0,0l0,0l-0.2-0.2l0,0l0,0l0,0l0,0l0,0l0,0l0,0l0,0c0,0,0-0.2-0.2-0.2l0,0
							c0,0,0,0,0-0.2l0,0l0,0l0,0l-0.2-0.2l0,0l0,0l0,0l0,0l0,0l0,0l0,0C28.5,163.8,28.5,163.8,28.3,164L28.3,164L28.3,164z"/>
					</g>
				</g>
			</g>
		</g>
		<g id="XMLID_778_">
			<g id="XMLID_779_">
				<g id="XMLID_780_">
					<g id="XMLID_782_">
						<path id="XMLID_785_" class="st4" d="M27.4,166.4C27.2,166.4,27.2,166.4,27.4,166.4C27.2,166.6,27.2,166.6,27.4,166.4
							c0,0.2,0,0.2,0,0.2s0,0,0,0.2l0,0v0.2l0,0l0,0l0,0c0,0,0,0.2,0.2,0.2c0,0,0,0,0,0.2l0,0l0,0l0,0v0.2v0.2v0.2l0,0l0,0l0,0l0,0
							c0,0,0,0,0,0.2l0,0l0,0l0,0l0,0l0,0l0,0c0,0,0,0.2,0.2,0.2c0,0,0,0,0,0.2l0,0l0,0l0,0v0.2v0.2v0.2l0,0l0,0c0,0,0,0,0,0.2
							l0.2,0.2c0,0,0,0,0,0.2l0,0l0,0h0.2c0,0,0.2,0,0.2-0.2c0,0,0,0,0-0.2l0,0l0,0l0,0c0,0,0-0.2-0.2-0.2l0,0l0,0l0,0l0,0
							c0,0,0,0,0-0.2c0,0,0,0,0-0.2c0,0,0-0.2-0.2-0.2l0,0c0,0,0,0,0-0.2l0,0l0,0l0,0c0-0.2-0.2-0.2-0.2-0.4l0,0l0,0l0,0l0,0l0,0
							l0,0l0,0c0,0,0,0,0-0.2c0,0,0-0.2-0.2-0.2l0,0c0,0,0,0,0-0.2l0,0l0,0l0,0c0-0.2-0.2-0.2-0.2-0.4l0,0l0,0l0,0l0,0l0,0l0,0l0,0
							l0,0h-0.2C27.4,166.4,27.4,166.4,27.4,166.4z"/>
					</g>
				</g>
			</g>
		</g>
	</g>
	<g id="XMLID_770_">
		<g id="XMLID_771_">
			<g id="XMLID_772_">
				<path id="XMLID_776_" class="st5" d="M110.4,221.5c0,2.8-2.3,5.3-5.3,5.3c-2.8,0-5.3-2.3-5.3-5.3c0-2.8,2.3-5.3,5.3-5.3
					C107.9,216.2,110.4,218.7,110.4,221.5z"/>
			</g>
		</g>
	</g>
	<g id="XMLID_758_">
		<g id="XMLID_761_">
			<g id="XMLID_762_">
				<path id="XMLID_764_" class="st5" d="M169.6,217.7c2.1,2.1,2.1,5.3,0,7.4c-2.1,2.1-5.3,2.1-7.4,0c-2.1-2.1-2.1-5.3,0-7.4
					C164.4,215.9,167.6,215.9,169.6,217.7z"/>
			</g>
		</g>
	</g>
	<g id="XMLID_748_">
		<g id="XMLID_749_">
			<g id="XMLID_750_">
				<g id="XMLID_752_">
					<path id="XMLID_753_" class="st5" d="M184.9,210.8c-0.4,0.2-0.6,0.4-1.3,1.1c-0.2,0.2-0.6,0.6-0.9,0.8
						c-0.4,0.4-0.9,0.8-1.5,0.9c-0.8,0.4-1.3,0.6-2.1,0.8c-0.4,0.2-0.9,0.2-1.5,0.4c-1.5,0.4-3.2,0.4-4.9,0.4c-0.8,0-1.5,0-2.1,0
						c-0.8,0-1.5,0-2.1,0c-0.6,0-1.1,0-1.7,0c-1.5,0-3.2,0-4.7,0h-3.8h-2.1c-0.6,0-0.9,0-1.5,0h-0.9c-1.3,0-2.5,0-3.8,0
						c-1.5,0-2.8,0-4.3,0s-3,0-4.7,0c-0.2,0-0.2,0-0.4,0H140h-0.2c-0.4,0-0.9,0-1.5,0h-3h-0.9h-1.5c-0.8,0-1.5,0-2.1,0
						c-0.6,0-1.3,0-1.9,0c-0.4,0-0.8,0-0.9,0c-0.4,0-0.6,0-0.9,0c-1.5,0-3.2,0-4.7,0h-3.8h-2.1c-0.6,0-0.9,0-1.5,0H114
						c-1.3,0-2.5,0-3.8,0c-1.5,0-2.8,0-4.3,0s-3,0-4.7,0c-0.4,0-0.8,0-1.1,0s-0.9,0-1.5,0c-0.9,0-1.9,0-3,0c-1.9,0-3.8-0.2-5.3-0.8
						c-0.9-0.4-1.7-0.8-2.6-1.3c-0.4-0.2-0.6-0.4-0.8-0.8c-0.4-0.2-0.6-0.4-0.8-0.8c-0.4-0.4-0.8-0.6-0.9-0.4
						c-0.2,0.2,0,0.6,0.2,1.1c0.2,0.4,0.6,1.1,1.3,1.7c0.4,0.2,0.6,0.6,0.9,0.8c0.6,0.4,1.3,0.8,1.9,0.9c0.6,0.2,1.3,0.4,1.9,0.6
						c1.9,0.4,4,0.6,5.8,0.6c0.8,0,1.3,0,2.1,0s1.5,0,2.5,0h0.2c0.2,0,0.2,0,0.2,0c0.8,0,1.9,0,2.6,0h3c2.3,0,4.3,0,6.4,0h1.3h3.4
						c0.6,0,1.1,0,1.7,0c0.6,0,0.9,0,1.5,0c0.8,0,1.5,0,2.5,0c3.2,0,6.2,0,9.4,0c0.6,0,1.1,0,1.5,0c0.4,0,0.9,0,1.3,0
						c0.6,0,1.1,0,1.5,0c0.6,0,1.1,0,1.9,0h1.9c0.2,0,0.6,0,0.8,0c0.6,0,1.1,0,1.7,0h3c2.1,0,4.3,0,6.4,0h1.3h3.4c0.6,0,1.1,0,1.7,0
						c0.6,0,0.9,0,1.5,0c0.8,0,1.5,0,2.5,0c3.2,0,6.2,0,9.4,0c0.6,0,1.1,0,1.7-0.2c0.4,0,0.9-0.2,1.3-0.2c0.6,0,1.1-0.2,1.7-0.2
						c0.6-0.2,1.3-0.4,1.9-0.6c0.6-0.2,1.3-0.6,1.9-0.9c0.6-0.4,0.9-0.6,1.3-1.1c0.4-0.4,0.8-0.8,1.1-1.1c0.2-0.2,0.2-0.6,0.4-0.8
						c0.2-0.4,0.2-0.8,0-0.9C185.3,210.6,185.1,210.6,184.9,210.8z"/>
				</g>
			</g>
		</g>
	</g>
	<g id="XMLID_745_">
		<g id="XMLID_746_">
			<path id="XMLID_747_" class="st0" d="M121.3,27.4c2.5,0,4.5-2.1,4.5-4.5v-8.1c0-2.5-2.1-4.5-4.5-4.5s-4.5,2.1-4.5,4.5v8.1
				C116.8,25.3,118.9,27.4,121.3,27.4z"/>
		</g>
	</g>
	<g id="XMLID_741_">
		<g id="XMLID_743_">
			<path id="XMLID_744_" class="st5" d="M125.9,22.8v-8.1c0-2.5-2.1-4.5-4.5-4.5s-4.5,2.1-4.5,4.5l0,0l3,5.3L125.9,22.8z"/>
		</g>
	</g>
	<g id="XMLID_737_">
		<circle id="XMLID_739_" class="st6" cx="121.5" cy="0.8" r="0.8"/>
	</g>
	<g id="XMLID_729_">
		<g id="XMLID_731_">
			<path id="XMLID_734_" class="st0" d="M124,20.9c2.5-0.2,5.3-1.5,6.8-3.6c1.3-1.9,1.1-4.2,0.6-6.4c-0.4-2.1-1.1-4.5-2.5-6.2
				c-1.5-1.7-3.6-2.8-5.8-2.6c-4,0.2-7,3.6-6.8,7.5l0.2,4.5C116.6,18.1,120,21.1,124,20.9z"/>
		</g>
	</g>
	<g id="XMLID_692_">
		<g id="XMLID_693_">
			<path id="XMLID_702_" class="st0" d="M117.9,13.6c-0.4,0.2-0.8,0.2-1.1,0.2c-0.2,0-0.2,0-0.4,0.2c0,0-0.9,0.6-0.4-0.2
				c0,0,0.8,0,0.9,0s0.4,0,0.8,0h0.2c0.4-0.2,0.4,0,0.2,0.2c0.2-0.6,0.9-0.9,1.5-0.8s0.9,0.8,0.8,1.5c-0.2,1.3-1.7,1.5-2.8,1.7
				c-0.9,0-2.3,0-3-0.8c-0.8-0.8-0.6-2.1,0.2-3c0.4-0.4,0.8-0.8,1.3-0.8c0.6-0.2,1.1,0,1.5-0.2C118.7,10.9,119.3,13.2,117.9,13.6
				L117.9,13.6z"/>
		</g>
	</g>
	<g id="XMLID_686_">
		<path id="XMLID_687_" class="st5" d="M129.5,7.4c-3,0.2-6.2-0.2-9.4-0.2c0.2,1.1,0.6,2.6-0.2,3.4c-0.8,0.9-2.6,1.1-3.8,1.1
			c0,0-2.6-10.9,5.7-10.9c7.4,0,8.5,6.4,8.5,6.4L129.5,7.4z"/>
	</g>
	<g id="XMLID_609_">
		<g id="XMLID_675_">
			<g id="XMLID_683_">
				<path id="XMLID_684_" class="st5" d="M126.6,14C126.6,14,126.8,14,126.6,14C126.8,14,126.8,14,126.6,14h0.2c0,0,0,0,0.2,0l0,0
					h0.2h0.2l0,0l0,0h0.2c0,0,0,0,0.2,0l0,0l0,0l0,0c0,0,0,0,0-0.2v-0.2v-0.2l0,0l0,0l0,0l0,0v-0.2l0,0l0,0V13c0,0,0,0,0-0.2l0,0
					l0,0v-0.2v-0.2v-0.2l0,0l0,0v-0.2v-0.2v-0.2l0,0l0,0v-0.2v-0.2v-0.2l0,0l0,0c0,0,0,0,0.2,0c0,0,0,0,0.2,0l0,0l0,0c0,0,0,0,0,0.2
					c0,0.2,0,0,0,0.2v0.2c0,0,0,0,0,0.2s0,0,0,0.2l0,0l0,0c0,0,0,0,0,0.2v0.2c0,0.2,0,0.2,0,0.2l0,0v0.2l0,0l0,0c0,0,0,0,0,0.2
					s0,0.2,0,0.4l0,0l0,0l0,0c0,0,0,0,0,0.2v0.2l0,0c0,0,0,0,0,0.2v0.2c0,0.2,0,0.2-0.2,0.4l0,0c0,0,0,0.2-0.2,0.2l0,0l0,0
					c0,0,0,0-0.2,0s-0.4,0-0.6,0l0,0l0,0l0,0c0,0,0,0-0.2,0h-0.2l0,0l0,0l0,0C126.6,14.2,126.6,14.2,126.6,14
					C126.6,14.2,126.6,14,126.6,14z"/>
			</g>
		</g>
		<g id="XMLID_626_">
			<g id="XMLID_628_">
				<path id="XMLID_643_" class="st5" d="M115.1,13.6C115.1,13.6,114.9,13.6,115.1,13.6C114.9,13.6,114.9,13.6,115.1,13.6
					L115.1,13.6c0-0.2,0-0.2,0-0.2l0,0c0,0,0,0,0.2-0.2l0,0l0,0l0,0c0,0,0,0,0.2,0c0,0,0,0,0.2,0l0,0l0,0l0,0c0,0,0,0,0.2,0
					c0,0,0,0,0.2,0s0,0,0.2,0l0,0l0,0l0,0l0,0l0,0l0,0l0,0l0,0l0,0l0,0l0,0c0,0,0,0,0.2,0l0,0l0,0l0,0l0,0l0,0c0,0,0,0,0,0.2
					s0,0,0,0.2l0,0l0,0l0,0v0.2l0,0l0,0l0,0c0,0,0,0-0.2,0c0,0,0,0-0.2,0l0,0l0,0l0,0l0,0c0,0,0,0,0-0.2l0,0l0,0l0,0l0,0l0,0l0,0
					c0,0,0,0,0-0.2l0,0l0,0l0,0l0,0l0,0h-0.2l0,0l0,0l0,0l0,0l0,0l0,0l0,0l0,0c0,0,0,0-0.2,0l0,0l0,0l0,0l0,0l0,0h-0.2l0,0l0,0l0,0
					l0,0l0,0l0,0l0,0C115.3,13.8,115.3,13.6,115.1,13.6L115.1,13.6L115.1,13.6z"/>
			</g>
		</g>
		<g id="XMLID_623_">
			<g id="XMLID_624_">
				<path id="XMLID_625_" class="st5" d="M115.5,14.5C115.3,14.5,115.3,14.5,115.5,14.5C115.3,14.5,115.3,14.5,115.5,14.5
					L115.5,14.5c-0.2-0.2-0.2-0.2-0.2-0.2l0,0c0,0,0,0,0-0.2l0,0l0,0l0,0l0,0l0,0l0,0l0,0l0,0l0,0l0,0c0,0,0,0,0.2,0l0,0l0,0l0,0
					l0,0l0,0l0,0l0,0l0,0l0,0l0,0l0,0c0,0,0,0,0.2,0c0,0,0,0,0.2,0l0,0l0,0l0,0c0,0,0,0,0.2,0c0,0,0,0,0.2,0c0,0,0,0,0.2,0l0,0l0,0
					l0,0c0,0,0,0,0.2,0l0,0l0,0l0,0c0,0,0,0,0,0.2c0,0,0,0-0.2,0l0,0l0,0l0,0l0,0l0,0l0,0l0,0l0,0l0,0l0,0l0,0c0,0,0,0-0.2,0l0,0
					l0,0l0,0l0,0l0,0h-0.2l0,0l0,0l0,0l0,0l0,0l0,0l0,0l0,0l0,0l0,0l0,0l0,0l0,0l0,0c0,0,0,0,0,0.2l0,0l0,0l0,0l0,0l0,0l0,0l0,0
					H115.5L115.5,14.5L115.5,14.5z"/>
			</g>
		</g>
		<g id="XMLID_620_">
			<g id="XMLID_621_">
				<path id="XMLID_622_" class="st5" d="M125.7,14.9L125.7,14.9C125.9,14.9,125.9,14.9,125.7,14.9L125.7,14.9
					C125.9,14.9,125.9,14.9,125.7,14.9c0.2,0.2,0.2,0.2,0.2,0.2l0,0l0,0l0,0l0,0l0,0l0,0l0,0l0,0l0,0l0,0l0,0l0,0l0,0l0,0l0,0l0,0
					l0,0l0,0l0,0l0,0l0,0l0,0l0,0l0,0l0,0l0,0l0,0l0,0l0,0l0,0c0,0,0,0,0.2,0l0,0l0,0l0,0c0,0,0,0,0.2,0l0,0l0,0l0,0c0,0,0,0,0,0.2
					s0,0,0,0.2l0,0l0,0l0,0l0,0h-0.2l0,0l0,0l0,0l0,0l0,0l0,0h-0.2l0,0l0,0l0,0l0,0l0,0h-0.2l0,0l0,0l0,0l0,0l0,0l0,0l0,0l0,0
					c0,0-0.2,0-0.2-0.2l0,0l0,0l0,0l0,0l0,0l-0.2-0.2l0,0l0,0l0,0C125.7,15.1,125.7,15.1,125.7,14.9L125.7,14.9
					C125.7,15.1,125.7,15.1,125.7,14.9L125.7,14.9L125.7,14.9L125.7,14.9L125.7,14.9z"/>
			</g>
		</g>
		<g id="XMLID_618_">
			<path id="XMLID_619_" class="st5" d="M124.9,12.3L124.9,12.3c0.2,0,0.4-0.2,0.4-0.4v-0.2c0-0.2-0.2-0.4-0.4-0.4s-0.4,0.2-0.4,0.4
				v0.2C124.5,12.1,124.7,12.3,124.9,12.3z"/>
		</g>
		<g id="XMLID_616_">
			<path id="XMLID_617_" class="st5" d="M129.3,11.9L129.3,11.9c0.2,0,0.4-0.2,0.4-0.4v-0.2c0-0.2-0.2-0.4-0.4-0.4
				c-0.2,0-0.4,0.2-0.4,0.4v0.2C128.9,11.7,129.1,11.9,129.3,11.9z"/>
		</g>
		<g id="XMLID_613_">
			<g id="XMLID_614_">
				<path id="XMLID_615_" class="st5" d="M124,10.4C123.8,10.4,123.8,10.4,124,10.4C123.8,10.4,123.8,10.4,124,10.4L124,10.4
					C124,10.4,124,10.2,124,10.4C124,10.2,124,10.2,124,10.4c0-0.2,0.2-0.2,0.2-0.2l0,0l0,0l0,0c0,0,0,0,0.2,0l0,0l0,0l0,0l0,0l0,0
					l0,0c0,0,0,0,0.2,0l0,0l0,0l0,0l0,0l0,0l0,0l0,0l0,0l0,0l0,0l0,0c0,0,0,0,0.2,0l0,0l0,0l0,0l0,0l0,0l0,0c0,0,0,0,0.2,0l0,0l0,0
					l0,0c0,0,0,0,0.2,0l0,0l0,0l0,0c0,0,0,0,0,0.2c0,0,0,0,0,0.2s0,0,0,0l0,0l0,0l0,0c0,0,0,0-0.2,0l0,0l0,0l0,0l0,0l0,0l0,0
					c0,0,0,0-0.2,0l0,0l0,0l0,0l0,0l0,0h-0.2l0,0l0,0l0,0l0,0l0,0l0,0l0,0l0,0c0,0,0,0-0.2,0l0,0l0,0l0,0l0,0l0,0h-0.2l0,0l0,0l0,0
					l0,0l0,0l0,0l0,0C124.2,10.6,124.2,10.6,124,10.4C124,10.6,124,10.6,124,10.4C124,10.6,124,10.4,124,10.4z"/>
			</g>
		</g>
		<g id="XMLID_610_">
			<g id="XMLID_611_">
				<path id="XMLID_612_" class="st5" d="M130,10.2L130,10.2C129.8,10.2,129.8,10.2,130,10.2L130,10.2
					C129.8,10.2,129.8,10.2,130,10.2L130,10.2c-0.2,0-0.2,0-0.2,0l0,0l0,0l0,0l0,0l0,0l0,0l0,0l0,0l0,0l0,0l0,0l0,0l0,0l0,0l0,0l0,0
					l0,0l0,0l0,0l0,0l0,0l0,0l0,0l0,0l0,0l0,0l0,0l0,0l0,0l0,0l0,0l0,0l0,0c0,0,0,0-0.2,0l0,0l0,0l0,0c0,0,0,0,0-0.2
					c0-0.2,0,0,0-0.2s0,0,0,0l0,0l0,0l0,0c0,0,0,0,0.2,0l0,0l0,0l0,0l0,0l0,0l0,0c0,0,0,0,0.2,0l0,0l0,0l0,0l0,0l0,0h0.2l0,0l0,0
					l0,0l0,0l0,0l0,0l0,0l0,0c0,0,0,0,0.2,0l0,0l0,0l0,0l0,0l0,0h0.2l0,0l0,0l0,0l0,0l0,0l0,0C130.2,10,130.2,10,130,10.2
					C130.2,10,130.2,10,130,10.2C130,10,130,10.2,130,10.2L130,10.2z"/>
			</g>
		</g>
	</g>
	<g id="XMLID_607_">
		<path id="XMLID_608_" class="st6" d="M130.2,7.2l-14.5,1.3c0,0-1.1-7.2,5.3-7.9C129.3-0.4,130.2,7.2,130.2,7.2z"/>
	</g>
	<g id="XMLID_603_">
		<g id="XMLID_604_">
			<path id="XMLID_606_" class="st6" d="M109.8,9.6C110,9.6,110,9.6,109.8,9.6l20.4-2.1c0.2,0,0.4-0.2,0.4-0.4
				c0-0.2-0.2-0.4-0.4-0.4l-20.4,2.1c-0.2,0-0.4,0.2-0.4,0.4C109.6,9.4,109.6,9.6,109.8,9.6z"/>
		</g>
	</g>
	<g id="XMLID_599_">
		<g id="XMLID_600_">
			<g id="XMLID_601_">
				<path id="XMLID_602_" class="st4" d="M106.4,221.5c0,0.8-0.6,1.3-1.3,1.3s-1.3-0.6-1.3-1.3s0.6-1.3,1.3-1.3
					S106.4,220.8,106.4,221.5z"/>
			</g>
		</g>
	</g>
	<g id="XMLID_594_">
		<g id="XMLID_595_">
			<g id="XMLID_596_">
				<path id="XMLID_597_" class="st4" d="M167.2,221.5c0,0.8-0.6,1.3-1.3,1.3c-0.8,0-1.3-0.6-1.3-1.3s0.6-1.3,1.3-1.3
					C166.6,220.2,167.2,220.8,167.2,221.5z"/>
			</g>
		</g>
	</g>
</g>
</svg>
