<?xml version="1.0" encoding="utf-8"?>
<!-- Generator: Adobe Illustrator 22.1.0, SVG Export Plug-In . SVG Version: 6.00 Build 0)  -->
<svg version="1.1" id="Capa_1" xmlns="http://www.w3.org/2000/svg" xmlns:xlink="http://www.w3.org/1999/xlink" x="0px" y="0px"
	 viewBox="0 0 226.8 104.5" style="enable-background:new 0 0 226.8 104.5;" xml:space="preserve">
<style type="text/css">
	.st0{fill:#236AD8;}
	.st1{fill:#FFFFFF;}
	.st2{fill:#3EA9E8;}
	.st3{fill:#E6E6E6;}
	.st4{fill:none;}
</style>
<g>
	<g>
		<path class="st0" d="M1.1,44.4c0.1-2,2.7-2.2,3.3-0.5c2.1,6.2,6.3,10.6,9.2,13.1c3.6-6.6,12.2-10,39.1-10.5
			c8.2-0.1,15.7-4.5,20-11.4c0.1-0.2,0.4-0.5,0.5-0.7c-2.2-5.2-6.4-9.5-11.8-11.6c-5.4-2.2-3.1-11.1,2.5-8.9
			c6.7,2.7,12,7.2,15.6,12.9c2.2-4.6,5.9-8.3,10.6-10.8c5.3-2.7,10,5.3,4.7,7.9c-3.6,1.9-6.2,4.6-7.5,7.8l38.1,2.2
			c0,0,4.6,22.6-33.1,23.7c-4.7,0.1-8.5,3.5-9.2,8.2l-1.5,11.1l5.2,17.2h-9.4l-2.2-13.2l-5.6,0.5v12.9h-9.4V80.9l-21.9,0.9l5.2,12.5
			H32.4l-3.5-9.9l-5.6,9.9H11.7l2.8-4.8c2.7-4.6,2.4-10.3-0.6-14.7c-1.6-2.5-2.8-5.7-2.6-9.5l0,0C2.6,57.9,0.9,50.1,1.1,44.4z"/>
		<g>
			<g>
				<g>
					<path class="st1" d="M124.3,42.8l0.6-1.1c-4.9-2.6-6.6-5.9-7.2-8.3l-1.2,0.2C117.1,36.2,119,39.9,124.3,42.8z"/>
				</g>
			</g>
			<g>
				<g>
					<path class="st1" d="M43.5,60c1.6,0,3.1-0.7,4.5-2c1.4-1.4,2.2-3.1,2.8-4.6c0.9-2.1,1.6-4.5,2.1-6.8l-1.2-0.2
						c-0.5,2.2-1.2,4.5-2.1,6.6c-0.6,1.4-1.4,3-2.6,4.2c-1.2,1.1-2.8,1.7-4.2,1.5c-1.9-0.4-3.1-1.9-4.3-3.6c-1.1-1.5-2.4-3-4.1-3.8
						c-2.1-1-4.3-0.6-6.6-0.2c-2,0.4-4,0.6-5.7,0c-0.4-0.1-0.7-0.4-1.2-0.7l-0.7,1c0.5,0.4,1,0.7,1.5,0.9c2.1,0.7,4.2,0.5,6.3,0.1
						c2.1-0.4,4.1-0.7,5.8,0.1c1.5,0.6,2.5,2,3.6,3.5c1.4,1.7,2.8,3.6,5.2,4.1C43,60,43.3,60,43.5,60z"/>
				</g>
			</g>
			<g>
				<g>
					<path class="st1" d="M3.7,48.5c0.9,0,1.6,0,2.5-0.1l-0.1-1.2c-1.6,0.2-3.2,0.1-4.7,0l-0.1,1.2C2,48.3,2.8,48.5,3.7,48.5z"/>
				</g>
			</g>
		</g>
		<g>
			<g>
				<path class="st1" d="M71.6,53.2c3.8,6.8,8.9,10.3,11.5,12.6c0.9,0.9-0.7,2.2-0.7,2.2c-4.2-0.5-16.8-20.4-19-24.2
					c-0.6-1,1.7-1.6,2.5-0.6L71.6,53.2z"/>
			</g>
		</g>
		<g>
			<g id="XMLID_116_">
				<path id="XMLID_117_" class="st1" d="M85.5,37.9L85.5,37.9c0.5-0.1,0.9-0.6,0.7-1l-0.1-0.4c-0.1-0.5-0.6-0.9-1-0.7
					c-0.5,0.1-0.7,0.6-0.7,1l0.1,0.4C84.5,37.7,85,38.1,85.5,37.9z"/>
			</g>
			<g id="XMLID_114_">
				<path id="XMLID_115_" class="st1" d="M94.7,36.1C94.7,36.1,94.9,36.1,94.7,36.1c0.5-0.1,0.9-0.6,0.7-1l-0.1-0.4
					c-0.1-0.5-0.6-0.9-1-0.7c-0.5,0.1-0.7,0.6-0.7,1l0.1,0.4C93.9,35.8,94.4,36.1,94.7,36.1z"/>
			</g>
		</g>
	</g>
	<g>
		<g>
			<g>
				<g>
					<path class="st2" d="M212.5,15.4c-5.4-4.9-12-5.6-16.9-4c-3.6,1.1-6.1,5.3-5.7,9.6c0.1,1.5,0.6,3,1.4,4.2
						c0.4,0.7,1,1.4,1.6,1.9c1.9,1.7,4.5,2.8,7.8,3.3c1.6,0.2,3.1-0.9,3.3-2.5c0.2-1.6-0.9-3.1-2.5-3.3c-0.1,0-0.2,0-0.4,0
						c-2.4-0.4-5.1-1.4-5.3-4c-0.1-1.7,1-3.3,1.6-3.6c2.2-0.7,9.6-2.1,15.2,8c4.9,9-3.1,20-3.2,20.2c-1,1.4-0.7,3.1,0.6,4.1
						c0.5,0.4,1.1,0.6,1.7,0.6c0.9,0,1.7-0.4,2.4-1.1c0.4-0.4,6.1-8.2,6.1-17.2c0-3-0.6-6.2-2.4-9.3S214.4,17.2,212.5,15.4z"/>
				</g>
			</g>
		</g>
		<g>
			<g>
				<g>
					<path class="st2" d="M205.7,69.4L188.4,69c0,0,4.5,20,13.6,18.2l-3.6,5.6c0,0-4.7-0.2-6.1,3.1l9.9-0.4l5.2-7.1
						c1.2-1.6,1.6-3.7,1.2-5.7L205.7,69.4z"/>
				</g>
			</g>
		</g>
		<g>
			<g>
				<path class="st2" d="M137.3,64.9c-2.7,3-0.9,12.9-0.9,12.9s5.1,0,5.4-6.2l15.5-1.5l-7.2-9.9C150.3,60.2,140.2,61.9,137.3,64.9z"
					/>
			</g>
		</g>
		<g>
			<g>
				<path class="st2" d="M220.5,65.3c-1.1,0-2.6,0.2-4.1,0.9c0,0,1.5-7.1-0.4-14.1c-1-4.2-3.1-8.3-7.2-11.1
					c-1.2-0.9-2.6-1.7-3.8-2.4c-2.8-1.6-5.8-2.7-8.7-3.5c-6.3-1.6-13-1.2-19.2,0.9c-2,0.7-4,1.5-5.8,2.6l-0.9,0.5c0,0,0-7.1,0-7.4
					c0-0.5,0-0.9-0.1-1.4c-0.2-1.7-0.9-3.3-2-4.7c0.1-1.6,0-4.3-1.2-8c0,0-2.6,0.6-4.8,3.3c-2.1-0.9-4.6-1.5-7.2-1.5
					c0,0-3.7,0.2-5.3,0.7c-2.4-4.3-6.3-5.3-6.3-5.3c-2,5.8-1.4,9.5-1.2,10.1l0,0c-1.2,1.6-1.7,3.1-2.7,6.7c-1,3.6-1.1,8.7,0.9,14
					c2,5.3,13.5,23.1,14.7,31c0,0,0,0.1,0,0.2c1.1,7.8-0.2,13.2-0.7,13.5c-0.5,0.2-4.8-0.1-5.4,5.3h8.9c0,0,3-3.8,6.1-9
					c2.6-4.5,5.3-9.8,6.6-14.8c0,0,18.6,2.4,27,0c0,0,6.7,8.3,13.5,6.2c1.4-0.4,2.6-1.1,4-2.4c0.9-0.7,2-1,3-0.6
					c0,0-7.2,12.4,0.9,13.4c0,0,3.6-8.8,4.5-12.7c0.5-2.2,0.6-5.2,0.6-7.3C223.8,66.8,222.3,65.3,220.5,65.3z"/>
			</g>
		</g>
		<g>
			<path class="st1" d="M139,36.9c-0.9,7.8,4,13.7,4,13.7l16.3-4.7C142.8,48.6,139,36.9,139,36.9z"/>
		</g>
		<g id="XMLID_1384_">
			<g id="XMLID_1385_">
				<path id="XMLID_1386_" class="st1" d="M149.7,29.2c-0.1-0.1-0.1-0.1-0.1-0.1l0,0l0,0c0,0,0,0-0.1,0l0,0h-0.1l0,0l0,0l0,0
					c0,0-0.1,0-0.1,0.1h-0.1l0,0l0,0l0,0H149h-0.1h-0.1l0,0l0,0l0,0l0,0h-0.1l0,0l0,0l0,0l0,0l0,0l0,0h-0.1h-0.1l0,0l0,0l0,0
					c0,0,0,0-0.1-0.1c0,0-0.1,0-0.1-0.1c0,0-0.1,0-0.1-0.1l0,0l0,0v-0.1c0,0-0.1,0-0.1-0.1c0,0,0,0,0-0.1l0,0c0,0,0,0-0.1,0
					c0,0-0.1,0-0.2,0.1c-0.1,0-0.1,0.1-0.1,0.1v0.1l0,0c0,0,0,0,0,0.1l0,0c0,0.1,0.1,0.1,0.2,0.1c0,0,0,0,0,0.1c0,0,0,0,0.1,0l0,0
					l0,0c0,0,0,0,0.1,0.1c0.1,0.1,0.1,0,0.1,0.1c0.1,0,0.1,0.1,0.2,0.1l0,0h0.1l0,0l0,0c0,0,0,0,0.1,0c0.1,0,0.2,0,0.5,0.1l0,0l0,0
					l0,0c0,0,0,0,0.1,0h0.1l0,0c0,0,0,0,0.1,0h0.1c0.1,0,0.2,0,0.2,0l0,0h0.1l0,0l0,0h0.1c0.1,0,0.2-0.1,0.4-0.1l0,0l0,0l0,0
					c0,0,0,0,0.1,0l0,0l0,0l0,0c0,0,0,0,0-0.1c0,0,0-0.1-0.1-0.1C149.7,29.3,149.7,29.2,149.7,29.2z"/>
			</g>
		</g>
		<g id="XMLID_1381_">
			<g id="XMLID_1382_">
				<path id="XMLID_1383_" class="st1" d="M159.5,29.7c-0.1-0.1-0.1-0.1-0.1-0.1l0,0l0,0c0,0,0,0-0.1,0l0,0h-0.1l0,0l0,0l0,0
					c0,0-0.1,0-0.1,0.1h-0.1l0,0l0,0l0,0h-0.1h-0.1h-0.1l0,0l0,0l0,0l0,0h-0.1l0,0l0,0l0,0l0,0l0,0l0,0h-0.1h-0.1l0,0l0,0l0,0
					c0,0,0,0-0.1-0.1c0,0-0.1,0-0.1-0.1c0,0-0.1,0-0.1-0.1l0,0l0,0v-0.1c0,0-0.1,0-0.1-0.1c0,0,0,0,0-0.1l0,0c0,0,0,0-0.1,0
					c0,0-0.1,0-0.2,0.1c-0.1,0-0.1,0.1-0.1,0.1v0.1l0,0c0,0,0,0,0,0.1l0,0c0,0.1,0.1,0.1,0.2,0.1c0,0,0,0,0,0.1c0,0,0,0,0.1,0l0,0
					l0,0c0,0,0,0,0.1,0.1c0,0,0.1,0,0.1,0.1c0.1,0,0.1,0.1,0.2,0.1l0,0h0.1l0,0l0,0c0,0,0,0,0.1,0s0.2,0,0.5,0.1l0,0l0,0l0,0
					c0,0,0,0,0.1,0h0.1l0,0c0,0,0,0,0.1,0h0.1c0.1,0,0.2,0,0.2,0l0,0h0.1l0,0l0,0h0.1c0.1,0,0.2-0.1,0.4-0.1l0,0l0,0l0,0
					c0,0,0,0,0.1,0l0,0l0,0l0,0c0,0,0,0,0-0.1c0,0,0-0.1-0.1-0.1C159.6,29.7,159.6,29.7,159.5,29.7z"/>
			</g>
		</g>
		<g id="XMLID_1378_">
			<g id="XMLID_1379_">
				<path id="XMLID_1380_" class="st1" d="M154.4,36.2l-0.1-0.1l0,0l0,0c0,0,0,0-0.1,0l0,0c0,0-0.1,0-0.1,0.1l0,0l0,0l0,0
					c0,0-0.1,0-0.1,0.1h-0.1l0,0l0,0l0,0h-0.1h-0.1h-0.1l0,0l0,0l0,0l0,0h-0.1l0,0l0,0l0,0l0,0l0,0l0,0h-0.1h-0.1l0,0l0,0l0,0
					c0,0,0,0-0.1-0.1c0,0,0,0-0.1,0c0,0,0,0-0.1-0.1l0,0l0,0l0,0c0,0-0.1,0-0.1-0.1c0,0,0,0,0-0.1l0,0c0,0,0,0-0.1,0
					c0,0-0.1,0-0.2,0.1l-0.1,0.1v0.1l0,0l0,0l0,0c0,0.1,0.1,0.1,0.1,0.1l0,0c0,0,0,0,0.1,0l0,0l0,0c0,0,0,0,0,0.1c0,0,0,0,0.1,0
					s0.1,0.1,0.2,0.1l0,0h0.1l0,0l0,0c0,0,0,0,0.1,0c0.1,0,0.2,0,0.4,0l0,0l0,0l0,0l0,0h0.1l0,0l0,0h0.1c0.1,0,0.1,0,0.2,0l0,0h0.1
					l0,0l0,0c0,0,0,0,0.1,0c0.1,0,0.2-0.1,0.4-0.2l0,0l0,0l0,0l0,0l0,0l0,0l0,0C154.4,36.3,154.4,36.3,154.4,36.2c0,0,0-0.1-0.1-0.1
					C154.5,36.2,154.4,36.2,154.4,36.2z"/>
			</g>
		</g>
		<g id="XMLID_1376_">
			<path id="XMLID_1377_" class="st1" d="M152.9,35L152.9,35c-0.5,0-0.7-0.4-0.7-0.9v-0.4c0-0.4,0.4-0.7,0.9-0.7
				c0.4,0,0.7,0.4,0.7,0.9v0.4C153.7,34.7,153.3,35,152.9,35z"/>
		</g>
		<path class="st3" d="M218.1,75.2"/>
		<line class="st4" x1="218.9" y1="88.8" x2="218.9" y2="88.6"/>
		<path class="st3" d="M155.3,89.8c0.4-0.1,0.9-2,1-4.1c0.2-2.1,0.4-5.4-0.2-9.8c-0.7-5.1-9.9-21.6-9.9-21.6l-0.2,0.1
			c0,0,9,16.5,9.8,21.5c1.2,7.8-0.2,13.4-0.6,13.6"/>
		<path class="st3" d="M215,75.4c-2,2-4.3,2.8-6.8,2.7c-5.4-0.4-10.3-5.8-10.9-6.6c-8,2.2-26.8,0-26.8,0l-0.2-0.1v-0.1h0.1
			c0.1,0,18.6,2.4,27,0h0.1l0,0c0,0,5.1,6.2,10.6,6.4c2.4,0.1,4.6-0.7,6.6-2.6c0,0,0.1-0.1,0.2,0C215.1,75.3,215,75.4,215,75.4z"/>
		<g id="XMLID_1373_">
			<g id="XMLID_1374_">
				<path id="XMLID_1375_" class="st1" d="M134.4,31.8c0,0.1,0.1,0.1,0.2,0.1c0,0,0.1,0,0.2,0c0.1,0,0.2,0,0.4,0c0.1,0,0.2,0,0.4,0
					s0.1,0,0.2,0c0.2,0,0.5,0,0.9,0.1c0.1,0,0.2,0,0.4,0c0.1,0,0.2,0,0.4,0c0.1,0,0.1,0,0.2,0c0.2,0,0.5,0,0.7,0c0.2,0,0.4,0,0.6,0
					c0.1,0,0.2,0,0.4,0c0.1,0,0.1,0,0.2,0h0.1c0.2,0,0.4,0,0.6,0.1c0.2,0,0.5,0,0.7,0c0.2,0,0.5,0,0.7,0l0,0c0,0,0,0,0.1,0l0,0
					c0.1,0,0.1,0,0.2,0c0.1,0,0.4,0,0.5,0h0.1c0.1,0,0.1,0,0.2,0c0.1,0,0.2,0,0.4,0c0.1,0,0.2,0,0.2,0h0.1h0.1c0.2,0,0.5,0,0.7,0
					c0.2,0,0.4,0,0.6,0c0.1,0,0.2,0,0.4,0c0.1,0,0.1,0,0.2,0h0.1c0.2,0,0.4,0,0.6,0.1c0.2,0,0.5,0,0.7,0c0.2,0,0.5,0,0.7,0h0.1
					c0.1,0,0.1,0,0.2,0c0.1,0,0.4,0,0.5,0c0.2,0,0.6,0,0.9,0c0.1,0,0.4,0,0.5,0h0.1h0.1c0.1,0,0.1-0.1,0.1-0.1
					c0-0.1-0.1-0.1-0.1-0.2c0,0-0.1-0.1-0.4-0.1h-0.1c-0.1,0-0.2,0-0.4,0c-0.1,0-0.2,0-0.4,0c-0.4,0-0.6,0-1-0.1c-0.1,0-0.2,0-0.4,0
					c-0.1,0-0.2,0-0.4,0l0,0l0,0c-0.1,0-0.2,0-0.5,0c-0.1,0-0.4,0-0.5,0c-0.4,0-0.7,0-1.1-0.1c0,0-0.1,0-0.2,0c-0.1,0-0.4,0-0.5,0
					c-0.1,0-0.1,0-0.2,0c-0.1,0-0.1,0-0.2,0c-0.1,0-0.2,0-0.4,0c-0.5,0-1-0.1-1.6-0.1c-0.1,0-0.1,0-0.2,0c0,0-0.1,0-0.2,0
					c-0.1,0-0.1,0-0.2,0c-0.1,0-0.2,0-0.2,0c-0.1,0-0.2,0-0.4,0h-0.1c-0.1,0-0.2,0-0.2,0c-0.1,0-0.4,0-0.5,0c-0.4,0-0.7,0-1.1-0.1
					c0,0-0.1,0-0.2,0c-0.1,0-0.4,0-0.5,0c-0.1,0-0.1,0-0.2,0c-0.1,0-0.1,0-0.2,0c-0.1,0-0.2,0-0.4,0c-0.5,0-1-0.1-1.6-0.1
					c-0.1,0-0.1,0-0.2,0c0,0-0.1,0-0.2,0c-0.1,0-0.1,0-0.2,0s-0.2,0-0.2,0c-0.1,0-0.2,0-0.4,0c-0.1,0-0.1,0-0.2,0
					c-0.1,0-0.1,0-0.2,0h-0.1l-0.1,0.1C134.3,31.8,134.3,31.8,134.4,31.8z"/>
			</g>
		</g>
		<g id="XMLID_1370_">
			<g id="XMLID_1371_">
				<path id="XMLID_1372_" class="st1" d="M134.4,36.7c0.1,0.1,0.1,0.1,0.4,0.1c0,0,0.1,0,0.2,0s0.2,0,0.4,0c0.1,0,0.2,0,0.4,0
					c0.1,0,0.1,0,0.2,0c0.2,0,0.5,0,0.9,0c0.1,0,0.2,0,0.4,0s0.2,0,0.4,0s0.1,0,0.2,0c0.2,0,0.5,0,0.7-0.1c0.2,0,0.4,0,0.6-0.1
					c0.1,0,0.2,0,0.4,0s0.1,0,0.2,0h0.1c0.2,0,0.4,0,0.6,0c0.2,0,0.5,0,0.7-0.1c0.2,0,0.5,0,0.7-0.1l0,0c0,0,0,0,0.1,0l0,0
					c0.1,0,0.1,0,0.2,0c0.1,0,0.4,0,0.5,0h0.1c0.1,0,0.1,0,0.2,0c0.1,0,0.2,0,0.4,0c0.1,0,0.2,0,0.2,0h0.1h0.1c0.2,0,0.5,0,0.7-0.1
					c0.2,0,0.4,0,0.6-0.1c0.1,0,0.2,0,0.4,0s0.1,0,0.2,0h0.1c0.2,0,0.4,0,0.6,0c0.2,0,0.5,0,0.7-0.1c0.2,0,0.5,0,0.7-0.1h0.1
					c0.1,0,0.1,0,0.2,0c0.1,0,0.4,0,0.5,0c0.2,0,0.6-0.1,0.9-0.1c0.1,0,0.4,0,0.5,0h0.1c0,0,0.1,0,0.1-0.1c0.1,0,0.1-0.1,0.1-0.2
					s-0.1-0.1-0.2-0.1c-0.1,0-0.2,0-0.4,0h-0.1c-0.1,0-0.2,0-0.4,0c-0.1,0-0.2,0-0.4,0c-0.4,0-0.6,0-1,0.1c-0.1,0-0.2,0-0.4,0
					c-0.1,0-0.2,0-0.4,0l0,0l0,0c-0.1,0-0.4,0-0.5,0s-0.4,0-0.5,0c-0.4,0-0.7,0.1-1.1,0.1c0,0-0.1,0-0.2,0c-0.1,0-0.4,0-0.5,0
					c-0.1,0-0.1,0-0.2,0s-0.1,0-0.2,0c-0.1,0-0.2,0-0.4,0c-0.5,0-1,0.1-1.6,0.1c-0.1,0-0.1,0-0.2,0c0,0-0.1,0-0.2,0
					c-0.1,0-0.1,0-0.2,0c-0.1,0-0.2,0-0.2,0c-0.1,0-0.2,0-0.4,0h-0.1c-0.1,0-0.2,0-0.2,0c-0.1,0-0.4,0-0.5,0c-0.4,0-0.7,0.1-1.1,0.1
					c0,0-0.1,0-0.2,0s-0.4,0-0.5,0s-0.1,0-0.2,0c-0.1,0-0.1,0-0.2,0c-0.1,0-0.2,0-0.4,0c-0.5,0-1,0.1-1.6,0.1c-0.1,0-0.1,0-0.2,0
					c0,0-0.1,0-0.2,0c-0.1,0-0.1,0-0.2,0c-0.1,0-0.2,0-0.2,0c-0.1,0-0.2,0-0.4,0c-0.1,0-0.1,0-0.2,0c0,0-0.1,0-0.2,0
					c0,0,0,0-0.1,0.1C134.4,36.6,134.4,36.6,134.4,36.7C134.4,36.6,134.4,36.6,134.4,36.7z"/>
			</g>
		</g>
		<g id="XMLID_1367_">
			<g id="XMLID_1368_">
				<path id="XMLID_1369_" class="st1" d="M171.6,37.4c0-0.1-0.1-0.1-0.2-0.2c0,0-0.1,0-0.2,0c-0.1,0-0.2,0-0.4,0s-0.2,0-0.4-0.1
					c-0.1,0-0.1,0-0.2,0c-0.2,0-0.5-0.1-0.9-0.1c-0.1,0-0.2,0-0.4,0c-0.1,0-0.2,0-0.4,0c-0.1,0-0.1,0-0.2,0c-0.2,0-0.5-0.1-0.7-0.1
					c-0.2,0-0.4,0-0.6-0.1c-0.1,0-0.2,0-0.4,0c-0.1,0-0.1,0-0.2,0h-0.1c-0.2,0-0.4-0.1-0.6-0.1s-0.5,0-0.7-0.1
					c-0.2,0-0.5-0.1-0.7-0.1l0,0c0,0,0,0-0.1,0l0,0c-0.1,0-0.1,0-0.2,0c-0.1,0-0.4,0-0.5-0.1h-0.1c-0.1,0-0.1,0-0.2,0
					c-0.1,0-0.2,0-0.4,0c-0.1,0-0.2,0-0.2,0h-0.1H162c-0.2,0-0.5-0.1-0.7-0.1c-0.2,0-0.4,0-0.6-0.1c-0.1,0-0.2,0-0.4,0
					c-0.1,0-0.1,0-0.2,0h-0.1c-0.2,0-0.4-0.1-0.6-0.1s-0.5,0-0.7-0.1c-0.2,0-0.5-0.1-0.7-0.1h-0.1c-0.1,0-0.1,0-0.2,0
					c-0.1,0-0.4,0-0.5-0.1c-0.2,0-0.6,0-0.9-0.1c-0.1,0-0.4,0-0.5-0.1h-0.1h-0.1c-0.1,0-0.1,0.1-0.1,0.1c0,0.1,0.1,0.1,0.1,0.2
					c0,0,0.1,0.1,0.2,0.1h0.1c0.1,0,0.2,0,0.4,0s0.2,0,0.4,0c0.2,0,0.6,0.1,1,0.1c0.1,0,0.2,0,0.4,0c0.1,0,0.2,0,0.4,0l0,0l0,0
					c0.1,0,0.2,0,0.5,0.1c0.1,0,0.4,0,0.5,0.1c0.4,0,0.7,0.1,1.1,0.1c0,0,0.1,0,0.2,0c0.1,0,0.4,0,0.5,0.1c0.1,0,0.1,0,0.2,0
					s0.1,0,0.2,0c0.1,0,0.2,0,0.4,0c0.5,0.1,1,0.1,1.6,0.2c0.1,0,0.1,0,0.2,0c0,0,0.1,0,0.2,0c0.1,0,0.1,0,0.2,0c0.1,0,0.2,0,0.2,0
					c0.1,0,0.2,0,0.4,0h0.1c0.1,0,0.2,0,0.2,0c0.1,0,0.4,0,0.5,0.1c0.4,0,0.7,0.1,1.1,0.1c0,0,0.1,0,0.2,0c0.1,0,0.4,0,0.5,0.1
					c0.1,0,0.1,0,0.2,0c0.1,0,0.1,0,0.2,0c0.1,0,0.2,0,0.4,0c0.5,0.1,1,0.1,1.6,0.2c0.1,0,0.1,0,0.2,0c0,0,0.1,0,0.2,0
					c0.1,0,0.1,0,0.2,0c0.1,0,0.2,0,0.2,0c0.1,0,0.2,0,0.4,0c0.1,0,0.1,0,0.2,0c0.1,0,0.1,0,0.2,0s0.1,0,0.1,0
					C171.5,37.6,171.5,37.6,171.6,37.4C171.6,37.6,171.6,37.6,171.6,37.4z"/>
			</g>
		</g>
		<g id="XMLID_1364_">
			<g id="XMLID_1365_">
				<path id="XMLID_1366_" class="st1" d="M171.7,32.6c-0.1-0.1-0.1-0.1-0.4-0.1c0,0-0.1,0-0.2,0c-0.1,0-0.2,0-0.4,0s-0.2,0-0.4,0
					s-0.1,0-0.2,0c-0.2,0-0.6,0-0.9,0c-0.1,0-0.2,0-0.4,0c-0.1,0-0.2,0-0.4,0c-0.1,0-0.1,0-0.2,0c-0.2,0-0.5,0-0.7,0
					c-0.2,0-0.4,0-0.6,0c-0.1,0-0.2,0-0.4,0c-0.1,0-0.1,0-0.2,0h-0.1c-0.2,0-0.4,0-0.6,0s-0.5,0-0.7,0c-0.2,0-0.5,0-0.7,0l0,0
					c0,0,0,0-0.1,0l0,0c-0.1,0-0.1,0-0.2,0c-0.1,0-0.4,0-0.5,0h-0.1c-0.1,0-0.1,0-0.2,0c-0.1,0-0.2,0-0.4,0c-0.1,0-0.2,0-0.2,0h-0.1
					H162c-0.2,0-0.5,0-0.7,0c-0.2,0-0.4,0-0.6,0c-0.1,0-0.2,0-0.4,0c-0.1,0-0.1,0-0.2,0h-0.1c-0.2,0-0.4,0-0.6,0s-0.5,0-0.7,0
					c-0.2,0-0.5,0-0.7,0h-0.1c-0.1,0-0.1,0-0.2,0c-0.1,0-0.4,0-0.5,0c-0.2,0-0.6,0.1-0.9,0c-0.1,0-0.4,0-0.5,0h-0.1
					c0,0-0.1,0-0.1,0.1c-0.1,0-0.1,0.1-0.1,0.2s0.1,0.1,0.2,0.1c0.1,0,0.2,0,0.4,0h0.1c0.1,0,0.2,0,0.4,0c0.1,0,0.2,0,0.4,0
					c0.4,0,0.6,0,1,0c0.1,0,0.2,0,0.4,0s0.2,0,0.4,0l0,0l0,0c0.1,0,0.4,0,0.5,0c0.1,0,0.4,0,0.5,0c0.4,0,0.7,0,1.1,0
					c0,0,0.1,0,0.2,0c0.1,0,0.4,0,0.5,0s0.1,0,0.2,0c0.1,0,0.1,0,0.2,0s0.2,0,0.4,0c0.5,0,1,0,1.6-0.1c0.1,0,0.1,0,0.2,0
					c0,0,0.1,0,0.2,0c0.1,0,0.1,0,0.2,0c0.1,0,0.2,0,0.2,0c0.1,0,0.2,0,0.4,0h0.1c0.1,0,0.2,0,0.2,0c0.1,0,0.4,0,0.5,0
					c0.4,0,0.7,0,1.1,0c0,0,0.1,0,0.2,0c0.1,0,0.4,0,0.5,0c0.1,0,0.1,0,0.2,0c0.1,0,0.1,0,0.2,0c0.1,0,0.2,0,0.4,0
					c0.5,0,1,0,1.6-0.1c0.1,0,0.1,0,0.2,0c0,0,0.1,0,0.2,0c0.1,0,0.1,0,0.2,0c0.1,0,0.2,0,0.2,0c0.1,0,0.2,0,0.4,0
					c0.1,0,0.1,0,0.2,0c0,0,0.1,0,0.2,0h0.1v-0.1C171.9,32.7,171.7,32.7,171.7,32.6z"/>
			</g>
		</g>
	</g>
</g>
</svg>
