<?xml version="1.0" encoding="utf-8"?>
<!-- Generator: Adobe Illustrator 22.1.0, SVG Export Plug-In . SVG Version: 6.00 Build 0)  -->
<svg version="1.1" id="Layer_1" xmlns="http://www.w3.org/2000/svg" xmlns:xlink="http://www.w3.org/1999/xlink" x="0px" y="0px"
	 viewBox="0 0 226.8 226.8" style="enable-background:new 0 0 226.8 226.8;" xml:space="preserve">
<style type="text/css">
	.st0{fill:#3EA9E8;}
	.st1{fill:#236AD8;}
	.st2{fill:#FFFFFF;}
	.st3{fill:#F8F8F8;}
	.st4{fill:#2C57FC;}
	.st5{fill:#4C7BFF;}
	.st6{fill:#F7C378;}
	.st7{fill:#F8E378;}
	.st8{fill:#F2CDAC;}
	.st9{fill:#D8AE8B;}
	.st10{fill:#3089E0;}
	.st11{fill:#252362;}
	.st12{fill:#072AC8;}
	.st13{fill:#F86057;}
	.st14{fill:#D1152C;}
	.st15{fill:#F34E5C;}
	.st16{fill:#E7DCE2;}
	.st17{fill:#F56B78;}
	.st18{fill:#3E3937;}
</style>
<g>
	<g>
		<g>
			<path class="st0" d="M112.4,112.4c-31.3,0.8-61.7,1-91.3,0.8c-7,34.2-14,68.4-21,102.7l226.8,2.5l-29.6-109.4
				C169.8,110.4,141.5,111.6,112.4,112.4z"/>
		</g>
		<path class="st1" d="M191.2,133.8c5,16.5-11.1,40.4-42.4,24.5c-31.2-15.9,3.3,18.5,3.3,18.5s7.7,30.5,0.4,31.1
			c-7.2,0.6-16.6-21.9-21.5-30.2c-4.9-8.3-40.9-12.3-55.7,9.5c-14.9,21.8-28.7,11.2-28.7,11.2l26-37.6l37-47.2L191.2,133.8z"/>
		<g>
			
				<rect x="-9.7" y="163.9" transform="matrix(0.1356 -0.9908 0.9908 0.1356 -125.5839 184.949)" class="st2" width="105.8" height="1.1"/>
		</g>
		<g>
			
				<rect x="37.3" y="163.9" transform="matrix(2.944883e-02 -0.9996 0.9996 2.944883e-02 -80.2286 246.2085)" class="st2" width="98.8" height="1.1"/>
		</g>
		<g>
			
				<rect x="134.2" y="115" transform="matrix(0.9983 -5.853561e-02 5.853561e-02 0.9983 -9.4846 8.1708)" class="st2" width="1.1" height="102"/>
		</g>
		<g>
			
				<rect x="176.3" y="108.4" transform="matrix(0.9828 -0.1847 0.1847 0.9828 -27.0667 35.4618)" class="st2" width="1.1" height="109.2"/>
		</g>
		<g>
			
				<rect x="110.9" y="81.7" transform="matrix(1.312634e-02 -0.9999 0.9999 1.312634e-02 -76.3154 295.2678)" class="st2" width="1.1" height="209.1"/>
		</g>
		<g>
			<rect x="15.7" y="143.7" class="st2" width="191.7" height="1.1"/>
		</g>
	</g>
	<g>
		<g>
			<path class="st3" d="M39.2,135.3c-7.2,0.4-13.8,1.3-19.4,2.5c-1.7,1.2-2.4,3.1-1.8,4.6c0.4,1.1,1.4,1.5,1.7,1.7
				c1.7-0.4,3.5-0.9,5.2-1.2c11.1-2.2,21.3-2.3,30.2-1.4c0.4-2.1,0.8-4.1,1.2-6.3C51.2,135.1,45.4,134.9,39.2,135.3z"/>
		</g>
		<g>
			<g>
				<path class="st4" d="M55.2,141.1c-0.1,0-0.2,0-0.3,0c0,0.1,0,0.2-0.1,0.3C54.8,141.3,54.9,141.2,55.2,141.1z"/>
				<path class="st4" d="M19.9,143.7c0,0-0.1,0-0.1-0.1h-0.1C19.6,143.7,19.8,143.7,19.9,143.7z"/>
				<path class="st4" d="M55.9,135.2c0,0.2-0.1,0.3-0.1,0.5c0.1,0,0.3,0,0.4,0C56.1,135.5,56,135.4,55.9,135.2z"/>
				<path class="st4" d="M56.2,134.9c-4.7-0.3-9.6-0.3-14.4-0.1c-5,0.2-9.9,0.6-14.9,1.3c-2.4,0.3-4.9,0.8-7.2,1.2
					c0.3,0,0.4,0.5,0.1,0.8l0,0c4.4-0.9,9-1.5,13.5-1.9c5.1-0.5,10-0.8,15.1-0.6c2.4,0,4.9,0.1,7.2,0.2c0-0.2,0.1-0.3,0.1-0.5
					c0.1,0.2,0.2,0.3,0.4,0.5c-0.1,0-0.3,0-0.4,0c-0.3,1.8-0.6,3.6-1,5.4c0.1,0,0.2,0,0.3,0c-0.1,0.1-0.2,0.2-0.4,0.3
					c0-0.1,0-0.2,0.1-0.3c-4.2-0.4-8.4-0.5-12.6-0.4c-4.7,0.1-9.5,0.5-14.2,1.3c-2.7,0.4-5.5,1-8.2,1.7c0,0,0.1,0,0.1,0.1
					c-0.1,0-0.2,0-0.3,0h0.1c-0.9-0.4-1.6-1.3-1.6-2.4c0-1.3,0.8-2.5,1.7-3.1c0,0,0,0-0.1,0c-0.4,0.1-0.6-0.4-0.4-0.6
					c-1,0.8-1.7,1.7-1.9,2.9c-0.2,1.2,0,2.4,0.9,3.2c0.3,0.3,0.8,0.6,1.2,0.8c0.3,0.1,0.6,0,1-0.1c0.4-0.1,0.8-0.2,1.2-0.3
					c1.6-0.4,3.3-0.8,5-1.1c6.3-1.1,12.6-1.6,18.9-1.6c3.2,0,6.4,0.2,9.6,0.5c0.2,0,0.3-0.1,0.4-0.3c0.4-2.1,0.8-4.1,1.2-6.3
					C56.7,135.2,56.6,134.9,56.2,134.9z"/>
				<path class="st4" d="M19.9,138.1L19.9,138.1C19.9,138.1,20,138.1,19.9,138.1c0.4-0.3,0.2-0.8,0-0.9c0,0-0.1,0-0.2,0
					c0,0,0,0-0.1,0l0,0l-0.1,0.1C19.2,137.8,19.4,138.2,19.9,138.1z"/>
				<path class="st4" d="M19.8,137.3c-0.1,0-0.1,0-0.2,0c0,0,0,0,0.1,0H19.8z"/>
				<path class="st4" d="M19.5,137.3c-0.1,0-0.1,0.1-0.2,0.1C19.4,137.4,19.4,137.4,19.5,137.3C19.5,137.4,19.5,137.3,19.5,137.3z"
					/>
			</g>
		</g>
	</g>
	<g>
		<g>
			<path class="st5" d="M56.2,108.5c-9.7,0-19.4,0-29.3,0c-3,10.1-6.2,20.2-9.2,30.3c12.8-2.3,25.9-2.8,38.9-1.8
				c0.5-4.3,1-9.4,0.9-15.1C57.4,116.9,56.9,112.4,56.2,108.5z"/>
		</g>
	</g>
	<polygon class="st4" points="17.8,138.8 31.6,113.2 56.2,108.5 27,108.5 	"/>
	<g>
		<g>
			<path class="st3" d="M42.5,125.6c-5.2,0.3-9.9,1-14,1.7c-1.2,0.9-1.7,2.3-1.3,3.3c0.3,0.8,1,1.1,1.3,1.2c1.2-0.3,2.5-0.5,3.8-0.9
				c8-1.5,15.4-1.6,21.8-1c0.3-1.5,0.5-3,0.9-4.5C51.2,125.3,47.1,125.3,42.5,125.6z"/>
		</g>
		<g>
			<g>
				<path class="st6" d="M28.6,131.7C28.6,131.6,28.5,131.6,28.6,131.7c-0.1,0-0.2,0-0.2,0C28.5,131.6,28.5,131.6,28.6,131.7z"/>
				<path class="st6" d="M54.6,125.4c0,0.1,0,0.2-0.1,0.3c0.1,0,0.2,0,0.3,0C54.7,125.8,54.7,125.7,54.6,125.4z"/>
				<path class="st6" d="M54.1,129.8c-0.1,0-0.1,0-0.2,0c0,0.1,0,0.1,0,0.2C53.9,129.9,54,129.9,54.1,129.8z"/>
				<path class="st6" d="M28.6,127.6L28.6,127.6L28.6,127.6c0.3-0.2,0.2-0.5,0-0.5h-0.1c0,0,0,0-0.1,0l0,0c0,0-0.1,0-0.1,0.1
					C28.2,127.3,28.3,127.7,28.6,127.6z"/>
				<path class="st6" d="M54.8,125.2c-7-0.4-14.1-0.1-21.2,0.9c-1.7,0.2-3.5,0.5-5.2,0.9c0.2,0,0.3,0.4,0.1,0.5l0,0
					c6.8-1.3,13.7-1.9,20.6-1.9c1.7,0,3.6,0.1,5.3,0.1c0-0.1,0-0.2,0.1-0.3c0.1,0.1,0.2,0.2,0.3,0.3c-0.1,0-0.2,0-0.3,0
					c-0.2,1.3-0.4,2.6-0.8,3.9c0.1,0,0.1,0,0.2,0c-0.1,0.1-0.2,0.1-0.3,0.2c0-0.1,0-0.1,0-0.2c-6.5-0.6-13-0.4-19.4,0.6
					c-1.9,0.3-4,0.8-5.9,1.2c0,0,0.1,0,0.1,0.1c-0.1,0-0.1,0-0.2,0h0.1c-0.6-0.3-1.2-1-1.2-1.7c0-1,0.5-1.7,1.3-2.3l0,0
					c-0.3,0.1-0.4-0.3-0.3-0.4c-1.3,1-2.2,2.9-0.9,4.3c0.2,0.2,0.5,0.4,0.9,0.6c0.4,0.2,0.9,0,1.3-0.1c1.2-0.3,2.4-0.5,3.6-0.8
					c4.6-0.9,9.3-1.3,13.9-1.2c2.4,0,4.7,0.1,7,0.3c0.1,0,0.2-0.1,0.3-0.2c0.3-1.5,0.5-3,0.9-4.5C55.2,125.4,55.1,125.3,54.8,125.2z
					"/>
				<path class="st6" d="M28.4,127.1C28.3,127.1,28.3,127.1,28.4,127.1C28.3,127.2,28.3,127.1,28.4,127.1L28.4,127.1z"/>
				<path class="st6" d="M28.5,127.1c-0.1,0-0.1,0-0.2,0c0,0,0,0,0.1,0C28.5,127.1,28.5,127.1,28.5,127.1z"/>
			</g>
		</g>
	</g>
	<g>
		<g>
			<path class="st7" d="M54.8,106.2c-7,0-14,0-21.2,0c-2.2,7.3-4.4,14.6-6.6,21.9c9.3-1.6,18.7-2.1,28.1-1.3
				c0.4-3.1,0.6-6.8,0.5-10.9C55.7,112.3,55.4,109,54.8,106.2z"/>
		</g>
	</g>
	<polygon class="st6" points="27.1,128.1 37,109.3 54.8,106.2 33.8,106.2 	"/>
	<g>
		<path class="st8" d="M61.5,172.8c0,0-7.1,14-13.8,17.9s-6.7,3.9-6.3,6.3c0.5,2.4,11.1,5.2,15.9,4.2c4.9-1,5.7-8.7,10.6-9.7
			s3.3-8.2,4.7-13.5C74.1,172.7,61.5,172.8,61.5,172.8z"/>
	</g>
	<g>
		<path class="st8" d="M154.7,180.9c0.3-4.9-7-5.5-11.7-8.3c-4.7-2.8-8.1,9.2-8.1,9.2s11.4,10.7,13.4,18.2c1.8,7.6,1.8,7.6,4.3,7.8
			c2.5,0.2,8.1-9.2,8.5-14.1C161.5,188.9,154.4,185.9,154.7,180.9z"/>
	</g>
	<path class="st9" d="M72.6,176.7l-12.1-2.3c-0.6,1.1-1.5,2.7-2.6,4.4l11.1,3.2c0,0-6.4,9.8-7.8,16.2c2.1-2.6,3.5-6.2,6.6-6.8
		c4.9-1,3.3-8.2,4.7-13.5C72.8,177.6,72.8,177.2,72.6,176.7z"/>
	<path class="st9" d="M154.7,180.9c0.3-3.8-4.1-5-8.3-6.7l-11.4,7.4c0,0.1-0.1,0.2-0.1,0.2s1.9,1.7,4.3,4.4l0,0l12-5.9
		c0,0,9.2,10,8.2,19.1l0,0c1-2.1,1.6-4.1,1.7-5.7C161.5,188.9,154.4,185.9,154.7,180.9z"/>
	<g>
		<path class="st10" d="M136.1,144.6l21.5,2.5c-0.1-11.8-0.1-23.4-0.2-35.2c-6.5-0.9-12.6-1.4-18.2-1.7c-8-0.4-15-0.3-20.8,0
			c-29.8,1.5-35.4,8.4-37.2,11.4c-1.8,3-2.3,6.2-2.4,7.3c-1.5,12.8,9.8,22.5,11.4,23.9c2.5,2.1,5,4.1,7.3,6.2
			c11.6,9.7,23.1,19.4,34.7,29.1c6.6-3.8,13.2-7.7,19.8-11.4c-11.6-11.4-23.2-23-34.8-34.4l2.7,0.3L136.1,144.6z"/>
	</g>
	<g>
		<path class="st11" d="M118.4,110.2c-29.8,1.5-35.4,8.4-37.2,11.4c-1.8,3-2.3,6.2-2.4,7.3c-1.5,12.8,9.8,22.5,11.4,23.9
			c2.5,2.1,5,4.1,7.3,6.2l11.2-19.4l11.2,3l16,1.8l20.6-17.5l-17.5-16.8C131.3,109.8,124.2,109.9,118.4,110.2z"/>
		<path class="st12" d="M139.4,109.9L139.4,109.9c-7-0.3-14-0.3-20.9,0c-12.8,0.6-22.7,2.4-29.1,5.2c-5.3,2.3-7.2,4.7-8.2,6.4
			c-1.9,3.2-2.3,6.4-2.5,7.4c-1.5,12.6,9.4,22.2,11.6,24.1c1.2,1.1,2.5,2.1,3.7,3.1s2.5,2.1,3.7,3.1l0.2,0.2l11.2-19.5l11,3
			l16.1,1.9h0.1l20.9-17.7L139.4,109.9L139.4,109.9z"/>
	</g>
	<g>
		<path class="st8" d="M157.8,51.1c-0.4-0.2-1.6-1-4.2-0.3c-2.9,0.6-5.5,2.6-7,5.2c-5,8.2-18.2,30.4-17.9,30.7l0,0
			c0.2,0.3-20.5,4.3-41.2,8.2c-2.8-0.3-5.4,1.6-5.7,4.4c-0.3,2.8,1.6,5.4,4.4,5.7c15.5,0.2,31,0.5,46.5,0.8l23.2-31.2
			C161.1,62.7,161.5,53.4,157.8,51.1z"/>
		<path class="st8" d="M128.9,86.2C128.9,86.2,128.9,86,128.9,86.2C128.9,86.2,129,86.2,128.9,86.2C129,86.2,129,86.2,128.9,86.2z"
			/>
	</g>
	<path class="st9" d="M132.6,105.7l19.6-26.3l-4.5-7.9L124,105.6C126.9,105.6,129.8,105.7,132.6,105.7z"/>
	<g>
		<path class="st13" d="M177.9,50.7c-13.4-3.5-25.3-1.6-26.2,1.7c-0.2,0.8-0.3,3.3-1.8,6.7c0,0.1-0.1,0.2-0.1,0.2s-1.3,3.1-1.9,7
			c-0.9,6,0.1,17.8,3.3,32.5c10.8,4.4,21.6,8.9,32.4,13.3c2.3-6.4,5.1-14.8,8.2-24.7c5.8-18.4,6.7-23.1,4.2-27.4
			C193,54.6,186.9,53,177.9,50.7z"/>
	</g>
	<path class="st14" d="M183.8,111.5c2.1-6,4.7-13.7,7.6-22.8c-2.9-10.1-5.7-19.9-5.7-19.9c-7.3,6.9-21.9,25-36.9,17.3
		c0.5,3.9,1.4,8.2,2.4,12.7c10.1,4.2,20.3,8.3,30.4,12.5C182.3,111.4,183.1,111.5,183.8,111.5z"/>
	<g>
		<path class="st1" d="M150.6,95.8l-13,18.9c2.3,3.3,8.3,11.6,19.4,16.1c15.8,6.5,30,0.9,32.9-0.4c-1.7-9.4-3.6-18.9-5.3-28.3
			L150.6,95.8z"/>
	</g>
	<g>
		<g>
			<path class="st15" d="M96.3,85.4l25.9,26.3c2.5-2.4,5-4.6,7.4-7C114.5,92.8,99.5,81,84.4,69.1C88.4,74.5,92.3,79.9,96.3,85.4z"/>
		</g>
		<g>
			<path class="st3" d="M92.2,67.5c4.7,9.3,5.3,19.1,5.3,19.1l27,25c5.2-5.1,1.8-12.8,1.8-12.8L92.2,67.5z"/>
		</g>
		<path class="st16" d="M98.9,73.6c-0.1,2.6-0.6,5.5-2.3,6.9l0,0c0.8,3.6,0.9,6,0.9,6l6.3,5.8l0.5-0.6l3-10.3L98.9,73.6z"/>
		<g>
			<path class="st3" d="M99.5,91.7l26.9,17.9l14.4-9.6l-36.2-32.4C105.6,74,99.5,91.7,99.5,91.7z"/>
		</g>
		<path class="st16" d="M111.8,74.1c0,0-3.9,2.6-8.3,3.1c-1.5,7-4.1,14.5-4.1,14.5l9.3,6.2l6.5-1.3l9.7-10.7L111.8,74.1z"/>
		<g>
			<polygon class="st17" points="94.3,87.6 121.6,113.6 126.1,110.9 97.9,83.6 			"/>
		</g>
		<g>
			<polygon class="st17" points="97.9,83.6 126.1,110.9 159.7,100.8 134.4,71.5 			"/>
		</g>
		<polygon class="st15" points="97.9,83.6 127.4,101.8 159.7,100.8 126.1,110.9 		"/>
	</g>
	<g>
		<path class="st10" d="M103.3,92c0,0-9.4,2.3-12.7,2.5c-3.2,0.3-36.2,83.1-36.2,83.1c8.1,1.5,16.3,3.1,24.4,4.6
			c10.3-19.6,20.5-39.3,30.8-58.9c12,11.3,23.1,18.8,31.1,23.4c21.3,12.5,29.3,11.1,31.7,10.5c1.7-0.4,12.5-3.1,17.1-13.7
			c4-9.2,0.1-17.9-0.6-19.6C160.3,113.4,131.8,102.7,103.3,92z"/>
	</g>
	<g>
		<polygon class="st2" points="167.5,136.5 159.3,141.1 158.1,150.6 173.9,157.1 174.1,156.6 158.8,150.3 159.9,141.5 167.6,137 
			190.5,140.8 190.5,140.2 167.6,136.5 		"/>
	</g>
	<g>
		<path class="st2" d="M67.3,156.3l0.9,0.5c4.4-7.1,11.9-28.2,12.2-29l-1-0.3C79.2,127.7,71.7,149.3,67.3,156.3z"/>
	</g>
	<g>
		<path class="st2" d="M139.3,110.8c0.2,0.1,27.1,8.4,34.1,13.2l0.5-0.9c-7.2-4.7-33.2-13-34.3-13.3L139.3,110.8z"/>
	</g>
	<g>
		<path class="st2" d="M148,128.1c-0.4,0-1.8,0.2-3.1,0.5c-0.4-0.3-1-0.8-1.5-1.2c-2.3-1.7-4.7-3.3-4.7-3.3l-0.5,0.9
			c1.9,1.3,4,2.8,5.6,4c-0.8,0.3-1.3,0.8-1.4,1.3c-0.1,0.9,0.9,1.5,3.2,2.2c0.4,0.1,1,0.2,1.3,0.2c0.4,0,0.8-0.1,0.9-0.4
			c0.2-0.4,0.1-1-2.1-2.8c0.6-0.1,1.4-0.3,2.3-0.3L148,128.1z M146.7,131.8c-0.2,0-0.4-0.1-0.9-0.2c-2.2-0.5-2.5-1.1-2.6-1.1
			c0.1-0.2,0.5-0.4,1.3-0.6C145.6,130.6,146.4,131.4,146.7,131.8z"/>
	</g>
	<g>
		
			<rect x="61.3" y="162.6" transform="matrix(0.2632 -0.9647 0.9647 0.2632 -109.7907 182.3607)" class="st2" width="6.5" height="1"/>
	</g>
	<g>
		<path class="st2" d="M106.8,157.4L106,158c0.6,0.9,15.8,20.4,22.5,22.5l0.3-1C122.3,177.6,107,157.6,106.8,157.4z"/>
	</g>
	<g>
		<path class="st2" d="M118.6,153.1c0.1-1.3,0.4-2.6,1.2-3.7l-0.8-0.5c-0.8,1.1-1.2,2.3-1.4,3.6c-1.8-1.4-3.7-2.5-3.7-2.6l-0.5,0.9
			c1.5,1,2.9,1.9,4.1,2.9c0,1.4,0.4,2.7,1,3.6c0.5,0.8,1.2,1.2,1.9,1.2c0.2,0,0.4,0,0.6-0.1c0.6-0.2,0.8-0.6,0.9-0.9
			C122.3,156.6,121.9,155.7,118.6,153.1z M121.2,157.2c0,0,0,0-0.1,0.1c-0.6,0.2-1.1,0-1.6-0.6c-0.4-0.5-0.6-1.3-0.8-2.2
			C120.4,155.8,121.3,156.7,121.2,157.2z"/>
	</g>
	<g>
		<path class="st2" d="M168.4,109.8l-1,0.1c0.9,5.9,10.9,10,11.3,10.3l0.3-1C179.1,119.2,169.3,115.2,168.4,109.8z"/>
	</g>
	<g>
		<path class="st1" d="M177.9,50.7c-13.4-3.5-25.3-1.6-26.2,1.7c-0.2,0.8-0.3,3.3-1.8,6.7c0,0.1-0.1,0.2-0.1,0.2s-1.3,3.1-1.9,7
			c-0.9,6,0.1,17.8,3.3,32.5c10.8,4.4,21.6,8.9,32.4,13.3c2.3-6.4,5.1-14.8,8.2-24.7c5.8-18.4,6.7-23.1,4.2-27.4
			C193,54.6,186.9,53,177.9,50.7z"/>
	</g>
	<g>
		<path class="st2" d="M180.1,51.3l-0.5-0.1v0.1l0,0c-0.5,7.7-6.5,14.5-11.7,16.1c-1.2,0.3-3.5,0.8-4.9-1
			c-2.8-3.6-0.3-13.4,0.8-17.5l-1-0.3c-1.5,5.2-3.7,14.6-0.6,18.5c0.9,1.1,2.2,1.7,3.7,1.7c0.8,0,1.5-0.1,2.3-0.3
			c5.5-1.7,11.9-8.7,12.4-17.1v-0.1v-0.1L180.1,51.3z"/>
	</g>
	<g>
		<g>
			<path class="st7" d="M174.9,21.3c-1-2.2-2.2-5.4-4.4-5.7c-1.4-0.2-1.8,0.9-3.1,0.6c-2.1-0.4-1.8-3.5-4.4-5.7
				c-1.7-1.5-4.4-2.4-7-1.9c-3.5,0.6-5.4,3.9-5.7,4.4c-1.6,2.8-0.1,4.2-1.9,7c-1.2,1.7-2.4,2.2-2.6,3.8c-0.1,0.6,0.1,1,0.6,3.1
				c0.4,1.7,0.6,2.7,0.6,3.1c0.2,2.9-1.8,3.7-1.9,7c0,1.2-0.1,2.3,0.6,3.1c1,1.3,2.4,2.5,3.8,2.6c2.6,0.1,4.3-2.9,5.7-4.4
				c1.5-1.7,4.1-3.3,8.5-3.9c4,1.8,8.5,3.5,10.5,2.9c2.2-0.5,3.5-6.2,1.9-11.2C176.1,24.8,175.7,23.1,174.9,21.3z"/>
		</g>
		<g>
			<path class="st8" d="M174.1,36.8c1.8-1.4,2.5-2.6,2.7-3.7c0-0.2,0.3-2.2-0.8-2.9c-1-0.8-3.1-0.1-4.9,1.8c-0.1,0-0.1,0-0.1-0.1
				c0-0.6,0.1-1.3,0-1.9c-0.3-3.1-2.5-8.4-7.1-9c-3.2-0.4-6.6,1.6-8.4,5c-2.3,9.9,0.8,17.4,4.6,18.4c0.8,0.2,1.6,0.1,2.6-0.1
				l2.6,10.3c1.5,5.9,9.7,6.6,12.1,1c0.1-0.2,0.2-0.5,0.3-0.8c0.4-1.2,0.4-2.4,0.1-3.6L174.1,36.8z"/>
		</g>
		<g>
			<path class="st9" d="M162.7,44.5l0.5,2.1c2.8-1.7,4-4,4.4-5.1C166.3,43,164.5,44.1,162.7,44.5z"/>
		</g>
		<g>
			<path class="st18" d="M160.3,29.5c-0.1,0.1-1.6,2.5-1.1,5.7c0,0.1,0.1,0.2,0.3,0.2c0,0,0,0,0.1,0s0.2-0.2,0.2-0.3
				c-0.5-3,1-5.3,1-5.3c0.1-0.1,0.1-0.3-0.1-0.4C160.6,29.4,160.4,29.4,160.3,29.5z"/>
		</g>
		<circle class="st18" cx="163.3" cy="30.4" r="0.9"/>
		<circle class="st18" cx="157.1" cy="30.4" r="0.9"/>
		<g>
			<path class="st18" d="M165.7,29.8c-0.2,0-0.3-0.1-0.4-0.3c-0.1-0.4-0.9-1.5-3.2-1.5c-0.2,0-0.4-0.2-0.4-0.4
				c0-0.2,0.2-0.4,0.4-0.4c2.8,0,3.9,1.4,4,2.2C166.1,29.5,166,29.8,165.7,29.8C165.8,29.8,165.7,29.8,165.7,29.8z"/>
		</g>
		<g>
			<path class="st18" d="M155.8,29.5c-0.1,0-0.1,0-0.2-0.1c-0.2-0.1-0.2-0.3-0.1-0.5c0-0.1,1-1.7,3.2-1.7c0.2,0,0.4,0.2,0.4,0.4
				s-0.2,0.4-0.4,0.4c-1.7,0-2.5,1.3-2.5,1.3C156.1,29.5,156,29.5,155.8,29.5z"/>
		</g>
		<g>
			<path class="st18" d="M160.6,39C160.6,39,160.5,39,160.6,39c-1.2,0-2.1-0.5-2.3-1.3c-0.1-0.2,0-0.4,0.2-0.5
				c0.2-0.1,0.4,0,0.5,0.2c0.1,0.4,0.8,0.6,1.4,0.8c0.3,0,1.5,0,1.9-1.2c0.1-0.2,0.3-0.3,0.5-0.2s0.3,0.3,0.2,0.5
				C162.8,38.5,161.6,39,160.6,39z"/>
		</g>
	</g>
	<g>
		<g id="XMLID_2092_">
			<g id="XMLID_2093_">
				<g id="XMLID_2094_">
					<path id="XMLID_2095_" class="st8" d="M189.4,61.3l-22.8,13.2l-22.6,15.8c-3.5,2.5-4.3,7.3-1.8,10.8c2.4,3.3,6.9,4.2,10.4,2.2
						L194,78.3c6.9-4.1,5.8-14.7-1.9-17.1C191,61,190.1,60.9,189.4,61.3z"/>
				</g>
			</g>
		</g>
		<g id="XMLID_2088_">
			<g id="XMLID_2089_">
				<g id="XMLID_2090_">
					<path id="XMLID_2091_" class="st8" d="M150.2,88.8c-0.5-0.5-0.5-0.5-0.9-0.6c-0.2-0.1-0.4-0.2-0.5-0.3
						c-0.3-0.2-0.8-0.3-1.1-0.5c-0.6-0.2-1.3-0.5-1.8-0.6c-1.2-0.3-2.4-0.5-3.6-0.8c-2.3-0.3-4.5-0.3-6.7-0.3
						c-1.6,0-2.8,1.3-2.8,2.9c0,1.3,1,2.5,2.2,2.7h0.1c1.9,0.4,3.8,1,5.4,1.6c0.9,0.3,1.6,0.8,2.3,1.1c0.3,0.2,0.6,0.4,0.9,0.6
						c0.1,0.1,0.2,0.2,0.3,0.3c0,0,0,0.1,0.1,0.1c0,0,0.1,0.1-0.2-0.2c1.6,1.7,4.4,1.8,6.2,0.2C151.8,93.4,151.8,90.6,150.2,88.8z"
						/>
				</g>
			</g>
		</g>
		<g id="XMLID_2084_">
			<g id="XMLID_2085_">
				<g id="XMLID_2086_">
					<path id="XMLID_2087_" class="st8" d="M152.4,103.3c-1.4,0.9-2.7,1.6-4.1,2.4s-2.7,1.4-4.2,2.1c-2.8,1.3-5.8,2.4-9.2,2.9
						c-1.6,0.2-3.1-0.9-3.3-2.4c-0.2-1.5,0.6-2.8,2.1-3.2h0.1c2.4-0.8,4.7-2.1,7-3.5c1.2-0.8,2.3-1.5,3.3-2.4
						c1.1-0.9,2.3-1.7,3.1-2.6c1.7-1.5,4.3-1.3,5.8,0.3c1.5,1.7,1.3,4.3-0.3,5.8C152.7,103.1,152.5,103.2,152.4,103.3z"/>
				</g>
			</g>
		</g>
		<g id="XMLID_2080_">
			<g id="XMLID_2081_">
				<g id="XMLID_2082_">
					<path id="XMLID_2083_" class="st8" d="M151,99.9c-1.5,0.9-2.9,1.5-4.3,2.2c-1.5,0.6-2.9,1.3-4.4,1.9c-1.5,0.5-3.1,1.1-4.7,1.5
						c-0.9,0.2-1.7,0.3-2.7,0.5c-0.4,0.1-1.1,0-1.6,0c-0.5,0-1.3-0.1-1.8-0.2c-1.5-0.3-2.6-1.7-2.3-3.2c0.2-1.3,1.3-2.2,2.5-2.3
						l1.1-0.1c0.3,0,1.6-0.3,2.8-0.9c1.2-0.5,2.5-1.2,3.7-1.8c1.2-0.8,2.5-1.5,3.7-2.3c1.2-0.8,2.4-1.7,3.5-2.5
						c1.8-1.5,4.6-1.1,6,0.8c1.5,1.8,1.1,4.6-0.8,6C151.5,99.6,151.2,99.8,151,99.9z"/>
				</g>
			</g>
		</g>
		<g id="XMLID_2076_">
			<g id="XMLID_2077_">
				<g id="XMLID_2078_">
					<path id="XMLID_2079_" class="st8" d="M154.6,93.4c-2.1,1.1-4,1.8-5.9,2.7c-2.1,0.8-4,1.5-6,2.2c-4.1,1.3-8.4,2.2-12.7,2.5
						c-1.6,0.1-3-1.1-3.1-2.7c-0.1-1.5,1-2.8,2.4-3h0.1c3.7-0.6,7.3-1.9,10.9-3.5c1.7-0.8,3.5-1.6,5.2-2.6c1.6-0.9,3.5-1.9,4.9-2.9
						l0,0c1.9-1.3,4.6-0.8,6,1.2c1.3,1.9,0.8,4.6-1.2,6C154.9,93.2,154.7,93.3,154.6,93.4z"/>
				</g>
			</g>
		</g>
	</g>
	<g>
		<g id="XMLID_13_">
			<g id="XMLID_14_">
				<g id="XMLID_15_">
					<path id="XMLID_16_" class="st8" d="M87.9,101.2c0.1,0.8,0.2,0.8,0.2,1.1c0.1,0.2,0.1,0.4,0.2,0.6c0.1,0.4,0.3,0.8,0.5,1
						c0.3,0.6,0.8,1.2,1.1,1.6c0.8,1,1.5,1.9,2.4,2.7c1.6,1.6,3.3,3,5.1,4.3c1.3,1,3,0.6,4-0.6c0.8-1.1,0.8-2.5-0.1-3.6v-0.1
						c-1.3-1.5-2.4-3-3.3-4.6c-0.4-0.8-0.9-1.5-1.2-2.3c-0.2-0.3-0.2-0.8-0.3-1.1c0-0.1-0.1-0.3,0-0.4c0-0.1,0-0.1,0-0.1
						s0-0.1,0.1,0.3c-0.2-2.4-2.4-4.1-4.7-3.9C89.3,96.6,87.5,98.8,87.9,101.2z"/>
				</g>
			</g>
		</g>
		<g id="XMLID_9_">
			<g id="XMLID_10_">
				<g id="XMLID_11_">
					<path id="XMLID_12_" class="st8" d="M94.9,88.4c1.7,0.1,3.1,0.3,4.6,0.5c1.5,0.2,3,0.5,4.5,0.9c3,0.8,6,1.6,9.1,3.2
						c1.4,0.8,1.9,2.5,1.2,3.9c-0.8,1.3-2.3,1.8-3.6,1.4h-0.1c-2.3-0.9-5-1.3-7.8-1.5c-1.4-0.1-2.7-0.2-4.1-0.2s-2.8,0-4.1,0.1
						c-2.3,0.2-4.3-1.6-4.4-3.9c-0.2-2.3,1.6-4.3,3.9-4.4C94.5,88.4,94.7,88.4,94.9,88.4z"/>
				</g>
			</g>
		</g>
		<g id="XMLID_5_">
			<g id="XMLID_6_">
				<g id="XMLID_7_">
					<path id="XMLID_8_" class="st8" d="M93.9,92c1.7,0.2,3.2,0.5,4.7,0.9c1.6,0.3,3.1,0.8,4.7,1.2c1.6,0.4,3.1,1,4.7,1.7
						c0.9,0.3,1.6,0.8,2.5,1.3c0.4,0.2,0.9,0.6,1.3,1c0.4,0.3,0.9,0.9,1.3,1.3c1.1,1.2,1,2.9-0.2,4c-1,0.9-2.4,1-3.3,0.3l-0.9-0.5
						c-0.3-0.2-1.5-0.8-2.7-1.1c-1.3-0.3-2.7-0.5-4.1-0.8c-1.4-0.2-2.8-0.3-4.3-0.4c-1.5-0.1-2.9-0.1-4.3-0.1
						c-2.4,0-4.3-1.9-4.3-4.3s1.9-4.3,4.3-4.3C93.5,91.9,93.7,91.9,93.9,92z"/>
				</g>
			</g>
		</g>
		<g id="XMLID_1_">
			<g id="XMLID_2_">
				<g id="XMLID_3_">
					<path id="XMLID_4_" class="st8" d="M87.1,94.9c2.3,0.4,4.3,1,6.4,1.5s4.1,1.3,6.2,1.9c4,1.5,8,3.3,11.7,5.8
						c1.3,0.9,1.7,2.7,0.8,4.1c-0.9,1.2-2.5,1.6-3.8,1h-0.1c-3.3-1.7-7-3-10.8-3.9c-1.8-0.4-3.8-0.9-5.7-1.2
						c-1.8-0.3-3.9-0.5-5.6-0.6l0,0c-2.4-0.1-4.2-2.3-4-4.6c0.1-2.4,2.3-4.2,4.6-4C86.8,94.9,86.9,94.9,87.1,94.9z"/>
				</g>
			</g>
		</g>
	</g>
</g>
</svg>
