<?xml version="1.0" encoding="utf-8"?>
<!-- Generator: Adobe Illustrator 22.1.0, SVG Export Plug-In . SVG Version: 6.00 Build 0)  -->
<svg version="1.1" id="Capa_1" xmlns="http://www.w3.org/2000/svg" xmlns:xlink="http://www.w3.org/1999/xlink" x="0px" y="0px"
	 viewBox="0 0 226.8 226.8" style="enable-background:new 0 0 226.8 226.8;" xml:space="preserve">
<style type="text/css">
	.st0{fill:#219E56;}
	.st1{fill:none;stroke:#1A1B1D;stroke-width:2.1733;stroke-linecap:round;stroke-miterlimit:10;}
	.st2{fill:#A1EA95;}
</style>
<g>
	<g>
		<path class="st0" d="M86.6,155.8c15.4,5.3,27,4.5,41.6-2.5c14.6-7,25.1-23.3,22.4-39.3c-0.8-4.9-2.7-9.5-1.9-14.4
			c0.4-2.5,1.8-5.1,2.9-7.4c3.7-7,7.8-14,9.3-22c1.6-8-0.2-16.7-6.4-21.8c-6.2-5.3-15.6-5.1-22.4-9.7c-7.4-5.1-10.1-14.2-13.6-22.4
			C115,8.2,108.4-0.2,99.4,0c-8.2,0.2-14.2,8-16.1,15.8s-1,16.1-1.4,24.3c0,1.8-0.2,3.5-1.2,4.7C79,47.1,75.7,47.5,73,48
			c-14.8,3.3-22.6,23.5-13.8,35.8c1.8,2.3,3.9,4.7,4.7,7.4c1.8,6.8-5.3,12.4-8.6,18.7c-4.9,9.1-1.4,21.2,5.4,29
			C67.4,146.6,77.1,151.3,86.6,155.8"/>
	</g>
	<g>
		<line class="st1" x1="108.2" y1="35.8" x2="106.1" y2="226.7"/>
		<line class="st1" x1="87.4" y1="57" x2="107.8" y2="83.6"/>
		<line class="st1" x1="107.6" y1="111" x2="132.3" y2="92.4"/>
	</g>
	<g>
		<path class="st2" d="M25.6,226.5h175.6c0,0-4.9-18.9-22.9-14.2c-3.1-25.9-29.6-25.3-37.7-12.6c-12.8-26.3-40.1-24.7-50.4-3.3
			c-16.5-7-29.4-1.9-31.5,14.4C39.2,198.7,25.6,226.5,25.6,226.5z"/>
		<g>
			
				<rect x="116" y="188.6" transform="matrix(0.9952 -9.750687e-02 9.750687e-02 0.9952 -19.6668 12.3242)" width="0.6" height="37.5"/>
		</g>
		<g>
			<rect x="82.9" y="200.3" transform="matrix(0.8556 -0.5176 0.5176 0.8556 -98.9242 73.979)" width="0.6" height="28"/>
		</g>
		<g>
			<rect x="134.8" y="211.7" transform="matrix(0.5729 -0.8196 0.8196 0.5729 -108.586 215.6341)" width="35.6" height="0.6"/>
		</g>
		<g>
			<rect x="152.9" y="208.1" transform="matrix(0.9523 -0.3053 0.3053 0.9523 -55.9027 59.2526)" width="17.1" height="0.6"/>
		</g>
		<g>
			<rect x="169.1" y="220.9" transform="matrix(0.8287 -0.5597 0.5597 0.8287 -93.2053 137.9257)" width="19.3" height="0.6"/>
		</g>
		<g>
			<rect x="110.1" y="206.5" transform="matrix(0.4872 -0.8733 0.8733 0.4872 -116.7712 214.7115)" width="28.6" height="0.6"/>
		</g>
		<g>
			<rect x="109.5" y="192" transform="matrix(0.5933 -0.805 0.805 0.5933 -115.8768 169.4772)" width="0.6" height="14.8"/>
		</g>
		<g>
			<rect x="74.7" y="204.5" transform="matrix(0.2466 -0.9691 0.9691 0.2466 -151.6229 234.4346)" width="0.6" height="20.4"/>
		</g>
	</g>
</g>
</svg>
