<?xml version="1.0" encoding="utf-8"?>
<!-- Generator: Adobe Illustrator 22.1.0, SVG Export Plug-In . SVG Version: 6.00 Build 0)  -->
<svg version="1.1" id="Layer_1" xmlns="http://www.w3.org/2000/svg" xmlns:xlink="http://www.w3.org/1999/xlink" x="0px" y="0px"
	 viewBox="0 0 187.4 227" style="enable-background:new 0 0 187.4 227;" xml:space="preserve">
<style type="text/css">
	.st0{fill:#E1BA9E;}
	.st1{fill:#B5EAF7;}
	.st2{fill:#FF3B3B;}
	.st3{fill:#072AC8;}
	.st4{fill:#1A1B1D;}
	.st5{fill:#236AD8;}
</style>
<g>
	<g id="XMLID_665_">
		<g id="XMLID_666_">
			<g id="XMLID_667_">
				<path id="XMLID_668_" class="st0" d="M28.6,119.4c-1.6,0-3-0.2-4.5-0.3c-1.5-0.2-2.9-0.4-4.4-0.7c-2.9-0.6-5.8-1.4-8.6-2.7
					c-1-0.5-1.4-1.7-1-2.7c0.4-0.9,1.5-1.4,2.5-1.1h0.1c2.5,0.8,5.1,1.3,7.8,1.5c1.3,0.1,2.7,0.2,4,0.2s2.7-0.1,3.9-0.2l0,0
					c1.6-0.2,3.1,1,3.3,2.7c0.2,1.6-1,3.1-2.7,3.3C28.9,119.4,28.7,119.4,28.6,119.4z"/>
			</g>
		</g>
	</g>
	<g>
		<path class="st0" d="M61.4,121.3l-5.8,18.5l-18.1-26.5l0,0c0,0-6.7-3.4-8.3-3.7c-1.5-0.3-6.3-0.7-7,0.1c0-0.1-0.1-0.1-0.2-0.1
			c-0.6-0.2-1.8,2-2,2.5c-0.2,0.5,1.2,3.5,1.3,3.8c0.1,0.2-0.3,0.3-0.9,0.1c-0.6-0.2-2.4-2.3-2.4-2.3s0-0.3-1.1-0.3
			c-1.1,0-0.3,1.2-0.3,1.2l1.1,1.4l-1.6-0.9c0,0-1.1-2.3-1.4-2.2c-0.3,0.1-0.7,1.3-0.1,2.5c0.6,1.2,1.9,2.5,1.9,2.5L19,119
			c0,0-2.8-0.2-3.6-0.9c-0.8-0.6-1.1,0.2-0.5,1c0.6,0.7,4.3,2,6.6,2.2c2.3,0.2,9.5,0.1,10.5-0.1c0.8-0.2,2.4-0.4,3.2,0
			c1,3,9.9,35.2,20.6,39c0,0,4.9-0.6,10.6-13.5C72,134,75,126.3,75,126.3L61.4,121.3z M28.2,114.8c-0.8,0.3-3.7,0.5-4.4,0.2
			c-0.8-0.3-1.9-3.2-1.9-3.2s0.3-0.9,0.4-1.5c0.8,0.9,4.4,0.5,5.2,1C28.4,111.9,29,114.5,28.2,114.8z"/>
		<path class="st0" d="M184.2,112.1l-1.5,1l1-1.5 M180,113.2c-0.6,0.2-1,0.1-0.9-0.1c0.1-0.2,1.3-3.3,1.1-3.8
			c-0.2-0.5-1.4-2.6-2-2.4c-0.1,0-0.1,0.1-0.1,0.1c-0.8-0.8-5.5-0.2-7,0.2c-1.7,0.4-8.2,4-8.2,4l0,0l-17.2,27.1l-6.4-18.3l-13.4,5.4
			c0,0,3.3,7.6,9.4,20.2c6.1,12.6,11,13.1,11,13.1c10.6-4.1,18.3-36.7,19.2-39.7c0.8-0.5,2.3-0.3,3.2-0.1c1,0.2,8.2,0.1,10.5-0.2
			c2.3-0.3,5.9-1.7,6.5-2.5c0.6-0.8,0.3-1.6-0.5-1c-0.8,0.6-3.5,1-3.5,1l2.3-1.3c0,0,1.2-1.3,1.8-2.6 M172.8,108.8
			c0.8-0.5,4.4-0.3,5.2-1.2c0.1,0.7,0.5,1.5,0.5,1.5s-1,2.9-1.8,3.2c-0.7,0.3-3.6,0.2-4.4,0C171.4,112,171.9,109.4,172.8,108.8z"/>
		<path class="st1" d="M97.1,172.8c0,0-8.1-4.2-19-7.4c-14.7-4.4-34.6-7.3-45.8,2.1c-6.6,5.5,61.9,12.8,61.9,12.8L97.1,172.8z"/>
		<path class="st1" d="M171.1,171c0,0-6.5-9.6-23.3-9.3c-6.5,0.1-15.6,1.4-23.8,3c-14.7,2.9-28.6,7.8-28.6,7.8l-1.3,7.8L171.1,171z"
			/>
		<polygon class="st1" points="75.7,184.6 105.5,199.1 128.8,180.5 121.2,163.7 78.9,166.4 		"/>
		<path class="st2" d="M82.2,78.6c-3.3-6.8-3.5-19.6-0.9-27.2c2.1-6.1,7.2-9.6,13.7-10.3c7.6-0.8,12.4,0.7,18.3,4.5
			c6.1,4,13.5,8.4,20.5,10.1c9.2,2.3,18.7,4,27.1,8.4c5.6,2.9,10.7,7.2,12.9,13c3.2,8.4-0.5,18-6.3,24.8
			c-8.9,10.2-22.9,15.7-36.3,14.2c-10.5-1.2-20.3-6.5-27.2-14.5c-3.1-3.6-5.4-6.2-9.1-9.1C90.2,88.8,84.9,84.1,82.2,78.6z"/>
		<path class="st3" d="M121.9,87.6c0,0-11.6-1.2-23.1-1.5c-10.2-0.3-21.2,1.6-21.9,2.3c-2.9,3-3.9,28.4-2.3,33.1
			c1.6,4.7,9.1,16.9,7.7,24.9c-1.4,8-4.2,19.1-4.2,19.1s9.7,5.6,22,5.5c7.4-0.1,17.6-1.5,23.9-6.2c0,0-3.7-9.9-3.3-17.6
			c0.4-7.8,4.4-21,6.5-25.8C129.2,116.5,125.8,88.3,121.9,87.6z"/>
		<path class="st3" d="M81.5,90.4l-4.4-2.2c0,0-5,1.4-7.6,5.1C67.5,96.4,58,124.1,58,124.1s13.3,5.2,17.5,4.9l6.5-17L81.5,90.4z"/>
		<path class="st3" d="M117.3,89.8l4.7-2.3c0,0,3,0.6,6.8,5.1c2.4,2.8,13.2,30,13.2,30s-13.1,5.6-17.3,5.5l-7-16.8L117.3,89.8z"/>
		<path class="st0" d="M104,71.3c0,0,0.8,11.4,1.5,15c0.7,3.7,1.7,20.9-6,23c-7.8,2-5.9-19.4-6-23.2c-0.2-3.8-2-16.8-2-16.8
			L104,71.3z"/>
		<path class="st4" d="M91.4,69.3c0,0,0.4,2.6,0.8,5.9c2.9,2.2,6.9,2.8,11.5,0.1c0.2-0.1,0.4-0.2,0.6-0.4c-0.2-2-0.3-3.5-0.3-3.5
			L91.4,69.3z"/>
		<path class="st0" d="M100.3,44.7c0,0,4.6,1.2,7.3,5.7c2.7,4.5,4.3,17.4-5.4,23.1c-9.6,5.7-16.7-3-16.5-11.3
			C85.9,53.9,88,42.9,100.3,44.7z"/>
		<path class="st0" d="M83.7,59.5c0.7,2,2.3,3.3,3.5,2.9c1.2-0.4,1.5-2.4,0.8-4.4c-0.7-2-2.3-3.3-3.5-2.9
			C83.3,55.5,82.9,57.4,83.7,59.5z"/>
		<path class="st2" d="M98.9,44.4c0,0,5.5,13.4,10.6,14.8c5.1,1.4,4.9,8,4.9,8s0.4-15.4-4.4-19.1C105.3,44.4,98.9,44.4,98.9,44.4z"
			/>
		<path class="st0" d="M107.4,61.9c-0.8,2.1-0.2,4.3,1.2,4.8c1.4,0.5,3.2-0.8,4-2.9c0.8-2.1,0.2-4.3-1.2-4.8
			C109.9,58.5,108.1,59.8,107.4,61.9z"/>
		<path class="st0" d="M50.7,191c0,0-3.4-2.8-7.5-3.9c-4.1-1.1-4,1.9-5,6.5c-1,4.6-2.8,7.6-5,12.1c-2.2,4.5,0.5,14.7,1.8,14.8
			c3,0.3,4.4-6.2,7.3-11.7c2.9-5.5,10.8-7.4,13.2-7.6c0.4,0,10.8-1.7,24.7-1.6c-2.9-5.6-7.1-10.1-11.5-14.9
			C58,188.3,50.7,191,50.7,191z"/>
		<path class="st5" d="M173.3,176.1c-1.4-7.2-7.4-10.1-14.4-9.9c-16,0.4-61.1,10.7-88,19.2c1.6,5.8,0.4,9.6,2.3,15.5
			c28.5-1.5,81.8-5.9,97.3-14.8C172.9,184.6,174,179.6,173.3,176.1z"/>
		<path class="st0" d="M154.6,207.5c-2-4.6-4.1-7.6-4.9-12.2c-1-5.5-0.5-8.6-7.3-6c-3.9,1.5-8.2,1.5-12-0.1c-2.5-1-5.7-2.3-9.2-3.7
			c-2.3,4.8-3.7,9.9-4.1,15.3c8.4,0.9,14.5,1.7,14.8,1.7c1.4,0.1,10.5,2.1,13.1,7.7c2.6,5.7,3.8,12.7,6.7,12
			C153.5,221.9,156.7,212.1,154.6,207.5z"/>
		<path class="st5" d="M48.3,163.6c-6.3-0.2-17.2,1-18.8,8.1c-0.8,3.4-0.5,8.3,0.9,11.5c1.8,4.1,5.8,6.3,9.8,8
			c7.6,3.2,54.9,8.2,79.2,10.8c2.9-5.2,5.2-11,5.1-16C101,176.5,60.4,164,48.3,163.6z"/>
	</g>
	<g>
		<g id="XMLID_650_">
			<g id="XMLID_651_">
				<g id="XMLID_652_">
					<g id="XMLID_653_">
						<path id="XMLID_654_" class="st4" d="M96,64.1c0,0.1,0,0.1,0,0.3v0.1h-0.1h-0.1h-0.3c-0.1,0-0.1,0-0.3,0H95h-0.1h-0.1
							c-0.3,0-0.7,0-1.1-0.1c-0.1,0-0.1-0.1-0.3-0.1h-0.1c0,0-0.1,0-0.1-0.1c-0.1-0.1-0.3-0.3-0.3-0.3s0-0.1-0.1-0.1
							c-0.1-0.3-0.3-0.6-0.3-0.8c0-0.1,0-0.3,0-0.4c0,0,0-0.1,0-0.3l0,0V62c0-0.1,0-0.1,0-0.3s0-0.1,0-0.1v-0.1v-0.1
							c0-0.3,0.1-0.7,0.1-1c0,0,0-0.1,0-0.3v-0.1v-0.1c0-0.1,0-0.3,0-0.3s0,0,0-0.1c0-0.3,0-0.4,0.1-0.7c0-0.1,0-0.3,0-0.3
							c0-0.1,0-0.3,0.1-0.3l0,0l0,0c0-0.1,0-0.1,0-0.3c0-0.1,0-0.1,0-0.3c0-0.3,0-0.4,0.1-0.6c0-0.1,0-0.1,0-0.3s0-0.1,0-0.3
							c0,0,0,0,0-0.1c0,0,0-0.1,0.1-0.1c0,0,0.1,0,0.3,0c0.1,0,0.3,0.1,0.3,0.1s0,0,0,0.1c0,0,0,0,0,0.1s0,0.3,0,0.3
							c0,0.3,0,0.4,0,0.6v0.3v0.1c0,0,0,0,0,0.1c0,0.1,0,0.3,0,0.6c0,0.1,0,0.3,0,0.4c0,0.1,0,0.3-0.1,0.4v0.1v0.1v0.3
							c0,0.1,0,0.3,0,0.4c0,0.1,0,0.3,0,0.6c0,0,0,0,0,0.1c0,0,0,0,0,0.1c0,0.1,0,0.1,0,0.3v0.3v0.1V62v0.3v0.1l0,0l0,0l0,0
							c0,0.3,0,0.3,0,0.4s0,0.3,0,0.4c0,0,0,0.1,0,0.3l0,0c0,0,0.1,0,0.1,0.1c0,0,0,0,0.1,0.1c0,0,0.1,0.1,0.3,0.1s0.3,0.1,0.4,0.1
							c0,0,0,0,0.1,0s0.1,0,0.3,0h0.3c0.1,0,0.3,0,0.6,0h0.1c0,0,0.1,0,0.3,0h0.1c0,0,0,0,0.1,0s0.1,0.1,0.3,0.3
							C96.2,64.3,96.2,64.3,96,64.1z"/>
					</g>
				</g>
			</g>
		</g>
		<g id="XMLID_645_">
			<g id="XMLID_646_">
				<g id="XMLID_647_">
					<g id="XMLID_648_">
						<path id="XMLID_649_" class="st4" d="M99,66.1c0,0,0.1,0,0.3,0.1l0,0c0,0,0,0,0,0.1c0,0,0,0,0,0.1v0.1v0.1l0,0l0,0l0,0
							C99.1,67,99,67.1,99,67.2c0,0,0,0-0.1,0.1l0,0l0,0c0,0-0.1,0-0.1,0.1l0,0c0,0-0.1,0.1-0.3,0.3l-0.1,0.1c0,0,0,0-0.1,0l0,0H98
							c0,0,0,0-0.1,0h-0.1l0,0c0,0,0,0-0.1,0s-0.3,0.1-0.6,0.1c0,0,0,0-0.1,0l0,0c0,0,0,0-0.1,0h-0.1l0,0c-0.1,0-0.3,0-0.4,0H96
							h-0.1l0,0l0,0h-0.1c0,0,0,0-0.1,0s-0.3,0-0.3-0.1c0,0,0,0-0.1,0c0,0,0,0-0.1,0l0,0c0,0,0,0,0-0.1s0-0.1,0-0.3
							c0,0,0.1-0.1,0.1-0.3h0.1l0,0c0,0,0,0,0.1,0c0,0,0.1,0,0.3,0h0.1l0,0l0,0c0.1,0,0.1,0,0.3,0h0.1h0.1l0,0l0,0h0.1h0.1h0.1l0,0
							l0,0l0,0H97l0,0l0,0h0.1l0,0l0,0l0,0l0,0c0,0,0.1,0,0.1-0.1c0,0,0.1,0,0.1-0.1h0.1l0,0l0,0l0,0c0,0,0,0,0.1-0.1l0.1-0.1l0,0
							v-0.1l0,0l0.1-0.1l0,0l0,0l0,0l0,0c0.1,0,0.1,0,0.3,0C98.7,66.3,98.9,66.3,99,66.1z"/>
					</g>
				</g>
			</g>
		</g>
		<g id="XMLID_611_">
			<g id="XMLID_612_">
				<g id="XMLID_613_">
					<path id="XMLID_644_" class="st4" d="M101.3,58.8v-0.4c0-0.6-0.4-1-0.8-1c-0.7,0-1,0.4-1,0.8v0.4c0,0.6,0.4,1,1,1l0,0
						C100.8,59.8,101.3,59.3,101.3,58.8z"/>
				</g>
			</g>
		</g>
		<g id="XMLID_541_">
			<g id="XMLID_545_">
				<g id="XMLID_546_">
					<path id="XMLID_610_" class="st4" d="M91.1,58.2v-0.4c0-0.6-0.4-1-0.8-1c-0.7,0-1,0.4-1,0.8v0.4c0,0.6,0.4,1,1,1l0,0
						C90.7,59.2,91.1,58.8,91.1,58.2z"/>
				</g>
			</g>
		</g>
		<g id="XMLID_524_">
			<g id="XMLID_534_">
				<g id="XMLID_535_">
					<g id="XMLID_536_">
						<path id="XMLID_540_" class="st4" d="M102.7,55.7l-0.1,0.1h-0.1l0,0l0,0l0,0l0,0l0,0l0,0l0,0c0,0-0.1-0.1-0.3-0.1l0,0l0,0l0,0
							c0,0,0,0-0.1,0l0,0c0,0-0.1,0-0.3,0c0,0,0,0-0.1,0l0,0l0,0l0,0l0,0l0,0l0,0l0,0c-0.1,0-0.3,0-0.3,0s0,0-0.1,0l0,0l0,0
							c0,0,0,0-0.1,0l0,0c0,0-0.1,0-0.3,0c0,0,0,0-0.1,0c-0.1,0,0,0-0.1,0l0,0l0,0l0,0l0,0c-0.1,0-0.1,0-0.3,0l0,0l0,0l0,0
							c0,0,0,0-0.1-0.1c-0.1-0.1-0.1-0.1-0.1-0.3c0-0.1,0-0.3,0-0.3s0,0,0-0.1s0,0,0,0h0.1c0,0,0.1-0.1,0.3-0.1h0.1l0,0l0,0
							c0,0,0.1,0,0.3,0c0.1,0,0.1,0,0.3,0h0.1l0,0l0,0h0.1h0.1c0,0,0.1,0,0.3,0l0,0l0,0c0,0,0,0,0.1,0h0.1l0,0l0,0h0.1l0,0l0,0l0,0
							l0,0c0.1,0,0.1,0,0.3,0h0.1l0.1,0.1l0,0l0,0l0,0h0.1c0.1,0,0.1,0,0.3,0l0,0c0,0,0,0,0.1,0l0,0l0.1,0.1l0,0v0.1l0,0l0,0
							c0,0,0,0.1-0.1,0.3C102.8,55.7,102.8,55.7,102.7,55.7z"/>
					</g>
				</g>
			</g>
		</g>
		<g id="XMLID_517_">
			<g id="XMLID_518_">
				<g id="XMLID_519_">
					<g id="XMLID_522_">
						<path id="XMLID_523_" class="st4" d="M88.5,54.8c0,0-0.1-0.1-0.1-0.3v-0.1l0,0l0,0l0,0l0,0l0,0l0,0l0,0c0.1,0,0.3-0.1,0.4-0.1
							c0,0,0,0,0.1,0l0,0l0,0h0.1l0,0c0,0,0.1,0,0.3,0h0.1l0,0l0,0h0.1c0,0,0,0,0.1,0l0,0l0,0l0,0c0.1,0,0.3,0,0.4,0c0,0,0,0,0.1,0
							l0,0l0,0h0.1l0,0c0,0,0.1,0,0.3,0c0,0,0,0,0.1,0h0.1l0,0l0,0c0,0,0,0,0.1,0l0,0c0,0,0.1,0,0.3,0.1h0.1l0,0l0,0v0.1
							c0,0.1,0,0.1-0.1,0.3c0,0-0.1,0.1-0.1,0.3h-0.1l0,0h-0.1c0,0-0.1,0-0.3,0h-0.1l0,0l0,0h-0.1h-0.1c0,0,0,0-0.1,0l0,0l0,0l0,0
							h-0.1H90l0,0l0,0l0,0l0,0l0,0l0,0h-0.1l0,0l0,0l0,0l0,0h-0.1h-0.1h-0.1l0,0l0,0l0,0c0,0,0,0-0.1,0c0,0.1-0.1,0-0.1,0.1l0,0
							l0,0l0,0H89l0,0h-0.1l0,0l0,0c0,0,0,0-0.1-0.1C88.4,54.9,88.3,54.9,88.5,54.8z"/>
					</g>
				</g>
			</g>
		</g>
	</g>
	<g>
		<g id="XMLID_658_">
			<g id="XMLID_659_">
				<path id="XMLID_660_" class="st4" d="M107.9,62.4c0.1,0.1,0.1,0.1,0.2,0.1h0.1c0,0,0,0,0.1,0c0,0,0,0,0.1,0l0.1-0.1
					c0,0,0.1,0,0.1-0.1v-0.1c0,0,0,0,0.1,0s0.1,0,0.1,0c0.1-0.1,0.2-0.1,0.3-0.2c0,0,0.1,0,0.1-0.1c0,0,0,0,0.1,0s0,0,0.1,0h0.1
					c0,0,0,0,0.1,0s0.1,0,0.2,0h0.1c0,0,0,0,0.1,0l0,0h0.1c0,0,0,0,0.1,0s0,0,0.1,0l0,0c0,0,0,0,0.1,0s0.2,0.1,0.3,0.1h0.1
					c0,0,0,0,0,0.1c0,0,0,0,0.1,0s0.1,0,0.1,0.1l0,0c0.1,0.1,0.1,0.1,0.2,0.2l0.1,0.1c0,0,0,0.1,0.1,0.1l0,0l0,0v0.1
					c0,0,0,0,0.1,0.1c0,0.1,0,0.1,0.1,0.2c0,0,0,0,0,0.1c0,0,0,0,0,0.1l0,0l0.1,0.1c0.1,0,0.1,0,0.2,0s0.2,0,0.2-0.1l0.1-0.1
					c0,0,0,0,0-0.1c0-0.1,0-0.1-0.1-0.1c-0.1-0.1,0-0.2-0.1-0.3l-0.1-0.1c0,0,0,0,0-0.1l0,0c0-0.1-0.1-0.1-0.1-0.2
					c-0.1-0.1-0.1-0.1-0.1-0.2c-0.1-0.1-0.1-0.1-0.2-0.1l0,0c0,0,0,0-0.1-0.1l-0.1-0.1l-0.1-0.1c0-0.1-0.1-0.1-0.2-0.1
					c0,0,0,0-0.1,0c0,0,0,0-0.1,0l-0.1-0.1h-0.1h-0.1c0,0,0,0-0.1,0h-0.1h-0.1l0,0l0,0l0,0c-0.1,0-0.1,0-0.2,0s-0.1,0-0.2,0
					s-0.1,0-0.2,0.1h-0.1h-0.1h-0.1c-0.1,0-0.1,0-0.2,0.1c-0.1,0-0.1,0.1-0.2,0.1c0,0,0,0.1-0.1,0.1h-0.1l-0.1,0.1
					c-0.1,0.1-0.1,0.1-0.2,0.2c0,0,0,0.1-0.1,0.1s-0.1,0.1-0.1,0.1l-0.4-0.3c0,0,0,0,0,0.1C107.8,62.2,107.8,62.2,107.9,62.4
					C107.9,62.3,107.9,62.3,107.9,62.4z"/>
			</g>
		</g>
		<g id="XMLID_655_">
			<g id="XMLID_656_">
				<path id="XMLID_657_" class="st4" d="M108.7,64.1c0.1,0,0.2,0,0.2,0h0.1l0,0l0,0V64c0,0,0,0,0-0.1v-0.1l0,0l0,0
					c0-0.1,0.1-0.2,0.1-0.3c0,0,0,0,0-0.1c0,0,0,0,0.1,0l0,0c0,0,0-0.1,0.1-0.1l0,0c0.1,0,0.1-0.1,0.1-0.1s0,0,0.1-0.1l0,0l0,0h0.1
					l0,0l0,0l0,0l0,0c0.1-0.1,0.2-0.1,0.3-0.1c0,0,0,0,0.1,0l0,0c0,0,0,0,0.1,0s0.1,0,0.1,0l0,0c0.1,0,0.1,0,0.2,0.1h0.1h0.1l0,0
					l0,0c0,0,0,0.1,0.1,0.1c0,0,0,0,0.1,0s0.1,0.1,0.1,0.1l0,0c0,0,0,0,0.1,0l0,0h0.1c0.1,0,0.1-0.1,0.2-0.1
					c0.1-0.1,0.1-0.1,0.1-0.2v-0.1c0,0,0,0,0-0.1c0-0.1-0.1-0.1-0.1-0.1c-0.1,0-0.1-0.1-0.2-0.1l-0.1-0.1c0,0,0,0-0.1,0s0,0-0.1,0
					c-0.1-0.1-0.1-0.1-0.2-0.1s-0.1,0-0.2-0.1c-0.1,0-0.1,0-0.2,0h0.3c0,0,0,0-0.1,0h-0.1c-0.1,0-0.1,0-0.2,0s-0.1,0-0.2,0l0,0l0,0
					h-0.1h-0.1c0,0,0,0-0.1,0s-0.1,0-0.1,0l0,0.2c0,0,0,0-0.1,0l0,0l0,0l0,0c-0.1,0-0.1,0.1-0.2,0.1s-0.1,0.1-0.2,0.1
					c-0.1,0-0.1,0.1-0.1,0.1l0,0c0,0,0,0-0.1,0V63l-0.1,0.1c-0.1,0-0.1,0.1-0.1,0.2c0,0,0,0,0,0.1c0,0,0,0.1-0.1,0.1v0.1
					c0,0.1,0,0.2-0.1,0.2c0,0,0,0,0,0.1V64v0.1c0,0,0,0,0,0.1c0.1,0,0.1,0.1,0.2,0.1C108.6,64.2,108.6,64.2,108.7,64.1z"/>
			</g>
		</g>
	</g>
	<g id="XMLID_661_">
		<g id="XMLID_662_">
			<g id="XMLID_663_">
				<path id="XMLID_664_" class="st0" d="M28.6,121.7c-1.6,0-3-0.2-4.5-0.3c-1.5-0.2-2.9-0.4-4.4-0.7c-2.9-0.6-5.8-1.4-8.6-2.7
					c-1-0.5-1.4-1.7-1-2.7c0.4-0.9,1.5-1.4,2.5-1.1h0.1c2.5,0.8,5.1,1.3,7.8,1.5c1.3,0.1,2.7,0.2,4,0.2s2.7-0.1,3.9-0.2l0,0
					c1.6-0.2,3.1,1,3.3,2.7c0.2,1.6-1,3.1-2.7,3.3C28.9,121.7,28.7,121.7,28.6,121.7z"/>
			</g>
		</g>
	</g>
	<g>
		<g id="XMLID_673_">
			<g id="XMLID_674_">
				<g id="XMLID_675_">
					<path id="XMLID_676_" class="st0" d="M168.4,118.4c-1.7-0.2-2.9-1.7-2.7-3.3c0.2-1.7,1.7-2.9,3.3-2.7l0,0
						c1.2,0.1,2.6,0.2,3.9,0.2s2.7-0.1,4-0.2c2.7-0.2,5.3-0.7,7.8-1.5h0.1c1-0.3,2.1,0.2,2.5,1.1c0.4,1,0,2.2-1,2.7
						c-2.8,1.3-5.7,2.1-8.6,2.7c-1.5,0.3-2.9,0.5-4.4,0.7c-1.5,0.1-2.9,0.3-4.5,0.3C168.7,118.4,168.5,118.4,168.4,118.4z"/>
				</g>
			</g>
		</g>
		<g id="XMLID_669_">
			<g id="XMLID_670_">
				<g id="XMLID_671_">
					<path id="XMLID_672_" class="st0" d="M168.4,120.7c-1.7-0.2-2.9-1.7-2.7-3.3c0.2-1.7,1.7-2.9,3.3-2.7l0,0
						c1.2,0.1,2.6,0.2,3.9,0.2s2.7-0.1,4-0.2c2.7-0.2,5.3-0.7,7.8-1.5h0.1c1-0.3,2.1,0.2,2.5,1.1c0.4,1,0,2.2-1,2.7
						c-2.8,1.3-5.7,2.1-8.6,2.7c-1.5,0.3-2.9,0.5-4.4,0.7c-1.5,0.1-2.9,0.3-4.5,0.3C168.7,120.7,168.5,120.7,168.4,120.7z"/>
				</g>
			</g>
		</g>
	</g>
</g>
</svg>
