<?xml version="1.0" encoding="utf-8"?>
<!-- Generator: Adobe Illustrator 22.1.0, SVG Export Plug-In . SVG Version: 6.00 Build 0)  -->
<svg version="1.1" id="Capa_1" xmlns="http://www.w3.org/2000/svg" xmlns:xlink="http://www.w3.org/1999/xlink" x="0px" y="0px"
	 viewBox="0 0 226.8 226.8" style="enable-background:new 0 0 226.8 226.8;" xml:space="preserve">
<style type="text/css">
	.st0{fill:#D1152C;}
	.st1{fill:#FFFFFF;}
	.st2{fill:#1A1B1D;}
	.st3{fill:#DDDFE3;}
	.st4{fill:none;stroke:#1A1B1D;stroke-width:0.9557;stroke-miterlimit:10;}
	.st5{fill:#E6E6E6;}
	.st6{fill:#F2303C;}
	.st7{fill:#C6A48F;}
	.st8{fill:#E1BA9E;}
	.st9{font-family:'Impact';}
	.st10{font-size:16.4834px;}
</style>
<g>
	<g id="XMLID_1944_">
		<g id="XMLID_1945_">
			<g id="XMLID_1946_">
				<path id="XMLID_1947_" class="st0" d="M68.6,103.8l25,1.9l12.5,1l6.2,0.4l3.2,0.3h0.7c0.1,0,0.3,0,0.1,0s-0.3,0-0.4-0.1
					c-0.6-0.1-1-0.4-1.4-0.7c-0.9-0.6-1.4-1.4-1.7-2.3c-0.1-0.3-0.1-0.4-0.1-0.7c0-0.1,0-0.3,0-0.3v-0.1V103c0,0,0-0.1,0,0l0.1,1.6
					l0.7,6.2l1.4,12.4l2.7,24.7l14.4-0.9l-0.3-25l-0.1-12.5l-0.1-6.2v-1.6v-0.6v-0.6c0-0.4-0.1-0.7-0.1-1.1
					c-0.1-0.7-0.3-1.4-0.6-2.2c-1.1-2.9-3.2-5.5-5.7-7c-1.3-0.9-2.7-1.4-4.3-1.9c-0.4-0.1-0.7-0.1-1.1-0.3l-0.7-0.1l-0.7-0.1l-3-0.6
					l-6.2-1.1l-12.4-2.2l-24.7-4.3L68.6,103.8z"/>
			</g>
		</g>
	</g>
	<g id="XMLID_1941_">
		<g id="XMLID_1942_">
			<path id="XMLID_1943_" class="st1" d="M117,142.9c0,0,0.1,0,0.3-0.1h0.1c0.1,0,0.1,0,0.3,0s0.3,0,0.3,0c0.1,0,0.1,0,0.3,0
				c0.3,0,0.4,0,0.7,0c0.1,0,0.1,0,0.3,0c0.1,0,0.1,0,0.3,0s0.1,0,0.3,0c0.3,0,0.4,0,0.7,0c0.1,0,0.4,0,0.6,0s0.1,0,0.3,0
				s0.1,0,0.3,0h0.1c0.1,0,0.3,0,0.6,0c0.1,0,0.4,0,0.6,0c0.3,0,0.4,0,0.7,0l0,0c0,0,0,0,0.1,0l0,0c0.1,0,0.1,0,0.1,0
				c0.1,0,0.3,0,0.4,0h0.1c0.1,0,0.1,0,0.3,0s0.1,0,0.3,0s0.1,0,0.3,0h0.1h0.1c0.3,0,0.4,0,0.7,0c0.1,0,0.4,0,0.6,0
				c0.1,0,0.1,0,0.3,0s0.1,0,0.3,0h0.1c0.1,0,0.3,0,0.6,0c0.1,0,0.4,0,0.6,0c0.3,0,0.4,0,0.7,0h0.1c0.1,0,0.1,0,0.1,0
				c0.1,0,0.3,0,0.4,0c0.3,0,0.6,0,0.9,0c0.1,0,0.3,0,0.4,0h0.1h0.1c0.1,0,0.1,0,0.1,0.1c0,0-0.1,0-0.1,0.1c0,0-0.1,0-0.3,0h-0.1
				c-0.1,0-0.1,0-0.3,0c-0.1,0-0.1,0-0.3,0c-0.3,0-0.6,0-0.9,0c-0.1,0-0.1,0-0.3,0s-0.3,0-0.3,0l0,0l0,0c-0.1,0-0.3,0-0.4,0
				c-0.1,0-0.3,0-0.4,0c-0.3,0-0.6,0-0.9,0h-0.1c-0.1,0-0.3,0-0.4,0c-0.1,0-0.1,0-0.3,0s-0.1,0-0.1,0c-0.1,0-0.3,0-0.3,0
				c-0.4,0-0.9,0-1.3,0c-0.1,0-0.1,0-0.3,0h-0.1c-0.1,0-0.1,0-0.3,0c-0.1,0-0.1,0-0.3,0s-0.1,0-0.3,0h-0.1c-0.1,0-0.1,0-0.3,0
				s-0.3,0-0.4,0c-0.3,0-0.6,0-0.9,0H122c-0.1,0-0.3,0-0.4,0c-0.1,0-0.1,0-0.3,0s-0.1,0-0.1,0c-0.1,0-0.3,0-0.3,0
				c-0.4,0-0.9,0-1.3,0c-0.1,0-0.1,0-0.3,0h-0.1c-0.1,0-0.1,0-0.3,0s-0.1,0-0.3,0c-0.1,0-0.1,0-0.3,0s-0.1,0-0.3,0
				c-0.1,0-0.1,0-0.1,0h-0.1C117.1,143.1,117,142.9,117,142.9L117,142.9z"/>
		</g>
	</g>
	<g id="XMLID_1938_">
		<g id="XMLID_1939_">
			<path id="XMLID_1940_" class="st1" d="M120.7,147c0-0.3-0.1-0.6-0.1-1.4c0-0.3,0-0.7,0-1.1v-1.6c0-0.7,0-1.3,0-2
				c0-0.4,0-0.9,0-1.3c0-1.4-0.1-2.7-0.1-4.2c0-0.6,0-1.1-0.1-1.9c0-0.6,0-1.1-0.1-1.7c0-0.4,0-0.9-0.1-1.3
				c-0.1-1.3-0.1-2.6-0.3-3.9l-0.3-3.2l-0.1-1.6c0-0.4-0.1-0.9-0.1-1.3l-0.1-0.9c-0.1-1-0.1-2.2-0.3-3l-0.4-3.6
				c-0.1-1.3-0.3-2.6-0.4-3.9c0-0.1,0-0.1,0-0.3v-0.4v-0.1c0-0.4-0.1-0.7-0.1-1.1l-0.3-2.4c0-0.3-0.1-0.6-0.1-0.7
				c-0.1-0.4-0.1-0.9-0.4-1.1c-0.3-0.6-0.7-0.9-1.1-1.1c-0.4-0.1-0.9-0.3-1.4-0.4c-0.3,0-0.6-0.1-0.9-0.1c-0.3,0-0.6,0-0.7-0.1
				c-1.3-0.1-2.6-0.3-3.9-0.6l-3.2-0.4l-1.6-0.1c-0.4,0-0.9-0.1-1.3-0.1l-0.9-0.1c-1-0.1-2-0.3-3-0.4l-3.3-0.6
				c-1.3-0.1-2.6-0.3-3.9-0.6c-0.3,0-0.6,0-0.9-0.1c-0.4,0-0.9-0.1-1.1-0.1l-2.4-0.3l-4.6-0.6c-0.9-0.1-1.7-0.1-2.6-0.3
				c-0.3,0-0.6-0.1-1-0.1c-0.3,0-0.6-0.1-0.9-0.1c-0.6-0.1-0.9-0.1-0.7-0.1s0.4,0,0.9,0c0.3,0,1,0.1,1.6,0.1c0.3,0,0.6,0.1,1,0.1
				l1.7,0.1c0.6,0,1,0.1,1.6,0.1c1.6,0.1,3.2,0.4,4.7,0.6c0.6,0,1.1,0.1,1.7,0.1c0.7,0.1,1.3,0.1,2,0.3h0.1c0.1,0,0.1,0,0.1,0
				c0.6,0,1.6,0.1,2.3,0.3l2.6,0.3c1.7,0.3,3.6,0.4,5.3,0.7l1,0.1l2.7,0.3c0.4,0,0.9,0.1,1.3,0.1s0.7,0.1,1.1,0.1
				c0.7,0.1,1.3,0.1,2,0.3c1.3,0.1,2.6,0.3,3.9,0.6c0.6,0.1,1.3,0.4,1.7,1c0.4,0.6,0.7,1.1,0.9,1.9c0.1,0.4,0.1,0.9,0.1,1.3l0.1,1
				c0,0.4,0.1,0.9,0.1,1.3c0,0.6,0.1,1,0.1,1.4l0.1,1.6c0,0.1,0,0.4,0,0.6c0,0.4,0.1,1,0.1,1.4l0.3,2.6c0.1,1.7,0.3,3.6,0.6,5.5
				l0.1,1.1l0.3,2.7c0,0.4,0.1,0.9,0.1,1.4c0,0.4,0,0.7,0.1,1.1c0,0.7,0.1,1.3,0.1,2c0.1,2.6,0.3,5.2,0.4,7.9v1.3v1.1
				c0,0.4,0,0.9,0,1.3c0,0.6,0,1,0,1.4v1.6c0,0.6,0,0.9,0,1.3c0,0.4,0,0.9,0,1.3c0,0.3,0,0.4,0,0.6C120.9,146.7,120.9,147,120.7,147
				C120.7,147.2,120.7,147.1,120.7,147z"/>
		</g>
	</g>
	<g id="XMLID_1934_">
		<g id="XMLID_1935_">
			<g id="XMLID_1936_">
				<path id="XMLID_1937_" class="st2" d="M144.7,169.9c0.1,0,0.4-0.1,0.4-0.4c0-23.6,19.3-42.8,42.8-42.8
					c11.4,0,22.1,4.5,30.2,12.5c0.1,0.1,0.4,0.1,0.6,0c0.1-0.1,0.1-0.4,0-0.6c-8.2-8.2-19.1-12.8-30.8-12.8
					c-24,0-43.5,19.5-43.5,43.5C144.3,169.8,144.4,169.9,144.7,169.9z"/>
			</g>
		</g>
	</g>
	<path class="st3" d="M78.9,163.5l2.3-3.6c-3.4-2.2-5.5-5-6.2-8.3c-0.7-3.7,0.7-7.3,2.3-9.5l-3.4-2.6c-2.7,3.6-3.9,8.3-3,12.8
		C71.7,156.9,74.5,160.6,78.9,163.5z"/>
	<path class="st2" d="M73.2,172.1c0-0.3-0.1-0.6-0.4-0.7c0-1-0.1-2-0.1-3c0.3-0.1,0.4-0.4,0.3-0.7c0-0.3-0.3-0.6-0.6-0.6
		c-0.1-1-0.3-2-0.6-2.9c0.3-0.1,0.3-0.4,0.3-0.7c-0.1-0.3-0.3-0.4-0.6-0.6c-0.3-1-0.6-1.9-0.9-2.9c0.1-0.1,0.3-0.4,0.1-0.7
		c-0.1-0.3-0.3-0.4-0.6-0.4c-0.4-0.9-0.9-1.9-1.3-2.7c0.1-0.1,0.1-0.6,0.1-0.7c0-0.1-0.4-0.4-0.7-0.4c-0.4-0.9-1-1.7-1.6-2.6
		c0.1-0.3,0.1-0.6,0-0.7c-0.1-0.3-0.4-0.3-0.7-0.3c-0.6-0.9-1.1-1.6-1.9-2.4c0.1-0.3,0.1-0.6-0.1-0.7c-0.1-0.1-0.4-0.3-0.7-0.1
		c-0.7-0.7-1.4-1.4-2.2-2.2c0.1-0.3,0-0.6-0.1-0.7c-0.1-0.1-0.4-0.1-0.7-0.1c-0.7-0.7-1.6-1.3-2.4-1.9c0-0.3,0-0.6-0.3-0.7
		c-0.3-0.1-0.6-0.1-0.7,0c-0.9-0.6-1.7-1.1-2.6-1.6c0-0.3-0.1-0.6-0.4-0.7c-0.3-0.1-0.6-0.1-0.7,0c-0.9-0.4-1.7-0.9-2.7-1.3
		c0-0.3-0.1-0.6-0.4-0.6c-0.3-0.1-0.6,0-0.7,0.1c-1-0.3-1.9-0.7-2.9-0.9c0-0.3-0.3-0.6-0.6-0.6c-0.3,0-0.6,0-0.7,0.3
		c-1-0.3-1.9-0.4-2.9-0.6c-0.1-0.3-0.3-0.4-0.6-0.6c-0.3,0-0.6,0.1-0.7,0.3c-1-0.1-2-0.1-3-0.1c-0.1-0.3-0.3-0.4-0.6-0.4l0,0l0,0
		l0,0c-0.3,0-0.6,0.1-0.6,0.4c-1,0-2,0-3,0.1c-0.1-0.1-0.4-0.3-0.7-0.3s-0.6,0.3-0.6,0.4c-1,0.1-2,0.3-3,0.4
		c-0.1-0.1-0.4-0.3-0.7-0.3c-0.3,0-0.4,0.3-0.6,0.6c-1,0.3-1.9,0.6-2.9,0.9c-0.1-0.1-0.4-0.3-0.7-0.1c-0.3,0.1-0.4,0.3-0.4,0.6
		c-1,0.3-1.9,0.7-2.7,1.1c-0.1-0.1-0.6-0.3-0.7-0.1c-0.3,0.1-0.4,0.4-0.4,0.6c-0.9,0.4-1.7,1-2.6,1.4c-0.3-0.1-0.6-0.1-0.7,0
		c-0.3,0.1-0.3,0.4-0.3,0.7c-0.9,0.6-1.7,1.1-2.4,1.7c-0.3-0.1-0.4-0.1-0.7,0s-0.3,0.4-0.1,0.7c-0.9,0.7-1.6,1.4-2.3,2.2
		c-0.3-0.1-0.6,0-0.7,0.1c-0.1,0.1-0.1,0.4-0.1,0.7c-0.7,0.7-1.3,1.6-2,2.3c-0.3,0-0.6,0-0.7,0.3c-0.1,0.3-0.1,0.6,0,0.7
		c-0.6,0.9-1.1,1.6-1.7,2.6c-0.3,0-0.6,0.1-0.7,0.3c-0.1,0.3-0.1,0.6,0,0.7c-0.4,0.9-1,1.7-1.4,2.7c-0.3,0-0.4,0.1-0.6,0.4
		c-0.1,0.3,0,0.6,0.1,0.7c-0.4,0.9-0.7,1.9-1,2.9c-0.3,0-0.4,0.1-0.6,0.4c-0.1,0.3,0,0.6,0.3,0.7c-0.3,1-0.4,2-0.7,2.9
		c-0.3,0-0.4,0.3-0.6,0.6s0.1,0.6,0.3,0.7c-0.1,1-0.3,2-0.3,3C0.1,170,0,170.1,0,170.4s0.1,0.6,0.4,0.7c0,0.1,0,0.3,0,0.4
		c0,0.9,0,1.7,0,2.6c-0.3,0.1-0.4,0.4-0.4,0.7c0,0.3,0.1,0.4,0.4,0.6l0,0c0.1,1,0.3,2,0.4,3c-0.3,0.1-0.3,0.4-0.3,0.7
		c0,0.3,0.1,0.4,0.4,0.6h0.1c0.1,1,0.4,2,0.7,3c-0.1,0.1-0.3,0.4-0.1,0.7l0,0c0,0.1,0.1,0.3,0.4,0.4c0,0,0.1,0,0.3,0
		c0.3,1,0.7,1.9,1,2.9c-0.1,0.1-0.3,0.6-0.1,0.7c0,0.1,0.1,0.3,0.3,0.3c0.1,0,0.1,0,0.3,0c0.4,0.9,0.9,1.7,1.4,2.6
		c-0.1,0.3-0.1,0.6,0,0.7s0.1,0.1,0.3,0.3c0.1,0,0.3,0,0.4,0c0.6,0.9,1.1,1.7,1.7,2.6c-0.1,0.3-0.1,0.6,0,0.7s0.1,0.1,0.3,0.1
		c0.1,0,0.3,0,0.4,0c0.6,0.9,1.3,1.6,2,2.3c-0.1,0.3,0,0.6,0.1,0.7l0.1,0.1c0.1,0.1,0.3,0,0.6,0c0.7,0.7,1.4,1.4,2.3,2
		c0,0.3,0,0.6,0.1,0.7c0,0,0.1,0,0.1,0.1c0.1,0.1,0.4,0,0.6,0c0.9,0.6,1.6,1.1,2.4,1.7c0,0.3,0.1,0.6,0.3,0.7c0,0,0,0,0.1,0
		c0.3,0.1,0.4,0,0.7-0.1c0.9,0.6,1.7,1,2.7,1.4c0,0.3,0.1,0.6,0.4,0.7l0,0c0.3,0.1,0.6,0,0.7-0.1c1,0.4,1.9,0.7,2.9,1.1
		c0,0.3,0.1,0.4,0.3,0.6c0,0,0,0,0.1,0c0.3,0.1,0.6,0,0.7-0.1c1,0.3,1.9,0.6,2.9,0.7c0,0.1,0.1,0.4,0.3,0.4h0.1c0.3,0,0.6,0,0.7-0.3
		c1,0.1,2,0.3,3,0.4c0,0.1,0.1,0.3,0.3,0.4c0.1,0,0.1,0,0.3,0c0.3,0,0.6-0.1,0.7-0.4c0.6,0,1,0.1,1.6,0.1c0.4,0,1,0,1.4,0
		c0.1,0.1,0.1,0.3,0.3,0.3c0.1,0,0.1,0,0.3,0c0.3,0,0.6-0.1,0.6-0.4c1,0,2-0.1,3-0.3c0.1,0.1,0.1,0.1,0.3,0.3c0.1,0.1,0.3,0.1,0.4,0
		c0.3,0,0.4-0.3,0.6-0.6c1-0.1,2-0.4,3-0.7c0.1,0.1,0.1,0.1,0.3,0.1c0.1,0,0.3,0.1,0.4,0c0.3,0,0.4-0.3,0.4-0.6c1-0.3,2-0.6,2.9-1
		l0.1,0.1c0.1,0.1,0.4,0.1,0.6,0c0.3-0.1,0.4-0.4,0.4-0.7c0.9-0.4,1.9-0.9,2.7-1.3c0,0,0,0,0.1,0.1c0.1,0.1,0.4,0.1,0.6,0
		c0.3-0.1,0.4-0.4,0.3-0.7c0.9-0.6,1.7-1,2.6-1.6l0,0c0.3,0.1,0.4,0.1,0.7,0c0.3-0.1,0.3-0.4,0.3-0.7c0.9-0.6,1.6-1.3,2.3-2
		c0.3,0.1,0.6,0,0.7-0.1c0.1-0.1,0.3-0.4,0.1-0.7c0.7-0.7,1.4-1.4,2.2-2.3c0.3,0,0.6,0,0.7-0.1s0.3-0.6,0.1-0.7
		c0.6-0.7,1.3-1.6,1.9-2.4c0.3,0,0.6,0,0.7-0.3s0.1-0.6,0-0.7c0.6-0.9,1-1.7,1.6-2.6c0.3,0,0.6-0.1,0.7-0.4s0.1-0.6-0.1-0.7
		c0.4-0.9,0.9-1.9,1.1-2.7c0.3,0,0.6-0.1,0.6-0.4c0.1-0.3,0-0.6-0.1-0.7c0.3-1,0.6-1.9,0.9-2.9c0.3,0,0.4-0.3,0.6-0.6
		c0-0.3,0-0.6-0.3-0.7c0.3-1,0.4-2,0.6-3c0.3-0.1,0.4-0.3,0.4-0.6s-0.1-0.6-0.3-0.7c0.1-0.9,0.1-1.7,0.1-2.6c0-0.1,0-0.3,0-0.3
		C73,172.7,73.2,172.4,73.2,172.1z M11.6,171.8c0.3-13.8,11.6-24.7,25.4-24.4c13.8,0.3,24.7,11.6,24.4,25.4
		c-0.3,13.8-11.6,24.7-25.4,24.4S11.4,185.6,11.6,171.8z"/>
	<path class="st4" d="M36.8,157.9c-8-0.1-14.7,6.2-14.8,14.2c-0.1,7.9,6.2,14.5,14.1,14.8c8,0.1,14.7-6.2,14.8-14.2
		C51.2,164.6,44.8,158,36.8,157.9z"/>
	<g>
		<path class="st2" d="M87.5,154c0.1,0,0.1,0,0.3,0s0.1,0,0.3,0c0.1,0,0.1,0,0.3-0.1c0.1,0,0.1-0.1,0.1-0.3c0.1-0.1,0.1-0.3,0-0.6
			s-0.3-0.4-0.6-0.4c-0.1,0-0.1,0-0.3,0c-0.1,0-0.1,0-0.3,0.1c-0.1,0-0.1,0.1-0.1,0.1c0,0.1-0.1,0.1-0.1,0.3s0,0.1,0,0.3
			c0,0.1,0.1,0.1,0.1,0.3C87.4,153.9,87.4,154,87.5,154z"/>
		<path class="st2" d="M29.8,185.9L29.8,185.9L29.8,185.9L29.8,185.9L29.8,185.9L29.8,185.9c-0.3-0.1-0.4-0.6-0.3-1l0,0
			c-0.1,0.3-0.6,0.4-1,0.3l0,0l0,0l0,0c-0.3-0.1-0.4-0.7-0.3-1l0,0c-0.3,0.3-0.7,0.4-1,0.1l0,0l0,0l0,0c-0.3-0.3-0.3-0.7-0.1-1l0,0
			l0,0l0,0l0,0l0,0c-0.3,0.3-0.7,0.3-1,0l0,0l0,0l0,0c-0.3-0.3-0.3-0.7,0-1l0,0c-0.3,0.3-0.7,0.3-1,0l0,0c-0.3-0.3-0.3-0.7,0-1l0,0
			c-0.3,0.3-0.7,0.1-1-0.1l0,0c-0.3-0.3-0.1-0.7,0.1-1l0,0c-0.3,0.1-0.7,0.1-1-0.3l0,0l0,0l0,0c-0.1-0.3-0.1-0.7,0.3-1l0,0
			c-0.3,0.1-0.7,0-1-0.3l0,0c-0.1-0.3,0-0.7,0.3-0.9l0,0l0,0l0,0l0,0l0,0c-0.4,0.1-0.7,0-0.9-0.4l0,0l0,0l0,0
			c-0.1-0.4,0.1-0.7,0.4-0.9l0,0c-0.4,0.1-0.7-0.1-0.9-0.6l0,0l0,0l0,0c-0.1-0.4,0.1-0.7,0.6-0.9l0,0l0,0l0,0l0,0l0,0
			c-0.4,0-0.7-0.1-0.9-0.6l0,0c0-0.4,0.3-0.7,0.6-0.9l0,0c-0.4,0-0.7-0.3-0.7-0.7l0,0c0-0.4,0.3-0.7,0.7-0.7l0,0
			c-0.4,0-0.7-0.3-0.7-0.7l0,0l0,0l0,0c0-0.4,0.3-0.7,0.7-0.7l0,0c-0.4,0-0.6-0.4-0.6-0.9l0,0c0-0.4,0.4-0.7,0.9-0.6l0,0l0,0l0,0
			l0,0l0,0c-0.4-0.1-0.6-0.4-0.4-0.9l0,0l0,0l0,0c0.1-0.4,0.4-0.6,0.9-0.6l0,0c-0.3-0.1-0.6-0.6-0.4-0.9l0,0l0,0l0,0
			c0.1-0.3,0.6-0.6,0.9-0.4l0,0c-0.3-0.1-0.4-0.6-0.3-0.9l0,0c0.1-0.3,0.6-0.6,1-0.3l0,0c-0.3-0.1-0.4-0.6-0.3-1l0,0
			c0.1-0.3,0.6-0.4,1-0.3l0,0c-0.3-0.3-0.4-0.7-0.1-1l0,0c0.3-0.3,0.7-0.4,1-0.1l0,0c-0.3-0.3-0.3-0.7,0-1l0,0c0.3-0.3,0.7-0.3,1,0
			l0,0l0,0l0,0l0,0l0,0c-0.3-0.3-0.3-0.7,0-1l0,0c0.3-0.3,0.7-0.3,1,0l0,0l0,0l0,0l0,0l0,0c-0.3-0.3-0.1-0.7,0.1-1l0,0l0,0l0,0
			c0.3-0.3,0.7-0.1,1,0.1l0,0l0,0l0,0l0,0l0,0c-0.1-0.3-0.1-0.7,0.3-1l0,0l0,0l0,0c0.3-0.1,0.7-0.1,1,0.3l0,0
			c-0.1-0.3,0-0.7,0.3-0.9l0,0c0.3-0.1,0.7,0,1,0.3l0,0l0,0l0,0l0,0l0,0c-0.1-0.4,0-0.7,0.4-0.9l0,0c0.3-0.1,0.7,0,0.9,0.4l0,0
			c-0.1-0.4,0.1-0.7,0.6-0.9l0,0c0.4-0.1,0.7,0.1,0.9,0.6l0,0l0,0l0,0l0,0l0,0c0-0.4,0.3-0.7,0.6-0.7l0,0c0.4,0,0.7,0.3,0.7,0.6l0,0
			c0-0.4,0.3-0.7,0.6-0.7l0,0c0.4,0,0.7,0.3,0.7,0.6l0,0c0-0.4,0.3-0.7,0.6-0.7l0,0c0.4,0,0.7,0.3,0.7,0.6l0,0
			c0-0.4,0.3-0.7,0.6-0.7l0,0c0.4,0,0.7,0.3,0.7,0.6l0,0c0-0.4,0.3-0.7,0.6-0.7l0,0c0.4,0,0.7,0.3,0.7,0.6l0,0
			c0-0.4,0.3-0.7,0.6-0.7l0,0c0.4,0,0.7,0.3,0.7,0.7l0,0c0,0.4-0.3,0.7-0.6,0.7l0,0c-0.4,0-0.7-0.3-0.7-0.6l0,0
			c0,0.4-0.3,0.7-0.6,0.7l0,0c-0.4,0-0.7-0.3-0.7-0.6l0,0c0,0.4-0.3,0.7-0.6,0.7l0,0c-0.4,0-0.7-0.3-0.7-0.6l0,0
			c0,0.4-0.3,0.7-0.6,0.7l0,0c-0.4,0-0.7-0.3-0.7-0.6l0,0c0,0.4-0.3,0.7-0.6,0.7l0,0c-0.4,0-0.7-0.3-0.7-0.6l0,0
			c0,0.4-0.3,0.7-0.6,0.7l0,0c-0.3,0-0.7-0.1-0.7-0.6l0,0c0,0.3-0.1,0.7-0.6,0.7l0,0c-0.3,0.1-0.7-0.1-0.9-0.4l0,0
			c0.1,0.3-0.1,0.7-0.4,0.9l0,0c-0.3,0.1-0.7,0-0.9-0.4l0,0c0.1,0.3,0,0.7-0.3,0.9l0,0c-0.3,0.1-0.7,0-0.9-0.3l0,0
			c0.1,0.3,0,0.7-0.3,0.9l0,0c-0.3,0.1-0.7,0.1-1-0.1l0,0c0.1,0.3,0.1,0.7-0.1,0.9l0,0c-0.3,0.3-0.7,0.1-1-0.1l0,0
			c0.3,0.3,0.1,0.7-0.1,1l0,0c-0.3,0.3-0.7,0.3-1,0l0,0c0.3,0.3,0.3,0.7,0,1l0,0c-0.3,0.3-0.7,0.3-1,0.1l0,0c0.3,0.3,0.3,0.7,0.1,1
			l0,0c-0.3,0.3-0.6,0.4-1,0.1l0,0c0.3,0.1,0.4,0.6,0.1,0.9l0,0c-0.1,0.3-0.6,0.4-0.9,0.3l0,0c0.3,0.1,0.4,0.6,0.3,0.9l0,0
			c-0.1,0.3-0.6,0.4-0.9,0.3l0,0c0.3,0.1,0.4,0.6,0.3,0.9l0,0c-0.1,0.3-0.4,0.6-0.9,0.4l0,0c0.3,0.1,0.6,0.4,0.4,0.9l0,0
			c-0.1,0.3-0.4,0.6-0.9,0.6l0,0c0.3,0.1,0.6,0.4,0.6,0.7l0,0c0,0.3-0.4,0.6-0.7,0.6l0,0c0.3,0,0.6,0.4,0.6,0.7l0,0
			c0,0.3-0.3,0.7-0.7,0.7l0,0c0.3,0,0.6,0.3,0.7,0.7l0,0c0,0.3-0.3,0.7-0.6,0.7l0,0c0.3,0,0.7,0.3,0.7,0.6l0,0
			c0,0.4-0.1,0.7-0.6,0.7l0,0c0.3,0,0.7,0.1,0.9,0.6l0,0c0.1,0.3-0.1,0.7-0.4,0.9l0,0c0.3-0.1,0.7,0.1,0.9,0.4l0,0
			c0.1,0.3,0,0.7-0.4,0.9l0,0c0.3-0.1,0.7,0,0.9,0.4l0,0c0.1,0.3,0,0.7-0.3,0.9l0,0c0.3-0.1,0.7,0,0.9,0.3l0,0
			c0.1,0.3,0.1,0.7-0.1,0.9l0,0c0.3-0.1,0.7-0.1,1,0.1l0,0c0.3,0.3,0.1,0.7-0.1,1l0,0c0.3-0.1,0.7-0.1,1,0.1l0,0
			c0.3,0.3,0.3,0.7,0,1l0,0c0.3-0.3,0.7-0.3,1,0l0,0c0.3,0.3,0.3,0.7,0.1,1l0,0c0.3-0.3,0.7-0.3,1-0.1l0,0c0.3,0.1,0.3,0.6,0.1,0.9
			l0,0c0.3-0.3,0.6-0.4,1-0.1l0,0c0.3,0.1,0.4,0.6,0.3,0.9l0,0c0.1-0.3,0.6-0.4,0.9-0.3l0,0c0.3,0.1,0.4,0.6,0.3,0.9l0,0
			c0.1-0.3,0.6-0.4,0.9-0.3l0,0c0.3,0.1,0.6,0.6,0.4,0.9l0,0c0.1-0.3,0.4-0.6,0.9-0.4l0,0c0.3,0.1,0.6,0.4,0.6,0.7l0,0
			c0.1-0.3,0.4-0.6,0.9-0.6l0,0c0.4,0,0.6,0.4,0.6,0.7l0,0c0-0.3,0.4-0.6,0.7-0.6l0,0c0.4,0,0.6,0.3,0.7,0.7l0,0
			c0-0.3,0.3-0.6,0.7-0.7l0,0c0.3,0,0.7,0.3,0.7,0.6l0,0c0-0.3,0.3-0.7,0.6-0.7l0,0c0.3,0,0.6,0.1,0.7,0.4l0,0
			c0-0.3,0.1-0.6,0.4-0.7l0,0c0.3-0.1,0.7,0,0.9,0.3l0,0c-0.1-0.3,0-0.7,0.4-0.9l0,0c0.3-0.1,0.7,0,0.9,0.3l0,0
			c-0.1-0.3,0-0.7,0.4-0.9l0,0c0.3-0.1,0.7,0,0.9,0.3l0,0c-0.1-0.3,0-0.7,0.4-0.9l0,0c0.3-0.1,0.7,0,0.9,0.3l0,0
			c-0.1-0.3,0-0.7,0.4-0.9l0,0c0.3-0.1,0.7,0,0.9,0.3l0,0c-0.1-0.3,0-0.7,0.4-0.9l0,0c0.3-0.1,0.7,0,0.9,0.3l0,0
			c-0.1-0.3,0-0.7,0.4-0.9l0,0c0.3-0.1,0.7,0,0.9,0.3l0,0c-0.1-0.3,0-0.7,0.4-0.9l0,0c0.3-0.1,0.7,0,0.9,0.4l0,0
			c-0.1-0.3,0-0.7,0.4-0.9l0,0c0.3-0.1,0.7,0,0.9,0.3l0,0c-0.1-0.3,0-0.7,0.4-0.9l0,0c0.3-0.1,0.7,0,0.9,0.3l0,0
			c-0.1-0.3,0-0.7,0.4-0.9l0,0c0.3-0.1,0.7,0,0.9,0.3l0,0c-0.1-0.3,0-0.7,0.4-0.9l0,0c0.3-0.1,0.7,0,0.9,0.3l0,0
			c-0.1-0.3,0-0.7,0.4-0.9l0,0c0.3-0.1,0.7,0,0.9,0.3l0,0c-0.1-0.3,0-0.7,0.4-0.9l0,0c0.3-0.1,0.7,0,0.9,0.3l0,0
			c-0.1-0.3,0-0.7,0.4-0.9l0,0c0.3-0.1,0.7,0,0.9,0.3l0,0c-0.1-0.3,0-0.7,0.4-0.9l0,0c0.3-0.1,0.7,0,0.9,0.3l0,0
			c-0.1-0.3,0-0.7,0.4-0.9l0,0c0.3-0.1,0.7,0,0.9,0.3l0,0c-0.1-0.3,0-0.7,0.4-0.9l0,0c0.3-0.1,0.7,0,1,0.4l0,0
			c-0.1-0.3,0-0.7,0.4-0.9l0,0c0.3-0.1,0.7,0,0.9,0.3l0,0c-0.1-0.3,0-0.7,0.4-0.9l0,0c0.3-0.1,0.7,0,0.9,0.3l0,0
			c-0.1-0.3,0-0.7,0.4-0.9l0,0c0.3-0.1,0.7,0,0.9,0.3l0,0c-0.1-0.3,0-0.7,0.4-0.9l0,0c0.3-0.1,0.7,0,0.9,0.3l0,0
			c-0.1-0.3,0-0.7,0.4-0.9l0,0c0.3-0.1,0.7,0,0.9,0.3l0,0c-0.1-0.3,0-0.7,0.4-0.9l0,0c0.3-0.1,0.7,0,0.9,0.4l0,0
			c-0.1-0.3,0-0.7,0.4-0.9l0,0c0.3-0.1,0.7,0,0.9,0.4l0,0c-0.1-0.3,0-0.7,0.4-0.9l0,0c0.3-0.1,0.7,0,0.9,0.3l0,0
			c-0.1-0.3,0-0.7,0.4-0.9l0,0c0.3-0.1,0.7,0,0.9,0.3l0,0c-0.1-0.3,0-0.7,0.4-0.9l0,0c0.3-0.1,0.7,0,0.9,0.3l0,0
			c-0.1-0.3,0-0.7,0.4-0.9l0,0c0.3-0.1,0.7,0,0.9,0.3l0,0c-0.1-0.3,0-0.7,0.4-0.9l0,0c0.3-0.1,0.7,0,0.9,0.3l0,0
			c-0.1-0.3,0-0.7,0.4-0.9l0,0c0.3-0.1,0.7,0,0.9,0.3l0,0c-0.1-0.3,0-0.7,0.4-0.9l0,0c0.3-0.1,0.7,0,0.9,0.3l0,0
			c-0.1-0.3,0-0.7,0.4-0.9l0,0c0.3-0.1,0.7,0,0.9,0.3l0,0c-0.1-0.3,0-0.7,0.4-0.9l0,0c0.3-0.1,0.7,0,0.9,0.4l0,0
			c-0.1-0.3,0-0.7,0.4-0.9l0,0c0.3-0.1,0.7,0,0.9,0.4l0,0c-0.1-0.3,0-0.7,0.4-0.9l0,0c0.3-0.1,0.7,0,0.9,0.3l0,0
			c-0.1-0.3,0-0.7,0.4-0.9l0,0c0.3-0.1,0.7,0,0.9,0.3l0,0c-0.1-0.3,0-0.7,0.4-0.9l0,0c0.3-0.1,0.7,0,0.9,0.3l0,0
			c-0.1-0.3,0-0.7,0.4-0.9l0,0c0.3-0.1,0.7,0,0.9,0.3l0,0c-0.1-0.3,0-0.7,0.4-0.9l0,0c0.3-0.1,0.7,0,0.9,0.4l0,0
			c0.1,0.3,0,0.7-0.4,0.9l0,0c-0.3,0.1-0.7,0-0.9-0.3l0,0c0.1,0.3,0,0.7-0.4,0.9l0,0c-0.3,0.1-0.7,0-0.9-0.3l0,0
			c0.1,0.3,0,0.7-0.4,0.9l0,0c-0.3,0.1-0.7,0-0.9-0.3l0,0c0.1,0.3,0,0.7-0.4,0.9l0,0c-0.3,0.1-0.7,0-0.9-0.3l0,0
			c0.1,0.3,0,0.7-0.4,0.9l0,0c-0.3,0.1-0.7,0-0.9-0.4l0,0c0.1,0.3,0,0.7-0.4,0.9l0,0c-0.3,0.1-0.7,0-0.9-0.4l0,0
			c0.1,0.3,0,0.7-0.4,0.9l0,0c-0.3,0.1-0.7,0-0.9-0.3l0,0c0.1,0.3,0,0.7-0.4,0.9l0,0c-0.3,0.1-0.7,0-0.9-0.3l0,0
			c0.1,0.3,0,0.7-0.4,0.9l0,0c-0.3,0.1-0.7,0-0.9-0.3l0,0c0.1,0.3,0,0.7-0.4,0.9l0,0c-0.3,0.1-0.7,0-0.9-0.3l0,0
			c0.1,0.3,0,0.7-0.4,0.9l0,0c-0.3,0.1-0.7,0-0.9-0.3l0,0c0.1,0.3,0,0.7-0.4,0.9l0,0c-0.3,0.1-0.7,0-0.9-0.3l0,0
			c0.1,0.3,0,0.7-0.4,0.9l0,0c-0.3,0.1-0.7,0-0.9-0.3l0,0c0.1,0.3,0,0.7-0.4,0.9l0,0c-0.3,0.1-0.7,0-0.9-0.3l0,0
			c0.1,0.3,0,0.7-0.4,0.9l0,0c-0.3,0.1-0.7,0-0.9-0.4l0,0c0.1,0.3,0,0.7-0.4,0.9l0,0c-0.3,0.1-0.7,0-0.9-0.4l0,0
			c0.1,0.3,0,0.7-0.4,0.9l0,0c-0.3,0.1-0.7,0-0.9-0.3l0,0c0.1,0.3,0,0.7-0.4,0.9l0,0c-0.3,0.1-0.7,0-0.9-0.3l0,0
			c0.1,0.3,0,0.7-0.4,0.9l0,0c-0.3,0.1-0.7,0-0.9-0.3l0,0c0.1,0.3,0,0.7-0.4,0.9l0,0c-0.3,0.1-0.7,0-0.9-0.3l0,0
			c0.1,0.3,0,0.7-0.4,0.9l0,0c-0.3,0.1-0.7,0-0.9-0.3l0,0c0.1,0.3,0,0.7-0.4,0.9l0,0c-0.3,0.1-0.7,0-0.9-0.4l0,0
			c0.1,0.3,0,0.7-0.4,0.9l0,0c-0.3,0.1-0.7,0-0.9-0.3l0,0c0.1,0.3,0,0.7-0.4,0.9l0,0c-0.3,0.1-0.7,0-0.9-0.3l0,0
			c0.1,0.3,0,0.7-0.4,0.9l0,0c-0.3,0.1-0.7,0-0.9-0.3l0,0c0.1,0.3,0,0.7-0.4,0.9l0,0c-0.3,0.1-0.7,0-0.9-0.3l0,0
			c0.1,0.3,0,0.7-0.4,0.9l0,0c-0.3,0.1-0.7,0-0.9-0.3l0,0c0.1,0.3,0,0.7-0.4,0.9l0,0c-0.3,0.1-0.7,0-0.9-0.3l0,0
			c0.1,0.3,0,0.7-0.4,0.9l0,0c-0.3,0.1-0.7,0-0.9-0.3l0,0c0.1,0.3,0,0.7-0.4,0.9l0,0c-0.3,0.1-0.7,0-0.9-0.3l0,0
			c0.1,0.3,0,0.7-0.4,0.9l0,0c-0.3,0.1-0.7,0-0.9-0.3l0,0c0.1,0.3,0,0.7-0.4,0.9l0,0c-0.3,0.1-0.7,0-0.9-0.4l0,0
			c0.1,0.3,0,0.7-0.4,0.9l0,0c-0.3,0.1-0.7,0-0.9-0.3l0,0c0.1,0.3,0,0.7-0.4,0.9l0,0c-0.3,0.1-0.7,0-0.9-0.3l0,0
			c0.1,0.3,0,0.7-0.4,0.9l0,0c-0.3,0.1-0.7,0-0.9-0.3l0,0c0.1,0.3,0,0.7-0.4,0.9l0,0c-0.3,0.1-0.7,0-0.9-0.3l0,0
			c0.1,0.3,0,0.7-0.4,0.9l0,0c-0.3,0.1-0.7,0-0.9-0.3l0,0c0.1,0.3,0,0.7-0.4,0.9l0,0c-0.3,0.1-0.7,0-0.9-0.3l0,0
			c0.1,0.3,0,0.7-0.4,0.9l0,0c-0.3,0.1-0.7,0-0.9-0.3l0,0c0.1,0.3,0,0.7-0.4,0.9l0,0c-0.3,0.1-0.7,0-0.9-0.4l0,0l0,0l0,0
			c0,0.4-0.3,0.7-0.6,0.7l0,0l0,0l0,0c-0.4,0-0.7-0.3-0.9-0.6l0,0c0,0.4-0.3,0.7-0.7,0.7l0,0c-0.4,0-0.7-0.3-0.7-0.7l0,0
			c0,0.4-0.3,0.7-0.7,0.7l0,0c-0.4,0-0.7-0.3-0.7-0.7l0,0l0,0l0,0l0,0l0,0c-0.1,0.4-0.4,0.7-0.9,0.6l0,0c-0.4,0-0.6-0.4-0.6-0.9l0,0
			l0,0l0,0l0,0l0,0c-0.1,0.4-0.4,0.6-0.9,0.4l0,0c-0.4-0.1-0.6-0.4-0.4-0.9l0,0l0,0l0,0l0,0l0,0c-0.1,0.3-0.6,0.6-0.9,0.4l0,0l0,0
			l0,0c-0.3-0.1-0.6-0.6-0.4-0.9l0,0l0,0C30.6,186,30.2,186.2,29.8,185.9z M24.1,166.4L24.1,166.4L24.1,166.4L24.1,166.4L24.1,166.4
			z M42.5,158L42.5,158c-0.3-0.1-0.4-0.3-0.4-0.6l0,0c0-0.4,0.3-0.7,0.7-0.7l0,0c0.4,0,0.7,0.3,0.7,0.6l0,0c0,0.4-0.3,0.7-0.6,0.7
			C42.8,158,42.7,158,42.5,158z M44,157.9L44,157.9c-0.3-0.1-0.4-0.3-0.4-0.6l0,0c0-0.4,0.3-0.7,0.6-0.7l0,0c0.4,0,0.7,0.3,0.7,0.6
			l0,0c0-0.4,0.3-0.7,0.6-0.7l0,0c0.4,0,0.7,0.3,0.7,0.6l0,0c0-0.4,0.3-0.7,0.6-0.7l0,0c0.4,0,0.7,0.3,0.7,0.6l0,0
			c0-0.4,0.3-0.7,0.6-0.7l0,0c0.4,0,0.7,0.3,0.7,0.6l0,0c0,0.4-0.3,0.7-0.6,0.7l0,0c-0.4,0-0.7-0.3-0.7-0.6l0,0
			c0,0.4-0.3,0.7-0.6,0.7l0,0c-0.4,0-0.7-0.3-0.7-0.6l0,0c0,0.4-0.3,0.7-0.6,0.7l0,0c-0.4,0-0.7-0.3-0.7-0.6l0,0
			c0,0.4-0.3,0.7-0.6,0.7C44.1,157.9,44.1,157.9,44,157.9z M49.6,157.4L49.6,157.4c-0.3-0.1-0.4-0.3-0.4-0.6l0,0
			c0-0.4,0.3-0.7,0.6-0.7l0,0c0.4,0,0.7,0.3,0.7,0.6l0,0c0-0.4,0.3-0.7,0.6-0.7l0,0c0.4,0,0.7,0.3,0.7,0.6l0,0
			c0-0.4,0.3-0.7,0.6-0.7l0,0c0.4,0,0.7,0.3,0.7,0.6l0,0c0-0.4,0.3-0.7,0.6-0.7l0,0c0.4,0,0.7,0.3,0.7,0.6l0,0
			c0-0.4,0.3-0.7,0.6-0.7l0,0c0.4,0,0.7,0.3,0.7,0.7l0,0c0,0.4-0.3,0.7-0.6,0.7l0,0c-0.4,0-0.7-0.3-0.7-0.6l0,0
			c0,0.4-0.3,0.7-0.6,0.7l0,0c-0.4,0-0.7-0.3-0.7-0.6l0,0c0,0.4-0.3,0.7-0.6,0.7l0,0c-0.4,0-0.7-0.3-0.7-0.6l0,0
			c0,0.4-0.3,0.7-0.6,0.7l0,0c-0.4,0-0.7-0.3-0.7-0.6l0,0c0,0.4-0.3,0.7-0.6,0.7C49.7,157.4,49.7,157.4,49.6,157.4z M56.6,156.7
			L56.6,156.7c-0.3-0.1-0.4-0.3-0.4-0.6l0,0c0-0.4,0.3-0.7,0.6-0.7l0,0c0.4,0,0.7,0.3,0.7,0.6l0,0c0-0.4,0.3-0.7,0.6-0.7l0,0
			c0.4,0,0.7,0.3,0.7,0.6l0,0c0-0.4,0.3-0.7,0.6-0.7l0,0c0.4,0,0.7,0.3,0.7,0.6l0,0c0-0.4,0.3-0.7,0.6-0.7l0,0
			c0.4,0,0.7,0.3,0.7,0.6l0,0c0-0.4,0.3-0.7,0.6-0.7l0,0c0.4,0,0.7,0.3,0.7,0.6l0,0c0,0.4-0.3,0.7-0.6,0.7l0,0
			c-0.4,0-0.7-0.3-0.7-0.6l0,0c0,0.4-0.3,0.7-0.6,0.7l0,0c-0.4,0-0.7-0.3-0.7-0.6l0,0c0,0.4-0.3,0.7-0.6,0.7l0,0
			c-0.4,0-0.7-0.3-0.7-0.6l0,0c0,0.4-0.3,0.7-0.6,0.7l0,0c-0.4,0-0.7-0.3-0.7-0.6l0,0c0,0.4-0.3,0.7-0.6,0.7
			C56.8,156.9,56.6,156.9,56.6,156.7z M63.7,156.2L63.7,156.2c-0.3-0.1-0.4-0.3-0.4-0.6l0,0c0-0.4,0.3-0.7,0.6-0.7l0,0
			c0.4,0,0.7,0.3,0.7,0.6l0,0c0-0.4,0.3-0.7,0.6-0.7l0,0c0.4,0,0.7,0.3,0.7,0.6l0,0c0-0.4,0.3-0.7,0.6-0.7l0,0
			c0.4,0,0.7,0.3,0.7,0.6l0,0c0-0.4,0.3-0.7,0.6-0.7l0,0c0.4,0,0.7,0.3,0.7,0.7l0,0c0,0.4-0.3,0.7-0.6,0.7l0,0
			c-0.4,0-0.7-0.3-0.7-0.6l0,0c0,0.4-0.3,0.7-0.6,0.7l0,0c-0.4,0-0.7-0.3-0.7-0.6l0,0c0,0.4-0.3,0.7-0.6,0.7l0,0
			c-0.4,0-0.7-0.3-0.7-0.6l0,0c0,0.4-0.3,0.7-0.6,0.7C63.8,156.2,63.7,156.2,63.7,156.2z M69.3,155.6L69.3,155.6
			c-0.3-0.1-0.4-0.3-0.4-0.6l0,0c0-0.4,0.3-0.7,0.6-0.7l0,0c0.4,0,0.7,0.3,0.7,0.7l0,0c0,0.4-0.3,0.7-0.6,0.7
			C69.4,155.7,69.3,155.7,69.3,155.6z M70.6,155.4L70.6,155.4c-0.3-0.1-0.4-0.3-0.4-0.6l0,0c0-0.4,0.3-0.7,0.6-0.7l0,0
			c0.4,0,0.7,0.3,0.7,0.6l0,0c0-0.4,0.3-0.7,0.6-0.7l0,0c0.4,0,0.7,0.3,0.7,0.6l0,0c0-0.4,0.3-0.7,0.6-0.7l0,0
			c0.4,0,0.7,0.3,0.7,0.6l0,0c0-0.4,0.3-0.7,0.6-0.7l0,0c0.4,0,0.7,0.3,0.7,0.6l0,0c0,0.4-0.3,0.7-0.6,0.7l0,0
			c-0.4,0-0.7-0.3-0.7-0.6l0,0c0,0.4-0.3,0.7-0.6,0.7l0,0c-0.4,0-0.7-0.3-0.7-0.6l0,0c0,0.4-0.3,0.7-0.6,0.7l0,0
			c-0.4,0-0.7-0.3-0.7-0.6l0,0c0,0.4-0.3,0.7-0.6,0.7C70.9,155.6,70.7,155.6,70.6,155.4z M76.3,155L76.3,155
			c-0.3-0.1-0.4-0.3-0.4-0.6l0,0c0-0.4,0.3-0.7,0.6-0.7l0,0c0.4,0,0.7,0.3,0.7,0.6l0,0c0,0.4-0.3,0.7-0.6,0.7
			C76.5,155.1,76.3,155,76.3,155z M77.6,154.9L77.6,154.9c-0.3-0.1-0.4-0.3-0.4-0.6l0,0c0-0.4,0.3-0.7,0.6-0.7l0,0
			c0.4,0,0.7,0.3,0.7,0.6l0,0c0-0.4,0.3-0.7,0.6-0.7l0,0c0.4,0,0.7,0.3,0.7,0.6l0,0c0-0.4,0.3-0.7,0.6-0.7l0,0
			c0.4,0,0.7,0.3,0.7,0.6l0,0c0-0.4,0.3-0.7,0.6-0.7l0,0c0.4,0,0.7,0.3,0.7,0.7l0,0c0,0.4-0.3,0.7-0.6,0.7l0,0
			c-0.4,0-0.7-0.3-0.7-0.6l0,0c0,0.4-0.3,0.7-0.6,0.7l0,0c-0.4,0-0.7-0.3-0.7-0.6l0,0c0,0.4-0.3,0.7-0.6,0.7l0,0
			c-0.4,0-0.7-0.3-0.7-0.6l0,0c0,0.4-0.3,0.7-0.6,0.7C77.9,155,77.8,154.9,77.6,154.9z M83.2,154.4L83.2,154.4
			c-0.3-0.1-0.4-0.3-0.4-0.6l0,0c0-0.4,0.3-0.7,0.6-0.7l0,0c0.4,0,0.7,0.3,0.7,0.6l0,0c0-0.4,0.3-0.7,0.6-0.7l0,0
			c0.4,0,0.7,0.3,0.7,0.6l0,0c0-0.4,0.3-0.7,0.6-0.7l0,0c0.4,0,0.7,0.3,0.7,0.7l0,0c0,0.4-0.3,0.7-0.6,0.7l0,0
			c-0.4,0-0.7-0.3-0.7-0.6l0,0c0,0.4-0.3,0.7-0.6,0.7l0,0c-0.4,0-0.7-0.3-0.7-0.6l0,0c0,0.4-0.3,0.7-0.6,0.7
			C83.5,154.4,83.4,154.4,83.2,154.4z"/>
		<path class="st2" d="M91.4,165.2c0.1,0,0.3,0.1,0.6,0c0.1,0,0.3-0.1,0.4-0.3c0.1-0.1,0.1-0.3,0-0.6c-0.1-0.3-0.6-0.6-0.9-0.4
			c-0.1,0-0.3,0.1-0.4,0.3c-0.1,0.1-0.1,0.3,0,0.6C91.1,164.9,91.3,165.1,91.4,165.2z"/>
	</g>
	<path class="st5" d="M67.3,136.6l16.1,13.2c0.6,0.4,1,1.1,1.1,2l1.6,12.1c0.1,1.1,1,2.2,2.2,2.4l19.3,6.2c0.7,0.1,1.4,0.1,2.2-0.1
		l19.5-8c0.9-0.3,1.4-1,1.7-1.9l7.6-24c0.4-1.3-13.7-3.3-13.2-4.6l2-5.2c0.6-1.6-0.1-3.3-1.7-3.9l-23.6-9.6
		c-0.9-0.3-1.7-0.3-2.6,0.1l-31.6,16.2C65.8,132.4,65.5,135.2,67.3,136.6z"/>
	<path class="st5" d="M90.5,163.9l-51.7,11.6c-1.9,0.4-3.7-0.7-4.2-2.7l0,0c-0.4-1.9,0.7-3.7,2.6-4.2L89,157
		c1.9-0.4,3.7,0.7,4.2,2.7l0,0C93.6,161.6,92.4,163.5,90.5,163.9z"/>
	<path class="st2" d="M226.8,170.5c0-0.3-0.1-0.4-0.3-0.6c0-1,0-2-0.1-3c0.1-0.1,0.3-0.4,0.3-0.6c0-0.3-0.1-0.4-0.4-0.6
		c-0.1-1-0.3-2-0.4-3c0.1-0.1,0.3-0.4,0.3-0.7c0-0.3-0.3-0.4-0.6-0.6c-0.1-1-0.4-2-0.7-2.9c0.1-0.1,0.3-0.4,0.1-0.7
		c-0.1-0.3-0.3-0.4-0.6-0.4c-0.3-1-0.7-1.9-1.1-2.9c0.1-0.1,0.1-0.4,0.1-0.7l0,0c-0.1-0.3-0.3-0.4-0.6-0.4c-0.4-0.9-0.9-1.7-1.4-2.7
		c0.1-0.1,0.1-0.6,0-0.7c-0.1-0.1-0.4-0.3-0.6-0.3c-0.6-0.9-1.1-1.7-1.7-2.6c0.1-0.3,0.1-0.4,0-0.7c-0.1-0.1-0.4-0.3-0.6-0.3
		c-0.6-0.9-1.3-1.6-2-2.3c0.1-0.3,0-0.4-0.1-0.7s-0.4-0.1-0.7-0.1c-0.7-0.7-1.4-1.4-2.3-2.2c0-0.3,0-0.4-0.1-0.6
		c-0.1-0.1-0.4-0.1-0.7,0c-0.9-0.7-1.6-1.3-2.4-1.9c0-0.3-0.1-0.4-0.3-0.7c-0.3-0.1-0.6-0.1-0.7,0c-0.9-0.6-1.7-1-2.6-1.6
		c0-0.3-0.1-0.6-0.4-0.6c-0.3-0.1-0.6-0.1-0.7,0c-0.9-0.4-1.9-0.9-2.7-1.3c0-0.3-0.1-0.4-0.4-0.6s-0.6,0-0.7,0.1
		c-1-0.3-1.9-0.6-2.9-0.9c0-0.3-0.3-0.4-0.6-0.6c-0.3,0-0.6,0-0.7,0.1c-1-0.3-2-0.4-3-0.6c-0.1-0.3-0.3-0.4-0.6-0.4
		c-0.3,0-0.4,0-0.6,0.3c-1-0.1-2-0.1-3-0.1c-0.1-0.1-0.3-0.4-0.6-0.4l0,0l0,0c-0.3,0-0.4,0.1-0.6,0.3c-1,0-2,0-3,0.1
		c-0.1-0.1-0.4-0.3-0.6-0.3c-0.3,0-0.4,0.1-0.6,0.4c-1,0.1-2,0.3-3,0.4c-0.1-0.1-0.4-0.3-0.6-0.3c-0.3,0-0.4,0.3-0.6,0.6
		c-1,0.1-2,0.4-3,0.7c-0.1-0.1-0.4-0.3-0.7-0.1s-0.4,0.3-0.4,0.6c-1,0.3-1.9,0.7-2.9,1.1c-0.1-0.1-0.4-0.1-0.7-0.1
		c-0.3,0.1-0.4,0.3-0.4,0.6c-0.9,0.4-1.9,0.9-2.7,1.4c-0.1-0.1-0.6-0.1-0.7,0c-0.3,0.1-0.3,0.4-0.3,0.6c-0.9,0.6-1.7,1.1-2.4,1.7
		c-0.3-0.1-0.6-0.1-0.7,0c-0.1,0.1-0.3,0.4-0.3,0.6c-0.9,0.7-1.6,1.3-2.3,2c-0.3,0-0.4,0-0.7,0.1c-0.1,0.1-0.1,0.4-0.1,0.7
		c-0.7,0.7-1.4,1.4-2.2,2.3c-0.3,0-0.4,0-0.6,0.1c-0.1,0.1-0.1,0.4-0.1,0.7c-0.6,0.9-1.3,1.6-1.9,2.4c-0.3,0-0.4,0.1-0.6,0.3
		c-0.1,0.3-0.1,0.6,0,0.7c-0.6,0.9-1,1.7-1.6,2.6c-0.3,0-0.6,0.1-0.6,0.4c-0.1,0.3-0.1,0.6,0,0.7c-0.4,0.9-0.9,1.9-1.1,2.7
		c-0.3,0-0.4,0.1-0.6,0.4c-0.1,0.3,0,0.4,0.1,0.7c-0.3,1-0.6,2-0.9,2.9c-0.3,0-0.4,0.3-0.6,0.6c0,0.3,0,0.4,0.1,0.6
		c-0.3,1-0.4,2-0.6,3c-0.3,0.1-0.4,0.3-0.4,0.6s0.1,0.4,0.3,0.6c-0.1,1-0.1,2-0.1,3c-0.1,0.1-0.4,0.3-0.4,0.6c0,0.3,0.1,0.4,0.3,0.6
		c0,1,0,2,0.1,3c-0.1,0.1-0.3,0.4-0.3,0.6c0,0.3,0.1,0.4,0.4,0.6l0,0c0.1,1,0.3,2,0.4,3c-0.1,0.1-0.3,0.4-0.3,0.7s0.1,0.4,0.4,0.6
		h0.1c0.1,1,0.4,2,0.7,3c-0.1,0.1-0.3,0.4-0.1,0.7c0.1,0.1,0.1,0.3,0.4,0.4h0.1c0.3,1,0.7,1.9,1.1,2.9c-0.1,0.1-0.1,0.4-0.1,0.7
		c0.1,0.1,0.1,0.3,0.3,0.3c0.1,0,0.1,0,0.3,0c0.4,0.9,0.9,1.7,1.4,2.7c-0.1,0.1-0.1,0.6,0,0.7s0.1,0.1,0.3,0.3c0.1,0,0.1,0,0.3,0
		c0.6,0.9,1.1,1.7,1.7,2.4c-0.1,0.3-0.1,0.6,0.1,0.7c0.1,0.1,0.1,0.1,0.3,0.1c0.1,0,0.3,0,0.4,0c0.6,0.9,1.3,1.6,2,2.3
		c0,0.3,0,0.4,0.1,0.7l0.1,0.1c0.1,0,0.3,0,0.4,0c0.7,0.7,1.4,1.4,2.3,2.2c0,0.3,0,0.4,0.1,0.6c0,0,0.1,0,0.1,0.1
		c0.1,0.1,0.4,0,0.6,0c0.9,0.7,1.6,1.3,2.4,1.9c0,0.3,0.1,0.4,0.3,0.7c0,0,0,0,0.1,0c0.1,0.1,0.4,0,0.6,0c0.9,0.6,1.7,1,2.6,1.6
		c0,0.3,0.1,0.6,0.4,0.6l0,0c0.3,0.1,0.6,0,0.7,0c0.9,0.4,1.9,0.9,2.7,1.3c0,0.3,0.1,0.4,0.3,0.6l0,0c0.3,0.1,0.6,0,0.7-0.1
		c1,0.3,2,0.6,2.9,0.9c0,0.1,0.1,0.4,0.3,0.4h0.1c0.3,0,0.6,0,0.7-0.1c1,0.3,2,0.4,3,0.6c0,0.1,0.1,0.3,0.3,0.4h0.1
		c0.3,0,0.4-0.1,0.6-0.3c1,0.1,2,0.1,3,0.1c0.1,0.1,0.1,0.3,0.3,0.3c0.1,0,0.1,0,0.3,0c0.3,0,0.4-0.1,0.6-0.3c1,0,2,0,3-0.1
		c0.1,0.1,0.1,0.1,0.3,0.3c0.1,0,0.3,0.1,0.4,0c0.3,0,0.4-0.1,0.6-0.4c1-0.1,2-0.3,3-0.4l0.1,0.1c0.1,0,0.3,0.1,0.4,0
		c0.3,0,0.4-0.3,0.6-0.6c1-0.3,2-0.4,3-0.7l0.1,0.1c0.1,0,0.3,0.1,0.6,0c0.3-0.1,0.4-0.3,0.4-0.6c1-0.3,1.9-0.7,2.9-1.1
		c0,0,0,0,0.1,0.1c0.1,0.1,0.4,0.1,0.6,0c0.3-0.1,0.4-0.3,0.4-0.6c0.9-0.4,1.9-0.9,2.7-1.4l0,0c0.1,0.1,0.4,0.1,0.7,0
		s0.3-0.4,0.3-0.6c0.9-0.6,1.7-1.1,2.4-1.7l0,0c0.3,0.1,0.6,0.1,0.7-0.1c0.1-0.1,0.3-0.4,0.3-0.6c0.9-0.6,1.6-1.3,2.3-2
		c0.3,0,0.6,0,0.7-0.1s0.1-0.4,0.1-0.7c0.7-0.7,1.4-1.4,2.2-2.3c0.3,0,0.4,0,0.6-0.1c0.1-0.1,0.1-0.4,0.1-0.7
		c0.7-0.9,1.3-1.6,1.9-2.4c0.3,0,0.4,0,0.6-0.3c0.1-0.3,0.1-0.6,0-0.7c0.6-0.9,1-1.7,1.6-2.6c0.3,0,0.6-0.1,0.6-0.4
		c0.1-0.3,0.1-0.6-0.1-0.7c0.4-0.9,0.9-1.9,1.3-2.7c0.3,0,0.4-0.1,0.6-0.4s0-0.6-0.1-0.7c0.3-1,0.6-1.9,0.9-2.9
		c0.3,0,0.4-0.3,0.6-0.6c0-0.3,0-0.6-0.1-0.7c0.3-1,0.4-2,0.6-3c0.3-0.1,0.4-0.3,0.4-0.6c0-0.3-0.1-0.4-0.3-0.7c0.1-1,0.1-2,0.1-3
		C226.7,171.1,226.8,170.8,226.8,170.5z M187.9,198.7c-16-0.3-28.7-13.7-28.5-29.6c0.3-16,13.7-28.7,29.6-28.5s28.7,13.7,28.5,29.6
		C217.2,186.3,203.8,199.1,187.9,198.7z"/>
	<path class="st5" d="M184.7,170.7l-34.5-78.5c-0.7-1.7,0.1-3.7,1.9-4.5l0,0c1.7-0.7,3.9,0,4.6,1.7l34.5,78.5
		c0.7,1.7-0.1,3.7-1.9,4.5l0,0C187.4,173.3,185.4,172.4,184.7,170.7z"/>
	<path class="st3" d="M145.7,93.5L137.8,79c-1-1.7-0.3-3.9,1.4-4.9l1.4-0.9c1.7-1,3.9-0.3,4.9,1.4l7.9,14.5c1,1.7,0.3,3.9-1.4,4.9
		l-1.4,0.9C148.9,95.9,146.7,95.2,145.7,93.5z"/>
	<path class="st2" d="M149.5,88.9l-5.7-10.5c-0.1-0.3-0.3-0.4-0.6-0.6l-7.3-4.9c-0.4-0.3-1.1-0.1-1.4,0.3l-0.1,0.1
		c-0.3,0.4-0.1,1.1,0.3,1.4l7.3,4.9l5.6,10.2c0.3,0.6,1,0.7,1.6,0.4C149.6,90.2,149.8,89.5,149.5,88.9z"/>
	<path class="st6" d="M164,109.7l-12.8-23.9c-0.3-0.7,0.4-1.3,1-0.7L164,96.8c2.3,2.3,3.3,5.7,2.3,8.9l-1.1,4
		C165,110.2,164.3,110.2,164,109.7z"/>
	<path class="st4" d="M188.7,157.2c-6.9-0.1-12.8,5.3-12.8,12.4c-0.1,6.9,5.3,12.8,12.4,12.9c6.9,0.1,12.8-5.3,12.8-12.4
		C201.2,163.1,195.6,157.3,188.7,157.2z"/>
	<path class="st6" d="M12.9,104.1c3.4,0,10.5,0.1,20.1,1c2.4,0.1,6,1.1,6,1.1l0,0c-3.6,3.2-4.7,8.3-2.9,12.6l1.3,2.9
		c0.4,1,0.9,1.9,1.4,2.7l6.2,8.9l17,5.7c1,0.3,2,0.3,2.9-0.3l7.3-4L88.5,149c0.3,0.1,0.4,0.6,0.4,0.9l1.7,18c0,0.4,0.3,0.9,0.7,1
		l13.9,5.9c2.3,1,4.7,0.9,6.9-0.1l17.8-8.8c0.3-0.1,0.6-0.4,0.6-0.7l9.1-24.3c0,0,0,0,0-0.1h1.7c1.6,0,3.2-1,3.7-2.6l3-11.1
		c1.3-4.9,4.5-9.2,8.8-11.8l3.4-2.2c0.6-0.3,0.9-1.1,0.4-1.7l-9.3-18.7l-39.8,5.5c0,0,2.4,8.5-7.9,8.3c-10.1-0.1-40.8-6.5-48.6-8
		c-1.1-0.3-2.3,0-3.2,0.7c-0.7,0.6-1.1,1.3-1.3,2.2c-6.3-1.7-13.1-3.2-18-3.2c-10.6-0.1-18.5,2.7-20.6,3.6c-0.3,0.1-0.6,0.3-0.7,0.6
		C11.4,103,11.9,104.1,12.9,104.1z M94.9,149.8l13.4-22.1c0,0,26.3,12.8,28.2,12.9l-7.9,21c-0.1,0.3-0.4,0.6-0.7,0.7l-17.1,7
		c-1.7,0.7-3.6,0.7-5.3,0.1l-6.8-2.4c-0.6-0.1-0.9-0.7-0.9-1.3C97.9,165.6,94.7,150,94.9,149.8z M74.7,133.4l30.3-6.8l-11.9,19.5
		c-0.4,0.7-1.3,0.9-1.9,0.3C88,143.8,78.3,136.2,74.7,133.4z"/>
	<path class="st4" d="M41,172c0,1.6-1.3,2.9-3,2.7c-1.6,0-2.9-1.4-2.7-3c0-1.6,1.3-2.9,3-2.7C39.8,169.1,41,170.4,41,172z"/>
	<path class="st4" d="M190.4,168.8c0,1.6-1.3,2.9-3,2.7c-1.6,0-2.9-1.4-2.7-3c0-1.6,1.3-2.9,3-2.7
		C189.3,165.9,190.6,167.2,190.4,168.8z"/>
	<g id="XMLID_1930_">
		<g id="XMLID_1931_">
			<g id="XMLID_1932_">
				<path id="XMLID_1933_" class="st0" d="M50.6,99.4c1.3,3,4.2,5.2,7.5,5.7l25.6,3.9l12.4,1.9l6.2,0.9l3,0.4l0.7,0.1
					c0.1,0,0.3,0,0.1,0s-0.3-0.1-0.4-0.1c-0.4-0.1-1-0.4-1.3-0.7c-0.9-0.7-1.3-1.6-1.6-2.6c0-0.3-0.1-0.4-0.1-0.7c0-0.1,0-0.3,0-0.4
					v-0.1v-0.1c0,0,0-0.1,0,0v1.6l0.3,6.3l0.4,12.5l1,25l14.4,0.1l1.6-25l0.7-12.5l0.4-6.3l0.1-1.6v-0.4v-0.6c0-0.4,0-0.7-0.1-1.1
					c-0.1-0.7-0.3-1.6-0.4-2.3c-0.9-3-2.7-5.6-5.2-7.5c-1.3-0.9-2.7-1.7-4.2-2.2c-0.4-0.1-0.7-0.3-1.1-0.3l-0.6-0.1l-0.7-0.1l-3-0.7
					l-6-1.6l-12.1-3l-24.3-6.2l-4.6,6.9l-11.8,3.7L50.6,99.4z"/>
			</g>
		</g>
	</g>
	<g id="XMLID_1926_">
		<g id="XMLID_1927_">
			<g id="XMLID_1928_">
				<polygon id="XMLID_1929_" class="st2" points="119.9,135.6 118.7,155.4 124.5,160.6 104.3,159.2 103.6,135.5 				"/>
			</g>
		</g>
	</g>
	<g id="XMLID_1922_">
		<g id="XMLID_1923_">
			<g id="XMLID_1924_">
				<path id="XMLID_1925_" class="st7" d="M128.6,71.8l13.8,0.6c1,0,1.7-0.7,1.7-1.6s-0.6-1.6-1.3-1.7l-13.5-2.9
					c-1.6-0.3-3,0.7-3.3,2.2c-0.3,1.6,0.7,3,2.2,3.3C128.3,71.8,128.5,71.8,128.6,71.8z"/>
			</g>
		</g>
	</g>
	<g id="XMLID_1918_">
		<g id="XMLID_1919_">
			<g id="XMLID_1920_">
				<path id="XMLID_1921_" class="st7" d="M130.4,71.8l13.5-0.4c1,0,1.7-0.9,1.7-1.7c0-0.9-0.7-1.6-1.4-1.6l-13.5-1.9
					c-1.6-0.1-3,0.9-3.2,2.4s0.9,3,2.4,3.2C130.1,71.8,130.2,71.8,130.4,71.8z"/>
			</g>
		</g>
	</g>
	<g id="XMLID_1914_">
		<g id="XMLID_1915_">
			<g id="XMLID_1916_">
				<path id="XMLID_1917_" class="st7" d="M130.4,82.3l13.5-0.4c1,0,1.7-0.9,1.7-1.7s-0.7-1.6-1.4-1.6l-13.5-1.9
					c-1.6-0.1-3,0.9-3.2,2.4s0.9,3,2.4,3.2C130.1,82.3,130.2,82.3,130.4,82.3z"/>
			</g>
		</g>
	</g>
	<g id="XMLID_1910_">
		<g id="XMLID_1911_">
			<g id="XMLID_1912_">
				<path id="XMLID_1913_" class="st8" d="M73.6,53l25.7,15.4l0.4,0.3c0.6,0.3,1.1,0.6,1.7,0.6l32.3,4.2c2.4,0.3,4.6-1.4,4.9-3.7
					c0.3-2.3-1.3-4.3-3.4-4.9L103.3,58l2.2,0.9L81.2,41.5c-3.2-2.3-7.5-1.6-9.8,1.6c-2.3,3.2-1.6,7.5,1.6,9.8
					C73.3,52.8,73.4,53,73.6,53z"/>
			</g>
		</g>
	</g>
	<g id="XMLID_1907_">
		<g id="XMLID_1908_">
			<path id="XMLID_1909_" class="st0" d="M73,52.7c-3.2-2.3-3.9-6.6-1.6-9.8c2.3-3.2,5.9-5.2,9.1-2.9l23.9,18.1l30.8,6.8l-1.1,8.6
				l-32.6-4.3L73.6,53C73.4,53,73.3,52.8,73,52.7z"/>
		</g>
	</g>
	<g id="XMLID_1903_">
		<g id="XMLID_1904_">
			<g id="XMLID_1905_">
				<path id="XMLID_1906_" class="st7" d="M128.6,82.3l12.9,0.6c1,0,1.7-0.7,1.7-1.6c0-0.9-0.6-1.6-1.3-1.7l-12.6-2.9
					c-1.6-0.3-3,0.6-3.4,2.2s0.6,3,2.2,3.4C128.2,82.3,128.5,82.3,128.6,82.3z"/>
			</g>
		</g>
	</g>
	<g id="XMLID_1899_">
		<g id="XMLID_1900_">
			<g id="XMLID_1901_">
				<path id="XMLID_1902_" class="st0" d="M86.7,82.3c0,0,0.9-17-0.6-30.2c-1.1-10.3-7.9-16.4-16.4-15.8
					c-12.1,0.9-13.2,7.2-15.2,16.5c-2.3,10.6-9.2,39.5-9.2,39.5s13.5,0.6,27.5-4C88.4,83.1,86.7,82.3,86.7,82.3z"/>
			</g>
		</g>
	</g>
	<g id="XMLID_1895_">
		<g id="XMLID_1896_">
			<g id="XMLID_1897_">
				<path id="XMLID_1898_" class="st8" d="M64.5,56l34.6,22.9l0.3,0.1c0.6,0.4,1.3,0.7,2,0.7l32.3,4.2c2.4,0.3,4.6-1.4,4.9-3.7
					c0.3-2.3-1.3-4.3-3.4-4.9l-31.9-6.8l2.3,1L72.4,44.6c-3-2.3-7.5-1.7-9.8,1.4c-2.3,3-1.7,7.5,1.4,9.8C64.2,55.8,64.4,56,64.5,56z
					"/>
			</g>
		</g>
	</g>
	<g id="XMLID_1891_">
		<g id="XMLID_1892_">
			<g id="XMLID_1893_">
				<path id="XMLID_1894_" class="st8" d="M134.4,80.8c0.9,0,1.9,0.1,2.9,0.1c1,0.1,2,0.1,2.9,0.4c2,0.3,3.9,0.7,5.6,1.4l0,0
					c0.9,0.3,1.9-0.1,2.2-1c0.3-0.7,0-1.6-0.7-2c-1.9-1.1-4-2-6-2.7c-1-0.3-2-0.7-3.2-1c-1-0.3-2-0.6-3.3-0.7l0,0
					c-1.6-0.3-3,0.7-3.3,2.2c-0.3,1.6,0.7,3,2.3,3.3C134,80.8,134.2,80.8,134.4,80.8z"/>
			</g>
		</g>
	</g>
	<g id="XMLID_1887_">
		<g id="XMLID_1888_">
			<g id="XMLID_1889_">
				<path id="XMLID_1890_" class="st2" d="M139.1,84.7h9.9c0.7,0,1.3-0.6,1.3-1.3c0-0.7-0.6-1.3-1.3-1.3h-9.9
					c-0.7,0-1.3,0.6-1.3,1.3C137.8,84.1,138.4,84.7,139.1,84.7z"/>
			</g>
		</g>
	</g>
	<g id="XMLID_1883_">
		<g id="XMLID_1884_">
			<g id="XMLID_1885_">
				<path id="XMLID_1886_" class="st8" d="M131.9,82.4l7,4.7c0.9,0.6,2,0.3,2.6-0.4c0.6-0.7,0.4-1.7-0.3-2.4l-6.2-5.7
					c-1-0.9-2.6-0.9-3.4,0.1c-0.9,1-0.9,2.6,0.1,3.4C131.8,82.3,131.9,82.4,131.9,82.4z"/>
			</g>
		</g>
	</g>
	<g id="XMLID_1879_">
		<g id="XMLID_1880_">
			<g id="XMLID_1881_">
				<path id="XMLID_1882_" class="st8" d="M140.1,81.4c0,0-1-0.3-1.1,0.3c-0.1,0.6,1.1,1.6,1.1,1.6s-2.9-0.7-2.4-1.6
					C138,80.6,138,80.8,140.1,81.4z"/>
			</g>
		</g>
	</g>
	<g id="XMLID_1875_">
		<g id="XMLID_1876_">
			<g id="XMLID_1877_">
				<path id="XMLID_1878_" class="st8" d="M132.8,70.1c1,0,2.3,0,3.3,0.1c1.1,0,2.3,0.1,3.4,0.3c1.1,0.1,2.2,0.3,3.3,0.6
					s2,0.6,2.9,1h0.1c0.9,0.4,1.9,0.1,2.3-0.6c0.4-0.7,0.3-1.7-0.4-2.2c-1.1-0.9-2.3-1.4-3.6-2c-1.1-0.6-2.4-0.9-3.6-1.3
					c-1.1-0.4-2.4-0.7-3.6-1c-1.3-0.3-2.4-0.6-3.7-0.7c-1.6-0.3-3,0.9-3.2,2.3c-0.3,1.6,0.9,3,2.3,3.2
					C132.4,70.1,132.7,70.1,132.8,70.1z"/>
			</g>
		</g>
	</g>
	<g id="XMLID_1871_">
		<g id="XMLID_1872_">
			<g id="XMLID_1873_">
				<path id="XMLID_1874_" class="st2" d="M139.1,74.2h9.9c0.7,0,1.3-0.6,1.3-1.3c0-0.7-0.6-1.3-1.3-1.3h-9.9
					c-0.7,0-1.3,0.6-1.3,1.3C137.8,73.7,138.4,74.2,139.1,74.2z"/>
			</g>
		</g>
	</g>
	<g id="XMLID_1867_">
		<g id="XMLID_1868_">
			<g id="XMLID_1869_">
				<path id="XMLID_1870_" class="st8" d="M131.9,71.9l7,4.7c0.9,0.6,2,0.3,2.6-0.4c0.6-0.7,0.4-1.7-0.3-2.4l-6.2-5.7
					c-1-0.9-2.6-0.9-3.4,0.1c-0.9,1-0.9,2.6,0.1,3.4C131.8,71.8,131.9,71.9,131.9,71.9z"/>
			</g>
		</g>
	</g>
	<g id="XMLID_1863_">
		<g id="XMLID_1864_">
			<g id="XMLID_1865_">
				<path id="XMLID_1866_" class="st8" d="M140.1,70.6c0,0-1.3-0.3-1.4,0.1c-0.3,0.6,1.4,1.9,1.4,1.9s-3.7-1-3.3-2
					C137.3,69.8,138.1,69.1,140.1,70.6z"/>
			</g>
		</g>
	</g>
	<g id="XMLID_1860_">
		<g id="XMLID_1861_">
			<path id="XMLID_1862_" class="st0" d="M64.1,56.1c-3-2.3-4-7-1.7-10.1c2.3-3,7-4,10.1-1.7l31.9,24.3l30,6.3l-1.9,8.9l-30.5-4
				c-1.1-0.1-2.2-0.6-3-1.1L64.5,56.3C64.4,56.3,64.2,56.1,64.1,56.1z"/>
		</g>
	</g>
	<g id="XMLID_1790_">
		<g id="XMLID_1795_">
			<g id="XMLID_1855_">
				<g id="XMLID_1856_">
					<g id="XMLID_1857_">
						<g id="XMLID_1858_">
							<path id="XMLID_1859_" class="st8" d="M71.6,40.3c1.9,0,3.4-1.6,3.4-3.4v-6.2c0-1.9-1.6-3.4-3.4-3.4s-3.4,1.6-3.4,3.4v6.2
								C68.1,38.7,69.7,40.3,71.6,40.3z"/>
						</g>
					</g>
				</g>
			</g>
			<g id="XMLID_1850_">
				<g id="XMLID_1851_">
					<g id="XMLID_1852_">
						<g id="XMLID_1853_">
							<path id="XMLID_1854_" class="st2" d="M75,36.9v-6.2c0-1.9-1.6-3.4-3.4-3.4s-3.4,1.6-3.4,3.4l0,0l2.3,3.9L75,36.9z"/>
						</g>
					</g>
				</g>
			</g>
			<g id="XMLID_1796_">
				<g id="XMLID_1845_">
					<g id="XMLID_1846_">
						<g id="XMLID_1847_">
							<g id="XMLID_1848_">
								<path id="XMLID_1849_" class="st8" d="M73.6,35.4c1.9-0.1,4-1.1,5-2.7c1-1.4,0.9-3.2,0.4-4.7c-0.3-1.6-0.9-3.4-1.9-4.7
									c-1.1-1.3-2.7-2.2-4.5-2c-3,0.1-5.3,2.7-5,5.6l0.1,3.4C68,33.4,70.6,35.7,73.6,35.4z"/>
							</g>
						</g>
					</g>
				</g>
				<g id="XMLID_1840_">
					<g id="XMLID_1841_">
						<g id="XMLID_1842_">
							<g id="XMLID_1843_">
								<path id="XMLID_1844_" class="st8" d="M68.8,30c-0.3,0.1-0.6,0.1-0.9,0.1c-0.1,0-0.1,0-0.3,0.1c0,0-0.7,0.4-0.3-0.1
									c0,0,0.6,0,0.7,0s0.3,0,0.6,0h0.1c0.3-0.1,0.3,0,0.1,0.1c0.1-0.4,0.7-0.7,1-0.6c0.4,0.1,0.7,0.6,0.6,1
									c-0.1,1-1.3,1.1-2.2,1.1c-0.7,0-1.7,0-2.3-0.6c-0.6-0.6-0.4-1.6,0.1-2.2c0.3-0.3,0.6-0.4,1-0.6c0.4-0.1,0.9,0,1.1-0.1
									C69.6,27.9,70,29.5,68.8,30L68.8,30z"/>
							</g>
						</g>
					</g>
				</g>
				<g id="XMLID_1797_">
					<g id="XMLID_1835_">
						<g id="XMLID_1836_">
							<g id="XMLID_1837_">
								<g id="XMLID_1838_">
									<path id="XMLID_1839_" class="st2" d="M75.6,30.2L75.6,30.2C75.6,30.1,75.7,30.1,75.6,30.2h0.1c0,0,0,0,0.1,0s0,0,0,0H76
										l0,0l0,0l0,0h0.1c0,0,0,0,0.1,0l0,0l0,0l0,0c0,0,0,0,0-0.1c0,0,0,0,0-0.1c0-0.1,0-0.1,0-0.1l0,0l0,0l0,0l0,0v-0.1l0,0l0,0
										l0,0l0,0l0,0l0,0v-0.1v-0.1l0,0l0,0l0,0v-0.1v-0.1V29l0,0l0,0v-0.1v-0.1c0,0,0,0,0-0.1l0,0l0,0c0,0,0,0,0.1,0
										c0,0,0,0,0.1,0l0,0l0,0l0,0l0,0v0.1l0,0c0,0,0,0,0,0.1l0,0l0,0c0,0,0,0,0,0.1c0,0,0,0,0,0.1v0.1l0,0c0,0,0,0,0,0.1l0,0l0,0
										l0,0c0,0.1,0,0.1,0,0.3l0,0l0,0l0,0l0,0l0,0l0,0l0,0v0.1c0,0.1,0,0.1-0.1,0.3l0,0c0,0,0,0-0.1,0.1l0,0l0,0c0,0,0,0-0.1,0
										c-0.1,0-0.3,0-0.3,0l0,0l0,0l0,0c0,0,0,0-0.1,0L75.6,30.2L75.6,30.2L75.6,30.2L75.6,30.2C75.6,30.4,75.6,30.4,75.6,30.2
										L75.6,30.2z"/>
								</g>
							</g>
						</g>
					</g>
					<g id="XMLID_1830_">
						<g id="XMLID_1831_">
							<g id="XMLID_1832_">
								<g id="XMLID_1833_">
									<path id="XMLID_1834_" class="st2" d="M66.8,30C66.8,30,66.8,29.8,66.8,30C66.8,29.8,66.8,29.8,66.8,30L66.8,30
										c0-0.1,0-0.1,0-0.1l0,0c0,0,0,0,0.1,0l0,0l0,0l0,0c0,0,0,0,0.1,0c0,0,0,0,0.1,0l0,0l0,0l0,0c0,0,0,0,0.1,0c0,0,0,0,0.1,0
										c0.1,0,0,0,0.1,0l0,0l0,0l0,0l0,0l0,0l0,0l0,0l0,0l0,0l0,0l0,0c0,0,0,0,0.1,0l0,0l0,0l0,0l0,0l0,0l0,0l0,0l0,0l0,0l0,0
										c0,0,0,0,0,0.1l0,0l0,0l0,0c0,0,0,0-0.1,0c0,0,0,0-0.1,0c-0.1,0,0,0,0,0l0,0l0,0l0,0l0,0l0,0l0,0l0,0l0,0l0,0l0,0l0,0l0,0
										l0,0l0,0l0,0l0,0h-0.1l0,0l0,0l0,0l0,0l0,0l0,0l0,0l0,0c0,0,0,0-0.1,0l0,0l0,0l0,0l0,0l0,0h-0.1l0,0l0,0l0,0l0,0l0,0l0,0
										l0,0C67,30,67,30,66.8,30L66.8,30L66.8,30z"/>
								</g>
							</g>
						</g>
					</g>
					<g id="XMLID_1825_">
						<g id="XMLID_1826_">
							<g id="XMLID_1827_">
								<g id="XMLID_1828_">
									<path id="XMLID_1829_" class="st2" d="M67.1,30.7C67,30.7,67,30.7,67.1,30.7C67,30.7,67,30.7,67.1,30.7L67.1,30.7
										C67,30.5,67,30.5,67.1,30.7c-0.1-0.1,0-0.1,0-0.1s0,0,0-0.1l0,0l0,0l0,0l0,0l0,0l0,0l0,0l0,0l0,0l0,0c0,0,0,0,0.1,0l0,0
										l0,0l0,0l0,0l0,0l0,0l0,0l0,0l0,0l0,0l0,0c0,0,0,0,0.1,0c0,0,0,0,0.1,0l0,0l0,0l0,0c0,0,0,0,0.1,0c0,0,0,0,0.1,0
										c0,0,0,0,0.1,0l0,0l0,0l0,0c0,0,0,0,0.1,0l0,0l0,0l0,0l0,0c0,0,0,0-0.1,0l0,0l0,0l0,0l0,0l0,0l0,0l0,0l0,0l0,0l0,0l0,0
										c0,0,0,0-0.1,0l0,0l0,0l0,0l0,0l0,0h-0.1l0,0l0,0l0,0l0,0l0,0l0,0l0,0l0,0l0,0l0,0l0,0l0,0l0,0l0,0c0,0,0,0,0,0.1l0,0l0,0
										l0,0l0,0l0,0l0,0l0,0L67.1,30.7L67.1,30.7L67.1,30.7z"/>
								</g>
							</g>
						</g>
					</g>
					<g id="XMLID_1820_">
						<g id="XMLID_1821_">
							<g id="XMLID_1822_">
								<g id="XMLID_1823_">
									<path id="XMLID_1824_" class="st2" d="M74.7,31C74.9,30.8,74.9,30.8,74.7,31C74.9,31,74.9,31,74.7,31L74.7,31
										C74.9,31,74.9,31,74.7,31c0.1,0.1,0.1,0.1,0.1,0.1l0,0l0,0l0,0l0,0l0,0l0,0l0,0l0,0l0,0l0,0l0,0l0,0l0,0l0,0l0,0l0,0l0,0
										l0,0l0,0l0,0l0,0l0,0l0,0l0,0l0,0l0,0l0,0l0,0l0,0l0,0c0,0,0,0,0.1,0l0,0l0,0l0,0c0,0,0,0,0.1,0s0,0,0,0l0,0l0,0l0,0
										c0,0,0,0,0,0.1l0,0l0,0l0,0l0,0H75l0,0l0,0l0,0l0,0l0,0l0,0h-0.1l0,0l0,0l0,0l0,0l0,0h-0.1l0,0l0,0l0,0l0,0l0,0l0,0l0,0
										l0,0h-0.1l0,0l0,0l0,0l0,0l0,0l-0.1-0.1l0,0l0,0l0,0l0,0L74.7,31L74.7,31L74.7,31L74.7,31C74.7,31,74.9,31,74.7,31L74.7,31
										z"/>
								</g>
							</g>
						</g>
					</g>
					<g id="XMLID_1812_">
						<g id="XMLID_1813_">
							<g id="XMLID_1814_">
								<path id="XMLID_1815_" class="st2" d="M74.3,28.8L74.3,28.8c0.1,0,0.3-0.1,0.3-0.3v-0.1c0-0.1-0.1-0.3-0.3-0.3
									S74,28.2,74,28.4v0.1C74,28.7,74.2,28.8,74.3,28.8z"/>
							</g>
						</g>
					</g>
					<g id="XMLID_1808_">
						<g id="XMLID_1809_">
							<g id="XMLID_1810_">
								<path id="XMLID_1811_" class="st2" d="M77.5,28.7L77.5,28.7c0.1,0,0.3-0.1,0.3-0.3v-0.1c0-0.1-0.1-0.3-0.3-0.3
									s-0.3,0.1-0.3,0.3v0.1C77.2,28.5,77.3,28.7,77.5,28.7z"/>
							</g>
						</g>
					</g>
					<g id="XMLID_1803_">
						<g id="XMLID_1804_">
							<g id="XMLID_1805_">
								<g id="XMLID_1806_">
									<path id="XMLID_1807_" class="st2" d="M73.4,27.5L73.4,27.5L73.4,27.5L73.4,27.5C73.4,27.4,73.4,27.4,73.4,27.5
										c0-0.1,0-0.1,0-0.1l0,0l0,0l0,0l0,0c0,0,0,0,0.1,0l0,0l0,0l0,0l0,0l0,0l0,0c0,0,0,0,0.1,0l0,0l0,0l0,0l0,0l0,0l0,0l0,0l0,0
										l0,0l0,0l0,0c0,0,0,0,0.1,0l0,0l0,0l0,0l0,0l0,0l0,0c0,0,0,0,0.1,0l0,0l0,0l0,0c0,0,0,0,0.1,0l0,0l0,0l0,0c0,0,0,0,0,0.1
										c0,0,0,0,0,0.1s0,0,0,0l0,0l0,0l0,0c0,0,0,0-0.1,0l0,0l0,0l0,0l0,0l0,0l0,0c0,0,0,0-0.1,0l0,0l0,0l0,0l0,0l0,0h-0.1l0,0
										l0,0l0,0l0,0l0,0l0,0l0,0l0,0c0,0,0,0-0.1,0l0,0l0,0l0,0l0,0l0,0h-0.1l0,0l0,0l0,0l0,0l0,0l0,0l0,0
										C73.6,27.7,73.6,27.7,73.4,27.5C73.6,27.7,73.6,27.7,73.4,27.5L73.4,27.5z"/>
								</g>
							</g>
						</g>
					</g>
					<g id="XMLID_1798_">
						<g id="XMLID_1799_">
							<g id="XMLID_1800_">
								<g id="XMLID_1801_">
									<path id="XMLID_1802_" class="st2" d="M78,27.4L78,27.4L78,27.4L78,27.4C77.9,27.4,77.9,27.4,78,27.4L78,27.4
										c-0.1,0-0.1,0-0.1,0l0,0l0,0l0,0l0,0l0,0l0,0l0,0l0,0l0,0l0,0l0,0l0,0l0,0l0,0l0,0l0,0l0,0l0,0l0,0l0,0l0,0l0,0l0,0l0,0
										l0,0l0,0l0,0l0,0l0,0l0,0l0,0l0,0l0,0c0,0,0,0-0.1,0l0,0l0,0l0,0l0,0c0,0,0,0,0-0.1c0-0.1,0,0,0,0l0,0l0,0l0,0
										c0,0,0,0,0.1,0l0,0l0,0l0,0l0,0l0,0l0,0c0,0,0,0,0.1,0l0,0l0,0l0,0l0,0l0,0h0.1l0,0l0,0l0,0l0,0l0,0l0,0l0,0l0,0
										c0,0,0,0,0.1,0l0,0l0,0l0,0l0,0l0,0h0.1l0,0l0,0l0,0l0,0l0,0l0,0l0,0C78.2,27.2,78.2,27.2,78,27.4
										C78.2,27.2,78.2,27.2,78,27.4L78,27.4z"/>
								</g>
							</g>
						</g>
					</g>
				</g>
			</g>
		</g>
		<g id="XMLID_1791_">
			<g id="XMLID_1792_">
				<g id="XMLID_1793_">
					<path id="XMLID_1794_" class="st2" d="M67.8,28.5c1-0.1,1.7-0.7,2.3-1.6c0.4-0.7,0.6-1.4,0.9-2.2c0.1-0.3,0.3-0.6,0.7-0.6
						c1.7,0,3.6,0.1,5.3,0.1c1.1,0,2.4-0.1,2.9-1c0.3-0.6,0.1-1.4-0.1-2c-0.4-0.6-1-1-1.6-1.3c-1.6-1-3.3-1.7-5.2-1.7
						c-1.7,0-3,1.3-4.2,2.7c-0.1,0.3-0.4,0.3-0.7,0.1C67.7,21,67.3,21,67,21.3c-0.4,0.3-0.9,0.9-1,1.4c-0.1,0.6,0,1.1,0,1.7
						c0.3,1.4,0.7,2.7,1.3,4L67.8,28.5z"/>
				</g>
			</g>
		</g>
	</g>
	<path class="st0" d="M63.5,32.8l0.7,2.2l17.7,2.7l0.6-2.6c0.3-1.6-0.1-3.2-1-4.5l0,0c-0.3-0.4-0.9-0.7-1.3-1l-0.9-0.1L78,29.8
		c-0.1,0-0.3,0-0.4,0l-5.3,0.3l0.1-2.7l4.2-0.9c0.7-0.1,1.6-0.1,2.3,0.1h0.3l0.6-0.6l1.3-1.3l0.3-1.1l3-4.3l0,0
		c-0.6-0.7-1.4-1.1-2.4-1.3l-7.5,0c-1.6,0-3.3,0.3-4.7,1l-1.1,0.6c-3,1.4-5,4.2-5.5,7.5l-0.1,1c-0.1,1.1-0.1,2.4,0.3,3.6L63.5,32.8z
		"/>
	<polygon class="st0" points="129.2,63.6 136.8,65.2 134.1,73.5 115.6,71.2 	"/>
	<text transform="matrix(1 0 0 1 44.7305 123.1362)" class="st1 st9 st10">1402</text>
	<g>
		<g id="XMLID_1785_">
			<g id="XMLID_1786_">
				<g id="XMLID_1787_">
					<g id="XMLID_1788_">
						<path id="XMLID_1789_" class="st1" d="M104.3,157.3c0,0,0.1-0.1,0.3-0.1s0.1,0,0.3,0c0.1,0,0.1,0,0.3,0s0.3,0,0.4,0
							c0.1,0,0.1,0,0.3,0c0.3,0,0.6,0,0.9,0c0.1,0,0.3,0,0.4,0c0.1,0,0.3,0,0.4,0c0.1,0,0.1,0,0.3,0c0.3,0,0.6,0,0.9,0
							c0.1,0,0.4,0,0.7,0c0.1,0,0.3,0,0.3,0c0.1,0,0.1,0,0.3,0h0.1c0.1,0,0.4,0,0.6,0c0.3,0,0.6,0,0.7,0c0.3,0,0.6,0,0.9,0
							c0,0,0,0,0.1,0s0,0,0.1,0l0,0c0.1,0,0.1,0,0.3,0c0.1,0,0.3,0,0.6,0h0.1c0.1,0,0.1,0,0.3,0s0.3,0,0.4,0c0.1,0,0.1,0,0.3,0h0.1
							h0.1c0.3,0,0.6,0,0.9,0c0.1,0,0.4,0,0.7,0c0.1,0,0.3,0,0.3,0c0.1,0,0.1,0,0.3,0h0.1c0.1,0,0.4,0,0.6,0c0.3,0,0.6,0,0.7,0
							c0.3,0,0.6,0,0.9,0c0.1,0,0.1,0,0.1,0c0.1,0,0.1,0,0.3,0s0.3,0,0.6,0c0.3,0,0.6,0.1,1,0.1c0.1,0,0.3,0,0.6,0
							c0.1,0,0.1,0,0.1,0c0.1,0,0.1,0,0.1,0c0.1,0,0.1,0.1,0.1,0.1l-0.1,0.1c-0.1,0-0.1,0-0.3,0h-0.1c-0.1,0-0.3,0-0.3,0
							s-0.1,0-0.3,0c-0.3,0-0.7,0-1,0c-0.1,0-0.3,0-0.3,0c-0.1,0-0.3,0-0.4,0l0,0l0,0c-0.1,0-0.3,0-0.4,0c-0.1,0-0.3,0-0.6,0
							c-0.4,0-0.7,0-1.1-0.1c-0.1,0-0.1,0-0.3,0s-0.4,0-0.6,0c-0.1,0-0.1,0-0.3,0s-0.1,0-0.3,0s-0.3,0-0.4,0c-0.6,0-1.1-0.1-1.6-0.1
							c-0.1,0-0.1,0-0.3,0c-0.1,0-0.1,0-0.1,0c-0.1,0-0.1,0-0.3,0s-0.1,0-0.3,0c-0.1,0-0.3,0-0.3,0h-0.1c-0.1,0-0.1,0-0.3,0
							c-0.1,0-0.3,0-0.6,0c-0.4,0-0.7,0-1.1-0.1c-0.1,0-0.1,0-0.3,0c-0.1,0-0.4,0-0.6,0s-0.1,0-0.3,0s-0.1,0-0.3,0
							c-0.1,0-0.3,0-0.4,0c-0.6,0-1.1-0.1-1.6-0.1c-0.1,0-0.1,0-0.3,0s-0.1,0-0.1,0c-0.1,0-0.1,0-0.3,0c-0.1,0-0.1,0-0.3,0
							s-0.3,0-0.3,0c-0.1,0-0.1,0-0.3,0s-0.1,0-0.3,0h-0.1c-0.1,0-0.1-0.1-0.1-0.1C104.3,157.4,104.3,157.3,104.3,157.3z"/>
					</g>
				</g>
			</g>
		</g>
		<path class="st1" d="M118.6,154.1l-4.9-2c-0.9-0.3-1.6-1.1-1.6-2.2l1.1-9.3c0.4-0.7,1.3-1.3,2.2-1.3l4.2,0.1v0.4l-4.2-0.1
			c0,0,0,0-0.1,0c-0.7,0-1.3,0.4-1.7,1l-1.1,9.3c0,0.7,0.6,1.4,1.3,1.7l4.9,2L118.6,154.1z"/>
		<g id="XMLID_1780_">
			<g id="XMLID_1781_">
				<g id="XMLID_1782_">
					<g id="XMLID_1783_">
						<path id="XMLID_1784_" class="st1" d="M104.1,143.8c0,0,0,0,0.1-0.1h0.1h0.1c0.1,0,0.1,0,0.1,0h0.1c0.1,0,0.3,0,0.4,0h0.1h0.1
							h0.1c0.1,0,0.3,0,0.4,0c0.1,0,0.1,0,0.3,0h0.1h0.1c0,0,0,0,0.1,0s0.1,0,0.3,0s0.3,0,0.4,0c0.1,0,0.3,0,0.4,0l0,0l0,0l0,0h0.1
							c0.1,0,0.1,0,0.3,0c0,0,0,0,0.1,0h0.1h0.1h0.1c0,0,0,0,0.1,0s0,0,0.1,0s0.3,0,0.4,0c0.1,0,0.1,0,0.3,0h0.1h0.1c0,0,0,0,0.1,0
							s0.1,0,0.3,0c0.1,0,0.3,0,0.4,0c0.1,0,0.3,0,0.4,0c0,0,0,0,0.1,0h0.1c0.1,0,0.1,0,0.3,0c0.1,0,0.3,0,0.4,0s0.1,0,0.3,0h0.1
							h0.1c0,0,0.1,0,0.1,0.1c0,0,0,0-0.1,0.1H113c0,0,0,0-0.1,0h-0.1h-0.1c-0.1,0-0.3,0-0.4,0H112c-0.1,0-0.1,0-0.1,0l0,0l0,0
							c-0.1,0-0.1,0-0.3,0c-0.1,0-0.1,0-0.3,0s-0.4,0-0.6,0h-0.1c-0.1,0-0.1,0-0.3,0h-0.1H110c-0.1,0-0.1,0-0.1,0
							c-0.3,0-0.6,0-0.9,0h-0.1h-0.1h-0.1h-0.1h-0.1l0,0h-0.1c-0.1,0-0.1,0-0.3,0c-0.1,0-0.4,0-0.6,0h-0.1c-0.1,0-0.1,0-0.3,0h-0.1
							h-0.1c-0.1,0-0.1,0-0.1,0c-0.3,0-0.6,0-0.9,0h-0.1h-0.1h-0.1h-0.1h-0.1h-0.1h-0.1C104.2,143.9,104.2,143.9,104.1,143.8
							C104.1,143.9,104.1,143.9,104.1,143.8C104.1,143.9,104.1,143.9,104.1,143.8z"/>
					</g>
				</g>
			</g>
		</g>
		<g id="XMLID_1775_">
			<g id="XMLID_1776_">
				<g id="XMLID_1777_">
					<g id="XMLID_1778_">
						<path id="XMLID_1779_" class="st1" d="M104.2,148.4C104.2,148.2,104.2,148.2,104.2,148.4c0.1-0.1,0.1-0.1,0.3-0.1h0.1h0.1h0.1
							c0.1,0,0.3,0,0.4,0h0.1h0.1h0.1c0.1,0,0.3,0,0.3,0c0.1,0,0.1,0,0.3,0h0.1h0.1c0,0,0,0,0.1,0c0.1,0,0.1,0,0.3,0s0.1,0,0.3,0
							s0.3,0,0.3,0l0,0l0,0l0,0h0.1c0.1,0,0.1,0,0.1,0s0,0,0.1,0h0.1h0.1h0.1c0,0,0,0,0.1,0s0,0,0.1,0s0.3,0,0.3,0
							c0.1,0,0.1,0,0.3,0h0.1h0.1c0,0,0,0,0.1,0c0.1,0,0.1,0,0.3,0s0.1,0,0.3,0c0.1,0,0.3,0,0.3,0s0,0,0.1,0s0.1,0,0.1,0
							c0.1,0,0.1,0,0.1,0c0.1,0,0.3,0,0.4,0s0.1,0,0.3,0c0,0,0,0,0.1,0c0,0,0,0,0.1,0c0,0,0.1,0,0.1,0.1s0,0-0.1,0.1H112
							c0,0,0,0-0.1,0h-0.1h-0.1c-0.1,0-0.3,0-0.4,0H111h-0.1l0,0l0,0h-0.1c-0.1,0-0.1,0-0.3,0c-0.1,0-0.3,0-0.4,0c0,0,0,0-0.1,0
							s-0.1,0-0.3,0h-0.1h-0.1h-0.1c-0.3,0-0.4,0-0.7,0h-0.1c0,0,0,0-0.1,0h-0.1h-0.1h-0.1l0,0h-0.1c-0.1,0-0.1,0-0.3,0
							s-0.3,0-0.4,0c0,0,0,0-0.1,0s-0.1,0-0.3,0h-0.1h-0.1h-0.1c-0.3,0-0.4,0-0.7,0h-0.1c0,0,0,0-0.1,0h-0.1h-0.1h-0.1h-0.1h-0.1
							l0,0C104.2,148.5,104.1,148.4,104.2,148.4L104.2,148.4z"/>
					</g>
				</g>
			</g>
		</g>
		<g id="XMLID_1772_">
			<g id="XMLID_1773_">
				<path id="XMLID_1774_" class="st1" d="M108.7,133.9c0-0.3,0-1.3,0-2c0-0.4,0-0.7,0-1.1s0-0.9,0-1.4v-2.7v-1.1
					c0-1.7-0.1-3.6-0.1-5.5l-0.1-2.6c0-0.4,0-1-0.1-1.4c0-0.1,0-0.3,0-0.6l-0.1-1.6c0-0.6,0-1-0.1-1.4c0-0.4,0-0.9-0.1-1.3v-1.1
					c0-0.4,0-0.9-0.1-1.3c-0.1-0.7-0.3-1.3-0.7-1.9s-1.1-0.9-1.7-1.1c-1.3-0.4-2.6-0.6-3.9-0.9c-0.7-0.1-1.3-0.3-2-0.4
					c-0.4-0.1-0.7-0.1-1.1-0.3s-0.9-0.1-1.3-0.3l-2.7-0.6l-1-0.1c-1.7-0.4-3.4-0.7-5.3-1.1l-2.6-0.6c-0.7-0.1-1.6-0.3-2.3-0.4
					c-0.1,0-0.1,0-0.1,0h-0.1c-0.7-0.1-1.3-0.3-1.9-0.4c-0.6-0.1-1.1-0.3-1.7-0.3c-1.6-0.3-3.2-0.7-4.7-1c-0.6-0.1-1-0.1-1.6-0.3
					L71,98.5c-0.3,0-0.6-0.1-1-0.1c-0.6-0.1-1.1-0.3-1.6-0.3c-0.4,0-0.7-0.1-0.9,0c-0.1,0.1,0.1,0.1,0.7,0.3c0.3,0,0.6,0.1,0.9,0.3
					c0.3,0,0.6,0.1,1,0.1c0.9,0.1,1.7,0.3,2.6,0.6l4.6,1l2.4,0.6c0.4,0,0.9,0.1,1.1,0.3c0.3,0,0.6,0.1,0.9,0.1
					c1.3,0.3,2.6,0.6,3.7,0.7l3.4,0.7c1,0.1,2,0.4,3,0.6l0.9,0.1c0.4,0.1,0.9,0.1,1.3,0.3l1.6,0.3l3.2,0.7c1.3,0.3,2.4,0.6,3.7,0.7
					c0.3,0,0.6,0.1,0.7,0.1c0.3,0,0.6,0.1,0.9,0.1c0.4,0.1,1,0.3,1.4,0.6c0.4,0.3,0.9,0.7,1.1,1.3c0.1,0.4,0.3,0.7,0.3,1.1
					c0,0.3,0,0.6,0.1,0.9l0.1,2.4c0,0.4,0,0.9,0.1,1.1v0.1v0.4c0,0.1,0,0.1,0,0.3c0,1.3,0.1,2.6,0.1,3.9l0.1,3.6c0,1,0,2.2,0.1,3.2
					v0.9c0,0.4,0,0.9,0,1.3v1.6c0,0,0,4.9,0.1,5.5C108.4,134.4,108.7,133.9,108.7,133.9z"/>
			</g>
		</g>
		<path class="st1" d="M110.5,93.3C110.5,93.3,110.4,93.3,110.5,93.3l-28.2-7.2c-0.1,0-0.1-0.1-0.1-0.1c0-0.1,0.1-0.1,0.3-0.1
			l28.2,7.2c0.1,0,0.1,0.1,0.1,0.1C110.7,93.2,110.5,93.3,110.5,93.3z"/>
		<g id="XMLID_1769_">
			<g id="XMLID_1770_">
				<path id="XMLID_1771_" class="st1" d="M83.9,44.6c0,0,0.1,0,0.1,0.1v0.1l0.1,0.1c0,0.1,0.1,0.1,0.1,0.3v0.1
					c0,0.1,0.1,0.3,0.1,0.6l0.1,0.3c0,0,0,0.1,0,0.3v0.1c0,0.1,0.1,0.3,0.1,0.6c0,0.1,0.1,0.3,0.1,0.4v0.1v0.1v0.1
					c0,0.1,0.1,0.3,0.1,0.4c0,0.1,0.1,0.3,0.1,0.4c0,0.1,0.1,0.3,0.1,0.6l0,0l0,0l0,0v0.1l0.1,0.3v0.1v0.1v0.3v0.1v0.1
					c0,0,0,0,0,0.1c0,0.1,0.1,0.3,0.1,0.6c0,0.1,0,0.3,0.1,0.4v0.1v0.1v0.1c0,0.1,0,0.3,0.1,0.4c0,0.1,0,0.3,0.1,0.4
					c0,0.1,0,0.3,0.1,0.6v0.1v0.1v0.3c0,0.1,0,0.4,0.1,0.6c0,0.1,0,0.3,0,0.3v0.1v0.1c0,0,0,0.1-0.1,0.1c-0.1,0-0.1,0-0.1-0.1
					c0,0,0-0.1-0.1-0.1v-0.1c0-0.1,0-0.1,0-0.3V55c0-0.1,0-0.4-0.1-0.7c0,0,0-0.1,0-0.3s0-0.1,0-0.3l0,0l0,0c0-0.1,0-0.1,0-0.3v-0.3
					c0-0.3-0.1-0.4-0.1-0.7v-0.1c0-0.1,0-0.3-0.1-0.3v-0.1v-0.1v-0.3c-0.1-0.3-0.1-0.7-0.3-1v-0.1v-0.1v-0.1v-0.1v-0.1l0,0v-0.1
					l-0.1-0.3c0-0.3-0.1-0.4-0.1-0.7v-0.1c0-0.1-0.1-0.3-0.1-0.3v-0.1v-0.1l-0.1-0.3c-0.1-0.3-0.1-0.7-0.3-1v-0.1v-0.1
					c0,0,0-0.1-0.1-0.1c0,0,0-0.1-0.1-0.1l-0.1-0.1v-0.1v-0.1C83.8,44.8,83.8,44.6,83.9,44.6C83.8,44.6,83.9,44.6,83.9,44.6
					C83.9,44.5,83.9,44.6,83.9,44.6z"/>
			</g>
		</g>
		<g id="XMLID_1766_">
			<g id="XMLID_1767_">
				<path id="XMLID_1768_" class="st1" d="M67.4,36.4c0,0,0,0.1,0,0.3v0.1c0,0.1,0,0.1,0,0.3c0,0.1,0,0.1,0,0.3v0.1
					c0,0.3,0.1,0.4,0.1,0.7c0,0.1,0,0.1,0.1,0.3s0,0.1,0.1,0.3c0,0,0,0.1,0.1,0.1c0.1,0.1,0.3,0.4,0.3,0.6c0.1,0.1,0.1,0.3,0.3,0.4
					l0.1,0.1l0.1,0.1l0.1,0.1c0.1,0.1,0.3,0.1,0.4,0.3c0.1,0.1,0.3,0.1,0.6,0.3c0.1,0.1,0.4,0.1,0.6,0.1l0,0h0.1l0,0
					c0.1,0,0.1,0,0.1,0c0.1,0,0.3,0,0.4,0h0.1h0.3H72c0.1,0,0.1,0,0.3,0h0.1h0.1c0.3,0,0.4-0.1,0.6-0.1s0.3-0.1,0.4-0.1
					c0.1,0,0.1-0.1,0.3-0.1c0,0,0.1,0,0.1-0.1h0.1c0.1-0.1,0.3-0.1,0.4-0.3c0.1-0.1,0.3-0.3,0.4-0.4c0.1-0.1,0.3-0.3,0.3-0.6
					c0,0,0-0.1,0.1-0.1c0,0,0-0.1,0.1-0.1c0-0.1,0.1-0.3,0.1-0.4c0.1-0.3,0.1-0.4,0.3-0.7c0-0.1,0-0.3,0-0.4c0,0,0,0,0-0.1v-0.1
					c0-0.1,0.1-0.1,0.1-0.1s0.1,0,0.1,0.1c0,0,0,0.1,0,0.3v0.1c0,0.1,0,0.1,0,0.3c0,0.1,0,0.1,0,0.3c0,0.3-0.1,0.6-0.3,0.7
					c0,0.1-0.1,0.1-0.1,0.3c0,0.1-0.1,0.1-0.1,0.3l0,0l0,0c0,0.1-0.1,0.3-0.3,0.3c-0.1,0.1-0.1,0.3-0.3,0.3
					c-0.3,0.3-0.4,0.4-0.7,0.6L73.9,41c-0.1,0.1-0.3,0.1-0.4,0.3c-0.1,0-0.1,0-0.3,0.1c-0.1,0-0.1,0-0.1,0c-0.1,0-0.3,0-0.3,0.1
					c-0.4,0.1-0.9,0.1-1.4,0.1c-0.1,0-0.1,0-0.3,0h-0.1c-0.1,0-0.1,0-0.3,0s-0.1,0-0.3,0c-0.1,0-0.1,0-0.3,0c0,0,0,0-0.1,0
					s-0.1,0-0.3-0.1c-0.1,0-0.3-0.1-0.4-0.1c-0.3-0.1-0.6-0.3-0.9-0.6l-0.1-0.1c-0.1-0.1-0.3-0.3-0.3-0.3l-0.1-0.1l-0.1-0.1
					c-0.1-0.1-0.1-0.1-0.1-0.3c-0.3-0.4-0.4-0.9-0.6-1.3c0,0,0-0.1,0-0.3v-0.1c0,0,0-0.1,0-0.3c0-0.1,0-0.1,0-0.3v-0.3
					c0-0.1,0-0.1,0-0.3v-0.1c0,0,0,0,0-0.1C67.3,36.3,67.3,36.3,67.4,36.4L67.4,36.4z"/>
			</g>
		</g>
		<g id="XMLID_1763_">
			<g id="XMLID_1764_">
				<path id="XMLID_1765_" class="st1" d="M63.4,44.6c0,0.1-0.1,0.1-0.3,0.4c-0.1,0.1-0.1,0.1-0.3,0.3c-0.1,0.1-0.3,0.3-0.3,0.4
					c-0.1,0.1-0.3,0.3-0.4,0.6c-0.1,0.1-0.1,0.3-0.3,0.3c-0.3,0.4-0.4,0.7-0.6,1.1c-0.1,0.1-0.1,0.3-0.1,0.6c0,0.3-0.1,0.3-0.1,0.6
					c0,0.1,0,0.3-0.1,0.4c-0.1,0.4-0.1,0.9-0.1,1.3c0,0.3,0,0.7,0.1,1c0,0.1,0.1,0.3,0.1,0.6c0,0.1,0,0.3,0.1,0.4l0.1,0.3
					c0.1,0.3,0.3,0.6,0.4,0.9c0.1,0.3,0.4,0.7,0.6,1c0.3,0.3,0.6,0.7,0.9,0.9c0,0,0,0,0.1,0l0.1,0.1l0,0l0.3,0.3
					c0.1,0.1,0.4,0.3,0.6,0.6l0.3,0.1l0.3,0.3l0.4,0.3c0.1,0.1,0.3,0.1,0.4,0.3l0.3,0.1c0.1,0,0.1,0.1,0.3,0.1
					c0.3,0.3,0.7,0.4,1.1,0.7l0.9,0.6l0.4,0.3c0.1,0,0.3,0.1,0.3,0.1l0.3,0.1c0.3,0.1,0.6,0.3,0.9,0.4l1,0.6
					c0.3,0.1,0.7,0.4,1.1,0.6c0.1,0,0.1,0.1,0.3,0.1c0.1,0,0.3,0.1,0.3,0.1l0.7,0.4c0.4,0.3,0.9,0.6,1.3,0.7
					c0.3,0.1,13.2,8.3,13.5,8.5c0.1,0,0.1,0.1,0.3,0.1s0.1,0.1,0.3,0.1c0.1,0.1,0.1,0.1,0.1,0.1s-0.1,0-0.3,0
					c-0.1,0-0.3-0.1-0.4-0.1c-0.1,0-0.1-0.1-0.3-0.1c-0.1-0.1-0.3-0.1-0.4-0.3s-0.3-0.1-0.4-0.3c-0.4-0.3-13.7-8.6-14.1-8.9
					c-0.1-0.1-0.3-0.1-0.4-0.3c-0.1-0.1-0.3-0.1-0.6-0.3l0,0l0,0c-0.1-0.1-0.4-0.3-0.6-0.3l-0.7-0.4c-0.6-0.3-1-0.6-1.6-0.9L69,59.7
					l-0.7-0.4c-0.1,0-0.3-0.1-0.4-0.1c-0.1,0-0.3-0.1-0.3-0.1c-0.1-0.1-0.4-0.1-0.6-0.3c-0.7-0.4-1.4-0.9-2.2-1.4
					c-0.1-0.1-0.3-0.1-0.3-0.3c-0.1,0-0.1-0.1-0.3-0.3L64,56.4c-0.1-0.1-0.3-0.3-0.4-0.3c-0.1-0.1-0.3-0.3-0.4-0.4L63,55.5
					c-0.1-0.1-0.3-0.3-0.3-0.4c-0.1-0.3-0.3-0.4-0.4-0.7c-0.3-0.6-0.6-1.1-0.7-1.6l-0.1-0.3c-0.1-0.3-0.1-0.6-0.1-0.9
					c0-0.1,0-0.3,0-0.4c0-0.1,0-0.3,0-0.4c0-0.3,0-0.4,0-0.7c0-0.9,0.3-1.7,0.7-2.6c0-0.1,0.1-0.3,0.1-0.4c0-0.1,0.1-0.1,0.1-0.3
					l0.3-0.4c0.1-0.1,0.1-0.3,0.3-0.4c0.1-0.1,0.3-0.3,0.3-0.4c0.1-0.1,0.1-0.1,0.3-0.3c0.1-0.1,0.3-0.1,0.3-0.3c0,0,0.1,0,0.1-0.1
					C63.2,44.5,63.4,44.5,63.4,44.6L63.4,44.6z"/>
			</g>
		</g>
		<path class="st1" d="M81.5,37.3L81.5,37.3l-16.8-2.6c-0.1,0-0.1-0.1-0.1-0.1l0.1-0.1L81.5,37c0.1,0,0.1,0.1,0.1,0.1
			C81.6,37.3,81.6,37.3,81.5,37.3z"/>
		<path class="st1" d="M71.6,30.8l0.3-4l5-1.1c0.4-0.1,1-0.1,1.4,0l1,0.3c0.1,0,0.1,0.1,0.1,0.1c0,0.1-0.1,0.1-0.1,0.1l-1-0.3
			c-0.4-0.1-0.9-0.1-1.3,0l-4.7,1L72,30.4l5.5-0.1c0.4,0,0.9-0.1,1.3-0.3l1.1-0.4c0.1,0,0.1,0,0.3,0.1s0,0.1-0.1,0.1l-1.1,0.4
			c-0.4,0.1-0.9,0.3-1.4,0.3L71.6,30.8z"/>
		<path class="st1" d="M104.3,68.8L104.3,68.8L71.4,45.1c-0.1,0-0.1-0.1,0-0.3c0-0.1,0.1-0.1,0.3,0l32.8,23.6c0.1,0,0.1,0.1,0,0.3
			C104.5,68.8,104.5,68.8,104.3,68.8z"/>
		<path class="st1" d="M60.9,90.8c-0.3,0-0.4,0-0.4,0c-0.1,0-0.1-0.1-0.1-0.1l0.1-0.1l0,0c0.1,0,8.3,0.1,15.1-2.2
			c6.6-2.4,10.9-6,11.1-6.2c0.1,0,0.1,0,0.3,0c0,0,0,0.1,0,0.3c0,0-4.5,3.7-11.1,6.2C69.9,90.6,62.8,90.8,60.9,90.8z"/>
	</g>
</g>
</svg>
