<?xml version="1.0" encoding="utf-8"?>
<!-- Generator: Adobe Illustrator 22.1.0, SVG Export Plug-In . SVG Version: 6.00 Build 0)  -->
<svg version="1.1" id="Modo_de_aislamiento" xmlns="http://www.w3.org/2000/svg" xmlns:xlink="http://www.w3.org/1999/xlink"
	 x="0px" y="0px" viewBox="0 0 145.5 226.8" style="enable-background:new 0 0 145.5 226.8;" xml:space="preserve">
<style type="text/css">
	.st0{fill:#F9E850;}
	.st1{fill:#0A0A0A;}
	.st2{fill:#F6B517;}
	.st3{fill:url(#SVGID_1_);}
	.st4{fill:url(#SVGID_2_);}
	.st5{fill:url(#SVGID_3_);}
	.st6{fill:url(#SVGID_4_);}
	.st7{fill:url(#SVGID_5_);}
	.st8{fill:url(#SVGID_6_);}
	.st9{fill:url(#SVGID_7_);}
	.st10{fill:#1A1B1D;}
	.st11{fill:#E1BA9E;}
	.st12{fill:#FFFFFF;}
</style>
<g>
	<path class="st0" d="M52,111.8c-0.6,5.4-1.1,13.8-0.3,24.1c1,13.3,3.7,21.7,7,35.9c2,8.7,4.8,21.4,7.3,37.4
		c0.6,0.3,2.3,1.2,4.5,0.9c1.2-0.2,7.7,0.4,8.3,0.1c6.5-20,1.4-32.7-1.7-40.4c-1.3-3.3-2.6-12.4-2.6-12.4s-1.7-8.9-1.4-25.2
		c0.2-11.1,1.2-12.7,0.2-14.4C69.5,111.3,57.7,111.4,52,111.8z"/>
	<path class="st0" d="M74.5,114.2c4,20.7,7.9,31.5,10.9,37.6c0.7,1.5,3,13.1,3,13.1l2.6,14.5c0,0,1.5,19.2,10.7,31.3
		c0.1,0.1,8.2-4.1,9.7-4.9c0.8-0.4,1.1-1,1.3-1.3c-1.2-11.6-2.6-21.3-3.8-28.9c-0.3-1.6-1.4-8.5-3.1-17.6c-0.7-3.6-1.7-8.8-2.9-14.2
		c-1.5-6.7-3.8-15.8-7.2-26.7C88.6,116.2,81.6,115.2,74.5,114.2z"/>
	<path class="st1" d="M71.1,32.5c-2.3-2.1-6.6-4.5-8.8-10.1c-0.7-1.7-3-7.7,0.4-12.3c2-2.7,5.8-4.6,9.1-3.9c2.8,0.6,3.3,2.5,8.1,6.5
		c1.9,1.6,4.9,4,8.3,5.4c5.8,2.4,9.2,0.1,15,0.4c7.1,0.3,15.4,4.3,19.3,10.1c7.1,10.2-3.2,20.6,4.6,32.6c2.5,3.9,3.8,3,9.8,10.7
		c6,7.6,9,11.4,8.5,16.1c-0.7,6.5-7.7,12.7-14.3,13.1c-6.4,0.4-10.5-4.6-13.8-2.4c-2.3,1.6-1,4.6-3.5,8.3c-3.2,4.7-9.4,5.7-10.5,5.8
		c-9.4,1.4-22-9.6-27.4-22.6C66.4,66.6,83.4,43.9,71.1,32.5z"/>
	<path class="st2" d="M32.6,39c-0.1-6.6,14.8-11.8,21.7-13.5c10.6-2.6,19.1-1,21.2-0.5c13.2,2.8,21.5,10.7,24.6,14.1
		c-2.5,1.7-9.5,6.7-13,16.3c-1.1,3-4.3,13.2,0.3,22.7c2.6,5.5,7.3,9.6,10.8,12.8c5.3,4.7,8,5.4,9.8,9.6c1.9,4.6,0,6.8,2.4,10
		c2.6,3.4,5.6,1.8,10,5.2c4.5,3.5,2.9,6.4,7,10.2c5.9,5.6,13.8,3.8,14.1,6.3c0.3,2.2-5.3,5.1-10,6.3c-9.4,2.4-17.6-1.6-20-2.8
		c-6.7-3.4-5.6-5.6-10.7-8.2c-8.6-4.3-14.5,0.5-34.1,1c-10.6,0.3-16,0.3-18.9-3.3c-2.7-3.3-1.3-6.9,0.3-22.4
		c0.8-7.4,1-14.8,1.6-22.2c1.6-20.9,1.6-22.8,0.2-25.7C44.7,44.5,32.7,44.9,32.6,39z"/>
	<path class="st0" d="M76.5,58.1c-1.8,3.8,6.4,12.6,15.5,16.7c1.9,0.9,15.1,7,21.1,1.1c4.9-4.9,1.7-14.9,0.6-18.5
		C108.2,39.8,91.2,30.8,84,27.6c-5.3,13.3-2.2,19.2-1,21.1c1.3,1.9,4.9,6,8.7,9.6c2.7,2.5,4.4,3.7,4.1,4.1
		c-0.3,0.5-3.4-0.4-15.7-6.4C78.8,56.3,77.2,56.8,76.5,58.1z"/>
	<path class="st0" d="M25.4,36.4l6,29.9c0.2,1,0.9,1.7,1.9,1.9L78,77.8c1.6,0.3,3.1-1,3-2.6l-2.4-30.4c-0.1-1.1-0.8-1.9-1.9-2.2
		c-7.1-1.8-34.4-8.3-48.8-9.2C26.3,33.4,25.1,34.8,25.4,36.4z"/>
	
		<linearGradient id="SVGID_1_" gradientUnits="userSpaceOnUse" x1="64.1251" y1="195.622" x2="96.3296" y2="232.1827" gradientTransform="matrix(1 0 0 -1 0 226.9291)">
		<stop  offset="0" style="stop-color:#FFC444"/>
		<stop  offset="0.9964" style="stop-color:#F36F56"/>
	</linearGradient>
	<path class="st3" d="M70,14.6c0,0,0.8,6.7,3.3,8.3c2.5,1.5,6.5,3.6,7,4.1c0.4,0.5-15.4,2.3-23.3-1.7l0,0c2.6-0.5,3.3-0.7,3.3-0.7
		c0.7-0.2,2-0.6,3.3-1.3c0.9-0.5,2.3-1.5,3.7-3.4v-3.7L70,14.6z"/>
	
		<linearGradient id="SVGID_2_" gradientUnits="userSpaceOnUse" x1="42.5151" y1="169.7466" x2="76.12" y2="141.8981" gradientTransform="matrix(1 0 0 -1 0 226.9291)">
		<stop  offset="0" style="stop-color:#FFC444"/>
		<stop  offset="0.9964" style="stop-color:#F36F56"/>
	</linearGradient>
	<path class="st4" d="M28.2,52.3c0,0-2.9-2.6-3.2-5.7c-0.3-3.1,1.8-5.5,3.9-6.1s3.2,0.3,1.8,3.3C29.4,46.8,27.2,48.8,28.2,52.3z"/>
	
		<linearGradient id="SVGID_3_" gradientUnits="userSpaceOnUse" x1="44.6728" y1="163.7816" x2="78.2777" y2="135.9331" gradientTransform="matrix(1 0 0 -1 0 226.9291)">
		<stop  offset="0" style="stop-color:#FFC444"/>
		<stop  offset="0.9964" style="stop-color:#F36F56"/>
	</linearGradient>
	<path class="st5" d="M30.4,58.3c0,0-2.9-2.6-3.2-5.7c-0.3-3.1,1.8-5.5,3.9-6.1s3.2,0.3,1.8,3.3C31.5,52.8,29.3,54.8,30.4,58.3z"/>
	
		<linearGradient id="SVGID_4_" gradientUnits="userSpaceOnUse" x1="45.7219" y1="157.7409" x2="79.3267" y2="129.8924" gradientTransform="matrix(1 0 0 -1 0 226.9291)">
		<stop  offset="0" style="stop-color:#FFC444"/>
		<stop  offset="0.9964" style="stop-color:#F36F56"/>
	</linearGradient>
	<path class="st6" d="M31.4,64.3c0,0-2.9-2.6-3.2-5.7c-0.3-3.1,1.8-5.5,3.9-6.1s3.2,0.3,1.8,3.3C32.6,58.8,30.4,60.8,31.4,64.3z"/>
	<g>
		
			<linearGradient id="SVGID_5_" gradientUnits="userSpaceOnUse" x1="1199.5747" y1="372.9449" x2="1233.1796" y2="345.0964" gradientTransform="matrix(-0.9307 0.3658 -0.3658 -0.9307 1321.0853 -23.3407)">
			<stop  offset="0" style="stop-color:#FFC444"/>
			<stop  offset="0.9964" style="stop-color:#F36F56"/>
		</linearGradient>
		<path class="st7" d="M79.8,58.6c0,0,1.7-3.5,0.9-6.5c-0.8-3-3.7-4.5-5.9-4.3c-2.2,0.2-2.9,1.4-0.5,3.7
			C76.7,53.9,79.5,54.9,79.8,58.6z"/>
		
			<linearGradient id="SVGID_6_" gradientUnits="userSpaceOnUse" x1="1201.6996" y1="366.9403" x2="1235.3044" y2="339.0918" gradientTransform="matrix(-0.9307 0.3658 -0.3658 -0.9307 1321.0853 -23.3407)">
			<stop  offset="0" style="stop-color:#FFC444"/>
			<stop  offset="0.9964" style="stop-color:#F36F56"/>
		</linearGradient>
		<path class="st8" d="M80,65c0,0,1.7-3.5,0.9-6.5c-0.8-3-3.7-4.5-5.9-4.3c-2.2,0.2-2.9,1.4-0.5,3.7C76.9,60.3,79.7,61.3,80,65z"/>
		
			<linearGradient id="SVGID_7_" gradientUnits="userSpaceOnUse" x1="1202.769" y1="360.9242" x2="1236.3739" y2="333.0757" gradientTransform="matrix(-0.9307 0.3658 -0.3658 -0.9307 1321.0853 -23.3407)">
			<stop  offset="0" style="stop-color:#FFC444"/>
			<stop  offset="0.9964" style="stop-color:#F36F56"/>
		</linearGradient>
		<path class="st9" d="M81.2,71c0,0,1.7-3.5,0.9-6.5c-0.8-3-3.7-4.5-5.9-4.3c-2.2,0.2-2.9,1.4-0.5,3.7C78.1,66.3,80.9,67.3,81.2,71z
			"/>
	</g>
	<g id="XMLID_139_">
		<g id="XMLID_140_">
			<path id="XMLID_141_" class="st10" d="M74.4,10.6c-1.6-2.6-5-3.6-8.1-3.2c-3,0.4-5.8,2-8.4,3.5c-2.7,1.5-5.4,3-8.5,3.3
				c-4.6,0.4-9.5-1.9-13.7,0c-2.4,1.1-4.1,3.4-5.8,5.5c-1.7,2-4,4-6.6,4.1c-2.2,0-4.2-1.3-6.3-1.9c-2.5-0.7-5.3-0.2-7.3,1.4
				s-3.1,4.4-2.6,6.9s2.8,5.1,5.4,5.3c2.9,0.2,5.6-0.8,8.5-1c3.1-0.2,5.8,1.7,8.6,3.1c2.7,1.4,6.2,2.5,8.7,0.7
				c2.2-1.5,2.9-4.5,5-6.2c2.4-1.9,5.8-1.5,8.7-0.8c2.9,0.7,6.1,0.1,8.9-1.2c2.8-1.2,4.3-4.1,6.6-6.1c1.3-1.1,2.9-2,4.1-3.2
				c1.6-1.6,2.3-3.8,3-6C75,13.1,75.5,12,74.4,10.6"/>
		</g>
	</g>
	<g id="XMLID_77_">
		<g id="XMLID_134_">
			<g id="XMLID_135_">
				<g id="XMLID_136_">
					<g id="XMLID_137_">
						<path id="XMLID_138_" class="st11" d="M68.6,27.1c1.9,0,3.4-1.5,3.4-3.4v-6c0-1.9-1.5-3.4-3.4-3.4s-3.4,1.5-3.4,3.4v6
							C65.2,25.6,66.7,27.1,68.6,27.1z"/>
					</g>
				</g>
			</g>
		</g>
		<g id="XMLID_129_">
			<g id="XMLID_130_">
				<g id="XMLID_131_">
					<g id="XMLID_132_">
						<path id="XMLID_133_" class="st10" d="M71.9,23.8v-6c0-1.9-1.5-3.4-3.4-3.4s-3.4,1.5-3.4,3.4l0,0l2.2,3.9L71.9,23.8z"/>
					</g>
				</g>
			</g>
		</g>
		<g id="XMLID_78_">
			<g id="XMLID_124_">
				<g id="XMLID_125_">
					<g id="XMLID_126_">
						<g id="XMLID_127_">
							<path id="XMLID_128_" class="st11" d="M70.4,22.3c1.8-0.1,3.9-1.1,5-2.6c1-1.4,0.8-3.1,0.5-4.7s-0.8-3.4-1.8-4.7
								s-2.7-2-4.4-2c-2.9,0.2-5.1,2.6-5,5.6l0.2,3.4C65,20.2,67.5,22.4,70.4,22.3z"/>
						</g>
					</g>
				</g>
			</g>
			<g id="XMLID_119_">
				<g id="XMLID_120_">
					<g id="XMLID_121_">
						<g id="XMLID_122_">
							<path id="XMLID_123_" class="st11" d="M66,17c-0.3,0.1-0.6,0.1-0.9,0.1c-0.1,0-0.2,0-0.3,0.1c0,0-0.7,0.4-0.4-0.1
								c0,0,0.6,0.1,0.7,0.1c0.2,0,0.4,0,0.5,0s0.1,0,0.2,0c0.2-0.1,0.3-0.1,0.1,0.1c0.1-0.5,0.6-0.7,1-0.6c0.5,0.1,0.7,0.6,0.6,1
								c-0.1,1-1.3,1.1-2.1,1.2c-0.7,0.1-1.7,0-2.2-0.5c-0.6-0.6-0.5-1.6,0.2-2.2c0.3-0.2,0.6-0.5,1-0.6s0.8-0.1,1.1-0.2
								C66.6,15,67,16.6,66,17L66,17z"/>
						</g>
					</g>
				</g>
			</g>
			<g id="XMLID_79_">
				<g id="XMLID_113_">
					<g id="XMLID_114_">
						<g id="XMLID_115_">
							<g id="XMLID_116_">
								<path id="XMLID_117_" class="st10" d="M72.5,17.3C72.5,17.2,72.5,17.2,72.5,17.3c0.1-0.1,0.1-0.1,0.1-0.1h0.1h0.1
									c0,0,0,0,0.1,0s0.1,0,0.2,0h0.1c0,0,0,0,0.1,0l0,0c0.1,0,0.1,0,0.1,0s0.1,0,0.1-0.1l0,0l0,0l0,0V17v-0.1c0-0.1,0-0.1,0-0.1
									l0,0l0,0l0,0c0,0,0,0,0-0.1v-0.1l0,0v-0.1v-0.1c0,0,0,0,0-0.1l0,0l0,0c0-0.1,0-0.1,0-0.2c0-0.1,0-0.1,0-0.1v-0.1
									c0,0,0,0,0-0.1l0,0v-0.1c0-0.1,0-0.1,0-0.1c0-0.1,0-0.1,0-0.2l0,0c0,0,0,0,0-0.1v-0.1c0-0.1,0-0.1,0-0.2v-0.1l0,0l0,0
									c0,0,0.1,0,0.1-0.1h0.1c0,0,0.1,0,0.1,0.1l0,0V15c0,0,0,0,0,0.1s0,0.1,0,0.2c0,0,0,0,0,0.1v0.1l0,0l0,0v0.1v0.1
									c0,0.1,0,0.1,0,0.2l0,0V16c0,0,0,0,0,0.1c0,0,0,0,0,0.1v0.1c0,0.1,0,0.2,0.1,0.3c0,0,0,0,0,0.1c0,0,0,0,0,0.1s0,0,0,0.1
									c0,0,0,0,0,0.1v0.1l0,0v0.1v0.1c0,0.1,0,0.2-0.1,0.2c0,0,0,0,0,0.1l-0.1,0.1c0,0,0,0-0.1,0s0,0-0.1,0c0,0-0.1,0-0.1,0.1
									c-0.1,0-0.2,0.1-0.4,0.1c0,0,0,0-0.1,0c0,0,0,0-0.1,0c0,0,0,0-0.1,0c0,0,0,0-0.1,0h-0.1c0,0,0,0-0.1,0c0,0,0,0-0.1,0
									C72.6,17.4,72.6,17.4,72.5,17.3C72.6,17.3,72.6,17.3,72.5,17.3L72.5,17.3z"/>
							</g>
						</g>
					</g>
				</g>
				<g id="XMLID_108_">
					<g id="XMLID_109_">
						<g id="XMLID_110_">
							<g id="XMLID_111_">
								<path id="XMLID_112_" class="st10" d="M63.9,17C63.9,16.9,63.9,16.9,63.9,17C63.9,16.9,63.9,16.9,63.9,17v-0.1l0,0l0,0
									l0.1-0.1l0,0l0,0l0,0h0.1h0.1l0,0l0,0l0,0h0.1h0.1h0.1l0,0l0,0l0,0l0,0h0.1l0,0l0,0l0,0l0,0l0,0l0,0c0,0,0.1,0,0.1,0.1
									c0,0,0,0,0.1,0.1l0,0l0,0l0,0h0.1c0,0,0,0,0.1,0.1c0,0,0,0.1,0.1,0.1l0,0l0,0v0.1v0.1c0,0,0,0,0,0.1l0,0l0,0H65h-0.1l0,0
									l0,0l0,0l0,0v-0.1l0,0l0,0l0,0l0,0l0,0l0,0c0,0,0,0-0.1-0.1l0,0l0,0l0,0l0,0l0,0l-0.1-0.1l0,0l0,0l0,0l0,0l0,0l0,0l0,0l0,0
									h-0.1l0,0l0,0l0,0l0,0l0,0c0,0-0.1,0-0.1,0.1l0,0l0,0l0,0l0,0l0,0l0,0l0,0l0,0C64,17,64,17,63.9,17L63.9,17z"/>
							</g>
						</g>
					</g>
				</g>
				<g id="XMLID_103_">
					<g id="XMLID_104_">
						<g id="XMLID_105_">
							<g id="XMLID_106_">
								<path id="XMLID_107_" class="st10" d="M64.2,17.7C64.1,17.7,64.1,17.7,64.2,17.7L64.2,17.7L64.2,17.7
									c-0.1-0.1-0.1-0.1-0.1-0.1l0,0v-0.1l0,0l0,0l0,0c0,0,0-0.1,0.1-0.1c0,0,0,0,0-0.1l0,0l0,0l0,0c0,0,0,0,0-0.1c0,0,0,0,0.1,0
									c0,0,0,0,0.1,0l0,0l0,0l0,0l0,0h0.1l0,0l0,0l0,0l0,0l0,0l0,0h0.1h0.1l0,0l0,0l0,0c0,0,0,0,0.1,0h0.1H65l0,0l0,0h0.1
									c0,0,0,0.1,0.1,0.1c0,0,0,0,0.1,0l0,0l0,0c0,0,0,0.1-0.1,0.1c0,0-0.1,0-0.1,0.1l0,0l0,0l0,0l0,0c0,0,0,0-0.1,0l0,0l0,0l0,0
									l0,0l0,0l0,0h-0.1l0,0l0,0l0,0l0,0l0,0h-0.1l0,0l0,0l0,0l0,0l0,0l0,0l0,0l0,0c0,0,0,0-0.1,0.1l0,0l0,0l0,0l0,0l0,0
									c0,0,0,0.1-0.1,0.1l0,0l0,0l0,0l0,0l0,0l0,0l0,0l0,0H64.2L64.2,17.7z"/>
							</g>
						</g>
					</g>
				</g>
				<g id="XMLID_98_">
					<g id="XMLID_99_">
						<g id="XMLID_100_">
							<g id="XMLID_101_">
								<path id="XMLID_102_" class="st10" d="M71.7,17.9C71.8,17.9,71.8,17.9,71.7,17.9C71.8,17.9,71.8,17.9,71.7,17.9L71.7,17.9
									L71.7,17.9L71.7,17.9c0.1,0,0.1,0,0.2,0.1l0,0l0,0l0,0c0,0,0,0,0,0.1l0,0l0,0l0,0l0,0c0,0,0,0,0.1,0c0,0,0,0,0.1,0
									c0,0,0,0,0.1,0l0,0l0,0l0,0l0,0l0,0l0,0l0,0l0,0l0,0l0,0l0,0h0.1c0,0,0,0,0.1,0l0,0l0,0l0,0c0,0,0,0,0.1,0s0,0,0.1,0
									c0,0,0,0,0.1,0l0,0l0,0l0,0h0.1l0,0l0,0l0,0c0,0,0,0.1,0.1,0.1v0.1c0,0,0,0,0,0.1l0,0l0,0l0,0h-0.1l0,0c0,0,0,0-0.1,0l0,0
									l0,0c0,0,0,0-0.1,0s0,0-0.1,0h-0.1l0,0c0,0,0,0-0.1,0s0,0,0,0l0,0l0,0c-0.1,0-0.1,0-0.2-0.1l0,0l0,0l0,0l0,0l0,0l0,0l0,0
									c0,0,0,0-0.1,0l-0.1-0.1l0,0c0,0,0,0-0.1,0l0,0l0,0l0,0l-0.1-0.1l0,0l0,0l0,0l0,0l0,0l0,0l0,0l0,0
									C71.6,17.9,71.7,17.9,71.7,17.9L71.7,17.9z"/>
							</g>
						</g>
					</g>
				</g>
				<g id="XMLID_94_">
					<g id="XMLID_95_">
						<g id="XMLID_96_">
							<path id="XMLID_97_" class="st10" d="M71.2,15.9L71.2,15.9c0.2,0,0.3-0.1,0.3-0.3v-0.1c0-0.2-0.1-0.3-0.3-0.3
								c-0.2,0-0.3,0.1-0.3,0.3v0.1C70.9,15.8,71.1,15.9,71.2,15.9z"/>
						</g>
					</g>
				</g>
				<g id="XMLID_90_">
					<g id="XMLID_91_">
						<g id="XMLID_92_">
							<path id="XMLID_93_" class="st10" d="M74.4,15.7L74.4,15.7c0.2,0,0.3-0.1,0.3-0.3v-0.1c0-0.2-0.1-0.3-0.3-0.3
								c-0.2,0-0.3,0.1-0.3,0.3v0.1C74.1,15.6,74.2,15.7,74.4,15.7z"/>
						</g>
					</g>
				</g>
				<g id="XMLID_85_">
					<g id="XMLID_86_">
						<g id="XMLID_87_">
							<g id="XMLID_88_">
								<path id="XMLID_89_" class="st10" d="M70.5,14.6C70.4,14.6,70.4,14.6,70.5,14.6C70.4,14.5,70.4,14.5,70.5,14.6v-0.1l0,0l0,0
									c0,0,0,0,0.1-0.1l0,0l0,0l0,0c0,0,0,0,0.1,0c0,0,0,0,0.1,0l0,0l0,0l0,0c0,0,0,0,0.1,0c0,0,0,0,0.1,0c0,0,0,0,0.1,0l0,0l0,0
									l0,0l0,0l0,0l0,0l0,0l0,0l0,0l0,0l0,0h0.1c0,0,0,0,0.1,0l0,0l0,0l0,0c0,0,0,0,0.1,0c0,0,0,0,0.1,0h0.1l0,0l0,0l0,0h0.1
									c0,0,0,0,0.1,0l0,0l0,0v0.1c0,0,0,0.1-0.1,0.1l0,0l0,0l0,0l0,0c0,0,0,0-0.1,0l0,0l0,0l0,0l0,0l0,0l0,0h-0.1l0,0l0,0l0,0l0,0
									l0,0h-0.1l0,0l0,0l0,0l0,0l0,0l0,0l0,0l0,0h-0.1l0,0l0,0l0,0l0,0l0,0c0,0-0.1,0-0.1,0.1l0,0l0,0l0,0l0,0l0,0l0,0l0,0l0,0
									C70.5,14.7,70.5,14.6,70.5,14.6L70.5,14.6z"/>
							</g>
						</g>
					</g>
				</g>
				<g id="XMLID_80_">
					<g id="XMLID_81_">
						<g id="XMLID_82_">
							<g id="XMLID_83_">
								<path id="XMLID_84_" class="st10" d="M75,14.4C74.9,14.5,74.9,14.5,75,14.4L75,14.4L75,14.4C74.9,14.4,74.9,14.4,75,14.4
									L75,14.4c-0.1,0-0.1,0-0.2,0l0,0l0,0l0,0c0,0,0,0-0.1,0l0,0l0,0l0,0l0,0c0,0,0,0-0.1,0s0,0-0.1,0c0,0,0,0-0.1,0l0,0l0,0l0,0
									l0,0l0,0l0,0l0,0l0,0l0,0l0,0l0,0c0,0,0,0-0.1,0c0,0,0,0-0.1,0l0,0l0,0l0,0l0,0c0,0,0,0-0.1,0c0,0,0,0-0.1,0l0,0l0,0l0,0
									h-0.1l0,0l0,0l0,0c0,0,0-0.1-0.1-0.1v-0.1c0,0,0,0,0-0.1l0,0l0,0l0,0h0.1l0,0l0,0l0,0l0,0l0,0l0,0H74l0,0c0,0,0,0,0.1,0l0,0
									l0,0l0,0c0.1,0,0.1,0,0.1,0l0,0l0,0l0,0l0,0l0,0l0,0l0,0c0,0,0,0,0.1,0h0.1l0,0c0,0,0,0,0.1,0l0,0l0,0l0,0
									c0,0,0.1,0,0.1,0.1l0,0l0,0l0,0l0,0l0,0l0,0l0,0l0,0C74.9,14.3,74.9,14.3,75,14.4L75,14.4z"/>
							</g>
						</g>
					</g>
				</g>
			</g>
		</g>
	</g>
	<g id="XMLID_73_">
		<g id="XMLID_74_">
			<g id="XMLID_75_">
				<path id="XMLID_76_" class="st10" d="M74.9,11.7c0,0-5.6-1.8-6.3,1.2c-0.9,3.3-3.7,2.6-3.7,2.6s-3.2-5.5,0.6-6.6
					C69.1,7.8,73.2,7.5,74.9,11.7z"/>
			</g>
		</g>
	</g>
	<g>
		<g id="XMLID_69_">
			<g id="XMLID_70_">
				<g id="XMLID_71_">
					<polygon id="XMLID_72_" class="st2" points="85.5,205.4 85.5,217.8 54.6,225.4 61.8,215.5 62,210.7 					"/>
				</g>
			</g>
		</g>
		<g id="XMLID_64_">
			<g id="XMLID_65_">
				<g id="XMLID_66_">
					<g id="XMLID_67_">
						<path id="XMLID_68_" class="st12" d="M85.4,215.6c0,0.1,0,0.2-0.1,0.3c-0.1,0-0.1,0.1-0.2,0.1s-0.3,0.1-0.4,0.1
							s-0.3,0.1-0.4,0.1s-0.4,0.1-0.5,0.1s-0.3,0.1-0.5,0.1s-0.3,0-0.4,0.1c-0.1,0-0.2,0.1-0.3,0.1c-0.1,0-0.3,0.1-0.4,0.1
							c-0.9,0.2-1.8,0.4-2.7,0.7c-0.2,0.1-0.4,0.1-0.7,0.1c-0.1,0-0.2,0.1-0.4,0.1c-0.1,0-0.3,0.1-0.5,0.1c-0.3,0.1-0.6,0.2-0.9,0.2
							c-0.1,0-0.2,0.1-0.4,0.1c-0.6,0.2-1.2,0.3-1.8,0.4c-0.3,0.1-0.6,0.1-0.9,0.2c-0.1,0-0.3,0.1-0.5,0.1c-0.1,0-0.1,0-0.2,0.1
							c-0.2,0-0.4,0.1-0.5,0.1s-0.3,0.1-0.5,0.1s-0.3,0-0.4,0.1c-0.1,0-0.2,0.1-0.3,0.1c-0.1,0-0.3,0.1-0.4,0.1
							c-0.9,0.2-1.8,0.4-2.7,0.7c-0.2,0.1-0.4,0.1-0.7,0.1c-0.1,0-0.2,0.1-0.4,0.1c-0.1,0-0.3,0.1-0.5,0.1c-0.3,0-0.6,0.1-0.9,0.2
							c-0.1,0-0.2,0.1-0.4,0.1c-0.6,0.2-1.2,0.3-1.8,0.4c-0.3,0.1-0.6,0.1-0.9,0.2c-0.2,0.1-0.6,0.1-0.8,0.2c0,0,0,0-0.1,0
							c0,0,0,0-0.1,0c-0.2,0.1-0.4,0.1-0.7,0.2c-0.2,0.1-0.4,0.1-0.6,0.1c-0.6,0.1-1.1,0.3-1.6,0.4c-0.2,0-0.4,0.1-0.5,0.1
							s-0.4,0.1-0.6,0.1c-0.1,0-0.2,0.1-0.3,0.1c-0.2,0.1-0.4,0-0.6,0c-0.1,0-0.3-0.1-0.3-0.2c-0.1-0.1,0-0.2,0.2-0.3
							c0.1-0.1,0.2-0.1,0.3-0.2s0.2-0.1,0.3-0.1c0.3-0.1,0.6-0.1,0.9-0.2c0.5-0.1,1.1-0.3,1.6-0.4c0.3-0.1,0.6-0.1,0.8-0.2
							c0.1,0,0.3-0.1,0.4-0.1s0.2,0,0.3,0c0.4-0.1,0.9-0.2,1.3-0.3s0.8-0.2,1.2-0.3c0.4-0.1,0.7-0.1,1.1-0.2c0.1,0,0.2-0.1,0.3-0.1
							c0.2,0,0.3-0.1,0.4-0.1c0.2,0,0.4-0.1,0.6-0.1c0.4-0.1,0.7-0.2,1.1-0.3c0.4-0.2,0.9-0.2,1.3-0.3c0.1-0.1,0.2,0,0.3-0.1
							c0.1,0,0.2,0,0.3-0.1c0.2,0,0.3-0.1,0.5-0.2c0.2-0.1,0.4-0.1,0.6-0.2c0.1,0,0.3-0.1,0.4-0.1s0.2,0,0.3-0.1
							c0.3-0.1,0.6-0.1,0.8-0.2c0.1,0,0.3-0.1,0.4-0.1c0,0,0,0,0.1,0s0.1,0,0.1,0h0.1c0.4-0.1,0.9-0.2,1.3-0.3s0.8-0.2,1.2-0.3
							c0.4-0.1,0.7-0.1,1.1-0.2c0.1,0,0.2-0.1,0.3-0.1c0.2,0,0.3-0.1,0.4-0.1c0.2,0,0.4-0.1,0.6-0.1c0.4-0.1,0.7-0.2,1.1-0.3
							c0.4-0.2,0.9-0.2,1.3-0.3c0.1,0,0.3,0,0.4-0.1c0.2-0.1,0.4-0.1,0.6-0.2c0.2-0.1,0.4-0.1,0.6-0.2c0.5-0.1,0.9-0.2,1.4-0.3
							c0.1,0,0.3-0.1,0.4-0.1c0.2-0.1,0.4-0.1,0.7-0.1c0.2,0,0.4-0.1,0.5-0.1s0.3-0.1,0.4-0.1c0.3,0,0.4,0,0.5,0.1
							C85.6,215.5,85.6,215.5,85.4,215.6z"/>
					</g>
				</g>
			</g>
		</g>
		<g id="XMLID_59_">
			<g id="XMLID_60_">
				<g id="XMLID_61_">
					<g id="XMLID_62_">
						<path id="XMLID_63_" class="st12" d="M65.2,214.8c0,0.1,0,0.2,0,0.2v0.1c0,0,0,0-0.1,0c0,0,0,0-0.1,0c0,0,0,0-0.1,0
							c0,0,0,0-0.1,0c0,0,0,0-0.1,0c0,0,0,0-0.1,0c0,0,0,0-0.1,0s-0.2,0.1-0.4,0.1H64c0,0,0,0-0.1,0c0,0,0,0-0.1,0h-0.1
							c0,0,0,0-0.1,0s-0.1,0-0.2,0.1h-0.1c0,0,0,0-0.1,0l0,0c0,0,0,0-0.1,0c0,0,0,0-0.1,0c0,0,0,0-0.1,0c0,0,0,0-0.1,0
							c0,0,0,0-0.1,0s-0.2,0.1-0.4,0.1h-0.1c0,0,0,0-0.1,0c0,0,0,0-0.1,0h-0.1c0,0,0,0-0.1,0s-0.1,0-0.2,0.1h-0.1h-0.1l0,0l0,0
							c0,0-0.1,0-0.1,0.1h-0.1c-0.1,0-0.1,0.1-0.2,0.1c0,0,0,0-0.1,0c0,0,0,0-0.1,0l0,0c0,0,0-0.1-0.1-0.1c0-0.1-0.1-0.1-0.1-0.2
							s0-0.2,0-0.2v-0.1l0,0h0.1c0.1,0,0.1-0.1,0.2-0.1s0.1,0,0.1,0s0,0,0.1,0l0,0c0.1,0,0.1,0,0.2,0h0.1c0.1,0,0.1,0,0.2,0l0,0
							c0,0,0,0,0.1,0c0,0,0,0,0.1,0s0.1,0,0.1,0c0-0.1,0.1,0,0.2-0.1l0,0l0,0c0,0,0,0,0.1,0h0.1c0,0,0,0,0.1,0l0,0
							c0.1,0,0.1,0,0.1,0s0,0,0.1,0l0,0l0,0l0,0c0.1,0,0.1,0,0.2,0h0.1c0.1,0,0.1,0,0.2,0l0,0c0,0,0,0,0.1,0c0,0,0,0,0.1,0
							s0.1,0,0.1,0c0-0.1,0.1,0,0.2-0.1c0,0,0,0,0.1,0c0,0,0.1,0,0.1-0.1h0.1c0.1,0,0.1,0,0.2,0c0,0,0,0,0.1,0h0.1c0,0,0,0,0.1,0
							c0,0,0,0,0.1,0c0,0,0.1,0.1,0.1,0.2C65.2,214.7,65.2,214.7,65.2,214.8z"/>
					</g>
				</g>
			</g>
		</g>
		<g id="XMLID_54_">
			<g id="XMLID_55_">
				<g id="XMLID_56_">
					<g id="XMLID_57_">
						<path id="XMLID_58_" class="st12" d="M65.6,212.3c0,0.1,0,0.2,0,0.2v0.1c0,0,0,0-0.1,0c0,0,0,0-0.1,0c0,0,0,0-0.1,0
							c0,0,0,0-0.1,0c0,0,0,0-0.1,0c0,0,0,0-0.1,0c0,0,0,0-0.1,0s-0.2,0.1-0.4,0.1h-0.1c0,0,0,0-0.1,0c0,0,0,0-0.1,0h-0.1
							c0,0,0,0-0.1,0s-0.1,0-0.2,0.1h-0.1c0,0,0,0-0.1,0l0,0c0,0,0,0-0.1,0c0,0,0,0-0.1,0c0,0,0,0-0.1,0c0,0,0,0-0.1,0
							c0,0,0,0-0.1,0s-0.2,0.1-0.4,0.1h-0.1c0,0,0,0-0.1,0c0,0,0,0-0.1,0h-0.1c0,0,0,0-0.1,0s-0.1,0-0.2,0.1h-0.1h-0.1l0,0l0,0
							c0,0-0.1,0-0.1,0.1h-0.1c-0.1,0-0.1,0.1-0.2,0.1c0,0,0,0-0.1,0c0,0,0,0-0.1,0l0,0c0,0,0-0.1-0.1-0.1c0-0.1-0.1-0.1-0.1-0.2
							c0-0.1,0-0.2,0-0.2v-0.1l0,0h0.1c0.1,0,0.1-0.1,0.2-0.1s0.1,0,0.1,0s0,0,0.1,0l0,0c0.1,0,0.1,0,0.2,0h0.1c0.1,0,0.1,0,0.2,0
							l0,0c0,0,0,0,0.1,0c0,0,0,0,0.1,0s0.1,0,0.1,0c0-0.1,0.1,0,0.2-0.1l0,0l0,0c0,0,0,0,0.1,0h0.1c0,0,0,0,0.1,0l0,0
							c0.1,0,0.1,0,0.1,0s0,0,0.1,0l0,0l0,0l0,0c0.1,0,0.1,0,0.2,0h0.1c0.1,0,0.1,0,0.2,0l0,0c0,0,0,0,0.1,0c0,0,0,0,0.1,0
							s0.1,0,0.1,0c0-0.1,0.1,0,0.2-0.1c0,0,0,0,0.1,0c0,0,0.1,0,0.1-0.1h0.1c0.1,0,0.1,0,0.2,0c0,0,0,0,0.1,0h0.1c0,0,0,0,0.1,0
							c0,0,0,0,0.1,0c0,0,0.1,0.1,0.1,0.2C65.6,212.2,65.6,212.2,65.6,212.3z"/>
					</g>
				</g>
			</g>
		</g>
		<g id="XMLID_49_">
			<g id="XMLID_50_">
				<g id="XMLID_51_">
					<g id="XMLID_52_">
						<path id="XMLID_53_" class="st12" d="M79.5,216.9c-0.1,0-0.2,0-0.2,0s-0.1,0-0.1-0.1s0-0.1,0-0.1c0-0.1,0-0.1,0-0.1v-0.2
							c0-0.1,0-0.1,0-0.2v-0.1V216v-0.1c0.1-0.3,0.1-0.6,0.3-0.8c0-0.1,0.1-0.1,0.1-0.2v-0.1c0-0.1,0-0.1,0.1-0.1
							c0-0.1,0.1-0.1,0.2-0.2c0,0,0.1,0,0.1-0.1c0.1-0.2,0.2-0.3,0.4-0.5c0.1-0.1,0.1-0.1,0.2-0.2c0,0,0.1,0,0.1-0.1c0,0,0,0,0.1,0
							l0.1-0.1c0.1,0,0.1-0.1,0.1-0.1s0.1,0,0.1-0.1c0,0,0.1,0,0.1-0.1l0.1-0.1c0.2-0.2,0.5-0.3,0.7-0.4c0.1,0,0.1-0.1,0.2-0.1
							s0.1-0.1,0.1-0.1c0.1,0,0.1-0.1,0.1-0.1c0.1,0,0.2-0.1,0.3-0.1c0.1,0,0.1,0,0.1,0c0.2-0.1,0.3-0.1,0.5-0.2
							c0.1,0,0.2,0,0.3-0.1c0.1,0,0.2,0,0.2,0l0,0l0,0c0.1-0.1,0.1-0.1,0.2-0.1s0.1,0,0.2,0s0.3-0.1,0.5-0.1h0.1c0.1,0,0.1,0,0.2,0
							h0.1c0.1,0,0.1,0,0.2,0.1c0,0.1,0.1,0.1,0.1,0.2s0,0.2,0,0.3c0,0,0,0.1-0.1,0.1s-0.1,0-0.1,0.1c-0.1,0-0.1,0-0.2,0
							c-0.2,0-0.3,0.1-0.4,0.1l-0.2,0.1h-0.1h-0.1c-0.1,0.1-0.2,0.1-0.3,0.1c-0.1,0-0.2,0.1-0.3,0.1c-0.1,0-0.2,0.1-0.3,0.1h-0.1
							l-0.1,0.1l-0.1,0.1c-0.1,0-0.2,0.1-0.3,0.1c-0.1,0.1-0.2,0.1-0.3,0.2c0,0,0,0-0.1,0h-0.1c0,0,0,0.1-0.1,0.1l-0.1,0.1l-0.1,0.1
							h-0.1l-0.2,0.1c0,0-0.1,0-0.1,0.1l0,0l0,0l0,0c-0.1,0.1-0.2,0.2-0.3,0.2c-0.1,0.1-0.1,0.2-0.2,0.2s-0.1,0.2-0.2,0.2h-0.1
							c-0.1,0,0,0.1-0.1,0.1l-0.1,0.1c0,0.1-0.1,0.1-0.1,0.2c0,0.1-0.1,0.2-0.1,0.3c0,0,0,0.1-0.1,0.1c0,0.1,0,0.1,0,0.2l-0.1,0.1
							c0,0.1-0.1,0.2-0.1,0.3s0,0.1,0,0.1c0,0.1-0.1,0.1-0.1,0.2v0.1v0.1c0,0.1-0.1,0.1-0.2,0.1C79.6,216.8,79.5,216.8,79.5,216.9z"
							/>
					</g>
				</g>
			</g>
		</g>
	</g>
	<g>
		<g id="XMLID_45_">
			<g id="XMLID_46_">
				<g id="XMLID_47_">
					<polygon id="XMLID_48_" class="st2" points="115,203.5 115,215.9 84.1,223.5 91.3,213.7 91.5,208.8 					"/>
				</g>
			</g>
		</g>
		<g id="XMLID_40_">
			<g id="XMLID_41_">
				<g id="XMLID_42_">
					<g id="XMLID_43_">
						<path id="XMLID_44_" class="st12" d="M115,213.7c0,0.1,0,0.2-0.1,0.3c-0.1,0-0.1,0.1-0.2,0.1c-0.1,0-0.3,0.1-0.4,0.1
							c-0.1,0-0.3,0.1-0.4,0.1s-0.4,0.1-0.5,0.1s-0.3,0.1-0.5,0.1s-0.3,0-0.4,0.1c-0.1,0-0.2,0.1-0.3,0.1s-0.3,0.1-0.4,0.1
							c-0.9,0.2-1.8,0.4-2.7,0.7c-0.2,0.1-0.4,0.1-0.7,0.1c-0.1,0-0.2,0.1-0.4,0.1c-0.1,0-0.3,0.1-0.5,0.1c-0.3,0.1-0.6,0.2-0.9,0.2
							c-0.1,0-0.2,0.1-0.4,0.1c-0.6,0.2-1.2,0.3-1.8,0.4c-0.3,0.1-0.6,0.1-0.9,0.2c-0.1,0-0.3,0.1-0.5,0.1c-0.1,0-0.1,0-0.2,0.1
							c-0.2,0-0.4,0.1-0.5,0.1s-0.3,0.1-0.5,0.1s-0.3,0-0.4,0.1c-0.1,0-0.2,0.1-0.3,0.1s-0.3,0.1-0.4,0.1c-0.9,0.2-1.8,0.4-2.7,0.7
							c-0.2,0.1-0.4,0.1-0.7,0.1c-0.1,0-0.2,0.1-0.4,0.1c-0.1,0-0.3,0.1-0.5,0.1c-0.3,0-0.6,0.1-0.9,0.2c-0.1,0-0.2,0.1-0.4,0.1
							c-0.6,0.2-1.2,0.3-1.8,0.4c-0.3,0.1-0.6,0.1-0.9,0.2c-0.2,0.1-0.6,0.1-0.8,0.2c0,0,0,0-0.1,0c0,0,0,0-0.1,0
							c-0.2,0.1-0.4,0.1-0.7,0.2c-0.2,0.1-0.4,0.1-0.6,0.1c-0.6,0.1-1.1,0.3-1.6,0.4c-0.2,0-0.4,0.1-0.5,0.1c-0.2,0-0.4,0.1-0.6,0.1
							c-0.1,0-0.2,0.1-0.3,0.1c-0.2,0.1-0.4,0-0.6,0c-0.1,0-0.3-0.1-0.3-0.2c-0.1-0.1,0-0.2,0.2-0.3c0.1-0.1,0.2-0.1,0.3-0.2
							s0.2-0.1,0.3-0.1c0.3-0.1,0.6-0.1,0.9-0.2c0.5-0.1,1.1-0.3,1.6-0.4c0.3-0.1,0.6-0.1,0.8-0.2c0.1,0,0.3-0.1,0.4-0.1
							c0.1,0,0.2,0,0.3,0c0.4-0.1,0.9-0.2,1.3-0.3c0.4-0.1,0.8-0.2,1.2-0.3s0.7-0.1,1.1-0.2c0.1,0,0.2-0.1,0.3-0.1
							c0.2,0,0.3-0.1,0.4-0.1c0.2,0,0.4-0.1,0.6-0.1c0.4-0.1,0.7-0.2,1.1-0.3c0.4-0.2,0.9-0.2,1.3-0.3c0.1-0.1,0.2,0,0.3-0.1
							c0.1,0,0.2,0,0.3-0.1c0.2,0,0.3-0.1,0.5-0.2c0.2-0.1,0.4-0.1,0.6-0.2c0.1,0,0.3-0.1,0.4-0.1c0.1,0,0.2,0,0.3-0.1
							c0.3-0.1,0.6-0.1,0.8-0.2c0.1,0,0.3-0.1,0.4-0.1c0,0,0,0,0.1,0s0.1,0,0.1,0h0.1c0.4-0.1,0.9-0.2,1.3-0.3
							c0.4-0.1,0.8-0.2,1.2-0.3s0.7-0.1,1.1-0.2c0.1,0,0.2-0.1,0.3-0.1c0.2,0,0.3-0.1,0.4-0.1c0.2,0,0.4-0.1,0.6-0.1
							c0.4-0.1,0.7-0.2,1.1-0.3c0.4-0.2,0.9-0.2,1.3-0.3c0.1,0,0.3,0,0.4-0.1c0.2-0.1,0.4-0.1,0.6-0.2c0.2-0.1,0.4-0.1,0.6-0.2
							c0.5-0.1,0.9-0.2,1.4-0.3c0.1,0,0.3-0.1,0.4-0.1c0.2-0.1,0.4-0.1,0.7-0.1c0.2,0,0.4-0.1,0.5-0.1s0.3-0.1,0.4-0.1
							c0.3,0,0.4,0,0.5,0.1C115.1,213.6,115.2,213.6,115,213.7z"/>
					</g>
				</g>
			</g>
		</g>
		<g id="XMLID_35_">
			<g id="XMLID_36_">
				<g id="XMLID_37_">
					<g id="XMLID_38_">
						<path id="XMLID_39_" class="st12" d="M94.8,212.9c0,0.1,0,0.2,0,0.2v0.1c0,0,0,0-0.1,0c0,0,0,0-0.1,0c0,0,0,0-0.1,0
							c0,0,0,0-0.1,0c0,0,0,0-0.1,0c0,0,0,0-0.1,0c0,0,0,0-0.1,0s-0.2,0.1-0.4,0.1h-0.1c0,0,0,0-0.1,0c0,0,0,0-0.1,0h-0.1
							c0,0,0,0-0.1,0s-0.1,0-0.2,0.1h-0.1c0,0,0,0-0.1,0l0,0c0,0,0,0-0.1,0c0,0,0,0-0.1,0c0,0,0,0-0.1,0c0,0,0,0-0.1,0
							c0,0,0,0-0.1,0s-0.2,0.1-0.4,0.1h-0.1c0,0,0,0-0.1,0c0,0,0,0-0.1,0h-0.1c0,0,0,0-0.1,0s-0.1,0-0.2,0.1h-0.1H91l0,0l0,0
							c0,0-0.1,0-0.1,0.1h-0.1c-0.1,0-0.1,0.1-0.2,0.1c0,0,0,0-0.1,0c0,0,0,0-0.1,0l0,0c0,0,0-0.1-0.1-0.1c0-0.1-0.1-0.1-0.1-0.2
							s0-0.2,0-0.2v-0.1l0,0h0.1c0.1,0,0.1-0.1,0.2-0.1c0.1,0,0.1,0,0.1,0s0,0,0.1,0l0,0c0.1,0,0.1,0,0.2,0H91c0.1,0,0.1,0,0.2,0
							l0,0c0,0,0,0,0.1,0c0,0,0,0,0.1,0s0.1,0,0.1,0c0-0.1,0.1,0,0.2-0.1l0,0l0,0c0,0,0,0,0.1,0h0.1c0,0,0,0,0.1,0l0,0
							c0.1,0,0.1,0,0.1,0s0,0,0.1,0l0,0l0,0l0,0c0.1,0,0.1,0,0.2,0h0.1c0.1,0,0.1,0,0.2,0l0,0c0,0,0,0,0.1,0c0,0,0,0,0.1,0
							s0.1,0,0.1,0c0-0.1,0.1,0,0.2-0.1c0,0,0,0,0.1,0c0,0,0.1,0,0.1-0.1h0.1c0.1,0,0.1,0,0.2,0c0,0,0,0,0.1,0h0.1c0,0,0,0,0.1,0
							c0,0,0,0,0.1,0c0,0,0.1,0.1,0.1,0.2C94.7,212.8,94.7,212.9,94.8,212.9z"/>
					</g>
				</g>
			</g>
		</g>
		<g id="XMLID_30_">
			<g id="XMLID_31_">
				<g id="XMLID_32_">
					<g id="XMLID_33_">
						<path id="XMLID_34_" class="st12" d="M95.1,210.4c0,0.1,0,0.2,0,0.2v0.1c0,0,0,0-0.1,0c0,0,0,0-0.1,0c0,0,0,0-0.1,0
							c0,0,0,0-0.1,0c0,0,0,0-0.1,0c0,0,0,0-0.1,0c0,0,0,0-0.1,0s-0.2,0.1-0.4,0.1h-0.1c0,0,0,0-0.1,0c0,0,0,0-0.1,0h-0.1
							c0,0,0,0-0.1,0s-0.1,0-0.2,0.1h-0.1c0,0,0,0-0.1,0l0,0c0,0,0,0-0.1,0c0,0,0,0-0.1,0c0,0,0,0-0.1,0c0,0,0,0-0.1,0
							c0,0,0,0-0.1,0s-0.2,0.1-0.4,0.1h-0.1c0,0,0,0-0.1,0c0,0,0,0-0.1,0h-0.1c0,0,0,0-0.1,0s-0.1,0-0.2,0.1h-0.1h-0.1l0,0l0,0
							c0,0-0.1,0-0.1,0.1h-0.1c-0.1,0-0.1,0.1-0.2,0.1c0,0,0,0-0.1,0c0,0,0,0-0.1,0l0,0c0,0,0-0.1-0.1-0.1c0-0.1-0.1-0.1-0.1-0.2
							s0-0.2,0-0.2v-0.1l0,0h0.1c0.1,0,0.1-0.1,0.2-0.1c0.1,0,0.1,0,0.1,0s0,0,0.1,0l0,0c0.1,0,0.1,0,0.2,0h0.1c0.1,0,0.1,0,0.2,0
							l0,0c0,0,0,0,0.1,0c0,0,0,0,0.1,0s0.1,0,0.1,0c0-0.1,0.1,0,0.2-0.1l0,0l0,0c0,0,0,0,0.1,0h0.1c0,0,0,0,0.1,0l0,0
							c0.1,0,0.1,0,0.1,0s0,0,0.1,0l0,0l0,0l0,0c0.1,0,0.1,0,0.2,0h0.1c0.1,0,0.1,0,0.2,0l0,0c0,0,0,0,0.1,0c0,0,0,0,0.1,0
							s0.1,0,0.1,0c0-0.1,0.1,0,0.2-0.1c0,0,0,0,0.1,0c0,0,0.1,0,0.1-0.1h0.1c0.1,0,0.1,0,0.2,0c0,0,0,0,0.1,0h0.1c0,0,0,0,0.1,0
							c0,0,0,0,0.1,0c0,0,0.1,0.1,0.1,0.2C95.1,210.3,95.1,210.4,95.1,210.4z"/>
					</g>
				</g>
			</g>
		</g>
		<g id="XMLID_25_">
			<g id="XMLID_26_">
				<g id="XMLID_27_">
					<g id="XMLID_28_">
						<path id="XMLID_29_" class="st12" d="M109.1,215.1c-0.1,0-0.2,0-0.2,0s-0.1,0-0.1-0.1s0-0.1,0-0.1c0-0.1,0-0.1,0-0.1v-0.2
							c0-0.1,0-0.1,0-0.2v-0.1v-0.1v-0.1c0.1-0.3,0.1-0.6,0.3-0.8c0-0.1,0.1-0.1,0.1-0.2V213c0-0.1,0-0.1,0.1-0.1
							c0-0.1,0.1-0.1,0.2-0.2c0,0,0.1,0,0.1-0.1c0.1-0.2,0.2-0.3,0.4-0.5c0.1-0.1,0.1-0.1,0.2-0.2c0,0,0.1,0,0.1-0.1c0,0,0,0,0.1,0
							l0.1-0.1c0.1,0,0.1-0.1,0.1-0.1s0.1,0,0.1-0.1c0,0,0.1,0,0.1-0.1l0.1-0.1c0.2-0.2,0.5-0.3,0.7-0.4c0.1,0,0.1-0.1,0.2-0.1
							c0.1,0,0.1-0.1,0.1-0.1c0.1,0,0.1-0.1,0.1-0.1c0.1,0,0.2-0.1,0.3-0.1s0.1,0,0.1,0c0.2-0.1,0.3-0.1,0.5-0.2
							c0.1,0,0.2,0,0.3-0.1c0.1,0,0.2,0,0.2,0l0,0l0,0c0.1-0.1,0.1-0.1,0.2-0.1c0.1,0,0.1,0,0.2,0c0.1,0,0.3-0.1,0.5-0.1h0.1
							c0.1,0,0.1,0,0.2,0h0.1c0.1,0,0.1,0,0.2,0.1c0,0.1,0.1,0.1,0.1,0.2s0,0.2,0,0.3c0,0,0,0.1-0.1,0.1c0,0-0.1,0-0.1,0.1
							c-0.1,0-0.1,0-0.2,0c-0.2,0-0.3,0.1-0.4,0.1L114,211h-0.1h-0.1c-0.1,0.1-0.2,0.1-0.3,0.1s-0.2,0.1-0.3,0.1s-0.2,0.1-0.3,0.1
							h-0.1l-0.1,0.1l-0.1,0.1c-0.1,0-0.2,0.1-0.3,0.1c-0.1,0.1-0.2,0.1-0.3,0.2c0,0,0,0-0.1,0h-0.1c0,0,0,0.1-0.1,0.1l-0.1,0.1
							l-0.1,0.1h-0.1l-0.2,0.1c0,0-0.1,0-0.1,0.1l0,0l0,0l0,0c-0.1,0.1-0.2,0.2-0.3,0.2c-0.1,0.1-0.1,0.2-0.2,0.2
							c-0.1,0-0.1,0.2-0.2,0.2h-0.1c-0.1,0,0,0.1-0.1,0.1l-0.1,0.1c0,0.1-0.1,0.1-0.1,0.2c0,0.1-0.1,0.2-0.1,0.3c0,0,0,0.1-0.1,0.1
							c0,0.1,0,0.1,0,0.2l-0.1,0.1c0,0.1-0.1,0.2-0.1,0.3s0,0.1,0,0.1c0,0.1-0.1,0.1-0.1,0.2v0.1v0.1c0,0.1-0.1,0.1-0.2,0.1
							C109.1,215,109.1,215,109.1,215.1z"/>
					</g>
				</g>
			</g>
		</g>
	</g>
</g>
<g>
	<ellipse class="st2" cx="54.6" cy="66.8" rx="2.6" ry="2.6"/>
	<path class="st2" d="M54.6,44.8c-5.5,0-10.5,2-14.4,5.3c-0.8,0.7-0.8,1.9-0.1,2.6l0.1,0.1c0.7,0.7,1.7,0.7,2.4,0.1
		c3.2-2.8,7.4-4.5,12-4.5s8.8,1.7,12,4.5c0.7,0.6,1.8,0.6,2.4-0.1l0.1-0.1c0.7-0.7,0.7-1.9-0.1-2.6C65.1,46.8,60.1,44.8,54.6,44.8z"
		/>
	<path class="st2" d="M54.6,50.9c-3.8,0-7.3,1.3-10,3.5c-0.8,0.7-0.9,1.9-0.1,2.6l0,0c0.7,0.7,1.7,0.7,2.4,0.1
		c2.1-1.7,4.8-2.7,7.7-2.7c2.9,0,5.6,1,7.7,2.7c0.7,0.6,1.8,0.5,2.4-0.1l0,0c0.7-0.7,0.7-2-0.1-2.6C61.9,52.2,58.4,50.9,54.6,50.9z"
		/>
	<path class="st2" d="M48.8,61.5c0.6,0.6,1.6,0.7,2.4,0.2c1-0.6,2.1-1,3.3-1c1.2,0,2.4,0.4,3.3,1c0.8,0.5,1.8,0.4,2.4-0.2l0,0
		c0.8-0.8,0.7-2.1-0.3-2.7c-1.6-1.1-3.5-1.7-5.5-1.7s-3.9,0.6-5.5,1.7C48.2,59.3,48,60.7,48.8,61.5L48.8,61.5z"/>
</g>
</svg>
