<?xml version="1.0" encoding="utf-8"?>
<!-- Generator: Adobe Illustrator 22.1.0, SVG Export Plug-In . SVG Version: 6.00 Build 0)  -->
<svg version="1.1" id="Capa_1" xmlns="http://www.w3.org/2000/svg" xmlns:xlink="http://www.w3.org/1999/xlink" x="0px" y="0px"
	 viewBox="0 0 139 226.8" style="enable-background:new 0 0 139 226.8;" xml:space="preserve">
<style type="text/css">
	.st0{fill:#219E56;}
	.st1{fill:#F2CDAC;}
	.st2{fill:#81D886;}
	.st3{fill:#1A1B1D;}
	.st4{fill:#FFFFFF;}
	.st5{fill:#E6E6E6;}
	.st6{fill:#1F8A4B;}
	.st7{fill:#62C778;}
	.st8{fill:none;stroke:#FFFFFF;stroke-width:0.3384;stroke-linecap:round;stroke-miterlimit:10;}
</style>
<g id="XMLID_2073_">
	<g>
		<g id="XMLID_2259_">
			<polygon id="XMLID_2260_" class="st0" points="118.5,79.3 116.9,150.2 116.7,148.6 125.5,209.6 107,213.3 94.2,152.3 94.2,152 
				94.1,150.7 89.5,79.9 			"/>
		</g>
		<g id="XMLID_2257_">
			<path id="XMLID_2258_" class="st0" d="M109.6,100.2l-38-1.7c-4.1-0.2-7.3-3.7-7.2-7.7L65.9,58l49.6,2.1l1.9,32.9
				C117.1,97.1,113.7,100.3,109.6,100.2z"/>
		</g>
		<g id="XMLID_2255_">
			<polygon id="XMLID_2256_" class="st0" points="89.6,80.9 74.8,152.3 74.9,149.3 78.8,214 60,214.8 52.2,151.5 52.1,150.7 
				52.4,148.7 60.9,76.3 			"/>
		</g>
	</g>
	<g>
		<g id="XMLID_2251_">
			<g id="XMLID_2252_">
				<g id="XMLID_2253_">
					<path id="XMLID_2254_" class="st1" d="M47.9,57.6L37.4,69.2L25.6,80.5c-1.9,1.8-4.8,1.7-6.5-0.2c-1.7-1.8-1.7-4.5,0-6.3
						l20.6-22.2l4.8,7C44.4,58.7,49.7,55.9,47.9,57.6z"/>
				</g>
			</g>
		</g>
		<g id="XMLID_2247_">
			<g id="XMLID_2248_">
				<g id="XMLID_2249_">
					<path id="XMLID_2250_" class="st1" d="M22.1,73c-0.4,0-0.4,0-0.7,0c-0.1,0-0.3,0-0.4,0.1c-0.2,0-0.4,0.1-0.7,0.1
						c-0.4,0.1-0.8,0.2-1.1,0.3c-0.7,0.3-1.3,0.7-1.9,1c-1.2,0.7-2.2,1.4-3.2,2.3c-0.8,0.6-0.8,1.7-0.2,2.4c0.6,0.7,1.3,0.8,2,0.4
						l0,0c1-0.4,2.1-0.9,3.1-1.2c0.6-0.1,1-0.2,1.4-0.3c0.2,0,0.4,0,0.7,0c0.1,0,0.2,0,0.2,0s0,0,0.1,0c0,0,0.1,0-0.2,0
						c1.4,0.2,2.8-0.8,3-2.2C24.5,74.5,23.5,73.2,22.1,73z"/>
				</g>
			</g>
		</g>
		<g id="XMLID_2243_">
			<g id="XMLID_2244_">
				<g id="XMLID_2245_">
					<path id="XMLID_2246_" class="st1" d="M19,74.1c-0.7,0.7-1.3,1.3-1.9,2.1c-0.6,0.7-1.2,1.4-1.8,2.2c-1.1,1.5-2.1,3.1-2.9,5
						c-0.3,0.9,0.1,1.9,1,2.2c0.8,0.3,1.8,0,2.1-0.8v-0.1c0.7-1.2,1.8-2.5,2.9-3.7c0.6-0.6,1.2-1.1,1.8-1.7c0.6-0.6,1.2-1.1,1.9-1.5
						c1.1-0.8,1.3-2.3,0.6-3.4c-0.8-1.1-2.3-1.3-3.4-0.6C19.2,73.9,19,74,19,74.1z"/>
				</g>
			</g>
		</g>
		<g id="XMLID_2239_">
			<g id="XMLID_2240_">
				<g id="XMLID_2241_">
					<path id="XMLID_2242_" class="st1" d="M20.8,75.3c-0.7,0.8-1.2,1.4-1.8,2.2c-0.6,0.8-1.1,1.5-1.7,2.3s-1,1.7-1.5,2.5
						c-0.2,0.4-0.4,1-0.7,1.5c-0.1,0.2-0.1,0.7-0.2,0.9c-0.1,0.3-0.1,0.8-0.1,1.1c0,0.9,0.8,1.7,1.7,1.7c0.8,0,1.4-0.4,1.7-1.2
						l0.2-0.6c0.1-0.2,0.3-0.9,0.8-1.5c0.4-0.7,1-1.2,1.5-1.9c0.6-0.7,1.1-1.2,1.8-1.9c0.7-0.6,1.2-1.2,1.9-1.8
						c1.1-0.9,1.2-2.5,0.3-3.7c-0.9-1.1-2.5-1.2-3.7-0.3C21,75.1,20.9,75.2,20.8,75.3z"/>
				</g>
			</g>
		</g>
		<g id="XMLID_2235_">
			<g id="XMLID_2236_">
				<g id="XMLID_2237_">
					<path id="XMLID_2238_" class="st1" d="M25,74c-0.9,1.1-1.5,2.1-2.3,3.1c-0.7,1.1-1.3,2.1-2,3.3c-1.2,2.2-2.3,4.6-3,7.1
						c-0.2,0.9,0.3,1.9,1.2,2.1c0.9,0.2,1.8-0.2,2.1-1l0,0c0.9-2.1,2-4.1,3.3-5.9c0.7-0.9,1.3-1.9,2.1-2.8c0.8-0.9,1.5-1.8,2.3-2.4
						l0,0c1-1,1-2.7,0-3.7c-1-1-2.7-1-3.7,0C25.2,73.9,25.1,74,25,74z"/>
				</g>
			</g>
		</g>
	</g>
	<g id="XMLID_2233_">
		<path id="XMLID_2234_" class="st2" d="M58.3,79.1c0,0,4.8-26.3,6.5-42.1c1.3-12.4,14.4-18.6,28.7-17.7c14.4,0.8,21,8.3,21.7,19.7
			s5.4,42.4,5.4,42.4s-11,0.4-30.7-0.1C70.3,80.8,58.3,79.1,58.3,79.1z"/>
	</g>
	<g id="XMLID_2231_">
		<path id="XMLID_2232_" class="st2" d="M80.5,26c-3.7-2.7-9.2-1.4-12.1,2.2l-24,30.4c0,0,0,0-0.1,0.1L25.8,74.7l4.9,9.2l22.6-15.1
			c0.2-0.2,0.6-0.4,0.8-0.7l0.3-0.3l26.9-28.4c0.1-0.1,0.7-1,0.8-1.2C84.9,34.6,84.2,28.9,80.5,26z"/>
	</g>
	<g id="XMLID_2228_">
		<g id="XMLID_2229_">
			<path id="XMLID_2230_" class="st1" d="M90.2,25.3c-2.3,0-4.3-1.9-4.3-4.3v-7.7c0-2.3,1.9-4.3,4.3-4.3c2.3,0,4.3,1.9,4.3,4.3V21
				C94.4,23.4,92.5,25.3,90.2,25.3z"/>
		</g>
	</g>
	<g id="XMLID_2225_">
		<g id="XMLID_2226_">
			<path id="XMLID_2227_" class="st3" d="M85.9,21.1v-7.7c0-2.3,1.9-4.3,4.3-4.3c2.3,0,4.3,1.9,4.3,4.3l0,0l-2.9,4.9L85.9,21.1z"/>
		</g>
	</g>
	<g id="XMLID_2222_">
		<g id="XMLID_2223_">
			<path id="XMLID_2224_" class="st1" d="M87.7,19.3c-2.3-0.1-5-1.4-6.4-3.3c-1.3-1.8-1-4-0.7-6c0.4-2,1-4.3,2.3-6s3.4-2.5,5.6-2.4
				C92.3,1.8,95.1,5,95,8.7L94.7,13C94.6,16.6,91.4,19.5,87.7,19.3z"/>
		</g>
	</g>
	<g id="XMLID_2219_">
		<g id="XMLID_2220_">
			<path id="XMLID_2221_" class="st1" d="M93.4,12.4c0.3,0.1,0.8,0.1,1.1,0.2c0.1,0,0.2,0,0.4,0.1c0,0,0.9,0.6,0.4-0.2
				c0,0-0.8,0.1-0.9,0.1c-0.2,0-0.4,0-0.7,0c-0.1,0-0.1,0-0.2,0c-0.3-0.1-0.3-0.1-0.1,0.1c-0.1-0.6-0.8-0.9-1.3-0.8
				c-0.7,0.2-0.9,0.8-0.8,1.3c0.2,1.2,1.7,1.4,2.8,1.5c0.9,0.1,2.1,0,2.8-0.7c0.8-0.8,0.6-2-0.2-2.8c-0.3-0.3-0.8-0.7-1.2-0.8
				c-0.4-0.1-1-0.1-1.4-0.2C92.7,9.8,92.2,12,93.4,12.4L93.4,12.4z"/>
		</g>
	</g>
	<g id="XMLID_2217_">
		<path id="XMLID_2218_" class="st3" d="M82.6,6.3c3,0.2,6-0.1,8.9-0.1c-0.1,1.1-0.4,2.4,0.2,3.2c0.7,0.8,2.4,1,3.5,1
			c0,0,2.4-10-5.3-10.4C80.4-0.5,80,5.9,80,5.9L82.6,6.3z"/>
	</g>
	<g id="XMLID_2194_">
		<g id="XMLID_2214_">
			<g id="XMLID_2215_">
				<path id="XMLID_2216_" class="st3" d="M85.1,12.8C85.1,12.7,85.1,12.7,85.1,12.8C85,12.7,85,12.7,85,12.7h-0.1h-0.1
					c0,0,0,0-0.1,0c-0.1,0-0.1,0-0.2,0h-0.1h-0.1c0,0,0,0-0.1,0s-0.1,0-0.1,0s-0.1,0-0.1-0.1l0,0l0,0l0,0v-0.1v-0.1
					c0-0.1,0-0.1,0-0.2l0,0l0,0l0,0c0,0,0,0,0-0.1v-0.1l0,0v-0.1v-0.1v-0.1l0,0l0,0c0-0.1,0-0.1,0-0.2s0-0.1,0-0.2V11c0,0,0,0,0-0.1
					l0,0c0-0.1,0-0.1,0-0.1c0-0.1,0-0.1,0-0.2c0-0.1,0-0.1,0-0.2l0,0c0,0,0,0,0-0.1v-0.1c0-0.1,0-0.2,0-0.2V9.8c0,0,0,0,0-0.1
					c0,0,0,0,0-0.1l-0.1-0.1h-0.1c0,0-0.1,0-0.1,0.1l0,0v0.1v0.1c0,0.1,0,0.1,0,0.2v0.1v0.1l0,0l0,0v0.1v0.1c0,0.1,0,0.2,0,0.3
					c0,0,0,0,0,0.1V11c0,0,0,0,0,0.1s0,0,0,0.1v0.1c0,0.1,0,0.2-0.1,0.4c0,0,0,0,0,0.1c0,0,0,0,0,0.1c0,0,0,0,0,0.1v0.1v0.1l0,0v0.1
					c0,0.1,0,0.1,0,0.1c0,0.1,0.1,0.2,0.1,0.3c0,0,0,0,0,0.1s0.1,0.1,0.1,0.1s0,0,0.1,0.1c0,0,0,0,0.1,0c0,0,0.1,0,0.1,0.1
					c0.1,0.1,0.3,0.1,0.4,0.1h0.1c0,0,0,0,0.1,0c0,0,0,0,0.1,0h0.1H85c0,0,0,0,0.1,0c0,0,0,0,0.1,0l0,0
					C85.1,12.9,85.1,12.8,85.1,12.8L85.1,12.8z"/>
			</g>
		</g>
		<g id="XMLID_2211_">
			<g id="XMLID_2212_">
				<path id="XMLID_2213_" class="st3" d="M96.1,12.3C96.2,12.3,96.2,12.3,96.1,12.3c0-0.1,0-0.1,0-0.1l0,0c0,0,0,0,0-0.1l0,0L96,12
					l0,0c0,0,0,0-0.1,0l0,0h-0.1h-0.1l0,0l0,0l0,0h-0.1h-0.1h-0.1l0,0l0,0l0,0l0,0h-0.1l0,0l0,0h-0.1l0,0l0,0l0,0c0,0-0.1,0-0.1,0.1
					c0,0-0.1,0-0.1,0.1l0,0l0,0l0,0c0,0-0.1,0-0.1,0.1c0,0,0,0.1-0.1,0.1l-0.1,0.1l0,0l0,0v0.1v0.1c0,0,0,0,0,0.1l0,0l0,0h0.1h0.1
					h0.1l0,0l0,0l0,0v-0.1l0,0l0,0l0,0l0,0l0,0l0,0l0.1-0.1l0,0c0,0,0,0,0.1,0l0,0l0,0l0,0l0.1-0.1l0,0l0,0l0,0l0,0l0,0l0,0l0,0
					c0,0,0,0,0.1,0h0.1l0,0c0,0,0,0,0.1,0l0,0l0,0l0,0c0.1,0,0.1,0,0.1,0.1l0,0l0,0l0,0l0,0l0,0l0,0l0,0l0,0
					C96.1,12.4,96.1,12.4,96.1,12.3C96.1,12.4,96.1,12.3,96.1,12.3z"/>
			</g>
		</g>
		<g id="XMLID_2208_">
			<g id="XMLID_2209_">
				<path id="XMLID_2210_" class="st3" d="M95.7,13.3C95.8,13.3,95.8,13.2,95.7,13.3C95.8,13.2,95.8,13.2,95.7,13.3l0.1-0.1
					c0,0,0,0,0-0.1l0,0V13l0,0l0,0l0,0c0,0,0-0.1-0.1-0.1c0,0,0,0-0.1-0.1l0,0l0,0l0,0c0,0,0-0.1-0.1-0.1c0,0-0.1,0-0.1-0.1h-0.1
					l0,0l0,0l0,0l0,0h-0.1l0,0l0,0l0,0l0,0l0,0l0,0h-0.1H95l0,0l0,0l0,0h-0.1h-0.1h-0.1l0,0l0,0h-0.1l-0.1,0.1c0,0,0,0-0.1,0l0,0
					l0,0c0,0,0,0.1,0.1,0.1l0.1,0.1c0,0,0,0,0.1,0l0,0l0,0l0,0c0,0,0,0,0.1,0l0,0l0,0l0,0l0,0l0,0l0,0h0.1l0,0l0,0l0,0l0,0l0,0H95
					l0,0l0,0l0,0l0,0l0,0l0,0l0,0l0,0c0,0,0,0,0.1,0.1l0,0l0,0l0,0l0,0l0,0l0.1,0.1l0,0l0,0l0,0l0,0l0,0l0,0l0,0l0,0
					C95.6,13.3,95.6,13.3,95.7,13.3L95.7,13.3z"/>
			</g>
		</g>
		<g id="XMLID_2205_">
			<g id="XMLID_2206_">
				<path id="XMLID_2207_" class="st3" d="M86.1,13.5C86.1,13.5,86,13.5,86.1,13.5c-0.1,0-0.1,0-0.1,0l0,0l0,0l0,0
					c0,0,0,0.1-0.1,0.1l0,0l0,0l0,0c0,0,0,0,0,0.1c0,0,0,0,0,0.1l0,0l0,0l0,0c0,0,0,0-0.1,0c0,0,0,0-0.1,0h-0.1l0,0l0,0l0,0l0,0
					h-0.1l0,0l0,0l0,0l0,0l0,0l0,0h-0.1c0,0,0,0-0.1,0l0,0l0,0l0,0c0,0,0,0-0.1,0c0,0,0,0-0.1,0h-0.1l0,0l0,0h-0.1h-0.1l0,0l0,0l0,0
					L84.6,14v0.1v0.1l0,0l0,0l0,0h0.1l0,0c0,0,0,0,0.1,0l0,0l0,0c0,0,0,0,0.1,0c0,0,0,0,0.1,0s0.1,0,0.1,0l0,0h0.1l0,0l0,0
					c0,0,0,0,0.1,0s0.1,0,0.2-0.1l0,0l0,0l0,0l0,0l0,0l0,0l0,0c0,0,0,0,0.1,0l0.1-0.1l0,0c0,0,0,0,0.1,0l0,0l0,0l0,0
					c0.1-0.1,0.1-0.1,0.1-0.2l0,0l0,0l0,0l0,0l0,0l0,0l0,0l0,0C86.2,13.6,86.2,13.6,86.1,13.5L86.1,13.5z"/>
			</g>
		</g>
		<g id="XMLID_2203_">
			<path id="XMLID_2204_" class="st3" d="M86.8,11L86.8,11c-0.2,0-0.4-0.2-0.3-0.4v-0.2c0-0.2,0.2-0.3,0.4-0.3
				c0.2,0,0.3,0.2,0.3,0.4v0.2C87.1,10.9,87,11,86.8,11z"/>
		</g>
		<g id="XMLID_2201_">
			<path id="XMLID_2202_" class="st3" d="M82.7,10.8L82.7,10.8c-0.2,0-0.4-0.2-0.3-0.4v-0.2c0-0.2,0.2-0.3,0.4-0.3
				c0.2,0,0.3,0.2,0.3,0.4v0.2C83.1,10.7,82.9,10.8,82.7,10.8z"/>
		</g>
		<g id="XMLID_2198_">
			<g id="XMLID_2199_">
				<path id="XMLID_2200_" class="st3" d="M87.8,9.3L87.8,9.3c0-0.1,0-0.1,0-0.1l0,0l0,0l0,0c0,0,0,0-0.1-0.1l0,0l0,0l0,0
					c0,0,0,0-0.1,0h-0.1l0,0l0,0l0,0c0,0,0,0-0.1,0h-0.1h-0.1l0,0l0,0l0,0l0,0H87l0,0l0,0l0,0l0,0l0,0l0,0h-0.1c0,0,0,0-0.1,0l0,0
					l0,0l0,0c0,0,0,0-0.1,0h-0.1h-0.1l0,0l0,0h-0.1h-0.1c0,0,0,0-0.1,0l0,0l0,0v0.1c0,0,0,0.1,0.1,0.1l0,0l0,0l0,0l0,0h0.1l0,0l0,0
					l0,0l0,0l0,0l0,0h0.1l0,0c0,0,0,0,0.1,0l0,0l0,0l0,0h0.1l0,0l0,0l0,0l0,0l0,0l0,0l0,0l0,0h0.1l0,0l0,0l0,0l0,0l0,0
					c0,0,0.1,0,0.1,0.1l0,0l0,0l0,0l0,0l0,0l0,0l0,0l0,0C87.7,9.4,87.7,9.4,87.8,9.3C87.8,9.4,87.8,9.3,87.8,9.3z"/>
			</g>
		</g>
		<g id="XMLID_2195_">
			<g id="XMLID_2196_">
				<path id="XMLID_2197_" class="st3" d="M82,9.1C82,9.2,82,9.2,82,9.1c0.1,0.1,0.1,0.1,0.1,0.1l0,0l0,0l0,0h0.1l0,0l0,0l0,0
					c0,0,0,0,0.1,0c0,0,0,0,0.1,0l0,0l0,0l0,0c0,0,0,0,0.1,0c0,0,0,0,0.1,0c0,0,0,0,0.1,0l0,0l0,0l0,0l0,0l0,0l0,0l0,0l0,0l0,0l0,0
					l0,0c0,0,0,0,0.1,0c0,0,0,0,0.1,0l0,0l0,0l0,0c0,0,0,0,0.1,0c0,0,0,0,0.1,0c0,0,0,0,0.1,0l0,0l0,0l0,0h0.1l0,0l0,0l0,0
					c0,0,0-0.1,0.1-0.1V9V8.9l0,0l0,0l0,0h-0.1l0,0l0,0l0,0l0,0l0,0c0,0,0,0-0.1,0h-0.1l0,0c0,0,0,0-0.1,0l0,0l0,0l0,0
					c-0.1,0-0.1,0-0.2,0l0,0l0,0l0,0l0,0l0,0l0,0l0,0c0,0,0,0-0.1,0h-0.1l0,0c0,0,0,0-0.1,0l0,0l0,0l0,0c-0.1,0-0.1,0.1-0.2,0.1l0,0
					l0,0l0,0l0,0l0,0l0,0l0,0l0,0C82,9,82,9,82,9.1L82,9.1z"/>
			</g>
		</g>
	</g>
	<g id="XMLID_2190_">
		<g id="XMLID_2191_">
			<g id="XMLID_2192_">
				<polygon id="XMLID_2193_" class="st2" points="78.8,214 78.8,226.7 47.2,226.6 60,214.8 				"/>
			</g>
		</g>
	</g>
	<g id="XMLID_2186_">
		<g id="XMLID_2187_">
			<g id="XMLID_2188_">
				<polygon id="XMLID_2189_" class="st2" points="125.5,209.6 127.4,222.3 96.1,226.8 107,213.3 				"/>
			</g>
		</g>
	</g>
	<g>
		<g id="XMLID_2183_">
			<g id="XMLID_2184_">
				<path id="XMLID_2185_" class="st4" d="M109,59.5c-0.1,0.1-0.1,0.1-0.1,0.2c0,0.1,0,0.1,0,0.2v0.2c0,0.1,0,0.2,0,0.3
					c0,0.1,0,0.1,0,0.2c0,0.2,0,0.4,0,0.7v0.3c0,0.1,0,0.2,0,0.3c0,0.1,0,0.1,0,0.2c0,0.2-0.1,0.4-0.1,0.6c0,0.2-0.1,0.3-0.1,0.4
					l-0.1,0.2v0.2v0.1c-0.1,0.1-0.1,0.3-0.2,0.4c0,0.2-0.1,0.3-0.2,0.6c-0.1,0.2-0.1,0.3-0.2,0.6l0,0v0.1l0,0c0,0.1-0.1,0.1-0.1,0.2
					l-0.2,0.3l-0.1,0.1l-0.1,0.2l-0.1,0.2c0,0.1-0.1,0.1-0.1,0.2l-0.1,0.1l-0.1,0.1c-0.1,0.2-0.2,0.3-0.3,0.6
					c-0.1,0.1-0.2,0.2-0.3,0.4l-0.2,0.2c0,0.1-0.1,0.1-0.1,0.1l-0.1,0.1c-0.1,0.1-0.2,0.2-0.3,0.3c-0.1,0.1-0.3,0.2-0.4,0.3
					c-0.1,0.1-0.3,0.2-0.4,0.3c0,0-0.1,0-0.1,0.1c-0.1,0-0.1,0.1-0.1,0.1c-0.1,0.1-0.2,0.1-0.3,0.2c-0.2,0.1-0.4,0.3-0.7,0.3
					c-0.1,0-0.2,0.1-0.3,0.1c0,0-0.1,0-0.1,0.1l-0.1,0.1c-0.1,0.1-0.1,0.2,0,0.2c0,0.1,0.1,0.1,0.2,0.1c0.1,0,0.2,0,0.2,0
					s0.1,0,0.1-0.1c0.1,0,0.2-0.1,0.2-0.1c0.1,0,0.1-0.1,0.2-0.1c0.2-0.1,0.4-0.2,0.7-0.4c0.1-0.1,0.2-0.1,0.2-0.1
					c0.1-0.1,0.2-0.1,0.2-0.2l0,0l0,0c0.1,0,0.2-0.1,0.3-0.2l0.3-0.2c0.2-0.2,0.4-0.4,0.7-0.7l0.1-0.1c0.1-0.1,0.2-0.2,0.3-0.3
					c0-0.1,0.1-0.1,0.1-0.2c0-0.1,0.1-0.1,0.1-0.1l0.2-0.2c0.2-0.3,0.4-0.8,0.7-1.1c0-0.1,0.1-0.1,0.1-0.2c0-0.1,0-0.1,0.1-0.2
					c0-0.1,0.1-0.1,0.1-0.2c0-0.1,0.1-0.1,0.1-0.2s0.1-0.1,0.1-0.2v-0.1c0-0.1,0.1-0.1,0.1-0.2l0.2-0.4c0.1-0.3,0.2-0.6,0.2-0.9
					v-0.2c0-0.1,0.1-0.3,0.1-0.4c0-0.1,0-0.1,0-0.2c0-0.1,0-0.1,0-0.2l0.1-0.3c0.1-0.4,0-0.9,0.1-1.3c0-0.1,0-0.1,0-0.2s0-0.1,0-0.2
					c0-0.1,0-0.1,0-0.2c0-0.1,0-0.2,0-0.2v-0.2c0-0.1,0-0.1-0.1-0.2c0-0.1,0-0.1,0-0.2l-0.1-0.1c-0.1-0.1-0.1-0.1-0.2-0.1
					C109,59.4,109,59.4,109,59.5z"/>
			</g>
		</g>
		<g id="XMLID_2180_">
			<g id="XMLID_2181_">
				<path id="XMLID_2182_" class="st4" d="M118,89.2c-0.1-0.1-0.1-0.1-0.2-0.1c-0.1,0-0.1,0-0.2,0h-0.2c-0.1,0-0.2,0-0.3,0
					s-0.1,0-0.2,0c-0.2,0-0.4,0-0.7,0h-0.2c-0.1,0-0.2,0-0.3,0c-0.1,0-0.1,0-0.2,0c-0.2,0-0.4-0.1-0.6-0.1c-0.2,0-0.3-0.1-0.4-0.1
					l-0.2-0.1c-0.1,0-0.1,0-0.2,0h-0.1c-0.1-0.1-0.3-0.1-0.4-0.2c-0.2-0.1-0.3-0.1-0.6-0.2c-0.2-0.1-0.3-0.2-0.6-0.2l0,0h-0.1l0,0
					c-0.1,0-0.1-0.1-0.1-0.1l-0.3-0.2l-0.1-0.1v-0.1c-0.1-0.1-0.1-0.1-0.2-0.2c-0.1,0-0.1-0.1-0.2-0.1l-0.1-0.1c0,0,0-0.1-0.1-0.1
					c-0.2-0.1-0.2-0.3-0.4-0.4c-0.1-0.1-0.2-0.2-0.3-0.3L110,86c0-0.1-0.1-0.1-0.1-0.1l-0.1-0.1c-0.1-0.1-0.1-0.3-0.2-0.4
					c-0.1-0.1-0.2-0.3-0.3-0.4c-0.1-0.2-0.2-0.3-0.2-0.6v-0.1c0-0.1,0-0.1-0.1-0.2c0-0.1-0.1-0.2-0.1-0.3c-0.1-0.2-0.2-0.4-0.2-0.7
					c0-0.1,0-0.2-0.1-0.4c0-0.1,0-0.1,0-0.1l-0.1-0.1c-0.1-0.1-0.1-0.1-0.2-0.1c-0.1,0-0.1,0.1-0.2,0.1c0,0.1-0.1,0.2,0,0.2
					c0,0.1,0,0.1,0,0.1c0,0.1,0,0.2,0.1,0.2c0,0.1,0.1,0.1,0.1,0.2c0.1,0.2,0.2,0.4,0.2,0.8c0,0.1,0.1,0.2,0.1,0.2
					c0,0.1,0.1,0.2,0.1,0.3l0,0l0,0c0,0.1,0.1,0.2,0.1,0.3c0.1,0.1,0.1,0.2,0.2,0.3c0.1,0.2,0.3,0.6,0.6,0.8l0.1,0.1
					c0.1,0.1,0.2,0.2,0.3,0.3c0,0.1,0.1,0.1,0.1,0.2c0.1,0,0.1,0.1,0.1,0.1l0.2,0.2c0.3,0.3,0.7,0.6,1,0.8c0.1,0,0.1,0.1,0.2,0.1
					c0.1,0,0.1,0.1,0.1,0.1c0.1,0,0.1,0.1,0.2,0.1c0.1,0,0.1,0.1,0.2,0.1l0.2,0.1h0.1c0.1,0,0.1,0.1,0.2,0.1l0.3,0.2
					c0.3,0.1,0.6,0.2,0.8,0.3c0.1,0,0.1,0,0.2,0.1c0.1,0,0.3,0.1,0.4,0.1c0.1,0,0.1,0,0.2,0.1c0.1,0,0.1,0,0.2,0
					c0.1,0,0.2,0.1,0.3,0.1c0.4,0.1,0.9,0.1,1.2,0.1c0.1,0,0.1,0,0.2,0c0.1,0,0.1,0,0.2,0c0.1,0,0.1,0,0.2,0c0.1,0,0.2,0,0.2,0h0.2
					c0.1,0,0.1,0,0.2-0.1c0.1,0,0.1,0,0.2,0l0.1-0.1C118.1,89.5,118.1,89.3,118,89.2C118,89.3,118,89.2,118,89.2z"/>
			</g>
		</g>
		<g id="XMLID_2177_">
			<g id="XMLID_2178_">
				<path id="XMLID_2179_" class="st4" d="M91.1,93.6c0-0.1-0.1-0.1-0.2-0.2c-0.1,0-0.1,0-0.2,0h-0.2c-0.1,0-0.2,0-0.3,0
					c-0.1,0-0.1,0-0.2,0c-0.2,0-0.4-0.1-0.7-0.1c-0.1,0-0.2-0.1-0.2-0.1c-0.1,0-0.2-0.1-0.2-0.1c-0.1,0-0.1-0.1-0.2-0.1
					c-0.2-0.1-0.3-0.2-0.4-0.3c-0.1-0.1-0.2-0.2-0.2-0.4c0-0.1-0.1-0.1-0.1-0.2c0-0.1-0.1-0.1-0.1-0.2v-0.1c0-0.2,0-0.3,0-0.6
					c0-0.2,0-0.4,0-0.6c0-0.2,0-0.4,0-0.7c0,0,0,0,0-0.1v-0.1l0,0c0-0.1,0-0.1,0-0.2v-0.4v-0.1v-0.2v-0.3c0-0.1,0-0.2,0-0.2v-0.1
					v-0.1c0-0.2,0-0.4,0-0.7c0-0.2,0-0.3,0-0.6v-0.3c0-0.1,0-0.1,0-0.2v-0.1c0-0.2,0.1-0.3,0.1-0.6c0-0.2,0-0.4,0-0.7
					c0-0.2,0-0.4,0-0.7c0-0.1,0-0.1,0-0.1c0-0.1,0-0.1,0-0.2v-0.4c0-0.2,0-0.6,0-0.8c0-0.1,0-0.3,0-0.4s0-0.1,0-0.2
					c0-0.1,0-0.1-0.1-0.2c0-0.1-0.1-0.1-0.2-0.1c-0.1,0-0.1,0.1-0.2,0.1c-0.1,0.1-0.1,0.2-0.1,0.2c0,0.1,0,0.1,0,0.2s0,0.2,0,0.3
					c0,0.1,0,0.2,0,0.3c0,0.3,0,0.6,0,0.8c0,0.1,0,0.2,0,0.3c0,0.1,0,0.2,0,0.3l0,0l0,0c0,0.1,0,0.2,0,0.4V85c0,0.3,0,0.7,0,0.9
					c0,0.1,0,0.1,0,0.2c0,0.2,0,0.3,0,0.4s0,0.2,0,0.2c0,0.1,0,0.1,0,0.2v0.3c0,0.4,0,0.9-0.1,1.3c0,0.1,0,0.1,0,0.2
					c0,0.1,0,0.1,0,0.2s0,0.1,0,0.2c0,0.1,0,0.2,0,0.2v0.3V90c0,0.1,0,0.2,0,0.2c0,0.1,0,0.3,0,0.4c0,0.3,0,0.7,0.1,1
					c0,0.1,0,0.1,0.1,0.2c0,0.2,0.1,0.3,0.2,0.4c0,0.1,0.1,0.2,0.1,0.2c0.1,0.1,0.1,0.1,0.1,0.2c0.1,0.1,0.2,0.2,0.2,0.3
					c0.4,0.3,0.9,0.6,1.3,0.7c0.1,0,0.1,0,0.2,0c0.1,0,0.1,0,0.2,0c0.1,0,0.1,0,0.2,0c0.1,0,0.2,0,0.2,0h0.3c0.1,0,0.1,0,0.2,0
					c0.1,0,0.1,0,0.2,0c0,0,0.1,0,0.1-0.1C91.1,93.8,91.1,93.8,91.1,93.6C91.2,93.7,91.2,93.7,91.1,93.6z"/>
			</g>
		</g>
		<g id="XMLID_2174_">
			<g id="XMLID_2175_">
				<path id="XMLID_2176_" class="st4" d="M102.3,43.6c-0.1,0-0.2,0-0.3,0.1l-0.1,0.1c-0.1,0.1-0.1,0.1-0.1,0.2
					c-0.1,0.1-0.1,0.2-0.2,0.2c0,0.1-0.1,0.1-0.1,0.2c-0.1,0.2-0.3,0.3-0.4,0.6c-0.1,0.1-0.1,0.2-0.2,0.2c-0.1,0-0.1,0.2-0.2,0.2
					c0,0.1-0.1,0.1-0.1,0.2c-0.1,0.2-0.3,0.3-0.3,0.6c-0.1,0.1-0.2,0.3-0.3,0.4c-0.1,0.1-0.1,0.1-0.2,0.2c0,0.1-0.1,0.1-0.1,0.2
					l-0.1,0.1c-0.1,0.1-0.2,0.3-0.3,0.4c-0.1,0.2-0.2,0.3-0.3,0.6s-0.2,0.3-0.3,0.6l0,0c0,0,0,0-0.1,0.1l0,0c0,0.1-0.1,0.1-0.1,0.2
					c-0.1,0.1-0.2,0.2-0.2,0.3l-0.1,0.1c0,0.1-0.1,0.1-0.1,0.2c-0.1,0.1-0.1,0.2-0.2,0.2c-0.1,0.1-0.1,0.1-0.1,0.2l-0.1,0.1
					l-0.1,0.1c-0.1,0.2-0.3,0.3-0.3,0.6c-0.1,0.1-0.2,0.3-0.3,0.4s-0.1,0.1-0.2,0.2c0,0.1-0.1,0.1-0.1,0.2L96,52
					c-0.1,0.1-0.2,0.3-0.3,0.4c-0.1,0.2-0.2,0.3-0.3,0.6c-0.1,0.2-0.2,0.3-0.3,0.6c0,0.1-0.1,0.1-0.1,0.1c0,0.1-0.1,0.1-0.1,0.2
					c-0.1,0.1-0.2,0.2-0.2,0.3c-0.1,0.2-0.2,0.4-0.4,0.7c-0.1,0.1-0.2,0.2-0.2,0.3c0,0.1-0.1,0.1-0.1,0.1c0,0.1,0,0.1,0,0.2
					c0,0.1,0,0.2,0.1,0.2c0.1,0,0.1,0,0.2,0c0.1,0,0.2-0.1,0.2-0.2l0.1-0.1c0.1-0.1,0.1-0.1,0.2-0.2c0.1-0.1,0.1-0.1,0.1-0.2
					c0.2-0.2,0.3-0.4,0.4-0.7c0.1-0.1,0.1-0.1,0.2-0.2c0.1-0.1,0.1-0.2,0.2-0.3l0,0l0,0c0.1-0.1,0.2-0.2,0.2-0.3
					c0.1-0.1,0.2-0.2,0.2-0.3c0.2-0.2,0.3-0.6,0.6-0.8c0-0.1,0.1-0.1,0.1-0.1c0.1-0.1,0.2-0.2,0.3-0.4c0-0.1,0.1-0.1,0.1-0.2
					s0.1-0.1,0.1-0.2c0.1-0.1,0.1-0.2,0.2-0.3c0.2-0.3,0.6-0.8,0.8-1.1c0-0.1,0.1-0.1,0.1-0.2c0-0.1,0.1-0.1,0.1-0.2
					c0-0.1,0.1-0.1,0.1-0.2c0.1-0.1,0.1-0.1,0.1-0.2c0.1-0.1,0.1-0.1,0.1-0.2c0,0,0-0.1,0.1-0.1c0.1-0.1,0.1-0.1,0.1-0.2
					c0.1-0.1,0.2-0.2,0.2-0.3c0.2-0.2,0.3-0.6,0.6-0.8c0-0.1,0.1-0.1,0.1-0.1c0.1-0.1,0.2-0.2,0.3-0.4c0-0.1,0.1-0.1,0.1-0.2
					c0-0.1,0.1-0.1,0.1-0.2c0.1-0.1,0.1-0.2,0.2-0.3c0.2-0.3,0.6-0.8,0.8-1.1c0-0.1,0.1-0.1,0.1-0.2c0-0.1,0.1-0.1,0.1-0.2
					c0-0.1,0.1-0.1,0.1-0.2c0.1-0.1,0.1-0.1,0.1-0.2C102,44,102,44,102,43.9c0.1-0.1,0.1-0.1,0.1-0.2c0-0.1,0.1-0.1,0.1-0.2v-0.1
					c0-0.1,0-0.1-0.1-0.2C102.4,43.6,102.3,43.6,102.3,43.6z"/>
			</g>
		</g>
		<g id="XMLID_2171_">
			<g id="XMLID_2172_">
				<path id="XMLID_2173_" class="st4" d="M64,46.1c-0.1,0-0.1,0.1-0.2,0.2c0,0.1,0,0.1-0.1,0.2c0,0.1,0,0.2-0.1,0.3
					c0,0.1-0.1,0.2-0.1,0.4c0,0.1,0,0.2,0,0.2c-0.1,0.3-0.1,0.6-0.2,0.8c0,0.1-0.1,0.2-0.1,0.3c0,0.1,0,0.2-0.1,0.3
					c0,0.1-0.1,0.2-0.1,0.2c0,0.2-0.1,0.6-0.1,0.8s-0.1,0.4-0.1,0.7c0,0.1,0,0.2-0.1,0.3c0,0.1,0,0.2,0,0.2c0,0.1,0,0.1,0,0.2
					c0,0.2-0.1,0.4-0.1,0.7c0,0.2-0.1,0.4-0.1,0.7c-0.1,0.2-0.1,0.6-0.1,0.8c0,0,0,0,0,0.1v0.1l0,0c0,0.1,0,0.1,0,0.2
					c0,0.2-0.1,0.3-0.1,0.4s0,0.1,0,0.2c0,0.1,0,0.2-0.1,0.2c0,0.1-0.1,0.2-0.1,0.3s0,0.2,0,0.3c0,0.1,0,0.1,0,0.2
					c0,0.1,0,0.1,0,0.1c0,0.2-0.1,0.6-0.1,0.8s-0.1,0.4-0.1,0.7c0,0.1,0,0.2-0.1,0.3c0,0.1,0,0.2,0,0.2c0,0.1,0,0.1,0,0.2
					c0,0.2-0.1,0.4-0.1,0.7c0,0.2-0.1,0.4-0.1,0.7c-0.1,0.2-0.1,0.6-0.1,0.8c0,0.1,0,0.1,0,0.2c0,0.1,0,0.1,0,0.2
					c0,0.2-0.1,0.3-0.1,0.4C61,61.3,61,61.7,61,61.9c-0.1,0.2-0.1,0.3-0.1,0.6c0,0.1,0,0.1,0,0.2c0,0.1,0,0.1,0,0.2s0.1,0.2,0.2,0.2
					c0.1,0,0.1-0.1,0.2-0.1c0.1-0.1,0.1-0.2,0.1-0.3c0-0.1,0-0.1,0-0.2c0-0.1,0-0.2,0.1-0.3c0-0.1,0-0.2,0.1-0.3
					c0.1-0.3,0.1-0.7,0.2-1c0-0.1,0.1-0.2,0.1-0.3c0-0.1,0-0.2,0.1-0.4l0,0l0,0c0.1-0.1,0.1-0.3,0.1-0.4c0-0.2,0.1-0.3,0.1-0.6
					c0.1-0.3,0.1-0.8,0.2-1.1c0-0.1,0-0.1,0-0.2c0-0.2,0.1-0.3,0.1-0.6c0-0.1,0-0.2,0.1-0.3c0-0.1,0-0.1,0-0.2s0.1-0.2,0.1-0.4
					c0.1-0.6,0.2-1,0.3-1.5c0-0.1,0-0.2,0.1-0.2c0-0.1,0-0.1,0-0.2s0-0.2,0.1-0.2c0-0.1,0-0.2,0.1-0.3c0-0.1,0-0.2,0.1-0.3v-0.1
					c0-0.1,0-0.2,0.1-0.3c0-0.2,0.1-0.3,0.1-0.6c0.1-0.3,0.1-0.8,0.2-1.1c0-0.1,0-0.1,0-0.2c0-0.2,0.1-0.3,0.1-0.6
					c0-0.1,0-0.2,0.1-0.3c0-0.1,0-0.1,0-0.2c0-0.1,0.1-0.2,0.1-0.4c0.1-0.6,0.2-1,0.3-1.5c0-0.1,0-0.2,0.1-0.2c0-0.1,0-0.1,0-0.2
					s0-0.2,0.1-0.2c0-0.1,0-0.2,0.1-0.3c0-0.1,0-0.2,0.1-0.3c0-0.1,0-0.2,0-0.2c0-0.1,0-0.2,0-0.2c0-0.1,0-0.1,0-0.1
					c0-0.1-0.1-0.1-0.1-0.1C64.1,46.1,64.1,46.1,64,46.1z"/>
			</g>
		</g>
		<g id="XMLID_2168_">
			<g id="XMLID_2169_">
				<path id="XMLID_2170_" class="st4" d="M96.2,19.7c-0.1,0.1-0.1,0.2-0.1,0.4c0,0.1,0,0.2,0,0.3c0,0.1,0,0.2,0,0.4
					c0,0.2,0,0.3,0,0.6c0,0.1,0,0.2,0,0.3c0,0.3-0.1,0.7-0.2,1l-0.1,0.4c-0.1,0.1-0.1,0.3-0.2,0.4c-0.1,0.1-0.1,0.2-0.2,0.3
					c-0.1,0.3-0.3,0.6-0.6,0.8c-0.1,0.2-0.3,0.4-0.6,0.7l-0.3,0.3c-0.1,0.1-0.2,0.1-0.2,0.2c-0.1,0-0.1,0.1-0.2,0.1
					c-0.2,0.1-0.4,0.3-0.7,0.4c-0.2,0.1-0.6,0.3-0.8,0.4c-0.3,0.1-0.7,0.2-0.9,0.3H91h-0.1l0,0c-0.1,0-0.2,0-0.3,0
					c-0.2,0-0.4,0-0.7,0h-0.2h-0.3c-0.1,0-0.3,0-0.4,0c-0.1,0-0.2,0-0.4,0h-0.2c-0.1,0-0.1,0-0.2-0.1c-0.3-0.1-0.7-0.2-0.9-0.3
					c-0.2-0.1-0.4-0.2-0.7-0.4c-0.1-0.1-0.2-0.1-0.3-0.2c-0.1-0.1-0.2-0.1-0.2-0.2c-0.1,0-0.1-0.1-0.1-0.1c-0.2-0.2-0.3-0.4-0.6-0.6
					c-0.2-0.2-0.3-0.6-0.4-0.8c-0.1-0.3-0.3-0.6-0.4-0.9c0-0.1,0-0.1-0.1-0.2c0-0.1-0.1-0.2-0.1-0.3c0-0.2-0.1-0.4-0.1-0.7
					c-0.1-0.4-0.1-0.8,0-1.2c0-0.2,0.1-0.4,0.1-0.7c0-0.1,0-0.1,0-0.2s0-0.2,0-0.2c0-0.1-0.1-0.2-0.1-0.2c-0.1,0-0.1,0.1-0.2,0.1
					c-0.1,0.1-0.2,0.2-0.2,0.4c0,0.1,0,0.2-0.1,0.2c0,0.1-0.1,0.3-0.1,0.4s0,0.3,0,0.4c0,0.4,0,0.9,0.1,1.3c0,0.1,0,0.3,0.1,0.4
					c0.1,0.2,0.1,0.3,0.2,0.6V24c0,0,0,0,0,0.1c0,0.2,0.1,0.4,0.2,0.6c0.1,0.2,0.2,0.4,0.3,0.7c0.3,0.4,0.6,0.8,1,1.1l0.2,0.2
					c0.2,0.2,0.4,0.3,0.7,0.4c0.1,0.1,0.2,0.1,0.3,0.2c0.1,0,0.2,0.1,0.3,0.1c0.2,0.1,0.3,0.1,0.6,0.2c0.7,0.2,1.4,0.3,2.1,0.3
					c0.1,0,0.2,0,0.3,0s0.2,0,0.3,0s0.2,0,0.3,0s0.3,0,0.4-0.1c0.1,0,0.3-0.1,0.4-0.1c0.1,0,0.1,0,0.1,0c0.1,0,0.2-0.1,0.3-0.1
					c0.2-0.1,0.4-0.2,0.7-0.2c0.4-0.2,0.9-0.4,1.2-0.8l0.2-0.2c0.2-0.1,0.3-0.3,0.6-0.6c0.1-0.1,0.2-0.2,0.2-0.3s0.1-0.2,0.2-0.2
					c0.1-0.1,0.2-0.3,0.3-0.4c0.4-0.7,0.7-1.3,0.9-2c0-0.1,0.1-0.2,0.1-0.3c0-0.1,0-0.2,0-0.3c0-0.1,0-0.2,0-0.3c0-0.1,0-0.3,0-0.4
					v-0.4c0-0.1,0-0.2-0.1-0.3c0-0.1,0-0.2-0.1-0.3c0-0.1-0.1-0.1-0.1-0.1c-0.1-0.1-0.1-0.1-0.2-0.1C96.3,19.6,96.2,19.7,96.2,19.7z
					"/>
			</g>
		</g>
		<g id="XMLID_2165_">
			<g id="XMLID_2166_">
				<path id="XMLID_2167_" class="st4" d="M76.8,88.6c0-0.1,0.1-0.1,0-0.2c0,0,0-0.1-0.1-0.1l-0.1-0.1c-0.1-0.1-0.1-0.1-0.1-0.2
					l-0.1-0.1c-0.1-0.1-0.2-0.2-0.3-0.4l-0.1-0.2L75.8,87l-0.1-0.1c-0.1-0.1-0.2-0.2-0.3-0.3c-0.1-0.1-0.2-0.2-0.2-0.3L75,86.1
					L74.9,86l-0.1-0.1c-0.1-0.1-0.1-0.2-0.2-0.3c-0.1-0.1-0.2-0.2-0.3-0.3c-0.1-0.1-0.2-0.2-0.3-0.3l0,0l0,0l0,0l-0.1-0.1l-0.2-0.2
					l-0.1-0.1l-0.1-0.1l-0.1-0.1l-0.1-0.1L73,84c0,0,0-0.1-0.1-0.1c-0.1-0.1-0.2-0.2-0.3-0.3c-0.1-0.1-0.2-0.2-0.2-0.3l-0.1-0.1
					L72.2,83l-0.1-0.1c-0.1-0.1-0.1-0.2-0.2-0.3c-0.1-0.1-0.2-0.2-0.3-0.3c-0.1-0.1-0.2-0.2-0.3-0.3c0,0,0-0.1-0.1-0.1l-0.1-0.1
					l-0.2-0.2c-0.1-0.1-0.3-0.2-0.3-0.4c-0.1-0.1-0.1-0.2-0.2-0.2c0,0,0-0.1-0.1-0.1h-0.1c-0.1,0-0.1,0-0.2,0
					c-0.1,0-0.1,0.1-0.1,0.2s0,0.1,0.1,0.2c0,0,0,0.1,0.1,0.1c0,0.1,0.1,0.1,0.1,0.1c0,0.1,0.1,0.1,0.1,0.1c0.1,0.1,0.2,0.3,0.3,0.4
					c0,0.1,0.1,0.1,0.1,0.2c0.1,0.1,0.1,0.1,0.2,0.2l0,0l0,0c0,0.1,0.1,0.1,0.2,0.2l0.2,0.2c0.1,0.2,0.3,0.3,0.4,0.4l0.1,0.1
					c0.1,0.1,0.1,0.2,0.2,0.2l0.1,0.1l0.1,0.1c0.1,0.1,0.1,0.1,0.1,0.2c0.2,0.2,0.4,0.4,0.7,0.7l0.1,0.1l0.1,0.1l0.1,0.1
					c0,0.1,0.1,0.1,0.1,0.1l0.1,0.1c0,0,0,0,0.1,0l0.1,0.1l0.2,0.2c0.1,0.1,0.3,0.3,0.4,0.4l0.1,0.1c0.1,0.1,0.1,0.2,0.2,0.2
					l0.1,0.1l0.1,0.1c0.1,0.1,0.1,0.1,0.1,0.2c0.2,0.2,0.4,0.4,0.7,0.7l0.1,0.1l0.1,0.1l0.1,0.1c0,0.1,0.1,0.1,0.1,0.1l0.1,0.1
					l0.1,0.1l0.1,0.1h0.1c0.1,0,0.1,0,0.2,0C76.8,88.7,76.8,88.7,76.8,88.6z"/>
			</g>
		</g>
		<g id="XMLID_2162_">
			<g id="XMLID_2163_">
				<path id="XMLID_2164_" class="st4" d="M36.9,80.2c0.1-0.1,0.1-0.1,0-0.2c0-0.1,0-0.1-0.1-0.1c0-0.1-0.1-0.1-0.1-0.2
					s-0.1-0.2-0.1-0.2c0-0.1-0.1-0.1-0.1-0.1c0-0.3-0.1-0.6-0.1-0.7s-0.1-0.1-0.1-0.2c0-0.1-0.1-0.1-0.1-0.2s0-0.1-0.1-0.2
					c-0.1-0.1-0.2-0.3-0.3-0.4c-0.1-0.1-0.1-0.2-0.2-0.4c0-0.1-0.1-0.1-0.1-0.2s-0.1-0.1-0.1-0.1s0-0.1-0.1-0.1
					c-0.1-0.1-0.1-0.3-0.2-0.4c-0.1-0.1-0.2-0.3-0.2-0.4c-0.1-0.1-0.2-0.3-0.3-0.4l0,0c0,0,0,0,0-0.1l0,0c0-0.1-0.1-0.1-0.1-0.1
					c-0.1-0.1-0.1-0.2-0.2-0.3c0,0,0-0.1-0.1-0.1c0-0.1-0.1-0.1-0.1-0.2c0-0.1-0.1-0.1-0.1-0.2s-0.1-0.1-0.1-0.2c0,0,0-0.1-0.1-0.1
					v-0.1c-0.1-0.1-0.2-0.3-0.3-0.4c-0.1-0.1-0.1-0.2-0.2-0.4c0-0.1-0.1-0.1-0.1-0.2c0-0.1-0.1-0.1-0.1-0.1s0-0.1-0.1-0.1
					c-0.1-0.1-0.1-0.3-0.2-0.4c-0.1-0.1-0.2-0.3-0.2-0.4c-0.1-0.1-0.2-0.3-0.3-0.4c0,0,0-0.1-0.1-0.1c0-0.1-0.1-0.1-0.1-0.1
					c-0.1-0.1-0.1-0.2-0.2-0.3c-0.1-0.2-0.2-0.3-0.3-0.6c0-0.1-0.1-0.2-0.2-0.3c0,0,0-0.1-0.1-0.1l-0.1-0.1c-0.1,0-0.2,0-0.2,0
					c-0.1,0-0.1,0.1-0.1,0.2c0,0.1,0,0.2,0,0.2s0,0.1,0.1,0.1c0,0.1,0.1,0.1,0.1,0.2s0.1,0.1,0.1,0.2c0.1,0.2,0.2,0.4,0.3,0.6
					c0,0.1,0.1,0.1,0.1,0.2c0.1,0.1,0.1,0.1,0.1,0.2l0,0l0,0c0,0.1,0.1,0.2,0.1,0.3c0.1,0.1,0.1,0.2,0.2,0.3
					c0.1,0.2,0.2,0.4,0.4,0.7l0.1,0.1c0.1,0.1,0.1,0.2,0.2,0.3c0,0.1,0.1,0.1,0.1,0.2c0,0.1,0.1,0.1,0.1,0.1c0,0.1,0.1,0.2,0.1,0.2
					c0.2,0.3,0.3,0.7,0.6,1c0,0.1,0.1,0.1,0.1,0.2l0.1,0.1c0,0.1,0.1,0.1,0.1,0.2c0,0.1,0.1,0.1,0.1,0.2c0,0.1,0.1,0.1,0.1,0.2v0.1
					c0,0.1,0.1,0.1,0.1,0.2c0.1,0.1,0.1,0.2,0.2,0.3c0.1,0.2,0.2,0.4,0.4,0.7l0.1,0.1c0.1,0.1,0.1,0.2,0.2,0.3
					c0,0.1,0.1,0.1,0.1,0.2l0.1,0.1c0,0.1,0.1,0.2,0.1,0.2c0.2,0.3,0.3,0.7,0.6,1c0,0.1,0.1,0.1,0.1,0.2l0.1,0.1
					c0,0.1,0.1,0.1,0.1,0.2c0,0.1,0.1,0.1,0.1,0.2s0.1,0.1,0.1,0.2c0,0.1,0.1,0.1,0.1,0.1l0.1,0.1h0.1
					C36.6,80.3,36.7,80.3,36.9,80.2L36.9,80.2z"/>
			</g>
		</g>
		<g id="XMLID_2159_">
			<g id="XMLID_2160_">
				<path id="XMLID_2161_" class="st4" d="M125.4,206.3c-0.1-0.1-0.1-0.1-0.3-0.1c-0.1,0-0.1,0-0.2,0c-0.1,0-0.2,0-0.3,0.1
					c-0.1,0-0.3,0-0.4,0.1c-0.1,0-0.2,0-0.2,0.1c-0.3,0-0.6,0.1-0.9,0.1c-0.1,0-0.2,0-0.3,0.1c-0.1,0-0.2,0.1-0.3,0.1s-0.2,0-0.3,0
					c-0.2,0.1-0.6,0.1-0.8,0.2c-0.2,0-0.4,0.1-0.7,0.1c-0.1,0-0.2,0-0.3,0.1c-0.1,0-0.2,0-0.2,0.1c-0.1,0-0.1,0-0.2,0
					c-0.2,0-0.4,0.1-0.7,0.1c-0.2,0-0.6,0.1-0.8,0.1c-0.2,0-0.6,0.1-0.8,0.1c0,0,0,0-0.1,0h-0.1l0,0c-0.1,0-0.2,0-0.2,0
					c-0.2,0-0.3,0.1-0.6,0.1c-0.1,0-0.1,0-0.2,0c-0.1,0-0.2,0-0.2,0c-0.1,0-0.2,0-0.3,0.1c-0.1,0-0.2,0.1-0.3,0.1s-0.1,0-0.2,0
					c-0.1,0-0.1,0-0.1,0c-0.2,0.1-0.6,0.1-0.8,0.2c-0.2,0-0.4,0.1-0.7,0.1c-0.1,0-0.2,0-0.3,0.1c-0.1,0-0.2,0-0.2,0.1
					c-0.1,0-0.1,0-0.2,0c-0.2,0-0.4,0.1-0.7,0.1c-0.2,0-0.6,0.1-0.8,0.1c-0.2,0-0.6,0.1-0.8,0.1c-0.1,0-0.1,0-0.2,0
					c-0.1,0-0.2,0-0.2,0c-0.2,0-0.3,0.1-0.6,0.1c-0.3,0.1-0.7,0.2-1,0.2c-0.2,0-0.3,0-0.6,0.1c-0.1,0-0.1,0-0.2,0.1
					c-0.1,0-0.1,0.1-0.2,0.1c-0.1,0.1-0.1,0.1-0.1,0.2c0,0.1,0.1,0.1,0.2,0.2c0.1,0,0.2,0,0.3,0s0.1,0,0.2,0c0.1,0,0.2,0,0.3-0.1
					c0.1,0,0.2-0.1,0.3-0.1c0.3,0,0.7-0.1,1-0.2c0.1,0,0.2,0,0.3,0s0.2-0.1,0.4-0.1l0,0l0,0c0.1,0,0.3,0,0.4-0.1
					c0.2,0,0.3-0.1,0.6-0.1c0.3-0.1,0.8-0.1,1.1-0.2c0.1,0,0.1,0,0.2,0c0.2,0,0.3-0.1,0.6-0.1c0.1,0,0.2,0,0.3-0.1
					c0.1,0,0.1-0.1,0.2-0.1c0.1,0,0.3,0,0.4-0.1c0.6-0.1,1.1-0.2,1.7-0.3c0.1,0,0.2,0,0.3-0.1c0.1,0,0.1,0,0.2-0.1
					c0.1,0,0.2,0,0.3,0s0.2,0,0.3,0c0.1,0,0.2,0,0.3-0.1h0.1c0.1,0,0.2,0,0.3-0.1c0.2,0,0.3-0.1,0.6-0.1c0.3-0.1,0.8-0.1,1.1-0.2
					c0.1,0,0.1,0,0.2,0c0.2,0,0.3-0.1,0.6-0.1c0.1,0,0.2,0,0.3-0.1c0.1,0,0.1-0.1,0.2-0.1c0.1,0,0.3,0,0.4-0.1
					c0.6-0.1,1.1-0.2,1.7-0.3c0.1,0,0.2,0,0.3-0.1c0.1,0,0.1,0,0.2-0.1c0.1,0,0.2,0,0.3,0c0.1,0,0.2,0,0.3,0s0.2,0,0.3-0.1
					c0.1,0,0.2,0,0.3-0.1c0.1,0,0.2,0,0.2-0.1l0.1-0.1C125.4,206.4,125.4,206.4,125.4,206.3L125.4,206.3z"/>
			</g>
		</g>
		<g id="XMLID_2156_">
			<g id="XMLID_2157_">
				<path id="XMLID_2158_" class="st4" d="M78,210.5c-0.1-0.1-0.1-0.1-0.3-0.2c-0.1,0-0.1,0-0.2,0c-0.1,0-0.2,0-0.3,0
					c-0.1,0-0.3,0-0.4,0s-0.2,0-0.3,0c-0.3,0-0.6,0-0.9,0c-0.1,0-0.2,0-0.3,0s-0.2,0-0.3,0c-0.1,0-0.2,0-0.3,0c-0.3,0-0.6,0-0.8,0
					c-0.2,0-0.4,0-0.7,0c-0.1,0-0.2,0-0.3,0c-0.1,0-0.2,0-0.3,0s-0.1,0-0.2,0c-0.2,0-0.4,0-0.7,0c-0.2,0-0.6,0-0.8,0
					c-0.3,0-0.6,0-0.8,0c0,0,0,0-0.1,0h-0.1l0,0c-0.1,0-0.2,0-0.2,0c-0.2,0-0.3,0-0.6,0c-0.1,0-0.1,0-0.2,0s-0.2,0-0.3,0
					c-0.1,0-0.2,0-0.3,0s-0.2,0-0.3,0c-0.1,0-0.1,0-0.2,0c-0.1,0-0.1,0-0.2,0c-0.3,0-0.6,0-0.8,0c-0.2,0-0.4,0-0.7,0
					c-0.1,0-0.2,0-0.3,0c-0.1,0-0.2,0-0.3,0c-0.1,0-0.1,0-0.2,0c-0.2,0-0.4,0-0.7,0s-0.6,0-0.8,0c-0.3,0-0.6,0-0.8,0
					c-0.1,0-0.1,0-0.2,0c-0.1,0-0.2,0-0.2,0c-0.2,0-0.3,0-0.6,0c-0.3,0-0.7,0.1-1,0c-0.2,0-0.3,0-0.6,0c-0.1,0-0.1,0-0.2,0
					c-0.1,0-0.1,0-0.2,0.1c-0.1,0.1-0.2,0.1-0.1,0.2c0,0.1,0.1,0.1,0.2,0.2c0.1,0.1,0.2,0.1,0.3,0.1c0.1,0,0.1,0,0.2,0
					c0.1,0,0.2,0,0.3,0c0.1,0,0.2,0,0.3,0c0.3,0,0.7,0,1,0c0.1,0,0.2,0,0.3,0c0.1,0,0.3,0,0.4,0l0,0l0,0c0.1,0,0.3,0,0.4,0
					c0.2,0,0.3,0,0.6,0c0.4,0,0.8,0,1.1,0c0.1,0,0.1,0,0.2,0c0.2,0,0.4,0,0.6,0s0.2,0,0.3,0s0.1,0,0.2,0s0.3,0,0.4,0
					c0.6,0,1.1,0,1.7,0c0.1,0,0.2,0,0.3,0c0.1,0,0.1,0,0.2,0s0.2,0,0.3,0c0.1,0,0.2,0,0.3,0c0.1,0,0.2,0,0.3,0h0.1
					c0.1,0,0.2,0,0.3,0c0.2,0,0.3,0,0.6,0c0.4,0,0.8,0,1.1,0c0.1,0,0.1,0,0.2,0c0.2,0,0.4,0,0.6,0c0.1,0,0.2,0,0.3,0
					c0.1,0,0.1,0,0.2,0s0.3,0,0.4,0c0.6,0,1.1,0,1.7,0c0.1,0,0.2,0,0.3,0c0.1,0,0.1,0,0.2,0c0.1,0,0.2,0,0.3,0c0.1,0,0.2,0,0.3,0
					c0.1,0,0.2,0,0.3,0c0.1,0,0.2,0,0.3,0s0.2,0,0.2,0c0.1,0,0.1,0,0.1-0.1c0.1-0.1,0.1-0.1,0.1-0.2C78,210.6,78,210.5,78,210.5z"/>
			</g>
		</g>
		<g id="XMLID_2151_">
			<g id="XMLID_2152_">
				<g id="XMLID_2153_">
					<g id="XMLID_2154_">
						<path id="XMLID_2155_" class="st4" d="M49.6,224.4c0.1-0.1,0.2-0.1,0.4-0.2c0.1,0,0.2,0,0.3,0c0.2,0,0.3,0,0.6,0s0.4,0,0.7,0
							c0.1,0,0.3,0,0.4,0c0.4,0,0.9,0,1.4,0c0.2,0,0.4,0,0.7,0s0.4,0,0.7,0c0.1,0,0.3,0,0.4,0c0.4,0,0.9,0,1.3,0c0.3,0,0.8,0,1.1,0
							c0.2,0,0.3,0,0.6,0c0.1,0,0.3,0,0.4,0c0.1,0,0.2,0,0.3,0c0.3,0,0.7,0,1.1,0s0.8,0,1.2,0s0.9,0,1.3,0h0.1c0.1,0,0.1,0,0.1,0
							l0,0c0.1,0,0.3,0,0.4,0c0.3,0,0.6,0,0.9,0c0.1,0,0.2,0,0.3,0c0.1,0,0.3,0,0.4,0c0.2,0,0.4,0,0.7,0c0.2,0,0.3,0,0.6,0
							c0.1,0,0.2,0,0.3,0c0.1,0,0.2,0,0.2,0c0.4,0,0.9,0,1.3,0c0.3,0,0.8,0,1.1,0c0.2,0,0.3,0,0.6,0c0.1,0,0.3,0,0.4,0s0.2,0,0.3,0
							c0.3,0,0.7,0,1.1,0s0.8,0,1.2,0s0.9,0,1.3,0c0.1,0,0.2,0,0.3,0s0.3,0,0.4,0c0.3,0,0.6,0,0.9,0c0.6,0,1.1,0.1,1.7,0
							c0.3,0,0.6,0,0.9,0c0.1,0,0.2,0,0.3,0c0.1,0,0.2,0.1,0.3,0.1c0.2,0.1,0.3,0.1,0.2,0.2c0,0.1-0.1,0.1-0.3,0.2
							c-0.1,0.1-0.3,0.1-0.6,0.1c-0.1,0-0.2,0-0.3,0c-0.2,0-0.4,0-0.6,0c-0.2,0-0.3,0-0.6,0c-0.6,0-1.1,0-1.7,0c-0.2,0-0.4,0-0.6,0
							c-0.2,0-0.4,0-0.7,0c0,0,0,0-0.1,0c0,0,0,0-0.1,0c-0.2,0-0.6,0-0.8,0c-0.3,0-0.6,0-0.9,0c-0.7,0-1.2,0-1.9,0
							c-0.1,0-0.2,0-0.3,0c-0.3,0-0.7,0-0.9,0c-0.1,0-0.3,0-0.4,0c-0.1,0-0.2,0-0.4,0s-0.4,0-0.7,0c-0.9,0-1.8,0-2.7,0
							c-0.1,0-0.3,0-0.4,0s-0.2,0-0.3,0s-0.3,0-0.4,0c-0.2,0-0.3,0-0.6,0s-0.3,0-0.6,0c-0.1,0-0.1,0-0.2,0c-0.2,0-0.3,0-0.4,0
							c-0.3,0-0.6,0-0.9,0c-0.7,0-1.2,0-1.9,0c-0.1,0-0.2,0-0.3,0c-0.3,0-0.7,0-0.9,0c-0.1,0-0.3,0-0.4,0c-0.1,0-0.2,0-0.4,0
							c-0.2,0-0.4,0-0.7,0c-0.9,0-1.8,0-2.7,0c-0.1,0-0.3,0-0.4,0c-0.1,0-0.2,0-0.3,0c-0.1,0-0.3,0-0.4,0c-0.2,0-0.3,0-0.6,0
							c-0.2,0-0.3,0-0.6,0s-0.3,0-0.4,0c-0.1,0-0.3,0-0.4,0c-0.1,0-0.1-0.1-0.2-0.1c-0.1-0.1-0.2-0.1-0.2-0.2
							C49.5,224.5,49.6,224.4,49.6,224.4z"/>
					</g>
				</g>
			</g>
		</g>
		<g id="XMLID_2146_">
			<g id="XMLID_2147_">
				<g id="XMLID_2148_">
					<g id="XMLID_2149_">
						<path id="XMLID_2150_" class="st4" d="M71.7,224.5c-0.1,0-0.1-0.1-0.2-0.1v-0.1V224c0-0.1,0-0.1,0-0.2c0-0.1,0-0.1,0-0.1
							c0-0.2,0-0.3,0.1-0.6v-0.2c0-0.1,0.1-0.1,0.1-0.2c0-0.1,0-0.1,0-0.2c0.1-0.1,0.1-0.3,0.2-0.4c0.1-0.1,0.1-0.2,0.2-0.3l0.1-0.2
							l0.1-0.1l0.1-0.1c0.1-0.1,0.1-0.2,0.2-0.3s0.2-0.2,0.3-0.3c0.1-0.1,0.2-0.2,0.3-0.3l0,0l0,0l0,0l0.1-0.1l0.2-0.2
							c0,0,0.1,0,0.1-0.1l0.1-0.1c0.1,0,0.1-0.1,0.2-0.1c0.1,0,0.1-0.1,0.2-0.1c0,0,0.1,0,0.1-0.1c0,0,0.1,0,0.1-0.1
							c0.1-0.1,0.3-0.1,0.4-0.2c0.1,0,0.2-0.1,0.3-0.1l0.2-0.1c0.1,0,0.1,0,0.1,0h0.1c0.1,0,0.2-0.1,0.3-0.1c0.1,0,0.3,0,0.4,0
							c0.1,0,0.3,0,0.4,0h0.1h0.1c0.1,0,0.2,0,0.3,0c0.2,0,0.3,0.1,0.6,0.1c0.1,0,0.2,0,0.3,0.1c0,0,0.1,0,0.1,0.1l0.1,0.1
							c0,0.1,0,0.1,0,0.2c0,0.1-0.1,0.1-0.2,0.1s-0.1,0-0.2,0h-0.1c-0.1,0-0.1,0-0.2,0c-0.1,0-0.1,0-0.2-0.1c-0.2,0-0.3-0.1-0.6-0.1
							c-0.1,0-0.1,0-0.2,0s-0.1,0-0.2,0l0,0l0,0c-0.1,0-0.2,0-0.2,0h-0.3c-0.2,0-0.4,0-0.6,0.1h-0.1c-0.1,0-0.2,0.1-0.3,0.1H75h-0.1
							c-0.1,0-0.1,0.1-0.2,0.1c-0.2,0.1-0.6,0.2-0.8,0.4c0,0-0.1,0-0.1,0.1c0,0-0.1,0-0.1,0.1l-0.1,0.1l-0.1,0.1l-0.1,0.1l0,0
							l-0.1,0.1l-0.2,0.2c-0.1,0.1-0.2,0.3-0.3,0.4c0,0,0,0.1-0.1,0.1c0,0.1-0.1,0.2-0.1,0.2s0,0.1-0.1,0.1l-0.1,0.1
							c0,0.1,0,0.1-0.1,0.2c-0.1,0.2-0.2,0.6-0.2,0.8v0.1v0.1v0.1c0,0.1,0,0.1,0,0.2v0.2c0,0.1,0,0.1,0,0.1v0.1c0,0,0,0.1-0.1,0.1
							C71.9,224.5,71.8,224.5,71.7,224.5L71.7,224.5z"/>
					</g>
				</g>
			</g>
		</g>
		<g id="XMLID_2141_">
			<g id="XMLID_2142_">
				<g id="XMLID_2143_">
					<g id="XMLID_2144_">
						<path id="XMLID_2145_" class="st4" d="M56.6,218.8c-0.1,0.1-0.2,0.1-0.3,0.1c-0.1,0-0.1-0.1-0.2-0.1c-0.1,0-0.2-0.1-0.3-0.2
							c-0.1-0.1-0.2-0.1-0.4-0.2c-0.1-0.1-0.1-0.1-0.2-0.2c-0.2-0.2-0.6-0.3-0.8-0.6c-0.1-0.1-0.2-0.2-0.3-0.2
							c-0.1-0.1-0.2-0.2-0.2-0.3c-0.1-0.1-0.1-0.1-0.2-0.2c-0.2-0.2-0.3-0.4-0.4-0.7c-0.1-0.2-0.2-0.4-0.3-0.7l-0.1-0.3l-0.1-0.3
							l-0.1-0.2c-0.1-0.2-0.2-0.4-0.2-0.7c0-0.3-0.1-0.6,0-0.9c0-0.3,0.1-0.7,0.3-0.9v-0.1l0.1-0.1l0,0c0-0.1,0.1-0.2,0.2-0.2
							c0.1-0.1,0.3-0.3,0.4-0.4c0.1,0,0.1-0.1,0.2-0.1s0.2-0.1,0.3-0.1c0.1,0,0.3-0.1,0.4-0.1c0.1,0,0.2,0,0.3,0.1
							c0.1,0,0.1,0,0.2,0c0.1,0,0.1,0,0.2,0c0.3,0.1,0.6,0.2,0.8,0.4c0.2,0.1,0.3,0.3,0.6,0.4c0.1,0.1,0.2,0.2,0.2,0.3
							c0.1,0.1,0.1,0.1,0.2,0.2l0.1,0.1c0.1,0.2,0.3,0.4,0.3,0.6c0.1,0.2,0.2,0.4,0.3,0.8c0.1,0.3,0.1,0.6,0.2,0.9
							c0,0.1,0,0.1,0,0.2c0,0.1,0,0.2,0,0.2c0,0.2,0,0.3,0,0.6c0,0.3-0.1,0.7-0.2,1c0,0.2-0.1,0.3-0.2,0.6c0,0.1-0.1,0.1-0.1,0.2
							c-0.1,0.1-0.1,0.1-0.2,0.1c-0.1,0.1-0.2,0.1-0.2,0c-0.1-0.1-0.1-0.1-0.1-0.2c0-0.1,0-0.2,0.1-0.3c0-0.1,0-0.1,0.1-0.2
							c0-0.1,0.1-0.2,0.1-0.3c0-0.1,0.1-0.2,0.1-0.3c0.1-0.3,0.1-0.7,0.1-1c0-0.1,0-0.2,0-0.3c0-0.1,0-0.2,0-0.4l0,0l0,0
							c-0.1-0.1-0.1-0.3-0.1-0.4c0-0.2-0.1-0.3-0.2-0.4c-0.1-0.3-0.3-0.7-0.6-0.9c0-0.1-0.1-0.1-0.1-0.2c-0.1-0.1-0.2-0.2-0.3-0.4
							c-0.1-0.1-0.1-0.1-0.2-0.2c-0.1-0.1-0.1-0.1-0.2-0.1c-0.1-0.1-0.2-0.1-0.3-0.2c-0.4-0.2-0.9-0.3-1.3-0.1
							c-0.1,0-0.1,0.1-0.2,0.1c-0.1,0-0.1,0.1-0.1,0.1c-0.1,0.1-0.1,0.1-0.1,0.2c-0.1,0.1-0.1,0.1-0.1,0.2c0,0.1-0.1,0.2-0.1,0.2
							v0.1c0,0.1,0,0.2-0.1,0.2c0,0.1,0,0.3,0,0.4c0,0.3,0.1,0.7,0.2,1c0,0.1,0.1,0.1,0.1,0.2c0.1,0.2,0.1,0.3,0.2,0.4
							c0,0.1,0.1,0.1,0.1,0.2c0,0.1,0.1,0.1,0.1,0.2l0.2,0.3c0.3,0.4,0.7,0.8,1.1,1.1c0.1,0.1,0.1,0.1,0.2,0.2
							c0.1,0,0.1,0.1,0.2,0.1c0.1,0.1,0.1,0.1,0.2,0.1c0.1,0.1,0.2,0.1,0.2,0.1l0.3,0.1c0.1,0,0.1,0.1,0.2,0.1
							c0.1,0,0.2,0.1,0.2,0.1l0.1,0.1c0,0.1,0.1,0.1,0,0.2C56.6,218.8,56.6,218.8,56.6,218.8z"/>
					</g>
				</g>
			</g>
		</g>
		<g id="XMLID_2136_">
			<g id="XMLID_2137_">
				<g id="XMLID_2138_">
					<g id="XMLID_2139_">
						<path id="XMLID_2140_" class="st4" d="M56.3,218.7c0,0.1-0.1,0.2-0.2,0.2c-0.1,0-0.1,0-0.2,0.1c-0.1,0-0.2,0-0.3,0.1
							c-0.1,0-0.3,0.1-0.4,0.1c-0.1,0-0.2,0-0.3,0c-0.3,0-0.7,0-0.9,0c-0.1,0-0.2,0-0.4-0.1c-0.1,0-0.2-0.1-0.4-0.1
							c-0.1,0-0.2,0-0.3-0.1c-0.3-0.1-0.6-0.1-0.8-0.3c-0.2-0.1-0.4-0.2-0.7-0.3l-0.3-0.2l-0.2-0.2l-0.1-0.1
							c-0.2-0.1-0.4-0.2-0.6-0.4c-0.2-0.2-0.3-0.4-0.6-0.7c-0.1-0.2-0.2-0.6-0.3-0.9v-0.1v-0.1l0,0c0-0.1,0-0.2,0-0.3
							c0-0.2,0.1-0.4,0.1-0.6c0-0.1,0.1-0.1,0.1-0.2c0.1-0.1,0.1-0.2,0.2-0.3c0.1-0.1,0.2-0.2,0.3-0.3c0.1-0.1,0.2-0.1,0.3-0.2
							c0.1,0,0.1-0.1,0.2-0.1c0.1,0,0.1-0.1,0.2-0.1c0.3-0.1,0.7-0.1,0.9-0.1c0.2,0,0.4,0,0.8,0.1c0.1,0,0.2,0,0.3,0.1
							c0.1,0,0.2,0.1,0.3,0.1l0.2,0.1c0.2,0.1,0.4,0.1,0.7,0.2c0.2,0.1,0.4,0.3,0.7,0.4c0.2,0.2,0.4,0.3,0.7,0.6
							c0,0.1,0.1,0.1,0.1,0.1c0.1,0.1,0.1,0.1,0.2,0.2c0.1,0.1,0.2,0.3,0.3,0.4c0.2,0.3,0.3,0.7,0.4,1c0.1,0.2,0.1,0.3,0.2,0.6
							c0,0.1,0,0.1,0,0.2s0,0.1,0,0.2c0,0.1-0.1,0.2-0.2,0.2c-0.1,0-0.1-0.1-0.2-0.1c-0.1-0.1-0.1-0.2-0.1-0.3c0-0.1,0-0.1-0.1-0.2
							c0-0.1-0.1-0.2-0.1-0.3c0-0.1-0.1-0.2-0.1-0.3c-0.1-0.3-0.3-0.6-0.4-0.8c-0.1-0.1-0.1-0.2-0.2-0.2c-0.1-0.1-0.1-0.2-0.2-0.3
							l0,0l0,0c-0.1-0.1-0.2-0.2-0.3-0.3c-0.1-0.1-0.3-0.2-0.4-0.3c-0.3-0.2-0.7-0.3-1-0.4c-0.1,0-0.1,0-0.2-0.1
							c-0.2,0-0.3-0.1-0.6-0.1c-0.1,0-0.2,0-0.2,0c-0.1,0-0.1,0-0.2,0c-0.1,0-0.2,0-0.3,0.1c-0.4,0.1-1,0.3-1.2,0.7
							c0,0.1-0.1,0.1-0.1,0.2c0,0.1-0.1,0.1-0.1,0.2s0,0.1,0,0.2c0,0.1,0,0.2,0,0.2c0,0.1,0,0.2,0.1,0.3v0.1c0,0.1,0.1,0.2,0.1,0.2
							c0.1,0.1,0.2,0.2,0.2,0.4c0.2,0.2,0.4,0.4,0.8,0.7c0.1,0,0.1,0.1,0.2,0.1c0.2,0.1,0.3,0.2,0.4,0.2c0.1,0,0.1,0.1,0.2,0.1
							c0.1,0,0.1,0.1,0.2,0.1l0.4,0.1c0.6,0.2,1,0.3,1.5,0.3c0.1,0,0.2,0,0.2,0c0.1,0,0.1,0,0.2,0c0.1,0,0.2,0,0.2,0
							c0.1,0,0.2,0,0.3,0h0.3c0.1,0,0.2,0,0.2,0c0.1,0,0.2,0,0.2,0c0.1,0,0.1,0,0.1,0c0.1,0,0.1,0.1,0.2,0.1
							C56.3,218.6,56.3,218.6,56.3,218.7z"/>
					</g>
				</g>
			</g>
		</g>
		<g id="XMLID_2131_">
			<g id="XMLID_2132_">
				<g id="XMLID_2133_">
					<g id="XMLID_2134_">
						<path id="XMLID_2135_" class="st4" d="M60.2,218.7c0,0.1,0,0.1-0.1,0.2l0,0c0,0,0,0-0.1,0h-0.1c0,0,0,0-0.1,0
							c-0.1,0-0.1,0-0.2,0h-0.1h-0.1c0,0,0,0-0.1,0c-0.1,0-0.1,0-0.2,0h-0.1c0,0,0,0-0.1,0c0,0,0,0-0.1,0l0,0h-0.1
							c-0.1,0-0.1,0-0.1,0c-0.1,0-0.1,0-0.2,0l0,0l0,0l0,0c0,0,0,0-0.1,0H58l0,0c0,0,0,0-0.1,0h-0.1c0,0,0,0-0.1,0l0,0l0,0
							c-0.1,0-0.1,0-0.2,0h-0.1c0,0,0,0-0.1,0c0,0,0,0-0.1,0l0,0H57c-0.1,0-0.1,0-0.1,0c-0.1,0-0.1,0-0.2,0l0,0c0,0,0,0-0.1,0h-0.1
							c-0.1,0-0.1-0.1-0.2,0h-0.1l0,0v-0.1c0-0.1,0-0.1,0-0.2c0-0.1,0-0.1,0.1-0.2c0-0.1,0.1-0.1,0.1-0.1l0,0c0,0,0,0,0.1,0
							c0,0,0,0,0.1,0c0.1,0,0.1,0,0.2,0h0.1H57l0,0l0,0h0.1h0.1c0.1,0,0.1,0,0.2,0l0,0h0.1c0,0,0,0,0.1,0l0,0h0.1c0.1,0,0.2,0,0.3,0
							c0,0,0,0,0.1,0l0,0c0,0,0,0,0.1,0c0,0,0,0,0.1,0c0,0,0,0,0.1,0l0,0c0,0,0,0,0.1,0h0.1c0.1,0,0.1,0,0.2,0l0,0h0.1
							c0,0,0,0,0.1,0l0,0h0.1c0.1,0,0.2,0,0.3,0c0,0,0,0,0.1,0l0,0c0,0,0,0,0.1,0c0,0,0,0,0.1,0c0,0,0,0,0.1,0c0,0,0,0,0.1,0
							c0,0,0,0,0.1,0v0.1c0,0.1,0,0.1,0,0.2C60.3,218.6,60.3,218.7,60.2,218.7z"/>
					</g>
				</g>
			</g>
		</g>
		<g id="XMLID_2126_">
			<g id="XMLID_2127_">
				<g id="XMLID_2128_">
					<g id="XMLID_2129_">
						<path id="XMLID_2130_" class="st4" d="M57.8,221c0,0.1,0,0.1-0.1,0.2c0,0,0,0-0.1,0h-0.1h-0.1c0,0,0,0-0.1,0
							c-0.1,0-0.1,0-0.2,0h-0.1h-0.1h-0.1c-0.1,0-0.1,0-0.2,0c-0.1,0-0.1,0-0.2,0h-0.1c0,0,0,0-0.1,0l0,0c-0.1,0-0.1,0-0.2,0
							c-0.1,0-0.1,0-0.2,0c-0.1,0-0.1,0-0.2,0l0,0l0,0l0,0c0,0,0,0-0.1,0h-0.1l0,0c0,0,0,0-0.1,0h-0.1h-0.1l0,0l0,0
							c-0.1,0-0.1,0-0.2,0c-0.1,0-0.1,0-0.2,0h-0.1c0,0,0,0-0.1,0l0,0c-0.1,0-0.1,0-0.2,0c-0.1,0-0.1,0-0.2,0c-0.1,0-0.1,0-0.2,0
							c0,0,0,0-0.1,0c0,0,0,0-0.1,0h-0.1c-0.1,0-0.2-0.1-0.2,0c-0.1,0-0.1,0-0.1,0s0,0-0.1,0v-0.1c0-0.1,0-0.1,0-0.2
							c0-0.1,0-0.1,0.1-0.2c0-0.1,0.1-0.1,0.1-0.1s0,0,0.1,0h0.1h0.1c0.1,0,0.2,0,0.2,0h0.1h0.1l0,0l0,0h0.1h0.1c0.1,0,0.2,0,0.3,0
							c0,0,0,0,0.1,0c0.1,0,0.1,0,0.1,0h0.1c0,0,0,0,0.1,0h0.1c0.1,0,0.3,0,0.4,0c0,0,0,0,0.1,0c0,0,0,0,0.1,0c0,0,0,0,0.1,0h0.1
							h0.1l0,0h0.1H56c0.1,0,0.2,0,0.3,0c0,0,0,0,0.1,0c0.1,0,0.1,0,0.1,0h0.1c0,0,0,0,0.1,0h0.1c0.1,0,0.3,0,0.4,0c0,0,0,0,0.1,0
							c0,0,0,0,0.1,0c0,0,0,0,0.1,0h0.1h0.1c0,0,0,0,0.1,0c0,0,0,0,0.1,0v0.1c0,0.1,0,0.1,0,0.2C57.8,220.9,57.8,220.9,57.8,221z"/>
					</g>
				</g>
			</g>
		</g>
		<g id="XMLID_2121_">
			<g id="XMLID_2122_">
				<g id="XMLID_2123_">
					<g id="XMLID_2124_">
						<path id="XMLID_2125_" class="st4" d="M98.2,224.3c0.1-0.1,0.2-0.2,0.4-0.2c0.1,0,0.2-0.1,0.3-0.1c0.2,0,0.3-0.1,0.6-0.1
							c0.2,0,0.4-0.1,0.7-0.1c0.1,0,0.3,0,0.4-0.1c0.4-0.1,0.9-0.1,1.4-0.2c0.2,0,0.4-0.1,0.6-0.1c0.2,0,0.4,0,0.7-0.1
							c0.1,0,0.3-0.1,0.4-0.1c0.4,0,0.9-0.1,1.3-0.2c0.3,0,0.8-0.1,1.1-0.1c0.2,0,0.3-0.1,0.6-0.1c0.1,0,0.3,0,0.4-0.1
							c0.1,0,0.2,0,0.3,0c0.3-0.1,0.7-0.1,1-0.2c0.4-0.1,0.8-0.1,1.2-0.2c0.4-0.1,0.9-0.1,1.3-0.2h0.1c0.1,0,0.1,0,0.1,0l0,0
							c0.1,0,0.2,0,0.4-0.1c0.3,0,0.6-0.1,0.9-0.1c0.1,0,0.2,0,0.3,0s0.3,0,0.4-0.1c0.2,0,0.4-0.1,0.6-0.1c0.2,0,0.3,0,0.6-0.1
							c0.1,0,0.2,0,0.3,0s0.2,0,0.2,0c0.4,0,0.9-0.1,1.3-0.2c0.3,0,0.8-0.1,1.1-0.1c0.2,0,0.3-0.1,0.6-0.1c0.1,0,0.3,0,0.4-0.1
							c0.1,0,0.2,0,0.3,0c0.3-0.1,0.7-0.1,1-0.2c0.4-0.1,0.8-0.1,1.2-0.2c0.4-0.1,0.9-0.1,1.3-0.2c0.1,0,0.2,0,0.3-0.1
							c0.1,0,0.2,0,0.4-0.1c0.3,0,0.6-0.1,0.9-0.1c0.6-0.1,1.1-0.1,1.5-0.2c0.3-0.1,0.6-0.1,0.9-0.1c0.1,0,0.2,0,0.3,0s0.2,0,0.3,0
							c0.2,0,0.3,0.1,0.3,0.2c0,0.1-0.1,0.1-0.2,0.2c-0.1,0.1-0.3,0.1-0.6,0.2c-0.1,0-0.2,0-0.3,0.1c-0.2,0-0.3,0.1-0.6,0.1
							c-0.2,0-0.3,0-0.6,0.1c-0.6,0.1-1.1,0.1-1.7,0.2c-0.2,0-0.4,0.1-0.6,0.1c-0.2,0-0.4,0.1-0.7,0.1c0,0,0,0-0.1,0c0,0,0,0-0.1,0
							c-0.2,0.1-0.6,0.1-0.8,0.1c-0.3,0-0.6,0.1-0.9,0.1c-0.7,0.1-1.2,0.2-1.9,0.2c-0.1,0-0.2,0-0.3,0.1c-0.3,0.1-0.7,0.1-0.9,0.1
							c-0.1,0-0.3,0.1-0.4,0.1c-0.1,0-0.2,0-0.4,0s-0.4,0.1-0.7,0.1c-0.9,0.1-1.8,0.2-2.7,0.4c-0.1,0-0.3,0-0.4,0.1
							c-0.1,0-0.2,0-0.3,0s-0.3,0.1-0.4,0.1c-0.2,0-0.3,0.1-0.6,0.1c-0.2,0-0.3,0.1-0.6,0.1c-0.1,0-0.1,0-0.2,0
							c-0.2,0-0.3,0.1-0.4,0.1c-0.3,0-0.6,0.1-0.9,0.1c-0.7,0.1-1.2,0.2-1.9,0.2c-0.1,0-0.2,0-0.3,0.1c-0.3,0.1-0.7,0.1-0.9,0.1
							c-0.1,0-0.3,0.1-0.4,0.1c-0.1,0-0.2,0-0.4,0c-0.2,0-0.4,0.1-0.7,0.1c-0.9,0.1-1.8,0.2-2.7,0.4c-0.1,0-0.3,0-0.4,0.1
							c-0.1,0-0.2,0-0.3,0c-0.1,0-0.3,0.1-0.4,0.1c-0.2,0-0.3,0.1-0.6,0.1c-0.2,0-0.3,0.1-0.6,0.1c-0.2,0-0.3,0-0.4,0
							c-0.1,0-0.3,0.1-0.4,0c-0.1,0-0.1,0-0.2,0c-0.1,0-0.2-0.1-0.2-0.1C98.1,224.4,98.2,224.3,98.2,224.3z"/>
					</g>
				</g>
			</g>
		</g>
		<g id="XMLID_2116_">
			<g id="XMLID_2117_">
				<g id="XMLID_2118_">
					<g id="XMLID_2119_">
						<path id="XMLID_2120_" class="st4" d="M120.1,221.2c-0.1,0-0.1,0-0.2-0.1v-0.1v-0.2c0-0.1-0.1-0.1,0-0.2c0-0.1,0-0.1,0-0.1
							c0-0.2,0-0.3,0-0.6v-0.2c0-0.1,0-0.1,0-0.2c0-0.1,0-0.1,0-0.2c0.1-0.1,0-0.3,0.1-0.4c0-0.1,0.1-0.2,0.1-0.3l0.1-0.2
							c0-0.1,0.1-0.1,0.1-0.1v-0.1c0-0.1,0.1-0.2,0.1-0.3c0.1-0.1,0.1-0.2,0.2-0.3c0.1-0.1,0.2-0.2,0.3-0.3l0,0l0,0l0,0l0.1-0.1
							l0.2-0.2c0,0,0.1,0,0.1-0.1l0.1-0.1c0.1-0.1,0.1-0.1,0.2-0.1c0.1,0,0.1-0.1,0.2-0.1c0,0,0.1,0,0.1-0.1c0,0,0,0,0.1-0.1
							c0.1-0.1,0.2-0.2,0.4-0.2c0.1-0.1,0.2-0.1,0.3-0.2l0.2-0.1c0.1,0,0.1,0,0.1,0h0.1c0.1-0.1,0.2-0.1,0.3-0.1s0.3-0.1,0.4-0.1
							c0.1,0,0.3-0.1,0.4-0.1h0.1h0.1c0.1,0,0.2,0,0.3,0c0.2,0,0.3,0.1,0.6,0.1c0.1,0,0.2,0,0.3,0h0.1l0.1,0.1
							c0.1,0.1,0.1,0.1,0,0.2c0,0.1-0.1,0.1-0.1,0.2c-0.1,0.1-0.1,0.1-0.2,0.1h-0.1c-0.1,0-0.1,0-0.2,0c-0.1,0-0.1,0-0.2,0
							c-0.2,0-0.3,0-0.6,0c-0.1,0-0.1,0-0.2,0c-0.1,0-0.1,0-0.2,0l0,0l0,0c-0.1,0-0.2,0-0.2,0.1l-0.2,0.1c-0.2,0-0.3,0.1-0.6,0.2
							h-0.1c-0.1,0-0.2,0.1-0.2,0.1l-0.1,0.1h-0.1c-0.1,0-0.1,0.1-0.2,0.1c-0.2,0.1-0.4,0.3-0.7,0.6l-0.1,0.1l-0.1,0.1l-0.1,0.1
							l-0.1,0.1l-0.1,0.1l0,0l-0.1,0.1l-0.1,0.2c-0.1,0.2-0.2,0.3-0.2,0.6v0.1c0,0.1-0.1,0.2-0.1,0.3v0.1c0,0,0,0.1-0.1,0.1
							c0,0.1,0,0.1,0,0.2c-0.1,0.3-0.1,0.6-0.1,0.9v0.1v0.1v0.1c0,0.1,0,0.1,0,0.2v0.2c0,0.1,0,0.1,0,0.1v0.1c0,0,0,0.1-0.1,0.1
							c0,0.1-0.1,0.1-0.2,0.1C120.2,221.2,120.1,221.2,120.1,221.2z"/>
					</g>
				</g>
			</g>
		</g>
		<g id="XMLID_2111_">
			<g id="XMLID_2112_">
				<g id="XMLID_2113_">
					<g id="XMLID_2114_">
						<path id="XMLID_2115_" class="st4" d="M104.3,217.7c-0.1,0.1-0.1,0.1-0.3,0.1c-0.1,0-0.1,0-0.2-0.1c-0.1,0-0.2-0.1-0.3-0.1
							c-0.1,0-0.3-0.1-0.4-0.1c-0.1,0-0.2-0.1-0.2-0.1c-0.3-0.1-0.6-0.2-0.8-0.4c-0.1-0.1-0.2-0.1-0.3-0.2c-0.1-0.1-0.2-0.2-0.3-0.2
							c-0.1-0.1-0.2-0.1-0.2-0.2c-0.2-0.2-0.4-0.4-0.6-0.7c-0.1-0.2-0.3-0.3-0.4-0.6l-0.2-0.3l-0.1-0.2l-0.1-0.2
							c-0.1-0.2-0.2-0.4-0.3-0.7c-0.1-0.2-0.1-0.6-0.1-0.8c0-0.3,0-0.7,0.1-0.9v-0.1v-0.1l0,0c0-0.1,0.1-0.2,0.1-0.2
							c0.1-0.2,0.2-0.3,0.4-0.4c0.1,0,0.1-0.1,0.2-0.1c0.1-0.1,0.2-0.1,0.3-0.1c0.1-0.1,0.3-0.1,0.4-0.1c0.1,0,0.2,0,0.4,0
							c0.1,0,0.1,0,0.2,0c0.1,0,0.1,0,0.2,0c0.3,0.1,0.7,0.1,0.9,0.3c0.2,0.1,0.4,0.2,0.7,0.4c0.1,0.1,0.2,0.1,0.3,0.2
							s0.1,0.1,0.2,0.2l0.1,0.1c0.2,0.2,0.3,0.3,0.4,0.6c0.1,0.2,0.3,0.4,0.4,0.7c0.1,0.2,0.2,0.6,0.3,0.8c0,0.1,0,0.1,0.1,0.2
							c0,0.1,0,0.2,0.1,0.2c0,0.2,0.1,0.3,0.1,0.6c0,0.3,0,0.7,0,1.1c0,0.2,0,0.4-0.1,0.6c0,0.1,0,0.1-0.1,0.2
							c0,0.1-0.1,0.1-0.1,0.2c-0.1,0.1-0.2,0.1-0.2,0.1c-0.1,0-0.1-0.1-0.1-0.2c0-0.1,0-0.2,0-0.3c0-0.1,0-0.1,0-0.2
							c0-0.1,0-0.2,0-0.3c0-0.1,0-0.2,0-0.3c0-0.3,0-0.7,0-1c0-0.1-0.1-0.2-0.1-0.3s-0.1-0.2-0.1-0.4l0,0l0,0
							c-0.1-0.1-0.1-0.3-0.2-0.4c-0.1-0.1-0.1-0.3-0.2-0.4c-0.2-0.3-0.4-0.6-0.7-0.9c0-0.1-0.1-0.1-0.1-0.1
							c-0.1-0.1-0.3-0.2-0.4-0.3c-0.1,0-0.1-0.1-0.2-0.1c-0.1,0-0.1-0.1-0.2-0.1c-0.1-0.1-0.2-0.1-0.3-0.1c-0.4-0.1-1-0.2-1.3,0.1
							c-0.1,0-0.1,0.1-0.2,0.1l-0.1,0.1c0,0.1-0.1,0.1-0.1,0.2s-0.1,0.2-0.1,0.2c0,0.1-0.1,0.2-0.1,0.3v0.1c0,0.1,0,0.2,0,0.2
							c0,0.1,0,0.3,0,0.4c0.1,0.3,0.2,0.7,0.3,1c0,0.1,0.1,0.1,0.1,0.2c0.1,0.1,0.2,0.3,0.3,0.4c0.1,0.1,0.1,0.1,0.2,0.2
							c0,0.1,0.1,0.1,0.1,0.2l0.3,0.3c0.3,0.3,0.8,0.8,1.2,1c0.1,0,0.1,0.1,0.2,0.1c0.1,0,0.1,0.1,0.2,0.1c0.1,0,0.2,0.1,0.2,0.1
							c0.1,0,0.2,0.1,0.3,0.1l0.3,0.1c0.1,0,0.1,0.1,0.2,0.1c0.1,0,0.2,0,0.2,0.1l0.1,0.1C104.3,217.5,104.4,217.6,104.3,217.7
							L104.3,217.7z"/>
					</g>
				</g>
			</g>
		</g>
		<g id="XMLID_2106_">
			<g id="XMLID_2107_">
				<g id="XMLID_2108_">
					<g id="XMLID_2109_">
						<path id="XMLID_2110_" class="st4" d="M104,217.6c0,0.1-0.1,0.2-0.2,0.3c-0.1,0-0.1,0.1-0.2,0.1c-0.1,0-0.2,0.1-0.3,0.1
							s-0.2,0.1-0.4,0.1c-0.1,0-0.2,0-0.3,0c-0.3,0.1-0.6,0.1-0.9,0.1c-0.1,0-0.2,0-0.4,0c-0.1,0-0.2,0-0.4,0c-0.1,0-0.2,0-0.3,0
							c-0.3-0.1-0.6-0.1-0.9-0.2c-0.2-0.1-0.4-0.1-0.7-0.2l-0.3-0.1l-0.2-0.1l-0.2-0.1c-0.2-0.1-0.4-0.2-0.7-0.3
							c-0.2-0.2-0.4-0.3-0.6-0.6c-0.2-0.2-0.3-0.6-0.4-0.8v-0.1v-0.1l0,0c0-0.1,0-0.2,0-0.3c0-0.2,0-0.4,0.1-0.7
							c0-0.1,0-0.1,0.1-0.2c0-0.1,0.1-0.2,0.1-0.3c0.1-0.1,0.2-0.2,0.3-0.3s0.2-0.1,0.3-0.2c0.1,0,0.1-0.1,0.2-0.1
							c0.1,0,0.1-0.1,0.1-0.1c0.3-0.1,0.6-0.2,0.9-0.2c0.2,0,0.4,0,0.8,0c0.1,0,0.2,0,0.3,0s0.2,0,0.3,0h0.2c0.2,0,0.4,0.1,0.7,0.1
							c0.2,0.1,0.6,0.2,0.8,0.3c0.2,0.1,0.6,0.3,0.8,0.4c0.1,0.1,0.1,0.1,0.2,0.1c0.1,0,0.1,0.1,0.2,0.2c0.1,0.1,0.2,0.2,0.4,0.4
							c0.2,0.2,0.4,0.6,0.6,0.9c0.1,0.2,0.2,0.3,0.2,0.6c0,0.1,0.1,0.1,0.1,0.2c0,0.1,0,0.1,0,0.2s-0.1,0.2-0.1,0.2s-0.2,0-0.2-0.1
							c-0.1-0.1-0.1-0.1-0.2-0.2c0-0.1-0.1-0.1-0.1-0.2s-0.1-0.2-0.1-0.3c0-0.1-0.1-0.2-0.1-0.3c-0.2-0.2-0.3-0.6-0.6-0.8
							c-0.1-0.1-0.2-0.1-0.2-0.2c-0.1-0.1-0.2-0.2-0.3-0.2l0,0l0,0c-0.1,0-0.2-0.1-0.4-0.2c-0.1-0.1-0.3-0.1-0.4-0.2
							c-0.3-0.1-0.7-0.2-1-0.3c-0.1,0-0.1,0-0.2,0c-0.2,0-0.3,0-0.6,0c-0.1,0-0.2,0-0.2,0c-0.1,0-0.1,0-0.2,0
							c-0.1,0-0.2,0.1-0.3,0.1c-0.4,0.1-0.9,0.4-1.1,0.9c0,0.1,0,0.1-0.1,0.2c0,0.1,0,0.1,0,0.2c0,0.1,0,0.1,0,0.2
							c0,0.1,0,0.2,0.1,0.2c0,0.1,0.1,0.2,0.1,0.2v0.1c0,0.1,0.1,0.1,0.1,0.2c0.1,0.1,0.2,0.2,0.3,0.3c0.2,0.2,0.6,0.4,0.9,0.6
							c0.1,0,0.1,0.1,0.2,0.1c0.2,0.1,0.3,0.1,0.6,0.2c0.1,0,0.2,0.1,0.2,0.1c0.1,0,0.1,0.1,0.2,0.1l0.4,0.1c0.6,0.1,1,0.1,1.5,0.1
							c0.1,0,0.2,0,0.2,0c0.1,0,0.1,0,0.2,0c0.1,0,0.2,0,0.2-0.1c0.1,0,0.2-0.1,0.3-0.1l0.3-0.1c0.1,0,0.2,0,0.2-0.1
							c0.1,0,0.2-0.1,0.2-0.1c0.1,0,0.1,0,0.1,0C103.9,217.4,104,217.5,104,217.6C104,217.5,104,217.5,104,217.6z"/>
					</g>
				</g>
			</g>
		</g>
		<g id="XMLID_2101_">
			<g id="XMLID_2102_">
				<g id="XMLID_2103_">
					<g id="XMLID_2104_">
						<path id="XMLID_2105_" class="st4" d="M107.9,217.1c0,0.1,0,0.1-0.1,0.2l0,0c0,0,0,0-0.1,0h-0.1c0,0,0,0-0.1,0s-0.1,0-0.2,0
							h-0.1H107c0,0,0,0-0.1,0s-0.1,0-0.2,0h-0.1c0,0,0,0-0.1,0c0,0,0,0-0.1,0l0,0h-0.1c-0.1,0-0.1,0-0.1,0c-0.1,0-0.1,0-0.2,0l0,0
							l0,0l0,0c0,0,0,0-0.1,0h-0.1l0,0c0,0,0,0-0.1,0h-0.1c0,0,0,0-0.1,0l0,0l0,0c-0.1,0-0.1,0-0.2,0H105c0,0,0,0-0.1,0
							c0,0,0,0-0.1,0l0,0h-0.1c-0.1,0-0.1,0-0.1,0s-0.1,0-0.2,0l0,0c0,0,0,0-0.1,0h-0.1c-0.1,0-0.1,0-0.2,0h-0.1l0,0v-0.1
							c0-0.1,0-0.1,0-0.2c0-0.1,0-0.1,0-0.2c0-0.1,0-0.1,0.1-0.1l0,0c0,0,0,0,0.1,0c0,0,0,0,0.1,0s0.1,0,0.2,0c0,0,0,0,0.1,0h0.1
							l0,0l0,0h0.1h0.1c0.1,0,0.1,0,0.2,0l0,0h0.1c0,0,0,0,0.1,0c0,0,0,0,0.1,0h0.1c0.1,0,0.2,0,0.3,0c0,0,0,0,0.1,0l0,0
							c0,0,0,0,0.1,0c0,0,0,0,0.1,0c0,0,0,0,0.1,0l0,0c0,0,0,0,0.1,0h0.1c0.1,0,0.1,0,0.2,0l0,0h0.1c0,0,0,0,0.1,0c0,0,0,0,0.1,0
							h0.1c0.1,0,0.2,0,0.3,0c0,0,0,0,0.1,0l0,0c0,0,0,0,0.1,0c0,0,0,0,0.1,0c0,0,0,0,0.1,0c0,0,0,0,0.1,0c0,0,0,0,0.1,0
							c0,0,0,0,0,0.1c0,0.1,0,0.1,0,0.2C107.9,217,107.9,217.1,107.9,217.1z"/>
					</g>
				</g>
			</g>
		</g>
		<g id="XMLID_2096_">
			<g id="XMLID_2097_">
				<g id="XMLID_2098_">
					<g id="XMLID_2099_">
						<path id="XMLID_2100_" class="st4" d="M105.8,219.7c0,0.1,0,0.1-0.1,0.2c0,0,0,0-0.1,0h-0.1h-0.1c0,0,0,0-0.1,0s-0.1,0-0.2,0
							h-0.1h-0.1c0,0,0,0-0.1,0s-0.1,0-0.2,0c-0.1,0-0.1,0-0.2,0h-0.1c0,0,0,0-0.1,0l0,0c-0.1,0-0.1,0-0.2,0c-0.1,0-0.1,0-0.2,0
							c-0.1,0-0.1,0-0.2,0l0,0l0,0l0,0c0,0,0,0-0.1,0h-0.1l0,0c0,0,0,0-0.1,0h-0.1h-0.1l0,0l0,0c-0.1,0-0.1,0-0.2,0
							c-0.1,0-0.1,0-0.2,0h-0.1c0,0,0,0-0.1,0l0,0c-0.1,0-0.1,0-0.2,0c-0.1,0-0.1,0-0.2,0c-0.1,0-0.1,0-0.2,0l0,0c0,0,0,0-0.1,0
							h-0.1c-0.1,0-0.2,0-0.2,0h-0.1c0,0,0,0-0.1,0c0,0,0,0-0.1-0.1c0-0.1-0.1-0.1-0.1-0.2c0-0.1,0-0.1,0-0.2c0-0.1,0-0.1,0.1-0.1
							c0,0,0,0,0.1,0h0.1h0.1c0.1,0,0.2,0,0.2,0h0.1h0.1l0,0l0,0h0.1h0.1c0.1,0,0.2,0,0.3,0c0,0,0,0,0.1,0c0.1,0,0.1,0,0.1,0h0.1
							c0,0,0,0,0.1,0h0.1c0.1,0,0.3,0,0.4,0c0,0,0,0,0.1,0c0,0,0,0,0.1,0c0,0,0,0,0.1,0h0.1h0.1l0,0h0.1h0.1c0.1,0,0.2,0,0.3,0
							c0,0,0,0,0.1,0s0.1,0,0.1,0h0.1c0,0,0,0,0.1,0h0.1c0.1,0,0.3,0,0.4,0c0,0,0,0,0.1,0c0,0,0,0,0.1,0c0,0,0,0,0.1,0h0.1h0.1
							c0,0,0,0,0.1,0c0,0,0,0,0.1,0c0,0,0,0,0,0.1c0,0.1,0,0.1,0.1,0.2C105.8,219.6,105.8,219.7,105.8,219.7z"/>
					</g>
				</g>
			</g>
		</g>
	</g>
	<g>
		<g>
			<g>
				<path class="st4" d="M41,52.9l-1.3,2.8c-0.2,0.4-0.2,1,0,1.5l1.5,3.2l-1,2l2.9,1.4l1-2l3.5-0.8c0.6-0.1,1-0.4,1.2-1l1.3-2.8
					c0.1-0.1,0-0.3-0.1-0.4l0,0l5.2-10.5l0,0c0.1,0.1,0.3,0,0.4-0.1l1.3-2.8c0.2-0.4,0.2-1,0-1.5l-0.6-1.1l-6.1-3.1L49.1,38
					c-0.6,0.1-1,0.4-1.2,1l-1.3,2.8c-0.1,0.1,0,0.3,0.1,0.4l0,0l-5.2,10.5l0,0C41.3,52.7,41.1,52.8,41,52.9z"/>
				<path class="st4" d="M88.4,46.8l0.9-2.9c0.2-0.6,0.1-1.1-0.2-1.5l-2-3l0.7-2.1l-3.1-1L84,38.4l-3.3,1.2
					c-0.6,0.2-0.9,0.6-1.1,1.1l-0.9,2.9c-0.1,0.2,0,0.3,0.2,0.4l0,0l-3.5,11.2l0,0c-0.2-0.1-0.3,0-0.4,0.2L74,58.4
					c-0.2,0.6-0.1,1.1,0.2,1.5l0.7,1.1l6.5,2.1l1.2-0.4c0.6-0.2,0.9-0.6,1.1-1.1l0.9-2.9c0.1-0.2,0-0.3-0.2-0.4l0,0L88,47.1l0,0
					C88.2,47.1,88.3,47.1,88.4,46.8z"/>
				<path class="st4" d="M66.9,42.6l0.1-3.1c0-0.6-0.2-1.1-0.7-1.4l-2.7-2.3l0.1-2.2l-3.2-0.1l-0.1,2.2l-2.9,2.1
					c-0.4,0.3-0.7,0.8-0.8,1.3l-0.1,3.1c0,0.2,0.1,0.3,0.3,0.3l0,0l-0.4,11.7l0,0c-0.2,0-0.3,0.1-0.3,0.3l-0.1,3.1
					c0,0.6,0.2,1.1,0.7,1.4l1,0.9l6.9,0.3l1-0.8c0.4-0.3,0.7-0.8,0.8-1.3l0.1-3.1c0-0.2-0.1-0.3-0.3-0.3l0,0l0.4-11.7l0,0
					C66.7,43,66.9,42.9,66.9,42.6z"/>
				<g>
					<path class="st4" d="M27.7,41.3l-1.2-2.9c-0.2-0.6-0.7-0.9-1.1-1l-3.4-1l-0.9-2l-3,1.2l0.9,2l-1.8,3.2c-0.2,0.4-0.3,1-0.1,1.5
						l1.2,2.9c0.1,0.1,0.2,0.2,0.4,0.2l0,0l4.5,10.8l0,0c-0.1-0.1-0.2,0.1-0.2,0.2l1.2,2.9c0.2,0.6,0.7,0.9,1.1,1l1.2,0.3l6.3-2.7
						l0.7-1.1c0.2-0.4,0.3-1,0.1-1.5l-1.2-2.9c-0.1-0.1-0.2-0.2-0.4-0.2l0,0l-4.5-10.8l0,0C27.7,41.6,27.8,41.4,27.7,41.3z"/>
					
						<rect x="17.6" y="33" transform="matrix(0.9223 -0.3864 0.3864 0.9223 -11.9102 10.1972)" class="st4" width="3.7" height="3.4"/>
				</g>
				<g>
					<g>
						<path class="st5" d="M76.5,48.6l0.1-3.1c0-0.6-0.2-1.1-0.7-1.4l-2.7-2.3l0.1-2.2l-3.2-0.1l-0.1,2.2l-2.9,2.1
							c-0.4,0.3-0.7,0.8-0.8,1.3l-0.1,3.1c0,0.2,0.1,0.3,0.3,0.3l0,0l-0.4,11.7l0,0c-0.2,0-0.3,0.1-0.3,0.3l-0.1,3.1
							c0,0.6,0.2,1.1,0.7,1.4l1,0.9l6.9,0.3l0.8-0.9c0.4-0.3,0.7-0.8,0.8-1.3l0.1-3.1c0-0.2-0.1-0.3-0.3-0.3l0,0L76,49l0,0
							C76.3,49,76.4,48.8,76.5,48.6z"/>
						
							<rect x="69.9" y="37.5" transform="matrix(4.009966e-02 -0.9992 0.9992 4.009966e-02 29.5242 109.293)" class="st5" width="3.4" height="3.7"/>
					</g>
					
						<rect x="65.5" y="50.3" transform="matrix(4.009966e-02 -0.9992 0.9992 4.009966e-02 13.6785 123.4321)" class="st5" width="11.2" height="8.6"/>
				</g>
				<g>
					<g>
						<path class="st5" d="M43.6,44.5l0.1-3.1c0-0.6-0.2-1.1-0.7-1.4l-2.7-2.2l0.1-2.2l-3.2-0.1l-0.1,2.2l-2.9,2.1
							c-0.4,0.3-0.7,0.8-0.8,1.3l-0.1,3.1c0,0.2,0.1,0.3,0.3,0.3l0,0l-0.4,11.7l0,0c-0.2,0-0.3,0.1-0.3,0.3l-0.1,3.1
							c0,0.6,0.2,1.1,0.7,1.4l1,0.9l6.9,0.3l1-0.8c0.4-0.3,0.7-0.8,0.8-1.3l0.1-3.1c0-0.2-0.1-0.3-0.3-0.3l0,0l0.4-11.7l0,0
							C43.4,44.9,43.6,44.7,43.6,44.5z"/>
						
							<rect x="37.1" y="33.4" transform="matrix(4.009966e-02 -0.9992 0.9992 4.009966e-02 2.1109 72.6443)" class="st5" width="3.4" height="3.7"/>
					</g>
					
						<rect x="32.7" y="46.2" transform="matrix(4.009966e-02 -0.9992 0.9992 4.009966e-02 -13.7369 86.8101)" class="st5" width="11.2" height="8.6"/>
				</g>
			</g>
			<path class="st6" d="M85.8,58.8L85,66.2l-1,9.5L82.7,88l-0.9,7.9c-0.1,0.7-0.7,1.2-1.4,1.2l-58-2.3c-0.7,0-1.3-0.6-1.3-1.3
				l-0.1-3.8l-0.1-9.3l-0.3-12l-0.2-9.2l-0.1-3.1L85.8,58.8z"/>
			<g>
				<path class="st7" d="M43.5,70l4.3,2.7l2.4-3.8l1,1.9l-1.4,0.8l5.4,1.3l2.1-5.3l-1.5,0.9l-1-2c-0.3-0.6-0.9-1-1.7-1l-5.3-0.3
					c-0.7,0-1.3,0.3-1.8,0.9L43.5,70z"/>
				<path class="st7" d="M48.5,83.7v-5.1h-4.4l1.1-1.9l1.4,0.8l-1.8-5.3l-5.6,1l1.5,0.9L39.6,76c-0.3,0.6-0.3,1.3,0,1.9l2.5,4.6
					c0.3,0.7,1,1,1.7,1L48.5,83.7z"/>
				<path class="st7" d="M57.9,72.9l-4.4,2.3l2.1,4l-2.1-0.1v-1.7l-3.9,4.1l3.5,4.4v-1.8l2.2,0.1c0.7,0,1.3-0.3,1.7-0.9l2.9-4.4
					c0.3-0.6,0.4-1.3,0.1-2L57.9,72.9z"/>
			</g>
			<path class="st6" d="M87.7,59.6l-69.5-2.8l0.1-1.8c0-1.1,1-2,2.1-2l65.4,2.7c1.1,0,2,1,2,2.1L87.7,59.6z"/>
		</g>
	</g>
	<g>
		<g id="XMLID_2092_">
			<g id="XMLID_2093_">
				<g id="XMLID_2094_">
					<path id="XMLID_2095_" class="st1" d="M84.4,72.2L70.9,80l-13.4,9.3c-2.1,1.4-2.5,4.3-1.1,6.4c1.4,2,4.1,2.5,6.1,1.3l31.8-19.1
						C94.4,77.9,86.5,70.8,84.4,72.2z"/>
				</g>
			</g>
		</g>
		<g id="XMLID_2088_">
			<g id="XMLID_2089_">
				<g id="XMLID_2090_">
					<path id="XMLID_2091_" class="st1" d="M61.2,88.5c-0.3-0.3-0.3-0.3-0.6-0.4c-0.1-0.1-0.2-0.1-0.3-0.2c-0.2-0.1-0.4-0.2-0.7-0.3
						c-0.4-0.1-0.8-0.3-1.1-0.4c-0.8-0.2-1.4-0.3-2.1-0.4c-1.3-0.2-2.7-0.2-4-0.2c-0.9,0-1.7,0.8-1.7,1.8c0,0.8,0.6,1.4,1.3,1.7l0,0
						c1.1,0.2,2.2,0.6,3.2,1c0.6,0.2,1,0.4,1.3,0.7c0.2,0.1,0.3,0.2,0.6,0.3c0.1,0.1,0.1,0.1,0.2,0.2c0,0,0,0,0,0.1
						c0,0,0,0.1-0.1-0.1c1,1,2.7,1.1,3.7,0.1C62.1,91.1,62.1,89.6,61.2,88.5z"/>
				</g>
			</g>
		</g>
		<g id="XMLID_2084_">
			<g id="XMLID_2085_">
				<g id="XMLID_2086_">
					<path id="XMLID_2087_" class="st1" d="M62.4,97.1c-0.9,0.6-1.5,1-2.4,1.4c-0.8,0.4-1.7,0.9-2.4,1.2c-1.7,0.8-3.4,1.4-5.4,1.8
						c-0.9,0.1-1.9-0.4-2-1.4c-0.1-0.9,0.3-1.7,1.2-1.9h0.1c1.4-0.4,2.9-1.2,4.2-2.1c0.7-0.4,1.3-0.9,2-1.4c0.7-0.4,1.3-1,1.9-1.5
						c1-0.9,2.5-0.8,3.5,0.2c0.9,1,0.8,2.5-0.2,3.5C62.6,97,62.5,97,62.4,97.1z"/>
				</g>
			</g>
		</g>
		<g id="XMLID_2080_">
			<g id="XMLID_2081_">
				<g id="XMLID_2082_">
					<path id="XMLID_2083_" class="st1" d="M61.6,95.1c-0.9,0.4-1.7,0.9-2.5,1.3c-0.9,0.4-1.8,0.8-2.7,1.1c-0.9,0.3-1.9,0.7-2.9,0.9
						c-0.6,0.1-1,0.2-1.7,0.3c-0.3,0-0.7,0-0.9,0c-0.3,0-0.8-0.1-1.1-0.1c-0.9-0.2-1.5-1-1.3-2c0.1-0.8,0.8-1.3,1.5-1.3l0.7-0.1
						c0.2,0,1-0.2,1.7-0.6s1.4-0.7,2.2-1.1c0.8-0.4,1.4-0.9,2.2-1.3c0.7-0.4,1.4-1,2.1-1.5c1.1-0.9,2.8-0.7,3.7,0.4
						c0.9,1.1,0.7,2.8-0.4,3.7C61.9,94.9,61.8,95,61.6,95.1z"/>
				</g>
			</g>
		</g>
		<g id="XMLID_2076_">
			<g id="XMLID_2077_">
				<g id="XMLID_2078_">
					<path id="XMLID_2079_" class="st1" d="M63.8,91.2c-1.2,0.7-2.3,1.1-3.5,1.7c-1.2,0.4-2.4,0.9-3.7,1.3c-2.4,0.8-5,1.3-7.6,1.4
						c-1,0.1-1.8-0.7-1.9-1.7c-0.1-0.9,0.6-1.7,1.4-1.8l0,0c2.2-0.4,4.4-1.1,6.4-2.1c1-0.4,2.1-1,3.1-1.5c1-0.6,2-1.1,2.9-1.8l0,0
						c1.2-0.8,2.8-0.4,3.5,0.7c0.8,1.2,0.4,2.8-0.7,3.5C64,91.1,63.9,91.1,63.8,91.2z"/>
				</g>
			</g>
		</g>
	</g>
	<g id="XMLID_2074_">
		<path id="XMLID_2075_" class="st2" d="M67.7,82.3l7.2,7.4l20.8-11.8c0.9-0.7,1.7-1.5,2-2.5l0.2-0.4l15.4-37.5
			c-1.7,5.6,0.1-0.3,0.2-0.6c0,0-1-9.4-5.3-10.8c-4.3-1.4-9.6,1.4-11.1,5.8L85.4,68.3L67.7,82.3z"/>
	</g>
	<line class="st8" x1="21.3" y1="56.9" x2="81.7" y2="59.4"/>
	<path class="st8" d="M22.2,83.4l0.4,9.3c0,0.4,0.3,0.8,0.8,0.8L39.2,94"/>
</g>
</svg>
