<?xml version="1.0" encoding="utf-8"?>
<!-- Generator: Adobe Illustrator 22.1.0, SVG Export Plug-In . SVG Version: 6.00 Build 0)  -->
<svg version="1.1" id="Capa_1" xmlns="http://www.w3.org/2000/svg" xmlns:xlink="http://www.w3.org/1999/xlink" x="0px" y="0px"
	 viewBox="0 0 226.8 226.8" style="enable-background:new 0 0 226.8 226.8;" xml:space="preserve">
<style type="text/css">
	.st0{fill:#8FDFF4;}
	.st1{fill:#FFFFFF;}
	.st2{fill:#61B6D8;}
	.st3{fill:#6DB7D8;}
	.st4{fill:#CEDDFB;}
</style>
<g>
	<rect x="15.7" y="34.2" class="st0" width="194.4" height="164.4"/>
	<rect x="10.9" y="28.2" class="st1" width="202.3" height="6"/>
	<path class="st1" d="M113.4,98.1c-7.1,0-13.8-2.8-18.9-7.8c-5-5-7.8-11.8-7.8-18.9c0-7.1,2.8-13.8,7.8-18.9c5-5,11.8-7.8,18.9-7.8
		c7.1,0,13.8,2.8,18.9,7.8c5,5,7.8,11.8,7.8,18.9c0,7.1-2.8,13.8-7.8,18.9C127.3,95.3,120.5,98.1,113.4,98.1 M113.4,47.1
		c-6.5,0-12.6,2.5-17.2,7.1c-4.6,4.6-7.1,10.7-7.1,17.2c0,6.5,2.5,12.6,7.1,17.2c4.6,4.6,10.7,7.1,17.2,7.1c6.5,0,12.6-2.5,17.2-7.1
		c4.6-4.6,7.1-10.7,7.1-17.2c0-6.5-2.5-12.6-7.1-17.2C126,49.6,119.9,47.1,113.4,47.1"/>
	<polygon class="st1" points="130.7,67 117.8,67 117.8,54.1 109,54.1 109,67 96.2,67 96.2,75.7 109,75.7 109,88.6 117.8,88.6 
		117.8,75.7 130.7,75.7 	"/>
	<polygon class="st2" points="15.7,36.2 210.1,42.1 210.1,34.2 15.7,34.2 	"/>
	<rect x="50.6" y="130.5" class="st1" width="128.1" height="66.6"/>
	<rect x="55.4" y="134.7" class="st3" width="118.6" height="15.3"/>
	<rect x="55.4" y="154.2" class="st3" width="34.7" height="42.7"/>
	<rect x="93.4" y="154.2" class="st3" width="42.7" height="42.7"/>
	<rect x="139" y="154.2" class="st3" width="35.1" height="42.7"/>
	<rect x="99" y="162.3" class="st1" width="31.9" height="34.6"/>
	<rect x="100.5" y="163.8" class="st0" width="28.9" height="33"/>
	<rect x="114.4" y="163.8" class="st1" width="1.1" height="33"/>
	<path class="st1" d="M111.8,180.4c0-0.4,0.3-0.7,0.7-0.7c0.4,0,0.7,0.3,0.7,0.7c0,0.4-0.3,0.7-0.7,0.7
		C112.1,181,111.8,180.7,111.8,180.4"/>
	<path class="st1" d="M116.7,180.4c0-0.4,0.3-0.7,0.7-0.7c0.4,0,0.7,0.3,0.7,0.7c0,0.4-0.3,0.7-0.7,0.7
		C117,181,116.7,180.7,116.7,180.4"/>
	<polygon class="st4" points="139,157.3 139.1,157.3 139,157.6 	"/>
	<rect x="12.7" y="103.9" class="st1" width="203.2" height="7.2"/>
</g>
</svg>
