<?xml version="1.0" encoding="utf-8"?>
<!-- Generator: Adobe Illustrator 22.1.0, SVG Export Plug-In . SVG Version: 6.00 Build 0)  -->
<svg version="1.1" id="Capa_1" xmlns="http://www.w3.org/2000/svg" xmlns:xlink="http://www.w3.org/1999/xlink" x="0px" y="0px"
	 viewBox="0 0 168 307.5" style="enable-background:new 0 0 168 307.5;" xml:space="preserve">
<style type="text/css">
	.st0{fill:#F6C914;}
	.st1{fill:#8FDFF4;}
	.st2{fill:#61B6D8;}
	.st3{fill:#6BC7DD;}
	.st4{fill:#F9E850;}
	.st5{fill:#FFFFFF;}
</style>
<g>
	<rect x="30.2" y="11.6" class="st0" width="103.2" height="268.7"/>
	<rect x="30.2" y="11.6" class="st1" width="103.2" height="268.6"/>
	<g>
		<polygon class="st2" points="42.5,141.4 30.2,116.3 30.2,116.3 30.2,164.4 30.3,164.6 		"/>
		<polygon class="st2" points="133.4,217.2 129.5,217.2 120.4,198.6 110.8,217.2 105.1,217.2 94.1,194.8 83.2,216.4 83.6,217.2 
			78.8,217.2 79.3,216.4 69,195.5 57.9,217.2 52.3,217.2 43.5,199.5 34,217.2 30.2,217.2 30.2,280.2 133.5,280.2 133.5,173.1 
			122.4,194.7 		"/>
		<polygon class="st2" points="30.2,172.6 30.2,216.9 41.6,195.6 		"/>
		<polygon class="st2" points="41.3,87.7 30.2,65.1 30.2,108.2 30.4,108.5 		"/>
		<polygon class="st2" points="30.2,15.6 30.2,56.9 40.7,36.9 		"/>
		<polygon class="st2" points="119.7,136.8 131.3,114.1 121.3,93.7 109.7,116.3 		"/>
		<polygon class="st2" points="55.9,67.7 45.3,87.7 57.6,112.7 68.2,92.6 		"/>
		<polygon class="st2" points="57.9,164.7 69,143.8 57.5,120.5 46.5,141.4 		"/>
		<polygon class="st2" points="81.6,119.8 70.1,96.5 59.5,116.6 71,139.9 		"/>
		<polygon class="st3" points="133.5,51.8 133.5,28.8 127.6,39.9 		"/>
		<polygon class="st2" points="112.7,68.3 121.4,86 133.5,62.6 133.5,59.8 125.6,43.8 		"/>
		<polygon class="st2" points="133.3,110.1 133.5,109.8 133.5,69.9 123.3,89.8 		"/>
		<polygon class="st2" points="121.6,140.6 133.5,164.7 133.5,118.5 133.2,117.8 		"/>
		<polyline class="st2" points="58.1,11.6 69.4,34.5 81.1,12.2 80.9,11.6 		"/>
		<polyline class="st2" points="32.3,11.6 42.8,33 54,11.6 		"/>
		<polygon class="st2" points="119.6,144.5 108.5,166.5 120.4,190.9 131.7,169 		"/>
		<polyline class="st2" points="85.4,11.6 85.1,12.2 97.4,37.1 110.9,11.4 		"/>
		<polygon class="st2" points="125.7,36 133.5,21.3 133.5,11.6 114.8,11.6 114.2,12.7 		"/>
		<polygon class="st2" points="55.6,116.6 43.3,91.6 32.3,112.4 44.6,137.5 		"/>
		<polygon class="st2" points="44.4,145.3 32.2,168.4 43.7,191.7 55.9,168.6 		"/>
		<polygon class="st2" points="94.9,94.4 83.5,71.1 72.1,92.7 83.6,116 		"/>
		<polygon class="st2" points="67.3,38.4 56,15.4 44.7,36.9 56,59.9 		"/>
		<polygon class="st3" points="54,63.8 42.6,40.8 32.1,60.8 43.4,83.8 		"/>
		<polygon class="st2" points="96.1,190.9 108,215.1 118.4,194.7 106.5,170.4 		"/>
		<polygon class="st2" points="94.4,146 84,166.3 94.2,187 104.6,166.6 		"/>
		<polygon class="st2" points="70.9,147.6 59.8,168.6 69.1,187.7 80.1,166.4 		"/>
		<polygon class="st2" points="71,191.6 81.2,212.4 92.2,190.9 82,170.2 		"/>
		<polygon class="st2" points="45.6,195.6 55.1,215 67.1,191.6 57.8,172.5 		"/>
		<polygon class="st2" points="98.9,94.4 107.8,112.5 119.4,89.9 110.7,72.1 		"/>
		<polygon class="st2" points="117.7,140.7 107.6,120.2 96.4,142.1 106.6,162.7 		"/>
		<polygon class="st2" points="97,90.6 108.7,68.2 97.3,44.9 85.5,67.2 		"/>
		<polygon class="st2" points="105.8,116.4 96.9,98.3 85.5,119.9 94.6,138.3 		"/>
		<polygon class="st2" points="92.6,142.2 83.5,123.7 72.9,143.8 82.1,162.5 		"/>
		<polygon class="st2" points="123.7,39.9 112.2,16.6 99.3,41 110.8,64.4 		"/>
		<polygon class="st2" points="95.3,41 83,16.1 71.3,38.4 83.6,63.3 		"/>
		<polygon class="st2" points="70.2,88.8 81.5,67.2 69.3,42.2 57.9,63.8 		"/>
		<polygon class="st4" points="30,217.2 30.2,217.2 30.2,216.9 		"/>
	</g>
	<rect x="30" y="215.9" class="st5" width="103.5" height="13.1"/>
	<rect x="82" y="238.1" class="st5" width="20.8" height="42.2"/>
	<rect x="104.6" y="238.1" class="st5" width="20.8" height="42.2"/>
	<g>
		<rect x="30.1" y="108.9" class="st5" width="29.7" height="8.2"/>
		<rect x="105.7" y="108.9" class="st5" width="27.7" height="8.2"/>
		<rect x="30.1" y="61.4" class="st5" width="28.6" height="8.2"/>
		<rect x="39.2" y="86.6" class="st5" width="8.6" height="8.2"/>
		<rect x="65.8" y="86.6" class="st5" width="8.6" height="8.2"/>
		<rect x="92.5" y="86.6" class="st5" width="8.6" height="8.2"/>
		<rect x="106.3" y="61.4" class="st5" width="8.7" height="8.2"/>
		<rect x="78.8" y="61.4" class="st5" width="8.7" height="8.2"/>
		<rect x="30.1" y="165.8" class="st5" width="29.4" height="7.4"/>
		<rect x="104.1" y="165.8" class="st5" width="29.4" height="7.4"/>
		<rect x="39.2" y="189.1" class="st5" width="8.6" height="8.2"/>
		<rect x="64.7" y="189.1" class="st5" width="8.7" height="8.2"/>
		<rect x="89.9" y="189.1" class="st5" width="8.6" height="8.2"/>
		<rect x="115.8" y="189.1" class="st5" width="8.6" height="8.2"/>
		<rect x="115.8" y="136.8" class="st5" width="8.6" height="8.2"/>
		<rect x="90.3" y="136.8" class="st5" width="8.6" height="8.2"/>
		<rect x="66.8" y="136.8" class="st5" width="8.7" height="8.2"/>
		<rect x="40.1" y="136.8" class="st5" width="8.7" height="8.2"/>
		<rect x="92.5" y="34.5" class="st5" width="38.4" height="8.2"/>
		<rect x="38.8" y="34.5" class="st5" width="8.6" height="8.2"/>
		<rect x="64.1" y="34.5" class="st5" width="8.6" height="8.2"/>
		<rect x="117" y="86.6" class="st5" width="8.6" height="8.2"/>
	</g>
</g>
</svg>
