<?xml version="1.0" encoding="utf-8"?>
<!-- Generator: Adobe Illustrator 22.1.0, SVG Export Plug-In . SVG Version: 6.00 Build 0)  -->
<svg version="1.1" id="Layer_1" xmlns="http://www.w3.org/2000/svg" xmlns:xlink="http://www.w3.org/1999/xlink" x="0px" y="0px"
	 viewBox="0 0 226.8 226.8" style="enable-background:new 0 0 226.8 226.8;" xml:space="preserve">
<style type="text/css">
	.st0{fill:#4B85A8;}
	.st1{fill:#8FDFF4;}
	.st2{fill:#49A2BC;}
	.st3{fill:#DCDCDC;}
	.st4{fill:none;stroke:#FAFEFF;stroke-width:0.5;stroke-miterlimit:10;}
	.st5{fill:none;stroke:#FAFEFF;stroke-width:0.25;stroke-miterlimit:10;}
	.st6{fill:#418099;}
	.st7{fill:#509EC3;}
</style>
<g>
	<g>
		
			<rect x="127.9" y="53.9" transform="matrix(0.8013 -0.5983 0.5983 0.8013 -3.8004 112.8935)" class="st0" width="80.4" height="16.5"/>
		
			<rect x="118.4" y="41.8" transform="matrix(0.8013 -0.5983 0.5983 0.8013 1.9284 104.6748)" class="st1" width="80.4" height="15.3"/>
	</g>
	<path class="st2" d="M190,118.7v-10.2c0-47.9-38.8-86.7-86.7-86.7v96.9H190z"/>
	<g>
		<rect x="25.8" y="123.9" class="st1" width="77.5" height="83.9"/>
		<rect x="103.3" y="123.9" class="st0" width="77.5" height="83.9"/>
	</g>
	<g>
		<line class="st3" x1="25.8" y1="207.9" x2="25.8" y2="134.3"/>
	</g>
	<rect x="13.5" y="205.1" class="st2" width="184.5" height="9"/>
	<path class="st1" d="M25.8,107.5v26.8h77.5V30C60.5,30,25.8,64.7,25.8,107.5z"/>
	<path class="st0" d="M180.8,107.5c0-42.8-34.7-77.5-77.5-77.5v104.3h77.5V107.5z"/>
	<g>
		<rect x="35.5" y="171.1" class="st4" width="10.2" height="34"/>
		<rect x="45.6" y="171.1" class="st4" width="10.2" height="34"/>
	</g>
	<g>
		<g>
			<rect x="158.9" y="140.7" class="st5" width="7.1" height="7.4"/>
			<rect x="166" y="140.7" class="st5" width="7.1" height="7.4"/>
		</g>
		<g>
			<rect x="111" y="140.7" class="st5" width="7.1" height="7.4"/>
			<rect x="118.1" y="140.7" class="st5" width="7.1" height="7.4"/>
		</g>
		<g>
			<rect x="135" y="140.7" class="st5" width="7.1" height="7.4"/>
			<rect x="142" y="140.7" class="st5" width="7.1" height="7.4"/>
		</g>
	</g>
	<g>
		<rect x="19.6" y="121.5" class="st6" width="166.4" height="6.4"/>
		<rect x="19.6" y="127.9" class="st7" width="166.4" height="6.4"/>
	</g>
	<g>
		
			<rect x="195.4" y="28.3" transform="matrix(0.8013 -0.5983 0.5983 0.8013 17.8966 128.4748)" class="st2" width="13.9" height="17.9"/>
		
			<rect x="185.1" y="15.2" transform="matrix(0.8013 -0.5983 0.5983 0.8013 24.1158 119.5521)" class="st2" width="13.9" height="16.6"/>
	</g>
</g>
</svg>
