<?xml version="1.0" encoding="UTF-8"?>
<svg id="Capa_1" data-name="Capa 1" xmlns="http://www.w3.org/2000/svg" xmlns:xlink="http://www.w3.org/1999/xlink" viewBox="0 0 310.5 308">
  <defs>
    <style>
      .cls-1 {
        fill: #fff;
      }

      .cls-1, .cls-2, .cls-3, .cls-4, .cls-5 {
        fill-rule: evenodd;
      }

      .cls-6 {
        clip-path: url(#clippath);
      }

      .cls-2 {
        fill: #1c3076;
      }

      .cls-7 {
        fill: none;
      }

      .cls-3 {
        fill: #0b379b;
      }

      .cls-8 {
        fill: #4100f4;
        font-family: OpenSans-ExtraboldItalic, 'Open Sans';
        font-size: 36.37px;
        font-weight: 700;
      }

      .cls-9 {
        fill: #ffa42b;
      }

      .cls-4 {
        fill: #141414;
      }

      .cls-5 {
        fill: rgba(255, 255, 255, .8);
      }
    </style>
    <clipPath id="clippath">
      <circle class="cls-7" cx="154.93" cy="158.33" r="146.68"/>
    </clipPath>
  </defs>
  <g>
    <circle class="cls-9" cx="154.93" cy="158" r="147.71"/>
    <g class="cls-6">
      <g id="Master_Character_Sitting" data-name="Master/Character/Sitting">
        <g id="Lower_Body_Sit" data-name="Lower Body Sit">
          <g id="Lower_Body_Sit_Sitting" data-name="Lower Body Sit/Sitting">
            <g id="Sitting">
              <g id="Pant_2" data-name="Pant 2">
                <path id="Fill_25" data-name="Fill 25" class="cls-4" d="M235.44,306.14h-44.73c-11.85,0,30.28,52.99,30.28,52.99,.2,4.9,.77,93.36,.77,93.36,28.69,5.9,52.02,7.59,71.69,4.46,0,0-10.31-76.72-18.85-120.78-4.42-22.82-23.21-30.02-39.16-30.02"/>
              </g>
              <g id="Pant_1" data-name="Pant 1">
                <path id="Fill_1" data-name="Fill 1" class="cls-3" d="M205.16,306.14H114.78s-9.14,32.59,9.43,50.42c17.12,16.43,56.24,10.55,64.43,9.1l1.35-8.46c.07-.43,.47-.72,.89-.65,.43,.07,.72,.47,.65,.89l-1.39,8.73c-.65,10.12-12.87,93.33-12.87,93.33,23.34,6.85,53.42,7.49,69.05,4.46,0,0,.29-78.13-2.85-126.21-1.35-20.7-17.8-31.61-38.31-31.61Z"/>
                <g id="Combined_Shape_2" data-name="Combined Shape_2">
                  <path class="cls-5" d="M129.75,310.96c-.16-1.37-.17-2.24-.17-2.25,0-.43-.35-.77-.78-.77h0c-.43,0-.78,.36-.77,.79,0,.04,.01,.96,.19,2.41,.05,.4,.38,.69,.77,.69,.03,0,.06,0,.09,0,.43-.05,.73-.44,.68-.87Zm71.85,121.11c-.43-.03-.8,.29-.84,.72-.12,1.6-.24,3.16-.36,4.67-.03,.43,.29,.8,.72,.84,.02,0,.04,0,.06,0,.4,0,.75-.31,.78-.72,.12-1.52,.23-3.08,.36-4.67,.03-.43-.29-.8-.72-.84Zm-2.29,19.41c.03-.43,.41-.75,.84-.72,.43,.03,.75,.41,.72,.84-.14,1.73-.26,3.3-.38,4.68-.03,.41-.37,.72-.78,.72-.01,0-.02,0-.03,0h-.01s0,0,0,0c0,0,0,0-.01,0-.43-.03-.75-.41-.71-.84,.11-1.38,.24-2.95,.38-4.67Zm1.58-10.07c-.43-.03-.8,.29-.84,.72-.13,1.63-.25,3.19-.37,4.67-.03,.43,.29,.81,.72,.84,0,0,.01,0,.02,0,0,0,.02,0,.03,0h.01c.4,0,.74-.31,.78-.72,.12-1.48,.24-3.05,.37-4.68,.03-.43-.29-.8-.72-.84Zm1.89-36.67c.03-.43,.39-.76,.83-.73,.43,.03,.76,.4,.73,.83-.1,1.56-.21,3.12-.32,4.68-.03,.41-.37,.73-.78,.73-.02,0-.04,0-.05,0-.43-.03-.75-.4-.72-.83,.11-1.56,.21-3.12,.32-4.68Zm-3.18-57.06c.28,0,.56-.16,.7-.43,.2-.38,.04-.85-.34-1.05-1.25-.64-2.71-1.3-4.33-1.96-.4-.16-.85,.03-1.02,.43-.16,.4,.03,.85,.42,1.02,1.58,.65,3,1.29,4.21,1.91,.11,.06,.23,.09,.35,.09Zm1.86,75.76c.03-.43,.4-.75,.84-.72,.43,.03,.75,.41,.72,.84-.12,1.58-.23,3.14-.35,4.68-.03,.41-.37,.72-.78,.72,0,0-.02,0-.03,0h0s-.01,0-.02,0c-.43-.03-.75-.41-.72-.84,.11-1.53,.23-3.09,.34-4.67Zm1.5-10.07c-.42-.02-.8,.29-.83,.72-.11,1.57-.22,3.13-.33,4.67-.03,.43,.29,.8,.72,.83,0,0,.02,0,.03,0,0,0,0,0,.01,0s0,0,.01,0c.41,0,.75-.31,.78-.72,.11-1.55,.22-3.11,.33-4.68,.03-.43-.29-.8-.72-.83Zm-61.44-84.66c1.06,.36,2.52,.79,4.45,1.32,.42,.11,.66,.54,.55,.96-.09,.35-.41,.58-.75,.58-.07,0-.14,0-.21-.03-1.97-.54-3.46-.98-4.55-1.35-.41-.14-.63-.58-.49-.99,.14-.41,.58-.63,.99-.49Zm-10.92-13.27c-.11-.42-.54-.66-.95-.55-.42,.11-.66,.54-.55,.95,.43,1.61,.97,3.14,1.6,4.53,.13,.29,.41,.46,.71,.46,.11,0,.22-.02,.32-.07,.39-.18,.56-.64,.39-1.03-.6-1.31-1.11-2.76-1.51-4.28Zm19.9,15.79c1.43,.37,2.95,.75,4.54,1.15,.42,.11,.67,.53,.57,.95-.09,.35-.41,.59-.76,.59-.06,0-.13,0-.19-.02-1.6-.4-3.12-.79-4.55-1.15-.42-.11-.67-.53-.56-.95,.11-.42,.53-.67,.95-.56Zm53.7,63.44c-.42-.03-.8,.3-.83,.73-.1,1.55-.2,3.11-.3,4.68-.03,.43,.3,.8,.73,.83,.02,0,.03,0,.05,0,.41,0,.75-.32,.78-.73,.1-1.57,.2-3.13,.3-4.68,.03-.43-.3-.8-.73-.83Zm-17.45-53.63c1.58,.51,3.08,1.02,4.46,1.52,.41,.15,.62,.59,.47,1-.11,.32-.41,.52-.73,.52-.09,0-.18-.01-.26-.05-1.36-.49-2.85-.99-4.42-1.5-.41-.13-.63-.57-.5-.98,.13-.41,.57-.63,.98-.5Zm-4.49-1.4c-1.42-.43-2.94-.87-4.51-1.32-.42-.12-.85,.12-.96,.54-.12,.41,.12,.85,.54,.96,1.56,.44,3.07,.89,4.49,1.31,.07,.02,.15,.03,.23,.03,.34,0,.64-.22,.75-.56,.12-.41-.11-.85-.52-.97Zm-13.57-3.78c1.5,.39,3.02,.8,4.53,1.21,.42,.11,.66,.54,.55,.96-.09,.35-.41,.58-.75,.58-.07,0-.14,0-.2-.03-1.51-.41-3.02-.81-4.52-1.21-.42-.11-.67-.54-.56-.95,.11-.42,.53-.67,.95-.56Zm-4.54-1.18c-1.55-.4-3.07-.78-4.55-1.15-.42-.11-.84,.15-.95,.57-.11,.42,.15,.84,.57,.95,1.48,.37,3,.76,4.54,1.15,.06,.02,.13,.02,.19,.02,.35,0,.67-.23,.76-.59,.11-.42-.15-.84-.56-.95Zm40.36,16.67c-.33-.43-.8-.9-1.41-1.38-.34-.27-.39-.76-.13-1.1,.27-.34,.76-.39,1.1-.13,.71,.56,1.28,1.13,1.7,1.68,.23,.32,.48,.89,.64,2.82,.03,.43-.29,.81-.72,.84-.02,0-.04,0-.06,0-.4,0-.74-.31-.78-.72-.13-1.64-.32-1.99-.34-2.02Zm1.27,5.86h0c-.43,0-.78,.35-.78,.78v.63c0,1.19-.01,2.55-.04,4.04,0,.43,.33,.79,.76,.8h.02c.42,0,.77-.34,.78-.76,.03-1.5,.04-2.87,.04-4.07v-.64c0-.43-.35-.78-.78-.78Zm-.95,10.13c.01-.43,.38-.77,.81-.75,.43,.01,.77,.38,.75,.81-.05,1.49-.11,3.06-.18,4.69-.02,.42-.36,.75-.78,.75h0s0,0,0,0h-.01s0,0,0,0c-.43-.02-.76-.38-.75-.81,.07-1.63,.13-3.19,.18-4.68Zm-.06,17.98c-.43-.02-.8,.3-.82,.73-.09,1.54-.18,3.1-.27,4.68-.03,.43,.3,.8,.73,.83,.02,0,.03,0,.05,0,.41,0,.75-.32,.78-.73,.09-1.58,.19-3.14,.27-4.68,.02-.43-.3-.8-.73-.82Zm-.33-8.62c.02-.43,.39-.76,.82-.74,.43,.02,.76,.39,.74,.82-.07,1.52-.15,3.09-.24,4.68-.02,.42-.37,.74-.78,.74-.01,0-.03,0-.04,0-.43-.02-.76-.39-.74-.82,.08-1.6,.16-3.16,.24-4.68Zm-5.02,83.13c-.43-.04-.81,.28-.84,.71l-.19,2.33c-.04,.43,.28,.81,.71,.84,.02,0,.04,0,.07,0,.4,0,.74-.31,.78-.72l.19-2.33c.04-.43-.28-.81-.71-.84Zm-55.47-151.2c.02,.15,.46,3.76-.26,7.79-.88,4.96-3.16,8.35-6.62,9.91,.04,.04,.09,.07,.13,.11,.12,.1,.24,.19,.36,.28,.35,.25,.43,.74,.17,1.09-.15,.21-.39,.32-.63,.32-.16,0-.32-.05-.46-.15-1.29-.93-2.46-2.09-3.48-3.43-.26-.34-.2-.83,.15-1.09s.83-.2,1.09,.15c.43,.56,.89,1.08,1.37,1.56,8.21-2.91,6.64-16.2,6.63-16.34-.05-.43,.25-.82,.68-.87,.43-.05,.82,.25,.87,.68Z"/>
                </g>
              </g>
            </g>
          </g>
        </g>
        <g id="Upper_Body" data-name="Upper Body">
          <g id="Upper_Body_Arms_Up" data-name="Upper Body/Arms Up">
            <g id="Hand_2" data-name="Hand 2">
              <path id="Fill_1-2" data-name="Fill 1" class="cls-1" d="M272.93,141.77c3.79-6.1,.86-7.56-1.24-6.28,0,0,3.65-4.49,1.85-6.43-1.12-1.21-2.3-1.04-5.31,1.7,0,0,3.42-5.03,1.47-6.97-1.81-1.8-4.3,1.54-6.49,4.1,0,0,2.02-6.27-1.42-6.55-3.4-.27-8.27,9.71-10.32,13.83,.69-5.02-2.26-9.72-3.9-7.54-2.03,2.69-10.21,28.78-22.6,51.18-15.75,25.6-35.25,23.55-35.25,23.55l10.47,34.69s3.07,1.68,15.07-5.02c21.74-12.14,34.39-37.25,40-51.13,.52-.31,.84-.61,.91-.9,.48-1.97,1.02-3.91,1.6-5.81,.58-1.71,.9-2.77,.97-3.01,4.44-13.11,10.75-23.87,14.18-29.4"/>
              <path id="Fill_3" data-name="Fill 3" class="cls-4" d="M273.54,133.09c1.01-1.69,2.06-4.2,.6-5.77-1.07-1.16-2.2-1.24-3.52-.57,2.04-5.3-2.57-7.47-6.02-2.92,.2-2-.46-4.34-2.75-4.48-2.98-.24-6.33,4.97-9.6,11.25-.56-3.42-2.72-7.26-5.36-4.64-5.02,11.45-11.96,31.63-21.22,48.7-.07,.13-.41,.83-.5,.99-7.45,12.73-15.78,18.77-21.84,21.64-3.57,1.68-6.74,2.47-9.11,2.82l.47,1.62c2.45-.39,5.63-1.2,9.24-2.89,12.97-6.07,21.26-18.75,26.03-28.66,.14-.3,.77-1.82,.9-2.1,7.39-15.17,13.25-31.29,17.37-41.12,1.21-.91,2.95,3.56,2.42,6.93-.08,.91-.05,1.79,.2,2.68,.15,.85,.96,1.44,1.59,2.02,2.36,2.17,1.52,6.11,1.46,6.34-.06,.24-.06,.4-.15,.58-.25,.48,.43,.85,.7,.4,1.73-2.97,.32-6.85-1.75-9.28-.36-.69-.47-1.78-.34-2.56,1.63-3.29,6.6-13.29,9.36-13.07,2.06,.37,1.1,3.74,.72,5.38l-4.1,6.58c-.19,.3-.09,.69,.2,.87,.29,.18,.66,.1,.86-.18,0,0,4.46-6.42,4.46-6.42,1.5-1.53,3.7-5.14,5.25-4.02,1.78,2.84-4.63,10-5.94,12.67-.46,.68,.6,1.4,1.07,.73l4.61-6.46c3.06-2.79,3.58-2.23,4.07-1.69,.99,1.07-.85,4.06-1.89,5.35,0,0-3.59,4.52-3.59,4.53-.47,.57,.4,1.32,.9,.78l3.85-4.11c2.42-1.06,2.28,1.46,.03,5.18-2.26,2.41-12.42,23.16-15.07,32.13-.18,.63-1.13,3.14-1.35,3.72-1.65,4.4-4.26,10.69-7.93,17.54-11.48,21.4-24.29,31.7-33.02,36.58-4.97,2.78-8.35,4.07-10.57,4.65l.46,1.6c2.91-.77,6.57-2.38,10.91-4.8,16.18-9.03,27.25-25.26,33.69-37.27,3.51-6.54,6.06-12.58,7.73-16.98,.11-.3,2.36-6.79,2.44-7.06,3.21-9.5,7.94-19.3,14.1-29.22,3.01-5.14,2.33-7.22-.09-7.94"/>
            </g>
            <g id="Hand_1" data-name="Hand 1">
              <path id="Fill_5" data-name="Fill 5" class="cls-1" d="M123.37,203.94c-15.9-2.94-30.11-12.55-39.32-34.4l-.09-.02c-8.43-21.87-13.11-44.51-14.71-47.15-1.41-2.34-4.83,2.04-4.66,7.1-1.61-4.31-5.42-14.74-8.83-14.82-3.44-.08-2.09,6.37-2.09,6.37-1.91-2.77-4.05-6.35-6.03-4.76-2.14,1.72,.74,7.08,.74,7.08-2.7-3.04-3.86-3.34-5.1-2.24-1.99,1.75,1.18,6.59,1.18,6.59-1.96-1.5-5.03-.35-1.89,6.12,3.46,7.13,10.35,22.39,12.7,39.75,.05,.35,.45,.77,1.15,1.22,11.39,39.22,36.35,55.68,56.7,63.91l10.26-34.75Z"/>
              <path id="Fill_7" data-name="Fill 7" class="cls-4" d="M113.36,236.7c-23.21-9.43-49.8-28.38-58.8-73.59-.04-.2-.32-1.13-.42-1.58-2.84-10.49-9.11-27-10.82-29.25-1.85-3.93-1.74-6.45,.56-5.15l3.4,4.49c.44,.6,1.38-.06,.98-.68,0,0-3.1-4.87-3.1-4.87-.9-1.39-2.42-4.56-1.32-5.51,.55-.48,1.12-.98,3.88,2.11l3.92,6.9c.4,.72,1.52,.11,1.14-.61-1.03-2.79-6.66-10.57-4.6-13.22,1.66-.96,3.47,2.87,4.81,4.55,0,0,3.77,6.85,3.77,6.85,.16,.29,.53,.41,.83,.26,.31-.15,.45-.53,.29-.85l-3.4-6.97c-.21-1.67-.81-5.12,1.28-5.27,2.77,.06,6.67,10.53,7.96,13.97,.05,.79-.17,1.86-.6,2.51-2.3,2.2-4.11,5.91-2.7,9.05,.23,.48,1,.16,.8-.34-.07-.19-.19-.38-.16-.57,.04-.23-.46-4.24,2.11-6.16,.68-.51,1.55-1.02,1.79-1.85,.34-.86,.46-1.73,.47-2.65-.18-3.41,2.02-7.67,3.12-6.64,3.59,11.9,8.24,31.42,15.63,49.37,.1,.26,.64,1.3,.88,1.74,5.61,11.61,13.17,20.02,22.5,25.27,4.74,2.67,9.91,4.51,15.59,5.57l.47-1.61c-17.83-3.24-30.62-14.36-38.82-33.81-.05-.12-.11-.22-.19-.41-6.6-17.02-11.09-35.9-14.63-46.97-2.35-2.88-4.9,.72-5.81,4.06-2.59-6.59-5.38-12.12-8.38-12.19-2.29-.09-3.18,2.16-3.2,4.17-2.96-4.88-7.77-3.2-6.29,2.28-1.24-.8-2.38-.84-3.56,.2-1.61,1.41-.83,4.01,0,5.8-2.48,.47-3.38,2.47-.91,7.89,5.71,11.76,8.94,21.37,11.68,33.1,.21,.89,.76,2.65,1.09,4.01,5.42,22.24,15.53,38.43,29.78,50.98,9.42,8.3,19.62,13.63,28.51,17.22l.48-1.61Z"/>
            </g>
            <path id="T_Shirt" data-name="T Shirt" class="cls-2" d="M197.67,231.67c-.1-.45,.18-.89,.62-.99,.45-.1,.89,.18,.99,.62l2.43,10.56c14.38-3.51,16.94-9.53,16.94-9.53,0,0-2.36-19.04-12.12-37.38-25.75,2.34-32.77-1.17-36.67-1.17-7.8-2.73-23.02-1.88-31.6,.78-11.31,3.51-12.87,4.29-25.96,2.71-1.55,6.46-9.88,23.14-17.59,36.38,5.32,3.43,10.15,5.08,19.87,7.7l.54-8.18c.03-.46,.43-.8,.88-.77,.46,.03,.8,.43,.77,.88l-.7,10.57s0,.03,0,.04c-.75,30.11-1.74,65.06-1.74,65.06l99.88-1.56s-10.57-44.11-13.88-64.11c0,0,0,0,0-.01l-2.67-11.61Z"/>
            <g id="neck">
              <path id="Fill_30" data-name="Fill 30" class="cls-1" d="M147.46,182.72l-1.47,13.72s2.9,6.28,11.79,6.71c11.99,.58,9.48-6.85,9.48-6.85l-.33-12.39"/>
              <path id="Fill_32" data-name="Fill 32" class="cls-4" d="M157.74,203.93c-9.25-.45-12.33-6.89-12.46-7.16-.06-.13-.08-.27-.07-.41l1.47-13.72c.05-.43,.43-.74,.86-.69,.43,.05,.74,.43,.69,.86l-1.44,13.49c.54,1,3.48,5.71,11.02,6.08,4,.19,7.46-.52,8.53-2.07,1.1-1.59,.21-3.67,.2-3.69-.04-.09-.06-.19-.07-.29l-.33-12.39c-.01-.43,.33-.79,.76-.8,.43-.02,.79,.33,.8,.76l.33,12.25c.24,.63,.99,3.01-.4,5.04-1.27,1.85-4.67,2.78-8.58,2.78-.42,0-.86-.01-1.32-.03Z"/>
            </g>
          </g>
        </g>
        <g id="Head">
          <g id="Head_Short_Hair_4" data-name="Head/Short Hair 4">
            <g id="Short_Hair" data-name="Short Hair">
              <path id="SKIN" class="cls-1" d="M179.11,153.29c-2.84-17.38-11.33-17.89-27.18-16.7-7.44,.56-16.73,7.3-15.9,19.51-4.35-1.67-6.79,1.08-6.64,4.35,.13,2.94,1.46,6.82,6.87,6.82,.52,8.97,6.38,23.42,24.77,23.42s20.54-22.34,18.08-37.41"/>
              <path id="hair" class="cls-4" d="M173.44,184.56c-7.82,9.35-25.59,5.57-31.55-3.58-3.18-3.85-4.82-11.16-4.84-13.76,0-.41-.37-.73-.78-.73-5.84,.35-7.78-6.84-4.67-9.52,1.46-1.1,3.47-.73,4.96,.12,.22,.13,6.13-.36,9.9-11.68,7.36,4.28,21.15,6.38,30.72,2.82,3.04,11.26,3.37,27.72-3.74,36.33m18.18-55.03c-1.5-9.38-12.55-10.54-21.15-6.55-7.77-9.19-28.94-6.01-32.58,7.02-2.93-.57-6.04,.12-8.82,1.98-15.29,10.95-4.92,33.92,1.51,37.08,1.66,5.3,3.77,8.37,7.99,9.44,4.05,11.01,25.99,19.14,36.07,7.08,7.6-9.2,7.23-26.1,3.98-37.94,7.4-3.64,13.89-10.28,13.01-18.1m-57.71,29.95c-1.15-.04-1.15,3.17,0,3.13,1.15,.04,1.15-3.17,0-3.13"/>
            </g>
          </g>
        </g>
        <g id="Face">
          <g id="Face_Happy" data-name="Face/Happy">
            <path id="Happy" class="cls-4" d="M153.97,159.11c-.12,0-.32-.02-.5-.03-.14,0-.28,0-.42,0-.04,0-.09,0-.13,0-.37,.02-.74,.04-1.11,.1-.74,.12-1.48,.28-2.18,.58-.7,.29-1.4,.61-2.02,1.06-.61,.38-1.15,.86-1.71,1.36l-.13,.11-.04,.03c-.2,.18-.52,.16-.7-.04-.15-.18-.16-.43-.03-.61,.05-.07,.1-.14,.15-.21,.2-.29,.4-.57,.63-.84,.07-.08,.14-.16,.21-.23h0c.22-.25,.45-.5,.71-.72,.66-.6,1.41-1.1,2.22-1.51,.81-.4,1.67-.7,2.56-.87,.45-.09,.9-.14,1.35-.17,.03,0,.07,0,.1,0,.2,0,.39-.01,.59,0,.24,0,.45,.02,.74,.06,.53,.07,.91,.57,.83,1.1-.07,.51-.53,.88-1.04,.84h-.09Zm18.3,5.89h0c.06,.05,.12,.09,.17,.13l.12,.09c.17,.12,.39,.14,.59,.05,.3-.14,.43-.5,.29-.8-.14-.31-.29-.52-.48-.76-.18-.23-.4-.43-.63-.61-.47-.36-1.04-.62-1.66-.74-.61-.12-1.28-.08-1.88,.14-.6,.2-1.11,.57-1.51,.98-.24,.25-.3,.65-.1,.96,.23,.37,.71,.48,1.07,.25l.04-.03c.35-.22,.69-.39,1.03-.48,.34-.1,.68-.11,1.04-.06,.35,.06,.72,.17,1.06,.35,.18,.09,.35,.19,.52,.31,.1,.07,.22,.15,.32,.22Zm-23.33-.42c-.23,.28-.41,.54-.59,.9-.11,.22-.06,.49,.14,.66,.23,.19,.57,.16,.76-.07l.04-.05c.15-.18,.35-.4,.56-.57,.21-.18,.42-.34,.65-.47,.46-.26,.93-.4,1.41-.41,.12,0,.24,0,.36,.02,.05,0,.1,.01,.14,.02,.08,0,.16,.02,.24,.03,.25,.04,.48,.12,.7,.21,.22,.09,.4,.2,.57,.34l.03,.02c.07,.06,.14,.12,.19,.19,.03,.03,.06,.07,.08,.1h0s.03,.06,.03,.06c0,0,0,0,.01,.01,0,0,0,.01,0,0,.2,.45,.72,.65,1.17,.45,.45-.2,.65-.72,.45-1.17-.04-.09-.06-.13-.09-.18h0v-.02s-.06-.08-.09-.12h0s0-.01,0-.01v-.02c-.07-.09-.14-.18-.21-.26-.14-.16-.29-.31-.45-.44-.32-.25-.68-.45-1.05-.59-.37-.13-.74-.22-1.11-.25-.13-.02-.25-.02-.37-.03-.06,0-.12,0-.18,0-.19,0-.38,.01-.57,.04-.76,.1-1.49,.42-2.06,.87-.29,.22-.54,.47-.77,.75Zm18.33-7.19c-.23,.05-.42,.11-.69,.2-.46,.16-.72,.65-.59,1.13,.14,.49,.65,.78,1.14,.64l.07-.02c.12-.03,.31-.08,.48-.12,.17-.04,.35-.07,.53-.1l.54-.07,.54-.03c.72-.02,1.45,.04,2.15,.2,.7,.16,1.39,.41,2.03,.76,.61,.29,1.15,.7,1.71,1.13h0c.05,.04,.1,.08,.16,.12l.04,.03c.19,.14,.45,.15,.65,0,.23-.18,.28-.52,.09-.75-.13-.17-.27-.33-.41-.5-.04-.04-.08-.09-.11-.14h0c-.1-.12-.2-.24-.32-.34-.07-.06-.13-.12-.2-.18-.25-.23-.51-.47-.81-.66-.71-.53-1.53-.9-2.39-1.15-.85-.26-1.74-.39-2.63-.38-.44,0-.89,.03-1.33,.1-.22,.04-.44,.07-.66,.13Zm-4.87,7.35c.05,.85,.15,1.7,.37,2.43,.06,.18,.12,.35,.2,.49,.07,.14,.16,.25,.21,.27,.1,.07,.29,.2,.47,.31,.18,.12,.38,.24,.58,.39,.39,.29,.83,.66,1.11,1.27,.13,.31,.21,.63,.18,1.03-.03,.39-.22,.77-.43,1.01-.44,.5-.92,.72-1.36,.91-.45,.18-.89,.31-1.32,.41-.33,.07-.66-.13-.73-.46-.06-.28,.08-.56,.32-.68h0c.13-.06,.25-.12,.38-.18h0c.26-.12,.51-.24,.74-.37,.34-.18,.65-.41,.77-.58,.06-.09,.07-.13,.07-.18h0s-.02-.15-.06-.25c-.08-.2-.31-.44-.61-.68-.15-.12-.31-.24-.49-.37-.05-.03-.09-.07-.14-.1-.14-.1-.28-.2-.46-.36-.28-.27-.41-.55-.52-.8-.11-.26-.16-.51-.21-.76-.16-.98-.07-1.91,.12-2.8,.05-.22,.26-.36,.48-.31,.18,.04,.31,.2,.32,.37h0Zm-6.04,13.59c2.01,1.14,10.3,.93,12.93-.74,.23-.79-.06-1.16-.06-1.16,0,0-7.77,1.14-12.86,.53,0,0-.17,1.03,0,1.36Zm13.13-3.15c.55-.11,1.06,.08,1.36,.52,1.2,2.75-2.61,7.24-8.07,7.21-3.63,.19-8.04-2.02-8.23-4.52-.17-1.08,.8-2.93,2.3-2.66,1.07,.19,3.62,.26,6.11,.18,3.26-.11,6.37-.69,6.52-.72,0,0,0,0,0,0Z"/>
          </g>
        </g>
        <g id="Facial_Hair" data-name="Facial Hair">
          <g id="Facial_Hair_Moustache" data-name="Facial Hair/Moustache">
            <path id="Moustache" class="cls-4" d="M162.59,177.79s4.18,1.03,9.03,1.33c4.41,.27,2.32-2.58,2.32-2.58,0,0-2.43-3.48-6.61-4.13-2.67-.42-3.76,1.15-4.62,1.16-.77,.01-3.9-2.57-9.15,.22-3.01,1.6-5.22,4.63-4.67,5.91,.55,1.3,13.7-1.91,13.7-1.91Z"/>
          </g>
        </g>
      </g>
    </g>
  </g>
  <text class="cls-8" transform="translate(74.73 74.58)"><tspan x="0" y="0">Sí, apoyo</tspan></text>
</svg>