<?xml version="1.0" encoding="UTF-8"?>
<svg id="Capa_1" data-name="Capa 1" xmlns="http://www.w3.org/2000/svg" viewBox="0 0 407.5 456">
  <defs>
    <style>
      .cls-1 {
        fill: #fff;
      }

      .cls-1, .cls-2, .cls-3, .cls-4, .cls-5, .cls-6, .cls-7, .cls-8 {
        fill-rule: evenodd;
      }

      .cls-2 {
        fill: #ffc81a;
      }

      .cls-3 {
        fill: #13d6c3;
      }

      .cls-4 {
        fill: #ff7439;
      }

      .cls-5 {
        fill: #ffa42b;
      }

      .cls-6 {
        fill: #0b379b;
      }

      .cls-7 {
        fill: #141414;
      }

      .cls-8 {
        fill: #b28b67;
      }
    </style>
  </defs>
  <g id="Master_Character_Sitting_on_Floor" data-name="Master/Character/Sitting on Floor">
    <g id="Upper_Body" data-name="Upper Body">
      <g id="Upper_Body_On_Macbook" data-name="Upper Body/On Macbook">
        <g id="T_Shirt" data-name="T Shirt">
          <path id="Fill_1" data-name="Fill 1" class="cls-4" d="M86.67,234.35c0,.22,0,.44,.01,.66,.04,3.79-.2,9.86-.61,17.14-6-.04-11.56-.45-14.34-1.65,3.45-4.84,9.14-10.69,14.94-16.15Zm162.61,88.68c-.76-62.42,1.88-129.4-23.61-170.28-28.21-45.24-117.12-37.44-148.54-10.53-15.63,10.86-39.5,31.54-60.14,66.65-15.28,25.99-24.69,76.41-1.47,92.68,20.49,10.19,47.39,11.98,67.79,10.89-.4,4.06-.77,7.66-1.1,10.58H249.29Z"/>
          <path id="Fill_3" data-name="Fill 3" class="cls-7" d="M74.05,249.77c2.9-3.73,6.93-7.96,11.21-12.1-.05,3.4-.24,7.88-.52,13.05-4.27-.07-8.11-.34-10.69-.95Zm10.4,71.86c.25-2.29,.53-4.93,.81-7.82,18.01-1.12,28.57-4.35,29.7-4.63,.68-.17,1.13-.81,1.06-1.51l-5.54-56.71c-.08-.78-.76-1.35-1.54-1.27-4.48,.42-13.32,1.04-21.37,1.06,.36-6.64,.56-12.17,.53-15.74v-.04c9.63-9.03,19.47-16.93,19.63-17.06,.61-.49,.7-1.38,.22-1.99-.49-.61-1.38-.71-1.99-.22-.6,.49-9.06,7.27-17.93,15.44-.93,.85-1.86,1.72-2.79,2.6-5.38,5.11-10.63,10.52-14.09,15.17-7.22-1.89-12.86-5.68-12.93-5.72-.64-.44-1.52-.27-1.96,.38-.44,.64-.27,1.52,.38,1.96,.28,.19,6.55,4.41,14.66,6.33,2.74,1.13,7.76,1.59,13.28,1.7,.93,.01,1.87,.02,2.83,.02,8.31-.01,17.03-.68,20.39-.96l5.29,54.1c-7.42,1.77-15.43,3.5-27.54,4.21-.94,.05-1.89,.11-2.86,.15-20.46,.92-47.14-1.16-66.44-10.73-13.34-9.43-13.88-29.96-13.02-41.36,1.29-16.93,7.03-35.85,14.98-49.37,16.29-27.72,34.73-46.43,49.41-58.36,3.6-2.94,6.98-5.46,10.05-7.6,4.63-4.04,10.64-7.69,17.62-10.78,16.03-7.13,37.16-11.39,58.3-11,32.89,.6,58.73,12.14,70.89,31.64,22.52,36.11,22.88,93.59,23.23,149.18,.03,6.22,.07,12.64,.15,18.93H84.46ZM226.88,152.02c-12.68-20.34-39.38-32.35-73.24-32.97-17.38-.32-35.46,2.46-50.89,7.82-10.8,3.76-19.82,8.62-26.34,14.14-2.75,1.92-5.77,4.14-8.99,6.7-13.77,10.94-33.92,30.31-51.65,60.46-16.17,27.52-24.64,78.03-1.06,94.55,.06,.04,.12,.07,.19,.11,17.66,8.78,37.98,11.35,55.68,11.35,3.15,0,8.88-.08,11.83-.23-.33,3.39-.65,6.41-.94,8.93-.05,.4,.08,.8,.35,1.1,.27,.3,.65,.47,1.05,.47H249.29c.38,0,.74-.15,1.01-.42,.26-.27,.41-.63,.41-1.01-.08-6.74-.13-13.66-.17-20.35-.35-55.98-.7-113.87-23.65-150.66Z"/>
        </g>
        <path id="Tie" class="cls-2" d="M154.91,150.36l8.13,12.65-9.94,73.65,23.04,28.46,18.98-25.75-23.95-76.36,5.42-13.1-13.98-7.74-7.71,8.19Z"/>
        <g id="Neck">
          <path id="Fill_6" data-name="Fill 6" class="cls-8" d="M176.92,102.25l1.41,16.11c.23,9.54-14.51,26.21-14.51,26.21,0,0-28.59-18.04-28.81-27.29l1.66-17.43"/>
          <path id="Fill_8" data-name="Fill 8" class="cls-7" d="M163.82,145.99c-.26,0-.52-.07-.75-.22-2.99-1.89-29.23-18.73-29.47-28.46,0-.06,0-.11,0-.17l1.66-17.43c.08-.78,.77-1.34,1.54-1.27,.78,.07,1.35,.76,1.27,1.54l-1.66,17.34c.09,1.96,2.07,6.58,13.93,15.95,5.46,4.31,10.97,7.99,13.19,9.44,1.27-1.51,3.89-4.72,6.46-8.49,4.59-6.73,6.98-12.19,6.91-15.79l-1.41-16.07c-.07-.78,.51-1.46,1.29-1.53,.78-.07,1.46,.51,1.53,1.28l1.41,16.11s0,.06,0,.09c.24,9.98-14.25,26.48-14.87,27.18-.28,.31-.67,.48-1.06,.48"/>
          <path id="Fill_13" data-name="Fill 13" class="cls-1" d="M177.74,117.91c-2.6,9.32-6.87,18.32-13.77,25.29-12.19-7.99-22.5-16.45-29.44-25.74-17.05,7.19,7.83,44.74,7.83,44.74,0,0,19.75-16.99,21.61-18.67,1.86,1.68,24.86,12.57,24.86,12.57,0,0-.48-36.89-11.09-38.19"/>
          <path id="Fill_15" data-name="Fill 15" class="cls-7" d="M165.97,143.16c3.17,1.84,12.46,6.42,21.39,10.68-.42-12.98-2.99-31.34-8.66-34.18-2.85,9.56-7.12,17.45-12.73,23.5m-31.86-23.92c-1.8,1.02-2.99,2.54-3.62,4.62-1.49,4.94,.26,12.97,5.08,23.21,2.7,5.75,5.68,10.71,7.11,13,3.81-3.27,15.3-13.17,19.19-16.56-12.43-8.28-21.53-16.24-27.75-24.27m8.25,44.38c-.06,0-.13,0-.19-.01-.4-.06-.76-.28-.98-.62-.71-1.08-17.44-26.55-13.4-39.95,.98-3.24,3.07-5.56,6.2-6.88,.6-.25,1.29-.06,1.68,.46,6.09,8.16,15.29,16.26,28.1,24.76,5.63-6.02,9.87-14.04,12.61-23.85,.19-.67,.84-1.11,1.53-1.02,11.51,1.41,12.28,35.68,12.33,39.58,0,.49-.24,.94-.65,1.21-.41,.26-.93,.3-1.37,.09-3.48-1.65-19.55-9.29-24.13-12.07-4.13,3.62-20.07,17.33-20.81,17.97-.26,.22-.59,.34-.92,.34"/>
        </g>
        <g id="Macbook">
          <path id="Fill_19" data-name="Fill 19" class="cls-7" d="M269.23,289.85H127.75c-4.04,0-7.31-4.02-7.31-8.97s3.27-8.97,7.31-8.97h141.49c4.04,0,7.31,4.02,7.31,8.97s-3.27,8.97-7.31,8.97"/>
          <path id="Fill_23" data-name="Fill 23" class="cls-3" d="M358.39,289.85H218.33c-5.07,0-9.18-4.11-9.18-9.19v-101.44c0-5.07,4.11-9.19,9.18-9.19h140.06c5.07,0,9.18,4.11,9.18,9.19v101.44c0,5.07-4.11,9.19-9.18,9.19"/>
          <path id="Fill_43" data-name="Fill 43" class="cls-1" d="M305.58,230.93c0,7.93-6.06,12.94-14.26,12.94s-14.86-6.43-14.86-14.36,8.8-21.35,15.32-11.49c4.53,6.85,13.8,4.98,13.8,12.91"/>
          <path id="Fill_45" data-name="Fill 45" class="cls-7" d="M286.63,215.93c-.45,0-.8,.11-1.01,.17-3.99,1.2-7.74,8.57-7.74,13.4,0,7.14,6.03,12.94,13.45,12.94s12.85-4.63,12.85-11.52c0-3.41-1.89-4.44-5.51-6.1-2.75-1.27-5.86-2.71-8.06-6.03-1.57-2.38-3.01-2.86-3.97-2.86m4.69,29.34c-8.97,0-16.28-7.07-16.28-15.77,0-5.97,4.35-14.48,9.76-16.11,1.75-.53,5.14-.73,8.16,3.84,1.76,2.65,4.37,3.86,6.89,5.02,3.51,1.62,7.15,3.3,7.15,8.67,0,8.45-6.45,14.35-15.68,14.35"/>
        </g>
        <g id="Hand">
          <path id="Fill_47" data-name="Fill 47" class="cls-8" d="M109.22,253.15c10.64-2.15,35.64-5.43,57.87-8.16,41.51-5.1,44.57,22.07,33.82,18.42-7.16-2.43-11.75-1.86-17.21-2.18,6.02,.96,8.75,4.9,7.18,7.4-2.21,3.5-17.18-2.8-33.58,5.71-14.56,7.55-32.81,19.17-43.74,20.89l-4.34-42.07Z"/>
          <path id="Fill_49" data-name="Fill 49" class="cls-7" d="M110.76,254.29l4.05,39.26c7.85-1.76,19.11-8,30.02-14.05,4.14-2.3,8.06-4.47,11.82-6.42,10.41-5.4,20.21-5.02,26.69-4.77,2.64,.1,5.93,.23,6.34-.43,.29-.47,.3-1.02,0-1.66-.59-1.29-2.57-3.01-6.22-3.59-.74-.12-1.26-.8-1.18-1.55,.08-.75,.73-1.31,1.49-1.26,1.21,.07,2.41,.1,3.57,.12,4.07,.09,8.27,.18,14.02,2.13,.75,.26,2.13,.55,2.87-.33,.73-.86,.87-2.84-.47-5.31-3.56-6.58-15.02-12.68-36.51-10.04-28.27,3.47-47.26,6.13-56.51,7.89m2.8,42.35c-.31,0-.61-.1-.86-.29-.31-.24-.5-.59-.54-.98l-4.34-42.07c-.07-.72,.41-1.39,1.13-1.53,8.79-1.78,28.29-4.53,57.98-8.18,10.75-1.32,19.86-.64,27.09,2.02,5.74,2.11,10.09,5.48,12.25,9.48,1.76,3.25,1.81,6.5,.14,8.48-1.33,1.58-3.5,2.01-5.94,1.18-3.82-1.3-6.86-1.71-9.76-1.87,.68,.65,1.21,1.38,1.57,2.17,.67,1.49,.61,3.07-.19,4.33-1.28,2.04-4.29,1.93-8.84,1.75-6.19-.24-15.54-.6-25.28,4.46-3.73,1.93-7.63,4.1-11.75,6.38-11.83,6.56-24.05,13.34-32.42,14.65-.07,.01-.15,.02-.22,.02"/>
        </g>
        <g id="Finger">
          <path id="Fill_1-2" data-name="Fill 1" class="cls-1" d="M310.39,286.82c-.42-1.57-1.63-4.05-4.15-4.59-3.38-.73-4.93,2.05-5.09,5.05-.15-.56-.33-1.14-.56-1.75-1.89-5.06-7.87-4.27-8.68-.53-.31,1.45-.38,2.86-.28,4.15-1.03-3.26-3.71-5.89-6.72-5.07-2.25,.62-3.51,2.82-3.43,5.8-.77-1.56-2.2-2.77-3.87-2.97-2.6-.31-5.28,2.56-3.69,7.55,1.17,3.66,5.64,3.15,7.32,.68,.43-.64,.68-1.33,.78-2.03,.16,.55,.36,1.11,.6,1.69,1.53,3.62,7.82,3.31,9.08-.47,.29-.87,.4-1.81,.36-2.75,.47,1.65,1.24,2.91,2.1,3.5,2.83,1.96,7.25,.69,7.43-4.34,.45,1.36,1.21,2.46,2.24,2.85,4.43,1.69,8.06-1.22,6.56-6.77"/>
          <path id="Fill_3_2" data-name="Fill 3_2" class="cls-7" d="M308.21,292.08c-.92,.79-2.31,.87-3.81,.21-.96-.42-2.13-4.17-1.22-6.98,.46-1.43,1.25-1.79,2.02-1.79,.25,0,.5,.04,.74,.09,2.14,.46,2.95,3.06,3.09,3.58,.58,2.13,.27,3.96-.81,4.89m-9.4,1.84c-1.06,.83-2.64,.83-3.85,0-.56-.38-1.13-1.3-1.51-2.57-.05-.82-.2-1.65-.43-2.45-.07-1.1,0-2.32,.27-3.6,.28-1.3,1.47-1.84,2.4-1.91,.06,0,.12,0,.2,0,.76,0,2.48,.27,3.37,2.65,1.37,3.66,1.2,6.61-.45,7.9m-8.45-.04c-.48,1.44-2.04,2-3.23,2.05-1.14,.04-2.66-.37-3.21-1.68-1.17-2.78-1.38-5.47-.54-7.18,.41-.85,1.05-1.4,1.89-1.63,1.44-.39,2.6,.43,3.33,1.19,.73,.78,1.28,1.77,1.63,2.84,.08,.8,.21,1.56,.4,2.27,.02,.75-.06,1.48-.28,2.14m-10.43,.74c-.29,.73-1.22,1.21-2.27,1.18-.56-.02-1.91-.23-2.4-1.77-.66-2.06-.52-3.85,.36-4.92,.43-.52,1-.81,1.59-.81,.07,0,.15,0,.22,.01,1.02,.12,1.68,.88,2.04,1.5,.82,1.38,1.01,3.41,.45,4.81m31.83-8.17h0c-.3-1.12-1.57-4.82-5.22-5.61-2.44-.52-4.44,.38-5.55,2.44-1.3-1.84-3.32-2.87-5.5-2.72-2.43,.18-4.39,1.79-4.93,4.03-1.73-1.77-3.92-2.46-6.03-1.88-1.64,.45-2.92,1.53-3.69,3.12-.13,.27-.24,.57-.34,.86-.79-.66-1.72-1.08-2.73-1.19-1.61-.19-3.23,.48-4.32,1.8-1.51,1.83-1.83,4.59-.87,7.58,.71,2.22,2.62,3.65,4.99,3.74,.08,0,.15,0,.23,0,1.77,0,3.36-.8,4.27-2.08,1.1,1.38,2.89,2.21,4.91,2.21,.09,0,.18,0,.28,0,2.39-.09,4.42-1.29,5.42-3.11,.22,.23,.45,.44,.69,.6,1.1,.76,2.36,1.14,3.6,1.13,1.28,0,2.55-.41,3.59-1.23,.47-.37,1.13-1.01,1.64-2.02,.32,.32,.68,.58,1.07,.76,1.04,.46,2.08,.68,3.08,.68,1.4,0,2.69-.45,3.72-1.34,1.93-1.66,2.57-4.57,1.7-7.77"/>
        </g>
      </g>
    </g>
    <g id="Lower_Body_Floor" data-name="Lower Body Floor">
      <g id="Lower_Body_Floor_Legs_Crossed" data-name="Lower Body Floor/Legs Crossed">
        <g id="Shoe_1" data-name="Shoe 1">
          <path id="Fill_1-3" data-name="Fill 1" class="cls-5" d="M206.35,389.62s-35.02,20.48-33.31,40.06c1.7,19.58,16.92,19.15,23.94,18.83,17.45-.79,36.5-16.04,36.5-16.04l-27.12-42.85Z"/>
          <path id="Fill_5" data-name="Fill 5" class="cls-7" d="M207.01,432.95c-.3,0-.6-.1-.85-.31-8.88-7.42-11.59-16.66-11.7-17.05-.2-.71,.21-1.44,.91-1.64,.7-.2,1.44,.21,1.64,.91,.03,.09,2.63,8.87,10.85,15.74,.56,.47,.64,1.31,.17,1.87-.26,.32-.64,.48-1.02,.48"/>
        </g>
        <g id="Leg_1" data-name="Leg 1">
          <path id="Fill_7" data-name="Fill 7" class="cls-7" d="M174.31,304.12s56.92-26.53,127.33-36.22c68.1-9.36,78.52,34.95,62.14,68.1-35.75,72.35-128.58,104.72-128.58,104.72-50.3-25.41-33.44-85.82-60.89-136.6"/>
          <path id="Fill_9" data-name="Fill 9" class="cls-1" d="M232.22,360.63c-.41,0-.81-.19-1.07-.54-.43-.59-.3-1.42,.29-1.86,.46-.34,46.23-34.01,59.94-60.45,.34-.65,1.14-.91,1.79-.57,.65,.34,.91,1.14,.57,1.79-5.88,11.35-17.9,25.14-35.71,40.97-13.23,11.75-24.89,20.31-25.01,20.4-.24,.17-.51,.26-.78,.26"/>
        </g>
        <g id="Shoe_2" data-name="Shoe 2">
          <path id="Fill_11" data-name="Fill 11" class="cls-7" d="M309.11,405.82s-9.62,6.55,.2,17.21c4.75,5.16,62.06,27.95,80.46,16.31,8.5-5.37,10.44-11.41,11.33-13.99-9.66-2.94-91.99-19.53-91.99-19.53"/>
          <path id="Fill_13-2" data-name="Fill 13" class="cls-5" d="M328.83,370.38c11.5-.74,33.11,9.17,59.8,22.64,26.77,13.51,16.24,42.16-8.17,43.82-14.44,.98-50.56-7.35-67.09-17.36-12.82-7.77-8.61-22.92-5.76-28.9,4.2-8.82,13.3-19.69,21.22-20.2"/>
          <path id="Fill_16" data-name="Fill 16" class="cls-7" d="M356.98,415.72s-.03,0-.05,0c-.7-.06-1.22-.66-1.16-1.36,1.03-12.87,7.69-21.3,7.97-21.65,.44-.54,1.23-.63,1.78-.19,.54,.44,.63,1.23,.19,1.78-.06,.08-6.46,8.2-7.42,20.27-.05,.68-.64,1.19-1.31,1.16"/>
          <path id="Fill_18" data-name="Fill 18" class="cls-7" d="M369.97,418.12s-.03,0-.05,0c-.7-.06-1.22-.66-1.16-1.36,.76-9.55,5.71-15.81,5.92-16.07,.44-.54,1.23-.63,1.78-.19,.54,.44,.63,1.23,.19,1.78-.05,.06-4.68,5.95-5.38,14.69-.05,.68-.64,1.19-1.31,1.16"/>
          <path id="SKIN" class="cls-8" d="M314.96,359.24s31.51,21.72,33.41,27.3c3.97,11.69-2.3,21.36-10.09,24.54-14.44,5.9-47-14.36-47-14.36"/>
          <path id="Fill_22" data-name="Fill 22" class="cls-7" d="M333.95,413.4c-16.04,1.33-42.16-14.79-43.38-15.55-.62-.39-.81-1.21-.43-1.83,.39-.62,1.21-.81,1.83-.43,.08,.05,8.19,5.08,17.94,9.32,12.66,5.51,22.29,7.21,27.85,4.94,7.28-2.97,13.03-12.01,9.34-22.88-1.28-3.76-20.86-18.33-32.9-26.63-.6-.42-.76-1.24-.34-1.85,.42-.6,1.24-.76,1.85-.34,.08,.05,7.99,5.52,16.04,11.59,14.84,11.2,17.31,14.71,17.87,16.38,4.22,12.42-2.44,22.77-10.85,26.2-1.46,.6-3.08,.95-4.82,1.09"/>
        </g>
        <g id="Leg_2" data-name="Leg 2">
          <path id="Fill_24" data-name="Fill 24" class="cls-6" d="M78.86,334.18c5.35-112.43,110.04-60.07,130.62-49.49,66.93,34.4,134.92,76.43,134.92,76.43,1.92,35.01-37.25,66.41-61.12,69.9l-82.86-41.61s-21.04,30.27-58.81,28.67c-49.5-2.1-65.45-27.4-62.76-83.89"/>
          <path id="Fill_27" data-name="Fill 27" class="cls-1" d="M200.5,389.46c-4.15-2.19-32.12-17.1-46.1-28.12-.58-.45-1.41-.36-1.87,.22-.45,.58-.36,1.41,.22,1.87,13.72,10.82,40.59,25.25,46.05,28.15,.62-.7,1.25-1.46,1.7-2.11"/>
        </g>
      </g>
    </g>
    <g id="Head">
      <g id="Head_Plain_Hair" data-name="Head/Plain Hair">
        <path id="SKIN-2" data-name="SKIN" class="cls-8" d="M194.81,69.31c-.27-4.57-2.65-6.61-5.1-6.72-.22-1.41-.45-2.83-.72-4.24-6.6-35.03-28.44-39.74-46.7-35.21-12.09,3-28.42,11.5-25.04,43.24-7.28-1.81-10.69,2.18-10.44,7.76,.23,5.01,4,8.67,11.43,9.07,2.16,17,18.08,43.41,48.85,37.36,17.96-3.53,24.67-22.84,23.85-45.17,3.32-.56,4.04-3.24,3.87-6.1"/>
        <path id="Combined_Shape" data-name="Combined Shape" class="cls-7" d="M190.32,64.13c.43,3.18,.73,6.41,.9,9.63,1.04-.83,1.44-2.19,1.3-4.43-.25-4.17-1.32-5.03-2.2-5.21Zm-53.87,49.26c8.39,6.05,18.29,8.02,29.41,5.83,14.37-2.83,28.45-20.41,20.85-60.68-.82-4.38-1.91-8.37-3.24-11.96-1.94-4.12-4.15-5.9-6.81-6.91-2.9-1.09-4.24-.07-6.3,1.5-1.92,1.46-4.46,3.39-9.45,4.55-5.36,1.25-8.7-.15-12.23-1.63-2.99-1.26-6.12-2.57-10.74-2.38-9.17,.38-11.32,7.85-13.26,14.57-.96,3.32-1.86,6.45-3.53,8.45-1.42,1.7-2.69,2.37-3.95,2.83-.35,.13-.88,.16-1.25,.06-1.08-.27-2.07-.4-2.98-.4-1.56,0-2.86,.39-3.82,1.18-1.4,1.14-2.1,3.14-1.99,5.64,.21,4.62,3.92,7.46,10.18,7.8,.64,.03,1.16,.52,1.25,1.16,1.13,8.89,6.49,22.19,17.86,30.4Zm53.47-51.95c4.8,.19,5.15,5.86,5.25,7.74,.15,2.46-.08,5.91-3.7,7.51-.05,.02-.1,.03-.15,.05,.45,21.13-5.75,41.32-24.94,45.09-3.13,.62-6.16,.92-9.09,.92-8.24,0-15.75-2.41-22.39-7.21-7.09-5.11-11.96-12.09-15.03-18.88-1.26-.15-4.08-1.96-8.17-13.04-.01-.04-.03-.07-.04-.11-.01-.04-.03-.08-.04-.11-4.34-1.6-6.91-4.84-7.11-9.25-.15-3.35,.9-6.12,2.96-7.81,.03-.02,.06-.04,.09-.07,.02-.01,.04-.03,.06-.05-1.46-10.67-2.98-23.75,.3-33.46,4.56-13.49,15.17-24.07,28.38-25.55,43.74-4.92,55.09,25.78,54.61,43.89-.05,1.82-.37,4.39-.63,6.52-.23,1.86-.42,3.39-.36,3.81Zm-77.85,11.66c0-1.47,.68-2.67,1.52-2.67s1.52,1.19,1.52,2.67-.68,2.67-1.52,2.67-1.52-1.19-1.52-2.67Z"/>
      </g>
    </g>
    <g id="Face">
      <g id="Face_Normal_Face_2" data-name="Face/Normal Face 2">
        <path id="Normal_face_2" data-name="Normal face 2" class="cls-7" d="M182.06,64.08c-.76-.94-1.74-1.78-2.89-2.37-1.15-.6-2.44-.91-3.68-1.06-1.25-.14-2.48-.13-3.66-.01-1.18,.12-2.33,.3-3.46,.5-.12,.02-.24,.06-.36,.1-1.08,.4-1.63,1.6-1.23,2.68,.4,1.08,1.6,1.63,2.68,1.23,.98-.36,1.96-.67,2.93-.89,.97-.22,1.94-.38,2.87-.36,1.87,.04,3.46,.75,5.03,1.96h.02c.45,.36,1.1,.37,1.57,0,.54-.44,.63-1.24,.19-1.78Zm-34.66-1.71c.85-.02,1.67-.05,2.47-.12,1.1-.1,2.07,.71,2.17,1.81,.1,1.1-.71,2.07-1.81,2.17-.05,0-.09,0-.14,0h-.03c-1.29,.03-2.53-.05-3.71-.13h0c-.97-.06-1.91-.12-2.8-.12-.99,0-1.92,.1-2.82,.34-.9,.25-1.77,.61-2.7,1.01l-.05,.02c-.57,.24-1.24-.02-1.48-.6-.18-.42-.08-.89,.21-1.21,.82-.89,1.88-1.59,3.04-2.05,1.16-.48,2.39-.75,3.57-.9,1.01-.13,2-.16,2.94-.19h0c.16,0,.32-.01,.48-.02,.22,0,.45-.01,.67-.02h0Zm26.29,13.06c-.27-1.88,.88-3.6,2.58-3.84,1.7-.25,3.29,1.08,3.56,2.95,.27,1.88-.88,3.6-2.58,3.84-1.7,.25-3.29-1.08-3.56-2.95Zm-11.58,17.63c-.3-.07-.52-.13-.9-.29-.47-.2-.69-.75-.49-1.22,.12-.28,.36-.47,.63-.54l.36-.09c.15-.04,.47-.02,.71-.01h.07c.23,.02,.4,.03,.64,.03,.49,0,.97-.03,1.42-.11,.91-.16,1.69-.53,2.05-1.03,.19-.25,.3-.54,.35-.9,.05-.35,.02-.8-.07-1.11-.17-.62-.67-1.14-1.44-1.66-.38-.25-.8-.49-1.26-.7l-.17-.08-.1-.05c-.1-.05-.23-.14-.29-.19-.06-.05-.13-.12-.18-.18l-.11-.14c-.2-.29-.25-.46-.31-.62-.01-.03-.02-.07-.03-.1-.11-.36-.16-.66-.21-.96-.18-1.18-.24-2.28-.3-3.39-.11-2.21-.11-4.4-.06-6.6,.01-.52,.44-.93,.96-.92,.49,.01,.88,.4,.91,.88h0c.13,2.17,.28,4.34,.48,6.47,.11,1.06,.23,2.14,.43,3.1,.04,.17,.08,.33,.12,.47,.51,.21,1.02,.45,1.52,.75,.54,.33,1.09,.73,1.56,1.28,.48,.54,.86,1.26,1.02,1.99,.16,.75,.17,1.41,.05,2.14-.12,.72-.43,1.47-.93,2.07-.5,.6-1.13,1.03-1.77,1.3-.64,.27-1.28,.41-1.91,.48-.63,.07-1.24,.07-1.84,.03-.28-.02-.65-.05-.92-.12Zm8.27,8.39h-.01c-2.56,1.28-5.54,1.56-8.35,1.2-1.39-.16-2.73-.52-3.95-1.11-.61-.29-1.2-.63-1.73-1.03-.27-.2-.52-.41-.77-.62-.03-.03-.07-.06-.1-.09-.08-.08-.17-.16-.24-.24-.1-.1-.23-.25-.26-.28-.03-.04-.07-.09-.1-.13-.62-.68-1.67-.74-2.35-.12-.68,.62-.73,1.67-.12,2.35v.02c.24,.25,.38,.38,.56,.54,.14,.13,.28,.24,.42,.36,.03,.03,.07,.05,.1,.08,.35,.27,.71,.53,1.07,.76,.73,.47,1.51,.86,2.3,1.18,1.59,.65,3.28,.98,4.95,1.07,1.66,.08,3.3-.11,4.91-.48,1.6-.39,3.15-1.01,4.54-1.9,.38-.24,.52-.74,.32-1.15-.22-.44-.75-.62-1.2-.4Zm-29.49-25.76c.27-1.88,1.87-3.2,3.56-2.95,1.7,.25,2.85,1.97,2.58,3.84-.27,1.88-1.87,3.2-3.56,2.95-1.7-.25-2.85-1.97-2.58-3.84Z"/>
      </g>
    </g>
    <g id="Facial_Hair" data-name="Facial Hair">
      <g id="Facial_Hair_French_Beard" data-name="Facial Hair/French Beard">
        <path id="French_Beard" data-name="French Beard" class="cls-7" d="M166.31,108.14c-.92-3.34-2.44-1.74-2.89,.68-.4,2.16-.93,3.74-5.84,3.31-2.58-.22-8.49-2.67-7.94-11.82,2.06-.64,6.77-.64,12.6-.71,5.97-.06,13.07-1.89,14.25-.85,.95,4.18-.09,11.7-4.57,12.24-2.18,.26-4.63,.73-5.61-2.85Zm-2.68-16.3c-17.11,.39-17.82,6.1-18.56,11.14-.79,5.36-1.02,13.21,.04,16.55,.87,2.73,7.93,8.41,19.34,7.93,11.41-.48,15.39-2.94,17.44-7.03,1.45-2.89-.25-20.21-.48-22.11-.24-1.9-2.07-6.84-17.77-6.49Z"/>
      </g>
    </g>
  </g>
</svg>