<?xml version="1.0" encoding="UTF-8"?>
<svg id="Capa_1" data-name="Capa 1" xmlns="http://www.w3.org/2000/svg" xmlns:xlink="http://www.w3.org/1999/xlink" viewBox="0 0 246.5 685">
  <defs>
    <style>
      .cls-1 {
        fill: #fff;
      }

      .cls-1, .cls-2, .cls-3, .cls-4, .cls-5, .cls-6, .cls-7, .cls-8 {
        fill-rule: evenodd;
      }

      .cls-2 {
        fill: #f5580a;
      }

      .cls-3 {
        fill: #ae92c4;
      }

      .cls-4 {
        fill: #ff4b33;
      }

      .cls-9 {
        clip-path: url(#clippath);
      }

      .cls-10 {
        fill: none;
      }

      .cls-5 {
        fill: #0b379b;
      }

      .cls-6 {
        fill: #141414;
      }

      .cls-7 {
        fill: #dcae92;
      }

      .cls-8 {
        fill: rgba(255, 255, 255, .8);
      }

      .cls-11 {
        fill: #13d6c3;
      }
    </style>
    <clipPath id="clippath">
      <rect class="cls-10" x="36.38" y="-742" width="802" height="504" rx="12" ry="12"/>
    </clipPath>
  </defs>
  <g class="cls-9">
    <g id="Master_Character_Standing" data-name="Master/Character/Standing">
      <g id="Lower_Body" data-name="Lower Body">
        <g id="Lower_Body_Jeans" data-name="Lower Body/Jeans">
          <g id="shoe_2" data-name="shoe 2">
            <path id="SKIN" class="cls-1" d="M168.9,24.41l4.37,29.87,42.96,4.44-6.66-30.77-40.67-3.53Z"/>
            <path id="path_6" data-name="path 6" class="cls-6" d="M216.37,59.8l-43.31-4.25c-.53-.05-.95-.46-1.03-.98l-4.42-30.22c-.09-.63,.34-1.21,.97-1.31,.63-.09,1.21,.34,1.31,.97l4.29,29.32,40.83,4.01-6.52-29.11c-.14-.62,.25-1.24,.87-1.37,.62-.14,1.24,.25,1.37,.87l6.86,30.66c.08,.36-.02,.74-.26,1.01-.22,.25-.53,.39-.86,.39-.04,0-.08,0-.11,0Z"/>
            <path id="path_23" data-name="path 23" class="cls-2" d="M171.33,50.77c.14-.55,.68-.9,1.24-.8,.53,.1,1.21,.23,2,.38,4.86,.94,14.98,2.88,24.56,2.89h.02c5.65,0,10.61-1.54,13.99-4.35,.27-.22,.63-.3,.97-.22,16.45,4.28,28.34,7.38,37.15,13.25,1.55,1.03,7.13,5.54,6.17,8.73-.45,1.47-2.04,2.22-4.73,2.22-9.82,0-30.98,.05-49.65,.1-15.11,.04-28.15,.07-33.06,.07-.52,0-.99-.24-1.32-.66-1.93-2.49,1.22-15.95,2.66-21.62"/>
            <path id="Fill_47" data-name="Fill 47" class="cls-6" d="M170.19,77.83h84.89c1.41,0,2.55-1.14,2.55-2.55v-.84c0-1.41-1.14-2.55-2.55-2.55h-84.89c-1.41,0-2.55,1.14-2.55,2.55v.84c0,1.41,1.14,2.55,2.55,2.55"/>
            <path id="path_25" data-name="path 25" class="cls-6" d="M230.97,58.87c.43,0,.84-.24,1.04-.66,1.81-3.79,5.28-2.87,5.67-2.75,.61,.18,1.25-.15,1.44-.76,.19-.61-.15-1.25-.75-1.44-1.97-.62-6.26-.6-8.43,3.95-.27,.57-.03,1.26,.54,1.53,.16,.08,.33,.11,.49,.11"/>
            <path id="path_26" data-name="path 26" class="cls-6" d="M220.8,56.1c.43,0,.84-.24,1.04-.66,1.81-3.79,5.28-2.87,5.67-2.75,.61,.18,1.25-.15,1.44-.76,.19-.61-.15-1.25-.75-1.44-1.97-.62-6.27-.6-8.43,3.95-.27,.57-.03,1.26,.54,1.53,.16,.08,.33,.11,.49,.11"/>
          </g>
          <g id="shoe_1" data-name="shoe 1">
            <path id="SKIN_2" data-name="SKIN 2" class="cls-1" d="M91.8,24.33l-1.29,30.18-37.83,3.24,.58-30.3,38.54-3.12Z"/>
            <path id="path_1" data-name="path 1" class="cls-6" d="M52.6,58.9c-.29,0-.57-.11-.79-.31-.24-.22-.37-.54-.36-.86l.55-30.31c.01-.64,.55-1.15,1.17-1.13,.64,.01,1.14,.54,1.13,1.17l-.53,29.04,35.64-2.98,1.27-29.38c.03-.63,.56-1.13,1.2-1.1,.64,.03,1.13,.57,1.1,1.2l-1.31,30.39c-.02,.58-.48,1.05-1.05,1.1l-37.92,3.17s-.06,0-.1,0"/>
            <path id="path_2" data-name="path 2" class="cls-2" d="M93.14,50.95c-.14-.55-.68-.9-1.24-.8-.53,.1-1.21,.23-2,.38-4.86,.94-14.98,2.88-24.56,2.89h-.02c-5.65,0-10.61-1.54-13.99-4.35-.27-.22-.63-.3-.97-.22-16.45,4.28-28.34,7.38-37.15,13.25-1.55,1.03-7.13,5.54-6.17,8.73,.45,1.47,2.04,2.22,4.73,2.22,9.82,0,30.98,.05,49.65,.1,15.11,.04,28.15,.07,33.06,.07,.52,0,.99-.24,1.32-.66,1.93-2.49-1.22-15.95-2.66-21.62"/>
            <path id="path_3" data-name="path 3" class="cls-6" d="M94.28,78H9.39c-1.41,0-2.55-1.14-2.55-2.55v-.84c0-1.41,1.14-2.55,2.55-2.55H94.28c1.41,0,2.55,1.14,2.55,2.55v.84c0,1.41-1.14,2.55-2.55,2.55"/>
            <path id="path_4" data-name="path 4" class="cls-6" d="M33.5,59.05c-.43,0-.84-.24-1.04-.66-1.81-3.79-5.28-2.87-5.67-2.75-.61,.18-1.25-.15-1.44-.76-.19-.61,.14-1.25,.75-1.44,1.97-.62,6.26-.6,8.43,3.95,.27,.57,.03,1.26-.54,1.53-.16,.08-.33,.11-.49,.11"/>
            <path id="path_5" data-name="path 5" class="cls-6" d="M43.67,56.28c-.43,0-.84-.24-1.04-.66-1.81-3.79-5.28-2.87-5.67-2.75-.61,.18-1.25-.15-1.44-.76-.19-.61,.15-1.25,.75-1.44,1.97-.62,6.27-.6,8.43,3.95,.27,.57,.03,1.26-.54,1.53-.16,.08-.33,.11-.49,.11"/>
          </g>
          <g id="pant">
            <path id="path_10" data-name="path 10" class="cls-5" d="M41.63-315.84L13.33,40.94c27.9,2.28,57.56,1.95,88.32,0,0,0,4.87-298.21,7.55-298.51,5.01-.57,29.63,298.51,29.63,298.51,27.83,4.51,55.12,3.13,82.25,0,0,0-20.65-264.21-55.99-358.12-55.86,2.48-123.46,1.33-123.46,1.33"/>
          </g>
        </g>
      </g>
    </g>
  </g>
  <g id="Master_Character_Standing-2" data-name="Master/Character/Standing">
    <g id="Lower_Body-2" data-name="Lower Body">
      <g id="Lower_Body_Skirt" data-name="Lower Body/Skirt">
        <g id="Leg_2" data-name="Leg 2">
          <g id="leg_2" data-name="leg 2">
            <path id="SKIN-2" data-name="SKIN" class="cls-7" d="M115.45,497.72l-9.19,153.94c-15.73,1.89-30.35,2.42-41.48-1.33l-1.52-152.89"/>
            <path id="Assets_56" data-name="Assets 56" class="cls-6" d="M85.46,654.32c-7.4,0-14.74-.73-21.05-2.85-.48-.16-.81-.61-.81-1.12l-1.52-152.89c0-.66,.52-1.2,1.18-1.2,.66,0,1.2,.52,1.2,1.18l1.51,152.03c11.62,3.64,26.86,2.58,39.17,1.13l9.13-152.95c.04-.66,.6-1.14,1.26-1.12,.66,.04,1.16,.6,1.12,1.26l-9.19,153.94c-.03,.57-.47,1.04-1.05,1.11-6.43,.77-13.71,1.47-20.95,1.47"/>
          </g>
          <g id="shoe_2-2" data-name="shoe 2">
            <path id="Assets_57" data-name="Assets 57" class="cls-4" d="M108.72,648.12c1.49,5.86,4.75,19.78,2.75,22.35-.34,.44-.83,.68-1.36,.68-5.08,0-18.56-.04-34.17-.08-19.3-.05-41.17-.11-51.32-.11-2.78,0-4.42-.77-4.89-2.3-1-3.3,4.77-7.95,6.37-9.02,9.11-6.07,21.39-9.27,38.4-13.7,.35-.09,.72,0,1,.22,3.48,2.9,8.62,4.5,14.45,4.5h.03c9.91,0,20.36-2.02,25.39-2.99,.82-.16,1.52-.29,2.07-.39,.58-.1,1.14,.26,1.28,.83"/>
            <path id="Assets_58" data-name="Assets 58" class="cls-6" d="M109.91,676.08c1.46,0,2.64-1.18,2.64-2.64v-.87c0-1.46-1.18-2.64-2.64-2.64H22.16c-1.46,0-2.64,1.18-2.64,2.64v.87c0,1.46,1.18,2.64,2.64,2.64H109.91"/>
            <path id="Assets_59" data-name="Assets 59" class="cls-6" d="M47.08,656.49c.17,0,.35-.04,.51-.12,.59-.28,.84-.99,.56-1.59-2.24-4.71-6.68-4.73-8.72-4.09-.62,.2-.97,.86-.77,1.49,.19,.62,.86,.97,1.49,.78,.4-.12,3.99-1.08,5.86,2.84,.2,.43,.63,.68,1.07,.68"/>
            <path id="Assets_60" data-name="Assets 60" class="cls-6" d="M57.59,653.63c.17,0,.35-.04,.51-.12,.59-.28,.84-.99,.56-1.59-2.24-4.71-6.68-4.73-8.72-4.09-.62,.2-.97,.86-.77,1.49,.19,.62,.86,.97,1.49,.78,.4-.12,3.99-1.08,5.86,2.84,.2,.43,.63,.68,1.07,.68"/>
          </g>
        </g>
        <g id="Leg">
          <g id="leg">
            <path id="SKIN_2-2" data-name="SKIN 2" class="cls-7" d="M212.75,494.89l12.07,153.94c-15.73,1.89-30.35,2.42-41.48-1.33l-23.89-150.65"/>
            <path id="Fill_3" data-name="Fill 3" class="cls-6" d="M204.02,654.27c-7.4,0-14.74-.73-21.05-2.85-.42-.14-.73-.5-.8-.94l-23.89-150.65c-.1-.65,.34-1.26,.99-1.36,.64-.1,1.26,.34,1.36,.99l23.78,149.93c11.59,3.67,26.82,2.63,39.14,1.19l-11.98-152.8c-.05-.66,.44-1.23,1.09-1.28,.65-.05,1.23,.44,1.28,1.09l12.07,153.94c.05,.64-.41,1.2-1.04,1.27-6.43,.77-13.71,1.47-20.95,1.47"/>
          </g>
          <g id="shoe">
            <path id="Assets_61" data-name="Assets 61" class="cls-4" d="M226.51,648.12c1.49,5.86,4.75,19.78,2.75,22.35-.34,.44-.83,.68-1.36,.68-5.08,0-18.56-.04-34.17-.08-19.3-.05-41.17-.11-51.32-.11-2.78,0-4.42-.77-4.89-2.3-1-3.3,4.77-7.95,6.37-9.02,9.11-6.07,21.39-9.27,38.4-13.7,.35-.09,.72,0,1,.22,3.48,2.9,8.62,4.5,14.45,4.5h.03c9.91,0,20.36-2.02,25.39-2.99,.82-.16,1.52-.29,2.07-.39,.58-.1,1.14,.26,1.28,.83"/>
            <path id="Assets_62" data-name="Assets 62" class="cls-6" d="M227.69,676.08c1.46,0,2.64-1.18,2.64-2.64v-.87c0-1.46-1.18-2.64-2.64-2.64h-87.74c-1.46,0-2.64,1.18-2.64,2.64v.87c0,1.46,1.18,2.64,2.64,2.64h87.74"/>
            <path id="Assets_63" data-name="Assets 63" class="cls-6" d="M164.86,656.49c.17,0,.35-.04,.51-.12,.59-.28,.84-.99,.56-1.59-2.24-4.71-6.68-4.73-8.72-4.09-.62,.2-.97,.86-.77,1.49,.19,.62,.86,.97,1.49,.78,.4-.12,3.99-1.08,5.86,2.84,.2,.43,.63,.68,1.07,.68"/>
            <path id="Assets_64" data-name="Assets 64" class="cls-6" d="M175.37,653.63c.17,0,.35-.04,.51-.12,.59-.28,.84-.99,.56-1.59-2.24-4.71-6.68-4.73-8.72-4.09-.62,.2-.97,.86-.77,1.49,.19,.62,.86,.97,1.49,.78,.4-.12,3.99-1.08,5.86,2.84,.2,.43,.63,.68,1.07,.68"/>
          </g>
        </g>
        <g id="Skirt">
          <path id="Assets_65" data-name="Assets 65" class="cls-6" d="M83.06,268.16s-33.84,179.1-33.59,232.61c27.72,9.15,114.02,10.44,190.09-.92,4.89-149.68-32.18-224-35.47-231.36l-121.03-.34Z"/>
          <g id="Combined_Shape" data-name="Combined Shape">
            <path class="cls-8" d="M207.6,504.07s-.04,0-.07,0c-.66-.04-1.16-.6-1.12-1.25,5.81-105.39-23.56-231.22-23.86-232.47-.15-.64,.24-1.28,.88-1.43,.64-.15,1.28,.24,1.43,.88,.3,1.26,29.75,127.41,23.92,233.15-.04,.63-.56,1.12-1.19,1.12Zm-44.64,3.54s-.04,0-.07,0c-.66-.04-1.16-.6-1.12-1.25,5.82-105.47-7.84-234.56-7.98-235.85-.07-.65,.4-1.24,1.06-1.31,.65-.07,1.24,.4,1.31,1.06,.14,1.29,13.82,130.57,7.99,236.24-.03,.63-.56,1.12-1.19,1.12Zm-41.71-238.34c-.65,0-1.18,.53-1.19,1.18,0,1.28-1,129.65-6.82,235.2-.04,.66,.47,1.22,1.12,1.25,.02,0,.05,0,.07,0,.63,0,1.15-.49,1.19-1.12,5.83-105.6,6.81-234.03,6.82-235.31,0-.66-.52-1.19-1.18-1.2h0Zm-42.42,233.02c-.04,.63-.56,1.12-1.19,1.12-.02,0-.04,0-.07,0-.66-.04-1.16-.6-1.12-1.25,5.83-105.6,18.21-230.96,18.33-232.21,.06-.65,.64-1.13,1.3-1.07,.65,.06,1.13,.65,1.07,1.3-.12,1.25-12.5,126.56-18.33,232.11Z"/>
          </g>
        </g>
      </g>
    </g>
    <g id="Upper_Body" data-name="Upper Body">
      <g id="Upper_Body_Recording" data-name="Upper Body/Recording">
        <g id="Hand_2" data-name="Hand 2">
          <path id="SKIN-3" data-name="SKIN" class="cls-7" d="M42.78,111.22s-14.97-7.2-22.38-15.02c-3.42-3.61-8.64,13.79-5.6,27.21,13.69,89.42,46.73,97.1,56.99,97.1,10.27,0,29.91-14.53,35.35-26.32l-35.16-27.99c-10.53-3.78-25.75-43.62-29.21-54.98"/>
          <path id="Fill_3-2" data-name="Fill 3" class="cls-6" d="M71.4,167.24c-11.59-4.56-26.77-46.2-29.6-55.18-2.65-1.31-15.44-7.84-22.25-15.04-.06-.06-.1-.1-.11-.11-.07,.03-.39,.19-.88,.93-2.52,3.84-4.78,15.61-2.58,25.3,0,.03,.01,.06,.02,.08,5.83,38.07,15.76,65.48,29.51,81.49,3.77,4.39,13.89,14.6,26.31,14.6,9.62,0,28.14-13.68,33.87-24.8l-34.27-27.28Zm.4,54.46c-10.12,0-44.22-7.07-58.17-98.07-2.56-11.35,.52-26.6,4.62-28.8,1.03-.55,2.16-.35,3.01,.55,7.17,7.57,21.88,14.69,22.03,14.76,.3,.14,.53,.41,.62,.72,4.29,14.06,19.06,50.82,28.48,54.2,.12,.04,.24,.11,.34,.19l35.16,27.99c.43,.34,.57,.93,.34,1.43-5.59,12.12-25.68,27.02-36.43,27.02h0Z"/>
          <g id="Phone">
            <path id="Fill_5" data-name="Fill 5" class="cls-3" d="M10.79,127.08c-2.41-.78-3.73-3.36-2.96-5.77l14.52-45.16c.77-2.41,3.36-3.73,5.77-2.96l19,6.11c2.41,.77,3.73,3.36,2.96,5.77l-14.52,45.16c-.78,2.41-3.36,3.73-5.77,2.96l-19-6.11"/>
            <circle id="Oval" class="cls-11" cx="27.24" cy="80.67" r="2.1"/>
          </g>
          <g id="palm">
            <path id="SKIN_2-3" data-name="SKIN 2" class="cls-7" d="M10.95,112.93c-2.2,.46-3.02,4.18-.45,5.52,3.49,1.83,5.98,.22,6.09-1.75,.15-2.58-3.21-4.28-5.64-3.78"/>
            <path id="SKIN_3" data-name="SKIN 3" class="cls-7" d="M15.06,96.37c.6,2.46,8.93,4.65,8.74-.3-.07-1.94-1.76-3.16-2.87-3.68-3.92-1.84-6.73,.51-5.88,3.98"/>
            <path id="SKIN_4" data-name="SKIN 4" class="cls-7" d="M11.39,111.94c3.68,2.38,7.13,2.09,8.26-.29,1-2.12-.6-4.46-2.88-5.65,.95,.25,2,.38,3.11,.33,2.88-.11,4.25-4.44,.74-6.51-6.43-3.79-9.32,.49-7.93,3.52,.33,.72,1.16,1.45,2.33,2.01-.69-.15-1.4-.2-2.09-.09-2.97,.44-4.03,5.07-1.54,6.68"/>
            <path id="Fill_14" data-name="Fill 14" class="cls-6" d="M11.05,117.4c-1.01-.53-.99-1.49-.93-1.88,.1-.73,.54-1.31,1.08-1.42,.21-.04,.42-.06,.65-.06,.96,0,2.03,.38,2.76,1,.39,.33,.84,.88,.8,1.61-.03,.46-.31,.88-.76,1.14-.87,.5-2.18,.36-3.58-.38m7.52-6.25c-.27,.56-.73,.94-1.38,1.13-1.35,.38-3.28-.11-5.16-1.33-.85-.55-.94-1.67-.77-2.47,.18-.84,.77-1.87,1.84-2.03,.19-.03,.39-.04,.59-.04,.33,0,.66,.05,.99,.11,.5,.23,1.04,.43,1.62,.59,.72,.39,1.37,.91,1.84,1.54,.45,.61,.89,1.54,.44,2.5m2.88-7.44c-.16,.64-.68,1.4-1.62,1.44-.99,.04-1.9-.08-2.69-.28-.54-.26-1.1-.47-1.67-.61-.91-.46-1.52-1-1.71-1.41-.44-.95-.24-2.07,.47-2.71,.45-.41,1.07-.61,1.81-.61,1.1,0,2.47,.45,3.96,1.32,1.74,1.02,1.54,2.45,1.43,2.86m-1.01-10.25c.35,.17,2.12,1.08,2.18,2.65,.03,.73-.13,1.5-1.52,1.7-2.32,.32-4.75-1.17-4.88-1.73-.28-1.15-.06-2.12,.62-2.67,.8-.65,2.14-.63,3.6,.05m-12.67,21.73c-.25,1.82,.58,3.48,2.19,4.32,1.19,.62,2.38,.94,3.47,.94,.87,0,1.68-.2,2.39-.6,1.16-.66,1.9-1.81,1.97-3.07,.04-.73-.12-1.45-.47-2.1,.18-.03,.36-.06,.53-.11,1.32-.38,2.32-1.21,2.88-2.4,.7-1.47,.5-3.16-.51-4.67,1.69-.19,3.1-1.43,3.54-3.2,.4-1.59-.06-3.19-1.19-4.41,1.61-.61,2.5-1.99,2.43-3.86-.11-2.88-2.74-4.34-3.55-4.72h0c-2.31-1.08-4.6-.99-6.12,.26-1.39,1.14-1.92,3.04-1.42,5.08,.07,.28,.19,.54,.35,.8-.75,.26-1.29,.64-1.61,.93-1.5,1.35-1.92,3.55-1.04,5.47,.07,.16,.17,.32,.28,.49-1.45,.55-2.57,1.9-2.95,3.64-.34,1.56,0,3.06,.88,4.13-1.07,.58-1.86,1.72-2.05,3.08"/>
            <path id="SKIN_5" data-name="SKIN 5" class="cls-7" d="M30.77,129.67c-.87,4.48-1.3,6.64,.31,7.69,3,1.98,13.1-.68,11.41-8.76-.12-.59-.31-1.23-.53-1.86l4.96-3.23c-1-4.13,.25-6.88,1.12-11.73,1.13-6.25-4.97-4.98-6.64-2.63-1.09,1.55-4.2,7.39-3.31,14.21-2.42,.38-6.49,1.97-7.33,6.29"/>
            <path id="Fill_18" data-name="Fill 18" class="cls-6" d="M29.06,132.87c0-.76,.06-1.52,.19-2.28,.23-1.51,.74-3.02,1.59-4.38,.41-.67,.91-1.31,1.55-1.88,.63-.55,1.33-.99,2.05-1.33,.73-.34,1.48-.6,2.23-.79,.03-.01,.07-.02,.11-.03-.24-2.14-.13-4.32,.26-6.43,.33-1.73,.83-3.42,1.64-5.06,.21-.41,.43-.82,.74-1.24,.34-.45,.7-.77,1.08-1.07,.76-.59,1.57-1.05,2.45-1.4,.88-.34,1.83-.6,2.93-.54,.54,.03,1.14,.17,1.7,.51,.55,.34,.99,.88,1.23,1.44,.46,1.12,.39,2.15,.27,3.08-.03,.23-.07,.46-.12,.69l-.13,.63-.28,1.25c-.39,1.66-.81,3.25-.91,4.77-.04,.76-.01,1.5,.12,2.26,.13,.75,.34,1.5,.59,2.24v.03s.01,0,.01,0c.2,.63-.15,1.3-.77,1.49-.63,.2-1.29-.14-1.49-.77-.27-.86-.51-1.73-.65-2.65-.14-.92-.17-1.86-.1-2.78,.15-1.85,.64-3.52,1.02-5.14l.29-1.21,.13-.6c.04-.18,.08-.37,.11-.55,.11-.72,.11-1.45-.08-1.9-.1-.22-.21-.36-.37-.47-.17-.11-.41-.18-.7-.21-.6-.05-1.33,.11-2.01,.37-.69,.26-1.36,.63-1.94,1.07-.28,.22-.55,.46-.72,.69-.2,.25-.39,.58-.57,.92-.71,1.38-1.21,2.94-1.53,4.51-.39,1.88-.51,3.82-.34,5.72,.07,.79,.2,1.58,.37,2.35,.11,.49,.24,.96,.39,1.44,.15,.48-.11,.99-.58,1.15-.48,.16-1-.1-1.16-.58-.2-.59-.36-1.18-.5-1.78-.63,.13-1.25,.32-1.82,.55-.59,.24-1.14,.55-1.61,.93-.46,.36-.88,.84-1.25,1.38-.73,1.05-1.24,2.3-1.5,3.61-.29,1.3-.35,2.72-.23,4.01v.05c.04,.4-.24,.77-.64,.84-.43,.07-.82-.22-.89-.64-.13-.81-.16-1.53-.16-2.3"/>
          </g>
        </g>
        <g id="T_Shirt" data-name="T Shirt">
          <path id="Fill_1" data-name="Fill 1" class="cls-4" d="M80.01,274.58s.45-46.66,10.35-89.02c-5.85-3.75-17.53-14.73-19.05-19.64,2.56-9.28,15.69-38.96,21.23-45.22,18.67-21.1,44.66-18.41,44.66-18.41,0,0,51.22-2.63,70.93,28.98,12.67,20.32,1.16,124.52,0,143.67-19.85,1.82-128.12-.36-128.12-.36Z"/>
          <path id="Fill_3_2" data-name="Fill 3_2" class="cls-6" d="M89.74,183.7c-5.9-4.2-15.52-13.49-17.19-17.82,2.8-9.71,15.68-38.53,20.88-44.4,18.32-20.4,43.17-18.11,43.84-18.01,.13,0,13.15-.78,28.23,2.37,13.8,2.88,32.2,9.75,41.59,26.01,14.45,25.03-.1,119.58-.25,142.26-22.62,1.45-114.53-.59-125.65-.69-.07-7.15,3.28-51.21,10.36-87.98,.59-2.25,4.38-22.45,6.06-27.62,.45-.96-1.09-1.64-1.45-.68-1.34,5.28-5.86,24.66-6.41,26.53Zm-19.58-18.1c.88,5.82,13.46,16.29,19.28,20.53-7.24,39.95-10.63,88.02-10.63,88.47,0,.63,.51,1.14,1.14,1.17,10.63,.02,99.19,.75,128.5,.37,1.08-.03,.64-9.38,1.04-14.42,1.09-27.58,14.28-100.76-.33-131.05-12.54-23.58-49.93-30.9-71.94-29.58-1.84-.15-27.31-1.82-45.57,18.81-5.88,6.65-19.07,36.91-21.49,45.69Z"/>
        </g>
        <g id="neck">
          <path id="SKIN_6" data-name="SKIN 6" class="cls-7" d="M129.23,87.99s1.19,16.55,1.24,18.76c-1.49,.05-8.21,17.7,13.39,18.71,11.16,.52,25.83-6.87,23.67-17.7-7.96-2.75-8.72-22.02-8.72-22.02l-29.57,2.24Z"/>
          <path id="Fill_27" data-name="Fill 27" class="cls-6" d="M166.46,108.62c-6.9-3.22-8.46-17.28-8.77-21.59l-27.18,2.06c.28,3.86,1.12,15.75,1.15,17.64,0,.5-.29,.93-.72,1.12-.67,.82-2.33,5.22-.82,9.29,1.6,4.33,6.38,6.8,13.8,7.14,7.43,.35,15.81-2.88,19.93-7.67,2.12-2.47,3-5.15,2.62-7.99m-21.47,18.06c-.4,0-.8,0-1.19-.03-6-.28-10.48-1.85-13.31-4.66-2.23-2.21-3.39-5.17-3.37-8.57,.02-2.42,.84-5.84,2.13-7.24-.17-3.61-1.2-17.96-1.21-18.12-.05-.65,.44-1.22,1.1-1.27l29.57-2.24c.32-.02,.64,.08,.88,.3,.24,.21,.38,.52,.4,.84,.2,5.13,2.03,18.9,7.92,20.94,.4,.14,.69,.48,.78,.89,.75,3.76-.3,7.43-3.04,10.62-4.34,5.05-12.86,8.53-20.66,8.53"/>
        </g>
        <g id="Hand_1" data-name="Hand 1">
          <path id="Fill_29" data-name="Fill 29" class="cls-6" d="M165.17,159.97c-.06-.49,.28-.94,.77-1.01,.5-.07,.96,.27,1.03,.77,.69,4.78,1.3,9.55,1.87,14.34,.55,4.79,1.05,9.59,1.39,14.42,0,0,0,.01,0,.02,.03,.62-.44,1.14-1.06,1.18-.62,.03-1.14-.44-1.18-1.06h0c-.26-4.78-.68-9.56-1.17-14.33-.49-4.77-1.04-9.55-1.65-14.31h0Z"/>
          <path id="SKIN_7" data-name="SKIN 7" class="cls-7" d="M41.99,241.87c-.78,3.45,4.75,3.75,12.44,2.3,0,3.69,.53,7,1.16,8.98,1.05,3.29,4.51,6.22,7.1,3.52,7.79-8.12,13.89,3.17,25.69,.09,13.81-3.61,76.22,5.42,96.48-1.13,11.85-3.83,28.59-10.08,30.18-63.34,0,0-37.23-3.15-45.93-3.75-.08,5.04,.08,24.31-4.44,27.51-5.67,4.02-104.55,6.22-108.66,17.82-.05,.14-.09,.28-.13,.42-5.81,2.18-13.19,4.46-13.89,7.57"/>
          <path id="Fill_33" data-name="Fill 33" class="cls-7" d="M67.98,250.14c-.42,1.77-.41,4.45-.2,5.91,.53,3.61,1.55,5.61,3.83,5.36,1.68-.19,2.5-1.4,2.5-4.62,0-3.56,1.11-5.66,2.24-6.66"/>
          <path id="Fill_35" data-name="Fill 35" class="cls-7" d="M68.86,246.14c-.97,2.92-1.33,7.62-.93,10.84,.4,3.25-2.41,4.08-4.56,1.83-1.99-2.08-2.77-9.39-1.8-16.07"/>
          <path id="Fill_37" data-name="Fill 37" class="cls-6" d="M43.3,243c-1.16-2.81,6.48-5.05,10.8-6.76-.55,2.32-.81,4.69-.86,6.95-6.06,1.05-9.11,.65-9.94-.18m13.42,9.8c-1.51-5.03-1.57-13.08,.41-18.52,.28-.79,1.47-1.98,5.31-3.37,17.7-5.72,47.84-7.5,68.85-9.52,20.87-1.8,31.86-2.8,34.05-4.36,4.13-2.92,4.81-15.45,4.92-27.21,9.36,.68,37.53,3.05,43.53,3.56-1.8,52.23-18.34,57.57-29.32,61.12-16.84,6.36-77.18-2.36-96.41,1.1-5.07,1.33-8.88-.15-12.67-1.54,.22-1.19,.74-2.49,1.58-3.26,.37-.35,.39-.94,.03-1.31-1.59-1.16-2.88,2.06-3.32,3.11-1.06,2.26-.06,5.36-1.51,7.32-1.7,.99-2.51-1.1-3.02-2.48-.34-3.67-.44-7.51,.43-11.09,.1-.41-.16-.83-.58-.93-1.52-.17-1.83,3.69-2.04,4.83-.55,3.05-.04,6.38-.41,8.17-.42,.73-1.23,.4-1.9-.04-1.12-.8-1.48-2.17-1.85-3.47-.94-3.94-1-8.09-.63-12.15,.02-.75-1.14-.86-1.27-.12-.81,4.54-1.06,9.27,.04,13.81-1.92,.46-3.49-1.56-4.25-3.65m-15.89-11.18c-.77,6.06,8,4.58,12.43,3.98,.21,6.07,1.77,14.46,8.57,13.07,1.05,1.98,3.89,3.55,6,1.99,1.1,2.14,4.14,2.78,6,1.11,1.47-1.47,1.38-3.43,1.38-5.25,3.74,1.38,7.99,2.83,13.48,1.39,13.72-2.62,52.15,1.86,70.95,1.36,44.35,1.82,54.97-19.96,56.6-66.95,.02-.63-.46-1.16-1.09-1.22-.37-.03-37.33-3.16-45.94-3.75-1.42-.02-1.31,1.39-1.29,2.5-.16,15-1.47,23.49-3.92,25.23-18.11,3.79-83.58,6.92-103.37,13.8-3.87,1.34-5.3,2.93-5.68,4.49-.22,.09-.17,.06-.26,.09-5.6,2.05-13.25,4.57-13.85,8.14"/>
        </g>
      </g>
    </g>
    <g id="Head">
      <g id="Head_Bun_2" data-name="Head/Bun 2">
        <g id="Bun">
          <path id="SKIN-4" data-name="SKIN" class="cls-7" d="M116.3,56.86c-.31,21.97,3.91,47.5,20.31,49.61,32.15,4.13,40.39-19.06,41.14-31.92,7.76,0,8.77-4.08,8.77-8.31s-3.29-7.19-9.56-6.64c1.19-17.52-10.18-26.51-20.62-28.9-12.7-2.91-39.68-.74-40.05,26.15"/>
          <path id="ink" class="cls-6" d="M165.17,98.98c9.79-8.11,11.25-20.8,11.47-24.5,.03-.59,.52-1.05,1.12-1.05,7.06,0,7.65-3.55,7.65-7.19,0-1.59-.55-2.94-1.59-3.9-1.1-1.01-2.72-1.57-4.72-1.67-.65,.05-1.32,.09-2.02,.07-8.69,.53-29.73-12.43-31.49-29.87-6.82,.25-14.09,2.06-19.37,6.22-5.71,4.48-8.66,11.14-8.78,19.78-.12,8.81,.44,21.5,3.84,31.89,3.3,10.11,8.51,15.7,15.5,16.59,11.9,1.53,21.46-.62,28.42-6.38Zm-13.53-84.92c7.55-2.42,23.13-4.52,32.17,7.48,6.39,8.48,7.12,18.41,7.49,24.57,.09,.52,.17,1.04,.2,1.59,.15,2.8,1.11,5.71,2.1,8.73,.82,2.49,1.66,5.04,2.1,7.68,1.98-1.41,4.7-2.31,7.14-3.12,.9-.3,1.75-.58,2.52-.87,3.86-1.46,8.56-.98,11.65,1.75,3.1,2.73,4.08,7.79,1.75,11.19,5.31-1.06,11.15,1.89,13.44,6.79,2.3,4.9,.83,11.28-3.38,14.68-4.21,3.4-9.02,4.8-13.33,1.53-.88,10.35-11.16,9.56-14.67,7.71-5.96-3.14-7.26-8.87-8.42-13.99-.82-3.63-1.57-6.94-3.87-8.81-1.69,.78-3.47,1.69-5.62,5.67-3.15,5.81-7.75,9.12-13.02,10.88-.99,1.12-2.08,2.19-3.3,3.2-5.92,4.9-13.53,7.37-22.69,7.37-2.37,0-4.85-.17-7.44-.5-10.54-1.36-15.94-11.55-18.67-22.96-.23-.23-.45-.44-.67-.64-9.73-8.85-7.51-17.97-5.68-25.53,.9-3.71,1.71-7.04,.97-9.78-4.48-16.56-4.6-31.99,15.74-38.62,10.13-3.3,15.79-2.79,23.47,4Zm27.25,53.23c-1.18-.71-1.82-2.83,.91-2.56,.56,.06,1.41,1.1,.94,2.04-.17,.33-1.22,.9-1.85,.52Z"/>
          <path id="band" class="cls-4" d="M188.2,81.06c-1.19,9.04,9.52,4.54,11-1.38,2.36-3.89,5.19-22.04-3.81-16.96,.56,2.58,1.07,5.63,.09,8.82-.94,4.31-3.44,8.46-7.28,9.53"/>
        </g>
      </g>
    </g>
    <g id="Face">
      <g id="Face_Grinning" data-name="Face/Grinning">
        <g id="grinning">
          <path id="face" class="cls-6" d="M127.4,56.58c-3.5-1.11,1.67-3.51,3.3-3.14,1.27-.36,6.71,1.73,3.51,2.68-1.8-.55-3.57-.19-5.34,.18-.49,.1-.98,.2-1.46,.28Zm-1.39,7.44c2.07-3.04,6.56-2.38,8.7,.32,.31,.32,.83,.33,1.15,.02,.83-2.22-3.52-4.62-5.53-4.69-2.07-.56-8.07,2.33-5.71,4.71,.5,.24,1.09,.08,1.39-.36Zm13.91,1.62h0c.06-.77,.11-1.54,.18-2.31,2.58-3.83,1.49,7.7,1.27,8.75-.08,1.1-.93,1.57-1.78,2.02-1.03,.56-2.04,1.1-1.55,2.8,.53,1.05,2.34,1.21,3.55,1.24,1.44,0,1.43,2.26-.01,2.24-6.2,.7-8.49-6.31-2.4-8.64,.43-1.99,.58-4.06,.73-6.11Zm13.36-2c2.2-.21,4.28,1,5.52,2.7,.1,.18,.23,.39,.38,.62h0c.69,1.08,1.61,2.54,.39,3.26-.8,.26-1.26-.52-1.82-1.48-.78-1.34-1.77-3.03-4.2-2.72-.64,.1-1.18,.4-1.57,.84-2.85,1.57-3.18-2.86,1.31-3.21Zm6.42-4.53h0c.83,.23,1.66,.46,2.5,.58,1.01,.17,1.58-1.21,.79-1.82-1.37-1.52-8.8-2.75-8.93-.07,.3,.61,.96,.6,1.62,.58,.36,0,.72-.02,1.01,.08,1.02,.09,2.02,.37,3.01,.65Zm-28.87,27.08c-2.9-.64-3.68,1.17-1.83,3.3,.26,.27,.57,.51,.9,.74,.24-1.36,.55-2.71,.93-4.04Zm3.04,1.96c.15-.46,.29-.91,.41-1.35-.83-.18-1.67-.34-2.49-.47-.24,1.51-.57,3-.98,4.47,.4,.22,.81,.42,1.23,.59,.4,.17,.82,.31,1.24,.45-.2-1.21,.21-2.47,.6-3.69Zm9.27,.2c-1.16-.1-2.32-.27-3.47-.46,.13,1.71,0,3.58-.68,5.16,.04,0,.08,0,.11,.01,.15,.02,.29,.03,.44,.05,1.23,.11,2.47,.16,3.7,.14-.17-1.63-.17-3.26-.11-4.9Zm1,.07c.17,1.59,.29,3.19,.23,4.79,1.17-.06,2.34-.17,3.49-.38-.06-.15-.5-4.36-.42-4.46-1.11,.1-2.21,.1-3.31,.04Zm6.67-.75c-.64,.26-1.29,.52-1.8,.5,0,0,0,0,0,0,0,0,0,0,0,0,.09,.07,.28,2.09,.39,3.35,.05,.55,.09,.95,.1,.98,1.08-.28,2.22-.66,3.13-1.27,1.38-.73,1.5-2.75,.5-3.8-.5-.47-1.4-.11-2.31,.26Zm-12.09,.03c-1-.19-2-.39-2.98-.6-.11,.48-.17,1.01-.23,1.54-.15,1.29-.3,2.63-1.12,3.52,1.25,.35,2.55,.59,3.86,.77-.17-.31-.15-.61-.14-.9,0-.1,0-.2,0-.3,.04-.36,.05-.72,.07-1.09,.05-1.01,.1-2.04,.54-2.95Zm12-2.03s.05-.02,.08-.03c.78-.31,1.59-.64,2.45-.33,13.7,12.68-33.88,13.01-26.47-.35,2.59-1.69,6.74-.77,11.14,.22,4.46,1,9.17,2.05,12.8,.5Z"/>
          <path id="dots" class="cls-4" d="M129.16,69.37c.84,0,.85-1.29,.01-1.3-.84,0-.85,1.29-.01,1.3Zm22.53,2.25c-1.13-.53-1.94,1.23-.82,1.75,1.13,.53,1.95-1.23,.82-1.75Zm4.11,1.42c-.83-.39-1.43,.9-.6,1.29,.83,.39,1.43-.9,.6-1.29Zm-3.34,6.11c1.37,.64,2.36-1.48,.99-2.12-1.37-.64-2.36,1.49-.99,2.12Zm6.28-.1c2.18-.37-.23-3.18-.98-1.39-.47,.71,.08,1.72,.98,1.39Zm-29.18-6.75c-1.38-.01-1.4,2.13-.02,2.15,1.38,.01,1.4-2.13,.02-2.15Zm-5.17-.41c.61,.63,1.46,.01,1.36-.76,.09-1.78-3.01-.4-1.36,.76Zm8.74-1.6c1.14,.01,1.16-1.76,.01-1.77-1.14,0-1.16,1.76-.01,1.77Z"/>
        </g>
      </g>
    </g>
  </g>
</svg>