<?xml version="1.0" encoding="UTF-8"?>
<svg id="Capa_1" data-name="Capa 1" xmlns="http://www.w3.org/2000/svg" xmlns:xlink="http://www.w3.org/1999/xlink" viewBox="0 0 804.5 985">
  <defs>
    <style>
      .cls-1 {
        stroke: #df6c57;
      }

      .cls-1, .cls-2, .cls-3, .cls-4, .cls-5, .cls-6, .cls-7, .cls-8, .cls-9 {
        stroke-miterlimit: 10;
      }

      .cls-1, .cls-2, .cls-4, .cls-5, .cls-6, .cls-7 {
        fill: none;
      }

      .cls-2 {
        stroke: #4100f4;
        stroke-linecap: round;
        stroke-width: 2px;
      }

      .cls-10 {
        filter: url(#drop-shadow-1);
      }

      .cls-11 {
        fill: #af93c4;
      }

      .cls-3 {
        fill: #ffc862;
      }

      .cls-3, .cls-4, .cls-9 {
        stroke: #ff7439;
      }

      .cls-5 {
        stroke: #ee733f;
      }

      .cls-6 {
        stroke: #f6a232;
      }

      .cls-12 {
        fill: #4100f4;
      }

      .cls-7 {
        stroke: #ffa42b;
      }

      .cls-13 {
        fill: #ffd2d7;
      }

      .cls-8 {
        stroke: #1c3076;
      }

      .cls-8, .cls-9, .cls-14 {
        fill: #1c3076;
      }

      .cls-15 {
        fill: #ffa42b;
      }

      .cls-16 {
        fill: #ffe9eb;
      }

      .cls-17 {
        fill: #df6c57;
      }

      .cls-18 {
        fill: #ff7439;
      }
    </style>
    <filter id="drop-shadow-1" filterUnits="userSpaceOnUse">
      <feOffset dx="7" dy="7"/>
      <feGaussianBlur result="blur" stdDeviation="5"/>
      <feFlood flood-color="#000" flood-opacity=".3"/>
      <feComposite in2="blur" operator="in"/>
      <feComposite in="SourceGraphic"/>
    </filter>
  </defs>
  <g class="cls-10">
    <path class="cls-12" d="M72,939.71c.35,9.33-2.34,15.14-13.46,13.14-8.69-1.56-13.35,5.63-19.17,10.13-10.52,8.13-12.22,7.62-18.26-3.82-2.42-4.59-5.84-8.66-8.94-12.87-1.55-2.11-3.81-3.77-5.05-6.02-2.76-4.98,4.57-36.31,9.78-38.35,5.86-2.31,5.94-5.75,4.99-10.44-2.12-10.52,1.41-17.62,12.13-20.63,7.14-2,10.42-6.18,13.24-13.87,2.74-7.48,11.11-12.61,13.34-21.99,3.38-14.28,2.65-18.4-9.53-26.24-5.16-3.32-5.32-8.39-2.63-12.84,6.15-10.19,3.11-18.14-1.14-28.88-7.83-19.77-10.97-40.97-12.67-62.94-1.71-22.1,11.3-40.44,8.2-62.03-1.33-9.28,3.64-19.49,5.96-29.23,.42-1.77,1.71-3.28,1.01-5.3-5.56-16.22,1.53-32.7-.95-49-.9-5.93,3.34-9.53,6.61-13.71,7.29-9.34,16.29-17.96,14.33-31.66-1.49-10.37-8.13-13.17-17.14-8.2-7.68,4.23-16.25,1.57-23.94-1.09-3.69-1.28-2.46-6.01-1.14-9.12,5.11-12.05,6.13-24.48,4.44-37.34-.59-4.49,.45-8.72,2.46-13.07,2.95-6.38,5.09-12.94,2.28-20.58-2.2-5.96,8-20.26,14.4-22.2,3.67-1.11,5.41,.86,7.15,3.72,5.88,9.7,16.99,9.47,21.86-.79,5.46-11.5,14.28-22.41,5.9-36.67-2.98-5.07,1.06-10.99,3.34-16.06,3.81-8.45,5.43-17.06,3.86-26.24-.25-1.46-.75-3.22-.22-4.43,10.15-22.85,3.88-48.18,11.63-71.99,4.5-13.84,5.71-30.63,4.46-46.35-.17-2.07-1.24-4.33-2.53-6.01-4.05-5.28-3.89-9.21,3.38-10.22,3.83-.53,6.27-2.9,5.53-5.63-2.36-8.69,2.37-17.07,.28-25.65-1.38-5.65,.39-11.37,5.05-14.07,10.04-5.82,11.68-15.41,11.67-24.97-.01-9.82,4.95-14.34,12.89-17.41,9.15-3.54,18.35-5.88,28.47-5.61,51.91,1.36,41.8-7.94,98.03,32.25,6.67-9.93,13.67-19.66,19.9-29.86,5.47-8.95,12.88-14.17,23.14-16.29,13.95-2.89,27.74-6.59,41.64-9.72,31.54-7.1,51.02-28.31,64.41-55.98,3.53-7.29,6.09-11.01,13.61-5.31,.89,.67,2,1.69,2.91,1.6,31.06-2.98,35.01,26.42,49.43,42.51,17.73,19.77,18.31,44.15,11.21,69.04-1.97,6.9,.75,12.66,5.58,18.44,11.11,13.31,22.25,27.05,18.01,46.53-3.32,15.25,1.43,25.78,16.76,31.86,7.22,2.87,11.92,9.36,7.49,18.26-1.81,3.63-1.8,7.1-.1,10.84,1.07,2.36,2.59,5.48,1.86,7.56-5.19,14.92,1.71,28.13,4.92,41.95,.78,3.35,.89,7.5,3.4,9.21,10.38,7.06,6.57,13.62,1.87,22.54-12.95,24.58,5.88,50.58,34.4,49.22,23.47-1.12,46.77-4.88,68.31-13.22,17.76-6.88,28.47,.13,39.75,10.69,4.95,4.63,9.73,9.46,14.36,14.41,7.29,7.82,7.87,15.87,5.02,26.76-7.3,27.98-20.62,53.69-28.03,81.76-5.82,22.02-13.55,44.02-21.65,65.61-3.62,9.64-6.63,19.51-10.48,29.08-6.01,14.92-17.92,18.04-29.48,20.64-13.86,3.12-25.91,9.67-38.61,15.01-6.09,2.56-11.67,6.52-18.25,7.85-19.55,3.95-35.82,16.47-55.04,21.05-14.02,3.34-27.64,7.09-38.2,17.71-.25,.25-.86,.28-.96,.54-3.92,10.32-9.76,16.68-21.81,11-.3-.14-1.91,1.3-2.04,2.14-3.12,19.42-20.14,29.66-29.74,44.8-4.68,7.38-3.71,12.43,3.26,15.54,9.94,4.44,15.93,12.26,21.03,21.05,2.82,4.86,6.98,8,11.52,10.47,5.12,2.79,9.14,6.1,7.51,12.17-1.66,6.21-6.4,10.33-12.85,11.2-3.6,.49-7.47-.3-11.1-1.06-2.88-.6-6.79-.41-6.9,1.83-.43,8.94-10.9,12.95-9.85,22.76,1.15,10.76-9.92,11.93-15.96,15.97-10.69,7.15-23.49,9.91-36.51,9.84-7.25-.04-14.24,.98-21.13,3.07-.73,.08-1.45,.16-2.18,.24-11.97-2.33-11.65,5.44-10.22,13.12,1.25,6.69,1.71,12.49-5.68,15.79-1.64-.25-2.17,.44-1.68,1.99q-2.58,18.47-20.22,22.41c-4,.89-8.02,1.64-12.04,2.46-1.51,.03-3.02,.07-4.53,.1-3.34-.23-6.67-.7-10.01-.65-20.85,.27-41.75,1.04-61.7-6.77-4.69-1.84-9.47-1.65-14.32-1.06-1.44-.45-2.61-.12-3.45,1.18-15.4,5.03-27.47,17.52-44.14,19.68-.8,.35-1.59,.7-2.39,1.05-6.98-.38-13.83-1.29-20.76-2.48-11.44-1.97-21.77,5.79-32.63,9.22-6.37,2.01-12.52,4.73-18.76,7.12-.75-.07-1.5-.13-2.25-.2-4.43-1.64-8.24-5.35-13.55-4.03-2.09,.63-2.24,2.23-2,4.02Zm422.74-284.79c1.04,1.11,1.74,.79,2.18-.53,23.96-5.79,45.29-18.74,68.99-25.39,7.74-2.17,15.05-6.22,22.48-9.54,11.89-5.31,23.26-12.38,36.69-13.97,17.99-2.14,27.57-14.79,32.5-30.1,8.12-25.17,16.25-50.42,23.69-75.7,9.02-30.67,22.52-59.66,30.66-90.51,1.6-6.06-.54-10.43-4.54-14.1-8.3-7.63-16.87-14.98-25.43-22.32-2.57-2.2-5-3.35-9.1-1.9-22.06,7.8-45.08,11.63-68.05,15.78-18.06,3.26-34.24-.55-49.25-10.43-2.43-1.6-5.71-3.99-6.04-6.37-2.09-15.06-8.08-30.28-.34-45.33,2.27-4.42,2.68-7.62-.43-12.16-7.7-11.23-6.55-25.95-13.77-37.58-.77-1.23-.32-4.03,.6-5.38,8.51-12.44-5.07-25.58,1.25-38.2,.64-1.28-2.78-3.74-5.03-5.35-22.64-16.23-22.63-13.06-19.02-37.66,2.52-17.18-5.97-29.14-15.1-40.48-6.47-8.04-9.73-15.76-8.84-25.48,.55-5.98,2.1-11.87,2.9-17.84,1.76-13.21,.93-25.02-6.94-37.49-9.87-15.65-20.57-30.38-32.41-44.46-4.65-5.54-21.45-4.17-25.29,2.11-13.94,22.79-31.01,42.19-56.95,51.81-18.84,4.4-37.73,8.58-56.48,13.33-5.91,1.49-10.45,5.68-13.77,10.97-5.37,8.53-10.99,16.91-16.16,25.55-6.53,10.89-12.44,11.96-22.48,4.19-15.65-12.12-31.18-24.54-51.47-28.24-14.38-2.04-28.77-1.98-43.16-.01-2.15,.61-4.27,1.4-6.46,1.81-12.26,2.32-20.25,6.98-19.64,22.13,.31,7.6-2.11,17.37-11.75,21.37-2.7,1.12-3.56,3.59-3.67,6.45-.57,14.9,3.1,30.41-6.32,44.03,1.14,36.47-13.36,71.6-9.31,108.35,.37,3.38-.61,6.74-3.55,9.08-1.77,.86-4.59,.97-3.04,4.22,.13,1.7,.26,3.4,.39,5.09,.83,2.19,1.67,4.39,2.5,6.58-3.53,11.69-11.88,24.5-9.48,34.81,3.65,15.72,.08,27.54-6.37,40.61-5.77,11.69-18.27,17.6-31.12,15.02-3.97-.8-4.46-11.49-10.75-3.66-3.73,4.64,.24,9.41-.3,14.11-.21,1.85,.62,4.16-.21,5.55-9.15,15.35-3.12,32.95-7.34,49.03-.76,2.89-3.88,7.27,2.07,9.36,4.58,1.61,5.91-1.59,7.83-4.38,2.49-3.63,5.87-4.17,9.94-2.8,13.83,4.67,18.77,12.08,19.67,26.68,.65,10.58-3.84,18.48-9.36,26.79-4.23,6.37-12.23,10.64-12.53,19.23-.71,20.69,1.29,41.36-1.44,62.16-1.09,8.29-6.55,15.65-5.06,23.86,3.58,19.76-6.8,37.66-6.32,57.66,.39,16.33,5.54,30.99,6.57,46.54,.73,11.08,12.28,17.42,10.74,28.92-1.37,10.21-6.89,21.44,6.38,28.44,.51,.27,.71,1.31,.85,2.03,3.72,18.04,2.59,34.84-12.3,48.16-1.05,.94-2.68,2.67-2.4,3.46,4.69,13.21-6.63,13.3-13.51,15.35-9.07,2.71-12.4,7.48-10.26,16.44,1.58,6.61,2.62,12.73-6.78,14.52-2.95,.56-3.17,3.66-2.32,6.58,.96,3.3,1.85,7.5-.95,9.63-9.28,7.06-4.32,12,1.39,17.84,3.56,3.65,5.95,8.45,9,12.93,6.69-5.31,12.41-12.16,21.03-12.62,6.66-.36,9.19-1.93,10.9-9.04,1.33-5.52,5.38-18.07,13.41-11.5,11.87,9.71,19.93,3.4,30.5,.04,12.5-3.98,24.22-14.01,38.64-8.49,12.66,4.85,24.54,1.04,33.94-5.68,20.89-14.95,41.86-16.14,65.85-8.83,22.93,6.99,46.79,5.28,70.18-.41,3.96-.96,7.39-2.53,7.96-6.79,1.16-8.74,4.83-16.88,6.37-25.36,3.24-17.85,3.47-17.72,22.09-20.81,14.74-2.45,30.25,.29,44.29-6.32,9.37-4.41,21.07-7.78,23.12-19.22,3.23-18.06,11.8-26.53,31.06-26.4,2.53,.02,4.95-.89,5.83-2.73,1.19-2.49-1.52-3.99-3.33-4.97-6.62-3.58-10.39-9.56-14.22-15.67-3.61-5.76-8.16-10.58-14.37-14-14.51-7.98-15.13-17.62-5.63-31.36,5.73-8.3,12.75-15.61,18.06-24.42,3.68-6.1,8.8-10.89,10.06-18.67,.95-5.87,6.44-6.46,11.74-6.14,2.53,.15,5.21,3.15,7.69-1.14,5.09-8.77,14.34-13.01,22.08-18.89,2.95-3.5,1.22-7.56,1.39-11.4,0,0,0-.05,0-.05,3.51,2.12,1.53,6.17,3.14,8.95,.54,.13,1.05,.35,1.52,.64Z"/>
    <path class="cls-18" d="M488.68,656.77c-7.73,5.88-16.99,10.12-22.08,18.89-2.49,4.29-5.16,1.29-7.69,1.14-5.29-.32-10.79,.27-11.74,6.14-1.26,7.78-6.38,12.57-10.06,18.67-5.31,8.8-12.33,16.12-18.06,24.42-9.49,13.73-8.88,23.38,5.63,31.36,6.22,3.42,10.76,8.24,14.37,14,3.83,6.11,7.6,12.08,14.22,15.67,1.81,.98,4.52,2.48,3.33,4.97-.88,1.84-3.31,2.75-5.83,2.73-19.26-.13-27.83,8.34-31.06,26.4-2.05,11.43-13.75,14.81-23.12,19.22-14.04,6.6-29.55,3.87-44.29,6.32-18.62,3.09-18.85,2.95-22.09,20.81-1.54,8.49-5.21,16.62-6.37,25.36-.57,4.26-4,5.82-7.96,6.79-23.39,5.69-47.25,7.4-70.18,.41-23.99-7.31-44.96-6.12-65.85,8.83-9.4,6.72-21.28,10.53-33.94,5.68-14.41-5.52-26.13,4.51-38.64,8.49-10.58,3.36-18.64,9.67-30.5-.04-8.03-6.57-12.08,5.98-13.41,11.5-1.71,7.11-4.24,8.68-10.9,9.04-8.62,.46-14.34,7.31-21.03,12.62-3.05-4.48-5.43-9.28-9-12.93-5.71-5.85-10.67-10.79-1.39-17.84,2.8-2.13,1.91-6.33,.95-9.63-.84-2.92-.63-6.02,2.32-6.58,9.4-1.79,8.36-7.91,6.78-14.52-2.14-8.96,1.19-13.73,10.26-16.44,6.88-2.05,18.2-2.15,13.51-15.35-.28-.78,1.35-2.52,2.4-3.46,14.89-13.31,16.01-30.12,12.3-48.16-.15-.72-.35-1.77-.85-2.03-13.27-7-7.75-18.22-6.38-28.44,1.54-11.51-10.01-17.85-10.74-28.92-1.03-15.55-6.18-30.21-6.57-46.54-.48-20,9.9-37.91,6.32-57.66-1.49-8.21,3.97-15.57,5.06-23.86,2.73-20.8,.73-41.47,1.44-62.16,.3-8.59,8.3-12.86,12.53-19.23,5.51-8.31,10.01-16.21,9.36-26.79-.9-14.6-5.84-22.01-19.67-26.68-4.07-1.37-7.45-.84-9.94,2.8-1.92,2.79-3.25,5.99-7.83,4.38-5.95-2.09-2.83-6.48-2.07-9.36,4.22-16.08-1.81-33.68,7.34-49.03,.83-1.39,0-3.7,.21-5.55,.54-4.7-3.43-9.47,.3-14.11,6.29-7.82,6.79,2.87,10.75,3.66,12.84,2.58,25.34-3.33,31.12-15.02,6.45-13.06,10.02-24.88,6.37-40.61-2.39-10.31,5.95-23.12,9.48-34.81,2.76-5.04,7.72-7.39,12.12-10.65,8.37-6.19,20.17-6.99,26.12-16.79,0,0,.01-.01,.01-.01,.83,.27,1.67,.54,2.5,.81,5.5-2.11,5.35,4.9,9.08,5.64-1.65,7.07-8.51,4.06-12.68,6.33-9.48,5.16-10.65,10.25-1.95,16.16,4.98,3.39,9.4,7.26,13.46,11.54,7.13,7.52,6.26,20.57,17.4,25.41-.15,2.62-.74,5.31,1.27,7.57,1.25,3.63,3.52,5.05,7.23,3.3,3.72-.01,7.44-.03,11.16-.04,.81-.06,1.63-.11,2.44-.17l1.1,.08,.94-.58c4.55-.12,9.1-.24,13.65-.36,11.43-.3,22.88-.31,34.29-1.03,6.03-.38,12.53,2.4,18.07-2.16,10.89-13.53,16.89-30.44,29.54-42.76,1.41-.32,2.82-.63,4.23-.95,4.42,1.02,8.85,2.03,13.27,3.05,1.14,1.75,2.82,2.5,4.84,2.62l.69,.35c14.32,2.48,26.67,9.29,38.88,16.81,6.47,3.99,7.39,7.22,2.14,12.74-6.35,6.67-5.56,12.5,2.74,17.19,2.56,1.45,4.45,4.05,6.9,5.76,5.25,3.67,8.77,6.46,4.42,14.31-3.79,6.84,.87,14.39,5.53,20.43,3.85,4.98,8.38,2.37,13.22,1.22,6.8-1.62,11.09,.05,9.95,9.12-.85,6.79-5.01,10.41-8.69,15.08-11.29,14.32-22.1,29-10.98,48.48,2.06,3.61,.41,6.24-1.68,9.18-5.54,7.78-7.79,16.74-4.19,25.57,3.31,8.1,1.57,14.76-.82,22.56-2.22,7.23-8.6,15.7,.55,23.08,4.24,6.58,10.28,10.16,18.07,10.82l.76,.52c3.48,8.82,11.95,8.46,18.81,8.69,13.45,.45,26.68,.82,39.03,6.95,3.53,5.72,9.91,8.06,14.66,12.34,2.51,7.91,10.67,8.67,16.23,12.68,4.75,3.43,10.96,5.47,9.95,13.15,0,0,0,.05,0,.05-3.49,3.43-1.07,7.58-1.39,11.4Z"/>
    <path class="cls-11" d="M463.89,621.15c-4.74-4.28-11.13-6.61-14.66-12.34-4.45-9.15-12.79-11.06-21.75-11.22-12.21-.21-24.45,.25-36.09-4.41,0,0-.76-.52-.76-.52-.51-4.92-5.37-5.62-8.29-7.88-4.45-3.42-8.41-6.74-9.57-12.48,4.88-11.92,10.75-23.35,5.11-37.14-2.97-7.26-2.27-15.39,3.19-22.37,2.41-3.08,5.89-6.62,3.14-11.15-12.38-20.33-.44-34.56,12.05-48.63,4.59-5.17,8.45-10.55,8.03-17.94-.39-6.86-10.36-15.16-15.4-11.78-4.67,3.12-7.42,3.69-10.97-.48-3.59-4.21-6.73-10.04-3.87-14.27,6.74-9.99,1.76-14.21-6.17-19.09-8.33-5.12-15.48-11.41-5.57-21.71,4.84-5.03,2.11-9.01-2.6-11.73-12.54-7.26-23.84-17.19-39.13-18.69-7.02-3.49-14.28-6.26-22.11-7.28h-.13c-2.67-3.01-6.22-1.35-9.38-1.73-.44-.49-.97-.65-1.61-.46-2.36-1.94-1.04-3.98-.18-6.02,12.94-12.5,22.99-27.06,30.89-43.17,.82-.88,1.64-1.76,2.47-2.64,6.98-.55,5.28-5.44,3.86-9.05-2.84-7.23-1.19-13.03,4.1-18.22-.41-.72-.82-1.44-1.24-2.15l.05-.04c8.71-2.63,14.06-7.27,17.84-15.48,7.19-5.16,8.87-15.3,17.4-19.24,4.55-8.28,13.14-13.52,16.84-22.44,3.76-.7,6.61-1.35,3.69-6.47-3.99-6.98-4.1-15.28-3.12-22.71,1.22-9.26-.6-14.76-9.61-18.56-6.56-2.77-9.38-8.7-9.23-16.55,.17-8.82,4.56-16.62,4.68-25.3-1.12-7.79,5.27-14.07,4.39-21.81,25.94-9.62,43.01-29.02,56.95-51.81,3.84-6.28,20.63-7.65,25.29-2.11,11.83,14.08,22.53,28.81,32.41,44.46,7.87,12.47,8.7,24.28,6.94,37.49-.79,5.97-2.35,11.86-2.9,17.84-.89,9.73,2.37,17.45,8.84,25.48,9.13,11.34,17.62,23.3,15.1,40.48-3.61,24.59-3.62,21.42,19.02,37.66,2.25,1.61,5.67,4.07,5.03,5.35-6.32,12.62,7.25,25.77-1.25,38.2-.93,1.35-1.37,4.15-.6,5.38,7.22,11.63,6.07,26.35,13.77,37.58,3.11,4.53,2.7,7.74,.43,12.16-7.73,15.05-1.74,30.27,.34,45.33,.33,2.38,3.61,4.77,6.04,6.37,15.02,9.89,31.19,13.69,49.25,10.43,22.97-4.15,45.99-7.98,68.05-15.78,4.1-1.45,6.53-.3,9.1,1.9,8.56,7.34,17.12,14.69,25.43,22.32,4,3.68,6.14,8.04,4.54,14.1-8.14,30.85-21.64,59.84-30.66,90.51-7.43,25.28-15.57,50.53-23.69,75.7-4.94,15.31-14.51,27.96-32.5,30.1-13.43,1.59-24.79,8.66-36.69,13.97-7.43,3.32-14.74,7.36-22.48,9.54-23.7,6.64-45.02,19.6-68.99,25.39-.73,.18-1.46,.36-2.18,.53-.47-.29-.98-.51-1.51-.63,1.77-8.43,3.58-16.91-5.62-22.59-7.59-4.68-14.78-10.15-23.72-12.21Z"/>
    <path class="cls-13" d="M370.17,76.34c.88,7.74-5.51,14.02-4.39,21.81-14.16,11.71-12.65,36.91,2.65,46.52,3.09,1.94,8.59,2.01,7.03,8.3-2.64,10.64,.52,20.65,3.82,30.61-6.6,8.23-18.14,13.35-16.75,26.61-8.53,3.95-10.21,14.08-17.39,19.24-7.04,3.9-15.33,6.35-17.84,15.48,0,0-.05,.04-.05,.04-.7-.06-1.4-.12-2.11-.18-8.36,3.68-8.1,10.79-6.43,17.82,.94,3.93,2.59,7.63,1.81,11.79-.82,.88-1.64,1.76-2.46,2.64-6.4,2.25-9.64,7.85-13.22,12.9-6.62,9.35-12.18,19.46-20.52,27.52-.8,.73-1.59,1.46-2.39,2.2l.06-.07c-7.03,6.98-6.02,9.1,6.46,13.58-10.12,5.2-14.48,15.31-19.39,24.41-6.07,11.24-12.61,18.55-27.13,16.92-10.53-1.18-21.69-2.24-32.21,1.8-8.61-.1-17.22-.1-25.83-.35-2.71-.08-5.46,.86-7.3-3.19-7.55-16.61-15.79-32.92-32.12-43-6.57-4.05-4.63-6.45,1.24-8.45,4.96-1.69,10.1-2.95,14.82-5.14,3.2-1.48,7.66-3.95,1.23-7.55-2.74-1.88-5.08-3.88-6.93-6.93-2.99-4.93-7.04-4.96-10.59-.02-.21,.23-.6,.46-.59,.67,.04,.5,.26,.99,.41,1.49,0,0-.01,.01-.01,.01-15.61,2.99-27.9,12.46-40.74,20.86-.13-1.7-.26-3.4-.39-5.09,1.01-1.41,2.03-2.82,3.04-4.23,2.94-2.34,3.92-5.71,3.55-9.08-4.05-36.74,10.44-71.88,9.31-108.35,9.43-13.62,5.76-29.14,6.32-44.03,.11-2.87,.97-5.33,3.67-6.45,9.64-4,12.06-13.77,11.75-21.37-.61-15.16,7.38-19.82,19.64-22.13,2.19-.41,4.31-1.2,6.46-1.81,14.38,3.65,28.77,3.62,43.16,.01,20.29,3.7,35.82,16.12,51.47,28.24,10.04,7.77,15.95,6.7,22.48-4.19,5.18-8.64,10.8-17.02,16.16-25.55,3.32-5.29,7.86-9.48,13.77-10.97,18.75-4.74,37.64-8.93,56.48-13.33Z"/>
    <g>
      <path class="cls-8" d="M80.98,754.15s31.9-41.01,31.9-68.35c0,0,3.42-2.28,3.42-9.68,0,0,3.99-4.56,6.83-37.02,0,0,1.71-12.53,1.14-21.64,0,0,12.53-9.11,22.21,5.13,0,0,21.07,29.05,8.54,58.66l2.85,21.07,1.13,4.19s12.54-20.14,10.26-36.09c0,0,1.71-23.92,11.39-44.43l3.99-33.6s1.14-24.49,6.27-39.3c0,0-1.14-39.3,14.24-37.02,0,0,9.68,2.85,8.54,18.23l-.57,19.93s1.33,15.56,.66,37.4c0,0,1.62,16.14,1.05,28.1,0,0,0,3.99,2.28,3.99s2.28-17.09,2.28-17.09c0,0,1.14-13.1,1.71-22.21,0,0,.57-26.2,1.14-35.31,0,0,.41-30.95,7.61-33.13,0,0,11.75-5.03,14.6,9.78,2.85,14.81,2.28,26.77,2.28,26.77,0,0,4.56,33.6,4.56,43.86,0,0,2.28,23.35,2.85,31.33,0,0,1.14,3.99,2.28-.57,1.14-4.56,.57-26.77,.57-26.77,0,0-1.14-31.9-1.71-34.74,0,0-2.28-31.9,.57-35.31,0,0,4.56-7.97,13.1-1.71,0,0,5.13,10.25,9.11,36.45l5.13,34.17s3.42,15.38,4.56,31.33c0,0,0,3.42,2.28,3.42v-7.63l-1.14-27.68s-4.56-23.92-2.85-31.33c1.71-7.4,9.68-5.13,9.68-5.13,0,0,7.4,1.14,10.25,23.92,0,0,6.83,25.06,7.97,38.73,0,0,3.99,21.64,5.7,29.05,1.71,7.4,7.97,26.77,11.39,47.84,0,0,11.1,37.1,9.54,45.61,0,0-22.36-4.52-54.68,0-32.32,4.52-36.88,2.24-36.88,2.24,0,0-25.06-5.7-51.83-.57,0,0-11.39,9.11-41.58,3.99-30.19-5.13-74.61,1.14-74.61,1.14Z"/>
      <path class="cls-17" d="M213.12,554.23c-1.1-1.03-2.58-1.42-4-1.78-4.39-.95-8.9-.68-13.37-.79,.74-.18,1.48-.31,2.23-.46,4.65-.64,11.94-1.04,15.14,3.02h0Z"/>
      <path class="cls-17" d="M213.78,591.63c-6.74-1.65-13.72-1.17-20.6-1.51,6.77-1.05,14.26-1.47,20.6,1.51h0Z"/>
      <path class="cls-17" d="M213.78,588.72c-6.68-2.04-13.66-2.4-20.6-2.04,6.76-1.76,14.39-1.33,20.6,2.04h0Z"/>
      <path class="cls-17" d="M246.73,551.38c-5.94-1.12-12.25-.54-18.24,0,5.8-1.92,12.53-2.49,18.24,0h0Z"/>
      <path class="cls-17" d="M251.26,594.97c-1.49-1.09-3.36-1.39-5.13-1.71-5.46-.79-10.98-.36-16.49-.3,.9-.21,1.82-.36,2.73-.54,5.55-.78,14.52-1.54,18.89,2.55h0Z"/>
      <path class="cls-17" d="M251.26,598.46c-6.96-2.23-14.41-1.42-21.62-1.45,.89-.21,1.8-.35,2.7-.53,6.24-.79,13.26-1.22,18.92,1.98h0Z"/>
      <path class="cls-17" d="M277.83,563.6c-5.53-.9-11.06-.05-16.58,.6,5.17-2.01,11.36-2.87,16.58-.6h0Z"/>
      <path class="cls-17" d="M283.54,600.92c-6.07-2.01-12.66-1.3-18.88-.42-.9,.14-1.8,.31-2.72,.42,6.77-2.45,15.04-3.64,21.6,0h0Z"/>
      <path class="cls-17" d="M282.76,596.41c-6.24-1.9-13.15-.73-19.51,0,6.13-2.1,13.59-3.26,19.51,0h0Z"/>
      <path class="cls-17" d="M290.01,627.69c5.4-1.99,11.48-2.52,17.09-1.13-5.75,0-11.36,.48-17.09,1.13h0Z"/>
      <path class="cls-17" d="M290.01,625.08c4.76-1.98,10.38-2.95,15.38-1.31-5.21-.25-10.21,.66-15.38,1.31h0Z"/>
      <path class="cls-17" d="M288.87,598.66c4.27-1.66,9.34-2.83,13.78-1.22-4.66-.21-9.12,.9-13.78,1.22h0Z"/>
      <path class="cls-17" d="M251.85,628.84c-9.11-.6-18.37-1.42-27.44,0,8.84-2.78,18.5-1.96,27.44,0h0Z"/>
      <path class="cls-17" d="M315.07,661.88c-16.82,2.07-25.07-13.03-25.06-27.91,.26,1.75,.51,3.49,.87,5.22,2.32,12.74,10.27,23.19,24.19,22.69h0Z"/>
      <path class="cls-17" d="M188.5,626.25c8.13-2.72,17.31-2.37,25.29,.72-8.32-1.74-16.88-2.09-25.29-.72h0Z"/>
      <path class="cls-17" d="M285.46,634.54c-8.32-2.02-16.95-1.7-25.41-.82,1.03-.29,2.08-.54,3.13-.78,7.35-1.4,15.32-1.39,22.28,1.6h0Z"/>
      <path class="cls-17" d="M155.03,681.24c-3.41-.15-6.76-.74-10.07-1.57-3.25-.91-6.69-1.88-9.3-4.13,6.12,2.89,12.9,3.74,19.37,5.7h0Z"/>
      <path class="cls-17" d="M321.91,701.75c-15.35,.14-30.81-.21-46.01-2.58-2.11-.4-4.95-.97-6.97-1.57-5.66-1.85-10.74-5.14-15.82-8.16-8.05-4.98-15.79-10.5-22.9-16.77-2.62-2.37-5.21-4.88-7.34-7.71-.76-.91-1.31-1.97-1.93-2.97,2.51,4.02,6.03,7.25,9.6,10.31,7.2,6.09,15.03,11.42,23.05,16.36,5.05,2.97,10.08,6.12,15.63,8,1.97,.59,4.8,1.19,6.85,1.58,15.15,2.43,30.53,3,45.85,3.5h0Z"/>
      <path class="cls-17" d="M181.51,691.21c19.04-1.11,41.53,3,54.24,18.43,1.74,2.24,3.22,4.66,4.42,7.2-1.41-2.44-2.95-4.78-4.8-6.89-13.28-14.83-34.83-18.52-53.87-18.74h0Z"/>
      <path class="cls-17" d="M217.68,631.69c3.68,7.4,5.26,16.25,3.25,24.36,.61-8.27-.87-16.46-3.25-24.36h0Z"/>
      <path class="cls-17" d="M256.41,633.54c3.67,9.2,7.06,18.79,12.85,26.9,.43,.51,.84,1.03,1.26,1.55-4.04-3.56-6.69-8.45-8.94-13.27-2.2-4.88-3.97-9.96-5.16-15.18h0Z"/>
      <path class="cls-17" d="M255.68,656.05c.74-8.15,.77-16.45-1.6-24.36,3.71,7.45,3.72,16.44,1.6,24.36h0Z"/>
    </g>
    <g>
      <path class="cls-15" d="M439.56,435.14c-2.19-3.06-1.35-7.34,1.86-9.32,5.57-3.43,15.74-9.49,31.08-17.87,25.02-13.66,26.97-15.66,35.03-19.35,16.76-7.66,38.18-36.16,56.47-47.65,.17-.1,.33-.21,.48-.34l43.42-33.86c1.72-1.34,3.98-1.7,6.05-1.04s4.8,1.09,7.7,.1c2.06-.7,4.35-.19,6.03,1.2l51.55,42.54c.77,.63,1.67,1.1,2.64,1.31,1.7,.36,6.74,3.14,21.67,17.24,18.22,17.21,29.37,20.77,32.47,21.46,.68,.15,1.31,.42,1.9,.78l48.93,29.98c.17,.1,.34,.2,.52,.28,.02,0,.03,.02,.05,.03,4.94,2.44,.54,15.33-4.5,17.56-17.48,7.73-55.28,15.88-147.78,27.79-144.44,18.61-185.12-16.23-195.6-30.86Z"/>
      <path class="cls-18" d="M682.07,391.57s18.18,15.93,27.36,17.07c9.18,1.14,27.53,15.93,27.53,15.93v-5.99s15.56,5.99,25.3,5.99,15.57,3.41,15.57,3.41l-35.87-13.66s31.7,9.11,37.54,7.97c5.84-1.14,9.64-.86,9.64-.86l-54.26-32.72s-32.95-14.23-46.29-27.89c0,0,11.82,15.93,28.85,30.73,0,0-28.01-15.93-47.2-36.42l13.35,20.49-15.85-14.8,10.84,17.07-38.37-35.28s36.2,48.94,41.88,48.94Z"/>
      <path class="cls-18" d="M477.51,407.32c4.35-.49,9.11-1.42,14.17-3.01,14.8-4.66,26.28-13.17,34.2-20.49l-35.87,37.56c9.21-4.26,18.88-7.82,30.03-15.93,8.22-5.98,20.44-13.35,26.69-19.35l-47.05,44.96s22.02-3.98,65.4-42.68c0,0-17.34,46.27-52.13,62.1-18.11,8.24-53.38,15.96-76.74-19.32,0,0,17.96-8.3,41.3-23.83Z"/>
      <path class="cls-18" d="M625.56,342.28s-6.26,11.95-6.67,51.22l6.67-51.22Z"/>
      <path class="cls-18" d="M652.67,405.45s-17.52-28.45-17.1-47.23l17.52,36.42-4.53-1.14,4.12,11.95Z"/>
      <path class="cls-18" d="M703.55,440.73s-19.18-12.52-26.69-28.45c0,0,19.2,22.76,29.62,18.78"/>
      <path class="cls-18" d="M608.88,354.8l-13.35,17.07s11.26-13.09,6.26,5.12l-9.18,43.25c.4-1.61,3.34-13.66,20.85-44.39,1.67,2.28,6.38,23.35,5.42,17.64-3.82-22.74-3.79-28.51-4.17-35.28l-5.84-3.41Z"/>
      <path class="cls-16" d="M600.3,396.69l9.59-44.96-13.35,17.07,6.67-29.59-11.68,17.07c2.5-7.97,4.17-14.8,4.17-14.8l-13.35,14.8,2.5-18.21-15.85,14.8,10.84-18.21-28.12,15.32,60.24-46.62c7.09,5.12,13.52,0,13.52,0-.24,1.71,56.54,46.66,56.54,46.66l41.34,32.13c-3.28,1.97-31.75-21.31-31.75-21.31,4.17,7.97,28.85,30.73,28.85,30.73-8.69-1.14-47.2-36.42-47.2-36.42l13.35,20.49c-3.34-2.28-15.85-14.8-15.85-14.8l10.01,17.07c-3.34-1.14-37.54-35.28-37.54-35.28l2.5,13.66-5-6.83,13.35,42.11c-2.5-2.28-17.52-36.42-17.52-36.42l4.17,17.07c-3.34-4.55-14.18-33.01-14.18-33.01,0,0-2.77,9.28-3.34,12.52-1.65,9.48-3.34,38.7-3.34,38.7-1.67-6.83-4.17-35.28-4.17-35.28l-15.43,41.54Z"/>
    </g>
    <g>
      <rect class="cls-14" x="18.17" y="220.83" width="274.36" height="12.88"/>
      <rect class="cls-3" x="18.17" y="169.31" width="273.07" height="52.81"/>
      <path class="cls-9" d="M76.65,169.31l81.27-83.08,103.05,103.05v11.28l-51.52-29.31v-5.15H107.69l-.36,3.22h-30.68Z"/>
      <line class="cls-7" x1="157.92" y1="86.23" x2="157.92" y2="135.18"/>
      <line class="cls-7" x1="168.23" y1="141.62" x2="168.23" y2="96.54"/>
      <line class="cls-7" x1="190.13" y1="118.43" x2="190.13" y2="151.92"/>
      <line class="cls-7" x1="179.82" y1="108.13" x2="179.82" y2="146.77"/>
      <line class="cls-7" x1="201.72" y1="130.03" x2="201.72" y2="158.36"/>
      <line class="cls-7" x1="147.62" y1="140.33" x2="147.62" y2="96.54"/>
      <line class="cls-7" x1="136.03" y1="109.42" x2="136.03" y2="149.35"/>
      <line class="cls-7" x1="124.43" y1="121.01" x2="124.43" y2="155.79"/>
      <line class="cls-7" x1="114.13" y1="131.31" x2="114.13" y2="160.94"/>
      <line class="cls-7" x1="213.31" y1="141.62" x2="213.31" y2="173.18"/>
      <line class="cls-7" x1="223.62" y1="151.92" x2="223.62" y2="181.55"/>
      <line class="cls-7" x1="235.21" y1="186.7" x2="235.21" y2="163.52"/>
      <line class="cls-7" x1="245.51" y1="173.82" x2="245.51" y2="191.85"/>
      <line class="cls-7" x1="257.11" y1="198.29" x2="257.11" y2="185.41"/>
      <line class="cls-7" x1="103.83" y1="141.62" x2="103.83" y2="168.67"/>
      <line class="cls-7" x1="92.23" y1="169.31" x2="92.23" y2="153.21"/>
      <line class="cls-6" x1="209.45" y1="166.09" x2="108.33" y2="166.74"/>
      <path class="cls-4" d="M131.41,166.74v68.27"/>
      <path class="cls-4" d="M187.65,166.23v67.48"/>
      <rect class="cls-11" x="134.74" y="171.24" width="48.95" height="50.23"/>
      <line class="cls-7" x1="188.19" y1="209.89" x2="291.24" y2="209.89"/>
      <line class="cls-7" x1="130.88" y1="209.89" x2="19.46" y2="209.89"/>
      <line class="cls-7" x1="18.81" y1="221.48" x2="130.88" y2="221.48"/>
      <line class="cls-7" x1="187.55" y1="221.48" x2="291.88" y2="221.48"/>
      <path class="cls-12" d="M240.92,168.67h46.13s-40.25-29.63-86.62-39.93l40.49,39.93Z"/>
      <line class="cls-2" x1="98.67" y1="117.79" x2="98.67" y2="146.77"/>
      <line class="cls-2" x1="86.44" y1="126.16" x2="110.91" y2="126.16"/>
      <path class="cls-1" d="M18.81,217.61v-48.3h57.84l81.27-84.37,42.51,43.79s49.8,11.59,88.01,40.57c0,0,3.44,4.51,3.44,5.8q0,9.02,0,9.02v49.54H18.81v-16.05Z"/>
      <polyline class="cls-3" points="209.45 160.94 157.92 133.89 107.69 162.23 107.69 166.09 121.86 166.09 157.92 145.48 194.72 165.45 209.45 165.47 209.45 160.94"/>
      <line class="cls-4" x1="107.69" y1="169.96" x2="107.69" y2="208.6"/>
      <line class="cls-4" x1="209.45" y1="165.45" x2="209.45" y2="209.24"/>
      <g>
        <line class="cls-5" x1="25.9" y1="210.53" x2="25.9" y2="222.12"/>
        <line class="cls-5" x1="22.68" y1="210.53" x2="22.68" y2="222.12"/>
        <line class="cls-5" x1="33.13" y1="210.57" x2="33.13" y2="222.16"/>
        <line class="cls-5" x1="29.91" y1="210.57" x2="29.91" y2="222.16"/>
        <line class="cls-5" x1="39.82" y1="210.55" x2="39.82" y2="222.14"/>
        <line class="cls-5" x1="36.6" y1="210.55" x2="36.6" y2="222.14"/>
        <line class="cls-5" x1="47.04" y1="210.59" x2="47.04" y2="222.18"/>
        <line class="cls-5" x1="43.82" y1="210.59" x2="43.82" y2="222.18"/>
        <line class="cls-5" x1="53.98" y1="210.55" x2="53.98" y2="222.14"/>
        <line class="cls-5" x1="50.76" y1="210.55" x2="50.76" y2="222.14"/>
        <line class="cls-5" x1="61.21" y1="210.59" x2="61.21" y2="222.18"/>
        <line class="cls-5" x1="57.99" y1="210.59" x2="57.99" y2="222.18"/>
        <line class="cls-5" x1="68.54" y1="210.55" x2="68.54" y2="222.14"/>
        <line class="cls-5" x1="65.32" y1="210.55" x2="65.32" y2="222.14"/>
        <line class="cls-5" x1="75.77" y1="210.59" x2="75.77" y2="222.18"/>
        <line class="cls-5" x1="72.55" y1="210.59" x2="72.55" y2="222.18"/>
        <line class="cls-5" x1="82.71" y1="210.55" x2="82.71" y2="222.14"/>
        <line class="cls-5" x1="79.49" y1="210.55" x2="79.49" y2="222.14"/>
        <line class="cls-5" x1="89.93" y1="210.59" x2="89.93" y2="222.18"/>
        <line class="cls-5" x1="86.71" y1="210.59" x2="86.71" y2="222.18"/>
        <line class="cls-5" x1="96.87" y1="210.55" x2="96.87" y2="222.14"/>
        <line class="cls-5" x1="93.65" y1="210.55" x2="93.65" y2="222.14"/>
        <line class="cls-5" x1="104.1" y1="210.59" x2="104.1" y2="222.18"/>
        <line class="cls-5" x1="100.88" y1="210.59" x2="100.88" y2="222.18"/>
        <line class="cls-5" x1="111.04" y1="210.55" x2="111.04" y2="222.14"/>
        <line class="cls-5" x1="107.82" y1="210.55" x2="107.82" y2="222.14"/>
        <line class="cls-5" x1="119.28" y1="210.53" x2="119.28" y2="222.12"/>
        <line class="cls-5" x1="115.05" y1="210.59" x2="115.05" y2="222.18"/>
        <line class="cls-5" x1="127.01" y1="210.53" x2="127.01" y2="222.12"/>
        <line class="cls-5" x1="123.15" y1="210.53" x2="123.15" y2="222.12"/>
      </g>
      <line class="cls-5" x1="195.07" y1="210.43" x2="195.07" y2="222.02"/>
      <line class="cls-5" x1="191.85" y1="210.43" x2="191.85" y2="222.02"/>
      <line class="cls-5" x1="202.3" y1="210.47" x2="202.3" y2="222.06"/>
      <line class="cls-5" x1="199.08" y1="210.47" x2="199.08" y2="222.06"/>
      <line class="cls-5" x1="208.99" y1="210.45" x2="208.99" y2="222.04"/>
      <line class="cls-5" x1="205.77" y1="210.45" x2="205.77" y2="222.04"/>
      <line class="cls-5" x1="216.22" y1="210.49" x2="216.22" y2="222.08"/>
      <line class="cls-5" x1="213" y1="210.49" x2="213" y2="222.08"/>
      <line class="cls-5" x1="223.16" y1="210.45" x2="223.16" y2="222.04"/>
      <line class="cls-5" x1="219.94" y1="210.45" x2="219.94" y2="222.04"/>
      <line class="cls-5" x1="230.39" y1="210.49" x2="230.39" y2="222.08"/>
      <line class="cls-5" x1="227.17" y1="210.49" x2="227.17" y2="222.08"/>
      <line class="cls-5" x1="237.71" y1="210.45" x2="237.71" y2="222.04"/>
      <line class="cls-5" x1="234.49" y1="210.45" x2="234.49" y2="222.04"/>
      <line class="cls-5" x1="244.94" y1="210.49" x2="244.94" y2="222.08"/>
      <line class="cls-5" x1="241.72" y1="210.49" x2="241.72" y2="222.08"/>
      <line class="cls-5" x1="251.88" y1="210.45" x2="251.88" y2="222.04"/>
      <line class="cls-5" x1="248.66" y1="210.45" x2="248.66" y2="222.04"/>
      <line class="cls-5" x1="259.11" y1="210.49" x2="259.11" y2="222.08"/>
      <line class="cls-5" x1="255.89" y1="210.49" x2="255.89" y2="222.08"/>
      <line class="cls-5" x1="266.05" y1="210.45" x2="266.05" y2="222.04"/>
      <line class="cls-5" x1="262.83" y1="210.45" x2="262.83" y2="222.04"/>
      <line class="cls-5" x1="273.28" y1="210.49" x2="273.28" y2="222.08"/>
      <line class="cls-5" x1="270.06" y1="210.49" x2="270.06" y2="222.08"/>
      <line class="cls-5" x1="280.22" y1="210.45" x2="280.22" y2="222.04"/>
      <line class="cls-5" x1="277" y1="210.45" x2="277" y2="222.04"/>
      <line class="cls-5" x1="287.17" y1="210.43" x2="287.17" y2="222.02"/>
      <line class="cls-5" x1="284.23" y1="210.49" x2="284.23" y2="222.08"/>
    </g>
  </g>
</svg>