<?xml version="1.0" encoding="UTF-8"?>
<svg id="Capa_1" data-name="Capa 1" xmlns="http://www.w3.org/2000/svg" viewBox="0 0 234 427.5">
  <defs>
    <style>
      .cls-1 {
        fill: #17161c;
      }

      .cls-1, .cls-2, .cls-3, .cls-4 {
        fill-rule: evenodd;
      }

      .cls-2 {
        fill: #fffefe;
      }

      .cls-3 {
        fill: #b28b67;
      }

      .cls-4 {
        fill: #ff743a;
      }
    </style>
  </defs>
  <g id="Master_Character_Standing" data-name="Master/Character/Standing">
    <g id="Lower_Body" data-name="Lower Body">
      <g id="Lower_Body_Fat_Pant" data-name="Lower Body/Fat Pant">
        <g id="Group">
          <g id="Assets_46" data-name="Assets 46">
            <path id="SKIN" class="cls-3" d="M111.71,379.16l3.66,34.1,17.92-1.09,3.34-32.51-24.91-.49Z"/>
            <path id="Fill_14" data-name="Fill 14" class="cls-1" d="M135.61,382.08l-3.01,29.32-16.56,1.01-3.25-30.33c-.04-.41-.37-.71-.75-.71-.45,0-.8,.42-.75,.9l3.33,31.09c.04,.41,.37,.71,.75,.71,.01,0,.03,0,.04,0l17.92-1.09c.37-.02,.67-.33,.71-.72l3.08-30c.05-.48-.3-.89-.75-.89-.39,0-.71,.31-.75,.72"/>
          </g>
          <g id="Assets_47" data-name="Assets 47">
            <path id="SKIN_2" data-name="SKIN 2" class="cls-3" d="M151.81,365.99l1.4,44.31,20.34,1.75,9.01-33.34-30.74-12.72Z"/>
            <path id="Fill_2" data-name="Fill 2" class="cls-1" d="M181.25,380.62l-8.27,30.59-19.04-1.64-1.28-38.55c-.02-.5-.47-.87-.93-.75-.35,.09-.6,.42-.58,.81l1.31,39.25c.01,.41,.31,.74,.7,.77l20.34,1.76s.04,0,.06,0c.33,0,.63-.23,.73-.58l8.44-31.22c.13-.5-.2-.99-.69-1.02-.35-.02-.67,.22-.76,.58"/>
          </g>
          <g id="Assets_48" data-name="Assets 48">
            <path id="Fill_4" data-name="Fill 4" class="cls-4" d="M150.73,407.45c.09-.38,.45-.62,.82-.55,.35,.07,.79,.16,1.31,.26,3.2,.65,9.85,2,16.15,2h.02c3.71,0,4.81-1.54,7.03-3.49,.18-.15,.41-.21,.63-.15,10.82,2.97,20.8,5.59,26.6,9.66,1.02,.72,4.69,3.84,4.06,6.05-.29,1.02-1.34,1.54-3.11,1.54-6.46,0-20.37,.04-32.65,.07-9.93,.03-18.51,.05-21.74,.05-.34,0-.65-.16-.87-.46-1.27-1.72,.8-11.05,1.75-14.98"/>
            <path id="Fill_6" data-name="Fill 6" class="cls-1" d="M149.98,426.19h55.82c.93,0,1.68-.79,1.68-1.77v-.58c0-.98-.75-1.77-1.68-1.77h-55.82c-.93,0-1.68,.79-1.68,1.77v.58c0,.98,.75,1.77,1.68,1.77"/>
            <path id="Fill_8" data-name="Fill 8" class="cls-1" d="M189.95,413.06c.28,0,.55-.17,.68-.45,1.19-2.63,3.47-1.99,3.73-1.9,.4,.13,.82-.11,.95-.53,.12-.42-.1-.86-.49-1-1.29-.43-4.12-.42-5.55,2.74-.18,.4-.02,.87,.36,1.06,.1,.05,.22,.08,.32,.08"/>
            <path id="Fill_10" data-name="Fill 10" class="cls-1" d="M183.26,411.14c.28,0,.55-.17,.68-.45,1.19-2.63,3.47-1.98,3.73-1.9,.4,.13,.82-.11,.95-.53,.12-.42-.1-.86-.49-1-1.3-.43-4.12-.42-5.55,2.74-.18,.4-.02,.87,.36,1.06,.11,.05,.22,.08,.32,.08"/>
          </g>
          <g id="Assets_49" data-name="Assets 49">
            <path id="Fill_16" data-name="Fill 16" class="cls-4" d="M113.85,404.97s-10.49,9.5-5.5,16.76c6.61,1.95,22.42,3.77,29.44,.25,4.92-2.46-2.86-17.2-2.86-17.2-7.92,.83-13.7,.44-21.08,.19"/>
            <path id="Fill_18" data-name="Fill 18" class="cls-1" d="M139.85,423.4c-.07,1.42-1.51,2.31-3.04,2.31h-27.17c-1.6,0-2.68-1.51-2.4-3.14,.28-1.63,.75-1.49,1.82-1.49l27.75,.15c1.14,0,3.12,.58,3.04,2.16"/>
            <path id="Fill_20" data-name="Fill 20" class="cls-1" d="M115.49,415.67c-.27,0-.53-.16-.65-.44-.16-.38,0-.82,.35-.99,.28-.14,7.05-3.32,14.61-1.01,.38,.12,.59,.53,.48,.93-.11,.4-.51,.63-.88,.51-7.03-2.15-13.55,.9-13.62,.93-.1,.05-.2,.07-.29,.07"/>
            <path id="Fill_22" data-name="Fill 22" class="cls-1" d="M117.66,410.7c-.28,0-.54-.17-.66-.46-.15-.38,.01-.82,.38-.98,.23-.1,5.6-2.46,10.32-.07,.35,.18,.5,.63,.33,1-.17,.37-.6,.53-.95,.35-4.13-2.09-9.1,.08-9.15,.1-.09,.04-.18,.06-.28,.06"/>
          </g>
          <g id="Pant">
            <path id="Fill_24" data-name="Fill 24" class="cls-1" d="M83.71,252.46c8.5,78.96,6.12,136.44,6.12,136.44,17.16,2.85,34,2.86,50.27-2.2l3.92-166.23,20.29,51.25s-23.46,88.04-19.39,95.43c4.07,7.39,39.63,22.63,49.19,16.91,3.95-2.37,25.29-75.29,24.31-117.61-.52-22.14-37.71-83.27-40.22-99.49-11.96-1.48-77.13,0-77.13,0,0,0-24.36,20.36-17.35,85.5Z"/>
            <path id="Fill_27" data-name="Fill 27" class="cls-2" d="M142.46,177.29c1.53,1.13,4.93,3.32,10.61,5.42,2.03,.75,3.11,.63,3.43,.31,.21-.22,.11-.67,.03-.92-.61-1.96-3.93-5.05-8.56-5.73-1.65-.24-3.54,.16-5.5,.93m-5.55-1.55c-1.06,0-2.3,.64-3.33,1.17-4.27,2.19-7.78,6.98-8.1,9.28,.86-.35,2.8-1.76,4.54-3.02,2.83-2.06,6.23-4.53,9.63-6.25-.61-.46-1.28-.82-2.04-1.07-.22-.07-.45-.11-.69-.11m-1.34,18.19c-.09,0-.17-.02-.26-.05-.37-.15-.55-.59-.41-.98,1.71-4.65,4.12-11.42,5.04-14.46-3.27,1.7-6.55,4.09-9.13,5.96-3.87,2.81-5.26,3.76-6.21,3.23-.22-.12-.58-.43-.58-1.13,0-3.16,4.51-8.69,8.93-10.96,1.49-.77,3.36-1.72,5.08-1.14,1.19,.4,2.2,1.01,3.07,1.82,2.46-1.08,4.89-1.67,7.06-1.35,4.99,.74,8.86,4.01,9.72,6.75,.42,1.36-.06,2.13-.38,2.47-.87,.9-2.51,.92-4.89,.04-4.09-1.51-7.03-3.06-8.98-4.26,1.47,3.14,2.32,7.43,3.21,12.63,.07,.41-.19,.8-.57,.88-.38,.07-.76-.2-.83-.61-1.18-6.84-2.25-11.32-4.09-14.02-1.19,3.99-4.66,13.46-5.11,14.7-.11,.3-.38,.48-.66,.48"/>
          </g>
        </g>
      </g>
    </g>
    <g id="Upper_Body" data-name="Upper Body">
      <g id="Upper_Body_Say_Hi" data-name="Upper Body/Say Hi">
        <g id="hand2">
          <path id="SKIN-2" data-name="SKIN" class="cls-3" d="M196.4,189.41c1.75,5.71,7.4,25.48,6.01,31.36-1.76,7.42-2.62,12.61-.12,13.43,2.78,.91,4.48-2.98,5.64-3.6,.43-.23,1.07,.71,2.71,2.74,3.33,4.12,6.36,7.15,8.58,5.73,1.65-1.05,.34-3.26,.34-3.26,0,0,3.16,4.4,5.88,3.28,1.3-.53,2.13-1.48,.27-4.44,1.46,2.2,4.14,3.09,5.37,1.41,.37-.51,1.03-1.61-.7-4.72,2.14,2.06,3.89-1.25,3.14-3.59-1.74-5.45-6.07-8.29-9.56-13.68-3.18-4.9-7.12-27.88-7.12-27.88"/>
          <path id="Assets_112" data-name="Assets 112" class="cls-1" d="M233.93,227.55c-1.68-5.84-7.33-9.28-10.04-14.47-2.42-4.65-5.1-20.6-6.3-27-.16-.95-1.66-.74-1.49,.26,1.55,8.64,3.05,17.31,5.95,25.63,.74,2.15,2.15,4.01,3.57,5.75,2.63,3.25,5.75,6.07,7.11,10.06,.6,1.12-.04,4.51-1.74,3.18-.76-1.02-5.52-7.67-6.71-6.06-.16,.29-.06,.65,.23,.81,2.24,1.49,3.8,4,5.37,6.16,2.63,4.2-.78,6.2-3.62,2.44-.65-.81-5.19-7.79-6.06-6.5-.21,.23-.2,.6,.04,.81,1.91,1.88,3.44,4.19,4.93,6.42,.46,.73,.99,1.67,.98,2.49,0,.42-.35,.72-.76,.9-1.12,.55-2.24-.07-3.26-.86-1.42-.73-6.3-8.42-7.37-7.18-.22,.23-.2,.6,.03,.82,1.56,1.5,2.94,3.31,4.24,5.05,.44,.85,.61,1.97-.37,2.36-2.39,.8-5.25-3.19-6.74-4.8-.69-.83-1.43-1.79-2.11-2.63-.52-.59-1.26-1.71-2.26-1.19-1.55,1.03-2.39,3.36-4.33,3.6-1.33,.08-1.65-1.11-1.68-2.33,0-3.46,1.11-6.89,1.88-10.25,.4-1.81,.26-3.68,.09-5.39-1.09-9.05-3.64-17.79-6.4-26.42-.29-.88-1.72-.52-1.45,.44,2.29,8.61,5.23,17.21,6.25,26.06,.16,1.84,.18,3.78-.24,5.48-.5,3.13-3.74,12.72,.56,13.8,2.64,.74,4.35-1.94,5.84-3.57,2.65,2.77,5.68,8.05,9.73,8.69,1.26,.08,2.65-.73,2.86-2.05,1.08,.97,2.33,1.89,3.88,1.9,1.5,0,3.18-1.19,2.89-2.84,3.25,1.76,5.58-1.41,4.34-4.41,2.42-.4,2.64-3.25,2.16-5.14"/>
        </g>
        <g id="hand1">
          <path id="SKIN_2-2" data-name="SKIN 2" class="cls-3" d="M21.67,60.23c-2.19-1.17-2.84,3.85-.34,7.74-3.27-2.63-11.13-9.03-13.84-7.5-2.74,1.54,1.33,5.97,1.33,5.97-2.79-1.28-6.14-3.09-6.95-.91-.88,2.35,3.88,5.21,3.88,5.21-3.54-1.13-4.58-.82-5.05,.62-.75,2.3,4,4.62,4,4.62-2.24-.26-4.1,2.07,1.37,5.68,6.04,3.97,18.56,12.72,28.51,25.23,1.42,1.79,17.91-2.01,28.07-11.01-19.9-13.94-38.15-34.13-40.99-35.65"/>
          <path id="Assets_113" data-name="Assets 113" class="cls-1" d="M58.38,91.82c-14.21-10.59-27.81-24.7-36.35-32.26-3.19-1.16-3.51,2.85-2.66,5.9-5.11-3.96-9.88-6.99-12.26-5.65-1.84,.99-1.49,3.18-.56,4.76-4.6-2.44-7.58,1.12-3.87,4.72-1.35-.05-2.25,.45-2.7,1.82-.6,1.86,1.22,3.53,2.71,4.55-1.72,1.52-1.49,3.51,2.97,6.61,10.79,7.1,19.78,14.86,26.7,23.08,7.35,1.42-22.08-22.81-25.87-24.34-3.29-2.21-4.37-4.25-1.96-4.3l4.76,1.93c.62,.26,1.06-.69,.45-.99,0,0-4.7-2.37-4.71-2.37-1.35-.66-4.02-2.44-3.61-3.71,.21-.64,.42-1.29,4.02-.16l6.29,3.59c.65,.38,1.25-.62,.61-1.01-2.11-1.7-10.16-5.18-9.77-8.21,.86-1.52,4.06,.63,5.89,1.32,0,0,6.15,3.61,6.15,3.61,.26,.15,.61,.08,.78-.18,.18-.27,.1-.63-.17-.8l-5.91-3.88c-.94-1.21-3.02-3.63-1.46-4.73,2.2-1.24,10.15,5.14,12.76,7.24,.41,.59,.73,1.53,.7,2.25-.78,2.8-.46,6.55,2.11,8.35,.4,.27,.86-.34,.47-.64-.14-.11-.33-.21-.39-.38-.07-.2-2.34-3.11-1.21-5.81,.3-.72,.74-1.52,.54-2.28-.14-.84-.45-1.57-.86-2.29-1.73-2.59-2-6.96-.65-6.67,8.37,7.66,21.99,21.5,36.15,32.13,.75,.6,1.72-.62,.92-1.21"/>
        </g>
        <path id="Assets_114" data-name="Assets 114" class="cls-4" d="M162.76,68.91c-.13,.58-.32,1.19-.61,1.82-.12,.26-.38,.42-.65,.42-.1,0-.2-.02-.29-.06-.36-.16-.52-.58-.35-.94,.44-.98,.63-1.92,.7-2.71,.22-14.03-47.65-17.89-49.15,1.91,.22,.86,.58,1.85,1.19,2.55,.26,.3,.23,.74-.06,1-.14,.12-.3,.18-.47,.18-.2,0-.39-.08-.53-.24-.55-.62-.93-1.4-1.2-2.16-4.67,1.07-10.82,3.14-15.17,6.29-9.83,7.11-19.08,19.67-21.8,23.52,.96,.88,1.89,1.79,2.79,2.73,1.04,1.09,2.04,2.2,3.01,3.36,.17,.21,.14,.51-.06,.68-.2,.17-.49,.14-.67-.04h0c-.99-1.09-2.04-2.14-3.11-3.16-.89-.84-2.75-2.42-2.75-2.42l-31.96-23.92-23.39,26.04s37.94,37.46,55.42,38.46c8.59,.49,17.23-7.5,24.21-13.15-2.14,24.66-1.6,43.92-1.6,43.92l83.68-.44s-3.98-24.79-5.84-48.61c-.15-1.87,4.63,17.97,4.63,17.97l13.37,64.07,32.57-9.36s-18.82-77.39-21.28-85.94c-10.22-35.5-34.71-39.49-34.79-39.68,0,0-3.09-1.32-5.79-2.08Z"/>
        <g id="neck">
          <path id="SKIN_3" data-name="SKIN 3" class="cls-3" d="M128.95,46s-.03,12.01-.03,18.1c0,4.48-3.87,3.4-9.32,5.23,1.26,6.32,5.03,10.44,21.2,10.68,10.23,.15,14.29-3.01,16.25-9.56-5.54-2.62-9.08-1.87-9.08-6.34,0-6.08-.03-18.1-.03-18.1"/>
          <path id="Assets_115" data-name="Assets 115" class="cls-1" d="M157.2,70.14c-1.14-.55-2.33-1.02-3.52-1.44-1.18-.42-2.41-.77-3.45-1.31-.51-.28-.96-.62-1.26-1.06-.3-.44-.42-1-.49-1.56,0-.3-.03-.57-.02-.89v-.94s.03-1.88,.03-1.88l.17-15.05v-.02c0-.39-.33-.71-.72-.7-.39,0-.71,.33-.7,.72l.21,15.05,.03,1.88v.94c.01,.3,.05,.66,.07,.99,.1,.67,.26,1.37,.69,1.97,.42,.6,1.02,1.01,1.61,1.31,1.2,.58,2.42,.88,3.6,1.28,1.19,.38,2.35,.81,3.48,1.32h0c.16,.08,.36,0,.44-.16,.08-.17,.01-.36-.15-.44"/>
          <path id="Assets_116" data-name="Assets 116" class="cls-1" d="M128.96,45.3c-.39,0-.72,.31-.72,.7-.06,4.98-.06,9.96-.04,14.94v1.87c0,.61,.02,1.28,0,1.8-.04,.55-.17,1.04-.43,1.42-.25,.38-.67,.66-1.18,.88-1.03,.42-2.27,.64-3.49,.92-1.22,.27-2.46,.61-3.65,1.05-.23,.09-.36,.34-.29,.58,.07,.25,.34,.4,.59,.32,1.17-.34,2.36-.59,3.58-.81,.61-.11,1.22-.21,1.85-.33,.62-.12,1.26-.26,1.91-.52,.32-.13,.65-.29,.96-.5,.31-.21,.6-.49,.83-.81,.47-.64,.66-1.4,.72-2.09,.04-.35,.04-.7,.04-.99v-.93s.02-1.87,.02-1.87c.04-4.98,.05-9.96,0-14.94,0-.39-.32-.7-.7-.71"/>
        </g>
        <g id="Assets_117" data-name="Assets 117">
          <path id="path-2" class="cls-2" d="M150.79,87.55c0-1.58-1.28-2.86-2.86-2.86s-2.86,1.28-2.86,2.86c0,1.34,.92,2.45,2.15,2.77v12.5c0,.39,.32,.71,.71,.71s.71-.32,.71-.71v-12.5c1.24-.32,2.15-1.44,2.15-2.77"/>
          <path id="path-1" class="cls-2" d="M133.23,87.21c0-1.58-1.28-2.86-2.86-2.86s-2.86,1.28-2.86,2.86c0,1.34,.92,2.45,2.15,2.77v21.41c0,.39,.32,.71,.71,.71s.71-.32,.71-.71v-21.41c1.24-.32,2.15-1.44,2.15-2.77"/>
        </g>
      </g>
    </g>
    <g id="Head">
      <g id="Head_Long_Hair_1" data-name="Head/Long Hair 1">
        <g id="Long_Hair" data-name="Long Hair">
          <path id="SKIN-3" data-name="SKIN" class="cls-3" d="M141.53,17.16c-10.78-1.06-18.15,2.49-22.42,6.76-4.27,4.27-7.12,6.76-7.12,14.24s11.03,18.87,11.75,19.93,11.03,7.83,22.42,4.27c11.39-3.56,12.81-13.53,12.81-13.53,0,0,1.78-17.09,0-21-1.78-3.92-6.66-9.62-17.44-10.68Z"/>
          <path id="ink" class="cls-1" d="M118.26,43.42c.13,4.17,3.43,11.19,8.57,15.03,7.16,5.78,20.41,6.12,25.9-2.47,4.97-6.45,3.71-22.96-.38-32.19-3.73,2.99-10.91,4.66-26.85,2.57-4.31-.87-6.84,4.92-7.22,7.54-.26,.84-1.06,.59-1.82,.35-.44-.14-.87-.28-1.18-.19-4.94,.15-4.41,9.28,2.26,8.7,.38,0,.69,.29,.71,.67Zm37.47-24.14c4.28,2.83,8.04,7.86,7.07,18.72-1.03,11.62,1.36,14.68,3.55,17.49,.9,1.15,1.76,2.25,2.34,3.89,2.02,4.84,.21,11.31-3.7,14.93,2.18,5.77-1.33,24.4-13.09,20.73-6.82-2.13-10.37-6.45-11.08-11.66-1.32-9.74,2.85-17.44,5.36-20.46-6.17,2.41-14.25,1.24-18.17-1.6,0,3.56-1.07,5.7-2.85,7.47-1.78,1.78-7.47,2.85-13.88,0-6.41-2.85-16.02-16.37-3.94-30.47,4.47-4.15,4.44-4.72,4.2-9.32-.07-1.33-.15-2.99-.15-5.17,0-10.08,9.72-16.29,17.94-15.17,8.93-12.83,33.49-6.46,26.41,10.64Zm-40.24,20.33c-.45,0-.81-.64-.81-1.43s.36-1.43,.81-1.43,.81,.64,.81,1.43-.36,1.43-.81,1.43Z"/>
        </g>
      </g>
    </g>
    <g id="Face">
      <g id="Face_Happy" data-name="Face/Happy">
        <path id="Happy" class="cls-1" d="M132.36,34.29c-.11,0-.3-.02-.45-.02-.13,0-.25,0-.38,0-.04,0-.08,0-.12,0-.34,.02-.68,.04-1.02,.09-.67,.11-1.35,.26-1.99,.52-.64,.26-1.27,.55-1.85,.97-.56,.35-1.05,.79-1.56,1.24l-.12,.1-.03,.03c-.19,.17-.47,.15-.64-.04-.14-.16-.15-.39-.03-.56,.05-.06,.09-.13,.13-.19,.18-.26,.37-.52,.57-.77,.07-.07,.13-.14,.2-.21h0c.21-.23,.41-.45,.65-.65,.6-.55,1.29-1.01,2.02-1.37,.74-.36,1.52-.64,2.34-.79,.41-.08,.82-.13,1.23-.16,.03,0,.06,0,.09,0,.18,0,.36-.01,.54,0,.22,0,.41,.02,.68,.05,.49,.07,.83,.52,.76,1-.06,.47-.48,.8-.95,.77h-.08Zm16.7,5.37h0c.06,.04,.11,.08,.16,.12l.11,.08c.15,.11,.36,.13,.54,.04,.27-.13,.39-.45,.26-.73-.13-.28-.27-.48-.44-.69-.17-.21-.36-.39-.58-.56-.43-.33-.95-.57-1.51-.67-.56-.11-1.17-.07-1.71,.12-.55,.18-1.01,.52-1.38,.89-.22,.23-.27,.59-.09,.87,.21,.33,.65,.44,.98,.23l.04-.02c.32-.2,.63-.36,.94-.43,.31-.09,.62-.1,.95-.06,.32,.06,.65,.16,.97,.32,.16,.08,.32,.17,.47,.28,.1,.06,.2,.14,.29,.2Zm-21.28-.39c-.21,.26-.38,.5-.54,.82-.1,.2-.05,.45,.12,.6,.21,.17,.52,.15,.69-.06l.04-.04c.14-.16,.32-.37,.51-.52,.19-.16,.39-.31,.59-.42,.42-.23,.85-.37,1.29-.37,.11,0,.22,0,.33,.02,.04,0,.09,.01,.13,.01,.07,0,.15,.01,.22,.03,.23,.03,.44,.11,.64,.19,.2,.08,.37,.19,.52,.31l.03,.02c.06,.06,.13,.11,.18,.17,.03,.03,.05,.06,.07,.09h0s.03,.05,.03,.05c0,0,0,0,0,.01,0,0,0,.01,0,0,.18,.41,.66,.59,1.07,.41,.41-.18,.59-.66,.41-1.07-.04-.09-.06-.12-.08-.16h0v-.02s-.06-.07-.08-.11h0s0-.01,0-.01h0c-.06-.1-.12-.18-.18-.25-.13-.15-.26-.28-.41-.4-.3-.23-.62-.41-.96-.54-.34-.12-.68-.2-1.01-.23-.11-.02-.23-.02-.34-.02-.05,0-.11,0-.16,0-.17,0-.35,.01-.52,.03-.7,.09-1.36,.38-1.88,.8-.26,.2-.5,.43-.7,.68Zm16.72-6.56c-.21,.05-.39,.1-.63,.18-.42,.15-.66,.6-.54,1.03,.13,.45,.59,.71,1.04,.59l.06-.02c.11-.03,.28-.07,.43-.11,.16-.04,.32-.06,.48-.09l.49-.06,.49-.03c.66-.02,1.32,.03,1.96,.18,.64,.15,1.26,.37,1.85,.7,.55,.27,1.05,.64,1.56,1.03h0s.09,.07,.14,.11l.04,.03c.17,.13,.41,.13,.59,0,.21-.17,.25-.47,.09-.68-.12-.15-.24-.3-.37-.45-.04-.04-.07-.08-.1-.12h0c-.09-.11-.18-.22-.29-.31-.06-.05-.12-.11-.18-.16-.23-.21-.47-.43-.74-.6-.65-.48-1.4-.82-2.18-1.05-.78-.23-1.59-.36-2.4-.34-.4,0-.81,.03-1.21,.09-.2,.03-.4,.07-.6,.11Zm-4.45,6.71c.05,.78,.14,1.55,.34,2.21,.05,.16,.11,.32,.18,.45,.07,.13,.15,.23,.19,.25,.09,.06,.26,.18,.42,.28,.17,.11,.35,.22,.53,.35,.36,.27,.76,.61,1.01,1.16,.11,.28,.2,.57,.17,.94-.03,.36-.2,.7-.4,.92-.4,.46-.84,.65-1.24,.83-.41,.16-.81,.28-1.21,.37-.3,.07-.6-.12-.67-.42-.06-.26,.07-.51,.3-.62h0c.12-.06,.23-.11,.34-.17h0c.24-.11,.46-.22,.68-.34,.31-.17,.59-.37,.71-.53,.06-.08,.06-.12,.06-.16h0s-.02-.14-.06-.23c-.08-.18-.28-.41-.56-.62-.14-.11-.29-.22-.45-.33-.04-.03-.08-.06-.13-.09-.13-.09-.26-.18-.42-.33-.25-.25-.38-.5-.48-.73-.1-.24-.15-.47-.19-.69-.15-.9-.06-1.74,.11-2.55,.04-.2,.24-.33,.44-.29,.17,.04,.28,.18,.29,.34h0Zm-5.51,12.4c1.84,1.04,9.4,.85,11.8-.67,.21-.72-.06-1.06-.06-1.06,0,0-7.09,1.04-11.74,.49,0,0-.15,.94,0,1.24Zm11.98-2.88c.51-.1,.97,.08,1.24,.47,1.1,2.51-2.38,6.61-7.37,6.58-3.32,.17-7.34-1.84-7.51-4.13-.16-.99,.73-2.68,2.1-2.43,.97,.18,3.3,.24,5.58,.16,2.98-.1,5.81-.63,5.95-.66,0,0,0,0,0,0Z"/>
      </g>
    </g>
  </g>
</svg>