<?xml version="1.0" encoding="UTF-8"?>
<svg id="Capa_1" data-name="Capa 1" xmlns="http://www.w3.org/2000/svg" viewBox="0 0 172 426">
  <defs>
    <style>
      .cls-1 {
        fill: #fff;
      }

      .cls-1, .cls-2, .cls-3, .cls-4, .cls-5, .cls-6, .cls-7 {
        fill-rule: evenodd;
      }

      .cls-2 {
        fill: #ffc81a;
      }

      .cls-3 {
        fill: #ff7439;
      }

      .cls-4 {
        fill: #f2f2f2;
      }

      .cls-5 {
        fill: #141414;
      }

      .cls-6 {
        fill: #dcae92;
      }
    </style>
  </defs>
  <g id="Master_Character_Standing" data-name="Master/Character/Standing">
    <g id="Lower_Body" data-name="Lower Body">
      <g id="Lower_Body_Jeans_2" data-name="Lower Body/Jeans 2">
        <g id="shoe_2" data-name="shoe 2">
          <path id="SKIN" class="cls-6" d="M112.63,389.68l2.92,19.95,28.69,2.96-4.45-20.55-27.16-2.36Z"/>
          <path id="path_6" data-name="path 6" class="cls-5" d="M144.34,413.32l-28.93-2.84c-.35-.03-.63-.3-.69-.65l-2.95-20.18c-.06-.42,.23-.81,.65-.87,.42-.06,.81,.23,.87,.65l2.87,19.59,27.27,2.68-4.35-19.44c-.09-.41,.17-.83,.58-.92,.42-.09,.83,.17,.92,.58l4.58,20.48c.05,.24-.01,.49-.17,.68-.15,.17-.36,.26-.58,.26-.02,0-.05,0-.08,0Z"/>
          <path id="path_23" data-name="path 23" class="cls-3" d="M114.25,407.29c.09-.37,.45-.6,.83-.53,.36,.06,.81,.15,1.34,.25,3.25,.62,10,1.93,16.41,1.93h.02c3.77,0,7.09-1.03,9.34-2.91,.18-.15,.42-.2,.64-.14,10.99,2.86,18.93,4.93,24.81,8.85,1.03,.69,4.76,3.7,4.12,5.83-.3,.98-1.36,1.48-3.16,1.48-6.56,0-20.69,.04-33.16,.07-10.09,.03-18.8,.05-22.08,.05-.35,0-.66-.16-.88-.44-1.29-1.66,.81-10.65,1.78-14.44"/>
          <path id="Fill_47" data-name="Fill 47" class="cls-5" d="M113.49,425.36h56.7c.94,0,1.71-.76,1.71-1.71v-.56c0-.94-.76-1.71-1.71-1.71h-56.7c-.94,0-1.71,.76-1.71,1.71v.56c0,.94,.76,1.71,1.71,1.71"/>
          <path id="path_25" data-name="path 25" class="cls-5" d="M154.09,412.7c.29,0,.56-.16,.69-.44,1.21-2.53,3.52-1.91,3.78-1.83,.4,.12,.83-.1,.96-.51,.13-.4-.1-.83-.5-.96-1.31-.42-4.18-.4-5.63,2.64-.18,.38-.02,.84,.36,1.02,.11,.05,.22,.07,.33,.07"/>
          <path id="path_26" data-name="path 26" class="cls-5" d="M147.3,410.85c.29,0,.56-.16,.69-.44,1.21-2.53,3.52-1.91,3.78-1.83,.4,.12,.83-.1,.96-.51,.13-.4-.1-.83-.5-.96-1.32-.42-4.19-.4-5.63,2.64-.18,.38-.02,.84,.36,1.02,.11,.05,.22,.07,.33,.07"/>
        </g>
        <g id="shoe_1" data-name="shoe 1">
          <path id="SKIN_2" data-name="SKIN 2" class="cls-6" d="M61.14,389.63l-.86,20.16-25.27,2.17,.39-20.24,25.74-2.08Z"/>
          <path id="path_1" data-name="path 1" class="cls-5" d="M34.95,412.72c-.19,0-.38-.07-.53-.21-.16-.15-.25-.36-.24-.58l.37-20.25c0-.42,.37-.77,.78-.75,.42,0,.76,.36,.75,.78l-.35,19.39,23.8-1.99,.85-19.62c.02-.42,.38-.75,.8-.73,.42,.02,.75,.38,.74,.8l-.88,20.3c-.02,.39-.32,.7-.7,.73l-25.33,2.12s-.04,0-.06,0"/>
          <path id="path_2" data-name="path 2" class="cls-3" d="M62.03,407.41c-.09-.37-.45-.6-.83-.53-.36,.06-.81,.15-1.34,.25-3.25,.62-10,1.93-16.41,1.93h-.02c-3.77,0-7.09-1.03-9.34-2.91-.18-.15-.42-.2-.64-.14-10.99,2.86-18.93,4.93-24.81,8.85-1.03,.69-4.76,3.7-4.12,5.83,.3,.98,1.36,1.48,3.16,1.48,6.56,0,20.69,.04,33.16,.07,10.09,.03,18.8,.05,22.08,.05,.35,0,.66-.16,.88-.44,1.29-1.66-.81-10.65-1.78-14.44"/>
          <path id="path_3" data-name="path 3" class="cls-5" d="M62.79,425.48H6.09c-.94,0-1.71-.76-1.71-1.71v-.56c0-.94,.76-1.71,1.71-1.71H62.79c.94,0,1.71,.76,1.71,1.71v.56c0,.94-.76,1.71-1.71,1.71"/>
          <path id="path_4" data-name="path 4" class="cls-5" d="M22.2,412.82c-.29,0-.56-.16-.69-.44-1.21-2.53-3.52-1.91-3.78-1.83-.4,.12-.83-.1-.96-.51-.13-.4,.1-.83,.5-.96,1.31-.42,4.18-.4,5.63,2.64,.18,.38,.02,.84-.36,1.02-.11,.05-.22,.07-.33,.07"/>
          <path id="path_5" data-name="path 5" class="cls-5" d="M28.99,410.97c-.29,0-.56-.16-.69-.44-1.21-2.53-3.52-1.91-3.78-1.83-.4,.12-.83-.1-.96-.51-.13-.4,.1-.83,.5-.96,1.32-.42,4.19-.4,5.63,2.64,.18,.38,.02,.84-.36,1.02-.11,.05-.22,.07-.33,.07"/>
        </g>
        <g id="pant">
          <path id="path_10" data-name="path 10" class="cls-7" d="M27.62,162.42L8.72,400.73c18.63,1.52,38.44,1.3,58.99,0,0,0,3.26-199.18,5.04-199.38,3.35-.38,19.79,199.38,19.79,199.38,18.59,3.01,36.81,2.09,54.94,0,0,0-13.79-176.47-37.4-239.2-37.31,1.66-82.46,.89-82.46,.89"/>
          <path id="path_21" data-name="path 21" class="cls-1" d="M48.24,170.19c-.44-.23-.99-.06-1.22,.39-5.99,11.56-18.93,10.46-19.49,10.41-.5-.05-.94,.31-.99,.81-.05,.5,.31,.94,.81,.99,.03,0,.47,.04,1.23,.04,3.67,0,14.6-.92,20.04-11.42,.23-.44,.06-.99-.39-1.22"/>
          <path id="path_22" data-name="path 22" class="cls-1" d="M114.59,179.28c-.53,.05-13.08,1.15-18.89-10.41-.22-.44-.75-.62-1.18-.39-.43,.23-.6,.78-.37,1.22,5.28,10.5,15.87,11.42,19.43,11.42,.74,0,1.17-.04,1.19-.04,.48-.05,.83-.49,.79-.99-.05-.5-.48-.86-.96-.81"/>
        </g>
      </g>
    </g>
    <g id="Upper_Body" data-name="Upper Body">
      <g id="Upper_Body_Holding_Document" data-name="Upper Body/Holding Document">
        <g id="hand_1" data-name="hand 1">
          <path id="SKIN-2" data-name="SKIN" class="cls-6" d="M123.73,68.8c.81-2.12,4.25,.95,4.86,5.12,.68-3.76,2.26-12.85,5.04-13.42,2.8-.57,2.64,4.9,2.64,4.9,1.16-2.55,2.37-5.79,4.23-4.78,2,1.09,.44,5.9,.44,5.9,1.76-2.89,2.66-3.29,3.84-2.58,1.88,1.14,0,5.56,0,5.56,1.39-1.51,4.06-1.02,2.44,4.72-1.78,6.34-5.17,19.82-4.54,34.36,.09,2.08-13.51,9.3-25.86,9.18,5.36-21.46,5.86-46.23,6.9-48.97"/>
          <path id="Fill_4" data-name="Fill 4" class="cls-5" d="M117.34,112.42c3.45-15.76,4.38-33.58,5.74-43.87,1.5-2.7,4.11-.13,5.35,2.47,1.15-5.77,2.62-10.7,5.06-11.2,1.86-.41,2.92,1.3,3.23,2.94,1.7-4.42,5.88-3.76,5.48,.94,.9-.84,1.82-1.04,2.94-.36,1.52,.92,1.27,3.16,.85,4.74,2.1,.02,3.12,1.52,1.91,6.32-3.18,11.32-4.72,22.02-4.58,31.8-4.2,5.36,1.57-28.86,3.26-32.17,.94-3.48,.47-5.53-1.22-4.12l-2.12,4.17c-.27,.55-1.14,.15-.9-.41,0,0,1.82-4.43,1.82-4.44,.53-1.27,1.3-4.08,.27-4.7-.52-.31-1.06-.64-2.86,2.29l-2.19,6.22c-.22,.65-1.23,.32-1.02-.33,.44-2.43,3.89-9.62,1.82-11.48-1.5-.54-2.42,2.85-3.26,4.42l-2.08,6.15c-.09,.26-.37,.42-.64,.34-.28-.08-.44-.37-.36-.65l1.75-6.19c-.07-1.39-.09-4.3-1.82-4.12-2.25,.46-3.91,9.59-4.45,12.59,.07,.65,.41,1.49,.86,1.96,2.21,1.46,4.23,4.23,3.54,7-.11,.43-.79,.28-.71-.16,.03-.16,.1-.34,.04-.49-.07-.18-.25-3.53-2.63-4.72-.63-.32-1.42-.6-1.73-1.25-.41-.66-.63-1.35-.78-2.09-.35-2.82-2.78-5.98-3.53-4.97-1.18,10.26-2.28,27.9-5.68,43.66-.16,.86-1.55,.6-1.35-.28"/>
        </g>
        <g id="Assets_108" data-name="Assets 108">
          <path id="t-shirt" class="cls-3" d="M20.04,78.86c-12.24,25.88-12.05,59.57-4.71,71.02,3.44,5.36,10.63,7.14,14,6.89l-5.38,6.43,89.94,1.81s-1.75-9.18-2.41-11.95c4.91,1.22,10.56,1.22,14.53-2.25,12.78-11.19,17.15-41.04,18.06-48.31-10.86-2.83-25.38-6.97-25.38-6.97l-2.73,8.14s-.33-19.64-7.81-31.25c-6.58-10.21-15.55-16.27-32.54-18.08-16.99-1.81-44.42,.93-55.57,24.52Z"/>
          <path id="Fill_40" data-name="Fill 40" class="cls-5" d="M109.87,136.45l-1.05-8.27-1.1-8.27-1.1-8.27c-.38-2.75-.76-5.51-1.16-8.26-.81-5.5-1.66-11-2.62-16.48-.03-.18-.2-.31-.39-.29-.2,.02-.34,.19-.32,.39,.54,5.54,1.19,11.06,1.89,16.58,.34,2.76,.72,5.51,1.09,8.27l1.15,8.26,1.15,8.26,1.2,8.25c.8,5.5,1.63,11,2.5,16.49,.03,.21,.23,.36,.44,.33,.22-.03,.38-.22,.35-.44-.63-5.53-1.3-11.05-2.01-16.56"/>
        </g>
        <path id="notebook" class="cls-5" d="M90.4,166.98l-48.63-5.3c-1.48-.16-2.55-1.5-2.39-2.98l7.77-71.28c.16-1.48,1.49-2.55,2.98-2.39l48.63,5.3c1.48,.16,2.55,1.49,2.39,2.98l-7.77,71.28c-.16,1.48-1.49,2.55-2.98,2.39"/>
        <g id="hand_2" data-name="hand 2">
          <path id="SKIN_2-2" data-name="SKIN 2" class="cls-6" d="M57.81,144.84c7.06-2.47,14.18-6.05,21-10.25,11.47-7.06,17.37-12.88,19.78-14.99,.87-.76,2.55-2.53,2.02-4.01-.38-1.05-1.66-1.61-2.55-.94,0,0,1.22-.85,1.97-1.78,.71-.87,.87-2.02,.39-2.76-.75-1.14-1.96-1.06-3-.32l1.06-.91c1.07-.83,1.5-2.15,.74-3.43-.57-.96-2.4-1.14-3.62-.39-.44,.27-1.75,1.11-1.75,1.11,.9-.74,.91-2.36,.17-3.25-.68-.82-1.88-1-2.76-.4-4.04,2.78-8.94,5.58-12.03,7.26,0,0-.28-4.14-.59-5.44-.29-1.21-2.4-2.8-3.3-.99-1.23,2.46-2.4,6.63-3.37,9.77-6.25,3.34-9.14,4.96-16.93,7.4"/>
          <path id="Fill_54" data-name="Fill 54" class="cls-5" d="M101.41,115.84c-.12-.83-.64-1.53-1.36-1.92,0,0,0,0,0,0,.08-.08,.17-.17,.25-.25,.28-.29,.58-.68,.77-1.1,.2-.42,.33-.89,.34-1.39,.01-.49-.11-1.04-.42-1.49-.27-.4-.66-.78-1.18-.99-.05-.02-.09-.03-.14-.04,.13-.18,.25-.37,.34-.57,.12-.28,.21-.57,.26-.87,.04-.31,.04-.62,0-.92-.05-.3-.14-.59-.26-.86-.06-.14-.13-.25-.21-.39-.1-.16-.22-.3-.34-.41-.52-.47-1.12-.64-1.69-.71-.57-.06-1.14,0-1.69,.16-.27,.08-.54,.2-.79,.35l-.04,.02c0-.28-.04-.57-.12-.84-.13-.52-.43-1.05-.86-1.43-.43-.38-.98-.63-1.55-.69-.57-.07-1.17,.06-1.67,.34l-.18,.11-.13,.09-.27,.18-.53,.36c-.71,.48-1.43,.94-2.15,1.4-2.6,1.65-5.27,3.2-7.97,4.7-.04-.5-.08-.99-.12-1.49-.08-.85-.17-1.69-.32-2.57-.02-.11-.04-.23-.07-.34l-.02-.09-.03-.11c-.02-.08-.05-.14-.07-.21-.11-.27-.25-.49-.41-.7-.32-.41-.7-.75-1.18-1.01-.24-.12-.51-.23-.81-.27-.3-.04-.65-.02-.96,.1-.65,.25-1.01,.87-1.18,1.25-.75,1.59-1.29,3.21-1.82,4.83-.49,1.54-.95,3.08-1.41,4.6-2.64,1.41-5.25,2.87-7.95,4.08-2.78,1.26-5.67,2.28-8.59,3.24-.28,.09-.44,.4-.36,.68,.09,.29,.4,.46,.69,.37,2.96-.89,5.91-1.9,8.77-3.16,2.86-1.26,5.59-2.74,8.3-4.19,.14-.08,.26-.21,.32-.38,.5-1.62,.98-3.24,1.5-4.84,.52-1.59,1.06-3.19,1.76-4.66,.09-.21,.15-.31,.24-.41,.08-.09,.15-.15,.23-.18,.14-.06,.4-.04,.67,.11,.27,.14,.54,.37,.73,.63,.1,.13,.18,.27,.23,.39,0,.03,.02,.06,.03,.09v.04s.03,.07,.03,.07c.02,.09,.04,.18,.05,.28,.25,1.6,.38,3.31,.5,4.97h0c0,.1,.03,.19,.08,.28,.18,.33,.59,.45,.92,.27,3.04-1.65,6.04-3.38,8.97-5.23,.73-.46,1.46-.93,2.18-1.42l.54-.36,.27-.18,.13-.09,.09-.06c.24-.14,.53-.2,.82-.16,.29,.03,.56,.15,.77,.35,.11,.1,.2,.2,.27,.33,.08,.12,.13,.27,.17,.42,.16,.57,.03,1.25-.3,1.58-.03,.02-.07,.04-.1,.06-.41,.33-.85,.66-1.29,.98-.44,.32-.89,.64-1.34,.96-.9,.63-1.81,1.25-2.72,1.87h0c-.23,.16-.3,.47-.16,.71,.15,.25,.48,.34,.73,.19,.96-.57,1.9-1.14,2.85-1.72,.47-.29,.94-.59,1.41-.89,.47-.3,.94-.61,1.4-.95,.01,0,.02-.02,.03-.03,.02-.02,.04-.04,.06-.06l1.05-.67,.58-.37c.15-.09,.32-.16,.5-.22,.35-.11,.74-.15,1.11-.1,.36,.04,.7,.17,.88,.34,.05,.04,.08,.09,.11,.13,.03,.06,.09,.15,.12,.23,.07,.16,.12,.33,.15,.49,.05,.33,0,.66-.14,.97-.15,.31-.37,.58-.69,.84l-1.04,.89c-1.14,.86-2.34,1.7-3.52,2.54l-3.6,2.48h0c-.25,.18-.32,.51-.15,.77,.17,.26,.52,.34,.78,.17l3.7-2.36c1.23-.8,2.45-1.59,3.67-2.44,0,0,.02-.01,.02-.02,.02-.01,.03-.03,.04-.04,.22-.15,.46-.26,.68-.32,.25-.06,.48-.05,.67,.03,.19,.07,.37,.23,.52,.46,.12,.18,.18,.4,.17,.66,0,.26-.08,.54-.2,.79-.12,.26-.29,.48-.53,.74-.45,.48-1.01,.95-1.56,1.34-.01,.01-.03,.02-.05,.03h0s-4.47,3.49-4.47,3.49h0c-.24,.19-.29,.53-.12,.78,.18,.26,.53,.32,.79,.14l4.59-3.19s.03-.02,.05-.03c0,0,.01-.01,.02-.02h0c.24-.18,.56-.2,.89-.03,.31,.16,.56,.51,.6,.84,.05,.34-.08,.79-.33,1.22-.25,.43-.58,.86-.96,1.25-.19,.2-.38,.38-.59,.56l-.66,.59-1.3,1.17c-.87,.78-1.74,1.54-2.63,2.3-1.77,1.5-3.59,2.95-5.46,4.34-1.86,1.4-3.79,2.7-5.73,3.97-.49,.32-.96,.65-1.44,.98-.48,.33-.98,.63-1.47,.94-.99,.62-1.98,1.23-2.98,1.82-2,1.18-4.04,2.32-6.1,3.38-2.06,1.07-4.16,2.07-6.28,3.01-1.06,.47-2.13,.93-3.21,1.35-.54,.22-1.08,.43-1.62,.63-.54,.21-1.08,.42-1.58,.76h-.01c-.17,.12-.27,.33-.25,.54,.04,.31,.32,.53,.63,.5,.6-.07,1.17-.23,1.72-.44,.55-.21,1.11-.41,1.65-.63,1.1-.43,2.19-.88,3.27-1.35,2.16-.94,4.28-1.98,6.37-3.06,2.09-1.09,4.14-2.24,6.16-3.44,2.03-1.19,3.99-2.48,6-3.71,3.89-2.65,7.69-5.44,11.28-8.49,.9-.76,1.79-1.54,2.66-2.32l1.3-1.18,.65-.58c.23-.21,.46-.42,.68-.65,.43-.46,.84-.95,1.17-1.53,.32-.58,.61-1.29,.5-2.13"/>
        </g>
        <g id="Assets_109" data-name="Assets 109">
          <path id="Fill_56" data-name="Fill 56" class="cls-3" d="M29.44,156.51c23.59-2.06,45.45-14.58,45.45-14.58l-14.55-27.37s-15.49,6.02-25.72,7.08"/>
          <path id="Fill_58" data-name="Fill 58" class="cls-3" d="M39.79,112.09l-.18,8.55,.18-8.55Z"/>
          <path id="Fill_60" data-name="Fill 60" class="cls-5" d="M75.57,141.58h0s-14.55-27.37-14.55-27.37c-.18-.34-.59-.5-.96-.36h0c-2.05,.8-4.15,1.56-6.24,2.29-2.1,.72-4.21,1.41-6.33,2.05-2.12,.64-4.26,1.22-6.42,1.73-.23,.05-.45,.1-.68,.15v-7.97c-.01-.3-.25-.56-.56-.57-.32-.01-.58,.23-.6,.55l-.37,8.32c-1.43,.29-2.86,.54-4.3,.7h0c-.3,.04-.52,.31-.49,.61,.03,.31,.3,.53,.61,.5,2.25-.23,4.47-.62,6.66-1.1,2.19-.48,4.36-1.04,6.52-1.65,2.15-.61,4.29-1.27,6.42-1.96,1.91-.63,3.81-1.28,5.7-1.98l13.88,26.1c-3.25,1.78-6.63,3.41-10.04,4.9-3.65,1.59-7.37,3.04-11.14,4.31-3.78,1.27-7.61,2.38-11.49,3.26-3.88,.89-7.82,1.54-11.78,1.92h0c-.27,.03-.47,.27-.45,.54,.02,.27,.26,.48,.54,.45,4.01-.35,8-.95,11.93-1.81,3.94-.84,7.82-1.92,11.64-3.16,3.83-1.24,7.59-2.66,11.3-4.22,3.71-1.58,7.34-3.27,10.91-5.21,.36-.2,.49-.66,.3-1.03"/>
        </g>
        <g id="neck">
          <path id="SKIN_3" data-name="SKIN 3" class="cls-4" d="M60.19,41.67s.62,6.85,.28,9.03c-.4,2.56-2.21,2.92-3.66,4,2.39,6.7,11.05,11.18,18.27,12.27,1.56,.24,7.21-5.39,6.68-11.55-.36-1.81-.4-3.22-.36-4.7l.22-8.1"/>
          <path id="Fill_3" data-name="Fill 3" class="cls-2" d="M75.94,66.43s-7.2-3.05-19.13-11.73c-1.57,10.08,2.72,37.11,19,13.73,0,0,8.14,8.95,10.75,6.89,6.56-5.19-4.51-19.79-4.51-19.79-.88,6.19-6.11,10.9-6.11,10.9Z"/>
          <path id="Fill_7" data-name="Fill 7" class="cls-5" d="M76.34,67.95c-.3-.35-.91-.3-1.15,.1-12.69,18.76-19.1,3.58-18.02-12.68,6.67,5.6,13.48,9.73,18.51,11.73,2.26-.33,5.94-6.61,6.74-9.79,.12,.18,2.64,3.6,3.69,6.47,1.67,3.69,3.03,8.59,0,10.98-1,.79-5.02-1.59-9.77-6.81Zm6-25.3c.01-.4-.3-.73-.7-.74-.4-.01-.73,.3-.74,.7l-.29,10.5c1.69,4.75-3.72,11.45-4.84,12.48-1.76-.74-8.48-3.62-17.15-10.88,1.08-.72,2.43-1.3,2.57-3.96,.12-2.22-.26-8.83-.27-9.11-.04-.93-1.51-.86-1.44,.08,0,.07,.39,6.81,.27,8.95-.2,2.05-2.93,2.63-3.58,3.94-2.12,12.9,3.3,36.86,19.73,15,2.28,2.41,8.43,8.42,11.11,6.3,7.04-5.57-4.58-21.19-4.62-21.24-.97-.97,.01-10.61-.05-12.01Z"/>
        </g>
      </g>
    </g>
    <g id="Head">
      <g id="Head_Senior_Hair_2" data-name="Head/Senior Hair 2">
        <path id="Path_7_Copy" data-name="Path 7 Copy" class="cls-1" d="M81.97,10.39c4.99,.91,10.22,3.8,9.16,11.63-1.06,7.83-7.88,7.47-7.88,7.47l-2.21-3.65s-2.36-.61-4.18,1.09c-1.81,1.7-4.15-2-4.15-8.27s4.26-9.19,9.25-8.28Z"/>
        <path id="Path_7_Copy_3" data-name="Path 7 Copy 3" class="cls-5" d="M73.64,26.05c-.92-1.69-1.46-4.34-1.46-7.38,0-6.3,4.27-9.84,9.89-8.81,6.69,1.22,10.56,5.12,9.6,12.24-.74,5.49-3.6,8.19-8.44,7.94h-.29s-2.24-3.71-2.24-3.71h-.04c-1.25-.26-2.34,.04-3.32,.92l-.16,.15c-1.19,1.05-2.58,.43-3.54-1.34Zm16.96-4.1c.87-6.45-2.54-9.9-8.72-11.02-4.96-.9-8.61,2.12-8.61,7.75,0,2.88,.51,5.35,1.33,6.86,.68,1.26,1.34,1.54,1.91,1.01l.1-.1c1.32-1.19,2.87-1.57,4.58-1.13l.21,.05,2.17,3.59h.26c3.86,0,6.08-2.22,6.74-6.85l.02-.16Z"/>
        <g id="No_Hair" data-name="No Hair">
          <path id="SKIN-3" data-name="SKIN" class="cls-6" d="M87.44,24.52c-.12-.77-.24-1.54-.39-2.31C83.46,3.16,71.58,.6,61.65,3.06c-6.58,1.63-15.46,6.26-13.62,23.52-3.96-.99-5.82,1.19-5.68,4.22,.12,2.73,2.18,4.71,6.22,4.93,1.18,9.24,9.83,23.61,26.56,20.32,9.77-1.92,13.42-12.42,12.97-24.56-.21-2.52-.21-4.63-.67-6.97Z"/>
          <path id="shape" class="cls-7" d="M49.29,35.64c.62,4.84,3.53,12.07,9.71,16.53,4.56,3.29,9.95,4.36,16,3.17,7.81-1.54,15.47-11.1,11.34-33-1.53-8.13-4.7-13.78-9.41-16.81-4.63-2.97-9.89-2.84-13.86-2.05,.18,.04,.33,.2,.27,.43-.11,.46-.83,.28-.72-.18,.02-.09,.07-.15,.13-.19-.32,.07-.63,.14-.93,.21-10.16,2.52-14.43,9.96-13.07,22.74,.02,.23-.07,.47-.24,.62-.18,.16-.42,.21-.65,.16-.59-.15-1.13-.22-1.62-.22-.85,0-1.55,.22-2.08,.64-.76,.62-1.14,1.71-1.08,3.06,.11,2.51,2.13,4.06,5.53,4.24,.35,.02,.63,.28,.68,.63Zm38.47-13.56c.11,.61,.22,1.22,.32,1.84l.76,8.32c.24,11.49-3.13,22.47-13.56,24.52-1.7,.33-3.35,.5-4.94,.5-4.48,0-8.56-1.31-12.18-3.92-6.31-4.56-9.41-11.83-10.22-16.94-3.82-.38-6.16-2.44-6.31-5.57-.08-1.82,.49-3.33,1.61-4.25,.72-.59,1.97-1.17,3.98-.9-1.1-12.86,3.69-20.7,14.26-23.32,4.33-1.08,10.67-1.61,16.23,1.96,5.06,3.25,8.44,9.22,10.05,17.76Z"/>
        </g>
        <path id="Path_7" data-name="Path 7" class="cls-1" d="M49.26,11.16c4.99,.91,10.22,3.8,9.16,11.63-1.06,7.83-7.88,7.47-7.88,7.47l-2.21-3.65s-2.36-.61-4.18,1.09c-1.81,1.7-4.15-2-4.15-8.27s4.26-9.19,9.25-8.28Z"/>
        <path id="Path_7_Copy_2" data-name="Path 7 Copy 2" class="cls-5" d="M40.93,26.82c-.92-1.69-1.46-4.34-1.46-7.38,0-6.3,4.27-9.84,9.89-8.81,6.69,1.22,10.56,5.12,9.6,12.24-.74,5.49-3.6,8.19-8.44,7.94l-.29-.02-2.24-3.7h-.04c-1.25-.26-2.34,.04-3.32,.92l-.16,.15c-1.19,1.05-2.58,.43-3.54-1.34Zm16.96-4.1c.87-6.45-2.54-9.9-8.72-11.02-4.96-.9-8.61,2.12-8.61,7.75,0,2.88,.51,5.35,1.33,6.86,.68,1.26,1.34,1.54,1.91,1.01l.1-.1c1.32-1.19,2.87-1.57,4.58-1.13l.21,.05,2.17,3.59h.13c3.95,.06,6.2-2.17,6.88-6.85l.02-.16Z"/>
      </g>
    </g>
    <g id="Face">
      <g id="Face_Normal_Face_2" data-name="Face/Normal Face 2">
        <path id="Normal_face_2" data-name="Normal face 2" class="cls-5" d="M82,24.81c-.41-.51-.95-.97-1.57-1.29-.62-.33-1.33-.5-2-.58-.68-.08-1.35-.07-1.99,0-.64,.06-1.27,.16-1.88,.27-.06,.01-.13,.03-.19,.05-.59,.22-.89,.87-.67,1.46,.22,.59,.87,.89,1.46,.67,.53-.2,1.07-.36,1.6-.48,.53-.12,1.05-.21,1.56-.2,1.02,.02,1.88,.41,2.74,1.07h0c.25,.2,.6,.2,.85,0,.3-.24,.34-.67,.1-.97Zm-18.85-.93c.46-.01,.91-.03,1.34-.07,.6-.05,1.13,.39,1.18,.98,.05,.6-.39,1.13-.98,1.18-.02,0-.05,0-.07,0h-.02c-.7,.01-1.38-.03-2.02-.07h0c-.53-.03-1.04-.07-1.52-.07-.54,0-1.05,.05-1.54,.18-.49,.13-.96,.33-1.47,.55h-.03c-.31,.14-.67,0-.8-.31-.1-.23-.04-.48,.11-.66,.44-.48,1.02-.86,1.65-1.12,.63-.26,1.3-.41,1.94-.49,.55-.07,1.09-.09,1.6-.1h0c.09,0,.17,0,.26,0,.12,0,.24,0,.36-.01h0Zm14.3,7.1c-.15-1.02,.48-1.96,1.4-2.09,.92-.13,1.79,.59,1.94,1.61,.15,1.02-.48,1.96-1.4,2.09-.92,.13-1.79-.59-1.94-1.61Zm-6.3,9.59c-.16-.04-.28-.07-.49-.16-.26-.11-.38-.41-.27-.66,.06-.15,.19-.25,.34-.29l.2-.05c.08-.02,.25-.01,.38,0h.04c.13,.01,.22,.02,.35,.02,.26,0,.52-.02,.77-.06,.49-.09,.92-.29,1.12-.56,.1-.14,.16-.29,.19-.49,.03-.19,.01-.43-.04-.6-.09-.34-.36-.62-.78-.9-.21-.14-.44-.27-.68-.38l-.09-.04-.06-.03c-.06-.03-.13-.07-.16-.1-.03-.03-.07-.06-.1-.1l-.06-.08c-.11-.16-.14-.25-.17-.34,0-.02-.01-.04-.02-.05-.06-.2-.09-.36-.12-.52-.1-.64-.13-1.24-.16-1.84-.06-1.2-.06-2.39-.03-3.59,0-.28,.24-.5,.52-.5,.27,0,.48,.22,.5,.48h0c.07,1.18,.15,2.36,.26,3.52,.06,.58,.13,1.16,.24,1.69,.02,.09,.04,.18,.07,.26,.28,.11,.55,.24,.83,.41,.29,.18,.59,.4,.85,.7,.26,.29,.47,.68,.56,1.08,.09,.41,.09,.77,.03,1.16-.06,.39-.23,.8-.5,1.12-.27,.33-.62,.56-.96,.71-.35,.15-.7,.22-1.04,.26-.34,.04-.67,.04-1,.02-.15-.01-.35-.03-.5-.06Zm4.5,4.56h0c-1.39,.69-3.01,.85-4.54,.65-.75-.09-1.49-.28-2.15-.61-.33-.16-.65-.34-.94-.56-.15-.11-.28-.22-.42-.34-.02-.02-.04-.03-.05-.05-.05-.04-.09-.09-.13-.13-.06-.05-.12-.13-.14-.15-.02-.02-.04-.05-.06-.07-.34-.37-.91-.4-1.28-.06-.37,.34-.4,.91-.06,1.28h0c.12,.14,.2,.22,.3,.3,.07,.07,.15,.13,.23,.19,.02,.01,.04,.03,.05,.04,.19,.15,.38,.29,.58,.42,.4,.26,.82,.47,1.25,.64,.86,.36,1.78,.54,2.69,.58,.9,.05,1.79-.06,2.67-.26,.87-.21,1.71-.55,2.47-1.03,.21-.13,.28-.4,.17-.62-.12-.24-.41-.34-.65-.22Zm-16.04-14.01c.15-1.02,1.01-1.74,1.94-1.61,.92,.13,1.55,1.07,1.4,2.09-.15,1.02-1.01,1.74-1.94,1.61-.92-.13-1.55-1.07-1.4-2.09Z"/>
      </g>
    </g>
  </g>
</svg>