<?xml version="1.0" encoding="UTF-8"?>
<svg id="Capa_1" data-name="Capa 1" xmlns="http://www.w3.org/2000/svg" viewBox="0 0 255.75 257">
  <defs>
    <style>
      .cls-1 {
        fill: #fff;
      }

      .cls-2 {
        fill: #4100f4;
      }
    </style>
  </defs>
  <circle class="cls-2" cx="127.87" cy="128.5" r="121.85"/>
  <g>
    <g>
      <path d="M150.17,39.24c3.01,1.39,4.07,3.77,3.87,7.01-.17,2.89,0,5.8-.05,8.69-.04,3.24-2.24,5.55-5.22,5.55-2.98,0-5.18-2.31-5.22-5.55-.04-2.9,.13-5.81-.05-8.69-.2-3.24,.86-5.62,3.87-7.01h2.79Z"/>
      <path d="M160.25,123.6c.74,0,1.37,0,1.99,0,9.24,0,18.47-.04,27.71,.01,6.52,.04,11.6,2.76,14.58,8.67,2.77,5.48,2.32,10.91-1.18,15.97-.78,1.13-.91,1.8-.03,2.96,3.94,5.2,3.89,12.78,0,18.05-.61,.82-1.06,1.41-.25,2.53,6.34,8.67,2.84,20.27-7.19,24.04-.32,.12-.63,.27-.74,.31,.19,2.58,.73,5.07,.47,7.47-.91,8.28-7.12,14-15.46,14.07-15.34,.13-30.67,.07-46.01-.04-5.84-.04-11.51-1.36-17.04-3.21-5.17-1.73-10.36-3.4-15.51-5.2-1.14-.4-1.59-.12-2.18,.84-2.95,4.8-7.31,7.51-12.93,7.59-10.57,.16-21.15,.08-31.72,.04-3.35-.01-5.35-2.31-5.36-5.95,0-16.61,0-33.23,0-49.84,0-14.12,0-28.23,0-42.35,0-4.54,1.9-6.42,6.48-6.42,9.64,0,19.29,.03,28.93-.01,6.89-.03,12.11,2.73,15.28,8.97,.48,.95,1,.84,1.81,.58,5.29-1.72,9.56-4.98,13.29-8.96,8.29-8.86,13.51-19.33,16.13-31.14,.53-2.38,1.14-4.74,1.76-7.09,.8-3.03,2.65-4.48,5.77-4.52,4.3-.06,8.63-.24,12.67,1.61,8.08,3.7,12.53,9.99,12.87,18.89,.4,10.46-1.02,20.73-3.85,30.81-.11,.38-.19,.77-.32,1.33Zm-17.85-42.06c-.22,.83-.44,1.55-.59,2.28-2.72,12.65-7.95,24.11-16.29,34.05-6.12,7.3-13.26,13.18-22.8,15.44-1.09,.26-1,.9-1,1.66,0,20.63,.01,41.25-.03,61.88,0,1.15,.4,1.59,1.44,1.93,6.01,1.96,11.99,4.01,18,5.98,4.77,1.56,9.67,2.5,14.7,2.5,14.64,.02,29.28,.02,43.92,0,3.2,0,5.48-2.09,5.61-5,.13-2.9-2-5.14-5.17-5.45-3.21-.3-5.33-2.48-5.26-5.37,.08-2.98,2.4-5.06,5.71-5.09,3.14-.02,6.28,.01,9.41-.01,3.41-.02,5.75-2.15,5.77-5.19,.02-3.05-2.33-5.23-5.71-5.25-3.14-.02-6.28,.01-9.41-.01-3.41-.02-5.75-2.16-5.76-5.2-.01-3.05,2.33-5.22,5.72-5.25,3.14-.02,6.28,.01,9.41-.01,3.4-.02,5.75-2.17,5.76-5.21,0-3.05-2.34-5.21-5.73-5.24-3.08-.02-6.16,0-9.24,0-3.55-.02-5.92-2.11-5.92-5.22,0-3.11,2.37-5.21,5.91-5.23,3.31-.02,6.63,.06,9.93-.04,2.81-.08,4.95-2.3,5.04-5.02,.09-2.71-1.95-5.05-4.7-5.36-.63-.07-1.28-.04-1.92-.04-16.73,0-33.47,0-50.2,0-3.54,0-5.91-2.13-5.91-5.23,0-3.11,2.37-5.2,5.93-5.22,3.31-.01,6.61,0,9.89,0,.18-.36,.34-.61,.43-.88,3.63-10.32,5.12-20.97,4.52-31.85-.32-5.84-5.51-9.85-11.46-9.33ZM59.94,207.27h1.69c7.84,0,15.68,0,23.52,0,4.08,0,6.1-2.02,6.1-6.1,0-23.81,0-47.62,0-71.42,0-4.17-2-6.14-6.23-6.14-7.78,0-15.56,0-23.34,0-.56,0-1.12,.05-1.74,.08v83.58Z"/>
      <path d="M116.52,53.43c.59,.35,1.91,.85,2.89,1.75,2.4,2.19,4.66,4.54,6.92,6.87,2.31,2.39,2.38,5.48,.25,7.62-2.13,2.14-5.24,2.09-7.62-.22-2.46-2.38-4.89-4.8-7.25-7.29-1.6-1.68-1.87-3.73-.9-5.81,.95-2.03,2.67-2.98,5.7-2.93Z"/>
      <path d="M181.91,53.18c2.21,.25,3.82,1.19,4.76,3.05,.94,1.85,.96,3.86-.44,5.4-2.7,2.95-5.52,5.81-8.48,8.5-1.95,1.76-4.98,1.38-6.8-.48-1.83-1.87-2.15-4.84-.36-6.81,2.65-2.91,5.5-5.67,8.38-8.35,.74-.69,1.95-.89,2.94-1.31Z"/>
      <path class="cls-1" d="M142.4,81.54c5.95-.52,11.14,3.49,11.46,9.33,.6,10.88-.89,21.54-4.52,31.85-.09,.27-.25,.51-.43,.88-3.27,0-6.58-.01-9.89,0-3.55,.02-5.92,2.11-5.93,5.22,0,3.11,2.37,5.23,5.91,5.23,16.73,0,33.47,0,50.2,0,.64,0,1.28-.03,1.92,.04,2.75,.3,4.79,2.65,4.7,5.36-.09,2.72-2.23,4.94-5.04,5.02-3.31,.1-6.62,.02-9.93,.04-3.54,.02-5.91,2.13-5.91,5.23,0,3.11,2.37,5.2,5.92,5.22,3.08,.01,6.16-.02,9.24,0,3.39,.03,5.74,2.19,5.73,5.24,0,3.05-2.35,5.19-5.76,5.21-3.14,.02-6.28-.01-9.41,.01-3.39,.03-5.73,2.2-5.72,5.25,.01,3.04,2.36,5.18,5.76,5.2,3.14,.02,6.28-.01,9.41,.01,3.38,.03,5.73,2.2,5.71,5.25-.02,3.04-2.36,5.17-5.77,5.19-3.14,.02-6.28-.01-9.41,.01-3.31,.03-5.63,2.11-5.71,5.09-.08,2.89,2.05,5.06,5.26,5.37,3.17,.3,5.3,2.54,5.17,5.45-.13,2.91-2.41,5-5.61,5-14.64,.02-29.28,.02-43.92,0-5.04,0-9.93-.94-14.7-2.5-6.01-1.97-11.99-4.02-18-5.98-1.04-.34-1.44-.78-1.44-1.93,.04-20.63,.03-41.25,.03-61.88,0-.76-.09-1.4,1-1.66,9.54-2.26,16.68-8.14,22.8-15.44,8.34-9.94,13.57-21.4,16.29-34.05,.16-.73,.38-1.45,.59-2.28Z"/>
      <path class="cls-1" d="M59.94,207.27V123.69c.62-.03,1.18-.08,1.74-.08,7.78,0,15.56,0,23.34,0,4.22,0,6.23,1.97,6.23,6.14,0,23.81,0,47.62,0,71.42,0,4.08-2.02,6.09-6.1,6.1-7.84,0-15.68,0-23.52,0h-1.69Zm15.58-10.47c2.84,.03,5.24-2.33,5.26-5.17,.03-2.84-2.33-5.24-5.17-5.26-2.84-.03-5.24,2.33-5.26,5.17-.03,2.84,2.33,5.24,5.17,5.26Z"/>
    </g>
    <path d="M75.52,196.8c-2.85-.03-5.2-2.42-5.17-5.26,.03-2.85,2.42-5.2,5.26-5.17,2.85,.03,5.2,2.42,5.17,5.26-.03,2.85-2.42,5.2-5.26,5.17Z"/>
  </g>
</svg>