<?xml version="1.0" encoding="utf-8"?>
<!-- Generator: Adobe Illustrator 27.0.1, SVG Export Plug-In . SVG Version: 6.00 Build 0)  -->
<svg version="1.1" id="Capa_1" xmlns="http://www.w3.org/2000/svg" xmlns:xlink="http://www.w3.org/1999/xlink" x="0px" y="0px"
	 viewBox="0 0 243.7 243.7" style="enable-background:new 0 0 243.7 243.7;" xml:space="preserve">
<style type="text/css">
	.st0{fill:#FFA42B;}
	.st1{fill:#FFFFFF;}
</style>
<circle class="st0" cx="121.8" cy="121.8" r="121.9"/>
<g>
	<g>
		<path d="M144.1,32.6c3,1.4,4.1,3.8,3.9,7c-0.2,2.9,0,5.8,0,8.7c0,3.2-2.2,5.5-5.2,5.5c-3,0-5.2-2.3-5.2-5.5c0-2.9,0.1-5.8-0.1-8.7
			c-0.2-3.2,0.9-5.6,3.9-7L144.1,32.6L144.1,32.6z"/>
		<path d="M154.2,117c0.7,0,1.4,0,2,0c9.2,0,18.5,0,27.7,0c6.5,0,11.6,2.8,14.6,8.7c2.8,5.5,2.3,10.9-1.2,16c-0.8,1.1-0.9,1.8,0,3
			c3.9,5.2,3.9,12.8,0,18.1c-0.6,0.8-1.1,1.4-0.2,2.5c6.3,8.7,2.8,20.3-7.2,24c-0.3,0.1-0.6,0.3-0.7,0.3c0.2,2.6,0.7,5.1,0.5,7.5
			c-0.9,8.3-7.1,14-15.5,14.1c-15.3,0.1-30.7,0.1-46,0c-5.8,0-11.5-1.4-17-3.2c-5.2-1.7-10.4-3.4-15.5-5.2c-1.1-0.4-1.6-0.1-2.2,0.8
			c-2.9,4.8-7.3,7.5-12.9,7.6c-10.6,0.2-21.2,0.1-31.7,0c-3.3,0-5.3-2.3-5.4-6c0-16.6,0-33.2,0-49.8c0-14.1,0-28.2,0-42.3
			c0-4.5,1.9-6.4,6.5-6.4c9.6,0,19.3,0,28.9,0c6.9,0,12.1,2.7,15.3,9c0.5,0.9,1,0.8,1.8,0.6c5.3-1.7,9.6-5,13.3-9
			c8.3-8.9,13.5-19.3,16.1-31.1c0.5-2.4,1.1-4.7,1.8-7.1c0.8-3,2.6-4.5,5.8-4.5c4.3-0.1,8.6-0.2,12.7,1.6c8.1,3.7,12.5,10,12.9,18.9
			c0.4,10.5-1,20.7-3.9,30.8C154.4,116,154.3,116.4,154.2,117L154.2,117z M136.4,74.9c-0.2,0.8-0.4,1.6-0.6,2.3
			c-2.7,12.7-8,24.1-16.3,34.1c-6.1,7.3-13.3,13.2-22.8,15.4c-1.1,0.3-1,0.9-1,1.7c0,20.6,0,41.2,0,61.9c0,1.1,0.4,1.6,1.4,1.9
			c6,2,12,4,18,6c4.8,1.6,9.7,2.5,14.7,2.5c14.6,0,29.3,0,43.9,0c3.2,0,5.5-2.1,5.6-5c0.1-2.9-2-5.1-5.2-5.5
			c-3.2-0.3-5.3-2.5-5.3-5.4c0.1-3,2.4-5.1,5.7-5.1c3.1,0,6.3,0,9.4,0c3.4,0,5.8-2.1,5.8-5.2c0-3.1-2.3-5.2-5.7-5.2
			c-3.1,0-6.3,0-9.4,0c-3.4,0-5.8-2.2-5.8-5.2c0-3.1,2.3-5.2,5.7-5.2c3.1,0,6.3,0,9.4,0c3.4,0,5.8-2.2,5.8-5.2
			c0-3.1-2.3-5.2-5.7-5.2c-3.1,0-6.2,0-9.2,0c-3.5,0-5.9-2.1-5.9-5.2c0-3.1,2.4-5.2,5.9-5.2c3.3,0,6.6,0.1,9.9,0
			c2.8-0.1,4.9-2.3,5-5c0.1-2.7-1.9-5.1-4.7-5.4c-0.6-0.1-1.3,0-1.9,0c-16.7,0-33.5,0-50.2,0c-3.5,0-5.9-2.1-5.9-5.2
			c0-3.1,2.4-5.2,5.9-5.2c3.3,0,6.6,0,9.9,0c0.2-0.4,0.3-0.6,0.4-0.9c3.6-10.3,5.1-21,4.5-31.8C147.5,78.4,142.3,74.4,136.4,74.9
			L136.4,74.9z M53.9,200.6h1.7c7.8,0,15.7,0,23.5,0c4.1,0,6.1-2,6.1-6.1c0-23.8,0-47.6,0-71.4c0-4.2-2-6.1-6.2-6.1
			c-7.8,0-15.6,0-23.3,0c-0.6,0-1.1,0.1-1.7,0.1V200.6z"/>
		<path d="M110.5,46.8c0.6,0.3,1.9,0.8,2.9,1.8c2.4,2.2,4.7,4.5,6.9,6.9c2.3,2.4,2.4,5.5,0.2,7.6s-5.2,2.1-7.6-0.2
			c-2.5-2.4-4.9-4.8-7.2-7.3c-1.6-1.7-1.9-3.7-0.9-5.8C105.7,47.7,107.5,46.7,110.5,46.8L110.5,46.8z"/>
		<path d="M175.9,46.5c2.2,0.2,3.8,1.2,4.8,3c0.9,1.8,1,3.9-0.4,5.4c-2.7,2.9-5.5,5.8-8.5,8.5c-2,1.8-5,1.4-6.8-0.5
			c-1.8-1.9-2.1-4.8-0.4-6.8c2.6-2.9,5.5-5.7,8.4-8.3C173.7,47.1,174.9,46.9,175.9,46.5z"/>
		<path class="st1" d="M136.4,74.9c6-0.5,11.1,3.5,11.5,9.3c0.6,10.9-0.9,21.5-4.5,31.8c-0.1,0.3-0.2,0.5-0.4,0.9
			c-3.3,0-6.6,0-9.9,0c-3.6,0-5.9,2.1-5.9,5.2c0,3.1,2.4,5.2,5.9,5.2c16.7,0,33.5,0,50.2,0c0.6,0,1.3,0,1.9,0
			c2.8,0.3,4.8,2.7,4.7,5.4c-0.1,2.7-2.2,4.9-5,5c-3.3,0.1-6.6,0-9.9,0c-3.5,0-5.9,2.1-5.9,5.2c0,3.1,2.4,5.2,5.9,5.2
			c3.1,0,6.2,0,9.2,0c3.4,0,5.7,2.2,5.7,5.2c0,3.1-2.4,5.2-5.8,5.2c-3.1,0-6.3,0-9.4,0c-3.4,0-5.7,2.2-5.7,5.2c0,3,2.4,5.2,5.8,5.2
			c3.1,0,6.3,0,9.4,0c3.4,0,5.7,2.2,5.7,5.2c0,3-2.4,5.2-5.8,5.2c-3.1,0-6.3,0-9.4,0c-3.3,0-5.6,2.1-5.7,5.1c-0.1,2.9,2,5.1,5.3,5.4
			c3.2,0.3,5.3,2.5,5.2,5.4s-2.4,5-5.6,5c-14.6,0-29.3,0-43.9,0c-5,0-9.9-0.9-14.7-2.5c-6-2-12-4-18-6c-1-0.3-1.4-0.8-1.4-1.9
			c0-20.6,0-41.2,0-61.9c0-0.8-0.1-1.4,1-1.7c9.5-2.3,16.7-8.1,22.8-15.4c8.3-9.9,13.6-21.4,16.3-34.1
			C135.9,76.4,136.2,75.7,136.4,74.9L136.4,74.9z"/>
		<path class="st1" d="M53.9,200.6V117c0.6,0,1.2-0.1,1.7-0.1c7.8,0,15.6,0,23.3,0c4.2,0,6.2,2,6.2,6.1c0,23.8,0,47.6,0,71.4
			c0,4.1-2,6.1-6.1,6.1c-7.8,0-15.7,0-23.5,0C55.6,200.6,53.9,200.6,53.9,200.6z M69.5,190.1c2.8,0,5.2-2.3,5.3-5.2
			c0-2.8-2.3-5.2-5.2-5.3c-2.8,0-5.2,2.3-5.3,5.2C64.3,187.7,66.7,190.1,69.5,190.1z"/>
	</g>
	<path d="M69.5,190.1c-2.8,0-5.2-2.4-5.2-5.3c0-2.9,2.4-5.2,5.3-5.2c2.8,0,5.2,2.4,5.2,5.3C74.7,187.8,72.3,190.2,69.5,190.1z"/>
</g>
</svg>
