<?xml version="1.0" encoding="UTF-8"?>
<svg id="Capa_1" data-name="Capa 1" xmlns="http://www.w3.org/2000/svg" xmlns:xlink="http://www.w3.org/1999/xlink" viewBox="0 0 327.5 369">
  <defs>
    <style>
      .cls-1 {
        fill: #ff8333;
      }

      .cls-1, .cls-2, .cls-3, .cls-4, .cls-5 {
        fill-rule: evenodd;
      }

      .cls-2 {
        fill: #fff;
      }

      .cls-6 {
        fill: #4118d4;
      }

      .cls-7 {
        fill: #fbfdfc;
      }

      .cls-8 {
        fill: #c5f0c9;
      }

      .cls-9 {
        fill: #f5580a;
      }

      .cls-10 {
        fill: #48917d;
      }

      .cls-11 {
        clip-path: url(#clippath);
      }

      .cls-12 {
        fill: #4100f4;
      }

      .cls-13 {
        fill: none;
      }

      .cls-14 {
        fill: #47b176;
      }

      .cls-3 {
        fill: #0b379b;
      }

      .cls-15 {
        fill: #ffa42b;
      }

      .cls-16 {
        fill: #ae92c4;
      }

      .cls-17 {
        fill: #a097f6;
      }

      .cls-4 {
        fill: #141414;
      }

      .cls-5 {
        fill: rgba(255, 255, 255, .8);
      }
    </style>
    <clipPath id="clippath">
      <circle class="cls-13" cx="163.43" cy="-275.17" r="146.68"/>
    </clipPath>
  </defs>
  <g class="cls-11">
    <g id="Master_Character_Sitting" data-name="Master/Character/Sitting">
      <g id="Lower_Body_Sit" data-name="Lower Body Sit">
        <g id="Lower_Body_Sit_Sitting" data-name="Lower Body Sit/Sitting">
          <g id="Sitting">
            <g id="Assets_38" data-name="Assets 38">
              <path id="SKIN" class="cls-2" d="M263.3,17.64l5.29,19.76,27.5,2.29-1.52-19.17"/>
              <path id="Fill_2" data-name="Fill 2" class="cls-4" d="M296.1,40.46s-.04,0-.07,0l-27.51-2.29c-.21-.02-.41-.12-.54-.29-.13-.17-.19-.38-.17-.59l-5.29-19.76c.05-.43,.45-.73,.87-.68,.43,.05,.73,.45,.68,.87l5.39,18.95,26.08,2.17-1.71-18.58c.13-.41,.57-.63,.98-.5,.41,.13,.63,.57,.5,.98l1.52,19.17c-.11,.32-.41,.54-.74,.54"/>
              <path id="Fill_4" data-name="Fill 4" class="cls-1" d="M267.47,36.33c.1-.4,.49-.65,.89-.58,.38,.07,.87,.16,1.44,.27,3.5,.67,10.79,2.08,17.7,2.08h.02c4.07,0,7.65-1.11,10.08-3.14,.19-.16,.45-.22,.7-.16,11.86,3.09,20.43,5.32,26.78,9.55,1.12,.74,5.14,3.99,4.44,6.29-.32,1.06-1.47,1.6-3.41,1.6-7.08,0-22.33,.04-35.78,.07-10.89,.03-20.29,.05-23.83,.05-.37,0-.71-.17-.95-.48-1.39-1.79,.88-11.5,1.92-15.58"/>
              <path id="Fill_6" data-name="Fill 6" class="cls-4" d="M266.65,55.82h61.18c1.02,0,1.84-.82,1.84-1.84v-.61c0-1.02-.82-1.84-1.84-1.84h-61.18c-1.02,0-1.84,.82-1.84,1.84v.61c0,1.02,.82,1.84,1.84,1.84"/>
              <path id="Fill_8" data-name="Fill 8" class="cls-4" d="M310.45,42.17c.31,0,.61-.17,.75-.47,1.3-2.73,3.8-2.06,4.08-1.98,.44,.13,.9-.11,1.04-.55,.14-.44-.1-.9-.54-1.04-1.42-.45-4.52-.43-6.08,2.85-.2,.41-.02,.91,.39,1.11,.12,.06,.24,.08,.36,.08"/>
              <path id="Fill_10" data-name="Fill 10" class="cls-4" d="M303.13,40.17c.31,0,.61-.17,.75-.47,1.3-2.73,3.8-2.06,4.08-1.98,.44,.13,.9-.11,1.04-.55,.14-.44-.1-.9-.54-1.04-1.42-.45-4.52-.43-6.08,2.85-.2,.41-.02,.91,.39,1.11,.12,.06,.24,.08,.36,.08"/>
            </g>
            <g id="Assets_39" data-name="Assets 39">
              <path id="SKIN_2" data-name="SKIN 2" class="cls-2" d="M198.22,18.03l-2.51,19.76,27.5,2.29,6.28-19.17"/>
              <path id="Fill_14" data-name="Fill 14" class="cls-4" d="M223.21,40.86s-.04,0-.07,0l-27.51-2.29c-.21-.02-.41-.12-.54-.29-.13-.17-.19-.38-.17-.59l2.51-19.76c.05-.43,.45-.73,.87-.68,.43,.05,.73,.45,.68,.87l-2.41,18.95,26.08,2.17,6.09-18.58c.13-.41,.57-.63,.98-.5,.41,.13,.63,.57,.5,.98l-6.28,19.17c-.11,.32-.41,.54-.74,.54"/>
              <path id="Fill_16" data-name="Fill 16" class="cls-1" d="M194.58,36.72c.1-.4,.49-.65,.89-.58,.38,.07,.87,.16,1.44,.27,3.5,.67,10.79,2.08,17.7,2.08h.02c4.07,0,7.65-1.11,10.08-3.14,.19-.16,.45-.22,.7-.16,11.86,3.09,20.43,5.32,26.78,9.55,1.12,.74,5.14,3.99,4.44,6.29-.32,1.06-1.47,1.6-3.41,1.6-7.08,0-22.33,.04-35.78,.07-10.89,.03-20.29,.05-23.83,.05-.37,0-.71-.17-.95-.48-1.39-1.79,.88-11.5,1.92-15.58"/>
              <path id="Fill_18" data-name="Fill 18" class="cls-4" d="M193.76,56.22h61.18c1.02,0,1.84-.82,1.84-1.84v-.61c0-1.02-.82-1.84-1.84-1.84h-61.18c-1.02,0-1.84,.82-1.84,1.84v.61c0,1.02,.82,1.84,1.84,1.84"/>
              <path id="Fill_21" data-name="Fill 21" class="cls-4" d="M237.56,42.56c.31,0,.61-.17,.75-.47,1.3-2.73,3.8-2.06,4.08-1.98,.44,.13,.9-.11,1.04-.55,.14-.44-.1-.9-.54-1.04-1.42-.45-4.52-.43-6.08,2.85-.2,.41-.02,.91,.39,1.11,.12,.06,.24,.08,.36,.08"/>
              <path id="Fill_23" data-name="Fill 23" class="cls-4" d="M230.24,40.56c.31,0,.61-.17,.75-.47,1.3-2.73,3.8-2.06,4.08-1.98,.44,.13,.9-.11,1.04-.55,.14-.44-.1-.9-.54-1.04-1.42-.45-4.52-.43-6.08,2.85-.2,.41-.02,.91,.39,1.11,.12,.06,.24,.08,.36,.08"/>
            </g>
            <g id="Pant_2" data-name="Pant 2">
              <path id="Fill_25" data-name="Fill 25" class="cls-4" d="M243.94-127.36h-44.73c-11.85,0,30.28,52.99,30.28,52.99,.2,4.9,.77,93.36,.77,93.36,28.69,5.9,52.02,7.59,71.69,4.46,0,0-10.31-76.72-18.85-120.78-4.42-22.82-23.21-30.02-39.16-30.02"/>
              <g id="Combined_Shape" data-name="Combined Shape">
                <path class="cls-5" d="M254.14-67.44c.43-.07,.71-.47,.64-.9l-.75-4.62c-.07-.43-.47-.71-.9-.64-.43,.07-.71,.47-.64,.9l.75,4.62c.06,.38,.39,.65,.77,.65,.04,0,.08,0,.13-.01Zm1.5,9.24c.43-.07,.71-.47,.64-.9l-.75-4.62c-.07-.43-.47-.71-.9-.64-.43,.07-.71,.47-.64,.89l.75,4.62c.06,.38,.39,.65,.77,.65,.04,0,.08,0,.13-.01Zm8.16,45.31c.07,.43-.22,.83-.64,.9-.04,0-.08,.01-.13,.01-.38,0-.71-.27-.77-.65l-.75-4.62c-.07-.43,.22-.83,.64-.9,.43-.07,.83,.22,.9,.64l.75,4.62Zm.86,10.14c.43-.07,.71-.47,.64-.9l-.75-4.62c-.07-.43-.47-.72-.9-.64-.43,.07-.71,.47-.64,.9l.75,4.62c.06,.38,.39,.65,.77,.65,.04,0,.08,0,.13-.01Zm4.51,27.72c.43-.07,.71-.47,.64-.9l-.75-4.62c-.07-.43-.47-.72-.9-.64-.43,.07-.71,.47-.64,.9l.75,4.62c.06,.38,.39,.65,.77,.65,.04,0,.08,0,.13-.01Zm-1.5-9.24c.43-.07,.71-.47,.64-.9l-.75-4.62c-.07-.43-.47-.72-.9-.64-.43,.07-.71,.47-.64,.9l.75,4.62c.06,.38,.39,.65,.77,.65,.04,0,.08,0,.13-.01Zm-.86-10.14c.07,.43-.22,.83-.64,.9-.04,0-.08,.01-.13,.01-.38,0-.71-.27-.77-.65l-.75-4.62c-.07-.43,.22-.83,.64-.9,.42-.07,.83,.22,.9,.64l.75,4.62Zm-9.01-55.45c.07,.43-.22,.83-.64,.9-.04,0-.08,.01-.13,.01-.38,0-.71-.27-.77-.65l-.75-4.62c-.07-.43,.22-.83,.64-.9,.43-.07,.83,.22,.9,.64l.75,4.62Zm4.51,27.72c.07,.43-.22,.83-.64,.9-.04,0-.08,.01-.13,.01-.38,0-.71-.27-.77-.65l-.75-4.62c-.07-.43,.22-.83,.64-.9,.42-.07,.83,.22,.9,.64l.75,4.62Zm-3.65-17.59c.43-.07,.71-.47,.64-.9l-.75-4.62c-.07-.43-.47-.72-.9-.64-.43,.07-.71,.47-.64,.9l.75,4.62c.06,.38,.39,.65,.77,.65,.04,0,.08,0,.13-.01Zm2.15,8.35c.07,.43-.22,.83-.64,.9-.04,0-.08,.01-.13,.01-.38,0-.71-.27-.77-.65l-.75-4.62c-.07-.43,.22-.83,.64-.9,.43-.07,.83,.22,.9,.64l.75,4.62Z"/>
              </g>
            </g>
            <g id="Pant_1" data-name="Pant 1">
              <path id="Fill_1" data-name="Fill 1" class="cls-3" d="M213.66-127.36H123.28s-9.14,32.59,9.43,50.42c17.12,16.43,56.24,10.55,64.43,9.1l1.35-8.46c.07-.43,.47-.72,.89-.65,.43,.07,.72,.47,.65,.89l-1.39,8.73c-.65,10.12-12.87,93.33-12.87,93.33,23.34,6.85,53.42,7.49,69.05,4.46,0,0,.29-78.13-2.85-126.21-1.35-20.7-17.8-31.61-38.31-31.61Z"/>
              <g id="Combined_Shape_2" data-name="Combined Shape_2">
                <path class="cls-5" d="M138.25-122.54c-.16-1.37-.17-2.24-.17-2.25,0-.43-.35-.77-.78-.77h0c-.43,0-.78,.36-.77,.79,0,.04,.01,.96,.19,2.41,.05,.4,.38,.69,.77,.69,.03,0,.06,0,.09,0,.43-.05,.73-.44,.68-.87ZM210.1-1.42c-.43-.03-.8,.29-.84,.72-.12,1.6-.24,3.16-.36,4.67-.03,.43,.29,.8,.72,.84,.02,0,.04,0,.06,0,.4,0,.75-.31,.78-.72,.12-1.52,.23-3.08,.36-4.67,.03-.43-.29-.8-.72-.84Zm-2.29,19.41c.03-.43,.41-.75,.84-.72,.43,.03,.75,.41,.72,.84-.14,1.73-.26,3.3-.38,4.68-.03,.41-.37,.72-.78,.72-.01,0-.02,0-.03,0h-.01s0,0,0,0c0,0,0,0-.01,0-.43-.03-.75-.41-.71-.84,.11-1.38,.24-2.95,.38-4.67Zm1.58-10.07c-.43-.03-.8,.29-.84,.72-.13,1.63-.25,3.19-.37,4.67-.03,.43,.29,.81,.72,.84,0,0,.01,0,.02,0,0,0,.02,0,.03,0h.01c.4,0,.74-.31,.78-.72,.12-1.48,.24-3.05,.37-4.68,.03-.43-.29-.8-.72-.84Zm1.89-36.67c.03-.43,.39-.76,.83-.73,.43,.03,.76,.4,.73,.83-.1,1.56-.21,3.12-.32,4.68-.03,.41-.37,.73-.78,.73-.02,0-.04,0-.05,0-.43-.03-.75-.4-.72-.83,.11-1.56,.21-3.12,.32-4.68Zm-3.18-57.06c.28,0,.56-.16,.7-.43,.2-.38,.04-.85-.34-1.05-1.25-.64-2.71-1.3-4.33-1.96-.4-.16-.85,.03-1.02,.43-.16,.4,.03,.85,.42,1.02,1.58,.65,3,1.29,4.21,1.91,.11,.06,.23,.09,.35,.09Zm1.86,75.76c.03-.43,.4-.75,.84-.72,.43,.03,.75,.41,.72,.84-.12,1.58-.23,3.14-.35,4.68-.03,.41-.37,.72-.78,.72,0,0-.02,0-.03,0h0s-.01,0-.02,0c-.43-.03-.75-.41-.72-.84,.11-1.53,.23-3.09,.34-4.67Zm1.5-10.07c-.42-.02-.8,.29-.83,.72-.11,1.57-.22,3.13-.33,4.67-.03,.43,.29,.8,.72,.83,0,0,.02,0,.03,0,0,0,0,0,.01,0s0,0,.01,0c.41,0,.75-.31,.78-.72,.11-1.55,.22-3.11,.33-4.68,.03-.43-.29-.8-.72-.83Zm-61.44-84.66c1.06,.36,2.52,.79,4.45,1.32,.42,.11,.66,.54,.55,.96-.09,.35-.41,.58-.75,.58-.07,0-.14,0-.21-.03-1.97-.54-3.46-.98-4.55-1.35-.41-.14-.63-.58-.49-.99,.14-.41,.58-.63,.99-.49Zm-10.92-13.27c-.11-.42-.54-.66-.95-.55-.42,.11-.66,.54-.55,.95,.43,1.61,.97,3.14,1.6,4.53,.13,.29,.41,.46,.71,.46,.11,0,.22-.02,.32-.07,.39-.18,.56-.64,.39-1.03-.6-1.31-1.11-2.76-1.51-4.28Zm19.9,15.79c1.43,.37,2.95,.75,4.54,1.15,.42,.11,.67,.53,.57,.95-.09,.35-.41,.59-.76,.59-.06,0-.13,0-.19-.02-1.6-.4-3.12-.79-4.55-1.15-.42-.11-.67-.53-.56-.95,.11-.42,.53-.67,.95-.56Zm53.7,63.44c-.42-.03-.8,.3-.83,.73-.1,1.55-.2,3.11-.3,4.68-.03,.43,.3,.8,.73,.83,.02,0,.03,0,.05,0,.41,0,.75-.32,.78-.73,.1-1.57,.2-3.13,.3-4.68,.03-.43-.3-.8-.73-.83Zm-17.45-53.63c1.58,.51,3.08,1.02,4.46,1.52,.41,.15,.62,.59,.47,1-.11,.32-.41,.52-.73,.52-.09,0-.18-.01-.26-.05-1.36-.49-2.85-.99-4.42-1.5-.41-.13-.63-.57-.5-.98,.13-.41,.57-.63,.98-.5Zm-4.49-1.4c-1.42-.43-2.94-.87-4.51-1.32-.42-.12-.85,.12-.96,.54-.12,.41,.12,.85,.54,.96,1.56,.44,3.07,.89,4.49,1.31,.07,.02,.15,.03,.23,.03,.34,0,.64-.22,.75-.56,.12-.41-.11-.85-.52-.97Zm-13.57-3.78c1.5,.39,3.02,.8,4.53,1.21,.42,.11,.66,.54,.55,.96-.09,.35-.41,.58-.75,.58-.07,0-.14,0-.2-.03-1.51-.41-3.02-.81-4.52-1.21-.42-.11-.67-.54-.56-.95,.11-.42,.53-.67,.95-.56Zm-4.54-1.18c-1.55-.4-3.07-.78-4.55-1.15-.42-.11-.84,.15-.95,.57-.11,.42,.15,.84,.57,.95,1.48,.37,3,.76,4.54,1.15,.06,.02,.13,.02,.19,.02,.35,0,.67-.23,.76-.59,.11-.42-.15-.84-.56-.95Zm40.36,16.67c-.33-.43-.8-.9-1.41-1.38-.34-.27-.39-.76-.13-1.1,.27-.34,.76-.39,1.1-.13,.71,.56,1.28,1.13,1.7,1.68,.23,.32,.48,.89,.64,2.82,.03,.43-.29,.81-.72,.84-.02,0-.04,0-.06,0-.4,0-.74-.31-.78-.72-.13-1.64-.32-1.99-.34-2.02Zm1.27,5.86h0c-.43,0-.78,.35-.78,.78v.63c0,1.19-.01,2.55-.04,4.04,0,.43,.33,.79,.76,.8h.02c.42,0,.77-.34,.78-.76,.03-1.5,.04-2.87,.04-4.07v-.64c0-.43-.35-.78-.78-.78Zm-.95,10.13c.01-.43,.38-.77,.81-.75,.43,.01,.77,.38,.75,.81-.05,1.49-.11,3.06-.18,4.69-.02,.42-.36,.75-.78,.75h0s0,0,0,0h-.01s0,0,0,0c-.43-.02-.76-.38-.75-.81,.07-1.63,.13-3.19,.18-4.68Zm-.06,17.98c-.43-.02-.8,.3-.82,.73-.09,1.54-.18,3.1-.27,4.68-.03,.43,.3,.8,.73,.83,.02,0,.03,0,.05,0,.41,0,.75-.32,.78-.73,.09-1.58,.19-3.14,.27-4.68,.02-.43-.3-.8-.73-.82Zm-.33-8.62c.02-.43,.39-.76,.82-.74,.43,.02,.76,.39,.74,.82-.07,1.52-.15,3.09-.24,4.68-.02,.42-.37,.74-.78,.74-.01,0-.03,0-.04,0-.43-.02-.76-.39-.74-.82,.08-1.6,.16-3.16,.24-4.68Zm-5.02,83.13c-.43-.04-.81,.28-.84,.71l-.19,2.33c-.04,.43,.28,.81,.71,.84,.02,0,.04,0,.07,0,.4,0,.74-.31,.78-.72l.19-2.33c.04-.43-.28-.81-.71-.84Zm-55.47-151.2c.02,.15,.46,3.76-.26,7.79-.88,4.96-3.16,8.35-6.62,9.91,.04,.04,.09,.07,.13,.11,.12,.1,.24,.19,.36,.28,.35,.25,.43,.74,.17,1.09-.15,.21-.39,.32-.63,.32-.16,0-.32-.05-.46-.15-1.29-.93-2.46-2.09-3.48-3.43-.26-.34-.2-.83,.15-1.09s.83-.2,1.09,.15c.43,.56,.89,1.08,1.37,1.56,8.21-2.91,6.64-16.2,6.63-16.34-.05-.43,.25-.82,.68-.87,.43-.05,.82,.25,.87,.68Z"/>
              </g>
            </g>
          </g>
        </g>
      </g>
    </g>
  </g>
  <g>
    <path class="cls-16" d="M95.48,347.93c-5.49,.04-11-.12-16.48,.18-3.66,.2-4.94-.88-4.86-4.71,.23-12.15,.04-24.31,.12-36.47,.01-2.48-.43-4.32-2.66-5.94-16.65-12.1-28.18-28.13-35.43-47.26-1.15-3.03-2.53-4.12-5.71-4.01-6.65,.22-13.33-.1-19.98,.13-3.35,.12-4.16-1.09-4.19-4.29-.11-10.81-.63-21.61,0-32.43,.17-2.98,.91-4.15,4-4.03,5.15,.2,10.33-.09,15.48,.11,3.15,.12,4.38-.96,4.69-4.16,2.52-26.45,14.69-47.69,35.32-64.16,2.73-2.18,3.11-3.48,.74-6.16-6.96-7.85-13.57-16-20.55-23.83-2.31-2.59-2.54-3.92,.59-6.01,17.68-11.81,42.27-9.34,55.61,7.29,6.17,7.69,12.57,8.19,20.66,6.49,0,0,.12,.29,.12,.29-2.32,4.59-1.61,5.94,3.44,5.95,29.53,.04,59.06-.04,88.6,.1,3.54,.02,4.79-1.31,4.73-4.53,31.53,5.88,54.49,23.6,69.67,51.42,20.77,38.07,12.5,82.61-12.5,112.9-1.59,1.92-2.41,3.75-2.34,6.25,.18,6.48,.15,12.96,.2,19.45-11.63,10.98-13.93,21.07-8.26,36.24-.04,.61-.09,1.22-.13,1.82-4.72-.08-9.46,.7-14.14-.46,0-13.73,0-27.47,0-41.2-.22,0-.45,0-.67,0v41.06c-5.82,.02-11.66-.11-17.47,.14-3.4,.14-4.7-.86-4.59-4.45,.24-7.98-.06-15.98,.14-23.97,.09-3.54-.86-4.11-4.29-3.24-9.54,2.42-19.31,3.23-29.17,3.2-20.81-.07-41.61-.02-62.42-.02-1.66,0-3.33,.02-4.99-.02q-9.39-.22-9.39,9.56c0,5.16-.13,10.33,.05,15.48,.1,2.92-.63,4.24-3.85,4.09-5.98-.28-11.97-.2-17.96-.27,0-11.32,0-22.64,0-33.96-.69,0-1.39,0-2.08,0v33.43Zm-3.11-160.01c-5.66-.86-10.94,1.22-15.51,5.23-2.31,2.02-2.7,4.41-.58,6.97,2.03,2.45,4.2,1.75,6.09,.15,7.27-6.14,14.55-5.13,21.81-.18,2.4,1.64,4.71,2.13,6.54-.31,1.8-2.39,.73-4.64-1.32-6.56-4.68-4.37-10.27-5.83-17.03-5.31Z"/>
    <path class="cls-10" d="M122.81,118.69c-2.61-1.9-1.32-3.87-.23-5.97,14.87-28.63,29.69-57.28,44.54-85.92,3.6-6.94,7.32-13.82,10.74-20.84,1.34-2.75,2.57-3.16,5.29-1.68,8.18,4.45,16.61,8.42,24.73,12.98,3.44,1.93,5.63,1.57,8-1.41,1.96-2.46,4.43-4.51,6.49-6.9,1.74-2.02,2.96-1.76,4.77,.05,15.9,15.87,31.8,31.73,47.91,47.38,2.93,2.84,1.12,4.02-.69,5.83-18.34,18.36-36.66,36.75-54.98,55.14-.47,.47-.85,1.02-1.27,1.53-3.88-.1-7.76-.19-11.64-.29,15.11-15.44,30.17-30.93,45.37-46.28,2.27-2.29,3.32-4.09,1.34-7.2-2.06-3.23-2.56-7.24-.49-10.47,3.01-4.69,1.21-7.59-2.41-10.46-1.29-1.03-2.44-2.27-3.53-3.52-1.64-1.87-2.77-1.92-3.97,.5-4.43,8.92-8.97,17.78-13.47,26.67-3.45,6.96-8.49,13.17-10.02,21.04-2.21,.44-2.51,2.25-2.86,4.02-2.33,2.95-3.68,6.44-5.29,9.79-2.47,5.74-7.06,10.49-7.87,17-2.89-1.83-6.24-.32-9.24-1.27,.79-1.83,1.48-3.71,2.39-5.47,9.67-18.79,19.38-37.57,29.08-56.35,1.04-2.01,2.53-3.65-.39-5.83-4.39-3.28-5.68-8.25-4.42-13.44,.64-2.63-.21-3.5-2.23-4.54-6.65-3.44-13.24-6.99-19.81-10.59-2.37-1.3-3.99-1.16-5.96,1.06-3.27,3.68-7.57,5.48-12.57,4.01-2.65-.78-3.9,.18-5.07,2.46-11.71,22.8-23.49,45.57-35.28,68.32-.99,1.91-1.63,3.37,.5,5.14,4.9,4.06,5.88,9.39,4.18,15.35-7.17,.15-14.34,.3-21.51,.45l-.12-.29Z"/>
    <path class="cls-15" d="M110.42,80.89c-15.62-.07-28.55-13.03-28.64-28.68-.09-15.64,13.51-29.15,29.04-28.88,15.76,.28,28.54,13.16,28.56,28.79,.02,15.92-12.99,28.84-28.97,28.76Zm21.08-28.6c.29-13.06-10.23-21.12-21.13-21.12-10.94,0-20.91,8.75-20.88,21.51,.04,11.67,9.72,21.35,21.24,21.22,11.52-.13,20.78-9.76,20.76-21.61Z"/>
    <path class="cls-15" d="M266.45,346.75c-5.67-15.17-3.37-25.26,8.26-36.24,17.79-12.41,38.48-3.32,44.43,13.28,4.71,13.13-.59,27.46-12.61,34.51-11.79,6.91-26.64,4.52-35.88-5.78-1.1-1.23-2.12-2.54-3.18-3.82-.34-.65-.69-1.3-1.03-1.95Zm4.92-13.03c0,12.57,8.35,21.04,20.79,21.08,11.9,.04,21.29-9.31,21.22-21.12-.07-11.4-9.63-20.89-21.05-20.88-12.5,0-20.95,8.45-20.96,20.92Z"/>
    <path class="cls-12" d="M206.47,118.58c3.88,.1,7.76,.19,11.64,.29,.53,.54,1.05,1.08,1.58,1.62,.06,3.22-1.18,4.55-4.73,4.53-29.53-.14-59.06-.06-88.6-.1-5.05,0-5.76-1.36-3.44-5.95,7.18-.15,14.35-.3,21.52-.45,0,0,.04,.35,.04,.35,.93,1.33,2.34,1.01,3.62,1.01,13.9,.02,27.8,.02,41.7,0,1.28,0,2.69,.31,3.63-1.01,.16-.21,.36-.36,.59-.47,3.01,.95,6.36-.56,9.25,1.27,1.07-.36,2.13-.72,3.19-1.09Z"/>
    <path class="cls-15" d="M264.55,88.16c1.15,.28,1.62,1.24,1.79,2.18,.91,5.08,4.57,7.44,8.87,9.22,1.05,.43,2.45,.69,2.52,2.08,.08,1.61-1.22,2.18-2.55,2.61-4.4,1.44-7.51,4.11-8.44,8.87-.24,1.25-.96,2.15-2.29,2.27-1.45,.13-2.17-.9-2.39-2.08-.96-5.21-4.24-8.02-9.15-9.36-1.08-.3-2.29-.88-2.28-2.3,.01-1.14,.94-1.77,1.91-2.03,5.12-1.34,8.3-4.61,9.91-9.58,.3-.94,.97-1.75,2.1-1.89Z"/>
    <path class="cls-15" d="M292.16,122.15c-.14,4.61-4.29,8.57-8.82,8.41-4.59-.16-8.5-4.3-8.38-8.86,.13-4.62,4.25-8.53,8.82-8.37,4.68,.16,8.52,4.2,8.38,8.82Zm-8.5,3.55c2.05-.4,3.38-1.51,3.22-3.64-.16-2.1-1.51-3.26-3.63-3.06-1.87,.17-2.91,1.39-2.93,3.28-.02,2.22,1.4,3.11,3.34,3.42Z"/>
    <path class="cls-12" d="M95.48,347.93v-33.43c.69,0,1.39,0,2.08,0,0,11.32,0,22.64,0,33.96-.8,.25-1.5,.07-2.08-.53Z"/>
    <path class="cls-12" d="M251.51,347.97v-41.06c.22,0,.45,0,.67,0,0,13.73,0,27.47,0,41.2-.24,.02-.46-.03-.67-.14Z"/>
    <path class="cls-17" d="M266.45,346.75c.34,.65,.69,1.3,1.03,1.95-.39-.04-.77-.09-1.16-.13,.04-.61,.09-1.22,.13-1.82Z"/>
    <path class="cls-12" d="M92.37,187.92c6.76-.53,12.35,.94,17.03,5.31,2.05,1.92,3.12,4.17,1.32,6.56-1.83,2.44-4.14,1.95-6.54,.31-7.26-4.96-14.54-5.97-21.81,.18-1.89,1.6-4.07,2.3-6.09-.15-2.12-2.57-1.73-4.95,.58-6.97,4.57-4,9.85-6.08,15.51-5.23Z"/>
    <path class="cls-8" d="M194.03,118.4c-.24,.1-.44,.26-.59,.47-16.32,0-32.64,0-48.95,0,0,0-.04-.35-.04-.35,1.71-5.96,.72-11.29-4.18-15.35-2.14-1.77-1.49-3.23-.5-5.14,11.8-22.76,23.58-45.52,35.28-68.32,1.17-2.28,2.43-3.24,5.07-2.46,5,1.47,9.3-.33,12.57-4.01,1.97-2.22,3.59-2.36,5.96-1.06,6.57,3.6,13.16,7.15,19.81,10.59,2.02,1.04,2.87,1.91,2.23,4.54-1.26,5.2,.02,10.16,4.42,13.44,2.92,2.18,1.43,3.82,.39,5.83-9.7,18.78-19.41,37.55-29.08,56.35-.91,1.77-1.6,3.64-2.39,5.47Zm-11.33-15.48c11.67,1.45,26.83-10.29,26.74-26.27-.07-14.31-12.36-26.74-26.6-26.7-14.14,.03-26.36,12.22-26.39,26.32-.03,15.02,11.41,26.64,26.24,26.65Z"/>
    <path class="cls-8" d="M206.47,118.58c-1.06,.36-2.13,.73-3.19,1.09,.81-6.51,5.39-11.26,7.86-17,.65,1.02,1.47,.92,2.57,.66,14.12-3.45,22.55-22.6,15.6-35.51,4.5-8.89,9.05-17.75,13.47-26.67,1.2-2.42,2.33-2.38,3.97-.5,1.09,1.25,2.24,2.49,3.53,3.52,3.62,2.88,5.42,5.78,2.41,10.46-2.07,3.23-1.57,7.24,.49,10.47,1.98,3.11,.93,4.91-1.34,7.2-15.19,15.36-30.26,30.84-45.37,46.28Z"/>
    <path class="cls-7" d="M229.31,67.82c6.95,12.91-1.48,32.06-15.6,35.51-1.09,.27-1.91,.37-2.57-.66,1.61-3.35,2.95-6.84,5.29-9.79,1.61,1.79,2.83,.87,4.06-.53,1.68-1.91-.33-2.49-1.2-3.49,1.53-7.88,6.57-14.08,10.02-21.04Z"/>
    <path class="cls-14" d="M219.29,88.86c.87,1,2.88,1.58,1.2,3.49-1.23,1.39-2.45,2.32-4.06,.53,.35-1.77,.65-3.58,2.86-4.02Z"/>
    <path class="cls-9" d="M131.5,52.29c.01,11.85-9.24,21.48-20.76,21.61-11.52,.13-21.21-9.55-21.24-21.22-.04-12.77,9.94-21.51,20.88-21.51,10.9,0,21.42,8.06,21.13,21.12Zm-20.8-15.38c-8.9-1.22-16.19,8.24-16.22,15.27-.04,8.46,7.45,16.44,15.83,16.65,8.73,.22,16.09-7.1,16.17-16.08,.09-9.62-6.07-15.81-15.78-15.84Z"/>
    <path class="cls-9" d="M271.37,333.72c0-12.48,8.46-20.92,20.96-20.92,11.42,0,20.98,9.48,21.05,20.88,.07,11.82-9.32,21.16-21.22,21.12-12.44-.04-20.79-8.52-20.79-21.08Zm5.01,.15c0,8.86,6.95,15.94,15.6,15.93,9-.01,16.37-7.22,16.37-16,0-8.26-7.68-15.96-15.93-15.98-9.09-.02-16.05,6.94-16.04,16.05Z"/>
    <path class="cls-6" d="M144.49,118.87c16.32,0,32.64,0,48.95,0-.94,1.32-2.35,1.01-3.63,1.01-13.9,.02-27.8,.02-41.7,0-1.28,0-2.7,.32-3.62-1.01Z"/>
    <path class="cls-7" d="M182.7,102.93c-14.83-.01-26.27-11.63-26.24-26.65,.03-14.1,12.25-26.29,26.39-26.32,14.24-.03,26.52,12.39,26.6,26.7,.08,15.99-15.08,27.72-26.74,26.27Zm13.82-15.85c.47,.19,.78,.31,1.08,.43,1.38,.58,2.69,2.26,3.91-.48,.95-2.13,.23-3.05-1.56-3.78-1.84-.76-1.43-2.36-1.51-3.82-.44-7.64-10.06-12.98-16.09-6.87-.92,.93-2.13,1.58-3.2,2.38-2.05,1.53-4.17,1.79-5.54-.6-1.33-2.33,.33-3.87,2.39-4.46,2.57-.73,4.05-2.63,3.15-4.66-1.02-2.28-3.7-1.35-5.78-.77-1.64,.46-2.85,2.51-4.98,1.21-1.09-.67-2.31-1.58-3.27,.35-.66,1.32-.92,2.54,.3,3.58,1.73,1.48,2.11,3.38,2.51,5.56,1.22,6.51,8.78,9.15,14.02,5.07,1.31-1.02,2.42-2.29,3.75-3.29,1.6-1.2,3.36-1.38,5.11-.22,1.35,.9,2.11,2.2,1.87,3.82-.28,1.95-1.28,3.74-3.4,3.72-3.02-.03-4.23,2.19-3.84,4.07,.6,2.89,3.53,1.85,5.43,1.38,2.01-.5,3.84-1.75,5.65-2.62Z"/>
    <path class="cls-15" d="M110.7,36.91c9.71,.03,15.87,6.22,15.78,15.84-.09,8.98-7.44,16.3-16.17,16.08-8.38-.21-15.87-8.19-15.83-16.65,.03-7.03,7.33-16.49,16.22-15.27Z"/>
    <path class="cls-15" d="M276.38,333.86c0-9.11,6.95-16.07,16.04-16.05,8.25,.02,15.93,7.72,15.93,15.98,0,8.78-7.37,15.98-16.37,16-8.65,.01-15.6-7.07-15.6-15.93Z"/>
    <path class="cls-10" d="M196.53,87.07c-1.81,.87-3.63,2.12-5.65,2.62-1.9,.47-4.83,1.51-5.43-1.38-.39-1.88,.82-4.1,3.84-4.07,2.12,.02,3.11-1.77,3.4-3.72,.24-1.61-.52-2.92-1.87-3.82-1.74-1.16-3.51-.98-5.11,.22-1.32,1-2.44,2.27-3.75,3.29-5.24,4.07-12.8,1.44-14.02-5.07-.41-2.18-.78-4.07-2.51-5.56-1.22-1.05-.96-2.26-.3-3.58,.96-1.93,2.18-1.02,3.27-.35,2.12,1.3,3.34-.76,4.98-1.21,2.08-.58,4.76-1.51,5.78,.77,.9,2.02-.58,3.93-3.15,4.66-2.06,.59-3.72,2.13-2.39,4.46,1.36,2.39,3.49,2.13,5.54,.6,1.06-.8,2.28-1.44,3.2-2.38,6.04-6.1,15.65-.77,16.09,6.87,.08,1.47-.33,3.07,1.51,3.82,1.78,.73,2.5,1.65,1.56,3.78-1.22,2.74-2.53,1.06-3.91,.48-.31-.13-.61-.25-1.08-.43Z"/>
  </g>
</svg>